M48
; DRILL file {KiCad 6.0.4-6f826c9f35~116~ubuntu20.04.1} date Sun Apr 17 22:19:29 2022
; FORMAT={-:-/ absolute / metric / decimal}
; #@! TF.CreationDate,2022-04-17T22:19:29+00:00
; #@! TF.GenerationSoftware,Kicad,Pcbnew,6.0.4-6f826c9f35~116~ubuntu20.04.1
; #@! TF.FileFunction,Plated,1,4,PTH
FMAT,2
METRIC
; #@! TA.AperFunction,Plated,PTH,ViaDrill
T1C0.400
%
G90
G05
T1
X-38.233Y6.394
X-37.725Y-9.735
X-37.217Y-11.132
X-36.836Y8.045
X-36.455Y6.394
X-36.074Y11.347
X-36.074Y-9.481
X-35.693Y-10.624
X-35.185Y16.046
X-34.804Y14.395
X-34.55Y6.394
X-34.169Y-9.481
X-33.407Y14.395
X-32.9Y5.8
X-32.391Y-4.655
X-32.3Y4.15
X-32.264Y21.38
X-32.05Y11.55
X-31.883Y9.315
X-31.502Y-3.512
X-30.867Y-23.578
X-30.74Y20.618
X-30.359Y-7.068
X-29.47Y-22.816
X-29.3Y15.75
X-29.25Y3.6
X-29.216Y-3.639
X-29.216Y-5.036
X-29.089Y-10.751
X-28.962Y8.045
X-28.962Y-1.988
X-28.835Y19.602
X-28.835Y6.394
X-28.8Y13.8
X-28.708Y11.474
X-28.708Y0.552
X-28.327Y-6.56
X-28.073Y-22.181
X-27.946Y24.174
X-27.5Y2.05
X-27.438Y-0.845
X-27.304Y-3.004
X-26.93Y23.158
X-26.93Y-7.83
X-26.9Y-4.75
X-26.803Y-11.513
X-26.6Y15.95
X-26.549Y-21.419
X-26.45Y11.65
X-26.295Y0.552
X-26.295Y-2.242
X-25.787Y3.219
X-25.533Y21.761
X-25.279Y-0.083
X-24.65Y13.8
X-24.517Y2.076
X-24.517Y-12.275
X-24.4Y15.95
X-24.39Y-4.02
X-24.39Y-18.752
X-23.374Y-17.99
X-23.25Y-8.4
X-22.739Y-5.798
X-22.5Y12.05
X-22.231Y-2.242
X-22.0Y15.95
X-21.088Y-3.258
X-21.088Y-7.322
X-20.834Y-14.561
X-20.8Y13.7
X-20.75Y-9.3
X-20.707Y-11.132
X-20.707Y-12.91
X-19.945Y-4.274
X-19.25Y15.95
X-19.183Y-9.227
X-18.548Y-5.671
X-18.548Y-14.561
X-18.3Y11.8
X-17.532Y-10.624
X-17.278Y-1.226
X-17.151Y-7.068
X-17.1Y13.7
X-16.897Y4.616
X-16.2Y16.1
X-15.5Y-7.83
X-15.5Y-10.751
X-14.9Y11.8
X-14.865Y-14.561
X-14.357Y0.552
X-14.357Y-0.591
X-14.357Y-1.607
X-14.23Y1.695
X-14.103Y17.443
X-13.722Y-2.496
X-13.595Y2.457
X-13.595Y-19.006
X-13.35Y13.8
X-13.341Y-7.957
X-13.341Y-12.91
X-13.087Y-4.401
X-13.087Y-10.751
X-12.706Y-2.623
X-12.643Y18.744
X-12.452Y2.584
X-12.325Y-14.942
X-12.325Y-19.133
X-11.69Y-2.623
X-11.436Y2.33
X-11.182Y-7.957
X-10.9Y4.15
X-10.801Y1.441
X-10.684Y16.269
X-10.674Y-1.607
X-10.674Y-2.623
X-10.674Y-10.751
X-10.166Y-15.577
X-10.166Y-20.911
X-10.1Y13.7
X-9.658Y1.441
X-9.658Y-1.607
X-9.15Y-3.893
X-9.076Y20.793
X-8.896Y-7.957
X-8.642Y1.441
X-8.642Y-1.607
X-8.642Y-22.348
X-8.134Y-5.671
X-8.134Y-16.847
X-8.1Y21.6
X-8.007Y-10.878
X-7.9Y15.95
X-7.85Y19.05
X-7.118Y-22.562
X-6.85Y22.75
X-6.61Y-7.957
X-6.229Y-16.593
X-5.75Y18.15
X-5.721Y21.126
X-5.721Y-22.562
X-5.594Y-10.751
X-5.34Y23.285
X-4.832Y-20.95
X-4.578Y-7.957
X-4.451Y-14.688
X-4.3Y21.3
X-3.943Y15.157
X-3.816Y23.285
X-3.637Y-21.712
X-2.927Y-22.689
X-2.85Y21.35
X-2.673Y-13.418
X-2.546Y-10.878
X-2.292Y23.412
X-2.292Y19.094
X-1.784Y12.998
X-1.657Y-15.831
X-0.514Y-15.831
X-0.26Y-11.894
X-0.133Y21.253
X-0.006Y-10.878
X0.629Y11.093
X0.883Y22.142
X1.772Y23.158
X1.899Y-22.435
X2.16Y-23.348
X2.534Y13.633
X2.788Y9.315
X2.788Y-12.402
X3.55Y-23.578
X3.634Y-20.276
X4.207Y16.744
X5.328Y11.22
X5.328Y-23.197
X5.582Y7.156
X6.217Y-16.466
X6.471Y-19.514
X6.979Y-7.322
X7.157Y14.544
X7.614Y-19.26
X7.741Y20.872
X7.868Y4.997
X8.1Y-12.45
X8.249Y-3.131
X8.376Y3.092
X8.884Y-0.21
X9.011Y-17.228
X9.196Y8.357
X9.265Y-19.133
X10.298Y-14.804
X10.662Y12.49
X10.789Y18.459
X10.789Y1.06
X10.789Y-2.242
X10.789Y-4.655
X10.806Y-13.28
X10.916Y9.061
X11.292Y6.262
X12.313Y-17.863
X12.584Y-14.296
X12.948Y-18.752
X13.202Y16.046
X13.329Y-16.339
X13.346Y-12.518
X14.091Y-1.099
X14.091Y-5.036
X14.091Y-18.752
X14.218Y-17.228
X14.98Y9.188
X14.98Y5.886
X14.98Y1.314
X15.869Y-3.512
X15.869Y-7.703
X15.996Y0.171
X17.266Y12.236
X17.393Y1.695
X17.52Y8.299
X17.52Y-6.941
X17.647Y15.919
X17.647Y-1.48
X17.647Y-3.258
X17.647Y-15.577
X18.663Y-12.402
X18.79Y2.457
X18.917Y-9.227
X19.044Y0.044
X19.171Y-1.607
X19.552Y-5.036
X20.06Y4.616
X20.314Y6.648
X20.314Y1.441
X20.949Y0.044
X21.7Y-18.4
X21.711Y-2.75
X21.711Y-11.767
X22.219Y1.06
X22.276Y9.986
X22.301Y16.108
X22.346Y3.346
X22.473Y17.443
X22.727Y5.505
X22.981Y-14.942
X23.235Y-16.974
X23.489Y2.33
X23.616Y-0.337
X23.87Y-5.29
X23.87Y-10.243
X23.921Y28.238
X24.01Y-28.13
X24.251Y14.903
X24.251Y-2.75
X24.759Y-0.337
X24.886Y0.933
X25.013Y8.045
X25.013Y3.981
X25.521Y-16.847
X25.648Y-6.687
X26.156Y5.124
X26.283Y2.203
X26.41Y14.776
X26.664Y17.443
X27.045Y6.648
X27.4Y3.4
X27.68Y16.554
X28.315Y-16.974
X28.8Y-7.0
X29.204Y-10.243
X29.45Y6.9
X29.45Y4.8
X29.585Y11.22
X29.585Y3.219
X30.347Y9.061
X30.474Y-16.72
X30.85Y-7.3
X30.855Y11.982
X31.109Y-10.624
X31.236Y15.538
X31.236Y-12.656
X31.35Y-1.15
X31.363Y-14.815
X31.896Y18.738
X32.252Y12.617
X33.014Y-3.766
X33.15Y-7.05
X33.4Y-1.45
X33.55Y1.95
T0
M30
