%TF.GenerationSoftware,KiCad,Pcbnew,(5.99.0-10394-g2e15de97e0)*%
%TF.CreationDate,2021-08-25T07:29:16+02:00*%
%TF.ProjectId,USTTHUNDERMILLPCB01A,55535454-4855-44e4-9445-524d494c4c50,rev?*%
%TF.SameCoordinates,Original*%
%TF.FileFunction,Soldermask,Bot*%
%TF.FilePolarity,Negative*%
%FSLAX46Y46*%
G04 Gerber Fmt 4.6, Leading zero omitted, Abs format (unit mm)*
G04 Created by KiCad (PCBNEW (5.99.0-10394-g2e15de97e0)) date 2021-08-25 07:29:16*
%MOMM*%
%LPD*%
G01*
G04 APERTURE LIST*
G04 Aperture macros list*
%AMRoundRect*
0 Rectangle with rounded corners*
0 $1 Rounding radius*
0 $2 $3 $4 $5 $6 $7 $8 $9 X,Y pos of 4 corners*
0 Add a 4 corners polygon primitive as box body*
4,1,4,$2,$3,$4,$5,$6,$7,$8,$9,$2,$3,0*
0 Add four circle primitives for the rounded corners*
1,1,$1+$1,$2,$3*
1,1,$1+$1,$4,$5*
1,1,$1+$1,$6,$7*
1,1,$1+$1,$8,$9*
0 Add four rect primitives between the rounded corners*
20,1,$1+$1,$2,$3,$4,$5,0*
20,1,$1+$1,$4,$5,$6,$7,0*
20,1,$1+$1,$6,$7,$8,$9,0*
20,1,$1+$1,$8,$9,$2,$3,0*%
G04 Aperture macros list end*
%ADD10C,0.150000*%
%ADD11C,0.050000*%
%ADD12RoundRect,0.200000X0.618210X0.280474X-0.293291X0.612234X-0.618210X-0.280474X0.293291X-0.612234X0*%
%ADD13RoundRect,0.200000X0.652413X0.374443X-0.259089X0.706203X-0.652413X-0.374443X0.259089X-0.706203X0*%
%ADD14RoundRect,0.200000X0.561829X0.300995X-0.236910X0.591713X-0.561829X-0.300995X0.236910X-0.591713X0*%
%ADD15RoundRect,0.200000X0.596031X0.394965X-0.202708X0.685682X-0.596031X-0.394965X0.202708X-0.685682X0*%
%ADD16RoundRect,0.200000X0.182522X0.653862X-0.657522X0.168862X-0.182522X-0.653862X0.657522X-0.168862X0*%
%ADD17RoundRect,0.200000X0.132522X0.740465X-0.707522X0.255465X-0.132522X-0.740465X0.707522X-0.255465X0*%
%ADD18RoundRect,0.200000X0.130561X0.623862X-0.605561X0.198862X-0.130561X-0.623862X0.605561X-0.198862X0*%
%ADD19RoundRect,0.200000X0.080561X0.710465X-0.655561X0.285465X-0.080561X-0.710465X0.655561X-0.285465X0*%
%ADD20RoundRect,0.200000X-0.762000X0.762000X-0.762000X-0.762000X0.762000X-0.762000X0.762000X0.762000X0*%
G04 APERTURE END LIST*
D10*
X128656800Y-90206000D02*
X131306800Y-90206000D01*
X131306800Y-90206000D02*
X131306800Y-94756000D01*
X131306800Y-94756000D02*
X128656800Y-94756000D01*
X128656800Y-94756000D02*
X128656800Y-90206000D01*
G36*
X128656800Y-90206000D02*
G01*
X131306800Y-90206000D01*
X131306800Y-94756000D01*
X128656800Y-94756000D01*
X128656800Y-90206000D01*
G37*
X135006800Y-94056000D02*
X130806800Y-94056000D01*
X130806800Y-94056000D02*
X130806800Y-90956000D01*
X130806800Y-90956000D02*
X135006800Y-90956000D01*
X135006800Y-90956000D02*
X135006800Y-94056000D01*
G36*
X135006800Y-94056000D02*
G01*
X130806800Y-94056000D01*
X130806800Y-90956000D01*
X135006800Y-90956000D01*
X135006800Y-94056000D01*
G37*
D11*
X123758399Y-74983200D02*
X124269599Y-74874500D01*
X124269599Y-74874500D02*
X124746999Y-74661899D01*
X124746999Y-74661899D02*
X125169898Y-74354700D01*
X125169898Y-74354700D02*
X125704799Y-73847099D01*
X125704799Y-73847099D02*
X126803600Y-72908599D01*
X126803600Y-72908599D02*
X127742599Y-72188098D01*
X127742599Y-72188098D02*
X128718000Y-71517799D01*
X128718000Y-71517799D02*
X129950000Y-70762800D01*
X129950000Y-70762800D02*
X131219900Y-70073299D01*
X131219900Y-70073299D02*
X132288101Y-69563798D01*
X132288101Y-69563798D02*
X133381591Y-69110799D01*
X133381591Y-69110799D02*
X134743679Y-68628499D01*
X134743679Y-68628499D02*
X136129150Y-68218099D01*
X136129150Y-68218099D02*
X137280010Y-67941799D01*
X137280010Y-67941799D02*
X138443740Y-67726099D01*
X138443740Y-67726099D02*
X139876338Y-67537498D01*
X139876338Y-67537498D02*
X141316848Y-67424098D01*
X141316848Y-67424098D02*
X142500000Y-67393199D01*
X142500000Y-67393199D02*
X143683151Y-67424098D01*
X143683151Y-67424098D02*
X145123661Y-67537498D01*
X145123661Y-67537498D02*
X146556259Y-67726099D01*
X146556259Y-67726099D02*
X147719993Y-67941799D01*
X147719993Y-67941799D02*
X148870849Y-68218099D01*
X148870849Y-68218099D02*
X150256320Y-68628499D01*
X150256320Y-68628499D02*
X151618408Y-69110799D01*
X151618408Y-69110799D02*
X152711898Y-69563798D01*
X152711898Y-69563798D02*
X153780097Y-70073299D01*
X153780097Y-70073299D02*
X155049999Y-70762800D01*
X155049999Y-70762800D02*
X156281997Y-71517799D01*
X156281997Y-71517799D02*
X157257400Y-72188098D01*
X157257400Y-72188098D02*
X158196399Y-72908599D01*
X158196399Y-72908599D02*
X159295200Y-73847099D01*
X159295200Y-73847099D02*
X159830101Y-74354700D01*
X159830101Y-74354700D02*
X160253002Y-74661899D01*
X160253002Y-74661899D02*
X160730403Y-74874500D01*
X160730403Y-74874500D02*
X161241603Y-74983200D01*
X161241603Y-74983200D02*
X161764305Y-74983200D01*
X161764305Y-74983200D02*
X162275505Y-74874500D01*
X162275505Y-74874500D02*
X162753005Y-74661899D01*
X162753005Y-74661899D02*
X163175804Y-74354700D01*
X163175804Y-74354700D02*
X168959304Y-68266799D01*
X168959304Y-68266799D02*
X169309005Y-67878400D01*
X169309005Y-67878400D02*
X169570304Y-67425800D01*
X169570304Y-67425800D02*
X169731903Y-66928699D01*
X169731903Y-66928699D02*
X169786499Y-66409000D01*
X169786499Y-66409000D02*
X169731903Y-65889200D01*
X169731903Y-65889200D02*
X169570304Y-65392099D01*
X169570304Y-65392099D02*
X169309005Y-64939498D01*
X169309005Y-64939498D02*
X168959304Y-64551099D01*
X168959304Y-64551099D02*
X168261505Y-63888900D01*
X168261505Y-63888900D02*
X166828399Y-62664901D01*
X166828399Y-62664901D02*
X165333099Y-61517501D01*
X165333099Y-61517501D02*
X164910308Y-61210302D01*
X164910308Y-61210302D02*
X163357006Y-60142803D01*
X163357006Y-60142803D02*
X161750007Y-59158002D01*
X161750007Y-59158002D02*
X160093708Y-58258703D01*
X160093708Y-58258703D02*
X158392509Y-57447303D01*
X158392509Y-57447303D02*
X157915107Y-57234703D01*
X157915107Y-57234703D02*
X156173805Y-56513504D01*
X156173805Y-56513504D02*
X154397106Y-55884304D01*
X154397106Y-55884304D02*
X152590003Y-55349002D01*
X152590003Y-55349002D02*
X150757354Y-54909103D01*
X150757354Y-54909103D02*
X150246147Y-54800403D01*
X150246147Y-54800403D02*
X148392967Y-54456905D01*
X148392967Y-54456905D02*
X146524345Y-54210906D01*
X146524345Y-54210906D02*
X144645408Y-54063007D01*
X144645408Y-54063007D02*
X142761314Y-54013706D01*
X142761314Y-54013706D02*
X142238700Y-54013706D01*
X142238700Y-54013706D02*
X140354606Y-54063007D01*
X140354606Y-54063007D02*
X138475666Y-54210906D01*
X138475666Y-54210906D02*
X136607048Y-54456905D01*
X136607048Y-54456905D02*
X134753868Y-54800403D01*
X134753868Y-54800403D02*
X134242656Y-54909103D01*
X134242656Y-54909103D02*
X132410007Y-55349002D01*
X132410007Y-55349002D02*
X130602907Y-55884304D01*
X130602907Y-55884304D02*
X128826206Y-56513504D01*
X128826206Y-56513504D02*
X127084905Y-57234703D01*
X127084905Y-57234703D02*
X126607505Y-57447303D01*
X126607505Y-57447303D02*
X124906307Y-58258703D01*
X124906307Y-58258703D02*
X123250007Y-59158002D01*
X123250007Y-59158002D02*
X121643007Y-60142803D01*
X121643007Y-60142803D02*
X120089706Y-61210302D01*
X120089706Y-61210302D02*
X119666908Y-61517501D01*
X119666908Y-61517501D02*
X118171607Y-62664901D01*
X118171607Y-62664901D02*
X116738506Y-63888900D01*
X116738506Y-63888900D02*
X116040706Y-64551101D01*
X116040706Y-64551101D02*
X115691007Y-64939500D01*
X115691007Y-64939500D02*
X115429707Y-65392101D01*
X115429707Y-65392101D02*
X115268107Y-65889202D01*
X115268107Y-65889202D02*
X115213507Y-66409002D01*
X115213507Y-66409002D02*
X115268107Y-66928701D01*
X115268107Y-66928701D02*
X115429707Y-67425802D01*
X115429707Y-67425802D02*
X115691007Y-67878402D01*
X115691007Y-67878402D02*
X116040706Y-68266801D01*
X116040706Y-68266801D02*
X121824207Y-74354701D01*
X121824207Y-74354701D02*
X122247007Y-74661903D01*
X122247007Y-74661903D02*
X122724508Y-74874502D01*
X122724508Y-74874502D02*
X123235708Y-74983201D01*
X123235708Y-74983201D02*
X123758399Y-74983200D01*
X123758399Y-74983200D02*
X123758399Y-74983200D01*
G36*
X144645408Y-54063007D02*
G01*
X146524345Y-54210906D01*
X148392967Y-54456905D01*
X150246147Y-54800403D01*
X150757354Y-54909103D01*
X152590003Y-55349002D01*
X154397106Y-55884304D01*
X156173805Y-56513504D01*
X157915107Y-57234703D01*
X158392509Y-57447303D01*
X160093708Y-58258703D01*
X161750007Y-59158002D01*
X163357006Y-60142803D01*
X164910308Y-61210302D01*
X165333099Y-61517501D01*
X166828399Y-62664901D01*
X168261505Y-63888900D01*
X168959304Y-64551099D01*
X169309005Y-64939498D01*
X169570304Y-65392099D01*
X169731903Y-65889200D01*
X169786499Y-66409000D01*
X169731903Y-66928699D01*
X169570304Y-67425800D01*
X169309005Y-67878400D01*
X168959304Y-68266799D01*
X163175804Y-74354700D01*
X162753005Y-74661899D01*
X162275505Y-74874500D01*
X161764305Y-74983200D01*
X161241603Y-74983200D01*
X160730403Y-74874500D01*
X160253002Y-74661899D01*
X159830101Y-74354700D01*
X159295200Y-73847099D01*
X158196399Y-72908599D01*
X157257400Y-72188098D01*
X156281997Y-71517799D01*
X155049999Y-70762800D01*
X153780097Y-70073299D01*
X152711898Y-69563798D01*
X151618408Y-69110799D01*
X150256320Y-68628499D01*
X148870849Y-68218099D01*
X147719993Y-67941799D01*
X146556259Y-67726099D01*
X145123661Y-67537498D01*
X143683151Y-67424098D01*
X142500000Y-67393199D01*
X141316848Y-67424098D01*
X139876338Y-67537498D01*
X138443740Y-67726099D01*
X137280010Y-67941799D01*
X136129150Y-68218099D01*
X134743679Y-68628499D01*
X133381591Y-69110799D01*
X132288101Y-69563798D01*
X131219900Y-70073299D01*
X129950000Y-70762800D01*
X128718000Y-71517799D01*
X127742599Y-72188098D01*
X126803600Y-72908599D01*
X125704799Y-73847099D01*
X125169898Y-74354700D01*
X124746999Y-74661899D01*
X124269599Y-74874500D01*
X123758399Y-74983200D01*
X123235708Y-74983201D01*
X122724508Y-74874502D01*
X122247007Y-74661903D01*
X121824207Y-74354701D01*
X116040706Y-68266801D01*
X115691007Y-67878402D01*
X115429707Y-67425802D01*
X115268107Y-66928701D01*
X115213507Y-66409002D01*
X115268107Y-65889202D01*
X115429707Y-65392101D01*
X115691007Y-64939500D01*
X116040706Y-64551101D01*
X116738506Y-63888900D01*
X118171607Y-62664901D01*
X119666908Y-61517501D01*
X120089706Y-61210302D01*
X121643007Y-60142803D01*
X123250007Y-59158002D01*
X124906307Y-58258703D01*
X126607505Y-57447303D01*
X127084905Y-57234703D01*
X128826206Y-56513504D01*
X130602907Y-55884304D01*
X132410007Y-55349002D01*
X134242656Y-54909103D01*
X134753868Y-54800403D01*
X136607048Y-54456905D01*
X138475666Y-54210906D01*
X140354606Y-54063007D01*
X142238700Y-54013706D01*
X142761314Y-54013706D01*
X144645408Y-54063007D01*
G37*
X144645408Y-54063007D02*
X146524345Y-54210906D01*
X148392967Y-54456905D01*
X150246147Y-54800403D01*
X150757354Y-54909103D01*
X152590003Y-55349002D01*
X154397106Y-55884304D01*
X156173805Y-56513504D01*
X157915107Y-57234703D01*
X158392509Y-57447303D01*
X160093708Y-58258703D01*
X161750007Y-59158002D01*
X163357006Y-60142803D01*
X164910308Y-61210302D01*
X165333099Y-61517501D01*
X166828399Y-62664901D01*
X168261505Y-63888900D01*
X168959304Y-64551099D01*
X169309005Y-64939498D01*
X169570304Y-65392099D01*
X169731903Y-65889200D01*
X169786499Y-66409000D01*
X169731903Y-66928699D01*
X169570304Y-67425800D01*
X169309005Y-67878400D01*
X168959304Y-68266799D01*
X163175804Y-74354700D01*
X162753005Y-74661899D01*
X162275505Y-74874500D01*
X161764305Y-74983200D01*
X161241603Y-74983200D01*
X160730403Y-74874500D01*
X160253002Y-74661899D01*
X159830101Y-74354700D01*
X159295200Y-73847099D01*
X158196399Y-72908599D01*
X157257400Y-72188098D01*
X156281997Y-71517799D01*
X155049999Y-70762800D01*
X153780097Y-70073299D01*
X152711898Y-69563798D01*
X151618408Y-69110799D01*
X150256320Y-68628499D01*
X148870849Y-68218099D01*
X147719993Y-67941799D01*
X146556259Y-67726099D01*
X145123661Y-67537498D01*
X143683151Y-67424098D01*
X142500000Y-67393199D01*
X141316848Y-67424098D01*
X139876338Y-67537498D01*
X138443740Y-67726099D01*
X137280010Y-67941799D01*
X136129150Y-68218099D01*
X134743679Y-68628499D01*
X133381591Y-69110799D01*
X132288101Y-69563798D01*
X131219900Y-70073299D01*
X129950000Y-70762800D01*
X128718000Y-71517799D01*
X127742599Y-72188098D01*
X126803600Y-72908599D01*
X125704799Y-73847099D01*
X125169898Y-74354700D01*
X124746999Y-74661899D01*
X124269599Y-74874500D01*
X123758399Y-74983200D01*
X123235708Y-74983201D01*
X122724508Y-74874502D01*
X122247007Y-74661903D01*
X121824207Y-74354701D01*
X116040706Y-68266801D01*
X115691007Y-67878402D01*
X115429707Y-67425802D01*
X115268107Y-66928701D01*
X115213507Y-66409002D01*
X115268107Y-65889202D01*
X115429707Y-65392101D01*
X115691007Y-64939500D01*
X116040706Y-64551101D01*
X116738506Y-63888900D01*
X118171607Y-62664901D01*
X119666908Y-61517501D01*
X120089706Y-61210302D01*
X121643007Y-60142803D01*
X123250007Y-59158002D01*
X124906307Y-58258703D01*
X126607505Y-57447303D01*
X127084905Y-57234703D01*
X128826206Y-56513504D01*
X130602907Y-55884304D01*
X132410007Y-55349002D01*
X134242656Y-54909103D01*
X134753868Y-54800403D01*
X136607048Y-54456905D01*
X138475666Y-54210906D01*
X140354606Y-54063007D01*
X142238700Y-54013706D01*
X142761314Y-54013706D01*
X144645408Y-54063007D01*
X144645401Y-130936996D02*
X146524337Y-130789100D01*
X146524337Y-130789100D02*
X148392959Y-130543106D01*
X148392959Y-130543106D02*
X150246139Y-130199600D01*
X150246139Y-130199600D02*
X150757347Y-130090904D01*
X150757347Y-130090904D02*
X152589996Y-129651000D01*
X152589996Y-129651000D02*
X154397098Y-129115707D01*
X154397098Y-129115707D02*
X156173797Y-128486503D01*
X156173797Y-128486503D02*
X157915100Y-127765304D01*
X157915100Y-127765304D02*
X158392498Y-127552703D01*
X158392498Y-127552703D02*
X160093696Y-126741302D01*
X160093696Y-126741302D02*
X161749996Y-125842002D01*
X161749996Y-125842002D02*
X163356994Y-124857208D01*
X163356994Y-124857208D02*
X164910293Y-123789703D01*
X164910293Y-123789703D02*
X165333091Y-123482498D01*
X165333091Y-123482498D02*
X166828392Y-122335098D01*
X166828392Y-122335098D02*
X168261489Y-121111099D01*
X168261489Y-121111099D02*
X168959289Y-120448898D01*
X168959289Y-120448898D02*
X169308990Y-120060501D01*
X169308990Y-120060501D02*
X169570297Y-119607902D01*
X169570297Y-119607902D02*
X169731887Y-119110801D01*
X169731887Y-119110801D02*
X169786491Y-118591003D01*
X169786491Y-118591003D02*
X169731887Y-118071304D01*
X169731887Y-118071304D02*
X169570297Y-117574203D01*
X169570297Y-117574203D02*
X169308990Y-117121597D01*
X169308990Y-117121597D02*
X168959289Y-116733200D01*
X168959289Y-116733200D02*
X163175792Y-110645301D01*
X163175792Y-110645301D02*
X162752994Y-110338104D01*
X162752994Y-110338104D02*
X162275493Y-110125503D01*
X162275493Y-110125503D02*
X161764293Y-110016799D01*
X161764293Y-110016799D02*
X161241592Y-110016799D01*
X161241592Y-110016799D02*
X160730392Y-110125503D01*
X160730392Y-110125503D02*
X160252990Y-110338104D01*
X160252990Y-110338104D02*
X159830093Y-110645301D01*
X159830093Y-110645301D02*
X159295188Y-111152900D01*
X159295188Y-111152900D02*
X158196388Y-112091400D01*
X158196388Y-112091400D02*
X157257392Y-112811901D01*
X157257392Y-112811901D02*
X156281990Y-113482200D01*
X156281990Y-113482200D02*
X155049987Y-114237197D01*
X155049987Y-114237197D02*
X153780090Y-114926696D01*
X153780090Y-114926696D02*
X152711891Y-115436203D01*
X152711891Y-115436203D02*
X151618400Y-115889198D01*
X151618400Y-115889198D02*
X150256309Y-116371498D01*
X150256309Y-116371498D02*
X148870841Y-116781898D01*
X148870841Y-116781898D02*
X147719982Y-117058197D01*
X147719982Y-117058197D02*
X146556251Y-117273902D01*
X146556251Y-117273902D02*
X145123649Y-117462501D01*
X145123649Y-117462501D02*
X143683143Y-117575897D01*
X143683143Y-117575897D02*
X142500000Y-117606796D01*
X142500000Y-117606796D02*
X141316848Y-117575897D01*
X141316848Y-117575897D02*
X139876338Y-117462501D01*
X139876338Y-117462501D02*
X138443740Y-117273895D01*
X138443740Y-117273895D02*
X137280010Y-117058197D01*
X137280010Y-117058197D02*
X136129150Y-116781898D01*
X136129150Y-116781898D02*
X134743679Y-116371498D01*
X134743679Y-116371498D02*
X133381591Y-115889198D01*
X133381591Y-115889198D02*
X132288101Y-115436203D01*
X132288101Y-115436203D02*
X131219900Y-114926696D01*
X131219900Y-114926696D02*
X129950000Y-114237197D01*
X129950000Y-114237197D02*
X128718000Y-113482200D01*
X128718000Y-113482200D02*
X127742599Y-112811897D01*
X127742599Y-112811897D02*
X126803600Y-112091400D01*
X126803600Y-112091400D02*
X125704799Y-111152900D01*
X125704799Y-111152900D02*
X125169898Y-110645301D01*
X125169898Y-110645301D02*
X124746999Y-110338100D01*
X124746999Y-110338100D02*
X124269599Y-110125499D01*
X124269599Y-110125499D02*
X123758399Y-110016799D01*
X123758399Y-110016799D02*
X123235700Y-110016799D01*
X123235700Y-110016799D02*
X122724500Y-110125499D01*
X122724500Y-110125499D02*
X122246999Y-110338100D01*
X122246999Y-110338100D02*
X121824199Y-110645301D01*
X121824199Y-110645301D02*
X116040699Y-116733200D01*
X116040699Y-116733200D02*
X115690999Y-117121597D01*
X115690999Y-117121597D02*
X115429699Y-117574203D01*
X115429699Y-117574203D02*
X115268099Y-118071304D01*
X115268099Y-118071304D02*
X115213500Y-118591003D01*
X115213500Y-118591003D02*
X115268099Y-119110801D01*
X115268099Y-119110801D02*
X115429699Y-119607902D01*
X115429699Y-119607902D02*
X115690999Y-120060501D01*
X115690999Y-120060501D02*
X116040699Y-120448898D01*
X116040699Y-120448898D02*
X116738498Y-121111099D01*
X116738498Y-121111099D02*
X118171600Y-122335098D01*
X118171600Y-122335098D02*
X119666900Y-123482498D01*
X119666900Y-123482498D02*
X120089698Y-123789703D01*
X120089698Y-123789703D02*
X121642999Y-124857200D01*
X121642999Y-124857200D02*
X123250000Y-125841995D01*
X123250000Y-125841995D02*
X124906299Y-126741302D01*
X124906299Y-126741302D02*
X126607500Y-127552703D01*
X126607500Y-127552703D02*
X127084899Y-127765304D01*
X127084899Y-127765304D02*
X128826200Y-128486495D01*
X128826200Y-128486495D02*
X130602899Y-129115699D01*
X130602899Y-129115699D02*
X132409999Y-129651000D01*
X132409999Y-129651000D02*
X134242649Y-130090896D01*
X134242649Y-130090896D02*
X134753860Y-130199600D01*
X134753860Y-130199600D02*
X136607040Y-130543098D01*
X136607040Y-130543098D02*
X138475662Y-130789093D01*
X138475662Y-130789093D02*
X140354598Y-130936996D01*
X140354598Y-130936996D02*
X142238693Y-130986297D01*
X142238693Y-130986297D02*
X142761306Y-130986297D01*
X142761306Y-130986297D02*
X144645401Y-130936996D01*
X144645401Y-130936996D02*
X144645401Y-130936996D01*
G36*
X124269599Y-110125499D02*
G01*
X124746999Y-110338100D01*
X125169898Y-110645301D01*
X125704799Y-111152900D01*
X126803600Y-112091400D01*
X127742599Y-112811897D01*
X128718000Y-113482200D01*
X129950000Y-114237197D01*
X131219900Y-114926696D01*
X132288101Y-115436203D01*
X133381591Y-115889198D01*
X134743679Y-116371498D01*
X136129150Y-116781898D01*
X137280010Y-117058197D01*
X138443740Y-117273895D01*
X139876338Y-117462501D01*
X141316848Y-117575897D01*
X142500000Y-117606796D01*
X143683143Y-117575897D01*
X145123649Y-117462501D01*
X146556251Y-117273902D01*
X147719982Y-117058197D01*
X148870841Y-116781898D01*
X150256309Y-116371498D01*
X151618400Y-115889198D01*
X152711891Y-115436203D01*
X153780090Y-114926696D01*
X155049987Y-114237197D01*
X156281990Y-113482200D01*
X157257392Y-112811901D01*
X158196388Y-112091400D01*
X159295188Y-111152900D01*
X159830093Y-110645301D01*
X160252990Y-110338104D01*
X160730392Y-110125503D01*
X161241592Y-110016799D01*
X161764293Y-110016799D01*
X162275493Y-110125503D01*
X162752994Y-110338104D01*
X163175792Y-110645301D01*
X168959289Y-116733200D01*
X169308990Y-117121597D01*
X169570297Y-117574203D01*
X169731887Y-118071304D01*
X169786491Y-118591003D01*
X169731887Y-119110801D01*
X169570297Y-119607902D01*
X169308990Y-120060501D01*
X168959289Y-120448898D01*
X168261489Y-121111099D01*
X166828392Y-122335098D01*
X165333091Y-123482498D01*
X164910293Y-123789703D01*
X163356994Y-124857208D01*
X161749996Y-125842002D01*
X160093696Y-126741302D01*
X158392498Y-127552703D01*
X157915100Y-127765304D01*
X156173797Y-128486503D01*
X154397098Y-129115707D01*
X152589996Y-129651000D01*
X150757347Y-130090904D01*
X150246139Y-130199600D01*
X148392959Y-130543106D01*
X146524337Y-130789100D01*
X144645401Y-130936996D01*
X142761306Y-130986297D01*
X142238693Y-130986297D01*
X140354598Y-130936996D01*
X138475662Y-130789093D01*
X136607040Y-130543098D01*
X134753860Y-130199600D01*
X134242649Y-130090896D01*
X132409999Y-129651000D01*
X130602899Y-129115699D01*
X128826200Y-128486495D01*
X127084899Y-127765304D01*
X126607500Y-127552703D01*
X124906299Y-126741302D01*
X123250000Y-125841995D01*
X121642999Y-124857200D01*
X120089698Y-123789703D01*
X119666900Y-123482498D01*
X118171600Y-122335098D01*
X116738498Y-121111099D01*
X116040699Y-120448898D01*
X115690999Y-120060501D01*
X115429699Y-119607902D01*
X115268099Y-119110801D01*
X115213500Y-118591003D01*
X115268099Y-118071304D01*
X115429699Y-117574203D01*
X115690999Y-117121597D01*
X116040699Y-116733200D01*
X121824199Y-110645301D01*
X122246999Y-110338100D01*
X122724500Y-110125499D01*
X123235700Y-110016799D01*
X123758399Y-110016799D01*
X124269599Y-110125499D01*
G37*
X124269599Y-110125499D02*
X124746999Y-110338100D01*
X125169898Y-110645301D01*
X125704799Y-111152900D01*
X126803600Y-112091400D01*
X127742599Y-112811897D01*
X128718000Y-113482200D01*
X129950000Y-114237197D01*
X131219900Y-114926696D01*
X132288101Y-115436203D01*
X133381591Y-115889198D01*
X134743679Y-116371498D01*
X136129150Y-116781898D01*
X137280010Y-117058197D01*
X138443740Y-117273895D01*
X139876338Y-117462501D01*
X141316848Y-117575897D01*
X142500000Y-117606796D01*
X143683143Y-117575897D01*
X145123649Y-117462501D01*
X146556251Y-117273902D01*
X147719982Y-117058197D01*
X148870841Y-116781898D01*
X150256309Y-116371498D01*
X151618400Y-115889198D01*
X152711891Y-115436203D01*
X153780090Y-114926696D01*
X155049987Y-114237197D01*
X156281990Y-113482200D01*
X157257392Y-112811901D01*
X158196388Y-112091400D01*
X159295188Y-111152900D01*
X159830093Y-110645301D01*
X160252990Y-110338104D01*
X160730392Y-110125503D01*
X161241592Y-110016799D01*
X161764293Y-110016799D01*
X162275493Y-110125503D01*
X162752994Y-110338104D01*
X163175792Y-110645301D01*
X168959289Y-116733200D01*
X169308990Y-117121597D01*
X169570297Y-117574203D01*
X169731887Y-118071304D01*
X169786491Y-118591003D01*
X169731887Y-119110801D01*
X169570297Y-119607902D01*
X169308990Y-120060501D01*
X168959289Y-120448898D01*
X168261489Y-121111099D01*
X166828392Y-122335098D01*
X165333091Y-123482498D01*
X164910293Y-123789703D01*
X163356994Y-124857208D01*
X161749996Y-125842002D01*
X160093696Y-126741302D01*
X158392498Y-127552703D01*
X157915100Y-127765304D01*
X156173797Y-128486503D01*
X154397098Y-129115707D01*
X152589996Y-129651000D01*
X150757347Y-130090904D01*
X150246139Y-130199600D01*
X148392959Y-130543106D01*
X146524337Y-130789100D01*
X144645401Y-130936996D01*
X142761306Y-130986297D01*
X142238693Y-130986297D01*
X140354598Y-130936996D01*
X138475662Y-130789093D01*
X136607040Y-130543098D01*
X134753860Y-130199600D01*
X134242649Y-130090896D01*
X132409999Y-129651000D01*
X130602899Y-129115699D01*
X128826200Y-128486495D01*
X127084899Y-127765304D01*
X126607500Y-127552703D01*
X124906299Y-126741302D01*
X123250000Y-125841995D01*
X121642999Y-124857200D01*
X120089698Y-123789703D01*
X119666900Y-123482498D01*
X118171600Y-122335098D01*
X116738498Y-121111099D01*
X116040699Y-120448898D01*
X115690999Y-120060501D01*
X115429699Y-119607902D01*
X115268099Y-119110801D01*
X115213500Y-118591003D01*
X115268099Y-118071304D01*
X115429699Y-117574203D01*
X115690999Y-117121597D01*
X116040699Y-116733200D01*
X121824199Y-110645301D01*
X122246999Y-110338100D01*
X122724500Y-110125499D01*
X123235700Y-110016799D01*
X123758399Y-110016799D01*
X124269599Y-110125499D01*
D12*
%TO.C,U6*%
X149002125Y-76326807D03*
D13*
X148540398Y-77595392D03*
D14*
X147874494Y-75916383D03*
D15*
X147412767Y-77184968D03*
%TD*%
D16*
%TO.C,U5*%
X131787934Y-72800381D03*
D17*
X132462934Y-73969515D03*
D18*
X130748704Y-73400381D03*
D19*
X131423704Y-74569515D03*
%TD*%
D20*
%TO.C,J4*%
X151782400Y-105055800D03*
X151782400Y-107595800D03*
X154322400Y-105055800D03*
X154322400Y-107595800D03*
X156862400Y-105055800D03*
X156862400Y-107595800D03*
%TD*%
M02*
