%TF.GenerationSoftware,KiCad,Pcbnew,7.0.5.1-1-g8f565ef7f0-dirty-deb11*%
%TF.CreationDate,2023-07-01T18:37:16+00:00*%
%TF.ProjectId,USTTHUNDERMILLPCB03,55535454-4855-44e4-9445-524d494c4c50,rev?*%
%TF.SameCoordinates,Original*%
%TF.FileFunction,Copper,L1,Top*%
%TF.FilePolarity,Positive*%
%FSLAX46Y46*%
G04 Gerber Fmt 4.6, Leading zero omitted, Abs format (unit mm)*
G04 Created by KiCad (PCBNEW 7.0.5.1-1-g8f565ef7f0-dirty-deb11) date 2023-07-01 18:37:16*
%MOMM*%
%LPD*%
G01*
G04 APERTURE LIST*
%TA.AperFunction,ComponentPad*%
%ADD10C,3.000000*%
%TD*%
%TA.AperFunction,ViaPad*%
%ADD11C,0.800000*%
%TD*%
G04 APERTURE END LIST*
D10*
%TO.P,M2,1*%
%TO.N,GND*%
X-5500000Y9526279D03*
%TD*%
%TO.P,M3,1*%
%TO.N,GND*%
X-5500000Y-9526279D03*
%TD*%
%TO.P,M1,1*%
%TO.N,GND*%
X11000000Y0D03*
%TD*%
D11*
%TO.N,STATOR_A*%
X18900000Y19100000D03*
%TO.N,STATOR_B*%
X18900000Y-19300000D03*
%TO.N,GND*%
X37051635Y-409465D03*
X-34957193Y-12287634D03*
X-32292389Y-18171210D03*
X-37051635Y409465D03*
X-34677103Y13057177D03*
X-28646398Y-23502663D03*
X-36559840Y-6030705D03*
X-36417634Y6837193D03*
X28646398Y23502663D03*
X31882925Y-18880424D03*
X34957193Y12287634D03*
X-31882925Y18880424D03*
X28120000Y-24130000D03*
X36417634Y-6837193D03*
X-28120000Y24130000D03*
X36559840Y6030705D03*
X34677103Y-13057177D03*
X32292389Y18171210D03*
%TD*%
%TA.AperFunction,Conductor*%
%TO.N,STATOR_A*%
G36*
X221633Y37986104D02*
G01*
X418066Y37983534D01*
X1150475Y37964370D01*
X1151723Y37964321D01*
X3031332Y37865819D01*
X3033889Y37865617D01*
X4905094Y37668938D01*
X4907660Y37668601D01*
X6766692Y37374198D01*
X6767849Y37373999D01*
X7488307Y37240496D01*
X7897781Y37159019D01*
X7898940Y37158772D01*
X8306130Y37066597D01*
X9018625Y36895537D01*
X9019774Y36895245D01*
X10837818Y36408084D01*
X10840285Y36407353D01*
X12629678Y35825964D01*
X12632122Y35825099D01*
X14389363Y35150573D01*
X14390496Y35150122D01*
X15067442Y34869710D01*
X15450958Y34704953D01*
X15452101Y34704444D01*
X15831150Y34529721D01*
X16492551Y34214261D01*
X16493714Y34213687D01*
X18170703Y33359232D01*
X18172981Y33357995D01*
X19173048Y32780597D01*
X19802349Y32417263D01*
X19802353Y32417261D01*
X19804562Y32415907D01*
X21383107Y31390800D01*
X21384121Y31390123D01*
X21910812Y31028157D01*
X21987988Y30975118D01*
X22328873Y30734169D01*
X22329893Y30733428D01*
X22664307Y30483664D01*
X23762879Y29640689D01*
X23763896Y29639887D01*
X24214136Y29275309D01*
X24215131Y29274481D01*
X24251566Y29243367D01*
X24331737Y29174902D01*
X24413341Y29105215D01*
X24413342Y29105214D01*
X24457624Y29067415D01*
X24457633Y29067400D01*
X24457637Y29067404D01*
X24501941Y29029573D01*
X24546128Y28991811D01*
X24546129Y28991811D01*
X24678852Y28878444D01*
X24678853Y28878444D01*
X24678861Y28878437D01*
X24678862Y28878436D01*
X24722932Y28840810D01*
X24722936Y28840804D01*
X24722938Y28840805D01*
X24943826Y28652188D01*
X24943825Y28652188D01*
X24943828Y28652187D01*
X24999031Y28605041D01*
X25276529Y28368029D01*
X25279102Y28365831D01*
X25284341Y28361356D01*
X25284343Y28361353D01*
X25284343Y28361354D01*
X25339364Y28314356D01*
X25374757Y28284123D01*
X25375733Y28283267D01*
X25422859Y28240825D01*
X25475850Y28193100D01*
X25476785Y28192235D01*
X25575049Y28098962D01*
X25874805Y27814460D01*
X26040689Y27657025D01*
X26042070Y27655662D01*
X26200860Y27492669D01*
X26202187Y27491252D01*
X26224894Y27466038D01*
X26262868Y27423871D01*
X26266121Y27419853D01*
X26502936Y27093960D01*
X26513287Y27076035D01*
X26673960Y26715216D01*
X26680357Y26695528D01*
X26762488Y26309145D01*
X26764652Y26288560D01*
X26764648Y25893502D01*
X26762484Y25872918D01*
X26680357Y25486581D01*
X26673960Y25466894D01*
X26513287Y25106073D01*
X26502941Y25088154D01*
X26266331Y24762489D01*
X26262622Y24757971D01*
X25980684Y24453119D01*
X25975389Y24447545D01*
X25942237Y24412650D01*
X25678136Y24134664D01*
X25667784Y24123767D01*
X25662693Y24118408D01*
X25624575Y24078288D01*
X25554048Y24004056D01*
X25554049Y24004055D01*
X25028783Y23451123D01*
X24987821Y23407998D01*
X24415131Y22805152D01*
X24409853Y22799596D01*
X24405007Y22794495D01*
X24405007Y22794494D01*
X24372948Y22760756D01*
X24372949Y22760755D01*
X23717873Y22071221D01*
X23717874Y22071220D01*
X23686794Y22038503D01*
X22969573Y21283520D01*
X22939442Y21251803D01*
X22161948Y20433394D01*
X22161949Y20433393D01*
X22098151Y20366236D01*
X21423077Y19655632D01*
X21333724Y19561574D01*
X21333716Y19561566D01*
X21249839Y19473278D01*
X21064649Y19278348D01*
X21064650Y19278347D01*
X20582343Y18770653D01*
X20582344Y18770652D01*
X20486709Y18669981D01*
X20483447Y18666847D01*
X20179418Y18400370D01*
X20163664Y18389084D01*
X19821030Y18191261D01*
X19802123Y18182844D01*
X19674792Y18141474D01*
X19426384Y18060766D01*
X19406137Y18056463D01*
X19013288Y18015190D01*
X18992600Y18015190D01*
X18599739Y18056464D01*
X18579489Y18060768D01*
X18427164Y18110267D01*
X18203833Y18182839D01*
X18184930Y18191256D01*
X17842269Y18389084D01*
X17841162Y18389724D01*
X17827368Y18399336D01*
X17696260Y18508359D01*
X17514296Y18659671D01*
X17511871Y18661826D01*
X17397233Y18770616D01*
X17397211Y18770636D01*
X17397195Y18770651D01*
X16849278Y19264007D01*
X16849255Y19264027D01*
X16849243Y19264038D01*
X16849223Y19264055D01*
X16500882Y19561574D01*
X15540774Y20339083D01*
X15540713Y20339130D01*
X14488171Y21103866D01*
X14484449Y21104159D01*
X14468433Y21112587D01*
X13505136Y21738133D01*
X13416043Y21792724D01*
X13415996Y21792753D01*
X13415995Y21792753D01*
X13415992Y21792755D01*
X12990324Y22038503D01*
X12165107Y22514921D01*
X12118178Y22540401D01*
X12073143Y22564854D01*
X10972414Y23125746D01*
X10972372Y23125766D01*
X10069545Y23527746D01*
X9843833Y23628244D01*
X9843818Y23628250D01*
X9843814Y23628252D01*
X9843807Y23628255D01*
X9843786Y23628263D01*
X9843772Y23628269D01*
X8690491Y24070936D01*
X8690388Y24070974D01*
X8591893Y24105850D01*
X8591852Y24105864D01*
X7555421Y24442607D01*
X7218112Y24552201D01*
X7198018Y24558154D01*
X7117885Y24581891D01*
X7117834Y24581905D01*
X5924518Y24901655D01*
X5924513Y24901657D01*
X5924494Y24901661D01*
X4716107Y25158553D01*
X4716105Y25158554D01*
X4716102Y25158554D01*
X4715674Y25158645D01*
X4714816Y25158758D01*
X3825270Y25299678D01*
X3495908Y25351855D01*
X3495907Y25351856D01*
X3495889Y25351858D01*
X3413875Y25362655D01*
X3410390Y25363114D01*
X3392264Y25365500D01*
X3392245Y25365503D01*
X3392224Y25365505D01*
X2909751Y25416203D01*
X1955714Y25516451D01*
X1955689Y25516454D01*
X1955673Y25516455D01*
X1953618Y25516617D01*
X1851467Y25524652D01*
X1851443Y25524653D01*
X617722Y25589305D01*
X617710Y25589305D01*
X-617710Y25589305D01*
X-617723Y25589305D01*
X-1851445Y25524653D01*
X-1851469Y25524652D01*
X-1955664Y25516456D01*
X-1955669Y25516456D01*
X-1955676Y25516455D01*
X-1955685Y25516455D01*
X-1955718Y25516451D01*
X-2470882Y25462319D01*
X-3392219Y25365507D01*
X-3392244Y25365504D01*
X-3392262Y25365502D01*
X-3481061Y25353810D01*
X-3495894Y25351857D01*
X-3725583Y25315471D01*
X-4716099Y25158555D01*
X-5924498Y24901661D01*
X-5924522Y24901655D01*
X-5924521Y24901655D01*
X-7117844Y24581905D01*
X-7117867Y24581899D01*
X-7117893Y24581891D01*
X-7218119Y24552201D01*
X-8591901Y24105849D01*
X-8690442Y24070956D01*
X-8690492Y24070938D01*
X-9843796Y23628263D01*
X-9844723Y23627855D01*
X-9844895Y23627773D01*
X-10972380Y23125766D01*
X-10972422Y23125746D01*
X-12073147Y22564855D01*
X-12146303Y22525134D01*
X-12165118Y22514918D01*
X-12780752Y22159498D01*
X-13416002Y21792754D01*
X-13416052Y21792724D01*
X-13505114Y21738151D01*
X-14468439Y21112587D01*
X-14480691Y21109305D01*
X-15540719Y20339130D01*
X-15540780Y20339083D01*
X-16500866Y19561593D01*
X-16662833Y19423258D01*
X-16715658Y19378139D01*
X-16798909Y19307034D01*
X-16832493Y19278349D01*
X-16849285Y19264007D01*
X-17324863Y18835788D01*
X-17397221Y18770635D01*
X-17511880Y18661827D01*
X-17514305Y18659672D01*
X-17827372Y18399342D01*
X-17841171Y18389726D01*
X-18028773Y18281418D01*
X-18184945Y18191255D01*
X-18203842Y18182840D01*
X-18579505Y18060767D01*
X-18599747Y18056465D01*
X-18854670Y18029683D01*
X-18992613Y18015190D01*
X-19013301Y18015190D01*
X-19134566Y18027931D01*
X-19406156Y18056465D01*
X-19426395Y18060767D01*
X-19576334Y18109482D01*
X-19802134Y18182845D01*
X-19821044Y18191264D01*
X-20163679Y18389089D01*
X-20179433Y18400375D01*
X-20483461Y18666851D01*
X-20486723Y18669985D01*
X-20582357Y18770655D01*
X-20582357Y18770656D01*
X-21064663Y19278349D01*
X-21064663Y19278350D01*
X-21297147Y19523062D01*
X-22132858Y20402755D01*
X-22161966Y20433397D01*
X-22161966Y20433398D01*
X-22939458Y21251804D01*
X-22969590Y21283522D01*
X-22969591Y21283522D01*
X-23686808Y22038504D01*
X-23717888Y22071223D01*
X-23717890Y22071226D01*
X-24372957Y22760754D01*
X-24405014Y22794494D01*
X-24405015Y22794496D01*
X-24405020Y22794500D01*
X-24719696Y23125746D01*
X-24989186Y23409427D01*
X-24995957Y23416555D01*
X-25028791Y23451121D01*
X-25028793Y23451124D01*
X-25554060Y24004057D01*
X-25554060Y24004058D01*
X-25617636Y24070974D01*
X-25650776Y24105855D01*
X-25662704Y24118410D01*
X-25970708Y24442605D01*
X-25980689Y24453112D01*
X-25980695Y24453119D01*
X-26262635Y24757974D01*
X-26266344Y24762492D01*
X-26502954Y25088156D01*
X-26513300Y25106075D01*
X-26673975Y25466902D01*
X-26680372Y25486590D01*
X-26762495Y25872927D01*
X-26764658Y25893495D01*
X-26764662Y26288560D01*
X-26762499Y26309142D01*
X-26680371Y26695525D01*
X-26673973Y26715214D01*
X-26513300Y27076035D01*
X-26513297Y27076045D01*
X-26502946Y27093968D01*
X-26266123Y27419871D01*
X-26262892Y27423862D01*
X-26202171Y27491288D01*
X-26200924Y27492620D01*
X-26042061Y27655685D01*
X-26040752Y27656978D01*
X-25928655Y27763363D01*
X-25874811Y27814462D01*
X-25575067Y28098958D01*
X-25566488Y28107103D01*
X-25476754Y28192280D01*
X-25475942Y28193031D01*
X-25375738Y28283278D01*
X-25374770Y28284126D01*
X-25284357Y28361356D01*
X-24999047Y28605043D01*
X-24943843Y28652189D01*
X-24722961Y28840804D01*
X-24722957Y28840806D01*
X-24678890Y28878430D01*
X-24546165Y28991800D01*
X-24501957Y29029578D01*
X-24457657Y29067406D01*
X-24457656Y29067404D01*
X-24457647Y29067415D01*
X-24413365Y29105215D01*
X-24215083Y29274542D01*
X-24214244Y29275240D01*
X-23763887Y29639912D01*
X-23762921Y29640674D01*
X-22664352Y30483646D01*
X-22329910Y30733430D01*
X-22328889Y30734171D01*
X-21988006Y30975118D01*
X-21384105Y31390148D01*
X-21383170Y31390771D01*
X-19804575Y32415912D01*
X-19802394Y32417249D01*
X-18172952Y33358023D01*
X-18170724Y33359232D01*
X-16493675Y34213718D01*
X-16492652Y34214223D01*
X-15831163Y34529724D01*
X-15452037Y34704484D01*
X-15451064Y34704917D01*
X-15067506Y34869692D01*
X-14888248Y34943947D01*
X-14390498Y35150131D01*
X-14389365Y35150582D01*
X-12632122Y35825108D01*
X-12629706Y35825963D01*
X-10840293Y36407358D01*
X-10837857Y36408079D01*
X-9019773Y36895249D01*
X-9018660Y36895531D01*
X-8306140Y37066597D01*
X-7898933Y37158777D01*
X-7897817Y37159015D01*
X-7488325Y37240496D01*
X-6767854Y37374001D01*
X-6766722Y37374195D01*
X-4907672Y37668602D01*
X-4905111Y37668938D01*
X-4327999Y37729598D01*
X-3033898Y37865619D01*
X-3031382Y37865817D01*
X-1151737Y37964321D01*
X-1150493Y37964370D01*
X-418082Y37983534D01*
X-224904Y37986061D01*
X-620Y37988995D01*
X604Y37988995D01*
X221633Y37986104D01*
G37*
%TD.AperFunction*%
%TD*%
%TA.AperFunction,Conductor*%
%TO.N,STATOR_B*%
G36*
X-18599748Y-18056459D02*
G01*
X-18579496Y-18060763D01*
X-18203839Y-18182834D01*
X-18184937Y-18191251D01*
X-17841173Y-18389717D01*
X-17827376Y-18399331D01*
X-17680072Y-18521821D01*
X-17514300Y-18659668D01*
X-17511887Y-18661812D01*
X-17397198Y-18770648D01*
X-16849282Y-19264001D01*
X-16710621Y-19382431D01*
X-16500863Y-19561586D01*
X-15540754Y-20339097D01*
X-15540725Y-20339118D01*
X-14541249Y-21065300D01*
X-14541249Y-21065299D01*
X-14519316Y-21081235D01*
X-14515277Y-21082204D01*
X-14513103Y-21083575D01*
X-13572047Y-21694677D01*
X-13505111Y-21738144D01*
X-13416049Y-21792717D01*
X-13416018Y-21792735D01*
X-13415999Y-21792747D01*
X-13415975Y-21792761D01*
X-13415941Y-21792781D01*
X-12165154Y-22514891D01*
X-12165107Y-22514918D01*
X-12073125Y-22564861D01*
X-10972399Y-23125751D01*
X-9843821Y-23628245D01*
X-9843810Y-23628250D01*
X-9843781Y-23628261D01*
X-8690488Y-24070933D01*
X-8690464Y-24070941D01*
X-8690437Y-24070952D01*
X-8628009Y-24093057D01*
X-8591898Y-24105844D01*
X-8591886Y-24105848D01*
X-8591880Y-24105850D01*
X-7218119Y-24552196D01*
X-7117843Y-24581899D01*
X-5924519Y-24901649D01*
X-4716901Y-25158379D01*
X-4716657Y-25158436D01*
X-4716187Y-25158531D01*
X-4716104Y-25158549D01*
X-4716100Y-25158550D01*
X-3495889Y-25351854D01*
X-3424413Y-25361264D01*
X-3392256Y-25365498D01*
X-3392250Y-25365498D01*
X-3392224Y-25365502D01*
X-1955674Y-25516452D01*
X-1851441Y-25524651D01*
X-655662Y-25587312D01*
X-650478Y-25589301D01*
X-617710Y-25589301D01*
X-617710Y-25589302D01*
X578211Y-25589301D01*
X583699Y-25591084D01*
X617710Y-25589301D01*
X617710Y-25589302D01*
X1851440Y-25524651D01*
X1851463Y-25524649D01*
X1851467Y-25524649D01*
X1862714Y-25523764D01*
X1955678Y-25516452D01*
X3392232Y-25365501D01*
X3392260Y-25365497D01*
X3392263Y-25365497D01*
X3397960Y-25364746D01*
X3495893Y-25351854D01*
X4714829Y-25158751D01*
X4715680Y-25158639D01*
X4716094Y-25158550D01*
X4716100Y-25158550D01*
X4716101Y-25158550D01*
X5924520Y-24901649D01*
X7117848Y-24581898D01*
X7218122Y-24552195D01*
X8591880Y-24105850D01*
X8690435Y-24070953D01*
X8690488Y-24070933D01*
X8923368Y-23981545D01*
X9843811Y-23628249D01*
X9843823Y-23628244D01*
X10972402Y-23125751D01*
X12073128Y-22564861D01*
X12165110Y-22514918D01*
X13416002Y-21792747D01*
X13505119Y-21738141D01*
X14468436Y-21112582D01*
X14480689Y-21109299D01*
X14541232Y-21065310D01*
X14541250Y-21065299D01*
X14541249Y-21065300D01*
X15540723Y-20339119D01*
X15540748Y-20339100D01*
X16500893Y-19561561D01*
X16849282Y-19264001D01*
X17397199Y-18770648D01*
X17511902Y-18661798D01*
X17514291Y-18659676D01*
X17827374Y-18399332D01*
X17841164Y-18389723D01*
X18184943Y-18191246D01*
X18203829Y-18182837D01*
X18579500Y-18060761D01*
X18599737Y-18056460D01*
X18992611Y-18015185D01*
X19013285Y-18015185D01*
X19406144Y-18056458D01*
X19426384Y-18060760D01*
X19802126Y-18182839D01*
X19821035Y-18191257D01*
X20163664Y-18389079D01*
X20179414Y-18400362D01*
X20483456Y-18666849D01*
X20486708Y-18669973D01*
X20582347Y-18770648D01*
X21064652Y-19278340D01*
X21187009Y-19407134D01*
X21297138Y-19523056D01*
X22132847Y-20402748D01*
X22161955Y-20433389D01*
X22939449Y-21251796D01*
X22969579Y-21283511D01*
X22969581Y-21283514D01*
X22969582Y-21283514D01*
X23685363Y-22036988D01*
X23686379Y-22038057D01*
X23686796Y-22038496D01*
X23686797Y-22038498D01*
X23686798Y-22038498D01*
X23717877Y-22071216D01*
X24186853Y-22564866D01*
X24372947Y-22760750D01*
X24405003Y-22794489D01*
X24405007Y-22794493D01*
X24405006Y-22794493D01*
X24405009Y-22794495D01*
X24995944Y-23416545D01*
X24995947Y-23416551D01*
X24995949Y-23416550D01*
X25028779Y-23451114D01*
X25197046Y-23628245D01*
X25554047Y-24004051D01*
X25662694Y-24118407D01*
X25970694Y-24442599D01*
X25970695Y-24442601D01*
X25970696Y-24442601D01*
X25980677Y-24453107D01*
X26262623Y-24757964D01*
X26266323Y-24762473D01*
X26502944Y-25088149D01*
X26513291Y-25106068D01*
X26673966Y-25466897D01*
X26680363Y-25486585D01*
X26762656Y-25873727D01*
X26764806Y-25892672D01*
X26771402Y-26291024D01*
X26769580Y-26311641D01*
X26694067Y-26698260D01*
X26686663Y-26721045D01*
X26520497Y-27078180D01*
X26509850Y-27095932D01*
X26265911Y-27420199D01*
X26263136Y-27423568D01*
X26202185Y-27491250D01*
X26200858Y-27492667D01*
X26042063Y-27655664D01*
X26040682Y-27657027D01*
X25874806Y-27814452D01*
X25575052Y-28098949D01*
X25571757Y-28102078D01*
X25476794Y-28192225D01*
X25475901Y-28193051D01*
X25400471Y-28260989D01*
X25375753Y-28283252D01*
X25374775Y-28284110D01*
X25284351Y-28361347D01*
X25284347Y-28361350D01*
X25014035Y-28592226D01*
X24970555Y-28629361D01*
X24943831Y-28652187D01*
X24940939Y-28654656D01*
X24937494Y-28657598D01*
X24730380Y-28834455D01*
X24723452Y-28840371D01*
X24722945Y-28840805D01*
X24678869Y-28878436D01*
X24546145Y-28991801D01*
X24501218Y-29030193D01*
X24459503Y-29065814D01*
X24458623Y-29066565D01*
X24413355Y-29105206D01*
X24336542Y-29170802D01*
X24215113Y-29274497D01*
X24214118Y-29275324D01*
X23763912Y-29639870D01*
X23762896Y-29640671D01*
X22664308Y-30483658D01*
X22329897Y-30733424D01*
X22328848Y-30734186D01*
X21988038Y-30975084D01*
X21488321Y-31318512D01*
X21384174Y-31390087D01*
X21383110Y-31390798D01*
X19804570Y-32415899D01*
X19802361Y-32417253D01*
X18172983Y-33357992D01*
X18170705Y-33359229D01*
X16493685Y-34213703D01*
X16492522Y-34214276D01*
X16171543Y-34367370D01*
X16127041Y-34388596D01*
X15831180Y-34529710D01*
X15831111Y-34529742D01*
X15831073Y-34529759D01*
X15758141Y-34563376D01*
X15452143Y-34704427D01*
X15450960Y-34704954D01*
X15067492Y-34869691D01*
X14390541Y-35150105D01*
X14389336Y-35150585D01*
X12632124Y-35825096D01*
X12629680Y-35825961D01*
X11405314Y-36223766D01*
X10840295Y-36407344D01*
X10837820Y-36408078D01*
X9019833Y-36895226D01*
X9018577Y-36895545D01*
X8784607Y-36951718D01*
X8306126Y-37066596D01*
X8196069Y-37091509D01*
X7898977Y-37158761D01*
X7897712Y-37159029D01*
X7488378Y-37240479D01*
X7488347Y-37240485D01*
X6767901Y-37373985D01*
X6766625Y-37374204D01*
X4907689Y-37668590D01*
X4905120Y-37668928D01*
X3033892Y-37865609D01*
X3031307Y-37865812D01*
X1548856Y-37943502D01*
X1151731Y-37964313D01*
X1150461Y-37964364D01*
X418085Y-37983527D01*
X647Y-37988988D01*
X-649Y-37988988D01*
X-418087Y-37983527D01*
X-1150463Y-37964364D01*
X-1151730Y-37964314D01*
X-3031332Y-37865811D01*
X-3033904Y-37865609D01*
X-4905107Y-37668930D01*
X-4907676Y-37668592D01*
X-6103784Y-37479173D01*
X-6766640Y-37374201D01*
X-6767903Y-37373985D01*
X-7488296Y-37240495D01*
X-7897748Y-37159023D01*
X-7899017Y-37158753D01*
X-8020041Y-37131357D01*
X-8306133Y-37066596D01*
X-9018582Y-36895545D01*
X-9019839Y-36895226D01*
X-10837826Y-36408078D01*
X-10840311Y-36407342D01*
X-12629693Y-35825959D01*
X-12632137Y-35825094D01*
X-14389341Y-35150585D01*
X-14390546Y-35150105D01*
X-15067495Y-34869692D01*
X-15450978Y-34704949D01*
X-15452161Y-34704422D01*
X-15831175Y-34529715D01*
X-16127047Y-34388596D01*
X-16171550Y-34367370D01*
X-16492526Y-34214277D01*
X-16493689Y-34213704D01*
X-18170696Y-33359237D01*
X-18172974Y-33358000D01*
X-19802366Y-32417253D01*
X-19804575Y-32415899D01*
X-21383117Y-31390799D01*
X-21384148Y-31390111D01*
X-21791810Y-31109947D01*
X-21988045Y-30975085D01*
X-22328850Y-30734191D01*
X-22329878Y-30733444D01*
X-22664324Y-30483656D01*
X-23762909Y-29640671D01*
X-23763881Y-29639905D01*
X-24062667Y-29397967D01*
X-24214127Y-29275324D01*
X-24215122Y-29274497D01*
X-24413363Y-29105208D01*
X-24413363Y-29105207D01*
X-24460253Y-29065179D01*
X-24501949Y-29029573D01*
X-24546142Y-28991809D01*
X-24546159Y-28991794D01*
X-24678875Y-28878435D01*
X-24722949Y-28840805D01*
X-24722949Y-28840804D01*
X-24722955Y-28840800D01*
X-24943828Y-28652192D01*
X-24943832Y-28652186D01*
X-24943833Y-28652188D01*
X-24999040Y-28605039D01*
X-25284349Y-28361350D01*
X-25374764Y-28284119D01*
X-25375741Y-28283262D01*
X-25475844Y-28193105D01*
X-25476796Y-28192225D01*
X-25575057Y-28098952D01*
X-25874807Y-27814452D01*
X-26040698Y-27657015D01*
X-26042062Y-27655668D01*
X-26092940Y-27603445D01*
X-26200889Y-27492641D01*
X-26202192Y-27491249D01*
X-26262864Y-27423877D01*
X-26266122Y-27419855D01*
X-26502945Y-27093953D01*
X-26513289Y-27076039D01*
X-26636509Y-26799323D01*
X-26673965Y-26715207D01*
X-26680363Y-26695518D01*
X-26762491Y-26309134D01*
X-26764654Y-26288550D01*
X-26764650Y-25893487D01*
X-26762488Y-25872922D01*
X-26680363Y-25486578D01*
X-26673967Y-25466898D01*
X-26673967Y-25466897D01*
X-26513293Y-25106066D01*
X-26502954Y-25088159D01*
X-26266328Y-24762471D01*
X-26262632Y-24757968D01*
X-25980681Y-24453107D01*
X-25970700Y-24442600D01*
X-25662697Y-24118407D01*
X-25554050Y-24004051D01*
X-25028784Y-23451117D01*
X-24995950Y-23416550D01*
X-24405011Y-22794493D01*
X-24405006Y-22794491D01*
X-24405007Y-22794490D01*
X-24405006Y-22794489D01*
X-24372949Y-22760750D01*
X-23717882Y-22071219D01*
X-23686799Y-22038498D01*
X-22969578Y-21283511D01*
X-22939448Y-21251796D01*
X-22161957Y-20433389D01*
X-22132849Y-20402748D01*
X-21297141Y-19523057D01*
X-21064654Y-19278340D01*
X-20582348Y-18770648D01*
X-20486700Y-18669963D01*
X-20483469Y-18666859D01*
X-20179412Y-18400358D01*
X-20163671Y-18389082D01*
X-19821034Y-18191256D01*
X-19802132Y-18182840D01*
X-19426384Y-18060759D01*
X-19406147Y-18056458D01*
X-19013285Y-18015185D01*
X-18992611Y-18015185D01*
X-18599748Y-18056459D01*
G37*
%TD.AperFunction*%
%TD*%
%TA.AperFunction,Conductor*%
%TO.N,GND*%
G36*
X1962942Y39948113D02*
G01*
X2092099Y39944731D01*
X2094676Y39944597D01*
X3760226Y39813521D01*
X4179784Y39780502D01*
X4182363Y39780231D01*
X4537171Y39733510D01*
X6256062Y39507165D01*
X6258553Y39506770D01*
X8315106Y39125641D01*
X8317620Y39125107D01*
X10351412Y38636817D01*
X10353896Y38636152D01*
X12359352Y38042175D01*
X12361743Y38041398D01*
X14333317Y37343158D01*
X14335674Y37342254D01*
X16268136Y36541822D01*
X16270443Y36540794D01*
X17406035Y35999163D01*
X18158209Y35640406D01*
X18160489Y35639245D01*
X19998612Y34641184D01*
X20000831Y34639903D01*
X21784242Y33547046D01*
X21786374Y33545661D01*
X22504362Y33052206D01*
X23510041Y32361027D01*
X23512129Y32359510D01*
X23952251Y32021776D01*
X25171463Y31086195D01*
X25173470Y31084570D01*
X26763897Y29726253D01*
X26765787Y29724550D01*
X27791675Y28751070D01*
X28283014Y28284831D01*
X28284847Y28282998D01*
X29623794Y26871969D01*
X29724541Y26765799D01*
X29726252Y26763900D01*
X31000488Y25271922D01*
X31084562Y25173481D01*
X31086192Y25171468D01*
X32359510Y23512132D01*
X32361034Y23510033D01*
X33094355Y22443034D01*
X33545639Y21786404D01*
X33545644Y21786398D01*
X33547047Y21784238D01*
X33967096Y21098768D01*
X34639887Y20000854D01*
X34641182Y19998611D01*
X35639238Y18160515D01*
X35640415Y18158204D01*
X36540791Y16270455D01*
X36541830Y16268121D01*
X37342232Y14335730D01*
X37343160Y14333312D01*
X38041387Y12361769D01*
X38042189Y12359301D01*
X38636152Y10353902D01*
X38636822Y10351400D01*
X39125105Y8317637D01*
X39125644Y8315101D01*
X39357717Y7062848D01*
X39476501Y6421894D01*
X39506765Y6258594D01*
X39507171Y6256036D01*
X39780232Y4182366D01*
X39780503Y4179787D01*
X39944604Y2094690D01*
X39944739Y2092101D01*
X39999466Y1297D01*
X39999466Y-1294D01*
X39944724Y-2092109D01*
X39944589Y-2094697D01*
X39780503Y-4179792D01*
X39780232Y-4182371D01*
X39507166Y-6256018D01*
X39506760Y-6258576D01*
X39125640Y-8315119D01*
X39125101Y-8317655D01*
X38636813Y-10351410D01*
X38636143Y-10353912D01*
X38042191Y-12359301D01*
X38041389Y-12361769D01*
X37343158Y-14333326D01*
X37342230Y-14335745D01*
X36541837Y-16268091D01*
X36540783Y-16270459D01*
X35640403Y-18158216D01*
X35639226Y-18160527D01*
X34641182Y-19998617D01*
X34639887Y-20000860D01*
X33547056Y-21784227D01*
X33545644Y-21786401D01*
X32361034Y-23510035D01*
X32359510Y-23512134D01*
X31086192Y-25171470D01*
X31084562Y-25173483D01*
X30138096Y-26281682D01*
X29726291Y-26763859D01*
X29726266Y-26763888D01*
X29724532Y-26765813D01*
X28284840Y-28283013D01*
X28283005Y-28284848D01*
X26765784Y-29724559D01*
X26763866Y-29726286D01*
X26607973Y-29859428D01*
X25173475Y-31084569D01*
X25171463Y-31086199D01*
X23512130Y-32359508D01*
X23510033Y-32361032D01*
X21786385Y-33545657D01*
X21784211Y-33547069D01*
X20000836Y-34639905D01*
X19998593Y-34641200D01*
X18160512Y-35639238D01*
X18158201Y-35640415D01*
X16270476Y-36540788D01*
X16268108Y-36541843D01*
X14335689Y-37342247D01*
X14333271Y-37343175D01*
X12789183Y-37890022D01*
X12361760Y-38041396D01*
X12359303Y-38042194D01*
X10353899Y-38636159D01*
X10351397Y-38636829D01*
X8317626Y-39125106D01*
X8315090Y-39125645D01*
X6258584Y-39506773D01*
X6256025Y-39507179D01*
X4182363Y-39780232D01*
X4179784Y-39780503D01*
X2094687Y-39944604D01*
X2092098Y-39944739D01*
X1295Y-39999466D01*
X-1296Y-39999466D01*
X-2092108Y-39944724D01*
X-2094696Y-39944589D01*
X-4179791Y-39780503D01*
X-4182370Y-39780232D01*
X-6256021Y-39507166D01*
X-6258578Y-39506760D01*
X-8315122Y-39125640D01*
X-8317658Y-39125101D01*
X-10351413Y-38636813D01*
X-10353915Y-38636143D01*
X-10448743Y-38608057D01*
X-12359335Y-38042181D01*
X-12361778Y-38041387D01*
X-14333318Y-37343160D01*
X-14335710Y-37342242D01*
X-16268095Y-36541836D01*
X-16270461Y-36540783D01*
X-18158219Y-35640403D01*
X-18160520Y-35639231D01*
X-19998615Y-34641183D01*
X-20000852Y-34639892D01*
X-21003411Y-34025534D01*
X-21784244Y-33547047D01*
X-21786394Y-33545650D01*
X-22260861Y-33219562D01*
X-23510038Y-32361034D01*
X-23512137Y-32359510D01*
X-23512140Y-32359508D01*
X-23960421Y-32015512D01*
X-25171473Y-31086192D01*
X-25173486Y-31084562D01*
X-26763917Y-29726242D01*
X-26765805Y-29724541D01*
X-26813032Y-29679727D01*
X-28283004Y-28284847D01*
X-28284837Y-28283014D01*
X-28363734Y-28199870D01*
X-29724564Y-26765780D01*
X-29726269Y-26763887D01*
X-30115330Y-26308342D01*
X-27520154Y-26308342D01*
X-27518088Y-26347786D01*
X-27518085Y-26347827D01*
X-27511786Y-26407767D01*
X-27511786Y-26407768D01*
X-27507152Y-26437033D01*
X-27505596Y-26446855D01*
X-27437799Y-26765813D01*
X-27415237Y-26871960D01*
X-27415233Y-26871977D01*
X-27405005Y-26910148D01*
X-27404998Y-26910170D01*
X-27404995Y-26910181D01*
X-27386366Y-26967510D01*
X-27372182Y-27004457D01*
X-27365715Y-27018979D01*
X-27195413Y-27401428D01*
X-27195401Y-27401454D01*
X-27188590Y-27414819D01*
X-27177443Y-27436693D01*
X-27147311Y-27488877D01*
X-27147302Y-27488892D01*
X-27125750Y-27522072D01*
X-26871471Y-27871995D01*
X-26871436Y-27872042D01*
X-26859426Y-27887689D01*
X-26859415Y-27887703D01*
X-26854195Y-27894147D01*
X-26843709Y-27907093D01*
X-26830865Y-27922127D01*
X-26830092Y-27922985D01*
X-26758726Y-28002231D01*
X-26758666Y-28002295D01*
X-26747284Y-28014455D01*
X-26578135Y-28188077D01*
X-26578121Y-28188091D01*
X-26578114Y-28188098D01*
X-26566216Y-28199848D01*
X-26566198Y-28199865D01*
X-26566193Y-28199870D01*
X-26476858Y-28284652D01*
X-26394905Y-28362428D01*
X-26394905Y-28362429D01*
X-26095155Y-28646929D01*
X-26095155Y-28646928D01*
X-25993289Y-28743624D01*
X-25985072Y-28751219D01*
X-25923422Y-28806743D01*
X-25877663Y-28847955D01*
X-25869231Y-28855352D01*
X-25829296Y-28889463D01*
X-25775033Y-28935815D01*
X-25775032Y-28935815D01*
X-25489701Y-29179523D01*
X-25489700Y-29179523D01*
X-25435481Y-29225829D01*
X-25435466Y-29225843D01*
X-25213541Y-29415349D01*
X-25169429Y-29453012D01*
X-25038374Y-29564950D01*
X-25036968Y-29566151D01*
X-25036968Y-29566152D01*
X-24992660Y-29604015D01*
X-24950818Y-29639745D01*
X-24949174Y-29641148D01*
X-24908517Y-29675855D01*
X-24849513Y-29726242D01*
X-24701909Y-29852290D01*
X-24693320Y-29859428D01*
X-24235432Y-30230197D01*
X-24226703Y-30237076D01*
X-23120348Y-31086023D01*
X-22777999Y-31341714D01*
X-22768966Y-31348278D01*
X-22420055Y-31594901D01*
X-22116402Y-31803586D01*
X-21807791Y-32015678D01*
X-21798582Y-32021823D01*
X-21798563Y-32021835D01*
X-21798547Y-32021846D01*
X-20211916Y-33052199D01*
X-20207989Y-33054677D01*
X-20203623Y-33057433D01*
X-20203599Y-33057448D01*
X-20203589Y-33057454D01*
X-20192950Y-33063974D01*
X-20192921Y-33063991D01*
X-20184418Y-33069051D01*
X-18546429Y-34014763D01*
X-18537912Y-34019531D01*
X-18537839Y-34019572D01*
X-18526868Y-34025530D01*
X-18520291Y-34028991D01*
X-18518114Y-34030137D01*
X-18518098Y-34030145D01*
X-16832148Y-34889168D01*
X-16822131Y-34894103D01*
X-16822064Y-34894136D01*
X-16151977Y-35213740D01*
X-16151943Y-35213756D01*
X-15764023Y-35392568D01*
X-15753811Y-35397118D01*
X-15361175Y-35565793D01*
X-15010376Y-35711104D01*
X-14674925Y-35850059D01*
X-14664565Y-35854187D01*
X-14664516Y-35854205D01*
X-14664513Y-35854207D01*
X-12898233Y-36532199D01*
X-12888897Y-36535642D01*
X-12877130Y-36539807D01*
X-12867822Y-36542966D01*
X-11069058Y-37127397D01*
X-11059606Y-37130332D01*
X-11047642Y-37133875D01*
X-11047599Y-37133887D01*
X-11038138Y-37136556D01*
X-10265234Y-37343663D01*
X-9210539Y-37626279D01*
X-9202961Y-37628202D01*
X-9199681Y-37629035D01*
X-8477751Y-37802363D01*
X-8061029Y-37896694D01*
X-8050135Y-37899012D01*
X-8050105Y-37899018D01*
X-8050086Y-37899022D01*
X-7630847Y-37982441D01*
X-6900414Y-38117792D01*
X-6889409Y-38119674D01*
X-5379533Y-38358782D01*
X-5020996Y-38415561D01*
X-5020951Y-38415568D01*
X-5011141Y-38416990D01*
X-4998771Y-38418618D01*
X-4990608Y-38419583D01*
X-4989035Y-38419770D01*
X-4989024Y-38419771D01*
X-4988983Y-38419776D01*
X-3107929Y-38617490D01*
X-3098018Y-38618400D01*
X-3094110Y-38618706D01*
X-3085617Y-38619374D01*
X-3085159Y-38619403D01*
X-3075778Y-38620018D01*
X-3075733Y-38620020D01*
X-3075723Y-38620021D01*
X-1252672Y-38715560D01*
X-1186396Y-38719034D01*
X-1176761Y-38719414D01*
X-1175241Y-38719474D01*
X-1152356Y-38720072D01*
X-432910Y-38738898D01*
X-5591Y-38744488D01*
X-5556Y-38744488D01*
X5554Y-38744488D01*
X5589Y-38744488D01*
X432908Y-38738898D01*
X1175500Y-38719467D01*
X1186659Y-38719019D01*
X1186659Y-38719018D01*
X3075725Y-38620022D01*
X3079025Y-38619805D01*
X3085556Y-38619378D01*
X3098002Y-38618400D01*
X3107916Y-38617490D01*
X4988996Y-38419774D01*
X4998784Y-38418616D01*
X5011154Y-38416988D01*
X5020964Y-38415566D01*
X6889614Y-38119642D01*
X6900632Y-38117751D01*
X7630899Y-37982431D01*
X8049729Y-37899092D01*
X8057369Y-37897472D01*
X8060682Y-37896771D01*
X8477743Y-37802363D01*
X9102237Y-37652428D01*
X9199761Y-37629014D01*
X9210603Y-37626261D01*
X11038199Y-37136538D01*
X11047831Y-37133820D01*
X11059783Y-37130275D01*
X11069045Y-37127397D01*
X11069097Y-37127381D01*
X11229201Y-37075362D01*
X12867808Y-36542968D01*
X12877117Y-36539809D01*
X12888884Y-36535644D01*
X12898220Y-36532201D01*
X14664508Y-35854207D01*
X14674909Y-35850063D01*
X15361172Y-35565792D01*
X15753794Y-35397123D01*
X15764005Y-35392574D01*
X16151840Y-35213801D01*
X16822107Y-34894112D01*
X16832144Y-34889167D01*
X18518107Y-34030137D01*
X18526877Y-34025522D01*
X18537848Y-34019564D01*
X18542532Y-34016941D01*
X18546437Y-34014755D01*
X19356122Y-33547274D01*
X20184415Y-33069050D01*
X20192945Y-33063974D01*
X20203584Y-33057454D01*
X20211911Y-33052199D01*
X21798742Y-32021714D01*
X21808023Y-32015512D01*
X22420048Y-31594900D01*
X22768914Y-31348308D01*
X22777971Y-31341729D01*
X23120335Y-31086023D01*
X24226749Y-30237031D01*
X24235520Y-30230116D01*
X24693310Y-29859429D01*
X24701900Y-29852289D01*
X24903855Y-29679828D01*
X24949172Y-29641144D01*
X24991923Y-29604640D01*
X25036808Y-29566283D01*
X25036827Y-29566275D01*
X25036823Y-29566271D01*
X25038370Y-29564950D01*
X25169547Y-29452906D01*
X25169546Y-29452905D01*
X25171966Y-29450839D01*
X25213530Y-29415354D01*
X25428132Y-29232102D01*
X25541824Y-29134996D01*
X25775022Y-28935822D01*
X25869259Y-28855329D01*
X25877701Y-28847923D01*
X25985234Y-28751070D01*
X25993392Y-28743524D01*
X26091901Y-28650011D01*
X26091900Y-28650010D01*
X26095161Y-28646915D01*
X26394899Y-28362433D01*
X26394898Y-28362432D01*
X26413244Y-28345020D01*
X26566123Y-28199933D01*
X26578041Y-28188170D01*
X26747208Y-28014527D01*
X26758663Y-28002295D01*
X26830116Y-27922951D01*
X26840988Y-27910329D01*
X26854350Y-27894107D01*
X26864647Y-27881029D01*
X27125481Y-27534304D01*
X27147579Y-27501486D01*
X27178580Y-27449796D01*
X27197134Y-27414831D01*
X27381317Y-27018974D01*
X27398097Y-26976323D01*
X27419666Y-26909947D01*
X27431163Y-26865577D01*
X27514862Y-26437045D01*
X27520405Y-26397859D01*
X27525710Y-26337828D01*
X27527126Y-26298293D01*
X27519901Y-25861947D01*
X27517542Y-25825583D01*
X27511283Y-25770431D01*
X27505433Y-25734465D01*
X27505428Y-25734445D01*
X27505423Y-25734414D01*
X27415245Y-25310180D01*
X27415232Y-25310124D01*
X27405001Y-25271946D01*
X27404999Y-25271937D01*
X27386373Y-25214610D01*
X27372185Y-25177652D01*
X27195410Y-24780667D01*
X27177444Y-24745411D01*
X27147315Y-24693235D01*
X27125786Y-24660086D01*
X27125786Y-24660085D01*
X27125782Y-24660080D01*
X27125776Y-24660070D01*
X26870999Y-24309405D01*
X26857411Y-24291815D01*
X26839566Y-24270068D01*
X26839523Y-24270019D01*
X26824876Y-24253210D01*
X26824851Y-24253182D01*
X26531900Y-23936427D01*
X26531888Y-23936414D01*
X26101768Y-23483684D01*
X25576527Y-22930775D01*
X25543732Y-22896248D01*
X25543728Y-22896244D01*
X25542777Y-22895243D01*
X24952732Y-22274130D01*
X24952729Y-22274126D01*
X24920648Y-22240362D01*
X24488950Y-21785952D01*
X24265609Y-21550860D01*
X23517322Y-20763166D01*
X22709689Y-19913036D01*
X22709689Y-19913035D01*
X22709688Y-19913035D01*
X21844872Y-19002701D01*
X21844872Y-19002700D01*
X21598365Y-18743228D01*
X21097732Y-18216241D01*
X21028527Y-18143393D01*
X21028518Y-18143383D01*
X21028500Y-18143365D01*
X21016324Y-18131121D01*
X21000626Y-18116041D01*
X20987918Y-18104379D01*
X20984239Y-18101154D01*
X20663476Y-17820012D01*
X20663473Y-17820009D01*
X20648522Y-17808148D01*
X20634446Y-17796981D01*
X20588587Y-17764128D01*
X20557458Y-17744060D01*
X20181666Y-17527091D01*
X20181642Y-17527077D01*
X20181636Y-17527074D01*
X20146400Y-17509121D01*
X20146373Y-17509108D01*
X20091350Y-17484612D01*
X20091328Y-17484603D01*
X20054380Y-17470420D01*
X19641026Y-17336121D01*
X19641015Y-17336117D01*
X19602836Y-17325889D01*
X19602813Y-17325883D01*
X19602806Y-17325881D01*
X19602782Y-17325876D01*
X19578636Y-17320744D01*
X19543858Y-17313352D01*
X19543855Y-17313351D01*
X19543848Y-17313350D01*
X19504745Y-17307158D01*
X19072558Y-17261754D01*
X19072546Y-17261753D01*
X19056002Y-17260886D01*
X19033060Y-17259685D01*
X18972836Y-17259685D01*
X18950807Y-17260838D01*
X18933348Y-17261753D01*
X18933336Y-17261754D01*
X18501124Y-17307162D01*
X18462025Y-17313353D01*
X18403074Y-17325883D01*
X18364842Y-17336127D01*
X18364841Y-17336127D01*
X18364840Y-17336128D01*
X18211219Y-17386047D01*
X17951517Y-17470438D01*
X17914609Y-17484608D01*
X17859572Y-17509113D01*
X17859550Y-17509123D01*
X17824339Y-17527065D01*
X17824309Y-17527082D01*
X17449531Y-17743455D01*
X17449507Y-17743470D01*
X17422409Y-17760690D01*
X17422387Y-17760704D01*
X17382258Y-17788667D01*
X17382253Y-17788670D01*
X17356692Y-17808149D01*
X17026514Y-18082708D01*
X17017170Y-18090738D01*
X17005514Y-18101092D01*
X16996357Y-18109500D01*
X16884802Y-18215362D01*
X16883851Y-18216241D01*
X16351543Y-18695539D01*
X16350569Y-18696394D01*
X16018253Y-18980226D01*
X16017288Y-18981028D01*
X15128890Y-19700466D01*
X15081688Y-19738692D01*
X15079631Y-19740270D01*
X14082473Y-20464767D01*
X14068205Y-20473397D01*
X14056975Y-20478956D01*
X14056965Y-20478962D01*
X13102491Y-21098778D01*
X13101394Y-21099469D01*
X13030230Y-21143075D01*
X13029117Y-21143738D01*
X11796523Y-21855345D01*
X11795393Y-21855978D01*
X11721859Y-21895903D01*
X11720714Y-21896506D01*
X10648179Y-22443032D01*
X10645838Y-22444148D01*
X9555790Y-22929485D01*
X9553394Y-22930478D01*
X8429613Y-23361822D01*
X8428399Y-23362271D01*
X8349656Y-23390154D01*
X8348429Y-23390571D01*
X6994651Y-23830423D01*
X6993415Y-23830807D01*
X6913402Y-23854509D01*
X6912154Y-23854861D01*
X5749324Y-24166440D01*
X5746805Y-24167045D01*
X4579613Y-24415180D01*
X4577064Y-24415653D01*
X3388076Y-24604011D01*
X3386792Y-24604197D01*
X3304098Y-24615084D01*
X3302810Y-24615236D01*
X1887225Y-24763985D01*
X1885934Y-24764103D01*
X1828072Y-24768654D01*
X1802680Y-24770652D01*
X1801408Y-24770735D01*
X592675Y-24834076D01*
X581105Y-24833706D01*
X581090Y-24833968D01*
X578217Y-24833801D01*
X578211Y-24833801D01*
X-602156Y-24833801D01*
X-613240Y-24832864D01*
X-613248Y-24832938D01*
X-613251Y-24832997D01*
X-613255Y-24832996D01*
X-613273Y-24833164D01*
X-616140Y-24832845D01*
X-1801414Y-24770735D01*
X-1802681Y-24770652D01*
X-1835630Y-24768060D01*
X-1885903Y-24764106D01*
X-1887194Y-24763988D01*
X-3302790Y-24615239D01*
X-3304078Y-24615087D01*
X-3386772Y-24604200D01*
X-3388056Y-24604014D01*
X-4577063Y-24415653D01*
X-4579612Y-24415180D01*
X-5746802Y-24167046D01*
X-5749321Y-24166441D01*
X-6912124Y-23854869D01*
X-6913372Y-23854517D01*
X-6993444Y-23830798D01*
X-6994681Y-23830414D01*
X-8348438Y-23390569D01*
X-8349665Y-23390152D01*
X-8428349Y-23362290D01*
X-8429545Y-23361849D01*
X-9553364Y-22930491D01*
X-9555733Y-22929509D01*
X-10645852Y-22444140D01*
X-10648193Y-22443024D01*
X-11720713Y-21896505D01*
X-11721859Y-21895903D01*
X-11795380Y-21855984D01*
X-11796483Y-21855366D01*
X-13029141Y-21143723D01*
X-13030157Y-21143119D01*
X-13101410Y-21099461D01*
X-13102492Y-21098778D01*
X-13744776Y-20681692D01*
X-14105832Y-20447229D01*
X-14110388Y-20444355D01*
X-14113076Y-20442534D01*
X-15079629Y-19740274D01*
X-15081668Y-19738709D01*
X-16017293Y-18981026D01*
X-16018167Y-18980299D01*
X-16350656Y-18696320D01*
X-16351589Y-18695501D01*
X-16883830Y-18216262D01*
X-16884781Y-18215383D01*
X-16996300Y-18109554D01*
X-17005472Y-18101132D01*
X-17017123Y-18090780D01*
X-17026475Y-18082741D01*
X-17026497Y-18082722D01*
X-17356690Y-17808152D01*
X-17356695Y-17808148D01*
X-17382239Y-17788682D01*
X-17382256Y-17788670D01*
X-17382261Y-17788666D01*
X-17422421Y-17760682D01*
X-17449526Y-17743458D01*
X-17449531Y-17743455D01*
X-17824314Y-17527080D01*
X-17859546Y-17509128D01*
X-17859561Y-17509121D01*
X-17914587Y-17484618D01*
X-17951535Y-17470433D01*
X-18364838Y-17336129D01*
X-18375481Y-17333277D01*
X-18403101Y-17325876D01*
X-18462033Y-17313352D01*
X-18501138Y-17307161D01*
X-18933337Y-17261754D01*
X-18933349Y-17261753D01*
X-18949894Y-17260886D01*
X-18972836Y-17259685D01*
X-19033060Y-17259685D01*
X-19055089Y-17260838D01*
X-19072547Y-17261753D01*
X-19072559Y-17261754D01*
X-19504759Y-17307160D01*
X-19543867Y-17313352D01*
X-19602769Y-17325871D01*
X-19602791Y-17325876D01*
X-19632930Y-17333951D01*
X-19641018Y-17336118D01*
X-19641022Y-17336119D01*
X-19641036Y-17336123D01*
X-20054385Y-17470421D01*
X-20054416Y-17470433D01*
X-20091352Y-17484611D01*
X-20091356Y-17484612D01*
X-20091367Y-17484617D01*
X-20146383Y-17509113D01*
X-20146405Y-17509123D01*
X-20146414Y-17509127D01*
X-20146440Y-17509140D01*
X-20181624Y-17527067D01*
X-20181668Y-17527091D01*
X-20557467Y-17744063D01*
X-20557472Y-17744066D01*
X-20588588Y-17764127D01*
X-20634440Y-17796972D01*
X-20634459Y-17796987D01*
X-20663458Y-17819993D01*
X-20987935Y-18104392D01*
X-21000677Y-18116085D01*
X-21016320Y-18131114D01*
X-21016323Y-18131118D01*
X-21028524Y-18143387D01*
X-21369127Y-18501919D01*
X-21612385Y-18757983D01*
X-21671997Y-18820730D01*
X-21844875Y-19002701D01*
X-21844874Y-19002702D01*
X-23487187Y-20731446D01*
X-23487187Y-20731448D01*
X-23878241Y-21143093D01*
X-24234541Y-21518153D01*
X-24920633Y-22240343D01*
X-24936197Y-22256723D01*
X-24952726Y-22274120D01*
X-24952729Y-22274122D01*
X-25543711Y-22896225D01*
X-25543712Y-22896224D01*
X-25575001Y-22929165D01*
X-25576532Y-22930778D01*
X-26101770Y-23483683D01*
X-26128454Y-23511770D01*
X-26531905Y-23936426D01*
X-26824857Y-24253181D01*
X-26824890Y-24253218D01*
X-26839518Y-24270004D01*
X-26839540Y-24270030D01*
X-26857375Y-24291761D01*
X-26870956Y-24309338D01*
X-26870999Y-24309395D01*
X-27085049Y-24604011D01*
X-27125793Y-24660090D01*
X-27147318Y-24693235D01*
X-27147346Y-24693278D01*
X-27177450Y-24745418D01*
X-27177455Y-24745427D01*
X-27177458Y-24745433D01*
X-27186971Y-24764103D01*
X-27195424Y-24780691D01*
X-27195427Y-24780697D01*
X-27372181Y-25177640D01*
X-27372189Y-25177659D01*
X-27386356Y-25214560D01*
X-27386358Y-25214563D01*
X-27404986Y-25271884D01*
X-27404990Y-25271897D01*
X-27405003Y-25271946D01*
X-27415237Y-25310134D01*
X-27415241Y-25310150D01*
X-27505585Y-25735160D01*
X-27505588Y-25735173D01*
X-27511780Y-25774266D01*
X-27511784Y-25774293D01*
X-27518076Y-25834146D01*
X-27518079Y-25834177D01*
X-27520150Y-25873686D01*
X-27520151Y-25873696D01*
X-27520154Y-26308316D01*
X-27520154Y-26308342D01*
X-30115330Y-26308342D01*
X-31084575Y-25173470D01*
X-31086200Y-25171463D01*
X-31857163Y-24166776D01*
X-32359516Y-23512129D01*
X-32361033Y-23510041D01*
X-32759148Y-22930775D01*
X-33545672Y-21786366D01*
X-33547057Y-21784234D01*
X-34639909Y-20000835D01*
X-34641192Y-19998612D01*
X-35639250Y-18160496D01*
X-35640414Y-18158209D01*
X-36032513Y-17336129D01*
X-36540802Y-16270443D01*
X-36541830Y-16268136D01*
X-37342255Y-14335691D01*
X-37343162Y-14333326D01*
X-38041405Y-12361743D01*
X-38042182Y-12359352D01*
X-38636159Y-10353896D01*
X-38636827Y-10351401D01*
X-39125112Y-8317630D01*
X-39125651Y-8315094D01*
X-39156154Y-8150500D01*
X-39506778Y-6258553D01*
X-39507173Y-6256062D01*
X-39780238Y-4182363D01*
X-39780509Y-4179784D01*
X-39890095Y-2787293D01*
X-39944604Y-2094663D01*
X-39944738Y-2092088D01*
X-39955149Y-1694376D01*
X-39999468Y-1259D01*
X-39999468Y1D01*
X-8155468Y1D01*
X-8135602Y-568898D01*
X-8076100Y-1135025D01*
X-7977255Y-1695599D01*
X-7977247Y-1695634D01*
X-7839541Y-2247948D01*
X-7663630Y-2789345D01*
X-7450395Y-3317119D01*
X-7200846Y-3828770D01*
X-7200842Y-3828777D01*
X-6916238Y-4321725D01*
X-6916232Y-4321736D01*
X-6916229Y-4321740D01*
X-6597912Y-4793664D01*
X-6597910Y-4793666D01*
X-6247443Y-5242244D01*
X-6247438Y-5242249D01*
X-5866560Y-5665257D01*
X-5866558Y-5665259D01*
X-5866553Y-5665264D01*
X-5457073Y-6060694D01*
X-5026611Y-6421894D01*
X-5021002Y-6426600D01*
X-4866369Y-6538947D01*
X-4560480Y-6761189D01*
X-4086005Y-7057674D01*
X-4077726Y-7062847D01*
X-3648131Y-7291266D01*
X-3575122Y-7330086D01*
X-3055092Y-7561618D01*
X-2520178Y-7756311D01*
X-1972986Y-7913216D01*
X-1416182Y-8031568D01*
X-852479Y-8110791D01*
X-284622Y-8150500D01*
X-284614Y-8150500D01*
X284614Y-8150500D01*
X284622Y-8150500D01*
X852479Y-8110791D01*
X1416182Y-8031568D01*
X1972986Y-7913216D01*
X2520178Y-7756311D01*
X3055092Y-7561618D01*
X3575122Y-7330086D01*
X4077734Y-7062842D01*
X4560480Y-6761189D01*
X5021007Y-6426596D01*
X5457073Y-6060694D01*
X5866553Y-5665264D01*
X6247451Y-5242234D01*
X6597912Y-4793664D01*
X6916229Y-4321740D01*
X7200851Y-3828760D01*
X7450391Y-3317128D01*
X7663633Y-2789334D01*
X7839539Y-2247952D01*
X7977251Y-1695617D01*
X8076100Y-1135022D01*
X8135602Y-568897D01*
X8155468Y0D01*
X8135602Y568897D01*
X8076100Y1135022D01*
X7977251Y1695617D01*
X7878080Y2093373D01*
X7839540Y2247949D01*
X7663629Y2789346D01*
X7450394Y3317120D01*
X7450391Y3317128D01*
X7200851Y3828760D01*
X6916229Y4321740D01*
X6597912Y4793664D01*
X6247451Y5242234D01*
X6247447Y5242238D01*
X6247442Y5242245D01*
X6247437Y5242250D01*
X5866559Y5665258D01*
X5866557Y5665260D01*
X5457070Y6060697D01*
X5021001Y6426601D01*
X4751237Y6622596D01*
X4560480Y6761189D01*
X4086005Y7057674D01*
X4077725Y7062848D01*
X3575117Y7330089D01*
X3055090Y7561619D01*
X2520173Y7756313D01*
X2081306Y7882156D01*
X1972986Y7913216D01*
X1416182Y8031568D01*
X852479Y8110791D01*
X284622Y8150500D01*
X-284622Y8150500D01*
X-852479Y8110791D01*
X-1416182Y8031568D01*
X-1972986Y7913216D01*
X-1972989Y7913216D01*
X-1972990Y7913215D01*
X-2520174Y7756313D01*
X-3055091Y7561619D01*
X-3575118Y7330089D01*
X-4077726Y7062848D01*
X-4560479Y6761190D01*
X-5021002Y6426601D01*
X-5457071Y6060697D01*
X-5866558Y5665260D01*
X-5866560Y5665258D01*
X-6247438Y5242250D01*
X-6247443Y5242245D01*
X-6597910Y4793667D01*
X-6916232Y4321737D01*
X-6916238Y4321726D01*
X-7200842Y3828778D01*
X-7200846Y3828771D01*
X-7450395Y3317120D01*
X-7663630Y2789346D01*
X-7839541Y2247949D01*
X-7977247Y1695635D01*
X-7977255Y1695600D01*
X-8076100Y1135026D01*
X-8135602Y568899D01*
X-8155468Y1D01*
X-39999468Y1D01*
X-39999468Y1262D01*
X-39944738Y2092105D01*
X-39944603Y2094694D01*
X-39932541Y2247952D01*
X-39780509Y4179792D01*
X-39780238Y4182370D01*
X-39699743Y4793664D01*
X-39507172Y6256079D01*
X-39506779Y6258558D01*
X-39125647Y8315124D01*
X-39125116Y8317622D01*
X-38636822Y10351433D01*
X-38636157Y10353914D01*
X-38042179Y12359375D01*
X-38041409Y12361743D01*
X-37343162Y14333337D01*
X-37342267Y14335668D01*
X-36541824Y16268159D01*
X-36540809Y16270438D01*
X-35640410Y18158229D01*
X-35639258Y18160491D01*
X-34641179Y19998636D01*
X-34639915Y20000827D01*
X-33547037Y21784271D01*
X-33545675Y21786368D01*
X-32361023Y23510061D01*
X-32359532Y23512113D01*
X-31086192Y25171480D01*
X-31084587Y25173462D01*
X-30115346Y26308328D01*
X-27520162Y26308328D01*
X-27520159Y25873697D01*
X-27520158Y25873691D01*
X-27518085Y25834155D01*
X-27518085Y25834152D01*
X-27511787Y25774261D01*
X-27511784Y25774243D01*
X-27505601Y25735213D01*
X-27505590Y25735153D01*
X-27415255Y25310185D01*
X-27415242Y25310129D01*
X-27405011Y25271951D01*
X-27405008Y25271941D01*
X-27397581Y25249083D01*
X-27386384Y25214620D01*
X-27372192Y25177653D01*
X-27195425Y24780688D01*
X-27195422Y24780681D01*
X-27177472Y24745456D01*
X-27177467Y24745446D01*
X-27147339Y24693264D01*
X-27130266Y24666975D01*
X-27125792Y24660085D01*
X-26870998Y24309394D01*
X-26870982Y24309372D01*
X-26857381Y24291769D01*
X-26857341Y24291719D01*
X-26845453Y24277238D01*
X-26839500Y24269987D01*
X-26830785Y24259987D01*
X-26824856Y24253184D01*
X-26531884Y23936402D01*
X-26284449Y23675961D01*
X-26101782Y23483691D01*
X-26097196Y23478864D01*
X-25576540Y22930784D01*
X-25576540Y22930785D01*
X-25547997Y22900735D01*
X-25543717Y22896229D01*
X-24952745Y22274137D01*
X-24928825Y22248962D01*
X-24920688Y22240397D01*
X-24265623Y21550871D01*
X-24265622Y21550869D01*
X-24265621Y21550869D01*
X-23517330Y20763174D01*
X-22663508Y19864421D01*
X-22663507Y19864420D01*
X-21844880Y19002707D01*
X-21612392Y18757991D01*
X-21042616Y18158219D01*
X-21028524Y18143386D01*
X-21016364Y18131158D01*
X-21000657Y18116067D01*
X-21000623Y18116036D01*
X-20987904Y18104363D01*
X-20663498Y17820027D01*
X-20663476Y17820008D01*
X-20634472Y17796999D01*
X-20634468Y17796996D01*
X-20622850Y17788673D01*
X-20588598Y17764135D01*
X-20573426Y17754355D01*
X-20557474Y17744071D01*
X-20181664Y17527092D01*
X-20146402Y17509125D01*
X-20112471Y17494019D01*
X-20091362Y17484620D01*
X-20091357Y17484618D01*
X-20091341Y17484611D01*
X-20054400Y17470431D01*
X-19641034Y17336128D01*
X-19602822Y17325889D01*
X-19543877Y17313360D01*
X-19504781Y17307169D01*
X-19504760Y17307167D01*
X-19504754Y17307166D01*
X-19409807Y17297191D01*
X-19072575Y17261759D01*
X-19033077Y17259690D01*
X-19033064Y17259690D01*
X-18972852Y17259690D01*
X-18972838Y17259690D01*
X-18933341Y17261759D01*
X-18501168Y17307164D01*
X-18501158Y17307165D01*
X-18501157Y17307166D01*
X-18501130Y17307168D01*
X-18462044Y17313357D01*
X-18426670Y17320876D01*
X-18403094Y17325885D01*
X-18403085Y17325887D01*
X-18364878Y17336125D01*
X-18364861Y17336131D01*
X-18364846Y17336134D01*
X-17951536Y17470440D01*
X-17951528Y17470444D01*
X-17951519Y17470446D01*
X-17931537Y17478118D01*
X-17914585Y17484626D01*
X-17859551Y17509134D01*
X-17824325Y17527083D01*
X-17449520Y17743469D01*
X-17422405Y17760700D01*
X-17382244Y17788687D01*
X-17356681Y17808167D01*
X-17026490Y18082736D01*
X-17017086Y18090821D01*
X-17005408Y18101199D01*
X-16996308Y18109556D01*
X-16884815Y18215360D01*
X-16883872Y18216231D01*
X-16351548Y18695546D01*
X-16350613Y18696367D01*
X-16018117Y18980353D01*
X-16017297Y18981036D01*
X-15081610Y19738764D01*
X-15079611Y19740298D01*
X-14082478Y20464775D01*
X-14068205Y20473407D01*
X-14056977Y20478963D01*
X-13102468Y21098804D01*
X-13101421Y21099465D01*
X-13030285Y21143054D01*
X-13029280Y21143652D01*
X-11796450Y21855393D01*
X-11795419Y21855971D01*
X-11721871Y21895905D01*
X-11720775Y21896481D01*
X-10648159Y22443049D01*
X-10645886Y22444133D01*
X-9555742Y22929516D01*
X-9553420Y22930478D01*
X-8429576Y23361846D01*
X-8428443Y23362264D01*
X-8349607Y23390180D01*
X-8348509Y23390554D01*
X-6994672Y23830425D01*
X-6993450Y23830804D01*
X-6913362Y23854529D01*
X-6912231Y23854849D01*
X-5749299Y24166455D01*
X-5746841Y24167046D01*
X-4579622Y24415187D01*
X-4577100Y24415655D01*
X-3554221Y24577697D01*
X-3388084Y24604015D01*
X-3386801Y24604201D01*
X-3371648Y24606197D01*
X-3304071Y24615095D01*
X-3302853Y24615239D01*
X-1887177Y24763995D01*
X-1886012Y24764102D01*
X-1802636Y24770661D01*
X-1801479Y24770736D01*
X-599231Y24833738D01*
X-596646Y24833805D01*
X596634Y24833805D01*
X599218Y24833738D01*
X1801472Y24770736D01*
X1802666Y24770657D01*
X1885926Y24764109D01*
X1887181Y24763994D01*
X3302815Y24615242D01*
X3304011Y24615101D01*
X3368121Y24606661D01*
X3386772Y24604205D01*
X3388056Y24604019D01*
X4577083Y24415656D01*
X4579632Y24415183D01*
X4720798Y24385173D01*
X5746801Y24167054D01*
X5749261Y24166464D01*
X6912139Y23854870D01*
X6913337Y23854533D01*
X6989805Y23831881D01*
X6993441Y23830804D01*
X6994672Y23830422D01*
X8348448Y23390572D01*
X8349552Y23390197D01*
X8428313Y23362309D01*
X8429383Y23361915D01*
X9553376Y22930491D01*
X9555725Y22929517D01*
X10645837Y22444151D01*
X10648125Y22443060D01*
X11300612Y22110577D01*
X11720746Y21896492D01*
X11721890Y21895891D01*
X11795355Y21856002D01*
X11795363Y21855998D01*
X11796441Y21855395D01*
X13029166Y21143712D01*
X13030228Y21143080D01*
X13101417Y21099460D01*
X13102468Y21098798D01*
X14071472Y20469546D01*
X14079620Y20464770D01*
X14092302Y20457337D01*
X14096369Y20454676D01*
X15079586Y19740310D01*
X15081620Y19738750D01*
X16017327Y18981003D01*
X16018185Y18980289D01*
X16350558Y18696408D01*
X16351486Y18695593D01*
X16883806Y18216283D01*
X16884757Y18215404D01*
X16989473Y18116032D01*
X16996297Y18109556D01*
X17005398Y18101198D01*
X17017076Y18090820D01*
X17017117Y18090785D01*
X17017119Y18090783D01*
X17026452Y18082759D01*
X17026480Y18082736D01*
X17026481Y18082735D01*
X17356680Y17808158D01*
X17382251Y17788673D01*
X17422408Y17760690D01*
X17449514Y17743465D01*
X17766346Y17560549D01*
X17824312Y17527083D01*
X17824323Y17527077D01*
X17859551Y17509127D01*
X17859570Y17509118D01*
X17914565Y17484631D01*
X17914592Y17484619D01*
X17951532Y17470437D01*
X18364827Y17336136D01*
X18364831Y17336135D01*
X18364834Y17336134D01*
X18364849Y17336130D01*
X18403037Y17325896D01*
X18403046Y17325895D01*
X18403062Y17325890D01*
X18462028Y17313357D01*
X18501120Y17307167D01*
X18501142Y17307165D01*
X18501147Y17307164D01*
X18596158Y17297183D01*
X18933329Y17261759D01*
X18972825Y17259690D01*
X18972839Y17259690D01*
X19033049Y17259690D01*
X19033063Y17259690D01*
X19072560Y17261759D01*
X19445444Y17300935D01*
X19504736Y17307164D01*
X19504738Y17307165D01*
X19504754Y17307166D01*
X19543838Y17313355D01*
X19543845Y17313357D01*
X19543848Y17313357D01*
X19543853Y17313358D01*
X19559362Y17316655D01*
X19602793Y17325884D01*
X19626050Y17332116D01*
X19641007Y17336122D01*
X19641009Y17336124D01*
X19641017Y17336125D01*
X20054384Y17470429D01*
X20091315Y17484604D01*
X20146373Y17509114D01*
X20181644Y17527085D01*
X20557457Y17744065D01*
X20588589Y17764134D01*
X20634453Y17796991D01*
X20663469Y17820010D01*
X20987919Y18104386D01*
X21000643Y18116063D01*
X21016350Y18131154D01*
X21028510Y18143382D01*
X21612390Y18758000D01*
X21612389Y18758001D01*
X21624133Y18770364D01*
X21881449Y19041212D01*
X23487181Y20731455D01*
X24234536Y21518158D01*
X24234535Y21518159D01*
X24262268Y21547351D01*
X24262267Y21547351D01*
X24913699Y22233053D01*
X24920637Y22240355D01*
X24920638Y22240354D01*
X24952723Y22274122D01*
X25113186Y22443034D01*
X25535585Y22887676D01*
X25543709Y22896229D01*
X25576530Y22930783D01*
X26101796Y23483715D01*
X26101795Y23483716D01*
X26110563Y23492945D01*
X26531899Y23936429D01*
X26824845Y24253184D01*
X26839487Y24269984D01*
X26857344Y24291737D01*
X26870986Y24309392D01*
X27125779Y24660084D01*
X27147326Y24693262D01*
X27177450Y24745437D01*
X27195408Y24780677D01*
X27372177Y25177645D01*
X27386364Y25214599D01*
X27386364Y25214602D01*
X27386367Y25214606D01*
X27404985Y25271906D01*
X27404995Y25271941D01*
X27404998Y25271951D01*
X27415231Y25310138D01*
X27505585Y25735175D01*
X27511775Y25774253D01*
X27518076Y25834189D01*
X27520148Y25873708D01*
X27520152Y26308342D01*
X27519726Y26316456D01*
X27518082Y26347855D01*
X27518081Y26347863D01*
X27511779Y26407812D01*
X27511778Y26407818D01*
X27505593Y26446863D01*
X27505585Y26446903D01*
X27415237Y26871941D01*
X27415233Y26871959D01*
X27415233Y26871960D01*
X27404993Y26910176D01*
X27386366Y26967504D01*
X27372178Y27004464D01*
X27195403Y27401443D01*
X27177433Y27436704D01*
X27147294Y27488896D01*
X27125742Y27522077D01*
X27125730Y27522093D01*
X26871507Y27871943D01*
X26859504Y27887586D01*
X26843810Y27906970D01*
X26843809Y27906971D01*
X26830927Y27922056D01*
X26830908Y27922078D01*
X26779562Y27979091D01*
X26758662Y28002299D01*
X26747211Y28014528D01*
X26747198Y28014542D01*
X26578053Y28188164D01*
X26566126Y28199935D01*
X26394885Y28362453D01*
X26095170Y28646916D01*
X26095171Y28646916D01*
X26056628Y28683501D01*
X25993407Y28743512D01*
X25985211Y28751094D01*
X25877645Y28847969D01*
X25877631Y28847982D01*
X25869205Y28855372D01*
X25869036Y28855516D01*
X25775022Y28935823D01*
X25775022Y28935824D01*
X25489689Y29179528D01*
X25434454Y29226702D01*
X25434451Y29226704D01*
X25213536Y29415343D01*
X25213474Y29415396D01*
X25169545Y29452901D01*
X25169546Y29452901D01*
X25036813Y29566276D01*
X25035942Y29567020D01*
X24992666Y29604003D01*
X24992651Y29604016D01*
X24948234Y29641943D01*
X24948227Y29641948D01*
X24948080Y29642074D01*
X24948055Y29642095D01*
X24903855Y29679824D01*
X24903843Y29679844D01*
X24903839Y29679838D01*
X24702093Y29852125D01*
X24693509Y29859267D01*
X24235549Y30230097D01*
X24235544Y30230101D01*
X24226771Y30237019D01*
X23120331Y31086031D01*
X23120182Y31086142D01*
X22777953Y31341743D01*
X22769000Y31348248D01*
X22768969Y31348270D01*
X22768951Y31348283D01*
X22419997Y31594935D01*
X21807845Y32015634D01*
X21798612Y32021798D01*
X20211904Y33052206D01*
X20211868Y33052229D01*
X20211865Y33052231D01*
X20203608Y33057442D01*
X20203590Y33057453D01*
X20203576Y33057462D01*
X20192937Y33063983D01*
X20192931Y33063987D01*
X20192914Y33063997D01*
X20184413Y33069055D01*
X19357670Y33546383D01*
X18546460Y34014743D01*
X18537846Y34019568D01*
X18526875Y34025525D01*
X18525911Y34026032D01*
X18518063Y34030162D01*
X16832393Y34889039D01*
X16822412Y34893965D01*
X16822397Y34893972D01*
X16822371Y34893985D01*
X16151917Y35213763D01*
X16151913Y35213765D01*
X16151888Y35213777D01*
X15763908Y35392616D01*
X15753797Y35397118D01*
X15753783Y35397124D01*
X15753745Y35397141D01*
X15361122Y35565811D01*
X15361080Y35565829D01*
X15361053Y35565840D01*
X14674792Y35850112D01*
X14664496Y35854209D01*
X12898199Y36532212D01*
X12892884Y36534172D01*
X12888883Y36535647D01*
X12882721Y36537828D01*
X12877097Y36539819D01*
X12867822Y36542966D01*
X12867804Y36542972D01*
X11069055Y37127401D01*
X11066253Y37128272D01*
X11059637Y37130327D01*
X11047695Y37133864D01*
X11038119Y37136565D01*
X9210600Y37626266D01*
X9199853Y37628997D01*
X8477747Y37802365D01*
X8164475Y37873279D01*
X8061083Y37896683D01*
X8052398Y37898534D01*
X8050169Y37899009D01*
X7630909Y37982433D01*
X6900673Y38117748D01*
X6889811Y38119616D01*
X5020897Y38415584D01*
X5010992Y38417019D01*
X4998648Y38418641D01*
X4988968Y38419784D01*
X3107976Y38617492D01*
X3098225Y38618389D01*
X3085886Y38619364D01*
X3075826Y38620025D01*
X1186353Y38719043D01*
X1186349Y38719044D01*
X1186314Y38719045D01*
X1177079Y38719408D01*
X1175154Y38719483D01*
X432933Y38738904D01*
X432921Y38738905D01*
X432889Y38738905D01*
X231515Y38741539D01*
X5545Y38744495D01*
X-5561Y38744495D01*
X-432904Y38738905D01*
X-432936Y38738905D01*
X-432949Y38738904D01*
X-1175245Y38719482D01*
X-1186390Y38719042D01*
X-3075859Y38620024D01*
X-3085670Y38619381D01*
X-3098168Y38618397D01*
X-3107896Y38617504D01*
X-4988952Y38419788D01*
X-4998606Y38418648D01*
X-5010913Y38417033D01*
X-5020898Y38415587D01*
X-6889549Y38119660D01*
X-6897689Y38118265D01*
X-6900494Y38117784D01*
X-6900511Y38117781D01*
X-6900516Y38117780D01*
X-7630928Y37982433D01*
X-8050317Y37898983D01*
X-8061092Y37896685D01*
X-8477775Y37802360D01*
X-9199611Y37629057D01*
X-9210354Y37626336D01*
X-11038123Y37136570D01*
X-11047565Y37133908D01*
X-11059443Y37130392D01*
X-11069034Y37127416D01*
X-12867840Y36542969D01*
X-12877165Y36539804D01*
X-12888812Y36535683D01*
X-12898206Y36532218D01*
X-14664457Y35854234D01*
X-14674830Y35850105D01*
X-15361118Y35565822D01*
X-15753808Y35397124D01*
X-15763747Y35392702D01*
X-16151932Y35213765D01*
X-16822514Y34893928D01*
X-16832405Y34889044D01*
X-18518054Y34030177D01*
X-18526737Y34025609D01*
X-18537668Y34019678D01*
X-18546407Y34014787D01*
X-20184453Y33069044D01*
X-20193027Y33063942D01*
X-20203613Y33057453D01*
X-20211891Y33052229D01*
X-21798398Y32021949D01*
X-21807547Y32015853D01*
X-22419991Y31594952D01*
X-22768863Y31348359D01*
X-22777842Y31341842D01*
X-23120352Y31086033D01*
X-24226872Y30236959D01*
X-24235572Y30230096D01*
X-24693570Y29859237D01*
X-24702013Y29852213D01*
X-24903878Y29679825D01*
X-24949803Y29640623D01*
X-24949804Y29640624D01*
X-24992678Y29604012D01*
X-25036861Y29566254D01*
X-25169444Y29453006D01*
X-25213537Y29415361D01*
X-25213539Y29415358D01*
X-25434465Y29226707D01*
X-25434469Y29226705D01*
X-25489701Y29179534D01*
X-25489702Y29179532D01*
X-25775039Y28935822D01*
X-25775040Y28935821D01*
X-25775041Y28935822D01*
X-25869050Y28855520D01*
X-25877479Y28848137D01*
X-25985246Y28751079D01*
X-25993354Y28743579D01*
X-26086589Y28655077D01*
X-26086590Y28655076D01*
X-26394884Y28362463D01*
X-26409790Y28348317D01*
X-26566282Y28199801D01*
X-26578139Y28188089D01*
X-26747316Y28014436D01*
X-26758703Y28002274D01*
X-26830940Y27922059D01*
X-26830968Y27922028D01*
X-26843793Y27907011D01*
X-26843847Y27906945D01*
X-26859528Y27887577D01*
X-26871498Y27871976D01*
X-27125745Y27522094D01*
X-27125757Y27522077D01*
X-27147293Y27488923D01*
X-27177430Y27436739D01*
X-27177437Y27436728D01*
X-27195400Y27401480D01*
X-27195403Y27401473D01*
X-27195408Y27401463D01*
X-27195410Y27401458D01*
X-27246844Y27285953D01*
X-27372188Y27004468D01*
X-27383243Y26975673D01*
X-27386374Y26967517D01*
X-27405003Y26910188D01*
X-27405006Y26910179D01*
X-27405007Y26910174D01*
X-27405014Y26910154D01*
X-27415241Y26871986D01*
X-27415245Y26871969D01*
X-27505608Y26446841D01*
X-27511791Y26407800D01*
X-27518095Y26347822D01*
X-27520162Y26308354D01*
X-27520162Y26308328D01*
X-30115346Y26308328D01*
X-29726239Y26763926D01*
X-29724569Y26765781D01*
X-28284813Y28283042D01*
X-28283019Y28284836D01*
X-26765778Y29724572D01*
X-26763923Y29726242D01*
X-25173434Y31084611D01*
X-25171502Y31086175D01*
X-23512107Y32359538D01*
X-23510077Y32361013D01*
X-21786373Y33545673D01*
X-21784276Y33547035D01*
X-20000831Y34639914D01*
X-19998641Y34641178D01*
X-18160475Y35639264D01*
X-18158230Y35640406D01*
X-16270457Y36540798D01*
X-16268158Y36541822D01*
X-14335670Y37342264D01*
X-14333339Y37343159D01*
X-12361731Y38041411D01*
X-12359363Y38042181D01*
X-10353885Y38636163D01*
X-10351421Y38636823D01*
X-8317619Y39125116D01*
X-8315121Y39125647D01*
X-6258554Y39506779D01*
X-6256075Y39507172D01*
X-4286475Y39766530D01*
X-4182366Y39780238D01*
X-4179787Y39780509D01*
X-4168707Y39781381D01*
X-2094675Y39944604D01*
X-2092102Y39944738D01*
X-2028737Y39946397D01*
X-1262Y39999468D01*
X1260Y39999468D01*
X1962942Y39948113D01*
G37*
%TD.AperFunction*%
%TD*%
M02*
