%TF.GenerationSoftware,KiCad,Pcbnew,7.0.5.1-1-g8f565ef7f0-dirty-deb11*%
%TF.CreationDate,2023-06-28T16:47:18+00:00*%
%TF.ProjectId,USTTHUNDERMILLPCB01,55535454-4855-44e4-9445-524d494c4c50,rev?*%
%TF.SameCoordinates,Original*%
%TF.FileFunction,Copper,L3,Inr*%
%TF.FilePolarity,Positive*%
%FSLAX46Y46*%
G04 Gerber Fmt 4.6, Leading zero omitted, Abs format (unit mm)*
G04 Created by KiCad (PCBNEW 7.0.5.1-1-g8f565ef7f0-dirty-deb11) date 2023-06-28 16:47:18*
%MOMM*%
%LPD*%
G01*
G04 APERTURE LIST*
%TA.AperFunction,ViaPad*%
%ADD10C,0.800000*%
%TD*%
G04 APERTURE END LIST*
D10*
%TO.N,*%
X-20707000Y-12910000D03*
X-29089000Y-10751000D03*
X7050000Y-22850000D03*
X-27700000Y17100000D03*
X-1100000Y23800000D03*
X-27200000Y-23000000D03*
X-32650000Y19450000D03*
X5582000Y7156000D03*
X3550000Y17050000D03*
X-25300000Y-3100000D03*
X-14357000Y-1607000D03*
X1200000Y-10700000D03*
X-8642000Y-1607000D03*
X-24500000Y10550000D03*
X-14357000Y-591000D03*
X9011000Y-17228000D03*
X-11950000Y-14300000D03*
X-1657000Y-15831000D03*
X-7900000Y-5450000D03*
X-29300000Y-9300000D03*
X-5400000Y23300000D03*
X-28400000Y-25000000D03*
X-23600000Y-10700000D03*
X-24390000Y-4020000D03*
X5328000Y-23197000D03*
X-11000000Y-4550000D03*
X2700000Y-15831000D03*
X-10674000Y-10751000D03*
X-2546000Y-10878000D03*
X9265000Y-19133000D03*
X13300000Y11500000D03*
X-8650000Y1700000D03*
X-35693000Y-10624000D03*
X-6229000Y-16593000D03*
X-37725000Y-9735000D03*
X-12706000Y-2623000D03*
X-30867000Y-23578000D03*
X-10674000Y-2623000D03*
X-30740000Y20618000D03*
X-15300000Y14500000D03*
X-11900000Y14750500D03*
X-10166000Y-15577000D03*
X-24400000Y-20200000D03*
X-2750000Y9850000D03*
X-34250000Y6100000D03*
X-900000Y11750000D03*
X-38100000Y8000000D03*
X-36455000Y6394000D03*
X-28835000Y6394000D03*
X-9000000Y21800000D03*
X-25100000Y16700000D03*
X-5400000Y7600000D03*
X-8300000Y9950000D03*
X-29250000Y3600000D03*
X-11690000Y-2623000D03*
X-17450000Y-13150000D03*
X-28327000Y-6560000D03*
X-10150000Y7600000D03*
X-21088000Y-7322000D03*
X-13087000Y-10751000D03*
X-13550000Y18000000D03*
X34650000Y-4550000D03*
X-8007000Y-10878000D03*
X-35850000Y12550000D03*
X-14800000Y16500000D03*
X-17450000Y-15174500D03*
X-18700000Y-9700000D03*
X-11900000Y20200000D03*
X-9658000Y-1607000D03*
X-300000Y16100000D03*
X-12900000Y-18300000D03*
X-22916271Y-8416271D03*
X-36074000Y11347000D03*
X-30000000Y19400000D03*
X-4451000Y-14688000D03*
X-9150000Y-3893000D03*
X-34500000Y8450000D03*
X-14400000Y1695000D03*
X-38233000Y6394000D03*
X-8500000Y16300000D03*
X-34169000Y-9481000D03*
X-24700000Y8500000D03*
X-4578000Y-7957000D03*
X-10674000Y-1607000D03*
X6217000Y-16466000D03*
X-3400000Y-13600000D03*
X-20750000Y-9300000D03*
X-22231000Y-2242000D03*
X-12700000Y3000000D03*
X4750000Y7750000D03*
X34100000Y-8100000D03*
X-36836000Y8045000D03*
X-26803000Y-11513000D03*
X-12500000Y10000000D03*
X-8134000Y-16847000D03*
X-32264000Y21380000D03*
X5850000Y10350000D03*
X-9700000Y-5700500D03*
X-22739000Y-5798000D03*
X3450000Y8300000D03*
X-28800000Y24100000D03*
X33250000Y-10500000D03*
X-7550000Y4900000D03*
X-10650000Y3000000D03*
X-14357000Y552000D03*
X-22000000Y18050000D03*
X3400000Y23600000D03*
X31363000Y-14815000D03*
X-3100000Y14450000D03*
X-20707000Y-11132000D03*
X2950000Y-13330500D03*
X-9400000Y18000000D03*
X-14975500Y-11300000D03*
X-6200000Y-10900000D03*
X-24300000Y19800000D03*
X-20000000Y-16400000D03*
X-26850000Y21300000D03*
X8249000Y-3131000D03*
X-36074000Y-9481000D03*
X-26930000Y-7830000D03*
X-26900000Y-4500000D03*
X-13722000Y-2496000D03*
X-14800000Y-7900000D03*
X-29650000Y22500000D03*
X-32050000Y11550000D03*
X-37217000Y-11132000D03*
%TO.N,GNDA*%
X20000000Y-3800000D03*
X30900000Y-4800000D03*
X18400000Y-15630500D03*
X18300000Y-17300000D03*
X14000000Y-4900000D03*
X29400000Y5000000D03*
X16100000Y-7100000D03*
X26400000Y3500000D03*
%TO.N,+5V*%
X-6300000Y19800000D03*
X-30359000Y-7068000D03*
X-29150000Y17050000D03*
%TO.N,+3V3*%
X10300000Y-16000000D03*
X-15375500Y-2897131D03*
X-14700000Y-5800000D03*
X23700000Y-13200000D03*
X11300000Y-4100000D03*
X-260000Y-12340000D03*
%TO.N,/CPU/RST#_P*%
X13300000Y-13700000D03*
%TO.N,/CPU/PB6*%
X6400000Y-12450500D03*
%TO.N,/CPU/PB7*%
X10700000Y-13000000D03*
%TO.N,/CPU/PB5*%
X12800000Y-15100000D03*
%TO.N,/CPU/TIMEPULSE*%
X-7556958Y-8610980D03*
X7850000Y-18800000D03*
%TO.N,Net-(R8-Pad2)*%
X-18607259Y-6221663D03*
%TO.N,Net-(R9-Pad2)*%
X-15375500Y11600000D03*
%TO.N,/CPU/PC1*%
X-10550000Y-21200000D03*
X-28750000Y-550000D03*
X13500000Y-19800000D03*
X-27064068Y5741559D03*
X-3601511Y-22198489D03*
%TO.N,/CPU/PC0*%
X12050800Y-19950800D03*
X-26903972Y-3403972D03*
X-5200000Y-20824500D03*
X-28962000Y-1988000D03*
X-28000000Y9500000D03*
X-12325000Y-19133000D03*
%TO.N,/CPU/RX0*%
X-23900000Y-17100000D03*
X2200000Y-23600000D03*
%TO.N,/CPU/TX0*%
X-24050000Y-18950000D03*
X3500000Y-23500000D03*
%TO.N,/CPU/TX1*%
X-23800000Y14500000D03*
X6471000Y-19514000D03*
%TO.N,/CPU/RX1*%
X-25700000Y13800000D03*
X3684019Y-20100000D03*
%TO.N,/CPU/BTN*%
X13400000Y-17950000D03*
X27400000Y-13300000D03*
%TO.N,/CPU/GEO_STAT*%
X-27650000Y-750000D03*
X-26295000Y552000D03*
%TO.N,STATOR*%
X23920800Y28238000D03*
X24010000Y-28130000D03*
X36300000Y0D03*
%TO.N,PA1*%
X22500000Y1100000D03*
X22393273Y-1102453D03*
%TO.N,COUNT_2*%
X-7800000Y-6650000D03*
X11953000Y-17953000D03*
%TO.N,Net-(JP1-B)*%
X-28500000Y-16450000D03*
X-17224500Y-16624500D03*
%TO.N,Net-(R27-Pad2)*%
X7600000Y15600000D03*
%TO.N,Net-(R10-Pad2)*%
X-18324500Y-4700000D03*
%TO.N,Net-(R11-Pad2)*%
X-14680017Y4669983D03*
%TO.N,Net-(R28-Pad2)*%
X8600000Y12550000D03*
%TO.N,COUNT_3*%
X10100000Y-5400000D03*
X14350000Y-17200000D03*
X8350000Y10750000D03*
X9250000Y2850000D03*
%TO.N,ROTOR_GND*%
X13100000Y3000000D03*
X-21088000Y-3258000D03*
X14950000Y18550000D03*
X-38300000Y-5900000D03*
X-36600000Y-13000000D03*
X-4400000Y-22900000D03*
X-11700000Y3000000D03*
X7800000Y22350000D03*
X38900000Y0D03*
X33600000Y-6300000D03*
X35500000Y-3100000D03*
X-36500000Y-6000000D03*
X11800000Y6400000D03*
X-32100000Y-21700000D03*
X11300000Y20900000D03*
X13329000Y-16339000D03*
X10950000Y4500000D03*
X8884000Y-210000D03*
X-35100000Y-12100000D03*
X-6200000Y-22900000D03*
X-10650000Y1700000D03*
X-30500000Y-21000000D03*
X13000000Y-4000000D03*
X-37100000Y11800000D03*
X8200000Y7500000D03*
X7700000Y4500000D03*
X24900000Y-8400000D03*
X-9650000Y1700000D03*
X13550000Y150000D03*
%TD*%
%TA.AperFunction,Conductor*%
%TO.N,ROTOR_GND*%
G36*
X2091772Y39944740D02*
G01*
X2095035Y39944569D01*
X4179444Y39780529D01*
X4182708Y39780186D01*
X5147387Y39653156D01*
X6255679Y39507215D01*
X6258890Y39506707D01*
X8314777Y39125702D01*
X8317935Y39125031D01*
X10351107Y38636891D01*
X10354241Y38636050D01*
X12358983Y38042284D01*
X12362084Y38041278D01*
X14332973Y37343280D01*
X14336011Y37342114D01*
X16267151Y36542230D01*
X16267769Y36541974D01*
X16270782Y36540632D01*
X16608706Y36379456D01*
X18157921Y35640544D01*
X18160800Y35639076D01*
X19998307Y34641350D01*
X20001121Y34639725D01*
X21726583Y33582379D01*
X21783914Y33547247D01*
X21786681Y33545450D01*
X23509747Y32361229D01*
X23512417Y32359289D01*
X25171181Y31086412D01*
X25173714Y31084361D01*
X26473709Y29974091D01*
X26763606Y29726501D01*
X26766041Y29724309D01*
X28282781Y28285052D01*
X28285068Y28282765D01*
X29724304Y26766048D01*
X29726498Y26763611D01*
X30102763Y26323050D01*
X31084355Y25173724D01*
X31086409Y25171186D01*
X32359296Y23512410D01*
X32361236Y23509740D01*
X32947466Y22656761D01*
X33536295Y21800000D01*
X33545446Y21786686D01*
X33547242Y21783919D01*
X34639700Y20001160D01*
X34641348Y19998305D01*
X35639064Y18160834D01*
X35640563Y18157893D01*
X36540641Y16270770D01*
X36541976Y16267770D01*
X36736905Y15797158D01*
X37342098Y14336051D01*
X37343279Y14332974D01*
X38041271Y12362097D01*
X38042291Y12358956D01*
X38636049Y10354250D01*
X38636899Y10351080D01*
X39125022Y8317985D01*
X39125023Y8317982D01*
X39125708Y8314756D01*
X39494161Y6326603D01*
X39506701Y6258941D01*
X39507216Y6255686D01*
X39780186Y4182721D01*
X39780531Y4179438D01*
X39944576Y2095042D01*
X39944749Y2091747D01*
X39999456Y1650D01*
X39999456Y-1647D01*
X39944734Y-2091756D01*
X39944561Y-2095050D01*
X39780531Y-4179440D01*
X39780186Y-4182724D01*
X39507211Y-6255672D01*
X39506696Y-6258927D01*
X39125706Y-8314764D01*
X39125020Y-8317993D01*
X38961958Y-8997159D01*
X38638776Y-10343239D01*
X38636894Y-10351076D01*
X38636040Y-10354260D01*
X38042291Y-12358960D01*
X38041271Y-12362102D01*
X37343278Y-14332988D01*
X37342101Y-14336053D01*
X37018281Y-15117839D01*
X36541974Y-16267761D01*
X36540632Y-16270774D01*
X35640555Y-18157896D01*
X35639056Y-18160838D01*
X34641343Y-19998319D01*
X34639695Y-20001174D01*
X33547242Y-21783923D01*
X33545446Y-21786689D01*
X32361236Y-23509742D01*
X32359296Y-23512412D01*
X31086409Y-25171188D01*
X31084335Y-25173750D01*
X29726489Y-26763625D01*
X29724283Y-26766076D01*
X28285093Y-28282747D01*
X28282758Y-28285082D01*
X26766037Y-29724319D01*
X26763586Y-29726525D01*
X25173743Y-31084342D01*
X25171181Y-31086416D01*
X23512409Y-32359294D01*
X23509739Y-32361234D01*
X21786673Y-33545458D01*
X21783907Y-33547255D01*
X20001151Y-34639713D01*
X19998296Y-34641361D01*
X18160816Y-35639073D01*
X18157890Y-35640564D01*
X17449012Y-35978671D01*
X16270783Y-36540641D01*
X16267770Y-36541983D01*
X14336033Y-37342106D01*
X14332956Y-37343287D01*
X13066552Y-37791791D01*
X12362080Y-38041282D01*
X12358952Y-38042299D01*
X10354248Y-38636056D01*
X10351077Y-38636906D01*
X8873078Y-38991751D01*
X8317970Y-39125024D01*
X8314743Y-39125710D01*
X6258933Y-39506709D01*
X6255677Y-39507224D01*
X4182717Y-39780185D01*
X4179435Y-39780530D01*
X2095039Y-39944576D01*
X2091744Y-39944749D01*
X1648Y-39999456D01*
X-1649Y-39999456D01*
X-2091755Y-39944734D01*
X-2095049Y-39944561D01*
X-4179439Y-39780531D01*
X-4182723Y-39780186D01*
X-6255675Y-39507211D01*
X-6258930Y-39506696D01*
X-8314767Y-39125706D01*
X-8317996Y-39125020D01*
X-8358411Y-39115316D01*
X-10351100Y-38636888D01*
X-10354263Y-38636040D01*
X-12358969Y-38042289D01*
X-12362111Y-38041269D01*
X-14332980Y-37343280D01*
X-14336032Y-37342109D01*
X-16267006Y-36542287D01*
X-16267762Y-36541974D01*
X-16270775Y-36540633D01*
X-18157899Y-35640555D01*
X-18160841Y-35639056D01*
X-19998312Y-34641348D01*
X-20001149Y-34639710D01*
X-21357889Y-33808313D01*
X-21783925Y-33547242D01*
X-21786692Y-33545446D01*
X-23509745Y-32361236D01*
X-23512415Y-32359296D01*
X-25171191Y-31086409D01*
X-25173744Y-31084342D01*
X-26323363Y-30102500D01*
X-26763617Y-29726498D01*
X-26766054Y-29724304D01*
X-28282769Y-28285070D01*
X-28285058Y-28282781D01*
X-29724325Y-26766031D01*
X-29726517Y-26763596D01*
X-29973020Y-26474970D01*
X-30300949Y-26091003D01*
X-26786500Y-26091003D01*
X-26742801Y-26506887D01*
X-26742798Y-26506899D01*
X-26613600Y-26904500D01*
X-26404502Y-27266599D01*
X-26124695Y-27577306D01*
X-26124691Y-27577310D01*
X-25958100Y-27735397D01*
X-25525712Y-28145786D01*
X-25525703Y-28145801D01*
X-25525699Y-28145798D01*
X-25426999Y-28239501D01*
X-25374206Y-28284596D01*
X-25141703Y-28483197D01*
X-25141699Y-28483200D01*
X-24833399Y-28746505D01*
X-24612539Y-28935071D01*
X-24612510Y-28935115D01*
X-24612500Y-28935104D01*
X-24479833Y-29048472D01*
X-24435535Y-29086273D01*
X-24435509Y-29086313D01*
X-24435500Y-29086303D01*
X-23993800Y-29463500D01*
X-22498499Y-30610900D01*
X-22160300Y-30856704D01*
X-20606999Y-31924201D01*
X-19000000Y-32908996D01*
X-17343699Y-33808303D01*
X-15642500Y-34619705D01*
X-15260600Y-34789703D01*
X-13519299Y-35511001D01*
X-11742600Y-36140098D01*
X-9935521Y-36675399D01*
X-8102849Y-37115402D01*
X-8102837Y-37115405D01*
X-7940847Y-37149863D01*
X-7693879Y-37202400D01*
X-7693852Y-37202405D01*
X-7693833Y-37202409D01*
X-7064823Y-37318965D01*
X-5840699Y-37545799D01*
X-3972081Y-37791793D01*
X-3212674Y-37851571D01*
X-2093166Y-37939696D01*
X-2093156Y-37939696D01*
X-2093148Y-37939697D01*
X-209057Y-37988998D01*
X-209023Y-37988998D01*
X209022Y-37988998D01*
X209056Y-37988998D01*
X2093147Y-37939697D01*
X2093155Y-37939696D01*
X2093164Y-37939696D01*
X3001290Y-37868210D01*
X3972076Y-37791793D01*
X5840698Y-37545799D01*
X7309646Y-37273599D01*
X7693831Y-37202409D01*
X7693842Y-37202406D01*
X7693878Y-37202400D01*
X8017883Y-37133475D01*
X8102831Y-37115405D01*
X8102837Y-37115403D01*
X8102844Y-37115402D01*
X9935516Y-36675399D01*
X11742595Y-36140098D01*
X13519294Y-35511001D01*
X15260597Y-34789703D01*
X15642494Y-34619705D01*
X17343696Y-33808303D01*
X18999996Y-32908996D01*
X20606994Y-31924201D01*
X22160293Y-30856704D01*
X22498489Y-30610900D01*
X23993789Y-29463500D01*
X24435493Y-29086303D01*
X24435501Y-29086313D01*
X24435532Y-29086269D01*
X24455163Y-29069519D01*
X24479836Y-29048468D01*
X24612473Y-28935123D01*
X24833404Y-28746498D01*
X25141696Y-28483198D01*
X25427000Y-28239502D01*
X25427008Y-28239494D01*
X25525695Y-28145797D01*
X25525697Y-28145799D01*
X25525704Y-28145787D01*
X25958099Y-27735397D01*
X26124694Y-27577301D01*
X26404495Y-27266601D01*
X26627156Y-26908907D01*
X26756352Y-26511301D01*
X26786499Y-26091003D01*
X26742797Y-25675201D01*
X26742795Y-25675194D01*
X26613603Y-25277608D01*
X26613602Y-25277606D01*
X26613601Y-25277603D01*
X26404495Y-24915496D01*
X26404494Y-24915494D01*
X26207934Y-24697160D01*
X26124694Y-24604698D01*
X25816696Y-24280502D01*
X25816695Y-24280500D01*
X25457885Y-23902837D01*
X25291406Y-23727609D01*
X25291399Y-23727597D01*
X25291397Y-23727600D01*
X24700500Y-23105499D01*
X24337102Y-22723023D01*
X24045390Y-22415995D01*
X23551100Y-21895646D01*
X23328201Y-21660995D01*
X22550699Y-20842599D01*
X22550697Y-20842596D01*
X22550697Y-20842597D01*
X21714996Y-19962898D01*
X21714995Y-19962896D01*
X20828539Y-19029804D01*
X20823497Y-19024497D01*
X20341197Y-18516799D01*
X20341194Y-18516797D01*
X20009005Y-18275463D01*
X20002998Y-18271099D01*
X20002997Y-18271098D01*
X20002995Y-18271097D01*
X19620997Y-18100996D01*
X19212000Y-18014099D01*
X19211997Y-18014099D01*
X18793899Y-18014099D01*
X18793892Y-18014099D01*
X18732612Y-18027119D01*
X18661821Y-18021710D01*
X18605193Y-17978888D01*
X18580706Y-17912248D01*
X18596134Y-17842948D01*
X18629721Y-17803909D01*
X18728282Y-17728282D01*
X18824536Y-17602841D01*
X18885044Y-17456762D01*
X18905682Y-17300000D01*
X18885044Y-17143238D01*
X18824536Y-16997159D01*
X18728282Y-16871718D01*
X18602841Y-16775464D01*
X18593798Y-16771718D01*
X18456760Y-16714955D01*
X18300000Y-16694318D01*
X18143239Y-16714955D01*
X17997160Y-16775463D01*
X17997157Y-16775465D01*
X17871718Y-16871718D01*
X17775465Y-16997157D01*
X17775463Y-16997160D01*
X17714955Y-17143239D01*
X17694318Y-17299999D01*
X17694318Y-17300000D01*
X17714955Y-17456760D01*
X17745641Y-17530841D01*
X17775464Y-17602841D01*
X17871718Y-17728282D01*
X17997159Y-17824536D01*
X18143238Y-17885044D01*
X18261182Y-17900571D01*
X18326108Y-17929293D01*
X18365200Y-17988558D01*
X18366045Y-18059550D01*
X18328375Y-18119729D01*
X18296001Y-18140592D01*
X18003002Y-18271097D01*
X18002991Y-18271103D01*
X17664701Y-18516797D01*
X17664699Y-18516798D01*
X17130896Y-19023360D01*
X17128445Y-19025567D01*
X16032251Y-19961827D01*
X16029688Y-19963903D01*
X15051806Y-20714296D01*
X15049136Y-20716236D01*
X14033354Y-21414368D01*
X14030594Y-21416159D01*
X13684410Y-21628282D01*
X12801417Y-22169329D01*
X12798563Y-22170977D01*
X11531554Y-22858913D01*
X11528618Y-22860409D01*
X10416180Y-23391093D01*
X10413161Y-23392437D01*
X9274454Y-23864063D01*
X9271374Y-23865245D01*
X7912388Y-24346452D01*
X7909252Y-24347471D01*
X6526964Y-24756928D01*
X6523777Y-24757782D01*
X5325257Y-25045516D01*
X5322036Y-25046200D01*
X4634122Y-25173750D01*
X4110160Y-25270900D01*
X4106897Y-25271417D01*
X2677570Y-25459584D01*
X2674287Y-25459929D01*
X1237068Y-25572974D01*
X1233779Y-25573147D01*
X1651Y-25605455D01*
X-1653Y-25605455D01*
X-1233781Y-25573147D01*
X-1237070Y-25572974D01*
X-2674282Y-25459929D01*
X-2677565Y-25459584D01*
X-4106896Y-25271417D01*
X-4110151Y-25270901D01*
X-5322046Y-25046199D01*
X-5325259Y-25045516D01*
X-6523775Y-24757782D01*
X-6526957Y-24756929D01*
X-7909262Y-24347467D01*
X-7912387Y-24346452D01*
X-9271370Y-23865248D01*
X-9274450Y-23864066D01*
X-9912015Y-23600000D01*
X1594318Y-23600000D01*
X1614955Y-23756760D01*
X1659402Y-23864063D01*
X1675464Y-23902841D01*
X1771718Y-24028282D01*
X1897159Y-24124536D01*
X2043238Y-24185044D01*
X2200000Y-24205682D01*
X2356762Y-24185044D01*
X2502841Y-24124536D01*
X2628282Y-24028282D01*
X2724536Y-23902841D01*
X2755888Y-23827148D01*
X2800435Y-23771869D01*
X2867798Y-23749448D01*
X2936589Y-23767006D01*
X2972258Y-23798664D01*
X3071715Y-23928279D01*
X3071716Y-23928280D01*
X3071718Y-23928282D01*
X3197159Y-24024536D01*
X3343238Y-24085044D01*
X3500000Y-24105682D01*
X3656762Y-24085044D01*
X3802841Y-24024536D01*
X3928282Y-23928282D01*
X4024536Y-23802841D01*
X4085044Y-23656762D01*
X4105682Y-23500000D01*
X4099847Y-23455682D01*
X4089164Y-23374534D01*
X4085044Y-23343238D01*
X4024536Y-23197159D01*
X4024414Y-23197000D01*
X4722318Y-23197000D01*
X4742955Y-23353760D01*
X4780019Y-23443239D01*
X4803464Y-23499841D01*
X4899718Y-23625282D01*
X5025159Y-23721536D01*
X5171238Y-23782044D01*
X5328000Y-23802682D01*
X5484762Y-23782044D01*
X5630841Y-23721536D01*
X5756282Y-23625282D01*
X5852536Y-23499841D01*
X5913044Y-23353762D01*
X5933682Y-23197000D01*
X5913044Y-23040238D01*
X5852536Y-22894159D01*
X5818652Y-22850000D01*
X6444318Y-22850000D01*
X6464955Y-23006760D01*
X6484301Y-23053464D01*
X6525464Y-23152841D01*
X6621718Y-23278282D01*
X6747159Y-23374536D01*
X6893238Y-23435044D01*
X6955478Y-23443238D01*
X7049999Y-23455682D01*
X7049999Y-23455681D01*
X7050000Y-23455682D01*
X7206762Y-23435044D01*
X7352841Y-23374536D01*
X7478282Y-23278282D01*
X7574536Y-23152841D01*
X7635044Y-23006762D01*
X7655682Y-22850000D01*
X7646931Y-22783533D01*
X7644981Y-22768718D01*
X7635044Y-22693238D01*
X7574536Y-22547159D01*
X7478282Y-22421718D01*
X7352841Y-22325464D01*
X7206762Y-22264956D01*
X7206760Y-22264955D01*
X7050000Y-22244318D01*
X6893239Y-22264955D01*
X6747160Y-22325463D01*
X6747157Y-22325465D01*
X6621718Y-22421718D01*
X6525465Y-22547157D01*
X6525463Y-22547160D01*
X6464955Y-22693239D01*
X6444318Y-22849999D01*
X6444318Y-22850000D01*
X5818652Y-22850000D01*
X5756282Y-22768718D01*
X5630841Y-22672464D01*
X5520527Y-22626770D01*
X5484760Y-22611955D01*
X5328000Y-22591318D01*
X5171239Y-22611955D01*
X5025160Y-22672463D01*
X5025157Y-22672465D01*
X4899718Y-22768718D01*
X4803465Y-22894157D01*
X4803463Y-22894160D01*
X4742955Y-23040239D01*
X4722318Y-23196999D01*
X4722318Y-23197000D01*
X4024414Y-23197000D01*
X3928282Y-23071718D01*
X3802841Y-22975464D01*
X3656762Y-22914956D01*
X3656760Y-22914955D01*
X3500000Y-22894318D01*
X3343239Y-22914955D01*
X3197160Y-22975463D01*
X3197157Y-22975465D01*
X3071718Y-23071718D01*
X2975465Y-23197157D01*
X2975461Y-23197164D01*
X2944111Y-23272850D01*
X2899563Y-23328131D01*
X2832199Y-23350551D01*
X2763408Y-23332992D01*
X2727740Y-23301335D01*
X2710050Y-23278281D01*
X2628282Y-23171718D01*
X2502841Y-23075464D01*
X2493798Y-23071718D01*
X2356760Y-23014955D01*
X2200000Y-22994318D01*
X2043239Y-23014955D01*
X1897160Y-23075463D01*
X1897157Y-23075465D01*
X1771718Y-23171718D01*
X1675465Y-23297157D01*
X1675463Y-23297160D01*
X1614955Y-23443239D01*
X1594318Y-23599999D01*
X1594318Y-23600000D01*
X-9912015Y-23600000D01*
X-10413165Y-23392434D01*
X-10416184Y-23391090D01*
X-11528616Y-22860409D01*
X-11531552Y-22858913D01*
X-12747891Y-22198489D01*
X-4207193Y-22198489D01*
X-4186556Y-22355249D01*
X-4136761Y-22475463D01*
X-4126047Y-22501330D01*
X-4029793Y-22626771D01*
X-3904352Y-22723025D01*
X-3758273Y-22783533D01*
X-3679893Y-22793851D01*
X-3601512Y-22804171D01*
X-3601512Y-22804170D01*
X-3601511Y-22804171D01*
X-3444749Y-22783533D01*
X-3298670Y-22723025D01*
X-3173229Y-22626771D01*
X-3076975Y-22501330D01*
X-3016467Y-22355251D01*
X-2995829Y-22198489D01*
X-3016467Y-22041727D01*
X-3076975Y-21895648D01*
X-3173229Y-21770207D01*
X-3298670Y-21673953D01*
X-3329948Y-21660997D01*
X-3444751Y-21613444D01*
X-3601511Y-21592807D01*
X-3758272Y-21613444D01*
X-3904351Y-21673952D01*
X-3904354Y-21673954D01*
X-4029793Y-21770207D01*
X-4126046Y-21895646D01*
X-4126048Y-21895649D01*
X-4186556Y-22041728D01*
X-4207193Y-22198488D01*
X-4207193Y-22198489D01*
X-12747891Y-22198489D01*
X-12798561Y-22170977D01*
X-12801415Y-22169329D01*
X-13009662Y-22041727D01*
X-14030610Y-21416148D01*
X-14033337Y-21414377D01*
X-14345257Y-21200000D01*
X-11155682Y-21200000D01*
X-11135045Y-21356760D01*
X-11104632Y-21430182D01*
X-11074536Y-21502841D01*
X-10978282Y-21628282D01*
X-10852841Y-21724536D01*
X-10706762Y-21785044D01*
X-10550000Y-21805682D01*
X-10393238Y-21785044D01*
X-10247159Y-21724536D01*
X-10121718Y-21628282D01*
X-10025464Y-21502841D01*
X-9964956Y-21356762D01*
X-9944318Y-21200000D01*
X-9964956Y-21043238D01*
X-10025464Y-20897159D01*
X-10081217Y-20824500D01*
X-5805682Y-20824500D01*
X-5785045Y-20981260D01*
X-5785044Y-20981262D01*
X-5724536Y-21127341D01*
X-5628282Y-21252782D01*
X-5502841Y-21349036D01*
X-5356762Y-21409544D01*
X-5278381Y-21419862D01*
X-5200001Y-21430182D01*
X-5200001Y-21430181D01*
X-5200000Y-21430182D01*
X-5043238Y-21409544D01*
X-4897159Y-21349036D01*
X-4771718Y-21252782D01*
X-4675464Y-21127341D01*
X-4614956Y-20981262D01*
X-4594318Y-20824500D01*
X-4614956Y-20667738D01*
X-4675464Y-20521659D01*
X-4771718Y-20396218D01*
X-4897159Y-20299964D01*
X-5001457Y-20256762D01*
X-5043240Y-20239455D01*
X-5200000Y-20218818D01*
X-5356761Y-20239455D01*
X-5502840Y-20299963D01*
X-5502843Y-20299965D01*
X-5628282Y-20396218D01*
X-5724535Y-20521657D01*
X-5724537Y-20521660D01*
X-5785045Y-20667739D01*
X-5805682Y-20824499D01*
X-5805682Y-20824500D01*
X-10081217Y-20824500D01*
X-10121718Y-20771718D01*
X-10247159Y-20675464D01*
X-10265808Y-20667739D01*
X-10393240Y-20614955D01*
X-10550000Y-20594318D01*
X-10706761Y-20614955D01*
X-10852840Y-20675463D01*
X-10852843Y-20675465D01*
X-10978282Y-20771718D01*
X-11074535Y-20897157D01*
X-11074537Y-20897160D01*
X-11135045Y-21043239D01*
X-11155682Y-21199999D01*
X-11155682Y-21200000D01*
X-14345257Y-21200000D01*
X-14865282Y-20842597D01*
X-15049138Y-20716236D01*
X-15051808Y-20714296D01*
X-15559730Y-20324534D01*
X-15852334Y-20100000D01*
X3078337Y-20100000D01*
X3098974Y-20256760D01*
X3156740Y-20396218D01*
X3159483Y-20402841D01*
X3255737Y-20528282D01*
X3381178Y-20624536D01*
X3527257Y-20685044D01*
X3684019Y-20705682D01*
X3840781Y-20685044D01*
X3986860Y-20624536D01*
X4112301Y-20528282D01*
X4208555Y-20402841D01*
X4269063Y-20256762D01*
X4289701Y-20100000D01*
X4269063Y-19943238D01*
X4208555Y-19797159D01*
X4112301Y-19671718D01*
X3986860Y-19575464D01*
X3982339Y-19573591D01*
X3840779Y-19514955D01*
X3833525Y-19514000D01*
X5865318Y-19514000D01*
X5885955Y-19670760D01*
X5938311Y-19797157D01*
X5946464Y-19816841D01*
X6042718Y-19942282D01*
X6168159Y-20038536D01*
X6314238Y-20099044D01*
X6343087Y-20102842D01*
X6470999Y-20119682D01*
X6470999Y-20119681D01*
X6471000Y-20119682D01*
X6627762Y-20099044D01*
X6773841Y-20038536D01*
X6888181Y-19950800D01*
X11445118Y-19950800D01*
X11465755Y-20107560D01*
X11515760Y-20228281D01*
X11526264Y-20253641D01*
X11622518Y-20379082D01*
X11747959Y-20475336D01*
X11894038Y-20535844D01*
X11972418Y-20546162D01*
X12050799Y-20556482D01*
X12050799Y-20556481D01*
X12050800Y-20556482D01*
X12207562Y-20535844D01*
X12353641Y-20475336D01*
X12479082Y-20379082D01*
X12575336Y-20253641D01*
X12635844Y-20107562D01*
X12656482Y-19950800D01*
X12655486Y-19943238D01*
X12636629Y-19800000D01*
X12894318Y-19800000D01*
X12914955Y-19956760D01*
X12950776Y-20043238D01*
X12975464Y-20102841D01*
X13071718Y-20228282D01*
X13197159Y-20324536D01*
X13343238Y-20385044D01*
X13500000Y-20405682D01*
X13656762Y-20385044D01*
X13802841Y-20324536D01*
X13928282Y-20228282D01*
X14024536Y-20102841D01*
X14085044Y-19956762D01*
X14105682Y-19800000D01*
X14100903Y-19763703D01*
X14088793Y-19671718D01*
X14085044Y-19643238D01*
X14024536Y-19497159D01*
X13928282Y-19371718D01*
X13802841Y-19275464D01*
X13748225Y-19252841D01*
X13656760Y-19214955D01*
X13500000Y-19194318D01*
X13343239Y-19214955D01*
X13197160Y-19275463D01*
X13197157Y-19275465D01*
X13071718Y-19371718D01*
X12975465Y-19497157D01*
X12975463Y-19497160D01*
X12914955Y-19643239D01*
X12894318Y-19799999D01*
X12894318Y-19800000D01*
X12636629Y-19800000D01*
X12636255Y-19797159D01*
X12635844Y-19794038D01*
X12575336Y-19647959D01*
X12479082Y-19522518D01*
X12353641Y-19426264D01*
X12254128Y-19385044D01*
X12207560Y-19365755D01*
X12050800Y-19345118D01*
X11894039Y-19365755D01*
X11747960Y-19426263D01*
X11747957Y-19426265D01*
X11622518Y-19522518D01*
X11526265Y-19647957D01*
X11526263Y-19647960D01*
X11465755Y-19794039D01*
X11445118Y-19950799D01*
X11445118Y-19950800D01*
X6888181Y-19950800D01*
X6899282Y-19942282D01*
X6995536Y-19816841D01*
X7056044Y-19670762D01*
X7076682Y-19514000D01*
X7071486Y-19474536D01*
X7062422Y-19405682D01*
X7056044Y-19357238D01*
X6995536Y-19211159D01*
X6899282Y-19085718D01*
X6773841Y-18989464D01*
X6772613Y-18988955D01*
X6627760Y-18928955D01*
X6471000Y-18908318D01*
X6314239Y-18928955D01*
X6168160Y-18989463D01*
X6168157Y-18989465D01*
X6042718Y-19085718D01*
X5946465Y-19211157D01*
X5946463Y-19211160D01*
X5885955Y-19357239D01*
X5865318Y-19513999D01*
X5865318Y-19514000D01*
X3833525Y-19514000D01*
X3684019Y-19494318D01*
X3527258Y-19514955D01*
X3381179Y-19575463D01*
X3381176Y-19575465D01*
X3255737Y-19671718D01*
X3159484Y-19797157D01*
X3159482Y-19797160D01*
X3098974Y-19943239D01*
X3078337Y-20099999D01*
X3078337Y-20100000D01*
X-15852334Y-20100000D01*
X-16029703Y-19963893D01*
X-16032253Y-19961827D01*
X-16038186Y-19956760D01*
X-16556579Y-19513999D01*
X-17128445Y-19025567D01*
X-17130896Y-19023360D01*
X-17664699Y-18516798D01*
X-17664701Y-18516797D01*
X-17666987Y-18515137D01*
X-17822086Y-18402492D01*
X-17963205Y-18300000D01*
X-13505682Y-18300000D01*
X-13485045Y-18456760D01*
X-13448966Y-18543861D01*
X-13424536Y-18602841D01*
X-13328282Y-18728282D01*
X-13202841Y-18824536D01*
X-13056762Y-18885044D01*
X-13030438Y-18888509D01*
X-13025665Y-18889138D01*
X-12960737Y-18917860D01*
X-12921646Y-18977126D01*
X-12917189Y-19030506D01*
X-12930682Y-19132999D01*
X-12930682Y-19133000D01*
X-12910045Y-19289760D01*
X-12853503Y-19426263D01*
X-12849536Y-19435841D01*
X-12753282Y-19561282D01*
X-12627841Y-19657536D01*
X-12481762Y-19718044D01*
X-12325000Y-19738682D01*
X-12168238Y-19718044D01*
X-12022159Y-19657536D01*
X-11896718Y-19561282D01*
X-11800464Y-19435841D01*
X-11739956Y-19289762D01*
X-11719318Y-19133000D01*
X-11722773Y-19106760D01*
X-11739956Y-18976239D01*
X-11748023Y-18956762D01*
X-11800464Y-18830159D01*
X-11823606Y-18800000D01*
X7244318Y-18800000D01*
X7264955Y-18956760D01*
X7278502Y-18989464D01*
X7325464Y-19102841D01*
X7421718Y-19228282D01*
X7547159Y-19324536D01*
X7693238Y-19385044D01*
X7850000Y-19405682D01*
X8006762Y-19385044D01*
X8152841Y-19324536D01*
X8278282Y-19228282D01*
X8351394Y-19133000D01*
X8659318Y-19133000D01*
X8679955Y-19289760D01*
X8736497Y-19426263D01*
X8740464Y-19435841D01*
X8836718Y-19561282D01*
X8962159Y-19657536D01*
X9108238Y-19718044D01*
X9186618Y-19728362D01*
X9264999Y-19738682D01*
X9264999Y-19738681D01*
X9265000Y-19738682D01*
X9421762Y-19718044D01*
X9567841Y-19657536D01*
X9693282Y-19561282D01*
X9789536Y-19435841D01*
X9850044Y-19289762D01*
X9870682Y-19133000D01*
X9867227Y-19106760D01*
X9850044Y-18976239D01*
X9841977Y-18956762D01*
X9789536Y-18830159D01*
X9693282Y-18704718D01*
X9567841Y-18608464D01*
X9554269Y-18602842D01*
X9421760Y-18547955D01*
X9265000Y-18527318D01*
X9108239Y-18547955D01*
X8962160Y-18608463D01*
X8962157Y-18608465D01*
X8836718Y-18704718D01*
X8740465Y-18830157D01*
X8740464Y-18830159D01*
X8684553Y-18965141D01*
X8683427Y-18967859D01*
X8666425Y-18988955D01*
X8673259Y-19026827D01*
X8672903Y-19029804D01*
X8659318Y-19132998D01*
X8659318Y-19133000D01*
X8351394Y-19133000D01*
X8374536Y-19102841D01*
X8431574Y-18965137D01*
X8448572Y-18944044D01*
X8441740Y-18906171D01*
X8442096Y-18903193D01*
X8443947Y-18889138D01*
X8455682Y-18800000D01*
X8435044Y-18643238D01*
X8374536Y-18497159D01*
X8278282Y-18371718D01*
X8152841Y-18275464D01*
X8142311Y-18271102D01*
X8006760Y-18214955D01*
X7850000Y-18194318D01*
X7693239Y-18214955D01*
X7547160Y-18275463D01*
X7547157Y-18275465D01*
X7421718Y-18371718D01*
X7325465Y-18497157D01*
X7325463Y-18497160D01*
X7264955Y-18643239D01*
X7244318Y-18799999D01*
X7244318Y-18800000D01*
X-11823606Y-18800000D01*
X-11896718Y-18704718D01*
X-12022159Y-18608464D01*
X-12035732Y-18602842D01*
X-12064946Y-18590741D01*
X-12168238Y-18547956D01*
X-12174750Y-18547098D01*
X-12199339Y-18543861D01*
X-12264266Y-18515137D01*
X-12303356Y-18455871D01*
X-12307812Y-18402495D01*
X-12294318Y-18300000D01*
X-12314956Y-18143238D01*
X-12375464Y-17997159D01*
X-12409348Y-17953000D01*
X11347318Y-17953000D01*
X11367955Y-18109760D01*
X11427221Y-18252839D01*
X11428464Y-18255841D01*
X11524718Y-18381282D01*
X11650159Y-18477536D01*
X11796238Y-18538044D01*
X11953000Y-18558682D01*
X12109762Y-18538044D01*
X12255841Y-18477536D01*
X12381282Y-18381282D01*
X12477536Y-18255841D01*
X12538044Y-18109762D01*
X12551775Y-18005458D01*
X12575555Y-17951702D01*
X12777262Y-17951702D01*
X12801192Y-18002491D01*
X12801619Y-18005459D01*
X12814955Y-18106760D01*
X12816199Y-18109762D01*
X12875464Y-18252841D01*
X12971718Y-18378282D01*
X13097159Y-18474536D01*
X13243238Y-18535044D01*
X13310210Y-18543861D01*
X13399999Y-18555682D01*
X13399999Y-18555681D01*
X13400000Y-18555682D01*
X13556762Y-18535044D01*
X13702841Y-18474536D01*
X13828282Y-18378282D01*
X13924536Y-18252841D01*
X13985044Y-18106762D01*
X14005682Y-17950000D01*
X14000380Y-17909730D01*
X14011319Y-17839584D01*
X14058446Y-17786485D01*
X14126800Y-17767294D01*
X14173517Y-17776875D01*
X14193238Y-17785044D01*
X14204184Y-17786485D01*
X14349999Y-17805682D01*
X14349999Y-17805681D01*
X14350000Y-17805682D01*
X14506762Y-17785044D01*
X14652841Y-17724536D01*
X14778282Y-17628282D01*
X14874536Y-17502841D01*
X14935044Y-17356762D01*
X14955682Y-17200000D01*
X14955508Y-17198682D01*
X14935044Y-17043239D01*
X14925950Y-17021282D01*
X14874536Y-16897159D01*
X14778282Y-16771718D01*
X14652841Y-16675464D01*
X14643798Y-16671718D01*
X14506760Y-16614955D01*
X14350000Y-16594318D01*
X14193239Y-16614955D01*
X14047160Y-16675463D01*
X14047157Y-16675465D01*
X13921718Y-16771718D01*
X13825465Y-16897157D01*
X13825463Y-16897160D01*
X13764955Y-17043239D01*
X13744318Y-17199999D01*
X13744318Y-17200001D01*
X13749619Y-17240269D01*
X13738679Y-17310417D01*
X13691551Y-17363516D01*
X13623197Y-17382705D01*
X13576481Y-17373124D01*
X13556760Y-17364955D01*
X13400000Y-17344318D01*
X13243239Y-17364955D01*
X13097160Y-17425463D01*
X13097157Y-17425465D01*
X12971718Y-17521718D01*
X12875465Y-17647157D01*
X12875463Y-17647160D01*
X12814955Y-17793239D01*
X12801224Y-17897540D01*
X12777262Y-17951702D01*
X12575555Y-17951702D01*
X12575735Y-17951295D01*
X12551807Y-17900507D01*
X12551385Y-17897576D01*
X12538044Y-17796238D01*
X12477536Y-17650159D01*
X12381282Y-17524718D01*
X12255841Y-17428464D01*
X12248599Y-17425464D01*
X12109760Y-17367955D01*
X11953000Y-17347318D01*
X11796239Y-17367955D01*
X11650160Y-17428463D01*
X11650157Y-17428465D01*
X11524718Y-17524718D01*
X11428465Y-17650157D01*
X11428463Y-17650160D01*
X11367955Y-17796239D01*
X11347318Y-17952999D01*
X11347318Y-17953000D01*
X-12409348Y-17953000D01*
X-12471718Y-17871718D01*
X-12597159Y-17775464D01*
X-12652516Y-17752534D01*
X-12743240Y-17714955D01*
X-12900000Y-17694318D01*
X-13056761Y-17714955D01*
X-13202840Y-17775463D01*
X-13202843Y-17775465D01*
X-13328282Y-17871718D01*
X-13424535Y-17997157D01*
X-13424537Y-17997160D01*
X-13485045Y-18143239D01*
X-13505682Y-18299999D01*
X-13505682Y-18300000D01*
X-17963205Y-18300000D01*
X-18002993Y-18271103D01*
X-18002995Y-18271101D01*
X-18002999Y-18271099D01*
X-18250549Y-18160838D01*
X-18384899Y-18100997D01*
X-18384901Y-18100996D01*
X-18793894Y-18014099D01*
X-18793898Y-18014099D01*
X-19211998Y-18014099D01*
X-19212002Y-18014099D01*
X-19620998Y-18100996D01*
X-19621000Y-18100996D01*
X-20002997Y-18271097D01*
X-20003004Y-18271102D01*
X-20341198Y-18516798D01*
X-20767111Y-18965141D01*
X-20823498Y-19024497D01*
X-20825712Y-19026827D01*
X-21714999Y-19962896D01*
X-21714999Y-19962898D01*
X-22550698Y-20842597D01*
X-23328198Y-21660995D01*
X-23328201Y-21660997D01*
X-24045395Y-22415995D01*
X-24231578Y-22611955D01*
X-24700499Y-23105499D01*
X-25291400Y-23727600D01*
X-25385981Y-23827151D01*
X-25816700Y-24280500D01*
X-25816699Y-24280501D01*
X-26124670Y-24604666D01*
X-26124684Y-24604681D01*
X-26404501Y-24915496D01*
X-26613601Y-25277606D01*
X-26720209Y-25605682D01*
X-26742799Y-25675201D01*
X-26786500Y-26091003D01*
X-30300949Y-26091003D01*
X-31084366Y-25173714D01*
X-31086417Y-25171181D01*
X-31217775Y-25000000D01*
X-29005682Y-25000000D01*
X-28985045Y-25156760D01*
X-28937766Y-25270900D01*
X-28924536Y-25302841D01*
X-28828282Y-25428282D01*
X-28702841Y-25524536D01*
X-28556762Y-25585044D01*
X-28400000Y-25605682D01*
X-28243238Y-25585044D01*
X-28097159Y-25524536D01*
X-27971718Y-25428282D01*
X-27875464Y-25302841D01*
X-27814956Y-25156762D01*
X-27794318Y-25000000D01*
X-27814956Y-24843238D01*
X-27875464Y-24697159D01*
X-27971718Y-24571718D01*
X-28097159Y-24475464D01*
X-28243238Y-24414956D01*
X-28243240Y-24414955D01*
X-28400000Y-24394318D01*
X-28556761Y-24414955D01*
X-28702840Y-24475463D01*
X-28702843Y-24475465D01*
X-28828282Y-24571718D01*
X-28924535Y-24697157D01*
X-28924537Y-24697160D01*
X-28985045Y-24843239D01*
X-29005682Y-24999999D01*
X-29005682Y-25000000D01*
X-31217775Y-25000000D01*
X-32308969Y-23578000D01*
X-31472682Y-23578000D01*
X-31452045Y-23734760D01*
X-31398484Y-23864066D01*
X-31391536Y-23880841D01*
X-31295282Y-24006282D01*
X-31169841Y-24102536D01*
X-31023762Y-24163044D01*
X-30945381Y-24173363D01*
X-30867001Y-24183682D01*
X-30867001Y-24183681D01*
X-30867000Y-24183682D01*
X-30710238Y-24163044D01*
X-30564159Y-24102536D01*
X-30438718Y-24006282D01*
X-30342464Y-23880841D01*
X-30281956Y-23734762D01*
X-30261318Y-23578000D01*
X-30270047Y-23511700D01*
X-30279060Y-23443238D01*
X-30281956Y-23421238D01*
X-30342464Y-23275159D01*
X-30438718Y-23149718D01*
X-30564159Y-23053464D01*
X-30657127Y-23014955D01*
X-30693232Y-23000000D01*
X-27805682Y-23000000D01*
X-27785045Y-23156760D01*
X-27726890Y-23297157D01*
X-27724536Y-23302841D01*
X-27628282Y-23428282D01*
X-27502841Y-23524536D01*
X-27356762Y-23585044D01*
X-27200000Y-23605682D01*
X-27043238Y-23585044D01*
X-26897159Y-23524536D01*
X-26771718Y-23428282D01*
X-26675464Y-23302841D01*
X-26614956Y-23156762D01*
X-26594318Y-23000000D01*
X-26614956Y-22843238D01*
X-26675464Y-22697159D01*
X-26771718Y-22571718D01*
X-26897159Y-22475464D01*
X-27040717Y-22416000D01*
X-27043240Y-22414955D01*
X-27200000Y-22394318D01*
X-27356761Y-22414955D01*
X-27502840Y-22475463D01*
X-27502843Y-22475465D01*
X-27628282Y-22571718D01*
X-27724535Y-22697157D01*
X-27724537Y-22697160D01*
X-27785045Y-22843239D01*
X-27805682Y-22999999D01*
X-27805682Y-23000000D01*
X-30693232Y-23000000D01*
X-30710240Y-22992955D01*
X-30867000Y-22972318D01*
X-31023761Y-22992955D01*
X-31169840Y-23053463D01*
X-31169843Y-23053465D01*
X-31295282Y-23149718D01*
X-31391535Y-23275157D01*
X-31391537Y-23275160D01*
X-31452045Y-23421239D01*
X-31472682Y-23577999D01*
X-31472682Y-23578000D01*
X-32308969Y-23578000D01*
X-32359295Y-23512417D01*
X-32361235Y-23509747D01*
X-33545461Y-21786673D01*
X-33547248Y-21783922D01*
X-34517862Y-20200000D01*
X-25005682Y-20200000D01*
X-24985045Y-20356760D01*
X-24965957Y-20402841D01*
X-24924536Y-20502841D01*
X-24828282Y-20628282D01*
X-24702841Y-20724536D01*
X-24556762Y-20785044D01*
X-24400000Y-20805682D01*
X-24243238Y-20785044D01*
X-24097159Y-20724536D01*
X-23971718Y-20628282D01*
X-23875464Y-20502841D01*
X-23814956Y-20356762D01*
X-23794318Y-20200000D01*
X-23814956Y-20043238D01*
X-23875464Y-19897159D01*
X-23971718Y-19771718D01*
X-23982165Y-19763701D01*
X-24024031Y-19706365D01*
X-24028253Y-19635494D01*
X-23993489Y-19573591D01*
X-23930776Y-19540310D01*
X-23921912Y-19538818D01*
X-23893238Y-19535044D01*
X-23747159Y-19474536D01*
X-23621718Y-19378282D01*
X-23525464Y-19252841D01*
X-23464956Y-19106762D01*
X-23444318Y-18950000D01*
X-23449806Y-18908318D01*
X-23464956Y-18793239D01*
X-23491862Y-18728281D01*
X-23525464Y-18647159D01*
X-23621718Y-18521718D01*
X-23747159Y-18425464D01*
X-23853823Y-18381282D01*
X-23893240Y-18364955D01*
X-24050000Y-18344318D01*
X-24206761Y-18364955D01*
X-24352840Y-18425463D01*
X-24352843Y-18425465D01*
X-24478282Y-18521718D01*
X-24574535Y-18647157D01*
X-24574537Y-18647160D01*
X-24635045Y-18793239D01*
X-24655682Y-18949999D01*
X-24655682Y-18950000D01*
X-24635045Y-19106760D01*
X-24635044Y-19106762D01*
X-24574536Y-19252841D01*
X-24483318Y-19371718D01*
X-24478281Y-19378283D01*
X-24467838Y-19386296D01*
X-24425970Y-19443633D01*
X-24421748Y-19514504D01*
X-24456511Y-19576408D01*
X-24519224Y-19609689D01*
X-24528092Y-19611181D01*
X-24556762Y-19614956D01*
X-24702840Y-19675463D01*
X-24702843Y-19675465D01*
X-24828282Y-19771718D01*
X-24924535Y-19897157D01*
X-24924537Y-19897160D01*
X-24985045Y-20043239D01*
X-25005682Y-20199999D01*
X-25005682Y-20200000D01*
X-34517862Y-20200000D01*
X-34639733Y-20001121D01*
X-34641364Y-19998296D01*
X-35639084Y-18160800D01*
X-35640552Y-18157921D01*
X-36145137Y-17100000D01*
X-24505682Y-17100000D01*
X-24485045Y-17256760D01*
X-24432025Y-17384760D01*
X-24424536Y-17402841D01*
X-24328282Y-17528282D01*
X-24202841Y-17624536D01*
X-24056762Y-17685044D01*
X-23900000Y-17705682D01*
X-23743238Y-17685044D01*
X-23597159Y-17624536D01*
X-23471718Y-17528282D01*
X-23375464Y-17402841D01*
X-23314956Y-17256762D01*
X-23294318Y-17100000D01*
X-23298105Y-17071238D01*
X-23307857Y-16997159D01*
X-23314956Y-16943238D01*
X-23375464Y-16797159D01*
X-23471718Y-16671718D01*
X-23597159Y-16575464D01*
X-23642309Y-16556762D01*
X-23743240Y-16514955D01*
X-23900000Y-16494318D01*
X-24056761Y-16514955D01*
X-24202840Y-16575463D01*
X-24202843Y-16575465D01*
X-24328282Y-16671718D01*
X-24424535Y-16797157D01*
X-24424537Y-16797160D01*
X-24485045Y-16943239D01*
X-24505682Y-17099999D01*
X-24505682Y-17100000D01*
X-36145137Y-17100000D01*
X-36410251Y-16544159D01*
X-36455161Y-16450000D01*
X-29105682Y-16450000D01*
X-29085045Y-16606760D01*
X-29025811Y-16749762D01*
X-29024536Y-16752841D01*
X-28928282Y-16878282D01*
X-28802841Y-16974536D01*
X-28656762Y-17035044D01*
X-28500000Y-17055682D01*
X-28343238Y-17035044D01*
X-28197159Y-16974536D01*
X-28071718Y-16878282D01*
X-27975464Y-16752841D01*
X-27914956Y-16606762D01*
X-27894318Y-16450000D01*
X-27900901Y-16400000D01*
X-20605682Y-16400000D01*
X-20585045Y-16556760D01*
X-20528066Y-16694318D01*
X-20524536Y-16702841D01*
X-20428282Y-16828282D01*
X-20302841Y-16924536D01*
X-20156762Y-16985044D01*
X-20078381Y-16995362D01*
X-20000001Y-17005682D01*
X-20000001Y-17005681D01*
X-20000000Y-17005682D01*
X-19843238Y-16985044D01*
X-19697159Y-16924536D01*
X-19571718Y-16828282D01*
X-19475464Y-16702841D01*
X-19443014Y-16624500D01*
X-17830182Y-16624500D01*
X-17809545Y-16781260D01*
X-17749939Y-16925160D01*
X-17749036Y-16927341D01*
X-17652782Y-17052782D01*
X-17527341Y-17149036D01*
X-17381262Y-17209544D01*
X-17224500Y-17230182D01*
X-17067738Y-17209544D01*
X-16921659Y-17149036D01*
X-16796218Y-17052782D01*
X-16699964Y-16927341D01*
X-16666686Y-16847000D01*
X-8739682Y-16847000D01*
X-8719045Y-17003760D01*
X-8658869Y-17149036D01*
X-8658536Y-17149841D01*
X-8562282Y-17275282D01*
X-8436841Y-17371536D01*
X-8290762Y-17432044D01*
X-8134000Y-17452682D01*
X-7977238Y-17432044D01*
X-7831159Y-17371536D01*
X-7705718Y-17275282D01*
X-7669437Y-17228000D01*
X8405318Y-17228000D01*
X8425955Y-17384760D01*
X8485404Y-17528281D01*
X8486464Y-17530841D01*
X8582718Y-17656282D01*
X8708159Y-17752536D01*
X8854238Y-17813044D01*
X9011000Y-17833682D01*
X9167762Y-17813044D01*
X9313841Y-17752536D01*
X9439282Y-17656282D01*
X9535536Y-17530841D01*
X9596044Y-17384762D01*
X9616682Y-17228000D01*
X9596044Y-17071238D01*
X9535536Y-16925159D01*
X9439282Y-16799718D01*
X9313841Y-16703464D01*
X9312340Y-16702842D01*
X9167760Y-16642955D01*
X9011000Y-16622318D01*
X8854239Y-16642955D01*
X8708160Y-16703463D01*
X8708157Y-16703465D01*
X8582718Y-16799718D01*
X8486465Y-16925157D01*
X8486463Y-16925160D01*
X8425955Y-17071239D01*
X8405318Y-17227999D01*
X8405318Y-17228000D01*
X-7669437Y-17228000D01*
X-7609464Y-17149841D01*
X-7548956Y-17003762D01*
X-7528318Y-16847000D01*
X-7534880Y-16797160D01*
X-7548956Y-16690239D01*
X-7555075Y-16675465D01*
X-7589233Y-16593000D01*
X-6834682Y-16593000D01*
X-6814045Y-16749760D01*
X-6794411Y-16797159D01*
X-6753536Y-16895841D01*
X-6657282Y-17021282D01*
X-6531841Y-17117536D01*
X-6385762Y-17178044D01*
X-6229000Y-17198682D01*
X-6072238Y-17178044D01*
X-5926159Y-17117536D01*
X-5800718Y-17021282D01*
X-5704464Y-16895841D01*
X-5643956Y-16749762D01*
X-5623318Y-16593000D01*
X-5625627Y-16575465D01*
X-5640038Y-16466000D01*
X5611318Y-16466000D01*
X5631955Y-16622760D01*
X5685837Y-16752841D01*
X5692464Y-16768841D01*
X5788718Y-16894282D01*
X5914159Y-16990536D01*
X6060238Y-17051044D01*
X6217000Y-17071682D01*
X6373762Y-17051044D01*
X6519841Y-16990536D01*
X6645282Y-16894282D01*
X6741536Y-16768841D01*
X6802044Y-16622762D01*
X6822682Y-16466000D01*
X6820575Y-16449999D01*
X6802044Y-16309239D01*
X6799395Y-16302842D01*
X6741536Y-16163159D01*
X6645282Y-16037718D01*
X6596127Y-16000000D01*
X9694318Y-16000000D01*
X9714955Y-16156760D01*
X9761775Y-16269792D01*
X9775464Y-16302841D01*
X9871718Y-16428282D01*
X9997159Y-16524536D01*
X10143238Y-16585044D01*
X10300000Y-16605682D01*
X10456762Y-16585044D01*
X10602841Y-16524536D01*
X10728282Y-16428282D01*
X10824536Y-16302841D01*
X10885044Y-16156762D01*
X10905682Y-16000000D01*
X10904012Y-15987318D01*
X10890010Y-15880956D01*
X10885044Y-15843238D01*
X10824536Y-15697159D01*
X10728282Y-15571718D01*
X10602841Y-15475464D01*
X10598677Y-15473739D01*
X10456760Y-15414955D01*
X10300000Y-15394318D01*
X10143239Y-15414955D01*
X9997160Y-15475463D01*
X9997157Y-15475465D01*
X9871718Y-15571718D01*
X9775465Y-15697157D01*
X9775463Y-15697160D01*
X9714955Y-15843239D01*
X9694318Y-15999999D01*
X9694318Y-16000000D01*
X6596127Y-16000000D01*
X6519841Y-15941464D01*
X6500231Y-15933341D01*
X6373760Y-15880955D01*
X6217000Y-15860318D01*
X6060239Y-15880955D01*
X5914160Y-15941463D01*
X5914157Y-15941465D01*
X5788718Y-16037718D01*
X5692465Y-16163157D01*
X5692463Y-16163160D01*
X5631955Y-16309239D01*
X5611318Y-16465999D01*
X5611318Y-16466000D01*
X-5640038Y-16466000D01*
X-5643956Y-16436239D01*
X-5647251Y-16428282D01*
X-5704464Y-16290159D01*
X-5800718Y-16164718D01*
X-5926159Y-16068464D01*
X-5949535Y-16058781D01*
X-6072240Y-16007955D01*
X-6229000Y-15987318D01*
X-6385761Y-16007955D01*
X-6531840Y-16068463D01*
X-6531843Y-16068465D01*
X-6657282Y-16164718D01*
X-6753535Y-16290157D01*
X-6753537Y-16290160D01*
X-6814045Y-16436239D01*
X-6834682Y-16592999D01*
X-6834682Y-16593000D01*
X-7589233Y-16593000D01*
X-7609464Y-16544159D01*
X-7705718Y-16418718D01*
X-7831159Y-16322464D01*
X-7878530Y-16302842D01*
X-7977240Y-16261955D01*
X-8134000Y-16241318D01*
X-8290761Y-16261955D01*
X-8436840Y-16322463D01*
X-8436843Y-16322465D01*
X-8562282Y-16418718D01*
X-8658535Y-16544157D01*
X-8658537Y-16544160D01*
X-8719045Y-16690239D01*
X-8739682Y-16846999D01*
X-8739682Y-16847000D01*
X-16666686Y-16847000D01*
X-16639456Y-16781262D01*
X-16618818Y-16624500D01*
X-16621154Y-16606760D01*
X-16639456Y-16467739D01*
X-16640176Y-16465999D01*
X-16699964Y-16321659D01*
X-16796218Y-16196218D01*
X-16921659Y-16099964D01*
X-16928430Y-16097159D01*
X-17067740Y-16039455D01*
X-17224500Y-16018818D01*
X-17381261Y-16039455D01*
X-17527340Y-16099963D01*
X-17527343Y-16099965D01*
X-17652782Y-16196218D01*
X-17749035Y-16321657D01*
X-17749037Y-16321660D01*
X-17809545Y-16467739D01*
X-17830182Y-16624499D01*
X-17830182Y-16624500D01*
X-19443014Y-16624500D01*
X-19414956Y-16556762D01*
X-19394318Y-16400000D01*
X-19414956Y-16243238D01*
X-19475464Y-16097159D01*
X-19571718Y-15971718D01*
X-19697159Y-15875464D01*
X-19722527Y-15864956D01*
X-19843240Y-15814955D01*
X-20000000Y-15794318D01*
X-20156761Y-15814955D01*
X-20302840Y-15875463D01*
X-20302843Y-15875465D01*
X-20428282Y-15971718D01*
X-20524535Y-16097157D01*
X-20524537Y-16097160D01*
X-20585045Y-16243239D01*
X-20605682Y-16399999D01*
X-20605682Y-16400000D01*
X-27900901Y-16400000D01*
X-27914956Y-16293238D01*
X-27975464Y-16147159D01*
X-28071718Y-16021718D01*
X-28197159Y-15925464D01*
X-28304610Y-15880956D01*
X-28343240Y-15864955D01*
X-28500000Y-15844318D01*
X-28656761Y-15864955D01*
X-28802840Y-15925463D01*
X-28802843Y-15925465D01*
X-28928282Y-16021718D01*
X-29024535Y-16147157D01*
X-29024537Y-16147160D01*
X-29085045Y-16293239D01*
X-29105682Y-16449999D01*
X-29105682Y-16450000D01*
X-36455161Y-16450000D01*
X-36540640Y-16270782D01*
X-36541982Y-16267769D01*
X-36563614Y-16215544D01*
X-36994817Y-15174500D01*
X-18055682Y-15174500D01*
X-18035045Y-15331260D01*
X-17975313Y-15475464D01*
X-17974536Y-15477341D01*
X-17878282Y-15602782D01*
X-17752841Y-15699036D01*
X-17606762Y-15759544D01*
X-17528381Y-15769862D01*
X-17450001Y-15780182D01*
X-17450001Y-15780181D01*
X-17450000Y-15780182D01*
X-17293238Y-15759544D01*
X-17147159Y-15699036D01*
X-17021718Y-15602782D01*
X-17001935Y-15577000D01*
X-10771682Y-15577000D01*
X-10751045Y-15733760D01*
X-10692349Y-15875463D01*
X-10690536Y-15879841D01*
X-10594282Y-16005282D01*
X-10468841Y-16101536D01*
X-10322762Y-16162044D01*
X-10166000Y-16182682D01*
X-10009238Y-16162044D01*
X-9863159Y-16101536D01*
X-9737718Y-16005282D01*
X-9641464Y-15879841D01*
X-9621233Y-15831000D01*
X-2262682Y-15831000D01*
X-2242045Y-15987760D01*
X-2195568Y-16099964D01*
X-2181536Y-16133841D01*
X-2085282Y-16259282D01*
X-1959841Y-16355536D01*
X-1813762Y-16416044D01*
X-1657000Y-16436682D01*
X-1500238Y-16416044D01*
X-1354159Y-16355536D01*
X-1228718Y-16259282D01*
X-1132464Y-16133841D01*
X-1071956Y-15987762D01*
X-1051318Y-15831000D01*
X2094318Y-15831000D01*
X2114955Y-15987760D01*
X2161432Y-16099964D01*
X2175464Y-16133841D01*
X2271718Y-16259282D01*
X2397159Y-16355536D01*
X2543238Y-16416044D01*
X2700000Y-16436682D01*
X2856762Y-16416044D01*
X3002841Y-16355536D01*
X3128282Y-16259282D01*
X3224536Y-16133841D01*
X3285044Y-15987762D01*
X3305682Y-15831000D01*
X3285044Y-15674238D01*
X3224536Y-15528159D01*
X3128282Y-15402718D01*
X3002841Y-15306464D01*
X2924853Y-15274160D01*
X2856760Y-15245955D01*
X2700000Y-15225318D01*
X2543239Y-15245955D01*
X2397160Y-15306463D01*
X2397157Y-15306465D01*
X2271718Y-15402718D01*
X2175465Y-15528157D01*
X2175463Y-15528160D01*
X2114955Y-15674239D01*
X2094318Y-15830999D01*
X2094318Y-15831000D01*
X-1051318Y-15831000D01*
X-1071956Y-15674238D01*
X-1132464Y-15528159D01*
X-1228718Y-15402718D01*
X-1354159Y-15306464D01*
X-1432147Y-15274160D01*
X-1500240Y-15245955D01*
X-1657000Y-15225318D01*
X-1813761Y-15245955D01*
X-1959840Y-15306463D01*
X-1959843Y-15306465D01*
X-2085282Y-15402718D01*
X-2181535Y-15528157D01*
X-2181537Y-15528160D01*
X-2242045Y-15674239D01*
X-2262682Y-15830999D01*
X-2262682Y-15831000D01*
X-9621233Y-15831000D01*
X-9580956Y-15733762D01*
X-9560318Y-15577000D01*
X-9580956Y-15420238D01*
X-9641464Y-15274159D01*
X-9737718Y-15148718D01*
X-9863159Y-15052464D01*
X-9880077Y-15045456D01*
X-10009240Y-14991955D01*
X-10166000Y-14971318D01*
X-10322761Y-14991955D01*
X-10468840Y-15052463D01*
X-10468843Y-15052465D01*
X-10594282Y-15148718D01*
X-10690535Y-15274157D01*
X-10690537Y-15274160D01*
X-10751045Y-15420239D01*
X-10771682Y-15576999D01*
X-10771682Y-15577000D01*
X-17001935Y-15577000D01*
X-16925464Y-15477341D01*
X-16864956Y-15331262D01*
X-16844318Y-15174500D01*
X-16847473Y-15150539D01*
X-16855536Y-15089288D01*
X-16864956Y-15017738D01*
X-16925464Y-14871659D01*
X-17021718Y-14746218D01*
X-17147159Y-14649964D01*
X-17178403Y-14637022D01*
X-17293240Y-14589455D01*
X-17450000Y-14568818D01*
X-17606761Y-14589455D01*
X-17752840Y-14649963D01*
X-17752843Y-14649965D01*
X-17878282Y-14746218D01*
X-17974535Y-14871657D01*
X-17974537Y-14871660D01*
X-18035045Y-15017739D01*
X-18055682Y-15174499D01*
X-18055682Y-15174500D01*
X-36994817Y-15174500D01*
X-37342115Y-14336028D01*
X-37343283Y-14332984D01*
X-37354964Y-14300000D01*
X-12555682Y-14300000D01*
X-12535045Y-14456760D01*
X-12485876Y-14575463D01*
X-12474536Y-14602841D01*
X-12378282Y-14728282D01*
X-12252841Y-14824536D01*
X-12106762Y-14885044D01*
X-11950000Y-14905682D01*
X-11793238Y-14885044D01*
X-11647159Y-14824536D01*
X-11521718Y-14728282D01*
X-11425464Y-14602841D01*
X-11364956Y-14456762D01*
X-11344318Y-14300000D01*
X-11345574Y-14290463D01*
X-11364956Y-14143239D01*
X-11371151Y-14128281D01*
X-11425464Y-13997159D01*
X-11500006Y-13900014D01*
X-8250580Y-13900014D01*
X-8250162Y-13902177D01*
X-8189667Y-14284152D01*
X-8189397Y-14286361D01*
X-8189366Y-14286495D01*
X-8189293Y-14286665D01*
X-8188179Y-14288660D01*
X-8012832Y-14632736D01*
X-8011754Y-14635071D01*
X-8009831Y-14636847D01*
X-7736808Y-14909929D01*
X-7735097Y-14911777D01*
X-7735007Y-14911842D01*
X-7732623Y-14912935D01*
X-7388824Y-15088057D01*
X-7386466Y-15089383D01*
X-7383805Y-15089694D01*
X-7002462Y-15150117D01*
X-7000325Y-15150539D01*
X-6999507Y-15150533D01*
X-6997189Y-15150060D01*
X-6616211Y-15089696D01*
X-6613673Y-15089400D01*
X-6613375Y-15089302D01*
X-6611091Y-15088012D01*
X-6267521Y-14913006D01*
X-6265259Y-14911977D01*
X-6264662Y-14911543D01*
X-6263020Y-14909755D01*
X-6041315Y-14688000D01*
X-5056682Y-14688000D01*
X-5036045Y-14844760D01*
X-4995253Y-14943239D01*
X-4975536Y-14990841D01*
X-4879282Y-15116282D01*
X-4753841Y-15212536D01*
X-4607762Y-15273044D01*
X-4451000Y-15293682D01*
X-4294238Y-15273044D01*
X-4148159Y-15212536D01*
X-4022718Y-15116282D01*
X-4010224Y-15100000D01*
X12194318Y-15100000D01*
X12214955Y-15256760D01*
X12271934Y-15394318D01*
X12275464Y-15402841D01*
X12371718Y-15528282D01*
X12497159Y-15624536D01*
X12643238Y-15685044D01*
X12800000Y-15705682D01*
X12956762Y-15685044D01*
X13088443Y-15630500D01*
X17794318Y-15630500D01*
X17814955Y-15787260D01*
X17872202Y-15925465D01*
X17875464Y-15933341D01*
X17971718Y-16058782D01*
X18097159Y-16155036D01*
X18243238Y-16215544D01*
X18321619Y-16225862D01*
X18399999Y-16236182D01*
X18399999Y-16236181D01*
X18400000Y-16236182D01*
X18556762Y-16215544D01*
X18702841Y-16155036D01*
X18828282Y-16058782D01*
X18924536Y-15933341D01*
X18985044Y-15787262D01*
X19005682Y-15630500D01*
X18998638Y-15576999D01*
X18985044Y-15473739D01*
X18962884Y-15420238D01*
X18924536Y-15327659D01*
X18828282Y-15202218D01*
X18702841Y-15105964D01*
X18688441Y-15099999D01*
X18556760Y-15045455D01*
X18400000Y-15024818D01*
X18243239Y-15045455D01*
X18097160Y-15105963D01*
X18097157Y-15105965D01*
X17971718Y-15202218D01*
X17875465Y-15327657D01*
X17875463Y-15327660D01*
X17814955Y-15473739D01*
X17794318Y-15630499D01*
X17794318Y-15630500D01*
X13088443Y-15630500D01*
X13102841Y-15624536D01*
X13228282Y-15528282D01*
X13324536Y-15402841D01*
X13385044Y-15256762D01*
X13405682Y-15100000D01*
X13404286Y-15089400D01*
X13385044Y-14943239D01*
X13371985Y-14911710D01*
X13331926Y-14815000D01*
X30757318Y-14815000D01*
X30777955Y-14971760D01*
X30831074Y-15099999D01*
X30838464Y-15117841D01*
X30934718Y-15243282D01*
X31060159Y-15339536D01*
X31206238Y-15400044D01*
X31363000Y-15420682D01*
X31519762Y-15400044D01*
X31665841Y-15339536D01*
X31791282Y-15243282D01*
X31887536Y-15117841D01*
X31948044Y-14971762D01*
X31968682Y-14815000D01*
X31948044Y-14658238D01*
X31887536Y-14512159D01*
X31791282Y-14386718D01*
X31665841Y-14290464D01*
X31656692Y-14286674D01*
X31519760Y-14229955D01*
X31363000Y-14209318D01*
X31206239Y-14229955D01*
X31060160Y-14290463D01*
X31060157Y-14290465D01*
X30934718Y-14386718D01*
X30838465Y-14512157D01*
X30838463Y-14512160D01*
X30777955Y-14658239D01*
X30757318Y-14814999D01*
X30757318Y-14815000D01*
X13331926Y-14815000D01*
X13324536Y-14797159D01*
X13228282Y-14671718D01*
X13102841Y-14575464D01*
X13086797Y-14568818D01*
X12956760Y-14514955D01*
X12800000Y-14494318D01*
X12643239Y-14514955D01*
X12497160Y-14575463D01*
X12497157Y-14575465D01*
X12371718Y-14671718D01*
X12275465Y-14797157D01*
X12275463Y-14797160D01*
X12214955Y-14943239D01*
X12194318Y-15099999D01*
X12194318Y-15100000D01*
X-4010224Y-15100000D01*
X-3926464Y-14990841D01*
X-3865956Y-14844762D01*
X-3845318Y-14688000D01*
X-3847462Y-14671718D01*
X-3856530Y-14602839D01*
X-3865956Y-14531238D01*
X-3926464Y-14385159D01*
X-4022718Y-14259718D01*
X-4148159Y-14163464D01*
X-4196988Y-14143238D01*
X-4294240Y-14102955D01*
X-4451000Y-14082318D01*
X-4607761Y-14102955D01*
X-4753840Y-14163463D01*
X-4753843Y-14163465D01*
X-4879282Y-14259718D01*
X-4975535Y-14385157D01*
X-4975537Y-14385160D01*
X-5036045Y-14531239D01*
X-5056682Y-14687999D01*
X-5056682Y-14688000D01*
X-6041315Y-14688000D01*
X-5990332Y-14637006D01*
X-5988532Y-14635356D01*
X-5988086Y-14634747D01*
X-5987105Y-14632608D01*
X-5812012Y-14289027D01*
X-5810678Y-14286674D01*
X-5810578Y-14286369D01*
X-5810278Y-14283788D01*
X-5749945Y-13902835D01*
X-5749461Y-13900462D01*
X-5749456Y-13899603D01*
X-5749927Y-13897275D01*
X-5797007Y-13600000D01*
X-4005682Y-13600000D01*
X-3985045Y-13756760D01*
X-3924538Y-13902835D01*
X-3924536Y-13902841D01*
X-3828282Y-14028282D01*
X-3702841Y-14124536D01*
X-3556762Y-14185044D01*
X-3400000Y-14205682D01*
X-3243238Y-14185044D01*
X-3097159Y-14124536D01*
X-2971718Y-14028282D01*
X-2875464Y-13902841D01*
X-2814956Y-13756762D01*
X-2794318Y-13600000D01*
X-2814956Y-13443238D01*
X-2861654Y-13330500D01*
X2344318Y-13330500D01*
X2364955Y-13487260D01*
X2412830Y-13602839D01*
X2425464Y-13633341D01*
X2521718Y-13758782D01*
X2647159Y-13855036D01*
X2793238Y-13915544D01*
X2950000Y-13936182D01*
X3106762Y-13915544D01*
X3252841Y-13855036D01*
X3378282Y-13758782D01*
X3423387Y-13700000D01*
X12694318Y-13700000D01*
X12714955Y-13856760D01*
X12773110Y-13997157D01*
X12775464Y-14002841D01*
X12871718Y-14128282D01*
X12997159Y-14224536D01*
X13143238Y-14285044D01*
X13300000Y-14305682D01*
X13456762Y-14285044D01*
X13602841Y-14224536D01*
X13728282Y-14128282D01*
X13824536Y-14002841D01*
X13885044Y-13856762D01*
X13905682Y-13700000D01*
X13885044Y-13543238D01*
X13824536Y-13397159D01*
X13728282Y-13271718D01*
X13634817Y-13200000D01*
X23094318Y-13200000D01*
X23114955Y-13356760D01*
X23156377Y-13456760D01*
X23175464Y-13502841D01*
X23271718Y-13628282D01*
X23397159Y-13724536D01*
X23543238Y-13785044D01*
X23700000Y-13805682D01*
X23856762Y-13785044D01*
X24002841Y-13724536D01*
X24128282Y-13628282D01*
X24224536Y-13502841D01*
X24285044Y-13356762D01*
X24292517Y-13300000D01*
X26794318Y-13300000D01*
X26814955Y-13456760D01*
X26850776Y-13543238D01*
X26875464Y-13602841D01*
X26971718Y-13728282D01*
X27097159Y-13824536D01*
X27243238Y-13885044D01*
X27400000Y-13905682D01*
X27556762Y-13885044D01*
X27702841Y-13824536D01*
X27828282Y-13728282D01*
X27924536Y-13602841D01*
X27985044Y-13456762D01*
X28005682Y-13300000D01*
X27985044Y-13143238D01*
X27924536Y-12997159D01*
X27828282Y-12871718D01*
X27702841Y-12775464D01*
X27693798Y-12771718D01*
X27556760Y-12714955D01*
X27400000Y-12694318D01*
X27243239Y-12714955D01*
X27097160Y-12775463D01*
X27097157Y-12775465D01*
X26971718Y-12871718D01*
X26875465Y-12997157D01*
X26875463Y-12997160D01*
X26814955Y-13143239D01*
X26794318Y-13299999D01*
X26794318Y-13300000D01*
X24292517Y-13300000D01*
X24305682Y-13200000D01*
X24301087Y-13165101D01*
X24285044Y-13043239D01*
X24273329Y-13014955D01*
X24224536Y-12897159D01*
X24128282Y-12771718D01*
X24002841Y-12675464D01*
X23942588Y-12650506D01*
X23856760Y-12614955D01*
X23700000Y-12594318D01*
X23543239Y-12614955D01*
X23397160Y-12675463D01*
X23397157Y-12675465D01*
X23271718Y-12771718D01*
X23175465Y-12897157D01*
X23175463Y-12897160D01*
X23114955Y-13043239D01*
X23094318Y-13199999D01*
X23094318Y-13200000D01*
X13634817Y-13200000D01*
X13602841Y-13175464D01*
X13598677Y-13173739D01*
X13456760Y-13114955D01*
X13300000Y-13094318D01*
X13143239Y-13114955D01*
X12997160Y-13175463D01*
X12997157Y-13175465D01*
X12871718Y-13271718D01*
X12775465Y-13397157D01*
X12775463Y-13397160D01*
X12714955Y-13543239D01*
X12694318Y-13699999D01*
X12694318Y-13700000D01*
X3423387Y-13700000D01*
X3474536Y-13633341D01*
X3535044Y-13487262D01*
X3555682Y-13330500D01*
X3551666Y-13299999D01*
X3535044Y-13173739D01*
X3531483Y-13165140D01*
X3474536Y-13027659D01*
X3378282Y-12902218D01*
X3252841Y-12805964D01*
X3179206Y-12775463D01*
X3106760Y-12745455D01*
X2950000Y-12724818D01*
X2793239Y-12745455D01*
X2647160Y-12805963D01*
X2647157Y-12805965D01*
X2521718Y-12902218D01*
X2425465Y-13027657D01*
X2425463Y-13027660D01*
X2364955Y-13173739D01*
X2344318Y-13330499D01*
X2344318Y-13330500D01*
X-2861654Y-13330500D01*
X-2875464Y-13297159D01*
X-2971718Y-13171718D01*
X-3097159Y-13075464D01*
X-3143709Y-13056182D01*
X-3243240Y-13014955D01*
X-3400000Y-12994318D01*
X-3556761Y-13014955D01*
X-3702840Y-13075463D01*
X-3702843Y-13075465D01*
X-3828282Y-13171718D01*
X-3924535Y-13297157D01*
X-3924537Y-13297160D01*
X-3985045Y-13443239D01*
X-4005682Y-13599999D01*
X-4005682Y-13600000D01*
X-5797007Y-13600000D01*
X-5808959Y-13524536D01*
X-5810280Y-13516195D01*
X-5810594Y-13513505D01*
X-5811919Y-13511148D01*
X-5987171Y-13167257D01*
X-5988216Y-13164994D01*
X-5988285Y-13164899D01*
X-5990140Y-13163183D01*
X-6263201Y-12890060D01*
X-6264919Y-12888206D01*
X-6267224Y-12887141D01*
X-6611295Y-12711880D01*
X-6613305Y-12710756D01*
X-6613548Y-12710651D01*
X-6613646Y-12710628D01*
X-6615841Y-12710359D01*
X-6997829Y-12649838D01*
X-6999987Y-12649421D01*
X-7002100Y-12649826D01*
X-7384191Y-12710363D01*
X-7386041Y-12710591D01*
X-7386417Y-12710679D01*
X-7386875Y-12710871D01*
X-7388520Y-12711785D01*
X-7454620Y-12745455D01*
X-7732990Y-12887249D01*
X-7734977Y-12888174D01*
X-7735058Y-12888223D01*
X-7735153Y-12888305D01*
X-7736631Y-12889890D01*
X-8010167Y-13163486D01*
X-8011700Y-13164922D01*
X-8011834Y-13165140D01*
X-8012723Y-13167047D01*
X-8188269Y-13511517D01*
X-8189171Y-13513143D01*
X-8189336Y-13513540D01*
X-8189433Y-13513954D01*
X-8189661Y-13515812D01*
X-8250174Y-13897897D01*
X-8250580Y-13900014D01*
X-11500006Y-13900014D01*
X-11521718Y-13871718D01*
X-11647159Y-13775464D01*
X-11687432Y-13758782D01*
X-11793240Y-13714955D01*
X-11950000Y-13694318D01*
X-12106761Y-13714955D01*
X-12252840Y-13775463D01*
X-12252843Y-13775465D01*
X-12378282Y-13871718D01*
X-12474535Y-13997157D01*
X-12474537Y-13997160D01*
X-12535045Y-14143239D01*
X-12555682Y-14299999D01*
X-12555682Y-14300000D01*
X-37354964Y-14300000D01*
X-37358341Y-14290465D01*
X-37847238Y-12910000D01*
X-21312682Y-12910000D01*
X-21292045Y-13066760D01*
X-21236855Y-13199999D01*
X-21231536Y-13212841D01*
X-21135282Y-13338282D01*
X-21009841Y-13434536D01*
X-20863762Y-13495044D01*
X-20804530Y-13502842D01*
X-20707001Y-13515682D01*
X-20707001Y-13515681D01*
X-20707000Y-13515682D01*
X-20550238Y-13495044D01*
X-20404159Y-13434536D01*
X-20278718Y-13338282D01*
X-20182464Y-13212841D01*
X-20156434Y-13150000D01*
X-18055682Y-13150000D01*
X-18035045Y-13306760D01*
X-18021988Y-13338281D01*
X-17974536Y-13452841D01*
X-17878282Y-13578282D01*
X-17752841Y-13674536D01*
X-17606762Y-13735044D01*
X-17528382Y-13745362D01*
X-17450001Y-13755682D01*
X-17450001Y-13755681D01*
X-17450000Y-13755682D01*
X-17293238Y-13735044D01*
X-17147159Y-13674536D01*
X-17021718Y-13578282D01*
X-16925464Y-13452841D01*
X-16864956Y-13306762D01*
X-16844318Y-13150000D01*
X-16864956Y-12993238D01*
X-16925464Y-12847159D01*
X-17021718Y-12721718D01*
X-17147159Y-12625464D01*
X-17172527Y-12614956D01*
X-17293240Y-12564955D01*
X-17450000Y-12544318D01*
X-17606761Y-12564955D01*
X-17752840Y-12625463D01*
X-17752843Y-12625465D01*
X-17878282Y-12721718D01*
X-17974535Y-12847157D01*
X-17974537Y-12847160D01*
X-18035045Y-12993239D01*
X-18055682Y-13149999D01*
X-18055682Y-13150000D01*
X-20156434Y-13150000D01*
X-20121956Y-13066762D01*
X-20101318Y-12910000D01*
X-20102343Y-12902218D01*
X-20119523Y-12771718D01*
X-20121956Y-12753238D01*
X-20182464Y-12607159D01*
X-20278718Y-12481718D01*
X-20404159Y-12385464D01*
X-20460559Y-12362102D01*
X-20513918Y-12340000D01*
X-865682Y-12340000D01*
X-845045Y-12496760D01*
X-791733Y-12625465D01*
X-784536Y-12642841D01*
X-688282Y-12768282D01*
X-562841Y-12864536D01*
X-416762Y-12925044D01*
X-260000Y-12945682D01*
X-103238Y-12925044D01*
X42841Y-12864536D01*
X168282Y-12768282D01*
X264536Y-12642841D01*
X325044Y-12496762D01*
X331134Y-12450500D01*
X5794318Y-12450500D01*
X5814955Y-12607260D01*
X5872198Y-12745455D01*
X5875464Y-12753341D01*
X5971718Y-12878782D01*
X6097159Y-12975036D01*
X6243238Y-13035544D01*
X6301680Y-13043238D01*
X6399999Y-13056182D01*
X6399999Y-13056181D01*
X6400000Y-13056182D01*
X6556762Y-13035544D01*
X6642573Y-13000000D01*
X10094318Y-13000000D01*
X10114955Y-13156760D01*
X10173110Y-13297157D01*
X10175464Y-13302841D01*
X10271718Y-13428282D01*
X10397159Y-13524536D01*
X10543238Y-13585044D01*
X10700000Y-13605682D01*
X10856762Y-13585044D01*
X11002841Y-13524536D01*
X11128282Y-13428282D01*
X11224536Y-13302841D01*
X11285044Y-13156762D01*
X11305682Y-13000000D01*
X11302395Y-12975036D01*
X11292143Y-12897159D01*
X11285044Y-12843238D01*
X11224536Y-12697159D01*
X11128282Y-12571718D01*
X11002841Y-12475464D01*
X10942571Y-12450499D01*
X10856760Y-12414955D01*
X10700000Y-12394318D01*
X10543239Y-12414955D01*
X10397160Y-12475463D01*
X10397157Y-12475465D01*
X10271718Y-12571718D01*
X10175465Y-12697157D01*
X10175463Y-12697160D01*
X10114955Y-12843239D01*
X10094318Y-12999999D01*
X10094318Y-13000000D01*
X6642573Y-13000000D01*
X6702841Y-12975036D01*
X6828282Y-12878782D01*
X6924536Y-12753341D01*
X6985044Y-12607262D01*
X7005682Y-12450500D01*
X7001002Y-12414955D01*
X6985044Y-12293739D01*
X6939274Y-12183239D01*
X6924536Y-12147659D01*
X6828282Y-12022218D01*
X6702841Y-11925964D01*
X6668449Y-11911718D01*
X6556760Y-11865455D01*
X6400000Y-11844818D01*
X6243239Y-11865455D01*
X6097160Y-11925963D01*
X6097157Y-11925965D01*
X5971718Y-12022218D01*
X5875465Y-12147657D01*
X5875463Y-12147660D01*
X5814955Y-12293739D01*
X5794318Y-12450499D01*
X5794318Y-12450500D01*
X331134Y-12450500D01*
X345682Y-12340000D01*
X343701Y-12324956D01*
X325044Y-12183239D01*
X310307Y-12147659D01*
X264536Y-12037159D01*
X168282Y-11911718D01*
X42841Y-11815464D01*
X-103238Y-11754956D01*
X-103240Y-11754955D01*
X-260000Y-11734318D01*
X-416761Y-11754955D01*
X-562840Y-11815463D01*
X-562843Y-11815465D01*
X-688282Y-11911718D01*
X-784535Y-12037157D01*
X-784537Y-12037160D01*
X-845045Y-12183239D01*
X-865682Y-12339999D01*
X-865682Y-12340000D01*
X-20513918Y-12340000D01*
X-20550240Y-12324955D01*
X-20707000Y-12304318D01*
X-20863761Y-12324955D01*
X-21009840Y-12385463D01*
X-21009843Y-12385465D01*
X-21135282Y-12481718D01*
X-21231535Y-12607157D01*
X-21231537Y-12607160D01*
X-21292045Y-12753239D01*
X-21312682Y-12909999D01*
X-21312682Y-12910000D01*
X-37847238Y-12910000D01*
X-38041285Y-12362084D01*
X-38042291Y-12358983D01*
X-38405700Y-11132000D01*
X-37822682Y-11132000D01*
X-37802045Y-11288760D01*
X-37745804Y-11424536D01*
X-37741536Y-11434841D01*
X-37645282Y-11560282D01*
X-37519841Y-11656536D01*
X-37373762Y-11717044D01*
X-37295382Y-11727363D01*
X-37217001Y-11737682D01*
X-37217001Y-11737681D01*
X-37217000Y-11737682D01*
X-37060238Y-11717044D01*
X-36914159Y-11656536D01*
X-36788718Y-11560282D01*
X-36752437Y-11513000D01*
X-27408682Y-11513000D01*
X-27388045Y-11669760D01*
X-27352755Y-11754956D01*
X-27327536Y-11815841D01*
X-27231282Y-11941282D01*
X-27105841Y-12037536D01*
X-26959762Y-12098044D01*
X-26881381Y-12108362D01*
X-26803001Y-12118682D01*
X-26803001Y-12118681D01*
X-26803000Y-12118682D01*
X-26646238Y-12098044D01*
X-26500159Y-12037536D01*
X-26374718Y-11941282D01*
X-26278464Y-11815841D01*
X-26217956Y-11669762D01*
X-26197318Y-11513000D01*
X-26217956Y-11356238D01*
X-26278464Y-11210159D01*
X-26374718Y-11084718D01*
X-26500159Y-10988464D01*
X-26646238Y-10927956D01*
X-26646240Y-10927955D01*
X-26803000Y-10907318D01*
X-26959761Y-10927955D01*
X-27105840Y-10988463D01*
X-27105843Y-10988465D01*
X-27231282Y-11084718D01*
X-27327535Y-11210157D01*
X-27327537Y-11210160D01*
X-27388045Y-11356239D01*
X-27408682Y-11512999D01*
X-27408682Y-11513000D01*
X-36752437Y-11513000D01*
X-36692464Y-11434841D01*
X-36631956Y-11288762D01*
X-36611318Y-11132000D01*
X-36611808Y-11128281D01*
X-36631956Y-10975239D01*
X-36651406Y-10928281D01*
X-36692464Y-10829159D01*
X-36788718Y-10703718D01*
X-36914159Y-10607464D01*
X-36992147Y-10575160D01*
X-37060240Y-10546955D01*
X-37217000Y-10526318D01*
X-37373761Y-10546955D01*
X-37519840Y-10607463D01*
X-37519843Y-10607465D01*
X-37645282Y-10703718D01*
X-37741535Y-10829157D01*
X-37741537Y-10829160D01*
X-37802045Y-10975239D01*
X-37822682Y-11131999D01*
X-37822682Y-11132000D01*
X-38405700Y-11132000D01*
X-38636057Y-10354241D01*
X-38636898Y-10351107D01*
X-38784818Y-9735000D01*
X-38330682Y-9735000D01*
X-38310045Y-9891760D01*
X-38250253Y-10036109D01*
X-38249536Y-10037841D01*
X-38153282Y-10163282D01*
X-38027841Y-10259536D01*
X-37881762Y-10320044D01*
X-37725000Y-10340682D01*
X-37568238Y-10320044D01*
X-37422159Y-10259536D01*
X-37296718Y-10163282D01*
X-37200464Y-10037841D01*
X-37139956Y-9891762D01*
X-37119318Y-9735000D01*
X-37120203Y-9728281D01*
X-37139956Y-9578239D01*
X-37154453Y-9543238D01*
X-37180233Y-9481000D01*
X-36679682Y-9481000D01*
X-36659045Y-9637760D01*
X-36659044Y-9637762D01*
X-36598536Y-9783841D01*
X-36502282Y-9909282D01*
X-36376841Y-10005536D01*
X-36230762Y-10066044D01*
X-36230759Y-10066044D01*
X-36223889Y-10068890D01*
X-36168608Y-10113438D01*
X-36146187Y-10180802D01*
X-36163745Y-10249593D01*
X-36172144Y-10262002D01*
X-36217532Y-10321153D01*
X-36217537Y-10321160D01*
X-36278045Y-10467239D01*
X-36298682Y-10623999D01*
X-36298682Y-10624000D01*
X-36278045Y-10780760D01*
X-36228654Y-10899999D01*
X-36217536Y-10926841D01*
X-36121282Y-11052282D01*
X-35995841Y-11148536D01*
X-35849762Y-11209044D01*
X-35693000Y-11229682D01*
X-35536238Y-11209044D01*
X-35390159Y-11148536D01*
X-35264718Y-11052282D01*
X-35168464Y-10926841D01*
X-35107956Y-10780762D01*
X-35104038Y-10751000D01*
X-29694682Y-10751000D01*
X-29674045Y-10907760D01*
X-29625675Y-11024534D01*
X-29613536Y-11053841D01*
X-29517282Y-11179282D01*
X-29391841Y-11275536D01*
X-29245762Y-11336044D01*
X-29089000Y-11356682D01*
X-28932238Y-11336044D01*
X-28786159Y-11275536D01*
X-28660718Y-11179282D01*
X-28564464Y-11053841D01*
X-28503956Y-10907762D01*
X-28483318Y-10751000D01*
X-28490032Y-10700000D01*
X-24205682Y-10700000D01*
X-24185045Y-10856760D01*
X-24126890Y-10997157D01*
X-24124536Y-11002841D01*
X-24028282Y-11128282D01*
X-23902841Y-11224536D01*
X-23756762Y-11285044D01*
X-23600000Y-11305682D01*
X-23443238Y-11285044D01*
X-23297159Y-11224536D01*
X-23176563Y-11132000D01*
X-21312682Y-11132000D01*
X-21292045Y-11288760D01*
X-21235804Y-11424536D01*
X-21231536Y-11434841D01*
X-21135282Y-11560282D01*
X-21009841Y-11656536D01*
X-20863762Y-11717044D01*
X-20785382Y-11727363D01*
X-20707001Y-11737682D01*
X-20707001Y-11737681D01*
X-20707000Y-11737682D01*
X-20550238Y-11717044D01*
X-20404159Y-11656536D01*
X-20278718Y-11560282D01*
X-20182464Y-11434841D01*
X-20126611Y-11300000D01*
X-15581182Y-11300000D01*
X-15560545Y-11456760D01*
X-15537249Y-11513000D01*
X-15500036Y-11602841D01*
X-15403782Y-11728282D01*
X-15278341Y-11824536D01*
X-15132262Y-11885044D01*
X-14975500Y-11905682D01*
X-14818738Y-11885044D01*
X-14672659Y-11824536D01*
X-14547218Y-11728282D01*
X-14450964Y-11602841D01*
X-14390456Y-11456762D01*
X-14369818Y-11300000D01*
X-14371298Y-11288762D01*
X-14385505Y-11180842D01*
X-14390456Y-11143238D01*
X-14450964Y-10997159D01*
X-14547218Y-10871718D01*
X-14672659Y-10775464D01*
X-14731720Y-10751000D01*
X-13692682Y-10751000D01*
X-13672045Y-10907760D01*
X-13623675Y-11024534D01*
X-13611536Y-11053841D01*
X-13515282Y-11179282D01*
X-13389841Y-11275536D01*
X-13243762Y-11336044D01*
X-13087000Y-11356682D01*
X-12930238Y-11336044D01*
X-12784159Y-11275536D01*
X-12658718Y-11179282D01*
X-12562464Y-11053841D01*
X-12501956Y-10907762D01*
X-12481318Y-10751000D01*
X-11279682Y-10751000D01*
X-11259045Y-10907760D01*
X-11210675Y-11024534D01*
X-11198536Y-11053841D01*
X-11102282Y-11179282D01*
X-10976841Y-11275536D01*
X-10830762Y-11336044D01*
X-10752382Y-11346363D01*
X-10674001Y-11356682D01*
X-10674001Y-11356681D01*
X-10674000Y-11356682D01*
X-10517238Y-11336044D01*
X-10371159Y-11275536D01*
X-10245718Y-11179282D01*
X-10149464Y-11053841D01*
X-10088956Y-10907762D01*
X-10085038Y-10878000D01*
X-8612682Y-10878000D01*
X-8592045Y-11034760D01*
X-8571216Y-11085044D01*
X-8531536Y-11180841D01*
X-8435282Y-11306282D01*
X-8309841Y-11402536D01*
X-8163762Y-11463044D01*
X-8007000Y-11483682D01*
X-7850238Y-11463044D01*
X-7704159Y-11402536D01*
X-7578718Y-11306282D01*
X-7482464Y-11180841D01*
X-7421956Y-11034762D01*
X-7404214Y-10900000D01*
X-6805682Y-10900000D01*
X-6785045Y-11056760D01*
X-6734294Y-11179282D01*
X-6724536Y-11202841D01*
X-6628282Y-11328282D01*
X-6502841Y-11424536D01*
X-6356762Y-11485044D01*
X-6200000Y-11505682D01*
X-6043238Y-11485044D01*
X-5897159Y-11424536D01*
X-5771718Y-11328282D01*
X-5675464Y-11202841D01*
X-5614956Y-11056762D01*
X-5594318Y-10900000D01*
X-5597214Y-10878000D01*
X-3151682Y-10878000D01*
X-3131045Y-11034760D01*
X-3110216Y-11085044D01*
X-3070536Y-11180841D01*
X-2974282Y-11306282D01*
X-2848841Y-11402536D01*
X-2702762Y-11463044D01*
X-2624382Y-11473363D01*
X-2546001Y-11483682D01*
X-2546001Y-11483681D01*
X-2546000Y-11483682D01*
X-2389238Y-11463044D01*
X-2243159Y-11402536D01*
X-2117718Y-11306282D01*
X-2021464Y-11180841D01*
X-1960956Y-11034762D01*
X-1940318Y-10878000D01*
X-1960956Y-10721238D01*
X-1969753Y-10700000D01*
X594318Y-10700000D01*
X614955Y-10856760D01*
X673110Y-10997157D01*
X675464Y-11002841D01*
X771718Y-11128282D01*
X897159Y-11224536D01*
X1043238Y-11285044D01*
X1200000Y-11305682D01*
X1356762Y-11285044D01*
X1502841Y-11224536D01*
X1628282Y-11128282D01*
X1724536Y-11002841D01*
X1785044Y-10856762D01*
X1805682Y-10700000D01*
X1785044Y-10543238D01*
X1767134Y-10500000D01*
X32644318Y-10500000D01*
X32664955Y-10656760D01*
X32716319Y-10780762D01*
X32725464Y-10802841D01*
X32821718Y-10928282D01*
X32947159Y-11024536D01*
X33093238Y-11085044D01*
X33250000Y-11105682D01*
X33406762Y-11085044D01*
X33552841Y-11024536D01*
X33678282Y-10928282D01*
X33774536Y-10802841D01*
X33835044Y-10656762D01*
X33855682Y-10500000D01*
X33835044Y-10343238D01*
X33774536Y-10197159D01*
X33678282Y-10071718D01*
X33552841Y-9975464D01*
X33406762Y-9914956D01*
X33406760Y-9914955D01*
X33250000Y-9894318D01*
X33093239Y-9914955D01*
X32947160Y-9975463D01*
X32947157Y-9975465D01*
X32821718Y-10071718D01*
X32725465Y-10197157D01*
X32725463Y-10197160D01*
X32664955Y-10343239D01*
X32644318Y-10499999D01*
X32644318Y-10500000D01*
X1767134Y-10500000D01*
X1724536Y-10397159D01*
X1628282Y-10271718D01*
X1502841Y-10175464D01*
X1479885Y-10165955D01*
X1356760Y-10114955D01*
X1200000Y-10094318D01*
X1043239Y-10114955D01*
X897160Y-10175463D01*
X897157Y-10175465D01*
X771718Y-10271718D01*
X675465Y-10397157D01*
X675463Y-10397160D01*
X614955Y-10543239D01*
X594318Y-10699999D01*
X594318Y-10700000D01*
X-1969753Y-10700000D01*
X-2021464Y-10575159D01*
X-2117718Y-10449718D01*
X-2243159Y-10353464D01*
X-2244211Y-10353028D01*
X-2389240Y-10292955D01*
X-2546000Y-10272318D01*
X-2702761Y-10292955D01*
X-2848840Y-10353463D01*
X-2848843Y-10353465D01*
X-2974282Y-10449718D01*
X-3070535Y-10575157D01*
X-3070537Y-10575160D01*
X-3131045Y-10721239D01*
X-3151682Y-10877999D01*
X-3151682Y-10878000D01*
X-5597214Y-10878000D01*
X-5614956Y-10743238D01*
X-5675464Y-10597159D01*
X-5771718Y-10471718D01*
X-5897159Y-10375464D01*
X-5948349Y-10354260D01*
X-6043240Y-10314955D01*
X-6200000Y-10294318D01*
X-6356761Y-10314955D01*
X-6502840Y-10375463D01*
X-6502843Y-10375465D01*
X-6628282Y-10471718D01*
X-6724535Y-10597157D01*
X-6724537Y-10597160D01*
X-6785045Y-10743239D01*
X-6805682Y-10899999D01*
X-6805682Y-10900000D01*
X-7404214Y-10900000D01*
X-7401318Y-10878000D01*
X-7421956Y-10721238D01*
X-7482464Y-10575159D01*
X-7578718Y-10449718D01*
X-7704159Y-10353464D01*
X-7705211Y-10353028D01*
X-7850240Y-10292955D01*
X-8007000Y-10272318D01*
X-8163761Y-10292955D01*
X-8309840Y-10353463D01*
X-8309843Y-10353465D01*
X-8435282Y-10449718D01*
X-8531535Y-10575157D01*
X-8531537Y-10575160D01*
X-8592045Y-10721239D01*
X-8612682Y-10877999D01*
X-8612682Y-10878000D01*
X-10085038Y-10878000D01*
X-10068318Y-10751000D01*
X-10088956Y-10594238D01*
X-10149464Y-10448159D01*
X-10245718Y-10322718D01*
X-10371159Y-10226464D01*
X-10375813Y-10224536D01*
X-10517240Y-10165955D01*
X-10674000Y-10145318D01*
X-10830761Y-10165955D01*
X-10976840Y-10226463D01*
X-10976843Y-10226465D01*
X-11102282Y-10322718D01*
X-11198535Y-10448157D01*
X-11198537Y-10448160D01*
X-11259045Y-10594239D01*
X-11279682Y-10750999D01*
X-11279682Y-10751000D01*
X-12481318Y-10751000D01*
X-12501956Y-10594238D01*
X-12562464Y-10448159D01*
X-12658718Y-10322718D01*
X-12784159Y-10226464D01*
X-12788813Y-10224536D01*
X-12930240Y-10165955D01*
X-13087000Y-10145318D01*
X-13243761Y-10165955D01*
X-13389840Y-10226463D01*
X-13389843Y-10226465D01*
X-13515282Y-10322718D01*
X-13611535Y-10448157D01*
X-13611537Y-10448160D01*
X-13672045Y-10594239D01*
X-13692682Y-10750999D01*
X-13692682Y-10751000D01*
X-14731720Y-10751000D01*
X-14731722Y-10750999D01*
X-14818740Y-10714955D01*
X-14975500Y-10694318D01*
X-15132261Y-10714955D01*
X-15278340Y-10775463D01*
X-15278343Y-10775465D01*
X-15403782Y-10871718D01*
X-15500035Y-10997157D01*
X-15500037Y-10997160D01*
X-15560545Y-11143239D01*
X-15581182Y-11299999D01*
X-15581182Y-11300000D01*
X-20126611Y-11300000D01*
X-20121956Y-11288762D01*
X-20101318Y-11132000D01*
X-20101808Y-11128281D01*
X-20121956Y-10975239D01*
X-20141406Y-10928281D01*
X-20182464Y-10829159D01*
X-20278718Y-10703718D01*
X-20404159Y-10607464D01*
X-20482147Y-10575160D01*
X-20550240Y-10546955D01*
X-20707000Y-10526318D01*
X-20863761Y-10546955D01*
X-21009840Y-10607463D01*
X-21009843Y-10607465D01*
X-21135282Y-10703718D01*
X-21231535Y-10829157D01*
X-21231537Y-10829160D01*
X-21292045Y-10975239D01*
X-21312682Y-11131999D01*
X-21312682Y-11132000D01*
X-23176563Y-11132000D01*
X-23171718Y-11128282D01*
X-23075464Y-11002841D01*
X-23014956Y-10856762D01*
X-22994318Y-10700000D01*
X-23014956Y-10543238D01*
X-23075464Y-10397159D01*
X-23171718Y-10271718D01*
X-23297159Y-10175464D01*
X-23320115Y-10165955D01*
X-23443240Y-10114955D01*
X-23600000Y-10094318D01*
X-23756761Y-10114955D01*
X-23902840Y-10175463D01*
X-23902843Y-10175465D01*
X-24028282Y-10271718D01*
X-24124535Y-10397157D01*
X-24124537Y-10397160D01*
X-24185045Y-10543239D01*
X-24205682Y-10699999D01*
X-24205682Y-10700000D01*
X-28490032Y-10700000D01*
X-28503956Y-10594238D01*
X-28564464Y-10448159D01*
X-28660718Y-10322718D01*
X-28786159Y-10226464D01*
X-28790813Y-10224536D01*
X-28932240Y-10165955D01*
X-29089000Y-10145318D01*
X-29245761Y-10165955D01*
X-29391840Y-10226463D01*
X-29391843Y-10226465D01*
X-29517282Y-10322718D01*
X-29613535Y-10448157D01*
X-29613537Y-10448160D01*
X-29674045Y-10594239D01*
X-29694682Y-10750999D01*
X-29694682Y-10751000D01*
X-35104038Y-10751000D01*
X-35087318Y-10624000D01*
X-35090852Y-10597160D01*
X-35107956Y-10467239D01*
X-35115858Y-10448160D01*
X-35168464Y-10321159D01*
X-35264718Y-10195718D01*
X-35390159Y-10099464D01*
X-35402583Y-10094318D01*
X-35470842Y-10066044D01*
X-35536238Y-10038956D01*
X-35536240Y-10038955D01*
X-35543112Y-10036109D01*
X-35598393Y-9991560D01*
X-35620814Y-9924197D01*
X-35603256Y-9855406D01*
X-35594869Y-9843013D01*
X-35549464Y-9783841D01*
X-35488956Y-9637762D01*
X-35468318Y-9481000D01*
X-34774682Y-9481000D01*
X-34754045Y-9637760D01*
X-34754044Y-9637762D01*
X-34693536Y-9783841D01*
X-34597282Y-9909282D01*
X-34471841Y-10005536D01*
X-34325762Y-10066044D01*
X-34304144Y-10068890D01*
X-34169001Y-10086682D01*
X-34169001Y-10086681D01*
X-34169000Y-10086682D01*
X-34012238Y-10066044D01*
X-33866159Y-10005536D01*
X-33740718Y-9909282D01*
X-33644464Y-9783841D01*
X-33583956Y-9637762D01*
X-33563318Y-9481000D01*
X-33583956Y-9324238D01*
X-33593996Y-9300000D01*
X-29905682Y-9300000D01*
X-29885045Y-9456760D01*
X-29834726Y-9578239D01*
X-29824536Y-9602841D01*
X-29728282Y-9728282D01*
X-29602841Y-9824536D01*
X-29456762Y-9885044D01*
X-29300000Y-9905682D01*
X-29143238Y-9885044D01*
X-28997159Y-9824536D01*
X-28871718Y-9728282D01*
X-28775464Y-9602841D01*
X-28714956Y-9456762D01*
X-28694318Y-9300000D01*
X-21355682Y-9300000D01*
X-21335045Y-9456760D01*
X-21284726Y-9578239D01*
X-21274536Y-9602841D01*
X-21178282Y-9728282D01*
X-21052841Y-9824536D01*
X-20906762Y-9885044D01*
X-20750000Y-9905682D01*
X-20593238Y-9885044D01*
X-20447159Y-9824536D01*
X-20321718Y-9728282D01*
X-20300017Y-9700000D01*
X-19305682Y-9700000D01*
X-19285045Y-9856760D01*
X-19235876Y-9975463D01*
X-19224536Y-10002841D01*
X-19128282Y-10128282D01*
X-19002841Y-10224536D01*
X-18856762Y-10285044D01*
X-18700000Y-10305682D01*
X-18543238Y-10285044D01*
X-18397159Y-10224536D01*
X-18271718Y-10128282D01*
X-18175464Y-10002841D01*
X-18114956Y-9856762D01*
X-18094318Y-9700000D01*
X-18114956Y-9543238D01*
X-18175464Y-9397159D01*
X-18271718Y-9271718D01*
X-18397159Y-9175464D01*
X-18458740Y-9149956D01*
X-18543240Y-9114955D01*
X-18700000Y-9094318D01*
X-18856761Y-9114955D01*
X-19002840Y-9175463D01*
X-19002843Y-9175465D01*
X-19128282Y-9271718D01*
X-19224535Y-9397157D01*
X-19224537Y-9397160D01*
X-19285045Y-9543239D01*
X-19305682Y-9699999D01*
X-19305682Y-9700000D01*
X-20300017Y-9700000D01*
X-20225464Y-9602841D01*
X-20164956Y-9456762D01*
X-20144318Y-9300000D01*
X-20164956Y-9143238D01*
X-20225464Y-8997159D01*
X-20321718Y-8871718D01*
X-20447159Y-8775464D01*
X-20465801Y-8767742D01*
X-20593240Y-8714955D01*
X-20750000Y-8694318D01*
X-20906761Y-8714955D01*
X-21052840Y-8775463D01*
X-21052843Y-8775465D01*
X-21178282Y-8871718D01*
X-21274535Y-8997157D01*
X-21274537Y-8997160D01*
X-21335045Y-9143239D01*
X-21355682Y-9299999D01*
X-21355682Y-9300000D01*
X-28694318Y-9300000D01*
X-28714956Y-9143238D01*
X-28775464Y-8997159D01*
X-28871718Y-8871718D01*
X-28997159Y-8775464D01*
X-29015801Y-8767742D01*
X-29143240Y-8714955D01*
X-29300000Y-8694318D01*
X-29456761Y-8714955D01*
X-29602840Y-8775463D01*
X-29602843Y-8775465D01*
X-29728282Y-8871718D01*
X-29824535Y-8997157D01*
X-29824537Y-8997160D01*
X-29885045Y-9143239D01*
X-29905682Y-9299999D01*
X-29905682Y-9300000D01*
X-33593996Y-9300000D01*
X-33644464Y-9178159D01*
X-33740718Y-9052718D01*
X-33866159Y-8956464D01*
X-33969105Y-8913822D01*
X-34012240Y-8895955D01*
X-34169000Y-8875318D01*
X-34325761Y-8895955D01*
X-34471840Y-8956463D01*
X-34471843Y-8956465D01*
X-34597282Y-9052718D01*
X-34693535Y-9178157D01*
X-34693537Y-9178160D01*
X-34754045Y-9324239D01*
X-34774682Y-9480999D01*
X-34774682Y-9481000D01*
X-35468318Y-9481000D01*
X-35488956Y-9324238D01*
X-35549464Y-9178159D01*
X-35645718Y-9052718D01*
X-35771159Y-8956464D01*
X-35874105Y-8913822D01*
X-35917240Y-8895955D01*
X-36074000Y-8875318D01*
X-36230761Y-8895955D01*
X-36376840Y-8956463D01*
X-36376843Y-8956465D01*
X-36502282Y-9052718D01*
X-36598535Y-9178157D01*
X-36598537Y-9178160D01*
X-36659045Y-9324239D01*
X-36679682Y-9480999D01*
X-36679682Y-9481000D01*
X-37180233Y-9481000D01*
X-37200464Y-9432159D01*
X-37296718Y-9306718D01*
X-37422159Y-9210464D01*
X-37500147Y-9178160D01*
X-37568240Y-9149955D01*
X-37725000Y-9129318D01*
X-37881761Y-9149955D01*
X-38027840Y-9210463D01*
X-38027843Y-9210465D01*
X-38153282Y-9306718D01*
X-38249535Y-9432157D01*
X-38249537Y-9432160D01*
X-38310045Y-9578239D01*
X-38330682Y-9734999D01*
X-38330682Y-9735000D01*
X-38784818Y-9735000D01*
X-39125039Y-8317935D01*
X-39125712Y-8314764D01*
X-39215550Y-7830000D01*
X-27535682Y-7830000D01*
X-27515045Y-7986760D01*
X-27488565Y-8050687D01*
X-27454536Y-8132841D01*
X-27358282Y-8258282D01*
X-27232841Y-8354536D01*
X-27086762Y-8415044D01*
X-27014678Y-8424534D01*
X-26930001Y-8435682D01*
X-26930001Y-8435681D01*
X-26930000Y-8435682D01*
X-26782558Y-8416271D01*
X-23521953Y-8416271D01*
X-23501316Y-8573031D01*
X-23442528Y-8714956D01*
X-23440807Y-8719112D01*
X-23344553Y-8844553D01*
X-23219112Y-8940807D01*
X-23073033Y-9001315D01*
X-22916271Y-9021953D01*
X-22759509Y-9001315D01*
X-22613430Y-8940807D01*
X-22487989Y-8844553D01*
X-22391735Y-8719112D01*
X-22346945Y-8610980D01*
X-8162640Y-8610980D01*
X-8142003Y-8767740D01*
X-8088894Y-8895955D01*
X-8081494Y-8913821D01*
X-7985240Y-9039262D01*
X-7859799Y-9135516D01*
X-7713720Y-9196024D01*
X-7635339Y-9206342D01*
X-7556959Y-9216662D01*
X-7556959Y-9216661D01*
X-7556958Y-9216662D01*
X-7400196Y-9196024D01*
X-7254117Y-9135516D01*
X-7128676Y-9039262D01*
X-7032422Y-8913821D01*
X-6971914Y-8767742D01*
X-6951276Y-8610980D01*
X-6957635Y-8562682D01*
X-6971914Y-8454219D01*
X-6987632Y-8416271D01*
X-7032422Y-8308139D01*
X-7128676Y-8182698D01*
X-7254117Y-8086444D01*
X-7325775Y-8056762D01*
X-7400198Y-8025935D01*
X-7556958Y-8005298D01*
X-7713719Y-8025935D01*
X-7859798Y-8086443D01*
X-7859801Y-8086445D01*
X-7985240Y-8182698D01*
X-8081493Y-8308137D01*
X-8081495Y-8308140D01*
X-8142003Y-8454219D01*
X-8162640Y-8610979D01*
X-8162640Y-8610980D01*
X-22346945Y-8610980D01*
X-22331227Y-8573033D01*
X-22310589Y-8416271D01*
X-22310751Y-8415044D01*
X-22322173Y-8328281D01*
X-22331227Y-8259509D01*
X-22391735Y-8113430D01*
X-22487989Y-7987989D01*
X-22613430Y-7891735D01*
X-22650719Y-7876289D01*
X-22759511Y-7831226D01*
X-22916271Y-7810589D01*
X-23073032Y-7831226D01*
X-23219111Y-7891734D01*
X-23219114Y-7891736D01*
X-23344553Y-7987989D01*
X-23440806Y-8113428D01*
X-23440808Y-8113431D01*
X-23501316Y-8259510D01*
X-23521953Y-8416270D01*
X-23521953Y-8416271D01*
X-26782558Y-8416271D01*
X-26773238Y-8415044D01*
X-26627159Y-8354536D01*
X-26501718Y-8258282D01*
X-26405464Y-8132841D01*
X-26344956Y-7986762D01*
X-26324318Y-7830000D01*
X-26331320Y-7776818D01*
X-26344956Y-7673239D01*
X-26350734Y-7659288D01*
X-26405464Y-7527159D01*
X-26501718Y-7401718D01*
X-26605609Y-7322000D01*
X-21693682Y-7322000D01*
X-21673045Y-7478760D01*
X-21612662Y-7624536D01*
X-21612536Y-7624841D01*
X-21516282Y-7750282D01*
X-21390841Y-7846536D01*
X-21244762Y-7907044D01*
X-21166381Y-7917363D01*
X-21088001Y-7927682D01*
X-21088001Y-7927681D01*
X-21088000Y-7927682D01*
X-20931238Y-7907044D01*
X-20914232Y-7900000D01*
X-15405682Y-7900000D01*
X-15385045Y-8056760D01*
X-15385044Y-8056762D01*
X-15324536Y-8202841D01*
X-15228282Y-8328282D01*
X-15102841Y-8424536D01*
X-14956762Y-8485044D01*
X-14800000Y-8505682D01*
X-14643238Y-8485044D01*
X-14497159Y-8424536D01*
X-14371718Y-8328282D01*
X-14275464Y-8202841D01*
X-14214956Y-8056762D01*
X-14201822Y-7957000D01*
X-5183682Y-7957000D01*
X-5163045Y-8113760D01*
X-5103811Y-8256762D01*
X-5102536Y-8259841D01*
X-5006282Y-8385282D01*
X-4880841Y-8481536D01*
X-4734762Y-8542044D01*
X-4656382Y-8552363D01*
X-4578001Y-8562682D01*
X-4578001Y-8562681D01*
X-4578000Y-8562682D01*
X-4421238Y-8542044D01*
X-4275159Y-8481536D01*
X-4149718Y-8385282D01*
X-4053464Y-8259841D01*
X-3992956Y-8113762D01*
X-3991144Y-8100000D01*
X33494318Y-8100000D01*
X33514955Y-8256760D01*
X33555455Y-8354534D01*
X33575464Y-8402841D01*
X33671718Y-8528282D01*
X33797159Y-8624536D01*
X33943238Y-8685044D01*
X34100000Y-8705682D01*
X34256762Y-8685044D01*
X34402841Y-8624536D01*
X34528282Y-8528282D01*
X34624536Y-8402841D01*
X34685044Y-8256762D01*
X34705682Y-8100000D01*
X34703897Y-8086445D01*
X34693154Y-8004838D01*
X34685044Y-7943238D01*
X34624536Y-7797159D01*
X34528282Y-7671718D01*
X34402841Y-7575464D01*
X34289987Y-7528718D01*
X34256760Y-7514955D01*
X34100000Y-7494318D01*
X33943239Y-7514955D01*
X33797160Y-7575463D01*
X33797157Y-7575465D01*
X33671718Y-7671718D01*
X33575465Y-7797157D01*
X33575463Y-7797160D01*
X33514955Y-7943239D01*
X33494318Y-8099999D01*
X33494318Y-8100000D01*
X-3991144Y-8100000D01*
X-3972318Y-7957000D01*
X-3973058Y-7951382D01*
X-3992956Y-7800239D01*
X-3994231Y-7797159D01*
X-4053464Y-7654159D01*
X-4149718Y-7528718D01*
X-4275159Y-7432464D01*
X-4346672Y-7402842D01*
X-4421240Y-7371955D01*
X-4578000Y-7351318D01*
X-4734761Y-7371955D01*
X-4880840Y-7432463D01*
X-4880843Y-7432465D01*
X-5006282Y-7528718D01*
X-5102535Y-7654157D01*
X-5102537Y-7654160D01*
X-5163045Y-7800239D01*
X-5183682Y-7956999D01*
X-5183682Y-7957000D01*
X-14201822Y-7957000D01*
X-14194318Y-7900000D01*
X-14197609Y-7875006D01*
X-14207857Y-7797159D01*
X-14214956Y-7743238D01*
X-14275464Y-7597159D01*
X-14371718Y-7471718D01*
X-14497159Y-7375464D01*
X-14508319Y-7370841D01*
X-14643240Y-7314955D01*
X-14800000Y-7294318D01*
X-14956761Y-7314955D01*
X-15102840Y-7375463D01*
X-15102843Y-7375465D01*
X-15228282Y-7471718D01*
X-15324535Y-7597157D01*
X-15324537Y-7597160D01*
X-15385045Y-7743239D01*
X-15405682Y-7899999D01*
X-15405682Y-7900000D01*
X-20914232Y-7900000D01*
X-20785159Y-7846536D01*
X-20659718Y-7750282D01*
X-20563464Y-7624841D01*
X-20502956Y-7478762D01*
X-20482318Y-7322000D01*
X-20502956Y-7165238D01*
X-20563464Y-7019159D01*
X-20659718Y-6893718D01*
X-20785159Y-6797464D01*
X-20863147Y-6765160D01*
X-20931240Y-6736955D01*
X-21088000Y-6716318D01*
X-21244761Y-6736955D01*
X-21390840Y-6797463D01*
X-21390843Y-6797465D01*
X-21516282Y-6893718D01*
X-21612535Y-7019157D01*
X-21612537Y-7019160D01*
X-21673045Y-7165239D01*
X-21693682Y-7321999D01*
X-21693682Y-7322000D01*
X-26605609Y-7322000D01*
X-26627159Y-7305464D01*
X-26654067Y-7294318D01*
X-26773240Y-7244955D01*
X-26930000Y-7224318D01*
X-27086761Y-7244955D01*
X-27232840Y-7305463D01*
X-27232843Y-7305465D01*
X-27358282Y-7401718D01*
X-27454535Y-7527157D01*
X-27454537Y-7527160D01*
X-27515045Y-7673239D01*
X-27535682Y-7829999D01*
X-27535682Y-7830000D01*
X-39215550Y-7830000D01*
X-39356767Y-7068000D01*
X-30964682Y-7068000D01*
X-30944045Y-7224760D01*
X-30890588Y-7353815D01*
X-30883536Y-7370841D01*
X-30787282Y-7496282D01*
X-30661841Y-7592536D01*
X-30515762Y-7653044D01*
X-30359000Y-7673682D01*
X-30202238Y-7653044D01*
X-30056159Y-7592536D01*
X-29930718Y-7496282D01*
X-29834464Y-7370841D01*
X-29773956Y-7224762D01*
X-29753318Y-7068000D01*
X-29773956Y-6911238D01*
X-29834464Y-6765159D01*
X-29930718Y-6639718D01*
X-30034609Y-6560000D01*
X-28932682Y-6560000D01*
X-28912045Y-6716760D01*
X-28878616Y-6797463D01*
X-28851536Y-6862841D01*
X-28755282Y-6988282D01*
X-28629841Y-7084536D01*
X-28483762Y-7145044D01*
X-28405382Y-7155363D01*
X-28327001Y-7165682D01*
X-28327001Y-7165681D01*
X-28327000Y-7165682D01*
X-28170238Y-7145044D01*
X-28024159Y-7084536D01*
X-27898718Y-6988282D01*
X-27802464Y-6862841D01*
X-27741956Y-6716762D01*
X-27721318Y-6560000D01*
X-27741956Y-6403238D01*
X-27802464Y-6257159D01*
X-27898718Y-6131718D01*
X-28024159Y-6035464D01*
X-28101710Y-6003341D01*
X-28170240Y-5974955D01*
X-28327000Y-5954318D01*
X-28483761Y-5974955D01*
X-28629840Y-6035463D01*
X-28629843Y-6035465D01*
X-28755282Y-6131718D01*
X-28851535Y-6257157D01*
X-28851537Y-6257160D01*
X-28912045Y-6403239D01*
X-28932682Y-6559999D01*
X-28932682Y-6560000D01*
X-30034609Y-6560000D01*
X-30056159Y-6543464D01*
X-30114592Y-6519260D01*
X-30202240Y-6482955D01*
X-30359000Y-6462318D01*
X-30515761Y-6482955D01*
X-30661840Y-6543463D01*
X-30661843Y-6543465D01*
X-30787282Y-6639718D01*
X-30883535Y-6765157D01*
X-30883537Y-6765160D01*
X-30944045Y-6911239D01*
X-30964682Y-7067999D01*
X-30964682Y-7068000D01*
X-39356767Y-7068000D01*
X-39506715Y-6258890D01*
X-39507223Y-6255679D01*
X-39567491Y-5798000D01*
X-23344682Y-5798000D01*
X-23324045Y-5954760D01*
X-23278422Y-6064902D01*
X-23263536Y-6100841D01*
X-23167282Y-6226282D01*
X-23041841Y-6322536D01*
X-22895762Y-6383044D01*
X-22880570Y-6385044D01*
X-22739001Y-6403682D01*
X-22739001Y-6403681D01*
X-22739000Y-6403682D01*
X-22582238Y-6383044D01*
X-22436159Y-6322536D01*
X-22310718Y-6226282D01*
X-22307174Y-6221663D01*
X-19212941Y-6221663D01*
X-19192304Y-6378423D01*
X-19135750Y-6514955D01*
X-19131795Y-6524504D01*
X-19035541Y-6649945D01*
X-18910100Y-6746199D01*
X-18764021Y-6806707D01*
X-18607259Y-6827345D01*
X-18450497Y-6806707D01*
X-18304418Y-6746199D01*
X-18178977Y-6649945D01*
X-18082723Y-6524504D01*
X-18022215Y-6378425D01*
X-18001577Y-6221663D01*
X-18022215Y-6064901D01*
X-18082723Y-5918822D01*
X-18173898Y-5800000D01*
X-15305682Y-5800000D01*
X-15285045Y-5956760D01*
X-15225364Y-6100841D01*
X-15224536Y-6102841D01*
X-15128282Y-6228282D01*
X-15002841Y-6324536D01*
X-14856762Y-6385044D01*
X-14700000Y-6405682D01*
X-14543238Y-6385044D01*
X-14397159Y-6324536D01*
X-14271718Y-6228282D01*
X-14175464Y-6102841D01*
X-14114956Y-5956762D01*
X-14094318Y-5800000D01*
X-14107417Y-5700500D01*
X-10305682Y-5700500D01*
X-10285045Y-5857260D01*
X-10231076Y-5987551D01*
X-10224536Y-6003341D01*
X-10128282Y-6128782D01*
X-10002841Y-6225036D01*
X-9856762Y-6285544D01*
X-9700000Y-6306182D01*
X-9543238Y-6285544D01*
X-9397159Y-6225036D01*
X-9271718Y-6128782D01*
X-9175464Y-6003341D01*
X-9114956Y-5857262D01*
X-9094318Y-5700500D01*
X-9095371Y-5692505D01*
X-9114956Y-5543739D01*
X-9130719Y-5505682D01*
X-9153783Y-5450000D01*
X-8505682Y-5450000D01*
X-8485045Y-5606760D01*
X-8446216Y-5700500D01*
X-8424536Y-5752841D01*
X-8328282Y-5878282D01*
X-8202841Y-5974536D01*
X-8202838Y-5974538D01*
X-8196845Y-5977998D01*
X-8147852Y-6029380D01*
X-8134416Y-6099094D01*
X-8160802Y-6165005D01*
X-8183140Y-6187079D01*
X-8228282Y-6221717D01*
X-8324535Y-6347157D01*
X-8324537Y-6347160D01*
X-8385045Y-6493239D01*
X-8405682Y-6649999D01*
X-8405682Y-6650000D01*
X-8385045Y-6806760D01*
X-8385044Y-6806762D01*
X-8324536Y-6952841D01*
X-8228282Y-7078282D01*
X-8102841Y-7174536D01*
X-7956762Y-7235044D01*
X-7800000Y-7255682D01*
X-7643238Y-7235044D01*
X-7497159Y-7174536D01*
X-7371718Y-7078282D01*
X-7275464Y-6952841D01*
X-7214956Y-6806762D01*
X-7194318Y-6650000D01*
X-7214956Y-6493238D01*
X-7275464Y-6347159D01*
X-7371718Y-6221718D01*
X-7497159Y-6125464D01*
X-7497160Y-6125463D01*
X-7503159Y-6122000D01*
X-7552151Y-6070616D01*
X-7565585Y-6000902D01*
X-7539197Y-5934992D01*
X-7516863Y-5912922D01*
X-7471718Y-5878282D01*
X-7375464Y-5752841D01*
X-7314956Y-5606762D01*
X-7294318Y-5450000D01*
X-7300153Y-5405682D01*
X-7314956Y-5293239D01*
X-7322318Y-5275464D01*
X-7375464Y-5147159D01*
X-7471718Y-5021718D01*
X-7597159Y-4925464D01*
X-7658636Y-4899999D01*
X-7743240Y-4864955D01*
X-7900000Y-4844318D01*
X-8056761Y-4864955D01*
X-8202840Y-4925463D01*
X-8202843Y-4925465D01*
X-8328282Y-5021718D01*
X-8424535Y-5147157D01*
X-8424537Y-5147160D01*
X-8485045Y-5293239D01*
X-8505682Y-5449999D01*
X-8505682Y-5450000D01*
X-9153783Y-5450000D01*
X-9175464Y-5397659D01*
X-9271718Y-5272218D01*
X-9397159Y-5175964D01*
X-9466697Y-5147160D01*
X-9543240Y-5115455D01*
X-9700000Y-5094818D01*
X-9856761Y-5115455D01*
X-10002840Y-5175963D01*
X-10002843Y-5175965D01*
X-10128282Y-5272218D01*
X-10224535Y-5397657D01*
X-10224537Y-5397660D01*
X-10285045Y-5543739D01*
X-10305682Y-5700499D01*
X-10305682Y-5700500D01*
X-14107417Y-5700500D01*
X-14114956Y-5643238D01*
X-14175464Y-5497159D01*
X-14271718Y-5371718D01*
X-14397159Y-5275464D01*
X-14401989Y-5273463D01*
X-14543240Y-5214955D01*
X-14700000Y-5194318D01*
X-14856761Y-5214955D01*
X-15002840Y-5275463D01*
X-15002843Y-5275465D01*
X-15128282Y-5371718D01*
X-15224535Y-5497157D01*
X-15224537Y-5497160D01*
X-15285045Y-5643239D01*
X-15305682Y-5799999D01*
X-15305682Y-5800000D01*
X-18173898Y-5800000D01*
X-18178977Y-5793381D01*
X-18304418Y-5697127D01*
X-18304642Y-5697034D01*
X-18450499Y-5636618D01*
X-18607259Y-5615981D01*
X-18764020Y-5636618D01*
X-18910099Y-5697126D01*
X-18910102Y-5697128D01*
X-19035541Y-5793381D01*
X-19131794Y-5918820D01*
X-19131796Y-5918823D01*
X-19192304Y-6064902D01*
X-19212941Y-6221662D01*
X-19212941Y-6221663D01*
X-22307174Y-6221663D01*
X-22214464Y-6100841D01*
X-22153956Y-5954762D01*
X-22133318Y-5798000D01*
X-22139264Y-5752839D01*
X-22147200Y-5692554D01*
X-22153956Y-5641238D01*
X-22214464Y-5495159D01*
X-22310718Y-5369718D01*
X-22436159Y-5273464D01*
X-22509130Y-5243238D01*
X-22582240Y-5212955D01*
X-22739000Y-5192318D01*
X-22895761Y-5212955D01*
X-23041840Y-5273463D01*
X-23041843Y-5273465D01*
X-23167282Y-5369718D01*
X-23263535Y-5495157D01*
X-23263537Y-5495160D01*
X-23324045Y-5641239D01*
X-23344682Y-5797999D01*
X-23344682Y-5798000D01*
X-39567491Y-5798000D01*
X-39682387Y-4925463D01*
X-39780193Y-4182708D01*
X-39780537Y-4179433D01*
X-39786565Y-4102842D01*
X-39841565Y-3403972D01*
X-27509654Y-3403972D01*
X-27489017Y-3560732D01*
X-27428976Y-3705682D01*
X-27428508Y-3706813D01*
X-27332254Y-3832254D01*
X-27304505Y-3853546D01*
X-27262637Y-3910883D01*
X-27258414Y-3981754D01*
X-27293178Y-4043657D01*
X-27304502Y-4053470D01*
X-27328281Y-4071716D01*
X-27424535Y-4197157D01*
X-27424537Y-4197160D01*
X-27485045Y-4343239D01*
X-27505682Y-4499999D01*
X-27505682Y-4500000D01*
X-27485045Y-4656760D01*
X-27428066Y-4794318D01*
X-27424536Y-4802841D01*
X-27328282Y-4928282D01*
X-27202841Y-5024536D01*
X-27056762Y-5085044D01*
X-26900000Y-5105682D01*
X-26743238Y-5085044D01*
X-26597159Y-5024536D01*
X-26471718Y-4928282D01*
X-26375464Y-4802841D01*
X-26332866Y-4700000D01*
X-18930182Y-4700000D01*
X-18909545Y-4856760D01*
X-18868123Y-4956760D01*
X-18849036Y-5002841D01*
X-18752782Y-5128282D01*
X-18627341Y-5224536D01*
X-18481262Y-5285044D01*
X-18324500Y-5305682D01*
X-18167738Y-5285044D01*
X-18021659Y-5224536D01*
X-17896218Y-5128282D01*
X-17799964Y-5002841D01*
X-17739456Y-4856762D01*
X-17718818Y-4700000D01*
X-17738566Y-4550000D01*
X-11605682Y-4550000D01*
X-11585045Y-4706760D01*
X-11528066Y-4844318D01*
X-11524536Y-4852841D01*
X-11428282Y-4978282D01*
X-11302841Y-5074536D01*
X-11156762Y-5135044D01*
X-11000000Y-5155682D01*
X-10843238Y-5135044D01*
X-10697159Y-5074536D01*
X-10571718Y-4978282D01*
X-10475464Y-4852841D01*
X-10414956Y-4706762D01*
X-10394318Y-4550000D01*
X-10395038Y-4544534D01*
X-10407709Y-4448282D01*
X-10414956Y-4393238D01*
X-10475464Y-4247159D01*
X-10571718Y-4121718D01*
X-10697159Y-4025464D01*
X-10697489Y-4025327D01*
X-10843240Y-3964955D01*
X-11000000Y-3944318D01*
X-11156761Y-3964955D01*
X-11302840Y-4025463D01*
X-11302843Y-4025465D01*
X-11428282Y-4121718D01*
X-11524535Y-4247157D01*
X-11524537Y-4247160D01*
X-11585045Y-4393239D01*
X-11605682Y-4549999D01*
X-11605682Y-4550000D01*
X-17738566Y-4550000D01*
X-17739456Y-4543238D01*
X-17799964Y-4397159D01*
X-17896218Y-4271718D01*
X-18021659Y-4175464D01*
X-18167738Y-4114956D01*
X-18167740Y-4114955D01*
X-18324500Y-4094318D01*
X-18481261Y-4114955D01*
X-18627340Y-4175463D01*
X-18627343Y-4175465D01*
X-18752782Y-4271718D01*
X-18849035Y-4397157D01*
X-18849037Y-4397160D01*
X-18909545Y-4543239D01*
X-18930182Y-4699999D01*
X-18930182Y-4700000D01*
X-26332866Y-4700000D01*
X-26314956Y-4656762D01*
X-26294318Y-4500000D01*
X-26294492Y-4498682D01*
X-26307857Y-4397159D01*
X-26314956Y-4343238D01*
X-26375464Y-4197159D01*
X-26471718Y-4071718D01*
X-26471720Y-4071717D01*
X-26471720Y-4071716D01*
X-26489392Y-4058156D01*
X-26499469Y-4050424D01*
X-26541336Y-3993088D01*
X-26545558Y-3922217D01*
X-26510795Y-3860314D01*
X-26499474Y-3850503D01*
X-26475690Y-3832254D01*
X-26379436Y-3706813D01*
X-26318928Y-3560734D01*
X-26298290Y-3403972D01*
X-26302965Y-3368465D01*
X-26315208Y-3275464D01*
X-26318928Y-3247210D01*
X-26379436Y-3101131D01*
X-26380304Y-3100000D01*
X-25905682Y-3100000D01*
X-25885045Y-3256760D01*
X-25838775Y-3368464D01*
X-25824536Y-3402841D01*
X-25728282Y-3528282D01*
X-25602841Y-3624536D01*
X-25456762Y-3685044D01*
X-25300000Y-3705682D01*
X-25143238Y-3685044D01*
X-25132149Y-3680450D01*
X-25061564Y-3672859D01*
X-24998075Y-3704636D01*
X-24961845Y-3765692D01*
X-24964376Y-3836644D01*
X-24967521Y-3845075D01*
X-24975044Y-3863237D01*
X-24995682Y-4019999D01*
X-24995682Y-4020000D01*
X-24975045Y-4176760D01*
X-24917802Y-4314955D01*
X-24914536Y-4322841D01*
X-24818282Y-4448282D01*
X-24692841Y-4544536D01*
X-24546762Y-4605044D01*
X-24390000Y-4625682D01*
X-24233238Y-4605044D01*
X-24087159Y-4544536D01*
X-23961718Y-4448282D01*
X-23865464Y-4322841D01*
X-23804956Y-4176762D01*
X-23784318Y-4020000D01*
X-23784738Y-4016813D01*
X-23797191Y-3922217D01*
X-23801038Y-3893000D01*
X-9755682Y-3893000D01*
X-9735045Y-4049760D01*
X-9680646Y-4181089D01*
X-9674536Y-4195841D01*
X-9578282Y-4321282D01*
X-9452841Y-4417536D01*
X-9306762Y-4478044D01*
X-9228382Y-4488363D01*
X-9150001Y-4498682D01*
X-9150001Y-4498681D01*
X-9150000Y-4498682D01*
X-8993238Y-4478044D01*
X-8847159Y-4417536D01*
X-8721718Y-4321282D01*
X-8625464Y-4195841D01*
X-8564956Y-4049762D01*
X-8544318Y-3893000D01*
X-8564956Y-3736238D01*
X-8625464Y-3590159D01*
X-8721718Y-3464718D01*
X-8847159Y-3368464D01*
X-8951095Y-3325412D01*
X-8993240Y-3307955D01*
X-9150000Y-3287318D01*
X-9306761Y-3307955D01*
X-9452840Y-3368463D01*
X-9452843Y-3368465D01*
X-9578282Y-3464718D01*
X-9674535Y-3590157D01*
X-9674537Y-3590160D01*
X-9735045Y-3736239D01*
X-9755682Y-3892999D01*
X-9755682Y-3893000D01*
X-23801038Y-3893000D01*
X-23804956Y-3863238D01*
X-23865464Y-3717159D01*
X-23961718Y-3591718D01*
X-24087159Y-3495464D01*
X-24089925Y-3494318D01*
X-24233240Y-3434955D01*
X-24390000Y-3414318D01*
X-24546761Y-3434955D01*
X-24557855Y-3439551D01*
X-24628445Y-3447139D01*
X-24691932Y-3415358D01*
X-24728158Y-3354299D01*
X-24725622Y-3283348D01*
X-24722489Y-3274945D01*
X-24714956Y-3256762D01*
X-24694318Y-3100000D01*
X-24696289Y-3085032D01*
X-24714956Y-2943239D01*
X-24722808Y-2924281D01*
X-24734054Y-2897131D01*
X-15981182Y-2897131D01*
X-15960545Y-3053891D01*
X-15940977Y-3101131D01*
X-15900036Y-3199972D01*
X-15803782Y-3325413D01*
X-15678341Y-3421667D01*
X-15532262Y-3482175D01*
X-15375500Y-3502813D01*
X-15218738Y-3482175D01*
X-15072659Y-3421667D01*
X-14947218Y-3325413D01*
X-14850964Y-3199972D01*
X-14790456Y-3053893D01*
X-14769818Y-2897131D01*
X-14771459Y-2884670D01*
X-14782979Y-2797160D01*
X-14790456Y-2740369D01*
X-14850964Y-2594290D01*
X-14947218Y-2468849D01*
X-15072659Y-2372595D01*
X-15153189Y-2339238D01*
X-15218740Y-2312086D01*
X-15375500Y-2291449D01*
X-15532261Y-2312086D01*
X-15678340Y-2372594D01*
X-15678343Y-2372596D01*
X-15803782Y-2468849D01*
X-15900035Y-2594288D01*
X-15900037Y-2594291D01*
X-15960545Y-2740370D01*
X-15981182Y-2897130D01*
X-15981182Y-2897131D01*
X-24734054Y-2897131D01*
X-24775464Y-2797159D01*
X-24871718Y-2671718D01*
X-24997159Y-2575464D01*
X-25068399Y-2545955D01*
X-25143240Y-2514955D01*
X-25300000Y-2494318D01*
X-25456761Y-2514955D01*
X-25602840Y-2575463D01*
X-25602843Y-2575465D01*
X-25728282Y-2671718D01*
X-25824535Y-2797157D01*
X-25824537Y-2797160D01*
X-25885045Y-2943239D01*
X-25905682Y-3099999D01*
X-25905682Y-3100000D01*
X-26380304Y-3100000D01*
X-26475690Y-2975690D01*
X-26601131Y-2879436D01*
X-26608880Y-2876226D01*
X-26747212Y-2818927D01*
X-26903972Y-2798290D01*
X-27060733Y-2818927D01*
X-27206812Y-2879435D01*
X-27206815Y-2879437D01*
X-27332254Y-2975690D01*
X-27428507Y-3101129D01*
X-27428509Y-3101132D01*
X-27489017Y-3247211D01*
X-27509654Y-3403971D01*
X-27509654Y-3403972D01*
X-39841565Y-3403972D01*
X-39944576Y-2095024D01*
X-39944747Y-2091756D01*
X-39947463Y-1988000D01*
X-29567682Y-1988000D01*
X-29547045Y-2144760D01*
X-29504428Y-2247645D01*
X-29486536Y-2290841D01*
X-29390282Y-2416282D01*
X-29264841Y-2512536D01*
X-29118762Y-2573044D01*
X-29040382Y-2583363D01*
X-28962001Y-2593682D01*
X-28962001Y-2593681D01*
X-28962000Y-2593682D01*
X-28805238Y-2573044D01*
X-28659159Y-2512536D01*
X-28533718Y-2416282D01*
X-28437464Y-2290841D01*
X-28417233Y-2242000D01*
X-22836682Y-2242000D01*
X-22816045Y-2398760D01*
X-22776463Y-2494318D01*
X-22755536Y-2544841D01*
X-22659282Y-2670282D01*
X-22533841Y-2766536D01*
X-22387762Y-2827044D01*
X-22231000Y-2847682D01*
X-22074238Y-2827044D01*
X-21928159Y-2766536D01*
X-21802718Y-2670282D01*
X-21706464Y-2544841D01*
X-21645956Y-2398762D01*
X-21625318Y-2242000D01*
X-21630512Y-2202551D01*
X-21644664Y-2095050D01*
X-21645956Y-2085238D01*
X-21706464Y-1939159D01*
X-21802718Y-1813718D01*
X-21928159Y-1717464D01*
X-22000505Y-1687497D01*
X-22074240Y-1656955D01*
X-22231000Y-1636318D01*
X-22387761Y-1656955D01*
X-22533840Y-1717463D01*
X-22533843Y-1717465D01*
X-22659282Y-1813718D01*
X-22755535Y-1939157D01*
X-22755537Y-1939160D01*
X-22816045Y-2085239D01*
X-22836682Y-2241999D01*
X-22836682Y-2242000D01*
X-28417233Y-2242000D01*
X-28376956Y-2144762D01*
X-28356318Y-1988000D01*
X-28359843Y-1961228D01*
X-28374500Y-1849896D01*
X-28376956Y-1831238D01*
X-28437464Y-1685159D01*
X-28533718Y-1559718D01*
X-28659159Y-1463464D01*
X-28724791Y-1436278D01*
X-28805240Y-1402955D01*
X-28962000Y-1382318D01*
X-29118761Y-1402955D01*
X-29264840Y-1463463D01*
X-29264843Y-1463465D01*
X-29390282Y-1559718D01*
X-29486535Y-1685157D01*
X-29486537Y-1685160D01*
X-29547045Y-1831239D01*
X-29567682Y-1987999D01*
X-29567682Y-1988000D01*
X-39947463Y-1988000D01*
X-39985104Y-550000D01*
X-29355682Y-550000D01*
X-29335045Y-706760D01*
X-29274927Y-851896D01*
X-29274536Y-852841D01*
X-29178282Y-978282D01*
X-29052841Y-1074536D01*
X-28906762Y-1135044D01*
X-28750000Y-1155682D01*
X-28593238Y-1135044D01*
X-28447159Y-1074536D01*
X-28363539Y-1010371D01*
X-28297319Y-984771D01*
X-28227770Y-999035D01*
X-28177717Y-1047332D01*
X-28174539Y-1052837D01*
X-28174537Y-1052839D01*
X-28174536Y-1052841D01*
X-28078282Y-1178282D01*
X-27952841Y-1274536D01*
X-27806762Y-1335044D01*
X-27728382Y-1345363D01*
X-27650001Y-1355682D01*
X-27650001Y-1355681D01*
X-27650000Y-1355682D01*
X-27493238Y-1335044D01*
X-27347159Y-1274536D01*
X-27221718Y-1178282D01*
X-27125464Y-1052841D01*
X-27064956Y-906762D01*
X-27044318Y-750000D01*
X-27046328Y-734736D01*
X-27054638Y-671618D01*
X-27064956Y-593238D01*
X-27125464Y-447159D01*
X-27221718Y-321718D01*
X-27347159Y-225464D01*
X-27493238Y-164956D01*
X-27493240Y-164955D01*
X-27650000Y-144318D01*
X-27806761Y-164955D01*
X-27952840Y-225463D01*
X-27952848Y-225468D01*
X-28036463Y-289628D01*
X-28102683Y-315228D01*
X-28172232Y-300963D01*
X-28222286Y-252664D01*
X-28225464Y-247160D01*
X-28225464Y-247159D01*
X-28321718Y-121718D01*
X-28447159Y-25464D01*
X-28495305Y-5521D01*
X-28593240Y35045D01*
X-28750000Y55682D01*
X-28906761Y35045D01*
X-29052840Y-25463D01*
X-29052843Y-25465D01*
X-29178282Y-121718D01*
X-29274535Y-247157D01*
X-29274537Y-247160D01*
X-29335045Y-393239D01*
X-29355682Y-549999D01*
X-29355682Y-550000D01*
X-39985104Y-550000D01*
X-39999458Y-1641D01*
X-39999458Y1651D01*
X-39998584Y35045D01*
X-39985052Y552000D01*
X-26900682Y552000D01*
X-26880045Y395240D01*
X-26841771Y302840D01*
X-26819536Y249159D01*
X-26723282Y123718D01*
X-26597841Y27464D01*
X-26451762Y-33044D01*
X-26295000Y-53682D01*
X-26138238Y-33044D01*
X-26058494Y-13D01*
X-23850581Y-13D01*
X-23850165Y-2171D01*
X-23789641Y-384164D01*
X-23789372Y-386358D01*
X-23789349Y-386456D01*
X-23789242Y-386705D01*
X-23788120Y-388710D01*
X-23612806Y-732874D01*
X-23611774Y-735097D01*
X-23609945Y-736792D01*
X-23345359Y-1001318D01*
X-23336815Y-1009860D01*
X-23335099Y-1011715D01*
X-23335004Y-1011784D01*
X-23332741Y-1012829D01*
X-22988850Y-1188081D01*
X-22986493Y-1189406D01*
X-22983803Y-1189720D01*
X-22751209Y-1226557D01*
X-22602465Y-1250115D01*
X-22600337Y-1250536D01*
X-22599518Y-1250534D01*
X-22597186Y-1250058D01*
X-22216212Y-1189722D01*
X-22213631Y-1189422D01*
X-22213329Y-1189323D01*
X-22210985Y-1187995D01*
X-21867580Y-1012989D01*
X-21865275Y-1011941D01*
X-21864662Y-1011495D01*
X-21862971Y-1009645D01*
X-21590254Y-736988D01*
X-21588475Y-735356D01*
X-21588022Y-734736D01*
X-21587005Y-732501D01*
X-21412071Y-389081D01*
X-21410803Y-386852D01*
X-21410547Y-386060D01*
X-21410264Y-383545D01*
X-21349913Y-2632D01*
X-21349474Y-442D01*
X-21349471Y429D01*
X-21349911Y2620D01*
X-21410268Y383561D01*
X-21410561Y386154D01*
X-21410726Y386675D01*
X-21411969Y388880D01*
X-21587072Y732632D01*
X-21588162Y735008D01*
X-21588225Y735097D01*
X-21590073Y736808D01*
X-21863155Y1009831D01*
X-21864931Y1011754D01*
X-21867266Y1012832D01*
X-22211342Y1188179D01*
X-22213337Y1189293D01*
X-22213507Y1189366D01*
X-22213640Y1189397D01*
X-22215851Y1189667D01*
X-22597532Y1250115D01*
X-22599935Y1250590D01*
X-22602106Y1250174D01*
X-22984190Y1189661D01*
X-22986048Y1189433D01*
X-22986457Y1189338D01*
X-22986902Y1189151D01*
X-22988549Y1188236D01*
X-23333107Y1012645D01*
X-23335023Y1011746D01*
X-23335154Y1011633D01*
X-23336642Y1010036D01*
X-23610192Y736547D01*
X-23611732Y735106D01*
X-23611860Y734895D01*
X-23612751Y732985D01*
X-23788213Y388529D01*
X-23789127Y386884D01*
X-23789321Y386421D01*
X-23789408Y386047D01*
X-23789636Y384201D01*
X-23850176Y2099D01*
X-23850581Y-13D01*
X-26058494Y-13D01*
X-25992159Y27464D01*
X-25866718Y123718D01*
X-25770464Y249159D01*
X-25709956Y395238D01*
X-25689318Y552000D01*
X-25709956Y708762D01*
X-25770464Y854841D01*
X-25866718Y980282D01*
X-25992159Y1076536D01*
X-26127040Y1132406D01*
X-26138240Y1137045D01*
X-26295000Y1157682D01*
X-26451761Y1137045D01*
X-26597840Y1076537D01*
X-26597843Y1076535D01*
X-26723282Y980282D01*
X-26819535Y854843D01*
X-26819537Y854840D01*
X-26880045Y708761D01*
X-26900682Y552001D01*
X-26900682Y552000D01*
X-39985052Y552000D01*
X-39955133Y1695000D01*
X-15005682Y1695000D01*
X-14985045Y1538240D01*
X-14928961Y1402843D01*
X-14924536Y1392159D01*
X-14828282Y1266718D01*
X-14750411Y1206966D01*
X-14708544Y1149628D01*
X-14704322Y1078757D01*
X-14739086Y1016854D01*
X-14750410Y1007042D01*
X-14785280Y980286D01*
X-14881535Y854843D01*
X-14881537Y854840D01*
X-14942045Y708761D01*
X-14962682Y552001D01*
X-14962682Y552000D01*
X-14942045Y395240D01*
X-14903771Y302840D01*
X-14881536Y249159D01*
X-14785283Y123719D01*
X-14785280Y123716D01*
X-14728911Y80462D01*
X-14687044Y23124D01*
X-14682822Y-47747D01*
X-14717586Y-109650D01*
X-14728911Y-119462D01*
X-14785280Y-162715D01*
X-14881535Y-288157D01*
X-14881537Y-288160D01*
X-14942045Y-434239D01*
X-14962682Y-590999D01*
X-14962682Y-591000D01*
X-14942045Y-747760D01*
X-14898518Y-852842D01*
X-14881536Y-893841D01*
X-14787140Y-1016861D01*
X-14782969Y-1022296D01*
X-14757369Y-1088517D01*
X-14771634Y-1158065D01*
X-14782969Y-1175704D01*
X-14785282Y-1178717D01*
X-14785282Y-1178718D01*
X-14793402Y-1189300D01*
X-14881535Y-1304157D01*
X-14881537Y-1304160D01*
X-14942045Y-1450239D01*
X-14962682Y-1606999D01*
X-14962682Y-1607000D01*
X-14942045Y-1763760D01*
X-14886381Y-1898143D01*
X-14881536Y-1909841D01*
X-14785282Y-2035282D01*
X-14659841Y-2131536D01*
X-14513762Y-2192044D01*
X-14416439Y-2204856D01*
X-14351513Y-2233578D01*
X-14312421Y-2292843D01*
X-14307964Y-2346224D01*
X-14327682Y-2495999D01*
X-14327682Y-2496000D01*
X-14307045Y-2652760D01*
X-14299787Y-2670281D01*
X-14246536Y-2798841D01*
X-14150282Y-2924282D01*
X-14024841Y-3020536D01*
X-13878762Y-3081044D01*
X-13722000Y-3101682D01*
X-13565238Y-3081044D01*
X-13419159Y-3020536D01*
X-13354665Y-2971047D01*
X-13288448Y-2945448D01*
X-13218899Y-2959712D01*
X-13178001Y-2994306D01*
X-13134282Y-3051282D01*
X-13008841Y-3147536D01*
X-12862762Y-3208044D01*
X-12810267Y-3214955D01*
X-12706001Y-3228682D01*
X-12706001Y-3228681D01*
X-12706000Y-3228682D01*
X-12549238Y-3208044D01*
X-12403159Y-3147536D01*
X-12277718Y-3051282D01*
X-12277718Y-3051281D01*
X-12274704Y-3048969D01*
X-12208484Y-3023368D01*
X-12138935Y-3037633D01*
X-12121296Y-3048969D01*
X-11995916Y-3145177D01*
X-11992841Y-3147536D01*
X-11846762Y-3208044D01*
X-11794267Y-3214955D01*
X-11690001Y-3228682D01*
X-11690001Y-3228681D01*
X-11690000Y-3228682D01*
X-11533238Y-3208044D01*
X-11387159Y-3147536D01*
X-11261718Y-3051282D01*
X-11261715Y-3051277D01*
X-11258706Y-3048969D01*
X-11192485Y-3023368D01*
X-11122937Y-3037632D01*
X-11105297Y-3048968D01*
X-11102283Y-3051280D01*
X-11102282Y-3051282D01*
X-10976841Y-3147536D01*
X-10830762Y-3208044D01*
X-10778267Y-3214955D01*
X-10674001Y-3228682D01*
X-10674001Y-3228681D01*
X-10674000Y-3228682D01*
X-10517238Y-3208044D01*
X-10371159Y-3147536D01*
X-10245718Y-3051282D01*
X-10149464Y-2925841D01*
X-10088956Y-2779762D01*
X-10068318Y-2623000D01*
X-10088956Y-2466238D01*
X-10149464Y-2320159D01*
X-10155658Y-2312087D01*
X-10188895Y-2268771D01*
X-10214496Y-2202551D01*
X-10200231Y-2133002D01*
X-10150630Y-2082206D01*
X-10081441Y-2066290D01*
X-10014630Y-2090307D01*
X-10012229Y-2092105D01*
X-9969761Y-2124692D01*
X-9960841Y-2131536D01*
X-9814762Y-2192044D01*
X-9736382Y-2202363D01*
X-9658001Y-2212682D01*
X-9658001Y-2212681D01*
X-9658000Y-2212682D01*
X-9501238Y-2192044D01*
X-9355159Y-2131536D01*
X-9229718Y-2035282D01*
X-9229718Y-2035281D01*
X-9226704Y-2032969D01*
X-9160484Y-2007368D01*
X-9090935Y-2021633D01*
X-9073296Y-2032969D01*
X-8953761Y-2124692D01*
X-8944841Y-2131536D01*
X-8798762Y-2192044D01*
X-8720382Y-2202363D01*
X-8642001Y-2212682D01*
X-8642001Y-2212681D01*
X-8642000Y-2212682D01*
X-8485238Y-2192044D01*
X-8339159Y-2131536D01*
X-8213718Y-2035282D01*
X-8117464Y-1909841D01*
X-8076223Y-1810276D01*
X-8031677Y-1754998D01*
X-7964314Y-1732577D01*
X-7895522Y-1750135D01*
X-7847144Y-1802097D01*
X-7837298Y-1829081D01*
X-7777133Y-2079665D01*
X-7776813Y-2081494D01*
X-7776657Y-2082019D01*
X-7775795Y-2085237D01*
X-7774738Y-2089643D01*
X-7773278Y-2093428D01*
X-7662845Y-2466239D01*
X-7657601Y-2483943D01*
X-7657219Y-2485595D01*
X-7656852Y-2486657D01*
X-7656137Y-2488857D01*
X-7654801Y-2493238D01*
X-7653382Y-2496479D01*
X-7635861Y-2545956D01*
X-7546506Y-2798290D01*
X-7518907Y-2876226D01*
X-7517924Y-2879816D01*
X-7516282Y-2883830D01*
X-7515337Y-2886286D01*
X-7514855Y-2887621D01*
X-7514052Y-2889231D01*
X-7356216Y-3270291D01*
X-7355648Y-3271984D01*
X-7355007Y-3273353D01*
X-7354041Y-3275521D01*
X-7352211Y-3279846D01*
X-7350436Y-3282954D01*
X-7174999Y-3650752D01*
X-7174308Y-3652508D01*
X-7173687Y-3653660D01*
X-7172447Y-3656087D01*
X-7170381Y-3660357D01*
X-7168358Y-3663483D01*
X-6973862Y-4021701D01*
X-6973083Y-4023376D01*
X-6972774Y-4023880D01*
X-6971160Y-4026674D01*
X-6969105Y-4030451D01*
X-6966787Y-4033651D01*
X-6756578Y-4376684D01*
X-6754880Y-4379969D01*
X-6752472Y-4383508D01*
X-6751009Y-4385760D01*
X-6748474Y-4389851D01*
X-6746106Y-4392780D01*
X-6743098Y-4397157D01*
X-6573972Y-4643239D01*
X-6518278Y-4724274D01*
X-6516359Y-4727556D01*
X-6513852Y-4730841D01*
X-6512167Y-4733155D01*
X-6511455Y-4734182D01*
X-6510232Y-4735564D01*
X-6263763Y-5056760D01*
X-6261943Y-5059131D01*
X-6259907Y-5062215D01*
X-6257325Y-5065262D01*
X-6255551Y-5067453D01*
X-6253054Y-5070683D01*
X-6250445Y-5073327D01*
X-5988657Y-5379850D01*
X-5986348Y-5382983D01*
X-5983809Y-5385658D01*
X-5981620Y-5388088D01*
X-5979069Y-5391072D01*
X-5976183Y-5393693D01*
X-5695560Y-5689409D01*
X-5694304Y-5690924D01*
X-5693874Y-5691330D01*
X-5691312Y-5693894D01*
X-5688350Y-5697034D01*
X-5685079Y-5699670D01*
X-5681737Y-5702841D01*
X-5389920Y-5979763D01*
X-5388593Y-5981200D01*
X-5388206Y-5981528D01*
X-5385538Y-5983925D01*
X-5382184Y-5987117D01*
X-5378799Y-5989554D01*
X-5069832Y-6253428D01*
X-5068418Y-6254819D01*
X-5067690Y-6255377D01*
X-5065042Y-6257520D01*
X-5062002Y-6260120D01*
X-5058661Y-6262302D01*
X-4735489Y-6510288D01*
X-4734026Y-6511580D01*
X-4733357Y-6512039D01*
X-4730617Y-6514029D01*
X-4727031Y-6516783D01*
X-4723483Y-6518822D01*
X-4663569Y-6559999D01*
X-4388261Y-6749212D01*
X-4386746Y-6750412D01*
X-4386024Y-6750855D01*
X-4383241Y-6752662D01*
X-4379577Y-6755180D01*
X-4375976Y-6757012D01*
X-4033043Y-6967159D01*
X-4029995Y-6969340D01*
X-4026528Y-6971236D01*
X-4024014Y-6972686D01*
X-4020384Y-6974893D01*
X-4016946Y-6976443D01*
X-3658723Y-7170941D01*
X-3656973Y-7172051D01*
X-3656881Y-7172094D01*
X-3652884Y-7174139D01*
X-3652739Y-7174220D01*
X-3650737Y-7175006D01*
X-3357334Y-7314956D01*
X-3282689Y-7350561D01*
X-3279245Y-7352516D01*
X-3276091Y-7353815D01*
X-3272830Y-7355267D01*
X-3268494Y-7357346D01*
X-3264463Y-7358628D01*
X-2889221Y-7514054D01*
X-2887456Y-7514935D01*
X-2886692Y-7515204D01*
X-2883423Y-7516458D01*
X-2880195Y-7517800D01*
X-2876404Y-7518844D01*
X-2668300Y-7592536D01*
X-2496606Y-7653335D01*
X-2492711Y-7655045D01*
X-2489844Y-7655869D01*
X-2485698Y-7657216D01*
X-2482503Y-7658378D01*
X-2478250Y-7659286D01*
X-2093558Y-7773237D01*
X-2089356Y-7774863D01*
X-2085776Y-7775685D01*
X-2081527Y-7776818D01*
X-2078066Y-7777871D01*
X-2073752Y-7778550D01*
X-1790607Y-7846534D01*
X-1682614Y-7872463D01*
X-1678937Y-7873626D01*
X-1675378Y-7874287D01*
X-1672194Y-7874963D01*
X-1667971Y-7875974D01*
X-1664028Y-7876391D01*
X-1303323Y-7943239D01*
X-1268368Y-7949717D01*
X-1264366Y-7950759D01*
X-1261392Y-7951131D01*
X-1257386Y-7951763D01*
X-1254054Y-7952399D01*
X-1249889Y-7952632D01*
X-851090Y-8005136D01*
X-846889Y-8006016D01*
X-843662Y-8006244D01*
X-839378Y-8006694D01*
X-835788Y-8007195D01*
X-831422Y-8007192D01*
X-430844Y-8038719D01*
X-426855Y-8039337D01*
X-423117Y-8039426D01*
X-419557Y-8039611D01*
X-413982Y-8040059D01*
X-409640Y-8039774D01*
X-4528Y-8050380D01*
X-2423Y-8050582D01*
X-2196Y-8050575D01*
X2206Y-8050573D01*
X5521Y-8050687D01*
X9831Y-8050241D01*
X411296Y-8039731D01*
X415440Y-8039948D01*
X419521Y-8039616D01*
X423158Y-8039425D01*
X427659Y-8039319D01*
X431820Y-8038642D01*
X832105Y-8007137D01*
X836403Y-8007117D01*
X839304Y-8006708D01*
X843740Y-8006241D01*
X848731Y-8005893D01*
X853348Y-8004838D01*
X1250232Y-7952587D01*
X1254131Y-7952358D01*
X1257705Y-7951693D01*
X1261063Y-7951161D01*
X1265765Y-7950545D01*
X1269750Y-7949460D01*
X1664586Y-7876287D01*
X1668573Y-7875847D01*
X1672040Y-7875006D01*
X1675541Y-7874259D01*
X1679700Y-7873495D01*
X1683604Y-7872224D01*
X1983420Y-7800239D01*
X2074129Y-7778460D01*
X2078486Y-7777759D01*
X2081342Y-7776881D01*
X2085948Y-7775652D01*
X2090489Y-7774622D01*
X2095035Y-7772799D01*
X2478453Y-7659225D01*
X2482476Y-7658359D01*
X2485981Y-7657104D01*
X2489530Y-7655950D01*
X2493969Y-7654650D01*
X2497868Y-7652887D01*
X2880721Y-7517314D01*
X2882706Y-7516766D01*
X2883194Y-7516561D01*
X2886948Y-7515122D01*
X2890980Y-7513721D01*
X2894879Y-7511709D01*
X3264500Y-7358612D01*
X3268588Y-7357310D01*
X3272762Y-7355303D01*
X3276165Y-7353787D01*
X3280439Y-7352033D01*
X3284142Y-7349867D01*
X3645367Y-7177565D01*
X3649414Y-7176029D01*
X3653068Y-7174021D01*
X3656724Y-7172165D01*
X3660929Y-7170198D01*
X3664721Y-7167683D01*
X3789378Y-7100000D01*
X15494318Y-7100000D01*
X15514955Y-7256760D01*
X15564124Y-7375463D01*
X15575464Y-7402841D01*
X15671718Y-7528282D01*
X15797159Y-7624536D01*
X15943238Y-7685044D01*
X16100000Y-7705682D01*
X16256762Y-7685044D01*
X16402841Y-7624536D01*
X16528282Y-7528282D01*
X16624536Y-7402841D01*
X16685044Y-7256762D01*
X16705682Y-7100000D01*
X16685044Y-6943238D01*
X16624536Y-6797159D01*
X16528282Y-6671718D01*
X16402841Y-6575464D01*
X16365506Y-6559999D01*
X16256760Y-6514955D01*
X16100000Y-6494318D01*
X15943239Y-6514955D01*
X15797160Y-6575463D01*
X15797157Y-6575465D01*
X15671718Y-6671718D01*
X15575465Y-6797157D01*
X15575463Y-6797160D01*
X15514955Y-6943239D01*
X15494318Y-7099999D01*
X15494318Y-7100000D01*
X3789378Y-7100000D01*
X4016721Y-6976563D01*
X4020679Y-6974788D01*
X4023343Y-6973124D01*
X4027263Y-6970866D01*
X4030949Y-6968914D01*
X4034696Y-6966144D01*
X4375070Y-6757564D01*
X4379038Y-6755588D01*
X4383004Y-6752834D01*
X4386310Y-6750688D01*
X4390257Y-6748297D01*
X4393659Y-6745499D01*
X4722849Y-6519255D01*
X4726716Y-6517064D01*
X4730359Y-6514237D01*
X4733660Y-6511842D01*
X4736766Y-6509737D01*
X4739966Y-6506851D01*
X5057463Y-6263220D01*
X5061238Y-6260819D01*
X5064835Y-6257710D01*
X5067922Y-6255207D01*
X5070958Y-6252899D01*
X5073941Y-6249917D01*
X5378233Y-5990034D01*
X5381725Y-5987551D01*
X5385533Y-5983928D01*
X5388206Y-5981526D01*
X5391510Y-5978722D01*
X5394322Y-5975583D01*
X5685218Y-5699534D01*
X5688668Y-5696745D01*
X5690963Y-5694281D01*
X5694307Y-5690950D01*
X5697178Y-5688295D01*
X5700130Y-5684590D01*
X5970195Y-5400000D01*
X9494318Y-5400000D01*
X9514955Y-5556760D01*
X9574151Y-5699670D01*
X9575464Y-5702841D01*
X9671718Y-5828282D01*
X9797159Y-5924536D01*
X9943238Y-5985044D01*
X10100000Y-6005682D01*
X10256762Y-5985044D01*
X10402841Y-5924536D01*
X10528282Y-5828282D01*
X10624536Y-5702841D01*
X10685044Y-5556762D01*
X10705682Y-5400000D01*
X10703957Y-5386901D01*
X10685044Y-5243239D01*
X10678849Y-5228281D01*
X10624536Y-5097159D01*
X10528282Y-4971718D01*
X10434817Y-4900000D01*
X13394318Y-4900000D01*
X13414955Y-5056760D01*
X13471934Y-5194318D01*
X13475464Y-5202841D01*
X13571718Y-5328282D01*
X13697159Y-5424536D01*
X13843238Y-5485044D01*
X13920054Y-5495157D01*
X13999999Y-5505682D01*
X13999999Y-5505681D01*
X14000000Y-5505682D01*
X14156762Y-5485044D01*
X14302841Y-5424536D01*
X14428282Y-5328282D01*
X14524536Y-5202841D01*
X14585044Y-5056762D01*
X14605682Y-4900000D01*
X14592517Y-4800000D01*
X30294318Y-4800000D01*
X30314955Y-4956760D01*
X30373110Y-5097157D01*
X30375464Y-5102841D01*
X30471718Y-5228282D01*
X30597159Y-5324536D01*
X30743238Y-5385044D01*
X30812983Y-5394226D01*
X30899999Y-5405682D01*
X30899999Y-5405681D01*
X30900000Y-5405682D01*
X31056762Y-5385044D01*
X31202841Y-5324536D01*
X31328282Y-5228282D01*
X31424536Y-5102841D01*
X31485044Y-4956762D01*
X31505682Y-4800000D01*
X31497819Y-4740278D01*
X31485044Y-4643239D01*
X31477297Y-4624534D01*
X31446424Y-4550000D01*
X34044318Y-4550000D01*
X34064955Y-4706760D01*
X34121934Y-4844318D01*
X34125464Y-4852841D01*
X34221718Y-4978282D01*
X34347159Y-5074536D01*
X34493238Y-5135044D01*
X34650000Y-5155682D01*
X34806762Y-5135044D01*
X34952841Y-5074536D01*
X35078282Y-4978282D01*
X35174536Y-4852841D01*
X35235044Y-4706762D01*
X35255682Y-4550000D01*
X35254962Y-4544534D01*
X35242291Y-4448282D01*
X35235044Y-4393238D01*
X35174536Y-4247159D01*
X35078282Y-4121718D01*
X34952841Y-4025464D01*
X34952511Y-4025327D01*
X34806760Y-3964955D01*
X34650000Y-3944318D01*
X34493239Y-3964955D01*
X34347160Y-4025463D01*
X34347157Y-4025465D01*
X34221718Y-4121718D01*
X34125465Y-4247157D01*
X34125463Y-4247160D01*
X34064955Y-4393239D01*
X34044318Y-4549999D01*
X34044318Y-4550000D01*
X31446424Y-4550000D01*
X31424536Y-4497159D01*
X31328282Y-4371718D01*
X31202841Y-4275464D01*
X31193798Y-4271718D01*
X31056760Y-4214955D01*
X30900000Y-4194318D01*
X30743239Y-4214955D01*
X30597160Y-4275463D01*
X30597157Y-4275465D01*
X30471718Y-4371718D01*
X30375465Y-4497157D01*
X30375463Y-4497160D01*
X30314955Y-4643239D01*
X30294318Y-4799999D01*
X30294318Y-4800000D01*
X14592517Y-4800000D01*
X14585044Y-4743238D01*
X14524536Y-4597159D01*
X14428282Y-4471718D01*
X14302841Y-4375464D01*
X14293798Y-4371718D01*
X14156760Y-4314955D01*
X14000000Y-4294318D01*
X13843239Y-4314955D01*
X13697160Y-4375463D01*
X13697157Y-4375465D01*
X13571718Y-4471718D01*
X13475465Y-4597157D01*
X13475463Y-4597160D01*
X13414955Y-4743239D01*
X13394318Y-4899999D01*
X13394318Y-4900000D01*
X10434817Y-4900000D01*
X10402841Y-4875464D01*
X10377473Y-4864956D01*
X10256760Y-4814955D01*
X10100000Y-4794318D01*
X9943239Y-4814955D01*
X9797160Y-4875463D01*
X9797157Y-4875465D01*
X9671718Y-4971718D01*
X9575465Y-5097157D01*
X9575463Y-5097160D01*
X9514955Y-5243239D01*
X9494318Y-5399999D01*
X9494318Y-5400000D01*
X5970195Y-5400000D01*
X5975684Y-5394216D01*
X5978946Y-5391286D01*
X5981287Y-5388502D01*
X5984210Y-5385259D01*
X5987208Y-5382155D01*
X5989874Y-5378421D01*
X6249383Y-5074565D01*
X6252600Y-5071390D01*
X6255090Y-5068087D01*
X6257818Y-5064715D01*
X6260170Y-5062003D01*
X6262545Y-5058342D01*
X6506618Y-4740270D01*
X6509598Y-4736984D01*
X6511794Y-4733736D01*
X6514298Y-4730288D01*
X6516769Y-4727117D01*
X6518978Y-4723252D01*
X6745889Y-4393091D01*
X6748616Y-4389739D01*
X6750660Y-4386362D01*
X6752916Y-4382894D01*
X6755145Y-4379701D01*
X6757129Y-4375782D01*
X6926126Y-4100000D01*
X10694318Y-4100000D01*
X10714955Y-4256760D01*
X10773110Y-4397157D01*
X10775464Y-4402841D01*
X10871718Y-4528282D01*
X10997159Y-4624536D01*
X11143238Y-4685044D01*
X11300000Y-4705682D01*
X11456762Y-4685044D01*
X11602841Y-4624536D01*
X11728282Y-4528282D01*
X11824536Y-4402841D01*
X11885044Y-4256762D01*
X11905682Y-4100000D01*
X11896028Y-4026674D01*
X11885044Y-3943239D01*
X11878943Y-3928508D01*
X11825713Y-3800000D01*
X19394318Y-3800000D01*
X19414955Y-3956760D01*
X19471934Y-4094318D01*
X19475464Y-4102841D01*
X19571718Y-4228282D01*
X19697159Y-4324536D01*
X19843238Y-4385044D01*
X20000000Y-4405682D01*
X20156762Y-4385044D01*
X20302841Y-4324536D01*
X20428282Y-4228282D01*
X20524536Y-4102841D01*
X20585044Y-3956762D01*
X20605682Y-3800000D01*
X20585044Y-3643238D01*
X20524536Y-3497159D01*
X20428282Y-3371718D01*
X20302841Y-3275464D01*
X20301526Y-3274919D01*
X20156760Y-3214955D01*
X20000000Y-3194318D01*
X19843239Y-3214955D01*
X19697160Y-3275463D01*
X19697157Y-3275465D01*
X19571718Y-3371718D01*
X19475465Y-3497157D01*
X19475463Y-3497160D01*
X19414955Y-3643239D01*
X19394318Y-3799999D01*
X19394318Y-3800000D01*
X11825713Y-3800000D01*
X11824536Y-3797159D01*
X11728282Y-3671718D01*
X11602841Y-3575464D01*
X11563775Y-3559282D01*
X11456760Y-3514955D01*
X11300000Y-3494318D01*
X11143239Y-3514955D01*
X10997160Y-3575463D01*
X10997157Y-3575465D01*
X10871718Y-3671718D01*
X10775465Y-3797157D01*
X10775463Y-3797160D01*
X10714955Y-3943239D01*
X10694318Y-4099999D01*
X10694318Y-4100000D01*
X6926126Y-4100000D01*
X6966311Y-4034423D01*
X6968836Y-4030990D01*
X6971071Y-4026848D01*
X6972891Y-4023696D01*
X6974845Y-4020524D01*
X6976507Y-4016825D01*
X7168256Y-3663664D01*
X7170720Y-3659872D01*
X7171956Y-3657200D01*
X7174332Y-3652571D01*
X7175300Y-3650861D01*
X7176947Y-3646666D01*
X7349972Y-3283920D01*
X7352177Y-3280135D01*
X7353716Y-3276355D01*
X7355413Y-3272549D01*
X7357209Y-3268855D01*
X7358565Y-3264614D01*
X7361818Y-3256762D01*
X7408036Y-3145176D01*
X7452583Y-3089896D01*
X7519946Y-3067474D01*
X7588738Y-3085032D01*
X7637117Y-3136993D01*
X7649367Y-3176948D01*
X7663955Y-3287760D01*
X7719421Y-3421665D01*
X7724464Y-3433841D01*
X7820718Y-3559282D01*
X7946159Y-3655536D01*
X8092238Y-3716044D01*
X8249000Y-3736682D01*
X8405762Y-3716044D01*
X8551841Y-3655536D01*
X8677282Y-3559282D01*
X8773536Y-3433841D01*
X8834044Y-3287762D01*
X8854682Y-3131000D01*
X8850749Y-3101129D01*
X8834044Y-2974239D01*
X8822924Y-2947391D01*
X8773536Y-2828159D01*
X8677282Y-2702718D01*
X8551841Y-2606464D01*
X8522451Y-2594290D01*
X8405760Y-2545955D01*
X8249000Y-2525318D01*
X8092239Y-2545955D01*
X7946160Y-2606463D01*
X7946152Y-2606468D01*
X7828128Y-2697031D01*
X7761908Y-2722631D01*
X7692359Y-2708366D01*
X7641563Y-2658764D01*
X7625648Y-2589575D01*
X7632650Y-2555016D01*
X7652915Y-2497788D01*
X7654815Y-2493577D01*
X7655819Y-2490046D01*
X7657306Y-2485478D01*
X7658251Y-2482912D01*
X7659189Y-2478574D01*
X7772801Y-2095030D01*
X7774622Y-2090489D01*
X7775652Y-2085948D01*
X7776881Y-2081342D01*
X7777759Y-2078486D01*
X7778460Y-2074129D01*
X7827610Y-1869420D01*
X7872224Y-1683604D01*
X7873495Y-1679700D01*
X7874259Y-1675541D01*
X7875006Y-1672040D01*
X7875847Y-1668573D01*
X7876287Y-1664586D01*
X7949503Y-1269517D01*
X7950656Y-1265255D01*
X7951118Y-1261510D01*
X7951789Y-1257272D01*
X7951853Y-1256939D01*
X7951980Y-1254845D01*
X7972043Y-1102453D01*
X21787591Y-1102453D01*
X21808228Y-1259213D01*
X21867769Y-1402956D01*
X21868737Y-1405294D01*
X21964991Y-1530735D01*
X22090432Y-1626989D01*
X22236511Y-1687497D01*
X22393273Y-1708135D01*
X22550035Y-1687497D01*
X22696114Y-1626989D01*
X22821555Y-1530735D01*
X22917809Y-1405294D01*
X22978317Y-1259215D01*
X22998955Y-1102453D01*
X22998500Y-1099000D01*
X22982608Y-978282D01*
X22978317Y-945691D01*
X22917809Y-799612D01*
X22821555Y-674171D01*
X22696114Y-577917D01*
X22686086Y-573763D01*
X22550033Y-517408D01*
X22393273Y-496771D01*
X22236512Y-517408D01*
X22090433Y-577916D01*
X22090430Y-577918D01*
X21964991Y-674171D01*
X21868738Y-799610D01*
X21868736Y-799613D01*
X21808228Y-945692D01*
X21787591Y-1102452D01*
X21787591Y-1102453D01*
X7972043Y-1102453D01*
X7983057Y-1018796D01*
X8004998Y-852132D01*
X8005964Y-847709D01*
X8006241Y-843741D01*
X8006708Y-839302D01*
X8007117Y-836400D01*
X8007138Y-832101D01*
X8009695Y-799612D01*
X8038642Y-431820D01*
X8039319Y-427659D01*
X8039425Y-423157D01*
X8039616Y-419522D01*
X8039999Y-414801D01*
X8039750Y-410546D01*
X8050241Y-9829D01*
X8050687Y-5521D01*
X8050573Y-2206D01*
X8050574Y0D01*
X35694318Y0D01*
X35714955Y-156760D01*
X35769383Y-288159D01*
X35775464Y-302841D01*
X35871718Y-428282D01*
X35997159Y-524536D01*
X36143238Y-585044D01*
X36300000Y-605682D01*
X36456762Y-585044D01*
X36602841Y-524536D01*
X36728282Y-428282D01*
X36824536Y-302841D01*
X36885044Y-156762D01*
X36905682Y0D01*
X36905335Y2632D01*
X36895089Y80463D01*
X36885044Y156762D01*
X36824536Y302841D01*
X36728282Y428282D01*
X36602841Y524536D01*
X36578149Y534764D01*
X36456760Y585045D01*
X36300000Y605682D01*
X36143239Y585045D01*
X35997160Y524537D01*
X35997157Y524535D01*
X35871718Y428282D01*
X35775465Y302843D01*
X35775463Y302840D01*
X35714955Y156761D01*
X35694318Y1D01*
X35694318Y0D01*
X8050574Y0D01*
X8050575Y2196D01*
X8050582Y2423D01*
X8050380Y4528D01*
X8049780Y27464D01*
X8039774Y409640D01*
X8040059Y413982D01*
X8039611Y419557D01*
X8039426Y423117D01*
X8039337Y426855D01*
X8038719Y430844D01*
X8007214Y831142D01*
X8007226Y835167D01*
X8006617Y839839D01*
X8006268Y843218D01*
X8005963Y847233D01*
X8005114Y851255D01*
X7972365Y1100000D01*
X21894318Y1100000D01*
X21914955Y943240D01*
X21959721Y835167D01*
X21975464Y797159D01*
X22071718Y671718D01*
X22197159Y575464D01*
X22343238Y514956D01*
X22500000Y494318D01*
X22656762Y514956D01*
X22802841Y575464D01*
X22928282Y671718D01*
X23024536Y797159D01*
X23085044Y943238D01*
X23105682Y1100000D01*
X23085044Y1256762D01*
X23024536Y1402841D01*
X22928282Y1528282D01*
X22802841Y1624536D01*
X22707512Y1664023D01*
X22656760Y1685045D01*
X22500000Y1705682D01*
X22343239Y1685045D01*
X22197160Y1624537D01*
X22197157Y1624535D01*
X22071718Y1528282D01*
X21975465Y1402843D01*
X21975463Y1402840D01*
X21914955Y1256761D01*
X21894318Y1100001D01*
X21894318Y1100000D01*
X7972365Y1100000D01*
X7952632Y1249888D01*
X7952399Y1254054D01*
X7951763Y1257386D01*
X7951131Y1261392D01*
X7950759Y1264366D01*
X7949717Y1268368D01*
X7939276Y1324705D01*
X7876391Y1664028D01*
X7875974Y1667971D01*
X7874963Y1672194D01*
X7874287Y1675378D01*
X7873626Y1678937D01*
X7872463Y1682614D01*
X7832319Y1849809D01*
X7778550Y2073752D01*
X7777871Y2078066D01*
X7776818Y2081527D01*
X7775685Y2085776D01*
X7774863Y2089356D01*
X7773237Y2093559D01*
X7764433Y2123282D01*
X7659286Y2478250D01*
X7658378Y2482503D01*
X7657216Y2485698D01*
X7655869Y2489844D01*
X7655045Y2492711D01*
X7653335Y2496606D01*
X7530588Y2843238D01*
X7528194Y2850000D01*
X8644318Y2850000D01*
X8664955Y2693240D01*
X8664956Y2693238D01*
X8725464Y2547159D01*
X8821718Y2421718D01*
X8947159Y2325464D01*
X9093238Y2264956D01*
X9250000Y2244318D01*
X9406762Y2264956D01*
X9552841Y2325464D01*
X9678282Y2421718D01*
X9774536Y2547159D01*
X9835044Y2693238D01*
X9855682Y2850000D01*
X9850851Y2886692D01*
X9835044Y3006761D01*
X9808138Y3071719D01*
X9774536Y3152841D01*
X9678282Y3278282D01*
X9552841Y3374536D01*
X9406762Y3435044D01*
X9406760Y3435045D01*
X9250000Y3455682D01*
X9093239Y3435045D01*
X8947160Y3374537D01*
X8947157Y3374535D01*
X8821718Y3278282D01*
X8725465Y3152843D01*
X8725463Y3152840D01*
X8664955Y3006761D01*
X8644318Y2850001D01*
X8644318Y2850000D01*
X7528194Y2850000D01*
X7518844Y2876404D01*
X7517800Y2880195D01*
X7516458Y2883423D01*
X7515204Y2886692D01*
X7514935Y2887456D01*
X7514054Y2889221D01*
X7358664Y3264376D01*
X7357428Y3268274D01*
X7355264Y3272824D01*
X7353822Y3276092D01*
X7353545Y3276770D01*
X7352528Y3278565D01*
X7246906Y3500000D01*
X25794318Y3500000D01*
X25814955Y3343240D01*
X25847625Y3264369D01*
X25875464Y3197159D01*
X25971718Y3071718D01*
X26097159Y2975464D01*
X26243238Y2914956D01*
X26321619Y2904637D01*
X26399999Y2894318D01*
X26399999Y2894319D01*
X26400000Y2894318D01*
X26556762Y2914956D01*
X26702841Y2975464D01*
X26828282Y3071718D01*
X26924536Y3197159D01*
X26985044Y3343238D01*
X27005682Y3500000D01*
X26985044Y3656762D01*
X26924536Y3802841D01*
X26828282Y3928282D01*
X26702841Y4024536D01*
X26702354Y4024738D01*
X26556760Y4085045D01*
X26400000Y4105682D01*
X26243239Y4085045D01*
X26097160Y4024537D01*
X26097157Y4024535D01*
X25971718Y3928282D01*
X25875465Y3802843D01*
X25875463Y3802840D01*
X25814955Y3656761D01*
X25794318Y3500001D01*
X25794318Y3500000D01*
X7246906Y3500000D01*
X7175006Y3650737D01*
X7174220Y3652739D01*
X7174139Y3652884D01*
X7172094Y3656881D01*
X7172051Y3656973D01*
X7170941Y3658723D01*
X7038397Y3902841D01*
X6976442Y4016947D01*
X6974893Y4020384D01*
X6972686Y4024014D01*
X6971236Y4026528D01*
X6969340Y4029995D01*
X6967159Y4033043D01*
X6757012Y4375976D01*
X6755180Y4379577D01*
X6752662Y4383241D01*
X6750855Y4386024D01*
X6750412Y4386746D01*
X6749212Y4388261D01*
X6518823Y4723481D01*
X6516783Y4727031D01*
X6514029Y4730617D01*
X6512039Y4733357D01*
X6511580Y4734026D01*
X6510288Y4735489D01*
X6307316Y5000000D01*
X28794318Y5000000D01*
X28814955Y4843240D01*
X28863091Y4727031D01*
X28875464Y4697159D01*
X28971718Y4571718D01*
X29097159Y4475464D01*
X29243238Y4414956D01*
X29400000Y4394318D01*
X29556762Y4414956D01*
X29702841Y4475464D01*
X29828282Y4571718D01*
X29924536Y4697159D01*
X29985044Y4843238D01*
X30005682Y5000000D01*
X29996948Y5066338D01*
X29992745Y5098265D01*
X29985044Y5156762D01*
X29924536Y5302841D01*
X29828282Y5428282D01*
X29702841Y5524536D01*
X29579891Y5575464D01*
X29556760Y5585045D01*
X29400000Y5605682D01*
X29243239Y5585045D01*
X29097160Y5524537D01*
X29097157Y5524535D01*
X28971718Y5428282D01*
X28875465Y5302843D01*
X28875463Y5302840D01*
X28814955Y5156761D01*
X28794318Y5000001D01*
X28794318Y5000000D01*
X6307316Y5000000D01*
X6262302Y5058661D01*
X6260120Y5062002D01*
X6257520Y5065042D01*
X6255377Y5067690D01*
X6254819Y5068418D01*
X6253428Y5069832D01*
X6179185Y5156762D01*
X5989574Y5378776D01*
X5987160Y5382129D01*
X5983855Y5385608D01*
X5981592Y5388122D01*
X5981133Y5388660D01*
X5979731Y5389955D01*
X5712348Y5671719D01*
X5699670Y5685079D01*
X5697034Y5688350D01*
X5693894Y5691312D01*
X5691330Y5693874D01*
X5690924Y5694304D01*
X5689409Y5695560D01*
X5393693Y5976183D01*
X5391072Y5979069D01*
X5388088Y5981620D01*
X5385658Y5983809D01*
X5382984Y5986347D01*
X5379853Y5988654D01*
X5069767Y6253489D01*
X5068493Y6254740D01*
X5067360Y6255621D01*
X5065376Y6257230D01*
X5064431Y6258028D01*
X5062936Y6259026D01*
X4735561Y6510235D01*
X4734185Y6511453D01*
X4733155Y6512167D01*
X4730841Y6513852D01*
X4727556Y6516359D01*
X4724274Y6518278D01*
X4392780Y6746106D01*
X4389851Y6748474D01*
X4385760Y6751009D01*
X4383508Y6752472D01*
X4379969Y6754880D01*
X4376684Y6756578D01*
X4033651Y6966787D01*
X4030451Y6969105D01*
X4026674Y6971160D01*
X4023880Y6972774D01*
X4023376Y6973083D01*
X4021701Y6973862D01*
X3663483Y7168358D01*
X3660357Y7170381D01*
X3656087Y7172447D01*
X3653660Y7173687D01*
X3652508Y7174308D01*
X3650752Y7174999D01*
X3282954Y7350436D01*
X3279846Y7352211D01*
X3275521Y7354041D01*
X3273353Y7355007D01*
X3271984Y7355648D01*
X3270291Y7356216D01*
X2889231Y7514052D01*
X2887621Y7514855D01*
X2886286Y7515337D01*
X2883830Y7516282D01*
X2879812Y7517926D01*
X2876229Y7518907D01*
X2496480Y7653382D01*
X2493241Y7654801D01*
X2488857Y7656137D01*
X2486657Y7656852D01*
X2485595Y7657219D01*
X2483943Y7657601D01*
X2093428Y7773278D01*
X2089643Y7774738D01*
X2085237Y7775795D01*
X2082019Y7776657D01*
X2081494Y7776813D01*
X2079665Y7777133D01*
X1678093Y7873551D01*
X1676424Y7874074D01*
X1674792Y7874390D01*
X1672745Y7874822D01*
X1671730Y7875054D01*
X1670198Y7875250D01*
X1455946Y7914956D01*
X1263769Y7950572D01*
X1262132Y7950993D01*
X1260321Y7951252D01*
X1258418Y7951553D01*
X1257221Y7951762D01*
X1255638Y7951878D01*
X851594Y8005072D01*
X847761Y8005891D01*
X842986Y8006280D01*
X840020Y8006593D01*
X839395Y8006674D01*
X837620Y8006707D01*
X425745Y8039124D01*
X424037Y8039377D01*
X422380Y8039435D01*
X420228Y8039548D01*
X418789Y8039649D01*
X417089Y8039582D01*
X4010Y8050397D01*
X2234Y8050553D01*
X1447Y8050535D01*
X-1467Y8050535D01*
X-1925Y8050546D01*
X-3630Y8050406D01*
X-411586Y8039726D01*
X-415089Y8039902D01*
X-420269Y8039544D01*
X-422354Y8039435D01*
X-423687Y8039388D01*
X-425316Y8039158D01*
X-837348Y8006729D01*
X-839144Y8006703D01*
X-840106Y8006580D01*
X-842922Y8006284D01*
X-843819Y8006211D01*
X-845582Y8005864D01*
X-911705Y7997158D01*
X-1255563Y7951888D01*
X-1257264Y7951766D01*
X-1258102Y7951615D01*
X-1260650Y7951211D01*
X-1261476Y7951098D01*
X-1263125Y7950691D01*
X-1383407Y7928400D01*
X-1670015Y7875285D01*
X-1671521Y7875097D01*
X-1672943Y7874776D01*
X-1674682Y7874410D01*
X-1676068Y7874139D01*
X-1677625Y7873664D01*
X-2079547Y7777163D01*
X-2081348Y7776851D01*
X-2082220Y7776595D01*
X-2085067Y7775831D01*
X-2086132Y7775573D01*
X-2087878Y7774922D01*
X-2484012Y7657582D01*
X-2485718Y7657186D01*
X-2486352Y7656963D01*
X-2489156Y7656054D01*
X-2489950Y7655817D01*
X-2491631Y7655099D01*
X-2876116Y7518947D01*
X-2879541Y7518014D01*
X-2884081Y7516177D01*
X-2886035Y7515424D01*
X-2887056Y7515051D01*
X-2888467Y7514370D01*
X-3270434Y7356158D01*
X-3272055Y7355610D01*
X-3273433Y7354968D01*
X-3275448Y7354072D01*
X-3276605Y7353583D01*
X-3278092Y7352756D01*
X-3282955Y7350436D01*
X-3651935Y7174438D01*
X-3653444Y7173808D01*
X-3653453Y7173802D01*
X-3656241Y7172381D01*
X-3656717Y7172154D01*
X-3658246Y7171202D01*
X-4021933Y6973738D01*
X-4023317Y6973088D01*
X-4024555Y6972351D01*
X-4025961Y6971539D01*
X-4027418Y6970724D01*
X-4028709Y6969817D01*
X-4381260Y6753776D01*
X-4382685Y6753018D01*
X-4383742Y6752307D01*
X-4385468Y6751188D01*
X-4386531Y6750524D01*
X-4387833Y6749509D01*
X-4728483Y6515388D01*
X-4729952Y6514514D01*
X-4731100Y6513648D01*
X-4732877Y6512357D01*
X-4733858Y6511671D01*
X-4735121Y6510573D01*
X-5063199Y6258823D01*
X-5064592Y6257883D01*
X-5065488Y6257129D01*
X-5067231Y6255717D01*
X-5068271Y6254905D01*
X-5069485Y6253727D01*
X-5220340Y6124889D01*
X-5383531Y5985516D01*
X-5384925Y5984478D01*
X-5385991Y5983482D01*
X-5387681Y5981961D01*
X-5388518Y5981235D01*
X-5389668Y5980005D01*
X-5689617Y5695365D01*
X-5690942Y5694257D01*
X-5691666Y5693503D01*
X-5693481Y5691690D01*
X-5694222Y5690981D01*
X-5695351Y5689632D01*
X-5980008Y5389667D01*
X-5981229Y5388526D01*
X-5981961Y5387681D01*
X-5983482Y5385991D01*
X-5984482Y5384920D01*
X-5985520Y5383525D01*
X-6253928Y5069250D01*
X-6255049Y5068084D01*
X-6255839Y5067075D01*
X-6257014Y5065620D01*
X-6258132Y5064279D01*
X-6259040Y5062917D01*
X-6510850Y4734761D01*
X-6511841Y4733604D01*
X-6512425Y4732775D01*
X-6513589Y4731177D01*
X-6514688Y4729719D01*
X-6515577Y4728208D01*
X-6749389Y4388007D01*
X-6750391Y4386731D01*
X-6751221Y4385409D01*
X-6752248Y4383829D01*
X-6753325Y4382225D01*
X-6754113Y4380709D01*
X-6969818Y4028708D01*
X-6970798Y4027312D01*
X-6971324Y4026359D01*
X-6972565Y4024213D01*
X-6973072Y4023376D01*
X-6973801Y4021816D01*
X-7171124Y3658391D01*
X-7171971Y3657039D01*
X-7172590Y3655779D01*
X-7173514Y3653974D01*
X-7174330Y3652443D01*
X-7174981Y3650793D01*
X-7352885Y3277824D01*
X-7353799Y3276161D01*
X-7355338Y3272695D01*
X-7355491Y3272380D01*
X-7356121Y3270524D01*
X-7514370Y2888467D01*
X-7515051Y2887056D01*
X-7515424Y2886035D01*
X-7516177Y2884081D01*
X-7518014Y2879540D01*
X-7518947Y2876117D01*
X-7655131Y2491543D01*
X-7655761Y2490064D01*
X-7656201Y2488636D01*
X-7656777Y2486863D01*
X-7657258Y2485455D01*
X-7657619Y2483887D01*
X-7774922Y2087878D01*
X-7775573Y2086132D01*
X-7775831Y2085067D01*
X-7776595Y2082220D01*
X-7776851Y2081348D01*
X-7777163Y2079547D01*
X-7826099Y1875729D01*
X-7861452Y1814161D01*
X-7924479Y1781480D01*
X-7995170Y1788061D01*
X-8051081Y1831817D01*
X-8065022Y1856920D01*
X-8125464Y2002841D01*
X-8221718Y2128282D01*
X-8347159Y2224536D01*
X-8394916Y2244318D01*
X-8493240Y2285045D01*
X-8650000Y2305682D01*
X-8806761Y2285045D01*
X-8952840Y2224537D01*
X-8952843Y2224535D01*
X-9078282Y2128282D01*
X-9174535Y2002843D01*
X-9174537Y2002840D01*
X-9235045Y1856761D01*
X-9255682Y1700001D01*
X-9255682Y1700000D01*
X-9235045Y1543240D01*
X-9176890Y1402843D01*
X-9174536Y1397159D01*
X-9078282Y1271718D01*
X-8952841Y1175464D01*
X-8806762Y1114956D01*
X-8728382Y1104637D01*
X-8650001Y1094318D01*
X-8650001Y1094319D01*
X-8650000Y1094318D01*
X-8493238Y1114956D01*
X-8347159Y1175464D01*
X-8221718Y1271718D01*
X-8179698Y1326481D01*
X-8122364Y1368345D01*
X-8051493Y1372567D01*
X-7989590Y1337804D01*
X-7956308Y1275092D01*
X-7954816Y1233328D01*
X-8000667Y885056D01*
X-8029389Y820128D01*
X-8088655Y781037D01*
X-8125589Y775502D01*
X-11273500Y775502D01*
X-11341621Y795504D01*
X-11388114Y849160D01*
X-11399500Y901502D01*
X-11399500Y998473D01*
X-11399469Y1000017D01*
X-11399731Y1001492D01*
X-11450466Y1321753D01*
X-11450760Y1324352D01*
X-11450927Y1324878D01*
X-11452165Y1327075D01*
X-11598904Y1615137D01*
X-11599973Y1617462D01*
X-11600041Y1617555D01*
X-11601899Y1619274D01*
X-11830695Y1848072D01*
X-11832440Y1849959D01*
X-11834768Y1851034D01*
X-12123061Y1997931D01*
X-12125067Y1999054D01*
X-12125313Y1999160D01*
X-12125445Y1999190D01*
X-12127654Y1999460D01*
X-12337453Y2032683D01*
X-12447539Y2050116D01*
X-12449935Y2050590D01*
X-12452110Y2050173D01*
X-12772384Y1999454D01*
X-12774246Y1999226D01*
X-12774657Y1999130D01*
X-12775106Y1998941D01*
X-12776757Y1998024D01*
X-13065586Y1850855D01*
X-13067544Y1849936D01*
X-13067612Y1849878D01*
X-13069132Y1848246D01*
X-13298355Y1619024D01*
X-13299942Y1617540D01*
X-13300079Y1617313D01*
X-13300993Y1615343D01*
X-13448017Y1326722D01*
X-13448930Y1325079D01*
X-13449119Y1324628D01*
X-13449215Y1324215D01*
X-13449444Y1322350D01*
X-13500232Y1001733D01*
X-13500544Y1000019D01*
X-13500500Y998239D01*
X-13500500Y569237D01*
X-13503802Y557993D01*
X-13502005Y554179D01*
X-13500500Y534764D01*
X-13500500Y-573763D01*
X-13503802Y-585007D01*
X-13502005Y-588821D01*
X-13500500Y-608236D01*
X-13500500Y-998344D01*
X-13500540Y-1000079D01*
X-13500212Y-1001857D01*
X-13468566Y-1201630D01*
X-13451390Y-1310062D01*
X-13449448Y-1322317D01*
X-13449178Y-1324532D01*
X-13449149Y-1324657D01*
X-13449042Y-1324904D01*
X-13447924Y-1326902D01*
X-13301057Y-1615215D01*
X-13299993Y-1617521D01*
X-13298136Y-1619240D01*
X-13252803Y-1664574D01*
X-13069306Y-1848073D01*
X-13067603Y-1849914D01*
X-13067515Y-1849979D01*
X-13065275Y-1851014D01*
X-13042894Y-1862418D01*
X-13014396Y-1876939D01*
X-12962781Y-1925688D01*
X-12945716Y-1994603D01*
X-12968618Y-2061804D01*
X-13002685Y-2092922D01*
X-13002290Y-2093437D01*
X-13008275Y-2098028D01*
X-13008593Y-2098320D01*
X-13008839Y-2098461D01*
X-13073335Y-2147951D01*
X-13139555Y-2173551D01*
X-13209104Y-2159286D01*
X-13250000Y-2124693D01*
X-13293718Y-2067718D01*
X-13419159Y-1971464D01*
X-13443870Y-1961228D01*
X-13565240Y-1910955D01*
X-13662562Y-1898143D01*
X-13727489Y-1869420D01*
X-13766580Y-1810155D01*
X-13771037Y-1756778D01*
X-13751318Y-1607000D01*
X-13771956Y-1450238D01*
X-13832464Y-1304159D01*
X-13849001Y-1282608D01*
X-13920598Y-1189300D01*
X-13928718Y-1178718D01*
X-13928719Y-1178717D01*
X-13931031Y-1175704D01*
X-13956632Y-1109484D01*
X-13942367Y-1039935D01*
X-13931031Y-1022296D01*
X-13928345Y-1018796D01*
X-13832464Y-893841D01*
X-13771956Y-747762D01*
X-13751423Y-591790D01*
X-13751196Y-591278D01*
X-13751422Y-590209D01*
X-13771956Y-434239D01*
X-13774289Y-428605D01*
X-13832464Y-288159D01*
X-13928718Y-162718D01*
X-13985092Y-119461D01*
X-14026957Y-62125D01*
X-14031179Y8746D01*
X-13996415Y70649D01*
X-13985097Y80458D01*
X-13928718Y123718D01*
X-13832464Y249159D01*
X-13771956Y395238D01*
X-13751423Y551210D01*
X-13751196Y551722D01*
X-13751422Y552791D01*
X-13771956Y708761D01*
X-13781840Y732625D01*
X-13832464Y854841D01*
X-13928718Y980282D01*
X-13928720Y980284D01*
X-13928721Y980285D01*
X-14006590Y1040036D01*
X-14048457Y1097374D01*
X-14052679Y1168245D01*
X-14017915Y1230147D01*
X-14006593Y1239958D01*
X-13971718Y1266718D01*
X-13875464Y1392159D01*
X-13814956Y1538238D01*
X-13794318Y1695000D01*
X-13814956Y1851762D01*
X-13875464Y1997841D01*
X-13971718Y2123282D01*
X-14097159Y2219536D01*
X-14109227Y2224535D01*
X-14243240Y2280045D01*
X-14400000Y2300682D01*
X-14556761Y2280045D01*
X-14702840Y2219537D01*
X-14702843Y2219535D01*
X-14828282Y2123282D01*
X-14924535Y1997843D01*
X-14924537Y1997840D01*
X-14985045Y1851761D01*
X-15005682Y1695001D01*
X-15005682Y1695000D01*
X-39955133Y1695000D01*
X-39944747Y2091780D01*
X-39944575Y2095047D01*
X-39934778Y2219537D01*
X-39826138Y3600000D01*
X-29855682Y3600000D01*
X-29835045Y3443240D01*
X-29776890Y3302843D01*
X-29774536Y3297159D01*
X-29678282Y3171718D01*
X-29552841Y3075464D01*
X-29406762Y3014956D01*
X-29344522Y3006762D01*
X-29250001Y2994318D01*
X-29250001Y2994319D01*
X-29250000Y2994318D01*
X-29206841Y3000000D01*
X-13305682Y3000000D01*
X-13285045Y2843240D01*
X-13285044Y2843238D01*
X-13224536Y2697159D01*
X-13128282Y2571718D01*
X-13002841Y2475464D01*
X-12856762Y2414956D01*
X-12700000Y2394318D01*
X-12543238Y2414956D01*
X-12397159Y2475464D01*
X-12271718Y2571718D01*
X-12175464Y2697159D01*
X-12114956Y2843238D01*
X-12094318Y3000000D01*
X-11255682Y3000000D01*
X-11235045Y2843240D01*
X-11235044Y2843238D01*
X-11174536Y2697159D01*
X-11078282Y2571718D01*
X-10952841Y2475464D01*
X-10806762Y2414956D01*
X-10728382Y2404637D01*
X-10650001Y2394318D01*
X-10650001Y2394319D01*
X-10650000Y2394318D01*
X-10493238Y2414956D01*
X-10347159Y2475464D01*
X-10221718Y2571718D01*
X-10125464Y2697159D01*
X-10064956Y2843238D01*
X-10044318Y3000000D01*
X-10064956Y3156762D01*
X-10125464Y3302841D01*
X-10221718Y3428282D01*
X-10347159Y3524536D01*
X-10493238Y3585044D01*
X-10493240Y3585045D01*
X-10650000Y3605682D01*
X-10806761Y3585045D01*
X-10952840Y3524537D01*
X-10952843Y3524535D01*
X-11078282Y3428282D01*
X-11174535Y3302843D01*
X-11174537Y3302840D01*
X-11235045Y3156761D01*
X-11255682Y3000001D01*
X-11255682Y3000000D01*
X-12094318Y3000000D01*
X-12114956Y3156762D01*
X-12175464Y3302841D01*
X-12271718Y3428282D01*
X-12397159Y3524536D01*
X-12543238Y3585044D01*
X-12543240Y3585045D01*
X-12700000Y3605682D01*
X-12856761Y3585045D01*
X-13002840Y3524537D01*
X-13002843Y3524535D01*
X-13128282Y3428282D01*
X-13224535Y3302843D01*
X-13224537Y3302840D01*
X-13285045Y3156761D01*
X-13305682Y3000001D01*
X-13305682Y3000000D01*
X-29206841Y3000000D01*
X-29093238Y3014956D01*
X-28947159Y3075464D01*
X-28821718Y3171718D01*
X-28725464Y3297159D01*
X-28664956Y3443238D01*
X-28644318Y3600000D01*
X-28651481Y3654405D01*
X-28664956Y3756761D01*
X-28684042Y3802840D01*
X-28725464Y3902841D01*
X-28821718Y4028282D01*
X-28947159Y4124536D01*
X-28997642Y4145447D01*
X-29093240Y4185045D01*
X-29250000Y4205682D01*
X-29406761Y4185045D01*
X-29552840Y4124537D01*
X-29552843Y4124535D01*
X-29678282Y4028282D01*
X-29774535Y3902843D01*
X-29774537Y3902840D01*
X-29835045Y3756761D01*
X-29855682Y3600001D01*
X-29855682Y3600000D01*
X-39826138Y3600000D01*
X-39780536Y4179455D01*
X-39780192Y4182722D01*
X-39777168Y4205682D01*
X-39716029Y4669983D01*
X-15285699Y4669983D01*
X-15265062Y4513223D01*
X-15211221Y4383241D01*
X-15204553Y4367142D01*
X-15108299Y4241701D01*
X-14982858Y4145447D01*
X-14836779Y4084939D01*
X-14758398Y4074621D01*
X-14680018Y4064301D01*
X-14680018Y4064302D01*
X-14680017Y4064301D01*
X-14523255Y4084939D01*
X-14377176Y4145447D01*
X-14251735Y4241701D01*
X-14155481Y4367142D01*
X-14094973Y4513221D01*
X-14074335Y4669983D01*
X-14094973Y4826745D01*
X-14125316Y4900000D01*
X-8155682Y4900000D01*
X-8135045Y4743240D01*
X-8115957Y4697159D01*
X-8074536Y4597159D01*
X-7978282Y4471718D01*
X-7852841Y4375464D01*
X-7706762Y4314956D01*
X-7628381Y4304637D01*
X-7550001Y4294318D01*
X-7550001Y4294319D01*
X-7550000Y4294318D01*
X-7393238Y4314956D01*
X-7247159Y4375464D01*
X-7121718Y4471718D01*
X-7025464Y4597159D01*
X-6964956Y4743238D01*
X-6944318Y4900000D01*
X-6964956Y5056762D01*
X-7025464Y5202841D01*
X-7121718Y5328282D01*
X-7247159Y5424536D01*
X-7256202Y5428282D01*
X-7393240Y5485045D01*
X-7550000Y5505682D01*
X-7706761Y5485045D01*
X-7852840Y5424537D01*
X-7852843Y5424535D01*
X-7978282Y5328282D01*
X-8074535Y5202843D01*
X-8074537Y5202840D01*
X-8135045Y5056761D01*
X-8155682Y4900001D01*
X-8155682Y4900000D01*
X-14125316Y4900000D01*
X-14155481Y4972824D01*
X-14251735Y5098265D01*
X-14377176Y5194519D01*
X-14397264Y5202840D01*
X-14523257Y5255028D01*
X-14680017Y5275665D01*
X-14836778Y5255028D01*
X-14982857Y5194520D01*
X-14982860Y5194518D01*
X-15108299Y5098265D01*
X-15204552Y4972826D01*
X-15204554Y4972823D01*
X-15265062Y4826744D01*
X-15285699Y4669984D01*
X-15285699Y4669983D01*
X-39716029Y4669983D01*
X-39528889Y6091158D01*
X-39507223Y6255690D01*
X-39506717Y6258895D01*
X-39481679Y6394000D01*
X-38838682Y6394000D01*
X-38818045Y6237240D01*
X-38761198Y6100001D01*
X-38757536Y6091159D01*
X-38661282Y5965718D01*
X-38535841Y5869464D01*
X-38389762Y5808956D01*
X-38233000Y5788318D01*
X-38076238Y5808956D01*
X-37930159Y5869464D01*
X-37804718Y5965718D01*
X-37708464Y6091159D01*
X-37647956Y6237238D01*
X-37627318Y6394000D01*
X-37060682Y6394000D01*
X-37040045Y6237240D01*
X-36983198Y6100001D01*
X-36979536Y6091159D01*
X-36883282Y5965718D01*
X-36757841Y5869464D01*
X-36611762Y5808956D01*
X-36533382Y5798637D01*
X-36455001Y5788318D01*
X-36455001Y5788319D01*
X-36455000Y5788318D01*
X-36298238Y5808956D01*
X-36152159Y5869464D01*
X-36026718Y5965718D01*
X-35930464Y6091159D01*
X-35926802Y6100000D01*
X-34855682Y6100000D01*
X-34835045Y5943240D01*
X-34779422Y5808956D01*
X-34774536Y5797159D01*
X-34678282Y5671718D01*
X-34552841Y5575464D01*
X-34406762Y5514956D01*
X-34336319Y5505682D01*
X-34250001Y5494318D01*
X-34250001Y5494319D01*
X-34250000Y5494318D01*
X-34093238Y5514956D01*
X-33947159Y5575464D01*
X-33821718Y5671718D01*
X-33768127Y5741559D01*
X-27669750Y5741559D01*
X-27649113Y5584799D01*
X-27616341Y5505682D01*
X-27588604Y5438718D01*
X-27492350Y5313277D01*
X-27366909Y5217023D01*
X-27220830Y5156515D01*
X-27142450Y5146196D01*
X-27064069Y5135877D01*
X-27064069Y5135878D01*
X-27064068Y5135877D01*
X-26907306Y5156515D01*
X-26761227Y5217023D01*
X-26635786Y5313277D01*
X-26539532Y5438718D01*
X-26479024Y5584797D01*
X-26458386Y5741559D01*
X-26479024Y5898321D01*
X-26539532Y6044400D01*
X-26635786Y6169841D01*
X-26761227Y6266095D01*
X-26907306Y6326603D01*
X-26907308Y6326604D01*
X-27064068Y6347241D01*
X-27220829Y6326604D01*
X-27366908Y6266096D01*
X-27366911Y6266094D01*
X-27492350Y6169841D01*
X-27588603Y6044402D01*
X-27588605Y6044399D01*
X-27649113Y5898320D01*
X-27669750Y5741560D01*
X-27669750Y5741559D01*
X-33768127Y5741559D01*
X-33725464Y5797159D01*
X-33664956Y5943238D01*
X-33644318Y6100000D01*
X-33664956Y6256762D01*
X-33721802Y6394000D01*
X-29440682Y6394000D01*
X-29420045Y6237240D01*
X-29363198Y6100001D01*
X-29359536Y6091159D01*
X-29263282Y5965718D01*
X-29137841Y5869464D01*
X-28991762Y5808956D01*
X-28913382Y5798637D01*
X-28835001Y5788318D01*
X-28835001Y5788319D01*
X-28835000Y5788318D01*
X-28678238Y5808956D01*
X-28532159Y5869464D01*
X-28406718Y5965718D01*
X-28310464Y6091159D01*
X-28249956Y6237238D01*
X-28229318Y6394000D01*
X-28249956Y6550762D01*
X-28310464Y6696841D01*
X-28406718Y6822282D01*
X-28532159Y6918536D01*
X-28658151Y6970724D01*
X-28678240Y6979045D01*
X-28835000Y6999682D01*
X-28991761Y6979045D01*
X-29137840Y6918537D01*
X-29137843Y6918535D01*
X-29263282Y6822282D01*
X-29359535Y6696843D01*
X-29359537Y6696840D01*
X-29420045Y6550761D01*
X-29440682Y6394001D01*
X-29440682Y6394000D01*
X-33721802Y6394000D01*
X-33725464Y6402841D01*
X-33821718Y6528282D01*
X-33947159Y6624536D01*
X-33963884Y6631464D01*
X-34093240Y6685045D01*
X-34250000Y6705682D01*
X-34406761Y6685045D01*
X-34552840Y6624537D01*
X-34552843Y6624535D01*
X-34678282Y6528282D01*
X-34774535Y6402843D01*
X-34774537Y6402840D01*
X-34835045Y6256761D01*
X-34855682Y6100001D01*
X-34855682Y6100000D01*
X-35926802Y6100000D01*
X-35869956Y6237238D01*
X-35849318Y6394000D01*
X-35869956Y6550762D01*
X-35930464Y6696841D01*
X-36026718Y6822282D01*
X-36152159Y6918536D01*
X-36278151Y6970724D01*
X-36298240Y6979045D01*
X-36455000Y6999682D01*
X-36611761Y6979045D01*
X-36757840Y6918537D01*
X-36757843Y6918535D01*
X-36883282Y6822282D01*
X-36979535Y6696843D01*
X-36979537Y6696840D01*
X-37040045Y6550761D01*
X-37060682Y6394001D01*
X-37060682Y6394000D01*
X-37627318Y6394000D01*
X-37647956Y6550762D01*
X-37708464Y6696841D01*
X-37804718Y6822282D01*
X-37930159Y6918536D01*
X-38056151Y6970724D01*
X-38076240Y6979045D01*
X-38233000Y6999682D01*
X-38389761Y6979045D01*
X-38535840Y6918537D01*
X-38535843Y6918535D01*
X-38661282Y6822282D01*
X-38757535Y6696843D01*
X-38757537Y6696840D01*
X-38818045Y6550761D01*
X-38838682Y6394001D01*
X-38838682Y6394000D01*
X-39481679Y6394000D01*
X-39184047Y8000000D01*
X-38705682Y8000000D01*
X-38685045Y7843240D01*
X-38643176Y7742161D01*
X-38624536Y7697159D01*
X-38528282Y7571718D01*
X-38402841Y7475464D01*
X-38256762Y7414956D01*
X-38100000Y7394318D01*
X-37943238Y7414956D01*
X-37797159Y7475464D01*
X-37671718Y7571718D01*
X-37575464Y7697159D01*
X-37571528Y7706663D01*
X-37526987Y7761940D01*
X-37459624Y7784364D01*
X-37390832Y7766810D01*
X-37355158Y7735149D01*
X-37264285Y7616721D01*
X-37264284Y7616720D01*
X-37264282Y7616718D01*
X-37138841Y7520464D01*
X-36992762Y7459956D01*
X-36914382Y7449637D01*
X-36836001Y7439318D01*
X-36836001Y7439319D01*
X-36836000Y7439318D01*
X-36679238Y7459956D01*
X-36533159Y7520464D01*
X-36429505Y7600000D01*
X-10755682Y7600000D01*
X-10735045Y7443240D01*
X-10698097Y7354041D01*
X-10674536Y7297159D01*
X-10578282Y7171718D01*
X-10452841Y7075464D01*
X-10306762Y7014956D01*
X-10150000Y6994318D01*
X-9993238Y7014956D01*
X-9847159Y7075464D01*
X-9721718Y7171718D01*
X-9625464Y7297159D01*
X-9564956Y7443238D01*
X-9544318Y7600000D01*
X-6005682Y7600000D01*
X-5985045Y7443240D01*
X-5948097Y7354041D01*
X-5924536Y7297159D01*
X-5828282Y7171718D01*
X-5702841Y7075464D01*
X-5556762Y7014956D01*
X-5400000Y6994318D01*
X-5243238Y7014956D01*
X-5097159Y7075464D01*
X-4971718Y7171718D01*
X-4875464Y7297159D01*
X-4814956Y7443238D01*
X-4794318Y7600000D01*
X-4801709Y7656137D01*
X-4813033Y7742158D01*
X-4814956Y7756762D01*
X-4875464Y7902841D01*
X-4971718Y8028282D01*
X-5097159Y8124536D01*
X-5142309Y8143238D01*
X-5243240Y8185045D01*
X-5400000Y8205682D01*
X-5556761Y8185045D01*
X-5702840Y8124537D01*
X-5702843Y8124535D01*
X-5828282Y8028282D01*
X-5924535Y7902843D01*
X-5924537Y7902840D01*
X-5985045Y7756761D01*
X-6005682Y7600001D01*
X-6005682Y7600000D01*
X-9544318Y7600000D01*
X-9551709Y7656137D01*
X-9563033Y7742158D01*
X-9564956Y7756762D01*
X-9625464Y7902841D01*
X-9721718Y8028282D01*
X-9847159Y8124536D01*
X-9892309Y8143238D01*
X-9993240Y8185045D01*
X-10150000Y8205682D01*
X-10306761Y8185045D01*
X-10452840Y8124537D01*
X-10452843Y8124535D01*
X-10578282Y8028282D01*
X-10674535Y7902843D01*
X-10674537Y7902840D01*
X-10735045Y7756761D01*
X-10755682Y7600001D01*
X-10755682Y7600000D01*
X-36429505Y7600000D01*
X-36407718Y7616718D01*
X-36311464Y7742159D01*
X-36250956Y7888238D01*
X-36230318Y8045000D01*
X-36230911Y8049501D01*
X-36243251Y8143238D01*
X-36250956Y8201762D01*
X-36311464Y8347841D01*
X-36389853Y8450000D01*
X-35105682Y8450000D01*
X-35085045Y8293240D01*
X-35047153Y8201762D01*
X-35024536Y8147159D01*
X-34928282Y8021718D01*
X-34802841Y7925464D01*
X-34656762Y7864956D01*
X-34597234Y7857119D01*
X-34500001Y7844318D01*
X-34500001Y7844319D01*
X-34500000Y7844318D01*
X-34343238Y7864956D01*
X-34197159Y7925464D01*
X-34071718Y8021718D01*
X-33975464Y8147159D01*
X-33914956Y8293238D01*
X-33894318Y8450000D01*
X-33900901Y8500000D01*
X-25305682Y8500000D01*
X-25285045Y8343240D01*
X-25228066Y8205682D01*
X-25224536Y8197159D01*
X-25128282Y8071718D01*
X-25002841Y7975464D01*
X-24856762Y7914956D01*
X-24700000Y7894318D01*
X-24543238Y7914956D01*
X-24397159Y7975464D01*
X-24271718Y8071718D01*
X-24175464Y8197159D01*
X-24132866Y8300000D01*
X2844318Y8300000D01*
X2864955Y8143240D01*
X2921715Y8006211D01*
X2925464Y7997159D01*
X3021718Y7871718D01*
X3147159Y7775464D01*
X3293238Y7714956D01*
X3371619Y7704637D01*
X3449999Y7694318D01*
X3449999Y7694319D01*
X3450000Y7694318D01*
X3606762Y7714956D01*
X3752841Y7775464D01*
X3878282Y7871718D01*
X3932496Y7942373D01*
X3989832Y7984239D01*
X4060703Y7988461D01*
X4122606Y7953698D01*
X4155888Y7890985D01*
X4157380Y7849223D01*
X4144318Y7750002D01*
X4144318Y7750000D01*
X4164955Y7593240D01*
X4220626Y7458840D01*
X4225464Y7447159D01*
X4321718Y7321718D01*
X4447159Y7225464D01*
X4593238Y7164956D01*
X4750000Y7144318D01*
X4849053Y7157359D01*
X4919200Y7146420D01*
X4972299Y7099292D01*
X4990420Y7048884D01*
X4996955Y6999240D01*
X5030384Y6918537D01*
X5057464Y6853159D01*
X5153718Y6727718D01*
X5279159Y6631464D01*
X5425238Y6570956D01*
X5582000Y6550318D01*
X5738762Y6570956D01*
X5884841Y6631464D01*
X6010282Y6727718D01*
X6106536Y6853159D01*
X6167044Y6999238D01*
X6187682Y7156000D01*
X6185525Y7172381D01*
X6167044Y7312761D01*
X6163334Y7321719D01*
X6106536Y7458841D01*
X6010282Y7584282D01*
X5884841Y7680536D01*
X5851569Y7694318D01*
X5738760Y7741045D01*
X5582000Y7761682D01*
X5581999Y7761682D01*
X5482947Y7748642D01*
X5412798Y7759582D01*
X5359700Y7806710D01*
X5341579Y7857117D01*
X5335044Y7906762D01*
X5274536Y8052841D01*
X5178282Y8178282D01*
X5052841Y8274536D01*
X5044008Y8278195D01*
X4906760Y8335045D01*
X4750000Y8355682D01*
X4593239Y8335045D01*
X4447160Y8274537D01*
X4447157Y8274535D01*
X4321715Y8178280D01*
X4267503Y8107629D01*
X4210165Y8065762D01*
X4139294Y8061540D01*
X4077391Y8096304D01*
X4044110Y8159017D01*
X4042619Y8200777D01*
X4055682Y8300000D01*
X4053510Y8316495D01*
X4035044Y8456761D01*
X4017134Y8500001D01*
X3974536Y8602841D01*
X3878282Y8728282D01*
X3752841Y8824536D01*
X3606762Y8885044D01*
X3606760Y8885045D01*
X3450000Y8905682D01*
X3293239Y8885045D01*
X3147160Y8824537D01*
X3147157Y8824535D01*
X3021718Y8728282D01*
X2925465Y8602843D01*
X2925463Y8602840D01*
X2864955Y8456761D01*
X2844318Y8300001D01*
X2844318Y8300000D01*
X-24132866Y8300000D01*
X-24114956Y8343238D01*
X-24094318Y8500000D01*
X-24114956Y8656762D01*
X-24175464Y8802841D01*
X-24271718Y8928282D01*
X-24397159Y9024536D01*
X-24422527Y9035044D01*
X-24543240Y9085045D01*
X-24700000Y9105682D01*
X-24856761Y9085045D01*
X-25002840Y9024537D01*
X-25002843Y9024535D01*
X-25128282Y8928282D01*
X-25224535Y8802843D01*
X-25224537Y8802840D01*
X-25285045Y8656761D01*
X-25305682Y8500001D01*
X-25305682Y8500000D01*
X-33900901Y8500000D01*
X-33914956Y8606762D01*
X-33975464Y8752841D01*
X-34071718Y8878282D01*
X-34197159Y8974536D01*
X-34317871Y9024537D01*
X-34343240Y9035045D01*
X-34500000Y9055682D01*
X-34656761Y9035045D01*
X-34802840Y8974537D01*
X-34802843Y8974535D01*
X-34928282Y8878282D01*
X-35024535Y8752843D01*
X-35024537Y8752840D01*
X-35085045Y8606761D01*
X-35105682Y8450001D01*
X-35105682Y8450000D01*
X-36389853Y8450000D01*
X-36407718Y8473282D01*
X-36533159Y8569536D01*
X-36570598Y8585044D01*
X-36679240Y8630045D01*
X-36836000Y8650682D01*
X-36992761Y8630045D01*
X-37138840Y8569537D01*
X-37138843Y8569535D01*
X-37264282Y8473282D01*
X-37360535Y8347843D01*
X-37360538Y8347838D01*
X-37364473Y8338336D01*
X-37409022Y8283056D01*
X-37476386Y8260636D01*
X-37545177Y8278195D01*
X-37580844Y8309852D01*
X-37671718Y8428282D01*
X-37797159Y8524536D01*
X-37905800Y8569537D01*
X-37943240Y8585045D01*
X-38100000Y8605682D01*
X-38256761Y8585045D01*
X-38402840Y8524537D01*
X-38402843Y8524535D01*
X-38528282Y8428282D01*
X-38624535Y8302843D01*
X-38624537Y8302840D01*
X-38685045Y8156761D01*
X-38705682Y8000001D01*
X-38705682Y8000000D01*
X-39184047Y8000000D01*
X-39125708Y8314795D01*
X-39125041Y8317937D01*
X-38841241Y9500000D01*
X-28605682Y9500000D01*
X-28585045Y9343240D01*
X-28552618Y9264956D01*
X-28524536Y9197159D01*
X-28428282Y9071718D01*
X-28302841Y8975464D01*
X-28156762Y8914956D01*
X-28086319Y8905682D01*
X-28000001Y8894318D01*
X-28000001Y8894319D01*
X-28000000Y8894318D01*
X-27843238Y8914956D01*
X-27697159Y8975464D01*
X-27571718Y9071718D01*
X-27475464Y9197159D01*
X-27414956Y9343238D01*
X-27394318Y9500000D01*
X-27414956Y9656762D01*
X-27475464Y9802841D01*
X-27571718Y9928282D01*
X-27697159Y10024536D01*
X-27751775Y10047159D01*
X-27843240Y10085045D01*
X-28000000Y10105682D01*
X-28156761Y10085045D01*
X-28302840Y10024537D01*
X-28302843Y10024535D01*
X-28428282Y9928282D01*
X-28524535Y9802843D01*
X-28524537Y9802840D01*
X-28585045Y9656761D01*
X-28605682Y9500001D01*
X-28605682Y9500000D01*
X-38841241Y9500000D01*
X-38636895Y10351128D01*
X-38636057Y10354250D01*
X-38578080Y10550000D01*
X-25105682Y10550000D01*
X-25085045Y10393240D01*
X-25026890Y10252843D01*
X-25024536Y10247159D01*
X-24928282Y10121718D01*
X-24802841Y10025464D01*
X-24656762Y9964956D01*
X-24500000Y9944318D01*
X-24343238Y9964956D01*
X-24258634Y10000000D01*
X-13105682Y10000000D01*
X-13085045Y9843240D01*
X-13052618Y9764956D01*
X-13024536Y9697159D01*
X-12928282Y9571718D01*
X-12802841Y9475464D01*
X-12656762Y9414956D01*
X-12500000Y9394318D01*
X-12343238Y9414956D01*
X-12197159Y9475464D01*
X-12071718Y9571718D01*
X-11975464Y9697159D01*
X-11914956Y9843238D01*
X-11900901Y9950000D01*
X-8905682Y9950000D01*
X-8885045Y9793240D01*
X-8843623Y9693240D01*
X-8824536Y9647159D01*
X-8728282Y9521718D01*
X-8602841Y9425464D01*
X-8456762Y9364956D01*
X-8300000Y9344318D01*
X-8143238Y9364956D01*
X-7997159Y9425464D01*
X-7871718Y9521718D01*
X-7775464Y9647159D01*
X-7714956Y9793238D01*
X-7707483Y9850000D01*
X-3355682Y9850000D01*
X-3335045Y9693240D01*
X-3315957Y9647159D01*
X-3274536Y9547159D01*
X-3178282Y9421718D01*
X-3052841Y9325464D01*
X-2906762Y9264956D01*
X-2828381Y9254637D01*
X-2750001Y9244318D01*
X-2750001Y9244319D01*
X-2750000Y9244318D01*
X-2593238Y9264956D01*
X-2447159Y9325464D01*
X-2321718Y9421718D01*
X-2225464Y9547159D01*
X-2164956Y9693238D01*
X-2144318Y9850000D01*
X-2164956Y10006762D01*
X-2225464Y10152841D01*
X-2321718Y10278282D01*
X-2415183Y10350000D01*
X5244318Y10350000D01*
X5264955Y10193240D01*
X5300776Y10106762D01*
X5325464Y10047159D01*
X5421718Y9921718D01*
X5547159Y9825464D01*
X5693238Y9764956D01*
X5771619Y9754637D01*
X5849999Y9744318D01*
X5849999Y9744319D01*
X5850000Y9744318D01*
X6006762Y9764956D01*
X6152841Y9825464D01*
X6278282Y9921718D01*
X6374536Y10047159D01*
X6435044Y10193238D01*
X6455682Y10350000D01*
X6455285Y10353012D01*
X6435044Y10506761D01*
X6427682Y10524536D01*
X6374536Y10652841D01*
X6299983Y10750000D01*
X7744318Y10750000D01*
X7764955Y10593240D01*
X7821934Y10455682D01*
X7825464Y10447159D01*
X7921718Y10321718D01*
X8047159Y10225464D01*
X8193238Y10164956D01*
X8350000Y10144318D01*
X8506762Y10164956D01*
X8652841Y10225464D01*
X8778282Y10321718D01*
X8874536Y10447159D01*
X8935044Y10593238D01*
X8955682Y10750000D01*
X8935044Y10906762D01*
X8874536Y11052841D01*
X8778282Y11178282D01*
X8652841Y11274536D01*
X8598225Y11297159D01*
X8506760Y11335045D01*
X8350000Y11355682D01*
X8193239Y11335045D01*
X8047160Y11274537D01*
X8047157Y11274535D01*
X7921718Y11178282D01*
X7825465Y11052843D01*
X7825463Y11052840D01*
X7764955Y10906761D01*
X7744318Y10750001D01*
X7744318Y10750000D01*
X6299983Y10750000D01*
X6278282Y10778282D01*
X6152841Y10874536D01*
X6105084Y10894318D01*
X6006760Y10935045D01*
X5850000Y10955682D01*
X5693239Y10935045D01*
X5547160Y10874537D01*
X5547157Y10874535D01*
X5421718Y10778282D01*
X5325465Y10652843D01*
X5325463Y10652840D01*
X5264955Y10506761D01*
X5244318Y10350001D01*
X5244318Y10350000D01*
X-2415183Y10350000D01*
X-2447159Y10374536D01*
X-2456202Y10378282D01*
X-2593240Y10435045D01*
X-2750000Y10455682D01*
X-2906761Y10435045D01*
X-3052840Y10374537D01*
X-3052843Y10374535D01*
X-3178282Y10278282D01*
X-3274535Y10152843D01*
X-3274537Y10152840D01*
X-3335045Y10006761D01*
X-3355682Y9850001D01*
X-3355682Y9850000D01*
X-7707483Y9850000D01*
X-7694318Y9950000D01*
X-7714956Y10106762D01*
X-7775464Y10252841D01*
X-7871718Y10378282D01*
X-7997159Y10474536D01*
X-8074956Y10506761D01*
X-8143240Y10535045D01*
X-8300000Y10555682D01*
X-8456761Y10535045D01*
X-8602840Y10474537D01*
X-8602843Y10474535D01*
X-8728282Y10378282D01*
X-8824535Y10252843D01*
X-8824537Y10252840D01*
X-8885045Y10106761D01*
X-8905682Y9950001D01*
X-8905682Y9950000D01*
X-11900901Y9950000D01*
X-11894318Y10000000D01*
X-11914956Y10156762D01*
X-11975464Y10302841D01*
X-12071718Y10428282D01*
X-12197159Y10524536D01*
X-12222527Y10535044D01*
X-12343240Y10585045D01*
X-12500000Y10605682D01*
X-12656761Y10585045D01*
X-12802840Y10524537D01*
X-12802843Y10524535D01*
X-12928282Y10428282D01*
X-13024535Y10302843D01*
X-13024537Y10302840D01*
X-13085045Y10156761D01*
X-13105682Y10000001D01*
X-13105682Y10000000D01*
X-24258634Y10000000D01*
X-24197159Y10025464D01*
X-24071718Y10121718D01*
X-23975464Y10247159D01*
X-23914956Y10393238D01*
X-23894318Y10550000D01*
X-23914956Y10706762D01*
X-23975464Y10852841D01*
X-24071718Y10978282D01*
X-24197159Y11074536D01*
X-24311068Y11121719D01*
X-24343240Y11135045D01*
X-24500000Y11155682D01*
X-24656761Y11135045D01*
X-24802840Y11074537D01*
X-24802843Y11074535D01*
X-24928282Y10978282D01*
X-25024535Y10852843D01*
X-25024537Y10852840D01*
X-25085045Y10706761D01*
X-25105682Y10550001D01*
X-25105682Y10550000D01*
X-38578080Y10550000D01*
X-38342024Y11347000D01*
X-36679682Y11347000D01*
X-36659045Y11190240D01*
X-36609951Y11071718D01*
X-36598536Y11044159D01*
X-36502282Y10918718D01*
X-36376841Y10822464D01*
X-36230762Y10761956D01*
X-36152382Y10751637D01*
X-36074001Y10741318D01*
X-36074001Y10741319D01*
X-36074000Y10741318D01*
X-35917238Y10761956D01*
X-35771159Y10822464D01*
X-35645718Y10918718D01*
X-35549464Y11044159D01*
X-35488956Y11190238D01*
X-35468318Y11347000D01*
X-35488956Y11503762D01*
X-35508108Y11550000D01*
X-32655682Y11550000D01*
X-32635045Y11393240D01*
X-32585876Y11274537D01*
X-32574536Y11247159D01*
X-32478282Y11121718D01*
X-32352841Y11025464D01*
X-32206762Y10964956D01*
X-32050000Y10944318D01*
X-31893238Y10964956D01*
X-31747159Y11025464D01*
X-31621718Y11121718D01*
X-31525464Y11247159D01*
X-31464956Y11393238D01*
X-31444318Y11550000D01*
X-31450901Y11600000D01*
X-15981182Y11600000D01*
X-15960545Y11443240D01*
X-15919123Y11343240D01*
X-15900036Y11297159D01*
X-15803782Y11171718D01*
X-15678341Y11075464D01*
X-15532262Y11014956D01*
X-15375500Y10994318D01*
X-15218738Y11014956D01*
X-15072659Y11075464D01*
X-14947218Y11171718D01*
X-14850964Y11297159D01*
X-14790456Y11443238D01*
X-14769818Y11600000D01*
X-14776380Y11649840D01*
X-14789566Y11750000D01*
X-1505682Y11750000D01*
X-1485045Y11593240D01*
X-1446423Y11500000D01*
X-1424536Y11447159D01*
X-1328282Y11321718D01*
X-1202841Y11225464D01*
X-1056762Y11164956D01*
X-900000Y11144318D01*
X-743238Y11164956D01*
X-597159Y11225464D01*
X-471718Y11321718D01*
X-375464Y11447159D01*
X-353577Y11500000D01*
X12694318Y11500000D01*
X12714955Y11343240D01*
X12763740Y11225464D01*
X12775464Y11197159D01*
X12871718Y11071718D01*
X12997159Y10975464D01*
X13143238Y10914956D01*
X13300000Y10894318D01*
X13456762Y10914956D01*
X13602841Y10975464D01*
X13728282Y11071718D01*
X13824536Y11197159D01*
X13885044Y11343238D01*
X13905682Y11500000D01*
X13885044Y11656762D01*
X13824536Y11802841D01*
X13728282Y11928282D01*
X13602841Y12024536D01*
X13593798Y12028282D01*
X13456760Y12085045D01*
X13300000Y12105682D01*
X13143239Y12085045D01*
X12997160Y12024537D01*
X12997157Y12024535D01*
X12871718Y11928282D01*
X12775465Y11802843D01*
X12775463Y11802840D01*
X12714955Y11656761D01*
X12694318Y11500001D01*
X12694318Y11500000D01*
X-353577Y11500000D01*
X-314956Y11593238D01*
X-294318Y11750000D01*
X-314956Y11906762D01*
X-375464Y12052841D01*
X-471718Y12178282D01*
X-597159Y12274536D01*
X-743238Y12335044D01*
X-743240Y12335045D01*
X-900000Y12355682D01*
X-1056761Y12335045D01*
X-1202840Y12274537D01*
X-1202843Y12274535D01*
X-1328282Y12178282D01*
X-1424535Y12052843D01*
X-1424537Y12052840D01*
X-1485045Y11906761D01*
X-1505682Y11750001D01*
X-1505682Y11750000D01*
X-14789566Y11750000D01*
X-14790456Y11756761D01*
X-14798127Y11775282D01*
X-14850964Y11902841D01*
X-14947218Y12028282D01*
X-15072659Y12124536D01*
X-15098027Y12135044D01*
X-15218740Y12185045D01*
X-15375500Y12205682D01*
X-15532261Y12185045D01*
X-15678340Y12124537D01*
X-15678343Y12124535D01*
X-15803782Y12028282D01*
X-15900035Y11902843D01*
X-15900037Y11902840D01*
X-15960545Y11756761D01*
X-15981182Y11600001D01*
X-15981182Y11600000D01*
X-31450901Y11600000D01*
X-31464956Y11706762D01*
X-31525464Y11852841D01*
X-31621718Y11978282D01*
X-31747159Y12074536D01*
X-31772527Y12085044D01*
X-31893240Y12135045D01*
X-32050000Y12155682D01*
X-32206761Y12135045D01*
X-32352840Y12074537D01*
X-32352843Y12074535D01*
X-32478282Y11978282D01*
X-32574535Y11852843D01*
X-32574537Y11852840D01*
X-32635045Y11706761D01*
X-32655682Y11550001D01*
X-32655682Y11550000D01*
X-35508108Y11550000D01*
X-35549464Y11649841D01*
X-35645718Y11775282D01*
X-35645720Y11775284D01*
X-35645721Y11775285D01*
X-35649769Y11778391D01*
X-35691636Y11835729D01*
X-35695858Y11906600D01*
X-35661094Y11968503D01*
X-35621286Y11994760D01*
X-35547159Y12025464D01*
X-35421718Y12121718D01*
X-35325464Y12247159D01*
X-35264956Y12393238D01*
X-35244318Y12550000D01*
X7994318Y12550000D01*
X8014955Y12393240D01*
X8064124Y12274537D01*
X8075464Y12247159D01*
X8171718Y12121718D01*
X8297159Y12025464D01*
X8443238Y11964956D01*
X8600000Y11944318D01*
X8756762Y11964956D01*
X8902841Y12025464D01*
X9028282Y12121718D01*
X9124536Y12247159D01*
X9185044Y12393238D01*
X9205682Y12550000D01*
X9185044Y12706762D01*
X9124536Y12852841D01*
X9028282Y12978282D01*
X8902841Y13074536D01*
X8756762Y13135044D01*
X8756760Y13135045D01*
X8600000Y13155682D01*
X8443239Y13135045D01*
X8297160Y13074537D01*
X8297157Y13074535D01*
X8171718Y12978282D01*
X8075465Y12852843D01*
X8075463Y12852840D01*
X8014955Y12706761D01*
X7994318Y12550001D01*
X7994318Y12550000D01*
X-35244318Y12550000D01*
X-35264956Y12706762D01*
X-35325464Y12852841D01*
X-35421718Y12978282D01*
X-35547159Y13074536D01*
X-35693238Y13135044D01*
X-35693240Y13135045D01*
X-35850000Y13155682D01*
X-36006761Y13135045D01*
X-36152840Y13074537D01*
X-36152843Y13074535D01*
X-36278282Y12978282D01*
X-36374535Y12852843D01*
X-36374537Y12852840D01*
X-36435045Y12706761D01*
X-36455682Y12550001D01*
X-36455682Y12550000D01*
X-36435045Y12393240D01*
X-36385876Y12274537D01*
X-36374536Y12247159D01*
X-36280443Y12124535D01*
X-36278281Y12121717D01*
X-36274233Y12118611D01*
X-36232365Y12061274D01*
X-36228143Y11990403D01*
X-36262906Y11928500D01*
X-36302717Y11902240D01*
X-36376836Y11871539D01*
X-36376843Y11871535D01*
X-36502282Y11775282D01*
X-36598535Y11649843D01*
X-36598537Y11649840D01*
X-36659045Y11503761D01*
X-36679682Y11347001D01*
X-36679682Y11347000D01*
X-38342024Y11347000D01*
X-38042288Y12359006D01*
X-38041288Y12362084D01*
X-37532045Y13800000D01*
X-26305682Y13800000D01*
X-26285045Y13643240D01*
X-26231286Y13513456D01*
X-26224536Y13497159D01*
X-26128282Y13371718D01*
X-26002841Y13275464D01*
X-25856762Y13214956D01*
X-25778381Y13204637D01*
X-25700001Y13194318D01*
X-25700001Y13194319D01*
X-25700000Y13194318D01*
X-25543238Y13214956D01*
X-25397159Y13275464D01*
X-25271718Y13371718D01*
X-25175464Y13497159D01*
X-25114956Y13643238D01*
X-25094318Y13800000D01*
X-25100153Y13844318D01*
X-25107197Y13897825D01*
X-25114956Y13956762D01*
X-25175464Y14102841D01*
X-25271718Y14228282D01*
X-25397159Y14324536D01*
X-25421916Y14334791D01*
X-25543240Y14385045D01*
X-25700000Y14405682D01*
X-25856761Y14385045D01*
X-26002840Y14324537D01*
X-26002843Y14324535D01*
X-26128282Y14228282D01*
X-26224535Y14102843D01*
X-26224537Y14102840D01*
X-26285045Y13956761D01*
X-26305682Y13800001D01*
X-26305682Y13800000D01*
X-37532045Y13800000D01*
X-37343284Y14332993D01*
X-37342127Y14336006D01*
X-37274200Y14500000D01*
X-24405682Y14500000D01*
X-24385045Y14343240D01*
X-24336467Y14225964D01*
X-24324536Y14197159D01*
X-24228282Y14071718D01*
X-24102841Y13975464D01*
X-23956762Y13914956D01*
X-23878381Y13904637D01*
X-23800001Y13894318D01*
X-23800001Y13894319D01*
X-23800000Y13894318D01*
X-23643238Y13914956D01*
X-23497159Y13975464D01*
X-23371718Y14071718D01*
X-23275464Y14197159D01*
X-23214956Y14343238D01*
X-23194318Y14500000D01*
X-15905682Y14500000D01*
X-15885045Y14343240D01*
X-15836467Y14225964D01*
X-15824536Y14197159D01*
X-15728282Y14071718D01*
X-15602841Y13975464D01*
X-15456762Y13914956D01*
X-15300000Y13894318D01*
X-15256939Y13899987D01*
X-8250580Y13899987D01*
X-8250164Y13897832D01*
X-8241688Y13844318D01*
X-8189667Y13515845D01*
X-8189397Y13513636D01*
X-8189366Y13513502D01*
X-8189293Y13513332D01*
X-8188179Y13511337D01*
X-8012832Y13167261D01*
X-8011754Y13164926D01*
X-8009831Y13163150D01*
X-7736808Y12890068D01*
X-7735097Y12888220D01*
X-7735008Y12888156D01*
X-7732625Y12887064D01*
X-7388824Y12711939D01*
X-7386466Y12710613D01*
X-7383805Y12710302D01*
X-7002463Y12649885D01*
X-7000324Y12649462D01*
X-6999510Y12649468D01*
X-6997194Y12649940D01*
X-6616212Y12710303D01*
X-6613660Y12710600D01*
X-6613349Y12710703D01*
X-6610998Y12712034D01*
X-6267521Y12886993D01*
X-6265259Y12888022D01*
X-6264662Y12888456D01*
X-6263020Y12890244D01*
X-5990332Y13162993D01*
X-5988532Y13164643D01*
X-5988086Y13165252D01*
X-5987105Y13167391D01*
X-5812012Y13510972D01*
X-5810678Y13513325D01*
X-5810578Y13513630D01*
X-5810278Y13516211D01*
X-5749944Y13897167D01*
X-5749461Y13899539D01*
X-5749456Y13900398D01*
X-5749927Y13902726D01*
X-5810280Y14283804D01*
X-5810594Y14286494D01*
X-5811919Y14288851D01*
X-5894043Y14450000D01*
X-3705682Y14450000D01*
X-3685045Y14293240D01*
X-3682243Y14286477D01*
X-3624536Y14147159D01*
X-3528282Y14021718D01*
X-3402841Y13925464D01*
X-3256762Y13864956D01*
X-3100000Y13844318D01*
X-2943238Y13864956D01*
X-2797159Y13925464D01*
X-2671718Y14021718D01*
X-2575464Y14147159D01*
X-2514956Y14293238D01*
X-2494318Y14450000D01*
X-2514956Y14606762D01*
X-2575464Y14752841D01*
X-2671718Y14878282D01*
X-2797159Y14974536D01*
X-2844916Y14994318D01*
X-2943240Y15035045D01*
X-3100000Y15055682D01*
X-3256761Y15035045D01*
X-3402840Y14974537D01*
X-3402843Y14974535D01*
X-3528282Y14878282D01*
X-3624535Y14752843D01*
X-3624537Y14752840D01*
X-3685045Y14606761D01*
X-3705682Y14450001D01*
X-3705682Y14450000D01*
X-5894043Y14450000D01*
X-5987171Y14632742D01*
X-5988216Y14635005D01*
X-5988285Y14635100D01*
X-5990140Y14636816D01*
X-6263201Y14909939D01*
X-6264919Y14911793D01*
X-6267224Y14912858D01*
X-6611295Y15088119D01*
X-6613305Y15089243D01*
X-6613548Y15089348D01*
X-6613646Y15089371D01*
X-6615840Y15089640D01*
X-6997743Y15150150D01*
X-7000001Y15150589D01*
X-7002259Y15150150D01*
X-7384197Y15089635D01*
X-7386043Y15089407D01*
X-7386417Y15089320D01*
X-7386875Y15089128D01*
X-7388520Y15088214D01*
X-7413546Y15075466D01*
X-7732990Y14912750D01*
X-7734977Y14911825D01*
X-7735058Y14911776D01*
X-7735155Y14911692D01*
X-7736631Y14910110D01*
X-8010074Y14636606D01*
X-8011694Y14635095D01*
X-8011704Y14635084D01*
X-8011848Y14634844D01*
X-8012766Y14632868D01*
X-8188270Y14288486D01*
X-8189169Y14286864D01*
X-8189336Y14286463D01*
X-8189433Y14286049D01*
X-8189661Y14284191D01*
X-8250174Y13902104D01*
X-8250580Y13899987D01*
X-15256939Y13899987D01*
X-15143238Y13914956D01*
X-14997159Y13975464D01*
X-14871718Y14071718D01*
X-14775464Y14197159D01*
X-14714956Y14343238D01*
X-14694318Y14500000D01*
X-14714956Y14656762D01*
X-14753784Y14750500D01*
X-12505682Y14750500D01*
X-12485045Y14593740D01*
X-12446216Y14500000D01*
X-12424536Y14447659D01*
X-12328282Y14322218D01*
X-12202841Y14225964D01*
X-12056762Y14165456D01*
X-11900000Y14144818D01*
X-11743238Y14165456D01*
X-11597159Y14225964D01*
X-11471718Y14322218D01*
X-11375464Y14447659D01*
X-11314956Y14593738D01*
X-11294318Y14750500D01*
X-11314956Y14907262D01*
X-11375464Y15053341D01*
X-11471718Y15178782D01*
X-11597159Y15275036D01*
X-11650568Y15297159D01*
X-11743240Y15335545D01*
X-11900000Y15356182D01*
X-12056761Y15335545D01*
X-12202840Y15275037D01*
X-12202843Y15275035D01*
X-12328282Y15178782D01*
X-12424535Y15053343D01*
X-12424537Y15053340D01*
X-12485045Y14907261D01*
X-12505682Y14750501D01*
X-12505682Y14750500D01*
X-14753784Y14750500D01*
X-14775464Y14802841D01*
X-14871718Y14928282D01*
X-14997159Y15024536D01*
X-15022527Y15035044D01*
X-15143240Y15085045D01*
X-15300000Y15105682D01*
X-15456761Y15085045D01*
X-15602840Y15024537D01*
X-15602843Y15024535D01*
X-15728282Y14928282D01*
X-15824535Y14802843D01*
X-15824537Y14802840D01*
X-15885045Y14656761D01*
X-15905682Y14500001D01*
X-15905682Y14500000D01*
X-23194318Y14500000D01*
X-23214956Y14656762D01*
X-23275464Y14802841D01*
X-23371718Y14928282D01*
X-23497159Y15024536D01*
X-23522527Y15035044D01*
X-23643240Y15085045D01*
X-23800000Y15105682D01*
X-23956761Y15085045D01*
X-24102840Y15024537D01*
X-24102843Y15024535D01*
X-24228282Y14928282D01*
X-24324535Y14802843D01*
X-24324537Y14802840D01*
X-24385045Y14656761D01*
X-24405682Y14500001D01*
X-24405682Y14500000D01*
X-37274200Y14500000D01*
X-36541968Y16267811D01*
X-36540649Y16270773D01*
X-36168989Y17050000D01*
X-29755682Y17050000D01*
X-29735045Y16893240D01*
X-29731650Y16885045D01*
X-29674536Y16747159D01*
X-29578282Y16621718D01*
X-29452841Y16525464D01*
X-29306762Y16464956D01*
X-29244522Y16456762D01*
X-29150001Y16444318D01*
X-29150001Y16444319D01*
X-29150000Y16444318D01*
X-28993238Y16464956D01*
X-28847159Y16525464D01*
X-28721718Y16621718D01*
X-28625464Y16747159D01*
X-28564956Y16893238D01*
X-28546631Y17032436D01*
X-28530866Y17068072D01*
X-28537396Y17081931D01*
X-28319135Y17081931D01*
X-28297214Y17035403D01*
X-28296787Y17032434D01*
X-28285045Y16943240D01*
X-28226890Y16802843D01*
X-28224536Y16797159D01*
X-28128282Y16671718D01*
X-28002841Y16575464D01*
X-27856762Y16514956D01*
X-27700000Y16494318D01*
X-27543238Y16514956D01*
X-27397159Y16575464D01*
X-27271718Y16671718D01*
X-27250017Y16700000D01*
X-25705682Y16700000D01*
X-25685045Y16543240D01*
X-25626890Y16402843D01*
X-25624536Y16397159D01*
X-25528282Y16271718D01*
X-25402841Y16175464D01*
X-25256762Y16114956D01*
X-25100000Y16094318D01*
X-24943238Y16114956D01*
X-24797159Y16175464D01*
X-24671718Y16271718D01*
X-24575464Y16397159D01*
X-24532866Y16500000D01*
X-15405682Y16500000D01*
X-15385045Y16343240D01*
X-15328066Y16205682D01*
X-15324536Y16197159D01*
X-15228282Y16071718D01*
X-15102841Y15975464D01*
X-14956762Y15914956D01*
X-14800000Y15894318D01*
X-14643238Y15914956D01*
X-14497159Y15975464D01*
X-14371718Y16071718D01*
X-14275464Y16197159D01*
X-14232866Y16300000D01*
X-9105682Y16300000D01*
X-9085045Y16143240D01*
X-9055419Y16071718D01*
X-9024536Y15997159D01*
X-8928282Y15871718D01*
X-8802841Y15775464D01*
X-8656762Y15714956D01*
X-8500000Y15694318D01*
X-8343238Y15714956D01*
X-8197159Y15775464D01*
X-8071718Y15871718D01*
X-7975464Y15997159D01*
X-7932866Y16100000D01*
X-905682Y16100000D01*
X-885045Y15943240D01*
X-855419Y15871718D01*
X-824536Y15797159D01*
X-728282Y15671718D01*
X-602841Y15575464D01*
X-456762Y15514956D01*
X-300000Y15494318D01*
X-143238Y15514956D01*
X2841Y15575464D01*
X34817Y15600000D01*
X6994318Y15600000D01*
X7014955Y15443240D01*
X7014956Y15443238D01*
X7075464Y15297159D01*
X7171718Y15171718D01*
X7297159Y15075464D01*
X7443238Y15014956D01*
X7600000Y14994318D01*
X7756762Y15014956D01*
X7902841Y15075464D01*
X8028282Y15171718D01*
X8124536Y15297159D01*
X8185044Y15443238D01*
X8205682Y15600000D01*
X8185044Y15756762D01*
X8124536Y15902841D01*
X8028282Y16028282D01*
X7902841Y16124536D01*
X7857691Y16143238D01*
X7756760Y16185045D01*
X7600000Y16205682D01*
X7443239Y16185045D01*
X7297160Y16124537D01*
X7297157Y16124535D01*
X7171718Y16028282D01*
X7075465Y15902843D01*
X7075463Y15902840D01*
X7014955Y15756761D01*
X6994318Y15600001D01*
X6994318Y15600000D01*
X34817Y15600000D01*
X128282Y15671718D01*
X224536Y15797159D01*
X285044Y15943238D01*
X305682Y16100000D01*
X285044Y16256762D01*
X224536Y16402841D01*
X128282Y16528282D01*
X2841Y16624536D01*
X-74956Y16656761D01*
X-143240Y16685045D01*
X-300000Y16705682D01*
X-456761Y16685045D01*
X-602840Y16624537D01*
X-602843Y16624535D01*
X-728282Y16528282D01*
X-824535Y16402843D01*
X-824537Y16402840D01*
X-885045Y16256761D01*
X-905682Y16100001D01*
X-905682Y16100000D01*
X-7932866Y16100000D01*
X-7914956Y16143238D01*
X-7894318Y16300000D01*
X-7914956Y16456762D01*
X-7975464Y16602841D01*
X-8071718Y16728282D01*
X-8197159Y16824536D01*
X-8274956Y16856761D01*
X-8343240Y16885045D01*
X-8500000Y16905682D01*
X-8656761Y16885045D01*
X-8802840Y16824537D01*
X-8802843Y16824535D01*
X-8928282Y16728282D01*
X-9024535Y16602843D01*
X-9024537Y16602840D01*
X-9085045Y16456761D01*
X-9105682Y16300001D01*
X-9105682Y16300000D01*
X-14232866Y16300000D01*
X-14214956Y16343238D01*
X-14194318Y16500000D01*
X-14214956Y16656762D01*
X-14275464Y16802841D01*
X-14371718Y16928282D01*
X-14497159Y17024536D01*
X-14558634Y17050000D01*
X2944318Y17050000D01*
X2964955Y16893240D01*
X2968350Y16885045D01*
X3025464Y16747159D01*
X3121718Y16621718D01*
X3247159Y16525464D01*
X3393238Y16464956D01*
X3550000Y16444318D01*
X3706762Y16464956D01*
X3852841Y16525464D01*
X3978282Y16621718D01*
X4074536Y16747159D01*
X4135044Y16893238D01*
X4155682Y17050000D01*
X4135044Y17206762D01*
X4074536Y17352841D01*
X3978282Y17478282D01*
X3852841Y17574536D01*
X3738932Y17621719D01*
X3706760Y17635045D01*
X3550000Y17655682D01*
X3393239Y17635045D01*
X3247160Y17574537D01*
X3247157Y17574535D01*
X3121718Y17478282D01*
X3025465Y17352843D01*
X3025463Y17352840D01*
X2964955Y17206761D01*
X2944318Y17050001D01*
X2944318Y17050000D01*
X-14558634Y17050000D01*
X-14558636Y17050001D01*
X-14643240Y17085045D01*
X-14800000Y17105682D01*
X-14956761Y17085045D01*
X-15102840Y17024537D01*
X-15102843Y17024535D01*
X-15228282Y16928282D01*
X-15324535Y16802843D01*
X-15324537Y16802840D01*
X-15385045Y16656761D01*
X-15405682Y16500001D01*
X-15405682Y16500000D01*
X-24532866Y16500000D01*
X-24514956Y16543238D01*
X-24494318Y16700000D01*
X-24514956Y16856762D01*
X-24575464Y17002841D01*
X-24671718Y17128282D01*
X-24797159Y17224536D01*
X-24874956Y17256761D01*
X-24943240Y17285045D01*
X-25100000Y17305682D01*
X-25256761Y17285045D01*
X-25402840Y17224537D01*
X-25402843Y17224535D01*
X-25528282Y17128282D01*
X-25624535Y17002843D01*
X-25624537Y17002840D01*
X-25685045Y16856761D01*
X-25705682Y16700001D01*
X-25705682Y16700000D01*
X-27250017Y16700000D01*
X-27175464Y16797159D01*
X-27114956Y16943238D01*
X-27094318Y17100000D01*
X-27096631Y17117566D01*
X-27114956Y17256761D01*
X-27126671Y17285045D01*
X-27175464Y17402841D01*
X-27271718Y17528282D01*
X-27397159Y17624536D01*
X-27422527Y17635044D01*
X-27543240Y17685045D01*
X-27700000Y17705682D01*
X-27856761Y17685045D01*
X-28002840Y17624537D01*
X-28002843Y17624535D01*
X-28128282Y17528282D01*
X-28224535Y17402843D01*
X-28224537Y17402840D01*
X-28285045Y17256761D01*
X-28303370Y17117566D01*
X-28319135Y17081931D01*
X-28537396Y17081931D01*
X-28552787Y17114599D01*
X-28553208Y17117523D01*
X-28564956Y17206762D01*
X-28625464Y17352841D01*
X-28721718Y17478282D01*
X-28847159Y17574536D01*
X-28961068Y17621719D01*
X-28993240Y17635045D01*
X-29150000Y17655682D01*
X-29306761Y17635045D01*
X-29452840Y17574537D01*
X-29452843Y17574535D01*
X-29578282Y17478282D01*
X-29674535Y17352843D01*
X-29674537Y17352840D01*
X-29735045Y17206761D01*
X-29755682Y17050001D01*
X-29755682Y17050000D01*
X-36168989Y17050000D01*
X-35692030Y18050000D01*
X-22605682Y18050000D01*
X-22585045Y17893240D01*
X-22585044Y17893238D01*
X-22524536Y17747159D01*
X-22428282Y17621718D01*
X-22302841Y17525464D01*
X-22156762Y17464956D01*
X-22000000Y17444318D01*
X-21843238Y17464956D01*
X-21697159Y17525464D01*
X-21571718Y17621718D01*
X-21475464Y17747159D01*
X-21414956Y17893238D01*
X-21400901Y18000000D01*
X-14155682Y18000000D01*
X-14135045Y17843240D01*
X-14078066Y17705682D01*
X-14074536Y17697159D01*
X-13978282Y17571718D01*
X-13852841Y17475464D01*
X-13706762Y17414956D01*
X-13628381Y17404637D01*
X-13550001Y17394318D01*
X-13550001Y17394319D01*
X-13550000Y17394318D01*
X-13393238Y17414956D01*
X-13247159Y17475464D01*
X-13121718Y17571718D01*
X-13025464Y17697159D01*
X-12964956Y17843238D01*
X-12944318Y18000000D01*
X-10005682Y18000000D01*
X-9985045Y17843240D01*
X-9928066Y17705682D01*
X-9924536Y17697159D01*
X-9828282Y17571718D01*
X-9702841Y17475464D01*
X-9556762Y17414956D01*
X-9400000Y17394318D01*
X-9243238Y17414956D01*
X-9097159Y17475464D01*
X-8971718Y17571718D01*
X-8875464Y17697159D01*
X-8814956Y17843238D01*
X-8794318Y18000000D01*
X-8796175Y18014102D01*
X-8814956Y18156761D01*
X-8815421Y18157885D01*
X-8875464Y18302841D01*
X-8971718Y18428282D01*
X-9097159Y18524536D01*
X-9217871Y18574537D01*
X-9243240Y18585045D01*
X-9400000Y18605682D01*
X-9556761Y18585045D01*
X-9702840Y18524537D01*
X-9702843Y18524535D01*
X-9828282Y18428282D01*
X-9924535Y18302843D01*
X-9924537Y18302840D01*
X-9985045Y18156761D01*
X-10005682Y18000001D01*
X-10005682Y18000000D01*
X-12944318Y18000000D01*
X-12946175Y18014102D01*
X-12964956Y18156761D01*
X-12965421Y18157885D01*
X-13025464Y18302841D01*
X-13121718Y18428282D01*
X-13247159Y18524536D01*
X-13367871Y18574537D01*
X-13393240Y18585045D01*
X-13550000Y18605682D01*
X-13706761Y18585045D01*
X-13852840Y18524537D01*
X-13852843Y18524535D01*
X-13978282Y18428282D01*
X-14074535Y18302843D01*
X-14074537Y18302840D01*
X-14135045Y18156761D01*
X-14155682Y18000001D01*
X-14155682Y18000000D01*
X-21400901Y18000000D01*
X-21394318Y18050000D01*
X-21401033Y18101002D01*
X-21408908Y18160826D01*
X-21414956Y18206762D01*
X-21475464Y18352841D01*
X-21571718Y18478282D01*
X-21697159Y18574536D01*
X-21722527Y18585044D01*
X-21843240Y18635045D01*
X-22000000Y18655682D01*
X-22156761Y18635045D01*
X-22302840Y18574537D01*
X-22302843Y18574535D01*
X-22428282Y18478282D01*
X-22524535Y18352843D01*
X-22524537Y18352840D01*
X-22585045Y18206761D01*
X-22605682Y18050001D01*
X-22605682Y18050000D01*
X-35692030Y18050000D01*
X-35640544Y18157946D01*
X-35639093Y18160795D01*
X-34939079Y19450000D01*
X-33255682Y19450000D01*
X-33235045Y19293240D01*
X-33202618Y19214956D01*
X-33174536Y19147159D01*
X-33078282Y19021718D01*
X-32952841Y18925464D01*
X-32806762Y18864956D01*
X-32728382Y18854637D01*
X-32650001Y18844318D01*
X-32650001Y18844319D01*
X-32650000Y18844318D01*
X-32493238Y18864956D01*
X-32347159Y18925464D01*
X-32221718Y19021718D01*
X-32125464Y19147159D01*
X-32064956Y19293238D01*
X-32044318Y19450000D01*
X-32064956Y19606762D01*
X-32125464Y19752841D01*
X-32221718Y19878282D01*
X-32347159Y19974536D01*
X-32372527Y19985044D01*
X-32493240Y20035045D01*
X-32650000Y20055682D01*
X-32806761Y20035045D01*
X-32952840Y19974537D01*
X-32952843Y19974535D01*
X-33078282Y19878282D01*
X-33174535Y19752843D01*
X-33174537Y19752840D01*
X-33235045Y19606761D01*
X-33255682Y19450001D01*
X-33255682Y19450000D01*
X-34939079Y19450000D01*
X-34641354Y19998315D01*
X-34639729Y20001129D01*
X-34261716Y20618000D01*
X-31345682Y20618000D01*
X-31325045Y20461240D01*
X-31293483Y20385044D01*
X-31264536Y20315159D01*
X-31168282Y20189718D01*
X-31042841Y20093464D01*
X-30896762Y20032956D01*
X-30740000Y20012318D01*
X-30583238Y20032956D01*
X-30551097Y20046270D01*
X-30480512Y20053860D01*
X-30417025Y20022082D01*
X-30380796Y19961025D01*
X-30383328Y19890073D01*
X-30423818Y19831754D01*
X-30426168Y19829905D01*
X-30428280Y19828285D01*
X-30524535Y19702843D01*
X-30524537Y19702840D01*
X-30585045Y19556761D01*
X-30605682Y19400001D01*
X-30605682Y19400000D01*
X-30585045Y19243240D01*
X-30585044Y19243238D01*
X-30524536Y19097159D01*
X-30428282Y18971718D01*
X-30302841Y18875464D01*
X-30156762Y18814956D01*
X-30000000Y18794318D01*
X-29843238Y18814956D01*
X-29697159Y18875464D01*
X-29571718Y18971718D01*
X-29475464Y19097159D01*
X-29414956Y19243238D01*
X-29394318Y19400000D01*
X-29414956Y19556762D01*
X-29475464Y19702841D01*
X-29550017Y19800000D01*
X-24905682Y19800000D01*
X-24885045Y19643240D01*
X-24849224Y19556762D01*
X-24824536Y19497159D01*
X-24728282Y19371718D01*
X-24602841Y19275464D01*
X-24456762Y19214956D01*
X-24300000Y19194318D01*
X-24143238Y19214956D01*
X-23997159Y19275464D01*
X-23871718Y19371718D01*
X-23775464Y19497159D01*
X-23714956Y19643238D01*
X-23694318Y19800000D01*
X-23714956Y19956762D01*
X-23775464Y20102841D01*
X-23871718Y20228282D01*
X-23997159Y20324536D01*
X-24074956Y20356761D01*
X-24143240Y20385045D01*
X-24300000Y20405682D01*
X-24456761Y20385045D01*
X-24602840Y20324537D01*
X-24602843Y20324535D01*
X-24728282Y20228282D01*
X-24824535Y20102843D01*
X-24824537Y20102840D01*
X-24885045Y19956761D01*
X-24905682Y19800001D01*
X-24905682Y19800000D01*
X-29550017Y19800000D01*
X-29571718Y19828282D01*
X-29697159Y19924536D01*
X-29774956Y19956761D01*
X-29843240Y19985045D01*
X-30000000Y20005682D01*
X-30156763Y19985044D01*
X-30188903Y19971731D01*
X-30259492Y19964142D01*
X-30322979Y19995922D01*
X-30359206Y20056980D01*
X-30356672Y20127931D01*
X-30316181Y20186249D01*
X-30313820Y20188105D01*
X-30313538Y20188322D01*
X-30311718Y20189718D01*
X-30215464Y20315159D01*
X-30154956Y20461238D01*
X-30134318Y20618000D01*
X-30154956Y20774762D01*
X-30215464Y20920841D01*
X-30311718Y21046282D01*
X-30437159Y21142536D01*
X-30438853Y21143238D01*
X-30583240Y21203045D01*
X-30740000Y21223682D01*
X-30896761Y21203045D01*
X-31042840Y21142537D01*
X-31042843Y21142535D01*
X-31168282Y21046282D01*
X-31264535Y20920843D01*
X-31264537Y20920840D01*
X-31325045Y20774761D01*
X-31345682Y20618001D01*
X-31345682Y20618000D01*
X-34261716Y20618000D01*
X-33794770Y21380000D01*
X-32869682Y21380000D01*
X-32849045Y21223240D01*
X-32815616Y21142537D01*
X-32788536Y21077159D01*
X-32692282Y20951718D01*
X-32566841Y20855464D01*
X-32420762Y20794956D01*
X-32345480Y20785045D01*
X-32264001Y20774318D01*
X-32264001Y20774319D01*
X-32264000Y20774318D01*
X-32107238Y20794956D01*
X-31961159Y20855464D01*
X-31835718Y20951718D01*
X-31739464Y21077159D01*
X-31678956Y21223238D01*
X-31668850Y21300000D01*
X-27455682Y21300000D01*
X-27435045Y21143240D01*
X-27394883Y21046282D01*
X-27374536Y20997159D01*
X-27278282Y20871718D01*
X-27152841Y20775464D01*
X-27006762Y20714956D01*
X-26850000Y20694318D01*
X-26693238Y20714956D01*
X-26547159Y20775464D01*
X-26421718Y20871718D01*
X-26325464Y20997159D01*
X-26264956Y21143238D01*
X-26244318Y21300000D01*
X-26264956Y21456762D01*
X-26325464Y21602841D01*
X-26421718Y21728282D01*
X-26547159Y21824536D01*
X-26693238Y21885044D01*
X-26693240Y21885045D01*
X-26850000Y21905682D01*
X-27006761Y21885045D01*
X-27152840Y21824537D01*
X-27152843Y21824535D01*
X-27278282Y21728282D01*
X-27374535Y21602843D01*
X-27374537Y21602840D01*
X-27435045Y21456761D01*
X-27455682Y21300001D01*
X-27455682Y21300000D01*
X-31668850Y21300000D01*
X-31658318Y21380000D01*
X-31678956Y21536762D01*
X-31739464Y21682841D01*
X-31835718Y21808282D01*
X-31961159Y21904536D01*
X-31963925Y21905682D01*
X-32107240Y21965045D01*
X-32264000Y21985682D01*
X-32420761Y21965045D01*
X-32566840Y21904537D01*
X-32566843Y21904535D01*
X-32692282Y21808282D01*
X-32788535Y21682843D01*
X-32788537Y21682840D01*
X-32849045Y21536761D01*
X-32869682Y21380001D01*
X-32869682Y21380000D01*
X-33794770Y21380000D01*
X-33547239Y21783941D01*
X-33545452Y21786692D01*
X-33055213Y22500000D01*
X-30255682Y22500000D01*
X-30235045Y22343240D01*
X-30227297Y22324536D01*
X-30174536Y22197159D01*
X-30078282Y22071718D01*
X-29952841Y21975464D01*
X-29806762Y21914956D01*
X-29650000Y21894318D01*
X-29493238Y21914956D01*
X-29347159Y21975464D01*
X-29221718Y22071718D01*
X-29125464Y22197159D01*
X-29064956Y22343238D01*
X-29044318Y22500000D01*
X-29064956Y22656762D01*
X-29125464Y22802841D01*
X-29221718Y22928282D01*
X-29347159Y23024536D01*
X-29470109Y23075464D01*
X-29493240Y23085045D01*
X-29650000Y23105682D01*
X-29806761Y23085045D01*
X-29952840Y23024537D01*
X-29952843Y23024535D01*
X-30078282Y22928282D01*
X-30174535Y22802843D01*
X-30174537Y22802840D01*
X-30235045Y22656761D01*
X-30255682Y22500001D01*
X-30255682Y22500000D01*
X-33055213Y22500000D01*
X-32361226Y23509765D01*
X-32359306Y23512408D01*
X-31908408Y24100000D01*
X-29405682Y24100000D01*
X-29385045Y23943240D01*
X-29335876Y23824537D01*
X-29324536Y23797159D01*
X-29228282Y23671718D01*
X-29102841Y23575464D01*
X-28956762Y23514956D01*
X-28800000Y23494318D01*
X-28643238Y23514956D01*
X-28497159Y23575464D01*
X-28371718Y23671718D01*
X-28275464Y23797159D01*
X-28214956Y23943238D01*
X-28194318Y24100000D01*
X-28214956Y24256762D01*
X-28275464Y24402841D01*
X-28371718Y24528282D01*
X-28497159Y24624536D01*
X-28643238Y24685044D01*
X-28643240Y24685045D01*
X-28800000Y24705682D01*
X-28956761Y24685045D01*
X-29102840Y24624537D01*
X-29102843Y24624535D01*
X-29228282Y24528282D01*
X-29324535Y24402843D01*
X-29324537Y24402840D01*
X-29385045Y24256761D01*
X-29405682Y24100001D01*
X-29405682Y24100000D01*
X-31908408Y24100000D01*
X-31086397Y25171213D01*
X-31084379Y25173706D01*
X-30300951Y26091007D01*
X-26786507Y26091007D01*
X-26742808Y25675208D01*
X-26709587Y25572976D01*
X-26613607Y25277606D01*
X-26553233Y25173055D01*
X-26404506Y24915504D01*
X-26197034Y24685044D01*
X-26124707Y24604704D01*
X-25816708Y24280505D01*
X-25319109Y23756761D01*
X-25291418Y23727616D01*
X-25291411Y23727601D01*
X-25291407Y23727604D01*
X-24700507Y23105504D01*
X-24045407Y22416003D01*
X-23569446Y21914956D01*
X-23446765Y21785809D01*
X-23328208Y21661004D01*
X-22550707Y20842604D01*
X-21748635Y19998303D01*
X-21715006Y19962904D01*
X-20823506Y19024504D01*
X-20341206Y18516804D01*
X-20003006Y18271103D01*
X-20003002Y18271101D01*
X-20003000Y18271100D01*
X-19746223Y18156761D01*
X-19621007Y18101004D01*
X-19212006Y18014103D01*
X-19212005Y18014103D01*
X-18793909Y18014103D01*
X-18793908Y18014103D01*
X-18384903Y18101002D01*
X-18003012Y18271099D01*
X-18003005Y18271102D01*
X-18003005Y18271103D01*
X-18003003Y18271103D01*
X-17664702Y18516802D01*
X-17130883Y19023383D01*
X-17128467Y19025558D01*
X-16032234Y19961853D01*
X-16029711Y19963895D01*
X-15722027Y20200000D01*
X-12505682Y20200000D01*
X-12485045Y20043240D01*
X-12435876Y19924537D01*
X-12424536Y19897159D01*
X-12328282Y19771718D01*
X-12202841Y19675464D01*
X-12056762Y19614956D01*
X-11900000Y19594318D01*
X-11743238Y19614956D01*
X-11597159Y19675464D01*
X-11471718Y19771718D01*
X-11450017Y19800000D01*
X-6905682Y19800000D01*
X-6885045Y19643240D01*
X-6849224Y19556762D01*
X-6824536Y19497159D01*
X-6728282Y19371718D01*
X-6602841Y19275464D01*
X-6456762Y19214956D01*
X-6300000Y19194318D01*
X-6143238Y19214956D01*
X-5997159Y19275464D01*
X-5871718Y19371718D01*
X-5775464Y19497159D01*
X-5714956Y19643238D01*
X-5694318Y19800000D01*
X-5714956Y19956762D01*
X-5775464Y20102841D01*
X-5871718Y20228282D01*
X-5997159Y20324536D01*
X-6074956Y20356761D01*
X-6143240Y20385045D01*
X-6300000Y20405682D01*
X-6456761Y20385045D01*
X-6602840Y20324537D01*
X-6602843Y20324535D01*
X-6728282Y20228282D01*
X-6824535Y20102843D01*
X-6824537Y20102840D01*
X-6885045Y19956761D01*
X-6905682Y19800001D01*
X-6905682Y19800000D01*
X-11450017Y19800000D01*
X-11375464Y19897159D01*
X-11314956Y20043238D01*
X-11294318Y20200000D01*
X-11314956Y20356762D01*
X-11375464Y20502841D01*
X-11471718Y20628282D01*
X-11597159Y20724536D01*
X-11718412Y20774761D01*
X-11743240Y20785045D01*
X-11900000Y20805682D01*
X-12056761Y20785045D01*
X-12202840Y20724537D01*
X-12202843Y20724535D01*
X-12328282Y20628282D01*
X-12424535Y20502843D01*
X-12424537Y20502840D01*
X-12485045Y20356761D01*
X-12505682Y20200001D01*
X-12505682Y20200000D01*
X-15722027Y20200000D01*
X-15051805Y20714303D01*
X-15049150Y20716232D01*
X-14962964Y20775466D01*
X-14353535Y21194318D01*
X-14033346Y21414379D01*
X-14030600Y21416163D01*
X-13404177Y21800000D01*
X-9605682Y21800000D01*
X-9585045Y21643240D01*
X-9585044Y21643238D01*
X-9524536Y21497159D01*
X-9428282Y21371718D01*
X-9302841Y21275464D01*
X-9156762Y21214956D01*
X-9000000Y21194318D01*
X-8843238Y21214956D01*
X-8697159Y21275464D01*
X-8571718Y21371718D01*
X-8475464Y21497159D01*
X-8414956Y21643238D01*
X-8394318Y21800000D01*
X-8414956Y21956762D01*
X-8475464Y22102841D01*
X-8571718Y22228282D01*
X-8697159Y22324536D01*
X-8742309Y22343238D01*
X-8843240Y22385045D01*
X-9000000Y22405682D01*
X-9156761Y22385045D01*
X-9302840Y22324537D01*
X-9302843Y22324535D01*
X-9428282Y22228282D01*
X-9524535Y22102843D01*
X-9524537Y22102840D01*
X-9585045Y21956761D01*
X-9605682Y21800001D01*
X-9605682Y21800000D01*
X-13404177Y21800000D01*
X-12801372Y22169365D01*
X-12798612Y22170958D01*
X-11531532Y22858928D01*
X-11528632Y22860406D01*
X-10607146Y23300000D01*
X-6005682Y23300000D01*
X-5985045Y23143240D01*
X-5935876Y23024537D01*
X-5924536Y22997159D01*
X-5828282Y22871718D01*
X-5702841Y22775464D01*
X-5556762Y22714956D01*
X-5478381Y22704637D01*
X-5400001Y22694318D01*
X-5400001Y22694319D01*
X-5400000Y22694318D01*
X-5243238Y22714956D01*
X-5097159Y22775464D01*
X-4971718Y22871718D01*
X-4875464Y22997159D01*
X-4814956Y23143238D01*
X-4794318Y23300000D01*
X-4814956Y23456762D01*
X-4875464Y23602841D01*
X-4971718Y23728282D01*
X-5065183Y23800000D01*
X-1705682Y23800000D01*
X-1685045Y23643240D01*
X-1630523Y23511614D01*
X-1624536Y23497159D01*
X-1528282Y23371718D01*
X-1402841Y23275464D01*
X-1256762Y23214956D01*
X-1100000Y23194318D01*
X-943238Y23214956D01*
X-797159Y23275464D01*
X-671718Y23371718D01*
X-575464Y23497159D01*
X-532866Y23600000D01*
X2794318Y23600000D01*
X2814955Y23443240D01*
X2844581Y23371718D01*
X2875464Y23297159D01*
X2971718Y23171718D01*
X3097159Y23075464D01*
X3243238Y23014956D01*
X3400000Y22994318D01*
X3556762Y23014956D01*
X3702841Y23075464D01*
X3828282Y23171718D01*
X3924536Y23297159D01*
X3985044Y23443238D01*
X4005682Y23600000D01*
X3985044Y23756762D01*
X3924536Y23902841D01*
X3828282Y24028282D01*
X3702841Y24124536D01*
X3556762Y24185044D01*
X3556760Y24185045D01*
X3400000Y24205682D01*
X3243239Y24185045D01*
X3097160Y24124537D01*
X3097157Y24124535D01*
X2971718Y24028282D01*
X2875465Y23902843D01*
X2875463Y23902840D01*
X2814955Y23756761D01*
X2794318Y23600001D01*
X2794318Y23600000D01*
X-532866Y23600000D01*
X-514956Y23643238D01*
X-494318Y23800000D01*
X-514956Y23956762D01*
X-575464Y24102841D01*
X-671718Y24228282D01*
X-797159Y24324536D01*
X-850080Y24346457D01*
X-943240Y24385045D01*
X-1100000Y24405682D01*
X-1256761Y24385045D01*
X-1402840Y24324537D01*
X-1402843Y24324535D01*
X-1528282Y24228282D01*
X-1624535Y24102843D01*
X-1624537Y24102840D01*
X-1685045Y23956761D01*
X-1705682Y23800001D01*
X-1705682Y23800000D01*
X-5065183Y23800000D01*
X-5097159Y23824536D01*
X-5195460Y23865254D01*
X-5243240Y23885045D01*
X-5400000Y23905682D01*
X-5556761Y23885045D01*
X-5702840Y23824537D01*
X-5702843Y23824535D01*
X-5828282Y23728282D01*
X-5924535Y23602843D01*
X-5924537Y23602840D01*
X-5985045Y23456761D01*
X-6005682Y23300001D01*
X-6005682Y23300000D01*
X-10607146Y23300000D01*
X-10416155Y23391112D01*
X-10413213Y23392422D01*
X-9274418Y23864086D01*
X-9271392Y23865248D01*
X-7912364Y24346466D01*
X-7909300Y24347462D01*
X-6526925Y24756946D01*
X-6523800Y24757783D01*
X-5325272Y25045521D01*
X-5322052Y25046205D01*
X-4110131Y25270908D01*
X-4106923Y25271416D01*
X-2677541Y25459594D01*
X-2674314Y25459933D01*
X-1237044Y25572978D01*
X-1233819Y25573148D01*
X-1640Y25605462D01*
X1640Y25605462D01*
X1233815Y25573148D01*
X1237044Y25572978D01*
X2674304Y25459933D01*
X2677539Y25459593D01*
X4106912Y25271417D01*
X4110132Y25270907D01*
X4637567Y25173115D01*
X5322050Y25046205D01*
X5325272Y25045520D01*
X5721353Y24950431D01*
X6523784Y24757785D01*
X6526929Y24756943D01*
X7909280Y24347465D01*
X7912366Y24346462D01*
X9215475Y23885045D01*
X9271368Y23865254D01*
X9274425Y23864081D01*
X10125425Y23511614D01*
X10413159Y23392440D01*
X10416178Y23391096D01*
X11528614Y22860411D01*
X11531550Y22858915D01*
X11685247Y22775464D01*
X12750348Y22197159D01*
X12798555Y22170985D01*
X12801380Y22169354D01*
X14030571Y21416177D01*
X14033340Y21414379D01*
X15049144Y20716232D01*
X15051814Y20714292D01*
X15163899Y20628282D01*
X16029705Y19963895D01*
X16032246Y19961837D01*
X17128461Y19025556D01*
X17130872Y19023385D01*
X17664695Y18516800D01*
X17717730Y18478282D01*
X18002985Y18271107D01*
X18002994Y18271101D01*
X18002998Y18271099D01*
X18003002Y18271097D01*
X18384889Y18101004D01*
X18384892Y18101004D01*
X18384895Y18101002D01*
X18793895Y18014102D01*
X18793896Y18014102D01*
X19211993Y18014102D01*
X19211994Y18014102D01*
X19620994Y18101002D01*
X20002994Y18271101D01*
X20341194Y18516800D01*
X20823493Y19024502D01*
X21714996Y19962903D01*
X22550689Y20842602D01*
X23328193Y21661002D01*
X24045389Y22415996D01*
X24045395Y22416000D01*
X24045394Y22416001D01*
X24329436Y22714956D01*
X24700500Y23105502D01*
X25291397Y23727603D01*
X25291398Y23727602D01*
X25291403Y23727610D01*
X25816696Y24280503D01*
X26124694Y24604702D01*
X26404495Y24915503D01*
X26613594Y25277604D01*
X26742797Y25675204D01*
X26786499Y26091004D01*
X26742797Y26506903D01*
X26613594Y26904503D01*
X26404495Y27266604D01*
X26339925Y27338304D01*
X26124704Y27577293D01*
X26124693Y27577304D01*
X25958097Y27735406D01*
X25525695Y28145804D01*
X25525695Y28145805D01*
X25525689Y28145809D01*
X25426994Y28239504D01*
X25426985Y28239512D01*
X25141697Y28483201D01*
X25141693Y28483204D01*
X24833389Y28746504D01*
X24612487Y28935105D01*
X24612489Y28935109D01*
X24612443Y28935143D01*
X24479828Y29048471D01*
X24463252Y29062613D01*
X24435528Y29086268D01*
X24435495Y29086317D01*
X24435485Y29086304D01*
X23993789Y29463503D01*
X22498479Y30610911D01*
X22160306Y30856694D01*
X21829057Y31084343D01*
X20606990Y31924202D01*
X20606974Y31924212D01*
X20606968Y31924216D01*
X18999993Y32909003D01*
X17343699Y33808298D01*
X17343692Y33808302D01*
X15642494Y34619702D01*
X15260589Y34789702D01*
X15260575Y34789708D01*
X15260557Y34789716D01*
X13519297Y35511000D01*
X13519293Y35511001D01*
X11742589Y36140104D01*
X11742582Y36140106D01*
X9935505Y36675406D01*
X9935503Y36675407D01*
X8102859Y37115400D01*
X8102846Y37115403D01*
X7693886Y37202402D01*
X7693829Y37202413D01*
X6243494Y37471164D01*
X5840690Y37545804D01*
X5840687Y37545805D01*
X5840684Y37545805D01*
X5840677Y37545806D01*
X4371552Y37739212D01*
X3972072Y37791802D01*
X3972063Y37791803D01*
X3972042Y37791805D01*
X2093160Y37939702D01*
X2093135Y37939703D01*
X641434Y37977689D01*
X209049Y37989003D01*
X-209065Y37989003D01*
X-593408Y37978946D01*
X-2093148Y37939703D01*
X-2093176Y37939701D01*
X-3972056Y37791805D01*
X-3972079Y37791803D01*
X-3972088Y37791802D01*
X-3972095Y37791802D01*
X-3972096Y37791801D01*
X-5840694Y37545806D01*
X-5840701Y37545805D01*
X-7693904Y37202402D01*
X-8102859Y37115403D01*
X-8102872Y37115400D01*
X-9935501Y36675411D01*
X-9935516Y36675408D01*
X-9935528Y36675404D01*
X-10645205Y36465182D01*
X-11742600Y36140108D01*
X-11742607Y36140106D01*
X-13519311Y35511003D01*
X-13519315Y35511002D01*
X-15260591Y34789712D01*
X-15260642Y34789690D01*
X-15642480Y34619717D01*
X-15642497Y34619709D01*
X-15642508Y34619704D01*
X-15642516Y34619700D01*
X-17343715Y33808300D01*
X-19000010Y32909005D01*
X-20606986Y31924218D01*
X-20607002Y31924208D01*
X-20607007Y31924204D01*
X-21829082Y31084338D01*
X-22160330Y30856689D01*
X-22160348Y30856676D01*
X-22498480Y30610926D01*
X-23993824Y29463492D01*
X-23993829Y29463488D01*
X-24435488Y29086322D01*
X-24479842Y29048476D01*
X-24612529Y28935089D01*
X-24833414Y28746500D01*
X-25141703Y28483211D01*
X-25141702Y28483210D01*
X-25427007Y28239506D01*
X-25525713Y28145802D01*
X-25958110Y27735402D01*
X-26124706Y27577307D01*
X-26124707Y27577307D01*
X-26404511Y27266602D01*
X-26613608Y26904504D01*
X-26742807Y26506907D01*
X-26742808Y26506902D01*
X-26786507Y26091007D01*
X-30300951Y26091007D01*
X-29726493Y26763629D01*
X-29724311Y26766053D01*
X-28285035Y28282808D01*
X-28282785Y28285058D01*
X-26766050Y29724314D01*
X-26763626Y29726496D01*
X-25173702Y31084382D01*
X-25171209Y31086400D01*
X-23512413Y32359304D01*
X-23509762Y32361229D01*
X-21786689Y33545456D01*
X-21783954Y33547232D01*
X-20001117Y34639738D01*
X-19998336Y34641344D01*
X-18160790Y35639093D01*
X-18157941Y35640544D01*
X-16270796Y36540637D01*
X-16267806Y36541968D01*
X-14336008Y37342124D01*
X-14332989Y37343282D01*
X-12362072Y38041290D01*
X-12358994Y38042290D01*
X-10354231Y38636061D01*
X-10351115Y38636896D01*
X-8317934Y39125041D01*
X-8314792Y39125708D01*
X-6258891Y39506717D01*
X-6255686Y39507223D01*
X-5914975Y39552088D01*
X-4182707Y39780194D01*
X-4179451Y39780536D01*
X-2095036Y39944576D01*
X-2091777Y39944747D01*
X-1644Y39999458D01*
X1642Y39999458D01*
X2091772Y39944740D01*
G37*
%TD.AperFunction*%
%TD*%
M02*
