%TF.GenerationSoftware,KiCad,Pcbnew,7.0.5.1-1-g8f565ef7f0-dirty-deb11*%
%TF.CreationDate,2023-06-30T14:36:08+00:00*%
%TF.ProjectId,USTTHUNDERMILLPCB01,55535454-4855-44e4-9445-524d494c4c50,rev?*%
%TF.SameCoordinates,Original*%
%TF.FileFunction,Soldermask,Bot*%
%TF.FilePolarity,Negative*%
%FSLAX46Y46*%
G04 Gerber Fmt 4.6, Leading zero omitted, Abs format (unit mm)*
G04 Created by KiCad (PCBNEW 7.0.5.1-1-g8f565ef7f0-dirty-deb11) date 2023-06-30 14:36:08*
%MOMM*%
%LPD*%
G01*
G04 APERTURE LIST*
G04 Aperture macros list*
%AMRoundRect*
0 Rectangle with rounded corners*
0 $1 Rounding radius*
0 $2 $3 $4 $5 $6 $7 $8 $9 X,Y pos of 4 corners*
0 Add a 4 corners polygon primitive as box body*
4,1,4,$2,$3,$4,$5,$6,$7,$8,$9,$2,$3,0*
0 Add four circle primitives for the rounded corners*
1,1,$1+$1,$2,$3*
1,1,$1+$1,$4,$5*
1,1,$1+$1,$6,$7*
1,1,$1+$1,$8,$9*
0 Add four rect primitives between the rounded corners*
20,1,$1+$1,$2,$3,$4,$5,0*
20,1,$1+$1,$4,$5,$6,$7,0*
20,1,$1+$1,$6,$7,$8,$9,0*
20,1,$1+$1,$8,$9,$2,$3,0*%
G04 Aperture macros list end*
%ADD10C,0.150000*%
%ADD11C,0.050000*%
%ADD12RoundRect,0.100000X0.762000X0.762000X-0.762000X0.762000X-0.762000X-0.762000X0.762000X-0.762000X0*%
%ADD13RoundRect,0.100000X0.618210X0.280474X-0.293291X0.612234X-0.618210X-0.280474X0.293291X-0.612234X0*%
%ADD14RoundRect,0.100000X0.652413X0.374443X-0.259089X0.706203X-0.652413X-0.374443X0.259089X-0.706203X0*%
%ADD15RoundRect,0.100000X0.561829X0.300995X-0.236910X0.591713X-0.561829X-0.300995X0.236910X-0.591713X0*%
%ADD16RoundRect,0.100000X0.596031X0.394965X-0.202708X0.685682X-0.596031X-0.394965X0.202708X-0.685682X0*%
%ADD17RoundRect,0.100000X0.280474X-0.618210X0.612234X0.293291X-0.280474X0.618210X-0.612234X-0.293291X0*%
%ADD18RoundRect,0.100000X0.374443X-0.652413X0.706203X0.259089X-0.374443X0.652413X-0.706203X-0.259089X0*%
%ADD19RoundRect,0.100000X0.300995X-0.561829X0.591713X0.236910X-0.300995X0.561829X-0.591713X-0.236910X0*%
%ADD20RoundRect,0.100000X0.394965X-0.596031X0.685682X0.202708X-0.394965X0.596031X-0.685682X-0.202708X0*%
%ADD21RoundRect,0.100000X0.182522X0.653862X-0.657522X0.168862X-0.182522X-0.653862X0.657522X-0.168862X0*%
%ADD22RoundRect,0.100000X0.132522X0.740465X-0.707522X0.255465X-0.132522X-0.740465X0.707522X-0.255465X0*%
%ADD23RoundRect,0.100000X0.130561X0.623862X-0.605561X0.198862X-0.130561X-0.623862X0.605561X-0.198862X0*%
%ADD24RoundRect,0.100000X0.080561X0.710465X-0.655561X0.285465X-0.080561X-0.710465X0.655561X-0.285465X0*%
%ADD25RoundRect,0.100000X-0.762000X0.762000X-0.762000X-0.762000X0.762000X-0.762000X0.762000X0.762000X0*%
G04 APERTURE END LIST*
D10*
X-13843200Y2294000D02*
X-11193200Y2294000D01*
X-11193200Y-2256000D01*
X-13843200Y-2256000D01*
X-13843200Y2294000D01*
G36*
X-13843200Y2294000D02*
G01*
X-11193200Y2294000D01*
X-11193200Y-2256000D01*
X-13843200Y-2256000D01*
X-13843200Y2294000D01*
G37*
X-11693200Y1544000D02*
X-7493200Y1544000D01*
X-7493200Y-1556000D01*
X-11693200Y-1556000D01*
X-11693200Y1544000D01*
G36*
X-11693200Y1544000D02*
G01*
X-7493200Y1544000D01*
X-7493200Y-1556000D01*
X-11693200Y-1556000D01*
X-11693200Y1544000D01*
G37*
D11*
X2145408Y38436993D02*
X4024345Y38289094D01*
X5892967Y38043095D01*
X7746147Y37699597D01*
X8257354Y37590897D01*
X10090003Y37150998D01*
X11897106Y36615696D01*
X13673805Y35986496D01*
X15415107Y35265297D01*
X15892509Y35052697D01*
X17593708Y34241297D01*
X19250007Y33341998D01*
X20857006Y32357197D01*
X22410308Y31289698D01*
X22833099Y30982499D01*
X24328399Y29835099D01*
X25761505Y28611100D01*
X26459304Y27948901D01*
X26809005Y27560502D01*
X27070304Y27107901D01*
X27231903Y26610800D01*
X27286499Y26091000D01*
X27231903Y25571301D01*
X27070304Y25074200D01*
X26809005Y24621600D01*
X26459304Y24233201D01*
X20675804Y18145300D01*
X20253005Y17838101D01*
X19775505Y17625500D01*
X19264305Y17516800D01*
X18741603Y17516800D01*
X18230403Y17625500D01*
X17753002Y17838101D01*
X17330101Y18145300D01*
X16795200Y18652901D01*
X15696399Y19591401D01*
X14757400Y20311902D01*
X13781997Y20982201D01*
X12549999Y21737200D01*
X11280097Y22426701D01*
X10211898Y22936202D01*
X9118408Y23389201D01*
X7756320Y23871501D01*
X6370849Y24281901D01*
X5219993Y24558201D01*
X4056259Y24773901D01*
X2623661Y24962502D01*
X1183151Y25075902D01*
X0Y25106801D01*
X-1183152Y25075902D01*
X-2623662Y24962502D01*
X-4056260Y24773901D01*
X-5219990Y24558201D01*
X-6370850Y24281901D01*
X-7756321Y23871501D01*
X-9118409Y23389201D01*
X-10211899Y22936202D01*
X-11280100Y22426701D01*
X-12550000Y21737200D01*
X-13782000Y20982201D01*
X-14757401Y20311902D01*
X-15696400Y19591401D01*
X-16795201Y18652901D01*
X-17330102Y18145300D01*
X-17753001Y17838101D01*
X-18230401Y17625500D01*
X-18741601Y17516800D01*
X-19264292Y17516799D01*
X-19775492Y17625498D01*
X-20252993Y17838097D01*
X-20675793Y18145299D01*
X-26459294Y24233199D01*
X-26808993Y24621598D01*
X-27070293Y25074198D01*
X-27231893Y25571299D01*
X-27286493Y26090998D01*
X-27231893Y26610798D01*
X-27070293Y27107899D01*
X-26808993Y27560500D01*
X-26459294Y27948899D01*
X-25761494Y28611100D01*
X-24328393Y29835099D01*
X-22833092Y30982499D01*
X-22410294Y31289698D01*
X-20856993Y32357197D01*
X-19249993Y33341998D01*
X-17593693Y34241297D01*
X-15892495Y35052697D01*
X-15415095Y35265297D01*
X-13673794Y35986496D01*
X-11897093Y36615696D01*
X-10089993Y37150998D01*
X-8257344Y37590897D01*
X-7746132Y37699597D01*
X-5892952Y38043095D01*
X-4024334Y38289094D01*
X-2145394Y38436993D01*
X-261300Y38486294D01*
X261314Y38486294D01*
X2145408Y38436993D01*
G36*
X2145408Y38436993D02*
G01*
X4024345Y38289094D01*
X5892967Y38043095D01*
X7746147Y37699597D01*
X8257354Y37590897D01*
X10090003Y37150998D01*
X11897106Y36615696D01*
X13673805Y35986496D01*
X15415107Y35265297D01*
X15892509Y35052697D01*
X17593708Y34241297D01*
X19250007Y33341998D01*
X20857006Y32357197D01*
X22410308Y31289698D01*
X22833099Y30982499D01*
X24328399Y29835099D01*
X25761505Y28611100D01*
X26459304Y27948901D01*
X26809005Y27560502D01*
X27070304Y27107901D01*
X27231903Y26610800D01*
X27286499Y26091000D01*
X27231903Y25571301D01*
X27070304Y25074200D01*
X26809005Y24621600D01*
X26459304Y24233201D01*
X20675804Y18145300D01*
X20253005Y17838101D01*
X19775505Y17625500D01*
X19264305Y17516800D01*
X18741603Y17516800D01*
X18230403Y17625500D01*
X17753002Y17838101D01*
X17330101Y18145300D01*
X16795200Y18652901D01*
X15696399Y19591401D01*
X14757400Y20311902D01*
X13781997Y20982201D01*
X12549999Y21737200D01*
X11280097Y22426701D01*
X10211898Y22936202D01*
X9118408Y23389201D01*
X7756320Y23871501D01*
X6370849Y24281901D01*
X5219993Y24558201D01*
X4056259Y24773901D01*
X2623661Y24962502D01*
X1183151Y25075902D01*
X0Y25106801D01*
X-1183152Y25075902D01*
X-2623662Y24962502D01*
X-4056260Y24773901D01*
X-5219990Y24558201D01*
X-6370850Y24281901D01*
X-7756321Y23871501D01*
X-9118409Y23389201D01*
X-10211899Y22936202D01*
X-11280100Y22426701D01*
X-12550000Y21737200D01*
X-13782000Y20982201D01*
X-14757401Y20311902D01*
X-15696400Y19591401D01*
X-16795201Y18652901D01*
X-17330102Y18145300D01*
X-17753001Y17838101D01*
X-18230401Y17625500D01*
X-18741601Y17516800D01*
X-19264292Y17516799D01*
X-19775492Y17625498D01*
X-20252993Y17838097D01*
X-20675793Y18145299D01*
X-26459294Y24233199D01*
X-26808993Y24621598D01*
X-27070293Y25074198D01*
X-27231893Y25571299D01*
X-27286493Y26090998D01*
X-27231893Y26610798D01*
X-27070293Y27107899D01*
X-26808993Y27560500D01*
X-26459294Y27948899D01*
X-25761494Y28611100D01*
X-24328393Y29835099D01*
X-22833092Y30982499D01*
X-22410294Y31289698D01*
X-20856993Y32357197D01*
X-19249993Y33341998D01*
X-17593693Y34241297D01*
X-15892495Y35052697D01*
X-15415095Y35265297D01*
X-13673794Y35986496D01*
X-11897093Y36615696D01*
X-10089993Y37150998D01*
X-8257344Y37590897D01*
X-7746132Y37699597D01*
X-5892952Y38043095D01*
X-4024334Y38289094D01*
X-2145394Y38436993D01*
X-261300Y38486294D01*
X261314Y38486294D01*
X2145408Y38436993D01*
G37*
X-18230401Y-17625499D02*
X-17753001Y-17838100D01*
X-17330102Y-18145301D01*
X-16795201Y-18652900D01*
X-15696400Y-19591400D01*
X-14757401Y-20311897D01*
X-13782000Y-20982200D01*
X-12550000Y-21737197D01*
X-11280100Y-22426696D01*
X-10211899Y-22936203D01*
X-9118409Y-23389198D01*
X-7756321Y-23871498D01*
X-6370850Y-24281898D01*
X-5219990Y-24558197D01*
X-4056260Y-24773895D01*
X-2623662Y-24962501D01*
X-1183152Y-25075897D01*
X0Y-25106796D01*
X1183143Y-25075897D01*
X2623649Y-24962501D01*
X4056251Y-24773902D01*
X5219982Y-24558197D01*
X6370841Y-24281898D01*
X7756309Y-23871498D01*
X9118400Y-23389198D01*
X10211891Y-22936203D01*
X11280090Y-22426696D01*
X12549987Y-21737197D01*
X13781990Y-20982200D01*
X14757392Y-20311901D01*
X15696388Y-19591400D01*
X16795188Y-18652900D01*
X17330093Y-18145301D01*
X17752990Y-17838104D01*
X18230392Y-17625503D01*
X18741592Y-17516799D01*
X19264293Y-17516799D01*
X19775493Y-17625503D01*
X20252994Y-17838104D01*
X20675792Y-18145301D01*
X26459289Y-24233200D01*
X26808990Y-24621597D01*
X27070297Y-25074203D01*
X27231887Y-25571304D01*
X27286491Y-26091003D01*
X27231887Y-26610801D01*
X27070297Y-27107902D01*
X26808990Y-27560501D01*
X26459289Y-27948898D01*
X25761489Y-28611099D01*
X24328392Y-29835098D01*
X22833091Y-30982498D01*
X22410293Y-31289703D01*
X20856994Y-32357208D01*
X19249996Y-33342002D01*
X17593696Y-34241302D01*
X15892498Y-35052703D01*
X15415100Y-35265304D01*
X13673797Y-35986503D01*
X11897098Y-36615707D01*
X10089996Y-37151000D01*
X8257347Y-37590904D01*
X7746139Y-37699600D01*
X5892959Y-38043106D01*
X4024337Y-38289100D01*
X2145401Y-38436996D01*
X261306Y-38486297D01*
X-261307Y-38486297D01*
X-2145402Y-38436996D01*
X-4024338Y-38289093D01*
X-5892960Y-38043098D01*
X-7746140Y-37699600D01*
X-8257351Y-37590896D01*
X-10090001Y-37151000D01*
X-11897101Y-36615699D01*
X-13673800Y-35986495D01*
X-15415101Y-35265304D01*
X-15892500Y-35052703D01*
X-17593701Y-34241302D01*
X-19250000Y-33341995D01*
X-20857001Y-32357200D01*
X-22410302Y-31289703D01*
X-22833100Y-30982498D01*
X-24328400Y-29835098D01*
X-25761502Y-28611099D01*
X-26459301Y-27948898D01*
X-26809001Y-27560501D01*
X-27070301Y-27107902D01*
X-27231901Y-26610801D01*
X-27286500Y-26091003D01*
X-27231901Y-25571304D01*
X-27070301Y-25074203D01*
X-26809001Y-24621597D01*
X-26459301Y-24233200D01*
X-20675801Y-18145301D01*
X-20253001Y-17838100D01*
X-19775500Y-17625499D01*
X-19264300Y-17516799D01*
X-18741601Y-17516799D01*
X-18230401Y-17625499D01*
G36*
X-18230401Y-17625499D02*
G01*
X-17753001Y-17838100D01*
X-17330102Y-18145301D01*
X-16795201Y-18652900D01*
X-15696400Y-19591400D01*
X-14757401Y-20311897D01*
X-13782000Y-20982200D01*
X-12550000Y-21737197D01*
X-11280100Y-22426696D01*
X-10211899Y-22936203D01*
X-9118409Y-23389198D01*
X-7756321Y-23871498D01*
X-6370850Y-24281898D01*
X-5219990Y-24558197D01*
X-4056260Y-24773895D01*
X-2623662Y-24962501D01*
X-1183152Y-25075897D01*
X0Y-25106796D01*
X1183143Y-25075897D01*
X2623649Y-24962501D01*
X4056251Y-24773902D01*
X5219982Y-24558197D01*
X6370841Y-24281898D01*
X7756309Y-23871498D01*
X9118400Y-23389198D01*
X10211891Y-22936203D01*
X11280090Y-22426696D01*
X12549987Y-21737197D01*
X13781990Y-20982200D01*
X14757392Y-20311901D01*
X15696388Y-19591400D01*
X16795188Y-18652900D01*
X17330093Y-18145301D01*
X17752990Y-17838104D01*
X18230392Y-17625503D01*
X18741592Y-17516799D01*
X19264293Y-17516799D01*
X19775493Y-17625503D01*
X20252994Y-17838104D01*
X20675792Y-18145301D01*
X26459289Y-24233200D01*
X26808990Y-24621597D01*
X27070297Y-25074203D01*
X27231887Y-25571304D01*
X27286491Y-26091003D01*
X27231887Y-26610801D01*
X27070297Y-27107902D01*
X26808990Y-27560501D01*
X26459289Y-27948898D01*
X25761489Y-28611099D01*
X24328392Y-29835098D01*
X22833091Y-30982498D01*
X22410293Y-31289703D01*
X20856994Y-32357208D01*
X19249996Y-33342002D01*
X17593696Y-34241302D01*
X15892498Y-35052703D01*
X15415100Y-35265304D01*
X13673797Y-35986503D01*
X11897098Y-36615707D01*
X10089996Y-37151000D01*
X8257347Y-37590904D01*
X7746139Y-37699600D01*
X5892959Y-38043106D01*
X4024337Y-38289100D01*
X2145401Y-38436996D01*
X261306Y-38486297D01*
X-261307Y-38486297D01*
X-2145402Y-38436996D01*
X-4024338Y-38289093D01*
X-5892960Y-38043098D01*
X-7746140Y-37699600D01*
X-8257351Y-37590896D01*
X-10090001Y-37151000D01*
X-11897101Y-36615699D01*
X-13673800Y-35986495D01*
X-15415101Y-35265304D01*
X-15892500Y-35052703D01*
X-17593701Y-34241302D01*
X-19250000Y-33341995D01*
X-20857001Y-32357200D01*
X-22410302Y-31289703D01*
X-22833100Y-30982498D01*
X-24328400Y-29835098D01*
X-25761502Y-28611099D01*
X-26459301Y-27948898D01*
X-26809001Y-27560501D01*
X-27070301Y-27107902D01*
X-27231901Y-26610801D01*
X-27286500Y-26091003D01*
X-27231901Y-25571304D01*
X-27070301Y-25074203D01*
X-26809001Y-24621597D01*
X-26459301Y-24233200D01*
X-20675801Y-18145301D01*
X-20253001Y-17838100D01*
X-19775500Y-17625499D01*
X-19264300Y-17516799D01*
X-18741601Y-17516799D01*
X-18230401Y-17625499D01*
G37*
D12*
%TO.C,J3*%
X34800000Y-4400000D03*
%TD*%
D13*
%TO.C,U6*%
X-14903278Y6204862D03*
D14*
X-15365005Y4936277D03*
D15*
X-16030909Y6615286D03*
D16*
X-16492636Y5346701D03*
%TD*%
D17*
%TO.C,U13*%
X6204862Y14903278D03*
D18*
X4936277Y15365005D03*
D19*
X6615286Y16030909D03*
D20*
X5346701Y16492636D03*
%TD*%
D21*
%TO.C,U5*%
X-18655617Y-9930332D03*
D22*
X-17980617Y-11099466D03*
D23*
X-19694847Y-10530332D03*
D24*
X-19019847Y-11699466D03*
%TD*%
D25*
%TO.C,J4*%
X9282400Y-12555800D03*
X9282400Y-15095800D03*
X11822400Y-12555800D03*
X11822400Y-15095800D03*
X14362400Y-12555800D03*
X14362400Y-15095800D03*
%TD*%
M02*
