%TF.GenerationSoftware,KiCad,Pcbnew,7.0.5.1-1-g8f565ef7f0-dirty-deb11*%
%TF.CreationDate,2023-06-28T16:47:18+00:00*%
%TF.ProjectId,USTTHUNDERMILLPCB01,55535454-4855-44e4-9445-524d494c4c50,rev?*%
%TF.SameCoordinates,Original*%
%TF.FileFunction,Soldermask,Top*%
%TF.FilePolarity,Negative*%
%FSLAX46Y46*%
G04 Gerber Fmt 4.6, Leading zero omitted, Abs format (unit mm)*
G04 Created by KiCad (PCBNEW 7.0.5.1-1-g8f565ef7f0-dirty-deb11) date 2023-06-28 16:47:18*
%MOMM*%
%LPD*%
G01*
G04 APERTURE LIST*
G04 Aperture macros list*
%AMRoundRect*
0 Rectangle with rounded corners*
0 $1 Rounding radius*
0 $2 $3 $4 $5 $6 $7 $8 $9 X,Y pos of 4 corners*
0 Add a 4 corners polygon primitive as box body*
4,1,4,$2,$3,$4,$5,$6,$7,$8,$9,$2,$3,0*
0 Add four circle primitives for the rounded corners*
1,1,$1+$1,$2,$3*
1,1,$1+$1,$4,$5*
1,1,$1+$1,$6,$7*
1,1,$1+$1,$8,$9*
0 Add four rect primitives between the rounded corners*
20,1,$1+$1,$2,$3,$4,$5,0*
20,1,$1+$1,$4,$5,$6,$7,0*
20,1,$1+$1,$6,$7,$8,$9,0*
20,1,$1+$1,$8,$9,$2,$3,0*%
%AMFreePoly0*
4,1,40,0.586777,0.930194,0.656366,0.874698,0.694986,0.794504,0.700000,0.750000,0.700000,-0.750000,0.680194,-0.836777,0.624698,-0.906366,0.544504,-0.944986,0.500000,-0.950000,0.000000,-0.950000,-0.022297,-0.944911,-0.071157,-0.944911,-0.127504,-0.936810,-0.264055,-0.896715,-0.315837,-0.873066,-0.435559,-0.796125,-0.478580,-0.758847,-0.571777,-0.651292,-0.602554,-0.603402,-0.661673,-0.473948,
-0.677710,-0.419330,-0.697964,-0.278464,-0.700000,-0.250000,-0.700000,0.250000,-0.697964,0.278464,-0.677710,0.419330,-0.661673,0.473948,-0.602554,0.603402,-0.571777,0.651292,-0.478580,0.758847,-0.435559,0.796125,-0.315837,0.873066,-0.264055,0.896715,-0.127504,0.936810,-0.071157,0.944911,-0.044660,0.944911,-0.044504,0.944986,0.000000,0.950000,0.500000,0.950000,0.586777,0.930194,
0.586777,0.930194,$1*%
%AMFreePoly1*
4,1,40,0.022297,0.944911,0.071157,0.944911,0.127504,0.936810,0.264055,0.896715,0.315837,0.873066,0.435559,0.796125,0.478580,0.758847,0.571777,0.651292,0.602554,0.603402,0.661673,0.473948,0.677710,0.419330,0.697964,0.278464,0.700000,0.250000,0.700000,-0.250000,0.697964,-0.278464,0.677710,-0.419330,0.661673,-0.473948,0.602554,-0.603402,0.571777,-0.651292,0.478580,-0.758847,
0.435559,-0.796125,0.315837,-0.873066,0.264055,-0.896715,0.127504,-0.936810,0.071157,-0.944911,0.044660,-0.944911,0.044504,-0.944986,0.000000,-0.950000,-0.500000,-0.950000,-0.586777,-0.930194,-0.656366,-0.874698,-0.694986,-0.794504,-0.700000,-0.750000,-0.700000,0.750000,-0.680194,0.836777,-0.624698,0.906366,-0.544504,0.944986,-0.500000,0.950000,0.000000,0.950000,0.022297,0.944911,
0.022297,0.944911,$1*%
G04 Aperture macros list end*
%ADD10C,0.150000*%
%ADD11O,1.100000X3.000000*%
%ADD12RoundRect,0.400000X0.275000X-0.200000X0.275000X0.200000X-0.275000X0.200000X-0.275000X-0.200000X0*%
%ADD13RoundRect,0.400000X-0.275000X0.200000X-0.275000X-0.200000X0.275000X-0.200000X0.275000X0.200000X0*%
%ADD14RoundRect,0.400000X0.335876X0.053033X0.053033X0.335876X-0.335876X-0.053033X-0.053033X-0.335876X0*%
%ADD15RoundRect,0.425000X-0.225000X-0.250000X0.225000X-0.250000X0.225000X0.250000X-0.225000X0.250000X0*%
%ADD16RoundRect,0.450000X-0.113813X0.524568X-0.496835X0.203174X0.113813X-0.524568X0.496835X-0.203174X0*%
%ADD17RoundRect,0.418750X0.304135X-0.144974X0.190902X0.277619X-0.304135X0.144974X-0.190902X-0.277619X0*%
%ADD18RoundRect,0.418750X0.324689X-0.089959X0.139794X0.306551X-0.324689X0.089959X-0.139794X-0.306551X0*%
%ADD19RoundRect,0.400000X-0.200000X-0.275000X0.200000X-0.275000X0.200000X0.275000X-0.200000X0.275000X0*%
%ADD20RoundRect,0.418750X0.290343X-0.170929X0.214371X0.259924X-0.290343X0.170929X-0.214371X-0.259924X0*%
%ADD21RoundRect,0.400000X0.200000X0.275000X-0.200000X0.275000X-0.200000X-0.275000X0.200000X-0.275000X0*%
%ADD22RoundRect,0.400000X0.297482X0.164711X-0.065042X0.333758X-0.297482X-0.164711X0.065042X-0.333758X0*%
%ADD23RoundRect,0.425000X0.225000X0.250000X-0.225000X0.250000X-0.225000X-0.250000X0.225000X-0.250000X0*%
%ADD24RoundRect,0.450000X0.250000X0.475000X-0.250000X0.475000X-0.250000X-0.475000X0.250000X-0.475000X0*%
%ADD25RoundRect,0.450000X-0.250000X-0.475000X0.250000X-0.475000X0.250000X0.475000X-0.250000X0.475000X0*%
%ADD26RoundRect,0.350000X-0.477297X-0.689429X0.689429X0.477297X0.477297X0.689429X-0.689429X-0.477297X0*%
%ADD27RoundRect,0.350000X-0.571023X0.431779X-0.697808X0.159887X0.571023X-0.431779X0.697808X-0.159887X0*%
%ADD28RoundRect,0.450000X-0.891284X0.691457X-1.102593X0.238303X0.891284X-0.691457X1.102593X-0.238303X0*%
%ADD29FreePoly0,180.000000*%
%ADD30FreePoly1,180.000000*%
%ADD31RoundRect,0.200000X-0.325000X-0.200000X0.325000X-0.200000X0.325000X0.200000X-0.325000X0.200000X0*%
%ADD32RoundRect,0.200000X1.060660X0.141421X0.141421X1.060660X-1.060660X-0.141421X-0.141421X-1.060660X0*%
%ADD33RoundRect,0.425000X-0.250000X0.225000X-0.250000X-0.225000X0.250000X-0.225000X0.250000X0.225000X0*%
%ADD34RoundRect,0.450000X0.375000X1.075000X-0.375000X1.075000X-0.375000X-1.075000X0.375000X-1.075000X0*%
%ADD35RoundRect,0.425000X0.336138X-0.011663X0.046884X0.333057X-0.336138X0.011663X-0.046884X-0.333057X0*%
%ADD36RoundRect,0.350000X-0.444335X0.296180X0.214522X-0.489016X0.444335X-0.296180X-0.214522X0.489016X0*%
%ADD37RoundRect,0.200000X-0.400000X0.450000X-0.400000X-0.450000X0.400000X-0.450000X0.400000X0.450000X0*%
%ADD38RoundRect,0.200000X-0.775000X-0.575000X0.775000X-0.575000X0.775000X0.575000X-0.775000X0.575000X0*%
%ADD39RoundRect,0.200000X-0.775000X-0.525000X0.775000X-0.525000X0.775000X0.525000X-0.775000X0.525000X0*%
%ADD40RoundRect,0.200000X-0.750000X-0.275000X0.750000X-0.275000X0.750000X0.275000X-0.750000X0.275000X0*%
%ADD41RoundRect,0.200000X0.275000X-0.750000X0.275000X0.750000X-0.275000X0.750000X-0.275000X-0.750000X0*%
%ADD42RoundRect,0.200000X0.350000X-0.300000X0.350000X0.300000X-0.350000X0.300000X-0.350000X-0.300000X0*%
%ADD43RoundRect,0.400000X-0.053033X0.335876X-0.335876X0.053033X0.053033X-0.335876X0.335876X-0.053033X0*%
%ADD44RoundRect,0.425000X0.250000X-0.225000X0.250000X0.225000X-0.250000X0.225000X-0.250000X-0.225000X0*%
%ADD45RoundRect,0.350000X-0.691803X-0.184142X-0.555606X-0.451444X0.691803X0.184142X0.555606X0.451444X0*%
%ADD46RoundRect,0.450000X-1.093605X-0.276638X-0.866610X-0.722141X1.093605X0.276638X0.866610X0.722141X0*%
%ADD47RoundRect,0.350000X0.150000X-0.512500X0.150000X0.512500X-0.150000X0.512500X-0.150000X-0.512500X0*%
%ADD48RoundRect,0.400000X0.053033X-0.335876X0.335876X-0.053033X-0.053033X0.335876X-0.335876X0.053033X0*%
%ADD49RoundRect,0.200000X-0.600000X0.700000X-0.600000X-0.700000X0.600000X-0.700000X0.600000X0.700000X0*%
%ADD50RoundRect,0.350000X0.150000X0.700000X-0.150000X0.700000X-0.150000X-0.700000X0.150000X-0.700000X0*%
%ADD51RoundRect,0.450000X0.250000X1.100000X-0.250000X1.100000X-0.250000X-1.100000X0.250000X-1.100000X0*%
%ADD52RoundRect,0.425000X0.335876X0.017678X0.017678X0.335876X-0.335876X-0.017678X-0.017678X-0.335876X0*%
%ADD53RoundRect,0.450000X-1.246276X-0.804334X-0.804334X-1.246276X1.246276X0.804334X0.804334X1.246276X0*%
%ADD54RoundRect,0.200000X0.088388X0.371231X-0.371231X-0.088388X-0.088388X-0.371231X0.371231X0.088388X0*%
%ADD55RoundRect,0.425000X-0.011663X-0.336138X0.333057X-0.046884X0.011663X0.336138X-0.333057X0.046884X0*%
%ADD56RoundRect,0.200000X0.300000X0.150000X-0.300000X0.150000X-0.300000X-0.150000X0.300000X-0.150000X0*%
%ADD57RoundRect,0.200000X0.500000X0.850000X-0.500000X0.850000X-0.500000X-0.850000X0.500000X-0.850000X0*%
%ADD58RoundRect,0.350000X-0.700000X0.150000X-0.700000X-0.150000X0.700000X-0.150000X0.700000X0.150000X0*%
%ADD59RoundRect,0.450000X-1.100000X0.250000X-1.100000X-0.250000X1.100000X-0.250000X1.100000X0.250000X0*%
%ADD60RoundRect,0.418750X0.315613X-0.117915X0.165979X0.293200X-0.315613X0.117915X-0.165979X-0.293200X0*%
G04 APERTURE END LIST*
D10*
X-12593200Y1544000D02*
X-7493200Y1544000D01*
X-7493200Y-1556000D01*
X-12593200Y-1556000D01*
X-12593200Y1544000D01*
G36*
X-12593200Y1544000D02*
G01*
X-7493200Y1544000D01*
X-7493200Y-1556000D01*
X-12593200Y-1556000D01*
X-12593200Y1544000D01*
G37*
X-13893200Y2294000D02*
X-11193200Y2294000D01*
X-11193200Y-2256000D01*
X-13893200Y-2256000D01*
X-13893200Y2294000D01*
G36*
X-13893200Y2294000D02*
G01*
X-11193200Y2294000D01*
X-11193200Y-2256000D01*
X-13893200Y-2256000D01*
X-13893200Y2294000D01*
G37*
X-12593200Y1544000D02*
X-7493200Y1544000D01*
X-7493200Y-1556000D01*
X-12593200Y-1556000D01*
X-12593200Y1544000D01*
G36*
X-12593200Y1544000D02*
G01*
X-7493200Y1544000D01*
X-7493200Y-1556000D01*
X-12593200Y-1556000D01*
X-12593200Y1544000D01*
G37*
X-13893200Y2294000D02*
X-11193200Y2294000D01*
X-11193200Y-2256000D01*
X-13893200Y-2256000D01*
X-13893200Y2294000D01*
G36*
X-13893200Y2294000D02*
G01*
X-11193200Y2294000D01*
X-11193200Y-2256000D01*
X-13893200Y-2256000D01*
X-13893200Y2294000D01*
G37*
D11*
%TO.C,U4*%
X-22170000Y4400000D03*
X-20900000Y4400000D03*
X-19630000Y4400000D03*
X-18355000Y4400000D03*
X-18360000Y13200000D03*
X-19630000Y13200000D03*
X-20965000Y13200000D03*
X-22170000Y13200000D03*
%TD*%
D12*
%TO.C,R5*%
X8884000Y-31695400D03*
X8884000Y-30045400D03*
%TD*%
D13*
%TO.C,R26*%
X9300000Y-6400000D03*
X9300000Y-8050000D03*
%TD*%
D14*
%TO.C,R16*%
X-24771000Y-14815000D03*
X-25937726Y-13648274D03*
%TD*%
D15*
%TO.C,C14*%
X24225000Y-12600000D03*
X25775000Y-12600000D03*
%TD*%
D16*
%TO.C,C6*%
X-638094Y14482552D03*
X-2093578Y13261256D03*
%TD*%
D17*
%TO.C,D3*%
X8071820Y-36149667D03*
X7664180Y-34628333D03*
%TD*%
D12*
%TO.C,R21*%
X13583000Y-30562000D03*
X13583000Y-28912000D03*
%TD*%
%TO.C,R9*%
X-14800000Y9900000D03*
X-14800000Y11550000D03*
%TD*%
D18*
%TO.C,D6*%
X15439812Y-33689717D03*
X14774188Y-32262283D03*
%TD*%
D13*
%TO.C,R3*%
X29100000Y1625000D03*
X29100000Y-25000D03*
%TD*%
D19*
%TO.C,R1*%
X31250000Y-1500000D03*
X32900000Y-1500000D03*
%TD*%
D20*
%TO.C,D4*%
X4194748Y-36799536D03*
X3921252Y-35248464D03*
%TD*%
D21*
%TO.C,R8*%
X-15975000Y-6300000D03*
X-17625000Y-6300000D03*
%TD*%
D22*
%TO.C,R24*%
X-26154592Y14352680D03*
X-27650000Y15050000D03*
%TD*%
D23*
%TO.C,C10*%
X21575000Y-9800000D03*
X20025000Y-9800000D03*
%TD*%
D24*
%TO.C,C9*%
X21500000Y-7900000D03*
X19600000Y-7900000D03*
%TD*%
D25*
%TO.C,C21*%
X18400000Y-14000000D03*
X20300000Y-14000000D03*
%TD*%
D26*
%TO.C,U9*%
X-19232128Y-23346051D03*
X-18334102Y-24244076D03*
X-17436076Y-25142102D03*
X-16538051Y-26040128D03*
X-13037872Y-22539949D03*
X-13935898Y-21641924D03*
X-14833924Y-20743898D03*
X-15731949Y-19845872D03*
%TD*%
D14*
%TO.C,R27*%
X8250000Y9250000D03*
X7083274Y10416726D03*
%TD*%
D13*
%TO.C,R7*%
X-18100000Y17100000D03*
X-18100000Y15450000D03*
%TD*%
D27*
%TO.C,J1*%
X-30002649Y17450368D03*
X-30530921Y16317483D03*
X-31059194Y15184599D03*
X-31587467Y14051714D03*
X-32115740Y12918829D03*
X-32644013Y11785944D03*
D28*
X-32120990Y20479416D03*
X-36326041Y11461653D03*
%TD*%
D23*
%TO.C,C19*%
X10550000Y-4300000D03*
X9000000Y-4300000D03*
%TD*%
D29*
%TO.C,JP3*%
X-26050000Y6800000D03*
D30*
X-27350000Y6800000D03*
%TD*%
D31*
%TO.C,U10*%
X-18850000Y-1650000D03*
X-18850000Y-2300000D03*
X-18850000Y-2950000D03*
X-16950000Y-2950000D03*
X-16950000Y-1650000D03*
%TD*%
D23*
%TO.C,C17*%
X725000Y-22420000D03*
X-825000Y-22420000D03*
%TD*%
D32*
%TO.C,D2*%
X-1125126Y19725126D03*
X-3600000Y22200000D03*
%TD*%
D33*
%TO.C,C15*%
X-2500000Y-17425000D03*
X-2500000Y-18975000D03*
%TD*%
D34*
%TO.C,L1*%
X24500000Y-16600000D03*
X21700000Y-16600000D03*
%TD*%
D29*
%TO.C,JP2*%
X-26050000Y9500000D03*
D30*
X-27350000Y9500000D03*
%TD*%
D35*
%TO.C,C8*%
X4298160Y13006316D03*
X3301840Y14193684D03*
%TD*%
D21*
%TO.C,R19*%
X-30125000Y500000D03*
X-31775000Y500000D03*
%TD*%
D36*
%TO.C,U3*%
X1596571Y13632024D03*
X868829Y13021376D03*
X141087Y12410727D03*
X1603429Y10667976D03*
X3058913Y11889273D03*
%TD*%
D37*
%TO.C,U1*%
X28850000Y-2400000D03*
X26950000Y-2400000D03*
X27900000Y-4400000D03*
%TD*%
D21*
%TO.C,R10*%
X-15975000Y-4700000D03*
X-17625000Y-4700000D03*
%TD*%
D15*
%TO.C,C26*%
X31025000Y4400000D03*
X32575000Y4400000D03*
%TD*%
D33*
%TO.C,C18*%
X10789000Y-23692000D03*
X10789000Y-25242000D03*
%TD*%
D29*
%TO.C,JP1*%
X-9650000Y-12400000D03*
D30*
X-10950000Y-12400000D03*
%TD*%
D38*
%TO.C,SW1*%
X27900000Y-9750000D03*
X31700000Y-9750000D03*
X27900000Y-12150000D03*
D39*
X31700000Y-12150000D03*
%TD*%
D31*
%TO.C,U11*%
X-18850000Y1350000D03*
X-18850000Y700000D03*
X-18850000Y50000D03*
X-16950000Y50000D03*
X-16950000Y1350000D03*
%TD*%
D40*
%TO.C,U8*%
X4750800Y-11630000D03*
X4750800Y-12430000D03*
X4750800Y-13230000D03*
X4750800Y-14030000D03*
X4750800Y-14830000D03*
X4750800Y-15630000D03*
X4750800Y-16430000D03*
X4750800Y-17230000D03*
X4750800Y-18030000D03*
X4750800Y-18830000D03*
X4750800Y-19630000D03*
D41*
X6450800Y-21330000D03*
X7250800Y-21330000D03*
X8050800Y-21330000D03*
X8850800Y-21330000D03*
X9650800Y-21330000D03*
X10450800Y-21330000D03*
X11250800Y-21330000D03*
X12050800Y-21330000D03*
X12850800Y-21330000D03*
X13650800Y-21330000D03*
X14450800Y-21330000D03*
D40*
X16150800Y-19630000D03*
X16150800Y-18830000D03*
X16150800Y-18030000D03*
X16150800Y-17230000D03*
X16150800Y-16430000D03*
X16150800Y-15630000D03*
X16150800Y-14830000D03*
X16150800Y-14030000D03*
X16150800Y-13230000D03*
X16150800Y-12430000D03*
X16150800Y-11630000D03*
D41*
X14450800Y-9930000D03*
X13650800Y-9930000D03*
X12850800Y-9930000D03*
X12050800Y-9930000D03*
X11250800Y-9930000D03*
X10450800Y-9930000D03*
X9650800Y-9930000D03*
X8850800Y-9930000D03*
X8050800Y-9930000D03*
X7250800Y-9930000D03*
X6450800Y-9930000D03*
%TD*%
D42*
%TO.C,D1*%
X34400000Y-1400000D03*
X34400000Y-2800000D03*
%TD*%
D33*
%TO.C,C4*%
X27500000Y1575000D03*
X27500000Y25000D03*
%TD*%
D43*
%TO.C,R13*%
X-10344637Y-17152637D03*
X-11511363Y-18319363D03*
%TD*%
D13*
%TO.C,R6*%
X-19878000Y17100000D03*
X-19878000Y15450000D03*
%TD*%
D33*
%TO.C,C16*%
X19900000Y-16100000D03*
X19900000Y-17650000D03*
%TD*%
D44*
%TO.C,C3*%
X22700000Y-2150000D03*
X22700000Y-600000D03*
%TD*%
D45*
%TO.C,J6*%
X-32161358Y-12714722D03*
X-31593870Y-13828480D03*
X-31026382Y-14942238D03*
X-30458894Y-16055997D03*
X-29891406Y-17169755D03*
X-29323918Y-18283513D03*
D46*
X-35852462Y-12519130D03*
X-31335256Y-21384645D03*
%TD*%
D43*
%TO.C,R12*%
X-8439637Y-19057637D03*
X-9606363Y-20224363D03*
%TD*%
D15*
%TO.C,C23*%
X18500000Y-12100000D03*
X20050000Y-12100000D03*
%TD*%
D47*
%TO.C,U2*%
X30900000Y225000D03*
X31850000Y225000D03*
X32800000Y225000D03*
X32800000Y2500000D03*
X30900000Y2500000D03*
%TD*%
D48*
%TO.C,R28*%
X11166637Y9316637D03*
X12333363Y10483363D03*
%TD*%
D49*
%TO.C,Y1*%
X-558400Y-17441400D03*
X-558400Y-20041400D03*
X1341600Y-20041400D03*
X1341600Y-17441400D03*
%TD*%
D23*
%TO.C,C22*%
X-22250000Y16400000D03*
X-23800000Y16400000D03*
%TD*%
D50*
%TO.C,J2*%
X22550000Y2500000D03*
X21300000Y2500000D03*
X20050000Y2500000D03*
D51*
X24400000Y5700000D03*
X18200000Y5700000D03*
%TD*%
D12*
%TO.C,R2*%
X24200000Y-600000D03*
X24200000Y1050000D03*
%TD*%
D33*
%TO.C,C1*%
X25400000Y-2400000D03*
X25400000Y-3950000D03*
%TD*%
D12*
%TO.C,R22*%
X-29450000Y-5275000D03*
X-29450000Y-3625000D03*
%TD*%
%TO.C,R23*%
X-31300000Y-5275000D03*
X-31300000Y-3625000D03*
%TD*%
D13*
%TO.C,R11*%
X-14700000Y8325000D03*
X-14700000Y6675000D03*
%TD*%
D12*
%TO.C,R18*%
X10662000Y-31642000D03*
X10662000Y-29992000D03*
%TD*%
D23*
%TO.C,C5*%
X32675000Y6100000D03*
X31125000Y6100000D03*
%TD*%
%TO.C,C20*%
X1375000Y-14870000D03*
X-175000Y-14870000D03*
%TD*%
D15*
%TO.C,C25*%
X-3900000Y-12000000D03*
X-2350000Y-12000000D03*
%TD*%
D22*
%TO.C,R25*%
X-26900000Y12750000D03*
X-28395408Y13447320D03*
%TD*%
D44*
%TO.C,C11*%
X-8400000Y-30000000D03*
X-8400000Y-28450000D03*
%TD*%
D23*
%TO.C,C2*%
X36000000Y0D03*
X34450000Y0D03*
%TD*%
D15*
%TO.C,C13*%
X24300000Y-18900000D03*
X25850000Y-18900000D03*
%TD*%
D14*
%TO.C,R17*%
X-26144274Y-16108726D03*
X-27311000Y-14942000D03*
%TD*%
D21*
%TO.C,R20*%
X-30125000Y-1300000D03*
X-31775000Y-1300000D03*
%TD*%
%TO.C,R14*%
X1365000Y-13170000D03*
X-285000Y-13170000D03*
%TD*%
D52*
%TO.C,C24*%
X-13951992Y-17648008D03*
X-15048008Y-16551992D03*
%TD*%
D53*
%TO.C,F1*%
X-6611441Y20011441D03*
X-3588559Y16988559D03*
%TD*%
D12*
%TO.C,R15*%
X7106000Y-31705000D03*
X7106000Y-30055000D03*
%TD*%
D54*
%TO.C,U12*%
X11231371Y11812132D03*
X10771751Y12271751D03*
X10312132Y12731371D03*
X8968629Y11387868D03*
X9887868Y10468629D03*
%TD*%
D55*
%TO.C,C7*%
X-1867856Y15816114D03*
X-680488Y16812434D03*
%TD*%
D43*
%TO.C,R4*%
X14933363Y7133363D03*
X13766637Y5966637D03*
%TD*%
D56*
%TO.C,U7*%
X-7400000Y-33150000D03*
X-7400000Y-32650000D03*
X-7400000Y-32150000D03*
X-7400000Y-31650000D03*
X-9800000Y-31650000D03*
X-9800000Y-32150000D03*
X-9800000Y-32650000D03*
X-9800000Y-33150000D03*
D57*
X-8600000Y-32400000D03*
%TD*%
D15*
%TO.C,C12*%
X24200000Y-14200000D03*
X25750000Y-14200000D03*
%TD*%
D58*
%TO.C,J5*%
X-34131516Y4651871D03*
X-34131516Y3401871D03*
X-34131516Y2151871D03*
X-34131516Y901871D03*
X-34131516Y-348129D03*
X-34131516Y-1598129D03*
X-34131516Y-2848129D03*
X-34131516Y-4098129D03*
D59*
X-37331516Y6501871D03*
X-37331516Y-5948129D03*
%TD*%
D60*
%TO.C,D5*%
X11820341Y-35113008D03*
X11281659Y-33632992D03*
%TD*%
M02*
