%TF.GenerationSoftware,KiCad,Pcbnew,(5.99.0-10394-g2e15de97e0)*%
%TF.CreationDate,2021-08-25T07:29:16+02:00*%
%TF.ProjectId,USTTHUNDERMILLPCB01A,55535454-4855-44e4-9445-524d494c4c50,rev?*%
%TF.SameCoordinates,Original*%
%TF.FileFunction,Copper,L4,Bot*%
%TF.FilePolarity,Positive*%
%FSLAX46Y46*%
G04 Gerber Fmt 4.6, Leading zero omitted, Abs format (unit mm)*
G04 Created by KiCad (PCBNEW (5.99.0-10394-g2e15de97e0)) date 2021-08-25 07:29:16*
%MOMM*%
%LPD*%
G01*
G04 APERTURE LIST*
G04 Aperture macros list*
%AMRotRect*
0 Rectangle, with rotation*
0 The origin of the aperture is its center*
0 $1 length*
0 $2 width*
0 $3 Rotation angle, in degrees counterclockwise*
0 Add horizontal line*
21,1,$1,$2,0,0,$3*%
G04 Aperture macros list end*
%TA.AperFunction,NonConductor*%
%ADD10C,0.100000*%
%TD*%
%TA.AperFunction,NonConductor*%
%ADD11C,0.050000*%
%TD*%
%TA.AperFunction,SMDPad,CuDef*%
%ADD12RotRect,0.970000X0.950000X160.000000*%
%TD*%
%TA.AperFunction,SMDPad,CuDef*%
%ADD13RotRect,0.970000X1.150000X160.000000*%
%TD*%
%TA.AperFunction,SMDPad,CuDef*%
%ADD14RotRect,0.850000X0.950000X160.000000*%
%TD*%
%TA.AperFunction,SMDPad,CuDef*%
%ADD15RotRect,0.850000X1.150000X160.000000*%
%TD*%
%TA.AperFunction,SMDPad,CuDef*%
%ADD16RotRect,0.970000X0.950000X210.000000*%
%TD*%
%TA.AperFunction,SMDPad,CuDef*%
%ADD17RotRect,0.970000X1.150000X210.000000*%
%TD*%
%TA.AperFunction,SMDPad,CuDef*%
%ADD18RotRect,0.850000X0.950000X210.000000*%
%TD*%
%TA.AperFunction,SMDPad,CuDef*%
%ADD19RotRect,0.850000X1.150000X210.000000*%
%TD*%
%TA.AperFunction,SMDPad,CuDef*%
%ADD20R,1.524000X1.524000*%
%TD*%
%TA.AperFunction,ViaPad*%
%ADD21C,0.800000*%
%TD*%
%TA.AperFunction,Conductor*%
%ADD22C,0.200000*%
%TD*%
%TA.AperFunction,Conductor*%
%ADD23C,0.250000*%
%TD*%
G04 APERTURE END LIST*
D10*
X138527912Y-54708198D02*
X136659294Y-54954196D01*
X161711994Y-74485898D02*
X162120994Y-74398998D01*
X168458099Y-64764596D02*
X168025695Y-64354196D01*
X121892993Y-60575796D02*
X120339693Y-61643295D01*
X160164695Y-73983200D02*
X160502994Y-74228899D01*
X165050689Y-71657398D02*
X165828193Y-70838998D01*
X116974292Y-64354194D02*
X116541893Y-64764595D01*
X161499992Y-59590997D02*
X159843692Y-58691698D01*
X162120994Y-74398998D02*
X162502994Y-74228899D01*
X138391468Y-67228796D02*
X139824069Y-67040195D01*
X127239393Y-57710296D02*
X126857492Y-57880296D01*
X145175926Y-67040195D02*
X146608528Y-67228796D01*
X142290935Y-54510997D02*
X140406845Y-54560298D01*
X127449497Y-71784698D02*
X128467998Y-71084697D01*
X162502994Y-74228899D02*
X162841194Y-73983200D01*
X151772918Y-68635295D02*
X152914695Y-69108196D01*
X166545394Y-70083999D02*
X167200500Y-69394498D01*
X116974292Y-64354194D02*
X116541893Y-64764595D01*
X163323493Y-73475498D02*
X164214996Y-72537097D01*
X162502994Y-74228899D02*
X162841194Y-73983200D01*
X115757193Y-66824794D02*
X115886393Y-67222394D01*
X115886393Y-67222394D02*
X116095493Y-67584495D01*
X157760589Y-57710298D02*
X156019290Y-56988998D01*
X168025695Y-64354196D02*
X167926994Y-64260496D01*
X119949293Y-71657396D02*
X120784994Y-72537096D01*
X146472072Y-54708198D02*
X144593143Y-54560298D01*
X150410835Y-68152996D02*
X151772918Y-68635295D01*
X160884895Y-74398998D02*
X161293895Y-74485898D01*
X169242797Y-66824796D02*
X169286499Y-66408996D01*
X161293895Y-74485898D02*
X161711994Y-74485898D01*
X159629695Y-73475498D02*
X160164695Y-73983200D01*
X117666593Y-63753494D02*
X117358293Y-64016794D01*
X162841194Y-73983200D02*
X163323493Y-73475498D01*
X121892993Y-60575796D02*
X120339693Y-61643295D01*
X150193870Y-55297595D02*
X148340690Y-54954196D01*
X169242797Y-65993097D02*
X169113594Y-65595497D01*
X167200500Y-69394498D02*
X167791397Y-68772397D01*
X123706092Y-74485897D02*
X124115097Y-74398998D01*
X116095493Y-65233394D02*
X115886393Y-65595495D01*
X142709049Y-54510997D02*
X142290935Y-54510997D01*
X161711994Y-74485898D02*
X162120994Y-74398998D01*
X125370298Y-73475498D02*
X126468997Y-72537097D01*
X161499992Y-59590997D02*
X159843692Y-58691698D01*
X156531997Y-71084697D02*
X157550498Y-71784698D01*
X129699998Y-70329797D02*
X130969898Y-69640296D01*
X118064493Y-63413694D02*
X118020193Y-63451494D01*
X128467998Y-71084697D02*
X129699998Y-70329797D01*
X132085296Y-69108196D02*
X133227077Y-68635295D01*
X118064493Y-63413694D02*
X118020193Y-63451494D01*
X116541893Y-64764595D02*
X116375293Y-64922695D01*
X160884895Y-74398998D02*
X161293895Y-74485898D01*
X133227077Y-68635295D02*
X134589157Y-68152996D01*
X120784994Y-72537096D02*
X121676494Y-73475496D01*
X122158794Y-73983196D02*
X122496994Y-74228897D01*
X116095493Y-67584495D02*
X116375293Y-67895296D01*
X115757193Y-65993095D02*
X115713493Y-66408994D01*
X154242591Y-56359897D02*
X152435512Y-55824596D01*
X163323493Y-73475498D02*
X164214996Y-72537097D01*
X116683292Y-68219495D02*
X117208593Y-68772396D01*
X130969898Y-69640296D02*
X132085296Y-69108196D01*
X124496997Y-74228897D02*
X124835298Y-73983198D01*
X138391468Y-67228796D02*
X139824069Y-67040195D01*
X154242591Y-56359897D02*
X152435512Y-55824596D01*
X120784994Y-72537096D02*
X121676494Y-73475496D01*
X169113594Y-65595497D02*
X168904495Y-65233396D01*
X121676494Y-73475496D02*
X122158794Y-73983196D01*
X121892993Y-60575796D02*
X120339693Y-61643295D01*
X136659294Y-54954196D02*
X134806114Y-55297595D01*
X158142494Y-57880298D02*
X157760589Y-57710298D01*
X120339693Y-61643295D02*
X120001493Y-61889095D01*
X122496994Y-74228897D02*
X122878993Y-74398996D01*
X133227077Y-68635295D02*
X134589157Y-68152996D01*
X167791397Y-68772397D02*
X168316696Y-68219497D01*
X167200500Y-69394498D02*
X167791397Y-68772397D01*
X125156293Y-58691696D02*
X123499992Y-59590995D01*
X160164695Y-73983200D02*
X160502994Y-74228899D01*
X134806114Y-55297595D02*
X134397144Y-55384597D01*
X144593143Y-54560298D02*
X142709049Y-54510997D01*
X144593143Y-54560298D02*
X142709049Y-54510997D01*
X169113594Y-67222396D02*
X169242797Y-66824796D01*
X162841194Y-73983200D02*
X163323493Y-73475498D01*
X124115097Y-74398998D02*
X124115097Y-74398998D01*
X115757193Y-65993095D02*
X115713493Y-66408994D01*
X152914695Y-69108196D02*
X154030097Y-69640296D01*
X124115097Y-74398998D02*
X124115097Y-74398998D01*
X125370298Y-73475498D02*
X126468997Y-72537097D01*
X116095493Y-67584495D02*
X116375293Y-67895296D01*
X168316696Y-68219497D02*
X168624694Y-67895298D01*
X168904495Y-67584497D02*
X169113594Y-67222396D01*
X150602844Y-55384597D02*
X150193870Y-55297595D01*
X166493789Y-63036497D02*
X164998489Y-61889097D01*
X149025367Y-67742595D02*
X150410835Y-68152996D01*
X126468997Y-72537097D02*
X127449497Y-71784698D01*
X115886393Y-65595495D02*
X115757193Y-65993095D01*
X142500000Y-66894495D02*
X143735420Y-66926895D01*
X169242797Y-66824796D02*
X169286499Y-66408996D01*
X160502994Y-74228899D02*
X160884895Y-74398998D01*
X124496997Y-74228897D02*
X124835298Y-73983198D01*
X169242797Y-66824796D02*
X169286499Y-66408996D01*
X158142494Y-57880298D02*
X157760589Y-57710298D01*
X161711994Y-74485898D02*
X162120994Y-74398998D01*
X119949293Y-71657396D02*
X120784994Y-72537096D01*
X160884895Y-74398998D02*
X161293895Y-74485898D01*
X124115097Y-74398998D02*
X124115097Y-74398998D01*
X146472072Y-54708198D02*
X144593143Y-54560298D01*
X124115097Y-74398998D02*
X124496997Y-74228897D01*
X124496997Y-74228897D02*
X124835298Y-73983198D01*
X167333389Y-63753496D02*
X167112487Y-63564895D01*
X115757193Y-66824794D02*
X115886393Y-67222394D01*
X129699998Y-70329797D02*
X130969898Y-69640296D01*
X169113594Y-65595497D02*
X168904495Y-65233396D01*
X130757392Y-56359895D02*
X128980693Y-56988996D01*
X118506193Y-63036495D02*
X118064493Y-63413694D01*
X116541893Y-64764595D02*
X116375293Y-64922695D01*
X157760589Y-57710298D02*
X156019290Y-56988998D01*
X151772918Y-68635295D02*
X152914695Y-69108196D01*
X166979789Y-63451496D02*
X166935485Y-63413696D01*
X130969898Y-69640296D02*
X132085296Y-69108196D01*
X116974292Y-64354194D02*
X116541893Y-64764595D01*
X136659294Y-54954196D02*
X134806114Y-55297595D01*
X162502994Y-74228899D02*
X162841194Y-73983200D01*
X138391468Y-67228796D02*
X139824069Y-67040195D01*
X163323493Y-73475498D02*
X164214996Y-72537097D01*
X160164695Y-73983200D02*
X160502994Y-74228899D01*
X134806114Y-55297595D02*
X134397144Y-55384597D01*
X163106990Y-60575798D02*
X161499992Y-59590997D01*
X125156293Y-58691696D02*
X123499992Y-59590995D01*
X148340690Y-54954196D02*
X146472072Y-54708198D01*
X117799493Y-69394496D02*
X118454593Y-70083997D01*
X117072994Y-64260494D02*
X116974292Y-64354194D01*
X116375293Y-67895296D02*
X116683292Y-68219495D01*
X115713493Y-66408994D02*
X115757193Y-66824794D01*
X168904495Y-67584497D02*
X169113594Y-67222396D01*
X150410835Y-68152996D02*
X151772918Y-68635295D01*
X117358293Y-64016794D02*
X117072994Y-64260494D01*
X115757193Y-66824794D02*
X115886393Y-67222394D01*
X164998489Y-61889097D02*
X164660293Y-61643297D01*
X133227077Y-68635295D02*
X134589157Y-68152996D01*
X142290935Y-54510997D02*
X140406845Y-54560298D01*
X168316696Y-68219497D02*
X168624694Y-67895298D01*
X116683292Y-68219495D02*
X117208593Y-68772396D01*
X141264579Y-66926895D02*
X142500000Y-66894495D01*
X159843692Y-58691698D02*
X158142494Y-57880298D01*
X150602844Y-55384597D02*
X150193870Y-55297595D01*
X137176330Y-67454095D02*
X138391468Y-67228796D01*
X116683292Y-68219495D02*
X117208593Y-68772396D01*
X125156293Y-58691696D02*
X123499992Y-59590995D01*
X116095493Y-65233394D02*
X115886393Y-65595495D01*
X156531997Y-71084697D02*
X157550498Y-71784698D01*
X161711994Y-74485898D02*
X162120994Y-74398998D01*
X124835298Y-73983198D02*
X125370298Y-73475498D01*
X168624694Y-64922697D02*
X168458099Y-64764596D01*
X167641693Y-64016796D02*
X167333389Y-63753496D01*
X146472072Y-54708198D02*
X144593143Y-54560298D01*
X157760589Y-57710298D02*
X156019290Y-56988998D01*
X140406845Y-54560298D02*
X138527912Y-54708198D01*
X137176330Y-67454095D02*
X138391468Y-67228796D01*
X143735420Y-66926895D02*
X145175926Y-67040195D01*
X117666593Y-63753494D02*
X117358293Y-64016794D01*
X163106990Y-60575798D02*
X161499992Y-59590997D01*
X158142494Y-57880298D02*
X157760589Y-57710298D01*
X122878993Y-74398996D02*
X123287994Y-74485897D01*
X166935485Y-63413696D02*
X166493789Y-63036497D01*
X155299995Y-70329797D02*
X156531997Y-71084697D01*
X116375293Y-64922695D02*
X116095493Y-65233394D01*
X164998489Y-61889097D02*
X164660293Y-61643297D01*
X154030097Y-69640296D02*
X155299995Y-70329797D01*
X167333389Y-63753496D02*
X167112487Y-63564895D01*
X117799493Y-69394496D02*
X118454593Y-70083997D01*
X122496994Y-74228897D02*
X122878993Y-74398996D01*
X159843692Y-58691698D02*
X158142494Y-57880298D01*
X140406845Y-54560298D02*
X138527912Y-54708198D01*
X127239393Y-57710296D02*
X126857492Y-57880296D01*
X143735420Y-66926895D02*
X145175926Y-67040195D01*
X117358293Y-64016794D02*
X117072994Y-64260494D01*
X162841194Y-73983200D02*
X163323493Y-73475498D01*
X167333389Y-63753496D02*
X167112487Y-63564895D01*
X166979789Y-63451496D02*
X166935485Y-63413696D01*
X152914695Y-69108196D02*
X154030097Y-69640296D01*
X129699998Y-70329797D02*
X130969898Y-69640296D01*
X115757193Y-65993095D02*
X115713493Y-66408994D01*
X122878993Y-74398996D02*
X123287994Y-74485897D01*
X168904495Y-67584497D02*
X169113594Y-67222396D01*
X128980693Y-56988996D02*
X127239393Y-57710296D01*
X117799493Y-69394496D02*
X118454593Y-70083997D01*
X124115097Y-74398998D02*
X124496997Y-74228897D01*
X124496997Y-74228897D02*
X124835298Y-73983198D01*
X124835298Y-73983198D02*
X125370298Y-73475498D01*
X125370298Y-73475498D02*
X126468997Y-72537097D01*
X126468997Y-72537097D02*
X127449497Y-71784698D01*
X127449497Y-71784698D02*
X128467998Y-71084697D01*
X128467998Y-71084697D02*
X129699998Y-70329797D01*
X129699998Y-70329797D02*
X130969898Y-69640296D01*
X130969898Y-69640296D02*
X132085296Y-69108196D01*
X132085296Y-69108196D02*
X133227077Y-68635295D01*
X133227077Y-68635295D02*
X134589157Y-68152996D01*
X134589157Y-68152996D02*
X135974628Y-67742595D01*
X135974628Y-67742595D02*
X137176330Y-67454095D01*
X137176330Y-67454095D02*
X138391468Y-67228796D01*
X138391468Y-67228796D02*
X139824069Y-67040195D01*
X139824069Y-67040195D02*
X141264579Y-66926895D01*
X141264579Y-66926895D02*
X142500000Y-66894495D01*
X142500000Y-66894495D02*
X143735420Y-66926895D01*
X143735420Y-66926895D02*
X145175926Y-67040195D01*
X145175926Y-67040195D02*
X146608528Y-67228796D01*
X146608528Y-67228796D02*
X147823669Y-67454095D01*
X147823669Y-67454095D02*
X149025367Y-67742595D01*
X149025367Y-67742595D02*
X150410835Y-68152996D01*
X150410835Y-68152996D02*
X151772918Y-68635295D01*
X151772918Y-68635295D02*
X152914695Y-69108196D01*
X152914695Y-69108196D02*
X154030097Y-69640296D01*
X154030097Y-69640296D02*
X155299995Y-70329797D01*
X155299995Y-70329797D02*
X156531997Y-71084697D01*
X156531997Y-71084697D02*
X157550498Y-71784698D01*
X157550498Y-71784698D02*
X158530998Y-72537097D01*
X158530998Y-72537097D02*
X159629695Y-73475498D01*
X159629695Y-73475498D02*
X160164695Y-73983200D01*
X160164695Y-73983200D02*
X160502994Y-74228899D01*
X160502994Y-74228899D02*
X160884895Y-74398998D01*
X160884895Y-74398998D02*
X161293895Y-74485898D01*
X161293895Y-74485898D02*
X161711994Y-74485898D01*
X161711994Y-74485898D02*
X162120994Y-74398998D01*
X162120994Y-74398998D02*
X162502994Y-74228899D01*
X162502994Y-74228899D02*
X162841194Y-73983200D01*
X162841194Y-73983200D02*
X163323493Y-73475498D01*
X163323493Y-73475498D02*
X164214996Y-72537097D01*
X164214996Y-72537097D02*
X165050689Y-71657398D01*
X165050689Y-71657398D02*
X165828193Y-70838998D01*
X165828193Y-70838998D02*
X166545394Y-70083999D01*
X166545394Y-70083999D02*
X167200500Y-69394498D01*
X167200500Y-69394498D02*
X167791397Y-68772397D01*
X167791397Y-68772397D02*
X168316696Y-68219497D01*
X168316696Y-68219497D02*
X168624694Y-67895298D01*
X168624694Y-67895298D02*
X168904495Y-67584497D01*
X168904495Y-67584497D02*
X169113594Y-67222396D01*
X169113594Y-67222396D02*
X169242797Y-66824796D01*
X169242797Y-66824796D02*
X169286499Y-66408996D01*
X169286499Y-66408996D02*
X169242797Y-65993097D01*
X169242797Y-65993097D02*
X169113594Y-65595497D01*
X169113594Y-65595497D02*
X168904495Y-65233396D01*
X168904495Y-65233396D02*
X168624694Y-64922697D01*
X168624694Y-64922697D02*
X168458099Y-64764596D01*
X168458099Y-64764596D02*
X168025695Y-64354196D01*
X168025695Y-64354196D02*
X167926994Y-64260496D01*
X167926994Y-64260496D02*
X167641693Y-64016796D01*
X167641693Y-64016796D02*
X167333389Y-63753496D01*
X167333389Y-63753496D02*
X167112487Y-63564895D01*
X167112487Y-63564895D02*
X166979789Y-63451496D01*
X166979789Y-63451496D02*
X166935485Y-63413696D01*
X166935485Y-63413696D02*
X166493789Y-63036497D01*
X166493789Y-63036497D02*
X164998489Y-61889097D01*
X164998489Y-61889097D02*
X164660293Y-61643297D01*
X164660293Y-61643297D02*
X163106990Y-60575798D01*
X163106990Y-60575798D02*
X161499992Y-59590997D01*
X161499992Y-59590997D02*
X159843692Y-58691698D01*
X159843692Y-58691698D02*
X158142494Y-57880298D01*
X158142494Y-57880298D02*
X157760589Y-57710298D01*
X157760589Y-57710298D02*
X156019290Y-56988998D01*
X156019290Y-56988998D02*
X154242591Y-56359897D01*
X154242591Y-56359897D02*
X152435512Y-55824596D01*
X152435512Y-55824596D02*
X150602844Y-55384597D01*
X150602844Y-55384597D02*
X150193870Y-55297595D01*
X150193870Y-55297595D02*
X148340690Y-54954196D01*
X148340690Y-54954196D02*
X146472072Y-54708198D01*
X146472072Y-54708198D02*
X144593143Y-54560298D01*
X144593143Y-54560298D02*
X142709049Y-54510997D01*
X142709049Y-54510997D02*
X142290935Y-54510997D01*
X142290935Y-54510997D02*
X140406845Y-54560298D01*
X140406845Y-54560298D02*
X138527912Y-54708198D01*
X138527912Y-54708198D02*
X136659294Y-54954196D01*
X136659294Y-54954196D02*
X134806114Y-55297595D01*
X134806114Y-55297595D02*
X134397144Y-55384597D01*
X134397144Y-55384597D02*
X132564472Y-55824596D01*
X132564472Y-55824596D02*
X130757392Y-56359895D01*
X130757392Y-56359895D02*
X128980693Y-56988996D01*
X128980693Y-56988996D02*
X127239393Y-57710296D01*
X127239393Y-57710296D02*
X126857492Y-57880296D01*
X126857492Y-57880296D02*
X125156293Y-58691696D01*
X125156293Y-58691696D02*
X123499992Y-59590995D01*
X123499992Y-59590995D02*
X121892993Y-60575796D01*
X121892993Y-60575796D02*
X120339693Y-61643295D01*
X120339693Y-61643295D02*
X120001493Y-61889095D01*
X120001493Y-61889095D02*
X118506193Y-63036495D01*
X118506193Y-63036495D02*
X118064493Y-63413694D01*
X118064493Y-63413694D02*
X118020193Y-63451494D01*
X118020193Y-63451494D02*
X117887493Y-63564893D01*
X117887493Y-63564893D02*
X117666593Y-63753494D01*
X117666593Y-63753494D02*
X117358293Y-64016794D01*
X117358293Y-64016794D02*
X117072994Y-64260494D01*
X117072994Y-64260494D02*
X116974292Y-64354194D01*
X116974292Y-64354194D02*
X116541893Y-64764595D01*
X116541893Y-64764595D02*
X116375293Y-64922695D01*
X116375293Y-64922695D02*
X116095493Y-65233394D01*
X116095493Y-65233394D02*
X115886393Y-65595495D01*
X115886393Y-65595495D02*
X115757193Y-65993095D01*
X115757193Y-65993095D02*
X115713493Y-66408994D01*
X115713493Y-66408994D02*
X115757193Y-66824794D01*
X115757193Y-66824794D02*
X115886393Y-67222394D01*
X115886393Y-67222394D02*
X116095493Y-67584495D01*
X116095493Y-67584495D02*
X116375293Y-67895296D01*
X116375293Y-67895296D02*
X116683292Y-68219495D01*
X116683292Y-68219495D02*
X117208593Y-68772396D01*
X117208593Y-68772396D02*
X117799493Y-69394496D01*
X117799493Y-69394496D02*
X118454593Y-70083997D01*
X118454593Y-70083997D02*
X119171792Y-70838996D01*
X119171792Y-70838996D02*
X119949293Y-71657396D01*
X119949293Y-71657396D02*
X120784994Y-72537096D01*
X120784994Y-72537096D02*
X121676494Y-73475496D01*
X121676494Y-73475496D02*
X122158794Y-73983196D01*
X122158794Y-73983196D02*
X122496994Y-74228897D01*
X122496994Y-74228897D02*
X122878993Y-74398996D01*
X122878993Y-74398996D02*
X123287994Y-74485897D01*
X123287994Y-74485897D02*
X123706092Y-74485897D01*
X123706092Y-74485897D02*
X124115097Y-74398998D01*
X124115097Y-74398998D02*
X124115097Y-74398998D01*
X116095493Y-65233394D02*
X115886393Y-65595495D01*
X168624694Y-67895298D02*
X168904495Y-67584497D01*
X130757392Y-56359895D02*
X128980693Y-56988996D01*
X125156293Y-58691696D02*
X123499992Y-59590995D01*
X135974628Y-67742595D02*
X137176330Y-67454095D01*
X167926994Y-64260496D02*
X167641693Y-64016796D01*
X162502994Y-74228899D02*
X162841194Y-73983200D01*
X128467998Y-71084697D02*
X129699998Y-70329797D01*
X116541893Y-64764595D02*
X116375293Y-64922695D01*
X142500000Y-66894495D02*
X143735420Y-66926895D01*
X115886393Y-67222394D02*
X116095493Y-67584495D01*
X157550498Y-71784698D02*
X158530998Y-72537097D01*
X160502994Y-74228899D02*
X160884895Y-74398998D01*
X167926994Y-64260496D02*
X167641693Y-64016796D01*
X154242591Y-56359897D02*
X152435512Y-55824596D01*
X166935485Y-63413696D02*
X166493789Y-63036497D01*
X165050689Y-71657398D02*
X165828193Y-70838998D01*
X160502994Y-74228899D02*
X160884895Y-74398998D01*
X167112487Y-63564895D02*
X166979789Y-63451496D01*
X167641693Y-64016796D02*
X167333389Y-63753496D01*
X126857492Y-57880296D02*
X125156293Y-58691696D01*
X122496994Y-74228897D02*
X122878993Y-74398996D01*
X118020193Y-63451494D02*
X117887493Y-63564893D01*
X168904495Y-65233396D02*
X168624694Y-64922697D01*
X162502994Y-74228899D02*
X162841194Y-73983200D01*
X168025695Y-64354196D02*
X167926994Y-64260496D01*
X127239393Y-57710296D02*
X126857492Y-57880296D01*
X127449497Y-71784698D02*
X128467998Y-71084697D01*
X118506193Y-63036495D02*
X118064493Y-63413694D01*
X136659294Y-54954196D02*
X134806114Y-55297595D01*
X154030097Y-69640296D02*
X155299995Y-70329797D01*
X122878993Y-74398996D02*
X123287994Y-74485897D01*
X132564472Y-55824596D02*
X130757392Y-56359895D01*
X125370298Y-73475498D02*
X126468997Y-72537097D01*
X157550498Y-71784698D02*
X158530998Y-72537097D01*
X168458099Y-64764596D02*
X168025695Y-64354196D01*
X134589157Y-68152996D02*
X135974628Y-67742595D01*
X120339693Y-61643295D02*
X120001493Y-61889095D01*
X167926994Y-64260496D02*
X167641693Y-64016796D01*
X152435512Y-55824596D02*
X150602844Y-55384597D01*
X164214996Y-72537097D02*
X165050689Y-71657398D01*
X166545394Y-70083999D02*
X167200500Y-69394498D01*
X169286499Y-66408996D02*
X169242797Y-65993097D01*
X127239393Y-57710296D02*
X126857492Y-57880296D01*
X129699998Y-70329797D02*
X130969898Y-69640296D01*
X135974628Y-67742595D02*
X137176330Y-67454095D01*
X161293895Y-74485898D02*
X161711994Y-74485898D01*
X123287994Y-74485897D02*
X123706092Y-74485897D01*
X125370298Y-73475498D02*
X126468997Y-72537097D01*
X132564472Y-55824596D02*
X130757392Y-56359895D01*
X167641693Y-64016796D02*
X167333389Y-63753496D01*
X168316696Y-68219497D02*
X168624694Y-67895298D01*
X169113594Y-65595497D02*
X168904495Y-65233396D01*
X146608528Y-67228796D02*
X147823669Y-67454095D01*
X117208593Y-68772396D02*
X117799493Y-69394496D01*
X121676494Y-73475496D02*
X122158794Y-73983196D01*
X132085296Y-69108196D02*
X133227077Y-68635295D01*
X119171792Y-70838996D02*
X119949293Y-71657396D01*
X117887493Y-63564893D02*
X117666593Y-63753494D01*
X166493789Y-63036497D02*
X164998489Y-61889097D01*
X120784994Y-72537096D02*
X121676494Y-73475496D01*
X118020193Y-63451494D02*
X117887493Y-63564893D01*
X141264579Y-66926895D02*
X142500000Y-66894495D01*
X166935485Y-63413696D02*
X166493789Y-63036497D01*
X122878993Y-74398996D02*
X123287994Y-74485897D01*
X130969898Y-69640296D02*
X132085296Y-69108196D01*
X160502994Y-74228899D02*
X160884895Y-74398998D01*
X124835298Y-73983198D02*
X125370298Y-73475498D01*
X120001493Y-61889095D02*
X118506193Y-63036495D01*
X158530998Y-72537097D02*
X159629695Y-73475498D01*
X142290935Y-54510997D02*
X140406845Y-54560298D01*
X120339693Y-61643295D02*
X120001493Y-61889095D01*
X157550498Y-71784698D02*
X158530998Y-72537097D01*
X120784994Y-72537096D02*
X121676494Y-73475496D01*
X140406845Y-54560298D02*
X138527912Y-54708198D01*
X121676494Y-73475496D02*
X122158794Y-73983196D01*
X146472072Y-54708198D02*
X144593143Y-54560298D01*
X115713493Y-66408994D02*
X115757193Y-66824794D01*
X138527912Y-54708198D02*
X136659294Y-54954196D01*
X145175926Y-67040195D02*
X146608528Y-67228796D01*
X122158794Y-73983196D02*
X122496994Y-74228897D01*
X138527912Y-54708198D02*
X136659294Y-54954196D01*
X152914695Y-69108196D02*
X154030097Y-69640296D01*
X163106990Y-60575798D02*
X161499992Y-59590997D01*
X116683292Y-68219495D02*
X117208593Y-68772396D01*
X124835298Y-73983198D02*
X125370298Y-73475498D01*
X168316696Y-68219497D02*
X168624694Y-67895298D01*
X164998489Y-61889097D02*
X164660293Y-61643297D01*
X118020193Y-63451494D02*
X117887493Y-63564893D01*
X117666593Y-63753494D02*
X117358293Y-64016794D01*
X168025695Y-64354196D02*
X167926994Y-64260496D01*
X115886393Y-65595495D02*
X115757193Y-65993095D01*
X128980693Y-56988996D02*
X127239393Y-57710296D01*
X117358293Y-64016794D02*
X117072994Y-64260494D01*
X163323493Y-73475498D02*
X164214996Y-72537097D01*
X141264579Y-66926895D02*
X142500000Y-66894495D01*
X118020193Y-63451494D02*
X117887493Y-63564893D01*
X132564472Y-55824596D02*
X130757392Y-56359895D01*
X126857492Y-57880296D02*
X125156293Y-58691696D01*
X167333389Y-63753496D02*
X167112487Y-63564895D01*
X167200500Y-69394498D02*
X167791397Y-68772397D01*
X148340690Y-54954196D02*
X146472072Y-54708198D01*
X118454593Y-70083997D02*
X119171792Y-70838996D01*
X162120994Y-74398998D02*
X162502994Y-74228899D01*
X118064493Y-63413694D02*
X118020193Y-63451494D01*
X126857492Y-57880296D02*
X125156293Y-58691696D01*
X154030097Y-69640296D02*
X155299995Y-70329797D01*
X117666593Y-63753494D02*
X117358293Y-64016794D01*
X165828193Y-70838998D02*
X166545394Y-70083999D01*
X144593143Y-54560298D02*
X142709049Y-54510997D01*
X124115097Y-74398998D02*
X124496997Y-74228897D01*
X150602844Y-55384597D02*
X150193870Y-55297595D01*
X134397144Y-55384597D02*
X132564472Y-55824596D01*
X121676494Y-73475496D02*
X122158794Y-73983196D01*
X122496994Y-74228897D02*
X122878993Y-74398996D01*
X157550498Y-71784698D02*
X158530998Y-72537097D01*
D11*
X144593147Y-130439697D02*
X146472076Y-130291793D01*
X146472076Y-130291793D02*
X148340698Y-130045799D01*
X148340698Y-130045799D02*
X150193878Y-129702400D01*
X150193878Y-129702400D02*
X150602844Y-129615402D01*
X150602844Y-129615402D02*
X152435516Y-129175399D01*
X152435516Y-129175399D02*
X154242595Y-128640098D01*
X154242595Y-128640098D02*
X156019294Y-128011001D01*
X156019294Y-128011001D02*
X157760597Y-127289703D01*
X157760597Y-127289703D02*
X158142494Y-127119705D01*
X158142494Y-127119705D02*
X159843696Y-126308303D01*
X159843696Y-126308303D02*
X161499996Y-125408996D01*
X161499996Y-125408996D02*
X163106994Y-124424201D01*
X163106994Y-124424201D02*
X164660293Y-123356704D01*
X164660293Y-123356704D02*
X164998489Y-123110900D01*
X164998489Y-123110900D02*
X166493789Y-121963500D01*
X166493789Y-121963500D02*
X166935493Y-121586303D01*
X166935493Y-121586303D02*
X166979797Y-121548500D01*
X166979797Y-121548500D02*
X167112495Y-121435104D01*
X167112495Y-121435104D02*
X167333396Y-121246505D01*
X167333396Y-121246505D02*
X167641693Y-120983200D01*
X167641693Y-120983200D02*
X167927001Y-120739501D01*
X167927001Y-120739501D02*
X168025695Y-120645797D01*
X168025695Y-120645797D02*
X168458099Y-120235397D01*
X168458099Y-120235397D02*
X168624694Y-120077301D01*
X168624694Y-120077301D02*
X168904495Y-119766601D01*
X168904495Y-119766601D02*
X169113601Y-119404502D01*
X169113601Y-119404502D02*
X169242797Y-119006896D01*
X169242797Y-119006896D02*
X169286499Y-118591003D01*
X169286499Y-118591003D02*
X169242797Y-118175201D01*
X169242797Y-118175201D02*
X169113601Y-117777603D01*
X169113601Y-117777603D02*
X168904495Y-117415496D01*
X168904495Y-117415496D02*
X168624694Y-117104698D01*
X168624694Y-117104698D02*
X168316696Y-116780502D01*
X168316696Y-116780502D02*
X167791397Y-116227600D01*
X167791397Y-116227600D02*
X167200500Y-115605499D01*
X167200500Y-115605499D02*
X166545394Y-114916000D01*
X166545394Y-114916000D02*
X165828201Y-114160995D01*
X165828201Y-114160995D02*
X165050697Y-113342597D01*
X165050697Y-113342597D02*
X164214996Y-112462898D01*
X164214996Y-112462898D02*
X163323497Y-111524497D01*
X163323497Y-111524497D02*
X162841197Y-111016799D01*
X162841197Y-111016799D02*
X162502998Y-110771099D01*
X162502998Y-110771099D02*
X162120998Y-110600997D01*
X162120998Y-110600997D02*
X161711997Y-110514099D01*
X161711997Y-110514099D02*
X161293899Y-110514099D01*
X161293899Y-110514099D02*
X160884899Y-110600997D01*
X160884899Y-110600997D02*
X160502998Y-110771099D01*
X160502998Y-110771099D02*
X160164699Y-111016799D01*
X160164699Y-111016799D02*
X159629699Y-111524497D01*
X159629699Y-111524497D02*
X158530998Y-112462898D01*
X158530998Y-112462898D02*
X157550498Y-113215301D01*
X157550498Y-113215301D02*
X156532001Y-113915298D01*
X156532001Y-113915298D02*
X155300003Y-114670196D01*
X155300003Y-114670196D02*
X154030101Y-115359703D01*
X154030101Y-115359703D02*
X152914703Y-115891799D01*
X152914703Y-115891799D02*
X151772918Y-116364700D01*
X151772918Y-116364700D02*
X150410842Y-116847000D01*
X150410842Y-116847000D02*
X149025371Y-117257400D01*
X149025371Y-117257400D02*
X147823669Y-117545898D01*
X147823669Y-117545898D02*
X146608531Y-117771202D01*
X146608531Y-117771202D02*
X145175933Y-117959800D01*
X145175933Y-117959800D02*
X143735420Y-118073104D01*
X143735420Y-118073104D02*
X142500000Y-118105499D01*
X142500000Y-118105499D02*
X141264579Y-118073104D01*
X141264579Y-118073104D02*
X139824073Y-117959800D01*
X139824073Y-117959800D02*
X138391471Y-117771202D01*
X138391471Y-117771202D02*
X137176330Y-117545898D01*
X137176330Y-117545898D02*
X135974632Y-117257400D01*
X135974632Y-117257400D02*
X134589160Y-116847000D01*
X134589160Y-116847000D02*
X133227081Y-116364700D01*
X133227081Y-116364700D02*
X132085300Y-115891799D01*
X132085300Y-115891799D02*
X130969902Y-115359703D01*
X130969902Y-115359703D02*
X129700000Y-114670196D01*
X129700000Y-114670196D02*
X128468002Y-113915298D01*
X128468002Y-113915298D02*
X127449501Y-113215301D01*
X127449501Y-113215301D02*
X126469001Y-112462898D01*
X126469001Y-112462898D02*
X125370302Y-111524497D01*
X125370302Y-111524497D02*
X124835302Y-111016799D01*
X124835302Y-111016799D02*
X124497001Y-110771099D01*
X124497001Y-110771099D02*
X124115100Y-110600997D01*
X124115100Y-110600997D02*
X123706102Y-110514099D01*
X123706102Y-110514099D02*
X123288002Y-110514099D01*
X123288002Y-110514099D02*
X122879001Y-110600997D01*
X122879001Y-110600997D02*
X122497001Y-110771099D01*
X122497001Y-110771099D02*
X122158802Y-111016799D01*
X122158802Y-111016799D02*
X121676502Y-111524497D01*
X121676502Y-111524497D02*
X120785001Y-112462898D01*
X120785001Y-112462898D02*
X119949302Y-113342597D01*
X119949302Y-113342597D02*
X119171802Y-114160995D01*
X119171802Y-114160995D02*
X118454601Y-114916000D01*
X118454601Y-114916000D02*
X117799501Y-115605499D01*
X117799501Y-115605499D02*
X117208600Y-116227600D01*
X117208600Y-116227600D02*
X116683300Y-116780502D01*
X116683300Y-116780502D02*
X116375301Y-117104698D01*
X116375301Y-117104698D02*
X116095500Y-117415496D01*
X116095500Y-117415496D02*
X115886401Y-117777603D01*
X115886401Y-117777603D02*
X115757201Y-118175201D01*
X115757201Y-118175201D02*
X115713500Y-118591003D01*
X115713500Y-118591003D02*
X115757201Y-119006896D01*
X115757201Y-119006896D02*
X115886401Y-119404502D01*
X115886401Y-119404502D02*
X116095500Y-119766601D01*
X116095500Y-119766601D02*
X116375301Y-120077301D01*
X116375301Y-120077301D02*
X116541900Y-120235397D01*
X116541900Y-120235397D02*
X116974300Y-120645797D01*
X116974300Y-120645797D02*
X117073001Y-120739501D01*
X117073001Y-120739501D02*
X117358301Y-120983200D01*
X117358301Y-120983200D02*
X117666601Y-121246505D01*
X117666601Y-121246505D02*
X117887500Y-121435104D01*
X117887500Y-121435104D02*
X118020200Y-121548500D01*
X118020200Y-121548500D02*
X118064500Y-121586303D01*
X118064500Y-121586303D02*
X118506200Y-121963500D01*
X118506200Y-121963500D02*
X120001501Y-123110900D01*
X120001501Y-123110900D02*
X120339700Y-123356704D01*
X120339700Y-123356704D02*
X121893001Y-124424201D01*
X121893001Y-124424201D02*
X123500000Y-125408996D01*
X123500000Y-125408996D02*
X125156301Y-126308303D01*
X125156301Y-126308303D02*
X126857500Y-127119705D01*
X126857500Y-127119705D02*
X127239400Y-127289703D01*
X127239400Y-127289703D02*
X128980701Y-128011001D01*
X128980701Y-128011001D02*
X130757400Y-128640098D01*
X130757400Y-128640098D02*
X132564479Y-129175399D01*
X132564479Y-129175399D02*
X134397151Y-129615402D01*
X134397151Y-129615402D02*
X134806121Y-129702400D01*
X134806121Y-129702400D02*
X136659301Y-130045799D01*
X136659301Y-130045799D02*
X138527919Y-130291793D01*
X138527919Y-130291793D02*
X140406852Y-130439697D01*
X140406852Y-130439697D02*
X142290943Y-130488998D01*
X142290943Y-130488998D02*
X142709056Y-130488998D01*
X142709056Y-130488998D02*
X144593147Y-130439697D01*
X144593147Y-130439697D02*
X144593147Y-130439697D01*
G36*
X124115100Y-110600997D02*
G01*
X124497001Y-110771099D01*
X124835302Y-111016799D01*
X125370302Y-111524497D01*
X126469001Y-112462898D01*
X127449501Y-113215301D01*
X128468002Y-113915298D01*
X129700000Y-114670196D01*
X130969902Y-115359703D01*
X132085300Y-115891799D01*
X133227081Y-116364700D01*
X134589160Y-116847000D01*
X135974632Y-117257400D01*
X137176330Y-117545898D01*
X138391471Y-117771202D01*
X139824073Y-117959800D01*
X141264579Y-118073104D01*
X142500000Y-118105499D01*
X143735420Y-118073104D01*
X145175933Y-117959800D01*
X146608531Y-117771202D01*
X147823669Y-117545898D01*
X149025371Y-117257400D01*
X150410842Y-116847000D01*
X151772918Y-116364700D01*
X152914703Y-115891799D01*
X154030101Y-115359703D01*
X155300003Y-114670196D01*
X156532001Y-113915298D01*
X157550498Y-113215301D01*
X158530998Y-112462898D01*
X159629699Y-111524497D01*
X160164699Y-111016799D01*
X160502998Y-110771099D01*
X160884899Y-110600997D01*
X161293899Y-110514099D01*
X161711997Y-110514099D01*
X162120998Y-110600997D01*
X162502998Y-110771099D01*
X162841197Y-111016799D01*
X163323497Y-111524497D01*
X164214996Y-112462898D01*
X165050697Y-113342597D01*
X165828201Y-114160995D01*
X166545394Y-114916000D01*
X167200500Y-115605499D01*
X167791397Y-116227600D01*
X168316696Y-116780502D01*
X168624694Y-117104698D01*
X168904495Y-117415496D01*
X169113601Y-117777603D01*
X169242797Y-118175201D01*
X169286499Y-118591003D01*
X169242797Y-119006896D01*
X169113601Y-119404502D01*
X168904495Y-119766601D01*
X168624694Y-120077301D01*
X168458099Y-120235397D01*
X168025695Y-120645797D01*
X167927001Y-120739501D01*
X167641693Y-120983200D01*
X167333396Y-121246505D01*
X167112495Y-121435104D01*
X166979797Y-121548500D01*
X166935493Y-121586303D01*
X166493789Y-121963500D01*
X164998489Y-123110900D01*
X164660293Y-123356704D01*
X163106994Y-124424201D01*
X161499996Y-125408996D01*
X159843696Y-126308303D01*
X158142494Y-127119705D01*
X157760597Y-127289703D01*
X156019294Y-128011001D01*
X154242595Y-128640098D01*
X152435516Y-129175399D01*
X150602844Y-129615402D01*
X150193878Y-129702400D01*
X148340698Y-130045799D01*
X146472076Y-130291793D01*
X144593147Y-130439697D01*
X142709056Y-130488998D01*
X142290943Y-130488998D01*
X140406852Y-130439697D01*
X138527919Y-130291793D01*
X136659301Y-130045799D01*
X134806121Y-129702400D01*
X134397151Y-129615402D01*
X132564479Y-129175399D01*
X130757400Y-128640098D01*
X128980701Y-128011001D01*
X127239400Y-127289703D01*
X126857500Y-127119705D01*
X125156301Y-126308303D01*
X123500000Y-125408996D01*
X121893001Y-124424201D01*
X120339700Y-123356704D01*
X120001501Y-123110900D01*
X118506200Y-121963500D01*
X118064500Y-121586303D01*
X118020200Y-121548500D01*
X117887500Y-121435104D01*
X117666601Y-121246505D01*
X117358301Y-120983200D01*
X117073001Y-120739501D01*
X116974300Y-120645797D01*
X116541900Y-120235397D01*
X116375301Y-120077301D01*
X116095500Y-119766601D01*
X115886401Y-119404502D01*
X115757201Y-119006896D01*
X115713500Y-118591003D01*
X115757201Y-118175201D01*
X115886401Y-117777603D01*
X116095500Y-117415496D01*
X116375301Y-117104698D01*
X116683300Y-116780502D01*
X117208600Y-116227600D01*
X117799501Y-115605499D01*
X118454601Y-114916000D01*
X119171802Y-114160995D01*
X119949302Y-113342597D01*
X120785001Y-112462898D01*
X121676502Y-111524497D01*
X122158802Y-111016799D01*
X122497001Y-110771099D01*
X122879001Y-110600997D01*
X123288002Y-110514099D01*
X123706102Y-110514099D01*
X124115100Y-110600997D01*
G37*
X124115100Y-110600997D02*
X124497001Y-110771099D01*
X124835302Y-111016799D01*
X125370302Y-111524497D01*
X126469001Y-112462898D01*
X127449501Y-113215301D01*
X128468002Y-113915298D01*
X129700000Y-114670196D01*
X130969902Y-115359703D01*
X132085300Y-115891799D01*
X133227081Y-116364700D01*
X134589160Y-116847000D01*
X135974632Y-117257400D01*
X137176330Y-117545898D01*
X138391471Y-117771202D01*
X139824073Y-117959800D01*
X141264579Y-118073104D01*
X142500000Y-118105499D01*
X143735420Y-118073104D01*
X145175933Y-117959800D01*
X146608531Y-117771202D01*
X147823669Y-117545898D01*
X149025371Y-117257400D01*
X150410842Y-116847000D01*
X151772918Y-116364700D01*
X152914703Y-115891799D01*
X154030101Y-115359703D01*
X155300003Y-114670196D01*
X156532001Y-113915298D01*
X157550498Y-113215301D01*
X158530998Y-112462898D01*
X159629699Y-111524497D01*
X160164699Y-111016799D01*
X160502998Y-110771099D01*
X160884899Y-110600997D01*
X161293899Y-110514099D01*
X161711997Y-110514099D01*
X162120998Y-110600997D01*
X162502998Y-110771099D01*
X162841197Y-111016799D01*
X163323497Y-111524497D01*
X164214996Y-112462898D01*
X165050697Y-113342597D01*
X165828201Y-114160995D01*
X166545394Y-114916000D01*
X167200500Y-115605499D01*
X167791397Y-116227600D01*
X168316696Y-116780502D01*
X168624694Y-117104698D01*
X168904495Y-117415496D01*
X169113601Y-117777603D01*
X169242797Y-118175201D01*
X169286499Y-118591003D01*
X169242797Y-119006896D01*
X169113601Y-119404502D01*
X168904495Y-119766601D01*
X168624694Y-120077301D01*
X168458099Y-120235397D01*
X168025695Y-120645797D01*
X167927001Y-120739501D01*
X167641693Y-120983200D01*
X167333396Y-121246505D01*
X167112495Y-121435104D01*
X166979797Y-121548500D01*
X166935493Y-121586303D01*
X166493789Y-121963500D01*
X164998489Y-123110900D01*
X164660293Y-123356704D01*
X163106994Y-124424201D01*
X161499996Y-125408996D01*
X159843696Y-126308303D01*
X158142494Y-127119705D01*
X157760597Y-127289703D01*
X156019294Y-128011001D01*
X154242595Y-128640098D01*
X152435516Y-129175399D01*
X150602844Y-129615402D01*
X150193878Y-129702400D01*
X148340698Y-130045799D01*
X146472076Y-130291793D01*
X144593147Y-130439697D01*
X142709056Y-130488998D01*
X142290943Y-130488998D01*
X140406852Y-130439697D01*
X138527919Y-130291793D01*
X136659301Y-130045799D01*
X134806121Y-129702400D01*
X134397151Y-129615402D01*
X132564479Y-129175399D01*
X130757400Y-128640098D01*
X128980701Y-128011001D01*
X127239400Y-127289703D01*
X126857500Y-127119705D01*
X125156301Y-126308303D01*
X123500000Y-125408996D01*
X121893001Y-124424201D01*
X120339700Y-123356704D01*
X120001501Y-123110900D01*
X118506200Y-121963500D01*
X118064500Y-121586303D01*
X118020200Y-121548500D01*
X117887500Y-121435104D01*
X117666601Y-121246505D01*
X117358301Y-120983200D01*
X117073001Y-120739501D01*
X116974300Y-120645797D01*
X116541900Y-120235397D01*
X116375301Y-120077301D01*
X116095500Y-119766601D01*
X115886401Y-119404502D01*
X115757201Y-119006896D01*
X115713500Y-118591003D01*
X115757201Y-118175201D01*
X115886401Y-117777603D01*
X116095500Y-117415496D01*
X116375301Y-117104698D01*
X116683300Y-116780502D01*
X117208600Y-116227600D01*
X117799501Y-115605499D01*
X118454601Y-114916000D01*
X119171802Y-114160995D01*
X119949302Y-113342597D01*
X120785001Y-112462898D01*
X121676502Y-111524497D01*
X122158802Y-111016799D01*
X122497001Y-110771099D01*
X122879001Y-110600997D01*
X123288002Y-110514099D01*
X123706102Y-110514099D01*
X124115100Y-110600997D01*
D10*
X120339693Y-61643295D02*
X120001493Y-61889095D01*
X127239393Y-57710296D02*
X126857492Y-57880296D01*
X162120994Y-74398998D02*
X162502994Y-74228899D01*
X124115097Y-74398998D02*
X124496997Y-74228897D01*
X119171792Y-70838996D02*
X119949293Y-71657396D01*
X142500000Y-66894495D02*
X143735420Y-66926895D01*
X134806114Y-55297595D02*
X134397144Y-55384597D01*
X168624694Y-67895298D02*
X168904495Y-67584497D01*
X122496994Y-74228897D02*
X122878993Y-74398996D01*
X168458099Y-64764596D02*
X168025695Y-64354196D01*
X139824069Y-67040195D02*
X141264579Y-66926895D01*
X158530998Y-72537097D02*
X159629695Y-73475498D01*
X123499992Y-59590995D02*
X121892993Y-60575796D01*
X130757392Y-56359895D02*
X128980693Y-56988996D01*
X159629695Y-73475498D02*
X160164695Y-73983200D01*
X134589157Y-68152996D02*
X135974628Y-67742595D01*
X115713493Y-66408994D02*
X115757193Y-66824794D01*
X169113594Y-67222396D02*
X169242797Y-66824796D01*
X169286499Y-66408996D02*
X169242797Y-65993097D01*
X134589157Y-68152996D02*
X135974628Y-67742595D01*
X168624694Y-64922697D02*
X168458099Y-64764596D01*
X157550498Y-71784698D02*
X158530998Y-72537097D01*
X126468997Y-72537097D02*
X127449497Y-71784698D01*
X167641693Y-64016796D02*
X167333389Y-63753496D01*
X160164695Y-73983200D02*
X160502994Y-74228899D01*
X137176330Y-67454095D02*
X138391468Y-67228796D01*
X165828193Y-70838998D02*
X166545394Y-70083999D01*
X126468997Y-72537097D02*
X127449497Y-71784698D01*
D11*
X124115097Y-74398998D02*
X124496997Y-74228897D01*
X124496997Y-74228897D02*
X124835298Y-73983198D01*
X124835298Y-73983198D02*
X125370298Y-73475498D01*
X125370298Y-73475498D02*
X126468997Y-72537097D01*
X126468997Y-72537097D02*
X127449497Y-71784698D01*
X127449497Y-71784698D02*
X128467998Y-71084697D01*
X128467998Y-71084697D02*
X129699998Y-70329797D01*
X129699998Y-70329797D02*
X130969898Y-69640296D01*
X130969898Y-69640296D02*
X132085296Y-69108196D01*
X132085296Y-69108196D02*
X133227077Y-68635295D01*
X133227077Y-68635295D02*
X134589157Y-68152996D01*
X134589157Y-68152996D02*
X135974628Y-67742595D01*
X135974628Y-67742595D02*
X137176330Y-67454095D01*
X137176330Y-67454095D02*
X138391468Y-67228796D01*
X138391468Y-67228796D02*
X139824069Y-67040195D01*
X139824069Y-67040195D02*
X141264579Y-66926895D01*
X141264579Y-66926895D02*
X142500000Y-66894495D01*
X142500000Y-66894495D02*
X143735420Y-66926895D01*
X143735420Y-66926895D02*
X145175926Y-67040195D01*
X145175926Y-67040195D02*
X146608528Y-67228796D01*
X146608528Y-67228796D02*
X147823669Y-67454095D01*
X147823669Y-67454095D02*
X149025367Y-67742595D01*
X149025367Y-67742595D02*
X150410835Y-68152996D01*
X150410835Y-68152996D02*
X151772918Y-68635295D01*
X151772918Y-68635295D02*
X152914695Y-69108196D01*
X152914695Y-69108196D02*
X154030097Y-69640296D01*
X154030097Y-69640296D02*
X155299995Y-70329797D01*
X155299995Y-70329797D02*
X156531997Y-71084697D01*
X156531997Y-71084697D02*
X157550498Y-71784698D01*
X157550498Y-71784698D02*
X158530998Y-72537097D01*
X158530998Y-72537097D02*
X159629695Y-73475498D01*
X159629695Y-73475498D02*
X160164695Y-73983200D01*
X160164695Y-73983200D02*
X160502994Y-74228899D01*
X160502994Y-74228899D02*
X160884895Y-74398998D01*
X160884895Y-74398998D02*
X161293895Y-74485898D01*
X161293895Y-74485898D02*
X161711994Y-74485898D01*
X161711994Y-74485898D02*
X162120994Y-74398998D01*
X162120994Y-74398998D02*
X162502994Y-74228899D01*
X162502994Y-74228899D02*
X162841194Y-73983200D01*
X162841194Y-73983200D02*
X163323493Y-73475498D01*
X163323493Y-73475498D02*
X164214996Y-72537097D01*
X164214996Y-72537097D02*
X165050689Y-71657398D01*
X165050689Y-71657398D02*
X165828193Y-70838998D01*
X165828193Y-70838998D02*
X166545394Y-70083999D01*
X166545394Y-70083999D02*
X167200500Y-69394498D01*
X167200500Y-69394498D02*
X167791397Y-68772397D01*
X167791397Y-68772397D02*
X168316696Y-68219497D01*
X168316696Y-68219497D02*
X168624694Y-67895298D01*
X168624694Y-67895298D02*
X168904495Y-67584497D01*
X168904495Y-67584497D02*
X169113594Y-67222396D01*
X169113594Y-67222396D02*
X169242797Y-66824796D01*
X169242797Y-66824796D02*
X169286499Y-66408996D01*
X169286499Y-66408996D02*
X169242797Y-65993097D01*
X169242797Y-65993097D02*
X169113594Y-65595497D01*
X169113594Y-65595497D02*
X168904495Y-65233396D01*
X168904495Y-65233396D02*
X168624694Y-64922697D01*
X168624694Y-64922697D02*
X168458099Y-64764596D01*
X168458099Y-64764596D02*
X168025695Y-64354196D01*
X168025695Y-64354196D02*
X167926994Y-64260496D01*
X167926994Y-64260496D02*
X167641693Y-64016796D01*
X167641693Y-64016796D02*
X167333389Y-63753496D01*
X167333389Y-63753496D02*
X167112487Y-63564895D01*
X167112487Y-63564895D02*
X166979789Y-63451496D01*
X166979789Y-63451496D02*
X166935485Y-63413696D01*
X166935485Y-63413696D02*
X166493789Y-63036497D01*
X166493789Y-63036497D02*
X164998489Y-61889097D01*
X164998489Y-61889097D02*
X164660293Y-61643297D01*
X164660293Y-61643297D02*
X163106990Y-60575798D01*
X163106990Y-60575798D02*
X161499992Y-59590997D01*
X161499992Y-59590997D02*
X159843692Y-58691698D01*
X159843692Y-58691698D02*
X158142494Y-57880298D01*
X158142494Y-57880298D02*
X157760589Y-57710298D01*
X157760589Y-57710298D02*
X156019290Y-56988998D01*
X156019290Y-56988998D02*
X154242591Y-56359897D01*
X154242591Y-56359897D02*
X152435512Y-55824596D01*
X152435512Y-55824596D02*
X150602844Y-55384597D01*
X150602844Y-55384597D02*
X150193870Y-55297595D01*
X150193870Y-55297595D02*
X148340690Y-54954196D01*
X148340690Y-54954196D02*
X146472072Y-54708198D01*
X146472072Y-54708198D02*
X144593143Y-54560298D01*
X144593143Y-54560298D02*
X142709049Y-54510997D01*
X142709049Y-54510997D02*
X142290935Y-54510997D01*
X142290935Y-54510997D02*
X140406845Y-54560298D01*
X140406845Y-54560298D02*
X138527912Y-54708198D01*
X138527912Y-54708198D02*
X136659294Y-54954196D01*
X136659294Y-54954196D02*
X134806114Y-55297595D01*
X134806114Y-55297595D02*
X134397144Y-55384597D01*
X134397144Y-55384597D02*
X132564472Y-55824596D01*
X132564472Y-55824596D02*
X130757392Y-56359895D01*
X130757392Y-56359895D02*
X128980693Y-56988996D01*
X128980693Y-56988996D02*
X127239393Y-57710296D01*
X127239393Y-57710296D02*
X126857492Y-57880296D01*
X126857492Y-57880296D02*
X125156293Y-58691696D01*
X125156293Y-58691696D02*
X123499992Y-59590995D01*
X123499992Y-59590995D02*
X121892993Y-60575796D01*
X121892993Y-60575796D02*
X120339693Y-61643295D01*
X120339693Y-61643295D02*
X120001493Y-61889095D01*
X120001493Y-61889095D02*
X118506193Y-63036495D01*
X118506193Y-63036495D02*
X118064493Y-63413694D01*
X118064493Y-63413694D02*
X118020193Y-63451494D01*
X118020193Y-63451494D02*
X117887493Y-63564893D01*
X117887493Y-63564893D02*
X117666593Y-63753494D01*
X117666593Y-63753494D02*
X117358293Y-64016794D01*
X117358293Y-64016794D02*
X117072994Y-64260494D01*
X117072994Y-64260494D02*
X116974292Y-64354194D01*
X116974292Y-64354194D02*
X116541893Y-64764595D01*
X116541893Y-64764595D02*
X116375293Y-64922695D01*
X116375293Y-64922695D02*
X116095493Y-65233394D01*
X116095493Y-65233394D02*
X115886393Y-65595495D01*
X115886393Y-65595495D02*
X115757193Y-65993095D01*
X115757193Y-65993095D02*
X115713493Y-66408994D01*
X115713493Y-66408994D02*
X115757193Y-66824794D01*
X115757193Y-66824794D02*
X115886393Y-67222394D01*
X115886393Y-67222394D02*
X116095493Y-67584495D01*
X116095493Y-67584495D02*
X116375293Y-67895296D01*
X116375293Y-67895296D02*
X116683292Y-68219495D01*
X116683292Y-68219495D02*
X117208593Y-68772396D01*
X117208593Y-68772396D02*
X117799493Y-69394496D01*
X117799493Y-69394496D02*
X118454593Y-70083997D01*
X118454593Y-70083997D02*
X119171792Y-70838996D01*
X119171792Y-70838996D02*
X119949293Y-71657396D01*
X119949293Y-71657396D02*
X120784994Y-72537096D01*
X120784994Y-72537096D02*
X121676494Y-73475496D01*
X121676494Y-73475496D02*
X122158794Y-73983196D01*
X122158794Y-73983196D02*
X122496994Y-74228897D01*
X122496994Y-74228897D02*
X122878993Y-74398996D01*
X122878993Y-74398996D02*
X123287994Y-74485897D01*
X123287994Y-74485897D02*
X123706092Y-74485897D01*
X123706092Y-74485897D02*
X124115097Y-74398998D01*
X124115097Y-74398998D02*
X124115097Y-74398998D01*
G36*
X144593143Y-54560298D02*
G01*
X146472072Y-54708198D01*
X148340690Y-54954196D01*
X150193870Y-55297595D01*
X150602844Y-55384597D01*
X152435512Y-55824596D01*
X154242591Y-56359897D01*
X156019290Y-56988998D01*
X157760589Y-57710298D01*
X158142494Y-57880298D01*
X159843692Y-58691698D01*
X161499992Y-59590997D01*
X163106990Y-60575798D01*
X164660293Y-61643297D01*
X164998489Y-61889097D01*
X166493789Y-63036497D01*
X166935485Y-63413696D01*
X166979789Y-63451496D01*
X167112487Y-63564895D01*
X167333389Y-63753496D01*
X167641693Y-64016796D01*
X167926994Y-64260496D01*
X168025695Y-64354196D01*
X168458099Y-64764596D01*
X168624694Y-64922697D01*
X168904495Y-65233396D01*
X169113594Y-65595497D01*
X169242797Y-65993097D01*
X169286499Y-66408996D01*
X169242797Y-66824796D01*
X169113594Y-67222396D01*
X168904495Y-67584497D01*
X168624694Y-67895298D01*
X168316696Y-68219497D01*
X167791397Y-68772397D01*
X167200500Y-69394498D01*
X166545394Y-70083999D01*
X165828193Y-70838998D01*
X165050689Y-71657398D01*
X164214996Y-72537097D01*
X163323493Y-73475498D01*
X162841194Y-73983200D01*
X162502994Y-74228899D01*
X162120994Y-74398998D01*
X161711994Y-74485898D01*
X161293895Y-74485898D01*
X160884895Y-74398998D01*
X160502994Y-74228899D01*
X160164695Y-73983200D01*
X159629695Y-73475498D01*
X158530998Y-72537097D01*
X157550498Y-71784698D01*
X156531997Y-71084697D01*
X155299995Y-70329797D01*
X154030097Y-69640296D01*
X152914695Y-69108196D01*
X151772918Y-68635295D01*
X150410835Y-68152996D01*
X149025367Y-67742595D01*
X147823669Y-67454095D01*
X146608528Y-67228796D01*
X145175926Y-67040195D01*
X143735420Y-66926895D01*
X142500000Y-66894495D01*
X141264579Y-66926895D01*
X139824069Y-67040195D01*
X138391468Y-67228796D01*
X137176330Y-67454095D01*
X135974628Y-67742595D01*
X134589157Y-68152996D01*
X133227077Y-68635295D01*
X132085296Y-69108196D01*
X130969898Y-69640296D01*
X129699998Y-70329797D01*
X128467998Y-71084697D01*
X127449497Y-71784698D01*
X126468997Y-72537097D01*
X125370298Y-73475498D01*
X124835298Y-73983198D01*
X124496997Y-74228897D01*
X124115097Y-74398998D01*
X123706092Y-74485897D01*
X123287994Y-74485897D01*
X122878993Y-74398996D01*
X122496994Y-74228897D01*
X122158794Y-73983196D01*
X121676494Y-73475496D01*
X120784994Y-72537096D01*
X119949293Y-71657396D01*
X119171792Y-70838996D01*
X118454593Y-70083997D01*
X117799493Y-69394496D01*
X117208593Y-68772396D01*
X116683292Y-68219495D01*
X116375293Y-67895296D01*
X116095493Y-67584495D01*
X115886393Y-67222394D01*
X115757193Y-66824794D01*
X115713493Y-66408994D01*
X115757193Y-65993095D01*
X115886393Y-65595495D01*
X116095493Y-65233394D01*
X116375293Y-64922695D01*
X116541893Y-64764595D01*
X116974292Y-64354194D01*
X117072994Y-64260494D01*
X117358293Y-64016794D01*
X117666593Y-63753494D01*
X117887493Y-63564893D01*
X118020193Y-63451494D01*
X118064493Y-63413694D01*
X118506193Y-63036495D01*
X120001493Y-61889095D01*
X120339693Y-61643295D01*
X121892993Y-60575796D01*
X123499992Y-59590995D01*
X125156293Y-58691696D01*
X126857492Y-57880296D01*
X127239393Y-57710296D01*
X128980693Y-56988996D01*
X130757392Y-56359895D01*
X132564472Y-55824596D01*
X134397144Y-55384597D01*
X134806114Y-55297595D01*
X136659294Y-54954196D01*
X138527912Y-54708198D01*
X140406845Y-54560298D01*
X142290935Y-54510997D01*
X142709049Y-54510997D01*
X144593143Y-54560298D01*
G37*
X144593143Y-54560298D02*
X146472072Y-54708198D01*
X148340690Y-54954196D01*
X150193870Y-55297595D01*
X150602844Y-55384597D01*
X152435512Y-55824596D01*
X154242591Y-56359897D01*
X156019290Y-56988998D01*
X157760589Y-57710298D01*
X158142494Y-57880298D01*
X159843692Y-58691698D01*
X161499992Y-59590997D01*
X163106990Y-60575798D01*
X164660293Y-61643297D01*
X164998489Y-61889097D01*
X166493789Y-63036497D01*
X166935485Y-63413696D01*
X166979789Y-63451496D01*
X167112487Y-63564895D01*
X167333389Y-63753496D01*
X167641693Y-64016796D01*
X167926994Y-64260496D01*
X168025695Y-64354196D01*
X168458099Y-64764596D01*
X168624694Y-64922697D01*
X168904495Y-65233396D01*
X169113594Y-65595497D01*
X169242797Y-65993097D01*
X169286499Y-66408996D01*
X169242797Y-66824796D01*
X169113594Y-67222396D01*
X168904495Y-67584497D01*
X168624694Y-67895298D01*
X168316696Y-68219497D01*
X167791397Y-68772397D01*
X167200500Y-69394498D01*
X166545394Y-70083999D01*
X165828193Y-70838998D01*
X165050689Y-71657398D01*
X164214996Y-72537097D01*
X163323493Y-73475498D01*
X162841194Y-73983200D01*
X162502994Y-74228899D01*
X162120994Y-74398998D01*
X161711994Y-74485898D01*
X161293895Y-74485898D01*
X160884895Y-74398998D01*
X160502994Y-74228899D01*
X160164695Y-73983200D01*
X159629695Y-73475498D01*
X158530998Y-72537097D01*
X157550498Y-71784698D01*
X156531997Y-71084697D01*
X155299995Y-70329797D01*
X154030097Y-69640296D01*
X152914695Y-69108196D01*
X151772918Y-68635295D01*
X150410835Y-68152996D01*
X149025367Y-67742595D01*
X147823669Y-67454095D01*
X146608528Y-67228796D01*
X145175926Y-67040195D01*
X143735420Y-66926895D01*
X142500000Y-66894495D01*
X141264579Y-66926895D01*
X139824069Y-67040195D01*
X138391468Y-67228796D01*
X137176330Y-67454095D01*
X135974628Y-67742595D01*
X134589157Y-68152996D01*
X133227077Y-68635295D01*
X132085296Y-69108196D01*
X130969898Y-69640296D01*
X129699998Y-70329797D01*
X128467998Y-71084697D01*
X127449497Y-71784698D01*
X126468997Y-72537097D01*
X125370298Y-73475498D01*
X124835298Y-73983198D01*
X124496997Y-74228897D01*
X124115097Y-74398998D01*
X123706092Y-74485897D01*
X123287994Y-74485897D01*
X122878993Y-74398996D01*
X122496994Y-74228897D01*
X122158794Y-73983196D01*
X121676494Y-73475496D01*
X120784994Y-72537096D01*
X119949293Y-71657396D01*
X119171792Y-70838996D01*
X118454593Y-70083997D01*
X117799493Y-69394496D01*
X117208593Y-68772396D01*
X116683292Y-68219495D01*
X116375293Y-67895296D01*
X116095493Y-67584495D01*
X115886393Y-67222394D01*
X115757193Y-66824794D01*
X115713493Y-66408994D01*
X115757193Y-65993095D01*
X115886393Y-65595495D01*
X116095493Y-65233394D01*
X116375293Y-64922695D01*
X116541893Y-64764595D01*
X116974292Y-64354194D01*
X117072994Y-64260494D01*
X117358293Y-64016794D01*
X117666593Y-63753494D01*
X117887493Y-63564893D01*
X118020193Y-63451494D01*
X118064493Y-63413694D01*
X118506193Y-63036495D01*
X120001493Y-61889095D01*
X120339693Y-61643295D01*
X121892993Y-60575796D01*
X123499992Y-59590995D01*
X125156293Y-58691696D01*
X126857492Y-57880296D01*
X127239393Y-57710296D01*
X128980693Y-56988996D01*
X130757392Y-56359895D01*
X132564472Y-55824596D01*
X134397144Y-55384597D01*
X134806114Y-55297595D01*
X136659294Y-54954196D01*
X138527912Y-54708198D01*
X140406845Y-54560298D01*
X142290935Y-54510997D01*
X142709049Y-54510997D01*
X144593143Y-54560298D01*
D10*
X117799493Y-69394496D02*
X118454593Y-70083997D01*
X120784994Y-72537096D02*
X121676494Y-73475496D01*
X117799493Y-69394496D02*
X118454593Y-70083997D01*
X124115097Y-74398998D02*
X124115097Y-74398998D01*
X163323493Y-73475498D02*
X164214996Y-72537097D01*
X158142494Y-57880298D02*
X157760589Y-57710298D01*
X148340690Y-54954196D02*
X146472072Y-54708198D01*
X117208593Y-68772396D02*
X117799493Y-69394496D01*
X169113594Y-67222396D02*
X169242797Y-66824796D01*
X116375293Y-64922695D02*
X116095493Y-65233394D01*
X141264579Y-66926895D02*
X142500000Y-66894495D01*
X150602844Y-55384597D02*
X150193870Y-55297595D01*
X115886393Y-65595495D02*
X115757193Y-65993095D01*
X169113594Y-65595497D02*
X168904495Y-65233396D01*
X116095493Y-65233394D02*
X115886393Y-65595495D01*
X120001493Y-61889095D02*
X118506193Y-63036495D01*
X166545394Y-70083999D02*
X167200500Y-69394498D01*
X150193870Y-55297595D02*
X148340690Y-54954196D01*
X124496997Y-74228897D02*
X124835298Y-73983198D01*
X169113594Y-65595497D02*
X168904495Y-65233396D01*
X124115097Y-74398998D02*
X124496997Y-74228897D01*
X160884895Y-74398998D02*
X161293895Y-74485898D01*
X134397144Y-55384597D02*
X132564472Y-55824596D01*
X145175926Y-67040195D02*
X146608528Y-67228796D01*
X164660293Y-61643297D02*
X163106990Y-60575798D01*
X142709049Y-54510997D02*
X142290935Y-54510997D01*
X161293895Y-74485898D02*
X161711994Y-74485898D01*
X156019290Y-56988998D02*
X154242591Y-56359897D01*
X167200500Y-69394498D02*
X167791397Y-68772397D01*
X127449497Y-71784698D02*
X128467998Y-71084697D01*
X132085296Y-69108196D02*
X133227077Y-68635295D01*
X147823669Y-67454095D02*
X149025367Y-67742595D01*
X166493789Y-63036497D02*
X164998489Y-61889097D01*
X159843692Y-58691698D02*
X158142494Y-57880298D01*
X142290935Y-54510997D02*
X140406845Y-54560298D01*
X168904495Y-67584497D02*
X169113594Y-67222396D01*
X150410835Y-68152996D02*
X151772918Y-68635295D01*
X116683292Y-68219495D02*
X117208593Y-68772396D01*
X166935485Y-63413696D02*
X166493789Y-63036497D01*
X134589157Y-68152996D02*
X135974628Y-67742595D01*
X135974628Y-67742595D02*
X137176330Y-67454095D01*
X156019290Y-56988998D02*
X154242591Y-56359897D01*
X134589157Y-68152996D02*
X135974628Y-67742595D01*
X168904495Y-65233396D02*
X168624694Y-64922697D01*
X168458099Y-64764596D02*
X168025695Y-64354196D01*
X165828193Y-70838998D02*
X166545394Y-70083999D01*
X160884895Y-74398998D02*
X161293895Y-74485898D01*
X142290935Y-54510997D02*
X140406845Y-54560298D01*
X115757193Y-65993095D02*
X115713493Y-66408994D01*
X166979789Y-63451496D02*
X166935485Y-63413696D01*
X147823669Y-67454095D02*
X149025367Y-67742595D01*
X117358293Y-64016794D02*
X117072994Y-64260494D01*
X146608528Y-67228796D02*
X147823669Y-67454095D01*
X166493789Y-63036497D02*
X164998489Y-61889097D01*
X150193870Y-55297595D02*
X148340690Y-54954196D01*
X132564472Y-55824596D02*
X130757392Y-56359895D01*
X121892993Y-60575796D02*
X120339693Y-61643295D01*
X136659294Y-54954196D02*
X134806114Y-55297595D01*
X134806114Y-55297595D02*
X134397144Y-55384597D01*
X169286499Y-66408996D02*
X169242797Y-65993097D01*
X149025367Y-67742595D02*
X150410835Y-68152996D01*
X117887493Y-63564893D02*
X117666593Y-63753494D01*
X139824069Y-67040195D02*
X141264579Y-66926895D01*
X116375293Y-64922695D02*
X116095493Y-65233394D01*
X167333389Y-63753496D02*
X167112487Y-63564895D01*
X118064493Y-63413694D02*
X118020193Y-63451494D01*
X122158794Y-73983196D02*
X122496994Y-74228897D01*
X154030097Y-69640296D02*
X155299995Y-70329797D01*
X140406845Y-54560298D02*
X138527912Y-54708198D01*
X167641693Y-64016796D02*
X167333389Y-63753496D01*
X119171792Y-70838996D02*
X119949293Y-71657396D01*
X127449497Y-71784698D02*
X128467998Y-71084697D01*
X124115097Y-74398998D02*
X124115097Y-74398998D01*
X157760589Y-57710298D02*
X156019290Y-56988998D01*
X118454593Y-70083997D02*
X119171792Y-70838996D01*
X168624694Y-64922697D02*
X168458099Y-64764596D01*
X165050689Y-71657398D02*
X165828193Y-70838998D01*
X165050689Y-71657398D02*
X165828193Y-70838998D01*
X143735420Y-66926895D02*
X145175926Y-67040195D01*
X166979789Y-63451496D02*
X166935485Y-63413696D01*
X117072994Y-64260494D02*
X116974292Y-64354194D01*
X116375293Y-67895296D02*
X116683292Y-68219495D01*
X121676494Y-73475496D02*
X122158794Y-73983196D01*
X141264579Y-66926895D02*
X142500000Y-66894495D01*
X142709049Y-54510997D02*
X142290935Y-54510997D01*
X148340690Y-54954196D02*
X146472072Y-54708198D01*
X119171792Y-70838996D02*
X119949293Y-71657396D01*
X117887493Y-63564893D02*
X117666593Y-63753494D01*
X137176330Y-67454095D02*
X138391468Y-67228796D01*
X152435512Y-55824596D02*
X150602844Y-55384597D01*
X152435512Y-55824596D02*
X150602844Y-55384597D01*
X155299995Y-70329797D02*
X156531997Y-71084697D01*
X168025695Y-64354196D02*
X167926994Y-64260496D01*
X169242797Y-66824796D02*
X169286499Y-66408996D01*
X156531997Y-71084697D02*
X157550498Y-71784698D01*
X122158794Y-73983196D02*
X122496994Y-74228897D01*
X164998489Y-61889097D02*
X164660293Y-61643297D01*
X147823669Y-67454095D02*
X149025367Y-67742595D01*
X128467998Y-71084697D02*
X129699998Y-70329797D01*
X118454593Y-70083997D02*
X119171792Y-70838996D01*
X164660293Y-61643297D02*
X163106990Y-60575798D01*
X119949293Y-71657396D02*
X120784994Y-72537096D01*
X168316696Y-68219497D02*
X168624694Y-67895298D01*
X116541893Y-64764595D02*
X116375293Y-64922695D01*
X119949293Y-71657396D02*
X120784994Y-72537096D01*
X149025367Y-67742595D02*
X150410835Y-68152996D01*
X120001493Y-61889095D02*
X118506193Y-63036495D01*
X136659294Y-54954196D02*
X134806114Y-55297595D01*
X164660293Y-61643297D02*
X163106990Y-60575798D01*
X123706092Y-74485897D02*
X124115097Y-74398998D01*
X124835298Y-73983198D02*
X125370298Y-73475498D01*
X115757193Y-66824794D02*
X115886393Y-67222394D01*
X128467998Y-71084697D02*
X129699998Y-70329797D01*
X126857492Y-57880296D02*
X125156293Y-58691696D01*
X163106990Y-60575798D02*
X161499992Y-59590997D01*
X167926994Y-64260496D02*
X167641693Y-64016796D01*
X155299995Y-70329797D02*
X156531997Y-71084697D01*
X164214996Y-72537097D02*
X165050689Y-71657398D01*
X128980693Y-56988996D02*
X127239393Y-57710296D01*
X115886393Y-65595495D02*
X115757193Y-65993095D01*
X165828193Y-70838998D02*
X166545394Y-70083999D01*
X146472072Y-54708198D02*
X144593143Y-54560298D01*
X117072994Y-64260494D02*
X116974292Y-64354194D01*
X151772918Y-68635295D02*
X152914695Y-69108196D01*
X149025367Y-67742595D02*
X150410835Y-68152996D01*
X128980693Y-56988996D02*
X127239393Y-57710296D01*
X134397144Y-55384597D02*
X132564472Y-55824596D01*
X130969898Y-69640296D02*
X132085296Y-69108196D01*
X167200500Y-69394498D02*
X167791397Y-68772397D01*
X154030097Y-69640296D02*
X155299995Y-70329797D01*
X146608528Y-67228796D02*
X147823669Y-67454095D01*
X162841194Y-73983200D02*
X163323493Y-73475498D01*
X123706092Y-74485897D02*
X124115097Y-74398998D01*
X160502994Y-74228899D02*
X160884895Y-74398998D01*
X126857492Y-57880296D02*
X125156293Y-58691696D01*
X117358293Y-64016794D02*
X117072994Y-64260494D01*
X162841194Y-73983200D02*
X163323493Y-73475498D01*
X115886393Y-67222394D02*
X116095493Y-67584495D01*
X159843692Y-58691698D02*
X158142494Y-57880298D01*
X152914695Y-69108196D02*
X154030097Y-69640296D01*
X161293895Y-74485898D02*
X161711994Y-74485898D01*
X164660293Y-61643297D02*
X163106990Y-60575798D01*
X168624694Y-67895298D02*
X168904495Y-67584497D01*
X166493789Y-63036497D02*
X164998489Y-61889097D01*
X167112487Y-63564895D02*
X166979789Y-63451496D01*
X124115097Y-74398998D02*
X124496997Y-74228897D01*
X116974292Y-64354194D02*
X116541893Y-64764595D01*
X152435512Y-55824596D02*
X150602844Y-55384597D01*
X117887493Y-63564893D02*
X117666593Y-63753494D01*
X167791397Y-68772397D02*
X168316696Y-68219497D01*
X134397144Y-55384597D02*
X132564472Y-55824596D01*
X156019290Y-56988998D02*
X154242591Y-56359897D01*
X117208593Y-68772396D02*
X117799493Y-69394496D01*
X142500000Y-66894495D02*
X143735420Y-66926895D01*
X117208593Y-68772396D02*
X117799493Y-69394496D01*
X124835298Y-73983198D02*
X125370298Y-73475498D01*
X119949293Y-71657396D02*
X120784994Y-72537096D01*
X115713493Y-66408994D02*
X115757193Y-66824794D01*
X139824069Y-67040195D02*
X141264579Y-66926895D01*
X158530998Y-72537097D02*
X159629695Y-73475498D01*
X130757392Y-56359895D02*
X128980693Y-56988996D01*
X117887493Y-63564893D02*
X117666593Y-63753494D01*
X117072994Y-64260494D02*
X116974292Y-64354194D01*
X162120994Y-74398998D02*
X162502994Y-74228899D01*
X116375293Y-64922695D02*
X116095493Y-65233394D01*
X115757193Y-65993095D02*
X115713493Y-66408994D01*
X161293895Y-74485898D02*
X161711994Y-74485898D01*
X123287994Y-74485897D02*
X123706092Y-74485897D01*
X116375293Y-67895296D02*
X116683292Y-68219495D01*
X139824069Y-67040195D02*
X141264579Y-66926895D01*
X132085296Y-69108196D02*
X133227077Y-68635295D01*
X142709049Y-54510997D02*
X142290935Y-54510997D01*
X116095493Y-67584495D02*
X116375293Y-67895296D01*
X138527912Y-54708198D02*
X136659294Y-54954196D01*
X159843692Y-58691698D02*
X158142494Y-57880298D01*
X132085296Y-69108196D02*
X133227077Y-68635295D01*
X134397144Y-55384597D02*
X132564472Y-55824596D01*
X123287994Y-74485897D02*
X123706092Y-74485897D01*
X166545394Y-70083999D02*
X167200500Y-69394498D01*
X134806114Y-55297595D02*
X134397144Y-55384597D01*
X157760589Y-57710298D02*
X156019290Y-56988998D01*
X156531997Y-71084697D02*
X157550498Y-71784698D01*
X123287994Y-74485897D02*
X123706092Y-74485897D01*
X150410835Y-68152996D02*
X151772918Y-68635295D01*
X138391468Y-67228796D02*
X139824069Y-67040195D01*
X142500000Y-66894495D02*
X143735420Y-66926895D01*
X118454593Y-70083997D02*
X119171792Y-70838996D01*
X169286499Y-66408996D02*
X169242797Y-65993097D01*
X161711994Y-74485898D02*
X162120994Y-74398998D01*
X123499992Y-59590995D02*
X121892993Y-60575796D01*
X167112487Y-63564895D02*
X166979789Y-63451496D01*
X168458099Y-64764596D02*
X168025695Y-64354196D01*
X140406845Y-54560298D02*
X138527912Y-54708198D01*
X118454593Y-70083997D02*
X119171792Y-70838996D01*
X159629695Y-73475498D02*
X160164695Y-73983200D01*
X135974628Y-67742595D02*
X137176330Y-67454095D01*
X123499992Y-59590995D02*
X121892993Y-60575796D01*
X168904495Y-65233396D02*
X168624694Y-64922697D01*
X115757193Y-66824794D02*
X115886393Y-67222394D01*
X154242591Y-56359897D02*
X152435512Y-55824596D01*
X159629695Y-73475498D02*
X160164695Y-73983200D01*
X144593143Y-54560298D02*
X142709049Y-54510997D01*
X117072994Y-64260494D02*
X116974292Y-64354194D01*
X128980693Y-56988996D02*
X127239393Y-57710296D01*
X169242797Y-65993097D02*
X169113594Y-65595497D01*
X160164695Y-73983200D02*
X160502994Y-74228899D01*
X115886393Y-67222394D02*
X116095493Y-67584495D01*
X118506193Y-63036495D02*
X118064493Y-63413694D01*
X121892993Y-60575796D02*
X120339693Y-61643295D01*
X117666593Y-63753494D02*
X117358293Y-64016794D01*
X118506193Y-63036495D02*
X118064493Y-63413694D01*
X156019290Y-56988998D02*
X154242591Y-56359897D01*
X118506193Y-63036495D02*
X118064493Y-63413694D01*
X132564472Y-55824596D02*
X130757392Y-56359895D01*
X163106990Y-60575798D02*
X161499992Y-59590997D01*
X151772918Y-68635295D02*
X152914695Y-69108196D01*
X167112487Y-63564895D02*
X166979789Y-63451496D01*
X155299995Y-70329797D02*
X156531997Y-71084697D01*
X137176330Y-67454095D02*
X138391468Y-67228796D01*
X119171792Y-70838996D02*
X119949293Y-71657396D01*
X158142494Y-57880298D02*
X157760589Y-57710298D01*
X158530998Y-72537097D02*
X159629695Y-73475498D01*
X146608528Y-67228796D02*
X147823669Y-67454095D01*
X116541893Y-64764595D02*
X116375293Y-64922695D01*
X167112487Y-63564895D02*
X166979789Y-63451496D01*
X115713493Y-66408994D02*
X115757193Y-66824794D01*
X123706092Y-74485897D02*
X124115097Y-74398998D01*
X168904495Y-65233396D02*
X168624694Y-64922697D01*
X145175926Y-67040195D02*
X146608528Y-67228796D01*
X155299995Y-70329797D02*
X156531997Y-71084697D01*
X138527912Y-54708198D02*
X136659294Y-54954196D01*
X147823669Y-67454095D02*
X149025367Y-67742595D01*
X125156293Y-58691696D02*
X123499992Y-59590995D01*
X116375293Y-67895296D02*
X116683292Y-68219495D01*
X116095493Y-67584495D02*
X116375293Y-67895296D01*
X126468997Y-72537097D02*
X127449497Y-71784698D01*
X167791397Y-68772397D02*
X168316696Y-68219497D01*
X150410835Y-68152996D02*
X151772918Y-68635295D01*
X151772918Y-68635295D02*
X152914695Y-69108196D01*
X139824069Y-67040195D02*
X141264579Y-66926895D01*
X122878993Y-74398996D02*
X123287994Y-74485897D01*
X118020193Y-63451494D02*
X117887493Y-63564893D01*
X116375293Y-67895296D02*
X116683292Y-68219495D01*
X164214996Y-72537097D02*
X165050689Y-71657398D01*
X169242797Y-65993097D02*
X169113594Y-65595497D01*
X166979789Y-63451496D02*
X166935485Y-63413696D01*
X130969898Y-69640296D02*
X132085296Y-69108196D01*
X167791397Y-68772397D02*
X168316696Y-68219497D01*
X128467998Y-71084697D02*
X129699998Y-70329797D01*
X164214996Y-72537097D02*
X165050689Y-71657398D01*
X116095493Y-67584495D02*
X116375293Y-67895296D01*
X159629695Y-73475498D02*
X160164695Y-73983200D01*
X169113594Y-67222396D02*
X169242797Y-66824796D01*
X123706092Y-74485897D02*
X124115097Y-74398998D01*
X120339693Y-61643295D02*
X120001493Y-61889095D01*
X168025695Y-64354196D02*
X167926994Y-64260496D01*
X169242797Y-65993097D02*
X169113594Y-65595497D01*
X161499992Y-59590997D02*
X159843692Y-58691698D01*
X168904495Y-65233396D02*
X168624694Y-64922697D01*
X138391468Y-67228796D02*
X139824069Y-67040195D01*
X169286499Y-66408996D02*
X169242797Y-65993097D01*
X120001493Y-61889095D02*
X118506193Y-63036495D01*
X169113594Y-67222396D02*
X169242797Y-66824796D01*
X168624694Y-64922697D02*
X168458099Y-64764596D01*
X120001493Y-61889095D02*
X118506193Y-63036495D01*
X143735420Y-66926895D02*
X145175926Y-67040195D01*
X145175926Y-67040195D02*
X146608528Y-67228796D01*
X130757392Y-56359895D02*
X128980693Y-56988996D01*
X169242797Y-66824796D02*
X169286499Y-66408996D01*
X135974628Y-67742595D02*
X137176330Y-67454095D01*
X161499992Y-59590997D02*
X159843692Y-58691698D01*
X142709049Y-54510997D02*
X142290935Y-54510997D01*
X129699998Y-70329797D02*
X130969898Y-69640296D01*
X152435512Y-55824596D02*
X150602844Y-55384597D01*
X168624694Y-67895298D02*
X168904495Y-67584497D01*
X133227077Y-68635295D02*
X134589157Y-68152996D01*
X143735420Y-66926895D02*
X145175926Y-67040195D01*
X123499992Y-59590995D02*
X121892993Y-60575796D01*
X164660293Y-61643297D02*
X163106990Y-60575798D01*
X116375293Y-64922695D02*
X116095493Y-65233394D01*
X146608528Y-67228796D02*
X147823669Y-67454095D01*
X148340690Y-54954196D02*
X146472072Y-54708198D01*
X115886393Y-67222394D02*
X116095493Y-67584495D01*
X123287994Y-74485897D02*
X123706092Y-74485897D01*
X149025367Y-67742595D02*
X150410835Y-68152996D01*
X115886393Y-65595495D02*
X115757193Y-65993095D01*
X117208593Y-68772396D02*
X117799493Y-69394496D01*
X167926994Y-64260496D02*
X167641693Y-64016796D01*
X166545394Y-70083999D02*
X167200500Y-69394498D01*
X165050689Y-71657398D02*
X165828193Y-70838998D01*
X165828193Y-70838998D02*
X166545394Y-70083999D01*
X150602844Y-55384597D02*
X150193870Y-55297595D01*
X133227077Y-68635295D02*
X134589157Y-68152996D01*
X150193870Y-55297595D02*
X148340690Y-54954196D01*
X152914695Y-69108196D02*
X154030097Y-69640296D01*
X123499992Y-59590995D02*
X121892993Y-60575796D01*
X147823669Y-67454095D02*
X149025367Y-67742595D01*
X150193870Y-55297595D02*
X148340690Y-54954196D01*
X164214996Y-72537097D02*
X165050689Y-71657398D01*
X168624694Y-64922697D02*
X168458099Y-64764596D01*
X154242591Y-56359897D02*
X152435512Y-55824596D01*
X158530998Y-72537097D02*
X159629695Y-73475498D01*
X162120994Y-74398998D02*
X162502994Y-74228899D01*
X156019290Y-56988998D02*
X154242591Y-56359897D01*
X124496997Y-74228897D02*
X124835298Y-73983198D01*
X116974292Y-64354194D02*
X116541893Y-64764595D01*
X169242797Y-65993097D02*
X169113594Y-65595497D01*
X168904495Y-67584497D02*
X169113594Y-67222396D01*
X156531997Y-71084697D02*
X157550498Y-71784698D01*
X116095493Y-65233394D02*
X115886393Y-65595495D01*
X166935485Y-63413696D02*
X166493789Y-63036497D01*
X118064493Y-63413694D02*
X118020193Y-63451494D01*
X164998489Y-61889097D02*
X164660293Y-61643297D01*
X168624694Y-67895298D02*
X168904495Y-67584497D01*
X161499992Y-59590997D02*
X159843692Y-58691698D01*
X127449497Y-71784698D02*
X128467998Y-71084697D01*
X126468997Y-72537097D02*
X127449497Y-71784698D01*
X167791397Y-68772397D02*
X168316696Y-68219497D01*
X144593143Y-54560298D02*
X142709049Y-54510997D01*
X125370298Y-73475498D02*
X126468997Y-72537097D01*
X122158794Y-73983196D02*
X122496994Y-74228897D01*
D12*
%TO.P,U6,1*%
%TO.N,ROTOR_GND*%
X149002125Y-76326807D03*
D13*
%TO.P,U6,2*%
%TO.N,COUNT_2*%
X148540398Y-77595392D03*
D14*
%TO.P,U6,3*%
%TO.N,Net-(R9-Pad2)*%
X147874494Y-75916383D03*
D15*
%TO.P,U6,4*%
%TO.N,ROTOR_GND*%
X147412767Y-77184968D03*
%TD*%
D16*
%TO.P,U5,1*%
%TO.N,ROTOR_GND*%
X131787934Y-72800381D03*
D17*
%TO.P,U5,2*%
%TO.N,/tachometer/COUNT_1*%
X132462934Y-73969515D03*
D18*
%TO.P,U5,3*%
%TO.N,Net-(R8-Pad2)*%
X130748704Y-73400381D03*
D19*
%TO.P,U5,4*%
%TO.N,ROTOR_GND*%
X131423704Y-74569515D03*
%TD*%
D20*
%TO.P,J4,1*%
%TO.N,/CPU/PB6*%
X151782400Y-105055800D03*
%TO.P,J4,2*%
%TO.N,+3V3*%
X151782400Y-107595800D03*
%TO.P,J4,3*%
%TO.N,/CPU/PB7*%
X154322400Y-105055800D03*
%TO.P,J4,4*%
%TO.N,/CPU/PB5*%
X154322400Y-107595800D03*
%TO.P,J4,5*%
%TO.N,/CPU/RST#_P*%
X156862400Y-105055800D03*
%TO.P,J4,6*%
%TO.N,ROTOR_GND*%
X156862400Y-107595800D03*
%TD*%
D21*
%TO.N,ROTOR_GND*%
X128905000Y-111506000D03*
X117221000Y-92583000D03*
%TO.N,+5V*%
X112141000Y-99568000D03*
X113200000Y-76750000D03*
%TO.N,+3V3*%
X152797600Y-107304400D03*
X153289000Y-97155000D03*
X142240000Y-104394000D03*
%TO.N,/CPU/RST#_P*%
X155845600Y-105018400D03*
%TO.N,/CPU/PB6*%
X150600000Y-104950000D03*
%TO.N,/CPU/PB7*%
X153305600Y-105780400D03*
%TO.N,/CPU/PB5*%
X155083600Y-106796400D03*
%TO.N,/CPU/TIMEPULSE*%
X149479000Y-99822000D03*
X150114000Y-111760000D03*
%TO.N,Net-(R8-Pad2)*%
X129856800Y-73756000D03*
%TO.N,Net-(R9-Pad2)*%
X146706800Y-75756000D03*
%TO.N,/tachometer/COUNT_1*%
X133424005Y-71707114D03*
X140208000Y-73406000D03*
%TO.N,/CPU/PC1*%
X132334000Y-113411000D03*
X155448000Y-111252000D03*
X138862637Y-114212500D03*
%TO.N,/CPU/PC0*%
X154813000Y-110363000D03*
X115196056Y-95504000D03*
X137668000Y-113450500D03*
X113538000Y-94488000D03*
X130175000Y-111633000D03*
%TO.N,/CPU/RX0*%
X119126000Y-110490000D03*
X144399000Y-114935000D03*
%TO.N,/CPU/TX0*%
X118110000Y-111252000D03*
X144659849Y-115847970D03*
%TO.N,/CPU/TX1*%
X110998000Y-96012000D03*
X148971000Y-112014000D03*
%TO.N,/CPU/RX1*%
X146134019Y-112776000D03*
X110109000Y-97155000D03*
%TO.N,/CPU/BTN*%
X156718000Y-109728000D03*
X165481000Y-107442000D03*
%TO.N,/CPU/GEO_STAT*%
X113792000Y-91948000D03*
X116205000Y-91948000D03*
%TO.N,ROTOR_GND*%
X121793000Y-105410000D03*
X159893000Y-90805000D03*
X113411000Y-103251000D03*
X146050000Y-116078000D03*
X115900000Y-76550000D03*
X125349000Y-99568000D03*
X169164000Y-75057000D03*
X140208000Y-69088000D03*
X115951000Y-113919000D03*
X150876000Y-89408000D03*
X117850000Y-78700000D03*
X136779000Y-115062000D03*
X175900000Y-93950000D03*
X109093000Y-78105000D03*
X138557000Y-77343000D03*
X121412000Y-95758000D03*
X171704000Y-102743000D03*
X148082000Y-85344000D03*
X125222000Y-93726000D03*
X145034000Y-78867000D03*
X116205000Y-94742000D03*
X132400000Y-78800000D03*
X128143000Y-94107000D03*
X122555000Y-96774000D03*
X113792000Y-81026000D03*
X142494000Y-103378000D03*
X165227000Y-86995000D03*
X133858000Y-94107000D03*
X167513000Y-84455000D03*
X125400000Y-78800000D03*
X164719000Y-91440000D03*
X116050000Y-80850000D03*
X128143000Y-93091000D03*
X123317000Y-101727000D03*
X153289000Y-74041000D03*
X151511000Y-109728000D03*
X125603000Y-87884000D03*
X113700000Y-78700000D03*
X130175000Y-107442000D03*
X140843000Y-108331000D03*
X171300000Y-99500000D03*
X134366000Y-98171000D03*
X113284000Y-96139000D03*
X162052000Y-97536000D03*
X153289000Y-91440000D03*
X137160000Y-69215000D03*
X113030000Y-115316000D03*
X117983000Y-104775000D03*
X118110000Y-96520000D03*
X147828000Y-115697000D03*
X131318000Y-100457000D03*
X171950000Y-85600000D03*
X141986000Y-108331000D03*
X131826000Y-103251000D03*
X139954000Y-103378000D03*
X166370000Y-97790000D03*
X162814000Y-91059000D03*
X151765000Y-111633000D03*
X120000000Y-80450000D03*
X131064000Y-90170000D03*
X150241000Y-71628000D03*
X133858000Y-91059000D03*
X160147000Y-95758000D03*
X127000000Y-103251000D03*
X106807000Y-103124000D03*
X136271000Y-109093000D03*
X104775000Y-102235000D03*
X129794000Y-95123000D03*
X111633000Y-116078000D03*
X131826000Y-95123000D03*
X172085000Y-89281000D03*
X129150000Y-78700000D03*
X111760000Y-71882000D03*
X159766000Y-80264000D03*
X160147000Y-76581000D03*
X143383000Y-70358000D03*
X128905000Y-90043000D03*
X168021000Y-109347000D03*
X115000000Y-90450000D03*
X132334000Y-108077000D03*
X153162000Y-80010000D03*
X173355000Y-80518000D03*
X160020000Y-99441000D03*
X114427000Y-114681000D03*
X164846000Y-89154000D03*
X109600000Y-86700000D03*
X123250000Y-76550000D03*
X143129000Y-81407000D03*
X107950000Y-86106000D03*
X106045000Y-86106000D03*
X173736000Y-76962000D03*
X140716000Y-79502000D03*
X113665000Y-86106000D03*
X135650000Y-69750000D03*
X173736000Y-105156000D03*
X113250000Y-88900000D03*
X130810000Y-95123000D03*
X123952000Y-107061000D03*
X121700000Y-78800000D03*
X172085000Y-81280000D03*
X164200000Y-110900000D03*
X162814000Y-85852000D03*
X144272000Y-69342000D03*
X113284000Y-97536000D03*
X161290000Y-90043000D03*
X114173000Y-99060000D03*
X158496000Y-92329000D03*
X173350000Y-99800000D03*
X121412000Y-99822000D03*
X129413000Y-103251000D03*
X107315000Y-76454000D03*
X175514000Y-96266000D03*
X134493000Y-103378000D03*
X107696000Y-78105000D03*
X138200000Y-71200000D03*
X172974000Y-109220000D03*
X127635000Y-107061000D03*
X135382000Y-115062000D03*
X129159000Y-100457000D03*
X162560000Y-87884000D03*
X132842000Y-94107000D03*
X119250000Y-100900000D03*
X106426000Y-81153000D03*
X167386000Y-91567000D03*
X157480000Y-83312000D03*
X113665000Y-72898000D03*
X138049000Y-107188000D03*
X167259000Y-92837000D03*
X129159000Y-105410000D03*
X155829000Y-108839000D03*
X138684000Y-69215000D03*
X133350000Y-96393000D03*
X110617000Y-83185000D03*
X153791944Y-86238056D03*
X173850000Y-93650000D03*
X128270000Y-90805000D03*
X151384000Y-92710000D03*
X104267000Y-86106000D03*
X108331000Y-101981000D03*
X136779000Y-71374000D03*
X117983000Y-90424000D03*
X139650000Y-71150000D03*
X176050000Y-90550000D03*
X142367000Y-71247000D03*
X171950000Y-87700000D03*
X161417000Y-101727000D03*
X113538000Y-84455000D03*
X137922000Y-100457000D03*
X131826000Y-94107000D03*
X124200000Y-80700000D03*
X161163000Y-104902000D03*
X135890000Y-100457000D03*
X168148000Y-99187000D03*
X148717000Y-108966000D03*
X151696444Y-84142556D03*
X139827000Y-105918000D03*
X121750000Y-101800000D03*
X120269000Y-94742000D03*
X174752000Y-79883000D03*
X130048000Y-89916000D03*
X166751000Y-77597000D03*
X175650000Y-99550000D03*
X110200000Y-88350000D03*
X105664000Y-84455000D03*
X115697000Y-104013000D03*
X166116000Y-92837000D03*
X169900000Y-89100000D03*
X127600000Y-80700000D03*
X169545000Y-85852000D03*
X134366000Y-109347000D03*
X110236000Y-71120000D03*
X168783000Y-90297000D03*
X134600000Y-76550000D03*
X147828000Y-81280000D03*
X134400000Y-70900000D03*
X170180000Y-75946000D03*
X133604000Y-100457000D03*
X119761000Y-98298000D03*
X160147000Y-93980000D03*
X145288000Y-83185000D03*
X114554000Y-68326000D03*
X173609000Y-103124000D03*
X129413000Y-96901000D03*
X164211000Y-95250000D03*
X131600000Y-88350000D03*
X133858000Y-114847500D03*
X120500000Y-76550000D03*
X161671000Y-94107000D03*
X139573000Y-115189000D03*
X163449000Y-92456000D03*
X128143000Y-91948000D03*
X118100000Y-76550000D03*
X157480000Y-86614000D03*
X167513000Y-88519000D03*
X155702000Y-76454000D03*
X168656000Y-87376000D03*
X173863000Y-107315000D03*
X165735000Y-109474000D03*
X116713000Y-89281000D03*
X121793000Y-103632000D03*
X115062000Y-93345000D03*
X145288000Y-104902000D03*
X131699000Y-91059000D03*
X136750000Y-74350000D03*
X170815000Y-109474000D03*
X126300000Y-76400000D03*
X165989000Y-90170000D03*
X156591000Y-93599000D03*
X166370000Y-102743000D03*
X150368000Y-87503000D03*
X172847000Y-83439000D03*
X166751000Y-95250000D03*
X134650000Y-73450000D03*
X164973000Y-75057000D03*
X123952000Y-98171000D03*
X153416000Y-83439000D03*
X168910000Y-77724000D03*
X164211000Y-104267000D03*
X124968000Y-103124000D03*
X156591000Y-97536000D03*
X136906000Y-103251000D03*
X121666000Y-107061000D03*
X160020000Y-84201000D03*
X115570000Y-69342000D03*
X150749000Y-95631000D03*
X131815553Y-76230559D03*
X128397000Y-75057000D03*
X106426000Y-101981000D03*
X115570000Y-100330000D03*
X153289000Y-94742000D03*
X115600000Y-97250000D03*
X128778000Y-94996000D03*
X127000000Y-100330000D03*
X132842000Y-91059000D03*
X116967000Y-70739000D03*
X157480000Y-91186000D03*
X110450000Y-80950000D03*
X160147000Y-108077000D03*
X161544000Y-92456000D03*
X105283000Y-103632000D03*
%TO.N,STATOR*%
X174396400Y-73761600D03*
X166420800Y-64262000D03*
X166510000Y-120630000D03*
%TO.N,PA1*%
X164801200Y-76392400D03*
X164775800Y-82513800D03*
X158369000Y-96012000D03*
X158369000Y-100203000D03*
%TO.N,COUNT_2*%
X149656800Y-77956000D03*
X156591000Y-111252000D03*
%TD*%
D22*
%TO.N,*%
X128980701Y-128011001D02*
X130757400Y-128640098D01*
X150410835Y-68152996D02*
X151772918Y-68635295D01*
X143735420Y-66926895D02*
X145175926Y-67040195D01*
X161711994Y-74485898D02*
X162120994Y-74398998D01*
X116375301Y-117104698D02*
X116095500Y-117415496D01*
X164998489Y-61889097D02*
X164660293Y-61643297D01*
X115886393Y-65595495D02*
X115757193Y-65993095D01*
X136659294Y-54954196D02*
X134806114Y-55297595D01*
X168624694Y-120077301D02*
X168904495Y-119766601D01*
X129699998Y-70329797D02*
X130969898Y-69640296D01*
X163106990Y-60575798D02*
X161499992Y-59590997D01*
X120785001Y-112462898D02*
X119949302Y-113342597D01*
X149025367Y-67742595D02*
X150410835Y-68152996D01*
X138527912Y-54708198D02*
X136659294Y-54954196D01*
X124497001Y-110771099D02*
X124115100Y-110600997D01*
X134589157Y-68152996D02*
X135974628Y-67742595D01*
X135974628Y-67742595D02*
X137176330Y-67454095D01*
X149025371Y-117257400D02*
X147823669Y-117545898D01*
X141264579Y-66926895D02*
X142500000Y-66894495D01*
X162120998Y-110600997D02*
X161711997Y-110514099D01*
X127449497Y-71784698D02*
X128467998Y-71084697D01*
X142709049Y-54510997D02*
X142290935Y-54510997D01*
X167200500Y-115605499D02*
X166545394Y-114916000D01*
X117666593Y-63753494D02*
X117358293Y-64016794D01*
X120784994Y-72537096D02*
X121676494Y-73475496D01*
X169242797Y-118175201D02*
X169113601Y-117777603D01*
X166493789Y-63036497D02*
X164998489Y-61889097D01*
X167112495Y-121435104D02*
X167333396Y-121246505D01*
X168624694Y-64922697D02*
X168458099Y-64764596D01*
X164998489Y-61889097D02*
X164660293Y-61643297D01*
X156019290Y-56988998D02*
X154242591Y-56359897D01*
X134397144Y-55384597D02*
X132564472Y-55824596D01*
X168904495Y-65233396D02*
X168624694Y-64922697D01*
X152914695Y-69108196D02*
X154030097Y-69640296D01*
X148340690Y-54954196D02*
X146472072Y-54708198D01*
X168316696Y-116780502D02*
X167791397Y-116227600D01*
X149025367Y-67742595D02*
X150410835Y-68152996D01*
X146608528Y-67228796D02*
X147823669Y-67454095D01*
X118064500Y-121586303D02*
X118506200Y-121963500D01*
X123706092Y-74485897D02*
X124115097Y-74398998D01*
X146608531Y-117771202D02*
X145175933Y-117959800D01*
X123706102Y-110514099D02*
X123288002Y-110514099D01*
X169286499Y-66408996D02*
X169242797Y-65993097D01*
X163106994Y-124424201D02*
X164660293Y-123356704D01*
X116541893Y-64764595D02*
X116375293Y-64922695D01*
X167791397Y-68772397D02*
X168316696Y-68219497D01*
X137176330Y-67454095D02*
X138391468Y-67228796D01*
X115886393Y-67222394D02*
X116095493Y-67584495D01*
X117887500Y-121435104D02*
X118020200Y-121548500D01*
X156019294Y-128011001D02*
X157760597Y-127289703D01*
X166935493Y-121586303D02*
X166979797Y-121548500D01*
X116683300Y-116780502D02*
X116375301Y-117104698D01*
X124115097Y-74398998D02*
X124496997Y-74228897D01*
X166493789Y-63036497D02*
X164998489Y-61889097D01*
X129699998Y-70329797D02*
X130969898Y-69640296D01*
X115886393Y-65595495D02*
X115757193Y-65993095D01*
X138391468Y-67228796D02*
X139824069Y-67040195D01*
X125370302Y-111524497D02*
X124835302Y-111016799D01*
X168624694Y-67895298D02*
X168904495Y-67584497D01*
X139824069Y-67040195D02*
X141264579Y-66926895D01*
X148340690Y-54954196D02*
X146472072Y-54708198D01*
X123287994Y-74485897D02*
X123706092Y-74485897D01*
X167791397Y-68772397D02*
X168316696Y-68219497D01*
X163323493Y-73475498D02*
X164214996Y-72537097D01*
X156019290Y-56988998D02*
X154242591Y-56359897D01*
X116683292Y-68219495D02*
X117208593Y-68772396D01*
X122158794Y-73983196D02*
X122496994Y-74228897D01*
X123706092Y-74485897D02*
X124115097Y-74398998D01*
X160502998Y-110771099D02*
X160164699Y-111016799D01*
X169113601Y-119404502D02*
X169242797Y-119006896D01*
X152914703Y-115891799D02*
X151772918Y-116364700D01*
X119171792Y-70838996D02*
X119949293Y-71657396D01*
X146472072Y-54708198D02*
X144593143Y-54560298D01*
X127239400Y-127289703D02*
X128980701Y-128011001D01*
X151772918Y-68635295D02*
X152914695Y-69108196D01*
X140406852Y-130439697D02*
X142290943Y-130488998D01*
X162841194Y-73983200D02*
X163323493Y-73475498D01*
X137176330Y-117545898D02*
X135974632Y-117257400D01*
X157760589Y-57710298D02*
X156019290Y-56988998D01*
X168624694Y-117104698D02*
X168316696Y-116780502D01*
X122878993Y-74398996D02*
X123287994Y-74485897D01*
X134806121Y-129702400D02*
X136659301Y-130045799D01*
X127239393Y-57710296D02*
X126857492Y-57880296D01*
X116541900Y-120235397D02*
X116974300Y-120645797D01*
X119949302Y-113342597D02*
X119171802Y-114160995D01*
X164998489Y-61889097D02*
X164660293Y-61643297D01*
X132564479Y-129175399D02*
X134397151Y-129615402D01*
X124496997Y-74228897D02*
X124835298Y-73983198D01*
X150410835Y-68152996D02*
X151772918Y-68635295D01*
X126857492Y-57880296D02*
X125156293Y-58691696D01*
X137176330Y-67454095D02*
X138391468Y-67228796D01*
X167927001Y-120739501D02*
X168025695Y-120645797D01*
X132085296Y-69108196D02*
X133227077Y-68635295D01*
X167333389Y-63753496D02*
X167112487Y-63564895D01*
X117358293Y-64016794D02*
X117072994Y-64260494D01*
X132564472Y-55824596D02*
X130757392Y-56359895D01*
X121892993Y-60575796D02*
X120339693Y-61643295D01*
X136659294Y-54954196D02*
X134806114Y-55297595D01*
X127449501Y-113215301D02*
X126469001Y-112462898D01*
X167333389Y-63753496D02*
X167112487Y-63564895D01*
X125370298Y-73475498D02*
X126468997Y-72537097D01*
X117072994Y-64260494D02*
X116974292Y-64354194D01*
X169113594Y-65595497D02*
X168904495Y-65233396D01*
X124115100Y-110600997D02*
X123706102Y-110514099D01*
X168904495Y-117415496D02*
X168624694Y-117104698D01*
X168624694Y-64922697D02*
X168458099Y-64764596D01*
X120001493Y-61889095D02*
X118506193Y-63036495D01*
X120339693Y-61643295D02*
X120001493Y-61889095D01*
X142290943Y-130488998D02*
X142709056Y-130488998D01*
X165828193Y-70838998D02*
X166545394Y-70083999D01*
X169113594Y-65595497D02*
X168904495Y-65233396D01*
X161499996Y-125408996D02*
X163106994Y-124424201D01*
X167112487Y-63564895D02*
X166979789Y-63451496D01*
X130757392Y-56359895D02*
X128980693Y-56988996D01*
X165828193Y-70838998D02*
X166545394Y-70083999D01*
X157760589Y-57710298D02*
X156019290Y-56988998D01*
X125370298Y-73475498D02*
X126468997Y-72537097D01*
X126857492Y-57880296D02*
X125156293Y-58691696D01*
X115713493Y-66408994D02*
X115757193Y-66824794D01*
X148340690Y-54954196D02*
X146472072Y-54708198D01*
X125156293Y-58691696D02*
X123499992Y-59590995D01*
X123499992Y-59590995D02*
X121892993Y-60575796D01*
X127239393Y-57710296D02*
X126857492Y-57880296D01*
X136659294Y-54954196D02*
X134806114Y-55297595D01*
X116095493Y-67584495D02*
X116375293Y-67895296D01*
X154242591Y-56359897D02*
X152435512Y-55824596D01*
X116095493Y-67584495D02*
X116375293Y-67895296D01*
X163323493Y-73475498D02*
X164214996Y-72537097D01*
X117887493Y-63564893D02*
X117666593Y-63753494D01*
X154030101Y-115359703D02*
X152914703Y-115891799D01*
X115886393Y-65595495D02*
X115757193Y-65993095D01*
X159629695Y-73475498D02*
X160164695Y-73983200D01*
X125156293Y-58691696D02*
X123499992Y-59590995D01*
X128980693Y-56988996D02*
X127239393Y-57710296D01*
X150193870Y-55297595D02*
X148340690Y-54954196D01*
X124835298Y-73983198D02*
X125370298Y-73475498D01*
X120339700Y-123356704D02*
X121893001Y-124424201D01*
X128980693Y-56988996D02*
X127239393Y-57710296D01*
X152435516Y-129175399D02*
X154242595Y-128640098D01*
X160884899Y-110600997D02*
X160502998Y-110771099D01*
X138391468Y-67228796D02*
X139824069Y-67040195D01*
X168904495Y-67584497D02*
X169113594Y-67222396D01*
X142290935Y-54510997D02*
X140406845Y-54560298D01*
X124835302Y-111016799D02*
X124497001Y-110771099D01*
X116541893Y-64764595D02*
X116375293Y-64922695D01*
X157550498Y-71784698D02*
X158530998Y-72537097D01*
X122497001Y-110771099D02*
X122158802Y-111016799D01*
X164660293Y-61643297D02*
X163106990Y-60575798D01*
X141264579Y-66926895D02*
X142500000Y-66894495D01*
X115757193Y-65993095D02*
X115713493Y-66408994D01*
X144593143Y-54560298D02*
X142709049Y-54510997D01*
X129699998Y-70329797D02*
X130969898Y-69640296D01*
X142709049Y-54510997D02*
X142290935Y-54510997D01*
X151772918Y-68635295D02*
X152914695Y-69108196D01*
X126468997Y-72537097D02*
X127449497Y-71784698D01*
X157550498Y-71784698D02*
X158530998Y-72537097D01*
X160502994Y-74228899D02*
X160884895Y-74398998D01*
X119949293Y-71657396D02*
X120784994Y-72537096D01*
X164214996Y-72537097D02*
X165050689Y-71657398D01*
X126469001Y-112462898D02*
X125370302Y-111524497D01*
X143735420Y-66926895D02*
X145175926Y-67040195D01*
X161499992Y-59590997D02*
X159843692Y-58691698D01*
X133227077Y-68635295D02*
X134589157Y-68152996D01*
X168025695Y-64354196D02*
X167926994Y-64260496D01*
X167200500Y-69394498D02*
X167791397Y-68772397D01*
X150602844Y-55384597D02*
X150193870Y-55297595D01*
X138391471Y-117771202D02*
X137176330Y-117545898D01*
X118506200Y-121963500D02*
X120001501Y-123110900D01*
X158142494Y-127119705D02*
X159843696Y-126308303D01*
X168904495Y-67584497D02*
X169113594Y-67222396D01*
X162120994Y-74398998D02*
X162502994Y-74228899D01*
X142500000Y-66894495D02*
X143735420Y-66926895D01*
X168025695Y-120645797D02*
X168458099Y-120235397D01*
X117799493Y-69394496D02*
X118454593Y-70083997D01*
X117887493Y-63564893D02*
X117666593Y-63753494D01*
X116683292Y-68219495D02*
X117208593Y-68772396D01*
X132564472Y-55824596D02*
X130757392Y-56359895D01*
X118020193Y-63451494D02*
X117887493Y-63564893D01*
X141264579Y-66926895D02*
X142500000Y-66894495D01*
X116541893Y-64764595D02*
X116375293Y-64922695D01*
X169242797Y-119006896D02*
X169286499Y-118591003D01*
X123499992Y-59590995D02*
X121892993Y-60575796D01*
X126857500Y-127119705D02*
X127239400Y-127289703D01*
X137176330Y-67454095D02*
X138391468Y-67228796D01*
X117358293Y-64016794D02*
X117072994Y-64260494D01*
X159843692Y-58691698D02*
X158142494Y-57880298D01*
X168458099Y-64764596D02*
X168025695Y-64354196D01*
X161293895Y-74485898D02*
X161711994Y-74485898D01*
X152914695Y-69108196D02*
X154030097Y-69640296D01*
X118454601Y-114916000D02*
X117799501Y-115605499D01*
X116375293Y-64922695D02*
X116095493Y-65233394D01*
X116974292Y-64354194D02*
X116541893Y-64764595D01*
X122878993Y-74398996D02*
X123287994Y-74485897D01*
X150193870Y-55297595D02*
X148340690Y-54954196D01*
X128467998Y-71084697D02*
X129699998Y-70329797D01*
X169286499Y-66408996D02*
X169242797Y-65993097D01*
X116375293Y-64922695D02*
X116095493Y-65233394D01*
X120784994Y-72537096D02*
X121676494Y-73475496D01*
X163323497Y-111524497D02*
X162841197Y-111016799D01*
X119949293Y-71657396D02*
X120784994Y-72537096D01*
X132085296Y-69108196D02*
X133227077Y-68635295D01*
X156531997Y-71084697D02*
X157550498Y-71784698D01*
X161711994Y-74485898D02*
X162120994Y-74398998D01*
X168904495Y-119766601D02*
X169113601Y-119404502D01*
X122496994Y-74228897D02*
X122878993Y-74398996D01*
X138527912Y-54708198D02*
X136659294Y-54954196D01*
X158142494Y-57880298D02*
X157760589Y-57710298D01*
X115886393Y-67222394D02*
X116095493Y-67584495D01*
X155299995Y-70329797D02*
X156531997Y-71084697D01*
X163323493Y-73475498D02*
X164214996Y-72537097D01*
X162502994Y-74228899D02*
X162841194Y-73983200D01*
X117799493Y-69394496D02*
X118454593Y-70083997D01*
X122158794Y-73983196D02*
X122496994Y-74228897D01*
X119949293Y-71657396D02*
X120784994Y-72537096D01*
X115886401Y-117777603D02*
X115757201Y-118175201D01*
X117208593Y-68772396D02*
X117799493Y-69394496D01*
X169286499Y-118591003D02*
X169242797Y-118175201D01*
X125156293Y-58691696D02*
X123499992Y-59590995D01*
X118064493Y-63413694D02*
X118020193Y-63451494D01*
X128980693Y-56988996D02*
X127239393Y-57710296D01*
X155299995Y-70329797D02*
X156531997Y-71084697D01*
X117072994Y-64260494D02*
X116974292Y-64354194D01*
X124115097Y-74398998D02*
X124496997Y-74228897D01*
X158142494Y-57880298D02*
X157760589Y-57710298D01*
X145175933Y-117959800D02*
X143735420Y-118073104D01*
X118064493Y-63413694D02*
X118020193Y-63451494D01*
X125156301Y-126308303D02*
X126857500Y-127119705D01*
X120339693Y-61643295D02*
X120001493Y-61889095D01*
X136659301Y-130045799D02*
X138527919Y-130291793D01*
X158530998Y-112462898D02*
X157550498Y-113215301D01*
X116375293Y-67895296D02*
X116683292Y-68219495D01*
X118020200Y-121548500D02*
X118064500Y-121586303D01*
X150602844Y-55384597D02*
X150193870Y-55297595D01*
X115757193Y-66824794D02*
X115886393Y-67222394D01*
X160884895Y-74398998D02*
X161293895Y-74485898D01*
X166493789Y-121963500D02*
X166935493Y-121586303D01*
X164214996Y-112462898D02*
X163323497Y-111524497D01*
X168624694Y-67895298D02*
X168904495Y-67584497D01*
X146472072Y-54708198D02*
X144593143Y-54560298D01*
X132085300Y-115891799D02*
X130969902Y-115359703D01*
X159629695Y-73475498D02*
X160164695Y-73983200D01*
X116095500Y-117415496D02*
X115886401Y-117777603D01*
X142290935Y-54510997D02*
X140406845Y-54560298D01*
X135974632Y-117257400D02*
X134589160Y-116847000D01*
X126468997Y-72537097D02*
X127449497Y-71784698D01*
X162502994Y-74228899D02*
X162841194Y-73983200D01*
X166979789Y-63451496D02*
X166935485Y-63413696D01*
X138391468Y-67228796D02*
X139824069Y-67040195D01*
X168316696Y-68219497D02*
X168624694Y-67895298D01*
X135974628Y-67742595D02*
X137176330Y-67454095D01*
X132564472Y-55824596D02*
X130757392Y-56359895D01*
X115713493Y-66408994D02*
X115757193Y-66824794D01*
X124496997Y-74228897D02*
X124835298Y-73983198D01*
X118506193Y-63036495D02*
X118064493Y-63413694D01*
X167112487Y-63564895D02*
X166979789Y-63451496D01*
X140406845Y-54560298D02*
X138527912Y-54708198D01*
X166979789Y-63451496D02*
X166935485Y-63413696D01*
X166935485Y-63413696D02*
X166493789Y-63036497D01*
X115757193Y-66824794D02*
X115886393Y-67222394D01*
X160164695Y-73983200D02*
X160502994Y-74228899D01*
X119171792Y-70838996D02*
X119949293Y-71657396D01*
X164214996Y-72537097D02*
X165050689Y-71657398D01*
X166979789Y-63451496D02*
X166935485Y-63413696D01*
X115886401Y-119404502D02*
X116095500Y-119766601D01*
X135974628Y-67742595D02*
X137176330Y-67454095D01*
X127239393Y-57710296D02*
X126857492Y-57880296D01*
X148340698Y-130045799D02*
X150193878Y-129702400D01*
X115757193Y-65993095D02*
X115713493Y-66408994D01*
X154242591Y-56359897D02*
X152435512Y-55824596D01*
X165828201Y-114160995D02*
X165050697Y-113342597D01*
X134397151Y-129615402D02*
X134806121Y-129702400D01*
X118454593Y-70083997D02*
X119171792Y-70838996D01*
X122878993Y-74398996D02*
X123287994Y-74485897D01*
X164660293Y-61643297D02*
X163106990Y-60575798D01*
X122158794Y-73983196D02*
X122496994Y-74228897D01*
X127449497Y-71784698D02*
X128467998Y-71084697D01*
X159843696Y-126308303D02*
X161499996Y-125408996D01*
X162502998Y-110771099D02*
X162120998Y-110600997D01*
X169113601Y-117777603D02*
X168904495Y-117415496D01*
X157550498Y-113215301D02*
X156532001Y-113915298D01*
X167926994Y-64260496D02*
X167641693Y-64016796D01*
X168316696Y-68219497D02*
X168624694Y-67895298D01*
X116375293Y-64922695D02*
X116095493Y-65233394D01*
X142290935Y-54510997D02*
X140406845Y-54560298D01*
X162841194Y-73983200D02*
X163323493Y-73475498D01*
X169242797Y-65993097D02*
X169113594Y-65595497D01*
X142500000Y-66894495D02*
X143735420Y-66926895D01*
X150410842Y-116847000D02*
X149025371Y-117257400D01*
X116683292Y-68219495D02*
X117208593Y-68772396D01*
X158530998Y-72537097D02*
X159629695Y-73475498D01*
X169286499Y-66408996D02*
X169242797Y-65993097D01*
X162120994Y-74398998D02*
X162502994Y-74228899D01*
X147823669Y-67454095D02*
X149025367Y-67742595D01*
X130757392Y-56359895D02*
X128980693Y-56988996D01*
X117358301Y-120983200D02*
X117666601Y-121246505D01*
X115757201Y-118175201D02*
X115713500Y-118591003D01*
X168458099Y-64764596D02*
X168025695Y-64354196D01*
X121676502Y-111524497D02*
X120785001Y-112462898D01*
X116974292Y-64354194D02*
X116541893Y-64764595D01*
X120001493Y-61889095D02*
X118506193Y-63036495D01*
X168458099Y-64764596D02*
X168025695Y-64354196D01*
X116095493Y-67584495D02*
X116375293Y-67895296D01*
X119171792Y-70838996D02*
X119949293Y-71657396D01*
X134806114Y-55297595D02*
X134397144Y-55384597D01*
X134806114Y-55297595D02*
X134397144Y-55384597D01*
X159843692Y-58691698D02*
X158142494Y-57880298D01*
X146608528Y-67228796D02*
X147823669Y-67454095D01*
X169113594Y-67222396D02*
X169242797Y-66824796D01*
X151772918Y-68635295D02*
X152914695Y-69108196D01*
X118454593Y-70083997D02*
X119171792Y-70838996D01*
X167200500Y-69394498D02*
X167791397Y-68772397D01*
X143735420Y-66926895D02*
X145175926Y-67040195D01*
X164660293Y-123356704D02*
X164998489Y-123110900D01*
X154242595Y-128640098D02*
X156019294Y-128011001D01*
X122158802Y-111016799D02*
X121676502Y-111524497D01*
X116095500Y-119766601D02*
X116375301Y-120077301D01*
X162502994Y-74228899D02*
X162841194Y-73983200D01*
X115886393Y-67222394D02*
X116095493Y-67584495D01*
X147823669Y-67454095D02*
X149025367Y-67742595D01*
X121676494Y-73475496D02*
X122158794Y-73983196D01*
X155300003Y-114670196D02*
X154030101Y-115359703D01*
X162120994Y-74398998D02*
X162502994Y-74228899D01*
X141264579Y-118073104D02*
X139824073Y-117959800D01*
X144593143Y-54560298D02*
X142709049Y-54510997D01*
X144593147Y-130439697D02*
X146472076Y-130291793D01*
X167791397Y-68772397D02*
X168316696Y-68219497D01*
X117666601Y-121246505D02*
X117887500Y-121435104D01*
X163106990Y-60575798D02*
X161499992Y-59590997D01*
X118454593Y-70083997D02*
X119171792Y-70838996D01*
X152914695Y-69108196D02*
X154030097Y-69640296D01*
X168904495Y-65233396D02*
X168624694Y-64922697D01*
X168025695Y-64354196D02*
X167926994Y-64260496D01*
X115713493Y-66408994D02*
X115757193Y-66824794D01*
X168624694Y-64922697D02*
X168458099Y-64764596D01*
X150602844Y-129615402D02*
X152435516Y-129175399D01*
X169113594Y-65595497D02*
X168904495Y-65233396D01*
X121893001Y-124424201D02*
X123500000Y-125408996D01*
X120001493Y-61889095D02*
X118506193Y-63036495D01*
X166493789Y-63036497D02*
X164998489Y-61889097D01*
X123288002Y-110514099D02*
X122879001Y-110600997D01*
X115757193Y-65993095D02*
X115713493Y-66408994D01*
X124115097Y-74398998D02*
X124115097Y-74398998D01*
X124496997Y-74228897D02*
X124835298Y-73983198D01*
X123706092Y-74485897D02*
X124115097Y-74398998D01*
X120784994Y-72537096D02*
X121676494Y-73475496D01*
X160164695Y-73983200D02*
X160502994Y-74228899D01*
X165828193Y-70838998D02*
X166545394Y-70083999D01*
X124835298Y-73983198D02*
X125370298Y-73475498D01*
X138527912Y-54708198D02*
X136659294Y-54954196D01*
X160502994Y-74228899D02*
X160884895Y-74398998D01*
X142709056Y-130488998D02*
X144593147Y-130439697D01*
X122496994Y-74228897D02*
X122878993Y-74398996D01*
X139824069Y-67040195D02*
X141264579Y-66926895D01*
X134806114Y-55297595D02*
X134397144Y-55384597D01*
X156532001Y-113915298D02*
X155300003Y-114670196D01*
X168316696Y-68219497D02*
X168624694Y-67895298D01*
X117358293Y-64016794D02*
X117072994Y-64260494D01*
X147823669Y-67454095D02*
X149025367Y-67742595D01*
X128467998Y-71084697D02*
X129699998Y-70329797D01*
X142500000Y-66894495D02*
X143735420Y-66926895D01*
X120339693Y-61643295D02*
X120001493Y-61889095D01*
X169242797Y-66824796D02*
X169286499Y-66408996D01*
X145175926Y-67040195D02*
X146608528Y-67228796D01*
X144593143Y-54560298D02*
X142709049Y-54510997D01*
X116974300Y-120645797D02*
X117073001Y-120739501D01*
X121892993Y-60575796D02*
X120339693Y-61643295D01*
X133227077Y-68635295D02*
X134589157Y-68152996D01*
X125370298Y-73475498D02*
X126468997Y-72537097D01*
X160164699Y-111016799D02*
X159629699Y-111524497D01*
X156531997Y-71084697D02*
X157550498Y-71784698D01*
X167791397Y-116227600D02*
X167200500Y-115605499D01*
X118020193Y-63451494D02*
X117887493Y-63564893D01*
X161293895Y-74485898D02*
X161711994Y-74485898D01*
X168904495Y-67584497D02*
X169113594Y-67222396D01*
X116375301Y-120077301D02*
X116541900Y-120235397D01*
X117208593Y-68772396D02*
X117799493Y-69394496D01*
X165050689Y-71657398D02*
X165828193Y-70838998D01*
X166979797Y-121548500D02*
X167112495Y-121435104D01*
X134589157Y-68152996D02*
X135974628Y-67742595D01*
X167926994Y-64260496D02*
X167641693Y-64016796D01*
X166545394Y-114916000D02*
X165828201Y-114160995D01*
X161499992Y-59590997D02*
X159843692Y-58691698D01*
X145175926Y-67040195D02*
X146608528Y-67228796D01*
X168904495Y-65233396D02*
X168624694Y-64922697D01*
X150193870Y-55297595D02*
X148340690Y-54954196D01*
X169242797Y-65993097D02*
X169113594Y-65595497D01*
X167200500Y-69394498D02*
X167791397Y-68772397D01*
X116375293Y-67895296D02*
X116683292Y-68219495D01*
X167641693Y-64016796D02*
X167333389Y-63753496D01*
X143735420Y-118073104D02*
X142500000Y-118105499D01*
X166935485Y-63413696D02*
X166493789Y-63036497D01*
X159843692Y-58691698D02*
X158142494Y-57880298D01*
X159629699Y-111524497D02*
X158530998Y-112462898D01*
X152435512Y-55824596D02*
X150602844Y-55384597D01*
X159629695Y-73475498D02*
X160164695Y-73983200D01*
X122496994Y-74228897D02*
X122878993Y-74398996D01*
X140406845Y-54560298D02*
X138527912Y-54708198D01*
X124115097Y-74398998D02*
X124115097Y-74398998D01*
X169113594Y-67222396D02*
X169242797Y-66824796D01*
X126857492Y-57880296D02*
X125156293Y-58691696D01*
X167333389Y-63753496D02*
X167112487Y-63564895D01*
X133227077Y-68635295D02*
X134589157Y-68152996D01*
X129700000Y-114670196D02*
X128468002Y-113915298D01*
X130969902Y-115359703D02*
X129700000Y-114670196D01*
X122879001Y-110600997D02*
X122497001Y-110771099D01*
X123500000Y-125408996D02*
X125156301Y-126308303D01*
X161711997Y-110514099D02*
X161293899Y-110514099D01*
X160502994Y-74228899D02*
X160884895Y-74398998D01*
X149025367Y-67742595D02*
X150410835Y-68152996D01*
X118506193Y-63036495D02*
X118064493Y-63413694D01*
X154030097Y-69640296D02*
X155299995Y-70329797D01*
X121892993Y-60575796D02*
X120339693Y-61643295D01*
X164660293Y-61643297D02*
X163106990Y-60575798D01*
X116095493Y-65233394D02*
X115886393Y-65595495D01*
X163106990Y-60575798D02*
X161499992Y-59590997D01*
X167641693Y-64016796D02*
X167333389Y-63753496D01*
X117208600Y-116227600D02*
X116683300Y-116780502D01*
X157760589Y-57710298D02*
X156019290Y-56988998D01*
X127449497Y-71784698D02*
X128467998Y-71084697D01*
X115757201Y-119006896D02*
X115886401Y-119404502D01*
X160884895Y-74398998D02*
X161293895Y-74485898D01*
X152435512Y-55824596D02*
X150602844Y-55384597D01*
X142709049Y-54510997D02*
X142290935Y-54510997D01*
X166545394Y-70083999D02*
X167200500Y-69394498D01*
X167641693Y-120983200D02*
X167927001Y-120739501D01*
X150410835Y-68152996D02*
X151772918Y-68635295D01*
X157760597Y-127289703D02*
X158142494Y-127119705D01*
X130969898Y-69640296D02*
X132085296Y-69108196D01*
X139824069Y-67040195D02*
X141264579Y-66926895D01*
X152435512Y-55824596D02*
X150602844Y-55384597D01*
X144593147Y-130439697D02*
X144593147Y-130439697D01*
X142500000Y-118105499D02*
X141264579Y-118073104D01*
X160164695Y-73983200D02*
X160502994Y-74228899D01*
X169242797Y-65993097D02*
X169113594Y-65595497D01*
X146472076Y-130291793D02*
X148340698Y-130045799D01*
X117208593Y-68772396D02*
X117799493Y-69394496D01*
X167112487Y-63564895D02*
X166979789Y-63451496D01*
X165050697Y-113342597D02*
X164214996Y-112462898D01*
X118506193Y-63036495D02*
X118064493Y-63413694D01*
X158530998Y-72537097D02*
X159629695Y-73475498D01*
X138527919Y-130291793D02*
X140406852Y-130439697D01*
X121676494Y-73475496D02*
X122158794Y-73983196D01*
X117073001Y-120739501D02*
X117358301Y-120983200D01*
X166545394Y-70083999D02*
X167200500Y-69394498D01*
X150193878Y-129702400D02*
X150602844Y-129615402D01*
X124115097Y-74398998D02*
X124115097Y-74398998D01*
X128468002Y-113915298D02*
X127449501Y-113215301D01*
X161499992Y-59590997D02*
X159843692Y-58691698D01*
X161293895Y-74485898D02*
X161711994Y-74485898D01*
X123287994Y-74485897D02*
X123706092Y-74485897D01*
X164214996Y-72537097D02*
X165050689Y-71657398D01*
X161293899Y-110514099D02*
X160884899Y-110600997D01*
X119171802Y-114160995D02*
X118454601Y-114916000D01*
X168624694Y-67895298D02*
X168904495Y-67584497D01*
X126468997Y-72537097D02*
X127449497Y-71784698D01*
X162841194Y-73983200D02*
X163323493Y-73475498D01*
X130969898Y-69640296D02*
X132085296Y-69108196D01*
X158530998Y-72537097D02*
X159629695Y-73475498D01*
X134397144Y-55384597D02*
X132564472Y-55824596D01*
X134589157Y-68152996D02*
X135974628Y-67742595D01*
X155299995Y-70329797D02*
X156531997Y-71084697D01*
X168025695Y-64354196D02*
X167926994Y-64260496D01*
X167926994Y-64260496D02*
X167641693Y-64016796D01*
X133227081Y-116364700D02*
X132085300Y-115891799D01*
X118020193Y-63451494D02*
X117887493Y-63564893D01*
X164998489Y-123110900D02*
X166493789Y-121963500D01*
X117799501Y-115605499D02*
X117208600Y-116227600D01*
X116974292Y-64354194D02*
X116541893Y-64764595D01*
X169113594Y-67222396D02*
X169242797Y-66824796D01*
X117072994Y-64260494D02*
X116974292Y-64354194D01*
X167641693Y-64016796D02*
X167333389Y-63753496D01*
X116375293Y-67895296D02*
X116683292Y-68219495D01*
X115757193Y-66824794D02*
X115886393Y-67222394D01*
X146472072Y-54708198D02*
X144593143Y-54560298D01*
X154030097Y-69640296D02*
X155299995Y-70329797D01*
X116095493Y-65233394D02*
X115886393Y-65595495D01*
X124115097Y-74398998D02*
X124496997Y-74228897D01*
X161711994Y-74485898D02*
X162120994Y-74398998D01*
X132085296Y-69108196D02*
X133227077Y-68635295D01*
X124835298Y-73983198D02*
X125370298Y-73475498D01*
X130757400Y-128640098D02*
X132564479Y-129175399D01*
X166935485Y-63413696D02*
X166493789Y-63036497D01*
X130757392Y-56359895D02*
X128980693Y-56988996D01*
X165050689Y-71657398D02*
X165828193Y-70838998D01*
X128467998Y-71084697D02*
X129699998Y-70329797D01*
X115713500Y-118591003D02*
X115757201Y-119006896D01*
X151772918Y-116364700D02*
X150410842Y-116847000D01*
X134397144Y-55384597D02*
X132564472Y-55824596D01*
X168458099Y-120235397D02*
X168624694Y-120077301D01*
X169242797Y-66824796D02*
X169286499Y-66408996D01*
X162841197Y-111016799D02*
X162502998Y-110771099D01*
X117666593Y-63753494D02*
X117358293Y-64016794D01*
X156531997Y-71084697D02*
X157550498Y-71784698D01*
X123287994Y-74485897D02*
X123706092Y-74485897D01*
X165050689Y-71657398D02*
X165828193Y-70838998D01*
X116095493Y-65233394D02*
X115886393Y-65595495D01*
X117666593Y-63753494D02*
X117358293Y-64016794D01*
X146608528Y-67228796D02*
X147823669Y-67454095D01*
X156019290Y-56988998D02*
X154242591Y-56359897D01*
X154242591Y-56359897D02*
X152435512Y-55824596D01*
X130969898Y-69640296D02*
X132085296Y-69108196D01*
X169242797Y-66824796D02*
X169286499Y-66408996D01*
X139824073Y-117959800D02*
X138391471Y-117771202D01*
X134589160Y-116847000D02*
X133227081Y-116364700D01*
X167333396Y-121246505D02*
X167641693Y-120983200D01*
X117887493Y-63564893D02*
X117666593Y-63753494D01*
X117799493Y-69394496D02*
X118454593Y-70083997D01*
X150602844Y-55384597D02*
X150193870Y-55297595D01*
X154030097Y-69640296D02*
X155299995Y-70329797D01*
X140406845Y-54560298D02*
X138527912Y-54708198D01*
X157550498Y-71784698D02*
X158530998Y-72537097D01*
X147823669Y-117545898D02*
X146608531Y-117771202D01*
X145175926Y-67040195D02*
X146608528Y-67228796D01*
X123499992Y-59590995D02*
X121892993Y-60575796D01*
X160884895Y-74398998D02*
X161293895Y-74485898D01*
X120001501Y-123110900D02*
X120339700Y-123356704D01*
X166545394Y-70083999D02*
X167200500Y-69394498D01*
X121676494Y-73475496D02*
X122158794Y-73983196D01*
X118064493Y-63413694D02*
X118020193Y-63451494D01*
X158142494Y-57880298D02*
X157760589Y-57710298D01*
%TO.N,/CPU/RST#_P*%
X155896400Y-105043000D02*
X156849600Y-105043000D01*
X156849600Y-105043000D02*
X156862400Y-105055800D01*
D23*
%TO.N,/CPU/PB6*%
X150600000Y-104950000D02*
X151676600Y-104950000D01*
X151676600Y-104950000D02*
X151782400Y-105055800D01*
%TO.N,/CPU/PB7*%
X153305600Y-105780400D02*
X153597800Y-105780400D01*
D22*
X153102400Y-105805000D02*
X153573200Y-105805000D01*
D23*
%TO.N,Net-(R8-Pad2)*%
X130748704Y-73400381D02*
X129856800Y-73756000D01*
%TO.N,Net-(R9-Pad2)*%
X147410000Y-75760000D02*
X147874494Y-75916383D01*
X147410000Y-75760000D02*
X146710800Y-75760000D01*
X146710800Y-75760000D02*
X146706800Y-75756000D01*
D22*
%TO.N,/tachometer/COUNT_1*%
X133424005Y-73008444D02*
X133424005Y-71707114D01*
X132462934Y-73969515D02*
X133424005Y-73008444D01*
%TO.N,ROTOR_GND*%
X156862400Y-107805600D02*
X155829000Y-108839000D01*
X156862400Y-107595800D02*
X156862400Y-107805600D01*
D23*
%TO.N,COUNT_2*%
X148540398Y-77595392D02*
X149656800Y-77956000D01*
%TD*%
%TA.AperFunction,Conductor*%
%TO.N,ROTOR_GND*%
G36*
X143407341Y-52523754D02*
G01*
X144590139Y-52554719D01*
X144596726Y-52555064D01*
X146677847Y-52718845D01*
X146684412Y-52719535D01*
X148754125Y-52992076D01*
X148760635Y-52993108D01*
X149434542Y-53117999D01*
X150813237Y-53373504D01*
X150819660Y-53374870D01*
X151615428Y-53565924D01*
X152849593Y-53862233D01*
X152855960Y-53863939D01*
X154857517Y-54456760D01*
X154863798Y-54458800D01*
X156831603Y-55155706D01*
X156837757Y-55158069D01*
X158766465Y-55956945D01*
X158772469Y-55959618D01*
X160065111Y-56576156D01*
X160656611Y-56858278D01*
X160662492Y-56861274D01*
X162497106Y-57857430D01*
X162502816Y-57860727D01*
X164282783Y-58951474D01*
X164288316Y-58955067D01*
X166008677Y-60137429D01*
X166014016Y-60141308D01*
X167670187Y-61412196D01*
X167675310Y-61416345D01*
X168483388Y-62106489D01*
X169262705Y-62772071D01*
X169267581Y-62776462D01*
X169514107Y-63010394D01*
X170781905Y-64213427D01*
X170786574Y-64218096D01*
X171197658Y-64651310D01*
X172223537Y-65732416D01*
X172227928Y-65737292D01*
X172807213Y-66415566D01*
X173583654Y-67324687D01*
X173587803Y-67329810D01*
X174858693Y-68985981D01*
X174862572Y-68991320D01*
X176044930Y-70711681D01*
X176048523Y-70717214D01*
X177139272Y-72497184D01*
X177142569Y-72502894D01*
X178138725Y-74337492D01*
X178141722Y-74343373D01*
X179040387Y-76227535D01*
X179043069Y-76233561D01*
X179351561Y-76978346D01*
X179822116Y-78114396D01*
X179841934Y-78162243D01*
X179844295Y-78168391D01*
X179975089Y-78537708D01*
X180541199Y-80136201D01*
X180543239Y-80142482D01*
X181136070Y-82144058D01*
X181137766Y-82150387D01*
X181625129Y-84180316D01*
X181625130Y-84180319D01*
X181626502Y-84186774D01*
X182006895Y-86239360D01*
X182007927Y-86245870D01*
X182280468Y-88315586D01*
X182281158Y-88322150D01*
X182444946Y-90403273D01*
X182445291Y-90409862D01*
X182471958Y-91428649D01*
X182499146Y-92467351D01*
X182499914Y-92496702D01*
X182499914Y-92503285D01*
X182498628Y-92552422D01*
X182445276Y-94590147D01*
X182444931Y-94596734D01*
X182281158Y-96677855D01*
X182280468Y-96684420D01*
X182007922Y-98754118D01*
X182006891Y-98760627D01*
X181626500Y-100813237D01*
X181625127Y-100819694D01*
X181137761Y-102849606D01*
X181136055Y-102855972D01*
X180543239Y-104857525D01*
X180541199Y-104863806D01*
X179844297Y-106831611D01*
X179841934Y-106837765D01*
X179043061Y-108766446D01*
X179040379Y-108772472D01*
X178141714Y-110656633D01*
X178138717Y-110662514D01*
X177142569Y-112497113D01*
X177139272Y-112502823D01*
X176048523Y-114282791D01*
X176044930Y-114288324D01*
X174862572Y-116008684D01*
X174858693Y-116014023D01*
X173587803Y-117670194D01*
X173583654Y-117675317D01*
X173339646Y-117961022D01*
X172274457Y-119208233D01*
X172227948Y-119262689D01*
X172223539Y-119267587D01*
X170786583Y-120781905D01*
X170781914Y-120786574D01*
X169315368Y-122178199D01*
X169267582Y-122223544D01*
X169262681Y-122227956D01*
X167675310Y-123583661D01*
X167670187Y-123587810D01*
X166014016Y-124858693D01*
X166008677Y-124862572D01*
X164288316Y-126044938D01*
X164282783Y-126048531D01*
X162502816Y-127139280D01*
X162497106Y-127142577D01*
X160662492Y-128138733D01*
X160656611Y-128141729D01*
X158772469Y-129040393D01*
X158766465Y-129043066D01*
X157802101Y-129442504D01*
X156837747Y-129841938D01*
X156831594Y-129844300D01*
X154863809Y-130541202D01*
X154857527Y-130543243D01*
X152855960Y-131136071D01*
X152849593Y-131137777D01*
X151790082Y-131392150D01*
X150819660Y-131625133D01*
X150813237Y-131626499D01*
X148760623Y-132006905D01*
X148754131Y-132007934D01*
X146684406Y-132280469D01*
X146677861Y-132281157D01*
X145992309Y-132335111D01*
X144596726Y-132444946D01*
X144590137Y-132445291D01*
X143343098Y-132477932D01*
X142503286Y-132499914D01*
X142496715Y-132499914D01*
X141599561Y-132476425D01*
X140409856Y-132445276D01*
X140403269Y-132444931D01*
X138322148Y-132281158D01*
X138315583Y-132280468D01*
X136245881Y-132007922D01*
X136239372Y-132006891D01*
X134186773Y-131626502D01*
X134186758Y-131626499D01*
X134180305Y-131625127D01*
X132150393Y-131137761D01*
X132144027Y-131136055D01*
X130142474Y-130543239D01*
X130136193Y-130541199D01*
X128168392Y-129844297D01*
X128162238Y-129841934D01*
X126233555Y-129043061D01*
X126227529Y-129040379D01*
X124343366Y-128141714D01*
X124337485Y-128138717D01*
X122502888Y-127142569D01*
X122497178Y-127139272D01*
X120717208Y-126048523D01*
X120711675Y-126044930D01*
X118991315Y-124862572D01*
X118985976Y-124858693D01*
X117329805Y-123587803D01*
X117324682Y-123583654D01*
X116516634Y-122893535D01*
X115737286Y-122227928D01*
X115732410Y-122223537D01*
X114950388Y-121481464D01*
X114218090Y-120786574D01*
X114213421Y-120781905D01*
X113286349Y-119804924D01*
X112776456Y-119267581D01*
X112772065Y-119262705D01*
X112198394Y-118591003D01*
X114713499Y-118591003D01*
X114779099Y-119214797D01*
X114972899Y-119811203D01*
X114976198Y-119816917D01*
X114976200Y-119816922D01*
X115283198Y-120348683D01*
X115286499Y-120354400D01*
X115290911Y-120359301D01*
X115290914Y-120359305D01*
X115596238Y-120698461D01*
X115706098Y-120820495D01*
X115707884Y-120822190D01*
X115707886Y-120822192D01*
X115872698Y-120978599D01*
X116305198Y-121388999D01*
X116402696Y-121481464D01*
X116403898Y-121482604D01*
X116405123Y-121483650D01*
X116405137Y-121483663D01*
X116689197Y-121726303D01*
X116997497Y-121989601D01*
X117218299Y-122178199D01*
X117351099Y-122291595D01*
X117395399Y-122329399D01*
X117837099Y-122706695D01*
X118611349Y-123300799D01*
X119331613Y-123853478D01*
X119331643Y-123853501D01*
X119332298Y-123854003D01*
X119332938Y-123854468D01*
X119332984Y-123854502D01*
X119571039Y-124027483D01*
X119839698Y-124222702D01*
X121392997Y-125290199D01*
X121394397Y-125291057D01*
X121394414Y-125291068D01*
X122998597Y-126274135D01*
X122998613Y-126274144D01*
X122999998Y-126274993D01*
X123001425Y-126275768D01*
X123001434Y-126275773D01*
X123565945Y-126582281D01*
X124656299Y-127174301D01*
X126357498Y-127985702D01*
X126930398Y-128240798D01*
X128671699Y-128962097D01*
X128673239Y-128962642D01*
X128673246Y-128962645D01*
X130028376Y-129442504D01*
X130448299Y-129591201D01*
X132255500Y-130126495D01*
X132257104Y-130126880D01*
X134087343Y-130566309D01*
X134087359Y-130566313D01*
X134088127Y-130566497D01*
X134701587Y-130696899D01*
X134702402Y-130697050D01*
X134702432Y-130697056D01*
X136425961Y-131016429D01*
X136554771Y-131040298D01*
X136556425Y-131040516D01*
X136556426Y-131040516D01*
X138421746Y-131286183D01*
X138421760Y-131286185D01*
X138423389Y-131286399D01*
X140302318Y-131434204D01*
X140303946Y-131434247D01*
X140303952Y-131434247D01*
X140857019Y-131448746D01*
X142186416Y-131483596D01*
X142813583Y-131483596D01*
X144143150Y-131448741D01*
X144696043Y-131434247D01*
X144696049Y-131434247D01*
X144697677Y-131434204D01*
X146576606Y-131286399D01*
X146578235Y-131286185D01*
X146578249Y-131286183D01*
X148443573Y-131040516D01*
X148443574Y-131040516D01*
X148445228Y-131040298D01*
X148571627Y-131016876D01*
X150297563Y-130697056D01*
X150297593Y-130697050D01*
X150298408Y-130696899D01*
X150911865Y-130566497D01*
X150912633Y-130566313D01*
X150912649Y-130566309D01*
X152742910Y-130126877D01*
X152742928Y-130126872D01*
X152744499Y-130126495D01*
X152746049Y-130126036D01*
X152746056Y-130126034D01*
X154550109Y-129591671D01*
X154551696Y-129591201D01*
X155596357Y-129221281D01*
X156326749Y-128962645D01*
X156326756Y-128962642D01*
X156328296Y-128962097D01*
X158069595Y-128240798D01*
X158642498Y-127985702D01*
X159502135Y-127575691D01*
X160342198Y-127175016D01*
X160342216Y-127175007D01*
X160343696Y-127174301D01*
X160408211Y-127139272D01*
X161998560Y-126275773D01*
X161998569Y-126275768D01*
X161999996Y-126274993D01*
X162001381Y-126274144D01*
X162001397Y-126274135D01*
X163605577Y-125291068D01*
X163605594Y-125291057D01*
X163606994Y-125290199D01*
X165160293Y-124222702D01*
X165667694Y-123854003D01*
X166432490Y-123267155D01*
X167161600Y-122707689D01*
X167161607Y-122707683D01*
X167162895Y-122706695D01*
X167164138Y-122705633D01*
X167164147Y-122705626D01*
X167604556Y-122329435D01*
X167604598Y-122329399D01*
X167648895Y-122291595D01*
X167781692Y-122178199D01*
X168002494Y-121989601D01*
X168310791Y-121726303D01*
X168596099Y-121482604D01*
X168694793Y-121388999D01*
X169127296Y-120978599D01*
X169293899Y-120820495D01*
X169713500Y-120354400D01*
X169832236Y-120148732D01*
X170023800Y-119816918D01*
X170023801Y-119816915D01*
X170027099Y-119811203D01*
X170203749Y-119267581D01*
X170218859Y-119221082D01*
X170218860Y-119221079D01*
X170220901Y-119214797D01*
X170286499Y-118591003D01*
X170220901Y-117967300D01*
X170218862Y-117961022D01*
X170029140Y-117377086D01*
X170027099Y-117370803D01*
X169713500Y-116827697D01*
X169293899Y-116361602D01*
X168985900Y-116037399D01*
X168460601Y-115484397D01*
X167869598Y-114862297D01*
X167214599Y-114172897D01*
X166497299Y-113417900D01*
X166497292Y-113417892D01*
X165719802Y-112599399D01*
X164884201Y-111719799D01*
X163992595Y-110781398D01*
X163992598Y-110781395D01*
X163992582Y-110781384D01*
X163510395Y-110273696D01*
X163485400Y-110255538D01*
X163008339Y-109908980D01*
X163002994Y-109905097D01*
X162996961Y-109902411D01*
X162996959Y-109902410D01*
X162436021Y-109652681D01*
X162436020Y-109652681D01*
X162429992Y-109649997D01*
X161816593Y-109519599D01*
X161189392Y-109519599D01*
X160946219Y-109571285D01*
X160582352Y-109648624D01*
X160582351Y-109648624D01*
X160575893Y-109649997D01*
X160382327Y-109736188D01*
X160009021Y-109902413D01*
X160009019Y-109902414D01*
X160002994Y-109905097D01*
X159495594Y-110273696D01*
X159492608Y-110276530D01*
X159492604Y-110276533D01*
X158962987Y-110779127D01*
X158958086Y-110783540D01*
X158684116Y-111017538D01*
X157879572Y-111704699D01*
X157864400Y-111717657D01*
X157859275Y-111721807D01*
X156967001Y-112406498D01*
X156961676Y-112410367D01*
X156034723Y-113047325D01*
X156029206Y-113050908D01*
X155454974Y-113402812D01*
X154802800Y-113802480D01*
X154797085Y-113805779D01*
X153532993Y-114492126D01*
X153527138Y-114495109D01*
X152512044Y-114979290D01*
X152506050Y-114981958D01*
X152002112Y-115190727D01*
X151466960Y-115412427D01*
X151460793Y-115414795D01*
X150104914Y-115894898D01*
X150098643Y-115896935D01*
X149703367Y-116014023D01*
X148719495Y-116305463D01*
X148713148Y-116307164D01*
X147619541Y-116569723D01*
X147613086Y-116571095D01*
X147060165Y-116673546D01*
X146507248Y-116775995D01*
X146500738Y-116777026D01*
X145074660Y-116964764D01*
X145068103Y-116965453D01*
X143634190Y-117078338D01*
X143627598Y-117078684D01*
X143263133Y-117088224D01*
X142503285Y-117108114D01*
X142496715Y-117108114D01*
X141736799Y-117088223D01*
X141372401Y-117078684D01*
X141365809Y-117078338D01*
X139931888Y-116965453D01*
X139925331Y-116964764D01*
X138499253Y-116777026D01*
X138492743Y-116775995D01*
X137939826Y-116673546D01*
X137386905Y-116571095D01*
X137380450Y-116569723D01*
X136286847Y-116307164D01*
X136280500Y-116305463D01*
X135296626Y-116014023D01*
X134901349Y-115896935D01*
X134895078Y-115894898D01*
X133539202Y-115414795D01*
X133533035Y-115412427D01*
X132493942Y-114981958D01*
X132487921Y-114979277D01*
X132395094Y-114935000D01*
X143793500Y-114935000D01*
X143814132Y-115091715D01*
X143874622Y-115237750D01*
X143970847Y-115363153D01*
X144076290Y-115444062D01*
X144118156Y-115501399D01*
X144122378Y-115572270D01*
X144115996Y-115592236D01*
X144074981Y-115691255D01*
X144054349Y-115847970D01*
X144074981Y-116004685D01*
X144135471Y-116150720D01*
X144231696Y-116276123D01*
X144357099Y-116372348D01*
X144503134Y-116432838D01*
X144659849Y-116453470D01*
X144668037Y-116452392D01*
X144808376Y-116433916D01*
X144816564Y-116432838D01*
X144962599Y-116372348D01*
X145088002Y-116276123D01*
X145184227Y-116150720D01*
X145244717Y-116004685D01*
X145265349Y-115847970D01*
X145244717Y-115691255D01*
X145184227Y-115545220D01*
X145088002Y-115419817D01*
X144982559Y-115338908D01*
X144940693Y-115281571D01*
X144936471Y-115210700D01*
X144942853Y-115190734D01*
X144983868Y-115091715D01*
X145004500Y-114935000D01*
X144983868Y-114778285D01*
X144923378Y-114632250D01*
X144827153Y-114506847D01*
X144701750Y-114410622D01*
X144555715Y-114350132D01*
X144399000Y-114329500D01*
X144242285Y-114350132D01*
X144096250Y-114410622D01*
X143970847Y-114506847D01*
X143874622Y-114632250D01*
X143814132Y-114778285D01*
X143793500Y-114935000D01*
X132395094Y-114935000D01*
X132242671Y-114862297D01*
X131472869Y-114495115D01*
X131467006Y-114492128D01*
X131466992Y-114492120D01*
X130202889Y-113805769D01*
X130197178Y-113802471D01*
X130163329Y-113781727D01*
X129609476Y-113442312D01*
X129558382Y-113411000D01*
X131728500Y-113411000D01*
X131749132Y-113567715D01*
X131809622Y-113713750D01*
X131905847Y-113839153D01*
X132031250Y-113935378D01*
X132177285Y-113995868D01*
X132334000Y-114016500D01*
X132342188Y-114015422D01*
X132482527Y-113996946D01*
X132490715Y-113995868D01*
X132636750Y-113935378D01*
X132762153Y-113839153D01*
X132858378Y-113713750D01*
X132918868Y-113567715D01*
X132934300Y-113450500D01*
X137062500Y-113450500D01*
X137083132Y-113607215D01*
X137143622Y-113753250D01*
X137239847Y-113878653D01*
X137365250Y-113974878D01*
X137511285Y-114035368D01*
X137668000Y-114056000D01*
X137676188Y-114054922D01*
X137816527Y-114036446D01*
X137824715Y-114035368D01*
X137970750Y-113974878D01*
X138096153Y-113878653D01*
X138098164Y-113881273D01*
X138146919Y-113854650D01*
X138217734Y-113859715D01*
X138274570Y-113902262D01*
X138299381Y-113968782D01*
X138290111Y-114025989D01*
X138277769Y-114055785D01*
X138257137Y-114212500D01*
X138277769Y-114369215D01*
X138338259Y-114515250D01*
X138434484Y-114640653D01*
X138559887Y-114736878D01*
X138705922Y-114797368D01*
X138862637Y-114818000D01*
X138870825Y-114816922D01*
X139011164Y-114798446D01*
X139019352Y-114797368D01*
X139165387Y-114736878D01*
X139290790Y-114640653D01*
X139387015Y-114515250D01*
X139447505Y-114369215D01*
X139468137Y-114212500D01*
X139447505Y-114055785D01*
X139387015Y-113909750D01*
X139290790Y-113784347D01*
X139165387Y-113688122D01*
X139019352Y-113627632D01*
X138862637Y-113607000D01*
X138705922Y-113627632D01*
X138559887Y-113688122D01*
X138434484Y-113784347D01*
X138432473Y-113781727D01*
X138383718Y-113808350D01*
X138312903Y-113803285D01*
X138256067Y-113760738D01*
X138231256Y-113694218D01*
X138240526Y-113637011D01*
X138249708Y-113614844D01*
X138252868Y-113607215D01*
X138273500Y-113450500D01*
X138252868Y-113293785D01*
X138192378Y-113147750D01*
X138096153Y-113022347D01*
X137970750Y-112926122D01*
X137824715Y-112865632D01*
X137668000Y-112845000D01*
X137511285Y-112865632D01*
X137365250Y-112926122D01*
X137239847Y-113022347D01*
X137143622Y-113147750D01*
X137083132Y-113293785D01*
X137062500Y-113450500D01*
X132934300Y-113450500D01*
X132939500Y-113411000D01*
X132918868Y-113254285D01*
X132858378Y-113108250D01*
X132762153Y-112982847D01*
X132636750Y-112886622D01*
X132490715Y-112826132D01*
X132334000Y-112805500D01*
X132177285Y-112826132D01*
X132031250Y-112886622D01*
X131905847Y-112982847D01*
X131809622Y-113108250D01*
X131749132Y-113254285D01*
X131728500Y-113411000D01*
X129558382Y-113411000D01*
X128970807Y-113050919D01*
X128965286Y-113047334D01*
X128570416Y-112776000D01*
X145528519Y-112776000D01*
X145549151Y-112932715D01*
X145609641Y-113078750D01*
X145705866Y-113204153D01*
X145831269Y-113300378D01*
X145977304Y-113360868D01*
X146134019Y-113381500D01*
X146142207Y-113380422D01*
X146282546Y-113361946D01*
X146290734Y-113360868D01*
X146436769Y-113300378D01*
X146562172Y-113204153D01*
X146658397Y-113078750D01*
X146718887Y-112932715D01*
X146739519Y-112776000D01*
X146718887Y-112619285D01*
X146658397Y-112473250D01*
X146562172Y-112347847D01*
X146554172Y-112341708D01*
X146443320Y-112256649D01*
X146436769Y-112251622D01*
X146290734Y-112191132D01*
X146134019Y-112170500D01*
X145977304Y-112191132D01*
X145831269Y-112251622D01*
X145824718Y-112256649D01*
X145713867Y-112341708D01*
X145705866Y-112347847D01*
X145609641Y-112473250D01*
X145549151Y-112619285D01*
X145528519Y-112776000D01*
X128570416Y-112776000D01*
X128312638Y-112598868D01*
X128038314Y-112410367D01*
X128032990Y-112406498D01*
X127140716Y-111721807D01*
X127135591Y-111717657D01*
X127120420Y-111704699D01*
X127036473Y-111633000D01*
X129569500Y-111633000D01*
X129590132Y-111789715D01*
X129650622Y-111935750D01*
X129746847Y-112061153D01*
X129872250Y-112157378D01*
X130018285Y-112217868D01*
X130175000Y-112238500D01*
X130183188Y-112237422D01*
X130323527Y-112218946D01*
X130331715Y-112217868D01*
X130477750Y-112157378D01*
X130603153Y-112061153D01*
X130639335Y-112014000D01*
X148365500Y-112014000D01*
X148386132Y-112170715D01*
X148446622Y-112316750D01*
X148542847Y-112442153D01*
X148668250Y-112538378D01*
X148814285Y-112598868D01*
X148971000Y-112619500D01*
X148979188Y-112618422D01*
X149119527Y-112599946D01*
X149127715Y-112598868D01*
X149273750Y-112538378D01*
X149399153Y-112442153D01*
X149495378Y-112316750D01*
X149518896Y-112259973D01*
X149563445Y-112204692D01*
X149630808Y-112182271D01*
X149699599Y-112199829D01*
X149712009Y-112208228D01*
X149811250Y-112284378D01*
X149957285Y-112344868D01*
X150114000Y-112365500D01*
X150122188Y-112364422D01*
X150262527Y-112345946D01*
X150270715Y-112344868D01*
X150416750Y-112284378D01*
X150526937Y-112199829D01*
X150535607Y-112193176D01*
X150542153Y-112188153D01*
X150561817Y-112162527D01*
X150633351Y-112069301D01*
X150638378Y-112062750D01*
X150698868Y-111916715D01*
X150719500Y-111760000D01*
X150698868Y-111603285D01*
X150638378Y-111457250D01*
X150542153Y-111331847D01*
X150416750Y-111235622D01*
X150270715Y-111175132D01*
X150114000Y-111154500D01*
X149957285Y-111175132D01*
X149811250Y-111235622D01*
X149685847Y-111331847D01*
X149589622Y-111457250D01*
X149578346Y-111484473D01*
X149566104Y-111514027D01*
X149521555Y-111569308D01*
X149454192Y-111591729D01*
X149385401Y-111574171D01*
X149372991Y-111565772D01*
X149280301Y-111494649D01*
X149273750Y-111489622D01*
X149127715Y-111429132D01*
X148971000Y-111408500D01*
X148814285Y-111429132D01*
X148668250Y-111489622D01*
X148542847Y-111585847D01*
X148537824Y-111592393D01*
X148522557Y-111612289D01*
X148446622Y-111711250D01*
X148386132Y-111857285D01*
X148365500Y-112014000D01*
X130639335Y-112014000D01*
X130699378Y-111935750D01*
X130759868Y-111789715D01*
X130780500Y-111633000D01*
X130759868Y-111476285D01*
X130699378Y-111330250D01*
X130603153Y-111204847D01*
X130477750Y-111108622D01*
X130331715Y-111048132D01*
X130175000Y-111027500D01*
X130018285Y-111048132D01*
X129872250Y-111108622D01*
X129746847Y-111204847D01*
X129650622Y-111330250D01*
X129590132Y-111476285D01*
X129569500Y-111633000D01*
X127036473Y-111633000D01*
X126382999Y-111074868D01*
X126041906Y-110783540D01*
X126037005Y-110779127D01*
X125598504Y-110363000D01*
X154207500Y-110363000D01*
X154228132Y-110519715D01*
X154288622Y-110665750D01*
X154384847Y-110791153D01*
X154510250Y-110887378D01*
X154656285Y-110947868D01*
X154753764Y-110960701D01*
X154818690Y-110989423D01*
X154857782Y-111048688D01*
X154862239Y-111102068D01*
X154842500Y-111252000D01*
X154863132Y-111408715D01*
X154923622Y-111554750D01*
X155019847Y-111680153D01*
X155145250Y-111776378D01*
X155291285Y-111836868D01*
X155448000Y-111857500D01*
X155456188Y-111856422D01*
X155596527Y-111837946D01*
X155604715Y-111836868D01*
X155750750Y-111776378D01*
X155876153Y-111680153D01*
X155881176Y-111673607D01*
X155881180Y-111673603D01*
X155919538Y-111623614D01*
X155976876Y-111581747D01*
X156047747Y-111577525D01*
X156109649Y-111612289D01*
X156119462Y-111623614D01*
X156157820Y-111673603D01*
X156157824Y-111673607D01*
X156162847Y-111680153D01*
X156288250Y-111776378D01*
X156434285Y-111836868D01*
X156591000Y-111857500D01*
X156599188Y-111856422D01*
X156739527Y-111837946D01*
X156747715Y-111836868D01*
X156893750Y-111776378D01*
X157019153Y-111680153D01*
X157115378Y-111554750D01*
X157175868Y-111408715D01*
X157196500Y-111252000D01*
X157175868Y-111095285D01*
X157115378Y-110949250D01*
X157019153Y-110823847D01*
X156893750Y-110727622D01*
X156747715Y-110667132D01*
X156591000Y-110646500D01*
X156434285Y-110667132D01*
X156288250Y-110727622D01*
X156162847Y-110823847D01*
X156157824Y-110830393D01*
X156157820Y-110830397D01*
X156119462Y-110880386D01*
X156062124Y-110922253D01*
X155991253Y-110926475D01*
X155929351Y-110891711D01*
X155919538Y-110880386D01*
X155881180Y-110830397D01*
X155881176Y-110830393D01*
X155876153Y-110823847D01*
X155750750Y-110727622D01*
X155604715Y-110667132D01*
X155507236Y-110654299D01*
X155442310Y-110625577D01*
X155403218Y-110566312D01*
X155398761Y-110512931D01*
X155417422Y-110371188D01*
X155418500Y-110363000D01*
X155397868Y-110206285D01*
X155337378Y-110060250D01*
X155241153Y-109934847D01*
X155115750Y-109838622D01*
X154969715Y-109778132D01*
X154813000Y-109757500D01*
X154656285Y-109778132D01*
X154510250Y-109838622D01*
X154384847Y-109934847D01*
X154288622Y-110060250D01*
X154228132Y-110206285D01*
X154207500Y-110363000D01*
X125598504Y-110363000D01*
X125507394Y-110276539D01*
X125507393Y-110276538D01*
X125504398Y-110273696D01*
X125501060Y-110271271D01*
X125501055Y-110271267D01*
X125205859Y-110056824D01*
X124996997Y-109905097D01*
X124599276Y-109728000D01*
X156112500Y-109728000D01*
X156133132Y-109884715D01*
X156193622Y-110030750D01*
X156289847Y-110156153D01*
X156415250Y-110252378D01*
X156561285Y-110312868D01*
X156718000Y-110333500D01*
X156726188Y-110332422D01*
X156866527Y-110313946D01*
X156874715Y-110312868D01*
X157020750Y-110252378D01*
X157146153Y-110156153D01*
X157242378Y-110030750D01*
X157302868Y-109884715D01*
X157323500Y-109728000D01*
X157302868Y-109571285D01*
X157242378Y-109425250D01*
X157146153Y-109299847D01*
X157020750Y-109203622D01*
X156874715Y-109143132D01*
X156718000Y-109122500D01*
X156561285Y-109143132D01*
X156415250Y-109203622D01*
X156289847Y-109299847D01*
X156193622Y-109425250D01*
X156133132Y-109571285D01*
X156112500Y-109728000D01*
X124599276Y-109728000D01*
X124424098Y-109649997D01*
X124417640Y-109648624D01*
X124417639Y-109648624D01*
X124239701Y-109610804D01*
X123810598Y-109519599D01*
X123183399Y-109519599D01*
X122569999Y-109649997D01*
X122563971Y-109652681D01*
X122563970Y-109652681D01*
X122003033Y-109902410D01*
X121996997Y-109905097D01*
X121991659Y-109908975D01*
X121991656Y-109908977D01*
X121514595Y-110255538D01*
X121489599Y-110273696D01*
X121007413Y-110781382D01*
X121007393Y-110781394D01*
X121007398Y-110781398D01*
X120115798Y-111719799D01*
X119280197Y-112599399D01*
X118502703Y-113417892D01*
X118502696Y-113417900D01*
X117785396Y-114172897D01*
X117340981Y-114640653D01*
X117130397Y-114862297D01*
X116539398Y-115484397D01*
X116014104Y-116037393D01*
X116014099Y-116037399D01*
X115757813Y-116307167D01*
X115706098Y-116361602D01*
X115286499Y-116827697D01*
X114972899Y-117370803D01*
X114779099Y-117967300D01*
X114713499Y-118591003D01*
X112198394Y-118591003D01*
X112106454Y-118483352D01*
X111416340Y-117675310D01*
X111412191Y-117670187D01*
X110141302Y-116014016D01*
X110137423Y-116008677D01*
X109095136Y-114492128D01*
X108955061Y-114288316D01*
X108951468Y-114282783D01*
X107860719Y-112502816D01*
X107857422Y-112497106D01*
X107181356Y-111252000D01*
X117504500Y-111252000D01*
X117525132Y-111408715D01*
X117585622Y-111554750D01*
X117681847Y-111680153D01*
X117807250Y-111776378D01*
X117953285Y-111836868D01*
X118110000Y-111857500D01*
X118118188Y-111856422D01*
X118258527Y-111837946D01*
X118266715Y-111836868D01*
X118412750Y-111776378D01*
X118538153Y-111680153D01*
X118634378Y-111554750D01*
X118694868Y-111408715D01*
X118715500Y-111252000D01*
X118704683Y-111169838D01*
X118715622Y-111099690D01*
X118762750Y-111046591D01*
X118831104Y-111027401D01*
X118877823Y-111036983D01*
X118969285Y-111074868D01*
X119126000Y-111095500D01*
X119134188Y-111094422D01*
X119274527Y-111075946D01*
X119282715Y-111074868D01*
X119428750Y-111014378D01*
X119554153Y-110918153D01*
X119650378Y-110792750D01*
X119710868Y-110646715D01*
X119731500Y-110490000D01*
X119710868Y-110333285D01*
X119650378Y-110187250D01*
X119554153Y-110061847D01*
X119428750Y-109965622D01*
X119282715Y-109905132D01*
X119262040Y-109902410D01*
X119134188Y-109885578D01*
X119126000Y-109884500D01*
X119117812Y-109885578D01*
X118989961Y-109902410D01*
X118969285Y-109905132D01*
X118823250Y-109965622D01*
X118697847Y-110061847D01*
X118601622Y-110187250D01*
X118541132Y-110333285D01*
X118520500Y-110490000D01*
X118525417Y-110527344D01*
X118531317Y-110572161D01*
X118520378Y-110642310D01*
X118473250Y-110695409D01*
X118404896Y-110714599D01*
X118358177Y-110705017D01*
X118274344Y-110670292D01*
X118266715Y-110667132D01*
X118110000Y-110646500D01*
X117953285Y-110667132D01*
X117807250Y-110727622D01*
X117681847Y-110823847D01*
X117585622Y-110949250D01*
X117525132Y-111095285D01*
X117504500Y-111252000D01*
X107181356Y-111252000D01*
X106861266Y-110662492D01*
X106858270Y-110656611D01*
X106501352Y-109908292D01*
X105959610Y-108772469D01*
X105956932Y-108766454D01*
X105945432Y-108738688D01*
X105404948Y-107433812D01*
X105158061Y-106837757D01*
X105155698Y-106831603D01*
X104458793Y-104863798D01*
X104456753Y-104857517D01*
X104319468Y-104394000D01*
X141634500Y-104394000D01*
X141655132Y-104550715D01*
X141715622Y-104696750D01*
X141811847Y-104822153D01*
X141937250Y-104918378D01*
X142083285Y-104978868D01*
X142240000Y-104999500D01*
X142248188Y-104998422D01*
X142388527Y-104979946D01*
X142396715Y-104978868D01*
X142466408Y-104950000D01*
X149994500Y-104950000D01*
X150015132Y-105106715D01*
X150075622Y-105252750D01*
X150171847Y-105378153D01*
X150297250Y-105474378D01*
X150443285Y-105534868D01*
X150600000Y-105555500D01*
X150672454Y-105545961D01*
X150742602Y-105556900D01*
X150795701Y-105604028D01*
X150814900Y-105670883D01*
X150814900Y-105817800D01*
X150830543Y-105896441D01*
X150837435Y-105906756D01*
X150837436Y-105906758D01*
X150868197Y-105952794D01*
X150875090Y-105963110D01*
X150885406Y-105970003D01*
X150931442Y-106000764D01*
X150931444Y-106000765D01*
X150941759Y-106007657D01*
X150953926Y-106010077D01*
X150953928Y-106010078D01*
X150995569Y-106018361D01*
X151020400Y-106023300D01*
X152544400Y-106023300D01*
X152623041Y-106007657D01*
X152623069Y-106007797D01*
X152684623Y-106001180D01*
X152748109Y-106032961D01*
X152773048Y-106068880D01*
X152773933Y-106068369D01*
X152778061Y-106075519D01*
X152781222Y-106083150D01*
X152877447Y-106208553D01*
X152883993Y-106213576D01*
X152907759Y-106231812D01*
X153002850Y-106304778D01*
X153148885Y-106365268D01*
X153305600Y-106385900D01*
X153313788Y-106384822D01*
X153454127Y-106366346D01*
X153462315Y-106365268D01*
X153608350Y-106304778D01*
X153703441Y-106231812D01*
X153727207Y-106213576D01*
X153733753Y-106208553D01*
X153829978Y-106083150D01*
X153830112Y-106083253D01*
X153878295Y-106037308D01*
X153936034Y-106023300D01*
X154747873Y-106023300D01*
X154815994Y-106043302D01*
X154862487Y-106096958D01*
X154872591Y-106167232D01*
X154843097Y-106231812D01*
X154796091Y-106265709D01*
X154780850Y-106272022D01*
X154715104Y-106322471D01*
X154663448Y-106362108D01*
X154655447Y-106368247D01*
X154559222Y-106493650D01*
X154556062Y-106501279D01*
X154556059Y-106501284D01*
X154535665Y-106550519D01*
X154491117Y-106605800D01*
X154419257Y-106628300D01*
X153560400Y-106628300D01*
X153535569Y-106633239D01*
X153493928Y-106641522D01*
X153493926Y-106641523D01*
X153481759Y-106643943D01*
X153471444Y-106650835D01*
X153471442Y-106650836D01*
X153425406Y-106681597D01*
X153415090Y-106688490D01*
X153408197Y-106698806D01*
X153377436Y-106744842D01*
X153377435Y-106744844D01*
X153370543Y-106755159D01*
X153368123Y-106767327D01*
X153363372Y-106778796D01*
X153359825Y-106777327D01*
X153337111Y-106820766D01*
X153275421Y-106855907D01*
X153204526Y-106852118D01*
X153169721Y-106833252D01*
X153106901Y-106785049D01*
X153100350Y-106780022D01*
X152954315Y-106719532D01*
X152797600Y-106698900D01*
X152767501Y-106702863D01*
X152697354Y-106691925D01*
X152681063Y-106682712D01*
X152623041Y-106643943D01*
X152610874Y-106641523D01*
X152610872Y-106641522D01*
X152569231Y-106633239D01*
X152544400Y-106628300D01*
X151020400Y-106628300D01*
X150995569Y-106633239D01*
X150953928Y-106641522D01*
X150953926Y-106641523D01*
X150941759Y-106643943D01*
X150931444Y-106650835D01*
X150931442Y-106650836D01*
X150885406Y-106681597D01*
X150875090Y-106688490D01*
X150868197Y-106698806D01*
X150837436Y-106744842D01*
X150837435Y-106744844D01*
X150830543Y-106755159D01*
X150814900Y-106833800D01*
X150814900Y-108357800D01*
X150830543Y-108436441D01*
X150837435Y-108446756D01*
X150837436Y-108446758D01*
X150868197Y-108492794D01*
X150875090Y-108503110D01*
X150885406Y-108510003D01*
X150931442Y-108540764D01*
X150931444Y-108540765D01*
X150941759Y-108547657D01*
X150953926Y-108550077D01*
X150953928Y-108550078D01*
X150995569Y-108558361D01*
X151020400Y-108563300D01*
X152544400Y-108563300D01*
X152569231Y-108558361D01*
X152610872Y-108550078D01*
X152610874Y-108550077D01*
X152623041Y-108547657D01*
X152633356Y-108540765D01*
X152633358Y-108540764D01*
X152679394Y-108510003D01*
X152689710Y-108503110D01*
X152696603Y-108492794D01*
X152727364Y-108446758D01*
X152727365Y-108446756D01*
X152734257Y-108436441D01*
X152749900Y-108357800D01*
X152749900Y-108026679D01*
X152769902Y-107958558D01*
X152823558Y-107912065D01*
X152859453Y-107901757D01*
X152946127Y-107890346D01*
X152954315Y-107889268D01*
X153100350Y-107828778D01*
X153106903Y-107823750D01*
X153106906Y-107823748D01*
X153152196Y-107788996D01*
X153218416Y-107763395D01*
X153287965Y-107777660D01*
X153338761Y-107827261D01*
X153354900Y-107888958D01*
X153354900Y-108357800D01*
X153370543Y-108436441D01*
X153377435Y-108446756D01*
X153377436Y-108446758D01*
X153408197Y-108492794D01*
X153415090Y-108503110D01*
X153425406Y-108510003D01*
X153471442Y-108540764D01*
X153471444Y-108540765D01*
X153481759Y-108547657D01*
X153493926Y-108550077D01*
X153493928Y-108550078D01*
X153535569Y-108558361D01*
X153560400Y-108563300D01*
X155084400Y-108563300D01*
X155109231Y-108558361D01*
X155150872Y-108550078D01*
X155150874Y-108550077D01*
X155163041Y-108547657D01*
X155173356Y-108540765D01*
X155173358Y-108540764D01*
X155219394Y-108510003D01*
X155229710Y-108503110D01*
X155236603Y-108492794D01*
X155267364Y-108446758D01*
X155267365Y-108446756D01*
X155274257Y-108436441D01*
X155289900Y-108357800D01*
X155289900Y-107863348D01*
X155587400Y-107863348D01*
X155587400Y-108355543D01*
X155587561Y-108360050D01*
X155592140Y-108424069D01*
X155594526Y-108437291D01*
X155631219Y-108562258D01*
X155638633Y-108578492D01*
X155707826Y-108686160D01*
X155719512Y-108699647D01*
X155816240Y-108783462D01*
X155831248Y-108793107D01*
X155947675Y-108846277D01*
X155964788Y-108851302D01*
X156095954Y-108870161D01*
X156104895Y-108870800D01*
X156590285Y-108870800D01*
X156605524Y-108866325D01*
X156606729Y-108864935D01*
X156608400Y-108857252D01*
X156608400Y-107867915D01*
X156607059Y-107863348D01*
X157116400Y-107863348D01*
X157116400Y-108852685D01*
X157120875Y-108867924D01*
X157122265Y-108869129D01*
X157129948Y-108870800D01*
X157622143Y-108870800D01*
X157626650Y-108870639D01*
X157690669Y-108866060D01*
X157703891Y-108863674D01*
X157828858Y-108826981D01*
X157845092Y-108819567D01*
X157952760Y-108750374D01*
X157966247Y-108738688D01*
X158050062Y-108641960D01*
X158059707Y-108626952D01*
X158112877Y-108510525D01*
X158117902Y-108493412D01*
X158136761Y-108362246D01*
X158137400Y-108353303D01*
X158137400Y-107867915D01*
X158132925Y-107852676D01*
X158131535Y-107851471D01*
X158123852Y-107849800D01*
X157134515Y-107849800D01*
X157119276Y-107854275D01*
X157118071Y-107855665D01*
X157116400Y-107863348D01*
X156607059Y-107863348D01*
X156603925Y-107852676D01*
X156602535Y-107851471D01*
X156594852Y-107849800D01*
X155605515Y-107849800D01*
X155590276Y-107854275D01*
X155589071Y-107855665D01*
X155587400Y-107863348D01*
X155289900Y-107863348D01*
X155289900Y-107444920D01*
X155290757Y-107442000D01*
X164875500Y-107442000D01*
X164896132Y-107598715D01*
X164956622Y-107744750D01*
X165052847Y-107870153D01*
X165178250Y-107966378D01*
X165324285Y-108026868D01*
X165481000Y-108047500D01*
X165489188Y-108046422D01*
X165629527Y-108027946D01*
X165637715Y-108026868D01*
X165783750Y-107966378D01*
X165909153Y-107870153D01*
X166005378Y-107744750D01*
X166065868Y-107598715D01*
X166086500Y-107442000D01*
X166065868Y-107285285D01*
X166005378Y-107139250D01*
X165909153Y-107013847D01*
X165783750Y-106917622D01*
X165637715Y-106857132D01*
X165481000Y-106836500D01*
X165324285Y-106857132D01*
X165178250Y-106917622D01*
X165052847Y-107013847D01*
X164956622Y-107139250D01*
X164896132Y-107285285D01*
X164875500Y-107442000D01*
X155290757Y-107442000D01*
X155309902Y-107376799D01*
X155367679Y-107328512D01*
X155371024Y-107327126D01*
X155386350Y-107320778D01*
X155403916Y-107307299D01*
X155470136Y-107281698D01*
X155539685Y-107295962D01*
X155561602Y-107317364D01*
X155563914Y-107314696D01*
X155593265Y-107340129D01*
X155600948Y-107341800D01*
X156590285Y-107341800D01*
X156605524Y-107337325D01*
X156606729Y-107335935D01*
X156608400Y-107328252D01*
X156608400Y-106338915D01*
X156607059Y-106334348D01*
X157116400Y-106334348D01*
X157116400Y-107323685D01*
X157120875Y-107338924D01*
X157122265Y-107340129D01*
X157129948Y-107341800D01*
X158119285Y-107341800D01*
X158134524Y-107337325D01*
X158135729Y-107335935D01*
X158137400Y-107328252D01*
X158137400Y-106836057D01*
X158137239Y-106831550D01*
X158132660Y-106767531D01*
X158130274Y-106754309D01*
X158093581Y-106629342D01*
X158086167Y-106613108D01*
X158016974Y-106505440D01*
X158005288Y-106491953D01*
X157908560Y-106408138D01*
X157893552Y-106398493D01*
X157777125Y-106345323D01*
X157760012Y-106340298D01*
X157628846Y-106321439D01*
X157619905Y-106320800D01*
X157134515Y-106320800D01*
X157119276Y-106325275D01*
X157118071Y-106326665D01*
X157116400Y-106334348D01*
X156607059Y-106334348D01*
X156603925Y-106323676D01*
X156602535Y-106322471D01*
X156594852Y-106320800D01*
X156102657Y-106320800D01*
X156098150Y-106320961D01*
X156034131Y-106325540D01*
X156020909Y-106327926D01*
X155895942Y-106364619D01*
X155879708Y-106372033D01*
X155772040Y-106441226D01*
X155751742Y-106458814D01*
X155749548Y-106456282D01*
X155703571Y-106485844D01*
X155632575Y-106485859D01*
X155572840Y-106447488D01*
X155568084Y-106441659D01*
X155516776Y-106374793D01*
X155511753Y-106368247D01*
X155503753Y-106362108D01*
X155452096Y-106322471D01*
X155386350Y-106272022D01*
X155240315Y-106211532D01*
X155234034Y-106210705D01*
X155174172Y-106174218D01*
X155143150Y-106110358D01*
X155151578Y-106039863D01*
X155197403Y-105984697D01*
X155219394Y-105970003D01*
X155229710Y-105963110D01*
X155236603Y-105952794D01*
X155267364Y-105906758D01*
X155267365Y-105906756D01*
X155274257Y-105896441D01*
X155289900Y-105817800D01*
X155289900Y-105604186D01*
X155309902Y-105536065D01*
X155363558Y-105489572D01*
X155433832Y-105479468D01*
X155492604Y-105504223D01*
X155542850Y-105542778D01*
X155688885Y-105603268D01*
X155785347Y-105615968D01*
X155850273Y-105644689D01*
X155889365Y-105703954D01*
X155894900Y-105740889D01*
X155894900Y-105817800D01*
X155910543Y-105896441D01*
X155917435Y-105906756D01*
X155917436Y-105906758D01*
X155948197Y-105952794D01*
X155955090Y-105963110D01*
X155965406Y-105970003D01*
X156011442Y-106000764D01*
X156011444Y-106000765D01*
X156021759Y-106007657D01*
X156033926Y-106010077D01*
X156033928Y-106010078D01*
X156075569Y-106018361D01*
X156100400Y-106023300D01*
X157624400Y-106023300D01*
X157649231Y-106018361D01*
X157690872Y-106010078D01*
X157690874Y-106010077D01*
X157703041Y-106007657D01*
X157713356Y-106000765D01*
X157713358Y-106000764D01*
X157759394Y-105970003D01*
X157769710Y-105963110D01*
X157776603Y-105952794D01*
X157807364Y-105906758D01*
X157807365Y-105906756D01*
X157814257Y-105896441D01*
X157829900Y-105817800D01*
X157829900Y-104293800D01*
X157820287Y-104245473D01*
X157816678Y-104227328D01*
X157816677Y-104227326D01*
X157814257Y-104215159D01*
X157807365Y-104204844D01*
X157807364Y-104204842D01*
X157776603Y-104158806D01*
X157769710Y-104148490D01*
X157759394Y-104141597D01*
X157713358Y-104110836D01*
X157713356Y-104110835D01*
X157703041Y-104103943D01*
X157690874Y-104101523D01*
X157690872Y-104101522D01*
X157639230Y-104091250D01*
X157624400Y-104088300D01*
X156100400Y-104088300D01*
X156085570Y-104091250D01*
X156033928Y-104101522D01*
X156033926Y-104101523D01*
X156021759Y-104103943D01*
X156011444Y-104110835D01*
X156011442Y-104110836D01*
X155965406Y-104141597D01*
X155955090Y-104148490D01*
X155948197Y-104158806D01*
X155917436Y-104204842D01*
X155917435Y-104204844D01*
X155910543Y-104215159D01*
X155908123Y-104227326D01*
X155908122Y-104227328D01*
X155904513Y-104245473D01*
X155894900Y-104293800D01*
X155894900Y-104299987D01*
X155894293Y-104306150D01*
X155891961Y-104305920D01*
X155874898Y-104364032D01*
X155821242Y-104410525D01*
X155785348Y-104420832D01*
X155688885Y-104433532D01*
X155542850Y-104494022D01*
X155536299Y-104499049D01*
X155492604Y-104532577D01*
X155426383Y-104558177D01*
X155356835Y-104543912D01*
X155306039Y-104494311D01*
X155289900Y-104432614D01*
X155289900Y-104293800D01*
X155280287Y-104245473D01*
X155276678Y-104227328D01*
X155276677Y-104227326D01*
X155274257Y-104215159D01*
X155267365Y-104204844D01*
X155267364Y-104204842D01*
X155236603Y-104158806D01*
X155229710Y-104148490D01*
X155219394Y-104141597D01*
X155173358Y-104110836D01*
X155173356Y-104110835D01*
X155163041Y-104103943D01*
X155150874Y-104101523D01*
X155150872Y-104101522D01*
X155099230Y-104091250D01*
X155084400Y-104088300D01*
X153560400Y-104088300D01*
X153545570Y-104091250D01*
X153493928Y-104101522D01*
X153493926Y-104101523D01*
X153481759Y-104103943D01*
X153471444Y-104110835D01*
X153471442Y-104110836D01*
X153425406Y-104141597D01*
X153415090Y-104148490D01*
X153408197Y-104158806D01*
X153377436Y-104204842D01*
X153377435Y-104204844D01*
X153370543Y-104215159D01*
X153368123Y-104227326D01*
X153368122Y-104227328D01*
X153364513Y-104245473D01*
X153354900Y-104293800D01*
X153354900Y-105057911D01*
X153334898Y-105126032D01*
X153281242Y-105172525D01*
X153245348Y-105182832D01*
X153148885Y-105195532D01*
X153002850Y-105256022D01*
X152996299Y-105261049D01*
X152952604Y-105294577D01*
X152886383Y-105320177D01*
X152816835Y-105305912D01*
X152766039Y-105256311D01*
X152749900Y-105194614D01*
X152749900Y-104293800D01*
X152740287Y-104245473D01*
X152736678Y-104227328D01*
X152736677Y-104227326D01*
X152734257Y-104215159D01*
X152727365Y-104204844D01*
X152727364Y-104204842D01*
X152696603Y-104158806D01*
X152689710Y-104148490D01*
X152679394Y-104141597D01*
X152633358Y-104110836D01*
X152633356Y-104110835D01*
X152623041Y-104103943D01*
X152610874Y-104101523D01*
X152610872Y-104101522D01*
X152559230Y-104091250D01*
X152544400Y-104088300D01*
X151020400Y-104088300D01*
X151005570Y-104091250D01*
X150953928Y-104101522D01*
X150953926Y-104101523D01*
X150941759Y-104103943D01*
X150931444Y-104110835D01*
X150931442Y-104110836D01*
X150885406Y-104141597D01*
X150875090Y-104148490D01*
X150868197Y-104158806D01*
X150837436Y-104204842D01*
X150837435Y-104204844D01*
X150830543Y-104215159D01*
X150826142Y-104237285D01*
X150822611Y-104255034D01*
X150789702Y-104317943D01*
X150728007Y-104353074D01*
X150682587Y-104355373D01*
X150600000Y-104344500D01*
X150443285Y-104365132D01*
X150297250Y-104425622D01*
X150171847Y-104521847D01*
X150075622Y-104647250D01*
X150015132Y-104793285D01*
X149994500Y-104950000D01*
X142466408Y-104950000D01*
X142542750Y-104918378D01*
X142668153Y-104822153D01*
X142764378Y-104696750D01*
X142824868Y-104550715D01*
X142845500Y-104394000D01*
X142824868Y-104237285D01*
X142764378Y-104091250D01*
X142668153Y-103965847D01*
X142542750Y-103869622D01*
X142396715Y-103809132D01*
X142240000Y-103788500D01*
X142083285Y-103809132D01*
X141937250Y-103869622D01*
X141811847Y-103965847D01*
X141715622Y-104091250D01*
X141655132Y-104237285D01*
X141634500Y-104394000D01*
X104319468Y-104394000D01*
X104270103Y-104227327D01*
X103863926Y-102855942D01*
X103862230Y-102849612D01*
X103374862Y-100819660D01*
X103373493Y-100813221D01*
X103372419Y-100807422D01*
X103142724Y-99568000D01*
X111535500Y-99568000D01*
X111556132Y-99724715D01*
X111616622Y-99870750D01*
X111639258Y-99900250D01*
X111693184Y-99970527D01*
X111712847Y-99996153D01*
X111838250Y-100092378D01*
X111984285Y-100152868D01*
X112141000Y-100173500D01*
X112149188Y-100172422D01*
X112289527Y-100153946D01*
X112297715Y-100152868D01*
X112443750Y-100092378D01*
X112569153Y-99996153D01*
X112588817Y-99970527D01*
X112642742Y-99900250D01*
X112665378Y-99870750D01*
X112685571Y-99822000D01*
X148873500Y-99822000D01*
X148894132Y-99978715D01*
X148954622Y-100124750D01*
X149050847Y-100250153D01*
X149176250Y-100346378D01*
X149322285Y-100406868D01*
X149479000Y-100427500D01*
X149487188Y-100426422D01*
X149627527Y-100407946D01*
X149635715Y-100406868D01*
X149781750Y-100346378D01*
X149907153Y-100250153D01*
X149943335Y-100203000D01*
X157763500Y-100203000D01*
X157784132Y-100359715D01*
X157844622Y-100505750D01*
X157940847Y-100631153D01*
X158066250Y-100727378D01*
X158212285Y-100787868D01*
X158369000Y-100808500D01*
X158377188Y-100807422D01*
X158517527Y-100788946D01*
X158525715Y-100787868D01*
X158671750Y-100727378D01*
X158797153Y-100631153D01*
X158893378Y-100505750D01*
X158953868Y-100359715D01*
X158974500Y-100203000D01*
X158953868Y-100046285D01*
X158893378Y-99900250D01*
X158797153Y-99774847D01*
X158671750Y-99678622D01*
X158525715Y-99618132D01*
X158369000Y-99597500D01*
X158212285Y-99618132D01*
X158066250Y-99678622D01*
X157940847Y-99774847D01*
X157844622Y-99900250D01*
X157784132Y-100046285D01*
X157763500Y-100203000D01*
X149943335Y-100203000D01*
X150003378Y-100124750D01*
X150063868Y-99978715D01*
X150084500Y-99822000D01*
X150063868Y-99665285D01*
X150003378Y-99519250D01*
X149933903Y-99428708D01*
X149912176Y-99400393D01*
X149907153Y-99393847D01*
X149781750Y-99297622D01*
X149635715Y-99237132D01*
X149479000Y-99216500D01*
X149322285Y-99237132D01*
X149176250Y-99297622D01*
X149050847Y-99393847D01*
X149045824Y-99400393D01*
X149024097Y-99428708D01*
X148954622Y-99519250D01*
X148894132Y-99665285D01*
X148873500Y-99822000D01*
X112685571Y-99822000D01*
X112725868Y-99724715D01*
X112746500Y-99568000D01*
X112725868Y-99411285D01*
X112665378Y-99265250D01*
X112569153Y-99139847D01*
X112443750Y-99043622D01*
X112297715Y-98983132D01*
X112141000Y-98962500D01*
X111984285Y-98983132D01*
X111838250Y-99043622D01*
X111712847Y-99139847D01*
X111616622Y-99265250D01*
X111556132Y-99411285D01*
X111535500Y-99568000D01*
X103142724Y-99568000D01*
X103046476Y-99048649D01*
X102993100Y-98760635D01*
X102992068Y-98754125D01*
X102781495Y-97155000D01*
X109503500Y-97155000D01*
X109524132Y-97311715D01*
X109584622Y-97457750D01*
X109680847Y-97583153D01*
X109806250Y-97679378D01*
X109952285Y-97739868D01*
X110109000Y-97760500D01*
X110117188Y-97759422D01*
X110257527Y-97740946D01*
X110265715Y-97739868D01*
X110411750Y-97679378D01*
X110537153Y-97583153D01*
X110633378Y-97457750D01*
X110693868Y-97311715D01*
X110714500Y-97155000D01*
X152683500Y-97155000D01*
X152704132Y-97311715D01*
X152764622Y-97457750D01*
X152860847Y-97583153D01*
X152986250Y-97679378D01*
X153132285Y-97739868D01*
X153289000Y-97760500D01*
X153297188Y-97759422D01*
X153437527Y-97740946D01*
X153445715Y-97739868D01*
X153591750Y-97679378D01*
X153717153Y-97583153D01*
X153813378Y-97457750D01*
X153873868Y-97311715D01*
X153894500Y-97155000D01*
X153873868Y-96998285D01*
X153813378Y-96852250D01*
X153717153Y-96726847D01*
X153591750Y-96630622D01*
X153445715Y-96570132D01*
X153289000Y-96549500D01*
X153132285Y-96570132D01*
X152986250Y-96630622D01*
X152860847Y-96726847D01*
X152764622Y-96852250D01*
X152704132Y-96998285D01*
X152683500Y-97155000D01*
X110714500Y-97155000D01*
X110693868Y-96998285D01*
X110633378Y-96852250D01*
X110537153Y-96726847D01*
X110537712Y-96726418D01*
X110506706Y-96669637D01*
X110508725Y-96641409D01*
X110486162Y-96649825D01*
X110415633Y-96633602D01*
X110411750Y-96630622D01*
X110265715Y-96570132D01*
X110109000Y-96549500D01*
X109952285Y-96570132D01*
X109806250Y-96630622D01*
X109680847Y-96726847D01*
X109584622Y-96852250D01*
X109524132Y-96998285D01*
X109503500Y-97155000D01*
X102781495Y-97155000D01*
X102719528Y-96684412D01*
X102718838Y-96677847D01*
X102666437Y-96012000D01*
X110392500Y-96012000D01*
X110413132Y-96168715D01*
X110473622Y-96314750D01*
X110567097Y-96436569D01*
X110569847Y-96440153D01*
X110569288Y-96440582D01*
X110600294Y-96497363D01*
X110598275Y-96525591D01*
X110620838Y-96517175D01*
X110691367Y-96533398D01*
X110695250Y-96536378D01*
X110841285Y-96596868D01*
X110998000Y-96617500D01*
X111006188Y-96616422D01*
X111146527Y-96597946D01*
X111154715Y-96596868D01*
X111300750Y-96536378D01*
X111426153Y-96440153D01*
X111522378Y-96314750D01*
X111582868Y-96168715D01*
X111603500Y-96012000D01*
X111582868Y-95855285D01*
X111522378Y-95709250D01*
X111426153Y-95583847D01*
X111322094Y-95504000D01*
X114590556Y-95504000D01*
X114611188Y-95660715D01*
X114671678Y-95806750D01*
X114767903Y-95932153D01*
X114893306Y-96028378D01*
X115039341Y-96088868D01*
X115196056Y-96109500D01*
X115204244Y-96108422D01*
X115344583Y-96089946D01*
X115352771Y-96088868D01*
X115498806Y-96028378D01*
X115520150Y-96012000D01*
X157763500Y-96012000D01*
X157784132Y-96168715D01*
X157844622Y-96314750D01*
X157940847Y-96440153D01*
X158066250Y-96536378D01*
X158212285Y-96596868D01*
X158369000Y-96617500D01*
X158377188Y-96616422D01*
X158517527Y-96597946D01*
X158525715Y-96596868D01*
X158671750Y-96536378D01*
X158797153Y-96440153D01*
X158893378Y-96314750D01*
X158953868Y-96168715D01*
X158974500Y-96012000D01*
X158953868Y-95855285D01*
X158893378Y-95709250D01*
X158797153Y-95583847D01*
X158671750Y-95487622D01*
X158525715Y-95427132D01*
X158369000Y-95406500D01*
X158212285Y-95427132D01*
X158066250Y-95487622D01*
X157940847Y-95583847D01*
X157844622Y-95709250D01*
X157784132Y-95855285D01*
X157763500Y-96012000D01*
X115520150Y-96012000D01*
X115624209Y-95932153D01*
X115720434Y-95806750D01*
X115780924Y-95660715D01*
X115801556Y-95504000D01*
X115780924Y-95347285D01*
X115720434Y-95201250D01*
X115624209Y-95075847D01*
X115616209Y-95069708D01*
X115505357Y-94984649D01*
X115498806Y-94979622D01*
X115352771Y-94919132D01*
X115196056Y-94898500D01*
X115039341Y-94919132D01*
X114893306Y-94979622D01*
X114886755Y-94984649D01*
X114775904Y-95069708D01*
X114767903Y-95075847D01*
X114671678Y-95201250D01*
X114611188Y-95347285D01*
X114590556Y-95504000D01*
X111322094Y-95504000D01*
X111300750Y-95487622D01*
X111154715Y-95427132D01*
X110998000Y-95406500D01*
X110841285Y-95427132D01*
X110695250Y-95487622D01*
X110569847Y-95583847D01*
X110473622Y-95709250D01*
X110413132Y-95855285D01*
X110392500Y-96012000D01*
X102666437Y-96012000D01*
X102555057Y-94596726D01*
X102554712Y-94590138D01*
X102552038Y-94488000D01*
X112932500Y-94488000D01*
X112953132Y-94644715D01*
X113013622Y-94790750D01*
X113109847Y-94916153D01*
X113116393Y-94921176D01*
X113144708Y-94942903D01*
X113235250Y-95012378D01*
X113381285Y-95072868D01*
X113538000Y-95093500D01*
X113546188Y-95092422D01*
X113686527Y-95073946D01*
X113694715Y-95072868D01*
X113840750Y-95012378D01*
X113931292Y-94942903D01*
X113959607Y-94921176D01*
X113966153Y-94916153D01*
X114062378Y-94790750D01*
X114122868Y-94644715D01*
X114143500Y-94488000D01*
X114122868Y-94331285D01*
X114062378Y-94185250D01*
X113966153Y-94059847D01*
X113840750Y-93963622D01*
X113694715Y-93903132D01*
X113538000Y-93882500D01*
X113381285Y-93903132D01*
X113235250Y-93963622D01*
X113109847Y-94059847D01*
X113013622Y-94185250D01*
X112953132Y-94331285D01*
X112932500Y-94488000D01*
X102552038Y-94488000D01*
X102501372Y-92552422D01*
X102500086Y-92503285D01*
X102500086Y-92496703D01*
X102500855Y-92467351D01*
X102514449Y-91948000D01*
X113186500Y-91948000D01*
X113207132Y-92104715D01*
X113267622Y-92250750D01*
X113363847Y-92376153D01*
X113489250Y-92472378D01*
X113635285Y-92532868D01*
X113792000Y-92553500D01*
X113800188Y-92552422D01*
X113940527Y-92533946D01*
X113948715Y-92532868D01*
X114094750Y-92472378D01*
X114220153Y-92376153D01*
X114316378Y-92250750D01*
X114376868Y-92104715D01*
X114397500Y-91948000D01*
X115599500Y-91948000D01*
X115620132Y-92104715D01*
X115680622Y-92250750D01*
X115776847Y-92376153D01*
X115902250Y-92472378D01*
X116048285Y-92532868D01*
X116205000Y-92553500D01*
X116213188Y-92552422D01*
X116353527Y-92533946D01*
X116361715Y-92532868D01*
X116507750Y-92472378D01*
X116633153Y-92376153D01*
X116729378Y-92250750D01*
X116789868Y-92104715D01*
X116810500Y-91948000D01*
X116789868Y-91791285D01*
X116729378Y-91645250D01*
X116633153Y-91519847D01*
X116507750Y-91423622D01*
X116361715Y-91363132D01*
X116205000Y-91342500D01*
X116048285Y-91363132D01*
X115902250Y-91423622D01*
X115776847Y-91519847D01*
X115680622Y-91645250D01*
X115620132Y-91791285D01*
X115599500Y-91948000D01*
X114397500Y-91948000D01*
X114376868Y-91791285D01*
X114316378Y-91645250D01*
X114220153Y-91519847D01*
X114094750Y-91423622D01*
X113948715Y-91363132D01*
X113792000Y-91342500D01*
X113635285Y-91363132D01*
X113489250Y-91423622D01*
X113363847Y-91519847D01*
X113267622Y-91645250D01*
X113207132Y-91791285D01*
X113186500Y-91948000D01*
X102514449Y-91948000D01*
X102529787Y-91362054D01*
X102554712Y-90409858D01*
X102555057Y-90403270D01*
X102718838Y-88322148D01*
X102719528Y-88315583D01*
X102992068Y-86245866D01*
X102993100Y-86239356D01*
X103117932Y-85565768D01*
X103373496Y-84186755D01*
X103374862Y-84180332D01*
X103774977Y-82513800D01*
X164170300Y-82513800D01*
X164190932Y-82670515D01*
X164251422Y-82816550D01*
X164347647Y-82941953D01*
X164473050Y-83038178D01*
X164619085Y-83098668D01*
X164775800Y-83119300D01*
X164783988Y-83118222D01*
X164924327Y-83099746D01*
X164932515Y-83098668D01*
X165078550Y-83038178D01*
X165203953Y-82941953D01*
X165300178Y-82816550D01*
X165360668Y-82670515D01*
X165381300Y-82513800D01*
X165360668Y-82357085D01*
X165300178Y-82211050D01*
X165203953Y-82085647D01*
X165078550Y-81989422D01*
X164932515Y-81928932D01*
X164775800Y-81908300D01*
X164619085Y-81928932D01*
X164473050Y-81989422D01*
X164347647Y-82085647D01*
X164251422Y-82211050D01*
X164190932Y-82357085D01*
X164170300Y-82513800D01*
X103774977Y-82513800D01*
X103862230Y-82150379D01*
X103863929Y-82144039D01*
X104350556Y-80501030D01*
X104456758Y-80142457D01*
X104458790Y-80136201D01*
X105155706Y-78168369D01*
X105158054Y-78162254D01*
X105226381Y-77997294D01*
X105386140Y-77611590D01*
X146305922Y-77611590D01*
X146307336Y-77629382D01*
X146335533Y-77754225D01*
X146341899Y-77770890D01*
X146404129Y-77882737D01*
X146414933Y-77896933D01*
X146506149Y-77986713D01*
X146520520Y-77997294D01*
X146637309Y-78059867D01*
X146645515Y-78063536D01*
X146784943Y-78114284D01*
X146800794Y-78115291D01*
X146802403Y-78114396D01*
X146806601Y-78107749D01*
X147081016Y-77353800D01*
X147082023Y-77337949D01*
X147081129Y-77336341D01*
X147074482Y-77332144D01*
X146461486Y-77109031D01*
X146445635Y-77108024D01*
X146444027Y-77108918D01*
X146439829Y-77115565D01*
X146335443Y-77402365D01*
X146334059Y-77406633D01*
X146316461Y-77468375D01*
X146314182Y-77481608D01*
X146305922Y-77611590D01*
X105386140Y-77611590D01*
X105743013Y-76750000D01*
X112594500Y-76750000D01*
X112615132Y-76906715D01*
X112675622Y-77052750D01*
X112771847Y-77178153D01*
X112778393Y-77183176D01*
X112801975Y-77201271D01*
X112897250Y-77274378D01*
X113043285Y-77334868D01*
X113051473Y-77335946D01*
X113066687Y-77337949D01*
X113200000Y-77355500D01*
X113208188Y-77354422D01*
X113348527Y-77335946D01*
X113356715Y-77334868D01*
X113502750Y-77274378D01*
X113598025Y-77201271D01*
X113621607Y-77183176D01*
X113628153Y-77178153D01*
X113724378Y-77052750D01*
X113784868Y-76906715D01*
X113805500Y-76750000D01*
X113784868Y-76593285D01*
X113724378Y-76447250D01*
X113643578Y-76341949D01*
X113633176Y-76328393D01*
X113628153Y-76321847D01*
X113502750Y-76225622D01*
X113356715Y-76165132D01*
X113200000Y-76144500D01*
X113043285Y-76165132D01*
X112897250Y-76225622D01*
X112771847Y-76321847D01*
X112766824Y-76328393D01*
X112756422Y-76341949D01*
X112675622Y-76447250D01*
X112615132Y-76593285D01*
X112594500Y-76750000D01*
X105743013Y-76750000D01*
X105956937Y-76233528D01*
X105959615Y-76227513D01*
X105963379Y-76219623D01*
X106676988Y-74723460D01*
X106858270Y-74343381D01*
X106861266Y-74337500D01*
X107857426Y-72502888D01*
X107860723Y-72497178D01*
X108951472Y-70717208D01*
X108955065Y-70711675D01*
X110137427Y-68991315D01*
X110141306Y-68985976D01*
X111412194Y-67329805D01*
X111416343Y-67324682D01*
X112198391Y-66408996D01*
X114713495Y-66408996D01*
X114779095Y-67032695D01*
X114972895Y-67629196D01*
X114976198Y-67634916D01*
X114976199Y-67634918D01*
X115283195Y-68166582D01*
X115283198Y-68166586D01*
X115286495Y-68172296D01*
X115290907Y-68177197D01*
X115290910Y-68177201D01*
X115705529Y-68637770D01*
X115705550Y-68637793D01*
X115706094Y-68638397D01*
X115706656Y-68638988D01*
X115706686Y-68639021D01*
X115759425Y-68694533D01*
X116014095Y-68962596D01*
X116539394Y-69515596D01*
X117130393Y-70137697D01*
X117785392Y-70827096D01*
X118502693Y-71582096D01*
X118502700Y-71582104D01*
X119028155Y-72135267D01*
X119280193Y-72400596D01*
X120115795Y-73280197D01*
X121007394Y-74218597D01*
X121489593Y-74726295D01*
X121996994Y-75094896D01*
X122003026Y-75097582D01*
X122003027Y-75097582D01*
X122552626Y-75342264D01*
X122569993Y-75349996D01*
X123183395Y-75480396D01*
X123810594Y-75480396D01*
X124258459Y-75385204D01*
X124417639Y-75351371D01*
X124417640Y-75351371D01*
X124424098Y-75349998D01*
X124620085Y-75262729D01*
X130742752Y-75262729D01*
X130745145Y-75270217D01*
X130897750Y-75534537D01*
X130900129Y-75538338D01*
X130936109Y-75591497D01*
X130944791Y-75601760D01*
X131039051Y-75691637D01*
X131053584Y-75701987D01*
X131167347Y-75760635D01*
X131184206Y-75766471D01*
X131309886Y-75790694D01*
X131327704Y-75791542D01*
X131455114Y-75779376D01*
X131472455Y-75775169D01*
X131520337Y-75756000D01*
X146101300Y-75756000D01*
X146121932Y-75912715D01*
X146182422Y-76058750D01*
X146211987Y-76097280D01*
X146263225Y-76164054D01*
X146278647Y-76184153D01*
X146404050Y-76280378D01*
X146550085Y-76340868D01*
X146558297Y-76341949D01*
X146558316Y-76341957D01*
X146566249Y-76344083D01*
X146565917Y-76345320D01*
X146623224Y-76370673D01*
X146662315Y-76429939D01*
X146663158Y-76500930D01*
X146660250Y-76509966D01*
X146624405Y-76608449D01*
X146623398Y-76624298D01*
X146624293Y-76625907D01*
X146630940Y-76630105D01*
X147619922Y-76990065D01*
X147677093Y-77032159D01*
X147702431Y-77098481D01*
X147695228Y-77151561D01*
X147564576Y-77510524D01*
X147285527Y-78277204D01*
X147284520Y-78293053D01*
X147285415Y-78294662D01*
X147292062Y-78298860D01*
X147437907Y-78351943D01*
X147442175Y-78353327D01*
X147503917Y-78370925D01*
X147517150Y-78373204D01*
X147647132Y-78381464D01*
X147664924Y-78380050D01*
X147789767Y-78351853D01*
X147806432Y-78345487D01*
X147918275Y-78283259D01*
X147937933Y-78268298D01*
X148004254Y-78242959D01*
X148057333Y-78250162D01*
X148729202Y-78494702D01*
X148735321Y-78495644D01*
X148735322Y-78495644D01*
X148744674Y-78497083D01*
X148808451Y-78506899D01*
X148854447Y-78495644D01*
X148874281Y-78490791D01*
X148874283Y-78490790D01*
X148886335Y-78487841D01*
X148950997Y-78440429D01*
X148992594Y-78371880D01*
X148992880Y-78372054D01*
X149038143Y-78321762D01*
X149106628Y-78303045D01*
X149174360Y-78324326D01*
X149204220Y-78352319D01*
X149220246Y-78373204D01*
X149228647Y-78384153D01*
X149354050Y-78480378D01*
X149500085Y-78540868D01*
X149656800Y-78561500D01*
X149664988Y-78560422D01*
X149805327Y-78541946D01*
X149813515Y-78540868D01*
X149959550Y-78480378D01*
X150084953Y-78384153D01*
X150093355Y-78373204D01*
X150147189Y-78303045D01*
X150181178Y-78258750D01*
X150241668Y-78112715D01*
X150262300Y-77956000D01*
X150241668Y-77799285D01*
X150181178Y-77653250D01*
X150084953Y-77527847D01*
X149959550Y-77431622D01*
X149813515Y-77371132D01*
X149812059Y-77370940D01*
X149754123Y-77335626D01*
X149723102Y-77271766D01*
X149731530Y-77201271D01*
X149736293Y-77191366D01*
X149775353Y-77118463D01*
X149779019Y-77110262D01*
X149846868Y-76923849D01*
X149847875Y-76907998D01*
X149846980Y-76906389D01*
X149840333Y-76902191D01*
X148794970Y-76521710D01*
X148737799Y-76479616D01*
X148712461Y-76413294D01*
X148719664Y-76360214D01*
X148787504Y-76173826D01*
X149332869Y-76173826D01*
X149333763Y-76175434D01*
X149340410Y-76179631D01*
X150009788Y-76423265D01*
X150025639Y-76424272D01*
X150027247Y-76423377D01*
X150031444Y-76416731D01*
X150040300Y-76392400D01*
X164195700Y-76392400D01*
X164216332Y-76549115D01*
X164276822Y-76695150D01*
X164373047Y-76820553D01*
X164498450Y-76916778D01*
X164644485Y-76977268D01*
X164801200Y-76997900D01*
X164809388Y-76996822D01*
X164860713Y-76990065D01*
X164957915Y-76977268D01*
X165103950Y-76916778D01*
X165229353Y-76820553D01*
X165325578Y-76695150D01*
X165386068Y-76549115D01*
X165406700Y-76392400D01*
X165386068Y-76235685D01*
X165325578Y-76089650D01*
X165229353Y-75964247D01*
X165103950Y-75868022D01*
X164957915Y-75807532D01*
X164801200Y-75786900D01*
X164644485Y-75807532D01*
X164498450Y-75868022D01*
X164373047Y-75964247D01*
X164276822Y-76089650D01*
X164216332Y-76235685D01*
X164195700Y-76392400D01*
X150040300Y-76392400D01*
X150101623Y-76223915D01*
X150103014Y-76219623D01*
X150120610Y-76157892D01*
X150122889Y-76144658D01*
X150131150Y-76014676D01*
X150129736Y-75996885D01*
X150101539Y-75872043D01*
X150095171Y-75855375D01*
X150032942Y-75743530D01*
X150022138Y-75729334D01*
X149930921Y-75639552D01*
X149916554Y-75628974D01*
X149799758Y-75566396D01*
X149791562Y-75562731D01*
X149595746Y-75491460D01*
X149579895Y-75490453D01*
X149578287Y-75491347D01*
X149574090Y-75497994D01*
X149333876Y-76157975D01*
X149332869Y-76173826D01*
X148787504Y-76173826D01*
X148850316Y-76001251D01*
X149095163Y-75328540D01*
X149096170Y-75312691D01*
X149095275Y-75311082D01*
X149088628Y-75306884D01*
X148886403Y-75233280D01*
X148882135Y-75231896D01*
X148820393Y-75214298D01*
X148807159Y-75212019D01*
X148677177Y-75203759D01*
X148659385Y-75205173D01*
X148534542Y-75233370D01*
X148517877Y-75239736D01*
X148406034Y-75301964D01*
X148386376Y-75316925D01*
X148320055Y-75342264D01*
X148266975Y-75335061D01*
X147707869Y-75131563D01*
X147701750Y-75130621D01*
X147701749Y-75130621D01*
X147692397Y-75129182D01*
X147628620Y-75119366D01*
X147550736Y-75138424D01*
X147540730Y-75145761D01*
X147540727Y-75145762D01*
X147522575Y-75159072D01*
X147486073Y-75185836D01*
X147444477Y-75254385D01*
X147442359Y-75260204D01*
X147409095Y-75351595D01*
X147367000Y-75408766D01*
X147300679Y-75434104D01*
X147290694Y-75434500D01*
X147278927Y-75434500D01*
X147210806Y-75414498D01*
X147178965Y-75385204D01*
X147139982Y-75334400D01*
X147139979Y-75334397D01*
X147134953Y-75327847D01*
X147115202Y-75312691D01*
X147049158Y-75262014D01*
X147009550Y-75231622D01*
X146863515Y-75171132D01*
X146706800Y-75150500D01*
X146550085Y-75171132D01*
X146404050Y-75231622D01*
X146278647Y-75327847D01*
X146273624Y-75334393D01*
X146267584Y-75342264D01*
X146182422Y-75453250D01*
X146121932Y-75599285D01*
X146101300Y-75756000D01*
X131520337Y-75756000D01*
X131595454Y-75725928D01*
X131603549Y-75721996D01*
X131732046Y-75647808D01*
X131743006Y-75636314D01*
X131743354Y-75634507D01*
X131740961Y-75627019D01*
X131339791Y-74932174D01*
X131328296Y-74921214D01*
X131326488Y-74920865D01*
X131319001Y-74923258D01*
X130754060Y-75249427D01*
X130743100Y-75260922D01*
X130742752Y-75262729D01*
X124620085Y-75262729D01*
X124996997Y-75094898D01*
X125281481Y-74888236D01*
X125501055Y-74728728D01*
X125501060Y-74728724D01*
X125504398Y-74726299D01*
X125849439Y-74398864D01*
X126037005Y-74220868D01*
X126041906Y-74216455D01*
X126581017Y-73756000D01*
X129251300Y-73756000D01*
X129271932Y-73912715D01*
X129332422Y-74058750D01*
X129428647Y-74184153D01*
X129554050Y-74280378D01*
X129700085Y-74340868D01*
X129708273Y-74341946D01*
X129719112Y-74343373D01*
X129856800Y-74361500D01*
X129864988Y-74360422D01*
X130005327Y-74341946D01*
X130013515Y-74340868D01*
X130097314Y-74306157D01*
X130167903Y-74298568D01*
X130231390Y-74330347D01*
X130267980Y-74392859D01*
X130272954Y-74413363D01*
X130322195Y-74536361D01*
X130326127Y-74544456D01*
X130475314Y-74802857D01*
X130486809Y-74813817D01*
X130488616Y-74814165D01*
X130496104Y-74811772D01*
X131407555Y-74285545D01*
X131476550Y-74268807D01*
X131543642Y-74292027D01*
X131579674Y-74331664D01*
X131770674Y-74662485D01*
X132178616Y-75369063D01*
X132190111Y-75380023D01*
X132191918Y-75380371D01*
X132199406Y-75377978D01*
X132333822Y-75300373D01*
X132337623Y-75297994D01*
X132390782Y-75262014D01*
X132401045Y-75253332D01*
X132490922Y-75159072D01*
X132501272Y-75144539D01*
X132559920Y-75030776D01*
X132565756Y-75013917D01*
X132589979Y-74888236D01*
X132591155Y-74863561D01*
X132614377Y-74796469D01*
X132654012Y-74760440D01*
X132707287Y-74729682D01*
X132823675Y-74662485D01*
X133267843Y-74406045D01*
X133267848Y-74406042D01*
X133273206Y-74402948D01*
X133333490Y-74350081D01*
X133368954Y-74278167D01*
X133374198Y-74198157D01*
X133348424Y-74122230D01*
X133172306Y-73817184D01*
X133155568Y-73748190D01*
X133178788Y-73681098D01*
X133192330Y-73665090D01*
X133451420Y-73406000D01*
X139602500Y-73406000D01*
X139623132Y-73562715D01*
X139683622Y-73708750D01*
X139779847Y-73834153D01*
X139905250Y-73930378D01*
X140051285Y-73990868D01*
X140208000Y-74011500D01*
X140216188Y-74010422D01*
X140356527Y-73991946D01*
X140364715Y-73990868D01*
X140510750Y-73930378D01*
X140636153Y-73834153D01*
X140732378Y-73708750D01*
X140792868Y-73562715D01*
X140813500Y-73406000D01*
X140792868Y-73249285D01*
X140732378Y-73103250D01*
X140651432Y-72997759D01*
X140641176Y-72984393D01*
X140636153Y-72977847D01*
X140510750Y-72881622D01*
X140364715Y-72821132D01*
X140208000Y-72800500D01*
X140051285Y-72821132D01*
X139905250Y-72881622D01*
X139779847Y-72977847D01*
X139774824Y-72984393D01*
X139764568Y-72997759D01*
X139683622Y-73103250D01*
X139623132Y-73249285D01*
X139602500Y-73406000D01*
X133451420Y-73406000D01*
X133600446Y-73256974D01*
X133601728Y-73255867D01*
X133606152Y-73253705D01*
X133635797Y-73221747D01*
X133639078Y-73218342D01*
X133655474Y-73201946D01*
X133658578Y-73197421D01*
X133662410Y-73193058D01*
X133674319Y-73180220D01*
X133674320Y-73180218D01*
X133682232Y-73171689D01*
X133686543Y-73160883D01*
X133689083Y-73156865D01*
X133694804Y-73146150D01*
X133696728Y-73141809D01*
X133703310Y-73132214D01*
X133708998Y-73108245D01*
X133714558Y-73090664D01*
X133723687Y-73067783D01*
X133724505Y-73059440D01*
X133724505Y-73056358D01*
X133724655Y-73053288D01*
X133725013Y-73053306D01*
X133725925Y-73045519D01*
X133726455Y-73034687D01*
X133729141Y-73023367D01*
X133725656Y-72997759D01*
X133724505Y-72980768D01*
X133724505Y-72295355D01*
X133744507Y-72227234D01*
X133773801Y-72195392D01*
X133782773Y-72188508D01*
X133852158Y-72135267D01*
X133948383Y-72009864D01*
X134008873Y-71863829D01*
X134029505Y-71707114D01*
X134008873Y-71550399D01*
X133948383Y-71404364D01*
X133852158Y-71278961D01*
X133726755Y-71182736D01*
X133580720Y-71122246D01*
X133424005Y-71101614D01*
X133267290Y-71122246D01*
X133121255Y-71182736D01*
X132995852Y-71278961D01*
X132899627Y-71404364D01*
X132839137Y-71550399D01*
X132818505Y-71707114D01*
X132839137Y-71863829D01*
X132899627Y-72009864D01*
X132995852Y-72135267D01*
X133065238Y-72188508D01*
X133074209Y-72195392D01*
X133116076Y-72252730D01*
X133123505Y-72295355D01*
X133123505Y-72647420D01*
X133103503Y-72715541D01*
X133049847Y-72762034D01*
X132979573Y-72772138D01*
X132914993Y-72742644D01*
X132888386Y-72710420D01*
X132788285Y-72537039D01*
X132776790Y-72526079D01*
X132774983Y-72525731D01*
X132767495Y-72528124D01*
X131804083Y-73084351D01*
X131735088Y-73101089D01*
X131667996Y-73077869D01*
X131631964Y-73038232D01*
X131440964Y-72707411D01*
X131083022Y-72087437D01*
X131071527Y-72076477D01*
X131069719Y-72076128D01*
X131062232Y-72078521D01*
X130875864Y-72186121D01*
X130872050Y-72188508D01*
X130818888Y-72224490D01*
X130808638Y-72233160D01*
X130718751Y-72327431D01*
X130708407Y-72341957D01*
X130649757Y-72455723D01*
X130643921Y-72472582D01*
X130619698Y-72598263D01*
X130618523Y-72622934D01*
X130595303Y-72690026D01*
X130555666Y-72726058D01*
X130040393Y-73023551D01*
X130035743Y-73027629D01*
X129989439Y-73068236D01*
X129989437Y-73068238D01*
X129980109Y-73076419D01*
X129974620Y-73087549D01*
X129967066Y-73097394D01*
X129964624Y-73095520D01*
X129929621Y-73133561D01*
X129864787Y-73151552D01*
X129856800Y-73150500D01*
X129700085Y-73171132D01*
X129554050Y-73231622D01*
X129428647Y-73327847D01*
X129332422Y-73453250D01*
X129271932Y-73599285D01*
X129251300Y-73756000D01*
X126581017Y-73756000D01*
X126807319Y-73562715D01*
X127135591Y-73282337D01*
X127140715Y-73278188D01*
X127268385Y-73180220D01*
X128032989Y-72593499D01*
X128038314Y-72589630D01*
X128965277Y-71952668D01*
X128970793Y-71949085D01*
X129156966Y-71834994D01*
X129178182Y-71821992D01*
X131518284Y-71821992D01*
X131520677Y-71829480D01*
X131871846Y-72437723D01*
X131883341Y-72448683D01*
X131885148Y-72449031D01*
X131892636Y-72446638D01*
X132509539Y-72090469D01*
X132520499Y-72078974D01*
X132520847Y-72077167D01*
X132518454Y-72069679D01*
X132415854Y-71891971D01*
X132413467Y-71888157D01*
X132377485Y-71834994D01*
X132368813Y-71824743D01*
X132274547Y-71734860D01*
X132260017Y-71724513D01*
X132146252Y-71665863D01*
X132129392Y-71660028D01*
X132003712Y-71635805D01*
X131985894Y-71634957D01*
X131858485Y-71647123D01*
X131841144Y-71651330D01*
X131718145Y-71700571D01*
X131710050Y-71704503D01*
X131529592Y-71808690D01*
X131518632Y-71820185D01*
X131518284Y-71821992D01*
X129178182Y-71821992D01*
X130197192Y-71197517D01*
X130202908Y-71194218D01*
X131467006Y-70507868D01*
X131472883Y-70504874D01*
X132487922Y-70020718D01*
X132493943Y-70018037D01*
X133533035Y-69587566D01*
X133539202Y-69585198D01*
X134895078Y-69105096D01*
X134901349Y-69103059D01*
X135550813Y-68910676D01*
X136280500Y-68694530D01*
X136286847Y-68692829D01*
X137380454Y-68430269D01*
X137386905Y-68428898D01*
X137939826Y-68326448D01*
X138492743Y-68223999D01*
X138499253Y-68222968D01*
X139925332Y-68035227D01*
X139931890Y-68034538D01*
X141365808Y-67921658D01*
X141372399Y-67921312D01*
X141626779Y-67914654D01*
X142496714Y-67891884D01*
X142503286Y-67891884D01*
X143373098Y-67914651D01*
X143627600Y-67921312D01*
X143634191Y-67921658D01*
X145068101Y-68034538D01*
X145074659Y-68035227D01*
X146500738Y-68222968D01*
X146507248Y-68223999D01*
X147060165Y-68326448D01*
X147613086Y-68428898D01*
X147619537Y-68430269D01*
X148713148Y-68692829D01*
X148719485Y-68694527D01*
X149703385Y-68985976D01*
X150098644Y-69103059D01*
X150104914Y-69105096D01*
X151460793Y-69585198D01*
X151466960Y-69587566D01*
X152506049Y-70018037D01*
X152512070Y-70020718D01*
X153527112Y-70504874D01*
X153532982Y-70507864D01*
X154662544Y-71121168D01*
X154797085Y-71194218D01*
X154802801Y-71197517D01*
X155834032Y-71829480D01*
X156029202Y-71949085D01*
X156034718Y-71952668D01*
X156961676Y-72589630D01*
X156967002Y-72593499D01*
X157859301Y-73278209D01*
X157864373Y-73282316D01*
X158941409Y-74202211D01*
X158958077Y-74216447D01*
X158962978Y-74220860D01*
X159491187Y-74722115D01*
X159495594Y-74726297D01*
X160002994Y-75094898D01*
X160009019Y-75097581D01*
X160009021Y-75097582D01*
X160100744Y-75138424D01*
X160575893Y-75349998D01*
X160582351Y-75351371D01*
X160582352Y-75351371D01*
X160665590Y-75369063D01*
X161189392Y-75480396D01*
X161816593Y-75480396D01*
X162429992Y-75349998D01*
X162447364Y-75342264D01*
X162996961Y-75097584D01*
X162996962Y-75097584D01*
X163002994Y-75094898D01*
X163510395Y-74726297D01*
X163871147Y-74346468D01*
X163992579Y-74218614D01*
X163992595Y-74218597D01*
X164426804Y-73761600D01*
X173790900Y-73761600D01*
X173811532Y-73918315D01*
X173872022Y-74064350D01*
X173968247Y-74189753D01*
X174093650Y-74285978D01*
X174239685Y-74346468D01*
X174396400Y-74367100D01*
X174404588Y-74366022D01*
X174544927Y-74347546D01*
X174553115Y-74346468D01*
X174699150Y-74285978D01*
X174824553Y-74189753D01*
X174920778Y-74064350D01*
X174981268Y-73918315D01*
X175001900Y-73761600D01*
X174981268Y-73604885D01*
X174920778Y-73458850D01*
X174824553Y-73333447D01*
X174699150Y-73237222D01*
X174553115Y-73176732D01*
X174534582Y-73174292D01*
X174404588Y-73157178D01*
X174396400Y-73156100D01*
X174388212Y-73157178D01*
X174258219Y-73174292D01*
X174239685Y-73176732D01*
X174093650Y-73237222D01*
X173968247Y-73333447D01*
X173872022Y-73458850D01*
X173811532Y-73604885D01*
X173790900Y-73761600D01*
X164426804Y-73761600D01*
X164884201Y-73280197D01*
X165719802Y-72400596D01*
X166497292Y-71582104D01*
X166497299Y-71582096D01*
X167214599Y-70827096D01*
X167869598Y-70137697D01*
X168460601Y-69515596D01*
X168985895Y-68962602D01*
X168985900Y-68962596D01*
X169241457Y-68693597D01*
X169293899Y-68638397D01*
X169713500Y-68172296D01*
X170027099Y-67629196D01*
X170220901Y-67032695D01*
X170286499Y-66408996D01*
X170220901Y-65785196D01*
X170205333Y-65737286D01*
X170029137Y-65195068D01*
X170027099Y-65188796D01*
X169713500Y-64645597D01*
X169293899Y-64179496D01*
X169127296Y-64021396D01*
X168694793Y-63610996D01*
X168596099Y-63517396D01*
X168594863Y-63516340D01*
X168594845Y-63516324D01*
X168310791Y-63273696D01*
X168002494Y-63010396D01*
X168002495Y-63010394D01*
X168002488Y-63010391D01*
X167781692Y-62821796D01*
X167648895Y-62708396D01*
X167604598Y-62670597D01*
X167604549Y-62670555D01*
X167164149Y-62294367D01*
X167164145Y-62294364D01*
X167162895Y-62293296D01*
X166919364Y-62106429D01*
X166020022Y-61416345D01*
X165667694Y-61145996D01*
X165160293Y-60777296D01*
X163606994Y-59709796D01*
X163605594Y-59708938D01*
X163605577Y-59708927D01*
X162001395Y-58725853D01*
X162001386Y-58725848D01*
X161999996Y-58724996D01*
X160343696Y-57825696D01*
X158642494Y-57014297D01*
X158298820Y-56861266D01*
X158070330Y-56759524D01*
X158070313Y-56759517D01*
X158069595Y-56759197D01*
X156328292Y-56037899D01*
X156326752Y-56037354D01*
X156326745Y-56037351D01*
X155595503Y-55778415D01*
X154551696Y-55408798D01*
X153697219Y-55155698D01*
X152746052Y-54873958D01*
X152746045Y-54873956D01*
X152744495Y-54873497D01*
X152742924Y-54873120D01*
X152742906Y-54873115D01*
X150912649Y-54433686D01*
X150912633Y-54433682D01*
X150911865Y-54433498D01*
X150298404Y-54303096D01*
X150297589Y-54302945D01*
X150297559Y-54302939D01*
X148446859Y-53960000D01*
X148446860Y-53960000D01*
X148445224Y-53959697D01*
X148443569Y-53959479D01*
X146578249Y-53713812D01*
X146578235Y-53713810D01*
X146576606Y-53713596D01*
X144697677Y-53565795D01*
X144696049Y-53565752D01*
X144696043Y-53565752D01*
X144203459Y-53552837D01*
X142813579Y-53516395D01*
X142186408Y-53516395D01*
X140796356Y-53552841D01*
X140303948Y-53565752D01*
X140303942Y-53565752D01*
X140302314Y-53565795D01*
X138423385Y-53713596D01*
X138421756Y-53713810D01*
X138421742Y-53713812D01*
X136556418Y-53959479D01*
X136554763Y-53959697D01*
X136553127Y-53960000D01*
X136553128Y-53960000D01*
X134702428Y-54302939D01*
X134702398Y-54302945D01*
X134701583Y-54303096D01*
X134088127Y-54433498D01*
X134087359Y-54433682D01*
X134087343Y-54433686D01*
X132257085Y-54873115D01*
X132257067Y-54873120D01*
X132255496Y-54873497D01*
X132253946Y-54873956D01*
X132253939Y-54873958D01*
X131302772Y-55155698D01*
X130448295Y-55408798D01*
X129405238Y-55778148D01*
X128673242Y-56037351D01*
X128673235Y-56037354D01*
X128671695Y-56037899D01*
X126930395Y-56759197D01*
X126929677Y-56759517D01*
X126929660Y-56759524D01*
X126701170Y-56861266D01*
X126357496Y-57014297D01*
X124656295Y-57825696D01*
X122999996Y-58724996D01*
X122998606Y-58725848D01*
X122998597Y-58725853D01*
X121394412Y-59708927D01*
X121394395Y-59708938D01*
X121392995Y-59709796D01*
X119839694Y-60777296D01*
X119332296Y-61145996D01*
X118979975Y-61416340D01*
X117838407Y-62292290D01*
X117838388Y-62292305D01*
X117837097Y-62293296D01*
X117395397Y-62670597D01*
X117351097Y-62708396D01*
X117218296Y-62821796D01*
X116997495Y-63010396D01*
X116689195Y-63273696D01*
X116403896Y-63517396D01*
X116305194Y-63610996D01*
X115872695Y-64021396D01*
X115706095Y-64179496D01*
X115704435Y-64181340D01*
X115704433Y-64181342D01*
X115290910Y-64640692D01*
X115290907Y-64640696D01*
X115286495Y-64645597D01*
X114972895Y-65188796D01*
X114779095Y-65785196D01*
X114713495Y-66408996D01*
X112198391Y-66408996D01*
X112204003Y-66402425D01*
X112772069Y-65737286D01*
X112776466Y-65732404D01*
X114213419Y-64218096D01*
X114218094Y-64213421D01*
X115208406Y-63273696D01*
X115732414Y-62776456D01*
X115737290Y-62772065D01*
X116516673Y-62106429D01*
X117324686Y-61416340D01*
X117329809Y-61412191D01*
X118985980Y-60141302D01*
X118991319Y-60137423D01*
X120711679Y-58955061D01*
X120717212Y-58951468D01*
X122497182Y-57860719D01*
X122502892Y-57857422D01*
X124337505Y-56861266D01*
X124343386Y-56858270D01*
X124932734Y-56577175D01*
X126227530Y-55959610D01*
X126233534Y-55956937D01*
X127558028Y-55408328D01*
X128162242Y-55158061D01*
X128168396Y-55155698D01*
X130136199Y-54458793D01*
X130142480Y-54456753D01*
X130661806Y-54302939D01*
X132144057Y-53863926D01*
X132150388Y-53862230D01*
X134180335Y-53374862D01*
X134186758Y-53373496D01*
X135565453Y-53117991D01*
X136239360Y-52993100D01*
X136245870Y-52992068D01*
X138315587Y-52719528D01*
X138322152Y-52718838D01*
X140403273Y-52555057D01*
X140409861Y-52554712D01*
X141668400Y-52521768D01*
X142496715Y-52500086D01*
X142503285Y-52500086D01*
X143407341Y-52523754D01*
G37*
%TD.AperFunction*%
%TD*%
M02*
