%TF.GenerationSoftware,KiCad,Pcbnew,6.0.4-6f826c9f35~116~ubuntu20.04.1*%
%TF.CreationDate,2022-04-17T22:19:29+00:00*%
%TF.ProjectId,USTTHUNDERMILLPCB01,55535454-4855-44e4-9445-524d494c4c50,rev?*%
%TF.SameCoordinates,Original*%
%TF.FileFunction,Paste,Top*%
%TF.FilePolarity,Positive*%
%FSLAX46Y46*%
G04 Gerber Fmt 4.6, Leading zero omitted, Abs format (unit mm)*
G04 Created by KiCad (PCBNEW 6.0.4-6f826c9f35~116~ubuntu20.04.1) date 2022-04-17 22:19:29*
%MOMM*%
%LPD*%
G01*
G04 APERTURE LIST*
G04 Aperture macros list*
%AMRoundRect*
0 Rectangle with rounded corners*
0 $1 Rounding radius*
0 $2 $3 $4 $5 $6 $7 $8 $9 X,Y pos of 4 corners*
0 Add a 4 corners polygon primitive as box body*
4,1,4,$2,$3,$4,$5,$6,$7,$8,$9,$2,$3,0*
0 Add four circle primitives for the rounded corners*
1,1,$1+$1,$2,$3*
1,1,$1+$1,$4,$5*
1,1,$1+$1,$6,$7*
1,1,$1+$1,$8,$9*
0 Add four rect primitives between the rounded corners*
20,1,$1+$1,$2,$3,$4,$5,0*
20,1,$1+$1,$4,$5,$6,$7,0*
20,1,$1+$1,$6,$7,$8,$9,0*
20,1,$1+$1,$8,$9,$2,$3,0*%
%AMRotRect*
0 Rectangle, with rotation*
0 The origin of the aperture is its center*
0 $1 length*
0 $2 width*
0 $3 Rotation angle, in degrees counterclockwise*
0 Add horizontal line*
21,1,$1,$2,0,0,$3*%
G04 Aperture macros list end*
%ADD10RoundRect,0.200000X0.275000X-0.200000X0.275000X0.200000X-0.275000X0.200000X-0.275000X-0.200000X0*%
%ADD11RoundRect,0.200000X0.335876X0.053033X0.053033X0.335876X-0.335876X-0.053033X-0.053033X-0.335876X0*%
%ADD12RoundRect,0.225000X-0.250000X0.225000X-0.250000X-0.225000X0.250000X-0.225000X0.250000X0.225000X0*%
%ADD13RoundRect,0.250000X0.512652X0.159099X0.159099X0.512652X-0.512652X-0.159099X-0.159099X-0.512652X0*%
%ADD14RoundRect,0.218750X0.304135X-0.144974X0.190902X0.277619X-0.304135X0.144974X-0.190902X-0.277619X0*%
%ADD15RoundRect,0.200000X-0.275000X0.200000X-0.275000X-0.200000X0.275000X-0.200000X0.275000X0.200000X0*%
%ADD16RoundRect,0.218750X0.324689X-0.089959X0.139794X0.306551X-0.324689X0.089959X-0.139794X-0.306551X0*%
%ADD17RoundRect,0.200000X-0.200000X-0.275000X0.200000X-0.275000X0.200000X0.275000X-0.200000X0.275000X0*%
%ADD18RoundRect,0.218750X0.290343X-0.170929X0.214371X0.259924X-0.290343X0.170929X-0.214371X-0.259924X0*%
%ADD19RoundRect,0.200000X-0.338157X0.035705X-0.138157X-0.310705X0.338157X-0.035705X0.138157X0.310705X0*%
%ADD20RoundRect,0.225000X0.250000X-0.225000X0.250000X0.225000X-0.250000X0.225000X-0.250000X-0.225000X0*%
%ADD21RoundRect,0.250000X0.475000X-0.250000X0.475000X0.250000X-0.475000X0.250000X-0.475000X-0.250000X0*%
%ADD22RoundRect,0.250000X-0.475000X0.250000X-0.475000X-0.250000X0.475000X-0.250000X0.475000X0.250000X0*%
%ADD23RoundRect,0.150000X-0.477297X-0.689429X0.689429X0.477297X0.477297X0.689429X-0.689429X-0.477297X0*%
%ADD24RoundRect,0.150000X-0.571023X0.431779X-0.697808X0.159887X0.571023X-0.431779X0.697808X-0.159887X0*%
%ADD25RoundRect,0.250000X-0.891284X0.691457X-1.102593X0.238303X0.891284X-0.691457X1.102593X-0.238303X0*%
%ADD26RoundRect,0.225000X0.225000X0.250000X-0.225000X0.250000X-0.225000X-0.250000X0.225000X-0.250000X0*%
%ADD27RotRect,1.300000X1.700000X135.000000*%
%ADD28RoundRect,0.250000X1.075000X-0.375000X1.075000X0.375000X-1.075000X0.375000X-1.075000X-0.375000X0*%
%ADD29RoundRect,0.225000X-0.225000X-0.250000X0.225000X-0.250000X0.225000X0.250000X-0.225000X0.250000X0*%
%ADD30RoundRect,0.200000X0.200000X0.275000X-0.200000X0.275000X-0.200000X-0.275000X0.200000X-0.275000X0*%
%ADD31RoundRect,0.150000X0.150000X-0.512500X0.150000X0.512500X-0.150000X0.512500X-0.150000X-0.512500X0*%
%ADD32R,0.900000X0.800000*%
%ADD33R,1.550000X1.150000*%
%ADD34R,1.550000X1.050000*%
%ADD35R,1.500000X0.550000*%
%ADD36R,0.550000X1.500000*%
%ADD37RotRect,0.600000X0.700000X135.000000*%
%ADD38RoundRect,0.200000X-0.053033X0.335876X-0.335876X0.053033X0.053033X-0.335876X0.335876X-0.053033X0*%
%ADD39RoundRect,0.150000X-0.691803X-0.184142X-0.555606X-0.451444X0.691803X0.184142X0.555606X0.451444X0*%
%ADD40RoundRect,0.250000X-1.093605X-0.276638X-0.866610X-0.722141X1.093605X0.276638X0.866610X0.722141X0*%
%ADD41RoundRect,0.150000X0.512500X0.150000X-0.512500X0.150000X-0.512500X-0.150000X0.512500X-0.150000X0*%
%ADD42R,1.200000X1.400000*%
%ADD43RoundRect,0.150000X0.700000X-0.150000X0.700000X0.150000X-0.700000X0.150000X-0.700000X-0.150000X0*%
%ADD44RoundRect,0.250000X1.100000X-0.250000X1.100000X0.250000X-1.100000X0.250000X-1.100000X-0.250000X0*%
%ADD45RoundRect,0.225000X-0.017678X0.335876X-0.335876X0.017678X0.017678X-0.335876X0.335876X-0.017678X0*%
%ADD46RoundRect,0.225000X0.017678X-0.335876X0.335876X-0.017678X-0.017678X0.335876X-0.335876X0.017678X0*%
%ADD47RoundRect,0.225000X0.335876X0.017678X0.017678X0.335876X-0.335876X-0.017678X-0.017678X-0.335876X0*%
%ADD48R,0.600000X0.300000*%
%ADD49R,0.600000X1.020000*%
%ADD50RoundRect,0.150000X-0.700000X0.150000X-0.700000X-0.150000X0.700000X-0.150000X0.700000X0.150000X0*%
%ADD51RoundRect,0.250000X-1.100000X0.250000X-1.100000X-0.250000X1.100000X-0.250000X1.100000X0.250000X0*%
%ADD52RoundRect,0.218750X0.315613X-0.117915X0.165979X0.293200X-0.315613X0.117915X-0.165979X-0.293200X0*%
G04 APERTURE END LIST*
D10*
%TO.C,R5*%
X8884000Y-31695400D03*
X8884000Y-30045400D03*
%TD*%
D11*
%TO.C,R16*%
X-24771000Y-14815000D03*
X-25937726Y-13648274D03*
%TD*%
D12*
%TO.C,C14*%
X18640800Y-24695000D03*
X18640800Y-26245000D03*
%TD*%
D13*
%TO.C,C6*%
X-19691000Y24682000D03*
X-21034502Y26025502D03*
%TD*%
D14*
%TO.C,D3*%
X8071820Y-36149667D03*
X7664180Y-34628333D03*
%TD*%
D10*
%TO.C,R21*%
X13583000Y-30562000D03*
X13583000Y-28912000D03*
%TD*%
D15*
%TO.C,R9*%
X5356797Y18943999D03*
X5356797Y17293999D03*
%TD*%
D16*
%TO.C,D6*%
X15439812Y-33689717D03*
X14774188Y-32262283D03*
%TD*%
D17*
%TO.C,R3*%
X26810200Y7979600D03*
X28460200Y7979600D03*
%TD*%
%TO.C,R1*%
X23445200Y16107600D03*
X25095200Y16107600D03*
%TD*%
D18*
%TO.C,D4*%
X4194748Y-36799536D03*
X3921252Y-35248464D03*
%TD*%
D19*
%TO.C,R8*%
X-14134500Y21078471D03*
X-13309500Y19649529D03*
%TD*%
D20*
%TO.C,C10*%
X-5213000Y31768000D03*
X-5213000Y33318000D03*
%TD*%
D21*
%TO.C,C9*%
X-7753000Y31672000D03*
X-7753000Y33572000D03*
%TD*%
D22*
%TO.C,C21*%
X20900800Y-14040000D03*
X20900800Y-15940000D03*
%TD*%
D23*
%TO.C,U9*%
X-19232128Y-23346051D03*
X-18334102Y-24244076D03*
X-17436076Y-25142102D03*
X-16538051Y-26040128D03*
X-13037872Y-22539949D03*
X-13935898Y-21641924D03*
X-14833924Y-20743898D03*
X-15731949Y-19845872D03*
%TD*%
D15*
%TO.C,R7*%
X-6000Y29698000D03*
X-6000Y28048000D03*
%TD*%
D24*
%TO.C,J1*%
X-30530921Y16317483D03*
X-31059194Y15184599D03*
X-31587467Y14051714D03*
X-32115740Y12918829D03*
D25*
X-35797769Y12594538D03*
X-32649262Y19346531D03*
%TD*%
D20*
%TO.C,C19*%
X11220000Y-7775000D03*
X11220000Y-6225000D03*
%TD*%
D26*
%TO.C,C17*%
X725000Y-22420000D03*
X-825000Y-22420000D03*
%TD*%
D27*
%TO.C,D2*%
X-21882563Y22809563D03*
X-24357437Y25284437D03*
%TD*%
D12*
%TO.C,C15*%
X-3010000Y-17435000D03*
X-3010000Y-18985000D03*
%TD*%
D28*
%TO.C,L1*%
X20130800Y-22880000D03*
X20130800Y-20080000D03*
%TD*%
D29*
%TO.C,C8*%
X-15780000Y31540000D03*
X-14230000Y31540000D03*
%TD*%
D30*
%TO.C,R19*%
X-30125000Y500000D03*
X-31775000Y500000D03*
%TD*%
D31*
%TO.C,U3*%
X-15942000Y27100500D03*
X-14992000Y27100500D03*
X-14042000Y27100500D03*
X-14042000Y29375500D03*
X-15942000Y29375500D03*
%TD*%
D32*
%TO.C,U1*%
X21060000Y11286000D03*
X21060000Y13186000D03*
X19060000Y12236000D03*
%TD*%
D19*
%TO.C,R10*%
X-10959500Y22729471D03*
X-10134500Y21300529D03*
%TD*%
D12*
%TO.C,C18*%
X10789000Y-23692000D03*
X10789000Y-25242000D03*
%TD*%
D33*
%TO.C,SW1*%
X28570000Y-12420000D03*
X24770000Y-12420000D03*
X24770000Y-14820000D03*
D34*
X28570000Y-14820000D03*
%TD*%
D35*
%TO.C,U8*%
X4750800Y-11630000D03*
X4750800Y-12430000D03*
X4750800Y-13230000D03*
X4750800Y-14030000D03*
X4750800Y-14830000D03*
X4750800Y-15630000D03*
X4750800Y-16430000D03*
X4750800Y-17230000D03*
X4750800Y-18030000D03*
X4750800Y-18830000D03*
X4750800Y-19630000D03*
D36*
X6450800Y-21330000D03*
X7250800Y-21330000D03*
X8050800Y-21330000D03*
X8850800Y-21330000D03*
X9650800Y-21330000D03*
X10450800Y-21330000D03*
X11250800Y-21330000D03*
X12050800Y-21330000D03*
X12850800Y-21330000D03*
X13650800Y-21330000D03*
X14450800Y-21330000D03*
D35*
X16150800Y-19630000D03*
X16150800Y-18830000D03*
X16150800Y-18030000D03*
X16150800Y-17230000D03*
X16150800Y-16430000D03*
X16150800Y-15630000D03*
X16150800Y-14830000D03*
X16150800Y-14030000D03*
X16150800Y-13230000D03*
X16150800Y-12430000D03*
X16150800Y-11630000D03*
D36*
X14450800Y-9930000D03*
X13650800Y-9930000D03*
X12850800Y-9930000D03*
X12050800Y-9930000D03*
X11250800Y-9930000D03*
X10450800Y-9930000D03*
X9650800Y-9930000D03*
X8850800Y-9930000D03*
X8050800Y-9930000D03*
X7250800Y-9930000D03*
X6450800Y-9930000D03*
%TD*%
D37*
%TO.C,D1*%
X30233025Y14508975D03*
X31222975Y13519025D03*
%TD*%
D29*
%TO.C,C4*%
X26860200Y10011600D03*
X28410200Y10011600D03*
%TD*%
D38*
%TO.C,R13*%
X-10344637Y-17152637D03*
X-11511363Y-18319363D03*
%TD*%
D15*
%TO.C,R6*%
X-1784000Y29698000D03*
X-1784000Y28048000D03*
%TD*%
D26*
%TO.C,C16*%
X20270800Y-18380000D03*
X18720800Y-18380000D03*
%TD*%
D29*
%TO.C,C3*%
X21698000Y7918000D03*
X23248000Y7918000D03*
%TD*%
D39*
%TO.C,J6*%
X-32161358Y-12714722D03*
X-31593870Y-13828480D03*
X-31026382Y-14942238D03*
X-30458894Y-16055997D03*
X-29891406Y-17169755D03*
X-29323918Y-18283513D03*
D40*
X-31335256Y-21384645D03*
X-35852462Y-12519130D03*
%TD*%
D38*
%TO.C,R12*%
X-8439637Y-19057637D03*
X-9606363Y-20224363D03*
%TD*%
D12*
%TO.C,C23*%
X18750800Y-14040000D03*
X18750800Y-15590000D03*
%TD*%
D41*
%TO.C,U2*%
X27629700Y11982600D03*
X27629700Y12932600D03*
X27629700Y13882600D03*
X25354700Y13882600D03*
X25354700Y11982600D03*
%TD*%
D42*
%TO.C,Y1*%
X-558400Y-17441400D03*
X-558400Y-20041400D03*
X1341600Y-20041400D03*
X1341600Y-17441400D03*
%TD*%
D26*
%TO.C,C22*%
X-3308000Y27857000D03*
X-4858000Y27857000D03*
%TD*%
D43*
%TO.C,J2*%
X26846000Y-2882400D03*
X26846000Y-1632400D03*
X26846000Y-382400D03*
D44*
X30046000Y1467600D03*
X30046000Y-4732400D03*
%TD*%
D17*
%TO.C,R2*%
X23254200Y9884600D03*
X24904200Y9884600D03*
%TD*%
D26*
%TO.C,C1*%
X20962000Y15157000D03*
X19412000Y15157000D03*
%TD*%
D15*
%TO.C,R11*%
X7156800Y18919000D03*
X7156800Y17269000D03*
%TD*%
D10*
%TO.C,R18*%
X10662000Y-31642000D03*
X10662000Y-29992000D03*
%TD*%
D12*
%TO.C,C5*%
X23063200Y13821600D03*
X23063200Y12271600D03*
%TD*%
D26*
%TO.C,C20*%
X2285000Y-14870000D03*
X735000Y-14870000D03*
%TD*%
D20*
%TO.C,C11*%
X1137000Y-34132000D03*
X1137000Y-32582000D03*
%TD*%
D45*
%TO.C,C2*%
X30133008Y16848008D03*
X29036992Y15751992D03*
%TD*%
D12*
%TO.C,C13*%
X16760800Y-24725000D03*
X16760800Y-26275000D03*
%TD*%
D11*
%TO.C,R17*%
X-26144274Y-16108726D03*
X-27311000Y-14942000D03*
%TD*%
D30*
%TO.C,R20*%
X-30125000Y-1300000D03*
X-31775000Y-1300000D03*
%TD*%
%TO.C,R14*%
X1365000Y-13170000D03*
X-285000Y-13170000D03*
%TD*%
D46*
%TO.C,C24*%
X-17064008Y-18665008D03*
X-15967992Y-17568992D03*
%TD*%
D10*
%TO.C,R15*%
X7106000Y-31705000D03*
X7106000Y-30055000D03*
%TD*%
D47*
%TO.C,C7*%
X-17999992Y26419992D03*
X-19096008Y27516008D03*
%TD*%
D30*
%TO.C,R4*%
X-9976000Y32556000D03*
X-11626000Y32556000D03*
%TD*%
D48*
%TO.C,U7*%
X-3238000Y-32607000D03*
X-3238000Y-33107000D03*
X-3238000Y-33607000D03*
X-3238000Y-34107000D03*
X-838000Y-34107000D03*
X-838000Y-33607000D03*
X-838000Y-33107000D03*
X-838000Y-32607000D03*
D49*
X-2038000Y-33357000D03*
%TD*%
D12*
%TO.C,C12*%
X14960000Y-24685000D03*
X14960000Y-26235000D03*
%TD*%
D50*
%TO.C,J5*%
X-34131516Y4651871D03*
X-34131516Y3401871D03*
X-34131516Y2151871D03*
X-34131516Y901871D03*
X-34131516Y-348129D03*
X-34131516Y-1598129D03*
X-34131516Y-2848129D03*
X-34131516Y-4098129D03*
D51*
X-37331516Y-5948129D03*
X-37331516Y6501871D03*
%TD*%
D52*
%TO.C,D5*%
X11820341Y-35113008D03*
X11281659Y-33632992D03*
%TD*%
M02*
