%TF.GenerationSoftware,KiCad,Pcbnew,(5.99.0-10394-g2e15de97e0)*%
%TF.CreationDate,2021-08-25T07:29:16+02:00*%
%TF.ProjectId,USTTHUNDERMILLPCB01A,55535454-4855-44e4-9445-524d494c4c50,rev?*%
%TF.SameCoordinates,Original*%
%TF.FileFunction,Copper,L3,Inr*%
%TF.FilePolarity,Positive*%
%FSLAX46Y46*%
G04 Gerber Fmt 4.6, Leading zero omitted, Abs format (unit mm)*
G04 Created by KiCad (PCBNEW (5.99.0-10394-g2e15de97e0)) date 2021-08-25 07:29:16*
%MOMM*%
%LPD*%
G01*
G04 APERTURE LIST*
%TA.AperFunction,ViaPad*%
%ADD10C,0.800000*%
%TD*%
G04 APERTURE END LIST*
D10*
%TO.N,ROTOR_GND*%
X128905000Y-111506000D03*
X117221000Y-92583000D03*
%TO.N,+5V*%
X112141000Y-99568000D03*
X113200000Y-76750000D03*
%TO.N,+3V3*%
X152797600Y-107304400D03*
X153289000Y-97155000D03*
X142240000Y-104394000D03*
%TO.N,/CPU/RST#_P*%
X155845600Y-105018400D03*
%TO.N,/CPU/PB6*%
X150600000Y-104950000D03*
%TO.N,/CPU/PB7*%
X153305600Y-105780400D03*
%TO.N,/CPU/PB5*%
X155083600Y-106796400D03*
%TO.N,/CPU/TIMEPULSE*%
X149479000Y-99822000D03*
X150114000Y-111760000D03*
%TO.N,Net-(R8-Pad2)*%
X129856800Y-73756000D03*
%TO.N,Net-(R9-Pad2)*%
X146706800Y-75756000D03*
%TO.N,/tachometer/COUNT_1*%
X133424005Y-71707114D03*
X140208000Y-73406000D03*
%TO.N,/CPU/PC1*%
X132334000Y-113411000D03*
X155448000Y-111252000D03*
X138862637Y-114212500D03*
%TO.N,/CPU/PC0*%
X154813000Y-110363000D03*
X115196056Y-95504000D03*
X137668000Y-113450500D03*
X113538000Y-94488000D03*
X130175000Y-111633000D03*
%TO.N,/CPU/RX0*%
X119126000Y-110490000D03*
X144399000Y-114935000D03*
%TO.N,/CPU/TX0*%
X118110000Y-111252000D03*
X144659849Y-115847970D03*
%TO.N,/CPU/TX1*%
X110998000Y-96012000D03*
X148971000Y-112014000D03*
%TO.N,/CPU/RX1*%
X146134019Y-112776000D03*
X110109000Y-97155000D03*
%TO.N,/CPU/BTN*%
X156718000Y-109728000D03*
X165481000Y-107442000D03*
%TO.N,/CPU/GEO_STAT*%
X113792000Y-91948000D03*
X116205000Y-91948000D03*
%TO.N,ROTOR_GND*%
X121793000Y-105410000D03*
X159893000Y-90805000D03*
X113411000Y-103251000D03*
X146050000Y-116078000D03*
X115900000Y-76550000D03*
X125349000Y-99568000D03*
X169164000Y-75057000D03*
X140208000Y-69088000D03*
X115951000Y-113919000D03*
X150876000Y-89408000D03*
X117850000Y-78700000D03*
X136779000Y-115062000D03*
X175900000Y-93950000D03*
X109093000Y-78105000D03*
X138557000Y-77343000D03*
X121412000Y-95758000D03*
X171704000Y-102743000D03*
X148082000Y-85344000D03*
X125222000Y-93726000D03*
X145034000Y-78867000D03*
X116205000Y-94742000D03*
X132400000Y-78800000D03*
X128143000Y-94107000D03*
X122555000Y-96774000D03*
X113792000Y-81026000D03*
X142494000Y-103378000D03*
X165227000Y-86995000D03*
X133858000Y-94107000D03*
X167513000Y-84455000D03*
X125400000Y-78800000D03*
X164719000Y-91440000D03*
X116050000Y-80850000D03*
X128143000Y-93091000D03*
X123317000Y-101727000D03*
X153289000Y-74041000D03*
X151511000Y-109728000D03*
X125603000Y-87884000D03*
X113700000Y-78700000D03*
X130175000Y-107442000D03*
X140843000Y-108331000D03*
X171300000Y-99500000D03*
X134366000Y-98171000D03*
X113284000Y-96139000D03*
X162052000Y-97536000D03*
X153289000Y-91440000D03*
X137160000Y-69215000D03*
X113030000Y-115316000D03*
X117983000Y-104775000D03*
X118110000Y-96520000D03*
X147828000Y-115697000D03*
X131318000Y-100457000D03*
X171950000Y-85600000D03*
X141986000Y-108331000D03*
X131826000Y-103251000D03*
X139954000Y-103378000D03*
X166370000Y-97790000D03*
X162814000Y-91059000D03*
X151765000Y-111633000D03*
X120000000Y-80450000D03*
X131064000Y-90170000D03*
X150241000Y-71628000D03*
X133858000Y-91059000D03*
X160147000Y-95758000D03*
X127000000Y-103251000D03*
X106807000Y-103124000D03*
X136271000Y-109093000D03*
X104775000Y-102235000D03*
X129794000Y-95123000D03*
X111633000Y-116078000D03*
X131826000Y-95123000D03*
X172085000Y-89281000D03*
X129150000Y-78700000D03*
X111760000Y-71882000D03*
X159766000Y-80264000D03*
X160147000Y-76581000D03*
X143383000Y-70358000D03*
X128905000Y-90043000D03*
X168021000Y-109347000D03*
X115000000Y-90450000D03*
X132334000Y-108077000D03*
X153162000Y-80010000D03*
X173355000Y-80518000D03*
X160020000Y-99441000D03*
X114427000Y-114681000D03*
X164846000Y-89154000D03*
X109600000Y-86700000D03*
X123250000Y-76550000D03*
X143129000Y-81407000D03*
X107950000Y-86106000D03*
X106045000Y-86106000D03*
X173736000Y-76962000D03*
X140716000Y-79502000D03*
X113665000Y-86106000D03*
X135650000Y-69750000D03*
X173736000Y-105156000D03*
X113250000Y-88900000D03*
X130810000Y-95123000D03*
X123952000Y-107061000D03*
X121700000Y-78800000D03*
X172085000Y-81280000D03*
X164200000Y-110900000D03*
X162814000Y-85852000D03*
X144272000Y-69342000D03*
X113284000Y-97536000D03*
X161290000Y-90043000D03*
X114173000Y-99060000D03*
X158496000Y-92329000D03*
X173350000Y-99800000D03*
X121412000Y-99822000D03*
X129413000Y-103251000D03*
X107315000Y-76454000D03*
X175514000Y-96266000D03*
X134493000Y-103378000D03*
X107696000Y-78105000D03*
X138200000Y-71200000D03*
X172974000Y-109220000D03*
X127635000Y-107061000D03*
X135382000Y-115062000D03*
X129159000Y-100457000D03*
X162560000Y-87884000D03*
X132842000Y-94107000D03*
X119250000Y-100900000D03*
X106426000Y-81153000D03*
X167386000Y-91567000D03*
X157480000Y-83312000D03*
X113665000Y-72898000D03*
X138049000Y-107188000D03*
X167259000Y-92837000D03*
X129159000Y-105410000D03*
X155829000Y-108839000D03*
X138684000Y-69215000D03*
X133350000Y-96393000D03*
X110617000Y-83185000D03*
X153791944Y-86238056D03*
X173850000Y-93650000D03*
X128270000Y-90805000D03*
X151384000Y-92710000D03*
X104267000Y-86106000D03*
X108331000Y-101981000D03*
X136779000Y-71374000D03*
X117983000Y-90424000D03*
X139650000Y-71150000D03*
X176050000Y-90550000D03*
X142367000Y-71247000D03*
X171950000Y-87700000D03*
X161417000Y-101727000D03*
X113538000Y-84455000D03*
X137922000Y-100457000D03*
X131826000Y-94107000D03*
X124200000Y-80700000D03*
X161163000Y-104902000D03*
X135890000Y-100457000D03*
X168148000Y-99187000D03*
X148717000Y-108966000D03*
X151696444Y-84142556D03*
X139827000Y-105918000D03*
X121750000Y-101800000D03*
X120269000Y-94742000D03*
X174752000Y-79883000D03*
X130048000Y-89916000D03*
X166751000Y-77597000D03*
X175650000Y-99550000D03*
X110200000Y-88350000D03*
X105664000Y-84455000D03*
X115697000Y-104013000D03*
X166116000Y-92837000D03*
X169900000Y-89100000D03*
X127600000Y-80700000D03*
X169545000Y-85852000D03*
X134366000Y-109347000D03*
X110236000Y-71120000D03*
X168783000Y-90297000D03*
X134600000Y-76550000D03*
X147828000Y-81280000D03*
X134400000Y-70900000D03*
X170180000Y-75946000D03*
X133604000Y-100457000D03*
X119761000Y-98298000D03*
X160147000Y-93980000D03*
X145288000Y-83185000D03*
X114554000Y-68326000D03*
X173609000Y-103124000D03*
X129413000Y-96901000D03*
X164211000Y-95250000D03*
X131600000Y-88350000D03*
X133858000Y-114847500D03*
X120500000Y-76550000D03*
X161671000Y-94107000D03*
X139573000Y-115189000D03*
X163449000Y-92456000D03*
X128143000Y-91948000D03*
X118100000Y-76550000D03*
X157480000Y-86614000D03*
X167513000Y-88519000D03*
X155702000Y-76454000D03*
X168656000Y-87376000D03*
X173863000Y-107315000D03*
X165735000Y-109474000D03*
X116713000Y-89281000D03*
X121793000Y-103632000D03*
X115062000Y-93345000D03*
X145288000Y-104902000D03*
X131699000Y-91059000D03*
X136750000Y-74350000D03*
X170815000Y-109474000D03*
X126300000Y-76400000D03*
X165989000Y-90170000D03*
X156591000Y-93599000D03*
X166370000Y-102743000D03*
X150368000Y-87503000D03*
X172847000Y-83439000D03*
X166751000Y-95250000D03*
X134650000Y-73450000D03*
X164973000Y-75057000D03*
X123952000Y-98171000D03*
X153416000Y-83439000D03*
X168910000Y-77724000D03*
X164211000Y-104267000D03*
X124968000Y-103124000D03*
X156591000Y-97536000D03*
X136906000Y-103251000D03*
X121666000Y-107061000D03*
X160020000Y-84201000D03*
X115570000Y-69342000D03*
X150749000Y-95631000D03*
X131815553Y-76230559D03*
X128397000Y-75057000D03*
X106426000Y-101981000D03*
X115570000Y-100330000D03*
X153289000Y-94742000D03*
X115600000Y-97250000D03*
X128778000Y-94996000D03*
X127000000Y-100330000D03*
X132842000Y-91059000D03*
X116967000Y-70739000D03*
X157480000Y-91186000D03*
X110450000Y-80950000D03*
X160147000Y-108077000D03*
X161544000Y-92456000D03*
X105283000Y-103632000D03*
%TO.N,STATOR*%
X174396400Y-73761600D03*
X166420800Y-64262000D03*
X166510000Y-120630000D03*
%TO.N,PA1*%
X164801200Y-76392400D03*
X164775800Y-82513800D03*
X158369000Y-96012000D03*
X158369000Y-100203000D03*
%TO.N,COUNT_2*%
X149656800Y-77956000D03*
X156591000Y-111252000D03*
%TD*%
%TA.AperFunction,Conductor*%
%TO.N,ROTOR_GND*%
G36*
X143407341Y-52523754D02*
G01*
X144590139Y-52554719D01*
X144596726Y-52555064D01*
X146677847Y-52718845D01*
X146684412Y-52719535D01*
X148754125Y-52992076D01*
X148760635Y-52993108D01*
X149434542Y-53117999D01*
X150813237Y-53373504D01*
X150819660Y-53374870D01*
X151791158Y-53608115D01*
X152849593Y-53862233D01*
X152855960Y-53863939D01*
X154857517Y-54456760D01*
X154863798Y-54458800D01*
X156831603Y-55155706D01*
X156837757Y-55158069D01*
X158766465Y-55956945D01*
X158772469Y-55959618D01*
X160065111Y-56576156D01*
X160656611Y-56858278D01*
X160662492Y-56861274D01*
X162497106Y-57857430D01*
X162502816Y-57860727D01*
X164282783Y-58951474D01*
X164288316Y-58955067D01*
X166008677Y-60137429D01*
X166014016Y-60141308D01*
X167670187Y-61412196D01*
X167675310Y-61416345D01*
X168483388Y-62106489D01*
X169262705Y-62772071D01*
X169267581Y-62776462D01*
X170024749Y-63494950D01*
X170781905Y-64213427D01*
X170786574Y-64218096D01*
X170969175Y-64410527D01*
X172223537Y-65732416D01*
X172227928Y-65737292D01*
X172893510Y-66516609D01*
X173583654Y-67324687D01*
X173587803Y-67329810D01*
X174858693Y-68985981D01*
X174862572Y-68991320D01*
X176044930Y-70711681D01*
X176048523Y-70717214D01*
X177139272Y-72497184D01*
X177142569Y-72502894D01*
X178138725Y-74337492D01*
X178141722Y-74343373D01*
X179040387Y-76227535D01*
X179043069Y-76233561D01*
X179841934Y-78162243D01*
X179844295Y-78168391D01*
X179878616Y-78265301D01*
X180541199Y-80136201D01*
X180543239Y-80142482D01*
X181136070Y-82144058D01*
X181137766Y-82150387D01*
X181625129Y-84180316D01*
X181625130Y-84180319D01*
X181626502Y-84186774D01*
X182006895Y-86239360D01*
X182007927Y-86245870D01*
X182280468Y-88315586D01*
X182281158Y-88322150D01*
X182444946Y-90403273D01*
X182445291Y-90409862D01*
X182471958Y-91428649D01*
X182499146Y-92467351D01*
X182499914Y-92496702D01*
X182499914Y-92503285D01*
X182498628Y-92552422D01*
X182445276Y-94590147D01*
X182444931Y-94596734D01*
X182281158Y-96677855D01*
X182280468Y-96684420D01*
X182007922Y-98754118D01*
X182006891Y-98760627D01*
X181626500Y-100813237D01*
X181625127Y-100819694D01*
X181137761Y-102849606D01*
X181136055Y-102855972D01*
X180543239Y-104857525D01*
X180541199Y-104863806D01*
X179844297Y-106831611D01*
X179841934Y-106837765D01*
X179043061Y-108766446D01*
X179040379Y-108772472D01*
X178141714Y-110656633D01*
X178138717Y-110662514D01*
X177142569Y-112497113D01*
X177139272Y-112502823D01*
X176048523Y-114282791D01*
X176044930Y-114288324D01*
X174862572Y-116008684D01*
X174858693Y-116014023D01*
X173587803Y-117670194D01*
X173583654Y-117675317D01*
X172227948Y-119262689D01*
X172223539Y-119267587D01*
X170786583Y-120781905D01*
X170781914Y-120786574D01*
X169267601Y-122223526D01*
X169267582Y-122223544D01*
X169262681Y-122227956D01*
X167675310Y-123583661D01*
X167670187Y-123587810D01*
X166014016Y-124858693D01*
X166008677Y-124862572D01*
X164288316Y-126044938D01*
X164282783Y-126048531D01*
X162502816Y-127139280D01*
X162497106Y-127142577D01*
X160662492Y-128138733D01*
X160656611Y-128141729D01*
X158772469Y-129040393D01*
X158766465Y-129043066D01*
X157802101Y-129442504D01*
X156837747Y-129841938D01*
X156831594Y-129844300D01*
X154863809Y-130541202D01*
X154857527Y-130543243D01*
X152855960Y-131136071D01*
X152849593Y-131137777D01*
X151790082Y-131392150D01*
X150819660Y-131625133D01*
X150813237Y-131626499D01*
X148760623Y-132006905D01*
X148754131Y-132007934D01*
X146684406Y-132280469D01*
X146677861Y-132281157D01*
X145992309Y-132335111D01*
X144596726Y-132444946D01*
X144590137Y-132445291D01*
X143343098Y-132477932D01*
X142503286Y-132499914D01*
X142496715Y-132499914D01*
X141599561Y-132476425D01*
X140409856Y-132445276D01*
X140403269Y-132444931D01*
X138322148Y-132281158D01*
X138315583Y-132280468D01*
X136245881Y-132007922D01*
X136239372Y-132006891D01*
X134186773Y-131626502D01*
X134186758Y-131626499D01*
X134180305Y-131625127D01*
X132150393Y-131137761D01*
X132144027Y-131136055D01*
X130142474Y-130543239D01*
X130136193Y-130541199D01*
X128168392Y-129844297D01*
X128162238Y-129841934D01*
X126233555Y-129043061D01*
X126227529Y-129040379D01*
X124343366Y-128141714D01*
X124337485Y-128138717D01*
X122502888Y-127142569D01*
X122497178Y-127139272D01*
X120717208Y-126048523D01*
X120711675Y-126044930D01*
X118991315Y-124862572D01*
X118985976Y-124858693D01*
X117329805Y-123587803D01*
X117324682Y-123583654D01*
X116516634Y-122893535D01*
X115737286Y-122227928D01*
X115732410Y-122223537D01*
X114690047Y-121234422D01*
X114218090Y-120786574D01*
X114213421Y-120781905D01*
X114069276Y-120630000D01*
X165904500Y-120630000D01*
X165925132Y-120786715D01*
X165985622Y-120932750D01*
X166081847Y-121058153D01*
X166207250Y-121154378D01*
X166353285Y-121214868D01*
X166510000Y-121235500D01*
X166518188Y-121234422D01*
X166658527Y-121215946D01*
X166666715Y-121214868D01*
X166812750Y-121154378D01*
X166938153Y-121058153D01*
X167034378Y-120932750D01*
X167094868Y-120786715D01*
X167115500Y-120630000D01*
X167094868Y-120473285D01*
X167034378Y-120327250D01*
X166938153Y-120201847D01*
X166812750Y-120105622D01*
X166666715Y-120045132D01*
X166510000Y-120024500D01*
X166353285Y-120045132D01*
X166207250Y-120105622D01*
X166081847Y-120201847D01*
X165985622Y-120327250D01*
X165925132Y-120473285D01*
X165904500Y-120630000D01*
X114069276Y-120630000D01*
X113494944Y-120024749D01*
X112776456Y-119267581D01*
X112772065Y-119262705D01*
X112106454Y-118483352D01*
X111416340Y-117675310D01*
X111412191Y-117670187D01*
X110141302Y-116014016D01*
X110137423Y-116008677D01*
X109399511Y-114935000D01*
X143793500Y-114935000D01*
X143814132Y-115091715D01*
X143874622Y-115237750D01*
X143970847Y-115363153D01*
X144076290Y-115444062D01*
X144118156Y-115501399D01*
X144122378Y-115572270D01*
X144115996Y-115592236D01*
X144074981Y-115691255D01*
X144054349Y-115847970D01*
X144074981Y-116004685D01*
X144135471Y-116150720D01*
X144231696Y-116276123D01*
X144357099Y-116372348D01*
X144503134Y-116432838D01*
X144659849Y-116453470D01*
X144668037Y-116452392D01*
X144808376Y-116433916D01*
X144816564Y-116432838D01*
X144962599Y-116372348D01*
X145088002Y-116276123D01*
X145184227Y-116150720D01*
X145244717Y-116004685D01*
X145265349Y-115847970D01*
X145244717Y-115691255D01*
X145184227Y-115545220D01*
X145088002Y-115419817D01*
X144982559Y-115338908D01*
X144940693Y-115281571D01*
X144936471Y-115210700D01*
X144942853Y-115190734D01*
X144983868Y-115091715D01*
X145004500Y-114935000D01*
X144983868Y-114778285D01*
X144923378Y-114632250D01*
X144827153Y-114506847D01*
X144701750Y-114410622D01*
X144555715Y-114350132D01*
X144399000Y-114329500D01*
X144242285Y-114350132D01*
X144096250Y-114410622D01*
X143970847Y-114506847D01*
X143874622Y-114632250D01*
X143814132Y-114778285D01*
X143793500Y-114935000D01*
X109399511Y-114935000D01*
X109015904Y-114376844D01*
X108955061Y-114288316D01*
X108951468Y-114282783D01*
X108417247Y-113411000D01*
X131728500Y-113411000D01*
X131749132Y-113567715D01*
X131809622Y-113713750D01*
X131905847Y-113839153D01*
X132031250Y-113935378D01*
X132177285Y-113995868D01*
X132334000Y-114016500D01*
X132342188Y-114015422D01*
X132482527Y-113996946D01*
X132490715Y-113995868D01*
X132636750Y-113935378D01*
X132762153Y-113839153D01*
X132858378Y-113713750D01*
X132918868Y-113567715D01*
X132934300Y-113450500D01*
X137062500Y-113450500D01*
X137083132Y-113607215D01*
X137143622Y-113753250D01*
X137239847Y-113878653D01*
X137365250Y-113974878D01*
X137511285Y-114035368D01*
X137668000Y-114056000D01*
X137676188Y-114054922D01*
X137816527Y-114036446D01*
X137824715Y-114035368D01*
X137970750Y-113974878D01*
X138096153Y-113878653D01*
X138098164Y-113881273D01*
X138146919Y-113854650D01*
X138217734Y-113859715D01*
X138274570Y-113902262D01*
X138299381Y-113968782D01*
X138290111Y-114025989D01*
X138277769Y-114055785D01*
X138257137Y-114212500D01*
X138277769Y-114369215D01*
X138338259Y-114515250D01*
X138434484Y-114640653D01*
X138559887Y-114736878D01*
X138705922Y-114797368D01*
X138862637Y-114818000D01*
X138870825Y-114816922D01*
X139011164Y-114798446D01*
X139019352Y-114797368D01*
X139165387Y-114736878D01*
X139290790Y-114640653D01*
X139387015Y-114515250D01*
X139447505Y-114369215D01*
X139468137Y-114212500D01*
X139447505Y-114055785D01*
X139387015Y-113909750D01*
X139290790Y-113784347D01*
X139165387Y-113688122D01*
X139019352Y-113627632D01*
X138862637Y-113607000D01*
X138705922Y-113627632D01*
X138559887Y-113688122D01*
X138434484Y-113784347D01*
X138432473Y-113781727D01*
X138383718Y-113808350D01*
X138312903Y-113803285D01*
X138256067Y-113760738D01*
X138231256Y-113694218D01*
X138240526Y-113637011D01*
X138249708Y-113614844D01*
X138252868Y-113607215D01*
X138273500Y-113450500D01*
X138252868Y-113293785D01*
X138192378Y-113147750D01*
X138096153Y-113022347D01*
X137970750Y-112926122D01*
X137824715Y-112865632D01*
X137668000Y-112845000D01*
X137511285Y-112865632D01*
X137365250Y-112926122D01*
X137239847Y-113022347D01*
X137143622Y-113147750D01*
X137083132Y-113293785D01*
X137062500Y-113450500D01*
X132934300Y-113450500D01*
X132939500Y-113411000D01*
X132918868Y-113254285D01*
X132858378Y-113108250D01*
X132762153Y-112982847D01*
X132636750Y-112886622D01*
X132490715Y-112826132D01*
X132334000Y-112805500D01*
X132177285Y-112826132D01*
X132031250Y-112886622D01*
X131905847Y-112982847D01*
X131809622Y-113108250D01*
X131749132Y-113254285D01*
X131728500Y-113411000D01*
X108417247Y-113411000D01*
X108028124Y-112776000D01*
X145528519Y-112776000D01*
X145549151Y-112932715D01*
X145609641Y-113078750D01*
X145705866Y-113204153D01*
X145831269Y-113300378D01*
X145977304Y-113360868D01*
X146134019Y-113381500D01*
X146142207Y-113380422D01*
X146282546Y-113361946D01*
X146290734Y-113360868D01*
X146436769Y-113300378D01*
X146562172Y-113204153D01*
X146658397Y-113078750D01*
X146718887Y-112932715D01*
X146739519Y-112776000D01*
X146718887Y-112619285D01*
X146658397Y-112473250D01*
X146562172Y-112347847D01*
X146554172Y-112341708D01*
X146443320Y-112256649D01*
X146436769Y-112251622D01*
X146290734Y-112191132D01*
X146134019Y-112170500D01*
X145977304Y-112191132D01*
X145831269Y-112251622D01*
X145824718Y-112256649D01*
X145713867Y-112341708D01*
X145705866Y-112347847D01*
X145609641Y-112473250D01*
X145549151Y-112619285D01*
X145528519Y-112776000D01*
X108028124Y-112776000D01*
X107860719Y-112502816D01*
X107857422Y-112497106D01*
X107181356Y-111252000D01*
X117504500Y-111252000D01*
X117525132Y-111408715D01*
X117585622Y-111554750D01*
X117681847Y-111680153D01*
X117807250Y-111776378D01*
X117953285Y-111836868D01*
X118110000Y-111857500D01*
X118118188Y-111856422D01*
X118258527Y-111837946D01*
X118266715Y-111836868D01*
X118412750Y-111776378D01*
X118538153Y-111680153D01*
X118574335Y-111633000D01*
X129569500Y-111633000D01*
X129590132Y-111789715D01*
X129650622Y-111935750D01*
X129746847Y-112061153D01*
X129872250Y-112157378D01*
X130018285Y-112217868D01*
X130175000Y-112238500D01*
X130183188Y-112237422D01*
X130323527Y-112218946D01*
X130331715Y-112217868D01*
X130477750Y-112157378D01*
X130603153Y-112061153D01*
X130639335Y-112014000D01*
X148365500Y-112014000D01*
X148386132Y-112170715D01*
X148446622Y-112316750D01*
X148542847Y-112442153D01*
X148668250Y-112538378D01*
X148814285Y-112598868D01*
X148971000Y-112619500D01*
X148979188Y-112618422D01*
X149119527Y-112599946D01*
X149127715Y-112598868D01*
X149273750Y-112538378D01*
X149399153Y-112442153D01*
X149495378Y-112316750D01*
X149518896Y-112259973D01*
X149563445Y-112204692D01*
X149630808Y-112182271D01*
X149699599Y-112199829D01*
X149712009Y-112208228D01*
X149811250Y-112284378D01*
X149957285Y-112344868D01*
X150114000Y-112365500D01*
X150122188Y-112364422D01*
X150262527Y-112345946D01*
X150270715Y-112344868D01*
X150416750Y-112284378D01*
X150526937Y-112199829D01*
X150535607Y-112193176D01*
X150542153Y-112188153D01*
X150561817Y-112162527D01*
X150633351Y-112069301D01*
X150638378Y-112062750D01*
X150698868Y-111916715D01*
X150719500Y-111760000D01*
X150698868Y-111603285D01*
X150638378Y-111457250D01*
X150542153Y-111331847D01*
X150416750Y-111235622D01*
X150270715Y-111175132D01*
X150114000Y-111154500D01*
X149957285Y-111175132D01*
X149811250Y-111235622D01*
X149685847Y-111331847D01*
X149589622Y-111457250D01*
X149578346Y-111484473D01*
X149566104Y-111514027D01*
X149521555Y-111569308D01*
X149454192Y-111591729D01*
X149385401Y-111574171D01*
X149372991Y-111565772D01*
X149280301Y-111494649D01*
X149273750Y-111489622D01*
X149127715Y-111429132D01*
X148971000Y-111408500D01*
X148814285Y-111429132D01*
X148668250Y-111489622D01*
X148542847Y-111585847D01*
X148537824Y-111592393D01*
X148522557Y-111612289D01*
X148446622Y-111711250D01*
X148386132Y-111857285D01*
X148365500Y-112014000D01*
X130639335Y-112014000D01*
X130699378Y-111935750D01*
X130759868Y-111789715D01*
X130780500Y-111633000D01*
X130759868Y-111476285D01*
X130699378Y-111330250D01*
X130603153Y-111204847D01*
X130477750Y-111108622D01*
X130331715Y-111048132D01*
X130175000Y-111027500D01*
X130018285Y-111048132D01*
X129872250Y-111108622D01*
X129746847Y-111204847D01*
X129650622Y-111330250D01*
X129590132Y-111476285D01*
X129569500Y-111633000D01*
X118574335Y-111633000D01*
X118634378Y-111554750D01*
X118694868Y-111408715D01*
X118715500Y-111252000D01*
X118704683Y-111169838D01*
X118715622Y-111099690D01*
X118762750Y-111046591D01*
X118831104Y-111027401D01*
X118877823Y-111036983D01*
X118969285Y-111074868D01*
X119126000Y-111095500D01*
X119134188Y-111094422D01*
X119274527Y-111075946D01*
X119282715Y-111074868D01*
X119428750Y-111014378D01*
X119554153Y-110918153D01*
X119650378Y-110792750D01*
X119710868Y-110646715D01*
X119731500Y-110490000D01*
X119714780Y-110363000D01*
X154207500Y-110363000D01*
X154228132Y-110519715D01*
X154288622Y-110665750D01*
X154384847Y-110791153D01*
X154510250Y-110887378D01*
X154656285Y-110947868D01*
X154753764Y-110960701D01*
X154818690Y-110989423D01*
X154857782Y-111048688D01*
X154862239Y-111102068D01*
X154842500Y-111252000D01*
X154863132Y-111408715D01*
X154923622Y-111554750D01*
X155019847Y-111680153D01*
X155145250Y-111776378D01*
X155291285Y-111836868D01*
X155448000Y-111857500D01*
X155456188Y-111856422D01*
X155596527Y-111837946D01*
X155604715Y-111836868D01*
X155750750Y-111776378D01*
X155876153Y-111680153D01*
X155881176Y-111673607D01*
X155881180Y-111673603D01*
X155919538Y-111623614D01*
X155976876Y-111581747D01*
X156047747Y-111577525D01*
X156109649Y-111612289D01*
X156119462Y-111623614D01*
X156157820Y-111673603D01*
X156157824Y-111673607D01*
X156162847Y-111680153D01*
X156288250Y-111776378D01*
X156434285Y-111836868D01*
X156591000Y-111857500D01*
X156599188Y-111856422D01*
X156739527Y-111837946D01*
X156747715Y-111836868D01*
X156893750Y-111776378D01*
X157019153Y-111680153D01*
X157115378Y-111554750D01*
X157175868Y-111408715D01*
X157196500Y-111252000D01*
X157175868Y-111095285D01*
X157115378Y-110949250D01*
X157019153Y-110823847D01*
X156893750Y-110727622D01*
X156747715Y-110667132D01*
X156591000Y-110646500D01*
X156434285Y-110667132D01*
X156288250Y-110727622D01*
X156162847Y-110823847D01*
X156157824Y-110830393D01*
X156157820Y-110830397D01*
X156119462Y-110880386D01*
X156062124Y-110922253D01*
X155991253Y-110926475D01*
X155929351Y-110891711D01*
X155919538Y-110880386D01*
X155881180Y-110830397D01*
X155881176Y-110830393D01*
X155876153Y-110823847D01*
X155750750Y-110727622D01*
X155604715Y-110667132D01*
X155507236Y-110654299D01*
X155442310Y-110625577D01*
X155403218Y-110566312D01*
X155398761Y-110512931D01*
X155417422Y-110371188D01*
X155418500Y-110363000D01*
X155397868Y-110206285D01*
X155337378Y-110060250D01*
X155241153Y-109934847D01*
X155115750Y-109838622D01*
X154969715Y-109778132D01*
X154813000Y-109757500D01*
X154656285Y-109778132D01*
X154510250Y-109838622D01*
X154384847Y-109934847D01*
X154288622Y-110060250D01*
X154228132Y-110206285D01*
X154207500Y-110363000D01*
X119714780Y-110363000D01*
X119710868Y-110333285D01*
X119650378Y-110187250D01*
X119554153Y-110061847D01*
X119428750Y-109965622D01*
X119282715Y-109905132D01*
X119126000Y-109884500D01*
X118969285Y-109905132D01*
X118823250Y-109965622D01*
X118697847Y-110061847D01*
X118601622Y-110187250D01*
X118541132Y-110333285D01*
X118520500Y-110490000D01*
X118525417Y-110527344D01*
X118531317Y-110572161D01*
X118520378Y-110642310D01*
X118473250Y-110695409D01*
X118404896Y-110714599D01*
X118358177Y-110705017D01*
X118274344Y-110670292D01*
X118266715Y-110667132D01*
X118110000Y-110646500D01*
X117953285Y-110667132D01*
X117807250Y-110727622D01*
X117681847Y-110823847D01*
X117585622Y-110949250D01*
X117525132Y-111095285D01*
X117504500Y-111252000D01*
X107181356Y-111252000D01*
X106861266Y-110662492D01*
X106858270Y-110656611D01*
X106501352Y-109908292D01*
X106415360Y-109728000D01*
X156112500Y-109728000D01*
X156133132Y-109884715D01*
X156193622Y-110030750D01*
X156289847Y-110156153D01*
X156415250Y-110252378D01*
X156561285Y-110312868D01*
X156718000Y-110333500D01*
X156726188Y-110332422D01*
X156866527Y-110313946D01*
X156874715Y-110312868D01*
X157020750Y-110252378D01*
X157146153Y-110156153D01*
X157242378Y-110030750D01*
X157302868Y-109884715D01*
X157323500Y-109728000D01*
X157302868Y-109571285D01*
X157242378Y-109425250D01*
X157146153Y-109299847D01*
X157020750Y-109203622D01*
X156874715Y-109143132D01*
X156718000Y-109122500D01*
X156561285Y-109143132D01*
X156415250Y-109203622D01*
X156289847Y-109299847D01*
X156193622Y-109425250D01*
X156133132Y-109571285D01*
X156112500Y-109728000D01*
X106415360Y-109728000D01*
X105959610Y-108772469D01*
X105956932Y-108766454D01*
X105626848Y-107969538D01*
X105351345Y-107304400D01*
X152192100Y-107304400D01*
X152212732Y-107461115D01*
X152273222Y-107607150D01*
X152369447Y-107732553D01*
X152494850Y-107828778D01*
X152640885Y-107889268D01*
X152797600Y-107909900D01*
X152805788Y-107908822D01*
X152946127Y-107890346D01*
X152954315Y-107889268D01*
X153100350Y-107828778D01*
X153225753Y-107732553D01*
X153321978Y-107607150D01*
X153382468Y-107461115D01*
X153384985Y-107442000D01*
X164875500Y-107442000D01*
X164896132Y-107598715D01*
X164956622Y-107744750D01*
X165052847Y-107870153D01*
X165178250Y-107966378D01*
X165324285Y-108026868D01*
X165481000Y-108047500D01*
X165489188Y-108046422D01*
X165629527Y-108027946D01*
X165637715Y-108026868D01*
X165783750Y-107966378D01*
X165909153Y-107870153D01*
X166005378Y-107744750D01*
X166065868Y-107598715D01*
X166086500Y-107442000D01*
X166065868Y-107285285D01*
X166005378Y-107139250D01*
X165909153Y-107013847D01*
X165783750Y-106917622D01*
X165637715Y-106857132D01*
X165481000Y-106836500D01*
X165324285Y-106857132D01*
X165178250Y-106917622D01*
X165052847Y-107013847D01*
X164956622Y-107139250D01*
X164896132Y-107285285D01*
X164875500Y-107442000D01*
X153384985Y-107442000D01*
X153403100Y-107304400D01*
X153382468Y-107147685D01*
X153321978Y-107001650D01*
X153225753Y-106876247D01*
X153121694Y-106796400D01*
X154478100Y-106796400D01*
X154498732Y-106953115D01*
X154559222Y-107099150D01*
X154655447Y-107224553D01*
X154780850Y-107320778D01*
X154926885Y-107381268D01*
X155083600Y-107401900D01*
X155091788Y-107400822D01*
X155232127Y-107382346D01*
X155240315Y-107381268D01*
X155386350Y-107320778D01*
X155511753Y-107224553D01*
X155607978Y-107099150D01*
X155668468Y-106953115D01*
X155689100Y-106796400D01*
X155668468Y-106639685D01*
X155607978Y-106493650D01*
X155511753Y-106368247D01*
X155503753Y-106362108D01*
X155392901Y-106277049D01*
X155386350Y-106272022D01*
X155240315Y-106211532D01*
X155083600Y-106190900D01*
X154926885Y-106211532D01*
X154780850Y-106272022D01*
X154774299Y-106277049D01*
X154663448Y-106362108D01*
X154655447Y-106368247D01*
X154559222Y-106493650D01*
X154498732Y-106639685D01*
X154478100Y-106796400D01*
X153121694Y-106796400D01*
X153100350Y-106780022D01*
X152954315Y-106719532D01*
X152797600Y-106698900D01*
X152640885Y-106719532D01*
X152494850Y-106780022D01*
X152369447Y-106876247D01*
X152273222Y-107001650D01*
X152212732Y-107147685D01*
X152192100Y-107304400D01*
X105351345Y-107304400D01*
X105289825Y-107155873D01*
X105158061Y-106837757D01*
X105155698Y-106831603D01*
X104783411Y-105780400D01*
X152700100Y-105780400D01*
X152720732Y-105937115D01*
X152781222Y-106083150D01*
X152877447Y-106208553D01*
X152883993Y-106213576D01*
X152912308Y-106235303D01*
X153002850Y-106304778D01*
X153148885Y-106365268D01*
X153305600Y-106385900D01*
X153313788Y-106384822D01*
X153454127Y-106366346D01*
X153462315Y-106365268D01*
X153608350Y-106304778D01*
X153698892Y-106235303D01*
X153727207Y-106213576D01*
X153733753Y-106208553D01*
X153829978Y-106083150D01*
X153890468Y-105937115D01*
X153911100Y-105780400D01*
X153890468Y-105623685D01*
X153829978Y-105477650D01*
X153733753Y-105352247D01*
X153608350Y-105256022D01*
X153462315Y-105195532D01*
X153305600Y-105174900D01*
X153148885Y-105195532D01*
X153002850Y-105256022D01*
X152877447Y-105352247D01*
X152781222Y-105477650D01*
X152720732Y-105623685D01*
X152700100Y-105780400D01*
X104783411Y-105780400D01*
X104458793Y-104863798D01*
X104456753Y-104857517D01*
X104319469Y-104394000D01*
X141634500Y-104394000D01*
X141655132Y-104550715D01*
X141715622Y-104696750D01*
X141811847Y-104822153D01*
X141937250Y-104918378D01*
X142083285Y-104978868D01*
X142240000Y-104999500D01*
X142248188Y-104998422D01*
X142388527Y-104979946D01*
X142396715Y-104978868D01*
X142466408Y-104950000D01*
X149994500Y-104950000D01*
X150015132Y-105106715D01*
X150075622Y-105252750D01*
X150171847Y-105378153D01*
X150297250Y-105474378D01*
X150443285Y-105534868D01*
X150600000Y-105555500D01*
X150608188Y-105554422D01*
X150748527Y-105535946D01*
X150756715Y-105534868D01*
X150902750Y-105474378D01*
X151028153Y-105378153D01*
X151124378Y-105252750D01*
X151184868Y-105106715D01*
X151196495Y-105018400D01*
X155240100Y-105018400D01*
X155260732Y-105175115D01*
X155321222Y-105321150D01*
X155417447Y-105446553D01*
X155542850Y-105542778D01*
X155688885Y-105603268D01*
X155845600Y-105623900D01*
X155853788Y-105622822D01*
X155994127Y-105604346D01*
X156002315Y-105603268D01*
X156148350Y-105542778D01*
X156273753Y-105446553D01*
X156369978Y-105321150D01*
X156430468Y-105175115D01*
X156451100Y-105018400D01*
X156430468Y-104861685D01*
X156369978Y-104715650D01*
X156273753Y-104590247D01*
X156148350Y-104494022D01*
X156002315Y-104433532D01*
X155845600Y-104412900D01*
X155688885Y-104433532D01*
X155542850Y-104494022D01*
X155417447Y-104590247D01*
X155321222Y-104715650D01*
X155260732Y-104861685D01*
X155240100Y-105018400D01*
X151196495Y-105018400D01*
X151205500Y-104950000D01*
X151184868Y-104793285D01*
X151124378Y-104647250D01*
X151028153Y-104521847D01*
X150902750Y-104425622D01*
X150756715Y-104365132D01*
X150600000Y-104344500D01*
X150443285Y-104365132D01*
X150297250Y-104425622D01*
X150171847Y-104521847D01*
X150075622Y-104647250D01*
X150015132Y-104793285D01*
X149994500Y-104950000D01*
X142466408Y-104950000D01*
X142542750Y-104918378D01*
X142668153Y-104822153D01*
X142764378Y-104696750D01*
X142824868Y-104550715D01*
X142845500Y-104394000D01*
X142824868Y-104237285D01*
X142764378Y-104091250D01*
X142668153Y-103965847D01*
X142542750Y-103869622D01*
X142396715Y-103809132D01*
X142240000Y-103788500D01*
X142083285Y-103809132D01*
X141937250Y-103869622D01*
X141811847Y-103965847D01*
X141715622Y-104091250D01*
X141655132Y-104237285D01*
X141634500Y-104394000D01*
X104319469Y-104394000D01*
X104232060Y-104098880D01*
X103863926Y-102855942D01*
X103862230Y-102849612D01*
X103374862Y-100819660D01*
X103373493Y-100813221D01*
X103372419Y-100807422D01*
X103142724Y-99568000D01*
X111535500Y-99568000D01*
X111556132Y-99724715D01*
X111616622Y-99870750D01*
X111639258Y-99900250D01*
X111693184Y-99970527D01*
X111712847Y-99996153D01*
X111838250Y-100092378D01*
X111984285Y-100152868D01*
X112141000Y-100173500D01*
X112149188Y-100172422D01*
X112289527Y-100153946D01*
X112297715Y-100152868D01*
X112443750Y-100092378D01*
X112569153Y-99996153D01*
X112588817Y-99970527D01*
X112642742Y-99900250D01*
X112665378Y-99870750D01*
X112685571Y-99822000D01*
X148873500Y-99822000D01*
X148894132Y-99978715D01*
X148954622Y-100124750D01*
X149050847Y-100250153D01*
X149176250Y-100346378D01*
X149322285Y-100406868D01*
X149479000Y-100427500D01*
X149487188Y-100426422D01*
X149627527Y-100407946D01*
X149635715Y-100406868D01*
X149781750Y-100346378D01*
X149907153Y-100250153D01*
X149943335Y-100203000D01*
X157763500Y-100203000D01*
X157784132Y-100359715D01*
X157844622Y-100505750D01*
X157940847Y-100631153D01*
X158066250Y-100727378D01*
X158212285Y-100787868D01*
X158369000Y-100808500D01*
X158377188Y-100807422D01*
X158517527Y-100788946D01*
X158525715Y-100787868D01*
X158671750Y-100727378D01*
X158797153Y-100631153D01*
X158893378Y-100505750D01*
X158953868Y-100359715D01*
X158974500Y-100203000D01*
X158953868Y-100046285D01*
X158893378Y-99900250D01*
X158797153Y-99774847D01*
X158671750Y-99678622D01*
X158525715Y-99618132D01*
X158369000Y-99597500D01*
X158212285Y-99618132D01*
X158066250Y-99678622D01*
X157940847Y-99774847D01*
X157844622Y-99900250D01*
X157784132Y-100046285D01*
X157763500Y-100203000D01*
X149943335Y-100203000D01*
X150003378Y-100124750D01*
X150063868Y-99978715D01*
X150084500Y-99822000D01*
X150063868Y-99665285D01*
X150003378Y-99519250D01*
X149933903Y-99428708D01*
X149912176Y-99400393D01*
X149907153Y-99393847D01*
X149781750Y-99297622D01*
X149635715Y-99237132D01*
X149479000Y-99216500D01*
X149322285Y-99237132D01*
X149176250Y-99297622D01*
X149050847Y-99393847D01*
X149045824Y-99400393D01*
X149024097Y-99428708D01*
X148954622Y-99519250D01*
X148894132Y-99665285D01*
X148873500Y-99822000D01*
X112685571Y-99822000D01*
X112725868Y-99724715D01*
X112746500Y-99568000D01*
X112725868Y-99411285D01*
X112665378Y-99265250D01*
X112569153Y-99139847D01*
X112443750Y-99043622D01*
X112297715Y-98983132D01*
X112141000Y-98962500D01*
X111984285Y-98983132D01*
X111838250Y-99043622D01*
X111712847Y-99139847D01*
X111616622Y-99265250D01*
X111556132Y-99411285D01*
X111535500Y-99568000D01*
X103142724Y-99568000D01*
X103046476Y-99048649D01*
X102993100Y-98760635D01*
X102992068Y-98754125D01*
X102781495Y-97155000D01*
X109503500Y-97155000D01*
X109524132Y-97311715D01*
X109584622Y-97457750D01*
X109680847Y-97583153D01*
X109806250Y-97679378D01*
X109952285Y-97739868D01*
X110109000Y-97760500D01*
X110117188Y-97759422D01*
X110257527Y-97740946D01*
X110265715Y-97739868D01*
X110411750Y-97679378D01*
X110537153Y-97583153D01*
X110633378Y-97457750D01*
X110693868Y-97311715D01*
X110714500Y-97155000D01*
X152683500Y-97155000D01*
X152704132Y-97311715D01*
X152764622Y-97457750D01*
X152860847Y-97583153D01*
X152986250Y-97679378D01*
X153132285Y-97739868D01*
X153289000Y-97760500D01*
X153297188Y-97759422D01*
X153437527Y-97740946D01*
X153445715Y-97739868D01*
X153591750Y-97679378D01*
X153717153Y-97583153D01*
X153813378Y-97457750D01*
X153873868Y-97311715D01*
X153894500Y-97155000D01*
X153873868Y-96998285D01*
X153813378Y-96852250D01*
X153717153Y-96726847D01*
X153591750Y-96630622D01*
X153445715Y-96570132D01*
X153289000Y-96549500D01*
X153132285Y-96570132D01*
X152986250Y-96630622D01*
X152860847Y-96726847D01*
X152764622Y-96852250D01*
X152704132Y-96998285D01*
X152683500Y-97155000D01*
X110714500Y-97155000D01*
X110693868Y-96998285D01*
X110633378Y-96852250D01*
X110537153Y-96726847D01*
X110537712Y-96726418D01*
X110506706Y-96669637D01*
X110508725Y-96641409D01*
X110486162Y-96649825D01*
X110415633Y-96633602D01*
X110411750Y-96630622D01*
X110265715Y-96570132D01*
X110109000Y-96549500D01*
X109952285Y-96570132D01*
X109806250Y-96630622D01*
X109680847Y-96726847D01*
X109584622Y-96852250D01*
X109524132Y-96998285D01*
X109503500Y-97155000D01*
X102781495Y-97155000D01*
X102719528Y-96684412D01*
X102718838Y-96677847D01*
X102666437Y-96012000D01*
X110392500Y-96012000D01*
X110413132Y-96168715D01*
X110473622Y-96314750D01*
X110567097Y-96436569D01*
X110569847Y-96440153D01*
X110569288Y-96440582D01*
X110600294Y-96497363D01*
X110598275Y-96525591D01*
X110620838Y-96517175D01*
X110691367Y-96533398D01*
X110695250Y-96536378D01*
X110841285Y-96596868D01*
X110998000Y-96617500D01*
X111006188Y-96616422D01*
X111146527Y-96597946D01*
X111154715Y-96596868D01*
X111300750Y-96536378D01*
X111426153Y-96440153D01*
X111522378Y-96314750D01*
X111582868Y-96168715D01*
X111603500Y-96012000D01*
X111582868Y-95855285D01*
X111522378Y-95709250D01*
X111426153Y-95583847D01*
X111322094Y-95504000D01*
X114590556Y-95504000D01*
X114611188Y-95660715D01*
X114671678Y-95806750D01*
X114767903Y-95932153D01*
X114893306Y-96028378D01*
X115039341Y-96088868D01*
X115196056Y-96109500D01*
X115204244Y-96108422D01*
X115344583Y-96089946D01*
X115352771Y-96088868D01*
X115498806Y-96028378D01*
X115520150Y-96012000D01*
X157763500Y-96012000D01*
X157784132Y-96168715D01*
X157844622Y-96314750D01*
X157940847Y-96440153D01*
X158066250Y-96536378D01*
X158212285Y-96596868D01*
X158369000Y-96617500D01*
X158377188Y-96616422D01*
X158517527Y-96597946D01*
X158525715Y-96596868D01*
X158671750Y-96536378D01*
X158797153Y-96440153D01*
X158893378Y-96314750D01*
X158953868Y-96168715D01*
X158974500Y-96012000D01*
X158953868Y-95855285D01*
X158893378Y-95709250D01*
X158797153Y-95583847D01*
X158671750Y-95487622D01*
X158525715Y-95427132D01*
X158369000Y-95406500D01*
X158212285Y-95427132D01*
X158066250Y-95487622D01*
X157940847Y-95583847D01*
X157844622Y-95709250D01*
X157784132Y-95855285D01*
X157763500Y-96012000D01*
X115520150Y-96012000D01*
X115624209Y-95932153D01*
X115720434Y-95806750D01*
X115780924Y-95660715D01*
X115801556Y-95504000D01*
X115780924Y-95347285D01*
X115720434Y-95201250D01*
X115624209Y-95075847D01*
X115616209Y-95069708D01*
X115505357Y-94984649D01*
X115498806Y-94979622D01*
X115352771Y-94919132D01*
X115196056Y-94898500D01*
X115039341Y-94919132D01*
X114893306Y-94979622D01*
X114886755Y-94984649D01*
X114775904Y-95069708D01*
X114767903Y-95075847D01*
X114671678Y-95201250D01*
X114611188Y-95347285D01*
X114590556Y-95504000D01*
X111322094Y-95504000D01*
X111300750Y-95487622D01*
X111154715Y-95427132D01*
X110998000Y-95406500D01*
X110841285Y-95427132D01*
X110695250Y-95487622D01*
X110569847Y-95583847D01*
X110473622Y-95709250D01*
X110413132Y-95855285D01*
X110392500Y-96012000D01*
X102666437Y-96012000D01*
X102555057Y-94596726D01*
X102554712Y-94590138D01*
X102552038Y-94488000D01*
X112932500Y-94488000D01*
X112953132Y-94644715D01*
X113013622Y-94790750D01*
X113109847Y-94916153D01*
X113116393Y-94921176D01*
X113144708Y-94942903D01*
X113235250Y-95012378D01*
X113381285Y-95072868D01*
X113538000Y-95093500D01*
X113546188Y-95092422D01*
X113686527Y-95073946D01*
X113694715Y-95072868D01*
X113840750Y-95012378D01*
X113931292Y-94942903D01*
X113959607Y-94921176D01*
X113966153Y-94916153D01*
X114062378Y-94790750D01*
X114122868Y-94644715D01*
X114143500Y-94488000D01*
X114122868Y-94331285D01*
X114062378Y-94185250D01*
X113966153Y-94059847D01*
X113840750Y-93963622D01*
X113694715Y-93903132D01*
X113538000Y-93882500D01*
X113381285Y-93903132D01*
X113235250Y-93963622D01*
X113109847Y-94059847D01*
X113013622Y-94185250D01*
X112953132Y-94331285D01*
X112932500Y-94488000D01*
X102552038Y-94488000D01*
X102501372Y-92552422D01*
X102500086Y-92503285D01*
X102500086Y-92496703D01*
X102500855Y-92467351D01*
X102514449Y-91948000D01*
X113186500Y-91948000D01*
X113207132Y-92104715D01*
X113267622Y-92250750D01*
X113363847Y-92376153D01*
X113489250Y-92472378D01*
X113635285Y-92532868D01*
X113792000Y-92553500D01*
X113800188Y-92552422D01*
X113940527Y-92533946D01*
X113948715Y-92532868D01*
X114094750Y-92472378D01*
X114220153Y-92376153D01*
X114316378Y-92250750D01*
X114376868Y-92104715D01*
X114397500Y-91948000D01*
X115599500Y-91948000D01*
X115620132Y-92104715D01*
X115680622Y-92250750D01*
X115776847Y-92376153D01*
X115902250Y-92472378D01*
X116048285Y-92532868D01*
X116205000Y-92553500D01*
X116213188Y-92552422D01*
X116353527Y-92533946D01*
X116361715Y-92532868D01*
X116507750Y-92472378D01*
X116633153Y-92376153D01*
X116729378Y-92250750D01*
X116789868Y-92104715D01*
X116810500Y-91948000D01*
X116789868Y-91791285D01*
X116729378Y-91645250D01*
X116633153Y-91519847D01*
X116507750Y-91423622D01*
X116361715Y-91363132D01*
X116205000Y-91342500D01*
X116048285Y-91363132D01*
X115902250Y-91423622D01*
X115776847Y-91519847D01*
X115680622Y-91645250D01*
X115620132Y-91791285D01*
X115599500Y-91948000D01*
X114397500Y-91948000D01*
X114376868Y-91791285D01*
X114316378Y-91645250D01*
X114220153Y-91519847D01*
X114094750Y-91423622D01*
X113948715Y-91363132D01*
X113792000Y-91342500D01*
X113635285Y-91363132D01*
X113489250Y-91423622D01*
X113363847Y-91519847D01*
X113267622Y-91645250D01*
X113207132Y-91791285D01*
X113186500Y-91948000D01*
X102514449Y-91948000D01*
X102529787Y-91362054D01*
X102554712Y-90409858D01*
X102555057Y-90403270D01*
X102718838Y-88322148D01*
X102719528Y-88315583D01*
X102992068Y-86245866D01*
X102993100Y-86239356D01*
X103117932Y-85565768D01*
X103373496Y-84186755D01*
X103374862Y-84180332D01*
X103774977Y-82513800D01*
X164170300Y-82513800D01*
X164190932Y-82670515D01*
X164251422Y-82816550D01*
X164347647Y-82941953D01*
X164473050Y-83038178D01*
X164619085Y-83098668D01*
X164775800Y-83119300D01*
X164783988Y-83118222D01*
X164924327Y-83099746D01*
X164932515Y-83098668D01*
X165078550Y-83038178D01*
X165203953Y-82941953D01*
X165300178Y-82816550D01*
X165360668Y-82670515D01*
X165381300Y-82513800D01*
X165360668Y-82357085D01*
X165300178Y-82211050D01*
X165203953Y-82085647D01*
X165078550Y-81989422D01*
X164932515Y-81928932D01*
X164775800Y-81908300D01*
X164619085Y-81928932D01*
X164473050Y-81989422D01*
X164347647Y-82085647D01*
X164251422Y-82211050D01*
X164190932Y-82357085D01*
X164170300Y-82513800D01*
X103774977Y-82513800D01*
X103862230Y-82150379D01*
X103863929Y-82144039D01*
X104350556Y-80501030D01*
X104456758Y-80142457D01*
X104458790Y-80136201D01*
X105155706Y-78168369D01*
X105158054Y-78162254D01*
X105181965Y-78104527D01*
X105243485Y-77956000D01*
X149051300Y-77956000D01*
X149071932Y-78112715D01*
X149132422Y-78258750D01*
X149228647Y-78384153D01*
X149354050Y-78480378D01*
X149500085Y-78540868D01*
X149656800Y-78561500D01*
X149664988Y-78560422D01*
X149805327Y-78541946D01*
X149813515Y-78540868D01*
X149959550Y-78480378D01*
X150084953Y-78384153D01*
X150181178Y-78258750D01*
X150241668Y-78112715D01*
X150262300Y-77956000D01*
X150241668Y-77799285D01*
X150181178Y-77653250D01*
X150084953Y-77527847D01*
X149959550Y-77431622D01*
X149813515Y-77371132D01*
X149656800Y-77350500D01*
X149500085Y-77371132D01*
X149354050Y-77431622D01*
X149228647Y-77527847D01*
X149132422Y-77653250D01*
X149071932Y-77799285D01*
X149051300Y-77956000D01*
X105243485Y-77956000D01*
X105743013Y-76750000D01*
X112594500Y-76750000D01*
X112615132Y-76906715D01*
X112675622Y-77052750D01*
X112771847Y-77178153D01*
X112897250Y-77274378D01*
X113043285Y-77334868D01*
X113200000Y-77355500D01*
X113208188Y-77354422D01*
X113348527Y-77335946D01*
X113356715Y-77334868D01*
X113502750Y-77274378D01*
X113628153Y-77178153D01*
X113724378Y-77052750D01*
X113784868Y-76906715D01*
X113805500Y-76750000D01*
X113784868Y-76593285D01*
X113724378Y-76447250D01*
X113682290Y-76392400D01*
X164195700Y-76392400D01*
X164216332Y-76549115D01*
X164276822Y-76695150D01*
X164373047Y-76820553D01*
X164498450Y-76916778D01*
X164644485Y-76977268D01*
X164801200Y-76997900D01*
X164809388Y-76996822D01*
X164949727Y-76978346D01*
X164957915Y-76977268D01*
X165103950Y-76916778D01*
X165229353Y-76820553D01*
X165325578Y-76695150D01*
X165386068Y-76549115D01*
X165406700Y-76392400D01*
X165386068Y-76235685D01*
X165325578Y-76089650D01*
X165229353Y-75964247D01*
X165103950Y-75868022D01*
X164957915Y-75807532D01*
X164801200Y-75786900D01*
X164644485Y-75807532D01*
X164498450Y-75868022D01*
X164373047Y-75964247D01*
X164276822Y-76089650D01*
X164216332Y-76235685D01*
X164195700Y-76392400D01*
X113682290Y-76392400D01*
X113654903Y-76356708D01*
X113633176Y-76328393D01*
X113628153Y-76321847D01*
X113502750Y-76225622D01*
X113356715Y-76165132D01*
X113200000Y-76144500D01*
X113043285Y-76165132D01*
X112897250Y-76225622D01*
X112771847Y-76321847D01*
X112766824Y-76328393D01*
X112745097Y-76356708D01*
X112675622Y-76447250D01*
X112615132Y-76593285D01*
X112594500Y-76750000D01*
X105743013Y-76750000D01*
X105956937Y-76233528D01*
X105959615Y-76227513D01*
X105977901Y-76189176D01*
X106184508Y-75756000D01*
X146101300Y-75756000D01*
X146121932Y-75912715D01*
X146182422Y-76058750D01*
X146211987Y-76097280D01*
X146263225Y-76164054D01*
X146278647Y-76184153D01*
X146404050Y-76280378D01*
X146550085Y-76340868D01*
X146706800Y-76361500D01*
X146714988Y-76360422D01*
X146855327Y-76341946D01*
X146863515Y-76340868D01*
X147009550Y-76280378D01*
X147134953Y-76184153D01*
X147150376Y-76164054D01*
X147201613Y-76097280D01*
X147231178Y-76058750D01*
X147291668Y-75912715D01*
X147312300Y-75756000D01*
X147291668Y-75599285D01*
X147231178Y-75453250D01*
X147134953Y-75327847D01*
X147009550Y-75231622D01*
X146863515Y-75171132D01*
X146706800Y-75150500D01*
X146550085Y-75171132D01*
X146404050Y-75231622D01*
X146278647Y-75327847D01*
X146182422Y-75453250D01*
X146121932Y-75599285D01*
X146101300Y-75756000D01*
X106184508Y-75756000D01*
X106858274Y-74343373D01*
X106861266Y-74337500D01*
X107177010Y-73756000D01*
X129251300Y-73756000D01*
X129271932Y-73912715D01*
X129332422Y-74058750D01*
X129428647Y-74184153D01*
X129554050Y-74280378D01*
X129700085Y-74340868D01*
X129708273Y-74341946D01*
X129719112Y-74343373D01*
X129856800Y-74361500D01*
X129864988Y-74360422D01*
X130005327Y-74341946D01*
X130013515Y-74340868D01*
X130159550Y-74280378D01*
X130284953Y-74184153D01*
X130381178Y-74058750D01*
X130441668Y-73912715D01*
X130462300Y-73756000D01*
X130441668Y-73599285D01*
X130381178Y-73453250D01*
X130344922Y-73406000D01*
X139602500Y-73406000D01*
X139623132Y-73562715D01*
X139683622Y-73708750D01*
X139779847Y-73834153D01*
X139905250Y-73930378D01*
X140051285Y-73990868D01*
X140208000Y-74011500D01*
X140216188Y-74010422D01*
X140356527Y-73991946D01*
X140364715Y-73990868D01*
X140510750Y-73930378D01*
X140636153Y-73834153D01*
X140691825Y-73761600D01*
X173790900Y-73761600D01*
X173811532Y-73918315D01*
X173872022Y-74064350D01*
X173968247Y-74189753D01*
X174093650Y-74285978D01*
X174239685Y-74346468D01*
X174396400Y-74367100D01*
X174404588Y-74366022D01*
X174544927Y-74347546D01*
X174553115Y-74346468D01*
X174699150Y-74285978D01*
X174824553Y-74189753D01*
X174920778Y-74064350D01*
X174981268Y-73918315D01*
X175001900Y-73761600D01*
X174981268Y-73604885D01*
X174920778Y-73458850D01*
X174824553Y-73333447D01*
X174699150Y-73237222D01*
X174553115Y-73176732D01*
X174534582Y-73174292D01*
X174404588Y-73157178D01*
X174396400Y-73156100D01*
X174388212Y-73157178D01*
X174258219Y-73174292D01*
X174239685Y-73176732D01*
X174093650Y-73237222D01*
X173968247Y-73333447D01*
X173872022Y-73458850D01*
X173811532Y-73604885D01*
X173790900Y-73761600D01*
X140691825Y-73761600D01*
X140732378Y-73708750D01*
X140792868Y-73562715D01*
X140813500Y-73406000D01*
X140792868Y-73249285D01*
X140732378Y-73103250D01*
X140636153Y-72977847D01*
X140510750Y-72881622D01*
X140364715Y-72821132D01*
X140208000Y-72800500D01*
X140051285Y-72821132D01*
X139905250Y-72881622D01*
X139779847Y-72977847D01*
X139683622Y-73103250D01*
X139623132Y-73249285D01*
X139602500Y-73406000D01*
X130344922Y-73406000D01*
X130284953Y-73327847D01*
X130159550Y-73231622D01*
X130013515Y-73171132D01*
X129856800Y-73150500D01*
X129700085Y-73171132D01*
X129554050Y-73231622D01*
X129428647Y-73327847D01*
X129332422Y-73453250D01*
X129271932Y-73599285D01*
X129251300Y-73756000D01*
X107177010Y-73756000D01*
X107857426Y-72502888D01*
X107860723Y-72497178D01*
X108344867Y-71707114D01*
X132818505Y-71707114D01*
X132839137Y-71863829D01*
X132899627Y-72009864D01*
X132995852Y-72135267D01*
X133121255Y-72231492D01*
X133267290Y-72291982D01*
X133424005Y-72312614D01*
X133432193Y-72311536D01*
X133572532Y-72293060D01*
X133580720Y-72291982D01*
X133726755Y-72231492D01*
X133852158Y-72135267D01*
X133948383Y-72009864D01*
X134008873Y-71863829D01*
X134029505Y-71707114D01*
X134008873Y-71550399D01*
X133948383Y-71404364D01*
X133852158Y-71278961D01*
X133726755Y-71182736D01*
X133580720Y-71122246D01*
X133424005Y-71101614D01*
X133267290Y-71122246D01*
X133121255Y-71182736D01*
X132995852Y-71278961D01*
X132899627Y-71404364D01*
X132839137Y-71550399D01*
X132818505Y-71707114D01*
X108344867Y-71707114D01*
X108951472Y-70717208D01*
X108955065Y-70711675D01*
X110137427Y-68991315D01*
X110141306Y-68985976D01*
X111412194Y-67329805D01*
X111416343Y-67324682D01*
X112772053Y-65737305D01*
X112772069Y-65737286D01*
X112776466Y-65732404D01*
X113671168Y-64789538D01*
X114171758Y-64262000D01*
X165815300Y-64262000D01*
X165835932Y-64418715D01*
X165896422Y-64564750D01*
X165992647Y-64690153D01*
X166118050Y-64786378D01*
X166264085Y-64846868D01*
X166420800Y-64867500D01*
X166428988Y-64866422D01*
X166569327Y-64847946D01*
X166577515Y-64846868D01*
X166723550Y-64786378D01*
X166848953Y-64690153D01*
X166945178Y-64564750D01*
X167005668Y-64418715D01*
X167026300Y-64262000D01*
X167005668Y-64105285D01*
X166945178Y-63959250D01*
X166848953Y-63833847D01*
X166723550Y-63737622D01*
X166577515Y-63677132D01*
X166420800Y-63656500D01*
X166264085Y-63677132D01*
X166118050Y-63737622D01*
X165992647Y-63833847D01*
X165896422Y-63959250D01*
X165835932Y-64105285D01*
X165815300Y-64262000D01*
X114171758Y-64262000D01*
X114213425Y-64218090D01*
X114218094Y-64213421D01*
X115732396Y-62776473D01*
X115732414Y-62776456D01*
X115737290Y-62772065D01*
X116516673Y-62106429D01*
X117324686Y-61416340D01*
X117329809Y-61412191D01*
X118985980Y-60141302D01*
X118991319Y-60137423D01*
X120711679Y-58955061D01*
X120717212Y-58951468D01*
X122497182Y-57860719D01*
X122502892Y-57857422D01*
X124337505Y-56861266D01*
X124343386Y-56858270D01*
X124932734Y-56577175D01*
X126227530Y-55959610D01*
X126233534Y-55956937D01*
X127453886Y-55451464D01*
X128162242Y-55158061D01*
X128168396Y-55155698D01*
X130136199Y-54458793D01*
X130142480Y-54456753D01*
X130585424Y-54325562D01*
X132144057Y-53863926D01*
X132150388Y-53862230D01*
X134180335Y-53374862D01*
X134186758Y-53373496D01*
X135565453Y-53117991D01*
X136239360Y-52993100D01*
X136245870Y-52992068D01*
X138315587Y-52719528D01*
X138322152Y-52718838D01*
X140403273Y-52555057D01*
X140409861Y-52554712D01*
X141668400Y-52521768D01*
X142496715Y-52500086D01*
X142503285Y-52500086D01*
X143407341Y-52523754D01*
G37*
%TD.AperFunction*%
%TD*%
M02*
