%TF.GenerationSoftware,KiCad,Pcbnew,7.0.5.1-1-g8f565ef7f0-dirty-deb11*%
%TF.CreationDate,2023-07-01T18:37:16+00:00*%
%TF.ProjectId,USTTHUNDERMILLPCB03,55535454-4855-44e4-9445-524d494c4c50,rev?*%
%TF.SameCoordinates,Original*%
%TF.FileFunction,Copper,L2,Bot*%
%TF.FilePolarity,Positive*%
%FSLAX46Y46*%
G04 Gerber Fmt 4.6, Leading zero omitted, Abs format (unit mm)*
G04 Created by KiCad (PCBNEW 7.0.5.1-1-g8f565ef7f0-dirty-deb11) date 2023-07-01 18:37:16*
%MOMM*%
%LPD*%
G01*
G04 APERTURE LIST*
G04 Aperture macros list*
%AMFreePoly0*
4,1,19,0.500000,-0.750000,0.000000,-0.750000,0.000000,-0.744911,-0.071157,-0.744911,-0.207708,-0.704816,-0.327430,-0.627875,-0.420627,-0.520320,-0.479746,-0.390866,-0.500000,-0.250000,-0.500000,0.250000,-0.479746,0.390866,-0.420627,0.520320,-0.327430,0.627875,-0.207708,0.704816,-0.071157,0.744911,0.000000,0.744911,0.000000,0.750000,0.500000,0.750000,0.500000,-0.750000,0.500000,-0.750000,
$1*%
%AMFreePoly1*
4,1,19,0.000000,0.744911,0.071157,0.744911,0.207708,0.704816,0.327430,0.627875,0.420627,0.520320,0.479746,0.390866,0.500000,0.250000,0.500000,-0.250000,0.479746,-0.390866,0.420627,-0.520320,0.327430,-0.627875,0.207708,-0.704816,0.071157,-0.744911,0.000000,-0.744911,0.000000,-0.750000,-0.500000,-0.750000,-0.500000,0.750000,0.000000,0.750000,0.000000,0.744911,0.000000,0.744911,
$1*%
G04 Aperture macros list end*
%TA.AperFunction,ComponentPad*%
%ADD10C,3.000000*%
%TD*%
%TA.AperFunction,SMDPad,CuDef*%
%ADD11FreePoly0,270.000000*%
%TD*%
%TA.AperFunction,SMDPad,CuDef*%
%ADD12FreePoly1,270.000000*%
%TD*%
%TA.AperFunction,SMDPad,CuDef*%
%ADD13C,2.500000*%
%TD*%
%TA.AperFunction,SMDPad,CuDef*%
%ADD14FreePoly0,90.000000*%
%TD*%
%TA.AperFunction,SMDPad,CuDef*%
%ADD15FreePoly1,90.000000*%
%TD*%
%TA.AperFunction,ViaPad*%
%ADD16C,0.800000*%
%TD*%
%TA.AperFunction,Conductor*%
%ADD17C,0.500000*%
%TD*%
G04 APERTURE END LIST*
%TA.AperFunction,EtchedComponent*%
%TO.C,JP1*%
G36*
X19200000Y16300000D02*
G01*
X18600000Y16300000D01*
X18600000Y16800000D01*
X19200000Y16800000D01*
X19200000Y16300000D01*
G37*
%TD.AperFunction*%
%TA.AperFunction,EtchedComponent*%
%TO.C,JP2*%
G36*
X19300000Y-17100000D02*
G01*
X18700000Y-17100000D01*
X18700000Y-16600000D01*
X19300000Y-16600000D01*
X19300000Y-17100000D01*
G37*
%TD.AperFunction*%
%TD*%
D10*
%TO.P,M2,1*%
%TO.N,GND*%
X-5500000Y9526279D03*
%TD*%
%TO.P,M3,1*%
%TO.N,GND*%
X-5500000Y-9526279D03*
%TD*%
%TO.P,M1,1*%
%TO.N,GND*%
X11000000Y0D03*
%TD*%
D11*
%TO.P,JP1,1,A*%
%TO.N,STATOR_A*%
X18900000Y17200000D03*
D12*
%TO.P,JP1,2,B*%
%TO.N,Net-(JP1-B)*%
X18900000Y15900000D03*
%TD*%
D13*
%TO.P,J1,1*%
%TO.N,STATOR_A*%
X18900000Y19900000D03*
%TD*%
D14*
%TO.P,JP2,1,A*%
%TO.N,STATOR_B*%
X19000000Y-17500000D03*
D15*
%TO.P,JP2,2,B*%
%TO.N,Net-(JP1-B)*%
X19000000Y-16200000D03*
%TD*%
D13*
%TO.P,J2,1*%
%TO.N,STATOR_B*%
X18900000Y-20200000D03*
%TD*%
D16*
%TO.N,STATOR_A*%
X18900000Y19100000D03*
%TO.N,STATOR_B*%
X18900000Y-19300000D03*
%TO.N,GND*%
X37051635Y-409465D03*
X-34957193Y-12287634D03*
X-32292389Y-18171210D03*
X-37051635Y409465D03*
X-34677103Y13057177D03*
X-28646398Y-23502663D03*
X-36559840Y-6030705D03*
X-36417634Y6837193D03*
X28646398Y23502663D03*
X31882925Y-18880424D03*
X34957193Y12287634D03*
X-31882925Y18880424D03*
X28120000Y-24130000D03*
X36417634Y-6837193D03*
X-28120000Y24130000D03*
X36559840Y6030705D03*
X34677103Y-13057177D03*
X32292389Y18171210D03*
%TD*%
D17*
%TO.N,STATOR_A*%
X18900000Y17200000D02*
X18900000Y19100000D01*
X18900000Y19100000D02*
X18900000Y19900000D01*
%TO.N,STATOR_B*%
X18900000Y-20200000D02*
X18900000Y-17600000D01*
X18900000Y-17600000D02*
X19000000Y-17500000D01*
%TO.N,Net-(JP1-B)*%
X19000000Y15800000D02*
X18900000Y15900000D01*
X19000000Y-16200000D02*
X19000000Y15800000D01*
%TD*%
%TA.AperFunction,Conductor*%
%TO.N,GND*%
G36*
X1962942Y39948113D02*
G01*
X2092099Y39944731D01*
X2094676Y39944597D01*
X3760226Y39813521D01*
X4179784Y39780502D01*
X4182363Y39780231D01*
X4537171Y39733510D01*
X6256062Y39507165D01*
X6258553Y39506770D01*
X8315106Y39125641D01*
X8317620Y39125107D01*
X10351412Y38636817D01*
X10353896Y38636152D01*
X12359352Y38042175D01*
X12361743Y38041398D01*
X14333317Y37343158D01*
X14335674Y37342254D01*
X16268136Y36541822D01*
X16270443Y36540794D01*
X16270462Y36540785D01*
X18158209Y35640406D01*
X18160489Y35639245D01*
X19998612Y34641184D01*
X20000831Y34639903D01*
X21784242Y33547046D01*
X21786374Y33545661D01*
X23484749Y32378410D01*
X23510041Y32361027D01*
X23512129Y32359510D01*
X24251974Y31791779D01*
X25171463Y31086195D01*
X25173470Y31084570D01*
X26763897Y29726253D01*
X26765794Y29724544D01*
X28283014Y28284831D01*
X28284849Y28282996D01*
X29724541Y26765799D01*
X29726252Y26763900D01*
X31084558Y25173486D01*
X31084562Y25173481D01*
X31086192Y25171468D01*
X32359510Y23512132D01*
X32361034Y23510033D01*
X33219725Y22260617D01*
X33545639Y21786404D01*
X33545644Y21786398D01*
X33547047Y21784238D01*
X33770109Y21420228D01*
X34639887Y20000854D01*
X34641182Y19998611D01*
X35639238Y18160515D01*
X35640415Y18158204D01*
X36540791Y16270455D01*
X36541830Y16268121D01*
X37342232Y14335730D01*
X37343160Y14333312D01*
X38041387Y12361769D01*
X38042189Y12359301D01*
X38636152Y10353902D01*
X38636822Y10351400D01*
X39125105Y8317637D01*
X39125644Y8315101D01*
X39357717Y7062848D01*
X39476501Y6421894D01*
X39506765Y6258594D01*
X39507171Y6256036D01*
X39780232Y4182366D01*
X39780503Y4179787D01*
X39944604Y2094690D01*
X39944739Y2092101D01*
X39999466Y1297D01*
X39999466Y-1294D01*
X39944724Y-2092109D01*
X39944589Y-2094697D01*
X39780503Y-4179792D01*
X39780232Y-4182371D01*
X39507166Y-6256018D01*
X39506760Y-6258576D01*
X39125640Y-8315119D01*
X39125101Y-8317655D01*
X38636813Y-10351410D01*
X38636143Y-10353912D01*
X38042191Y-12359301D01*
X38041389Y-12361769D01*
X37343158Y-14333326D01*
X37342230Y-14335745D01*
X36541837Y-16268091D01*
X36540783Y-16270459D01*
X35640403Y-18158216D01*
X35639226Y-18160527D01*
X34641182Y-19998617D01*
X34639887Y-20000860D01*
X33547056Y-21784227D01*
X33545644Y-21786401D01*
X32361034Y-23510035D01*
X32359510Y-23512134D01*
X31086192Y-25171470D01*
X31084562Y-25173483D01*
X30138096Y-26281682D01*
X29726291Y-26763859D01*
X29726266Y-26763888D01*
X29724532Y-26765813D01*
X28284840Y-28283013D01*
X28283005Y-28284848D01*
X26765784Y-29724559D01*
X26763859Y-29726293D01*
X25173475Y-31084569D01*
X25171463Y-31086199D01*
X23512130Y-32359508D01*
X23510033Y-32361032D01*
X21786385Y-33545657D01*
X21784211Y-33547069D01*
X20000836Y-34639905D01*
X19998593Y-34641200D01*
X18160512Y-35639238D01*
X18158201Y-35640415D01*
X16270476Y-36540788D01*
X16268108Y-36541843D01*
X14335689Y-37342247D01*
X14333271Y-37343175D01*
X12789183Y-37890022D01*
X12361760Y-38041396D01*
X12359303Y-38042194D01*
X10353899Y-38636159D01*
X10351397Y-38636829D01*
X8317626Y-39125106D01*
X8315090Y-39125645D01*
X6258584Y-39506773D01*
X6256025Y-39507179D01*
X4182363Y-39780232D01*
X4179784Y-39780503D01*
X2094687Y-39944604D01*
X2092098Y-39944739D01*
X1295Y-39999466D01*
X-1296Y-39999466D01*
X-2092108Y-39944724D01*
X-2094696Y-39944589D01*
X-4179791Y-39780503D01*
X-4182370Y-39780232D01*
X-6256021Y-39507166D01*
X-6258578Y-39506760D01*
X-8315122Y-39125640D01*
X-8317658Y-39125101D01*
X-10351413Y-38636813D01*
X-10353915Y-38636143D01*
X-10448743Y-38608057D01*
X-12359335Y-38042181D01*
X-12361778Y-38041387D01*
X-14333318Y-37343160D01*
X-14335710Y-37342242D01*
X-16268095Y-36541836D01*
X-16270461Y-36540783D01*
X-18158219Y-35640403D01*
X-18160520Y-35639231D01*
X-19998615Y-34641183D01*
X-20000852Y-34639892D01*
X-21783869Y-33547277D01*
X-21784244Y-33547047D01*
X-21786394Y-33545650D01*
X-22260861Y-33219562D01*
X-23510038Y-32361034D01*
X-23512137Y-32359510D01*
X-23512140Y-32359508D01*
X-23806622Y-32133532D01*
X-25171473Y-31086192D01*
X-25173486Y-31084562D01*
X-26763917Y-29726242D01*
X-26765805Y-29724541D01*
X-28283002Y-28284849D01*
X-28284837Y-28283014D01*
X-29724560Y-26765784D01*
X-29726269Y-26763887D01*
X-31084575Y-25173470D01*
X-31086200Y-25171463D01*
X-32359509Y-23512139D01*
X-32359513Y-23512134D01*
X-32359516Y-23512129D01*
X-32361033Y-23510041D01*
X-32377915Y-23485478D01*
X-33545672Y-21786366D01*
X-33547057Y-21784234D01*
X-34517861Y-20200002D01*
X17144592Y-20200002D01*
X17164197Y-20461625D01*
X17164198Y-20461631D01*
X17222580Y-20717419D01*
X17318429Y-20961636D01*
X17318438Y-20961655D01*
X17449610Y-21188851D01*
X17449620Y-21188865D01*
X17613185Y-21393970D01*
X17613196Y-21393982D01*
X17805514Y-21572427D01*
X17805516Y-21572428D01*
X17805521Y-21572433D01*
X18022296Y-21720228D01*
X18258677Y-21834063D01*
X18503542Y-21909593D01*
X18509088Y-21911674D01*
X18620197Y-21961144D01*
X18805354Y-22000500D01*
X18805357Y-22000500D01*
X18994643Y-22000500D01*
X18994646Y-22000500D01*
X19179803Y-21961144D01*
X19290929Y-21911665D01*
X19296442Y-21909597D01*
X19541323Y-21834063D01*
X19777704Y-21720228D01*
X19994479Y-21572433D01*
X20186805Y-21393981D01*
X20350386Y-21188857D01*
X20481568Y-20961643D01*
X20577420Y-20717416D01*
X20635802Y-20461630D01*
X20655408Y-20200000D01*
X20635802Y-19938370D01*
X20577420Y-19682584D01*
X20577419Y-19682583D01*
X20577419Y-19682580D01*
X20481570Y-19438363D01*
X20481568Y-19438357D01*
X20481563Y-19438348D01*
X20481561Y-19438344D01*
X20350389Y-19211148D01*
X20350388Y-19211147D01*
X20350386Y-19211143D01*
X20350379Y-19211134D01*
X20186814Y-19006029D01*
X20186803Y-19006017D01*
X19994485Y-18827572D01*
X19994482Y-18827570D01*
X19994479Y-18827567D01*
X19777704Y-18679772D01*
X19750355Y-18666601D01*
X19706544Y-18645502D01*
X19662320Y-18603218D01*
X19650500Y-18556307D01*
X19650500Y-18486274D01*
X19669407Y-18428083D01*
X19708372Y-18396221D01*
X19733155Y-18384904D01*
X19854226Y-18307097D01*
X19962887Y-18212943D01*
X19962890Y-18212940D01*
X20057139Y-18104170D01*
X20134871Y-17983216D01*
X20194658Y-17852300D01*
X20235165Y-17714345D01*
X20245405Y-17643117D01*
X20255647Y-17571894D01*
X20255647Y-17000001D01*
X20255647Y-17000000D01*
X20250500Y-16928039D01*
X20238013Y-16885512D01*
X20235010Y-16843529D01*
X20235163Y-16842459D01*
X20235165Y-16842457D01*
X20247441Y-16757068D01*
X20255647Y-16700004D01*
X20255647Y-16128105D01*
X20243357Y-16042637D01*
X20235165Y-15985655D01*
X20194658Y-15847700D01*
X20134871Y-15716784D01*
X20134865Y-15716774D01*
X20057144Y-15595837D01*
X20057141Y-15595833D01*
X20057140Y-15595832D01*
X20057139Y-15595830D01*
X20057136Y-15595826D01*
X19994354Y-15523372D01*
X19962891Y-15487061D01*
X19962881Y-15487051D01*
X19854237Y-15392912D01*
X19854233Y-15392909D01*
X19854226Y-15392903D01*
X19795975Y-15355467D01*
X19757245Y-15308101D01*
X19750500Y-15272184D01*
X19750500Y15044462D01*
X19769407Y15102653D01*
X19784669Y15119282D01*
X19862887Y15187057D01*
X19862890Y15187060D01*
X19957139Y15295830D01*
X20034871Y15416784D01*
X20094658Y15547700D01*
X20135165Y15685655D01*
X20145405Y15756884D01*
X20155647Y15828106D01*
X20155647Y16399999D01*
X20155647Y16400000D01*
X20150500Y16471961D01*
X20138013Y16514488D01*
X20135010Y16556471D01*
X20135163Y16557541D01*
X20135165Y16557543D01*
X20147441Y16642932D01*
X20155647Y16699996D01*
X20155647Y17271895D01*
X20143357Y17357363D01*
X20135165Y17414345D01*
X20094658Y17552300D01*
X20034871Y17683216D01*
X20034865Y17683226D01*
X19957144Y17804163D01*
X19957141Y17804167D01*
X19957140Y17804168D01*
X19957139Y17804170D01*
X19957136Y17804174D01*
X19894354Y17876628D01*
X19862891Y17912939D01*
X19862881Y17912949D01*
X19754237Y18007088D01*
X19754233Y18007091D01*
X19754226Y18007097D01*
X19695975Y18044533D01*
X19657245Y18091899D01*
X19650500Y18127816D01*
X19650500Y18256309D01*
X19669407Y18314500D01*
X19706543Y18345503D01*
X19777704Y18379772D01*
X19994479Y18527567D01*
X20186805Y18706019D01*
X20350386Y18911143D01*
X20481568Y19138357D01*
X20577420Y19382584D01*
X20635802Y19638370D01*
X20655408Y19900000D01*
X20647900Y20000183D01*
X20635802Y20161626D01*
X20635802Y20161630D01*
X20577420Y20417416D01*
X20577419Y20417417D01*
X20577419Y20417420D01*
X20481570Y20661637D01*
X20481568Y20661643D01*
X20481563Y20661652D01*
X20481561Y20661656D01*
X20350389Y20888852D01*
X20350388Y20888853D01*
X20350386Y20888857D01*
X20350379Y20888866D01*
X20186814Y21093971D01*
X20186803Y21093983D01*
X19994485Y21272428D01*
X19994482Y21272430D01*
X19994479Y21272433D01*
X19777704Y21420228D01*
X19777696Y21420232D01*
X19541325Y21534063D01*
X19290619Y21611395D01*
X19290616Y21611396D01*
X19290615Y21611396D01*
X19290610Y21611397D01*
X19290609Y21611397D01*
X19031185Y21650500D01*
X19031182Y21650500D01*
X18768818Y21650500D01*
X18768814Y21650500D01*
X18509390Y21611397D01*
X18509380Y21611395D01*
X18258674Y21534063D01*
X18022303Y21420232D01*
X18022299Y21420230D01*
X18022296Y21420228D01*
X17805521Y21272433D01*
X17805514Y21272428D01*
X17613196Y21093983D01*
X17613185Y21093971D01*
X17449620Y20888866D01*
X17449610Y20888852D01*
X17318438Y20661656D01*
X17318429Y20661637D01*
X17222580Y20417420D01*
X17164198Y20161632D01*
X17164197Y20161626D01*
X17144592Y19900003D01*
X17144592Y19899998D01*
X17164197Y19638375D01*
X17164198Y19638369D01*
X17222580Y19382581D01*
X17318429Y19138364D01*
X17318438Y19138345D01*
X17449610Y18911149D01*
X17449620Y18911135D01*
X17613185Y18706030D01*
X17613196Y18706018D01*
X17805514Y18527573D01*
X17805516Y18527572D01*
X17805521Y18527567D01*
X18022296Y18379772D01*
X18093455Y18345504D01*
X18137678Y18303223D01*
X18149500Y18256309D01*
X18149500Y18127816D01*
X18130593Y18069625D01*
X18104024Y18044533D01*
X18045774Y18007097D01*
X18045772Y18007096D01*
X18045773Y18007096D01*
X18045770Y18007095D01*
X17937117Y17912947D01*
X17937104Y17912934D01*
X17937093Y17912922D01*
X17842864Y17804175D01*
X17842855Y17804163D01*
X17765134Y17683226D01*
X17765130Y17683219D01*
X17705340Y17552295D01*
X17664835Y17414347D01*
X17664834Y17414341D01*
X17644353Y17271895D01*
X17644353Y16700002D01*
X17649500Y16628040D01*
X17649502Y16628031D01*
X17661986Y16585511D01*
X17664988Y16543532D01*
X17644353Y16400006D01*
X17644353Y15828106D01*
X17664834Y15685660D01*
X17664835Y15685655D01*
X17705342Y15547700D01*
X17765129Y15416784D01*
X17765130Y15416782D01*
X17765134Y15416775D01*
X17842855Y15295838D01*
X17842858Y15295834D01*
X17842861Y15295830D01*
X17842864Y15295826D01*
X17897778Y15232452D01*
X17937108Y15187062D01*
X17937118Y15187052D01*
X18045768Y15092907D01*
X18045781Y15092898D01*
X18166835Y15015102D01*
X18166837Y15015101D01*
X18166845Y15015096D01*
X18191626Y15003779D01*
X18236703Y14962410D01*
X18249500Y14913726D01*
X18249500Y-15272184D01*
X18230593Y-15330375D01*
X18204024Y-15355467D01*
X18145774Y-15392903D01*
X18145772Y-15392904D01*
X18145773Y-15392904D01*
X18145770Y-15392905D01*
X18037117Y-15487053D01*
X18037104Y-15487066D01*
X18037093Y-15487078D01*
X17942864Y-15595825D01*
X17942855Y-15595837D01*
X17865134Y-15716774D01*
X17865130Y-15716781D01*
X17805340Y-15847705D01*
X17764835Y-15985653D01*
X17764834Y-15985659D01*
X17744353Y-16128105D01*
X17744353Y-16699998D01*
X17749500Y-16771960D01*
X17749502Y-16771969D01*
X17761986Y-16814489D01*
X17764988Y-16856468D01*
X17744353Y-16999994D01*
X17744353Y-17571894D01*
X17764834Y-17714340D01*
X17764835Y-17714345D01*
X17805342Y-17852300D01*
X17865129Y-17983216D01*
X17865130Y-17983218D01*
X17865134Y-17983225D01*
X17942855Y-18104162D01*
X17942858Y-18104166D01*
X17942861Y-18104170D01*
X17942864Y-18104174D01*
X17991162Y-18159913D01*
X18037108Y-18212938D01*
X18037118Y-18212948D01*
X18115331Y-18280719D01*
X18146927Y-18333114D01*
X18149500Y-18355538D01*
X18149500Y-18556307D01*
X18130593Y-18614498D01*
X18093456Y-18645502D01*
X18022298Y-18679771D01*
X18022296Y-18679772D01*
X17805521Y-18827567D01*
X17805514Y-18827572D01*
X17613196Y-19006017D01*
X17613185Y-19006029D01*
X17449620Y-19211134D01*
X17449610Y-19211148D01*
X17318438Y-19438344D01*
X17318429Y-19438363D01*
X17222580Y-19682580D01*
X17164198Y-19938368D01*
X17164197Y-19938374D01*
X17144592Y-20199997D01*
X17144592Y-20200002D01*
X-34517861Y-20200002D01*
X-34639909Y-20000835D01*
X-34641192Y-19998612D01*
X-35639250Y-18160496D01*
X-35640414Y-18158209D01*
X-35999171Y-17406035D01*
X-36540802Y-16270443D01*
X-36541830Y-16268136D01*
X-37342255Y-14335691D01*
X-37343162Y-14333326D01*
X-38041405Y-12361743D01*
X-38042182Y-12359352D01*
X-38636159Y-10353896D01*
X-38636827Y-10351401D01*
X-39125112Y-8317630D01*
X-39125651Y-8315094D01*
X-39156154Y-8150500D01*
X-39506778Y-6258553D01*
X-39507173Y-6256062D01*
X-39780238Y-4182363D01*
X-39780509Y-4179784D01*
X-39890095Y-2787293D01*
X-39944604Y-2094663D01*
X-39944738Y-2092088D01*
X-39955149Y-1694376D01*
X-39999468Y-1259D01*
X-39999468Y1D01*
X-8155468Y1D01*
X-8135602Y-568898D01*
X-8076100Y-1135025D01*
X-7977255Y-1695599D01*
X-7977247Y-1695634D01*
X-7839541Y-2247948D01*
X-7663630Y-2789345D01*
X-7450395Y-3317119D01*
X-7200846Y-3828770D01*
X-7200842Y-3828777D01*
X-6916238Y-4321725D01*
X-6916232Y-4321736D01*
X-6916229Y-4321740D01*
X-6597912Y-4793664D01*
X-6597910Y-4793666D01*
X-6247443Y-5242244D01*
X-6247438Y-5242249D01*
X-5866560Y-5665257D01*
X-5866558Y-5665259D01*
X-5866553Y-5665264D01*
X-5457073Y-6060694D01*
X-5026611Y-6421894D01*
X-5021002Y-6426600D01*
X-4866369Y-6538947D01*
X-4560480Y-6761189D01*
X-4086005Y-7057674D01*
X-4077726Y-7062847D01*
X-3648131Y-7291266D01*
X-3575122Y-7330086D01*
X-3055092Y-7561618D01*
X-2520178Y-7756311D01*
X-1972986Y-7913216D01*
X-1416182Y-8031568D01*
X-852479Y-8110791D01*
X-284622Y-8150500D01*
X-284614Y-8150500D01*
X284614Y-8150500D01*
X284622Y-8150500D01*
X852479Y-8110791D01*
X1416182Y-8031568D01*
X1972986Y-7913216D01*
X2520178Y-7756311D01*
X3055092Y-7561618D01*
X3575122Y-7330086D01*
X4077734Y-7062842D01*
X4560480Y-6761189D01*
X5021007Y-6426596D01*
X5457073Y-6060694D01*
X5866553Y-5665264D01*
X6247451Y-5242234D01*
X6597912Y-4793664D01*
X6916229Y-4321740D01*
X7200851Y-3828760D01*
X7450391Y-3317128D01*
X7663633Y-2789334D01*
X7839539Y-2247952D01*
X7977251Y-1695617D01*
X8076100Y-1135022D01*
X8135602Y-568897D01*
X8155468Y0D01*
X8135602Y568897D01*
X8076100Y1135022D01*
X7977251Y1695617D01*
X7878080Y2093373D01*
X7839540Y2247949D01*
X7663629Y2789346D01*
X7450394Y3317120D01*
X7450391Y3317128D01*
X7200851Y3828760D01*
X6916229Y4321740D01*
X6597912Y4793664D01*
X6247451Y5242234D01*
X6247447Y5242238D01*
X6247442Y5242245D01*
X6247437Y5242250D01*
X5866559Y5665258D01*
X5866557Y5665260D01*
X5457070Y6060697D01*
X5021001Y6426601D01*
X4751237Y6622596D01*
X4560480Y6761189D01*
X4086005Y7057674D01*
X4077725Y7062848D01*
X3575117Y7330089D01*
X3055090Y7561619D01*
X2520173Y7756313D01*
X2081306Y7882156D01*
X1972986Y7913216D01*
X1416182Y8031568D01*
X852479Y8110791D01*
X284622Y8150500D01*
X-284622Y8150500D01*
X-852479Y8110791D01*
X-1416182Y8031568D01*
X-1972986Y7913216D01*
X-1972989Y7913216D01*
X-1972990Y7913215D01*
X-2520174Y7756313D01*
X-3055091Y7561619D01*
X-3575118Y7330089D01*
X-4077726Y7062848D01*
X-4560479Y6761190D01*
X-5021002Y6426601D01*
X-5457071Y6060697D01*
X-5866558Y5665260D01*
X-5866560Y5665258D01*
X-6247438Y5242250D01*
X-6247443Y5242245D01*
X-6597910Y4793667D01*
X-6916232Y4321737D01*
X-6916238Y4321726D01*
X-7200842Y3828778D01*
X-7200846Y3828771D01*
X-7450395Y3317120D01*
X-7663630Y2789346D01*
X-7839541Y2247949D01*
X-7977247Y1695635D01*
X-7977255Y1695600D01*
X-8076100Y1135026D01*
X-8135602Y568899D01*
X-8155468Y1D01*
X-39999468Y1D01*
X-39999468Y1262D01*
X-39944738Y2092105D01*
X-39944603Y2094694D01*
X-39932541Y2247952D01*
X-39780509Y4179792D01*
X-39780238Y4182370D01*
X-39699743Y4793664D01*
X-39507172Y6256079D01*
X-39506779Y6258558D01*
X-39125647Y8315124D01*
X-39125116Y8317622D01*
X-38636822Y10351433D01*
X-38636157Y10353914D01*
X-38042179Y12359375D01*
X-38041409Y12361743D01*
X-37343162Y14333337D01*
X-37342267Y14335668D01*
X-36541824Y16268159D01*
X-36540809Y16270438D01*
X-35640410Y18158229D01*
X-35639258Y18160491D01*
X-34641179Y19998636D01*
X-34639915Y20000827D01*
X-33547037Y21784271D01*
X-33545675Y21786368D01*
X-32361023Y23510061D01*
X-32359532Y23512113D01*
X-31086192Y25171480D01*
X-31084587Y25173462D01*
X-29726239Y26763926D01*
X-29724569Y26765781D01*
X-28284813Y28283042D01*
X-28283019Y28284836D01*
X-26765778Y29724572D01*
X-26763923Y29726242D01*
X-25173434Y31084611D01*
X-25171502Y31086175D01*
X-23512107Y32359538D01*
X-23510077Y32361013D01*
X-21786373Y33545673D01*
X-21784276Y33547035D01*
X-20000831Y34639914D01*
X-19998641Y34641178D01*
X-18160475Y35639264D01*
X-18158230Y35640406D01*
X-16270457Y36540798D01*
X-16268158Y36541822D01*
X-14335670Y37342264D01*
X-14333339Y37343159D01*
X-12361731Y38041411D01*
X-12359363Y38042181D01*
X-10353885Y38636163D01*
X-10351421Y38636823D01*
X-8317619Y39125116D01*
X-8315121Y39125647D01*
X-6258554Y39506779D01*
X-6256075Y39507172D01*
X-4286475Y39766530D01*
X-4182366Y39780238D01*
X-4179787Y39780509D01*
X-4168707Y39781381D01*
X-2094675Y39944604D01*
X-2092102Y39944738D01*
X-2028737Y39946397D01*
X-1262Y39999468D01*
X1260Y39999468D01*
X1962942Y39948113D01*
G37*
%TD.AperFunction*%
%TD*%
M02*
