%TF.GenerationSoftware,KiCad,Pcbnew,6.0.4-6f826c9f35~116~ubuntu20.04.1*%
%TF.CreationDate,2022-04-17T22:29:38+00:00*%
%TF.ProjectId,USTTHUNDERMILLPCB01,55535454-4855-44e4-9445-524d494c4c50,rev?*%
%TF.SameCoordinates,Original*%
%TF.FileFunction,Copper,L2,Inr*%
%TF.FilePolarity,Positive*%
%FSLAX46Y46*%
G04 Gerber Fmt 4.6, Leading zero omitted, Abs format (unit mm)*
G04 Created by KiCad (PCBNEW 6.0.4-6f826c9f35~116~ubuntu20.04.1) date 2022-04-17 22:29:38*
%MOMM*%
%LPD*%
G01*
G04 APERTURE LIST*
%TA.AperFunction,NonConductor*%
%ADD10C,0.100000*%
%TD*%
%TA.AperFunction,NonConductor*%
%ADD11C,0.050000*%
%TD*%
%TA.AperFunction,ViaPad*%
%ADD12C,0.800000*%
%TD*%
%TA.AperFunction,Conductor*%
%ADD13C,0.500000*%
%TD*%
%TA.AperFunction,Conductor*%
%ADD14C,0.250000*%
%TD*%
%TA.AperFunction,Conductor*%
%ADD15C,0.200000*%
%TD*%
G04 APERTURE END LIST*
D10*
X34368301Y14235802D02*
X33145401Y16888403D01*
X36172195Y-8684165D02*
X36742004Y-5819358D01*
X35783203Y8590794D02*
X36346900Y5756794D01*
X33145401Y16888403D02*
X31718200Y19436902D01*
X36686599Y-2887287D02*
X36346900Y-5756786D01*
X24159500Y-28287094D02*
X24159500Y-28287094D01*
X23647399Y-28181793D02*
X23904403Y-28488189D01*
X23899696Y27982904D02*
X26021499Y26021504D01*
X37085296Y2918683D02*
X36742004Y5819363D01*
X28287094Y-24159500D02*
X30095397Y-21865600D01*
X30095397Y-21865600D02*
X31718200Y-19436897D01*
X23647399Y28181804D02*
X23899696Y27982904D01*
X33145401Y-16888397D02*
X34368301Y-14235797D01*
X36800003Y4D02*
X36686599Y-2887287D01*
X24159500Y-28287094D02*
X26304397Y-26304397D01*
X23904396Y28488205D02*
X23647399Y28181804D01*
X37085296Y-2918678D02*
X37199996Y0D01*
X36742004Y5819363D02*
X36172195Y8684174D01*
X24159500Y28287104D02*
X23904396Y28488205D01*
X32789001Y-16706893D02*
X31377197Y-19227897D01*
X35783203Y-8590785D02*
X34998901Y-11371795D01*
X35379302Y-11495399D02*
X36172195Y-8684165D01*
X26021499Y-26021499D02*
X23899703Y-27982894D01*
X36172195Y-8684165D02*
X36742004Y-5819358D01*
X27982894Y-23899696D02*
X26021499Y-26021499D01*
X26304397Y-26304397D02*
X28287094Y-24159500D01*
X36742004Y-5819358D02*
X37085296Y-2918678D01*
X34368301Y14235802D02*
X33145401Y16888403D01*
X33998794Y-14082695D02*
X32789001Y-16706893D01*
X37199996Y0D02*
X37085296Y2918683D01*
X30095397Y21865603D02*
X28287094Y24159504D01*
X36800003Y4D02*
X36686599Y-2887287D01*
X27982894Y23899704D02*
X29771797Y21630505D01*
X31377197Y-19227897D02*
X29771797Y-21630493D01*
X23647399Y28181804D02*
X23899696Y27982904D01*
X36686599Y2887295D02*
X36800003Y4D01*
X23899696Y27982904D02*
X26021499Y26021504D01*
X34998901Y11371804D02*
X35783203Y8590794D01*
X33998794Y-14082695D02*
X32789001Y-16706893D01*
X26021499Y26021504D02*
X27982894Y23899704D01*
X29771797Y-21630493D02*
X27982894Y-23899696D01*
X36346900Y-5756786D02*
X35783203Y-8590785D01*
D11*
G36*
X24159500Y28287104D02*
G01*
X26304397Y26304404D01*
X28287094Y24159504D01*
X30095397Y21865603D01*
X31718200Y19436902D01*
X33145401Y16888403D01*
X34368301Y14235802D01*
X35379302Y11495402D01*
X36172195Y8684174D01*
X36742004Y5819363D01*
X37085296Y2918683D01*
X37199996Y0D01*
X37085296Y-2918678D01*
X36742004Y-5819358D01*
X36172195Y-8684165D01*
X35379302Y-11495399D01*
X34368301Y-14235797D01*
X33145401Y-16888397D01*
X31718200Y-19436897D01*
X30095397Y-21865600D01*
X28287094Y-24159500D01*
X26304397Y-26304397D01*
X24159500Y-28287094D01*
X23904403Y-28488189D01*
X23647399Y-28181793D01*
X23899703Y-27982894D01*
X26021499Y-26021499D01*
X27982894Y-23899696D01*
X29771797Y-21630493D01*
X31377197Y-19227897D01*
X32789001Y-16706893D01*
X33998794Y-14082695D01*
X34998901Y-11371795D01*
X35783203Y-8590785D01*
X36346900Y-5756786D01*
X36686599Y-2887287D01*
X36800003Y4D01*
X36686599Y2887295D01*
X36346900Y5756794D01*
X35783203Y8590794D01*
X34998901Y11371804D01*
X33998794Y14082703D01*
X32789001Y16706904D01*
X31377197Y19227904D01*
X29771797Y21630505D01*
X27982894Y23899704D01*
X26021499Y26021504D01*
X23899696Y27982904D01*
X23647399Y28181804D01*
X23904396Y28488205D01*
X24159500Y28287104D01*
G37*
X24159500Y28287104D02*
X26304397Y26304404D01*
X28287094Y24159504D01*
X30095397Y21865603D01*
X31718200Y19436902D01*
X33145401Y16888403D01*
X34368301Y14235802D01*
X35379302Y11495402D01*
X36172195Y8684174D01*
X36742004Y5819363D01*
X37085296Y2918683D01*
X37199996Y0D01*
X37085296Y-2918678D01*
X36742004Y-5819358D01*
X36172195Y-8684165D01*
X35379302Y-11495399D01*
X34368301Y-14235797D01*
X33145401Y-16888397D01*
X31718200Y-19436897D01*
X30095397Y-21865600D01*
X28287094Y-24159500D01*
X26304397Y-26304397D01*
X24159500Y-28287094D01*
X23904403Y-28488189D01*
X23647399Y-28181793D01*
X23899703Y-27982894D01*
X26021499Y-26021499D01*
X27982894Y-23899696D01*
X29771797Y-21630493D01*
X31377197Y-19227897D01*
X32789001Y-16706893D01*
X33998794Y-14082695D01*
X34998901Y-11371795D01*
X35783203Y-8590785D01*
X36346900Y-5756786D01*
X36686599Y-2887287D01*
X36800003Y4D01*
X36686599Y2887295D01*
X36346900Y5756794D01*
X35783203Y8590794D01*
X34998901Y11371804D01*
X33998794Y14082703D01*
X32789001Y16706904D01*
X31377197Y19227904D01*
X29771797Y21630505D01*
X27982894Y23899704D01*
X26021499Y26021504D01*
X23899696Y27982904D01*
X23647399Y28181804D01*
X23904396Y28488205D01*
X24159500Y28287104D01*
D10*
X37199996Y0D02*
X37085296Y2918683D01*
X36172195Y8684174D02*
X35379302Y11495402D01*
X34998901Y-11371795D02*
X33998794Y-14082695D01*
X36346900Y-5756786D02*
X35783203Y-8590785D01*
X27982894Y23899704D02*
X29771797Y21630505D01*
X35783203Y-8590785D02*
X34998901Y-11371795D01*
X34368301Y-14235797D02*
X35379302Y-11495399D01*
X35379302Y11495402D02*
X34368301Y14235802D01*
X32789001Y16706904D02*
X33998794Y14082703D01*
X36686599Y2887295D02*
X36800003Y4D01*
X26304397Y26304404D02*
X24159500Y28287104D01*
X28287094Y24159504D02*
X26304397Y26304404D01*
X28287094Y24159504D02*
X26304397Y26304404D01*
X36346900Y5756794D02*
X36686599Y2887295D01*
X26021499Y26021504D02*
X27982894Y23899704D01*
X34998901Y11371804D02*
X35783203Y8590794D01*
X34998901Y-11371795D02*
X33998794Y-14082695D01*
X35783203Y8590794D02*
X36346900Y5756794D01*
X32789001Y-16706893D02*
X31377197Y-19227897D01*
X23904396Y28488205D02*
X23647399Y28181804D01*
X23647399Y-28181793D02*
X23904403Y-28488189D01*
X31718200Y19436902D02*
X30095397Y21865603D01*
X29771797Y-21630493D02*
X27982894Y-23899696D01*
X36172195Y8684174D02*
X35379302Y11495402D01*
X24159500Y28287104D02*
X23904396Y28488205D01*
X27982894Y-23899696D02*
X26021499Y-26021499D01*
X26304397Y26304404D02*
X24159500Y28287104D01*
X31718200Y-19436897D02*
X33145401Y-16888397D01*
X31718200Y-19436897D02*
X33145401Y-16888397D01*
X31718200Y19436902D02*
X30095397Y21865603D01*
X36742004Y-5819358D02*
X37085296Y-2918678D01*
X30095397Y21865603D02*
X28287094Y24159504D01*
X37085296Y2918683D02*
X36742004Y5819363D01*
X29771797Y21630505D02*
X31377197Y19227904D01*
X26021499Y-26021499D02*
X23899703Y-27982894D01*
X31377197Y19227904D02*
X32789001Y16706904D01*
X33145401Y-16888397D02*
X34368301Y-14235797D01*
X35379302Y11495402D02*
X34368301Y14235802D01*
X31377197Y-19227897D02*
X29771797Y-21630493D01*
X36686599Y-2887287D02*
X36346900Y-5756786D01*
X33145401Y16888403D02*
X31718200Y19436902D01*
X23904403Y-28488189D02*
X24159500Y-28287094D01*
X29771797Y21630505D02*
X31377197Y19227904D01*
X23899703Y-27982894D02*
X23647399Y-28181793D01*
X24159500Y-28287094D02*
X24159500Y-28287094D01*
X33998794Y14082703D02*
X34998901Y11371804D01*
X35379302Y-11495399D02*
X36172195Y-8684165D01*
X37085296Y-2918678D02*
X37199996Y0D01*
X28287094Y-24159500D02*
X30095397Y-21865600D01*
X36742004Y5819363D02*
X36172195Y8684174D01*
X33998794Y14082703D02*
X34998901Y11371804D01*
X32789001Y16706904D02*
X33998794Y14082703D01*
X30095397Y-21865600D02*
X31718200Y-19436897D01*
X31377197Y19227904D02*
X32789001Y16706904D01*
X26304397Y-26304397D02*
X28287094Y-24159500D01*
X23899703Y-27982894D02*
X23647399Y-28181793D01*
X24159500Y-28287094D02*
X26304397Y-26304397D01*
X36346900Y5756794D02*
X36686599Y2887295D01*
X34368301Y-14235797D02*
X35379302Y-11495399D01*
X23904403Y-28488189D02*
X24159500Y-28287094D01*
D12*
%TO.N,+5V*%
X-30359000Y-7068000D03*
X-29300000Y15750000D03*
%TO.N,+3V3*%
X10297600Y-14804400D03*
X10789000Y-4655000D03*
X-260000Y-11894000D03*
%TO.N,/CPU/RST#_P*%
X13345600Y-12518400D03*
%TO.N,/CPU/PB6*%
X8100000Y-12450000D03*
%TO.N,/CPU/PB7*%
X10805600Y-13280400D03*
%TO.N,/CPU/PB5*%
X12583600Y-14296400D03*
%TO.N,/CPU/TIMEPULSE*%
X6979000Y-7322000D03*
X7614000Y-19260000D03*
%TO.N,Net-(R8-Pad2)*%
X-12643200Y18744000D03*
%TO.N,Net-(R9-Pad2)*%
X4206800Y16744000D03*
%TO.N,/tachometer/COUNT_1*%
X-9075995Y20792886D03*
X-2292000Y19094000D03*
%TO.N,/CPU/PC1*%
X-10166000Y-20911000D03*
X12948000Y-18752000D03*
X-3637363Y-21712500D03*
%TO.N,/CPU/PC0*%
X12313000Y-17863000D03*
X-27303944Y-3004000D03*
X-4832000Y-20950500D03*
X-28962000Y-1988000D03*
X-12325000Y-19133000D03*
%TO.N,/CPU/RX0*%
X-23374000Y-17990000D03*
X1899000Y-22435000D03*
%TO.N,/CPU/TX0*%
X-24390000Y-18752000D03*
X2159849Y-23347970D03*
%TO.N,/CPU/TX1*%
X-31502000Y-3512000D03*
X6471000Y-19514000D03*
%TO.N,/CPU/RX1*%
X3634019Y-20276000D03*
X-32391000Y-4655000D03*
%TO.N,/CPU/BTN*%
X14218000Y-17228000D03*
X22981000Y-14942000D03*
%TO.N,/CPU/GEO_STAT*%
X-28708000Y552000D03*
X-26295000Y552000D03*
%TO.N,ROTOR_GND*%
X-20707000Y-12910000D03*
X17393000Y1695000D03*
X-29089000Y-10751000D03*
X3550000Y-23578000D03*
X-26600000Y15950000D03*
X-17151000Y-7068000D03*
X26664000Y17443000D03*
X-2292000Y23412000D03*
X-26549000Y-21419000D03*
X8376000Y3092000D03*
X-24650000Y13800000D03*
X-5721000Y-22562000D03*
X33400000Y-1450000D03*
X-33407000Y14395000D03*
X-3943000Y15157000D03*
X-21088000Y-3258000D03*
X29204000Y-10243000D03*
X5582000Y7156000D03*
X-17278000Y-1226000D03*
X2534000Y13633000D03*
X-26295000Y-2242000D03*
X-10100000Y13700000D03*
X-14357000Y-1607000D03*
X-19945000Y-4274000D03*
X-28708000Y11474000D03*
X-6000Y-10878000D03*
X22727000Y5505000D03*
X-8642000Y-1607000D03*
X25013000Y8045000D03*
X-17100000Y13700000D03*
X22219000Y1060000D03*
X-26450000Y11650000D03*
X-14357000Y-591000D03*
X-19183000Y-9227000D03*
X10789000Y18459000D03*
X9011000Y-17228000D03*
X-16897000Y4616000D03*
X-28800000Y13800000D03*
X-12325000Y-14942000D03*
X-1657000Y-15831000D03*
X28800000Y-7000000D03*
X-8134000Y-5671000D03*
X-29216000Y-3639000D03*
X19552000Y-5036000D03*
X10789000Y1060000D03*
X-5340000Y23285000D03*
X-29470000Y-22816000D03*
X-24517000Y-12275000D03*
X-24390000Y-4020000D03*
X5328000Y-23197000D03*
X-11182000Y-7957000D03*
X29450000Y6900000D03*
X-514000Y-15831000D03*
X-10674000Y-10751000D03*
X-2546000Y-10878000D03*
X23870000Y-5290000D03*
X20314000Y1441000D03*
X9265000Y-19133000D03*
X-22500000Y12050000D03*
X-11436000Y2330000D03*
X7741000Y20872000D03*
X-8642000Y1441000D03*
X17647000Y-3258000D03*
X-15500000Y-10751000D03*
X-35693000Y-10624000D03*
X-25279000Y-83000D03*
X-6229000Y-16593000D03*
X-37725000Y-9735000D03*
X-12706000Y-2623000D03*
X-30867000Y-23578000D03*
X-10674000Y-2623000D03*
X29585000Y3219000D03*
X-13350000Y13800000D03*
X-30740000Y20618000D03*
X17266000Y12236000D03*
X17647000Y15919000D03*
X883000Y22142000D03*
X-13595000Y2457000D03*
X25521000Y-16847000D03*
X-27500000Y2050000D03*
X-10166000Y-15577000D03*
X10662000Y12490000D03*
X30855000Y11982000D03*
X17520000Y-6941000D03*
X-28073000Y-22181000D03*
X22346000Y3346000D03*
X-32900000Y5800000D03*
X-19250000Y15950000D03*
X629000Y11093000D03*
X-34550000Y6394000D03*
X-36455000Y6394000D03*
X31236000Y15538000D03*
X-1784000Y12998000D03*
X-28835000Y6394000D03*
X-6850000Y22750000D03*
X31236000Y-12656000D03*
X-29250000Y3600000D03*
X-11690000Y-2623000D03*
X-18548000Y-14561000D03*
X-20800000Y13700000D03*
X29585000Y11220000D03*
X21700000Y-18400000D03*
X20314000Y6648000D03*
X1772000Y23158000D03*
X-29216000Y-5036000D03*
X18790000Y2457000D03*
X-28327000Y-6560000D03*
X15996000Y171000D03*
X30850000Y-7300000D03*
X-21088000Y-7322000D03*
X-13087000Y-10751000D03*
X-35185000Y16046000D03*
X33014000Y-3766000D03*
X-8007000Y-10878000D03*
X-34804000Y14395000D03*
X-4300000Y21300000D03*
X30474000Y-16720000D03*
X-14865000Y-14561000D03*
X-7118000Y-22562000D03*
X-13341000Y-7957000D03*
X20060000Y4616000D03*
X-9658000Y-1607000D03*
X-13595000Y-19006000D03*
X-23250000Y-8400000D03*
X-36074000Y11347000D03*
X24886000Y933000D03*
X14980000Y9188000D03*
X-28835000Y19602000D03*
X-4451000Y-14688000D03*
X24759000Y-337000D03*
X-13341000Y-12910000D03*
X13329000Y-16339000D03*
X-3816000Y23285000D03*
X-9150000Y-3893000D03*
X-31883000Y9315000D03*
X11291944Y6261944D03*
X31350000Y-1150000D03*
X-14230000Y1695000D03*
X8884000Y-210000D03*
X-38233000Y6394000D03*
X-34169000Y-9481000D03*
X-5721000Y21126000D03*
X-24517000Y2076000D03*
X-2850000Y21350000D03*
X33550000Y1950000D03*
X-133000Y21253000D03*
X29450000Y4800000D03*
X18917000Y-9227000D03*
X-28962000Y8045000D03*
X-4578000Y-7957000D03*
X-10674000Y-1607000D03*
X-18300000Y11800000D03*
X18663000Y-12402000D03*
X-6610000Y-7957000D03*
X25648000Y-6687000D03*
X6217000Y-16466000D03*
X9196444Y8357444D03*
X-2673000Y-13418000D03*
X-20750000Y-9300000D03*
X-22231000Y-2242000D03*
X32252000Y12617000D03*
X-12452000Y2584000D03*
X24251000Y14903000D03*
X33150000Y-7050000D03*
X-32300000Y4150000D03*
X-36836000Y8045000D03*
X-26803000Y-11513000D03*
X23616000Y-337000D03*
X27400000Y3400000D03*
X-14900000Y11800000D03*
X27045000Y6648000D03*
X-8134000Y-16847000D03*
X-32264000Y21380000D03*
X26283000Y2203000D03*
X-7900000Y15950000D03*
X5328000Y11220000D03*
X-8100000Y21600000D03*
X27680000Y16554000D03*
X-8896000Y-7957000D03*
X-22739000Y-5798000D03*
X17647000Y-1480000D03*
X2788000Y9315000D03*
X-27946000Y24174000D03*
X31109000Y-10624000D03*
X-13087000Y-4401000D03*
X21711000Y-2750000D03*
X-10900000Y4150000D03*
X-8642000Y-22347500D03*
X-22000000Y15950000D03*
X19171000Y-1607000D03*
X-2927000Y-22689000D03*
X20949000Y44000D03*
X-14357000Y552000D03*
X-24400000Y15950000D03*
X14980000Y5886000D03*
X25013000Y3981000D03*
X13202000Y16046000D03*
X26156000Y5124000D03*
X31363000Y-14815000D03*
X23235000Y-16974000D03*
X-25787000Y3219000D03*
X-20707000Y-11132000D03*
X-27438000Y-845000D03*
X2788000Y-12402000D03*
X-10801000Y1441000D03*
X-5750000Y18150000D03*
X28315000Y-16974000D03*
X-16200000Y16100000D03*
X23489000Y2330000D03*
X14091000Y-1099000D03*
X23870000Y-10243000D03*
X7868000Y4997000D03*
X30347000Y9061000D03*
X24251000Y-2750000D03*
X-7850000Y19050000D03*
X22473000Y17443000D03*
X-18548000Y-5671000D03*
X10916000Y9061000D03*
X26410000Y14776000D03*
X21711000Y-11767000D03*
X-17532000Y-10624000D03*
X14091000Y-5036000D03*
X-5594000Y-10751000D03*
X-20834000Y-14561000D03*
X17520000Y8299000D03*
X-26930000Y23158000D03*
X8249000Y-3131000D03*
X-10684447Y16269441D03*
X-14103000Y17443000D03*
X-36074000Y-9481000D03*
X-26930000Y-7830000D03*
X10789000Y-2242000D03*
X-26900000Y-4750000D03*
X-13722000Y-2496000D03*
X-15500000Y-7830000D03*
X-9658000Y1441000D03*
X-25533000Y21761000D03*
X14980000Y1314000D03*
X-32050000Y11550000D03*
X17647000Y-15577000D03*
X19044000Y44000D03*
X-37217000Y-11132000D03*
%TO.N,STATOR*%
X31896400Y18738400D03*
X23920800Y28238000D03*
X24010000Y-28130000D03*
%TO.N,PA1*%
X22301200Y16107600D03*
X22275800Y9986200D03*
X15869000Y-3512000D03*
X15869000Y-7703000D03*
%TO.N,COUNT_2*%
X7156800Y14544000D03*
X14091000Y-18752000D03*
%TD*%
D13*
%TO.N,+5V*%
X-30359000Y14691000D02*
X-29300000Y15750000D01*
X-30359000Y-7068000D02*
X-30359000Y14691000D01*
%TO.N,+3V3*%
X10789000Y-4655000D02*
X8122000Y-4655000D01*
X8122000Y-4655000D02*
X883000Y-11894000D01*
X883000Y-11894000D02*
X-260000Y-11894000D01*
D14*
%TO.N,/CPU/TIMEPULSE*%
X6979000Y-7322000D02*
X6979000Y-18625000D01*
X6979000Y-18625000D02*
X7614000Y-19260000D01*
%TO.N,/tachometer/COUNT_1*%
X-8577109Y20294000D02*
X-9075995Y20792886D01*
X-3492000Y20294000D02*
X-8577109Y20294000D01*
X-2292000Y19094000D02*
X-3492000Y20294000D01*
%TO.N,/CPU/PC1*%
X-10166000Y-20911000D02*
X-9404000Y-21673000D01*
X-9404000Y-21673000D02*
X10027000Y-21673000D01*
X10027000Y-21673000D02*
X12948000Y-18752000D01*
%TO.N,/CPU/PC0*%
X3397742Y-21038000D02*
X3270742Y-20911000D01*
X12313000Y-17863000D02*
X12186000Y-17863000D01*
X3270742Y-20911000D02*
X-8769000Y-20911000D01*
X10096994Y-21038000D02*
X3397742Y-21038000D01*
X-10547000Y-19133000D02*
X-12325000Y-19133000D01*
X-8769000Y-20911000D02*
X-10547000Y-19133000D01*
X11170000Y-18879000D02*
X11170000Y-19964994D01*
X-28962000Y-1988000D02*
X-28319944Y-1988000D01*
X-28319944Y-1988000D02*
X-27303944Y-3004000D01*
X12186000Y-17863000D02*
X11170000Y-18879000D01*
X11170000Y-19964994D02*
X10096994Y-21038000D01*
%TO.N,/CPU/RX0*%
X629000Y-23705000D02*
X1899000Y-22435000D01*
X-22993000Y-17990000D02*
X-17278000Y-23705000D01*
X-17278000Y-23705000D02*
X629000Y-23705000D01*
X-23374000Y-17990000D02*
X-22993000Y-17990000D01*
%TO.N,/CPU/TX0*%
X-23882000Y-18752000D02*
X-18421000Y-24213000D01*
X-24390000Y-18752000D02*
X-23882000Y-18752000D01*
X1294819Y-24213000D02*
X2159849Y-23347970D01*
X-18421000Y-24213000D02*
X1294819Y-24213000D01*
%TO.N,/CPU/TX1*%
X-31502000Y-10116000D02*
X-25660000Y-15958000D01*
X-12325000Y-15958000D02*
X-8769000Y-19514000D01*
X-31502000Y-3512000D02*
X-31502000Y-10116000D01*
X-8769000Y-19514000D02*
X6471000Y-19514000D01*
X-25660000Y-15958000D02*
X-12325000Y-15958000D01*
%TO.N,/CPU/RX1*%
X3634019Y-20276000D02*
X-8769000Y-20276000D01*
X-32391000Y-9989000D02*
X-32391000Y-4655000D01*
X-25787000Y-16593000D02*
X-32391000Y-9989000D01*
X-12452000Y-16593000D02*
X-25787000Y-16593000D01*
X-8769000Y-20276000D02*
X-12452000Y-16593000D01*
%TO.N,/CPU/BTN*%
X14218000Y-17228000D02*
X20695000Y-17228000D01*
X20695000Y-17228000D02*
X22981000Y-14942000D01*
%TO.N,/CPU/GEO_STAT*%
X-26295000Y552000D02*
X-28708000Y552000D01*
D15*
%TO.N,STATOR*%
X33998794Y14082703D02*
X34998901Y11371804D01*
X28287094Y24159504D02*
X26304397Y26304404D01*
X36346900Y-5756786D02*
X35783203Y-8590785D01*
X33998794Y-14082695D02*
X32789001Y-16706893D01*
X36686599Y2887295D02*
X36800003Y4D01*
X23899703Y-27982894D02*
X23647399Y-28181793D01*
X26021499Y-26021499D02*
X23899703Y-27982894D01*
X36800003Y4D02*
X36686599Y-2887287D01*
X32789001Y16706904D02*
X33998794Y14082703D01*
X34368301Y-14235797D02*
X35379302Y-11495399D01*
X23904403Y-28488189D02*
X24159500Y-28287094D01*
X34998901Y11371804D02*
X35783203Y8590794D01*
X26304397Y26304404D02*
X24159500Y28287104D01*
X36742004Y5819363D02*
X36172195Y8684174D01*
X33145401Y16888403D02*
X31718200Y19436902D01*
X24159500Y-28287094D02*
X26304397Y-26304397D01*
X27982894Y23899704D02*
X29771797Y21630505D01*
X31718200Y19436902D02*
X30095397Y21865603D01*
X23647399Y28181804D02*
X23899696Y27982904D01*
X35379302Y-11495399D02*
X36172195Y-8684165D01*
X23647399Y-28181793D02*
X23904403Y-28488189D01*
D14*
X23920800Y28238000D02*
X23743000Y28238000D01*
D15*
X35783203Y8590794D02*
X36346900Y5756794D01*
X31377197Y-19227897D02*
X29771797Y-21630493D01*
X36346900Y5756794D02*
X36686599Y2887295D01*
X36172195Y8684174D02*
X35379302Y11495402D01*
X23904396Y28488205D02*
X23647399Y28181804D01*
X36742004Y-5819358D02*
X37085296Y-2918678D01*
X37199996Y0D02*
X37085296Y2918683D01*
X23899696Y27982904D02*
X26021499Y26021504D01*
X28287094Y-24159500D02*
X30095397Y-21865600D01*
X31718200Y-19436897D02*
X33145401Y-16888397D01*
X37085296Y-2918678D02*
X37199996Y0D01*
X35783203Y-8590785D02*
X34998901Y-11371795D01*
X29771797Y21630505D02*
X31377197Y19227904D01*
X24159500Y-28287094D02*
X24159500Y-28287094D01*
X33145401Y-16888397D02*
X34368301Y-14235797D01*
X26304397Y-26304397D02*
X28287094Y-24159500D01*
X29771797Y-21630493D02*
X27982894Y-23899696D01*
X27982894Y-23899696D02*
X26021499Y-26021499D01*
X35379302Y11495402D02*
X34368301Y14235802D01*
X30095397Y21865603D02*
X28287094Y24159504D01*
X31377197Y19227904D02*
X32789001Y16706904D01*
X30095397Y-21865600D02*
X31718200Y-19436897D01*
X24159500Y28287104D02*
X23904396Y28488205D01*
X34368301Y14235802D02*
X33145401Y16888403D01*
X34998901Y-11371795D02*
X33998794Y-14082695D01*
X26021499Y26021504D02*
X27982894Y23899704D01*
X36172195Y-8684165D02*
X36742004Y-5819358D01*
X37085296Y2918683D02*
X36742004Y5819363D01*
X32789001Y-16706893D02*
X31377197Y-19227897D01*
X36686599Y-2887287D02*
X36346900Y-5756786D01*
D14*
%TO.N,PA1*%
X22301200Y10011600D02*
X22275800Y9986200D01*
X15869000Y-7703000D02*
X15869000Y-3512000D01*
X22301200Y16107600D02*
X22301200Y10011600D01*
%TO.N,COUNT_2*%
X11909089Y4690911D02*
X7156800Y9443200D01*
X11909089Y-16189089D02*
X11909089Y4690911D01*
X14091000Y-18752000D02*
X14091000Y-18371000D01*
X14091000Y-18371000D02*
X11909089Y-16189089D01*
X7156800Y9443200D02*
X7156800Y14544000D01*
%TD*%
M02*
