%TF.GenerationSoftware,KiCad,Pcbnew,6.0.4-6f826c9f35~116~ubuntu20.04.1*%
%TF.CreationDate,2022-04-17T22:29:38+00:00*%
%TF.ProjectId,USTTHUNDERMILLPCB01,55535454-4855-44e4-9445-524d494c4c50,rev?*%
%TF.SameCoordinates,Original*%
%TF.FileFunction,Copper,L4,Bot*%
%TF.FilePolarity,Positive*%
%FSLAX46Y46*%
G04 Gerber Fmt 4.6, Leading zero omitted, Abs format (unit mm)*
G04 Created by KiCad (PCBNEW 6.0.4-6f826c9f35~116~ubuntu20.04.1) date 2022-04-17 22:29:38*
%MOMM*%
%LPD*%
G01*
G04 APERTURE LIST*
G04 Aperture macros list*
%AMRotRect*
0 Rectangle, with rotation*
0 The origin of the aperture is its center*
0 $1 length*
0 $2 width*
0 $3 Rotation angle, in degrees counterclockwise*
0 Add horizontal line*
21,1,$1,$2,0,0,$3*%
G04 Aperture macros list end*
%TA.AperFunction,NonConductor*%
%ADD10C,0.100000*%
%TD*%
%TA.AperFunction,NonConductor*%
%ADD11C,0.050000*%
%TD*%
%TA.AperFunction,SMDPad,CuDef*%
%ADD12RotRect,0.970000X0.950000X160.000000*%
%TD*%
%TA.AperFunction,SMDPad,CuDef*%
%ADD13RotRect,0.970000X1.150000X160.000000*%
%TD*%
%TA.AperFunction,SMDPad,CuDef*%
%ADD14RotRect,0.850000X0.950000X160.000000*%
%TD*%
%TA.AperFunction,SMDPad,CuDef*%
%ADD15RotRect,0.850000X1.150000X160.000000*%
%TD*%
%TA.AperFunction,SMDPad,CuDef*%
%ADD16RotRect,0.970000X0.950000X210.000000*%
%TD*%
%TA.AperFunction,SMDPad,CuDef*%
%ADD17RotRect,0.970000X1.150000X210.000000*%
%TD*%
%TA.AperFunction,SMDPad,CuDef*%
%ADD18RotRect,0.850000X0.950000X210.000000*%
%TD*%
%TA.AperFunction,SMDPad,CuDef*%
%ADD19RotRect,0.850000X1.150000X210.000000*%
%TD*%
%TA.AperFunction,SMDPad,CuDef*%
%ADD20R,1.524000X1.524000*%
%TD*%
%TA.AperFunction,ViaPad*%
%ADD21C,0.800000*%
%TD*%
%TA.AperFunction,Conductor*%
%ADD22C,0.200000*%
%TD*%
%TA.AperFunction,Conductor*%
%ADD23C,0.250000*%
%TD*%
G04 APERTURE END LIST*
D10*
X-3972088Y37791802D02*
X-5840706Y37545804D01*
X19211994Y18014102D02*
X19620994Y18101002D01*
X25958099Y27735404D02*
X25525695Y28145804D01*
X-20607007Y31924204D02*
X-22160307Y30856705D01*
X17664695Y18516800D02*
X18002994Y18271101D01*
X22550689Y20842602D02*
X23328193Y21661002D01*
X-25525708Y28145806D02*
X-25958107Y27735405D01*
X18999992Y32909003D02*
X17343692Y33808302D01*
X19620994Y18101002D02*
X20002994Y18271101D01*
X-4108532Y25271204D02*
X-2675931Y25459805D01*
X-15260607Y34789704D02*
X-15642508Y34619704D01*
X2675926Y25459805D02*
X4108528Y25271204D01*
X-209065Y37989003D02*
X-2093155Y37939702D01*
X-15050503Y20715302D02*
X-14032002Y21415303D01*
X20002994Y18271101D02*
X20341194Y18516800D01*
X9272918Y23864705D02*
X10414695Y23391804D01*
X24045394Y22416001D02*
X24700500Y23105502D01*
X-25525708Y28145806D02*
X-25958107Y27735405D01*
X20823493Y19024502D02*
X21714996Y19962903D01*
X20002994Y18271101D02*
X20341194Y18516800D01*
X-26742807Y25675206D02*
X-26613607Y25277606D01*
X-26613607Y25277606D02*
X-26404507Y24915505D01*
X15260589Y34789702D02*
X13519290Y35511002D01*
X25525695Y28145804D02*
X25426994Y28239504D01*
X-22550707Y20842604D02*
X-21715006Y19962904D01*
X3972072Y37791802D02*
X2093143Y37939702D01*
X7910835Y24347004D02*
X9272918Y23864705D01*
X18384895Y18101002D02*
X18793895Y18014102D01*
X26742797Y25675204D02*
X26786499Y26091004D01*
X18793895Y18014102D02*
X19211994Y18014102D01*
X17129695Y19024502D02*
X17664695Y18516800D01*
X-24833407Y28746506D02*
X-25141707Y28483206D01*
X20341194Y18516800D02*
X20823493Y19024502D01*
X-20607007Y31924204D02*
X-22160307Y30856705D01*
X7693870Y37202405D02*
X5840690Y37545804D01*
X26742797Y26506903D02*
X26613594Y26904503D01*
X24700500Y23105502D02*
X25291397Y23727603D01*
X-18793908Y18014103D02*
X-18384903Y18101002D01*
X-26404507Y27266606D02*
X-26613607Y26904505D01*
X209049Y37989003D02*
X-209065Y37989003D01*
X19211994Y18014102D02*
X19620994Y18101002D01*
X-17129702Y19024502D02*
X-16031003Y19962903D01*
X18999992Y32909003D02*
X17343692Y33808302D01*
X14031997Y21415303D02*
X15050498Y20715302D01*
X-12800002Y22170203D02*
X-11530102Y22859704D01*
X-24435507Y29086306D02*
X-24479807Y29048506D01*
X-14032002Y21415303D02*
X-12800002Y22170203D01*
X-10414704Y23391804D02*
X-9272923Y23864705D01*
X-24435507Y29086306D02*
X-24479807Y29048506D01*
X-25958107Y27735405D02*
X-26124707Y27577305D01*
X18384895Y18101002D02*
X18793895Y18014102D01*
X-9272923Y23864705D02*
X-7910843Y24347004D01*
X-21715006Y19962904D02*
X-20823506Y19024504D01*
X-20341206Y18516804D02*
X-20003006Y18271103D01*
X-26404507Y24915505D02*
X-26124707Y24604704D01*
X-26742807Y26506905D02*
X-26786507Y26091006D01*
X11742591Y36140103D02*
X9935512Y36675404D01*
X20823493Y19024502D02*
X21714996Y19962903D01*
X-25816708Y24280505D02*
X-25291407Y23727604D01*
X-11530102Y22859704D02*
X-10414704Y23391804D01*
X-18003003Y18271103D02*
X-17664702Y18516802D01*
X-4108532Y25271204D02*
X-2675931Y25459805D01*
X11742591Y36140103D02*
X9935512Y36675404D01*
X-21715006Y19962904D02*
X-20823506Y19024504D01*
X26613594Y26904503D02*
X26404495Y27266604D01*
X-20823506Y19024504D02*
X-20341206Y18516804D01*
X-20607007Y31924204D02*
X-22160307Y30856705D01*
X-5840706Y37545804D02*
X-7693886Y37202405D01*
X15642494Y34619702D02*
X15260589Y34789702D01*
X-22160307Y30856705D02*
X-22498507Y30610905D01*
X-20003006Y18271103D02*
X-19621007Y18101004D01*
X-9272923Y23864705D02*
X-7910843Y24347004D01*
X25291397Y23727603D02*
X25816696Y24280503D01*
X24700500Y23105502D02*
X25291397Y23727603D01*
X-17343707Y33808304D02*
X-19000008Y32909005D01*
X17664695Y18516800D02*
X18002994Y18271101D01*
X-7693886Y37202405D02*
X-8102856Y37115403D01*
X2093143Y37939702D02*
X209049Y37989003D01*
X2093143Y37939702D02*
X209049Y37989003D01*
X26613594Y25277604D02*
X26742797Y25675204D01*
X20341194Y18516800D02*
X20823493Y19024502D01*
X-18384903Y18101002D02*
X-18384903Y18101002D01*
X-26742807Y26506905D02*
X-26786507Y26091006D01*
X10414695Y23391804D02*
X11530097Y22859704D01*
X-18384903Y18101002D02*
X-18384903Y18101002D01*
X-17129702Y19024502D02*
X-16031003Y19962903D01*
X-26404507Y24915505D02*
X-26124707Y24604704D01*
X25816696Y24280503D02*
X26124694Y24604702D01*
X26404495Y24915503D02*
X26613594Y25277604D01*
X8102844Y37115403D02*
X7693870Y37202405D01*
X23993789Y29463503D02*
X22498489Y30610903D01*
X6525367Y24757405D02*
X7910835Y24347004D01*
X-16031003Y19962903D02*
X-15050503Y20715302D01*
X-26613607Y26904505D02*
X-26742807Y26506905D01*
X0Y25605505D02*
X1235420Y25573105D01*
X26742797Y25675204D02*
X26786499Y26091004D01*
X18002994Y18271101D02*
X18384895Y18101002D01*
X-18003003Y18271103D02*
X-17664702Y18516802D01*
X26742797Y25675204D02*
X26786499Y26091004D01*
X15642494Y34619702D02*
X15260589Y34789702D01*
X19211994Y18014102D02*
X19620994Y18101002D01*
X-22550707Y20842604D02*
X-21715006Y19962904D01*
X18384895Y18101002D02*
X18793895Y18014102D01*
X-18384903Y18101002D02*
X-18384903Y18101002D01*
X3972072Y37791802D02*
X2093143Y37939702D01*
X-18384903Y18101002D02*
X-18003003Y18271103D01*
X-18003003Y18271103D02*
X-17664702Y18516802D01*
X24833389Y28746504D02*
X24612487Y28935105D01*
X-26742807Y25675206D02*
X-26613607Y25277606D01*
X-12800002Y22170203D02*
X-11530102Y22859704D01*
X26613594Y26904503D02*
X26404495Y27266604D01*
X-11742608Y36140105D02*
X-13519307Y35511004D01*
X-23993807Y29463505D02*
X-24435507Y29086306D01*
X-25958107Y27735405D02*
X-26124707Y27577305D01*
X15260589Y34789702D02*
X13519290Y35511002D01*
X9272918Y23864705D02*
X10414695Y23391804D01*
X24479789Y29048504D02*
X24435485Y29086304D01*
X-11530102Y22859704D02*
X-10414704Y23391804D01*
X-25525708Y28145806D02*
X-25958107Y27735405D01*
X-5840706Y37545804D02*
X-7693886Y37202405D01*
X20002994Y18271101D02*
X20341194Y18516800D01*
X-4108532Y25271204D02*
X-2675931Y25459805D01*
X20823493Y19024502D02*
X21714996Y19962903D01*
X17664695Y18516800D02*
X18002994Y18271101D01*
X-7693886Y37202405D02*
X-8102856Y37115403D01*
X20606990Y31924202D02*
X18999992Y32909003D01*
X-17343707Y33808304D02*
X-19000008Y32909005D01*
X5840690Y37545804D02*
X3972072Y37791802D01*
X-24700507Y23105504D02*
X-24045407Y22416003D01*
X-25427006Y28239506D02*
X-25525708Y28145806D01*
X-26124707Y24604704D02*
X-25816708Y24280505D01*
X-26786507Y26091006D02*
X-26742807Y25675206D01*
X26404495Y24915503D02*
X26613594Y25277604D01*
X7910835Y24347004D02*
X9272918Y23864705D01*
X-25141707Y28483206D02*
X-25427006Y28239506D01*
X-26742807Y25675206D02*
X-26613607Y25277606D01*
X22498489Y30610903D02*
X22160293Y30856703D01*
X-9272923Y23864705D02*
X-7910843Y24347004D01*
X-209065Y37989003D02*
X-2093155Y37939702D01*
X25816696Y24280503D02*
X26124694Y24604702D01*
X-25816708Y24280505D02*
X-25291407Y23727604D01*
X-1235421Y25573105D02*
X0Y25605505D01*
X17343692Y33808302D02*
X15642494Y34619702D01*
X8102844Y37115403D02*
X7693870Y37202405D01*
X-5323670Y25045905D02*
X-4108532Y25271204D01*
X-25816708Y24280505D02*
X-25291407Y23727604D01*
X-17343707Y33808304D02*
X-19000008Y32909005D01*
X-26404507Y27266606D02*
X-26613607Y26904505D01*
X14031997Y21415303D02*
X15050498Y20715302D01*
X19211994Y18014102D02*
X19620994Y18101002D01*
X-17664702Y18516802D02*
X-17129702Y19024502D01*
X26124694Y27577303D02*
X25958099Y27735404D01*
X25141693Y28483204D02*
X24833389Y28746504D01*
X3972072Y37791802D02*
X2093143Y37939702D01*
X15260589Y34789702D02*
X13519290Y35511002D01*
X-2093155Y37939702D02*
X-3972088Y37791802D01*
X-5323670Y25045905D02*
X-4108532Y25271204D01*
X1235420Y25573105D02*
X2675926Y25459805D01*
X-24833407Y28746506D02*
X-25141707Y28483206D01*
X20606990Y31924202D02*
X18999992Y32909003D01*
X15642494Y34619702D02*
X15260589Y34789702D01*
X-19621007Y18101004D02*
X-19212006Y18014103D01*
X24435485Y29086304D02*
X23993789Y29463503D01*
X12799995Y22170203D02*
X14031997Y21415303D01*
X-26124707Y27577305D02*
X-26404507Y27266606D01*
X22498489Y30610903D02*
X22160293Y30856703D01*
X11530097Y22859704D02*
X12799995Y22170203D01*
X24833389Y28746504D02*
X24612487Y28935105D01*
X-24700507Y23105504D02*
X-24045407Y22416003D01*
X-20003006Y18271103D02*
X-19621007Y18101004D01*
X17343692Y33808302D02*
X15642494Y34619702D01*
X-2093155Y37939702D02*
X-3972088Y37791802D01*
X-15260607Y34789704D02*
X-15642508Y34619704D01*
X1235420Y25573105D02*
X2675926Y25459805D01*
X-25141707Y28483206D02*
X-25427006Y28239506D01*
X20341194Y18516800D02*
X20823493Y19024502D01*
X24833389Y28746504D02*
X24612487Y28935105D01*
X24479789Y29048504D02*
X24435485Y29086304D01*
X10414695Y23391804D02*
X11530097Y22859704D01*
X-12800002Y22170203D02*
X-11530102Y22859704D01*
X-26742807Y26506905D02*
X-26786507Y26091006D01*
X-19621007Y18101004D02*
X-19212006Y18014103D01*
X26404495Y24915503D02*
X26613594Y25277604D01*
X-13519307Y35511004D02*
X-15260607Y34789704D01*
X-24700507Y23105504D02*
X-24045407Y22416003D01*
X2093143Y37939702D02*
X3972072Y37791802D01*
X5840690Y37545804D01*
X7693870Y37202405D01*
X8102844Y37115403D01*
X9935512Y36675404D01*
X11742591Y36140103D01*
X13519290Y35511002D01*
X15260589Y34789702D01*
X15642494Y34619702D01*
X17343692Y33808302D01*
X18999992Y32909003D01*
X20606990Y31924202D01*
X22160293Y30856703D01*
X22498489Y30610903D01*
X23993789Y29463503D01*
X24435485Y29086304D01*
X24479789Y29048504D01*
X24612487Y28935105D01*
X24833389Y28746504D01*
X25141693Y28483204D01*
X25426994Y28239504D01*
X25525695Y28145804D01*
X25958099Y27735404D01*
X26124694Y27577303D01*
X26404495Y27266604D01*
X26613594Y26904503D01*
X26742797Y26506903D01*
X26786499Y26091004D01*
X26742797Y25675204D01*
X26613594Y25277604D01*
X26404495Y24915503D01*
X26124694Y24604702D01*
X25816696Y24280503D01*
X25291397Y23727603D01*
X24700500Y23105502D01*
X24045394Y22416001D01*
X23328193Y21661002D01*
X22550689Y20842602D01*
X21714996Y19962903D01*
X20823493Y19024502D01*
X20341194Y18516800D01*
X20002994Y18271101D01*
X19620994Y18101002D01*
X19211994Y18014102D01*
X18793895Y18014102D01*
X18384895Y18101002D01*
X18002994Y18271101D01*
X17664695Y18516800D01*
X17129695Y19024502D01*
X16030998Y19962903D01*
X15050498Y20715302D01*
X14031997Y21415303D01*
X12799995Y22170203D01*
X11530097Y22859704D01*
X10414695Y23391804D01*
X9272918Y23864705D01*
X7910835Y24347004D01*
X6525367Y24757405D01*
X5323669Y25045905D01*
X4108528Y25271204D01*
X2675926Y25459805D01*
X1235420Y25573105D01*
X0Y25605505D01*
X-1235421Y25573105D01*
X-2675931Y25459805D01*
X-4108532Y25271204D01*
X-5323670Y25045905D01*
X-6525372Y24757405D01*
X-7910843Y24347004D01*
X-9272923Y23864705D01*
X-10414704Y23391804D01*
X-11530102Y22859704D01*
X-12800002Y22170203D01*
X-14032002Y21415303D01*
X-15050503Y20715302D01*
X-16031003Y19962903D01*
X-17129702Y19024502D01*
X-17664702Y18516802D01*
X-18003003Y18271103D01*
X-18384903Y18101002D01*
X-18793908Y18014103D01*
X-19212006Y18014103D01*
X-19621007Y18101004D01*
X-20003006Y18271103D01*
X-20341206Y18516804D01*
X-20823506Y19024504D01*
X-21715006Y19962904D01*
X-22550707Y20842604D01*
X-23328208Y21661004D01*
X-24045407Y22416003D01*
X-24700507Y23105504D01*
X-25291407Y23727604D01*
X-25816708Y24280505D01*
X-26124707Y24604704D01*
X-26404507Y24915505D01*
X-26613607Y25277606D01*
X-26742807Y25675206D01*
X-26786507Y26091006D01*
X-26742807Y26506905D01*
X-26613607Y26904505D01*
X-26404507Y27266606D01*
X-26124707Y27577305D01*
X-25958107Y27735405D01*
X-25525708Y28145806D01*
X-25427006Y28239506D01*
X-25141707Y28483206D01*
X-24833407Y28746506D01*
X-24612507Y28935107D01*
X-24479807Y29048506D01*
X-24435507Y29086306D01*
X-23993807Y29463505D01*
X-22498507Y30610905D01*
X-22160307Y30856705D01*
X-20607007Y31924204D01*
X-19000008Y32909005D01*
X-17343707Y33808304D01*
X-15642508Y34619704D01*
X-15260607Y34789704D01*
X-13519307Y35511004D01*
X-11742608Y36140105D01*
X-9935528Y36675404D01*
X-8102856Y37115403D01*
X-7693886Y37202405D01*
X-5840706Y37545804D01*
X-3972088Y37791802D01*
X-2093155Y37939702D01*
X-209065Y37989003D01*
X209049Y37989003D01*
X2093143Y37939702D01*
X-26404507Y27266606D02*
X-26613607Y26904505D01*
X26124694Y24604702D02*
X26404495Y24915503D01*
X-11742608Y36140105D02*
X-13519307Y35511004D01*
X-17343707Y33808304D02*
X-19000008Y32909005D01*
X-6525372Y24757405D02*
X-5323670Y25045905D01*
X25426994Y28239504D02*
X25141693Y28483204D01*
X20002994Y18271101D02*
X20341194Y18516800D01*
X-14032002Y21415303D02*
X-12800002Y22170203D01*
X-25958107Y27735405D02*
X-26124707Y27577305D01*
X0Y25605505D02*
X1235420Y25573105D01*
X-26613607Y25277606D02*
X-26404507Y24915505D01*
X15050498Y20715302D02*
X16030998Y19962903D01*
X18002994Y18271101D02*
X18384895Y18101002D01*
X25426994Y28239504D02*
X25141693Y28483204D01*
X11742591Y36140103D02*
X9935512Y36675404D01*
X24435485Y29086304D02*
X23993789Y29463503D01*
X22550689Y20842602D02*
X23328193Y21661002D01*
X18002994Y18271101D02*
X18384895Y18101002D01*
X24612487Y28935105D02*
X24479789Y29048504D01*
X25141693Y28483204D02*
X24833389Y28746504D01*
X-15642508Y34619704D02*
X-17343707Y33808304D01*
X-20003006Y18271103D02*
X-19621007Y18101004D01*
X-24479807Y29048506D02*
X-24612507Y28935107D01*
X26404495Y27266604D02*
X26124694Y27577303D01*
X20002994Y18271101D02*
X20341194Y18516800D01*
X25525695Y28145804D02*
X25426994Y28239504D01*
X-15260607Y34789704D02*
X-15642508Y34619704D01*
X-15050503Y20715302D02*
X-14032002Y21415303D01*
X-23993807Y29463505D02*
X-24435507Y29086306D01*
X-5840706Y37545804D02*
X-7693886Y37202405D01*
X11530097Y22859704D02*
X12799995Y22170203D01*
X-19621007Y18101004D02*
X-19212006Y18014103D01*
X-9935528Y36675404D02*
X-11742608Y36140105D01*
X-17129702Y19024502D02*
X-16031003Y19962903D01*
X15050498Y20715302D02*
X16030998Y19962903D01*
X25958099Y27735404D02*
X25525695Y28145804D01*
X-7910843Y24347004D02*
X-6525372Y24757405D01*
X-22160307Y30856705D02*
X-22498507Y30610905D01*
X25426994Y28239504D02*
X25141693Y28483204D01*
X9935512Y36675404D02*
X8102844Y37115403D01*
X21714996Y19962903D02*
X22550689Y20842602D01*
X24045394Y22416001D02*
X24700500Y23105502D01*
X26786499Y26091004D02*
X26742797Y26506903D01*
X-15260607Y34789704D02*
X-15642508Y34619704D01*
X-12800002Y22170203D02*
X-11530102Y22859704D01*
X-6525372Y24757405D02*
X-5323670Y25045905D01*
X18793895Y18014102D02*
X19211994Y18014102D01*
X-19212006Y18014103D02*
X-18793908Y18014103D01*
X-17129702Y19024502D02*
X-16031003Y19962903D01*
X-9935528Y36675404D02*
X-11742608Y36140105D01*
X25141693Y28483204D02*
X24833389Y28746504D01*
X25816696Y24280503D02*
X26124694Y24604702D01*
X26613594Y26904503D02*
X26404495Y27266604D01*
X4108528Y25271204D02*
X5323669Y25045905D01*
X-25291407Y23727604D02*
X-24700507Y23105504D01*
X-20823506Y19024504D02*
X-20341206Y18516804D01*
X-10414704Y23391804D02*
X-9272923Y23864705D01*
X-23328208Y21661004D02*
X-22550707Y20842604D01*
X-24612507Y28935107D02*
X-24833407Y28746506D01*
X23993789Y29463503D02*
X22498489Y30610903D01*
X-21715006Y19962904D02*
X-20823506Y19024504D01*
X-24479807Y29048506D02*
X-24612507Y28935107D01*
X-1235421Y25573105D02*
X0Y25605505D01*
X24435485Y29086304D02*
X23993789Y29463503D01*
X-19621007Y18101004D02*
X-19212006Y18014103D01*
X-11530102Y22859704D02*
X-10414704Y23391804D01*
X18002994Y18271101D02*
X18384895Y18101002D01*
X-17664702Y18516802D02*
X-17129702Y19024502D01*
X-22498507Y30610905D02*
X-23993807Y29463505D01*
X16030998Y19962903D02*
X17129695Y19024502D01*
X-209065Y37989003D02*
X-2093155Y37939702D01*
X-22160307Y30856705D02*
X-22498507Y30610905D01*
X15050498Y20715302D02*
X16030998Y19962903D01*
X-21715006Y19962904D02*
X-20823506Y19024504D01*
X-2093155Y37939702D02*
X-3972088Y37791802D01*
X-20823506Y19024504D02*
X-20341206Y18516804D01*
X3972072Y37791802D02*
X2093143Y37939702D01*
X-26786507Y26091006D02*
X-26742807Y25675206D01*
X-3972088Y37791802D02*
X-5840706Y37545804D01*
X2675926Y25459805D02*
X4108528Y25271204D01*
X-20341206Y18516804D02*
X-20003006Y18271103D01*
X-3972088Y37791802D02*
X-5840706Y37545804D01*
X10414695Y23391804D02*
X11530097Y22859704D01*
X20606990Y31924202D02*
X18999992Y32909003D01*
X-25816708Y24280505D02*
X-25291407Y23727604D01*
X-17664702Y18516802D02*
X-17129702Y19024502D01*
X25816696Y24280503D02*
X26124694Y24604702D01*
X22498489Y30610903D02*
X22160293Y30856703D01*
X-24479807Y29048506D02*
X-24612507Y28935107D01*
X-24833407Y28746506D02*
X-25141707Y28483206D01*
X25525695Y28145804D02*
X25426994Y28239504D01*
X-26613607Y26904505D02*
X-26742807Y26506905D01*
X-13519307Y35511004D02*
X-15260607Y34789704D01*
X-25141707Y28483206D02*
X-25427006Y28239506D01*
X20823493Y19024502D02*
X21714996Y19962903D01*
X-1235421Y25573105D02*
X0Y25605505D01*
X-24479807Y29048506D02*
X-24612507Y28935107D01*
X-9935528Y36675404D02*
X-11742608Y36140105D01*
X-15642508Y34619704D02*
X-17343707Y33808304D01*
X24833389Y28746504D02*
X24612487Y28935105D01*
X24700500Y23105502D02*
X25291397Y23727603D01*
X5840690Y37545804D02*
X3972072Y37791802D01*
X-24045407Y22416003D02*
X-23328208Y21661004D01*
X19620994Y18101002D02*
X20002994Y18271101D01*
X-24435507Y29086306D02*
X-24479807Y29048506D01*
X-15642508Y34619704D02*
X-17343707Y33808304D01*
X11530097Y22859704D02*
X12799995Y22170203D01*
X-24833407Y28746506D02*
X-25141707Y28483206D01*
X23328193Y21661002D02*
X24045394Y22416001D01*
X2093143Y37939702D02*
X209049Y37989003D01*
X-18384903Y18101002D02*
X-18003003Y18271103D01*
X8102844Y37115403D02*
X7693870Y37202405D01*
X-8102856Y37115403D02*
X-9935528Y36675404D01*
X-20823506Y19024504D02*
X-20341206Y18516804D01*
X-20003006Y18271103D02*
X-19621007Y18101004D01*
X15050498Y20715302D02*
X16030998Y19962903D01*
D11*
G36*
X-18384900Y-18100997D02*
G01*
X-18002999Y-18271099D01*
X-17664698Y-18516799D01*
X-17129698Y-19024497D01*
X-16030999Y-19962898D01*
X-15050499Y-20715301D01*
X-14031998Y-21415298D01*
X-12800000Y-22170196D01*
X-11530098Y-22859703D01*
X-10414700Y-23391799D01*
X-9272919Y-23864700D01*
X-7910840Y-24347000D01*
X-6525368Y-24757400D01*
X-5323670Y-25045898D01*
X-4108529Y-25271202D01*
X-2675927Y-25459800D01*
X-1235421Y-25573104D01*
X0Y-25605499D01*
X1235420Y-25573104D01*
X2675933Y-25459800D01*
X4108531Y-25271202D01*
X5323669Y-25045898D01*
X6525371Y-24757400D01*
X7910842Y-24347000D01*
X9272918Y-23864700D01*
X10414703Y-23391799D01*
X11530101Y-22859703D01*
X12800003Y-22170196D01*
X14032001Y-21415298D01*
X15050498Y-20715301D01*
X16030998Y-19962898D01*
X17129699Y-19024497D01*
X17664699Y-18516799D01*
X18002998Y-18271099D01*
X18384899Y-18100997D01*
X18793899Y-18014099D01*
X19211997Y-18014099D01*
X19620998Y-18100997D01*
X20002998Y-18271099D01*
X20341197Y-18516799D01*
X20823497Y-19024497D01*
X21714996Y-19962898D01*
X22550697Y-20842597D01*
X23328201Y-21660995D01*
X24045394Y-22416000D01*
X24700500Y-23105499D01*
X25291397Y-23727600D01*
X25816696Y-24280502D01*
X26124694Y-24604698D01*
X26404495Y-24915496D01*
X26613601Y-25277603D01*
X26742797Y-25675201D01*
X26786499Y-26091003D01*
X26742797Y-26506896D01*
X26613601Y-26904502D01*
X26404495Y-27266601D01*
X26124694Y-27577301D01*
X25958099Y-27735397D01*
X25525695Y-28145797D01*
X25427001Y-28239501D01*
X25141693Y-28483200D01*
X24833396Y-28746505D01*
X24612495Y-28935104D01*
X24479797Y-29048500D01*
X24435493Y-29086303D01*
X23993789Y-29463500D01*
X22498489Y-30610900D01*
X22160293Y-30856704D01*
X20606994Y-31924201D01*
X18999996Y-32908996D01*
X17343696Y-33808303D01*
X15642494Y-34619705D01*
X15260597Y-34789703D01*
X13519294Y-35511001D01*
X11742595Y-36140098D01*
X9935516Y-36675399D01*
X8102844Y-37115402D01*
X7693878Y-37202400D01*
X5840698Y-37545799D01*
X3972076Y-37791793D01*
X2093147Y-37939697D01*
X209056Y-37988998D01*
X-209057Y-37988998D01*
X-2093148Y-37939697D01*
X-3972081Y-37791793D01*
X-5840699Y-37545799D01*
X-7693879Y-37202400D01*
X-8102849Y-37115402D01*
X-9935521Y-36675399D01*
X-11742600Y-36140098D01*
X-13519299Y-35511001D01*
X-15260600Y-34789703D01*
X-15642500Y-34619705D01*
X-17343699Y-33808303D01*
X-19000000Y-32908996D01*
X-20606999Y-31924201D01*
X-22160300Y-30856704D01*
X-22498499Y-30610900D01*
X-23993800Y-29463500D01*
X-24435500Y-29086303D01*
X-24479800Y-29048500D01*
X-24612500Y-28935104D01*
X-24833399Y-28746505D01*
X-25141699Y-28483200D01*
X-25426999Y-28239501D01*
X-25525700Y-28145797D01*
X-25958100Y-27735397D01*
X-26124699Y-27577301D01*
X-26404500Y-27266601D01*
X-26613599Y-26904502D01*
X-26742799Y-26506896D01*
X-26786500Y-26091003D01*
X-26742799Y-25675201D01*
X-26613599Y-25277603D01*
X-26404500Y-24915496D01*
X-26124699Y-24604698D01*
X-25816700Y-24280502D01*
X-25291400Y-23727600D01*
X-24700499Y-23105499D01*
X-24045399Y-22416000D01*
X-23328198Y-21660995D01*
X-22550698Y-20842597D01*
X-21714999Y-19962898D01*
X-20823498Y-19024497D01*
X-20341198Y-18516799D01*
X-20002999Y-18271099D01*
X-19620999Y-18100997D01*
X-19211998Y-18014099D01*
X-18793898Y-18014099D01*
X-18384900Y-18100997D01*
G37*
X-18384900Y-18100997D02*
X-18002999Y-18271099D01*
X-17664698Y-18516799D01*
X-17129698Y-19024497D01*
X-16030999Y-19962898D01*
X-15050499Y-20715301D01*
X-14031998Y-21415298D01*
X-12800000Y-22170196D01*
X-11530098Y-22859703D01*
X-10414700Y-23391799D01*
X-9272919Y-23864700D01*
X-7910840Y-24347000D01*
X-6525368Y-24757400D01*
X-5323670Y-25045898D01*
X-4108529Y-25271202D01*
X-2675927Y-25459800D01*
X-1235421Y-25573104D01*
X0Y-25605499D01*
X1235420Y-25573104D01*
X2675933Y-25459800D01*
X4108531Y-25271202D01*
X5323669Y-25045898D01*
X6525371Y-24757400D01*
X7910842Y-24347000D01*
X9272918Y-23864700D01*
X10414703Y-23391799D01*
X11530101Y-22859703D01*
X12800003Y-22170196D01*
X14032001Y-21415298D01*
X15050498Y-20715301D01*
X16030998Y-19962898D01*
X17129699Y-19024497D01*
X17664699Y-18516799D01*
X18002998Y-18271099D01*
X18384899Y-18100997D01*
X18793899Y-18014099D01*
X19211997Y-18014099D01*
X19620998Y-18100997D01*
X20002998Y-18271099D01*
X20341197Y-18516799D01*
X20823497Y-19024497D01*
X21714996Y-19962898D01*
X22550697Y-20842597D01*
X23328201Y-21660995D01*
X24045394Y-22416000D01*
X24700500Y-23105499D01*
X25291397Y-23727600D01*
X25816696Y-24280502D01*
X26124694Y-24604698D01*
X26404495Y-24915496D01*
X26613601Y-25277603D01*
X26742797Y-25675201D01*
X26786499Y-26091003D01*
X26742797Y-26506896D01*
X26613601Y-26904502D01*
X26404495Y-27266601D01*
X26124694Y-27577301D01*
X25958099Y-27735397D01*
X25525695Y-28145797D01*
X25427001Y-28239501D01*
X25141693Y-28483200D01*
X24833396Y-28746505D01*
X24612495Y-28935104D01*
X24479797Y-29048500D01*
X24435493Y-29086303D01*
X23993789Y-29463500D01*
X22498489Y-30610900D01*
X22160293Y-30856704D01*
X20606994Y-31924201D01*
X18999996Y-32908996D01*
X17343696Y-33808303D01*
X15642494Y-34619705D01*
X15260597Y-34789703D01*
X13519294Y-35511001D01*
X11742595Y-36140098D01*
X9935516Y-36675399D01*
X8102844Y-37115402D01*
X7693878Y-37202400D01*
X5840698Y-37545799D01*
X3972076Y-37791793D01*
X2093147Y-37939697D01*
X209056Y-37988998D01*
X-209057Y-37988998D01*
X-2093148Y-37939697D01*
X-3972081Y-37791793D01*
X-5840699Y-37545799D01*
X-7693879Y-37202400D01*
X-8102849Y-37115402D01*
X-9935521Y-36675399D01*
X-11742600Y-36140098D01*
X-13519299Y-35511001D01*
X-15260600Y-34789703D01*
X-15642500Y-34619705D01*
X-17343699Y-33808303D01*
X-19000000Y-32908996D01*
X-20606999Y-31924201D01*
X-22160300Y-30856704D01*
X-22498499Y-30610900D01*
X-23993800Y-29463500D01*
X-24435500Y-29086303D01*
X-24479800Y-29048500D01*
X-24612500Y-28935104D01*
X-24833399Y-28746505D01*
X-25141699Y-28483200D01*
X-25426999Y-28239501D01*
X-25525700Y-28145797D01*
X-25958100Y-27735397D01*
X-26124699Y-27577301D01*
X-26404500Y-27266601D01*
X-26613599Y-26904502D01*
X-26742799Y-26506896D01*
X-26786500Y-26091003D01*
X-26742799Y-25675201D01*
X-26613599Y-25277603D01*
X-26404500Y-24915496D01*
X-26124699Y-24604698D01*
X-25816700Y-24280502D01*
X-25291400Y-23727600D01*
X-24700499Y-23105499D01*
X-24045399Y-22416000D01*
X-23328198Y-21660995D01*
X-22550698Y-20842597D01*
X-21714999Y-19962898D01*
X-20823498Y-19024497D01*
X-20341198Y-18516799D01*
X-20002999Y-18271099D01*
X-19620999Y-18100997D01*
X-19211998Y-18014099D01*
X-18793898Y-18014099D01*
X-18384900Y-18100997D01*
D10*
X-22160307Y30856705D02*
X-22498507Y30610905D01*
X-15260607Y34789704D02*
X-15642508Y34619704D01*
X19620994Y18101002D02*
X20002994Y18271101D01*
X-18384903Y18101002D02*
X-18003003Y18271103D01*
X-23328208Y21661004D02*
X-22550707Y20842604D01*
X0Y25605505D02*
X1235420Y25573105D01*
X-7693886Y37202405D02*
X-8102856Y37115403D01*
X26124694Y24604702D02*
X26404495Y24915503D01*
X-20003006Y18271103D02*
X-19621007Y18101004D01*
X25958099Y27735404D02*
X25525695Y28145804D01*
X-2675931Y25459805D02*
X-1235421Y25573105D01*
X16030998Y19962903D02*
X17129695Y19024502D01*
X-19000008Y32909005D02*
X-20607007Y31924204D01*
X-11742608Y36140105D02*
X-13519307Y35511004D01*
X17129695Y19024502D02*
X17664695Y18516800D01*
X-7910843Y24347004D02*
X-6525372Y24757405D01*
X-26786507Y26091006D02*
X-26742807Y25675206D01*
X26613594Y25277604D02*
X26742797Y25675204D01*
X26786499Y26091004D02*
X26742797Y26506903D01*
X-7910843Y24347004D02*
X-6525372Y24757405D01*
X26124694Y27577303D02*
X25958099Y27735404D01*
X15050498Y20715302D02*
X16030998Y19962903D01*
X-16031003Y19962903D02*
X-15050503Y20715302D01*
X25141693Y28483204D02*
X24833389Y28746504D01*
X17664695Y18516800D02*
X18002994Y18271101D01*
X-5323670Y25045905D02*
X-4108532Y25271204D01*
X23328193Y21661002D02*
X24045394Y22416001D01*
X-16031003Y19962903D02*
X-15050503Y20715302D01*
D11*
G36*
X2093143Y37939702D02*
G01*
X3972072Y37791802D01*
X5840690Y37545804D01*
X7693870Y37202405D01*
X8102844Y37115403D01*
X9935512Y36675404D01*
X11742591Y36140103D01*
X13519290Y35511002D01*
X15260589Y34789702D01*
X15642494Y34619702D01*
X17343692Y33808302D01*
X18999992Y32909003D01*
X20606990Y31924202D01*
X22160293Y30856703D01*
X22498489Y30610903D01*
X23993789Y29463503D01*
X24435485Y29086304D01*
X24479789Y29048504D01*
X24612487Y28935105D01*
X24833389Y28746504D01*
X25141693Y28483204D01*
X25426994Y28239504D01*
X25525695Y28145804D01*
X25958099Y27735404D01*
X26124694Y27577303D01*
X26404495Y27266604D01*
X26613594Y26904503D01*
X26742797Y26506903D01*
X26786499Y26091004D01*
X26742797Y25675204D01*
X26613594Y25277604D01*
X26404495Y24915503D01*
X26124694Y24604702D01*
X25816696Y24280503D01*
X25291397Y23727603D01*
X24700500Y23105502D01*
X24045394Y22416001D01*
X23328193Y21661002D01*
X22550689Y20842602D01*
X21714996Y19962903D01*
X20823493Y19024502D01*
X20341194Y18516800D01*
X20002994Y18271101D01*
X19620994Y18101002D01*
X19211994Y18014102D01*
X18793895Y18014102D01*
X18384895Y18101002D01*
X18002994Y18271101D01*
X17664695Y18516800D01*
X17129695Y19024502D01*
X16030998Y19962903D01*
X15050498Y20715302D01*
X14031997Y21415303D01*
X12799995Y22170203D01*
X11530097Y22859704D01*
X10414695Y23391804D01*
X9272918Y23864705D01*
X7910835Y24347004D01*
X6525367Y24757405D01*
X5323669Y25045905D01*
X4108528Y25271204D01*
X2675926Y25459805D01*
X1235420Y25573105D01*
X0Y25605505D01*
X-1235421Y25573105D01*
X-2675931Y25459805D01*
X-4108532Y25271204D01*
X-5323670Y25045905D01*
X-6525372Y24757405D01*
X-7910843Y24347004D01*
X-9272923Y23864705D01*
X-10414704Y23391804D01*
X-11530102Y22859704D01*
X-12800002Y22170203D01*
X-14032002Y21415303D01*
X-15050503Y20715302D01*
X-16031003Y19962903D01*
X-17129702Y19024502D01*
X-17664702Y18516802D01*
X-18003003Y18271103D01*
X-18384903Y18101002D01*
X-18793908Y18014103D01*
X-19212006Y18014103D01*
X-19621007Y18101004D01*
X-20003006Y18271103D01*
X-20341206Y18516804D01*
X-20823506Y19024504D01*
X-21715006Y19962904D01*
X-22550707Y20842604D01*
X-23328208Y21661004D01*
X-24045407Y22416003D01*
X-24700507Y23105504D01*
X-25291407Y23727604D01*
X-25816708Y24280505D01*
X-26124707Y24604704D01*
X-26404507Y24915505D01*
X-26613607Y25277606D01*
X-26742807Y25675206D01*
X-26786507Y26091006D01*
X-26742807Y26506905D01*
X-26613607Y26904505D01*
X-26404507Y27266606D01*
X-26124707Y27577305D01*
X-25958107Y27735405D01*
X-25525708Y28145806D01*
X-25427006Y28239506D01*
X-25141707Y28483206D01*
X-24833407Y28746506D01*
X-24612507Y28935107D01*
X-24479807Y29048506D01*
X-24435507Y29086306D01*
X-23993807Y29463505D01*
X-22498507Y30610905D01*
X-22160307Y30856705D01*
X-20607007Y31924204D01*
X-19000008Y32909005D01*
X-17343707Y33808304D01*
X-15642508Y34619704D01*
X-15260607Y34789704D01*
X-13519307Y35511004D01*
X-11742608Y36140105D01*
X-9935528Y36675404D01*
X-8102856Y37115403D01*
X-7693886Y37202405D01*
X-5840706Y37545804D01*
X-3972088Y37791802D01*
X-2093155Y37939702D01*
X-209065Y37989003D01*
X209049Y37989003D01*
X2093143Y37939702D01*
G37*
X2093143Y37939702D02*
X3972072Y37791802D01*
X5840690Y37545804D01*
X7693870Y37202405D01*
X8102844Y37115403D01*
X9935512Y36675404D01*
X11742591Y36140103D01*
X13519290Y35511002D01*
X15260589Y34789702D01*
X15642494Y34619702D01*
X17343692Y33808302D01*
X18999992Y32909003D01*
X20606990Y31924202D01*
X22160293Y30856703D01*
X22498489Y30610903D01*
X23993789Y29463503D01*
X24435485Y29086304D01*
X24479789Y29048504D01*
X24612487Y28935105D01*
X24833389Y28746504D01*
X25141693Y28483204D01*
X25426994Y28239504D01*
X25525695Y28145804D01*
X25958099Y27735404D01*
X26124694Y27577303D01*
X26404495Y27266604D01*
X26613594Y26904503D01*
X26742797Y26506903D01*
X26786499Y26091004D01*
X26742797Y25675204D01*
X26613594Y25277604D01*
X26404495Y24915503D01*
X26124694Y24604702D01*
X25816696Y24280503D01*
X25291397Y23727603D01*
X24700500Y23105502D01*
X24045394Y22416001D01*
X23328193Y21661002D01*
X22550689Y20842602D01*
X21714996Y19962903D01*
X20823493Y19024502D01*
X20341194Y18516800D01*
X20002994Y18271101D01*
X19620994Y18101002D01*
X19211994Y18014102D01*
X18793895Y18014102D01*
X18384895Y18101002D01*
X18002994Y18271101D01*
X17664695Y18516800D01*
X17129695Y19024502D01*
X16030998Y19962903D01*
X15050498Y20715302D01*
X14031997Y21415303D01*
X12799995Y22170203D01*
X11530097Y22859704D01*
X10414695Y23391804D01*
X9272918Y23864705D01*
X7910835Y24347004D01*
X6525367Y24757405D01*
X5323669Y25045905D01*
X4108528Y25271204D01*
X2675926Y25459805D01*
X1235420Y25573105D01*
X0Y25605505D01*
X-1235421Y25573105D01*
X-2675931Y25459805D01*
X-4108532Y25271204D01*
X-5323670Y25045905D01*
X-6525372Y24757405D01*
X-7910843Y24347004D01*
X-9272923Y23864705D01*
X-10414704Y23391804D01*
X-11530102Y22859704D01*
X-12800002Y22170203D01*
X-14032002Y21415303D01*
X-15050503Y20715302D01*
X-16031003Y19962903D01*
X-17129702Y19024502D01*
X-17664702Y18516802D01*
X-18003003Y18271103D01*
X-18384903Y18101002D01*
X-18793908Y18014103D01*
X-19212006Y18014103D01*
X-19621007Y18101004D01*
X-20003006Y18271103D01*
X-20341206Y18516804D01*
X-20823506Y19024504D01*
X-21715006Y19962904D01*
X-22550707Y20842604D01*
X-23328208Y21661004D01*
X-24045407Y22416003D01*
X-24700507Y23105504D01*
X-25291407Y23727604D01*
X-25816708Y24280505D01*
X-26124707Y24604704D01*
X-26404507Y24915505D01*
X-26613607Y25277606D01*
X-26742807Y25675206D01*
X-26786507Y26091006D01*
X-26742807Y26506905D01*
X-26613607Y26904505D01*
X-26404507Y27266606D01*
X-26124707Y27577305D01*
X-25958107Y27735405D01*
X-25525708Y28145806D01*
X-25427006Y28239506D01*
X-25141707Y28483206D01*
X-24833407Y28746506D01*
X-24612507Y28935107D01*
X-24479807Y29048506D01*
X-24435507Y29086306D01*
X-23993807Y29463505D01*
X-22498507Y30610905D01*
X-22160307Y30856705D01*
X-20607007Y31924204D01*
X-19000008Y32909005D01*
X-17343707Y33808304D01*
X-15642508Y34619704D01*
X-15260607Y34789704D01*
X-13519307Y35511004D01*
X-11742608Y36140105D01*
X-9935528Y36675404D01*
X-8102856Y37115403D01*
X-7693886Y37202405D01*
X-5840706Y37545804D01*
X-3972088Y37791802D01*
X-2093155Y37939702D01*
X-209065Y37989003D01*
X209049Y37989003D01*
X2093143Y37939702D01*
D10*
X-24700507Y23105504D02*
X-24045407Y22416003D01*
X-21715006Y19962904D02*
X-20823506Y19024504D01*
X-24700507Y23105504D02*
X-24045407Y22416003D01*
X-18384903Y18101002D02*
X-18384903Y18101002D01*
X20823493Y19024502D02*
X21714996Y19962903D01*
X15642494Y34619702D02*
X15260589Y34789702D01*
X5840690Y37545804D02*
X3972072Y37791802D01*
X-25291407Y23727604D02*
X-24700507Y23105504D01*
X26613594Y25277604D02*
X26742797Y25675204D01*
X-26124707Y27577305D02*
X-26404507Y27266606D01*
X-1235421Y25573105D02*
X0Y25605505D01*
X8102844Y37115403D02*
X7693870Y37202405D01*
X-26613607Y26904505D02*
X-26742807Y26506905D01*
X26613594Y26904503D02*
X26404495Y27266604D01*
X-26404507Y27266606D02*
X-26613607Y26904505D01*
X-22498507Y30610905D02*
X-23993807Y29463505D01*
X24045394Y22416001D02*
X24700500Y23105502D01*
X7693870Y37202405D02*
X5840690Y37545804D01*
X-18003003Y18271103D02*
X-17664702Y18516802D01*
X26613594Y26904503D02*
X26404495Y27266604D01*
X-18384903Y18101002D02*
X-18003003Y18271103D01*
X18384895Y18101002D02*
X18793895Y18014102D01*
X-8102856Y37115403D02*
X-9935528Y36675404D01*
X2675926Y25459805D02*
X4108528Y25271204D01*
X22160293Y30856703D02*
X20606990Y31924202D01*
X209049Y37989003D02*
X-209065Y37989003D01*
X18793895Y18014102D02*
X19211994Y18014102D01*
X13519290Y35511002D02*
X11742591Y36140103D01*
X24700500Y23105502D02*
X25291397Y23727603D01*
X-15050503Y20715302D02*
X-14032002Y21415303D01*
X-10414704Y23391804D02*
X-9272923Y23864705D01*
X5323669Y25045905D02*
X6525367Y24757405D01*
X23993789Y29463503D02*
X22498489Y30610903D01*
X17343692Y33808302D02*
X15642494Y34619702D01*
X-209065Y37989003D02*
X-2093155Y37939702D01*
X26404495Y24915503D02*
X26613594Y25277604D01*
X7910835Y24347004D02*
X9272918Y23864705D01*
X-25816708Y24280505D02*
X-25291407Y23727604D01*
X24435485Y29086304D02*
X23993789Y29463503D01*
X-7910843Y24347004D02*
X-6525372Y24757405D01*
X-6525372Y24757405D02*
X-5323670Y25045905D01*
X13519290Y35511002D02*
X11742591Y36140103D01*
X-7910843Y24347004D02*
X-6525372Y24757405D01*
X26404495Y27266604D02*
X26124694Y27577303D01*
X25958099Y27735404D02*
X25525695Y28145804D01*
X23328193Y21661002D02*
X24045394Y22416001D01*
X18384895Y18101002D02*
X18793895Y18014102D01*
X-209065Y37989003D02*
X-2093155Y37939702D01*
X-26742807Y26506905D02*
X-26786507Y26091006D01*
X24479789Y29048504D02*
X24435485Y29086304D01*
X5323669Y25045905D02*
X6525367Y24757405D01*
X-25141707Y28483206D02*
X-25427006Y28239506D01*
X4108528Y25271204D02*
X5323669Y25045905D01*
X23993789Y29463503D02*
X22498489Y30610903D01*
X7693870Y37202405D02*
X5840690Y37545804D01*
X-9935528Y36675404D02*
X-11742608Y36140105D01*
X-20607007Y31924204D02*
X-22160307Y30856705D01*
X-5840706Y37545804D02*
X-7693886Y37202405D01*
X-7693886Y37202405D02*
X-8102856Y37115403D01*
X26786499Y26091004D02*
X26742797Y26506903D01*
X6525367Y24757405D02*
X7910835Y24347004D01*
X-24612507Y28935107D02*
X-24833407Y28746506D01*
X-2675931Y25459805D02*
X-1235421Y25573105D01*
X-26124707Y27577305D02*
X-26404507Y27266606D01*
X24833389Y28746504D02*
X24612487Y28935105D01*
X-24435507Y29086306D02*
X-24479807Y29048506D01*
X-20341206Y18516804D02*
X-20003006Y18271103D01*
X11530097Y22859704D02*
X12799995Y22170203D01*
X-2093155Y37939702D02*
X-3972088Y37791802D01*
X25141693Y28483204D02*
X24833389Y28746504D01*
X-23328208Y21661004D02*
X-22550707Y20842604D01*
X-15050503Y20715302D02*
X-14032002Y21415303D01*
X-18384903Y18101002D02*
X-18384903Y18101002D01*
X15260589Y34789702D02*
X13519290Y35511002D01*
X-24045407Y22416003D02*
X-23328208Y21661004D01*
X26124694Y27577303D02*
X25958099Y27735404D01*
X22550689Y20842602D02*
X23328193Y21661002D01*
X22550689Y20842602D02*
X23328193Y21661002D01*
X1235420Y25573105D02*
X2675926Y25459805D01*
X24479789Y29048504D02*
X24435485Y29086304D01*
X-25427006Y28239506D02*
X-25525708Y28145806D01*
X-26124707Y24604704D02*
X-25816708Y24280505D01*
X-20823506Y19024504D02*
X-20341206Y18516804D01*
X-1235421Y25573105D02*
X0Y25605505D01*
X209049Y37989003D02*
X-209065Y37989003D01*
X5840690Y37545804D02*
X3972072Y37791802D01*
X-23328208Y21661004D02*
X-22550707Y20842604D01*
X-24612507Y28935107D02*
X-24833407Y28746506D01*
X-5323670Y25045905D02*
X-4108532Y25271204D01*
X9935512Y36675404D02*
X8102844Y37115403D01*
X9935512Y36675404D02*
X8102844Y37115403D01*
X12799995Y22170203D02*
X14031997Y21415303D01*
X25525695Y28145804D02*
X25426994Y28239504D01*
X26742797Y25675204D02*
X26786499Y26091004D01*
X14031997Y21415303D02*
X15050498Y20715302D01*
X-20341206Y18516804D02*
X-20003006Y18271103D01*
X22498489Y30610903D02*
X22160293Y30856703D01*
X5323669Y25045905D02*
X6525367Y24757405D01*
X-14032002Y21415303D02*
X-12800002Y22170203D01*
X-24045407Y22416003D02*
X-23328208Y21661004D01*
X22160293Y30856703D02*
X20606990Y31924202D01*
X-22550707Y20842604D02*
X-21715006Y19962904D01*
X25816696Y24280503D02*
X26124694Y24604702D01*
X-25958107Y27735405D02*
X-26124707Y27577305D01*
X-22550707Y20842604D02*
X-21715006Y19962904D01*
X6525367Y24757405D02*
X7910835Y24347004D01*
X-22498507Y30610905D02*
X-23993807Y29463505D01*
X-5840706Y37545804D02*
X-7693886Y37202405D01*
X22160293Y30856703D02*
X20606990Y31924202D01*
X-18793908Y18014103D02*
X-18384903Y18101002D01*
X-17664702Y18516802D02*
X-17129702Y19024502D01*
X-26742807Y25675206D02*
X-26613607Y25277606D01*
X-14032002Y21415303D02*
X-12800002Y22170203D01*
X-15642508Y34619704D02*
X-17343707Y33808304D01*
X20606990Y31924202D02*
X18999992Y32909003D01*
X25426994Y28239504D02*
X25141693Y28483204D01*
X12799995Y22170203D02*
X14031997Y21415303D01*
X21714996Y19962903D02*
X22550689Y20842602D01*
X-13519307Y35511004D02*
X-15260607Y34789704D01*
X-26613607Y26904505D02*
X-26742807Y26506905D01*
X23328193Y21661002D02*
X24045394Y22416001D01*
X3972072Y37791802D02*
X2093143Y37939702D01*
X-25427006Y28239506D02*
X-25525708Y28145806D01*
X9272918Y23864705D02*
X10414695Y23391804D01*
X6525367Y24757405D02*
X7910835Y24347004D01*
X-13519307Y35511004D02*
X-15260607Y34789704D01*
X-8102856Y37115403D02*
X-9935528Y36675404D01*
X-11530102Y22859704D02*
X-10414704Y23391804D01*
X24700500Y23105502D02*
X25291397Y23727603D01*
X11530097Y22859704D02*
X12799995Y22170203D01*
X4108528Y25271204D02*
X5323669Y25045905D01*
X20341194Y18516800D02*
X20823493Y19024502D01*
X-18793908Y18014103D02*
X-18384903Y18101002D01*
X18002994Y18271101D02*
X18384895Y18101002D01*
X-15642508Y34619704D02*
X-17343707Y33808304D01*
X-25141707Y28483206D02*
X-25427006Y28239506D01*
X20341194Y18516800D02*
X20823493Y19024502D01*
X-26613607Y25277606D02*
X-26404507Y24915505D01*
X17343692Y33808302D02*
X15642494Y34619702D01*
X10414695Y23391804D02*
X11530097Y22859704D01*
X18793895Y18014102D02*
X19211994Y18014102D01*
X22160293Y30856703D02*
X20606990Y31924202D01*
X26124694Y24604702D02*
X26404495Y24915503D01*
X23993789Y29463503D02*
X22498489Y30610903D01*
X24612487Y28935105D02*
X24479789Y29048504D01*
X-18384903Y18101002D02*
X-18003003Y18271103D01*
X-25525708Y28145806D02*
X-25958107Y27735405D01*
X9935512Y36675404D02*
X8102844Y37115403D01*
X-24612507Y28935107D02*
X-24833407Y28746506D01*
X25291397Y23727603D02*
X25816696Y24280503D01*
X-8102856Y37115403D02*
X-9935528Y36675404D01*
X13519290Y35511002D02*
X11742591Y36140103D01*
X-25291407Y23727604D02*
X-24700507Y23105504D01*
X0Y25605505D02*
X1235420Y25573105D01*
X-25291407Y23727604D02*
X-24700507Y23105504D01*
X-17664702Y18516802D02*
X-17129702Y19024502D01*
X-22550707Y20842604D02*
X-21715006Y19962904D01*
X-26786507Y26091006D02*
X-26742807Y25675206D01*
X-2675931Y25459805D02*
X-1235421Y25573105D01*
X16030998Y19962903D02*
X17129695Y19024502D01*
X-11742608Y36140105D02*
X-13519307Y35511004D01*
X-24612507Y28935107D02*
X-24833407Y28746506D01*
X-25427006Y28239506D02*
X-25525708Y28145806D01*
X19620994Y18101002D02*
X20002994Y18271101D01*
X-26124707Y27577305D02*
X-26404507Y27266606D01*
X-26742807Y26506905D02*
X-26786507Y26091006D01*
X18793895Y18014102D02*
X19211994Y18014102D01*
X-19212006Y18014103D02*
X-18793908Y18014103D01*
X-26124707Y24604704D02*
X-25816708Y24280505D01*
X-2675931Y25459805D02*
X-1235421Y25573105D01*
X-10414704Y23391804D02*
X-9272923Y23864705D01*
X209049Y37989003D02*
X-209065Y37989003D01*
X-26404507Y24915505D02*
X-26124707Y24604704D01*
X-3972088Y37791802D02*
X-5840706Y37545804D01*
X17343692Y33808302D02*
X15642494Y34619702D01*
X-10414704Y23391804D02*
X-9272923Y23864705D01*
X-8102856Y37115403D02*
X-9935528Y36675404D01*
X-19212006Y18014103D02*
X-18793908Y18014103D01*
X24045394Y22416001D02*
X24700500Y23105502D01*
X-7693886Y37202405D02*
X-8102856Y37115403D01*
X15260589Y34789702D02*
X13519290Y35511002D01*
X14031997Y21415303D02*
X15050498Y20715302D01*
X-19212006Y18014103D02*
X-18793908Y18014103D01*
X7910835Y24347004D02*
X9272918Y23864705D01*
X-4108532Y25271204D02*
X-2675931Y25459805D01*
X0Y25605505D02*
X1235420Y25573105D01*
X-24045407Y22416003D02*
X-23328208Y21661004D01*
X26786499Y26091004D02*
X26742797Y26506903D01*
X19211994Y18014102D02*
X19620994Y18101002D01*
X-19000008Y32909005D02*
X-20607007Y31924204D01*
X24612487Y28935105D02*
X24479789Y29048504D01*
X25958099Y27735404D02*
X25525695Y28145804D01*
X-2093155Y37939702D02*
X-3972088Y37791802D01*
X-24045407Y22416003D02*
X-23328208Y21661004D01*
X17129695Y19024502D02*
X17664695Y18516800D01*
X-6525372Y24757405D02*
X-5323670Y25045905D01*
X-19000008Y32909005D02*
X-20607007Y31924204D01*
X26404495Y27266604D02*
X26124694Y27577303D01*
X-26742807Y25675206D02*
X-26613607Y25277606D01*
X11742591Y36140103D02*
X9935512Y36675404D01*
X17129695Y19024502D02*
X17664695Y18516800D01*
X2093143Y37939702D02*
X209049Y37989003D01*
X-25427006Y28239506D02*
X-25525708Y28145806D01*
X-13519307Y35511004D02*
X-15260607Y34789704D01*
X26742797Y26506903D02*
X26613594Y26904503D01*
X17664695Y18516800D02*
X18002994Y18271101D01*
X-26613607Y25277606D02*
X-26404507Y24915505D01*
X-23993807Y29463505D02*
X-24435507Y29086306D01*
X-20607007Y31924204D02*
X-22160307Y30856705D01*
X-24833407Y28746506D02*
X-25141707Y28483206D01*
X-23993807Y29463505D02*
X-24435507Y29086306D01*
X13519290Y35511002D02*
X11742591Y36140103D01*
X-23993807Y29463505D02*
X-24435507Y29086306D01*
X-9935528Y36675404D02*
X-11742608Y36140105D01*
X20606990Y31924202D02*
X18999992Y32909003D01*
X9272918Y23864705D02*
X10414695Y23391804D01*
X24612487Y28935105D02*
X24479789Y29048504D01*
X12799995Y22170203D02*
X14031997Y21415303D01*
X-5323670Y25045905D02*
X-4108532Y25271204D01*
X-23328208Y21661004D02*
X-22550707Y20842604D01*
X15642494Y34619702D02*
X15260589Y34789702D01*
X16030998Y19962903D02*
X17129695Y19024502D01*
X4108528Y25271204D02*
X5323669Y25045905D01*
X-25958107Y27735405D02*
X-26124707Y27577305D01*
X24612487Y28935105D02*
X24479789Y29048504D01*
X-26786507Y26091006D02*
X-26742807Y25675206D01*
X-18793908Y18014103D02*
X-18384903Y18101002D01*
X26404495Y27266604D02*
X26124694Y27577303D01*
X2675926Y25459805D02*
X4108528Y25271204D01*
X12799995Y22170203D02*
X14031997Y21415303D01*
X-3972088Y37791802D02*
X-5840706Y37545804D01*
X5323669Y25045905D02*
X6525367Y24757405D01*
X-17343707Y33808304D02*
X-19000008Y32909005D01*
X-26124707Y24604704D02*
X-25816708Y24280505D01*
X-26404507Y24915505D02*
X-26124707Y24604704D01*
X-16031003Y19962903D02*
X-15050503Y20715302D01*
X25291397Y23727603D02*
X25816696Y24280503D01*
X7910835Y24347004D02*
X9272918Y23864705D01*
X9272918Y23864705D02*
X10414695Y23391804D01*
X-2675931Y25459805D02*
X-1235421Y25573105D01*
X-19621007Y18101004D02*
X-19212006Y18014103D01*
X-24479807Y29048506D02*
X-24612507Y28935107D01*
X-26124707Y24604704D02*
X-25816708Y24280505D01*
X21714996Y19962903D02*
X22550689Y20842602D01*
X26742797Y26506903D02*
X26613594Y26904503D01*
X24479789Y29048504D02*
X24435485Y29086304D01*
X-11530102Y22859704D02*
X-10414704Y23391804D01*
X25291397Y23727603D02*
X25816696Y24280503D01*
X-14032002Y21415303D02*
X-12800002Y22170203D01*
X21714996Y19962903D02*
X22550689Y20842602D01*
X-26404507Y24915505D02*
X-26124707Y24604704D01*
X17129695Y19024502D02*
X17664695Y18516800D01*
X26613594Y25277604D02*
X26742797Y25675204D01*
X-18793908Y18014103D02*
X-18384903Y18101002D01*
X-22160307Y30856705D02*
X-22498507Y30610905D01*
X25525695Y28145804D02*
X25426994Y28239504D01*
X26742797Y26506903D02*
X26613594Y26904503D01*
X18999992Y32909003D02*
X17343692Y33808302D01*
X26404495Y27266604D02*
X26124694Y27577303D01*
X-4108532Y25271204D02*
X-2675931Y25459805D01*
X26786499Y26091004D02*
X26742797Y26506903D01*
X-22498507Y30610905D02*
X-23993807Y29463505D01*
X26613594Y25277604D02*
X26742797Y25675204D01*
X26124694Y27577303D02*
X25958099Y27735404D01*
X-22498507Y30610905D02*
X-23993807Y29463505D01*
X1235420Y25573105D02*
X2675926Y25459805D01*
X2675926Y25459805D02*
X4108528Y25271204D01*
X-11742608Y36140105D02*
X-13519307Y35511004D01*
X26742797Y25675204D02*
X26786499Y26091004D01*
X-6525372Y24757405D02*
X-5323670Y25045905D01*
X18999992Y32909003D02*
X17343692Y33808302D01*
X209049Y37989003D02*
X-209065Y37989003D01*
X-12800002Y22170203D02*
X-11530102Y22859704D01*
X9935512Y36675404D02*
X8102844Y37115403D01*
X26124694Y24604702D02*
X26404495Y24915503D01*
X-9272923Y23864705D02*
X-7910843Y24347004D01*
X1235420Y25573105D02*
X2675926Y25459805D01*
X-19000008Y32909005D02*
X-20607007Y31924204D01*
X22160293Y30856703D02*
X20606990Y31924202D01*
X-26124707Y27577305D02*
X-26404507Y27266606D01*
X4108528Y25271204D02*
X5323669Y25045905D01*
X5840690Y37545804D02*
X3972072Y37791802D01*
X-26613607Y25277606D02*
X-26404507Y24915505D01*
X-19212006Y18014103D02*
X-18793908Y18014103D01*
X6525367Y24757405D02*
X7910835Y24347004D01*
X-26613607Y26904505D02*
X-26742807Y26506905D01*
X-25291407Y23727604D02*
X-24700507Y23105504D01*
X25426994Y28239504D02*
X25141693Y28483204D01*
X24045394Y22416001D02*
X24700500Y23105502D01*
X22550689Y20842602D02*
X23328193Y21661002D01*
X23328193Y21661002D02*
X24045394Y22416001D01*
X8102844Y37115403D02*
X7693870Y37202405D01*
X-9272923Y23864705D02*
X-7910843Y24347004D01*
X7693870Y37202405D02*
X5840690Y37545804D01*
X10414695Y23391804D02*
X11530097Y22859704D01*
X-19000008Y32909005D02*
X-20607007Y31924204D01*
X5323669Y25045905D02*
X6525367Y24757405D01*
X7693870Y37202405D02*
X5840690Y37545804D01*
X21714996Y19962903D02*
X22550689Y20842602D01*
X26124694Y27577303D02*
X25958099Y27735404D01*
X11742591Y36140103D02*
X9935512Y36675404D01*
X16030998Y19962903D02*
X17129695Y19024502D01*
X19620994Y18101002D02*
X20002994Y18271101D01*
X13519290Y35511002D02*
X11742591Y36140103D01*
X-18003003Y18271103D02*
X-17664702Y18516802D01*
X-25525708Y28145806D02*
X-25958107Y27735405D01*
X26742797Y26506903D02*
X26613594Y26904503D01*
X26404495Y24915503D02*
X26613594Y25277604D01*
X14031997Y21415303D02*
X15050498Y20715302D01*
X-26404507Y27266606D02*
X-26613607Y26904505D01*
X24435485Y29086304D02*
X23993789Y29463503D01*
X-24435507Y29086306D02*
X-24479807Y29048506D01*
X22498489Y30610903D02*
X22160293Y30856703D01*
X26124694Y24604702D02*
X26404495Y24915503D01*
X18999992Y32909003D02*
X17343692Y33808302D01*
X-15050503Y20715302D02*
X-14032002Y21415303D01*
X-16031003Y19962903D02*
X-15050503Y20715302D01*
X25291397Y23727603D02*
X25816696Y24280503D01*
X2093143Y37939702D02*
X209049Y37989003D01*
X-17129702Y19024502D02*
X-16031003Y19962903D01*
X-20341206Y18516804D02*
X-20003006Y18271103D01*
D12*
%TO.P,U6,1*%
%TO.N,ROTOR_GND*%
X6502125Y16173193D03*
D13*
%TO.P,U6,2*%
%TO.N,COUNT_2*%
X6040398Y14904608D03*
D14*
%TO.P,U6,3*%
%TO.N,Net-(R9-Pad2)*%
X5374494Y16583617D03*
D15*
%TO.P,U6,4*%
%TO.N,ROTOR_GND*%
X4912767Y15315032D03*
%TD*%
D16*
%TO.P,U5,1*%
%TO.N,ROTOR_GND*%
X-10712066Y19699619D03*
D17*
%TO.P,U5,2*%
%TO.N,/tachometer/COUNT_1*%
X-10037066Y18530485D03*
D18*
%TO.P,U5,3*%
%TO.N,Net-(R8-Pad2)*%
X-11751296Y19099619D03*
D19*
%TO.P,U5,4*%
%TO.N,ROTOR_GND*%
X-11076296Y17930485D03*
%TD*%
D20*
%TO.P,J4,1*%
%TO.N,/CPU/PB6*%
X9282400Y-12555800D03*
%TO.P,J4,2*%
%TO.N,+3V3*%
X9282400Y-15095800D03*
%TO.P,J4,3*%
%TO.N,/CPU/PB7*%
X11822400Y-12555800D03*
%TO.P,J4,4*%
%TO.N,/CPU/PB5*%
X11822400Y-15095800D03*
%TO.P,J4,5*%
%TO.N,/CPU/RST#_P*%
X14362400Y-12555800D03*
%TO.P,J4,6*%
%TO.N,ROTOR_GND*%
X14362400Y-15095800D03*
%TD*%
D21*
%TO.N,+5V*%
X-30359000Y-7068000D03*
X-29300000Y15750000D03*
%TO.N,+3V3*%
X10297600Y-14804400D03*
X10789000Y-4655000D03*
X-260000Y-11894000D03*
%TO.N,/CPU/RST#_P*%
X13345600Y-12518400D03*
%TO.N,/CPU/PB6*%
X8100000Y-12450000D03*
%TO.N,/CPU/PB7*%
X10805600Y-13280400D03*
%TO.N,/CPU/PB5*%
X12583600Y-14296400D03*
%TO.N,/CPU/TIMEPULSE*%
X6979000Y-7322000D03*
X7614000Y-19260000D03*
%TO.N,Net-(R8-Pad2)*%
X-12643200Y18744000D03*
%TO.N,Net-(R9-Pad2)*%
X4206800Y16744000D03*
%TO.N,/tachometer/COUNT_1*%
X-9075995Y20792886D03*
X-2292000Y19094000D03*
%TO.N,/CPU/PC1*%
X-10166000Y-20911000D03*
X12948000Y-18752000D03*
X-3637363Y-21712500D03*
%TO.N,/CPU/PC0*%
X12313000Y-17863000D03*
X-27303944Y-3004000D03*
X-4832000Y-20950500D03*
X-28962000Y-1988000D03*
X-12325000Y-19133000D03*
%TO.N,/CPU/RX0*%
X-23374000Y-17990000D03*
X1899000Y-22435000D03*
%TO.N,/CPU/TX0*%
X-24390000Y-18752000D03*
X2159849Y-23347970D03*
%TO.N,/CPU/TX1*%
X-31502000Y-3512000D03*
X6471000Y-19514000D03*
%TO.N,/CPU/RX1*%
X3634019Y-20276000D03*
X-32391000Y-4655000D03*
%TO.N,/CPU/BTN*%
X14218000Y-17228000D03*
X22981000Y-14942000D03*
%TO.N,/CPU/GEO_STAT*%
X-28708000Y552000D03*
X-26295000Y552000D03*
%TO.N,ROTOR_GND*%
X-20707000Y-12910000D03*
X17393000Y1695000D03*
X-29089000Y-10751000D03*
X3550000Y-23578000D03*
X-26600000Y15950000D03*
X-17151000Y-7068000D03*
X26664000Y17443000D03*
X-2292000Y23412000D03*
X-26549000Y-21419000D03*
X8376000Y3092000D03*
X-24650000Y13800000D03*
X-5721000Y-22562000D03*
X33400000Y-1450000D03*
X-33407000Y14395000D03*
X-3943000Y15157000D03*
X-21088000Y-3258000D03*
X29204000Y-10243000D03*
X5582000Y7156000D03*
X-17278000Y-1226000D03*
X2534000Y13633000D03*
X-26295000Y-2242000D03*
X-10100000Y13700000D03*
X-14357000Y-1607000D03*
X-19945000Y-4274000D03*
X-28708000Y11474000D03*
X-6000Y-10878000D03*
X22727000Y5505000D03*
X-8642000Y-1607000D03*
X25013000Y8045000D03*
X-17100000Y13700000D03*
X22219000Y1060000D03*
X-26450000Y11650000D03*
X-14357000Y-591000D03*
X-19183000Y-9227000D03*
X10789000Y18459000D03*
X9011000Y-17228000D03*
X-16897000Y4616000D03*
X-28800000Y13800000D03*
X-12325000Y-14942000D03*
X-1657000Y-15831000D03*
X28800000Y-7000000D03*
X-8134000Y-5671000D03*
X-29216000Y-3639000D03*
X19552000Y-5036000D03*
X10789000Y1060000D03*
X-5340000Y23285000D03*
X-29470000Y-22816000D03*
X-24517000Y-12275000D03*
X-24390000Y-4020000D03*
X5328000Y-23197000D03*
X-11182000Y-7957000D03*
X29450000Y6900000D03*
X-514000Y-15831000D03*
X-10674000Y-10751000D03*
X-2546000Y-10878000D03*
X23870000Y-5290000D03*
X20314000Y1441000D03*
X9265000Y-19133000D03*
X-22500000Y12050000D03*
X-11436000Y2330000D03*
X7741000Y20872000D03*
X-8642000Y1441000D03*
X17647000Y-3258000D03*
X-15500000Y-10751000D03*
X-35693000Y-10624000D03*
X-25279000Y-83000D03*
X-6229000Y-16593000D03*
X-37725000Y-9735000D03*
X-12706000Y-2623000D03*
X-30867000Y-23578000D03*
X-10674000Y-2623000D03*
X29585000Y3219000D03*
X-13350000Y13800000D03*
X-30740000Y20618000D03*
X17266000Y12236000D03*
X17647000Y15919000D03*
X883000Y22142000D03*
X-13595000Y2457000D03*
X25521000Y-16847000D03*
X-27500000Y2050000D03*
X-10166000Y-15577000D03*
X10662000Y12490000D03*
X30855000Y11982000D03*
X17520000Y-6941000D03*
X-28073000Y-22181000D03*
X22346000Y3346000D03*
X-32900000Y5800000D03*
X-19250000Y15950000D03*
X629000Y11093000D03*
X-34550000Y6394000D03*
X-36455000Y6394000D03*
X31236000Y15538000D03*
X-1784000Y12998000D03*
X-28835000Y6394000D03*
X-6850000Y22750000D03*
X31236000Y-12656000D03*
X-29250000Y3600000D03*
X-11690000Y-2623000D03*
X-18548000Y-14561000D03*
X-20800000Y13700000D03*
X29585000Y11220000D03*
X21700000Y-18400000D03*
X20314000Y6648000D03*
X1772000Y23158000D03*
X-29216000Y-5036000D03*
X18790000Y2457000D03*
X-28327000Y-6560000D03*
X15996000Y171000D03*
X30850000Y-7300000D03*
X-21088000Y-7322000D03*
X-13087000Y-10751000D03*
X-35185000Y16046000D03*
X33014000Y-3766000D03*
X-8007000Y-10878000D03*
X-34804000Y14395000D03*
X-4300000Y21300000D03*
X30474000Y-16720000D03*
X-14865000Y-14561000D03*
X-7118000Y-22562000D03*
X-13341000Y-7957000D03*
X20060000Y4616000D03*
X-9658000Y-1607000D03*
X-13595000Y-19006000D03*
X-23250000Y-8400000D03*
X-36074000Y11347000D03*
X24886000Y933000D03*
X14980000Y9188000D03*
X-28835000Y19602000D03*
X-4451000Y-14688000D03*
X24759000Y-337000D03*
X-13341000Y-12910000D03*
X13329000Y-16339000D03*
X-3816000Y23285000D03*
X-9150000Y-3893000D03*
X-31883000Y9315000D03*
X11291944Y6261944D03*
X31350000Y-1150000D03*
X-14230000Y1695000D03*
X8884000Y-210000D03*
X-38233000Y6394000D03*
X-34169000Y-9481000D03*
X-5721000Y21126000D03*
X-24517000Y2076000D03*
X-2850000Y21350000D03*
X33550000Y1950000D03*
X-133000Y21253000D03*
X29450000Y4800000D03*
X18917000Y-9227000D03*
X-28962000Y8045000D03*
X-4578000Y-7957000D03*
X-10674000Y-1607000D03*
X-18300000Y11800000D03*
X18663000Y-12402000D03*
X-6610000Y-7957000D03*
X25648000Y-6687000D03*
X6217000Y-16466000D03*
X9196444Y8357444D03*
X-2673000Y-13418000D03*
X-20750000Y-9300000D03*
X-22231000Y-2242000D03*
X32252000Y12617000D03*
X-12452000Y2584000D03*
X24251000Y14903000D03*
X33150000Y-7050000D03*
X-32300000Y4150000D03*
X-36836000Y8045000D03*
X-26803000Y-11513000D03*
X23616000Y-337000D03*
X27400000Y3400000D03*
X-14900000Y11800000D03*
X27045000Y6648000D03*
X-8134000Y-16847000D03*
X-32264000Y21380000D03*
X26283000Y2203000D03*
X-7900000Y15950000D03*
X5328000Y11220000D03*
X-8100000Y21600000D03*
X27680000Y16554000D03*
X-8896000Y-7957000D03*
X-22739000Y-5798000D03*
X17647000Y-1480000D03*
X2788000Y9315000D03*
X-27946000Y24174000D03*
X31109000Y-10624000D03*
X-13087000Y-4401000D03*
X21711000Y-2750000D03*
X-10900000Y4150000D03*
X-8642000Y-22347500D03*
X-22000000Y15950000D03*
X19171000Y-1607000D03*
X-2927000Y-22689000D03*
X20949000Y44000D03*
X-14357000Y552000D03*
X-24400000Y15950000D03*
X14980000Y5886000D03*
X25013000Y3981000D03*
X13202000Y16046000D03*
X26156000Y5124000D03*
X31363000Y-14815000D03*
X23235000Y-16974000D03*
X-25787000Y3219000D03*
X-20707000Y-11132000D03*
X-27438000Y-845000D03*
X2788000Y-12402000D03*
X-10801000Y1441000D03*
X-5750000Y18150000D03*
X28315000Y-16974000D03*
X-16200000Y16100000D03*
X23489000Y2330000D03*
X14091000Y-1099000D03*
X23870000Y-10243000D03*
X7868000Y4997000D03*
X30347000Y9061000D03*
X24251000Y-2750000D03*
X-7850000Y19050000D03*
X22473000Y17443000D03*
X-18548000Y-5671000D03*
X10916000Y9061000D03*
X26410000Y14776000D03*
X21711000Y-11767000D03*
X-17532000Y-10624000D03*
X14091000Y-5036000D03*
X-5594000Y-10751000D03*
X-20834000Y-14561000D03*
X17520000Y8299000D03*
X-26930000Y23158000D03*
X8249000Y-3131000D03*
X-10684447Y16269441D03*
X-14103000Y17443000D03*
X-36074000Y-9481000D03*
X-26930000Y-7830000D03*
X10789000Y-2242000D03*
X-26900000Y-4750000D03*
X-13722000Y-2496000D03*
X-15500000Y-7830000D03*
X-9658000Y1441000D03*
X-25533000Y21761000D03*
X14980000Y1314000D03*
X-32050000Y11550000D03*
X17647000Y-15577000D03*
X19044000Y44000D03*
X-37217000Y-11132000D03*
%TO.N,STATOR*%
X31896400Y18738400D03*
X23920800Y28238000D03*
X24010000Y-28130000D03*
%TO.N,PA1*%
X22301200Y16107600D03*
X22275800Y9986200D03*
X15869000Y-3512000D03*
X15869000Y-7703000D03*
%TO.N,COUNT_2*%
X7156800Y14544000D03*
X14091000Y-18752000D03*
%TD*%
D22*
%TO.N,*%
X-13519299Y-35511001D02*
X-11742600Y-36140098D01*
X7910835Y24347004D02*
X9272918Y23864705D01*
X1235420Y25573105D02*
X2675926Y25459805D01*
X19211994Y18014102D02*
X19620994Y18101002D01*
X-26124699Y-24604698D02*
X-26404500Y-24915496D01*
X22498489Y30610903D02*
X22160293Y30856703D01*
X-26613607Y26904505D02*
X-26742807Y26506905D01*
X-5840706Y37545804D02*
X-7693886Y37202405D01*
X26124694Y-27577301D02*
X26404495Y-27266601D01*
X-12800002Y22170203D02*
X-11530102Y22859704D01*
X20606990Y31924202D02*
X18999992Y32909003D01*
X-21714999Y-19962898D02*
X-22550698Y-20842597D01*
X6525367Y24757405D02*
X7910835Y24347004D01*
X-3972088Y37791802D02*
X-5840706Y37545804D01*
X-18002999Y-18271099D02*
X-18384900Y-18100997D01*
X-7910843Y24347004D02*
X-6525372Y24757405D01*
X-6525372Y24757405D02*
X-5323670Y25045905D01*
X6525371Y-24757400D02*
X5323669Y-25045898D01*
X-1235421Y25573105D02*
X0Y25605505D01*
X19620998Y-18100997D02*
X19211997Y-18014099D01*
X-15050503Y20715302D02*
X-14032002Y21415303D01*
X209049Y37989003D02*
X-209065Y37989003D01*
X24700500Y-23105499D02*
X24045394Y-22416000D01*
X-24833407Y28746506D02*
X-25141707Y28483206D01*
X-21715006Y19962904D02*
X-20823506Y19024504D01*
X26742797Y-25675201D02*
X26613601Y-25277603D01*
X23993789Y29463503D02*
X22498489Y30610903D01*
X24612495Y-28935104D02*
X24833396Y-28746505D01*
X26124694Y27577303D02*
X25958099Y27735404D01*
X22498489Y30610903D02*
X22160293Y30856703D01*
X13519290Y35511002D02*
X11742591Y36140103D01*
X-8102856Y37115403D02*
X-9935528Y36675404D01*
X26404495Y27266604D02*
X26124694Y27577303D01*
X10414695Y23391804D02*
X11530097Y22859704D01*
X5840690Y37545804D02*
X3972072Y37791802D01*
X25816696Y-24280502D02*
X25291397Y-23727600D01*
X6525367Y24757405D02*
X7910835Y24347004D01*
X4108528Y25271204D02*
X5323669Y25045905D01*
X-24435500Y-29086303D02*
X-23993800Y-29463500D01*
X-18793908Y18014103D02*
X-18384903Y18101002D01*
X4108531Y-25271202D02*
X2675933Y-25459800D01*
X-18793898Y-18014099D02*
X-19211998Y-18014099D01*
X26786499Y26091004D02*
X26742797Y26506903D01*
X20606994Y-31924201D02*
X22160293Y-30856704D01*
X-25958107Y27735405D02*
X-26124707Y27577305D01*
X25291397Y23727603D02*
X25816696Y24280503D01*
X-5323670Y25045905D02*
X-4108532Y25271204D01*
X-26613607Y25277606D02*
X-26404507Y24915505D01*
X-24612500Y-28935104D02*
X-24479800Y-29048500D01*
X13519294Y-35511001D02*
X15260597Y-34789703D01*
X24435493Y-29086303D02*
X24479797Y-29048500D01*
X-25816700Y-24280502D02*
X-26124699Y-24604698D01*
X-18384903Y18101002D02*
X-18003003Y18271103D01*
X23993789Y29463503D02*
X22498489Y30610903D01*
X-12800002Y22170203D02*
X-11530102Y22859704D01*
X-26613607Y26904505D02*
X-26742807Y26506905D01*
X-4108532Y25271204D02*
X-2675931Y25459805D01*
X-17129698Y-19024497D02*
X-17664698Y-18516799D01*
X26124694Y24604702D02*
X26404495Y24915503D01*
X-2675931Y25459805D02*
X-1235421Y25573105D01*
X5840690Y37545804D02*
X3972072Y37791802D01*
X-19212006Y18014103D02*
X-18793908Y18014103D01*
X25291397Y23727603D02*
X25816696Y24280503D01*
X20823493Y19024502D02*
X21714996Y19962903D01*
X13519290Y35511002D02*
X11742591Y36140103D01*
X-25816708Y24280505D02*
X-25291407Y23727604D01*
X-20341206Y18516804D02*
X-20003006Y18271103D01*
X-18793908Y18014103D02*
X-18384903Y18101002D01*
X18002998Y-18271099D02*
X17664699Y-18516799D01*
X26613601Y-26904502D02*
X26742797Y-26506896D01*
X10414703Y-23391799D02*
X9272918Y-23864700D01*
X-23328208Y21661004D02*
X-22550707Y20842604D01*
X3972072Y37791802D02*
X2093143Y37939702D01*
X-15260600Y-34789703D02*
X-13519299Y-35511001D01*
X9272918Y23864705D02*
X10414695Y23391804D01*
X-2093148Y-37939697D02*
X-209057Y-37988998D01*
X20341194Y18516800D02*
X20823493Y19024502D01*
X-5323670Y-25045898D02*
X-6525368Y-24757400D01*
X15260589Y34789702D02*
X13519290Y35511002D01*
X26124694Y-24604698D02*
X25816696Y-24280502D01*
X-19621007Y18101004D02*
X-19212006Y18014103D01*
X-7693879Y-37202400D02*
X-5840699Y-37545799D01*
X-15260607Y34789704D02*
X-15642508Y34619704D01*
X-25958100Y-27735397D02*
X-25525700Y-28145797D01*
X-22550698Y-20842597D02*
X-23328198Y-21660995D01*
X22498489Y30610903D02*
X22160293Y30856703D01*
X-9935521Y-36675399D02*
X-8102849Y-37115402D01*
X-18003003Y18271103D02*
X-17664702Y18516802D01*
X7910835Y24347004D02*
X9272918Y23864705D01*
X-15642508Y34619704D02*
X-17343707Y33808304D01*
X-5323670Y25045905D02*
X-4108532Y25271204D01*
X25427001Y-28239501D02*
X25525695Y-28145797D01*
X-10414704Y23391804D02*
X-9272923Y23864705D01*
X24833389Y28746504D02*
X24612487Y28935105D01*
X-25141707Y28483206D02*
X-25427006Y28239506D01*
X-9935528Y36675404D02*
X-11742608Y36140105D01*
X-20607007Y31924204D02*
X-22160307Y30856705D01*
X-5840706Y37545804D02*
X-7693886Y37202405D01*
X-15050499Y-20715301D02*
X-16030999Y-19962898D01*
X24833389Y28746504D02*
X24612487Y28935105D01*
X-17129702Y19024502D02*
X-16031003Y19962903D01*
X-25427006Y28239506D02*
X-25525708Y28145806D01*
X26613594Y26904503D02*
X26404495Y27266604D01*
X-18384900Y-18100997D02*
X-18793898Y-18014099D01*
X26404495Y-24915496D02*
X26124694Y-24604698D01*
X26124694Y27577303D02*
X25958099Y27735404D01*
X-22498507Y30610905D02*
X-23993807Y29463505D01*
X-22160307Y30856705D02*
X-22498507Y30610905D01*
X-209057Y-37988998D02*
X209056Y-37988998D01*
X23328193Y21661002D02*
X24045394Y22416001D01*
X26613594Y26904503D02*
X26404495Y27266604D01*
X18999996Y-32908996D02*
X20606994Y-31924201D01*
X24612487Y28935105D02*
X24479789Y29048504D01*
X-11742608Y36140105D02*
X-13519307Y35511004D01*
X23328193Y21661002D02*
X24045394Y22416001D01*
X15260589Y34789702D02*
X13519290Y35511002D01*
X-17129702Y19024502D02*
X-16031003Y19962903D01*
X-15642508Y34619704D02*
X-17343707Y33808304D01*
X-26786507Y26091006D02*
X-26742807Y25675206D01*
X5840690Y37545804D02*
X3972072Y37791802D01*
X-17343707Y33808304D02*
X-19000008Y32909005D01*
X-19000008Y32909005D02*
X-20607007Y31924204D01*
X-15260607Y34789704D02*
X-15642508Y34619704D01*
X-5840706Y37545804D02*
X-7693886Y37202405D01*
X-26404507Y24915505D02*
X-26124707Y24604704D01*
X11742591Y36140103D02*
X9935512Y36675404D01*
X-26404507Y24915505D02*
X-26124707Y24604704D01*
X20823493Y19024502D02*
X21714996Y19962903D01*
X-24612507Y28935107D02*
X-24833407Y28746506D01*
X11530101Y-22859703D02*
X10414703Y-23391799D01*
X-26613607Y26904505D02*
X-26742807Y26506905D01*
X17129695Y19024502D02*
X17664695Y18516800D01*
X-17343707Y33808304D02*
X-19000008Y32909005D01*
X-13519307Y35511004D02*
X-15260607Y34789704D01*
X7693870Y37202405D02*
X5840690Y37545804D01*
X-17664702Y18516802D02*
X-17129702Y19024502D01*
X-22160300Y-30856704D02*
X-20606999Y-31924201D01*
X-13519307Y35511004D02*
X-15260607Y34789704D01*
X9935516Y-36675399D02*
X11742595Y-36140098D01*
X18384899Y-18100997D02*
X18002998Y-18271099D01*
X-4108532Y25271204D02*
X-2675931Y25459805D01*
X26404495Y24915503D02*
X26613594Y25277604D01*
X-209065Y37989003D02*
X-2093155Y37939702D01*
X-17664698Y-18516799D02*
X-18002999Y-18271099D01*
X-25958107Y27735405D02*
X-26124707Y27577305D01*
X15050498Y20715302D02*
X16030998Y19962903D01*
X-20002999Y-18271099D02*
X-20341198Y-18516799D01*
X22160293Y30856703D02*
X20606990Y31924202D01*
X-1235421Y25573105D02*
X0Y25605505D01*
X-26742807Y26506905D02*
X-26786507Y26091006D01*
X2093143Y37939702D02*
X209049Y37989003D01*
X-12800002Y22170203D02*
X-11530102Y22859704D01*
X209049Y37989003D02*
X-209065Y37989003D01*
X9272918Y23864705D02*
X10414695Y23391804D01*
X-16031003Y19962903D02*
X-15050503Y20715302D01*
X15050498Y20715302D02*
X16030998Y19962903D01*
X18002994Y18271101D02*
X18384895Y18101002D01*
X-22550707Y20842604D02*
X-21715006Y19962904D01*
X21714996Y19962903D02*
X22550689Y20842602D01*
X-16030999Y-19962898D02*
X-17129698Y-19024497D01*
X1235420Y25573105D02*
X2675926Y25459805D01*
X18999992Y32909003D02*
X17343692Y33808302D01*
X-9272923Y23864705D02*
X-7910843Y24347004D01*
X25525695Y28145804D02*
X25426994Y28239504D01*
X24700500Y23105502D02*
X25291397Y23727603D01*
X8102844Y37115403D02*
X7693870Y37202405D01*
X-4108529Y-25271202D02*
X-5323670Y-25045898D01*
X-23993800Y-29463500D02*
X-22498499Y-30610900D01*
X15642494Y-34619705D02*
X17343696Y-33808303D01*
X26404495Y24915503D02*
X26613594Y25277604D01*
X19620994Y18101002D02*
X20002994Y18271101D01*
X0Y25605505D02*
X1235420Y25573105D01*
X25525695Y-28145797D02*
X25958099Y-27735397D01*
X-24700507Y23105504D02*
X-24045407Y22416003D01*
X-24612507Y28935107D02*
X-24833407Y28746506D01*
X-25816708Y24280505D02*
X-25291407Y23727604D01*
X-9935528Y36675404D02*
X-11742608Y36140105D01*
X-24479807Y29048506D02*
X-24612507Y28935107D01*
X-1235421Y25573105D02*
X0Y25605505D01*
X-25958107Y27735405D02*
X-26124707Y27577305D01*
X26742797Y-26506896D02*
X26786499Y-26091003D01*
X-19000008Y32909005D02*
X-20607007Y31924204D01*
X-15642500Y-34619705D02*
X-15260600Y-34789703D01*
X-5323670Y25045905D02*
X-4108532Y25271204D01*
X-25141707Y28483206D02*
X-25427006Y28239506D01*
X17343692Y33808302D02*
X15642494Y34619702D01*
X25958099Y27735404D02*
X25525695Y28145804D01*
X18793895Y18014102D02*
X19211994Y18014102D01*
X10414695Y23391804D02*
X11530097Y22859704D01*
X-24045399Y-22416000D02*
X-24700499Y-23105499D01*
X-26124707Y27577305D02*
X-26404507Y27266606D01*
X-25525708Y28145806D02*
X-25958107Y27735405D01*
X-19621007Y18101004D02*
X-19212006Y18014103D01*
X7693870Y37202405D02*
X5840690Y37545804D01*
X-14032002Y21415303D02*
X-12800002Y22170203D01*
X26786499Y26091004D02*
X26742797Y26506903D01*
X-26124707Y27577305D02*
X-26404507Y27266606D01*
X-21715006Y19962904D02*
X-20823506Y19024504D01*
X20823497Y-19024497D02*
X20341197Y-18516799D01*
X-22550707Y20842604D02*
X-21715006Y19962904D01*
X-10414704Y23391804D02*
X-9272923Y23864705D01*
X14031997Y21415303D02*
X15050498Y20715302D01*
X19211994Y18014102D02*
X19620994Y18101002D01*
X26404495Y-27266601D02*
X26613601Y-26904502D01*
X-20003006Y18271103D02*
X-19621007Y18101004D01*
X-3972088Y37791802D02*
X-5840706Y37545804D01*
X15642494Y34619702D02*
X15260589Y34789702D01*
X-26613607Y25277606D02*
X-26404507Y24915505D01*
X12799995Y22170203D02*
X14031997Y21415303D01*
X20823493Y19024502D02*
X21714996Y19962903D01*
X20002994Y18271101D02*
X20341194Y18516800D01*
X-24700507Y23105504D02*
X-24045407Y22416003D01*
X-20341206Y18516804D02*
X-20003006Y18271103D01*
X-22550707Y20842604D02*
X-21715006Y19962904D01*
X-26613599Y-25277603D02*
X-26742799Y-25675201D01*
X-25291407Y23727604D02*
X-24700507Y23105504D01*
X26786499Y-26091003D02*
X26742797Y-25675201D01*
X-17343707Y33808304D02*
X-19000008Y32909005D01*
X-24435507Y29086306D02*
X-24479807Y29048506D01*
X-13519307Y35511004D02*
X-15260607Y34789704D01*
X12799995Y22170203D02*
X14031997Y21415303D01*
X-25427006Y28239506D02*
X-25525708Y28145806D01*
X-18384903Y18101002D02*
X-18003003Y18271103D01*
X15642494Y34619702D02*
X15260589Y34789702D01*
X2675933Y-25459800D02*
X1235420Y-25573104D01*
X-24435507Y29086306D02*
X-24479807Y29048506D01*
X-17343699Y-33808303D02*
X-15642500Y-34619705D01*
X-22160307Y30856705D02*
X-22498507Y30610905D01*
X-5840699Y-37545799D02*
X-3972081Y-37791793D01*
X16030998Y-19962898D02*
X15050498Y-20715301D01*
X-26124707Y24604704D02*
X-25816708Y24280505D01*
X-24479800Y-29048500D02*
X-24435500Y-29086303D01*
X8102844Y37115403D02*
X7693870Y37202405D01*
X-26742807Y25675206D02*
X-26613607Y25277606D01*
X18384895Y18101002D02*
X18793895Y18014102D01*
X23993789Y-29463500D02*
X24435493Y-29086303D01*
X21714996Y-19962898D02*
X20823497Y-19024497D01*
X26124694Y24604702D02*
X26404495Y24915503D01*
X3972072Y37791802D02*
X2093143Y37939702D01*
X-10414700Y-23391799D02*
X-11530098Y-22859703D01*
X17129695Y19024502D02*
X17664695Y18516800D01*
X-26404500Y-24915496D02*
X-26613599Y-25277603D01*
X-209065Y37989003D02*
X-2093155Y37939702D01*
X-6525368Y-24757400D02*
X-7910840Y-24347000D01*
X-16031003Y19962903D02*
X-15050503Y20715302D01*
X20002994Y18271101D02*
X20341194Y18516800D01*
X24479789Y29048504D02*
X24435485Y29086304D01*
X-4108532Y25271204D02*
X-2675931Y25459805D01*
X25816696Y24280503D02*
X26124694Y24604702D01*
X-6525372Y24757405D02*
X-5323670Y25045905D01*
X-9935528Y36675404D02*
X-11742608Y36140105D01*
X-26786507Y26091006D02*
X-26742807Y25675206D01*
X-18003003Y18271103D02*
X-17664702Y18516802D01*
X-23993807Y29463505D02*
X-24435507Y29086306D01*
X24612487Y28935105D02*
X24479789Y29048504D01*
X-2093155Y37939702D02*
X-3972088Y37791802D01*
X24479789Y29048504D02*
X24435485Y29086304D01*
X24435485Y29086304D02*
X23993789Y29463503D01*
X-26742807Y25675206D02*
X-26613607Y25277606D01*
X17664695Y18516800D02*
X18002994Y18271101D01*
X-23328208Y21661004D02*
X-22550707Y20842604D01*
X21714996Y19962903D02*
X22550689Y20842602D01*
X24479789Y29048504D02*
X24435485Y29086304D01*
X-26613599Y-26904502D02*
X-26404500Y-27266601D01*
X-6525372Y24757405D02*
X-5323670Y25045905D01*
X-15260607Y34789704D02*
X-15642508Y34619704D01*
X5840698Y-37545799D02*
X7693878Y-37202400D01*
X-26742807Y26506905D02*
X-26786507Y26091006D01*
X11742591Y36140103D02*
X9935512Y36675404D01*
X23328201Y-21660995D02*
X22550697Y-20842597D01*
X-8102849Y-37115402D02*
X-7693879Y-37202400D01*
X-24045407Y22416003D02*
X-23328208Y21661004D01*
X-19621007Y18101004D02*
X-19212006Y18014103D01*
X22160293Y30856703D02*
X20606990Y31924202D01*
X-20341206Y18516804D02*
X-20003006Y18271103D01*
X-15050503Y20715302D02*
X-14032002Y21415303D01*
X17343696Y-33808303D02*
X18999996Y-32908996D01*
X20002998Y-18271099D02*
X19620998Y-18100997D01*
X26613601Y-25277603D02*
X26404495Y-24915496D01*
X15050498Y-20715301D02*
X14032001Y-21415298D01*
X25426994Y28239504D02*
X25141693Y28483204D01*
X25816696Y24280503D02*
X26124694Y24604702D01*
X-26124707Y27577305D02*
X-26404507Y27266606D01*
X-209065Y37989003D02*
X-2093155Y37939702D01*
X20341194Y18516800D02*
X20823493Y19024502D01*
X26742797Y26506903D02*
X26613594Y26904503D01*
X0Y25605505D02*
X1235420Y25573105D01*
X7910842Y-24347000D02*
X6525371Y-24757400D01*
X-25816708Y24280505D02*
X-25291407Y23727604D01*
X16030998Y19962903D02*
X17129695Y19024502D01*
X26786499Y26091004D02*
X26742797Y26506903D01*
X19620994Y18101002D02*
X20002994Y18271101D01*
X5323669Y25045905D02*
X6525367Y24757405D01*
X-11742608Y36140105D02*
X-13519307Y35511004D01*
X-25141699Y-28483200D02*
X-24833399Y-28746505D01*
X-26742799Y-25675201D02*
X-26786500Y-26091003D01*
X25958099Y27735404D02*
X25525695Y28145804D01*
X-20823498Y-19024497D02*
X-21714999Y-19962898D01*
X-25525708Y28145806D02*
X-25958107Y27735405D01*
X-22498507Y30610905D02*
X-23993807Y29463505D01*
X25958099Y27735404D02*
X25525695Y28145804D01*
X-26404507Y24915505D02*
X-26124707Y24604704D01*
X-23328208Y21661004D02*
X-22550707Y20842604D01*
X-7693886Y37202405D02*
X-8102856Y37115403D01*
X-7693886Y37202405D02*
X-8102856Y37115403D01*
X17343692Y33808302D02*
X15642494Y34619702D01*
X4108528Y25271204D02*
X5323669Y25045905D01*
X26613594Y25277604D02*
X26742797Y25675204D01*
X9272918Y23864705D02*
X10414695Y23391804D01*
X-24045407Y22416003D02*
X-23328208Y21661004D01*
X24700500Y23105502D02*
X25291397Y23727603D01*
X1235420Y25573105D02*
X2675926Y25459805D01*
X22160293Y-30856704D02*
X22498489Y-30610900D01*
X11742595Y-36140098D02*
X13519294Y-35511001D01*
X-20341198Y-18516799D02*
X-20823498Y-19024497D01*
X-26404500Y-27266601D02*
X-26124699Y-27577301D01*
X20002994Y18271101D02*
X20341194Y18516800D01*
X-26613607Y25277606D02*
X-26404507Y24915505D01*
X5323669Y25045905D02*
X6525367Y24757405D01*
X-20823506Y19024504D02*
X-20341206Y18516804D01*
X12800003Y-22170196D02*
X11530101Y-22859703D01*
X19620994Y18101002D02*
X20002994Y18271101D01*
X-1235421Y-25573104D02*
X-2675927Y-25459800D01*
X2093143Y37939702D02*
X209049Y37989003D01*
X2093147Y-37939697D02*
X3972076Y-37791793D01*
X25291397Y23727603D02*
X25816696Y24280503D01*
X-24833399Y-28746505D02*
X-24612500Y-28935104D01*
X20606990Y31924202D02*
X18999992Y32909003D01*
X-24045407Y22416003D02*
X-23328208Y21661004D01*
X10414695Y23391804D02*
X11530097Y22859704D01*
X26404495Y27266604D02*
X26124694Y27577303D01*
X25525695Y28145804D02*
X25426994Y28239504D01*
X-26786507Y26091006D02*
X-26742807Y25675206D01*
X26124694Y27577303D02*
X25958099Y27735404D01*
X8102844Y-37115402D02*
X9935516Y-36675399D01*
X26613594Y26904503D02*
X26404495Y27266604D01*
X-20606999Y-31924201D02*
X-19000000Y-32908996D01*
X-22498507Y30610905D02*
X-23993807Y29463505D01*
X23993789Y29463503D02*
X22498489Y30610903D01*
X-19211998Y-18014099D02*
X-19620999Y-18100997D01*
X-26742807Y26506905D02*
X-26786507Y26091006D01*
X-18384903Y18101002D02*
X-18384903Y18101002D01*
X-18003003Y18271103D02*
X-17664702Y18516802D01*
X-18793908Y18014103D02*
X-18384903Y18101002D01*
X-21715006Y19962904D02*
X-20823506Y19024504D01*
X17664695Y18516800D02*
X18002994Y18271101D01*
X23328193Y21661002D02*
X24045394Y22416001D01*
X-17664702Y18516802D02*
X-17129702Y19024502D01*
X-3972088Y37791802D02*
X-5840706Y37545804D01*
X18002994Y18271101D02*
X18384895Y18101002D01*
X209056Y-37988998D02*
X2093147Y-37939697D01*
X-20003006Y18271103D02*
X-19621007Y18101004D01*
X-2675931Y25459805D02*
X-1235421Y25573105D01*
X-7693886Y37202405D02*
X-8102856Y37115403D01*
X14032001Y-21415298D02*
X12800003Y-22170196D01*
X25816696Y24280503D02*
X26124694Y24604702D01*
X-25141707Y28483206D02*
X-25427006Y28239506D01*
X5323669Y25045905D02*
X6525367Y24757405D01*
X-14032002Y21415303D02*
X-12800002Y22170203D01*
X0Y25605505D02*
X1235420Y25573105D01*
X-22160307Y30856705D02*
X-22498507Y30610905D01*
X26742797Y25675204D02*
X26786499Y26091004D01*
X2675926Y25459805D02*
X4108528Y25271204D01*
X2093143Y37939702D02*
X209049Y37989003D01*
X-25525700Y-28145797D02*
X-25426999Y-28239501D01*
X-20607007Y31924204D02*
X-22160307Y30856705D01*
X-9272923Y23864705D02*
X-7910843Y24347004D01*
X-17129702Y19024502D02*
X-16031003Y19962903D01*
X17664699Y-18516799D02*
X17129699Y-19024497D01*
X14031997Y21415303D02*
X15050498Y20715302D01*
X25291397Y-23727600D02*
X24700500Y-23105499D01*
X-24479807Y29048506D02*
X-24612507Y28935107D01*
X18793895Y18014102D02*
X19211994Y18014102D01*
X26404495Y24915503D02*
X26613594Y25277604D01*
X-26124699Y-27577301D02*
X-25958100Y-27735397D01*
X-25291407Y23727604D02*
X-24700507Y23105504D01*
X22550689Y20842602D02*
X23328193Y21661002D01*
X24479797Y-29048500D02*
X24612495Y-28935104D01*
X-7910843Y24347004D02*
X-6525372Y24757405D01*
X25426994Y28239504D02*
X25141693Y28483204D01*
X24045394Y-22416000D02*
X23328201Y-21660995D01*
X18999992Y32909003D02*
X17343692Y33808302D01*
X2675926Y25459805D02*
X4108528Y25271204D01*
X26404495Y27266604D02*
X26124694Y27577303D01*
X7693870Y37202405D02*
X5840690Y37545804D01*
X26742797Y26506903D02*
X26613594Y26904503D01*
X24700500Y23105502D02*
X25291397Y23727603D01*
X-26124707Y24604704D02*
X-25816708Y24280505D01*
X25141693Y28483204D02*
X24833389Y28746504D01*
X1235420Y-25573104D02*
X0Y-25605499D01*
X24435485Y29086304D02*
X23993789Y29463503D01*
X17343692Y33808302D02*
X15642494Y34619702D01*
X17129699Y-19024497D02*
X16030998Y-19962898D01*
X9935512Y36675404D02*
X8102844Y37115403D01*
X17129695Y19024502D02*
X17664695Y18516800D01*
X-20003006Y18271103D02*
X-19621007Y18101004D01*
X-2093155Y37939702D02*
X-3972088Y37791802D01*
X-18384903Y18101002D02*
X-18384903Y18101002D01*
X26613594Y25277604D02*
X26742797Y25675204D01*
X-15642508Y34619704D02*
X-17343707Y33808304D01*
X24833389Y28746504D02*
X24612487Y28935105D01*
X-9272923Y23864705D02*
X-7910843Y24347004D01*
X-12800000Y-22170196D02*
X-14031998Y-21415298D01*
X-11530098Y-22859703D02*
X-12800000Y-22170196D01*
X-19620999Y-18100997D02*
X-20002999Y-18271099D01*
X-19000000Y-32908996D02*
X-17343699Y-33808303D01*
X19211997Y-18014099D02*
X18793899Y-18014099D01*
X18002994Y18271101D02*
X18384895Y18101002D01*
X6525367Y24757405D02*
X7910835Y24347004D01*
X-23993807Y29463505D02*
X-24435507Y29086306D01*
X11530097Y22859704D02*
X12799995Y22170203D01*
X-20607007Y31924204D02*
X-22160307Y30856705D01*
X22160293Y30856703D02*
X20606990Y31924202D01*
X-26404507Y27266606D02*
X-26613607Y26904505D01*
X20606990Y31924202D02*
X18999992Y32909003D01*
X25141693Y28483204D02*
X24833389Y28746504D01*
X-25291400Y-23727600D02*
X-25816700Y-24280502D01*
X15260589Y34789702D02*
X13519290Y35511002D01*
X-15050503Y20715302D02*
X-14032002Y21415303D01*
X-26742799Y-26506896D02*
X-26613599Y-26904502D01*
X18384895Y18101002D02*
X18793895Y18014102D01*
X9935512Y36675404D02*
X8102844Y37115403D01*
X209049Y37989003D02*
X-209065Y37989003D01*
X24045394Y22416001D02*
X24700500Y23105502D01*
X25141693Y-28483200D02*
X25427001Y-28239501D01*
X7910835Y24347004D02*
X9272918Y23864705D01*
X15260597Y-34789703D02*
X15642494Y-34619705D01*
X-11530102Y22859704D02*
X-10414704Y23391804D01*
X-2675931Y25459805D02*
X-1235421Y25573105D01*
X9935512Y36675404D02*
X8102844Y37115403D01*
X2093147Y-37939697D02*
X2093147Y-37939697D01*
X0Y-25605499D02*
X-1235421Y-25573104D01*
X17664695Y18516800D02*
X18002994Y18271101D01*
X26742797Y26506903D02*
X26613594Y26904503D01*
X3972076Y-37791793D02*
X5840698Y-37545799D01*
X-25291407Y23727604D02*
X-24700507Y23105504D01*
X24612487Y28935105D02*
X24479789Y29048504D01*
X22550697Y-20842597D02*
X21714996Y-19962898D01*
X-23993807Y29463505D02*
X-24435507Y29086306D01*
X16030998Y19962903D02*
X17129695Y19024502D01*
X-3972081Y-37791793D02*
X-2093148Y-37939697D01*
X-20823506Y19024504D02*
X-20341206Y18516804D01*
X-25426999Y-28239501D02*
X-25141699Y-28483200D01*
X24045394Y22416001D02*
X24700500Y23105502D01*
X7693878Y-37202400D02*
X8102844Y-37115402D01*
X-18384903Y18101002D02*
X-18384903Y18101002D01*
X-14031998Y-21415298D02*
X-15050499Y-20715301D01*
X18999992Y32909003D02*
X17343692Y33808302D01*
X18793895Y18014102D02*
X19211994Y18014102D01*
X-19212006Y18014103D02*
X-18793908Y18014103D01*
X21714996Y19962903D02*
X22550689Y20842602D01*
X18793899Y-18014099D02*
X18384899Y-18100997D01*
X-23328198Y-21660995D02*
X-24045399Y-22416000D01*
X26124694Y24604702D02*
X26404495Y24915503D01*
X-16031003Y19962903D02*
X-15050503Y20715302D01*
X20341194Y18516800D02*
X20823493Y19024502D01*
X-11530102Y22859704D02*
X-10414704Y23391804D01*
X16030998Y19962903D02*
X17129695Y19024502D01*
X-8102856Y37115403D02*
X-9935528Y36675404D01*
X-7910843Y24347004D02*
X-6525372Y24757405D01*
X12799995Y22170203D02*
X14031997Y21415303D01*
X25525695Y28145804D02*
X25426994Y28239504D01*
X25426994Y28239504D02*
X25141693Y28483204D01*
X-9272919Y-23864700D02*
X-10414700Y-23391799D01*
X-24479807Y29048506D02*
X-24612507Y28935107D01*
X22498489Y-30610900D02*
X23993789Y-29463500D01*
X-24700499Y-23105499D02*
X-25291400Y-23727600D01*
X-25525708Y28145806D02*
X-25958107Y27735405D01*
X26613594Y25277604D02*
X26742797Y25675204D01*
X-25427006Y28239506D02*
X-25525708Y28145806D01*
X25141693Y28483204D02*
X24833389Y28746504D01*
X-26124707Y24604704D02*
X-25816708Y24280505D01*
X-26742807Y25675206D02*
X-26613607Y25277606D01*
X3972072Y37791802D02*
X2093143Y37939702D01*
X11530097Y22859704D02*
X12799995Y22170203D01*
X-26404507Y27266606D02*
X-26613607Y26904505D01*
X-18384903Y18101002D02*
X-18003003Y18271103D01*
X19211994Y18014102D02*
X19620994Y18101002D01*
X-10414704Y23391804D02*
X-9272923Y23864705D01*
X-17664702Y18516802D02*
X-17129702Y19024502D01*
X-11742600Y-36140098D02*
X-9935521Y-36675399D01*
X24435485Y29086304D02*
X23993789Y29463503D01*
X-11742608Y36140105D02*
X-13519307Y35511004D01*
X22550689Y20842602D02*
X23328193Y21661002D01*
X-14032002Y21415303D02*
X-12800002Y22170203D01*
X-26786500Y-26091003D02*
X-26742799Y-26506896D01*
X9272918Y-23864700D02*
X7910842Y-24347000D01*
X-8102856Y37115403D02*
X-9935528Y36675404D01*
X25958099Y-27735397D02*
X26124694Y-27577301D01*
X26742797Y25675204D02*
X26786499Y26091004D01*
X20341197Y-18516799D02*
X20002998Y-18271099D01*
X-24833407Y28746506D02*
X-25141707Y28483206D01*
X14031997Y21415303D02*
X15050498Y20715302D01*
X-19212006Y18014103D02*
X-18793908Y18014103D01*
X22550689Y20842602D02*
X23328193Y21661002D01*
X-26404507Y27266606D02*
X-26613607Y26904505D01*
X-24833407Y28746506D02*
X-25141707Y28483206D01*
X4108528Y25271204D02*
X5323669Y25045905D01*
X13519290Y35511002D02*
X11742591Y36140103D01*
X11742591Y36140103D02*
X9935512Y36675404D01*
X-11530102Y22859704D02*
X-10414704Y23391804D01*
X26742797Y25675204D02*
X26786499Y26091004D01*
X-2675927Y-25459800D02*
X-4108529Y-25271202D01*
X-7910840Y-24347000D02*
X-9272919Y-23864700D01*
X24833396Y-28746505D02*
X25141693Y-28483200D01*
X-24612507Y28935107D02*
X-24833407Y28746506D01*
X-24700507Y23105504D02*
X-24045407Y22416003D01*
X8102844Y37115403D02*
X7693870Y37202405D01*
X11530097Y22859704D02*
X12799995Y22170203D01*
X-2093155Y37939702D02*
X-3972088Y37791802D01*
X15050498Y20715302D02*
X16030998Y19962903D01*
X5323669Y-25045898D02*
X4108531Y-25271202D01*
X2675926Y25459805D02*
X4108528Y25271204D01*
X-19000008Y32909005D02*
X-20607007Y31924204D01*
X18384895Y18101002D02*
X18793895Y18014102D01*
X-22498499Y-30610900D02*
X-22160300Y-30856704D01*
X24045394Y22416001D02*
X24700500Y23105502D01*
X-20823506Y19024504D02*
X-20341206Y18516804D01*
X-24435507Y29086306D02*
X-24479807Y29048506D01*
X15642494Y34619702D02*
X15260589Y34789702D01*
%TO.N,/CPU/RST#_P*%
X13396400Y-12543000D02*
X14349600Y-12543000D01*
X14349600Y-12543000D02*
X14362400Y-12555800D01*
D23*
%TO.N,/CPU/PB6*%
X8100000Y-12450000D02*
X9176600Y-12450000D01*
X9176600Y-12450000D02*
X9282400Y-12555800D01*
%TO.N,/CPU/PB7*%
X10805600Y-13280400D02*
X11097800Y-13280400D01*
D22*
X10602400Y-13305000D02*
X11073200Y-13305000D01*
D23*
%TO.N,Net-(R8-Pad2)*%
X-11751296Y19099619D02*
X-12643200Y18744000D01*
%TO.N,Net-(R9-Pad2)*%
X4910000Y16740000D02*
X5374494Y16583617D01*
X4910000Y16740000D02*
X4210800Y16740000D01*
X4210800Y16740000D02*
X4206800Y16744000D01*
D22*
%TO.N,/tachometer/COUNT_1*%
X-9075995Y19491556D02*
X-9075995Y20792886D01*
X-10037066Y18530485D02*
X-9075995Y19491556D01*
%TO.N,ROTOR_GND*%
X14362400Y-15305600D02*
X13329000Y-16339000D01*
X14362400Y-15095800D02*
X14362400Y-15305600D01*
D23*
%TO.N,COUNT_2*%
X6040398Y14904608D02*
X7156800Y14544000D01*
%TD*%
%TA.AperFunction,Conductor*%
%TO.N,ROTOR_GND*%
G36*
X907350Y39975746D02*
G01*
X2090099Y39944782D01*
X2096686Y39944437D01*
X4177788Y39780658D01*
X4184353Y39779968D01*
X6254047Y39507430D01*
X6260557Y39506398D01*
X6933881Y39381615D01*
X8313141Y39126005D01*
X8319564Y39124639D01*
X10349484Y38637280D01*
X10355813Y38635584D01*
X11836407Y38197061D01*
X12357376Y38042760D01*
X12363657Y38040720D01*
X14331414Y37343831D01*
X14337568Y37341468D01*
X16266257Y36542600D01*
X16272261Y36539927D01*
X17565823Y35922950D01*
X18156385Y35641276D01*
X18162266Y35638280D01*
X19996848Y34642141D01*
X20002558Y34638844D01*
X21782509Y33548107D01*
X21788042Y33544514D01*
X23508389Y32362162D01*
X23513728Y32358283D01*
X25169873Y31087414D01*
X25174996Y31083265D01*
X25983044Y30393146D01*
X26762367Y29727560D01*
X26767243Y29723169D01*
X27013377Y29489609D01*
X28281560Y28286210D01*
X28286229Y28281541D01*
X28696975Y27848683D01*
X29723168Y26767246D01*
X29727559Y26762370D01*
X29773788Y26708241D01*
X31083264Y25174999D01*
X31087413Y25169876D01*
X32358293Y23513718D01*
X32362172Y23508379D01*
X33544511Y21788045D01*
X33548104Y21782512D01*
X34638839Y20002565D01*
X34642136Y19996855D01*
X35638279Y18162282D01*
X35641276Y18156401D01*
X36539932Y16272257D01*
X36542614Y16266231D01*
X36933834Y15321718D01*
X37320000Y14389407D01*
X37341469Y14337574D01*
X37343830Y14331426D01*
X37633430Y13513697D01*
X38040721Y12363652D01*
X38042759Y12357377D01*
X38635591Y10355801D01*
X38637284Y10349481D01*
X38864966Y9401156D01*
X39124639Y8319585D01*
X39126008Y8313146D01*
X39337303Y7173009D01*
X39506401Y6260562D01*
X39507433Y6254052D01*
X39779971Y4184355D01*
X39780661Y4177791D01*
X39944447Y2096687D01*
X39944792Y2090098D01*
X39973710Y985305D01*
X39999265Y8999D01*
X39999414Y3298D01*
X39999414Y-3285D01*
X39979220Y-774589D01*
X39944777Y-2090108D01*
X39944432Y-2096695D01*
X39780661Y-4177796D01*
X39779971Y-4184361D01*
X39753536Y-4385105D01*
X39543034Y-5983655D01*
X39507429Y-6254036D01*
X39506399Y-6260537D01*
X39130660Y-8288044D01*
X39126008Y-8313146D01*
X39124635Y-8319602D01*
X38637279Y-10349474D01*
X38635573Y-10355840D01*
X38042761Y-12357378D01*
X38040721Y-12363659D01*
X37343829Y-14331435D01*
X37341466Y-14337589D01*
X36542606Y-16266238D01*
X36539924Y-16272264D01*
X35641268Y-18156407D01*
X35638271Y-18162288D01*
X34642131Y-19996871D01*
X34638834Y-20002581D01*
X33548104Y-21782517D01*
X33544511Y-21788050D01*
X32362172Y-23508383D01*
X32358293Y-23513722D01*
X31087413Y-25169880D01*
X31083264Y-25175003D01*
X30838988Y-25461022D01*
X29727550Y-26762385D01*
X29723159Y-26767261D01*
X29212963Y-27304924D01*
X28286230Y-28281549D01*
X28281561Y-28286219D01*
X26767233Y-29723184D01*
X26762332Y-29727596D01*
X25174996Y-31083271D01*
X25169873Y-31087420D01*
X23513719Y-32358291D01*
X23508380Y-32362170D01*
X21788034Y-33544525D01*
X21782501Y-33548118D01*
X20002558Y-34638851D01*
X19996848Y-34642148D01*
X18162266Y-35638287D01*
X18156385Y-35641283D01*
X17947073Y-35741117D01*
X16272261Y-36539938D01*
X16266257Y-36542611D01*
X15301902Y-36942046D01*
X14337558Y-37341475D01*
X14331405Y-37343837D01*
X12363652Y-38040728D01*
X12357374Y-38042768D01*
X12277257Y-38066497D01*
X10355828Y-38635589D01*
X10349461Y-38637295D01*
X9289955Y-38891667D01*
X8319561Y-39124643D01*
X8313141Y-39126008D01*
X6260545Y-39506411D01*
X6254053Y-39507440D01*
X4184346Y-39779972D01*
X4177801Y-39780660D01*
X3491567Y-39834668D01*
X2096686Y-39944447D01*
X2090097Y-39944792D01*
X843120Y-39977432D01*
X3286Y-39999414D01*
X-3285Y-39999414D01*
X-900436Y-39975925D01*
X-2090105Y-39944777D01*
X-2096692Y-39944432D01*
X-4177793Y-39780661D01*
X-4184358Y-39779971D01*
X-4874579Y-39689081D01*
X-6254047Y-39507427D01*
X-6260538Y-39506399D01*
X-8313149Y-39126008D01*
X-8319603Y-39124635D01*
X-10349475Y-38637279D01*
X-10355841Y-38635573D01*
X-12357385Y-38042759D01*
X-12363666Y-38040719D01*
X-14331425Y-37343832D01*
X-14337579Y-37341469D01*
X-16266237Y-36542606D01*
X-16272263Y-36539924D01*
X-18156408Y-35641268D01*
X-18162289Y-35638271D01*
X-19996861Y-34642136D01*
X-20002571Y-34638839D01*
X-21782518Y-33548104D01*
X-21788051Y-33544511D01*
X-23508384Y-32362172D01*
X-23513723Y-32358293D01*
X-25169881Y-31087413D01*
X-25175004Y-31083264D01*
X-26202615Y-30205626D01*
X-26762376Y-29727559D01*
X-26767252Y-29723168D01*
X-27547684Y-28982604D01*
X-28281547Y-28286229D01*
X-28286216Y-28281560D01*
X-29723146Y-26767273D01*
X-29723185Y-26767232D01*
X-29727576Y-26762356D01*
X-30300949Y-26091003D01*
X-27786501Y-26091003D01*
X-27720901Y-26714797D01*
X-27527101Y-27311203D01*
X-27523802Y-27316917D01*
X-27523800Y-27316922D01*
X-27216802Y-27848683D01*
X-27213501Y-27854400D01*
X-27209089Y-27859301D01*
X-27209086Y-27859305D01*
X-26903762Y-28198461D01*
X-26793902Y-28320495D01*
X-26792116Y-28322190D01*
X-26792114Y-28322192D01*
X-26627302Y-28478599D01*
X-26194802Y-28888999D01*
X-26097304Y-28981464D01*
X-26096102Y-28982604D01*
X-26094877Y-28983650D01*
X-26094863Y-28983663D01*
X-25810803Y-29226303D01*
X-25502503Y-29489601D01*
X-25281701Y-29678199D01*
X-25148901Y-29791595D01*
X-25104601Y-29829399D01*
X-24662901Y-30206695D01*
X-23888651Y-30800799D01*
X-23168387Y-31353478D01*
X-23168357Y-31353501D01*
X-23167702Y-31354003D01*
X-23167062Y-31354468D01*
X-23167016Y-31354502D01*
X-22928961Y-31527483D01*
X-22660302Y-31722702D01*
X-21107003Y-32790199D01*
X-21105603Y-32791057D01*
X-21105586Y-32791068D01*
X-19501403Y-33774135D01*
X-19501387Y-33774144D01*
X-19500002Y-33774993D01*
X-19498575Y-33775768D01*
X-19498566Y-33775773D01*
X-18934055Y-34082281D01*
X-17843701Y-34674301D01*
X-16142502Y-35485702D01*
X-15569602Y-35740798D01*
X-13828301Y-36462097D01*
X-13826761Y-36462642D01*
X-13826754Y-36462645D01*
X-12053280Y-37090642D01*
X-12051701Y-37091201D01*
X-10244500Y-37626495D01*
X-10242896Y-37626880D01*
X-8412657Y-38066309D01*
X-8412641Y-38066313D01*
X-8411873Y-38066497D01*
X-7798413Y-38196899D01*
X-7797598Y-38197050D01*
X-7797568Y-38197056D01*
X-6074039Y-38516429D01*
X-5945229Y-38540298D01*
X-5943575Y-38540516D01*
X-5943574Y-38540516D01*
X-4078254Y-38786183D01*
X-4078240Y-38786185D01*
X-4076611Y-38786399D01*
X-2197682Y-38934204D01*
X-2196054Y-38934247D01*
X-2196048Y-38934247D01*
X-1642981Y-38948746D01*
X-313584Y-38983596D01*
X313583Y-38983596D01*
X1643150Y-38948741D01*
X2196043Y-38934247D01*
X2196049Y-38934247D01*
X2197677Y-38934204D01*
X4076606Y-38786399D01*
X4078235Y-38786185D01*
X4078249Y-38786183D01*
X5943573Y-38540516D01*
X5943574Y-38540516D01*
X5945228Y-38540298D01*
X6071627Y-38516876D01*
X7797563Y-38197056D01*
X7797593Y-38197050D01*
X7798408Y-38196899D01*
X8411865Y-38066497D01*
X8412633Y-38066313D01*
X8412649Y-38066309D01*
X10242910Y-37626877D01*
X10242928Y-37626872D01*
X10244499Y-37626495D01*
X10246049Y-37626036D01*
X10246056Y-37626034D01*
X12050109Y-37091671D01*
X12051696Y-37091201D01*
X13600909Y-36542616D01*
X13826749Y-36462645D01*
X13826756Y-36462642D01*
X13828296Y-36462097D01*
X15569595Y-35740798D01*
X16142498Y-35485702D01*
X17002135Y-35075691D01*
X17842198Y-34675016D01*
X17842216Y-34675007D01*
X17843696Y-34674301D01*
X17904148Y-34641478D01*
X19498560Y-33775773D01*
X19498569Y-33775768D01*
X19499996Y-33774993D01*
X19501381Y-33774144D01*
X19501397Y-33774135D01*
X21105577Y-32791068D01*
X21105594Y-32791057D01*
X21106994Y-32790199D01*
X22660293Y-31722702D01*
X23167694Y-31354003D01*
X24662895Y-30206695D01*
X24664138Y-30205633D01*
X24664147Y-30205626D01*
X25104556Y-29829435D01*
X25104598Y-29829399D01*
X25148895Y-29791595D01*
X25281692Y-29678199D01*
X25502494Y-29489601D01*
X25810791Y-29226303D01*
X26096099Y-28982604D01*
X26194793Y-28888999D01*
X26627296Y-28478599D01*
X26793899Y-28320495D01*
X27213500Y-27854400D01*
X27332236Y-27648732D01*
X27523800Y-27316918D01*
X27523801Y-27316915D01*
X27527099Y-27311203D01*
X27703849Y-26767273D01*
X27718859Y-26721082D01*
X27718860Y-26721079D01*
X27720901Y-26714797D01*
X27786499Y-26091003D01*
X27720901Y-25467300D01*
X27718862Y-25461022D01*
X27529140Y-24877086D01*
X27527099Y-24870803D01*
X27213500Y-24327697D01*
X26793899Y-23861602D01*
X26485900Y-23537399D01*
X25960601Y-22984397D01*
X25369598Y-22362297D01*
X24714599Y-21672897D01*
X23997299Y-20917900D01*
X23997292Y-20917892D01*
X23219802Y-20099399D01*
X22384201Y-19219799D01*
X21492595Y-18281398D01*
X21492598Y-18281395D01*
X21492582Y-18281384D01*
X21010395Y-17773696D01*
X20502994Y-17405097D01*
X20496961Y-17402411D01*
X20496959Y-17402410D01*
X19936021Y-17152681D01*
X19936020Y-17152681D01*
X19929992Y-17149997D01*
X19316593Y-17019599D01*
X18689392Y-17019599D01*
X18407917Y-17079426D01*
X18082352Y-17148624D01*
X18082351Y-17148624D01*
X18075893Y-17149997D01*
X17714914Y-17310733D01*
X17509021Y-17402413D01*
X17509019Y-17402414D01*
X17502994Y-17405097D01*
X16995594Y-17773696D01*
X16992608Y-17776530D01*
X16992604Y-17776533D01*
X16462987Y-18279127D01*
X16458086Y-18283540D01*
X16183931Y-18517696D01*
X15408160Y-19180282D01*
X15364400Y-19217657D01*
X15359275Y-19221807D01*
X14467001Y-19906498D01*
X14461676Y-19910367D01*
X13561734Y-20528764D01*
X13534723Y-20547325D01*
X13529206Y-20550908D01*
X12954974Y-20902812D01*
X12302800Y-21302480D01*
X12297085Y-21305779D01*
X11032993Y-21992126D01*
X11027138Y-21995109D01*
X10012044Y-22479290D01*
X10006050Y-22481958D01*
X9282970Y-22781512D01*
X8966960Y-22912427D01*
X8960793Y-22914795D01*
X7604914Y-23394898D01*
X7598643Y-23396935D01*
X7204383Y-23513722D01*
X6219495Y-23805463D01*
X6213148Y-23807164D01*
X5602998Y-23953652D01*
X5119541Y-24069723D01*
X5113086Y-24071095D01*
X4560165Y-24173546D01*
X4007248Y-24275995D01*
X4000738Y-24277026D01*
X2574660Y-24464764D01*
X2568103Y-24465453D01*
X1134190Y-24578338D01*
X1127598Y-24578684D01*
X763133Y-24588224D01*
X3285Y-24608114D01*
X-3285Y-24608114D01*
X-763201Y-24588223D01*
X-1127599Y-24578684D01*
X-1134191Y-24578338D01*
X-2568112Y-24465453D01*
X-2574669Y-24464764D01*
X-4000747Y-24277026D01*
X-4007257Y-24275995D01*
X-4560174Y-24173546D01*
X-5113095Y-24071095D01*
X-5119550Y-24069723D01*
X-6213153Y-23807164D01*
X-6219500Y-23805463D01*
X-7210980Y-23511770D01*
X-7598651Y-23396935D01*
X-7604922Y-23394898D01*
X-8960798Y-22914795D01*
X-8966965Y-22912427D01*
X-10006058Y-22481958D01*
X-10012079Y-22479277D01*
X-10104906Y-22435000D01*
X1293318Y-22435000D01*
X1313956Y-22591762D01*
X1374464Y-22737841D01*
X1470718Y-22863282D01*
X1576070Y-22944121D01*
X1617936Y-23001458D01*
X1622158Y-23072329D01*
X1615775Y-23092298D01*
X1574805Y-23191208D01*
X1554167Y-23347970D01*
X1574805Y-23504732D01*
X1635313Y-23650811D01*
X1731567Y-23776252D01*
X1857008Y-23872506D01*
X2003087Y-23933014D01*
X2159849Y-23953652D01*
X2168037Y-23952574D01*
X2308423Y-23934092D01*
X2316611Y-23933014D01*
X2462690Y-23872506D01*
X2588131Y-23776252D01*
X2684385Y-23650811D01*
X2744893Y-23504732D01*
X2765531Y-23347970D01*
X2744893Y-23191208D01*
X2684385Y-23045129D01*
X2588131Y-22919688D01*
X2482779Y-22838849D01*
X2440913Y-22781512D01*
X2436691Y-22710641D01*
X2443075Y-22690669D01*
X2480884Y-22599391D01*
X2484044Y-22591762D01*
X2504682Y-22435000D01*
X2484044Y-22278238D01*
X2423536Y-22132159D01*
X2327282Y-22006718D01*
X2308258Y-21992120D01*
X2208392Y-21915491D01*
X2201841Y-21910464D01*
X2055762Y-21849956D01*
X1899000Y-21829318D01*
X1742238Y-21849956D01*
X1596159Y-21910464D01*
X1589608Y-21915491D01*
X1489743Y-21992120D01*
X1470718Y-22006718D01*
X1374464Y-22132159D01*
X1313956Y-22278238D01*
X1293318Y-22435000D01*
X-10104906Y-22435000D01*
X-10711208Y-22145805D01*
X-11027131Y-21995115D01*
X-11032994Y-21992128D01*
X-11033008Y-21992120D01*
X-12297111Y-21305769D01*
X-12302822Y-21302471D01*
X-12382991Y-21253341D01*
X-12890524Y-20942312D01*
X-12941618Y-20911000D01*
X-10771682Y-20911000D01*
X-10751044Y-21067762D01*
X-10690536Y-21213841D01*
X-10594282Y-21339282D01*
X-10468841Y-21435536D01*
X-10322762Y-21496044D01*
X-10166000Y-21516682D01*
X-10157812Y-21515604D01*
X-10017426Y-21497122D01*
X-10009238Y-21496044D01*
X-9863159Y-21435536D01*
X-9737718Y-21339282D01*
X-9641464Y-21213841D01*
X-9580956Y-21067762D01*
X-9565518Y-20950500D01*
X-5437682Y-20950500D01*
X-5417044Y-21107262D01*
X-5356536Y-21253341D01*
X-5260282Y-21378782D01*
X-5253736Y-21383805D01*
X-5228580Y-21403108D01*
X-5134841Y-21475036D01*
X-4988762Y-21535544D01*
X-4832000Y-21556182D01*
X-4823812Y-21555104D01*
X-4683426Y-21536622D01*
X-4675238Y-21535544D01*
X-4529159Y-21475036D01*
X-4403718Y-21378782D01*
X-4401549Y-21381609D01*
X-4353597Y-21355424D01*
X-4282782Y-21360489D01*
X-4225946Y-21403036D01*
X-4201135Y-21469556D01*
X-4210405Y-21526762D01*
X-4222407Y-21555738D01*
X-4243045Y-21712500D01*
X-4222407Y-21869262D01*
X-4161899Y-22015341D01*
X-4065645Y-22140782D01*
X-3940204Y-22237036D01*
X-3794125Y-22297544D01*
X-3637363Y-22318182D01*
X-3629175Y-22317104D01*
X-3488789Y-22298622D01*
X-3480601Y-22297544D01*
X-3334522Y-22237036D01*
X-3209081Y-22140782D01*
X-3112827Y-22015341D01*
X-3052319Y-21869262D01*
X-3031681Y-21712500D01*
X-3052319Y-21555738D01*
X-3112827Y-21409659D01*
X-3209081Y-21284218D01*
X-3240689Y-21259964D01*
X-3292261Y-21220392D01*
X-3334522Y-21187964D01*
X-3480601Y-21127456D01*
X-3637363Y-21106818D01*
X-3794125Y-21127456D01*
X-3940204Y-21187964D01*
X-4065645Y-21284218D01*
X-4067814Y-21281391D01*
X-4115766Y-21307576D01*
X-4186581Y-21302511D01*
X-4243417Y-21259964D01*
X-4268228Y-21193444D01*
X-4258958Y-21136238D01*
X-4246956Y-21107262D01*
X-4226318Y-20950500D01*
X-4246956Y-20793738D01*
X-4307464Y-20647659D01*
X-4403718Y-20522218D01*
X-4529159Y-20425964D01*
X-4675238Y-20365456D01*
X-4832000Y-20344818D01*
X-4988762Y-20365456D01*
X-5134841Y-20425964D01*
X-5260282Y-20522218D01*
X-5356536Y-20647659D01*
X-5417044Y-20793738D01*
X-5437682Y-20950500D01*
X-9565518Y-20950500D01*
X-9560318Y-20911000D01*
X-9580956Y-20754238D01*
X-9641464Y-20608159D01*
X-9737718Y-20482718D01*
X-9863159Y-20386464D01*
X-10009238Y-20325956D01*
X-10166000Y-20305318D01*
X-10322762Y-20325956D01*
X-10468841Y-20386464D01*
X-10594282Y-20482718D01*
X-10690536Y-20608159D01*
X-10751044Y-20754238D01*
X-10771682Y-20911000D01*
X-12941618Y-20911000D01*
X-13529193Y-20550919D01*
X-13534714Y-20547334D01*
X-13929584Y-20276000D01*
X3028337Y-20276000D01*
X3048975Y-20432762D01*
X3109483Y-20578841D01*
X3205737Y-20704282D01*
X3331178Y-20800536D01*
X3477257Y-20861044D01*
X3634019Y-20881682D01*
X3642207Y-20880604D01*
X3782593Y-20862122D01*
X3790781Y-20861044D01*
X3936860Y-20800536D01*
X4062301Y-20704282D01*
X4158555Y-20578841D01*
X4219063Y-20432762D01*
X4239701Y-20276000D01*
X4219063Y-20119238D01*
X4158555Y-19973159D01*
X4062301Y-19847718D01*
X3936860Y-19751464D01*
X3790781Y-19690956D01*
X3634019Y-19670318D01*
X3477257Y-19690956D01*
X3331178Y-19751464D01*
X3205737Y-19847718D01*
X3109483Y-19973159D01*
X3048975Y-20119238D01*
X3028337Y-20276000D01*
X-13929584Y-20276000D01*
X-14145802Y-20127426D01*
X-14461686Y-19910367D01*
X-14467010Y-19906498D01*
X-15359284Y-19221807D01*
X-15364409Y-19217657D01*
X-15463527Y-19133000D01*
X-12930682Y-19133000D01*
X-12910044Y-19289762D01*
X-12849536Y-19435841D01*
X-12753282Y-19561282D01*
X-12627841Y-19657536D01*
X-12481762Y-19718044D01*
X-12325000Y-19738682D01*
X-12316812Y-19737604D01*
X-12176426Y-19719122D01*
X-12168238Y-19718044D01*
X-12022159Y-19657536D01*
X-11896718Y-19561282D01*
X-11860437Y-19514000D01*
X5865318Y-19514000D01*
X5885956Y-19670762D01*
X5946464Y-19816841D01*
X6042718Y-19942282D01*
X6168159Y-20038536D01*
X6314238Y-20099044D01*
X6471000Y-20119682D01*
X6479188Y-20118604D01*
X6619574Y-20100122D01*
X6627762Y-20099044D01*
X6773841Y-20038536D01*
X6899282Y-19942282D01*
X6995536Y-19816841D01*
X7018973Y-19760259D01*
X7063522Y-19704979D01*
X7130885Y-19682558D01*
X7199677Y-19700117D01*
X7212086Y-19708515D01*
X7249996Y-19737604D01*
X7311159Y-19784536D01*
X7457238Y-19845044D01*
X7614000Y-19865682D01*
X7622188Y-19864604D01*
X7762574Y-19846122D01*
X7770762Y-19845044D01*
X7916841Y-19784536D01*
X8042282Y-19688282D01*
X8138536Y-19562841D01*
X8199044Y-19416762D01*
X8219682Y-19260000D01*
X8199044Y-19103238D01*
X8138536Y-18957159D01*
X8042282Y-18831718D01*
X7916841Y-18735464D01*
X7770762Y-18674956D01*
X7614000Y-18654318D01*
X7457238Y-18674956D01*
X7311159Y-18735464D01*
X7185718Y-18831718D01*
X7089464Y-18957159D01*
X7078170Y-18984426D01*
X7066027Y-19013741D01*
X7021478Y-19069021D01*
X6954115Y-19091442D01*
X6885323Y-19073883D01*
X6872914Y-19065485D01*
X6780392Y-18994491D01*
X6773841Y-18989464D01*
X6627762Y-18928956D01*
X6471000Y-18908318D01*
X6314238Y-18928956D01*
X6168159Y-18989464D01*
X6042718Y-19085718D01*
X6037695Y-19092264D01*
X6014941Y-19121918D01*
X5946464Y-19211159D01*
X5885956Y-19357238D01*
X5865318Y-19514000D01*
X-11860437Y-19514000D01*
X-11800464Y-19435841D01*
X-11739956Y-19289762D01*
X-11719318Y-19133000D01*
X-11739956Y-18976238D01*
X-11800464Y-18830159D01*
X-11896718Y-18704718D01*
X-12022159Y-18608464D01*
X-12168238Y-18547956D01*
X-12325000Y-18527318D01*
X-12481762Y-18547956D01*
X-12627841Y-18608464D01*
X-12753282Y-18704718D01*
X-12849536Y-18830159D01*
X-12910044Y-18976238D01*
X-12930682Y-19133000D01*
X-15463527Y-19133000D01*
X-15507305Y-19095609D01*
X-16102083Y-18587609D01*
X-16458094Y-18283540D01*
X-16462995Y-18279127D01*
X-16901496Y-17863000D01*
X11707318Y-17863000D01*
X11727956Y-18019762D01*
X11788464Y-18165841D01*
X11884718Y-18291282D01*
X12010159Y-18387536D01*
X12156238Y-18448044D01*
X12164426Y-18449122D01*
X12253561Y-18460857D01*
X12318488Y-18489580D01*
X12357579Y-18548845D01*
X12362036Y-18602225D01*
X12342318Y-18752000D01*
X12362956Y-18908762D01*
X12423464Y-19054841D01*
X12519718Y-19180282D01*
X12645159Y-19276536D01*
X12791238Y-19337044D01*
X12948000Y-19357682D01*
X12956188Y-19356604D01*
X13096574Y-19338122D01*
X13104762Y-19337044D01*
X13250841Y-19276536D01*
X13376282Y-19180282D01*
X13419537Y-19123911D01*
X13476875Y-19082044D01*
X13547746Y-19077822D01*
X13609649Y-19112586D01*
X13619463Y-19123911D01*
X13662718Y-19180282D01*
X13788159Y-19276536D01*
X13934238Y-19337044D01*
X14091000Y-19357682D01*
X14099188Y-19356604D01*
X14239574Y-19338122D01*
X14247762Y-19337044D01*
X14393841Y-19276536D01*
X14519282Y-19180282D01*
X14615536Y-19054841D01*
X14676044Y-18908762D01*
X14696682Y-18752000D01*
X14676044Y-18595238D01*
X14615536Y-18449159D01*
X14519282Y-18323718D01*
X14393841Y-18227464D01*
X14247762Y-18166956D01*
X14194197Y-18159904D01*
X14099188Y-18147396D01*
X14091000Y-18146318D01*
X14082812Y-18147396D01*
X13987804Y-18159904D01*
X13934238Y-18166956D01*
X13788159Y-18227464D01*
X13662718Y-18323718D01*
X13657695Y-18330264D01*
X13619463Y-18380089D01*
X13562125Y-18421956D01*
X13491254Y-18426178D01*
X13429351Y-18391414D01*
X13419537Y-18380089D01*
X13381305Y-18330264D01*
X13376282Y-18323718D01*
X13250841Y-18227464D01*
X13104762Y-18166956D01*
X13096293Y-18165841D01*
X13007439Y-18154143D01*
X12942512Y-18125420D01*
X12903421Y-18066155D01*
X12898964Y-18012775D01*
X12917604Y-17871188D01*
X12918682Y-17863000D01*
X12898044Y-17706238D01*
X12837536Y-17560159D01*
X12741282Y-17434718D01*
X12707740Y-17408980D01*
X12622392Y-17343491D01*
X12615841Y-17338464D01*
X12469762Y-17277956D01*
X12313000Y-17257318D01*
X12156238Y-17277956D01*
X12010159Y-17338464D01*
X12003608Y-17343491D01*
X11918261Y-17408980D01*
X11884718Y-17434718D01*
X11788464Y-17560159D01*
X11727956Y-17706238D01*
X11707318Y-17863000D01*
X-16901496Y-17863000D01*
X-16992606Y-17776539D01*
X-16992607Y-17776538D01*
X-16995602Y-17773696D01*
X-16998940Y-17771271D01*
X-16998945Y-17771267D01*
X-17462228Y-17434718D01*
X-17503003Y-17405097D01*
X-17900724Y-17228000D01*
X13612318Y-17228000D01*
X13632956Y-17384762D01*
X13693464Y-17530841D01*
X13789718Y-17656282D01*
X13915159Y-17752536D01*
X14061238Y-17813044D01*
X14218000Y-17833682D01*
X14226188Y-17832604D01*
X14366574Y-17814122D01*
X14374762Y-17813044D01*
X14520841Y-17752536D01*
X14646282Y-17656282D01*
X14742536Y-17530841D01*
X14803044Y-17384762D01*
X14823682Y-17228000D01*
X14803044Y-17071238D01*
X14742536Y-16925159D01*
X14646282Y-16799718D01*
X14520841Y-16703464D01*
X14374762Y-16642956D01*
X14218000Y-16622318D01*
X14061238Y-16642956D01*
X13915159Y-16703464D01*
X13789718Y-16799718D01*
X13693464Y-16925159D01*
X13632956Y-17071238D01*
X13612318Y-17228000D01*
X-17900724Y-17228000D01*
X-18075902Y-17149997D01*
X-18082360Y-17148624D01*
X-18082361Y-17148624D01*
X-18260299Y-17110804D01*
X-18689402Y-17019599D01*
X-19316601Y-17019599D01*
X-19930001Y-17149997D01*
X-19936029Y-17152681D01*
X-19936030Y-17152681D01*
X-20496967Y-17402410D01*
X-20503003Y-17405097D01*
X-20508341Y-17408975D01*
X-20508344Y-17408977D01*
X-20928812Y-17714426D01*
X-21010401Y-17773696D01*
X-21492587Y-18281382D01*
X-21492607Y-18281394D01*
X-21492602Y-18281398D01*
X-22384202Y-19219799D01*
X-23219803Y-20099399D01*
X-23997297Y-20917892D01*
X-23997304Y-20917900D01*
X-24714604Y-21672897D01*
X-25297518Y-22286426D01*
X-25369603Y-22362297D01*
X-25960602Y-22984397D01*
X-26485896Y-23537393D01*
X-26485901Y-23537399D01*
X-26742187Y-23807167D01*
X-26793902Y-23861602D01*
X-27213501Y-24327697D01*
X-27527101Y-24870803D01*
X-27720901Y-25467300D01*
X-27786501Y-26091003D01*
X-30300949Y-26091003D01*
X-30393205Y-25982982D01*
X-31083270Y-25174996D01*
X-31087419Y-25169873D01*
X-32358289Y-23513727D01*
X-32362168Y-23508388D01*
X-33544526Y-21788034D01*
X-33548119Y-21782501D01*
X-34638852Y-20002558D01*
X-34642149Y-19996848D01*
X-35318075Y-18752000D01*
X-24995682Y-18752000D01*
X-24975044Y-18908762D01*
X-24914536Y-19054841D01*
X-24818282Y-19180282D01*
X-24692841Y-19276536D01*
X-24546762Y-19337044D01*
X-24390000Y-19357682D01*
X-24381812Y-19356604D01*
X-24241426Y-19338122D01*
X-24233238Y-19337044D01*
X-24087159Y-19276536D01*
X-23961718Y-19180282D01*
X-23865464Y-19054841D01*
X-23804956Y-18908762D01*
X-23784318Y-18752000D01*
X-23795097Y-18670125D01*
X-23784158Y-18599976D01*
X-23737030Y-18546878D01*
X-23668676Y-18527688D01*
X-23621957Y-18537270D01*
X-23538392Y-18571884D01*
X-23538389Y-18571885D01*
X-23530762Y-18575044D01*
X-23374000Y-18595682D01*
X-23365812Y-18594604D01*
X-23225426Y-18576122D01*
X-23217238Y-18575044D01*
X-23071159Y-18514536D01*
X-22945718Y-18418282D01*
X-22925101Y-18391414D01*
X-22873157Y-18323718D01*
X-22849464Y-18292841D01*
X-22794403Y-18159913D01*
X-22792116Y-18154391D01*
X-22788956Y-18146762D01*
X-22768318Y-17990000D01*
X-22788956Y-17833238D01*
X-22849464Y-17687159D01*
X-22945718Y-17561718D01*
X-23071159Y-17465464D01*
X-23217238Y-17404956D01*
X-23374000Y-17384318D01*
X-23530762Y-17404956D01*
X-23676841Y-17465464D01*
X-23802282Y-17561718D01*
X-23898536Y-17687159D01*
X-23959044Y-17833238D01*
X-23979682Y-17990000D01*
X-23978604Y-17998188D01*
X-23968903Y-18071875D01*
X-23979842Y-18142024D01*
X-24026970Y-18195122D01*
X-24095324Y-18214312D01*
X-24142043Y-18204730D01*
X-24225608Y-18170116D01*
X-24225611Y-18170115D01*
X-24233238Y-18166956D01*
X-24286803Y-18159904D01*
X-24381812Y-18147396D01*
X-24390000Y-18146318D01*
X-24398188Y-18147396D01*
X-24493196Y-18159904D01*
X-24546762Y-18166956D01*
X-24692841Y-18227464D01*
X-24818282Y-18323718D01*
X-24914536Y-18449159D01*
X-24975044Y-18595238D01*
X-24995682Y-18752000D01*
X-35318075Y-18752000D01*
X-35638288Y-18162266D01*
X-35641284Y-18156385D01*
X-35997766Y-17408980D01*
X-36539935Y-16272261D01*
X-36542613Y-16266246D01*
X-36559247Y-16226085D01*
X-37341478Y-14337562D01*
X-37343824Y-14331453D01*
X-37496617Y-13900021D01*
X-8250509Y-13900021D01*
X-8250490Y-13900100D01*
X-8234480Y-14001189D01*
X-8194193Y-14255569D01*
X-8189317Y-14286359D01*
X-8189310Y-14286439D01*
X-8189301Y-14286456D01*
X-8189298Y-14286476D01*
X-8189256Y-14286545D01*
X-8011725Y-14634907D01*
X-8011693Y-14634984D01*
X-8011678Y-14634999D01*
X-8011670Y-14635015D01*
X-8011615Y-14635062D01*
X-7735098Y-14911639D01*
X-7735045Y-14911701D01*
X-7735027Y-14911710D01*
X-7735014Y-14911723D01*
X-7734948Y-14911750D01*
X-7386513Y-15089235D01*
X-7386445Y-15089276D01*
X-7386425Y-15089279D01*
X-7386408Y-15089288D01*
X-7386328Y-15089295D01*
X-7373626Y-15091308D01*
X-7373625Y-15091308D01*
X-7016698Y-15147861D01*
X-7000099Y-15150491D01*
X-7000020Y-15150510D01*
X-7000000Y-15150507D01*
X-6999980Y-15150510D01*
X-6999900Y-15150491D01*
X-6984113Y-15147990D01*
X-6984112Y-15147990D01*
X-6626509Y-15091329D01*
X-6626508Y-15091329D01*
X-6613673Y-15089295D01*
X-6613593Y-15089288D01*
X-6613576Y-15089279D01*
X-6613556Y-15089276D01*
X-6613487Y-15089234D01*
X-6265064Y-14911756D01*
X-6264987Y-14911724D01*
X-6264972Y-14911709D01*
X-6264956Y-14911701D01*
X-6264907Y-14911644D01*
X-6252820Y-14899554D01*
X-6252819Y-14899554D01*
X-6001212Y-14647890D01*
X-5988393Y-14635068D01*
X-5988331Y-14635015D01*
X-5988322Y-14634997D01*
X-5988309Y-14634984D01*
X-5988282Y-14634918D01*
X-5966781Y-14592729D01*
X-5816906Y-14298635D01*
X-5810744Y-14286544D01*
X-5810703Y-14286476D01*
X-5810700Y-14286456D01*
X-5810691Y-14286439D01*
X-5810684Y-14286359D01*
X-5749510Y-13900101D01*
X-5749491Y-13900021D01*
X-5749494Y-13900001D01*
X-5749491Y-13899981D01*
X-5749510Y-13899901D01*
X-5810684Y-13513639D01*
X-5810691Y-13513559D01*
X-5810700Y-13513542D01*
X-5810703Y-13513522D01*
X-5810744Y-13513454D01*
X-5903542Y-13331361D01*
X-5982367Y-13176686D01*
X-5982368Y-13176685D01*
X-5988282Y-13165080D01*
X-5988309Y-13165014D01*
X-5988322Y-13165001D01*
X-5988331Y-13164983D01*
X-5988393Y-13164930D01*
X-6264907Y-12888354D01*
X-6264956Y-12888297D01*
X-6264972Y-12888289D01*
X-6264987Y-12888274D01*
X-6265064Y-12888242D01*
X-6613488Y-12710763D01*
X-6613556Y-12710722D01*
X-6613576Y-12710719D01*
X-6613593Y-12710710D01*
X-6613673Y-12710703D01*
X-6626374Y-12708691D01*
X-6626376Y-12708690D01*
X-6859951Y-12671684D01*
X-6999901Y-12649511D01*
X-6999980Y-12649492D01*
X-7000000Y-12649495D01*
X-7000020Y-12649492D01*
X-7000099Y-12649511D01*
X-7015855Y-12652007D01*
X-7015856Y-12652007D01*
X-7373625Y-12708690D01*
X-7373627Y-12708691D01*
X-7386328Y-12710703D01*
X-7386408Y-12710710D01*
X-7386425Y-12710719D01*
X-7386445Y-12710722D01*
X-7386513Y-12710763D01*
X-7734948Y-12888248D01*
X-7735014Y-12888275D01*
X-7735027Y-12888288D01*
X-7735045Y-12888297D01*
X-7735098Y-12888359D01*
X-7743885Y-12897148D01*
X-7744081Y-12897343D01*
X-7744084Y-12897347D01*
X-7747447Y-12900711D01*
X-7747448Y-12900711D01*
X-7822579Y-12975859D01*
X-8011620Y-13164941D01*
X-8011669Y-13164983D01*
X-8011676Y-13164997D01*
X-8011693Y-13165014D01*
X-8011729Y-13165101D01*
X-8189256Y-13513457D01*
X-8189298Y-13513526D01*
X-8189301Y-13513546D01*
X-8189310Y-13513563D01*
X-8189317Y-13513643D01*
X-8191349Y-13526471D01*
X-8191349Y-13526472D01*
X-8229712Y-13768704D01*
X-8250490Y-13899902D01*
X-8250509Y-13899981D01*
X-8250506Y-13900001D01*
X-8250509Y-13900021D01*
X-37496617Y-13900021D01*
X-38040732Y-12363643D01*
X-38042762Y-12357393D01*
X-38180010Y-11894000D01*
X-865682Y-11894000D01*
X-845044Y-12050762D01*
X-784536Y-12196841D01*
X-688282Y-12322282D01*
X-562841Y-12418536D01*
X-416762Y-12479044D01*
X-260000Y-12499682D01*
X-251812Y-12498604D01*
X-111426Y-12480122D01*
X-103238Y-12479044D01*
X-33120Y-12450000D01*
X7494318Y-12450000D01*
X7514956Y-12606762D01*
X7575464Y-12752841D01*
X7671718Y-12878282D01*
X7678264Y-12883305D01*
X7696305Y-12897148D01*
X7797159Y-12974536D01*
X7943238Y-13035044D01*
X8100000Y-13055682D01*
X8177454Y-13045485D01*
X8247602Y-13056424D01*
X8300701Y-13103552D01*
X8319900Y-13170407D01*
X8319900Y-13337548D01*
X8331533Y-13396031D01*
X8338426Y-13406347D01*
X8354537Y-13430458D01*
X8375848Y-13462352D01*
X8442169Y-13506667D01*
X8454338Y-13509088D01*
X8454339Y-13509088D01*
X8494584Y-13517093D01*
X8500652Y-13518300D01*
X10064148Y-13518300D01*
X10122631Y-13506667D01*
X10122669Y-13506857D01*
X10184048Y-13500260D01*
X10247534Y-13532041D01*
X10273092Y-13568854D01*
X10273775Y-13568460D01*
X10277903Y-13575611D01*
X10281064Y-13583241D01*
X10377318Y-13708682D01*
X10383864Y-13713705D01*
X10413518Y-13736459D01*
X10502759Y-13804936D01*
X10648838Y-13865444D01*
X10805600Y-13886082D01*
X10813788Y-13885004D01*
X10954174Y-13866522D01*
X10962362Y-13865444D01*
X11108441Y-13804936D01*
X11197682Y-13736459D01*
X11227336Y-13713705D01*
X11233882Y-13708682D01*
X11330136Y-13583241D01*
X11331545Y-13579839D01*
X11381391Y-13532309D01*
X11439131Y-13518300D01*
X12259472Y-13518300D01*
X12327593Y-13538302D01*
X12374086Y-13591958D01*
X12384190Y-13662232D01*
X12354696Y-13726812D01*
X12307689Y-13760709D01*
X12288391Y-13768702D01*
X12288388Y-13768704D01*
X12280759Y-13771864D01*
X12155318Y-13868118D01*
X12059064Y-13993559D01*
X12055904Y-14001189D01*
X12033400Y-14055518D01*
X11988852Y-14110799D01*
X11916991Y-14133300D01*
X11040652Y-14133300D01*
X11034584Y-14134507D01*
X10994339Y-14142512D01*
X10994338Y-14142512D01*
X10982169Y-14144933D01*
X10915848Y-14189248D01*
X10871533Y-14255569D01*
X10869112Y-14267739D01*
X10864363Y-14279205D01*
X10860844Y-14277747D01*
X10838076Y-14321286D01*
X10776385Y-14356425D01*
X10705489Y-14352633D01*
X10670690Y-14333767D01*
X10606997Y-14284894D01*
X10606994Y-14284892D01*
X10600441Y-14279864D01*
X10454362Y-14219356D01*
X10297600Y-14198718D01*
X10289411Y-14199796D01*
X10289409Y-14199796D01*
X10265691Y-14202918D01*
X10195542Y-14191978D01*
X10179245Y-14182761D01*
X10132950Y-14151827D01*
X10132946Y-14151825D01*
X10122631Y-14144933D01*
X10110462Y-14142512D01*
X10110461Y-14142512D01*
X10070216Y-14134507D01*
X10064148Y-14133300D01*
X8500652Y-14133300D01*
X8494584Y-14134507D01*
X8454339Y-14142512D01*
X8454338Y-14142512D01*
X8442169Y-14144933D01*
X8375848Y-14189248D01*
X8331533Y-14255569D01*
X8329112Y-14267738D01*
X8329112Y-14267739D01*
X8325389Y-14286456D01*
X8319900Y-14314052D01*
X8319900Y-15877548D01*
X8331533Y-15936031D01*
X8375848Y-16002352D01*
X8442169Y-16046667D01*
X8454338Y-16049088D01*
X8454339Y-16049088D01*
X8494584Y-16057093D01*
X8500652Y-16058300D01*
X10064148Y-16058300D01*
X10070216Y-16057093D01*
X10110461Y-16049088D01*
X10110462Y-16049088D01*
X10122631Y-16046667D01*
X10188952Y-16002352D01*
X10233267Y-15936031D01*
X10244900Y-15877548D01*
X10244900Y-15527519D01*
X10264902Y-15459398D01*
X10318558Y-15412905D01*
X10354454Y-15402597D01*
X10454362Y-15389444D01*
X10600441Y-15328936D01*
X10606994Y-15323908D01*
X10606997Y-15323906D01*
X10657196Y-15285387D01*
X10723416Y-15259786D01*
X10792965Y-15274050D01*
X10843761Y-15323652D01*
X10859900Y-15385349D01*
X10859900Y-15877548D01*
X10871533Y-15936031D01*
X10915848Y-16002352D01*
X10982169Y-16046667D01*
X10994338Y-16049088D01*
X10994339Y-16049088D01*
X11034584Y-16057093D01*
X11040652Y-16058300D01*
X12604148Y-16058300D01*
X12610216Y-16057093D01*
X12650461Y-16049088D01*
X12650462Y-16049088D01*
X12662631Y-16046667D01*
X12728952Y-16002352D01*
X12773267Y-15936031D01*
X12779943Y-15902469D01*
X13092401Y-15902469D01*
X13092771Y-15909290D01*
X13098295Y-15960152D01*
X13101921Y-15975404D01*
X13147076Y-16095854D01*
X13155614Y-16111449D01*
X13232115Y-16213524D01*
X13244676Y-16226085D01*
X13346751Y-16302586D01*
X13362346Y-16311124D01*
X13482794Y-16356278D01*
X13498049Y-16359905D01*
X13548914Y-16365431D01*
X13555728Y-16365800D01*
X14090285Y-16365800D01*
X14105524Y-16361325D01*
X14106729Y-16359935D01*
X14108400Y-16352252D01*
X14108400Y-16347684D01*
X14616400Y-16347684D01*
X14620875Y-16362923D01*
X14622265Y-16364128D01*
X14629948Y-16365799D01*
X15169069Y-16365799D01*
X15175890Y-16365429D01*
X15226752Y-16359905D01*
X15242004Y-16356279D01*
X15362454Y-16311124D01*
X15378049Y-16302586D01*
X15480124Y-16226085D01*
X15492685Y-16213524D01*
X15569186Y-16111449D01*
X15577724Y-16095854D01*
X15622878Y-15975406D01*
X15626505Y-15960151D01*
X15632031Y-15909286D01*
X15632400Y-15902472D01*
X15632400Y-15367915D01*
X15627925Y-15352676D01*
X15626535Y-15351471D01*
X15618852Y-15349800D01*
X14634515Y-15349800D01*
X14619276Y-15354275D01*
X14618071Y-15355665D01*
X14616400Y-15363348D01*
X14616400Y-16347684D01*
X14108400Y-16347684D01*
X14108400Y-15367915D01*
X14103925Y-15352676D01*
X14102535Y-15351471D01*
X14094852Y-15349800D01*
X13110516Y-15349800D01*
X13095277Y-15354275D01*
X13094072Y-15355665D01*
X13092401Y-15363348D01*
X13092401Y-15902469D01*
X12779943Y-15902469D01*
X12784900Y-15877548D01*
X12784900Y-14947186D01*
X12786423Y-14942000D01*
X22375318Y-14942000D01*
X22395956Y-15098762D01*
X22456464Y-15244841D01*
X22552718Y-15370282D01*
X22678159Y-15466536D01*
X22824238Y-15527044D01*
X22981000Y-15547682D01*
X22989188Y-15546604D01*
X23129574Y-15528122D01*
X23137762Y-15527044D01*
X23283841Y-15466536D01*
X23409282Y-15370282D01*
X23505536Y-15244841D01*
X23566044Y-15098762D01*
X23586682Y-14942000D01*
X23576281Y-14862996D01*
X23567122Y-14793426D01*
X23566044Y-14785238D01*
X23505536Y-14639159D01*
X23409282Y-14513718D01*
X23283841Y-14417464D01*
X23137762Y-14356956D01*
X23104926Y-14352633D01*
X22990654Y-14337589D01*
X22981000Y-14336318D01*
X22971346Y-14337589D01*
X22857075Y-14352633D01*
X22824238Y-14356956D01*
X22678159Y-14417464D01*
X22552718Y-14513718D01*
X22456464Y-14639159D01*
X22395956Y-14785238D01*
X22394878Y-14793426D01*
X22385719Y-14862996D01*
X22375318Y-14942000D01*
X12786423Y-14942000D01*
X12804902Y-14879065D01*
X12862683Y-14830777D01*
X12878809Y-14824098D01*
X12878813Y-14824096D01*
X12886441Y-14820936D01*
X12892990Y-14815911D01*
X12892993Y-14815909D01*
X12908051Y-14804354D01*
X12974271Y-14778753D01*
X13043820Y-14793017D01*
X13067588Y-14816226D01*
X13068914Y-14814696D01*
X13098265Y-14840129D01*
X13105948Y-14841800D01*
X14090285Y-14841800D01*
X14105524Y-14837325D01*
X14106729Y-14835935D01*
X14108400Y-14828252D01*
X14108400Y-14823685D01*
X14616400Y-14823685D01*
X14620875Y-14838924D01*
X14622265Y-14840129D01*
X14629948Y-14841800D01*
X15614284Y-14841800D01*
X15629523Y-14837325D01*
X15630728Y-14835935D01*
X15632399Y-14828252D01*
X15632399Y-14289131D01*
X15632029Y-14282310D01*
X15626505Y-14231448D01*
X15622879Y-14216196D01*
X15577724Y-14095746D01*
X15569186Y-14080151D01*
X15492685Y-13978076D01*
X15480124Y-13965515D01*
X15378049Y-13889014D01*
X15362454Y-13880476D01*
X15242006Y-13835322D01*
X15226751Y-13831695D01*
X15175886Y-13826169D01*
X15169072Y-13825800D01*
X14634515Y-13825800D01*
X14619276Y-13830275D01*
X14618071Y-13831665D01*
X14616400Y-13839348D01*
X14616400Y-14823685D01*
X14108400Y-14823685D01*
X14108400Y-13843916D01*
X14103925Y-13828677D01*
X14102535Y-13827472D01*
X14094852Y-13825801D01*
X13555731Y-13825801D01*
X13548910Y-13826171D01*
X13498048Y-13831695D01*
X13482796Y-13835321D01*
X13362346Y-13880476D01*
X13346752Y-13889014D01*
X13244016Y-13966010D01*
X13177510Y-13990858D01*
X13108127Y-13975805D01*
X13068489Y-13941888D01*
X13016909Y-13874668D01*
X13016905Y-13874664D01*
X13011882Y-13868118D01*
X12886441Y-13771864D01*
X12740362Y-13711356D01*
X12733228Y-13710417D01*
X12673025Y-13673723D01*
X12642002Y-13609863D01*
X12650429Y-13539368D01*
X12696253Y-13484202D01*
X12718637Y-13469245D01*
X12718639Y-13469243D01*
X12728952Y-13462352D01*
X12750263Y-13430458D01*
X12766374Y-13406347D01*
X12773267Y-13396031D01*
X12784900Y-13337548D01*
X12784900Y-13100577D01*
X12804902Y-13032456D01*
X12858558Y-12985963D01*
X12928832Y-12975859D01*
X12987604Y-13000615D01*
X13036203Y-13037906D01*
X13036206Y-13037908D01*
X13042759Y-13042936D01*
X13188838Y-13103444D01*
X13197026Y-13104522D01*
X13290347Y-13116808D01*
X13355274Y-13145531D01*
X13394365Y-13204796D01*
X13399900Y-13241730D01*
X13399900Y-13337548D01*
X13411533Y-13396031D01*
X13418426Y-13406347D01*
X13434537Y-13430458D01*
X13455848Y-13462352D01*
X13522169Y-13506667D01*
X13534338Y-13509088D01*
X13534339Y-13509088D01*
X13574584Y-13517093D01*
X13580652Y-13518300D01*
X15144148Y-13518300D01*
X15150216Y-13517093D01*
X15190461Y-13509088D01*
X15190462Y-13509088D01*
X15202631Y-13506667D01*
X15268952Y-13462352D01*
X15290263Y-13430458D01*
X15306374Y-13406347D01*
X15313267Y-13396031D01*
X15324900Y-13337548D01*
X15324900Y-11774052D01*
X15313267Y-11715569D01*
X15268952Y-11649248D01*
X15202631Y-11604933D01*
X15190462Y-11602512D01*
X15190461Y-11602512D01*
X15150216Y-11594507D01*
X15144148Y-11593300D01*
X13580652Y-11593300D01*
X13574584Y-11594507D01*
X13534339Y-11602512D01*
X13534338Y-11602512D01*
X13522169Y-11604933D01*
X13455848Y-11649248D01*
X13411533Y-11715569D01*
X13399900Y-11774052D01*
X13399900Y-11795070D01*
X13379898Y-11863191D01*
X13326242Y-11909684D01*
X13290347Y-11919992D01*
X13210600Y-11930491D01*
X13188838Y-11933356D01*
X13042759Y-11993864D01*
X13036206Y-11998892D01*
X13036203Y-11998894D01*
X12987604Y-12036185D01*
X12921384Y-12061786D01*
X12851835Y-12047521D01*
X12801039Y-11997920D01*
X12784900Y-11936223D01*
X12784900Y-11774052D01*
X12773267Y-11715569D01*
X12728952Y-11649248D01*
X12662631Y-11604933D01*
X12650462Y-11602512D01*
X12650461Y-11602512D01*
X12610216Y-11594507D01*
X12604148Y-11593300D01*
X11040652Y-11593300D01*
X11034584Y-11594507D01*
X10994339Y-11602512D01*
X10994338Y-11602512D01*
X10982169Y-11604933D01*
X10915848Y-11649248D01*
X10871533Y-11715569D01*
X10859900Y-11774052D01*
X10859900Y-12557070D01*
X10839898Y-12625191D01*
X10786242Y-12671684D01*
X10750347Y-12681992D01*
X10657026Y-12694278D01*
X10648838Y-12695356D01*
X10502759Y-12755864D01*
X10496206Y-12760892D01*
X10496203Y-12760894D01*
X10447604Y-12798185D01*
X10381384Y-12823786D01*
X10311835Y-12809521D01*
X10261039Y-12759920D01*
X10244900Y-12698223D01*
X10244900Y-11774052D01*
X10233267Y-11715569D01*
X10188952Y-11649248D01*
X10122631Y-11604933D01*
X10110462Y-11602512D01*
X10110461Y-11602512D01*
X10070216Y-11594507D01*
X10064148Y-11593300D01*
X8500652Y-11593300D01*
X8494584Y-11594507D01*
X8454339Y-11602512D01*
X8454338Y-11602512D01*
X8442169Y-11604933D01*
X8375848Y-11649248D01*
X8331533Y-11715569D01*
X8329112Y-11727738D01*
X8329112Y-11727739D01*
X8323691Y-11754993D01*
X8290783Y-11817903D01*
X8229088Y-11853034D01*
X8183667Y-11855333D01*
X8100000Y-11844318D01*
X8091812Y-11845396D01*
X7956645Y-11863191D01*
X7943238Y-11864956D01*
X7797159Y-11925464D01*
X7671718Y-12021718D01*
X7575464Y-12147159D01*
X7514956Y-12293238D01*
X7494318Y-12450000D01*
X-33120Y-12450000D01*
X42841Y-12418536D01*
X168282Y-12322282D01*
X264536Y-12196841D01*
X325044Y-12050762D01*
X345682Y-11894000D01*
X329092Y-11767984D01*
X326122Y-11745426D01*
X325044Y-11737238D01*
X264536Y-11591159D01*
X168282Y-11465718D01*
X42841Y-11369464D01*
X-103238Y-11308956D01*
X-260000Y-11288318D01*
X-416762Y-11308956D01*
X-562841Y-11369464D01*
X-688282Y-11465718D01*
X-784536Y-11591159D01*
X-845044Y-11737238D01*
X-846122Y-11745426D01*
X-849092Y-11767984D01*
X-865682Y-11894000D01*
X-38180010Y-11894000D01*
X-38333879Y-11374491D01*
X-38635591Y-10355813D01*
X-38637287Y-10349484D01*
X-39124647Y-8319564D01*
X-39126016Y-8313125D01*
X-39131249Y-8284884D01*
X-39356767Y-7068000D01*
X-30964682Y-7068000D01*
X-30944044Y-7224762D01*
X-30883536Y-7370841D01*
X-30787282Y-7496282D01*
X-30661841Y-7592536D01*
X-30515762Y-7653044D01*
X-30507574Y-7654122D01*
X-30480191Y-7657727D01*
X-30359000Y-7673682D01*
X-30350812Y-7672604D01*
X-30210426Y-7654122D01*
X-30202238Y-7653044D01*
X-30056159Y-7592536D01*
X-29930718Y-7496282D01*
X-29834464Y-7370841D01*
X-29773956Y-7224762D01*
X-29753318Y-7068000D01*
X-29773956Y-6911238D01*
X-29834464Y-6765159D01*
X-29930718Y-6639718D01*
X-30056159Y-6543464D01*
X-30202238Y-6482956D01*
X-30359000Y-6462318D01*
X-30515762Y-6482956D01*
X-30661841Y-6543464D01*
X-30787282Y-6639718D01*
X-30883536Y-6765159D01*
X-30944044Y-6911238D01*
X-30964682Y-7068000D01*
X-39356767Y-7068000D01*
X-39459396Y-6514222D01*
X-39506406Y-6260557D01*
X-39507438Y-6254047D01*
X-39718000Y-4655000D01*
X-32996682Y-4655000D01*
X-32976044Y-4811762D01*
X-32915536Y-4957841D01*
X-32910509Y-4964392D01*
X-32831637Y-5067180D01*
X-32819282Y-5083282D01*
X-32693841Y-5179536D01*
X-32547762Y-5240044D01*
X-32391000Y-5260682D01*
X-32382812Y-5259604D01*
X-32242426Y-5241122D01*
X-32234238Y-5240044D01*
X-32088159Y-5179536D01*
X-31962718Y-5083282D01*
X-31950362Y-5067180D01*
X-31871491Y-4964392D01*
X-31866464Y-4957841D01*
X-31805956Y-4811762D01*
X-31785318Y-4655000D01*
X-31805956Y-4498238D01*
X-31866464Y-4352159D01*
X-31962718Y-4226718D01*
X-31961846Y-4226049D01*
X-31992186Y-4170487D01*
X-31989981Y-4139664D01*
X-32014946Y-4148975D01*
X-32085052Y-4132848D01*
X-32088159Y-4130464D01*
X-32095785Y-4127305D01*
X-32095787Y-4127304D01*
X-32226609Y-4073116D01*
X-32234238Y-4069956D01*
X-32391000Y-4049318D01*
X-32547762Y-4069956D01*
X-32693841Y-4130464D01*
X-32819282Y-4226718D01*
X-32915536Y-4352159D01*
X-32976044Y-4498238D01*
X-32996682Y-4655000D01*
X-39718000Y-4655000D01*
X-39779975Y-4184353D01*
X-39780665Y-4177788D01*
X-39833061Y-3512000D01*
X-32107682Y-3512000D01*
X-32106604Y-3520188D01*
X-32088802Y-3655405D01*
X-32087044Y-3668762D01*
X-32026536Y-3814841D01*
X-31934573Y-3934689D01*
X-31934573Y-3934690D01*
X-31930282Y-3940282D01*
X-31931154Y-3940951D01*
X-31900814Y-3996513D01*
X-31903019Y-4027336D01*
X-31878054Y-4018025D01*
X-31807948Y-4034152D01*
X-31804841Y-4036536D01*
X-31797215Y-4039695D01*
X-31797213Y-4039696D01*
X-31666391Y-4093884D01*
X-31658762Y-4097044D01*
X-31502000Y-4117682D01*
X-31493812Y-4116604D01*
X-31353426Y-4098122D01*
X-31345238Y-4097044D01*
X-31199159Y-4036536D01*
X-31073718Y-3940282D01*
X-30977464Y-3814841D01*
X-30916956Y-3668762D01*
X-30915197Y-3655405D01*
X-30897396Y-3520188D01*
X-30896318Y-3512000D01*
X-30916956Y-3355238D01*
X-30977464Y-3209159D01*
X-31073718Y-3083718D01*
X-31177609Y-3004000D01*
X-27909626Y-3004000D01*
X-27888988Y-3160762D01*
X-27828480Y-3306841D01*
X-27732226Y-3432282D01*
X-27606785Y-3528536D01*
X-27460706Y-3589044D01*
X-27303944Y-3609682D01*
X-27295756Y-3608604D01*
X-27155370Y-3590122D01*
X-27147182Y-3589044D01*
X-27001103Y-3528536D01*
X-26875662Y-3432282D01*
X-26779408Y-3306841D01*
X-26718900Y-3160762D01*
X-26698262Y-3004000D01*
X-26718900Y-2847238D01*
X-26779408Y-2701159D01*
X-26875662Y-2575718D01*
X-27001103Y-2479464D01*
X-27147182Y-2418956D01*
X-27303944Y-2398318D01*
X-27460706Y-2418956D01*
X-27606785Y-2479464D01*
X-27732226Y-2575718D01*
X-27828480Y-2701159D01*
X-27888988Y-2847238D01*
X-27909626Y-3004000D01*
X-31177609Y-3004000D01*
X-31199159Y-2987464D01*
X-31345238Y-2926956D01*
X-31502000Y-2906318D01*
X-31658762Y-2926956D01*
X-31804841Y-2987464D01*
X-31930282Y-3083718D01*
X-32026536Y-3209159D01*
X-32087044Y-3355238D01*
X-32107682Y-3512000D01*
X-39833061Y-3512000D01*
X-39944445Y-2096674D01*
X-39944790Y-2090086D01*
X-39947462Y-1988000D01*
X-29567682Y-1988000D01*
X-29547044Y-2144762D01*
X-29486536Y-2290841D01*
X-29390282Y-2416282D01*
X-29264841Y-2512536D01*
X-29118762Y-2573044D01*
X-28962000Y-2593682D01*
X-28953812Y-2592604D01*
X-28813426Y-2574122D01*
X-28805238Y-2573044D01*
X-28659159Y-2512536D01*
X-28533718Y-2416282D01*
X-28437464Y-2290841D01*
X-28376956Y-2144762D01*
X-28356318Y-1988000D01*
X-28376956Y-1831238D01*
X-28437464Y-1685159D01*
X-28533718Y-1559718D01*
X-28659159Y-1463464D01*
X-28805238Y-1402956D01*
X-28962000Y-1382318D01*
X-29118762Y-1402956D01*
X-29264841Y-1463464D01*
X-29390282Y-1559718D01*
X-29486536Y-1685159D01*
X-29547044Y-1831238D01*
X-29567682Y-1988000D01*
X-39947462Y-1988000D01*
X-39980260Y-735026D01*
X-39999414Y-3285D01*
X-39999414Y3297D01*
X-39999264Y8999D01*
X-39985051Y552000D01*
X-29313682Y552000D01*
X-29293044Y395238D01*
X-29289884Y387609D01*
X-29289396Y386432D01*
X-29232536Y249159D01*
X-29136282Y123718D01*
X-29010841Y27464D01*
X-28864762Y-33044D01*
X-28708000Y-53682D01*
X-28699812Y-52604D01*
X-28559426Y-34122D01*
X-28551238Y-33044D01*
X-28405159Y27464D01*
X-28279718Y123718D01*
X-28183464Y249159D01*
X-28126604Y386432D01*
X-28126116Y387609D01*
X-28122956Y395238D01*
X-28102318Y552000D01*
X-26900682Y552000D01*
X-26880044Y395238D01*
X-26876884Y387609D01*
X-26876396Y386432D01*
X-26819536Y249159D01*
X-26723282Y123718D01*
X-26597841Y27464D01*
X-26451762Y-33044D01*
X-26295000Y-53682D01*
X-26286812Y-52604D01*
X-26146426Y-34122D01*
X-26138238Y-33044D01*
X-26058511Y-20D01*
X-23850510Y-20D01*
X-23850491Y-99D01*
X-23847995Y-15855D01*
X-23847995Y-15856D01*
X-23791794Y-370572D01*
X-23789297Y-386331D01*
X-23789290Y-386411D01*
X-23789281Y-386428D01*
X-23789278Y-386448D01*
X-23789237Y-386516D01*
X-23783070Y-398622D01*
X-23783070Y-398623D01*
X-23617655Y-723354D01*
X-23611760Y-734926D01*
X-23611724Y-735013D01*
X-23611707Y-735030D01*
X-23611700Y-735044D01*
X-23611650Y-735087D01*
X-23599160Y-747574D01*
X-23599160Y-747575D01*
X-23445199Y-901501D01*
X-23335068Y-1011607D01*
X-23335015Y-1011669D01*
X-23334997Y-1011678D01*
X-23334984Y-1011691D01*
X-23334918Y-1011718D01*
X-23323313Y-1017632D01*
X-23323312Y-1017633D01*
X-23113015Y-1124804D01*
X-22986544Y-1189256D01*
X-22986476Y-1189297D01*
X-22986456Y-1189300D01*
X-22986439Y-1189309D01*
X-22986359Y-1189316D01*
X-22830172Y-1214052D01*
X-22616678Y-1247865D01*
X-22616676Y-1247865D01*
X-22600100Y-1250490D01*
X-22600021Y-1250509D01*
X-22600001Y-1250506D01*
X-22599981Y-1250509D01*
X-22599901Y-1250490D01*
X-22213641Y-1189316D01*
X-22213561Y-1189309D01*
X-22213544Y-1189300D01*
X-22213524Y-1189297D01*
X-22213456Y-1189256D01*
X-21865093Y-1011724D01*
X-21865016Y-1011692D01*
X-21865001Y-1011677D01*
X-21864985Y-1011669D01*
X-21864938Y-1011614D01*
X-21853301Y-999980D01*
X-13500509Y-999980D01*
X-13500500Y-1000037D01*
X-13500500Y-1000099D01*
X-13500484Y-1000138D01*
X-13499159Y-1008501D01*
X-13499159Y-1008504D01*
X-13459365Y-1259714D01*
X-13449098Y-1324529D01*
X-13449091Y-1324609D01*
X-13449082Y-1324626D01*
X-13449079Y-1324646D01*
X-13449038Y-1324714D01*
X-13442873Y-1336816D01*
X-13442873Y-1336817D01*
X-13407572Y-1406116D01*
X-13299956Y-1617375D01*
X-13299924Y-1617452D01*
X-13299909Y-1617467D01*
X-13299901Y-1617483D01*
X-13299845Y-1617531D01*
X-13291176Y-1626200D01*
X-13291174Y-1626203D01*
X-13290319Y-1627057D01*
X-13067568Y-1849811D01*
X-13067515Y-1849873D01*
X-13067497Y-1849882D01*
X-13067483Y-1849896D01*
X-13067411Y-1849926D01*
X-12774744Y-1999048D01*
X-12774676Y-1999089D01*
X-12774656Y-1999092D01*
X-12774639Y-1999101D01*
X-12774559Y-1999108D01*
X-12761864Y-2001118D01*
X-12761862Y-2001119D01*
X-12623507Y-2023028D01*
X-12450100Y-2050489D01*
X-12450021Y-2050508D01*
X-12450001Y-2050505D01*
X-12449981Y-2050508D01*
X-12449901Y-2050489D01*
X-12274225Y-2022669D01*
X-12138138Y-2001119D01*
X-12138136Y-2001118D01*
X-12125441Y-1999108D01*
X-12125361Y-1999101D01*
X-12125344Y-1999092D01*
X-12125324Y-1999089D01*
X-12125256Y-1999048D01*
X-11832593Y-1849928D01*
X-11832516Y-1849896D01*
X-11832501Y-1849881D01*
X-11832485Y-1849873D01*
X-11832437Y-1849817D01*
X-11806229Y-1823609D01*
X-11667783Y-1685159D01*
X-11600162Y-1617536D01*
X-11600100Y-1617483D01*
X-11600091Y-1617465D01*
X-11600077Y-1617451D01*
X-11600047Y-1617379D01*
X-11524203Y-1468491D01*
X-11458268Y-1339055D01*
X-11458268Y-1339054D01*
X-11450958Y-1324704D01*
X-11450923Y-1324646D01*
X-11450920Y-1324629D01*
X-11450910Y-1324609D01*
X-11450903Y-1324520D01*
X-11402288Y-1017634D01*
X-11400867Y-1008667D01*
X-11400867Y-1008666D01*
X-11399516Y-1000137D01*
X-11399500Y-1000099D01*
X-11399500Y-1000038D01*
X-11399491Y-999981D01*
X-11399500Y-999943D01*
X-11399500Y-901501D01*
X-11379498Y-833380D01*
X-11325842Y-786887D01*
X-11273500Y-775501D01*
X-8125588Y-775501D01*
X-8057467Y-795503D01*
X-8010974Y-849159D01*
X-8000667Y-885052D01*
X-7983423Y-1016023D01*
X-7951397Y-1259281D01*
X-7952688Y-1259451D01*
X-7952676Y-1259531D01*
X-7951400Y-1259294D01*
X-7951384Y-1259380D01*
X-7951373Y-1259464D01*
X-7952660Y-1259633D01*
X-7952647Y-1259713D01*
X-7951366Y-1259476D01*
X-7874600Y-1673699D01*
X-7875809Y-1673923D01*
X-7875794Y-1673995D01*
X-7874602Y-1673710D01*
X-7874585Y-1673781D01*
X-7874567Y-1673878D01*
X-7875773Y-1674102D01*
X-7875758Y-1674179D01*
X-7874559Y-1673891D01*
X-7776206Y-2083520D01*
X-7777530Y-2083838D01*
X-7777510Y-2083917D01*
X-7776208Y-2083535D01*
X-7776181Y-2083627D01*
X-7776163Y-2083701D01*
X-7777483Y-2084022D01*
X-7777464Y-2084098D01*
X-7776156Y-2083711D01*
X-7656502Y-2487650D01*
X-7657624Y-2487982D01*
X-7657546Y-2488228D01*
X-7656442Y-2487837D01*
X-7515820Y-2884945D01*
X-7516906Y-2885330D01*
X-7516814Y-2885570D01*
X-7515750Y-2885129D01*
X-7354538Y-3274342D01*
X-7355492Y-3274737D01*
X-7355389Y-3274966D01*
X-7354458Y-3274522D01*
X-7173089Y-3654757D01*
X-7173983Y-3655184D01*
X-7173868Y-3655405D01*
X-7173000Y-3654933D01*
X-6971981Y-4025163D01*
X-6972850Y-4025635D01*
X-6972729Y-4025852D01*
X-6971884Y-4025334D01*
X-6751772Y-4384526D01*
X-6752666Y-4385074D01*
X-6752529Y-4385285D01*
X-6751665Y-4384691D01*
X-6513050Y-4731881D01*
X-6514223Y-4732687D01*
X-6514171Y-4732758D01*
X-6513046Y-4731896D01*
X-6512987Y-4731973D01*
X-6512945Y-4732034D01*
X-6514112Y-4732837D01*
X-6514062Y-4732905D01*
X-6512935Y-4732040D01*
X-6256469Y-5066265D01*
X-6257579Y-5067117D01*
X-6257527Y-5067180D01*
X-6256465Y-5066277D01*
X-6256414Y-5066337D01*
X-6256357Y-5066411D01*
X-6257460Y-5067261D01*
X-6257407Y-5067326D01*
X-6256344Y-5066418D01*
X-5982755Y-5386761D01*
X-5983699Y-5387567D01*
X-5983646Y-5387624D01*
X-5982750Y-5386773D01*
X-5982693Y-5386833D01*
X-5982635Y-5386901D01*
X-5983573Y-5387701D01*
X-5983520Y-5387759D01*
X-5982622Y-5386907D01*
X-5692634Y-5692492D01*
X-5692628Y-5692506D01*
X-5692556Y-5692574D01*
X-5692506Y-5692627D01*
X-5693227Y-5693307D01*
X-5693181Y-5693354D01*
X-5692496Y-5692632D01*
X-5386908Y-5982621D01*
X-5386902Y-5982634D01*
X-5386836Y-5982690D01*
X-5386774Y-5982749D01*
X-5387587Y-5983604D01*
X-5387532Y-5983655D01*
X-5386762Y-5982754D01*
X-5066418Y-6256344D01*
X-5066443Y-6256373D01*
X-5066431Y-6256380D01*
X-5066412Y-6256355D01*
X-5066348Y-6256404D01*
X-5066279Y-6256463D01*
X-5066280Y-6256464D01*
X-5066241Y-6256485D01*
X-4766990Y-6486116D01*
X-4732043Y-6512933D01*
X-4732750Y-6513854D01*
X-4732693Y-6513896D01*
X-4732036Y-6512944D01*
X-4731965Y-6512993D01*
X-4731897Y-6513045D01*
X-4732600Y-6513965D01*
X-4732543Y-6514008D01*
X-4731884Y-6513049D01*
X-4384694Y-6751663D01*
X-4385261Y-6752489D01*
X-4385206Y-6752525D01*
X-4384685Y-6751675D01*
X-4384605Y-6751724D01*
X-4384541Y-6751768D01*
X-4385106Y-6752590D01*
X-4385053Y-6752626D01*
X-4384529Y-6751771D01*
X-4025337Y-6971881D01*
X-4025931Y-6972850D01*
X-4025708Y-6972978D01*
X-4025166Y-6971980D01*
X-3654938Y-7172996D01*
X-3655557Y-7174136D01*
X-3655484Y-7174172D01*
X-3654927Y-7173008D01*
X-3654835Y-7173052D01*
X-3654774Y-7173085D01*
X-3655388Y-7174220D01*
X-3655320Y-7174255D01*
X-3654763Y-7173086D01*
X-3274524Y-7354456D01*
X-3274977Y-7355407D01*
X-3274746Y-7355511D01*
X-3274343Y-7354537D01*
X-2885130Y-7515749D01*
X-2885121Y-7515757D01*
X-2885050Y-7515782D01*
X-2884961Y-7515819D01*
X-2884946Y-7515819D01*
X-2884839Y-7515857D01*
X-2487839Y-7656440D01*
X-2488286Y-7657701D01*
X-2488206Y-7657727D01*
X-2487828Y-7656449D01*
X-2487740Y-7656475D01*
X-2488118Y-7657755D01*
X-2488031Y-7657783D01*
X-2487651Y-7656501D01*
X-2083712Y-7776155D01*
X-2084099Y-7777463D01*
X-2084023Y-7777482D01*
X-2083702Y-7776162D01*
X-2083628Y-7776180D01*
X-2083536Y-7776207D01*
X-2083918Y-7777509D01*
X-2083839Y-7777529D01*
X-2083521Y-7776205D01*
X-1673892Y-7874558D01*
X-1674180Y-7875757D01*
X-1674103Y-7875772D01*
X-1673879Y-7874566D01*
X-1673782Y-7874584D01*
X-1673711Y-7874601D01*
X-1673996Y-7875793D01*
X-1673924Y-7875808D01*
X-1673700Y-7874599D01*
X-1259475Y-7951366D01*
X-1259715Y-7952659D01*
X-1259642Y-7952670D01*
X-1259464Y-7951372D01*
X-1259384Y-7951383D01*
X-1259295Y-7951399D01*
X-1259527Y-7952687D01*
X-1259452Y-7952698D01*
X-1259281Y-7951396D01*
X-841604Y-8006386D01*
X-841799Y-8007864D01*
X-841714Y-8007871D01*
X-841592Y-8006392D01*
X-841507Y-8006399D01*
X-841421Y-8006410D01*
X-841609Y-8007881D01*
X-841525Y-8007889D01*
X-841408Y-8006406D01*
X-421427Y-8039462D01*
X-421503Y-8040432D01*
X-421256Y-8040445D01*
X-421231Y-8039472D01*
X-99Y-8050496D01*
X-134Y-8051833D01*
X-55Y-8051833D01*
X-86Y-8050501D01*
X0Y-8050499D01*
X86Y-8050501D01*
X55Y-8051833D01*
X134Y-8051833D01*
X99Y-8050496D01*
X421230Y-8039472D01*
X421255Y-8040445D01*
X421502Y-8040432D01*
X421426Y-8039462D01*
X841407Y-8006406D01*
X841524Y-8007889D01*
X841608Y-8007881D01*
X841420Y-8006410D01*
X841506Y-8006399D01*
X841591Y-8006392D01*
X841713Y-8007871D01*
X841798Y-8007864D01*
X841603Y-8006386D01*
X1259281Y-7951396D01*
X1259451Y-7952687D01*
X1259531Y-7952675D01*
X1259294Y-7951399D01*
X1259380Y-7951383D01*
X1259464Y-7951372D01*
X1259633Y-7952659D01*
X1259713Y-7952646D01*
X1259476Y-7951365D01*
X1673699Y-7874599D01*
X1673923Y-7875808D01*
X1673995Y-7875793D01*
X1673710Y-7874601D01*
X1673781Y-7874584D01*
X1673878Y-7874566D01*
X1674102Y-7875772D01*
X1674179Y-7875757D01*
X1673891Y-7874558D01*
X2083520Y-7776205D01*
X2083838Y-7777529D01*
X2083917Y-7777509D01*
X2083535Y-7776207D01*
X2083627Y-7776180D01*
X2083701Y-7776162D01*
X2084022Y-7777482D01*
X2084098Y-7777463D01*
X2083711Y-7776155D01*
X2487650Y-7656501D01*
X2487982Y-7657623D01*
X2488228Y-7657545D01*
X2487837Y-7656441D01*
X2884838Y-7515857D01*
X2884945Y-7515819D01*
X2884960Y-7515819D01*
X2885049Y-7515782D01*
X2885120Y-7515757D01*
X2885199Y-7515980D01*
X2885219Y-7515967D01*
X2885129Y-7515749D01*
X3274342Y-7354537D01*
X3274737Y-7355491D01*
X3274966Y-7355388D01*
X3274522Y-7354457D01*
X3342567Y-7322000D01*
X6373318Y-7322000D01*
X6393956Y-7478762D01*
X6454464Y-7624841D01*
X6550718Y-7750282D01*
X6676159Y-7846536D01*
X6822238Y-7907044D01*
X6979000Y-7927682D01*
X6987188Y-7926604D01*
X7127574Y-7908122D01*
X7135762Y-7907044D01*
X7281841Y-7846536D01*
X7407282Y-7750282D01*
X7443563Y-7703000D01*
X15263318Y-7703000D01*
X15283956Y-7859762D01*
X15344464Y-8005841D01*
X15440718Y-8131282D01*
X15566159Y-8227536D01*
X15712238Y-8288044D01*
X15869000Y-8308682D01*
X15877188Y-8307604D01*
X16017574Y-8289122D01*
X16025762Y-8288044D01*
X16171841Y-8227536D01*
X16297282Y-8131282D01*
X16393536Y-8005841D01*
X16454044Y-7859762D01*
X16474682Y-7703000D01*
X16454044Y-7546238D01*
X16393536Y-7400159D01*
X16297282Y-7274718D01*
X16171841Y-7178464D01*
X16025762Y-7117956D01*
X15869000Y-7097318D01*
X15712238Y-7117956D01*
X15566159Y-7178464D01*
X15440718Y-7274718D01*
X15344464Y-7400159D01*
X15283956Y-7546238D01*
X15263318Y-7703000D01*
X7443563Y-7703000D01*
X7503536Y-7624841D01*
X7564044Y-7478762D01*
X7584682Y-7322000D01*
X7565231Y-7174255D01*
X7565122Y-7173426D01*
X7564044Y-7165238D01*
X7503536Y-7019159D01*
X7407282Y-6893718D01*
X7281841Y-6797464D01*
X7135762Y-6736956D01*
X6979000Y-6716318D01*
X6822238Y-6736956D01*
X6676159Y-6797464D01*
X6550718Y-6893718D01*
X6454464Y-7019159D01*
X6393956Y-7165238D01*
X6392878Y-7173426D01*
X6392769Y-7174255D01*
X6373318Y-7322000D01*
X3342567Y-7322000D01*
X3654757Y-7173088D01*
X3655184Y-7173982D01*
X3655405Y-7173867D01*
X3654933Y-7172999D01*
X4025163Y-6971980D01*
X4025635Y-6972849D01*
X4025852Y-6972728D01*
X4025334Y-6971883D01*
X4384526Y-6751771D01*
X4385074Y-6752665D01*
X4385285Y-6752528D01*
X4384691Y-6751664D01*
X4731881Y-6513049D01*
X4732687Y-6514222D01*
X4732758Y-6514170D01*
X4731896Y-6513045D01*
X4731973Y-6512986D01*
X4732034Y-6512944D01*
X4732837Y-6514111D01*
X4732905Y-6514061D01*
X4732040Y-6512934D01*
X5066265Y-6256468D01*
X5067117Y-6257578D01*
X5067180Y-6257526D01*
X5066277Y-6256464D01*
X5066337Y-6256413D01*
X5066411Y-6256356D01*
X5067261Y-6257459D01*
X5067326Y-6257406D01*
X5066418Y-6256343D01*
X5386761Y-5982754D01*
X5386805Y-5982805D01*
X5386813Y-5982792D01*
X5386773Y-5982749D01*
X5386835Y-5982690D01*
X5386862Y-5982718D01*
X5386959Y-5982572D01*
X5692492Y-5692633D01*
X5692506Y-5692627D01*
X5692574Y-5692555D01*
X5692627Y-5692505D01*
X5693307Y-5693226D01*
X5693354Y-5693180D01*
X5692632Y-5692495D01*
X5982621Y-5386907D01*
X5983519Y-5387759D01*
X5983572Y-5387701D01*
X5982634Y-5386901D01*
X5982692Y-5386833D01*
X5982749Y-5386773D01*
X5983645Y-5387624D01*
X5983698Y-5387567D01*
X5982754Y-5386761D01*
X6256344Y-5066417D01*
X6256373Y-5066442D01*
X6256380Y-5066430D01*
X6256355Y-5066411D01*
X6256404Y-5066347D01*
X6256463Y-5066278D01*
X6256464Y-5066279D01*
X6256485Y-5066240D01*
X6512933Y-4732042D01*
X6513854Y-4732749D01*
X6513896Y-4732692D01*
X6512944Y-4732035D01*
X6512993Y-4731964D01*
X6513045Y-4731896D01*
X6513965Y-4732599D01*
X6514008Y-4732542D01*
X6513049Y-4731883D01*
X6565889Y-4655000D01*
X10183318Y-4655000D01*
X10203956Y-4811762D01*
X10264464Y-4957841D01*
X10269491Y-4964392D01*
X10348363Y-5067180D01*
X10360718Y-5083282D01*
X10486159Y-5179536D01*
X10632238Y-5240044D01*
X10789000Y-5260682D01*
X10797188Y-5259604D01*
X10937574Y-5241122D01*
X10945762Y-5240044D01*
X11091841Y-5179536D01*
X11217282Y-5083282D01*
X11229638Y-5067180D01*
X11308509Y-4964392D01*
X11313536Y-4957841D01*
X11374044Y-4811762D01*
X11394682Y-4655000D01*
X11374044Y-4498238D01*
X11313536Y-4352159D01*
X11217282Y-4226718D01*
X11091841Y-4130464D01*
X10945762Y-4069956D01*
X10789000Y-4049318D01*
X10632238Y-4069956D01*
X10486159Y-4130464D01*
X10360718Y-4226718D01*
X10264464Y-4352159D01*
X10203956Y-4498238D01*
X10183318Y-4655000D01*
X6565889Y-4655000D01*
X6751663Y-4384693D01*
X6752489Y-4385260D01*
X6752525Y-4385205D01*
X6751675Y-4384684D01*
X6751724Y-4384604D01*
X6751768Y-4384540D01*
X6752590Y-4385105D01*
X6752626Y-4385052D01*
X6751771Y-4384528D01*
X6971881Y-4025336D01*
X6972850Y-4025930D01*
X6972978Y-4025707D01*
X6971980Y-4025165D01*
X7172996Y-3654937D01*
X7174136Y-3655556D01*
X7174172Y-3655483D01*
X7173008Y-3654926D01*
X7173052Y-3654834D01*
X7173085Y-3654773D01*
X7174220Y-3655387D01*
X7174255Y-3655319D01*
X7173086Y-3654762D01*
X7241182Y-3512000D01*
X15263318Y-3512000D01*
X15264396Y-3520188D01*
X15282198Y-3655405D01*
X15283956Y-3668762D01*
X15344464Y-3814841D01*
X15440718Y-3940282D01*
X15566159Y-4036536D01*
X15712238Y-4097044D01*
X15869000Y-4117682D01*
X15877188Y-4116604D01*
X16017574Y-4098122D01*
X16025762Y-4097044D01*
X16171841Y-4036536D01*
X16297282Y-3940282D01*
X16393536Y-3814841D01*
X16454044Y-3668762D01*
X16455803Y-3655405D01*
X16473604Y-3520188D01*
X16474682Y-3512000D01*
X16454044Y-3355238D01*
X16393536Y-3209159D01*
X16297282Y-3083718D01*
X16171841Y-2987464D01*
X16025762Y-2926956D01*
X15869000Y-2906318D01*
X15712238Y-2926956D01*
X15566159Y-2987464D01*
X15440718Y-3083718D01*
X15344464Y-3209159D01*
X15283956Y-3355238D01*
X15263318Y-3512000D01*
X7241182Y-3512000D01*
X7354456Y-3274523D01*
X7355407Y-3274976D01*
X7355511Y-3274745D01*
X7354537Y-3274342D01*
X7506526Y-2907396D01*
X7515749Y-2885129D01*
X7515757Y-2885120D01*
X7515782Y-2885049D01*
X7515819Y-2884960D01*
X7516878Y-2885400D01*
X7516905Y-2885330D01*
X7515819Y-2884945D01*
X7625320Y-2575718D01*
X7656440Y-2487838D01*
X7656449Y-2487827D01*
X7656475Y-2487739D01*
X7656502Y-2487663D01*
X7657757Y-2488109D01*
X7657783Y-2488030D01*
X7656501Y-2487650D01*
X7776155Y-2083711D01*
X7777463Y-2084098D01*
X7777482Y-2084022D01*
X7776162Y-2083701D01*
X7776180Y-2083627D01*
X7776207Y-2083535D01*
X7777509Y-2083917D01*
X7777529Y-2083838D01*
X7776205Y-2083520D01*
X7874558Y-1673891D01*
X7875757Y-1674179D01*
X7875772Y-1674102D01*
X7874566Y-1673878D01*
X7874584Y-1673781D01*
X7874601Y-1673710D01*
X7875793Y-1673995D01*
X7875808Y-1673923D01*
X7874599Y-1673699D01*
X7951366Y-1259474D01*
X7952659Y-1259714D01*
X7952670Y-1259641D01*
X7951372Y-1259463D01*
X7951383Y-1259383D01*
X7951399Y-1259294D01*
X7952687Y-1259526D01*
X7952698Y-1259451D01*
X7951396Y-1259280D01*
X8006386Y-841603D01*
X8007864Y-841798D01*
X8007871Y-841713D01*
X8006392Y-841591D01*
X8006399Y-841506D01*
X8006410Y-841420D01*
X8007881Y-841608D01*
X8007889Y-841524D01*
X8006406Y-841407D01*
X8039462Y-421426D01*
X8040432Y-421502D01*
X8040445Y-421255D01*
X8039472Y-421230D01*
X8050496Y-99D01*
X8051833Y-134D01*
X8051833Y-55D01*
X8050501Y-86D01*
X8050499Y0D01*
X8050501Y86D01*
X8051833Y55D01*
X8051833Y134D01*
X8050496Y99D01*
X8039472Y421231D01*
X8040445Y421256D01*
X8040432Y421503D01*
X8039462Y421427D01*
X8006406Y841408D01*
X8007733Y841512D01*
X8007725Y841593D01*
X8006410Y841421D01*
X8006398Y841513D01*
X8007717Y841685D01*
X8007708Y841778D01*
X8006386Y841604D01*
X7951396Y1259281D01*
X7952698Y1259452D01*
X7952687Y1259527D01*
X7951399Y1259295D01*
X7951383Y1259384D01*
X7951372Y1259464D01*
X7952670Y1259642D01*
X7952659Y1259715D01*
X7951366Y1259475D01*
X7874599Y1673700D01*
X7875808Y1673924D01*
X7875793Y1673996D01*
X7874601Y1673711D01*
X7874584Y1673782D01*
X7874566Y1673879D01*
X7875772Y1674103D01*
X7875757Y1674180D01*
X7874558Y1673892D01*
X7776205Y2083521D01*
X7777529Y2083839D01*
X7777509Y2083918D01*
X7776207Y2083536D01*
X7776180Y2083628D01*
X7776162Y2083702D01*
X7777482Y2084023D01*
X7777463Y2084099D01*
X7776155Y2083712D01*
X7656501Y2487651D01*
X7657783Y2488031D01*
X7657757Y2488110D01*
X7656502Y2487664D01*
X7656475Y2487740D01*
X7656473Y2487746D01*
X7656449Y2487828D01*
X7656440Y2487839D01*
X7515819Y2884946D01*
X7516905Y2885331D01*
X7516878Y2885401D01*
X7515819Y2884961D01*
X7515782Y2885050D01*
X7515757Y2885121D01*
X7515749Y2885130D01*
X7354537Y3274343D01*
X7355507Y3274745D01*
X7355480Y3274805D01*
X7354536Y3274356D01*
X7354497Y3274438D01*
X7355443Y3274888D01*
X7355403Y3274976D01*
X7354456Y3274524D01*
X7173086Y3654763D01*
X7174255Y3655320D01*
X7174220Y3655388D01*
X7173085Y3654774D01*
X7173052Y3654835D01*
X7173008Y3654927D01*
X7174172Y3655484D01*
X7174136Y3655557D01*
X7172996Y3654938D01*
X6971980Y4025166D01*
X6972978Y4025708D01*
X6972850Y4025931D01*
X6971881Y4025337D01*
X6751771Y4384529D01*
X6752626Y4385053D01*
X6752590Y4385106D01*
X6751768Y4384541D01*
X6751724Y4384605D01*
X6751675Y4384685D01*
X6752525Y4385206D01*
X6752489Y4385261D01*
X6751663Y4384694D01*
X6513049Y4731884D01*
X6514008Y4732543D01*
X6513965Y4732600D01*
X6513045Y4731897D01*
X6512993Y4731965D01*
X6512944Y4732036D01*
X6513896Y4732693D01*
X6513854Y4732750D01*
X6512933Y4732043D01*
X6256486Y5066240D01*
X6256469Y5066284D01*
X6256463Y5066279D01*
X6256404Y5066348D01*
X6256355Y5066412D01*
X6256405Y5066450D01*
X6256399Y5066465D01*
X6256344Y5066418D01*
X5982754Y5386762D01*
X5983698Y5387568D01*
X5983645Y5387625D01*
X5982749Y5386774D01*
X5982692Y5386834D01*
X5982634Y5386902D01*
X5983572Y5387702D01*
X5983519Y5387760D01*
X5982621Y5386908D01*
X5692632Y5692496D01*
X5693354Y5693181D01*
X5693307Y5693227D01*
X5692627Y5692506D01*
X5692574Y5692556D01*
X5692506Y5692628D01*
X5692492Y5692634D01*
X5692471Y5692654D01*
X5692306Y5692811D01*
X5386907Y5982622D01*
X5387759Y5983520D01*
X5387701Y5983573D01*
X5386901Y5982635D01*
X5386833Y5982693D01*
X5386773Y5982750D01*
X5387624Y5983646D01*
X5387567Y5983699D01*
X5386761Y5982755D01*
X5066421Y6256345D01*
X5067128Y6257172D01*
X5066931Y6257336D01*
X5066267Y6256470D01*
X4732040Y6512935D01*
X4732905Y6514062D01*
X4732837Y6514112D01*
X4732034Y6512945D01*
X4731973Y6512987D01*
X4731896Y6513046D01*
X4732758Y6514171D01*
X4732687Y6514223D01*
X4731881Y6513050D01*
X4384691Y6751665D01*
X4385285Y6752529D01*
X4385074Y6752666D01*
X4384526Y6751772D01*
X4025334Y6971884D01*
X4025852Y6972729D01*
X4025635Y6972850D01*
X4025163Y6971981D01*
X3654933Y7173000D01*
X3655405Y7173868D01*
X3655184Y7173983D01*
X3654757Y7173089D01*
X3274522Y7354458D01*
X3274966Y7355389D01*
X3274737Y7355492D01*
X3274342Y7354538D01*
X2885129Y7515750D01*
X2885219Y7515968D01*
X2885199Y7515981D01*
X2885120Y7515758D01*
X2885049Y7515783D01*
X2884960Y7515820D01*
X2884945Y7515820D01*
X2884491Y7515981D01*
X2487837Y7656442D01*
X2488228Y7657546D01*
X2487982Y7657624D01*
X2487650Y7656502D01*
X2083711Y7776156D01*
X2084098Y7777464D01*
X2084022Y7777483D01*
X2083701Y7776163D01*
X2083627Y7776181D01*
X2083535Y7776208D01*
X2083917Y7777510D01*
X2083838Y7777530D01*
X2083520Y7776206D01*
X1673891Y7874559D01*
X1674179Y7875758D01*
X1674102Y7875773D01*
X1673878Y7874567D01*
X1673781Y7874585D01*
X1673710Y7874602D01*
X1673995Y7875794D01*
X1673923Y7875809D01*
X1673699Y7874600D01*
X1259476Y7951366D01*
X1259713Y7952647D01*
X1259633Y7952660D01*
X1259464Y7951373D01*
X1259380Y7951384D01*
X1259294Y7951400D01*
X1259531Y7952676D01*
X1259451Y7952688D01*
X1259281Y7951397D01*
X841603Y8006387D01*
X841798Y8007865D01*
X841713Y8007872D01*
X841591Y8006393D01*
X841506Y8006400D01*
X841420Y8006411D01*
X841608Y8007882D01*
X841524Y8007890D01*
X841407Y8006407D01*
X421426Y8039463D01*
X421502Y8040433D01*
X421255Y8040446D01*
X421230Y8039473D01*
X99Y8050497D01*
X134Y8051834D01*
X55Y8051834D01*
X86Y8050502D01*
X0Y8050500D01*
X-86Y8050502D01*
X-55Y8051834D01*
X-134Y8051834D01*
X-99Y8050497D01*
X-421231Y8039473D01*
X-421256Y8040446D01*
X-421503Y8040433D01*
X-421427Y8039463D01*
X-841408Y8006407D01*
X-841525Y8007890D01*
X-841609Y8007882D01*
X-841421Y8006411D01*
X-841507Y8006400D01*
X-841592Y8006393D01*
X-841714Y8007872D01*
X-841799Y8007865D01*
X-841604Y8006387D01*
X-1259281Y7951397D01*
X-1259452Y7952699D01*
X-1259527Y7952688D01*
X-1259295Y7951400D01*
X-1259384Y7951384D01*
X-1259464Y7951373D01*
X-1259642Y7952671D01*
X-1259715Y7952660D01*
X-1259475Y7951367D01*
X-1673700Y7874600D01*
X-1673924Y7875809D01*
X-1673996Y7875794D01*
X-1673711Y7874602D01*
X-1673782Y7874585D01*
X-1673879Y7874567D01*
X-1674103Y7875773D01*
X-1674180Y7875758D01*
X-1673892Y7874559D01*
X-2083521Y7776206D01*
X-2083839Y7777530D01*
X-2083918Y7777510D01*
X-2083536Y7776208D01*
X-2083628Y7776181D01*
X-2083702Y7776163D01*
X-2084023Y7777483D01*
X-2084099Y7777464D01*
X-2083712Y7776156D01*
X-2487651Y7656502D01*
X-2488031Y7657784D01*
X-2488118Y7657756D01*
X-2487740Y7656476D01*
X-2487828Y7656450D01*
X-2488206Y7657728D01*
X-2488286Y7657702D01*
X-2487839Y7656441D01*
X-2884839Y7515858D01*
X-2884946Y7515820D01*
X-2884961Y7515820D01*
X-2885050Y7515783D01*
X-2885121Y7515758D01*
X-2885200Y7515981D01*
X-2885220Y7515968D01*
X-2885130Y7515750D01*
X-3274343Y7354538D01*
X-3274746Y7355512D01*
X-3274977Y7355408D01*
X-3274524Y7354457D01*
X-3654763Y7173087D01*
X-3655320Y7174256D01*
X-3655388Y7174221D01*
X-3654774Y7173086D01*
X-3654835Y7173053D01*
X-3654927Y7173009D01*
X-3655484Y7174173D01*
X-3655557Y7174137D01*
X-3654938Y7172997D01*
X-4025166Y6971981D01*
X-4025708Y6972979D01*
X-4025931Y6972851D01*
X-4025337Y6971882D01*
X-4384529Y6751772D01*
X-4385053Y6752627D01*
X-4385106Y6752591D01*
X-4384541Y6751769D01*
X-4384605Y6751725D01*
X-4384685Y6751676D01*
X-4385206Y6752526D01*
X-4385261Y6752490D01*
X-4384694Y6751664D01*
X-4731884Y6513050D01*
X-4732543Y6514009D01*
X-4732600Y6513966D01*
X-4731897Y6513046D01*
X-4731965Y6512994D01*
X-4732036Y6512945D01*
X-4732693Y6513897D01*
X-4732750Y6513855D01*
X-4732043Y6512934D01*
X-5066240Y6256487D01*
X-5066284Y6256470D01*
X-5066279Y6256464D01*
X-5066348Y6256405D01*
X-5066412Y6256356D01*
X-5066450Y6256406D01*
X-5066465Y6256400D01*
X-5066418Y6256345D01*
X-5386762Y5982755D01*
X-5387568Y5983699D01*
X-5387625Y5983646D01*
X-5386774Y5982750D01*
X-5386834Y5982693D01*
X-5386902Y5982635D01*
X-5387702Y5983573D01*
X-5387760Y5983520D01*
X-5386908Y5982622D01*
X-5692496Y5692633D01*
X-5693181Y5693355D01*
X-5693227Y5693308D01*
X-5692506Y5692628D01*
X-5692556Y5692575D01*
X-5692628Y5692507D01*
X-5692634Y5692493D01*
X-5982622Y5386908D01*
X-5983520Y5387760D01*
X-5983573Y5387702D01*
X-5982635Y5386902D01*
X-5982693Y5386834D01*
X-5982750Y5386774D01*
X-5983646Y5387625D01*
X-5983699Y5387568D01*
X-5982755Y5386762D01*
X-6256344Y5066419D01*
X-6257407Y5067327D01*
X-6257460Y5067262D01*
X-6256357Y5066412D01*
X-6256414Y5066338D01*
X-6256465Y5066278D01*
X-6257527Y5067181D01*
X-6257579Y5067118D01*
X-6256469Y5066266D01*
X-6512935Y4732041D01*
X-6514062Y4732906D01*
X-6514112Y4732838D01*
X-6512945Y4732035D01*
X-6512987Y4731974D01*
X-6513046Y4731897D01*
X-6514171Y4732759D01*
X-6514223Y4732688D01*
X-6513050Y4731882D01*
X-6751665Y4384692D01*
X-6752529Y4385286D01*
X-6752666Y4385075D01*
X-6751772Y4384527D01*
X-6971884Y4025335D01*
X-6972729Y4025853D01*
X-6972850Y4025636D01*
X-6971981Y4025164D01*
X-7173000Y3654934D01*
X-7173868Y3655406D01*
X-7173983Y3655185D01*
X-7173089Y3654758D01*
X-7354458Y3274523D01*
X-7355353Y3274950D01*
X-7355455Y3274723D01*
X-7354538Y3274343D01*
X-7515750Y2885130D01*
X-7515758Y2885121D01*
X-7515783Y2885050D01*
X-7515820Y2884961D01*
X-7516879Y2885401D01*
X-7516906Y2885331D01*
X-7515820Y2884946D01*
X-7656442Y2487838D01*
X-7657546Y2488229D01*
X-7657624Y2487983D01*
X-7656502Y2487651D01*
X-7776156Y2083712D01*
X-7777464Y2084099D01*
X-7777483Y2084023D01*
X-7776163Y2083702D01*
X-7776181Y2083628D01*
X-7776208Y2083536D01*
X-7777510Y2083918D01*
X-7777530Y2083839D01*
X-7776206Y2083521D01*
X-7874559Y1673892D01*
X-7875758Y1674180D01*
X-7875773Y1674103D01*
X-7874567Y1673879D01*
X-7874585Y1673782D01*
X-7874602Y1673711D01*
X-7875794Y1673996D01*
X-7875809Y1673924D01*
X-7874600Y1673700D01*
X-7951366Y1259477D01*
X-7952647Y1259714D01*
X-7952660Y1259634D01*
X-7951373Y1259465D01*
X-7951384Y1259381D01*
X-7951400Y1259295D01*
X-7952676Y1259532D01*
X-7952688Y1259452D01*
X-7951397Y1259282D01*
X-7986662Y991420D01*
X-8000666Y885055D01*
X-8029389Y820128D01*
X-8088654Y781037D01*
X-8125588Y775502D01*
X-11273500Y775502D01*
X-11341621Y795504D01*
X-11388114Y849160D01*
X-11399500Y901502D01*
X-11399500Y999943D01*
X-11399491Y999981D01*
X-11399500Y1000038D01*
X-11399500Y1000099D01*
X-11399516Y1000137D01*
X-11400867Y1008667D01*
X-11448273Y1307922D01*
X-11448274Y1307924D01*
X-11450903Y1324521D01*
X-11450910Y1324610D01*
X-11450920Y1324630D01*
X-11450923Y1324647D01*
X-11450958Y1324705D01*
X-11600049Y1617384D01*
X-11600078Y1617453D01*
X-11600091Y1617466D01*
X-11600100Y1617484D01*
X-11600162Y1617537D01*
X-11832438Y1849815D01*
X-11832485Y1849870D01*
X-11832501Y1849878D01*
X-11832516Y1849893D01*
X-11832593Y1849925D01*
X-12125256Y1999049D01*
X-12125324Y1999090D01*
X-12125344Y1999093D01*
X-12125361Y1999102D01*
X-12125441Y1999109D01*
X-12138136Y2001119D01*
X-12138138Y2001120D01*
X-12346398Y2034099D01*
X-12449901Y2050490D01*
X-12449981Y2050509D01*
X-12450001Y2050506D01*
X-12450021Y2050509D01*
X-12450100Y2050490D01*
X-12465825Y2048000D01*
X-12761862Y2001120D01*
X-12761864Y2001119D01*
X-12774559Y1999109D01*
X-12774639Y1999102D01*
X-12774656Y1999093D01*
X-12774676Y1999090D01*
X-12774744Y1999049D01*
X-13067411Y1849923D01*
X-13067483Y1849893D01*
X-13067497Y1849879D01*
X-13067515Y1849870D01*
X-13067568Y1849808D01*
X-13299845Y1617532D01*
X-13299901Y1617484D01*
X-13299909Y1617468D01*
X-13299924Y1617453D01*
X-13299956Y1617376D01*
X-13305838Y1605829D01*
X-13442683Y1337190D01*
X-13449038Y1324715D01*
X-13449079Y1324647D01*
X-13449082Y1324627D01*
X-13449091Y1324610D01*
X-13449098Y1324530D01*
X-13471380Y1183868D01*
X-13498649Y1011719D01*
X-13500484Y1000138D01*
X-13500500Y1000099D01*
X-13500500Y1000037D01*
X-13500509Y999980D01*
X-13500500Y999942D01*
X-13500500Y-999942D01*
X-13500509Y-999980D01*
X-21853301Y-999980D01*
X-21588361Y-735097D01*
X-21588299Y-735044D01*
X-21588290Y-735026D01*
X-21588277Y-735013D01*
X-21588250Y-734947D01*
X-21582346Y-723356D01*
X-21582344Y-723354D01*
X-21418046Y-400815D01*
X-21410757Y-386506D01*
X-21410722Y-386448D01*
X-21410719Y-386431D01*
X-21410709Y-386411D01*
X-21410702Y-386322D01*
X-21376006Y-167327D01*
X-21352213Y-17153D01*
X-21352213Y-17152D01*
X-21349511Y-97D01*
X-21349492Y-19D01*
X-21349495Y0D01*
X-21349492Y20D01*
X-21349510Y97D01*
X-21354642Y32491D01*
X-21408075Y369728D01*
X-21410704Y386323D01*
X-21410711Y386412D01*
X-21410721Y386432D01*
X-21410724Y386449D01*
X-21410759Y386507D01*
X-21495060Y552000D01*
X-21582346Y723355D01*
X-21582348Y723357D01*
X-21588252Y734948D01*
X-21588279Y735014D01*
X-21588292Y735027D01*
X-21588301Y735045D01*
X-21588363Y735098D01*
X-21597169Y743903D01*
X-21597347Y744081D01*
X-21597351Y744084D01*
X-21600715Y747447D01*
X-21600715Y747448D01*
X-21852545Y999223D01*
X-21852546Y999223D01*
X-21864940Y1011615D01*
X-21864987Y1011670D01*
X-21865003Y1011678D01*
X-21865018Y1011693D01*
X-21865095Y1011725D01*
X-22213457Y1189256D01*
X-22213526Y1189298D01*
X-22213546Y1189301D01*
X-22213563Y1189310D01*
X-22213643Y1189317D01*
X-22226471Y1191349D01*
X-22226472Y1191349D01*
X-22583394Y1247876D01*
X-22583395Y1247876D01*
X-22599901Y1250490D01*
X-22599981Y1250509D01*
X-22600001Y1250506D01*
X-22600021Y1250509D01*
X-22600100Y1250490D01*
X-22986359Y1189317D01*
X-22986439Y1189310D01*
X-22986456Y1189301D01*
X-22986476Y1189298D01*
X-22986544Y1189257D01*
X-22998636Y1183095D01*
X-22998635Y1183095D01*
X-23323312Y1017634D01*
X-23323313Y1017633D01*
X-23334918Y1011719D01*
X-23334984Y1011692D01*
X-23334997Y1011679D01*
X-23335015Y1011670D01*
X-23335068Y1011608D01*
X-23611650Y735088D01*
X-23611700Y735045D01*
X-23611707Y735031D01*
X-23611724Y735014D01*
X-23611760Y734927D01*
X-23617614Y723435D01*
X-23771547Y421244D01*
X-23789237Y386517D01*
X-23789278Y386449D01*
X-23789281Y386429D01*
X-23789290Y386412D01*
X-23789297Y386332D01*
X-23791309Y373631D01*
X-23791310Y373629D01*
X-23812068Y242608D01*
X-23850491Y99D01*
X-23850510Y20D01*
X-23850507Y0D01*
X-23850510Y-20D01*
X-26058511Y-20D01*
X-25992159Y27464D01*
X-25866718Y123718D01*
X-25770464Y249159D01*
X-25713604Y386432D01*
X-25713116Y387609D01*
X-25709956Y395238D01*
X-25689318Y552000D01*
X-25709956Y708762D01*
X-25770464Y854841D01*
X-25866718Y980282D01*
X-25882338Y992268D01*
X-25985608Y1071509D01*
X-25992159Y1076536D01*
X-26138238Y1137044D01*
X-26295000Y1157682D01*
X-26451762Y1137044D01*
X-26597841Y1076536D01*
X-26604392Y1071509D01*
X-26707661Y992268D01*
X-26723282Y980282D01*
X-26819536Y854841D01*
X-26880044Y708762D01*
X-26900682Y552000D01*
X-28102318Y552000D01*
X-28122956Y708762D01*
X-28183464Y854841D01*
X-28279718Y980282D01*
X-28295338Y992268D01*
X-28398608Y1071509D01*
X-28405159Y1076536D01*
X-28551238Y1137044D01*
X-28708000Y1157682D01*
X-28864762Y1137044D01*
X-29010841Y1076536D01*
X-29017392Y1071509D01*
X-29120661Y992268D01*
X-29136282Y980282D01*
X-29232536Y854841D01*
X-29293044Y708762D01*
X-29313682Y552000D01*
X-39985051Y552000D01*
X-39977473Y841513D01*
X-39944789Y2090102D01*
X-39944444Y2096690D01*
X-39780665Y4177793D01*
X-39779975Y4184358D01*
X-39507438Y6254056D01*
X-39506406Y6260566D01*
X-39374379Y6972979D01*
X-39126013Y8313149D01*
X-39124647Y8319572D01*
X-38724509Y9986200D01*
X21670118Y9986200D01*
X21690756Y9829438D01*
X21751264Y9683359D01*
X21847518Y9557918D01*
X21972959Y9461664D01*
X22119038Y9401156D01*
X22275800Y9380518D01*
X22283988Y9381596D01*
X22424374Y9400078D01*
X22432562Y9401156D01*
X22578641Y9461664D01*
X22704082Y9557918D01*
X22800336Y9683359D01*
X22860844Y9829438D01*
X22881482Y9986200D01*
X22860844Y10142962D01*
X22800336Y10289041D01*
X22704082Y10414482D01*
X22578641Y10510736D01*
X22432562Y10571244D01*
X22275800Y10591882D01*
X22119038Y10571244D01*
X21972959Y10510736D01*
X21847518Y10414482D01*
X21751264Y10289041D01*
X21690756Y10142962D01*
X21670118Y9986200D01*
X-38724509Y9986200D01*
X-38637287Y10349493D01*
X-38635589Y10355830D01*
X-38042762Y12357402D01*
X-38040732Y12363652D01*
X-37496635Y13899980D01*
X-8250509Y13899980D01*
X-8250490Y13899901D01*
X-8189317Y13513638D01*
X-8189310Y13513558D01*
X-8189301Y13513541D01*
X-8189298Y13513521D01*
X-8189256Y13513452D01*
X-8011725Y13165090D01*
X-8011693Y13165013D01*
X-8011678Y13164998D01*
X-8011670Y13164982D01*
X-8011615Y13164935D01*
X-7735098Y12888358D01*
X-7735045Y12888296D01*
X-7735027Y12888287D01*
X-7735014Y12888274D01*
X-7734948Y12888247D01*
X-7386513Y12710760D01*
X-7386445Y12710719D01*
X-7386425Y12710716D01*
X-7386408Y12710707D01*
X-7386328Y12710700D01*
X-7373624Y12708687D01*
X-7373623Y12708687D01*
X-7016695Y12652139D01*
X-7016694Y12652139D01*
X-7000099Y12649510D01*
X-7000020Y12649491D01*
X-7000000Y12649494D01*
X-6999980Y12649491D01*
X-6999900Y12649510D01*
X-6984113Y12652011D01*
X-6984112Y12652011D01*
X-6626376Y12708691D01*
X-6626374Y12708692D01*
X-6613673Y12710704D01*
X-6613593Y12710711D01*
X-6613576Y12710720D01*
X-6613556Y12710723D01*
X-6613488Y12710764D01*
X-6265064Y12888243D01*
X-6264987Y12888275D01*
X-6264972Y12888290D01*
X-6264956Y12888298D01*
X-6264907Y12888355D01*
X-6252820Y12900445D01*
X-6252819Y12900445D01*
X-6001212Y13152109D01*
X-5988393Y13164931D01*
X-5988331Y13164984D01*
X-5988322Y13165002D01*
X-5988309Y13165015D01*
X-5988282Y13165081D01*
X-5810744Y13513455D01*
X-5810703Y13513523D01*
X-5810700Y13513543D01*
X-5810691Y13513560D01*
X-5810684Y13513640D01*
X-5749510Y13899900D01*
X-5749491Y13899980D01*
X-5749494Y13900000D01*
X-5749491Y13900020D01*
X-5749510Y13900100D01*
X-5810684Y14286360D01*
X-5810691Y14286440D01*
X-5810700Y14286457D01*
X-5810703Y14286477D01*
X-5810744Y14286545D01*
X-5941948Y14544000D01*
X-5982367Y14623313D01*
X-5982368Y14623314D01*
X-5988282Y14634919D01*
X-5988309Y14634985D01*
X-5988322Y14634998D01*
X-5988331Y14635016D01*
X-5988393Y14635069D01*
X-6264907Y14911645D01*
X-6264956Y14911702D01*
X-6264972Y14911710D01*
X-6264987Y14911725D01*
X-6265064Y14911757D01*
X-6399114Y14980039D01*
X3808096Y14980039D01*
X3809332Y14851409D01*
X3812018Y14833852D01*
X3848995Y14711761D01*
X3856507Y14695653D01*
X3926259Y14588859D01*
X3937995Y14575500D01*
X4035733Y14491875D01*
X4048827Y14483249D01*
X4094743Y14460656D01*
X4101001Y14457986D01*
X4286654Y14390414D01*
X4302505Y14389407D01*
X4304113Y14390301D01*
X4308310Y14396948D01*
X4581016Y15146200D01*
X4582023Y15162051D01*
X4581129Y15163659D01*
X4574482Y15167856D01*
X3966184Y15389259D01*
X3950333Y15390266D01*
X3948725Y15389371D01*
X3944528Y15382725D01*
X3824098Y15051844D01*
X3822109Y15045300D01*
X3809906Y14995623D01*
X3808096Y14980039D01*
X-6399114Y14980039D01*
X-6613488Y15089236D01*
X-6613556Y15089277D01*
X-6613576Y15089280D01*
X-6613593Y15089289D01*
X-6613673Y15089296D01*
X-6626374Y15091308D01*
X-6626376Y15091309D01*
X-6982847Y15147788D01*
X-6982848Y15147788D01*
X-6999903Y15150490D01*
X-6999981Y15150509D01*
X-7000000Y15150506D01*
X-7000020Y15150509D01*
X-7000097Y15150491D01*
X-7015668Y15148024D01*
X-7015669Y15148024D01*
X-7373625Y15091309D01*
X-7373627Y15091308D01*
X-7386328Y15089296D01*
X-7386408Y15089289D01*
X-7386425Y15089280D01*
X-7386445Y15089277D01*
X-7386513Y15089236D01*
X-7734948Y14911751D01*
X-7735014Y14911724D01*
X-7735027Y14911711D01*
X-7735045Y14911702D01*
X-7735098Y14911640D01*
X-7743885Y14902851D01*
X-7744081Y14902656D01*
X-7744084Y14902652D01*
X-7747447Y14899288D01*
X-7747448Y14899288D01*
X-7999223Y14647458D01*
X-8011615Y14635063D01*
X-8011670Y14635016D01*
X-8011678Y14635000D01*
X-8011693Y14634985D01*
X-8011725Y14634908D01*
X-8189256Y14286546D01*
X-8189298Y14286477D01*
X-8189301Y14286457D01*
X-8189310Y14286440D01*
X-8189317Y14286360D01*
X-8191349Y14273532D01*
X-8191349Y14273531D01*
X-8217885Y14105975D01*
X-8250490Y13900099D01*
X-8250509Y13900020D01*
X-8250506Y13900000D01*
X-8250509Y13899980D01*
X-37496635Y13899980D01*
X-37343831Y14331442D01*
X-37341483Y14337557D01*
X-37320905Y14387238D01*
X-36756446Y15750000D01*
X-29905682Y15750000D01*
X-29885044Y15593238D01*
X-29824536Y15447159D01*
X-29728282Y15321718D01*
X-29602841Y15225464D01*
X-29456762Y15164956D01*
X-29448574Y15163878D01*
X-29434696Y15162051D01*
X-29300000Y15144318D01*
X-29291812Y15145396D01*
X-29275260Y15147575D01*
X-29165304Y15162051D01*
X-29151426Y15163878D01*
X-29143238Y15164956D01*
X-28997159Y15225464D01*
X-28871718Y15321718D01*
X-28775464Y15447159D01*
X-28714956Y15593238D01*
X-28694318Y15750000D01*
X-28714956Y15906762D01*
X-28775464Y16052841D01*
X-28855548Y16157209D01*
X-28866695Y16171736D01*
X-28871718Y16178282D01*
X-28997159Y16274536D01*
X-29143238Y16335044D01*
X-29300000Y16355682D01*
X-29456762Y16335044D01*
X-29602841Y16274536D01*
X-29728282Y16178282D01*
X-29733305Y16171736D01*
X-29744452Y16157209D01*
X-29824536Y16052841D01*
X-29885044Y15906762D01*
X-29905682Y15750000D01*
X-36756446Y15750000D01*
X-36542608Y16266264D01*
X-36539930Y16272279D01*
X-36538853Y16274536D01*
X-35859135Y17699644D01*
X-35641284Y18156393D01*
X-35638288Y18162274D01*
X-34642145Y19996854D01*
X-34638848Y20002564D01*
X-33548109Y21782518D01*
X-33544516Y21788051D01*
X-32362171Y23508388D01*
X-32358292Y23513727D01*
X-31087416Y25169881D01*
X-31083267Y25175004D01*
X-30306563Y26084434D01*
X-30300952Y26091004D01*
X-27786505Y26091004D01*
X-27720905Y25467305D01*
X-27527105Y24870804D01*
X-27523802Y24865084D01*
X-27523801Y24865082D01*
X-27216805Y24333418D01*
X-27216802Y24333414D01*
X-27213505Y24327704D01*
X-27209093Y24322803D01*
X-27209090Y24322799D01*
X-26794471Y23862230D01*
X-26794450Y23862207D01*
X-26793906Y23861603D01*
X-26793344Y23861012D01*
X-26793314Y23860979D01*
X-26740575Y23805467D01*
X-26485905Y23537404D01*
X-25960606Y22984404D01*
X-25369607Y22362303D01*
X-24714608Y21672904D01*
X-23997307Y20917904D01*
X-23997300Y20917896D01*
X-23319560Y20204417D01*
X-23219807Y20099404D01*
X-22384205Y19219803D01*
X-21492606Y18281403D01*
X-21010407Y17773705D01*
X-20503006Y17405104D01*
X-20496974Y17402418D01*
X-20496973Y17402418D01*
X-19967648Y17166762D01*
X-19930007Y17150004D01*
X-19316605Y17019604D01*
X-18689406Y17019604D01*
X-18264360Y17109946D01*
X-18082361Y17148629D01*
X-18082360Y17148629D01*
X-18075902Y17150002D01*
X-17874300Y17239771D01*
X-11752918Y17239771D01*
X-11750525Y17232283D01*
X-11574461Y16927333D01*
X-11570737Y16921621D01*
X-11540515Y16880326D01*
X-11529749Y16868932D01*
X-11430421Y16787199D01*
X-11415228Y16777961D01*
X-11297942Y16727813D01*
X-11280780Y16723214D01*
X-11154127Y16708000D01*
X-11136355Y16708403D01*
X-11009464Y16729523D01*
X-10994448Y16734007D01*
X-10971791Y16744000D01*
X3601118Y16744000D01*
X3621756Y16587238D01*
X3682264Y16441159D01*
X3718690Y16393688D01*
X3762862Y16336122D01*
X3778518Y16315718D01*
X3903959Y16219464D01*
X4050038Y16158956D01*
X4058226Y16157878D01*
X4063308Y16157209D01*
X4128235Y16128487D01*
X4167327Y16069222D01*
X4168172Y15998230D01*
X4165263Y15989193D01*
X4129103Y15889844D01*
X4128096Y15873991D01*
X4128990Y15872383D01*
X4135637Y15868186D01*
X5119922Y15509935D01*
X5177093Y15467841D01*
X5202431Y15401519D01*
X5195228Y15348439D01*
X5064576Y14989476D01*
X4787237Y14227495D01*
X4786230Y14211646D01*
X4787125Y14210037D01*
X4793772Y14205839D01*
X4983717Y14136705D01*
X4990225Y14134727D01*
X5039919Y14122520D01*
X5055503Y14120710D01*
X5184132Y14121946D01*
X5201692Y14124633D01*
X5323781Y14161609D01*
X5339893Y14169122D01*
X5449523Y14240726D01*
X5517494Y14261231D01*
X5561518Y14253635D01*
X5922717Y14122170D01*
X6249469Y14003242D01*
X6308404Y13994171D01*
X6320454Y13997120D01*
X6320457Y13997120D01*
X6373828Y14010181D01*
X6373829Y14010181D01*
X6385882Y14013131D01*
X6450208Y14060296D01*
X6481141Y14111273D01*
X6483274Y14117133D01*
X6483286Y14117150D01*
X6485935Y14122672D01*
X6486982Y14122170D01*
X6525364Y14174305D01*
X6591684Y14199646D01*
X6661177Y14185109D01*
X6701638Y14150747D01*
X6723491Y14122268D01*
X6723495Y14122264D01*
X6728518Y14115718D01*
X6853959Y14019464D01*
X7000038Y13958956D01*
X7156800Y13938318D01*
X7164988Y13939396D01*
X7305374Y13957878D01*
X7313562Y13958956D01*
X7459641Y14019464D01*
X7585082Y14115718D01*
X7681336Y14241159D01*
X7741844Y14387238D01*
X7762482Y14544000D01*
X7741844Y14700762D01*
X7681336Y14846841D01*
X7585082Y14972282D01*
X7459641Y15068536D01*
X7313562Y15129044D01*
X7313705Y15129388D01*
X7257471Y15163663D01*
X7226447Y15227523D01*
X7237647Y15304051D01*
X7254829Y15338969D01*
X7257504Y15345240D01*
X7342170Y15577861D01*
X7343177Y15593714D01*
X7342283Y15595320D01*
X7335635Y15599519D01*
X6294970Y15978290D01*
X6237799Y16020384D01*
X6212461Y16086706D01*
X6219664Y16139786D01*
X6287504Y16326174D01*
X6832869Y16326174D01*
X6833763Y16324566D01*
X6840410Y16320369D01*
X7505089Y16078445D01*
X7520940Y16077438D01*
X7522548Y16078333D01*
X7526745Y16084979D01*
X7534978Y16107600D01*
X21695518Y16107600D01*
X21716156Y15950838D01*
X21776664Y15804759D01*
X21872918Y15679318D01*
X21998359Y15583064D01*
X22144438Y15522556D01*
X22301200Y15501918D01*
X22309388Y15502996D01*
X22449774Y15521478D01*
X22457962Y15522556D01*
X22604041Y15583064D01*
X22729482Y15679318D01*
X22825736Y15804759D01*
X22886244Y15950838D01*
X22906882Y16107600D01*
X22886244Y16264362D01*
X22825736Y16410441D01*
X22729482Y16535882D01*
X22604041Y16632136D01*
X22457962Y16692644D01*
X22301200Y16713282D01*
X22144438Y16692644D01*
X21998359Y16632136D01*
X21872918Y16535882D01*
X21776664Y16410441D01*
X21716156Y16264362D01*
X21695518Y16107600D01*
X7534978Y16107600D01*
X7612973Y16321890D01*
X7614962Y16328434D01*
X7627167Y16378119D01*
X7628975Y16393688D01*
X7627740Y16522321D01*
X7625051Y16539891D01*
X7588076Y16661973D01*
X7580567Y16678078D01*
X7510810Y16784881D01*
X7499081Y16798232D01*
X7401336Y16881862D01*
X7388246Y16890485D01*
X7342332Y16913078D01*
X7336061Y16915752D01*
X7094036Y17003842D01*
X7078185Y17004849D01*
X7076577Y17003955D01*
X7072380Y16997308D01*
X6833876Y16342025D01*
X6832869Y16326174D01*
X6287504Y16326174D01*
X6350316Y16498749D01*
X6593453Y17166762D01*
X6594460Y17182611D01*
X6593565Y17184220D01*
X6586919Y17188417D01*
X6340611Y17278065D01*
X6334067Y17280054D01*
X6284389Y17292257D01*
X6268805Y17294067D01*
X6140181Y17292831D01*
X6122609Y17290142D01*
X6000528Y17253167D01*
X5984418Y17245655D01*
X5874785Y17174050D01*
X5806814Y17153545D01*
X5762791Y17161141D01*
X5187602Y17370492D01*
X5181495Y17371432D01*
X5181491Y17371433D01*
X5160178Y17374713D01*
X5128667Y17379563D01*
X5051189Y17360604D01*
X5041180Y17353265D01*
X5008147Y17329044D01*
X4986864Y17313439D01*
X4980428Y17302833D01*
X4980427Y17302832D01*
X4974010Y17292257D01*
X4955930Y17262462D01*
X4914417Y17148405D01*
X4872323Y17091234D01*
X4806001Y17065896D01*
X4796016Y17065500D01*
X4779155Y17065500D01*
X4711034Y17085502D01*
X4679192Y17114797D01*
X4640108Y17165733D01*
X4640104Y17165737D01*
X4635082Y17172282D01*
X4509641Y17268536D01*
X4363562Y17329044D01*
X4206800Y17349682D01*
X4050038Y17329044D01*
X3903959Y17268536D01*
X3778518Y17172282D01*
X3773495Y17165736D01*
X3761422Y17150002D01*
X3682264Y17046841D01*
X3621756Y16900762D01*
X3620678Y16892574D01*
X3617445Y16868017D01*
X3601118Y16744000D01*
X-10971791Y16744000D01*
X-10947623Y16754659D01*
X-10941547Y16757742D01*
X-10770455Y16856522D01*
X-10759495Y16868017D01*
X-10759146Y16869825D01*
X-10761539Y16877312D01*
X-11160209Y17567826D01*
X-11171704Y17578786D01*
X-11173512Y17579135D01*
X-11180999Y17576742D01*
X-11741610Y17253073D01*
X-11752570Y17241578D01*
X-11752918Y17239771D01*
X-17874300Y17239771D01*
X-17503003Y17405102D01*
X-17164351Y17651114D01*
X-16998945Y17771272D01*
X-16998940Y17771276D01*
X-16995602Y17773701D01*
X-16592333Y18156393D01*
X-16462995Y18279132D01*
X-16458094Y18283545D01*
X-15918983Y18744000D01*
X-13248882Y18744000D01*
X-13228244Y18587238D01*
X-13167736Y18441159D01*
X-13071482Y18315718D01*
X-12946041Y18219464D01*
X-12799962Y18158956D01*
X-12643200Y18138318D01*
X-12635012Y18139396D01*
X-12612262Y18142391D01*
X-12486438Y18158956D01*
X-12478811Y18162115D01*
X-12478808Y18162116D01*
X-12399939Y18194785D01*
X-12329349Y18202374D01*
X-12265862Y18170595D01*
X-12229635Y18109537D01*
X-12227431Y18099062D01*
X-12222354Y18068558D01*
X-12217870Y18053541D01*
X-12197218Y18006716D01*
X-12194135Y18000640D01*
X-12020355Y17699644D01*
X-12008860Y17688684D01*
X-12007052Y17688335D01*
X-11999565Y17690728D01*
X-11092445Y18214455D01*
X-11023450Y18231193D01*
X-10956358Y18207973D01*
X-10920326Y18168336D01*
X-10729326Y17837515D01*
X-10323884Y17135268D01*
X-10312389Y17124308D01*
X-10310582Y17123960D01*
X-10303094Y17126353D01*
X-10128047Y17227417D01*
X-10122336Y17231140D01*
X-10081041Y17261362D01*
X-10069647Y17272128D01*
X-9987914Y17371456D01*
X-9978676Y17386649D01*
X-9928528Y17503935D01*
X-9923929Y17521098D01*
X-9908311Y17651114D01*
X-9880327Y17716363D01*
X-9846213Y17745204D01*
X-9212191Y18111256D01*
X-9186489Y18133796D01*
X-9176688Y18142391D01*
X-9176687Y18142393D01*
X-9167360Y18150572D01*
X-9145557Y18194785D01*
X-9137569Y18210983D01*
X-9137568Y18210985D01*
X-9132082Y18222111D01*
X-9126865Y18301704D01*
X-9146032Y18358168D01*
X-9331354Y18679156D01*
X-9348092Y18748150D01*
X-9324872Y18815242D01*
X-9311330Y18831250D01*
X-9048580Y19094000D01*
X-2897682Y19094000D01*
X-2896604Y19085812D01*
X-2878686Y18949714D01*
X-2877044Y18937238D01*
X-2816536Y18791159D01*
X-2720282Y18665718D01*
X-2594841Y18569464D01*
X-2448762Y18508956D01*
X-2292000Y18488318D01*
X-2283812Y18489396D01*
X-2143426Y18507878D01*
X-2135238Y18508956D01*
X-1989159Y18569464D01*
X-1863718Y18665718D01*
X-1767464Y18791159D01*
X-1706956Y18937238D01*
X-1705313Y18949714D01*
X-1687396Y19085812D01*
X-1686318Y19094000D01*
X-1706956Y19250762D01*
X-1767464Y19396841D01*
X-1863718Y19522282D01*
X-1989159Y19618536D01*
X-2135238Y19679044D01*
X-2292000Y19699682D01*
X-2448762Y19679044D01*
X-2594841Y19618536D01*
X-2720282Y19522282D01*
X-2816536Y19396841D01*
X-2877044Y19250762D01*
X-2897682Y19094000D01*
X-9048580Y19094000D01*
X-8900543Y19242037D01*
X-8898509Y19243793D01*
X-8893726Y19246131D01*
X-8877605Y19263509D01*
X-8860422Y19282033D01*
X-8857142Y19285438D01*
X-8843747Y19298833D01*
X-8841023Y19302803D01*
X-8838698Y19305451D01*
X-8825505Y19319674D01*
X-8817594Y19328202D01*
X-8813282Y19339009D01*
X-8810763Y19342994D01*
X-8804991Y19353803D01*
X-8803084Y19358108D01*
X-8796502Y19367702D01*
X-8790809Y19391692D01*
X-8785244Y19409288D01*
X-8779409Y19423914D01*
X-8776112Y19432178D01*
X-8775495Y19438471D01*
X-8775495Y19441553D01*
X-8775345Y19444623D01*
X-8775129Y19444612D01*
X-8773797Y19455987D01*
X-8773342Y19465301D01*
X-8770655Y19476622D01*
X-8774344Y19503729D01*
X-8775495Y19520720D01*
X-8775495Y20204417D01*
X-8755493Y20272538D01*
X-8726199Y20304380D01*
X-8654259Y20359581D01*
X-8647713Y20364604D01*
X-8551459Y20490045D01*
X-8490951Y20636124D01*
X-8470313Y20792886D01*
X-8490951Y20949648D01*
X-8551459Y21095727D01*
X-8647713Y21221168D01*
X-8773154Y21317422D01*
X-8919233Y21377930D01*
X-9075995Y21398568D01*
X-9232757Y21377930D01*
X-9378836Y21317422D01*
X-9504277Y21221168D01*
X-9600531Y21095727D01*
X-9661039Y20949648D01*
X-9681677Y20792886D01*
X-9661039Y20636124D01*
X-9600531Y20490045D01*
X-9504277Y20364604D01*
X-9497731Y20359581D01*
X-9425791Y20304380D01*
X-9383924Y20247042D01*
X-9376495Y20204417D01*
X-9376495Y19842581D01*
X-9396497Y19774460D01*
X-9450153Y19727967D01*
X-9520427Y19717863D01*
X-9585007Y19747357D01*
X-9611614Y19779581D01*
X-9716045Y19960460D01*
X-9727540Y19971420D01*
X-9729348Y19971769D01*
X-9736835Y19969376D01*
X-10695917Y19415649D01*
X-10764912Y19398911D01*
X-10832004Y19422131D01*
X-10868036Y19461768D01*
X-11059036Y19792589D01*
X-11414478Y20408232D01*
X-11425973Y20419192D01*
X-11427781Y20419541D01*
X-11435268Y20417148D01*
X-11662290Y20286076D01*
X-11667973Y20282372D01*
X-11709283Y20252139D01*
X-11720676Y20241374D01*
X-11802411Y20142045D01*
X-11811648Y20126851D01*
X-11861794Y20009569D01*
X-11866395Y19992401D01*
X-11882013Y19862386D01*
X-11909997Y19797137D01*
X-11944112Y19768297D01*
X-12474209Y19462245D01*
X-12478859Y19458167D01*
X-12509710Y19431112D01*
X-12509712Y19431110D01*
X-12519040Y19422929D01*
X-12524529Y19411800D01*
X-12532083Y19401954D01*
X-12534735Y19403989D01*
X-12569103Y19366629D01*
X-12634045Y19348604D01*
X-12635012Y19348604D01*
X-12643200Y19349682D01*
X-12651388Y19348604D01*
X-12731212Y19338095D01*
X-12799962Y19329044D01*
X-12946041Y19268536D01*
X-13071482Y19172282D01*
X-13167736Y19046841D01*
X-13228244Y18900762D01*
X-13248882Y18744000D01*
X-15918983Y18744000D01*
X-15678129Y18949714D01*
X-15364409Y19217663D01*
X-15359285Y19221812D01*
X-15280806Y19282033D01*
X-14467011Y19906501D01*
X-14461686Y19910370D01*
X-13534723Y20547332D01*
X-13529207Y20550915D01*
X-13328887Y20673676D01*
X-10979215Y20673676D01*
X-10976822Y20666189D01*
X-10628154Y20062277D01*
X-10616659Y20051317D01*
X-10614852Y20050969D01*
X-10607364Y20053362D01*
X-9994791Y20407031D01*
X-9983831Y20418526D01*
X-9983483Y20420333D01*
X-9985876Y20427821D01*
X-10111949Y20646182D01*
X-10115653Y20651866D01*
X-10145886Y20693176D01*
X-10156651Y20704569D01*
X-10255979Y20786302D01*
X-10271171Y20795540D01*
X-10388459Y20845688D01*
X-10405621Y20850287D01*
X-10532273Y20865501D01*
X-10550046Y20865098D01*
X-10676935Y20843979D01*
X-10691954Y20839495D01*
X-10738776Y20818843D01*
X-10744853Y20815759D01*
X-10967906Y20686979D01*
X-10978866Y20675484D01*
X-10979215Y20673676D01*
X-13328887Y20673676D01*
X-13147722Y20784698D01*
X-12302808Y21302483D01*
X-12297092Y21305782D01*
X-11620934Y21672906D01*
X-11032987Y21992135D01*
X-11027117Y21995126D01*
X-10012078Y22479282D01*
X-10006057Y22481963D01*
X-8966965Y22912434D01*
X-8960798Y22914802D01*
X-7604922Y23394904D01*
X-7598651Y23396941D01*
X-6949187Y23589324D01*
X-6219500Y23805470D01*
X-6213153Y23807171D01*
X-5119546Y24069731D01*
X-5113095Y24071102D01*
X-4560174Y24173552D01*
X-4007257Y24276001D01*
X-4000747Y24277032D01*
X-2574668Y24464773D01*
X-2568110Y24465462D01*
X-1134192Y24578342D01*
X-1127601Y24578688D01*
X-873221Y24585346D01*
X-3286Y24608116D01*
X3286Y24608116D01*
X873098Y24585349D01*
X1127600Y24578688D01*
X1134191Y24578342D01*
X2568101Y24465462D01*
X2574659Y24464773D01*
X4000738Y24277032D01*
X4007248Y24276001D01*
X4560165Y24173552D01*
X5113086Y24071102D01*
X5119537Y24069731D01*
X6213148Y23807171D01*
X6219485Y23805473D01*
X7222442Y23508379D01*
X7598644Y23396941D01*
X7604914Y23394904D01*
X8960793Y22914802D01*
X8966960Y22912434D01*
X10006049Y22481963D01*
X10012070Y22479282D01*
X11027112Y21995126D01*
X11032982Y21992136D01*
X11620932Y21672904D01*
X12297085Y21305782D01*
X12302801Y21302483D01*
X13402608Y20628495D01*
X13529202Y20550915D01*
X13534718Y20547332D01*
X14461676Y19910370D01*
X14467002Y19906501D01*
X15359301Y19221791D01*
X15364373Y19217684D01*
X16426974Y18310118D01*
X16458077Y18283553D01*
X16462978Y18279140D01*
X16991187Y17777885D01*
X16995594Y17773703D01*
X17502994Y17405102D01*
X17509019Y17402419D01*
X17509021Y17402418D01*
X17627455Y17349682D01*
X18075893Y17150002D01*
X18082351Y17148629D01*
X18082352Y17148629D01*
X18198416Y17123960D01*
X18689392Y17019604D01*
X19316593Y17019604D01*
X19929992Y17150002D01*
X19937950Y17153545D01*
X20496961Y17402416D01*
X20496962Y17402416D01*
X20502994Y17405102D01*
X21010395Y17773703D01*
X21276178Y18053541D01*
X21492579Y18281386D01*
X21492595Y18281403D01*
X21926804Y18738400D01*
X31290718Y18738400D01*
X31311356Y18581638D01*
X31371864Y18435559D01*
X31468118Y18310118D01*
X31593559Y18213864D01*
X31739638Y18153356D01*
X31747826Y18152278D01*
X31818019Y18143037D01*
X31896400Y18132718D01*
X31904588Y18133796D01*
X32044974Y18152278D01*
X32053162Y18153356D01*
X32199241Y18213864D01*
X32324682Y18310118D01*
X32420936Y18435559D01*
X32481444Y18581638D01*
X32502082Y18738400D01*
X32481444Y18895162D01*
X32420936Y19041241D01*
X32324682Y19166682D01*
X32199241Y19262936D01*
X32053162Y19323444D01*
X31896400Y19344082D01*
X31739638Y19323444D01*
X31593559Y19262936D01*
X31468118Y19166682D01*
X31371864Y19041241D01*
X31311356Y18895162D01*
X31290718Y18738400D01*
X21926804Y18738400D01*
X22384201Y19219803D01*
X23219802Y20099404D01*
X23997292Y20917896D01*
X23997299Y20917904D01*
X24714599Y21672904D01*
X25369598Y22362303D01*
X25960601Y22984404D01*
X26485895Y23537398D01*
X26485900Y23537404D01*
X26741457Y23806403D01*
X26793899Y23861603D01*
X27213500Y24327704D01*
X27527099Y24870804D01*
X27720901Y25467305D01*
X27786499Y26091004D01*
X27720901Y26714804D01*
X27527099Y27311204D01*
X27213500Y27854403D01*
X26793899Y28320504D01*
X26627296Y28478604D01*
X26194793Y28889004D01*
X26096099Y28982604D01*
X26094863Y28983660D01*
X26094845Y28983676D01*
X25810791Y29226304D01*
X25502494Y29489604D01*
X25502495Y29489606D01*
X25502488Y29489609D01*
X25281692Y29678204D01*
X25148895Y29791604D01*
X25104598Y29829403D01*
X25104549Y29829445D01*
X24664149Y30205633D01*
X24664145Y30205636D01*
X24662895Y30206704D01*
X23167694Y31354004D01*
X22660293Y31722704D01*
X21106994Y32790204D01*
X21105594Y32791062D01*
X21105577Y32791073D01*
X19501395Y33774147D01*
X19501386Y33774152D01*
X19499996Y33775004D01*
X17843696Y34674304D01*
X16142494Y35485703D01*
X16084424Y35511560D01*
X15570330Y35740476D01*
X15570313Y35740483D01*
X15569595Y35740803D01*
X13828292Y36462101D01*
X13826752Y36462646D01*
X13826745Y36462649D01*
X13095503Y36721585D01*
X12051696Y37091202D01*
X11533011Y37244839D01*
X10246052Y37626042D01*
X10246045Y37626044D01*
X10244495Y37626503D01*
X10242924Y37626880D01*
X10242906Y37626885D01*
X8412649Y38066314D01*
X8412633Y38066318D01*
X8411865Y38066502D01*
X7798404Y38196904D01*
X7797589Y38197055D01*
X7797559Y38197061D01*
X5946859Y38540000D01*
X5946860Y38540000D01*
X5945224Y38540303D01*
X5943569Y38540521D01*
X4078249Y38786188D01*
X4078235Y38786190D01*
X4076606Y38786404D01*
X2197677Y38934205D01*
X2196049Y38934248D01*
X2196043Y38934248D01*
X1703459Y38947163D01*
X313579Y38983605D01*
X-313592Y38983605D01*
X-1703644Y38947159D01*
X-2196052Y38934248D01*
X-2196058Y38934248D01*
X-2197686Y38934205D01*
X-4076615Y38786404D01*
X-4078244Y38786190D01*
X-4078258Y38786188D01*
X-5943582Y38540521D01*
X-5945237Y38540303D01*
X-5946873Y38540000D01*
X-5946872Y38540000D01*
X-7797572Y38197061D01*
X-7797602Y38197055D01*
X-7798417Y38196904D01*
X-8411873Y38066502D01*
X-8412641Y38066318D01*
X-8412657Y38066314D01*
X-10242915Y37626885D01*
X-10242933Y37626880D01*
X-10244504Y37626503D01*
X-10246054Y37626044D01*
X-10246061Y37626042D01*
X-11533020Y37244839D01*
X-12051705Y37091202D01*
X-13094762Y36721852D01*
X-13826758Y36462649D01*
X-13826765Y36462646D01*
X-13828305Y36462101D01*
X-15569605Y35740803D01*
X-15570323Y35740483D01*
X-15570340Y35740476D01*
X-16084434Y35511560D01*
X-16142504Y35485703D01*
X-17843705Y34674304D01*
X-19500004Y33775004D01*
X-19501394Y33774152D01*
X-19501403Y33774147D01*
X-21105588Y32791073D01*
X-21105605Y32791062D01*
X-21107005Y32790204D01*
X-22660306Y31722704D01*
X-23167704Y31354004D01*
X-23516796Y31086138D01*
X-24661593Y30207710D01*
X-24661612Y30207695D01*
X-24662903Y30206704D01*
X-25104603Y29829403D01*
X-25148903Y29791604D01*
X-25281704Y29678204D01*
X-25502505Y29489604D01*
X-25810805Y29226304D01*
X-26096104Y28982604D01*
X-26194806Y28889004D01*
X-26627305Y28478604D01*
X-26793905Y28320504D01*
X-26795565Y28318660D01*
X-26795567Y28318658D01*
X-27209090Y27859308D01*
X-27209093Y27859304D01*
X-27213505Y27854403D01*
X-27527105Y27311204D01*
X-27720905Y26714804D01*
X-27786505Y26091004D01*
X-30300952Y26091004D01*
X-29727564Y26762374D01*
X-29723173Y26767249D01*
X-28691554Y27854403D01*
X-28286212Y28281565D01*
X-28281543Y28286234D01*
X-27013393Y29489604D01*
X-26767248Y29723175D01*
X-26762372Y29727566D01*
X-25982984Y30393207D01*
X-25175000Y31083270D01*
X-25169877Y31087419D01*
X-23513732Y32358289D01*
X-23508393Y32362168D01*
X-21788056Y33544515D01*
X-21782523Y33548108D01*
X-20002567Y34638848D01*
X-19996857Y34642145D01*
X-18162269Y35638288D01*
X-18156388Y35641284D01*
X-16436764Y36461475D01*
X-16272278Y36539928D01*
X-16266265Y36542605D01*
X-14940666Y37091672D01*
X-14337575Y37341474D01*
X-14331421Y37343837D01*
X-12363654Y38040729D01*
X-12357373Y38042769D01*
X-11836434Y38197061D01*
X-10355811Y38635592D01*
X-10349480Y38637288D01*
X-8319569Y39124647D01*
X-8313146Y39126013D01*
X-6933886Y39381623D01*
X-6260562Y39506406D01*
X-6254052Y39507438D01*
X-4184354Y39779975D01*
X-4177789Y39780665D01*
X-2096687Y39944444D01*
X-2090099Y39944789D01*
X-831626Y39977731D01*
X-3285Y39999414D01*
X3285Y39999414D01*
X907350Y39975746D01*
G37*
%TD.AperFunction*%
%TD*%
M02*
