%TF.GenerationSoftware,KiCad,Pcbnew,6.0.11+dfsg-1~bpo11+1*%
%TF.CreationDate,2023-06-19T16:06:01+00:00*%
%TF.ProjectId,USTTHUNDERMILLPCB01,55535454-4855-44e4-9445-524d494c4c50,rev?*%
%TF.SameCoordinates,Original*%
%TF.FileFunction,Copper,L4,Bot*%
%TF.FilePolarity,Positive*%
%FSLAX46Y46*%
G04 Gerber Fmt 4.6, Leading zero omitted, Abs format (unit mm)*
G04 Created by KiCad (PCBNEW 6.0.11+dfsg-1~bpo11+1) date 2023-06-19 16:06:01*
%MOMM*%
%LPD*%
G01*
G04 APERTURE LIST*
G04 Aperture macros list*
%AMRotRect*
0 Rectangle, with rotation*
0 The origin of the aperture is its center*
0 $1 length*
0 $2 width*
0 $3 Rotation angle, in degrees counterclockwise*
0 Add horizontal line*
21,1,$1,$2,0,0,$3*%
G04 Aperture macros list end*
%TA.AperFunction,SMDPad,CuDef*%
%ADD10RotRect,0.970000X0.950000X160.000000*%
%TD*%
%TA.AperFunction,SMDPad,CuDef*%
%ADD11RotRect,0.970000X1.150000X160.000000*%
%TD*%
%TA.AperFunction,SMDPad,CuDef*%
%ADD12RotRect,0.850000X0.950000X160.000000*%
%TD*%
%TA.AperFunction,SMDPad,CuDef*%
%ADD13RotRect,0.850000X1.150000X160.000000*%
%TD*%
%TA.AperFunction,SMDPad,CuDef*%
%ADD14RotRect,0.970000X0.950000X70.000000*%
%TD*%
%TA.AperFunction,SMDPad,CuDef*%
%ADD15RotRect,0.970000X1.150000X70.000000*%
%TD*%
%TA.AperFunction,SMDPad,CuDef*%
%ADD16RotRect,0.850000X0.950000X70.000000*%
%TD*%
%TA.AperFunction,SMDPad,CuDef*%
%ADD17RotRect,0.850000X1.150000X70.000000*%
%TD*%
%TA.AperFunction,SMDPad,CuDef*%
%ADD18RotRect,0.970000X0.950000X210.000000*%
%TD*%
%TA.AperFunction,SMDPad,CuDef*%
%ADD19RotRect,0.970000X1.150000X210.000000*%
%TD*%
%TA.AperFunction,SMDPad,CuDef*%
%ADD20RotRect,0.850000X0.950000X210.000000*%
%TD*%
%TA.AperFunction,SMDPad,CuDef*%
%ADD21RotRect,0.850000X1.150000X210.000000*%
%TD*%
%TA.AperFunction,SMDPad,CuDef*%
%ADD22R,1.524000X1.524000*%
%TD*%
%TA.AperFunction,ViaPad*%
%ADD23C,0.800000*%
%TD*%
%TA.AperFunction,Conductor*%
%ADD24C,0.200000*%
%TD*%
%TA.AperFunction,Conductor*%
%ADD25C,0.250000*%
%TD*%
G04 APERTURE END LIST*
D10*
%TO.P,U6,1*%
%TO.N,ROTOR_GND*%
X-14903278Y6204862D03*
D11*
%TO.P,U6,2*%
%TO.N,Net-(R11-Pad2)*%
X-15365005Y4936277D03*
D12*
%TO.P,U6,3*%
%TO.N,Net-(R9-Pad2)*%
X-16030909Y6615286D03*
D13*
%TO.P,U6,4*%
%TO.N,ROTOR_GND*%
X-16492636Y5346701D03*
%TD*%
D14*
%TO.P,U13,1*%
%TO.N,ROTOR_GND*%
X6204862Y14903278D03*
D15*
%TO.P,U13,2*%
%TO.N,Net-(R28-Pad2)*%
X4936277Y15365005D03*
D16*
%TO.P,U13,3*%
%TO.N,Net-(R27-Pad2)*%
X6615286Y16030909D03*
D17*
%TO.P,U13,4*%
%TO.N,ROTOR_GND*%
X5346701Y16492636D03*
%TD*%
D18*
%TO.P,U5,1*%
%TO.N,ROTOR_GND*%
X-18655617Y-9930332D03*
D19*
%TO.P,U5,2*%
%TO.N,Net-(R10-Pad2)*%
X-17980617Y-11099466D03*
D20*
%TO.P,U5,3*%
%TO.N,Net-(R8-Pad2)*%
X-19694847Y-10530332D03*
D21*
%TO.P,U5,4*%
%TO.N,ROTOR_GND*%
X-19019847Y-11699466D03*
%TD*%
D22*
%TO.P,J4,1*%
%TO.N,/CPU/PB6*%
X9282400Y-12555800D03*
%TO.P,J4,2*%
%TO.N,+3V3*%
X9282400Y-15095800D03*
%TO.P,J4,3*%
%TO.N,/CPU/PB7*%
X11822400Y-12555800D03*
%TO.P,J4,4*%
%TO.N,/CPU/PB5*%
X11822400Y-15095800D03*
%TO.P,J4,5*%
%TO.N,/CPU/RST#_P*%
X14362400Y-12555800D03*
%TO.P,J4,6*%
%TO.N,ROTOR_GND*%
X14362400Y-15095800D03*
%TD*%
D23*
%TO.N,+5V*%
X-30359000Y-7068000D03*
X-29150000Y17050000D03*
%TO.N,+3V3*%
X10297600Y-14804400D03*
X-15375500Y-2897131D03*
X-14700000Y-5800000D03*
X22800000Y-12700000D03*
X11600000Y-3750000D03*
X-260000Y-12340000D03*
%TO.N,/CPU/RST#_P*%
X13345600Y-12518400D03*
%TO.N,/CPU/PB6*%
X8100000Y-12450000D03*
%TO.N,/CPU/PB7*%
X10805600Y-13280400D03*
%TO.N,/CPU/PB5*%
X12583600Y-14296400D03*
%TO.N,/CPU/TIMEPULSE*%
X-7556958Y-8610980D03*
X7850000Y-18800000D03*
%TO.N,Net-(R8-Pad2)*%
X-18607259Y-6221663D03*
%TO.N,Net-(R9-Pad2)*%
X-15375500Y11600000D03*
%TO.N,/CPU/PC1*%
X-10550000Y-21200000D03*
X-28750000Y-550000D03*
X13500000Y-19800000D03*
X-27064068Y5741559D03*
X-3601511Y-22198489D03*
%TO.N,/CPU/PC0*%
X12050800Y-19950800D03*
X-26903972Y-3403972D03*
X-5200000Y-21100000D03*
X-28962000Y-1988000D03*
X-28000000Y9500000D03*
X-12325000Y-19133000D03*
%TO.N,/CPU/RX0*%
X-22050000Y-18950000D03*
X2100000Y-22900000D03*
%TO.N,/CPU/TX0*%
X-24050000Y-18950000D03*
X3500000Y-23500000D03*
%TO.N,/CPU/TX1*%
X-23800000Y14500000D03*
X6471000Y-19514000D03*
%TO.N,/CPU/RX1*%
X-25700000Y13800000D03*
X3684019Y-20100000D03*
%TO.N,/CPU/BTN*%
X13400000Y-17950000D03*
X26780000Y-14820000D03*
%TO.N,/CPU/GEO_STAT*%
X-27650000Y-750000D03*
X-26295000Y552000D03*
%TO.N,ROTOR_GND*%
X-20707000Y-12910000D03*
X-29089000Y-10751000D03*
X7050000Y-22850000D03*
X-26100000Y16700000D03*
X26664000Y17443000D03*
X-1100000Y23800000D03*
X-27200000Y-23000000D03*
X13100000Y3000000D03*
X-4450000Y-22900000D03*
X35000000Y-400000D03*
X-32650000Y19450000D03*
X-21088000Y-3258000D03*
X29204000Y-10243000D03*
X5582000Y7156000D03*
X3550000Y17050000D03*
X-25500000Y-2900000D03*
X-14357000Y-1607000D03*
X1200000Y-10700000D03*
X21900000Y5950000D03*
X-8642000Y-1607000D03*
X25013000Y8045000D03*
X-24500000Y10550000D03*
X-14357000Y-591000D03*
X14950000Y18550000D03*
X9011000Y-17228000D03*
X-11950000Y-14300000D03*
X-38300000Y-5900000D03*
X-1657000Y-15831000D03*
X-36600000Y-13000000D03*
X28800000Y-7000000D03*
X-7900000Y-5450000D03*
X-29300000Y-9300000D03*
X19552000Y-5036000D03*
X10789000Y1060000D03*
X-5400000Y23300000D03*
X-28400000Y-25000000D03*
X-23600000Y-10700000D03*
X-24390000Y-4020000D03*
X5328000Y-23197000D03*
X-11000000Y-4550000D03*
X29450000Y6900000D03*
X2700000Y-15831000D03*
X-10674000Y-10751000D03*
X-2546000Y-10878000D03*
X23870000Y-5290000D03*
X19250000Y100000D03*
X9265000Y-19133000D03*
X13300000Y11500000D03*
X-11700000Y3000000D03*
X7800000Y22350000D03*
X-8650000Y1700000D03*
X-35693000Y-10624000D03*
X-6229000Y-16593000D03*
X-37725000Y-9735000D03*
X-12706000Y-2623000D03*
X-30867000Y-23578000D03*
X-10674000Y-2623000D03*
X29585000Y3219000D03*
X-30740000Y20618000D03*
X17266000Y12236000D03*
X17647000Y15919000D03*
X-4400000Y16600000D03*
X-6350000Y18100000D03*
X26650000Y-17700000D03*
X-10166000Y-15577000D03*
X30855000Y11982000D03*
X17520000Y-6941000D03*
X-24400000Y-20200000D03*
X-2750000Y9850000D03*
X-34250000Y6100000D03*
X-900000Y11750000D03*
X-38100000Y8000000D03*
X-36455000Y6394000D03*
X31236000Y15538000D03*
X-28835000Y6394000D03*
X-9000000Y21800000D03*
X-25100000Y18050000D03*
X-5400000Y7600000D03*
X27250000Y-20950000D03*
X-8300000Y9950000D03*
X-29250000Y3600000D03*
X-11690000Y-2623000D03*
X-17450000Y-13150000D03*
X29585000Y11220000D03*
X22100000Y-18450000D03*
X-36500000Y-6000000D03*
X20314000Y6648000D03*
X15400000Y5200000D03*
X-28327000Y-6560000D03*
X-10150000Y7600000D03*
X30850000Y-7300000D03*
X-21088000Y-7322000D03*
X-13087000Y-10751000D03*
X-13550000Y18000000D03*
X34650000Y-4550000D03*
X-8007000Y-10878000D03*
X-35850000Y12550000D03*
X-3900000Y20000000D03*
X-17450000Y-15174500D03*
X-6150000Y-22824500D03*
X-18700000Y-9700000D03*
X-11900000Y20200000D03*
X24400000Y18850000D03*
X-9658000Y-1607000D03*
X-300000Y16100000D03*
X-13595000Y-19006000D03*
X-32100000Y-21700000D03*
X-22916271Y-8416271D03*
X-36074000Y11347000D03*
X11300000Y20900000D03*
X24886000Y933000D03*
X14980000Y9188000D03*
X-30000000Y19400000D03*
X-4451000Y-14688000D03*
X11750000Y6400000D03*
X13329000Y-16339000D03*
X-9150000Y-3893000D03*
X-34500000Y8450000D03*
X10950000Y4500000D03*
X31350000Y-1150000D03*
X-14400000Y1695000D03*
X8884000Y-210000D03*
X-38233000Y6394000D03*
X-2200000Y17900000D03*
X-34169000Y-9481000D03*
X34750000Y3950000D03*
X29450000Y4800000D03*
X18917000Y-9227000D03*
X-24700000Y8500000D03*
X-4578000Y-7957000D03*
X-10674000Y-1607000D03*
X19750000Y-10650000D03*
X39050000Y-400000D03*
X6217000Y-16466000D03*
X8150000Y7450000D03*
X-3400000Y-13600000D03*
X-20750000Y-9300000D03*
X-22231000Y-2242000D03*
X32252000Y12617000D03*
X-12700000Y3000000D03*
X4750000Y7750000D03*
X24251000Y14903000D03*
X34100000Y-8100000D03*
X-36836000Y8045000D03*
X-26803000Y-11513000D03*
X23616000Y-337000D03*
X27400000Y3400000D03*
X-12500000Y10000000D03*
X27750000Y5200000D03*
X-8134000Y-16847000D03*
X-32264000Y21380000D03*
X26283000Y2203000D03*
X5850000Y10350000D03*
X27680000Y16554000D03*
X-9700000Y-5700500D03*
X-22739000Y-5798000D03*
X15100000Y-4700000D03*
X-35100000Y-12100000D03*
X3450000Y8300000D03*
X-28800000Y24100000D03*
X33250000Y-10500000D03*
X-7550000Y4900000D03*
X21711000Y-2750000D03*
X-10650000Y3000000D03*
X-14357000Y552000D03*
X-22000000Y18050000D03*
X21600000Y1600000D03*
X3400000Y23600000D03*
X23900000Y4300000D03*
X31363000Y-14815000D03*
X23650000Y-18050000D03*
X-3100000Y14450000D03*
X-20707000Y-11132000D03*
X14900000Y13700000D03*
X-26150000Y-2100000D03*
X2950000Y-13330500D03*
X-10650000Y1700000D03*
X28315000Y-16974000D03*
X-30500000Y-21000000D03*
X13550000Y-2200000D03*
X25850000Y-8700000D03*
X-37100000Y11800000D03*
X-9400000Y18000000D03*
X7700000Y4500000D03*
X30347000Y9061000D03*
X24300000Y-3900000D03*
X22473000Y17443000D03*
X26410000Y14776000D03*
X22350000Y-15900000D03*
X-14975500Y-11300000D03*
X13550000Y-4750000D03*
X-6200000Y-10900000D03*
X-7850000Y20100000D03*
X-20000000Y-16400000D03*
X20600000Y4600000D03*
X-26850000Y21300000D03*
X8249000Y-3131000D03*
X-36074000Y-9481000D03*
X-26930000Y-7830000D03*
X10789000Y-2242000D03*
X-26900000Y-4500000D03*
X-13722000Y-2496000D03*
X-14800000Y-7900000D03*
X-9650000Y1700000D03*
X-29650000Y22500000D03*
X13550000Y150000D03*
X-32050000Y11550000D03*
X17647000Y-15577000D03*
X18500000Y-2000000D03*
X-37217000Y-11132000D03*
%TO.N,STATOR*%
X30604000Y17446000D03*
X23920800Y28238000D03*
X24010000Y-28130000D03*
%TO.N,PA1*%
X22301200Y16107600D03*
X22035023Y-1664977D03*
X22275800Y9986200D03*
X16704523Y-4854523D03*
X15304977Y-6454977D03*
X20750000Y-350000D03*
%TO.N,COUNT_2*%
X-7800000Y-6650000D03*
X11953000Y-17953000D03*
%TO.N,Net-(R27-Pad2)*%
X7600000Y15600000D03*
%TO.N,Net-(J6-Pad5)*%
X-28500000Y-16450000D03*
X-17224500Y-16624500D03*
%TO.N,Net-(R10-Pad2)*%
X-18324500Y-4700000D03*
%TO.N,Net-(R11-Pad2)*%
X-14680017Y4669983D03*
%TO.N,Net-(R28-Pad2)*%
X8600000Y12550000D03*
%TO.N,COUNT_3*%
X10200000Y-4600000D03*
X14350000Y-17200000D03*
X8350000Y10750000D03*
X9250000Y2850000D03*
%TD*%
D24*
%TO.N,+3V3*%
X10297600Y-14804400D02*
X9573800Y-14804400D01*
X9573800Y-14804400D02*
X9282400Y-15095800D01*
%TO.N,/CPU/RST#_P*%
X13396400Y-12543000D02*
X14349600Y-12543000D01*
X14349600Y-12543000D02*
X14362400Y-12555800D01*
D25*
%TO.N,/CPU/PB6*%
X8100000Y-12450000D02*
X9176600Y-12450000D01*
X9176600Y-12450000D02*
X9282400Y-12555800D01*
%TO.N,/CPU/PB7*%
X11097800Y-13280400D02*
X11822400Y-12555800D01*
X10805600Y-13280400D02*
X11097800Y-13280400D01*
%TO.N,Net-(R8-Pad2)*%
X-19694847Y-7194847D02*
X-19694847Y-10530332D01*
X-18607259Y-6221663D02*
X-18721663Y-6221663D01*
X-18721663Y-6221663D02*
X-19694847Y-7194847D01*
%TO.N,Net-(R9-Pad2)*%
X-16030909Y10944591D02*
X-15375500Y11600000D01*
X-16030909Y7569091D02*
X-16030909Y6615286D01*
X-16030909Y7569091D02*
X-16030909Y10944591D01*
D24*
%TO.N,ROTOR_GND*%
X14362400Y-15305600D02*
X13329000Y-16339000D01*
X14362400Y-15095800D02*
X14362400Y-15305600D01*
D25*
X-18700000Y-12300000D02*
X-19099619Y-11900381D01*
%TO.N,Net-(R27-Pad2)*%
X7600000Y15600000D02*
X6615286Y16030909D01*
D24*
%TO.N,Net-(R10-Pad2)*%
X-17300000Y-5724500D02*
X-17300000Y-10700000D01*
X-17300000Y-10700000D02*
X-17699466Y-11099466D01*
X-17699466Y-11099466D02*
X-17980617Y-11099466D01*
X-18324500Y-4700000D02*
X-17300000Y-5724500D01*
D25*
%TO.N,Net-(R11-Pad2)*%
X-14680017Y4669983D02*
X-14946311Y4936277D01*
X-14946311Y4936277D02*
X-15365005Y4936277D01*
%TO.N,Net-(R28-Pad2)*%
X8600000Y12550000D02*
X5550000Y13700000D01*
X5550000Y13700000D02*
X4936277Y15365005D01*
%TD*%
%TA.AperFunction,Conductor*%
%TO.N,ROTOR_GND*%
G36*
X-10593200Y1544000D02*
G01*
X-8000340Y1544000D01*
X-8047150Y1291414D01*
X-8047385Y1290438D01*
X-8048452Y1288200D01*
X-8048955Y1284376D01*
X-8050017Y1276310D01*
X-8050419Y1273775D01*
X-8052608Y1261964D01*
X-8052284Y1259502D01*
X-8052363Y1258493D01*
X-8097178Y918106D01*
X-8115930Y885627D01*
X-8145759Y875502D01*
X-11250500Y875502D01*
X-11285148Y889854D01*
X-11299500Y924502D01*
X-11299500Y988236D01*
X-11298897Y995901D01*
X-11298850Y996198D01*
X-11298247Y1000004D01*
X-11298850Y1003811D01*
X-11298850Y1003816D01*
X-11298896Y1004106D01*
X-11299500Y1011773D01*
X-11299500Y1015917D01*
X-11300693Y1019589D01*
X-11300784Y1019870D01*
X-11302578Y1027344D01*
X-11339324Y1259302D01*
X-11352336Y1341441D01*
X-11352334Y1341448D01*
X-11352337Y1341448D01*
X-11354625Y1355905D01*
X-11354628Y1355911D01*
X-11354629Y1355917D01*
X-11360683Y1367797D01*
X-11496132Y1633696D01*
X-11493682Y1634944D01*
X-11493683Y1634947D01*
X-11496131Y1633700D01*
X-11507914Y1656825D01*
X-11507917Y1656831D01*
X-11516424Y1673531D01*
X-11518175Y1676969D01*
X-11518180Y1676974D01*
X-11518182Y1676978D01*
X-11529886Y1688682D01*
X-11552518Y1711318D01*
X-11552523Y1711319D01*
X-11772991Y1931788D01*
X-12050780Y2073334D01*
X-12050781Y2073335D01*
X-12050783Y2073336D01*
X-12050786Y2073338D01*
X-12074583Y2085462D01*
X-12074585Y2085463D01*
X-12079937Y2088190D01*
X-12094055Y2095384D01*
X-12094058Y2095384D01*
X-12094059Y2095385D01*
X-12104150Y2096983D01*
X-12142029Y2102983D01*
X-12142031Y2102982D01*
X-12438916Y2149997D01*
X-12449999Y2151753D01*
X-12450003Y2151753D01*
X-12461351Y2149955D01*
X-12757969Y2102982D01*
X-12757971Y2102983D01*
X-12784986Y2098704D01*
X-12799993Y2096327D01*
X-12804396Y2095630D01*
X-12804398Y2095629D01*
X-12805940Y2095385D01*
X-12805941Y2095385D01*
X-12805945Y2095384D01*
X-12811114Y2092750D01*
X-12832486Y2081860D01*
X-12832488Y2081859D01*
X-12849214Y2073338D01*
X-12849217Y2073336D01*
X-12849219Y2073335D01*
X-12849220Y2073334D01*
X-13083731Y1953840D01*
X-13127009Y1931788D01*
X-13347478Y1711319D01*
X-13347483Y1711318D01*
X-13370378Y1688419D01*
X-13381819Y1676978D01*
X-13381821Y1676974D01*
X-13381826Y1676969D01*
X-13392087Y1656825D01*
X-13403870Y1633700D01*
X-13407169Y1635381D01*
X-13407171Y1635378D01*
X-13403869Y1633696D01*
X-13536952Y1372442D01*
X-13545373Y1355916D01*
X-13545374Y1355909D01*
X-13545376Y1355905D01*
X-13545964Y1352190D01*
X-13547053Y1345314D01*
X-13547053Y1345313D01*
X-13597423Y1027339D01*
X-13599218Y1019865D01*
X-13599308Y1019589D01*
X-13599308Y1019586D01*
X-13600500Y1015917D01*
X-13600500Y1011772D01*
X-13601104Y1004105D01*
X-13601150Y1003815D01*
X-13601150Y1003810D01*
X-13601753Y1000003D01*
X-13601150Y996198D01*
X-13601150Y996196D01*
X-13601103Y995899D01*
X-13600500Y988234D01*
X-13600500Y-988234D01*
X-13601103Y-995899D01*
X-13601753Y-1000003D01*
X-13601150Y-1003810D01*
X-13601150Y-1003815D01*
X-13601104Y-1004105D01*
X-13600500Y-1011772D01*
X-13600500Y-1015917D01*
X-13599308Y-1019585D01*
X-13599219Y-1019860D01*
X-13597423Y-1027336D01*
X-13547046Y-1345352D01*
X-13545376Y-1355904D01*
X-13545374Y-1355908D01*
X-13545373Y-1355915D01*
X-13537385Y-1371592D01*
X-13537383Y-1371597D01*
X-13442753Y-1557362D01*
X-13403870Y-1633693D01*
X-13403871Y-1633698D01*
X-13388492Y-1663881D01*
X-13381826Y-1676968D01*
X-13381823Y-1676971D01*
X-13381820Y-1676977D01*
X-13366902Y-1691895D01*
X-13366901Y-1691898D01*
X-13366900Y-1691897D01*
X-13347483Y-1711317D01*
X-13347480Y-1711317D01*
X-13156963Y-1901837D01*
X-13127010Y-1931791D01*
X-13127008Y-1931792D01*
X-13123316Y-1933673D01*
X-13123315Y-1933674D01*
X-12849220Y-2073333D01*
X-12849214Y-2073337D01*
X-12830239Y-2083004D01*
X-12830237Y-2083005D01*
X-12811113Y-2092749D01*
X-12805944Y-2095383D01*
X-12805941Y-2095383D01*
X-12805940Y-2095384D01*
X-12799820Y-2096353D01*
X-12780005Y-2099491D01*
X-12780003Y-2099491D01*
X-12757970Y-2102981D01*
X-12461351Y-2149954D01*
X-12450003Y-2151752D01*
X-12449999Y-2151752D01*
X-12438916Y-2149996D01*
X-12142030Y-2102981D01*
X-12127998Y-2100759D01*
X-12100174Y-2096353D01*
X-12100171Y-2096352D01*
X-12094059Y-2095384D01*
X-12094058Y-2095383D01*
X-12094056Y-2095383D01*
X-12074577Y-2085458D01*
X-12050781Y-2073334D01*
X-12050780Y-2073333D01*
X-12019639Y-2057466D01*
X-11776685Y-1933674D01*
X-11776684Y-1933673D01*
X-11772992Y-1931792D01*
X-11772990Y-1931791D01*
X-11552522Y-1711318D01*
X-11552518Y-1711317D01*
X-11531405Y-1690200D01*
X-11531404Y-1690201D01*
X-11531402Y-1690197D01*
X-11518181Y-1676976D01*
X-11518179Y-1676972D01*
X-11518175Y-1676968D01*
X-11509998Y-1660916D01*
X-11496130Y-1633698D01*
X-11492831Y-1635379D01*
X-11492829Y-1635375D01*
X-11496131Y-1633693D01*
X-11457248Y-1557362D01*
X-11360683Y-1367796D01*
X-11354629Y-1355916D01*
X-11354628Y-1355910D01*
X-11354625Y-1355904D01*
X-11352344Y-1341491D01*
X-11302578Y-1027344D01*
X-11300784Y-1019870D01*
X-11300692Y-1019586D01*
X-11300692Y-1019585D01*
X-11299500Y-1015917D01*
X-11299500Y-1011772D01*
X-11298896Y-1004106D01*
X-11298850Y-1003816D01*
X-11298850Y-1003811D01*
X-11298247Y-1000004D01*
X-11298897Y-995898D01*
X-11299500Y-988236D01*
X-11299500Y-924501D01*
X-11285148Y-889853D01*
X-11250500Y-875501D01*
X-8145759Y-875501D01*
X-8111111Y-889853D01*
X-8097178Y-918105D01*
X-8052363Y-1258492D01*
X-8052284Y-1259501D01*
X-8052608Y-1261963D01*
X-8051905Y-1265755D01*
X-8051905Y-1265758D01*
X-8050419Y-1273774D01*
X-8050017Y-1276309D01*
X-8048452Y-1288199D01*
X-8047385Y-1290437D01*
X-8047150Y-1291412D01*
X-7988849Y-1606000D01*
X-10593200Y-1606000D01*
X-10593200Y-2756000D01*
X-13850000Y-2750000D01*
X-14100000Y-2500000D01*
X-14300000Y-2250000D01*
X-14293200Y2994000D01*
X-10593200Y2994000D01*
X-10593200Y1544000D01*
G37*
%TD.AperFunction*%
%TD*%
%TA.AperFunction,Conductor*%
%TO.N,STATOR*%
G36*
X144285Y37987115D02*
G01*
X417447Y37983542D01*
X418712Y37983516D01*
X1149831Y37964386D01*
X1152374Y37964286D01*
X2327268Y37902715D01*
X3030007Y37865888D01*
X3035175Y37865482D01*
X4903820Y37669072D01*
X4908956Y37668395D01*
X6765978Y37374310D01*
X6768531Y37373872D01*
X7043894Y37322847D01*
X7487756Y37240598D01*
X7488950Y37240368D01*
X7643659Y37209584D01*
X7897068Y37159160D01*
X7899605Y37158621D01*
X8305524Y37066734D01*
X8306779Y37066441D01*
X9017942Y36895700D01*
X9020454Y36895062D01*
X10836550Y36408423D01*
X10841518Y36406952D01*
X12628446Y35826364D01*
X12633332Y35824634D01*
X14388759Y35150805D01*
X14391124Y35149862D01*
X15067021Y34869884D01*
X15067939Y34869496D01*
X15450402Y34705192D01*
X15452726Y34704156D01*
X15830531Y34530006D01*
X15831707Y34529455D01*
X16102002Y34400536D01*
X16491979Y34214534D01*
X16494263Y34213408D01*
X17529636Y33685867D01*
X18169551Y33359819D01*
X18174107Y33357345D01*
X19801229Y32417910D01*
X19801232Y32417908D01*
X19805650Y32415201D01*
X21382564Y31391152D01*
X21384717Y31389713D01*
X21987450Y30975488D01*
X21988521Y30974741D01*
X22328344Y30734542D01*
X22330442Y30733018D01*
X22663792Y30484048D01*
X22664819Y30483271D01*
X23762366Y29641083D01*
X23764399Y29639480D01*
X24213633Y29275716D01*
X24215623Y29274061D01*
X24413341Y29105215D01*
X24413342Y29105214D01*
X24457624Y29067415D01*
X24457637Y29067404D01*
X24501926Y29029586D01*
X24501955Y29029561D01*
X24546138Y28991804D01*
X24678862Y28878436D01*
X24678934Y28878374D01*
X24722932Y28840809D01*
X24722938Y28840805D01*
X24943826Y28652188D01*
X24943831Y28652183D01*
X24999031Y28605041D01*
X24999034Y28605038D01*
X25284340Y28361357D01*
X25284344Y28361354D01*
X25374264Y28284545D01*
X25376208Y28282840D01*
X25376214Y28282835D01*
X25376217Y28282832D01*
X25475352Y28193548D01*
X25477255Y28191788D01*
X25575050Y28098960D01*
X25575051Y28098959D01*
X25575051Y28098960D01*
X25874806Y27814459D01*
X26040033Y27657647D01*
X26042728Y27654987D01*
X26200181Y27493366D01*
X26200183Y27493364D01*
X26202837Y27490531D01*
X26261123Y27425808D01*
X26267645Y27417755D01*
X26502939Y27093956D01*
X26513286Y27076038D01*
X26673964Y26715206D01*
X26680359Y26695524D01*
X26762489Y26309144D01*
X26764653Y26288559D01*
X26764648Y25893501D01*
X26762484Y25872919D01*
X26680361Y25486590D01*
X26680359Y25486582D01*
X26673963Y25466898D01*
X26537137Y25159631D01*
X26513288Y25106073D01*
X26502943Y25088156D01*
X26367443Y24901655D01*
X26268050Y24764853D01*
X26260642Y24755829D01*
X25981135Y24453604D01*
X25980223Y24452631D01*
X25970694Y24442602D01*
X25662694Y24118409D01*
X25662693Y24118408D01*
X25554047Y24004053D01*
X25028782Y23451120D01*
X24995954Y23416558D01*
X24995949Y23416553D01*
X24405013Y22794501D01*
X24405007Y22794494D01*
X24372947Y22760752D01*
X23717874Y22071220D01*
X23717873Y22071219D01*
X23686794Y22038503D01*
X23686794Y22038502D01*
X22969574Y21283520D01*
X22939443Y21251804D01*
X22939441Y21251802D01*
X22161948Y20433391D01*
X22132844Y20402754D01*
X22132843Y20402753D01*
X21334124Y19561995D01*
X21333716Y19561566D01*
X21159455Y19378138D01*
X21064650Y19278346D01*
X20582344Y18770651D01*
X20488267Y18671620D01*
X20481751Y18665360D01*
X20476439Y18660704D01*
X20179420Y18400371D01*
X20163666Y18389085D01*
X19821030Y18191261D01*
X19802120Y18182842D01*
X19426385Y18060766D01*
X19406138Y18056463D01*
X19013289Y18015189D01*
X18992601Y18015189D01*
X18599739Y18056464D01*
X18579487Y18060768D01*
X18521385Y18079648D01*
X18203829Y18182840D01*
X18184935Y18191253D01*
X17841165Y18389722D01*
X17827366Y18399338D01*
X17679251Y18522503D01*
X17515533Y18658642D01*
X17510705Y18662932D01*
X17397195Y18770651D01*
X17396709Y18771089D01*
X16849742Y19263590D01*
X16849711Y19263617D01*
X16849278Y19264007D01*
X16500891Y19561566D01*
X16500389Y19561973D01*
X16500362Y19561995D01*
X15541243Y20338702D01*
X15540748Y20339103D01*
X15540726Y20339120D01*
X15410977Y20433391D01*
X14541248Y21065302D01*
X13505112Y21738148D01*
X13504574Y21738478D01*
X13478793Y21754275D01*
X13415996Y21792753D01*
X12916683Y22081018D01*
X12165099Y22514925D01*
X12073127Y22564862D01*
X12073125Y22564863D01*
X12073116Y22564868D01*
X10972396Y23125754D01*
X9844407Y23627988D01*
X9844331Y23628022D01*
X9844324Y23628025D01*
X9843834Y23628243D01*
X9843814Y23628252D01*
X9843807Y23628255D01*
X9842908Y23628600D01*
X9842886Y23628609D01*
X8691069Y24070713D01*
X8691056Y24070718D01*
X8690438Y24070955D01*
X8591877Y24105855D01*
X8591872Y24105857D01*
X8591854Y24105863D01*
X7218112Y24552201D01*
X7217531Y24552373D01*
X7217496Y24552384D01*
X7157636Y24570115D01*
X7117842Y24581903D01*
X6435060Y24764855D01*
X5925766Y24901321D01*
X5925752Y24901324D01*
X5924518Y24901655D01*
X4716107Y25158553D01*
X4716102Y25158554D01*
X4716331Y25159631D01*
X4716274Y25159656D01*
X4716099Y25158554D01*
X3495909Y25351855D01*
X3495903Y25351856D01*
X3495889Y25351858D01*
X3495272Y25351939D01*
X3495246Y25351943D01*
X3392895Y25365417D01*
X3392869Y25365420D01*
X3392224Y25365505D01*
X3391577Y25365573D01*
X3391560Y25365575D01*
X1956302Y25516389D01*
X1956295Y25516390D01*
X1955673Y25516455D01*
X1955062Y25516503D01*
X1955030Y25516506D01*
X1886424Y25521901D01*
X1851440Y25524653D01*
X617710Y25589305D01*
X-617710Y25589305D01*
X-1851441Y25524653D01*
X-1886476Y25521898D01*
X-1955033Y25516506D01*
X-1955065Y25516503D01*
X-1955676Y25516455D01*
X-1956298Y25516390D01*
X-1956305Y25516389D01*
X-3391614Y25365570D01*
X-3391634Y25365568D01*
X-3392230Y25365505D01*
X-3421293Y25361679D01*
X-3436962Y25359616D01*
X-3495894Y25351857D01*
X-3944017Y25280866D01*
X-4714846Y25158753D01*
X-4714853Y25158752D01*
X-4716101Y25158554D01*
X-5924521Y24901655D01*
X-5925755Y24901324D01*
X-5925769Y24901321D01*
X-6298706Y24801392D01*
X-7117843Y24581905D01*
X-7161841Y24568872D01*
X-7186587Y24561542D01*
X-7217506Y24552383D01*
X-7217534Y24552374D01*
X-7218119Y24552201D01*
X-7218122Y24552200D01*
X-8591883Y24105854D01*
X-8690441Y24070956D01*
X-9843814Y23628255D01*
X-9843824Y23628250D01*
X-9844495Y23627951D01*
X-9844496Y23627951D01*
X-10299981Y23425148D01*
X-10972403Y23125754D01*
X-12073130Y22564863D01*
X-12073710Y22564548D01*
X-12164531Y22515237D01*
X-12164548Y22515228D01*
X-12165118Y22514918D01*
X-13416002Y21792753D01*
X-13505117Y21738148D01*
X-14541253Y21065302D01*
X-15064554Y20685091D01*
X-15453150Y20402753D01*
X-15540731Y20339120D01*
X-15540753Y20339103D01*
X-15541248Y20338702D01*
X-16500367Y19561995D01*
X-16500394Y19561973D01*
X-16500896Y19561566D01*
X-16849285Y19264007D01*
X-16849718Y19263617D01*
X-16849749Y19263590D01*
X-17160546Y18983741D01*
X-17397202Y18770652D01*
X-17510728Y18662919D01*
X-17515540Y18658644D01*
X-17826130Y18400374D01*
X-17827372Y18399341D01*
X-17841168Y18389727D01*
X-18184937Y18191257D01*
X-18203839Y18182841D01*
X-18579502Y18060767D01*
X-18599751Y18056464D01*
X-18992613Y18015190D01*
X-19013301Y18015190D01*
X-19406150Y18056464D01*
X-19426397Y18060767D01*
X-19598408Y18116653D01*
X-19802138Y18182846D01*
X-19821040Y18191261D01*
X-19988348Y18287859D01*
X-20163677Y18389088D01*
X-20179430Y18400374D01*
X-20481759Y18665360D01*
X-20488281Y18671625D01*
X-20582356Y18770654D01*
X-21064662Y19278347D01*
X-21064663Y19278348D01*
X-21297147Y19523062D01*
X-21297148Y19523063D01*
X-21334133Y19561995D01*
X-22132857Y20402754D01*
X-22161965Y20433396D01*
X-22939458Y21251804D01*
X-22969590Y21283522D01*
X-23686808Y22038504D01*
X-23717888Y22071223D01*
X-24139407Y22514918D01*
X-24367727Y22755249D01*
X-24405020Y22794501D01*
X-24995957Y23416554D01*
X-24995961Y23416558D01*
X-25028791Y23451121D01*
X-25554058Y24004055D01*
X-25662704Y24118410D01*
X-25970708Y24442605D01*
X-25970714Y24442611D01*
X-25980216Y24452614D01*
X-25981120Y24453578D01*
X-26072330Y24552201D01*
X-26260655Y24755831D01*
X-26268062Y24764855D01*
X-26502954Y25088156D01*
X-26513300Y25106075D01*
X-26622702Y25351759D01*
X-26673975Y25466903D01*
X-26680372Y25486590D01*
X-26762493Y25872919D01*
X-26764657Y25893502D01*
X-26764662Y26288558D01*
X-26762499Y26309142D01*
X-26762498Y26309144D01*
X-26680371Y26695524D01*
X-26673973Y26715213D01*
X-26600521Y26880163D01*
X-26513296Y27076044D01*
X-26502946Y27093968D01*
X-26267658Y27417757D01*
X-26261136Y27425810D01*
X-26202851Y27490532D01*
X-26200196Y27493366D01*
X-26042759Y27654967D01*
X-26039998Y27657692D01*
X-25874813Y27814461D01*
X-25575064Y28098961D01*
X-25477287Y28191773D01*
X-25475383Y28193533D01*
X-25376229Y28282835D01*
X-25374276Y28284548D01*
X-25284360Y28361353D01*
X-25284357Y28361356D01*
X-24999051Y28605040D01*
X-24999049Y28605041D01*
X-24999047Y28605043D01*
X-24943843Y28652189D01*
X-24722963Y28840802D01*
X-24722955Y28840805D01*
X-24722957Y28840807D01*
X-24678882Y28878437D01*
X-24546157Y28991807D01*
X-24501971Y29029566D01*
X-24501943Y29029590D01*
X-24457669Y29067396D01*
X-24457645Y29067416D01*
X-24413365Y29105215D01*
X-24215662Y29274047D01*
X-24213673Y29275702D01*
X-23764386Y29639507D01*
X-23762383Y29641086D01*
X-22664839Y30483272D01*
X-22663812Y30484049D01*
X-22330458Y30733020D01*
X-22328360Y30734545D01*
X-21988534Y30974745D01*
X-21987463Y30975491D01*
X-21384734Y31389714D01*
X-21382581Y31391153D01*
X-19805666Y32415203D01*
X-19801248Y32417910D01*
X-18174093Y33357364D01*
X-18169550Y33359830D01*
X-16494322Y34213387D01*
X-16491997Y34214534D01*
X-15831720Y34529458D01*
X-15830544Y34530009D01*
X-15668182Y34604851D01*
X-15452679Y34704187D01*
X-15450436Y34705186D01*
X-15067980Y34869488D01*
X-15067020Y34869894D01*
X-14391152Y35149859D01*
X-14388743Y35150820D01*
X-12633349Y35824636D01*
X-12628463Y35826366D01*
X-10841540Y36406952D01*
X-10836578Y36408421D01*
X-10372626Y36532741D01*
X-9020470Y36895061D01*
X-9017958Y36895699D01*
X-8306806Y37066437D01*
X-8305552Y37066730D01*
X-7899612Y37158623D01*
X-7897084Y37159160D01*
X-7488939Y37240374D01*
X-7487775Y37240598D01*
X-7044323Y37322770D01*
X-6768547Y37373872D01*
X-6765994Y37374310D01*
X-4908972Y37668395D01*
X-4903836Y37669072D01*
X-4498301Y37711697D01*
X-3035172Y37865484D01*
X-3030045Y37865887D01*
X-1152388Y37964286D01*
X-1149845Y37964386D01*
X-418728Y37983516D01*
X-417463Y37983542D01*
X-144301Y37987115D01*
X-1303Y37988986D01*
X1287Y37988986D01*
X144285Y37987115D01*
G37*
%TD.AperFunction*%
%TD*%
%TA.AperFunction,Conductor*%
%TO.N,STATOR*%
G36*
X-18878945Y-18027127D02*
G01*
X-18599741Y-18056460D01*
X-18579497Y-18060763D01*
X-18449092Y-18103138D01*
X-18203839Y-18182835D01*
X-18184936Y-18191252D01*
X-17841173Y-18389717D01*
X-17827376Y-18399332D01*
X-17515535Y-18658641D01*
X-17510723Y-18662916D01*
X-17397198Y-18770648D01*
X-16849282Y-19264001D01*
X-16500893Y-19561560D01*
X-16500391Y-19561967D01*
X-16500364Y-19561989D01*
X-15541453Y-20338530D01*
X-15540749Y-20339100D01*
X-15540725Y-20339118D01*
X-14541250Y-21065299D01*
X-14541249Y-21065300D01*
X-14543122Y-21067878D01*
X-14542987Y-21067977D01*
X-14541249Y-21065300D01*
X-14541248Y-21065299D01*
X-13505114Y-21738142D01*
X-13415999Y-21792747D01*
X-12165107Y-22514918D01*
X-12164554Y-22515218D01*
X-12073656Y-22564573D01*
X-12073640Y-22564582D01*
X-12073114Y-22564867D01*
X-11012143Y-23105499D01*
X-10972399Y-23125751D01*
X-9843821Y-23628245D01*
X-9843810Y-23628250D01*
X-9843791Y-23628257D01*
X-9843787Y-23628259D01*
X-8690448Y-24070948D01*
X-8690441Y-24070951D01*
X-8690437Y-24070952D01*
X-8591880Y-24105850D01*
X-8591295Y-24106040D01*
X-7218728Y-24551998D01*
X-7218119Y-24552196D01*
X-7217543Y-24552367D01*
X-7217516Y-24552375D01*
X-7165764Y-24567704D01*
X-7117846Y-24581898D01*
X-7117843Y-24581899D01*
X-5924519Y-24901649D01*
X-4716104Y-25158549D01*
X-4716100Y-25158550D01*
X-3495889Y-25351854D01*
X-3453873Y-25357386D01*
X-3422226Y-25361552D01*
X-3392224Y-25365502D01*
X-3392210Y-25365503D01*
X-3392206Y-25365504D01*
X-3391620Y-25365566D01*
X-3391608Y-25365567D01*
X-2823697Y-25425242D01*
X-2336819Y-25476402D01*
X-1955674Y-25516452D01*
X-1894873Y-25521235D01*
X-1852131Y-25524597D01*
X-1852110Y-25524598D01*
X-1851441Y-25524651D01*
X-1851425Y-25524652D01*
X-1851423Y-25524652D01*
X-1850771Y-25524686D01*
X-1850743Y-25524688D01*
X-617710Y-25589301D01*
X-617760Y-25590247D01*
X-617710Y-25590245D01*
X-617710Y-25589302D01*
X-617691Y-25589302D01*
X617710Y-25589301D01*
X617710Y-25590518D01*
X617773Y-25590512D01*
X617710Y-25589302D01*
X1850742Y-25524688D01*
X1850774Y-25524686D01*
X1851440Y-25524651D01*
X1852109Y-25524598D01*
X1852130Y-25524597D01*
X1879612Y-25522435D01*
X1923605Y-25518975D01*
X1955682Y-25516452D01*
X2990057Y-25407761D01*
X3391616Y-25365566D01*
X3391636Y-25365564D01*
X3392232Y-25365501D01*
X3463861Y-25356071D01*
X3495279Y-25351935D01*
X3495291Y-25351933D01*
X3495893Y-25351854D01*
X4716100Y-25158550D01*
X4716164Y-25158957D01*
X4716186Y-25158950D01*
X4716101Y-25158550D01*
X4716102Y-25158550D01*
X4716108Y-25158549D01*
X5924520Y-24901649D01*
X7117848Y-24581898D01*
X7157674Y-24570101D01*
X7217506Y-24552378D01*
X7217541Y-24552367D01*
X7218122Y-24552195D01*
X8591880Y-24105850D01*
X8690435Y-24070953D01*
X9843811Y-23628249D01*
X9843823Y-23628244D01*
X10972402Y-23125751D01*
X11012146Y-23105499D01*
X12073117Y-22564867D01*
X12073643Y-22564582D01*
X12073659Y-22564573D01*
X12164557Y-22515218D01*
X12165110Y-22514918D01*
X13416002Y-21792747D01*
X13505119Y-21738141D01*
X14541216Y-21065321D01*
X14541265Y-21065321D01*
X14542201Y-21066763D01*
X14542273Y-21066709D01*
X14541265Y-21065321D01*
X14541216Y-21065321D01*
X14541250Y-21065299D01*
X14541249Y-21065300D01*
X15540723Y-20339119D01*
X15540748Y-20339100D01*
X16083816Y-19899316D01*
X16500364Y-19561990D01*
X16500391Y-19561968D01*
X16500893Y-19561561D01*
X16849282Y-19264001D01*
X17397199Y-18770648D01*
X17510710Y-18662930D01*
X17515537Y-18658641D01*
X17827374Y-18399333D01*
X17841164Y-18389723D01*
X18184939Y-18191249D01*
X18203837Y-18182835D01*
X18282013Y-18157431D01*
X18579494Y-18060764D01*
X18599745Y-18056460D01*
X18992604Y-18015186D01*
X19013292Y-18015186D01*
X19406141Y-18056459D01*
X19426388Y-18060762D01*
X19711751Y-18153476D01*
X19802114Y-18182835D01*
X19802126Y-18182839D01*
X19821036Y-18191258D01*
X20163666Y-18389081D01*
X20179415Y-18400363D01*
X20481756Y-18665359D01*
X20488267Y-18671614D01*
X20582347Y-18770648D01*
X21064653Y-19278340D01*
X21297138Y-19523056D01*
X22132845Y-20402746D01*
X22132847Y-20402748D01*
X22161955Y-20433389D01*
X22939449Y-21251796D01*
X22969580Y-21283512D01*
X22969582Y-21283514D01*
X23686796Y-22038496D01*
X23686798Y-22038498D01*
X23717877Y-22071216D01*
X24372947Y-22760750D01*
X24405006Y-22794492D01*
X24405011Y-22794498D01*
X24995944Y-23416545D01*
X24995949Y-23416550D01*
X25028782Y-23451117D01*
X25554047Y-24004051D01*
X25662693Y-24118406D01*
X25662694Y-24118407D01*
X25970694Y-24442599D01*
X25970696Y-24442601D01*
X25980235Y-24452642D01*
X25981141Y-24453609D01*
X26260630Y-24755810D01*
X26268041Y-24764838D01*
X26502944Y-25088149D01*
X26513291Y-25106068D01*
X26536839Y-25158950D01*
X26673968Y-25466901D01*
X26680363Y-25486581D01*
X26702455Y-25590512D01*
X26762656Y-25873727D01*
X26764806Y-25892672D01*
X26771402Y-26291025D01*
X26769580Y-26311642D01*
X26694067Y-26698260D01*
X26686663Y-26721045D01*
X26521496Y-27076036D01*
X26520498Y-27078180D01*
X26509851Y-27095932D01*
X26267223Y-27418456D01*
X26261676Y-27425191D01*
X26202835Y-27490530D01*
X26200206Y-27493337D01*
X26042700Y-27655011D01*
X26039987Y-27657687D01*
X25874807Y-27814451D01*
X25728742Y-27953082D01*
X25647431Y-28030255D01*
X25575090Y-28098915D01*
X25575050Y-28098953D01*
X25477276Y-28191768D01*
X25475372Y-28193528D01*
X25376237Y-28282817D01*
X25374284Y-28284531D01*
X25322108Y-28329096D01*
X25289752Y-28356733D01*
X25284347Y-28361350D01*
X24999032Y-28605041D01*
X24970556Y-28629362D01*
X24943831Y-28652187D01*
X24940939Y-28654656D01*
X24937494Y-28657598D01*
X24727254Y-28837126D01*
X24722951Y-28840800D01*
X24722943Y-28840803D01*
X24722945Y-28840805D01*
X24678869Y-28878436D01*
X24546146Y-28991802D01*
X24501935Y-29029582D01*
X24458410Y-29066749D01*
X24457655Y-29067394D01*
X24457645Y-29067401D01*
X24413349Y-29105213D01*
X24215605Y-29274078D01*
X24213615Y-29275732D01*
X23764415Y-29639463D01*
X23762383Y-29641066D01*
X22664756Y-30483317D01*
X22663864Y-30483991D01*
X22462431Y-30634437D01*
X22330416Y-30733036D01*
X22328318Y-30734560D01*
X22328300Y-30734573D01*
X21988558Y-30974717D01*
X21987513Y-30975446D01*
X21854847Y-31066620D01*
X21384720Y-31389712D01*
X21382567Y-31391151D01*
X19805657Y-32415195D01*
X19801240Y-32417902D01*
X18174090Y-33357354D01*
X18169576Y-33359806D01*
X17001642Y-33954891D01*
X16494264Y-34213409D01*
X16491938Y-34214555D01*
X15831767Y-34529430D01*
X15830591Y-34529982D01*
X15452730Y-34704158D01*
X15450380Y-34705205D01*
X15067975Y-34869485D01*
X15066957Y-34869914D01*
X14391141Y-35149857D01*
X14388732Y-35150818D01*
X12633335Y-35824632D01*
X12628449Y-35826362D01*
X10841522Y-36406947D01*
X10836554Y-36408418D01*
X9020459Y-36895058D01*
X9017947Y-36895696D01*
X8306775Y-37066440D01*
X8305520Y-37066733D01*
X7899609Y-37158618D01*
X7897072Y-37159157D01*
X7581954Y-37221860D01*
X7488986Y-37240358D01*
X7487768Y-37240593D01*
X7044727Y-37322689D01*
X6768539Y-37373867D01*
X6765986Y-37374305D01*
X5555919Y-37565935D01*
X4908968Y-37668387D01*
X4903839Y-37669064D01*
X4903826Y-37669065D01*
X3035178Y-37865475D01*
X3030010Y-37865881D01*
X2328409Y-37902650D01*
X1152379Y-37964281D01*
X1149836Y-37964381D01*
X785924Y-37973903D01*
X738986Y-37975131D01*
X544800Y-37980212D01*
X418719Y-37983511D01*
X417454Y-37983537D01*
X144243Y-37987111D01*
X1295Y-37988981D01*
X-1295Y-37988981D01*
X-144293Y-37987110D01*
X-417455Y-37983537D01*
X-418720Y-37983511D01*
X-544801Y-37980212D01*
X-738987Y-37975131D01*
X-785925Y-37973903D01*
X-1149837Y-37964381D01*
X-1152380Y-37964281D01*
X-3030033Y-37865880D01*
X-3035168Y-37865477D01*
X-4440160Y-37717801D01*
X-4903829Y-37669065D01*
X-4908965Y-37668388D01*
X-6765987Y-37374305D01*
X-6768540Y-37373867D01*
X-7487653Y-37240614D01*
X-7488935Y-37240368D01*
X-7897112Y-37159150D01*
X-7899649Y-37158610D01*
X-8305527Y-37066733D01*
X-8306782Y-37066440D01*
X-9017952Y-36895696D01*
X-9020464Y-36895058D01*
X-10836559Y-36408418D01*
X-10841527Y-36406947D01*
X-12628460Y-35826360D01*
X-12633346Y-35824630D01*
X-14388736Y-35150818D01*
X-14391145Y-35149857D01*
X-15066953Y-34869918D01*
X-15068088Y-34869438D01*
X-15450382Y-34705205D01*
X-15452748Y-34704152D01*
X-15830598Y-34529981D01*
X-15831774Y-34529429D01*
X-16491941Y-34214556D01*
X-16494267Y-34213410D01*
X-18169550Y-33359821D01*
X-18174106Y-33357347D01*
X-19801243Y-32417902D01*
X-19805661Y-32415195D01*
X-21382573Y-31391152D01*
X-21384726Y-31389713D01*
X-21987506Y-30975456D01*
X-21988577Y-30974709D01*
X-22328309Y-30734573D01*
X-22330407Y-30733049D01*
X-22663804Y-30484044D01*
X-22664831Y-30483267D01*
X-23762395Y-29641065D01*
X-23764427Y-29639462D01*
X-24213624Y-29275732D01*
X-24215614Y-29274078D01*
X-24413357Y-29105213D01*
X-24457650Y-29067401D01*
X-24457649Y-29067400D01*
X-24457664Y-29067390D01*
X-24457665Y-29067389D01*
X-24458467Y-29066704D01*
X-24458979Y-29066267D01*
X-24501937Y-29029583D01*
X-24501938Y-29029582D01*
X-24501962Y-29029561D01*
X-24546087Y-28991855D01*
X-24546150Y-28991802D01*
X-24678875Y-28878435D01*
X-24722949Y-28840805D01*
X-24722954Y-28840800D01*
X-24801899Y-28773388D01*
X-24943829Y-28652191D01*
X-24943832Y-28652187D01*
X-24943833Y-28652188D01*
X-24999040Y-28605039D01*
X-24999043Y-28605036D01*
X-25284349Y-28361350D01*
X-25374309Y-28284507D01*
X-25376223Y-28282828D01*
X-25376235Y-28282817D01*
X-25475412Y-28193494D01*
X-25477210Y-28191832D01*
X-25575057Y-28098952D01*
X-25874807Y-27814452D01*
X-25874808Y-27814451D01*
X-26039978Y-27657698D01*
X-26042739Y-27654973D01*
X-26200186Y-27493363D01*
X-26202841Y-27490529D01*
X-26261128Y-27425805D01*
X-26267650Y-27417752D01*
X-26502939Y-27093961D01*
X-26513290Y-27076036D01*
X-26673965Y-26715208D01*
X-26680363Y-26695519D01*
X-26762491Y-26309135D01*
X-26764654Y-26288551D01*
X-26764649Y-25893496D01*
X-26762485Y-25872913D01*
X-26702457Y-25590518D01*
X-26680363Y-25486581D01*
X-26673967Y-25466897D01*
X-26628845Y-25365567D01*
X-26536814Y-25158890D01*
X-26513294Y-25106071D01*
X-26502948Y-25088152D01*
X-26268048Y-24764839D01*
X-26260636Y-24755811D01*
X-25981149Y-24453613D01*
X-25980246Y-24452649D01*
X-25970705Y-24442605D01*
X-25970699Y-24442599D01*
X-25948218Y-24418937D01*
X-25922363Y-24391723D01*
X-25662697Y-24118407D01*
X-25554050Y-24004051D01*
X-25028784Y-23451117D01*
X-24995950Y-23416550D01*
X-24995945Y-23416545D01*
X-24405012Y-22794496D01*
X-24405006Y-22794489D01*
X-24372949Y-22760750D01*
X-23717882Y-22071219D01*
X-23717879Y-22071216D01*
X-23686800Y-22038499D01*
X-23686799Y-22038498D01*
X-23401467Y-21738142D01*
X-22969578Y-21283511D01*
X-22939448Y-21251796D01*
X-22161957Y-20433389D01*
X-22132849Y-20402748D01*
X-21850047Y-20105063D01*
X-21792480Y-20075274D01*
X-21780270Y-20073504D01*
X-21775971Y-20072045D01*
X-21775968Y-20072044D01*
X-21584346Y-20006997D01*
X-21580045Y-20005537D01*
X-21551301Y-19989440D01*
X-21433565Y-19923504D01*
X-21395558Y-19902219D01*
X-21232988Y-19767012D01*
X-21097781Y-19604442D01*
X-20994463Y-19419955D01*
X-20926496Y-19219730D01*
X-20916157Y-19148425D01*
X-20889959Y-19094450D01*
X-20582348Y-18770648D01*
X-20488268Y-18671614D01*
X-20481757Y-18665359D01*
X-20179416Y-18400363D01*
X-20163667Y-18389081D01*
X-19821037Y-18191258D01*
X-19802127Y-18182839D01*
X-19426386Y-18060760D01*
X-19406144Y-18056459D01*
X-19176877Y-18032372D01*
X-19013292Y-18015186D01*
X-18992604Y-18015186D01*
X-18878945Y-18027127D01*
G37*
%TD.AperFunction*%
%TD*%
%TA.AperFunction,Conductor*%
%TO.N,ROTOR_GND*%
G36*
X907379Y39975245D02*
G01*
X2090097Y39944282D01*
X2096684Y39943937D01*
X4177726Y39780162D01*
X4184291Y39779472D01*
X6253968Y39506936D01*
X6260478Y39505904D01*
X6934672Y39380960D01*
X8313027Y39125518D01*
X8319450Y39124152D01*
X9291039Y38890885D01*
X10349334Y38636800D01*
X10355701Y38635094D01*
X12357201Y38042291D01*
X12363482Y38040251D01*
X14331247Y37343359D01*
X14337401Y37340996D01*
X14839665Y37132957D01*
X16266073Y36542135D01*
X16272077Y36539462D01*
X16292322Y36529806D01*
X18156167Y35640825D01*
X18162048Y35637829D01*
X19996606Y34641704D01*
X20002316Y34638407D01*
X21782235Y33547689D01*
X21787768Y33544096D01*
X23508088Y32361762D01*
X23513427Y32357883D01*
X25169560Y31087025D01*
X25174683Y31082876D01*
X25175167Y31082463D01*
X26762037Y29727184D01*
X26766913Y29722793D01*
X27289726Y29226688D01*
X28281197Y28285865D01*
X28285866Y28281196D01*
X28683120Y27862557D01*
X29722792Y26766916D01*
X29727183Y26762040D01*
X30132994Y26286883D01*
X31082875Y25174686D01*
X31087024Y25169563D01*
X32357890Y23513422D01*
X32361769Y23508083D01*
X33544087Y21787781D01*
X33547680Y21782248D01*
X34638406Y20002316D01*
X34641703Y19996606D01*
X35637832Y18162056D01*
X35640829Y18156175D01*
X36539467Y16272073D01*
X36542149Y16266047D01*
X36882959Y15443238D01*
X37335191Y14351426D01*
X37340997Y14337408D01*
X37343358Y14331260D01*
X37684960Y13366695D01*
X38040246Y12363494D01*
X38042286Y12357213D01*
X38112690Y12119509D01*
X38635103Y10355683D01*
X38636799Y10349353D01*
X39124151Y8319474D01*
X39124152Y8319471D01*
X39125521Y8313032D01*
X39311456Y7309734D01*
X39505908Y6260480D01*
X39506940Y6253970D01*
X39779475Y4184293D01*
X39780165Y4177729D01*
X39943947Y2096685D01*
X39944292Y2090096D01*
X39972799Y1000991D01*
X39998728Y10417D01*
X39998914Y3298D01*
X39998914Y-3285D01*
X39976961Y-841753D01*
X39944277Y-2090106D01*
X39943932Y-2096693D01*
X39780165Y-4177734D01*
X39779475Y-4184299D01*
X39731131Y-4551426D01*
X39507587Y-6249014D01*
X39506936Y-6253954D01*
X39505906Y-6260455D01*
X39127642Y-8301588D01*
X39125521Y-8313032D01*
X39124148Y-8319488D01*
X38636794Y-10349347D01*
X38635088Y-10355713D01*
X38042286Y-12357220D01*
X38040246Y-12363501D01*
X37343360Y-14331262D01*
X37340997Y-14337416D01*
X37099713Y-14919937D01*
X36568357Y-16202764D01*
X36542135Y-16266070D01*
X36539457Y-16272085D01*
X35945829Y-17516695D01*
X35640824Y-18156174D01*
X35637828Y-18162055D01*
X34641703Y-19996613D01*
X34638406Y-20002323D01*
X33547680Y-21782253D01*
X33544087Y-21787786D01*
X32361769Y-23508087D01*
X32357890Y-23513426D01*
X31087024Y-25169567D01*
X31082875Y-25174690D01*
X30481652Y-25878651D01*
X29727183Y-26762045D01*
X29722792Y-26766921D01*
X29136452Y-27384827D01*
X28285866Y-28281205D01*
X28281197Y-28285874D01*
X27686016Y-28850650D01*
X26766913Y-29722800D01*
X26762037Y-29727191D01*
X26160935Y-30240566D01*
X25174683Y-31082882D01*
X25169560Y-31087031D01*
X23513419Y-32357890D01*
X23508080Y-32361769D01*
X21787760Y-33544106D01*
X21782227Y-33547699D01*
X20002316Y-34638414D01*
X19996606Y-34641711D01*
X18162048Y-35637836D01*
X18156167Y-35640832D01*
X17704667Y-35856181D01*
X16272077Y-36539473D01*
X16266073Y-36542146D01*
X15301727Y-36941577D01*
X14337391Y-37341003D01*
X14331238Y-37343365D01*
X13520804Y-37630385D01*
X12363514Y-38040246D01*
X12363494Y-38040253D01*
X12357216Y-38042293D01*
X12098313Y-38118975D01*
X10355701Y-38635104D01*
X10349334Y-38636810D01*
X9290011Y-38891138D01*
X8319447Y-39124156D01*
X8313027Y-39125521D01*
X6260466Y-39505917D01*
X6253974Y-39506946D01*
X4184285Y-39779476D01*
X4177740Y-39780164D01*
X3492566Y-39834089D01*
X2096684Y-39943947D01*
X2090095Y-39944292D01*
X843160Y-39976931D01*
X3286Y-39998914D01*
X-3285Y-39998914D01*
X-900467Y-39975424D01*
X-2090103Y-39944277D01*
X-2096690Y-39943932D01*
X-4177731Y-39780165D01*
X-4184296Y-39779475D01*
X-4875514Y-39688453D01*
X-6253965Y-39506934D01*
X-6260456Y-39505906D01*
X-8313035Y-39125521D01*
X-8319489Y-39124148D01*
X-10349348Y-38636794D01*
X-10355714Y-38635088D01*
X-12357221Y-38042286D01*
X-12363502Y-38040246D01*
X-14331259Y-37343360D01*
X-14337413Y-37340997D01*
X-16266053Y-36542141D01*
X-16272079Y-36539459D01*
X-18156190Y-35640817D01*
X-18162071Y-35637820D01*
X-19996612Y-34641703D01*
X-20002322Y-34638406D01*
X-21782254Y-33547680D01*
X-21787787Y-33544087D01*
X-23508088Y-32361769D01*
X-23513427Y-32357890D01*
X-25169568Y-31087024D01*
X-25174691Y-31082875D01*
X-26160936Y-30240565D01*
X-26762046Y-29727183D01*
X-26766925Y-29722789D01*
X-27693089Y-28843937D01*
X-28281202Y-28285866D01*
X-28285871Y-28281197D01*
X-29058695Y-27466769D01*
X-29722799Y-26766913D01*
X-29727194Y-26762032D01*
X-30131582Y-26288541D01*
X-27520154Y-26288541D01*
X-27516017Y-26367505D01*
X-27513854Y-26388089D01*
X-27501482Y-26466211D01*
X-27501139Y-26467823D01*
X-27421375Y-26843085D01*
X-27419354Y-26852595D01*
X-27398879Y-26929003D01*
X-27392481Y-26948692D01*
X-27364132Y-27022536D01*
X-27203457Y-27383364D01*
X-27202720Y-27384810D01*
X-27202712Y-27384827D01*
X-27168281Y-27452390D01*
X-27168272Y-27452406D01*
X-27167541Y-27453841D01*
X-27157190Y-27471766D01*
X-27114114Y-27538083D01*
X-26878825Y-27861874D01*
X-26854755Y-27893239D01*
X-26848233Y-27901292D01*
X-26822534Y-27931377D01*
X-26764247Y-27996101D01*
X-26754188Y-28007052D01*
X-26751533Y-28009886D01*
X-26751398Y-28010028D01*
X-26751335Y-28010094D01*
X-26741672Y-28020209D01*
X-26741330Y-28020567D01*
X-26741121Y-28020782D01*
X-26741053Y-28020852D01*
X-26584279Y-28181771D01*
X-26583883Y-28182177D01*
X-26573441Y-28192686D01*
X-26570680Y-28195411D01*
X-26560052Y-28205698D01*
X-26394906Y-28362428D01*
X-26095155Y-28646929D01*
X-25997340Y-28739778D01*
X-25990035Y-28746621D01*
X-25988237Y-28748283D01*
X-25981014Y-28754873D01*
X-25881837Y-28844196D01*
X-25881661Y-28844352D01*
X-25881580Y-28844425D01*
X-25877275Y-28848252D01*
X-25874528Y-28850694D01*
X-25873916Y-28851231D01*
X-25872625Y-28852364D01*
X-25872602Y-28852384D01*
X-25865074Y-28858902D01*
X-25865004Y-28858962D01*
X-25775174Y-28935694D01*
X-25775147Y-28935717D01*
X-25775021Y-28935825D01*
X-25489715Y-29179511D01*
X-25489690Y-29179532D01*
X-25434480Y-29226684D01*
X-25434436Y-29226722D01*
X-25213571Y-29415322D01*
X-25213530Y-29415357D01*
X-25213521Y-29415364D01*
X-25169556Y-29452902D01*
X-25169538Y-29452918D01*
X-25036970Y-29566150D01*
X-25036950Y-29566167D01*
X-24992864Y-29603839D01*
X-24992762Y-29603926D01*
X-24992581Y-29604081D01*
X-24948284Y-29641909D01*
X-24948492Y-29642152D01*
X-24948404Y-29642243D01*
X-24948187Y-29641989D01*
X-24903976Y-29679733D01*
X-24706233Y-29848598D01*
X-24698526Y-29855091D01*
X-24698316Y-29855266D01*
X-24697524Y-29855924D01*
X-24696536Y-29856745D01*
X-24692599Y-29859975D01*
X-24689178Y-29862782D01*
X-24688949Y-29862968D01*
X-24239861Y-30226610D01*
X-24232351Y-30232613D01*
X-24230319Y-30234216D01*
X-24222318Y-30240440D01*
X-23124754Y-31082642D01*
X-23120661Y-31085761D01*
X-23119634Y-31086538D01*
X-23115891Y-31089352D01*
X-22782494Y-31338357D01*
X-22774424Y-31344301D01*
X-22774283Y-31344404D01*
X-22774259Y-31344421D01*
X-22772522Y-31345683D01*
X-22772450Y-31345735D01*
X-22772326Y-31345825D01*
X-22764387Y-31351514D01*
X-22424655Y-31591650D01*
X-22420779Y-31594372D01*
X-22420688Y-31594436D01*
X-22419777Y-31595071D01*
X-22419708Y-31595119D01*
X-22415410Y-31598094D01*
X-21812630Y-32012351D01*
X-21807636Y-32015736D01*
X-21804693Y-32017731D01*
X-21804651Y-32017759D01*
X-21804542Y-32017833D01*
X-21802432Y-32019243D01*
X-21802389Y-32019272D01*
X-21794247Y-32024636D01*
X-21794174Y-32024684D01*
X-21794043Y-32024770D01*
X-20217131Y-33048813D01*
X-20204857Y-33056558D01*
X-20200797Y-33059119D01*
X-20200371Y-33059388D01*
X-20195953Y-33062095D01*
X-20178998Y-33072181D01*
X-20178645Y-33072385D01*
X-20178614Y-33072403D01*
X-18552210Y-34011425D01*
X-18552156Y-34011456D01*
X-18551861Y-34011626D01*
X-18551527Y-34011813D01*
X-18551462Y-34011850D01*
X-18538303Y-34019219D01*
X-18534633Y-34021275D01*
X-18530077Y-34023749D01*
X-18529684Y-34023956D01*
X-18529620Y-34023990D01*
X-18512984Y-34032743D01*
X-18512537Y-34032978D01*
X-18512164Y-34033168D01*
X-18512110Y-34033196D01*
X-16837574Y-34886404D01*
X-16837254Y-34886567D01*
X-16828169Y-34891119D01*
X-16828101Y-34891153D01*
X-16828080Y-34891163D01*
X-16825965Y-34892205D01*
X-16825843Y-34892265D01*
X-16817183Y-34896463D01*
X-16817062Y-34896521D01*
X-16816962Y-34896569D01*
X-16157016Y-35211336D01*
X-16156792Y-35211442D01*
X-16152826Y-35213320D01*
X-16152791Y-35213336D01*
X-16151615Y-35213888D01*
X-16146865Y-35216097D01*
X-15769015Y-35390268D01*
X-15768793Y-35390369D01*
X-15768709Y-35390407D01*
X-15761594Y-35393629D01*
X-15759937Y-35394380D01*
X-15759737Y-35394469D01*
X-15759677Y-35394496D01*
X-15759005Y-35394795D01*
X-15757571Y-35395433D01*
X-15748590Y-35399361D01*
X-15366296Y-35563594D01*
X-15363838Y-35564641D01*
X-15362441Y-35565237D01*
X-15362361Y-35565271D01*
X-15361370Y-35565690D01*
X-15361226Y-35565751D01*
X-15356079Y-35567905D01*
X-14680271Y-35847844D01*
X-14680188Y-35847878D01*
X-14680139Y-35847898D01*
X-14675291Y-35849869D01*
X-14671078Y-35851582D01*
X-14668669Y-35852543D01*
X-14659476Y-35856141D01*
X-14026322Y-36099179D01*
X-12904387Y-36529838D01*
X-12904316Y-36529865D01*
X-12904086Y-36529953D01*
X-12903847Y-36530041D01*
X-12903773Y-36530069D01*
X-12885799Y-36536699D01*
X-12885793Y-36536701D01*
X-12885508Y-36536806D01*
X-12885279Y-36536887D01*
X-12885235Y-36536903D01*
X-12880951Y-36538420D01*
X-12880897Y-36538439D01*
X-12880622Y-36538536D01*
X-12861914Y-36544886D01*
X-12861598Y-36544989D01*
X-12861555Y-36545003D01*
X-11075379Y-37125344D01*
X-11075339Y-37125357D01*
X-11074981Y-37125473D01*
X-11074568Y-37125601D01*
X-11074534Y-37125612D01*
X-11056455Y-37131225D01*
X-11056398Y-37131242D01*
X-11056022Y-37131359D01*
X-11055603Y-37131483D01*
X-11055590Y-37131487D01*
X-11051495Y-37132700D01*
X-11051415Y-37132723D01*
X-11051054Y-37132830D01*
X-11050679Y-37132936D01*
X-11050640Y-37132947D01*
X-11040497Y-37135806D01*
X-11032104Y-37138173D01*
X-11031713Y-37138278D01*
X-11031694Y-37138283D01*
X-10513539Y-37277127D01*
X-9216009Y-37624813D01*
X-9206442Y-37627310D01*
X-9203930Y-37627948D01*
X-9203885Y-37627959D01*
X-9203858Y-37627966D01*
X-9194473Y-37630284D01*
X-9194327Y-37630320D01*
X-8483157Y-37801064D01*
X-8478547Y-37802155D01*
X-8477292Y-37802448D01*
X-8477248Y-37802458D01*
X-8477210Y-37802467D01*
X-8472326Y-37803590D01*
X-8066448Y-37895467D01*
X-8066120Y-37895539D01*
X-8057217Y-37897494D01*
X-8057184Y-37897501D01*
X-8056934Y-37897556D01*
X-8054397Y-37898096D01*
X-8051829Y-37898625D01*
X-8044775Y-37900078D01*
X-8044646Y-37900104D01*
X-8044549Y-37900124D01*
X-8044319Y-37900170D01*
X-7636563Y-37981304D01*
X-7636372Y-37981342D01*
X-7631309Y-37982332D01*
X-7631164Y-37982360D01*
X-7631007Y-37982390D01*
X-7630027Y-37982578D01*
X-7625305Y-37983468D01*
X-6906192Y-38116721D01*
X-6906029Y-38116750D01*
X-6905964Y-38116762D01*
X-6901673Y-38117527D01*
X-6896289Y-38118488D01*
X-6893736Y-38118926D01*
X-6893497Y-38118965D01*
X-6893440Y-38118975D01*
X-6884309Y-38120481D01*
X-6884157Y-38120506D01*
X-6884005Y-38120530D01*
X-5027464Y-38414537D01*
X-5027450Y-38414539D01*
X-5027135Y-38414589D01*
X-5007697Y-38417409D01*
X-5007337Y-38417456D01*
X-5007297Y-38417462D01*
X-5002926Y-38418038D01*
X-5002906Y-38418041D01*
X-5002561Y-38418086D01*
X-5002319Y-38418115D01*
X-5002253Y-38418123D01*
X-4992327Y-38419298D01*
X-4982803Y-38420426D01*
X-3114142Y-38616838D01*
X-3098488Y-38618275D01*
X-3094672Y-38618625D01*
X-3094661Y-38618626D01*
X-3094279Y-38618661D01*
X-3093918Y-38618689D01*
X-3093875Y-38618693D01*
X-3089481Y-38619038D01*
X-3089420Y-38619042D01*
X-3089144Y-38619064D01*
X-3069572Y-38620345D01*
X-1191919Y-38718746D01*
X-1182066Y-38719198D01*
X-1182060Y-38719198D01*
X-1182023Y-38719200D01*
X-1179558Y-38719297D01*
X-1179493Y-38719299D01*
X-1179144Y-38719310D01*
X-1169598Y-38719623D01*
X-1169538Y-38719625D01*
X-1169495Y-38719626D01*
X-769742Y-38730085D01*
X-438481Y-38738753D01*
X-434245Y-38738851D01*
X-434121Y-38738854D01*
X-433146Y-38738874D01*
X-432980Y-38738877D01*
X-427337Y-38738972D01*
X-11177Y-38744416D01*
X-10910Y-38744418D01*
X-10887Y-38744418D01*
X-1515Y-38744480D01*
X-1405Y-38744480D01*
X-1295Y-38744481D01*
X1295Y-38744481D01*
X1405Y-38744480D01*
X1515Y-38744480D01*
X10887Y-38744418D01*
X10910Y-38744418D01*
X11177Y-38744416D01*
X427336Y-38738972D01*
X432979Y-38738877D01*
X433145Y-38738874D01*
X434120Y-38738854D01*
X434244Y-38738851D01*
X438480Y-38738753D01*
X769741Y-38730085D01*
X1169494Y-38719626D01*
X1169537Y-38719625D01*
X1169597Y-38719623D01*
X1179143Y-38719310D01*
X1179492Y-38719299D01*
X1179557Y-38719297D01*
X1182022Y-38719200D01*
X1182059Y-38719198D01*
X1182065Y-38719198D01*
X1191918Y-38718746D01*
X3069549Y-38620346D01*
X3089180Y-38619060D01*
X3094348Y-38618654D01*
X3094730Y-38618619D01*
X3094741Y-38618618D01*
X3097934Y-38618325D01*
X3114152Y-38616836D01*
X3114487Y-38616801D01*
X3114526Y-38616797D01*
X4982459Y-38420462D01*
X4982480Y-38420460D01*
X4982800Y-38420426D01*
X4995569Y-38418913D01*
X5002192Y-38418129D01*
X5002205Y-38418127D01*
X5002588Y-38418082D01*
X5005592Y-38417686D01*
X5007405Y-38417447D01*
X5007426Y-38417444D01*
X5007730Y-38417404D01*
X5008075Y-38417354D01*
X5008089Y-38417352D01*
X5012395Y-38416727D01*
X5027138Y-38414588D01*
X5027481Y-38414534D01*
X5027512Y-38414529D01*
X6884004Y-38120530D01*
X6884156Y-38120506D01*
X6884308Y-38120481D01*
X6893439Y-38118975D01*
X6893496Y-38118965D01*
X6893735Y-38118926D01*
X6896288Y-38118488D01*
X6901672Y-38117527D01*
X6905963Y-38116762D01*
X6906028Y-38116750D01*
X6906191Y-38116721D01*
X7625420Y-37983447D01*
X7625542Y-37983424D01*
X7626848Y-37983177D01*
X7630894Y-37982412D01*
X7632112Y-37982177D01*
X7632139Y-37982172D01*
X7636262Y-37981364D01*
X7636293Y-37981358D01*
X7636425Y-37981332D01*
X7747393Y-37959252D01*
X8044332Y-37900167D01*
X8044432Y-37900147D01*
X8044511Y-37900131D01*
X8054078Y-37898163D01*
X8056615Y-37897624D01*
X8057208Y-37897494D01*
X8057807Y-37897362D01*
X8066409Y-37895475D01*
X8066679Y-37895414D01*
X8472320Y-37803590D01*
X8477285Y-37802448D01*
X8478540Y-37802155D01*
X8483150Y-37801064D01*
X8483242Y-37801042D01*
X8582313Y-37777256D01*
X9194322Y-37630320D01*
X9194468Y-37630284D01*
X9203853Y-37627966D01*
X9203880Y-37627959D01*
X9203925Y-37627948D01*
X9206437Y-37627310D01*
X9216004Y-37624813D01*
X10513534Y-37277127D01*
X11031689Y-37138283D01*
X11031708Y-37138278D01*
X11032099Y-37138173D01*
X11040492Y-37135806D01*
X11050635Y-37132947D01*
X11050674Y-37132936D01*
X11051049Y-37132830D01*
X11051410Y-37132723D01*
X11051490Y-37132700D01*
X11055585Y-37131487D01*
X11055598Y-37131483D01*
X11056017Y-37131359D01*
X11056393Y-37131242D01*
X11056450Y-37131225D01*
X11074529Y-37125612D01*
X11074563Y-37125601D01*
X11074976Y-37125473D01*
X11075334Y-37125357D01*
X11075374Y-37125344D01*
X12861544Y-36545005D01*
X12861587Y-36544991D01*
X12861903Y-36544888D01*
X12880611Y-36538538D01*
X12880886Y-36538441D01*
X12880940Y-36538422D01*
X12885224Y-36536905D01*
X12885268Y-36536889D01*
X12885497Y-36536808D01*
X12885740Y-36536718D01*
X12885788Y-36536701D01*
X12903762Y-36530071D01*
X12903836Y-36530043D01*
X12904075Y-36529955D01*
X12904305Y-36529867D01*
X12904376Y-36529840D01*
X14026281Y-36099193D01*
X14659472Y-35856141D01*
X14668665Y-35852543D01*
X14671074Y-35851582D01*
X14671119Y-35851564D01*
X14671166Y-35851545D01*
X14680119Y-35847905D01*
X14680472Y-35847760D01*
X15356084Y-35567901D01*
X15356230Y-35567840D01*
X15360348Y-35566119D01*
X15360431Y-35566084D01*
X15361366Y-35565690D01*
X15362431Y-35565237D01*
X15366182Y-35563641D01*
X15748587Y-35399361D01*
X15757243Y-35395574D01*
X15757609Y-35395414D01*
X15757654Y-35395394D01*
X15757844Y-35395311D01*
X15758045Y-35395221D01*
X15758123Y-35395187D01*
X15759673Y-35394496D01*
X15760194Y-35394264D01*
X15768704Y-35390407D01*
X15768713Y-35390403D01*
X15768771Y-35390376D01*
X15768997Y-35390274D01*
X16146858Y-35216098D01*
X16151608Y-35213889D01*
X16152784Y-35213337D01*
X16152786Y-35213336D01*
X16152819Y-35213321D01*
X16156785Y-35211443D01*
X16156787Y-35211442D01*
X16157009Y-35211337D01*
X16157011Y-35211336D01*
X16816959Y-34896568D01*
X16817059Y-34896520D01*
X16817180Y-34896462D01*
X16825840Y-34892264D01*
X16828166Y-34891118D01*
X16837250Y-34886566D01*
X18512562Y-34032963D01*
X18530194Y-34023685D01*
X18530437Y-34023553D01*
X18530467Y-34023537D01*
X18534407Y-34021397D01*
X18534458Y-34021369D01*
X18534708Y-34021233D01*
X18551458Y-34011850D01*
X18551537Y-34011806D01*
X18551583Y-34011780D01*
X18551845Y-34011633D01*
X19580232Y-33417883D01*
X20178637Y-33072388D01*
X20178668Y-33072370D01*
X20178995Y-33072181D01*
X20187432Y-33067161D01*
X20195700Y-33062243D01*
X20195761Y-33062206D01*
X20196015Y-33062055D01*
X20196348Y-33061851D01*
X20196355Y-33061847D01*
X20200065Y-33059573D01*
X20200074Y-33059567D01*
X20200432Y-33059348D01*
X20217128Y-33048813D01*
X21794038Y-32024769D01*
X21802383Y-32019271D01*
X21804536Y-32017832D01*
X21804645Y-32017758D01*
X21804687Y-32017730D01*
X21812541Y-32012406D01*
X21812624Y-32012350D01*
X21812702Y-32012296D01*
X21812707Y-32012293D01*
X22415417Y-31598084D01*
X22415576Y-31597974D01*
X22419768Y-31595071D01*
X22420813Y-31594342D01*
X22420843Y-31594321D01*
X22424527Y-31591734D01*
X22424637Y-31591657D01*
X22764379Y-31351513D01*
X22772303Y-31345835D01*
X22774419Y-31344298D01*
X22774706Y-31344087D01*
X22775281Y-31343663D01*
X22782506Y-31338342D01*
X23115954Y-31089297D01*
X23117186Y-31088372D01*
X23119293Y-31086789D01*
X23119324Y-31086765D01*
X23120216Y-31086091D01*
X23124679Y-31082692D01*
X24222306Y-30240441D01*
X24230307Y-30234217D01*
X24232339Y-30232614D01*
X24232623Y-30232387D01*
X24239711Y-30226722D01*
X24240024Y-30226470D01*
X24478852Y-30033083D01*
X24689048Y-29862881D01*
X24696527Y-29856745D01*
X24698517Y-29855091D01*
X24706222Y-29848600D01*
X24903966Y-29679735D01*
X24948150Y-29642018D01*
X24948241Y-29641940D01*
X24992531Y-29604121D01*
X24992745Y-29603939D01*
X25036809Y-29566285D01*
X25036834Y-29566274D01*
X25036829Y-29566268D01*
X25169552Y-29452902D01*
X25169555Y-29452905D01*
X25169573Y-29452884D01*
X25213502Y-29415378D01*
X25213631Y-29415529D01*
X25213683Y-29415483D01*
X25213555Y-29415333D01*
X25428098Y-29232131D01*
X25428162Y-29232076D01*
X25864952Y-28859009D01*
X25864970Y-28858994D01*
X25872504Y-28852472D01*
X25872804Y-28852210D01*
X25874339Y-28850862D01*
X25874581Y-28850650D01*
X25881851Y-28844186D01*
X25980986Y-28754897D01*
X25988200Y-28748314D01*
X25990104Y-28746554D01*
X25997419Y-28739702D01*
X26095143Y-28646934D01*
X26095817Y-28647645D01*
X26095858Y-28647586D01*
X26095193Y-28646887D01*
X26394883Y-28362448D01*
X26560063Y-28205684D01*
X26560257Y-28205496D01*
X26560318Y-28205438D01*
X26570333Y-28195748D01*
X26570448Y-28195636D01*
X26570526Y-28195561D01*
X26573239Y-28192885D01*
X26583849Y-28182209D01*
X26741355Y-28020535D01*
X26741613Y-28020265D01*
X26741667Y-28020209D01*
X26747365Y-28014244D01*
X26751622Y-28009787D01*
X26754251Y-28006980D01*
X26754324Y-28006901D01*
X26754386Y-28006834D01*
X26764066Y-27996293D01*
X26764111Y-27996244D01*
X26764240Y-27996103D01*
X26823081Y-27930764D01*
X26844847Y-27905495D01*
X26847802Y-27901908D01*
X26849933Y-27899320D01*
X26849943Y-27899308D01*
X26850394Y-27898760D01*
X26870962Y-27872636D01*
X26879562Y-27861205D01*
X27112614Y-27551409D01*
X27113590Y-27550112D01*
X27122611Y-27536714D01*
X27156821Y-27485909D01*
X27156831Y-27485893D01*
X27157755Y-27484521D01*
X27168402Y-27466769D01*
X27205485Y-27396885D01*
X27211096Y-27384827D01*
X27370840Y-27041491D01*
X27370840Y-27041490D01*
X27371650Y-27039750D01*
X27377833Y-27024036D01*
X27404480Y-26956305D01*
X27405180Y-26954527D01*
X27412584Y-26931742D01*
X27435556Y-26843085D01*
X27509166Y-26466211D01*
X27510752Y-26458092D01*
X27510754Y-26458078D01*
X27511069Y-26456467D01*
X27522147Y-26378149D01*
X27522944Y-26369137D01*
X27523823Y-26359182D01*
X27523969Y-26357532D01*
X27526798Y-26278517D01*
X27520202Y-25880164D01*
X27515487Y-25807480D01*
X27514138Y-25795586D01*
X27513510Y-25790056D01*
X27513508Y-25790040D01*
X27513337Y-25788535D01*
X27501646Y-25716645D01*
X27501126Y-25714196D01*
X27419697Y-25331119D01*
X27419353Y-25329499D01*
X27398880Y-25253099D01*
X27392485Y-25233419D01*
X27369453Y-25173425D01*
X27364726Y-25161112D01*
X27364724Y-25161107D01*
X27364135Y-25159573D01*
X27203458Y-24798740D01*
X27167550Y-24728278D01*
X27157203Y-24710359D01*
X27114153Y-24644073D01*
X26879250Y-24320762D01*
X26851990Y-24285480D01*
X26844579Y-24276452D01*
X26815285Y-24242840D01*
X26535796Y-23940639D01*
X26532466Y-23937062D01*
X26531560Y-23936095D01*
X26527956Y-23932275D01*
X26101768Y-23483684D01*
X25576530Y-22930778D01*
X25543731Y-22896247D01*
X25543691Y-22896205D01*
X24952753Y-22274153D01*
X24953032Y-22273887D01*
X24952993Y-22273861D01*
X24952721Y-22274119D01*
X24920657Y-22240371D01*
X24920653Y-22240367D01*
X24873090Y-22190301D01*
X24265609Y-21550860D01*
X23517327Y-20763172D01*
X23517316Y-20763161D01*
X23487186Y-20731445D01*
X22709689Y-19913036D01*
X21844875Y-19002706D01*
X21844870Y-19002700D01*
X21612385Y-18757984D01*
X21612384Y-18757983D01*
X21552418Y-18694860D01*
X21394152Y-18528264D01*
X21036522Y-18151809D01*
X21036515Y-18151802D01*
X21036006Y-18151266D01*
X21011668Y-18126792D01*
X21005157Y-18120537D01*
X20999026Y-18114910D01*
X20990147Y-18106762D01*
X20979732Y-18097204D01*
X20677391Y-17832208D01*
X20619385Y-17786191D01*
X20611183Y-17780315D01*
X20604884Y-17775803D01*
X20604883Y-17775803D01*
X20603636Y-17774909D01*
X20591825Y-17767295D01*
X20542740Y-17735651D01*
X20542729Y-17735644D01*
X20541424Y-17734803D01*
X20198794Y-17536980D01*
X20197315Y-17536226D01*
X20197305Y-17536221D01*
X20129803Y-17501828D01*
X20129799Y-17501826D01*
X20128317Y-17501071D01*
X20115155Y-17495211D01*
X20110908Y-17493320D01*
X20110899Y-17493316D01*
X20109407Y-17492652D01*
X20035575Y-17464311D01*
X20034005Y-17463801D01*
X20033994Y-17463797D01*
X19766789Y-17376983D01*
X19659837Y-17342234D01*
X19658271Y-17341814D01*
X19658256Y-17341810D01*
X19615405Y-17330330D01*
X19583443Y-17321767D01*
X19563196Y-17317464D01*
X19561589Y-17317210D01*
X19561570Y-17317206D01*
X19486731Y-17305355D01*
X19486714Y-17305353D01*
X19485080Y-17305094D01*
X19483428Y-17304920D01*
X19483417Y-17304919D01*
X19093881Y-17263994D01*
X19093868Y-17263993D01*
X19092231Y-17263821D01*
X19090576Y-17263734D01*
X19090572Y-17263734D01*
X19069879Y-17262650D01*
X19013292Y-17259686D01*
X18992604Y-17259686D01*
X18936017Y-17262650D01*
X18915324Y-17263734D01*
X18915320Y-17263734D01*
X18913665Y-17263821D01*
X18912028Y-17263993D01*
X18912015Y-17263994D01*
X18522469Y-17304920D01*
X18522458Y-17304921D01*
X18520806Y-17305095D01*
X18519172Y-17305354D01*
X18519155Y-17305356D01*
X18444319Y-17317207D01*
X18444310Y-17317209D01*
X18442685Y-17317466D01*
X18441086Y-17317806D01*
X18441069Y-17317809D01*
X18431187Y-17319910D01*
X18422434Y-17321770D01*
X18420878Y-17322187D01*
X18420861Y-17322191D01*
X18347577Y-17341828D01*
X18346010Y-17342248D01*
X18344459Y-17342752D01*
X17971929Y-17463807D01*
X17970353Y-17464319D01*
X17968832Y-17464903D01*
X17968818Y-17464908D01*
X17898076Y-17492064D01*
X17898074Y-17492065D01*
X17896545Y-17492652D01*
X17895057Y-17493315D01*
X17895051Y-17493317D01*
X17890968Y-17495135D01*
X17877647Y-17501066D01*
X17876199Y-17501804D01*
X17876186Y-17501810D01*
X17874163Y-17502841D01*
X17807196Y-17536963D01*
X17805789Y-17537775D01*
X17805773Y-17537784D01*
X17464570Y-17734773D01*
X17464548Y-17734786D01*
X17463421Y-17735437D01*
X17425990Y-17759224D01*
X17413290Y-17767295D01*
X17409211Y-17769887D01*
X17395421Y-17779497D01*
X17344326Y-17818433D01*
X17343292Y-17819293D01*
X17343288Y-17819296D01*
X17032920Y-18077382D01*
X17032881Y-18077415D01*
X17032489Y-18077741D01*
X17023181Y-18085742D01*
X17014094Y-18093553D01*
X17014050Y-18093591D01*
X17013719Y-18093876D01*
X17008892Y-18098165D01*
X17008584Y-18098447D01*
X17008565Y-18098465D01*
X17005180Y-18101574D01*
X16990658Y-18114910D01*
X16885513Y-18214689D01*
X16883145Y-18216879D01*
X16412552Y-18640608D01*
X16352295Y-18694864D01*
X16349816Y-18697038D01*
X16019005Y-18979584D01*
X16016469Y-18981693D01*
X15083222Y-19737450D01*
X15077988Y-19741466D01*
X14115869Y-20440507D01*
X14110429Y-20444246D01*
X13900621Y-20580491D01*
X13103349Y-21098224D01*
X13103344Y-21098227D01*
X13100568Y-21099978D01*
X13031097Y-21142546D01*
X13028276Y-21144224D01*
X12660134Y-21356762D01*
X11797362Y-21854861D01*
X11794502Y-21856463D01*
X11722717Y-21895441D01*
X11719833Y-21896957D01*
X10786982Y-22372304D01*
X10649970Y-22442120D01*
X10644019Y-22444959D01*
X9603626Y-22908188D01*
X9557615Y-22928674D01*
X9551519Y-22931199D01*
X9444428Y-22972304D01*
X8430509Y-23361480D01*
X8427414Y-23362622D01*
X8350607Y-23389818D01*
X8347486Y-23390878D01*
X6995584Y-23830122D01*
X6992435Y-23831099D01*
X6948119Y-23844226D01*
X6914354Y-23854228D01*
X6911213Y-23855114D01*
X5751255Y-24165924D01*
X5744856Y-24167460D01*
X5387024Y-24243533D01*
X4581585Y-24414763D01*
X4575099Y-24415965D01*
X3961600Y-24513156D01*
X3389070Y-24603855D01*
X3385835Y-24604325D01*
X3305032Y-24614962D01*
X3301791Y-24615346D01*
X2410827Y-24708967D01*
X1888236Y-24763880D01*
X1884950Y-24764182D01*
X1868172Y-24765502D01*
X1803655Y-24770576D01*
X1800407Y-24770789D01*
X697049Y-24828608D01*
X601245Y-24833628D01*
X594651Y-24833801D01*
X19Y-24833802D01*
X-594614Y-24833802D01*
X-601208Y-24833629D01*
X-703876Y-24828249D01*
X-1800381Y-24770790D01*
X-1803629Y-24770577D01*
X-1867686Y-24765539D01*
X-1884947Y-24764181D01*
X-1888233Y-24763879D01*
X-2410818Y-24708967D01*
X-3301760Y-24615349D01*
X-3305002Y-24614965D01*
X-3385835Y-24604324D01*
X-3389070Y-24603854D01*
X-3963010Y-24512932D01*
X-4575092Y-24415966D01*
X-4581578Y-24414764D01*
X-5186451Y-24286173D01*
X-5744864Y-24167459D01*
X-5751245Y-24165927D01*
X-6911182Y-23855123D01*
X-6914302Y-23854243D01*
X-6992461Y-23831090D01*
X-6995611Y-23830113D01*
X-8347483Y-23390879D01*
X-8350605Y-23389819D01*
X-8427430Y-23362616D01*
X-8430524Y-23361474D01*
X-8497910Y-23335609D01*
X-9551492Y-22931210D01*
X-9557558Y-22928698D01*
X-9622013Y-22900000D01*
X1494318Y-22900000D01*
X1514956Y-23056762D01*
X1575464Y-23202841D01*
X1671718Y-23328282D01*
X1797159Y-23424536D01*
X1943238Y-23485044D01*
X2100000Y-23505682D01*
X2108188Y-23504604D01*
X2143159Y-23500000D01*
X2894318Y-23500000D01*
X2914956Y-23656762D01*
X2975464Y-23802841D01*
X3071718Y-23928282D01*
X3197159Y-24024536D01*
X3343238Y-24085044D01*
X3500000Y-24105682D01*
X3508188Y-24104604D01*
X3648574Y-24086122D01*
X3656762Y-24085044D01*
X3802841Y-24024536D01*
X3928282Y-23928282D01*
X4024536Y-23802841D01*
X4085044Y-23656762D01*
X4105682Y-23500000D01*
X4085044Y-23343238D01*
X4024536Y-23197159D01*
X3928282Y-23071718D01*
X3802841Y-22975464D01*
X3656762Y-22914956D01*
X3500000Y-22894318D01*
X3343238Y-22914956D01*
X3197159Y-22975464D01*
X3071718Y-23071718D01*
X2975464Y-23197159D01*
X2914956Y-23343238D01*
X2894318Y-23500000D01*
X2143159Y-23500000D01*
X2248574Y-23486122D01*
X2256762Y-23485044D01*
X2402841Y-23424536D01*
X2528282Y-23328282D01*
X2624536Y-23202841D01*
X2685044Y-23056762D01*
X2705682Y-22900000D01*
X2685044Y-22743238D01*
X2624536Y-22597159D01*
X2528282Y-22471718D01*
X2402841Y-22375464D01*
X2256762Y-22314956D01*
X2100000Y-22294318D01*
X1943238Y-22314956D01*
X1797159Y-22375464D01*
X1671718Y-22471718D01*
X1575464Y-22597159D01*
X1514956Y-22743238D01*
X1494318Y-22900000D01*
X-9622013Y-22900000D01*
X-10644016Y-22444960D01*
X-10649967Y-22442121D01*
X-10770913Y-22380491D01*
X-11128085Y-22198489D01*
X-4207193Y-22198489D01*
X-4186555Y-22355251D01*
X-4126047Y-22501330D01*
X-4029793Y-22626771D01*
X-3904352Y-22723025D01*
X-3758273Y-22783533D01*
X-3601511Y-22804171D01*
X-3593323Y-22803093D01*
X-3452937Y-22784611D01*
X-3444749Y-22783533D01*
X-3298670Y-22723025D01*
X-3173229Y-22626771D01*
X-3076975Y-22501330D01*
X-3016467Y-22355251D01*
X-2995829Y-22198489D01*
X-3016467Y-22041727D01*
X-3076975Y-21895648D01*
X-3160888Y-21786290D01*
X-3168206Y-21776753D01*
X-3173229Y-21770207D01*
X-3298670Y-21673953D01*
X-3444749Y-21613445D01*
X-3601511Y-21592807D01*
X-3758273Y-21613445D01*
X-3904352Y-21673953D01*
X-4029793Y-21770207D01*
X-4034816Y-21776753D01*
X-4042134Y-21786290D01*
X-4126047Y-21895648D01*
X-4186555Y-22041727D01*
X-4207193Y-22198489D01*
X-11128085Y-22198489D01*
X-11719830Y-21896957D01*
X-11722714Y-21895441D01*
X-11794499Y-21856463D01*
X-11797359Y-21854861D01*
X-12931663Y-21200000D01*
X-11155682Y-21200000D01*
X-11135044Y-21356762D01*
X-11074536Y-21502841D01*
X-10978282Y-21628282D01*
X-10852841Y-21724536D01*
X-10706762Y-21785044D01*
X-10698574Y-21786122D01*
X-10628381Y-21795363D01*
X-10550000Y-21805682D01*
X-10541812Y-21804604D01*
X-10401426Y-21786122D01*
X-10393238Y-21785044D01*
X-10247159Y-21724536D01*
X-10121718Y-21628282D01*
X-10025464Y-21502841D01*
X-9964956Y-21356762D01*
X-9944318Y-21200000D01*
X-9957483Y-21100000D01*
X-5805682Y-21100000D01*
X-5785044Y-21256762D01*
X-5724536Y-21402841D01*
X-5628282Y-21528282D01*
X-5502841Y-21624536D01*
X-5356762Y-21685044D01*
X-5200000Y-21705682D01*
X-5191812Y-21704604D01*
X-5051426Y-21686122D01*
X-5043238Y-21685044D01*
X-4897159Y-21624536D01*
X-4771718Y-21528282D01*
X-4675464Y-21402841D01*
X-4614956Y-21256762D01*
X-4594318Y-21100000D01*
X-4614956Y-20943238D01*
X-4675464Y-20797159D01*
X-4771718Y-20671718D01*
X-4897159Y-20575464D01*
X-5043238Y-20514956D01*
X-5200000Y-20494318D01*
X-5356762Y-20514956D01*
X-5502841Y-20575464D01*
X-5628282Y-20671718D01*
X-5724536Y-20797159D01*
X-5785044Y-20943238D01*
X-5805682Y-21100000D01*
X-9957483Y-21100000D01*
X-9964956Y-21043238D01*
X-10025464Y-20897159D01*
X-10121718Y-20771718D01*
X-10247159Y-20675464D01*
X-10393238Y-20614956D01*
X-10550000Y-20594318D01*
X-10706762Y-20614956D01*
X-10852841Y-20675464D01*
X-10978282Y-20771718D01*
X-11074536Y-20897159D01*
X-11135044Y-21043238D01*
X-11155682Y-21200000D01*
X-12931663Y-21200000D01*
X-13028255Y-21144235D01*
X-13031088Y-21142550D01*
X-13100553Y-21099985D01*
X-13103344Y-21098224D01*
X-14110445Y-20444234D01*
X-14115885Y-20440495D01*
X-14584523Y-20100000D01*
X3078337Y-20100000D01*
X3098975Y-20256762D01*
X3159483Y-20402841D01*
X3255737Y-20528282D01*
X3381178Y-20624536D01*
X3527257Y-20685044D01*
X3684019Y-20705682D01*
X3692207Y-20704604D01*
X3832593Y-20686122D01*
X3840781Y-20685044D01*
X3986860Y-20624536D01*
X4112301Y-20528282D01*
X4208555Y-20402841D01*
X4269063Y-20256762D01*
X4289701Y-20100000D01*
X4269063Y-19943238D01*
X4208555Y-19797159D01*
X4112301Y-19671718D01*
X3986860Y-19575464D01*
X3840781Y-19514956D01*
X3833519Y-19514000D01*
X5865318Y-19514000D01*
X5885956Y-19670762D01*
X5946464Y-19816841D01*
X6042718Y-19942282D01*
X6168159Y-20038536D01*
X6314238Y-20099044D01*
X6471000Y-20119682D01*
X6479188Y-20118604D01*
X6619574Y-20100122D01*
X6627762Y-20099044D01*
X6773841Y-20038536D01*
X6888181Y-19950800D01*
X11445118Y-19950800D01*
X11465756Y-20107562D01*
X11526264Y-20253641D01*
X11622518Y-20379082D01*
X11747959Y-20475336D01*
X11894038Y-20535844D01*
X12050800Y-20556482D01*
X12058988Y-20555404D01*
X12199374Y-20536922D01*
X12207562Y-20535844D01*
X12353641Y-20475336D01*
X12479082Y-20379082D01*
X12575336Y-20253641D01*
X12635844Y-20107562D01*
X12656482Y-19950800D01*
X12636629Y-19800000D01*
X12894318Y-19800000D01*
X12914956Y-19956762D01*
X12975464Y-20102841D01*
X13071718Y-20228282D01*
X13197159Y-20324536D01*
X13343238Y-20385044D01*
X13500000Y-20405682D01*
X13508188Y-20404604D01*
X13521580Y-20402841D01*
X13656762Y-20385044D01*
X13802841Y-20324536D01*
X13928282Y-20228282D01*
X14024536Y-20102841D01*
X14085044Y-19956762D01*
X14105682Y-19800000D01*
X14085044Y-19643238D01*
X14024536Y-19497159D01*
X13928282Y-19371718D01*
X13802841Y-19275464D01*
X13656762Y-19214956D01*
X13500000Y-19194318D01*
X13343238Y-19214956D01*
X13197159Y-19275464D01*
X13071718Y-19371718D01*
X12975464Y-19497159D01*
X12914956Y-19643238D01*
X12894318Y-19800000D01*
X12636629Y-19800000D01*
X12635844Y-19794038D01*
X12575336Y-19647959D01*
X12479082Y-19522518D01*
X12353641Y-19426264D01*
X12207562Y-19365756D01*
X12050800Y-19345118D01*
X11894038Y-19365756D01*
X11747959Y-19426264D01*
X11622518Y-19522518D01*
X11526264Y-19647959D01*
X11465756Y-19794038D01*
X11445118Y-19950800D01*
X6888181Y-19950800D01*
X6899282Y-19942282D01*
X6995536Y-19816841D01*
X7056044Y-19670762D01*
X7076682Y-19514000D01*
X7059289Y-19381884D01*
X7057122Y-19365426D01*
X7056044Y-19357238D01*
X6995536Y-19211159D01*
X6899282Y-19085718D01*
X6773841Y-18989464D01*
X6627762Y-18928956D01*
X6471000Y-18908318D01*
X6314238Y-18928956D01*
X6168159Y-18989464D01*
X6042718Y-19085718D01*
X5946464Y-19211159D01*
X5885956Y-19357238D01*
X5884878Y-19365426D01*
X5882711Y-19381884D01*
X5865318Y-19514000D01*
X3833519Y-19514000D01*
X3684019Y-19494318D01*
X3527257Y-19514956D01*
X3381178Y-19575464D01*
X3255737Y-19671718D01*
X3159483Y-19797159D01*
X3098975Y-19943238D01*
X3078337Y-20100000D01*
X-14584523Y-20100000D01*
X-15077965Y-19741484D01*
X-15083199Y-19737468D01*
X-15720051Y-19221736D01*
X-15829627Y-19133000D01*
X-12930682Y-19133000D01*
X-12910044Y-19289762D01*
X-12849536Y-19435841D01*
X-12753282Y-19561282D01*
X-12627841Y-19657536D01*
X-12481762Y-19718044D01*
X-12325000Y-19738682D01*
X-12316812Y-19737604D01*
X-12176426Y-19719122D01*
X-12168238Y-19718044D01*
X-12022159Y-19657536D01*
X-11896718Y-19561282D01*
X-11800464Y-19435841D01*
X-11739956Y-19289762D01*
X-11719318Y-19133000D01*
X-11739956Y-18976238D01*
X-11800464Y-18830159D01*
X-11823606Y-18800000D01*
X7244318Y-18800000D01*
X7264956Y-18956762D01*
X7325464Y-19102841D01*
X7421718Y-19228282D01*
X7547159Y-19324536D01*
X7693238Y-19385044D01*
X7850000Y-19405682D01*
X7858188Y-19404604D01*
X7998574Y-19386122D01*
X8006762Y-19385044D01*
X8152841Y-19324536D01*
X8278282Y-19228282D01*
X8374536Y-19102841D01*
X8435044Y-18956762D01*
X8455682Y-18800000D01*
X8435044Y-18643238D01*
X8374536Y-18497159D01*
X8278282Y-18371718D01*
X8152841Y-18275464D01*
X8006762Y-18214956D01*
X7850000Y-18194318D01*
X7693238Y-18214956D01*
X7547159Y-18275464D01*
X7421718Y-18371718D01*
X7325464Y-18497159D01*
X7264956Y-18643238D01*
X7244318Y-18800000D01*
X-11823606Y-18800000D01*
X-11896718Y-18704718D01*
X-12022159Y-18608464D01*
X-12168238Y-18547956D01*
X-12325000Y-18527318D01*
X-12481762Y-18547956D01*
X-12627841Y-18608464D01*
X-12753282Y-18704718D01*
X-12849536Y-18830159D01*
X-12910044Y-18976238D01*
X-12930682Y-19133000D01*
X-15829627Y-19133000D01*
X-16016492Y-18981674D01*
X-16019005Y-18979584D01*
X-16349860Y-18697000D01*
X-16352301Y-18694860D01*
X-16883090Y-18216928D01*
X-16885512Y-18214689D01*
X-16990323Y-18115226D01*
X-16990344Y-18115206D01*
X-16990669Y-18114898D01*
X-17008949Y-18098112D01*
X-17013761Y-18093837D01*
X-17020541Y-18088009D01*
X-17032088Y-18078083D01*
X-17032125Y-18078051D01*
X-17032490Y-18077738D01*
X-17182498Y-17953000D01*
X11347318Y-17953000D01*
X11367956Y-18109762D01*
X11428464Y-18255841D01*
X11524718Y-18381282D01*
X11650159Y-18477536D01*
X11796238Y-18538044D01*
X11953000Y-18558682D01*
X11961188Y-18557604D01*
X11983976Y-18554604D01*
X12109762Y-18538044D01*
X12255841Y-18477536D01*
X12381282Y-18381282D01*
X12477536Y-18255841D01*
X12538044Y-18109762D01*
X12551776Y-18005460D01*
X12575460Y-17951921D01*
X12777168Y-17951921D01*
X12801619Y-18005460D01*
X12813299Y-18094179D01*
X12814956Y-18106762D01*
X12875464Y-18252841D01*
X12971718Y-18378282D01*
X13097159Y-18474536D01*
X13243238Y-18535044D01*
X13251426Y-18536122D01*
X13287521Y-18540874D01*
X13400000Y-18555682D01*
X13408188Y-18554604D01*
X13548574Y-18536122D01*
X13556762Y-18535044D01*
X13702841Y-18474536D01*
X13828282Y-18378282D01*
X13924536Y-18252841D01*
X13985044Y-18106762D01*
X14005682Y-17950000D01*
X14000381Y-17909731D01*
X14011321Y-17839582D01*
X14058449Y-17786484D01*
X14126804Y-17767295D01*
X14173521Y-17776877D01*
X14185608Y-17781884D01*
X14185611Y-17781885D01*
X14193238Y-17785044D01*
X14350000Y-17805682D01*
X14358188Y-17804604D01*
X14498574Y-17786122D01*
X14506762Y-17785044D01*
X14652841Y-17724536D01*
X14778282Y-17628282D01*
X14874536Y-17502841D01*
X14935044Y-17356762D01*
X14939698Y-17321415D01*
X14947824Y-17259686D01*
X14955682Y-17200000D01*
X14936540Y-17054604D01*
X14936122Y-17051426D01*
X14935044Y-17043238D01*
X14874536Y-16897159D01*
X14778282Y-16771718D01*
X14652841Y-16675464D01*
X14549571Y-16632688D01*
X14514387Y-16618114D01*
X14514384Y-16618113D01*
X14506762Y-16614956D01*
X14498580Y-16613879D01*
X14497185Y-16613505D01*
X14436562Y-16576553D01*
X14405541Y-16512692D01*
X14413971Y-16442198D01*
X14459174Y-16387452D01*
X14529797Y-16365799D01*
X15169069Y-16365799D01*
X15175890Y-16365429D01*
X15226752Y-16359905D01*
X15242004Y-16356279D01*
X15362454Y-16311124D01*
X15378049Y-16302586D01*
X15480124Y-16226085D01*
X15492685Y-16213524D01*
X15569186Y-16111449D01*
X15577724Y-16095854D01*
X15622878Y-15975406D01*
X15626505Y-15960151D01*
X15632031Y-15909286D01*
X15632400Y-15902472D01*
X15632400Y-15367915D01*
X15627925Y-15352676D01*
X15626535Y-15351471D01*
X15618852Y-15349800D01*
X13110516Y-15349800D01*
X13095277Y-15354275D01*
X13094072Y-15355665D01*
X13092401Y-15363348D01*
X13092401Y-15902469D01*
X13092771Y-15909290D01*
X13098295Y-15960152D01*
X13101921Y-15975404D01*
X13147076Y-16095854D01*
X13155614Y-16111449D01*
X13232115Y-16213524D01*
X13244676Y-16226085D01*
X13346751Y-16302586D01*
X13362346Y-16311124D01*
X13482794Y-16356278D01*
X13498049Y-16359905D01*
X13548914Y-16365431D01*
X13555728Y-16365800D01*
X14170202Y-16365800D01*
X14238323Y-16385802D01*
X14284816Y-16439458D01*
X14294920Y-16509732D01*
X14265426Y-16574312D01*
X14202811Y-16613507D01*
X14201427Y-16613878D01*
X14193238Y-16614956D01*
X14047159Y-16675464D01*
X13921718Y-16771718D01*
X13825464Y-16897159D01*
X13764956Y-17043238D01*
X13763878Y-17051426D01*
X13763460Y-17054604D01*
X13744318Y-17200000D01*
X13745396Y-17208188D01*
X13745396Y-17208190D01*
X13749619Y-17240269D01*
X13738679Y-17310418D01*
X13691551Y-17363516D01*
X13623196Y-17382705D01*
X13576479Y-17373123D01*
X13564392Y-17368116D01*
X13564389Y-17368115D01*
X13556762Y-17364956D01*
X13400000Y-17344318D01*
X13243238Y-17364956D01*
X13097159Y-17425464D01*
X12971718Y-17521718D01*
X12875464Y-17647159D01*
X12814956Y-17793238D01*
X12801224Y-17897540D01*
X12777168Y-17951921D01*
X12575460Y-17951921D01*
X12575832Y-17951079D01*
X12551381Y-17897540D01*
X12539122Y-17804426D01*
X12538044Y-17796238D01*
X12477536Y-17650159D01*
X12381282Y-17524718D01*
X12255841Y-17428464D01*
X12109762Y-17367956D01*
X12078787Y-17363878D01*
X11961188Y-17348396D01*
X11953000Y-17347318D01*
X11944812Y-17348396D01*
X11827214Y-17363878D01*
X11796238Y-17367956D01*
X11650159Y-17428464D01*
X11524718Y-17524718D01*
X11428464Y-17650159D01*
X11367956Y-17796238D01*
X11366878Y-17804426D01*
X11365034Y-17818433D01*
X11347318Y-17953000D01*
X-17182498Y-17953000D01*
X-17343301Y-17819285D01*
X-17343315Y-17819274D01*
X-17344331Y-17818429D01*
X-17345391Y-17817621D01*
X-17394367Y-17780300D01*
X-17394379Y-17780291D01*
X-17395420Y-17779498D01*
X-17409217Y-17769883D01*
X-17463433Y-17735429D01*
X-17807196Y-17536964D01*
X-17877621Y-17501080D01*
X-17888520Y-17496227D01*
X-17895021Y-17493332D01*
X-17895029Y-17493329D01*
X-17896524Y-17492663D01*
X-17898060Y-17492073D01*
X-17898068Y-17492070D01*
X-17968822Y-17464907D01*
X-17968833Y-17464903D01*
X-17970354Y-17464319D01*
X-17971895Y-17463818D01*
X-17971907Y-17463814D01*
X-18344430Y-17342761D01*
X-18344433Y-17342760D01*
X-18346012Y-17342247D01*
X-18396535Y-17328709D01*
X-18420811Y-17322204D01*
X-18420816Y-17322203D01*
X-18422420Y-17321773D01*
X-18424028Y-17321431D01*
X-18424033Y-17321430D01*
X-18428956Y-17320384D01*
X-18442664Y-17317470D01*
X-18487192Y-17310418D01*
X-18519185Y-17305351D01*
X-18519194Y-17305350D01*
X-18520803Y-17305095D01*
X-18522434Y-17304924D01*
X-18522439Y-17304923D01*
X-18800007Y-17275762D01*
X-18912016Y-17263994D01*
X-18912029Y-17263993D01*
X-18913666Y-17263821D01*
X-18915321Y-17263734D01*
X-18915325Y-17263734D01*
X-18935913Y-17262656D01*
X-18992604Y-17259686D01*
X-19013292Y-17259686D01*
X-19069983Y-17262656D01*
X-19090571Y-17263734D01*
X-19090575Y-17263734D01*
X-19092230Y-17263821D01*
X-19093867Y-17263993D01*
X-19093880Y-17263994D01*
X-19274558Y-17282976D01*
X-19485082Y-17305094D01*
X-19486689Y-17305348D01*
X-19486701Y-17305350D01*
X-19530676Y-17312313D01*
X-19563166Y-17317457D01*
X-19564773Y-17317798D01*
X-19564776Y-17317799D01*
X-19581795Y-17321415D01*
X-19581805Y-17321417D01*
X-19583408Y-17321758D01*
X-19626563Y-17333319D01*
X-19658240Y-17341805D01*
X-19658246Y-17341807D01*
X-19659837Y-17342233D01*
X-19661396Y-17342739D01*
X-19661401Y-17342741D01*
X-19931482Y-17430491D01*
X-20035578Y-17464312D01*
X-20067011Y-17476378D01*
X-20107851Y-17492054D01*
X-20107862Y-17492059D01*
X-20109408Y-17492652D01*
X-20110923Y-17493327D01*
X-20110929Y-17493329D01*
X-20115156Y-17495211D01*
X-20128318Y-17501071D01*
X-20129800Y-17501826D01*
X-20129804Y-17501828D01*
X-20197306Y-17536221D01*
X-20197316Y-17536226D01*
X-20198795Y-17536980D01*
X-20541425Y-17734803D01*
X-20542730Y-17735644D01*
X-20542741Y-17735651D01*
X-20591826Y-17767295D01*
X-20603637Y-17774909D01*
X-20604884Y-17775803D01*
X-20604885Y-17775803D01*
X-20611183Y-17780315D01*
X-20619386Y-17786191D01*
X-20677392Y-17832208D01*
X-20979733Y-18097204D01*
X-20990148Y-18106762D01*
X-20999026Y-18114910D01*
X-21005158Y-18120537D01*
X-21011669Y-18126792D01*
X-21036007Y-18151266D01*
X-21036516Y-18151802D01*
X-21036523Y-18151809D01*
X-21415706Y-18550952D01*
X-21477125Y-18586563D01*
X-21548048Y-18583316D01*
X-21607018Y-18540874D01*
X-21616691Y-18528268D01*
X-21616695Y-18528264D01*
X-21621718Y-18521718D01*
X-21747159Y-18425464D01*
X-21893238Y-18364956D01*
X-22050000Y-18344318D01*
X-22206762Y-18364956D01*
X-22352841Y-18425464D01*
X-22478282Y-18521718D01*
X-22574536Y-18647159D01*
X-22635044Y-18793238D01*
X-22655682Y-18950000D01*
X-22650486Y-18989464D01*
X-22637814Y-19085718D01*
X-22635044Y-19106762D01*
X-22574536Y-19252841D01*
X-22478282Y-19378282D01*
X-22471736Y-19383305D01*
X-22471733Y-19383308D01*
X-22429379Y-19415807D01*
X-22387511Y-19473145D01*
X-22383289Y-19544016D01*
X-22414732Y-19602553D01*
X-23487184Y-20731445D01*
X-23487191Y-20731452D01*
X-24265611Y-21550860D01*
X-24920681Y-22240394D01*
X-24952703Y-22274097D01*
X-24952749Y-22274145D01*
X-25539518Y-22891812D01*
X-25543624Y-22896134D01*
X-25543718Y-22896232D01*
X-25576529Y-22930774D01*
X-25576532Y-22930778D01*
X-26101770Y-23483683D01*
X-26101771Y-23483682D01*
X-26101773Y-23483686D01*
X-26527966Y-23932281D01*
X-26531625Y-23936160D01*
X-26532528Y-23937124D01*
X-26535800Y-23940639D01*
X-26535803Y-23940642D01*
X-26814682Y-24242182D01*
X-26814700Y-24242202D01*
X-26815290Y-24242840D01*
X-26844553Y-24276414D01*
X-26851965Y-24285442D01*
X-26879261Y-24320768D01*
X-26879811Y-24321525D01*
X-26879817Y-24321533D01*
X-27113198Y-24642755D01*
X-27114161Y-24644081D01*
X-27157223Y-24710389D01*
X-27167569Y-24728308D01*
X-27203461Y-24798745D01*
X-27364134Y-25159571D01*
X-27364723Y-25161104D01*
X-27364725Y-25161110D01*
X-27369511Y-25173578D01*
X-27392487Y-25233425D01*
X-27398883Y-25253109D01*
X-27419352Y-25329495D01*
X-27419693Y-25331101D01*
X-27419697Y-25331116D01*
X-27467447Y-25555754D01*
X-27501474Y-25715827D01*
X-27513844Y-25793919D01*
X-27516008Y-25814502D01*
X-27516094Y-25816148D01*
X-27516095Y-25816157D01*
X-27519371Y-25878651D01*
X-27520149Y-25893486D01*
X-27520154Y-26288541D01*
X-30131582Y-26288541D01*
X-30618711Y-25718171D01*
X-31082881Y-25174683D01*
X-31087030Y-25169560D01*
X-32357889Y-23513427D01*
X-32361768Y-23508088D01*
X-33496884Y-21856471D01*
X-33544107Y-21787760D01*
X-33547700Y-21782227D01*
X-34638415Y-20002316D01*
X-34641712Y-19996606D01*
X-35209996Y-18950000D01*
X-24655682Y-18950000D01*
X-24650486Y-18989464D01*
X-24637814Y-19085718D01*
X-24635044Y-19106762D01*
X-24574536Y-19252841D01*
X-24478282Y-19378282D01*
X-24352841Y-19474536D01*
X-24206762Y-19535044D01*
X-24050000Y-19555682D01*
X-24041812Y-19554604D01*
X-23901426Y-19536122D01*
X-23893238Y-19535044D01*
X-23747159Y-19474536D01*
X-23621718Y-19378282D01*
X-23525464Y-19252841D01*
X-23464956Y-19106762D01*
X-23462185Y-19085718D01*
X-23449514Y-18989464D01*
X-23444318Y-18950000D01*
X-23464956Y-18793238D01*
X-23525464Y-18647159D01*
X-23621718Y-18521718D01*
X-23747159Y-18425464D01*
X-23893238Y-18364956D01*
X-24050000Y-18344318D01*
X-24206762Y-18364956D01*
X-24352841Y-18425464D01*
X-24478282Y-18521718D01*
X-24574536Y-18647159D01*
X-24635044Y-18793238D01*
X-24655682Y-18950000D01*
X-35209996Y-18950000D01*
X-35637837Y-18162048D01*
X-35640833Y-18156167D01*
X-35953608Y-17500400D01*
X-36454608Y-16450000D01*
X-29105682Y-16450000D01*
X-29085044Y-16606762D01*
X-29024536Y-16752841D01*
X-28928282Y-16878282D01*
X-28802841Y-16974536D01*
X-28656762Y-17035044D01*
X-28500000Y-17055682D01*
X-28491812Y-17054604D01*
X-28351426Y-17036122D01*
X-28343238Y-17035044D01*
X-28197159Y-16974536D01*
X-28071718Y-16878282D01*
X-27975464Y-16752841D01*
X-27922303Y-16624500D01*
X-17830182Y-16624500D01*
X-17829104Y-16632688D01*
X-17810800Y-16771718D01*
X-17809544Y-16781262D01*
X-17749036Y-16927341D01*
X-17652782Y-17052782D01*
X-17527341Y-17149036D01*
X-17381262Y-17209544D01*
X-17224500Y-17230182D01*
X-17216312Y-17229104D01*
X-17075926Y-17210622D01*
X-17067738Y-17209544D01*
X-16921659Y-17149036D01*
X-16796218Y-17052782D01*
X-16699964Y-16927341D01*
X-16639456Y-16781262D01*
X-16638199Y-16771718D01*
X-16619896Y-16632688D01*
X-16618818Y-16624500D01*
X-16639456Y-16467738D01*
X-16699964Y-16321659D01*
X-16796218Y-16196218D01*
X-16921659Y-16099964D01*
X-17067738Y-16039456D01*
X-17224500Y-16018818D01*
X-17381262Y-16039456D01*
X-17527341Y-16099964D01*
X-17652782Y-16196218D01*
X-17749036Y-16321659D01*
X-17809544Y-16467738D01*
X-17830182Y-16624500D01*
X-27922303Y-16624500D01*
X-27914956Y-16606762D01*
X-27894318Y-16450000D01*
X-27914956Y-16293238D01*
X-27975464Y-16147159D01*
X-28071718Y-16021718D01*
X-28197159Y-15925464D01*
X-28343238Y-15864956D01*
X-28500000Y-15844318D01*
X-28656762Y-15864956D01*
X-28802841Y-15925464D01*
X-28928282Y-16021718D01*
X-29024536Y-16147159D01*
X-29085044Y-16293238D01*
X-29105682Y-16450000D01*
X-36454608Y-16450000D01*
X-36539470Y-16272077D01*
X-36542148Y-16266062D01*
X-36558706Y-16226085D01*
X-37106454Y-14903670D01*
X-37341004Y-14337401D01*
X-37343367Y-14331247D01*
X-37496081Y-13900040D01*
X-8251019Y-13900040D01*
X-8250983Y-13900189D01*
X-8189813Y-14286424D01*
X-8189801Y-14286578D01*
X-8189783Y-14286613D01*
X-8189777Y-14286652D01*
X-8189695Y-14286785D01*
X-8012177Y-14635121D01*
X-8012116Y-14635267D01*
X-8012088Y-14635295D01*
X-8012070Y-14635330D01*
X-8011953Y-14635430D01*
X-8000402Y-14646983D01*
X-8000402Y-14646984D01*
X-7747648Y-14899794D01*
X-7747646Y-14899795D01*
X-7735460Y-14911984D01*
X-7735360Y-14912101D01*
X-7735325Y-14912119D01*
X-7735297Y-14912147D01*
X-7735150Y-14912208D01*
X-7531248Y-15016071D01*
X-7397937Y-15083977D01*
X-7397935Y-15083977D01*
X-7386752Y-15089674D01*
X-7386621Y-15089755D01*
X-7386582Y-15089761D01*
X-7386547Y-15089779D01*
X-7386394Y-15089791D01*
X-7000188Y-15150984D01*
X-7000039Y-15151020D01*
X-7000000Y-15151014D01*
X-6999961Y-15151020D01*
X-6999812Y-15150984D01*
X-6983926Y-15148467D01*
X-6863539Y-15129392D01*
X-6613607Y-15089791D01*
X-6613455Y-15089779D01*
X-6613420Y-15089761D01*
X-6613380Y-15089755D01*
X-6613242Y-15089671D01*
X-6602063Y-15083977D01*
X-6280024Y-14919937D01*
X-6264851Y-14912208D01*
X-6264704Y-14912147D01*
X-6264676Y-14912119D01*
X-6264641Y-14912101D01*
X-6264541Y-14911984D01*
X-6015850Y-14663238D01*
X-6000138Y-14647523D01*
X-6000138Y-14647522D01*
X-5988048Y-14635430D01*
X-5987931Y-14635330D01*
X-5987913Y-14635295D01*
X-5987885Y-14635267D01*
X-5987824Y-14635121D01*
X-5810305Y-14286784D01*
X-5810224Y-14286652D01*
X-5810218Y-14286613D01*
X-5810200Y-14286578D01*
X-5810188Y-14286424D01*
X-5749017Y-13900189D01*
X-5748981Y-13900040D01*
X-5748987Y-13900001D01*
X-5748981Y-13899962D01*
X-5749017Y-13899813D01*
X-5810188Y-13513574D01*
X-5810200Y-13513420D01*
X-5810218Y-13513385D01*
X-5810224Y-13513346D01*
X-5810305Y-13513214D01*
X-5987824Y-13164877D01*
X-5987885Y-13164731D01*
X-5987913Y-13164703D01*
X-5987931Y-13164668D01*
X-5988048Y-13164568D01*
X-5999951Y-13152662D01*
X-6252353Y-12900204D01*
X-6252355Y-12900203D01*
X-6264541Y-12888014D01*
X-6264641Y-12887897D01*
X-6264676Y-12887879D01*
X-6264704Y-12887851D01*
X-6264851Y-12887790D01*
X-6310787Y-12864391D01*
X-6418508Y-12809521D01*
X-6613244Y-12710327D01*
X-6613380Y-12710243D01*
X-6613420Y-12710237D01*
X-6613455Y-12710219D01*
X-6613607Y-12710207D01*
X-6856752Y-12671684D01*
X-6983073Y-12651670D01*
X-6999812Y-12649018D01*
X-6999961Y-12648982D01*
X-7000000Y-12648988D01*
X-7000039Y-12648982D01*
X-7000188Y-12649018D01*
X-7016069Y-12651534D01*
X-7373818Y-12708214D01*
X-7373820Y-12708215D01*
X-7386394Y-12710207D01*
X-7386547Y-12710219D01*
X-7386582Y-12710237D01*
X-7386621Y-12710243D01*
X-7386752Y-12710324D01*
X-7397935Y-12716021D01*
X-7397937Y-12716021D01*
X-7716484Y-12878282D01*
X-7735150Y-12887790D01*
X-7735297Y-12887851D01*
X-7735325Y-12887879D01*
X-7735360Y-12887897D01*
X-7735460Y-12888014D01*
X-8011948Y-13164563D01*
X-8012070Y-13164667D01*
X-8012089Y-13164704D01*
X-8012116Y-13164731D01*
X-8012174Y-13164872D01*
X-8189695Y-13513217D01*
X-8189777Y-13513350D01*
X-8189783Y-13513389D01*
X-8189801Y-13513424D01*
X-8189813Y-13513578D01*
X-8250983Y-13899813D01*
X-8251019Y-13899962D01*
X-8251013Y-13900001D01*
X-8251019Y-13900040D01*
X-37496081Y-13900040D01*
X-38030803Y-12390180D01*
X-19696469Y-12390180D01*
X-19694076Y-12397668D01*
X-19518012Y-12702618D01*
X-19514288Y-12708330D01*
X-19484066Y-12749625D01*
X-19473300Y-12761019D01*
X-19373972Y-12842752D01*
X-19358779Y-12851990D01*
X-19241493Y-12902138D01*
X-19224331Y-12906737D01*
X-19097678Y-12921951D01*
X-19079906Y-12921548D01*
X-18953015Y-12900428D01*
X-18937999Y-12895944D01*
X-18891174Y-12875292D01*
X-18885098Y-12872209D01*
X-18714006Y-12773429D01*
X-18703046Y-12761934D01*
X-18702697Y-12760126D01*
X-18705090Y-12752639D01*
X-19103760Y-12062125D01*
X-19115255Y-12051165D01*
X-19117063Y-12050816D01*
X-19124550Y-12053209D01*
X-19685161Y-12376878D01*
X-19696121Y-12388373D01*
X-19696469Y-12390180D01*
X-38030803Y-12390180D01*
X-38040258Y-12363482D01*
X-38042298Y-12357201D01*
X-38634375Y-10358153D01*
X-20503087Y-10358153D01*
X-20483920Y-10414618D01*
X-20199176Y-10907809D01*
X-20122869Y-11039976D01*
X-20106131Y-11108971D01*
X-20116134Y-11152512D01*
X-20167615Y-11272916D01*
X-20172214Y-11290078D01*
X-20187428Y-11416731D01*
X-20187025Y-11434503D01*
X-20165905Y-11561394D01*
X-20161421Y-11576410D01*
X-20140769Y-11623235D01*
X-20137686Y-11629311D01*
X-19963906Y-11930307D01*
X-19952411Y-11941267D01*
X-19950603Y-11941616D01*
X-19943116Y-11939223D01*
X-19035996Y-11415496D01*
X-18967001Y-11398758D01*
X-18899909Y-11421978D01*
X-18863877Y-11461615D01*
X-18672877Y-11792436D01*
X-18267435Y-12494683D01*
X-18255940Y-12505643D01*
X-18254133Y-12505991D01*
X-18246645Y-12503598D01*
X-18071598Y-12402534D01*
X-18065887Y-12398811D01*
X-18024592Y-12368589D01*
X-18013198Y-12357823D01*
X-17998532Y-12340000D01*
X-865682Y-12340000D01*
X-845044Y-12496762D01*
X-784536Y-12642841D01*
X-688282Y-12768282D01*
X-562841Y-12864536D01*
X-416762Y-12925044D01*
X-260000Y-12945682D01*
X-251812Y-12944604D01*
X-111426Y-12926122D01*
X-103238Y-12925044D01*
X42841Y-12864536D01*
X168282Y-12768282D01*
X264536Y-12642841D01*
X325044Y-12496762D01*
X331200Y-12450000D01*
X7494318Y-12450000D01*
X7514956Y-12606762D01*
X7575464Y-12752841D01*
X7671718Y-12878282D01*
X7678264Y-12883305D01*
X7684401Y-12888014D01*
X7797159Y-12974536D01*
X7943238Y-13035044D01*
X8100000Y-13055682D01*
X8177454Y-13045485D01*
X8247602Y-13056424D01*
X8300701Y-13103552D01*
X8319900Y-13170407D01*
X8319900Y-13337548D01*
X8331533Y-13396031D01*
X8338426Y-13406347D01*
X8354537Y-13430458D01*
X8375848Y-13462352D01*
X8442169Y-13506667D01*
X8454338Y-13509088D01*
X8454339Y-13509088D01*
X8494584Y-13517093D01*
X8500652Y-13518300D01*
X10064148Y-13518300D01*
X10122631Y-13506667D01*
X10122669Y-13506857D01*
X10184048Y-13500260D01*
X10247534Y-13532041D01*
X10273092Y-13568854D01*
X10273775Y-13568460D01*
X10277903Y-13575611D01*
X10281064Y-13583241D01*
X10377318Y-13708682D01*
X10383864Y-13713705D01*
X10413518Y-13736459D01*
X10502759Y-13804936D01*
X10648838Y-13865444D01*
X10805600Y-13886082D01*
X10813788Y-13885004D01*
X10828251Y-13883100D01*
X10962362Y-13865444D01*
X11108441Y-13804936D01*
X11197682Y-13736459D01*
X11227336Y-13713705D01*
X11233882Y-13708682D01*
X11330136Y-13583241D01*
X11331545Y-13579839D01*
X11381391Y-13532309D01*
X11439131Y-13518300D01*
X12259472Y-13518300D01*
X12327593Y-13538302D01*
X12374086Y-13591958D01*
X12384190Y-13662232D01*
X12354696Y-13726812D01*
X12307689Y-13760709D01*
X12288391Y-13768702D01*
X12288388Y-13768704D01*
X12280759Y-13771864D01*
X12155318Y-13868118D01*
X12150295Y-13874664D01*
X12141534Y-13886082D01*
X12059064Y-13993559D01*
X12055904Y-14001189D01*
X12033400Y-14055518D01*
X11988852Y-14110799D01*
X11916991Y-14133300D01*
X11040652Y-14133300D01*
X11034584Y-14134507D01*
X10994339Y-14142512D01*
X10994338Y-14142512D01*
X10982169Y-14144933D01*
X10915848Y-14189248D01*
X10871533Y-14255569D01*
X10869112Y-14267739D01*
X10864363Y-14279205D01*
X10860844Y-14277747D01*
X10838076Y-14321286D01*
X10776385Y-14356425D01*
X10705489Y-14352633D01*
X10670690Y-14333767D01*
X10606997Y-14284894D01*
X10606994Y-14284892D01*
X10600441Y-14279864D01*
X10454362Y-14219356D01*
X10416095Y-14214318D01*
X10305788Y-14199796D01*
X10297600Y-14198718D01*
X10289411Y-14199796D01*
X10289409Y-14199796D01*
X10265691Y-14202918D01*
X10195542Y-14191978D01*
X10179245Y-14182761D01*
X10132950Y-14151827D01*
X10132946Y-14151825D01*
X10122631Y-14144933D01*
X10110462Y-14142512D01*
X10110461Y-14142512D01*
X10070216Y-14134507D01*
X10064148Y-14133300D01*
X8500652Y-14133300D01*
X8494584Y-14134507D01*
X8454339Y-14142512D01*
X8454338Y-14142512D01*
X8442169Y-14144933D01*
X8375848Y-14189248D01*
X8331533Y-14255569D01*
X8329112Y-14267738D01*
X8329112Y-14267739D01*
X8323098Y-14297974D01*
X8319900Y-14314052D01*
X8319900Y-15877548D01*
X8321107Y-15883616D01*
X8328803Y-15922304D01*
X8331533Y-15936031D01*
X8375848Y-16002352D01*
X8442169Y-16046667D01*
X8454338Y-16049088D01*
X8454339Y-16049088D01*
X8494584Y-16057093D01*
X8500652Y-16058300D01*
X10064148Y-16058300D01*
X10070216Y-16057093D01*
X10110461Y-16049088D01*
X10110462Y-16049088D01*
X10122631Y-16046667D01*
X10188952Y-16002352D01*
X10233267Y-15936031D01*
X10235998Y-15922304D01*
X10243693Y-15883616D01*
X10244900Y-15877548D01*
X10244900Y-15527519D01*
X10264902Y-15459398D01*
X10318558Y-15412905D01*
X10354454Y-15402597D01*
X10454362Y-15389444D01*
X10600441Y-15328936D01*
X10606994Y-15323908D01*
X10606997Y-15323906D01*
X10657196Y-15285387D01*
X10723416Y-15259786D01*
X10792965Y-15274050D01*
X10843761Y-15323652D01*
X10859900Y-15385349D01*
X10859900Y-15877548D01*
X10861107Y-15883616D01*
X10868803Y-15922304D01*
X10871533Y-15936031D01*
X10915848Y-16002352D01*
X10982169Y-16046667D01*
X10994338Y-16049088D01*
X10994339Y-16049088D01*
X11034584Y-16057093D01*
X11040652Y-16058300D01*
X12604148Y-16058300D01*
X12610216Y-16057093D01*
X12650461Y-16049088D01*
X12650462Y-16049088D01*
X12662631Y-16046667D01*
X12728952Y-16002352D01*
X12773267Y-15936031D01*
X12775998Y-15922304D01*
X12783693Y-15883616D01*
X12784900Y-15877548D01*
X12784900Y-14947186D01*
X12804902Y-14879065D01*
X12862683Y-14830777D01*
X12878809Y-14824098D01*
X12878813Y-14824096D01*
X12886441Y-14820936D01*
X12892990Y-14815911D01*
X12892993Y-14815909D01*
X12908051Y-14804354D01*
X12974271Y-14778753D01*
X13043820Y-14793017D01*
X13067588Y-14816226D01*
X13068914Y-14814696D01*
X13098265Y-14840129D01*
X13105948Y-14841800D01*
X14090285Y-14841800D01*
X14105524Y-14837325D01*
X14106729Y-14835935D01*
X14108400Y-14828252D01*
X14108400Y-14823685D01*
X14616400Y-14823685D01*
X14620875Y-14838924D01*
X14622265Y-14840129D01*
X14629948Y-14841800D01*
X15614284Y-14841800D01*
X15629523Y-14837325D01*
X15630728Y-14835935D01*
X15632399Y-14828252D01*
X15632399Y-14820000D01*
X26174318Y-14820000D01*
X26194956Y-14976762D01*
X26255464Y-15122841D01*
X26351718Y-15248282D01*
X26477159Y-15344536D01*
X26623238Y-15405044D01*
X26631426Y-15406122D01*
X26701619Y-15415363D01*
X26780000Y-15425682D01*
X26788188Y-15424604D01*
X26928574Y-15406122D01*
X26936762Y-15405044D01*
X27082841Y-15344536D01*
X27208282Y-15248282D01*
X27304536Y-15122841D01*
X27365044Y-14976762D01*
X27385682Y-14820000D01*
X27365044Y-14663238D01*
X27304536Y-14517159D01*
X27208282Y-14391718D01*
X27082841Y-14295464D01*
X26936762Y-14234956D01*
X26780000Y-14214318D01*
X26623238Y-14234956D01*
X26477159Y-14295464D01*
X26351718Y-14391718D01*
X26255464Y-14517159D01*
X26194956Y-14663238D01*
X26174318Y-14820000D01*
X15632399Y-14820000D01*
X15632399Y-14289131D01*
X15632029Y-14282310D01*
X15626505Y-14231448D01*
X15622879Y-14216196D01*
X15577724Y-14095746D01*
X15569186Y-14080151D01*
X15492685Y-13978076D01*
X15480124Y-13965515D01*
X15378049Y-13889014D01*
X15362454Y-13880476D01*
X15242006Y-13835322D01*
X15226751Y-13831695D01*
X15175886Y-13826169D01*
X15169072Y-13825800D01*
X14634515Y-13825800D01*
X14619276Y-13830275D01*
X14618071Y-13831665D01*
X14616400Y-13839348D01*
X14616400Y-14823685D01*
X14108400Y-14823685D01*
X14108400Y-13843916D01*
X14103925Y-13828677D01*
X14102535Y-13827472D01*
X14094852Y-13825801D01*
X13555731Y-13825801D01*
X13548910Y-13826171D01*
X13498048Y-13831695D01*
X13482796Y-13835321D01*
X13362346Y-13880476D01*
X13346752Y-13889014D01*
X13244016Y-13966010D01*
X13177510Y-13990858D01*
X13108127Y-13975805D01*
X13068489Y-13941888D01*
X13016909Y-13874668D01*
X13016905Y-13874664D01*
X13011882Y-13868118D01*
X12886441Y-13771864D01*
X12740362Y-13711356D01*
X12733228Y-13710417D01*
X12673025Y-13673723D01*
X12642002Y-13609863D01*
X12650429Y-13539368D01*
X12696253Y-13484202D01*
X12718637Y-13469245D01*
X12718639Y-13469243D01*
X12728952Y-13462352D01*
X12750263Y-13430458D01*
X12766374Y-13406347D01*
X12773267Y-13396031D01*
X12784900Y-13337548D01*
X12784900Y-13100577D01*
X12804902Y-13032456D01*
X12858558Y-12985963D01*
X12928832Y-12975859D01*
X12987604Y-13000615D01*
X13036203Y-13037906D01*
X13036206Y-13037908D01*
X13042759Y-13042936D01*
X13188838Y-13103444D01*
X13197026Y-13104522D01*
X13290347Y-13116808D01*
X13355274Y-13145531D01*
X13394365Y-13204796D01*
X13399900Y-13241730D01*
X13399900Y-13337548D01*
X13411533Y-13396031D01*
X13418426Y-13406347D01*
X13434537Y-13430458D01*
X13455848Y-13462352D01*
X13522169Y-13506667D01*
X13534338Y-13509088D01*
X13534339Y-13509088D01*
X13574584Y-13517093D01*
X13580652Y-13518300D01*
X15144148Y-13518300D01*
X15150216Y-13517093D01*
X15190461Y-13509088D01*
X15190462Y-13509088D01*
X15202631Y-13506667D01*
X15268952Y-13462352D01*
X15290263Y-13430458D01*
X15306374Y-13406347D01*
X15313267Y-13396031D01*
X15324900Y-13337548D01*
X15324900Y-12700000D01*
X22194318Y-12700000D01*
X22214956Y-12856762D01*
X22275464Y-13002841D01*
X22371718Y-13128282D01*
X22497159Y-13224536D01*
X22643238Y-13285044D01*
X22800000Y-13305682D01*
X22808188Y-13304604D01*
X22948574Y-13286122D01*
X22956762Y-13285044D01*
X23102841Y-13224536D01*
X23228282Y-13128282D01*
X23324536Y-13002841D01*
X23385044Y-12856762D01*
X23405682Y-12700000D01*
X23385044Y-12543238D01*
X23324536Y-12397159D01*
X23228282Y-12271718D01*
X23102841Y-12175464D01*
X22956762Y-12114956D01*
X22800000Y-12094318D01*
X22643238Y-12114956D01*
X22497159Y-12175464D01*
X22371718Y-12271718D01*
X22275464Y-12397159D01*
X22214956Y-12543238D01*
X22194318Y-12700000D01*
X15324900Y-12700000D01*
X15324900Y-11774052D01*
X15317211Y-11735396D01*
X15315688Y-11727739D01*
X15315688Y-11727738D01*
X15313267Y-11715569D01*
X15268952Y-11649248D01*
X15202631Y-11604933D01*
X15190462Y-11602512D01*
X15190461Y-11602512D01*
X15150216Y-11594507D01*
X15144148Y-11593300D01*
X13580652Y-11593300D01*
X13574584Y-11594507D01*
X13534339Y-11602512D01*
X13534338Y-11602512D01*
X13522169Y-11604933D01*
X13455848Y-11649248D01*
X13411533Y-11715569D01*
X13409112Y-11727738D01*
X13409112Y-11727739D01*
X13407589Y-11735396D01*
X13399900Y-11774052D01*
X13399900Y-11795070D01*
X13379898Y-11863191D01*
X13326242Y-11909684D01*
X13290347Y-11919992D01*
X13210600Y-11930491D01*
X13188838Y-11933356D01*
X13042759Y-11993864D01*
X13036206Y-11998892D01*
X13036203Y-11998894D01*
X12987604Y-12036185D01*
X12921384Y-12061786D01*
X12851835Y-12047521D01*
X12801039Y-11997920D01*
X12784900Y-11936223D01*
X12784900Y-11774052D01*
X12777211Y-11735396D01*
X12775688Y-11727739D01*
X12775688Y-11727738D01*
X12773267Y-11715569D01*
X12728952Y-11649248D01*
X12662631Y-11604933D01*
X12650462Y-11602512D01*
X12650461Y-11602512D01*
X12610216Y-11594507D01*
X12604148Y-11593300D01*
X11040652Y-11593300D01*
X11034584Y-11594507D01*
X10994339Y-11602512D01*
X10994338Y-11602512D01*
X10982169Y-11604933D01*
X10915848Y-11649248D01*
X10871533Y-11715569D01*
X10869112Y-11727738D01*
X10869112Y-11727739D01*
X10867589Y-11735396D01*
X10859900Y-11774052D01*
X10859900Y-12557070D01*
X10839898Y-12625191D01*
X10786242Y-12671684D01*
X10750347Y-12681992D01*
X10675757Y-12691812D01*
X10648838Y-12695356D01*
X10502759Y-12755864D01*
X10496206Y-12760892D01*
X10496203Y-12760894D01*
X10447604Y-12798185D01*
X10381384Y-12823786D01*
X10311835Y-12809521D01*
X10261039Y-12759920D01*
X10244900Y-12698223D01*
X10244900Y-11774052D01*
X10237211Y-11735396D01*
X10235688Y-11727739D01*
X10235688Y-11727738D01*
X10233267Y-11715569D01*
X10188952Y-11649248D01*
X10122631Y-11604933D01*
X10110462Y-11602512D01*
X10110461Y-11602512D01*
X10070216Y-11594507D01*
X10064148Y-11593300D01*
X8500652Y-11593300D01*
X8494584Y-11594507D01*
X8454339Y-11602512D01*
X8454338Y-11602512D01*
X8442169Y-11604933D01*
X8375848Y-11649248D01*
X8331533Y-11715569D01*
X8329112Y-11727738D01*
X8329112Y-11727739D01*
X8323691Y-11754993D01*
X8290783Y-11817903D01*
X8229088Y-11853034D01*
X8183667Y-11855333D01*
X8100000Y-11844318D01*
X8091812Y-11845396D01*
X7956645Y-11863191D01*
X7943238Y-11864956D01*
X7797159Y-11925464D01*
X7755692Y-11957283D01*
X7697267Y-12002114D01*
X7671718Y-12021718D01*
X7575464Y-12147159D01*
X7514956Y-12293238D01*
X7494318Y-12450000D01*
X331200Y-12450000D01*
X345682Y-12340000D01*
X325044Y-12183238D01*
X264536Y-12037159D01*
X168282Y-11911718D01*
X42841Y-11815464D01*
X-103238Y-11754956D01*
X-260000Y-11734318D01*
X-416762Y-11754956D01*
X-562841Y-11815464D01*
X-688282Y-11911718D01*
X-784536Y-12037159D01*
X-845044Y-12183238D01*
X-865682Y-12340000D01*
X-17998532Y-12340000D01*
X-17931465Y-12258495D01*
X-17922227Y-12243302D01*
X-17872079Y-12126016D01*
X-17867480Y-12108853D01*
X-17851862Y-11978837D01*
X-17823878Y-11913588D01*
X-17789764Y-11884747D01*
X-17155742Y-11518695D01*
X-17149283Y-11513030D01*
X-17120239Y-11487560D01*
X-17120238Y-11487558D01*
X-17110911Y-11479379D01*
X-17088781Y-11434503D01*
X-17081120Y-11418968D01*
X-17081119Y-11418966D01*
X-17075633Y-11407840D01*
X-17070416Y-11328247D01*
X-17074445Y-11316378D01*
X-17087593Y-11277644D01*
X-17087595Y-11277640D01*
X-17089583Y-11271783D01*
X-17171996Y-11129039D01*
X-17188734Y-11060045D01*
X-17165514Y-10992953D01*
X-17151972Y-10976945D01*
X-17124540Y-10949513D01*
X-17122511Y-10947762D01*
X-17117731Y-10945425D01*
X-17084415Y-10909510D01*
X-17081159Y-10906131D01*
X-17067752Y-10892724D01*
X-17065022Y-10888745D01*
X-17062714Y-10886116D01*
X-17041599Y-10863354D01*
X-17037288Y-10852547D01*
X-17034762Y-10848552D01*
X-17028999Y-10837758D01*
X-17027088Y-10833446D01*
X-17020508Y-10823854D01*
X-17014817Y-10799873D01*
X-17009252Y-10782276D01*
X-17003412Y-10767638D01*
X-17003411Y-10767635D01*
X-17000117Y-10759378D01*
X-16999500Y-10753085D01*
X-16999500Y-10750006D01*
X-16999350Y-10746933D01*
X-16999134Y-10746944D01*
X-16997802Y-10735569D01*
X-16997346Y-10726254D01*
X-16994660Y-10714934D01*
X-16998349Y-10687827D01*
X-16999500Y-10670836D01*
X-16999500Y-8610980D01*
X-8162640Y-8610980D01*
X-8142002Y-8767742D01*
X-8081494Y-8913821D01*
X-7985240Y-9039262D01*
X-7859799Y-9135516D01*
X-7713720Y-9196024D01*
X-7556958Y-9216662D01*
X-7548770Y-9215584D01*
X-7408384Y-9197102D01*
X-7400196Y-9196024D01*
X-7254117Y-9135516D01*
X-7128676Y-9039262D01*
X-7032422Y-8913821D01*
X-6971914Y-8767742D01*
X-6951276Y-8610980D01*
X-6971914Y-8454218D01*
X-7032422Y-8308139D01*
X-7128676Y-8182698D01*
X-7254117Y-8086444D01*
X-7400196Y-8025936D01*
X-7536054Y-8008050D01*
X-841513Y-8008050D01*
X-841452Y-8008057D01*
X-841364Y-8006935D01*
X-841513Y-8008050D01*
X-7536054Y-8008050D01*
X-7556958Y-8005298D01*
X-7713720Y-8025936D01*
X-7859799Y-8086444D01*
X-7985240Y-8182698D01*
X-8081494Y-8308139D01*
X-8142002Y-8454218D01*
X-8162640Y-8610980D01*
X-16999500Y-8610980D01*
X-16999500Y-6650000D01*
X-8405682Y-6650000D01*
X-8385044Y-6806762D01*
X-8324536Y-6952841D01*
X-8276815Y-7015032D01*
X-8242454Y-7059812D01*
X-8228282Y-7078282D01*
X-8102841Y-7174536D01*
X-7956762Y-7235044D01*
X-7800000Y-7255682D01*
X-7791812Y-7254604D01*
X-7651426Y-7236122D01*
X-7643238Y-7235044D01*
X-7497159Y-7174536D01*
X-7371718Y-7078282D01*
X-7357545Y-7059812D01*
X-7323185Y-7015032D01*
X-7275464Y-6952841D01*
X-7214956Y-6806762D01*
X-7194318Y-6650000D01*
X-7214956Y-6493238D01*
X-7275464Y-6347159D01*
X-7371718Y-6221718D01*
X-7380599Y-6214903D01*
X-7490608Y-6130491D01*
X-7497159Y-6125464D01*
X-7643238Y-6064956D01*
X-7800000Y-6044318D01*
X-7956762Y-6064956D01*
X-8102841Y-6125464D01*
X-8109392Y-6130491D01*
X-8219400Y-6214903D01*
X-8228282Y-6221718D01*
X-8324536Y-6347159D01*
X-8385044Y-6493238D01*
X-8405682Y-6650000D01*
X-16999500Y-6650000D01*
X-16999500Y-5800000D01*
X-15305682Y-5800000D01*
X-15285044Y-5956762D01*
X-15224536Y-6102841D01*
X-15128282Y-6228282D01*
X-15002841Y-6324536D01*
X-14856762Y-6385044D01*
X-14700000Y-6405682D01*
X-14691812Y-6404604D01*
X-14551426Y-6386122D01*
X-14543238Y-6385044D01*
X-14397159Y-6324536D01*
X-14271718Y-6228282D01*
X-14175464Y-6102841D01*
X-14114956Y-5956762D01*
X-14094318Y-5800000D01*
X-14108434Y-5692775D01*
X-14113878Y-5651426D01*
X-14114956Y-5643238D01*
X-14175464Y-5497159D01*
X-14243941Y-5407918D01*
X-14266695Y-5378264D01*
X-14271718Y-5371718D01*
X-14397159Y-5275464D01*
X-14543238Y-5214956D01*
X-14700000Y-5194318D01*
X-14856762Y-5214956D01*
X-15002841Y-5275464D01*
X-15128282Y-5371718D01*
X-15133305Y-5378264D01*
X-15156059Y-5407918D01*
X-15224536Y-5497159D01*
X-15285044Y-5643238D01*
X-15286122Y-5651426D01*
X-15291566Y-5692775D01*
X-15305682Y-5800000D01*
X-16999500Y-5800000D01*
X-16999500Y-5776866D01*
X-16999304Y-5774193D01*
X-16997575Y-5769158D01*
X-16999411Y-5720245D01*
X-16999500Y-5715519D01*
X-16999500Y-5696552D01*
X-17000382Y-5691817D01*
X-17000610Y-5688291D01*
X-17001338Y-5668915D01*
X-17001774Y-5657292D01*
X-17006364Y-5646607D01*
X-17007401Y-5642007D01*
X-17010962Y-5630286D01*
X-17012661Y-5625883D01*
X-17014791Y-5614447D01*
X-17027728Y-5593459D01*
X-17036231Y-5577089D01*
X-17042451Y-5562612D01*
X-17042453Y-5562608D01*
X-17045964Y-5554437D01*
X-17049978Y-5549551D01*
X-17052163Y-5547366D01*
X-17054215Y-5545103D01*
X-17054055Y-5544958D01*
X-17061175Y-5535951D01*
X-17067427Y-5529056D01*
X-17073532Y-5519152D01*
X-17095320Y-5502584D01*
X-17108139Y-5491390D01*
X-17695904Y-4903625D01*
X-17729930Y-4841313D01*
X-17731731Y-4798084D01*
X-17723176Y-4733106D01*
X-17718818Y-4700000D01*
X-17739456Y-4543238D01*
X-17799964Y-4397159D01*
X-17896218Y-4271718D01*
X-18021659Y-4175464D01*
X-18167738Y-4114956D01*
X-18324500Y-4094318D01*
X-18481262Y-4114956D01*
X-18627341Y-4175464D01*
X-18752782Y-4271718D01*
X-18849036Y-4397159D01*
X-18909544Y-4543238D01*
X-18930182Y-4700000D01*
X-18909544Y-4856762D01*
X-18849036Y-5002841D01*
X-18752782Y-5128282D01*
X-18627341Y-5224536D01*
X-18481262Y-5285044D01*
X-18473074Y-5286122D01*
X-18402881Y-5295363D01*
X-18324500Y-5305682D01*
X-18226416Y-5292769D01*
X-18156268Y-5303708D01*
X-18120875Y-5328596D01*
X-17637405Y-5812066D01*
X-17603379Y-5874378D01*
X-17600500Y-5901161D01*
X-17600500Y-9543035D01*
X-17620502Y-9611156D01*
X-17669009Y-9653187D01*
X-17668654Y-9653802D01*
X-17671843Y-9655643D01*
X-17674158Y-9657649D01*
X-17677667Y-9659006D01*
X-18639468Y-10214302D01*
X-18708463Y-10231040D01*
X-18775555Y-10207820D01*
X-18811587Y-10168183D01*
X-19002587Y-9837362D01*
X-19352466Y-9231354D01*
X-19369347Y-9168354D01*
X-19369347Y-8956275D01*
X-18922766Y-8956275D01*
X-18920373Y-8963762D01*
X-18571705Y-9567674D01*
X-18560210Y-9578634D01*
X-18558403Y-9578982D01*
X-18550915Y-9576589D01*
X-17938342Y-9222920D01*
X-17927382Y-9211425D01*
X-17927034Y-9209618D01*
X-17929427Y-9202130D01*
X-18055500Y-8983769D01*
X-18059204Y-8978085D01*
X-18089437Y-8936775D01*
X-18100202Y-8925382D01*
X-18199530Y-8843649D01*
X-18214722Y-8834411D01*
X-18332010Y-8784263D01*
X-18349172Y-8779664D01*
X-18475824Y-8764450D01*
X-18493597Y-8764853D01*
X-18620486Y-8785972D01*
X-18635505Y-8790456D01*
X-18682327Y-8811108D01*
X-18688404Y-8814192D01*
X-18911457Y-8942972D01*
X-18922417Y-8954467D01*
X-18922766Y-8956275D01*
X-19369347Y-8956275D01*
X-19369347Y-7381863D01*
X-19349345Y-7313742D01*
X-19332442Y-7292768D01*
X-18879536Y-6839862D01*
X-18817224Y-6805836D01*
X-18764073Y-6807101D01*
X-18764021Y-6806707D01*
X-18607259Y-6827345D01*
X-18599071Y-6826267D01*
X-18458685Y-6807785D01*
X-18450497Y-6806707D01*
X-18304418Y-6746199D01*
X-18215177Y-6677722D01*
X-18185523Y-6654968D01*
X-18178977Y-6649945D01*
X-18171129Y-6639718D01*
X-18101129Y-6548491D01*
X-18082723Y-6524504D01*
X-18022215Y-6378425D01*
X-18001577Y-6221663D01*
X-18022215Y-6064901D01*
X-18082723Y-5918822D01*
X-18151200Y-5829581D01*
X-18173954Y-5799927D01*
X-18178977Y-5793381D01*
X-18304418Y-5697127D01*
X-18450497Y-5636619D01*
X-18607259Y-5615981D01*
X-18764021Y-5636619D01*
X-18910100Y-5697127D01*
X-19035541Y-5793381D01*
X-19040564Y-5799927D01*
X-19063318Y-5829581D01*
X-19131795Y-5918822D01*
X-19192303Y-6064901D01*
X-19193381Y-6073089D01*
X-19212051Y-6214903D01*
X-19240773Y-6279830D01*
X-19247878Y-6287552D01*
X-19911062Y-6950736D01*
X-19919166Y-6958163D01*
X-19948041Y-6982392D01*
X-19953554Y-6991941D01*
X-19966886Y-7015032D01*
X-19972792Y-7024303D01*
X-19994401Y-7055163D01*
X-19997255Y-7065813D01*
X-19998732Y-7068981D01*
X-19999924Y-7072257D01*
X-20005435Y-7081802D01*
X-20011385Y-7115546D01*
X-20011977Y-7118905D01*
X-20014355Y-7129632D01*
X-20024111Y-7166040D01*
X-20023150Y-7177025D01*
X-20023150Y-7177027D01*
X-20020827Y-7203575D01*
X-20020347Y-7214557D01*
X-20020347Y-9865513D01*
X-20040349Y-9933634D01*
X-20083347Y-9974632D01*
X-20417760Y-10167706D01*
X-20422410Y-10171784D01*
X-20453261Y-10198839D01*
X-20453263Y-10198841D01*
X-20462591Y-10207022D01*
X-20497870Y-10278560D01*
X-20503087Y-10358153D01*
X-38634375Y-10358153D01*
X-38635107Y-10355683D01*
X-38636813Y-10349316D01*
X-38912239Y-9202130D01*
X-39124160Y-8319450D01*
X-39125529Y-8313011D01*
X-39126431Y-8308139D01*
X-39356259Y-7068000D01*
X-30964682Y-7068000D01*
X-30944044Y-7224762D01*
X-30883536Y-7370841D01*
X-30787282Y-7496282D01*
X-30780736Y-7501305D01*
X-30761262Y-7516248D01*
X-30661841Y-7592536D01*
X-30515762Y-7653044D01*
X-30507574Y-7654122D01*
X-30485660Y-7657007D01*
X-30359000Y-7673682D01*
X-30350812Y-7672604D01*
X-30210426Y-7654122D01*
X-30202238Y-7653044D01*
X-30056159Y-7592536D01*
X-29956738Y-7516248D01*
X-29937264Y-7501305D01*
X-29930718Y-7496282D01*
X-29834464Y-7370841D01*
X-29773956Y-7224762D01*
X-29753318Y-7068000D01*
X-29773956Y-6911238D01*
X-29834464Y-6765159D01*
X-29902941Y-6675918D01*
X-29925695Y-6646264D01*
X-29930718Y-6639718D01*
X-30056159Y-6543464D01*
X-30202238Y-6482956D01*
X-30359000Y-6462318D01*
X-30515762Y-6482956D01*
X-30661841Y-6543464D01*
X-30787282Y-6639718D01*
X-30792305Y-6646264D01*
X-30815059Y-6675918D01*
X-30883536Y-6765159D01*
X-30944044Y-6911238D01*
X-30964682Y-7068000D01*
X-39356259Y-7068000D01*
X-39413597Y-6758608D01*
X-39505913Y-6260475D01*
X-39506945Y-6253965D01*
X-39779479Y-4184291D01*
X-39780169Y-4177726D01*
X-39841062Y-3403972D01*
X-27509654Y-3403972D01*
X-27489016Y-3560734D01*
X-27428508Y-3706813D01*
X-27332254Y-3832254D01*
X-27206813Y-3928508D01*
X-27060734Y-3989016D01*
X-26903972Y-4009654D01*
X-26895784Y-4008576D01*
X-26755398Y-3990094D01*
X-26747210Y-3989016D01*
X-26601131Y-3928508D01*
X-26475690Y-3832254D01*
X-26379436Y-3706813D01*
X-26318928Y-3560734D01*
X-26298290Y-3403972D01*
X-26315341Y-3274455D01*
X-26317850Y-3255398D01*
X-26318928Y-3247210D01*
X-26379436Y-3101131D01*
X-26475690Y-2975690D01*
X-26578070Y-2897131D01*
X-15981182Y-2897131D01*
X-15960544Y-3053893D01*
X-15900036Y-3199972D01*
X-15803782Y-3325413D01*
X-15678341Y-3421667D01*
X-15532262Y-3482175D01*
X-15375500Y-3502813D01*
X-15367312Y-3501735D01*
X-15226926Y-3483253D01*
X-15218738Y-3482175D01*
X-15072659Y-3421667D01*
X-14947218Y-3325413D01*
X-14850964Y-3199972D01*
X-14790456Y-3053893D01*
X-14769818Y-2897131D01*
X-14790456Y-2740369D01*
X-14850964Y-2594290D01*
X-14932488Y-2488045D01*
X-14942195Y-2475395D01*
X-14947218Y-2468849D01*
X-15072659Y-2372595D01*
X-15218738Y-2312087D01*
X-15375500Y-2291449D01*
X-15532262Y-2312087D01*
X-15678341Y-2372595D01*
X-15803782Y-2468849D01*
X-15808805Y-2475395D01*
X-15818512Y-2488045D01*
X-15900036Y-2594290D01*
X-15960544Y-2740369D01*
X-15981182Y-2897131D01*
X-26578070Y-2897131D01*
X-26601131Y-2879436D01*
X-26747210Y-2818928D01*
X-26903972Y-2798290D01*
X-27060734Y-2818928D01*
X-27206813Y-2879436D01*
X-27332254Y-2975690D01*
X-27428508Y-3101131D01*
X-27489016Y-3247210D01*
X-27490094Y-3255398D01*
X-27492603Y-3274455D01*
X-27509654Y-3403972D01*
X-39841062Y-3403972D01*
X-39943944Y-2096684D01*
X-39944289Y-2090096D01*
X-39946961Y-1988000D01*
X-29567682Y-1988000D01*
X-29547044Y-2144762D01*
X-29486536Y-2290841D01*
X-29390282Y-2416282D01*
X-29264841Y-2512536D01*
X-29118762Y-2573044D01*
X-28962000Y-2593682D01*
X-28953812Y-2592604D01*
X-28813426Y-2574122D01*
X-28805238Y-2573044D01*
X-28659159Y-2512536D01*
X-28533718Y-2416282D01*
X-28437464Y-2290841D01*
X-28376956Y-2144762D01*
X-28356318Y-1988000D01*
X-28375211Y-1844490D01*
X-28375878Y-1839426D01*
X-28376956Y-1831238D01*
X-28437464Y-1685159D01*
X-28533718Y-1559718D01*
X-28659159Y-1463464D01*
X-28805238Y-1402956D01*
X-28962000Y-1382318D01*
X-29118762Y-1402956D01*
X-29264841Y-1463464D01*
X-29390282Y-1559718D01*
X-29486536Y-1685159D01*
X-29547044Y-1831238D01*
X-29548122Y-1839426D01*
X-29548789Y-1844490D01*
X-29567682Y-1988000D01*
X-39946961Y-1988000D01*
X-39984603Y-550000D01*
X-29355682Y-550000D01*
X-29335044Y-706762D01*
X-29274536Y-852841D01*
X-29178282Y-978282D01*
X-29171736Y-983305D01*
X-29149873Y-1000081D01*
X-29052841Y-1074536D01*
X-28906762Y-1135044D01*
X-28898574Y-1136122D01*
X-28828381Y-1145363D01*
X-28750000Y-1155682D01*
X-28741812Y-1154604D01*
X-28601426Y-1136122D01*
X-28593238Y-1135044D01*
X-28447159Y-1074536D01*
X-28362676Y-1009710D01*
X-28296456Y-984110D01*
X-28226907Y-998375D01*
X-28177249Y-1046291D01*
X-28174536Y-1052841D01*
X-28078282Y-1178282D01*
X-27952841Y-1274536D01*
X-27863189Y-1311671D01*
X-27816189Y-1331139D01*
X-27806762Y-1335044D01*
X-27650000Y-1355682D01*
X-27641812Y-1354604D01*
X-27501426Y-1336122D01*
X-27493238Y-1335044D01*
X-27483810Y-1331139D01*
X-27436811Y-1311671D01*
X-27347159Y-1274536D01*
X-27221718Y-1178282D01*
X-27125464Y-1052841D01*
X-27064956Y-906762D01*
X-27044318Y-750000D01*
X-27064956Y-593238D01*
X-27125464Y-447159D01*
X-27193941Y-357918D01*
X-27216695Y-328264D01*
X-27221718Y-321718D01*
X-27347159Y-225464D01*
X-27493238Y-164956D01*
X-27650000Y-144318D01*
X-27806762Y-164956D01*
X-27952841Y-225464D01*
X-27989153Y-253327D01*
X-28037324Y-290290D01*
X-28103544Y-315890D01*
X-28173093Y-301625D01*
X-28222751Y-253709D01*
X-28225464Y-247159D01*
X-28321718Y-121718D01*
X-28447159Y-25464D01*
X-28593238Y35044D01*
X-28750000Y55682D01*
X-28906762Y35044D01*
X-29052841Y-25464D01*
X-29178282Y-121718D01*
X-29274536Y-247159D01*
X-29335044Y-393238D01*
X-29355682Y-550000D01*
X-39984603Y-550000D01*
X-39998914Y-3285D01*
X-39998914Y3297D01*
X-39998727Y10417D01*
X-39984551Y552000D01*
X-26900682Y552000D01*
X-26899604Y543812D01*
X-26883482Y421356D01*
X-26880044Y395238D01*
X-26819536Y249159D01*
X-26723282Y123718D01*
X-26597841Y27464D01*
X-26451762Y-33044D01*
X-26295000Y-53682D01*
X-26286812Y-52604D01*
X-26146426Y-34122D01*
X-26138238Y-33044D01*
X-26058557Y-39D01*
X-23851020Y-39D01*
X-23850984Y-188D01*
X-23789793Y-386397D01*
X-23789781Y-386549D01*
X-23789763Y-386584D01*
X-23789757Y-386624D01*
X-23789673Y-386760D01*
X-23612206Y-735155D01*
X-23612147Y-735296D01*
X-23612120Y-735323D01*
X-23612101Y-735360D01*
X-23611979Y-735464D01*
X-23502208Y-845211D01*
X-23355203Y-992183D01*
X-23335430Y-1011952D01*
X-23335330Y-1012069D01*
X-23335295Y-1012087D01*
X-23335267Y-1012115D01*
X-23335121Y-1012176D01*
X-22986784Y-1189695D01*
X-22986652Y-1189776D01*
X-22986613Y-1189782D01*
X-22986578Y-1189800D01*
X-22986424Y-1189812D01*
X-22600189Y-1250983D01*
X-22600040Y-1251019D01*
X-22600001Y-1251013D01*
X-22599962Y-1251019D01*
X-22599813Y-1250983D01*
X-22213576Y-1189812D01*
X-22213422Y-1189800D01*
X-22213387Y-1189782D01*
X-22213348Y-1189776D01*
X-22213216Y-1189695D01*
X-21864879Y-1012176D01*
X-21864733Y-1012115D01*
X-21864705Y-1012087D01*
X-21864670Y-1012069D01*
X-21864570Y-1011952D01*
X-21852576Y-999961D01*
X-13501019Y-999961D01*
X-13501000Y-1000081D01*
X-13501000Y-1000198D01*
X-13500970Y-1000270D01*
X-13449594Y-1324595D01*
X-13449582Y-1324747D01*
X-13449564Y-1324782D01*
X-13449558Y-1324822D01*
X-13449474Y-1324958D01*
X-13443788Y-1336120D01*
X-13443787Y-1336123D01*
X-13329887Y-1559718D01*
X-13300408Y-1617589D01*
X-13300347Y-1617735D01*
X-13300319Y-1617763D01*
X-13300301Y-1617798D01*
X-13300183Y-1617899D01*
X-13288735Y-1629347D01*
X-13104534Y-1813551D01*
X-13067930Y-1850156D01*
X-13067830Y-1850273D01*
X-13067795Y-1850291D01*
X-13067767Y-1850319D01*
X-13067621Y-1850380D01*
X-12952904Y-1908831D01*
X-12786175Y-1993785D01*
X-12786172Y-1993786D01*
X-12774983Y-1999487D01*
X-12774852Y-1999568D01*
X-12774813Y-1999574D01*
X-12774778Y-1999592D01*
X-12774624Y-1999604D01*
X-12762052Y-2001595D01*
X-12466893Y-2048337D01*
X-12466892Y-2048337D01*
X-12450189Y-2050982D01*
X-12450040Y-2051018D01*
X-12450001Y-2051012D01*
X-12449962Y-2051018D01*
X-12449813Y-2050982D01*
X-12125376Y-1999604D01*
X-12125222Y-1999592D01*
X-12125187Y-1999574D01*
X-12125148Y-1999568D01*
X-12125015Y-1999487D01*
X-11832379Y-1850380D01*
X-11832233Y-1850319D01*
X-11832205Y-1850291D01*
X-11832170Y-1850273D01*
X-11832070Y-1850156D01*
X-11805523Y-1823609D01*
X-11611926Y-1630007D01*
X-11599817Y-1617898D01*
X-11599700Y-1617798D01*
X-11599682Y-1617763D01*
X-11599654Y-1617735D01*
X-11599593Y-1617589D01*
X-11450528Y-1324958D01*
X-11450444Y-1324822D01*
X-11450438Y-1324782D01*
X-11450420Y-1324747D01*
X-11450408Y-1324595D01*
X-11399030Y-1000270D01*
X-11399000Y-1000198D01*
X-11399000Y-1000081D01*
X-11398981Y-999961D01*
X-11399000Y-999882D01*
X-11399000Y-902001D01*
X-11378998Y-833880D01*
X-11325342Y-787387D01*
X-11273000Y-776001D01*
X-8126026Y-776001D01*
X-8057905Y-796003D01*
X-8011412Y-849659D01*
X-8001104Y-885554D01*
X-7967547Y-1140441D01*
X-7951904Y-1259264D01*
X-7953046Y-1259414D01*
X-7953033Y-1259497D01*
X-7951909Y-1259288D01*
X-7951880Y-1259444D01*
X-7951856Y-1259627D01*
X-7952989Y-1259776D01*
X-7952976Y-1259862D01*
X-7951842Y-1259652D01*
X-7875206Y-1673165D01*
X-7875108Y-1673696D01*
X-7875112Y-1673731D01*
X-7875069Y-1673909D01*
X-7875040Y-1674067D01*
X-7875148Y-1674087D01*
X-7875151Y-1674118D01*
X-7875026Y-1674088D01*
X-7776712Y-2083555D01*
X-7777933Y-2083848D01*
X-7777909Y-2083937D01*
X-7776715Y-2083582D01*
X-7776666Y-2083747D01*
X-7776626Y-2083914D01*
X-7777838Y-2084204D01*
X-7777814Y-2084293D01*
X-7776610Y-2083936D01*
X-7657007Y-2487711D01*
X-7658133Y-2488045D01*
X-7658106Y-2488126D01*
X-7657008Y-2487737D01*
X-7656952Y-2487895D01*
X-7656902Y-2488064D01*
X-7658018Y-2488394D01*
X-7657991Y-2488477D01*
X-7656885Y-2488085D01*
X-7516320Y-2885031D01*
X-7517642Y-2885499D01*
X-7517607Y-2885591D01*
X-7516320Y-2885060D01*
X-7516249Y-2885232D01*
X-7516196Y-2885381D01*
X-7517507Y-2885847D01*
X-7517472Y-2885935D01*
X-7516179Y-2885399D01*
X-7355032Y-3274455D01*
X-7356143Y-3274915D01*
X-7355959Y-3275333D01*
X-7354872Y-3274815D01*
X-7173576Y-3654898D01*
X-7174610Y-3655391D01*
X-7174571Y-3655468D01*
X-7173573Y-3654924D01*
X-7173494Y-3655069D01*
X-7173417Y-3655231D01*
X-7174442Y-3655718D01*
X-7174402Y-3655796D01*
X-7173396Y-3655250D01*
X-6972461Y-4025330D01*
X-6973648Y-4025975D01*
X-6973604Y-4026051D01*
X-6972457Y-4025355D01*
X-6972372Y-4025495D01*
X-6972286Y-4025652D01*
X-6973463Y-4026296D01*
X-6973417Y-4026376D01*
X-6972264Y-4025670D01*
X-6752243Y-4384715D01*
X-6753226Y-4385317D01*
X-6753179Y-4385389D01*
X-6752237Y-4384741D01*
X-6752140Y-4384882D01*
X-6752050Y-4385029D01*
X-6753024Y-4385625D01*
X-6752977Y-4385697D01*
X-6752028Y-4385045D01*
X-6513510Y-4732094D01*
X-6514592Y-4732838D01*
X-6514537Y-4732914D01*
X-6513503Y-4732122D01*
X-6513392Y-4732267D01*
X-6513301Y-4732399D01*
X-6514376Y-4733140D01*
X-6514323Y-4733213D01*
X-6513280Y-4732413D01*
X-6256917Y-5066502D01*
X-6257825Y-5067199D01*
X-6257540Y-5067552D01*
X-6256669Y-5066808D01*
X-5983191Y-5387020D01*
X-5984150Y-5387839D01*
X-5984090Y-5387906D01*
X-5983181Y-5387046D01*
X-5983059Y-5387175D01*
X-5982951Y-5387301D01*
X-5983902Y-5388116D01*
X-5983843Y-5388181D01*
X-5982928Y-5387313D01*
X-5693055Y-5692775D01*
X-5693924Y-5693600D01*
X-5693601Y-5693923D01*
X-5692776Y-5693054D01*
X-5387315Y-5982925D01*
X-5388160Y-5983815D01*
X-5388092Y-5983876D01*
X-5387302Y-5982950D01*
X-5387166Y-5983066D01*
X-5387046Y-5983180D01*
X-5387884Y-5984062D01*
X-5387818Y-5984121D01*
X-5387022Y-5983189D01*
X-5066809Y-6256668D01*
X-5067552Y-6257538D01*
X-5067199Y-6257823D01*
X-5066503Y-6256916D01*
X-4732416Y-6513277D01*
X-4733180Y-6514273D01*
X-4733107Y-6514326D01*
X-4732401Y-6513300D01*
X-4732260Y-6513397D01*
X-4732123Y-6513502D01*
X-4732881Y-6514491D01*
X-4732808Y-6514544D01*
X-4732097Y-6513509D01*
X-4385045Y-6752028D01*
X-4385713Y-6753000D01*
X-4385332Y-6753249D01*
X-4384715Y-6752242D01*
X-4025669Y-6972264D01*
X-4026406Y-6973466D01*
X-4026324Y-6973513D01*
X-4025653Y-6972284D01*
X-4025510Y-6972362D01*
X-4025356Y-6972456D01*
X-4026085Y-6973650D01*
X-4026001Y-6973699D01*
X-4025328Y-6972460D01*
X-3655248Y-7173397D01*
X-3655792Y-7174399D01*
X-3655389Y-7174605D01*
X-3654898Y-7173575D01*
X-3274817Y-7354870D01*
X-3275422Y-7356139D01*
X-3275334Y-7356177D01*
X-3274797Y-7354890D01*
X-3274634Y-7354958D01*
X-3274482Y-7355030D01*
X-3275079Y-7356290D01*
X-3274993Y-7356328D01*
X-3274456Y-7355031D01*
X-2885401Y-7516178D01*
X-2885381Y-7516196D01*
X-2885222Y-7516252D01*
X-2885061Y-7516319D01*
X-2885084Y-7516374D01*
X-2885060Y-7516392D01*
X-2885034Y-7516319D01*
X-2488086Y-7656884D01*
X-2488478Y-7657990D01*
X-2488395Y-7658017D01*
X-2488065Y-7656901D01*
X-2487896Y-7656951D01*
X-2487738Y-7657007D01*
X-2488127Y-7658105D01*
X-2488046Y-7658132D01*
X-2487712Y-7657006D01*
X-2083937Y-7776609D01*
X-2084294Y-7777813D01*
X-2084205Y-7777837D01*
X-2083915Y-7776625D01*
X-2083748Y-7776665D01*
X-2083583Y-7776714D01*
X-2083938Y-7777908D01*
X-2083849Y-7777932D01*
X-2083556Y-7776711D01*
X-1674089Y-7875025D01*
X-1674364Y-7876170D01*
X-1674186Y-7876209D01*
X-1673910Y-7875068D01*
X-1673732Y-7875111D01*
X-1673704Y-7875107D01*
X-1270116Y-7949902D01*
X-1259653Y-7951841D01*
X-1259863Y-7952975D01*
X-1259777Y-7952988D01*
X-1259628Y-7951855D01*
X-1259445Y-7951879D01*
X-1259289Y-7951908D01*
X-1259498Y-7953032D01*
X-1259415Y-7953045D01*
X-1259265Y-7951903D01*
X-841754Y-8006870D01*
X-841764Y-8006949D01*
X-841476Y-8006906D01*
X-841388Y-8006918D01*
X-841387Y-8006918D01*
X-841363Y-8006921D01*
X-841362Y-8006911D01*
X-446734Y-8037971D01*
X-421552Y-8039953D01*
X-421583Y-8040346D01*
X-421166Y-8040274D01*
X-421158Y-8039974D01*
X-197Y-8050994D01*
X-236Y-8052472D01*
X-138Y-8052472D01*
X-172Y-8051004D01*
X-1Y-8051000D01*
X171Y-8051004D01*
X137Y-8052472D01*
X235Y-8052472D01*
X196Y-8050994D01*
X421157Y-8039974D01*
X421166Y-8040305D01*
X421585Y-8040388D01*
X421551Y-8039953D01*
X841361Y-8006911D01*
X841453Y-8008082D01*
X841541Y-8008073D01*
X841387Y-8006918D01*
X841560Y-8006895D01*
X841728Y-8006882D01*
X841818Y-8008044D01*
X841905Y-8008035D01*
X841752Y-8006870D01*
X1259264Y-7951903D01*
X1259414Y-7953045D01*
X1259497Y-7953032D01*
X1259288Y-7951908D01*
X1259444Y-7951879D01*
X1259627Y-7951855D01*
X1259776Y-7952988D01*
X1259862Y-7952975D01*
X1259652Y-7951841D01*
X1270115Y-7949902D01*
X1673697Y-7875107D01*
X1673729Y-7875111D01*
X1673732Y-7875111D01*
X1673909Y-7875068D01*
X1674067Y-7875039D01*
X1674087Y-7875147D01*
X1674118Y-7875150D01*
X1674088Y-7875025D01*
X2083555Y-7776711D01*
X2083848Y-7777932D01*
X2083937Y-7777908D01*
X2083582Y-7776714D01*
X2083747Y-7776665D01*
X2083914Y-7776625D01*
X2084204Y-7777837D01*
X2084293Y-7777813D01*
X2083936Y-7776609D01*
X2487711Y-7657006D01*
X2488045Y-7658132D01*
X2488126Y-7658105D01*
X2487737Y-7657007D01*
X2487895Y-7656951D01*
X2488064Y-7656901D01*
X2488394Y-7658017D01*
X2488477Y-7657990D01*
X2488085Y-7656884D01*
X2885031Y-7516319D01*
X2885499Y-7517641D01*
X2885591Y-7517606D01*
X2885060Y-7516319D01*
X2885232Y-7516248D01*
X2885381Y-7516195D01*
X2885847Y-7517506D01*
X2885935Y-7517471D01*
X2885399Y-7516178D01*
X3274455Y-7355031D01*
X3274915Y-7356142D01*
X3275333Y-7355958D01*
X3274815Y-7354871D01*
X3654898Y-7173575D01*
X3655391Y-7174609D01*
X3655468Y-7174570D01*
X3654924Y-7173572D01*
X3655069Y-7173493D01*
X3655231Y-7173416D01*
X3655718Y-7174441D01*
X3655796Y-7174401D01*
X3655250Y-7173395D01*
X4025330Y-6972460D01*
X4025975Y-6973647D01*
X4026051Y-6973603D01*
X4025355Y-6972456D01*
X4025495Y-6972371D01*
X4025652Y-6972285D01*
X4026296Y-6973462D01*
X4026376Y-6973416D01*
X4025670Y-6972263D01*
X4384715Y-6752242D01*
X4385317Y-6753225D01*
X4385389Y-6753178D01*
X4384741Y-6752236D01*
X4384882Y-6752139D01*
X4385029Y-6752049D01*
X4385625Y-6753023D01*
X4385697Y-6752976D01*
X4385045Y-6752027D01*
X4732094Y-6513509D01*
X4732838Y-6514591D01*
X4732914Y-6514536D01*
X4732122Y-6513502D01*
X4732267Y-6513391D01*
X4732399Y-6513300D01*
X4733140Y-6514375D01*
X4733213Y-6514322D01*
X4732413Y-6513279D01*
X4808391Y-6454977D01*
X14699295Y-6454977D01*
X14719933Y-6611739D01*
X14780441Y-6757818D01*
X14876695Y-6883259D01*
X15002136Y-6979513D01*
X15148215Y-7040021D01*
X15304977Y-7060659D01*
X15313165Y-7059581D01*
X15453551Y-7041099D01*
X15461739Y-7040021D01*
X15607818Y-6979513D01*
X15733259Y-6883259D01*
X15829513Y-6757818D01*
X15890021Y-6611739D01*
X15910659Y-6454977D01*
X15890021Y-6298215D01*
X15829513Y-6152136D01*
X15761036Y-6062895D01*
X15738282Y-6033241D01*
X15733259Y-6026695D01*
X15607818Y-5930441D01*
X15461739Y-5869933D01*
X15304977Y-5849295D01*
X15148215Y-5869933D01*
X15002136Y-5930441D01*
X14876695Y-6026695D01*
X14871672Y-6033241D01*
X14848918Y-6062895D01*
X14780441Y-6152136D01*
X14719933Y-6298215D01*
X14699295Y-6454977D01*
X4808391Y-6454977D01*
X5066502Y-6256916D01*
X5067199Y-6257824D01*
X5067552Y-6257539D01*
X5066808Y-6256668D01*
X5387020Y-5983190D01*
X5387839Y-5984149D01*
X5387906Y-5984089D01*
X5387046Y-5983180D01*
X5387175Y-5983058D01*
X5387301Y-5982950D01*
X5388116Y-5983901D01*
X5388181Y-5983842D01*
X5387313Y-5982927D01*
X5692775Y-5693054D01*
X5693600Y-5693923D01*
X5693923Y-5693600D01*
X5693054Y-5692775D01*
X5982925Y-5387314D01*
X5983815Y-5388159D01*
X5983876Y-5388091D01*
X5982950Y-5387301D01*
X5983066Y-5387165D01*
X5983180Y-5387045D01*
X5984062Y-5387883D01*
X5984121Y-5387817D01*
X5983189Y-5387021D01*
X6256668Y-5066808D01*
X6257538Y-5067551D01*
X6257823Y-5067198D01*
X6256916Y-5066502D01*
X6513277Y-4732415D01*
X6514273Y-4733179D01*
X6514326Y-4733106D01*
X6513300Y-4732400D01*
X6513397Y-4732259D01*
X6513502Y-4732122D01*
X6514491Y-4732880D01*
X6514544Y-4732807D01*
X6513509Y-4732096D01*
X6604295Y-4600000D01*
X9594318Y-4600000D01*
X9614956Y-4756762D01*
X9675464Y-4902841D01*
X9771718Y-5028282D01*
X9897159Y-5124536D01*
X10043238Y-5185044D01*
X10200000Y-5205682D01*
X10208188Y-5204604D01*
X10348574Y-5186122D01*
X10356762Y-5185044D01*
X10502841Y-5124536D01*
X10628282Y-5028282D01*
X10724536Y-4902841D01*
X10744550Y-4854523D01*
X16098841Y-4854523D01*
X16119479Y-5011285D01*
X16179987Y-5157364D01*
X16276241Y-5282805D01*
X16401682Y-5379059D01*
X16547761Y-5439567D01*
X16704523Y-5460205D01*
X16712711Y-5459127D01*
X16853097Y-5440645D01*
X16861285Y-5439567D01*
X17007364Y-5379059D01*
X17132805Y-5282805D01*
X17229059Y-5157364D01*
X17289567Y-5011285D01*
X17310205Y-4854523D01*
X17294195Y-4732914D01*
X17290645Y-4705949D01*
X17289567Y-4697761D01*
X17229059Y-4551682D01*
X17132805Y-4426241D01*
X17007364Y-4329987D01*
X16861285Y-4269479D01*
X16840139Y-4266695D01*
X16712711Y-4249919D01*
X16704523Y-4248841D01*
X16696335Y-4249919D01*
X16568908Y-4266695D01*
X16547761Y-4269479D01*
X16401682Y-4329987D01*
X16276241Y-4426241D01*
X16179987Y-4551682D01*
X16119479Y-4697761D01*
X16118401Y-4705949D01*
X16114851Y-4732914D01*
X16098841Y-4854523D01*
X10744550Y-4854523D01*
X10785044Y-4756762D01*
X10805682Y-4600000D01*
X10785044Y-4443238D01*
X10724536Y-4297159D01*
X10628282Y-4171718D01*
X10502841Y-4075464D01*
X10356762Y-4014956D01*
X10200000Y-3994318D01*
X10043238Y-4014956D01*
X9897159Y-4075464D01*
X9771718Y-4171718D01*
X9675464Y-4297159D01*
X9614956Y-4443238D01*
X9594318Y-4600000D01*
X6604295Y-4600000D01*
X6752028Y-4385044D01*
X6753000Y-4385712D01*
X6753249Y-4385331D01*
X6752242Y-4384714D01*
X6972264Y-4025668D01*
X6973466Y-4026405D01*
X6973513Y-4026323D01*
X6972284Y-4025652D01*
X6972362Y-4025509D01*
X6972456Y-4025355D01*
X6973650Y-4026084D01*
X6973699Y-4026000D01*
X6972460Y-4025327D01*
X7121950Y-3750000D01*
X10994318Y-3750000D01*
X11014956Y-3906762D01*
X11075464Y-4052841D01*
X11171718Y-4178282D01*
X11178264Y-4183305D01*
X11207918Y-4206059D01*
X11297159Y-4274536D01*
X11443238Y-4335044D01*
X11600000Y-4355682D01*
X11608188Y-4354604D01*
X11748574Y-4336122D01*
X11756762Y-4335044D01*
X11902841Y-4274536D01*
X11992082Y-4206059D01*
X12021736Y-4183305D01*
X12028282Y-4178282D01*
X12124536Y-4052841D01*
X12185044Y-3906762D01*
X12205682Y-3750000D01*
X12185044Y-3593238D01*
X12124536Y-3447159D01*
X12028282Y-3321718D01*
X11902841Y-3225464D01*
X11756762Y-3164956D01*
X11600000Y-3144318D01*
X11443238Y-3164956D01*
X11297159Y-3225464D01*
X11171718Y-3321718D01*
X11075464Y-3447159D01*
X11014956Y-3593238D01*
X10994318Y-3750000D01*
X7121950Y-3750000D01*
X7173397Y-3655247D01*
X7174399Y-3655791D01*
X7174605Y-3655388D01*
X7173575Y-3654897D01*
X7354870Y-3274816D01*
X7356139Y-3275421D01*
X7356177Y-3275333D01*
X7354890Y-3274796D01*
X7354958Y-3274633D01*
X7355030Y-3274481D01*
X7356290Y-3275078D01*
X7356328Y-3274992D01*
X7355031Y-3274455D01*
X7376632Y-3222304D01*
X7516178Y-2885400D01*
X7516196Y-2885380D01*
X7516252Y-2885221D01*
X7516319Y-2885060D01*
X7516374Y-2885083D01*
X7516392Y-2885059D01*
X7516319Y-2885033D01*
X7656884Y-2488085D01*
X7657990Y-2488477D01*
X7658017Y-2488394D01*
X7656901Y-2488064D01*
X7656951Y-2487895D01*
X7657007Y-2487737D01*
X7658105Y-2488126D01*
X7658132Y-2488045D01*
X7657006Y-2487711D01*
X7776609Y-2083936D01*
X7777813Y-2084293D01*
X7777837Y-2084204D01*
X7776625Y-2083914D01*
X7776665Y-2083747D01*
X7776714Y-2083582D01*
X7777908Y-2083937D01*
X7777932Y-2083848D01*
X7776711Y-2083555D01*
X7875025Y-1674088D01*
X7876170Y-1674363D01*
X7876209Y-1674185D01*
X7875068Y-1673909D01*
X7875084Y-1673842D01*
X7875111Y-1673731D01*
X7875107Y-1673703D01*
X7876724Y-1664977D01*
X21429341Y-1664977D01*
X21449979Y-1821739D01*
X21510487Y-1967818D01*
X21606741Y-2093259D01*
X21732182Y-2189513D01*
X21878261Y-2250021D01*
X22035023Y-2270659D01*
X22043211Y-2269581D01*
X22183597Y-2251099D01*
X22191785Y-2250021D01*
X22337864Y-2189513D01*
X22463305Y-2093259D01*
X22559559Y-1967818D01*
X22620067Y-1821739D01*
X22640705Y-1664977D01*
X22620067Y-1508215D01*
X22559559Y-1362136D01*
X22481016Y-1259776D01*
X22468328Y-1243241D01*
X22463305Y-1236695D01*
X22337864Y-1140441D01*
X22191785Y-1079933D01*
X22150791Y-1074536D01*
X22043211Y-1060373D01*
X22035023Y-1059295D01*
X22026835Y-1060373D01*
X21919256Y-1074536D01*
X21878261Y-1079933D01*
X21732182Y-1140441D01*
X21606741Y-1236695D01*
X21601718Y-1243241D01*
X21589030Y-1259776D01*
X21510487Y-1362136D01*
X21449979Y-1508215D01*
X21429341Y-1664977D01*
X7876724Y-1664977D01*
X7951841Y-1259652D01*
X7952975Y-1259862D01*
X7952988Y-1259776D01*
X7951855Y-1259627D01*
X7951879Y-1259444D01*
X7951908Y-1259288D01*
X7953032Y-1259497D01*
X7953045Y-1259414D01*
X7951903Y-1259264D01*
X8006870Y-841753D01*
X8006949Y-841763D01*
X8006906Y-841473D01*
X8006921Y-841363D01*
X8006935Y-841363D01*
X8008050Y-841512D01*
X8008057Y-841451D01*
X8006935Y-841363D01*
X8006921Y-841363D01*
X8006921Y-841362D01*
X8006911Y-841361D01*
X8039953Y-421551D01*
X8040346Y-421582D01*
X8040274Y-421165D01*
X8039974Y-421157D01*
X8041837Y-350000D01*
X20144318Y-350000D01*
X20164956Y-506762D01*
X20225464Y-652841D01*
X20288755Y-735324D01*
X20300017Y-750000D01*
X20321718Y-778282D01*
X20328264Y-783305D01*
X20357918Y-806059D01*
X20447159Y-874536D01*
X20593238Y-935044D01*
X20750000Y-955682D01*
X20758188Y-954604D01*
X20898574Y-936122D01*
X20906762Y-935044D01*
X21052841Y-874536D01*
X21142082Y-806059D01*
X21171736Y-783305D01*
X21178282Y-778282D01*
X21199984Y-750000D01*
X21211245Y-735324D01*
X21274536Y-652841D01*
X21335044Y-506762D01*
X21355682Y-350000D01*
X21335044Y-193238D01*
X21274536Y-47159D01*
X21178282Y78282D01*
X21052841Y174536D01*
X20906762Y235044D01*
X20750000Y255682D01*
X20593238Y235044D01*
X20447159Y174536D01*
X20321718Y78282D01*
X20225464Y-47159D01*
X20164956Y-193238D01*
X20144318Y-350000D01*
X8041837Y-350000D01*
X8050994Y-196D01*
X8052472Y-235D01*
X8052472Y-137D01*
X8051004Y-171D01*
X8051000Y0D01*
X8051004Y171D01*
X8052472Y137D01*
X8052472Y235D01*
X8050994Y196D01*
X8039974Y421158D01*
X8040305Y421167D01*
X8040388Y421586D01*
X8039953Y421552D01*
X8006911Y841362D01*
X8007071Y841375D01*
X8007063Y841407D01*
X8006918Y841388D01*
X8006894Y841573D01*
X8007016Y841589D01*
X8006971Y841767D01*
X8006870Y841754D01*
X7951903Y1259265D01*
X7953045Y1259415D01*
X7953032Y1259498D01*
X7951908Y1259289D01*
X7951879Y1259445D01*
X7951855Y1259628D01*
X7952988Y1259777D01*
X7952975Y1259863D01*
X7951841Y1259653D01*
X7875107Y1673704D01*
X7875111Y1673732D01*
X7875068Y1673910D01*
X7876209Y1674186D01*
X7876170Y1674364D01*
X7875025Y1674089D01*
X7776711Y2083556D01*
X7777932Y2083849D01*
X7777908Y2083938D01*
X7776714Y2083583D01*
X7776665Y2083748D01*
X7776625Y2083915D01*
X7777837Y2084205D01*
X7777813Y2084294D01*
X7776609Y2083937D01*
X7657006Y2487712D01*
X7658132Y2488046D01*
X7658105Y2488127D01*
X7657007Y2487738D01*
X7656951Y2487896D01*
X7656901Y2488065D01*
X7658017Y2488395D01*
X7657990Y2488478D01*
X7656884Y2488086D01*
X7528725Y2850000D01*
X8644318Y2850000D01*
X8664956Y2693238D01*
X8725464Y2547159D01*
X8821718Y2421718D01*
X8947159Y2325464D01*
X9093238Y2264956D01*
X9250000Y2244318D01*
X9258188Y2245396D01*
X9398574Y2263878D01*
X9406762Y2264956D01*
X9552841Y2325464D01*
X9678282Y2421718D01*
X9774536Y2547159D01*
X9835044Y2693238D01*
X9855682Y2850000D01*
X9835044Y3006762D01*
X9774536Y3152841D01*
X9678282Y3278282D01*
X9552841Y3374536D01*
X9406762Y3435044D01*
X9250000Y3455682D01*
X9093238Y3435044D01*
X8947159Y3374536D01*
X8821718Y3278282D01*
X8725464Y3152841D01*
X8664956Y3006762D01*
X8644318Y2850000D01*
X7528725Y2850000D01*
X7516319Y2885034D01*
X7516329Y2885038D01*
X7516320Y2885061D01*
X7516319Y2885061D01*
X7516252Y2885222D01*
X7516196Y2885381D01*
X7516178Y2885401D01*
X7355031Y3274456D01*
X7356328Y3274993D01*
X7356290Y3275079D01*
X7355030Y3274482D01*
X7354958Y3274634D01*
X7354890Y3274797D01*
X7356177Y3275334D01*
X7356139Y3275422D01*
X7354870Y3274817D01*
X7173575Y3654898D01*
X7174605Y3655389D01*
X7174399Y3655792D01*
X7173397Y3655248D01*
X6972460Y4025328D01*
X6973699Y4026001D01*
X6973650Y4026085D01*
X6972456Y4025356D01*
X6972362Y4025510D01*
X6972284Y4025653D01*
X6973513Y4026324D01*
X6973466Y4026406D01*
X6972264Y4025669D01*
X6752242Y4384715D01*
X6753249Y4385332D01*
X6753000Y4385713D01*
X6752028Y4385045D01*
X6513509Y4732097D01*
X6514544Y4732808D01*
X6514491Y4732881D01*
X6513502Y4732123D01*
X6513397Y4732260D01*
X6513300Y4732401D01*
X6514326Y4733107D01*
X6514273Y4733180D01*
X6513277Y4732416D01*
X6256916Y5066503D01*
X6257823Y5067199D01*
X6257538Y5067552D01*
X6256668Y5066809D01*
X5983189Y5387022D01*
X5984121Y5387818D01*
X5984062Y5387884D01*
X5983180Y5387046D01*
X5983066Y5387166D01*
X5982950Y5387302D01*
X5983876Y5388092D01*
X5983815Y5388160D01*
X5982925Y5387315D01*
X5693054Y5692776D01*
X5693923Y5693601D01*
X5693600Y5693924D01*
X5692775Y5693055D01*
X5387313Y5982928D01*
X5388140Y5983800D01*
X5388076Y5983857D01*
X5387301Y5982951D01*
X5387169Y5983064D01*
X5387046Y5983181D01*
X5387867Y5984044D01*
X5387800Y5984105D01*
X5387020Y5983191D01*
X5066812Y6256669D01*
X5067556Y6257540D01*
X5067203Y6257825D01*
X5066506Y6256917D01*
X4732413Y6513280D01*
X4733213Y6514323D01*
X4733140Y6514376D01*
X4732399Y6513301D01*
X4732267Y6513392D01*
X4732122Y6513503D01*
X4732914Y6514537D01*
X4732838Y6514592D01*
X4732094Y6513510D01*
X4385045Y6752028D01*
X4385697Y6752977D01*
X4385625Y6753024D01*
X4385029Y6752050D01*
X4384882Y6752140D01*
X4384741Y6752237D01*
X4385389Y6753179D01*
X4385317Y6753226D01*
X4384715Y6752243D01*
X4025670Y6972264D01*
X4026376Y6973417D01*
X4026296Y6973463D01*
X4025652Y6972286D01*
X4025495Y6972372D01*
X4025355Y6972457D01*
X4026051Y6973604D01*
X4025975Y6973648D01*
X4025330Y6972461D01*
X3655250Y7173396D01*
X3655796Y7174402D01*
X3655718Y7174442D01*
X3655231Y7173417D01*
X3655069Y7173494D01*
X3654924Y7173573D01*
X3655468Y7174571D01*
X3655391Y7174610D01*
X3654898Y7173576D01*
X3274815Y7354872D01*
X3275333Y7355959D01*
X3274915Y7356143D01*
X3274455Y7355032D01*
X2885399Y7516179D01*
X2885935Y7517472D01*
X2885847Y7517507D01*
X2885381Y7516196D01*
X2885232Y7516249D01*
X2885060Y7516320D01*
X2885591Y7517607D01*
X2885499Y7517642D01*
X2885031Y7516320D01*
X2488085Y7656885D01*
X2488477Y7657991D01*
X2488394Y7658018D01*
X2488064Y7656902D01*
X2487895Y7656952D01*
X2487737Y7657008D01*
X2488126Y7658106D01*
X2488045Y7658133D01*
X2487711Y7657007D01*
X2083936Y7776610D01*
X2084293Y7777814D01*
X2084204Y7777838D01*
X2083914Y7776626D01*
X2083747Y7776666D01*
X2083582Y7776715D01*
X2083937Y7777909D01*
X2083848Y7777933D01*
X2083555Y7776712D01*
X1674088Y7875026D01*
X1674120Y7875160D01*
X1674088Y7875156D01*
X1674067Y7875040D01*
X1673909Y7875069D01*
X1673731Y7875112D01*
X1673697Y7875108D01*
X1259652Y7951842D01*
X1259862Y7952976D01*
X1259776Y7952989D01*
X1259627Y7951856D01*
X1259444Y7951880D01*
X1259288Y7951909D01*
X1259497Y7953033D01*
X1259414Y7953046D01*
X1259264Y7951904D01*
X841752Y8006871D01*
X841905Y8008036D01*
X841818Y8008045D01*
X841728Y8006883D01*
X841560Y8006896D01*
X841387Y8006919D01*
X841541Y8008074D01*
X841453Y8008083D01*
X841361Y8006912D01*
X421551Y8039954D01*
X421582Y8040347D01*
X421165Y8040275D01*
X421157Y8039975D01*
X196Y8050995D01*
X235Y8052473D01*
X137Y8052473D01*
X171Y8051005D01*
X0Y8051001D01*
X-172Y8051005D01*
X-138Y8052473D01*
X-236Y8052473D01*
X-197Y8050995D01*
X-421158Y8039975D01*
X-421167Y8040306D01*
X-421586Y8040389D01*
X-421552Y8039954D01*
X-841362Y8006912D01*
X-841363Y8006922D01*
X-841387Y8006919D01*
X-841388Y8006919D01*
X-841476Y8006907D01*
X-841765Y8006952D01*
X-841754Y8006871D01*
X-1259265Y7951904D01*
X-1259415Y7953046D01*
X-1259498Y7953033D01*
X-1259289Y7951909D01*
X-1259445Y7951880D01*
X-1259628Y7951856D01*
X-1259777Y7952989D01*
X-1259863Y7952976D01*
X-1259653Y7951842D01*
X-1673704Y7875108D01*
X-1673732Y7875112D01*
X-1673910Y7875069D01*
X-1674186Y7876210D01*
X-1674364Y7876171D01*
X-1674089Y7875026D01*
X-2083556Y7776712D01*
X-2083849Y7777933D01*
X-2083938Y7777909D01*
X-2083583Y7776715D01*
X-2083748Y7776666D01*
X-2083915Y7776626D01*
X-2084205Y7777838D01*
X-2084294Y7777814D01*
X-2083937Y7776610D01*
X-2487712Y7657007D01*
X-2488046Y7658133D01*
X-2488127Y7658106D01*
X-2487738Y7657008D01*
X-2487896Y7656952D01*
X-2488065Y7656902D01*
X-2488395Y7658018D01*
X-2488478Y7657991D01*
X-2488086Y7656885D01*
X-2885034Y7516320D01*
X-2885038Y7516330D01*
X-2885179Y7516273D01*
X-2885178Y7516271D01*
X-2885222Y7516253D01*
X-2885381Y7516197D01*
X-2885401Y7516179D01*
X-3274456Y7355032D01*
X-3274993Y7356329D01*
X-3275079Y7356291D01*
X-3274482Y7355031D01*
X-3274634Y7354959D01*
X-3274797Y7354891D01*
X-3275334Y7356178D01*
X-3275422Y7356140D01*
X-3274817Y7354871D01*
X-3654898Y7173576D01*
X-3655389Y7174606D01*
X-3655792Y7174400D01*
X-3655248Y7173398D01*
X-4025328Y6972461D01*
X-4026001Y6973700D01*
X-4026085Y6973651D01*
X-4025356Y6972457D01*
X-4025510Y6972363D01*
X-4025653Y6972285D01*
X-4026324Y6973514D01*
X-4026406Y6973467D01*
X-4025669Y6972265D01*
X-4384715Y6752243D01*
X-4385332Y6753250D01*
X-4385713Y6753001D01*
X-4385045Y6752029D01*
X-4732097Y6513510D01*
X-4732808Y6514545D01*
X-4732881Y6514492D01*
X-4732123Y6513503D01*
X-4732260Y6513398D01*
X-4732401Y6513301D01*
X-4733107Y6514327D01*
X-4733180Y6514274D01*
X-4732416Y6513278D01*
X-5066503Y6256917D01*
X-5067199Y6257824D01*
X-5067552Y6257539D01*
X-5066809Y6256669D01*
X-5387022Y5983190D01*
X-5387818Y5984122D01*
X-5387884Y5984063D01*
X-5387046Y5983181D01*
X-5387166Y5983067D01*
X-5387302Y5982951D01*
X-5388092Y5983877D01*
X-5388160Y5983816D01*
X-5387315Y5982926D01*
X-5692776Y5693055D01*
X-5693601Y5693924D01*
X-5693924Y5693601D01*
X-5693055Y5692776D01*
X-5982928Y5387314D01*
X-5983843Y5388182D01*
X-5983902Y5388117D01*
X-5982951Y5387302D01*
X-5983059Y5387176D01*
X-5983181Y5387047D01*
X-5984090Y5387907D01*
X-5984150Y5387840D01*
X-5983191Y5387021D01*
X-6256669Y5066809D01*
X-6257540Y5067553D01*
X-6257825Y5067200D01*
X-6256917Y5066503D01*
X-6513280Y4732414D01*
X-6514323Y4733214D01*
X-6514376Y4733141D01*
X-6513301Y4732400D01*
X-6513392Y4732268D01*
X-6513503Y4732123D01*
X-6514537Y4732915D01*
X-6514592Y4732839D01*
X-6513510Y4732095D01*
X-6752028Y4385046D01*
X-6752977Y4385698D01*
X-6753024Y4385626D01*
X-6752050Y4385030D01*
X-6752140Y4384883D01*
X-6752237Y4384742D01*
X-6753179Y4385390D01*
X-6753226Y4385318D01*
X-6752243Y4384716D01*
X-6972264Y4025671D01*
X-6973417Y4026377D01*
X-6973463Y4026297D01*
X-6972286Y4025653D01*
X-6972372Y4025496D01*
X-6972457Y4025356D01*
X-6973604Y4026052D01*
X-6973648Y4025976D01*
X-6972461Y4025331D01*
X-7173396Y3655251D01*
X-7174402Y3655797D01*
X-7174442Y3655719D01*
X-7173417Y3655232D01*
X-7173494Y3655070D01*
X-7173573Y3654925D01*
X-7174571Y3655469D01*
X-7174610Y3655392D01*
X-7173576Y3654899D01*
X-7354872Y3274816D01*
X-7356089Y3275397D01*
X-7356128Y3275310D01*
X-7354891Y3274797D01*
X-7354954Y3274645D01*
X-7355031Y3274483D01*
X-7356239Y3275057D01*
X-7356277Y3274972D01*
X-7355032Y3274456D01*
X-7516179Y2885400D01*
X-7517472Y2885936D01*
X-7517507Y2885848D01*
X-7516196Y2885382D01*
X-7516249Y2885233D01*
X-7516320Y2885061D01*
X-7517607Y2885592D01*
X-7517642Y2885500D01*
X-7516320Y2885032D01*
X-7656885Y2488086D01*
X-7657991Y2488478D01*
X-7658018Y2488395D01*
X-7656902Y2488065D01*
X-7656952Y2487896D01*
X-7657008Y2487738D01*
X-7658106Y2488127D01*
X-7658133Y2488046D01*
X-7657007Y2487712D01*
X-7776610Y2083937D01*
X-7777814Y2084294D01*
X-7777838Y2084205D01*
X-7776626Y2083915D01*
X-7776666Y2083748D01*
X-7776715Y2083583D01*
X-7777909Y2083938D01*
X-7777933Y2083849D01*
X-7776712Y2083556D01*
X-7875026Y1674089D01*
X-7875160Y1674121D01*
X-7875156Y1674089D01*
X-7875040Y1674068D01*
X-7875069Y1673910D01*
X-7875112Y1673732D01*
X-7875108Y1673698D01*
X-7951842Y1259653D01*
X-7952976Y1259863D01*
X-7952989Y1259777D01*
X-7951856Y1259628D01*
X-7951880Y1259445D01*
X-7951909Y1259289D01*
X-7953033Y1259498D01*
X-7953046Y1259415D01*
X-7951904Y1259265D01*
X-7986823Y994027D01*
X-8001104Y885556D01*
X-8029826Y820628D01*
X-8089092Y781537D01*
X-8126026Y776002D01*
X-11273000Y776002D01*
X-11341121Y796004D01*
X-11387614Y849660D01*
X-11399000Y902002D01*
X-11399000Y999882D01*
X-11398981Y999961D01*
X-11399000Y1000081D01*
X-11399000Y1000198D01*
X-11399030Y1000270D01*
X-11450408Y1324596D01*
X-11450420Y1324748D01*
X-11450438Y1324783D01*
X-11450444Y1324823D01*
X-11450528Y1324959D01*
X-11599593Y1617590D01*
X-11599654Y1617736D01*
X-11599682Y1617764D01*
X-11599700Y1617799D01*
X-11599817Y1617899D01*
X-11832070Y1850153D01*
X-11832170Y1850270D01*
X-11832205Y1850288D01*
X-11832233Y1850316D01*
X-11832379Y1850377D01*
X-12125015Y1999488D01*
X-12125148Y1999569D01*
X-12125187Y1999575D01*
X-12125222Y1999593D01*
X-12125376Y1999605D01*
X-12158175Y2004799D01*
X-12433109Y2048338D01*
X-12433110Y2048338D01*
X-12449813Y2050983D01*
X-12449962Y2051019D01*
X-12450001Y2051013D01*
X-12450040Y2051019D01*
X-12450189Y2050983D01*
X-12642719Y2020494D01*
X-12762161Y2001579D01*
X-12762163Y2001578D01*
X-12774624Y1999605D01*
X-12774778Y1999593D01*
X-12774813Y1999575D01*
X-12774852Y1999569D01*
X-12774984Y1999488D01*
X-13067621Y1850377D01*
X-13067767Y1850316D01*
X-13067795Y1850288D01*
X-13067830Y1850270D01*
X-13067930Y1850153D01*
X-13300183Y1617900D01*
X-13300301Y1617799D01*
X-13300319Y1617764D01*
X-13300347Y1617736D01*
X-13300408Y1617590D01*
X-13449474Y1324959D01*
X-13449558Y1324823D01*
X-13449564Y1324783D01*
X-13449582Y1324748D01*
X-13449594Y1324596D01*
X-13500970Y1000270D01*
X-13501000Y1000198D01*
X-13501000Y1000081D01*
X-13501019Y999961D01*
X-13501000Y999882D01*
X-13501000Y-999882D01*
X-13501019Y-999961D01*
X-21852576Y-999961D01*
X-21846424Y-993810D01*
X-21600206Y-747647D01*
X-21600205Y-747645D01*
X-21588016Y-735459D01*
X-21587899Y-735359D01*
X-21587881Y-735324D01*
X-21587853Y-735296D01*
X-21587792Y-735149D01*
X-21410327Y-386760D01*
X-21410243Y-386624D01*
X-21410237Y-386584D01*
X-21410219Y-386549D01*
X-21410207Y-386398D01*
X-21357493Y-53682D01*
X-21351670Y-16927D01*
X-21349018Y-188D01*
X-21348982Y-39D01*
X-21348988Y0D01*
X-21348982Y39D01*
X-21349018Y188D01*
X-21353339Y27464D01*
X-21385728Y231884D01*
X-21410209Y386399D01*
X-21410221Y386550D01*
X-21410239Y386585D01*
X-21410245Y386625D01*
X-21410329Y386761D01*
X-21587794Y735150D01*
X-21587855Y735297D01*
X-21587883Y735325D01*
X-21587901Y735360D01*
X-21588018Y735460D01*
X-21754597Y902002D01*
X-21852479Y999863D01*
X-21852480Y999863D01*
X-21864572Y1011953D01*
X-21864672Y1012070D01*
X-21864707Y1012088D01*
X-21864735Y1012116D01*
X-21864881Y1012177D01*
X-21981305Y1071509D01*
X-22202030Y1183994D01*
X-22213217Y1189695D01*
X-22213350Y1189777D01*
X-22213389Y1189783D01*
X-22213424Y1189801D01*
X-22213578Y1189813D01*
X-22599813Y1250983D01*
X-22599962Y1251019D01*
X-22600001Y1251013D01*
X-22600040Y1251019D01*
X-22600189Y1250983D01*
X-22986424Y1189813D01*
X-22986578Y1189801D01*
X-22986613Y1189783D01*
X-22986652Y1189777D01*
X-22986784Y1189696D01*
X-23335121Y1012177D01*
X-23335267Y1012116D01*
X-23335295Y1012088D01*
X-23335330Y1012070D01*
X-23335430Y1011953D01*
X-23346983Y1000402D01*
X-23346984Y1000402D01*
X-23445405Y902002D01*
X-23611979Y735465D01*
X-23612101Y735361D01*
X-23612120Y735324D01*
X-23612147Y735297D01*
X-23612206Y735156D01*
X-23789673Y386761D01*
X-23789757Y386625D01*
X-23789763Y386585D01*
X-23789781Y386550D01*
X-23789793Y386398D01*
X-23791841Y373471D01*
X-23846662Y27464D01*
X-23850984Y188D01*
X-23851020Y39D01*
X-23851014Y0D01*
X-23851020Y-39D01*
X-26058557Y-39D01*
X-25992159Y27464D01*
X-25866718Y123718D01*
X-25770464Y249159D01*
X-25709956Y395238D01*
X-25706517Y421356D01*
X-25690396Y543812D01*
X-25689318Y552000D01*
X-25709956Y708762D01*
X-25770464Y854841D01*
X-25866718Y980282D01*
X-25892236Y999863D01*
X-25908205Y1012116D01*
X-25992159Y1076536D01*
X-26138238Y1137044D01*
X-26295000Y1157682D01*
X-26451762Y1137044D01*
X-26597841Y1076536D01*
X-26681795Y1012116D01*
X-26697763Y999863D01*
X-26723282Y980282D01*
X-26819536Y854841D01*
X-26880044Y708762D01*
X-26900682Y552000D01*
X-39984551Y552000D01*
X-39973209Y985305D01*
X-39944289Y2090100D01*
X-39943944Y2096688D01*
X-39780169Y4177731D01*
X-39779479Y4184296D01*
X-39670526Y5011708D01*
X-17597307Y5011708D01*
X-17596071Y4883078D01*
X-17593385Y4865521D01*
X-17556408Y4743430D01*
X-17548896Y4727322D01*
X-17479144Y4620528D01*
X-17467408Y4607169D01*
X-17369670Y4523544D01*
X-17356576Y4514918D01*
X-17310660Y4492325D01*
X-17304402Y4489655D01*
X-17118749Y4422083D01*
X-17102898Y4421076D01*
X-17101290Y4421970D01*
X-17097093Y4428617D01*
X-16824387Y5177869D01*
X-16823380Y5193720D01*
X-16824274Y5195328D01*
X-16830921Y5199525D01*
X-17439219Y5420928D01*
X-17455070Y5421935D01*
X-17456678Y5421040D01*
X-17460875Y5414394D01*
X-17581305Y5083513D01*
X-17583294Y5076969D01*
X-17595497Y5027292D01*
X-17597307Y5011708D01*
X-39670526Y5011708D01*
X-39574420Y5741559D01*
X-27669750Y5741559D01*
X-27649112Y5584797D01*
X-27588604Y5438718D01*
X-27492350Y5313277D01*
X-27366909Y5217023D01*
X-27220830Y5156515D01*
X-27064068Y5135877D01*
X-27055880Y5136955D01*
X-26915494Y5155437D01*
X-26907306Y5156515D01*
X-26761227Y5217023D01*
X-26635786Y5313277D01*
X-26539532Y5438718D01*
X-26479024Y5584797D01*
X-26458386Y5741559D01*
X-26479024Y5898321D01*
X-26482064Y5905660D01*
X-17277307Y5905660D01*
X-17276413Y5904052D01*
X-17269766Y5899855D01*
X-16285481Y5541604D01*
X-16228310Y5499510D01*
X-16202972Y5433188D01*
X-16210175Y5380108D01*
X-16340827Y5021145D01*
X-16618166Y4259164D01*
X-16619173Y4243315D01*
X-16618278Y4241706D01*
X-16611631Y4237508D01*
X-16421686Y4168374D01*
X-16415178Y4166396D01*
X-16365484Y4154189D01*
X-16349900Y4152379D01*
X-16221271Y4153615D01*
X-16203711Y4156302D01*
X-16081622Y4193278D01*
X-16065510Y4200791D01*
X-15955880Y4272395D01*
X-15887909Y4292900D01*
X-15843885Y4285304D01*
X-15522621Y4168374D01*
X-15155934Y4034911D01*
X-15096999Y4025840D01*
X-15084949Y4028789D01*
X-15084946Y4028789D01*
X-15031575Y4041850D01*
X-15031574Y4041850D01*
X-15019521Y4044800D01*
X-14975768Y4076880D01*
X-14909006Y4101030D01*
X-14853046Y4091677D01*
X-14844409Y4088099D01*
X-14844406Y4088098D01*
X-14836779Y4084939D01*
X-14828591Y4083861D01*
X-14758398Y4074620D01*
X-14680017Y4064301D01*
X-14671829Y4065379D01*
X-14531443Y4083861D01*
X-14523255Y4084939D01*
X-14377176Y4145447D01*
X-14251735Y4241701D01*
X-14155481Y4367142D01*
X-14094973Y4513221D01*
X-14074335Y4669983D01*
X-14094973Y4826745D01*
X-14155481Y4972824D01*
X-14160509Y4979377D01*
X-14160511Y4979380D01*
X-14242808Y5086632D01*
X-14268409Y5152852D01*
X-14254144Y5222401D01*
X-14238585Y5245251D01*
X-14181791Y5311629D01*
X-14173168Y5324719D01*
X-14150581Y5370623D01*
X-14147899Y5376909D01*
X-14063233Y5609530D01*
X-14062226Y5625383D01*
X-14063120Y5626989D01*
X-14069768Y5631188D01*
X-15110433Y6009959D01*
X-15167604Y6052053D01*
X-15192942Y6118375D01*
X-15185739Y6171455D01*
X-15117899Y6357843D01*
X-14572534Y6357843D01*
X-14571640Y6356235D01*
X-14564993Y6352038D01*
X-13900314Y6110114D01*
X-13884463Y6109107D01*
X-13882855Y6110002D01*
X-13878658Y6116648D01*
X-13792430Y6353559D01*
X-13790441Y6360103D01*
X-13778236Y6409788D01*
X-13776428Y6425357D01*
X-13777663Y6553990D01*
X-13780352Y6571560D01*
X-13817327Y6693642D01*
X-13824836Y6709747D01*
X-13894593Y6816550D01*
X-13906322Y6829901D01*
X-14004067Y6913531D01*
X-14017157Y6922154D01*
X-14063071Y6944747D01*
X-14069342Y6947421D01*
X-14311367Y7035511D01*
X-14327218Y7036518D01*
X-14328826Y7035624D01*
X-14333023Y7028977D01*
X-14571527Y6373694D01*
X-14572534Y6357843D01*
X-15117899Y6357843D01*
X-15055087Y6530418D01*
X-14811950Y7198431D01*
X-14810943Y7214280D01*
X-14811838Y7215889D01*
X-14818484Y7220086D01*
X-15064792Y7309734D01*
X-15071336Y7311723D01*
X-15121014Y7323926D01*
X-15136598Y7325736D01*
X-15265222Y7324500D01*
X-15282794Y7321811D01*
X-15404875Y7284836D01*
X-15420986Y7277324D01*
X-15510508Y7218854D01*
X-15578479Y7198349D01*
X-15646746Y7217848D01*
X-15693633Y7271160D01*
X-15705409Y7324346D01*
X-15705409Y8008051D01*
X-841513Y8008051D01*
X-841364Y8006936D01*
X-841452Y8008058D01*
X-841513Y8008051D01*
X-15705409Y8008051D01*
X-15705409Y9986200D01*
X21670118Y9986200D01*
X21690756Y9829438D01*
X21751264Y9683359D01*
X21847518Y9557918D01*
X21972959Y9461664D01*
X22119038Y9401156D01*
X22275800Y9380518D01*
X22283988Y9381596D01*
X22424374Y9400078D01*
X22432562Y9401156D01*
X22578641Y9461664D01*
X22704082Y9557918D01*
X22800336Y9683359D01*
X22860844Y9829438D01*
X22881482Y9986200D01*
X22860844Y10142962D01*
X22800336Y10289041D01*
X22704082Y10414482D01*
X22578641Y10510736D01*
X22432562Y10571244D01*
X22275800Y10591882D01*
X22119038Y10571244D01*
X21972959Y10510736D01*
X21847518Y10414482D01*
X21751264Y10289041D01*
X21690756Y10142962D01*
X21670118Y9986200D01*
X-15705409Y9986200D01*
X-15705409Y10750000D01*
X7744318Y10750000D01*
X7764956Y10593238D01*
X7825464Y10447159D01*
X7830491Y10440608D01*
X7898068Y10352540D01*
X7921718Y10321718D01*
X8047159Y10225464D01*
X8193238Y10164956D01*
X8350000Y10144318D01*
X8358188Y10145396D01*
X8498574Y10163878D01*
X8506762Y10164956D01*
X8652841Y10225464D01*
X8778282Y10321718D01*
X8801933Y10352540D01*
X8869509Y10440608D01*
X8874536Y10447159D01*
X8935044Y10593238D01*
X8955682Y10750000D01*
X8935044Y10906762D01*
X8874536Y11052841D01*
X8778282Y11178282D01*
X8764712Y11188695D01*
X8659392Y11269509D01*
X8652841Y11274536D01*
X8506762Y11335044D01*
X8350000Y11355682D01*
X8193238Y11335044D01*
X8047159Y11274536D01*
X8040608Y11269509D01*
X7935289Y11188695D01*
X7921718Y11178282D01*
X7825464Y11052841D01*
X7764956Y10906762D01*
X7744318Y10750000D01*
X-15705409Y10750000D01*
X-15705409Y10757574D01*
X-15685407Y10825695D01*
X-15668504Y10846669D01*
X-15547882Y10967291D01*
X-15485570Y11001317D01*
X-15442342Y11003118D01*
X-15375500Y10994318D01*
X-15367312Y10995396D01*
X-15226926Y11013878D01*
X-15218738Y11014956D01*
X-15072659Y11075464D01*
X-14983418Y11143941D01*
X-14953764Y11166695D01*
X-14947218Y11171718D01*
X-14850964Y11297159D01*
X-14790456Y11443238D01*
X-14769818Y11600000D01*
X-14790456Y11756762D01*
X-14850964Y11902841D01*
X-14947218Y12028282D01*
X-15072659Y12124536D01*
X-15218738Y12185044D01*
X-15375500Y12205682D01*
X-15532262Y12185044D01*
X-15678341Y12124536D01*
X-15803782Y12028282D01*
X-15900036Y11902841D01*
X-15960544Y11756762D01*
X-15981182Y11600000D01*
X-15972382Y11533159D01*
X-15983321Y11463012D01*
X-16008208Y11427619D01*
X-16247131Y11188695D01*
X-16255235Y11181269D01*
X-16284103Y11157046D01*
X-16289616Y11147497D01*
X-16302948Y11124406D01*
X-16308854Y11115135D01*
X-16330463Y11084275D01*
X-16333317Y11073625D01*
X-16334794Y11070457D01*
X-16335986Y11067181D01*
X-16341497Y11057636D01*
X-16347447Y11023892D01*
X-16348039Y11020533D01*
X-16350417Y11009806D01*
X-16360173Y10973398D01*
X-16359212Y10962413D01*
X-16359212Y10962411D01*
X-16356889Y10935863D01*
X-16356409Y10924881D01*
X-16356409Y7454518D01*
X-16376411Y7386397D01*
X-16407901Y7352908D01*
X-16418539Y7345108D01*
X-16424975Y7334502D01*
X-16424976Y7334501D01*
X-16431138Y7324346D01*
X-16449473Y7294131D01*
X-16451589Y7288317D01*
X-16451591Y7288313D01*
X-16696448Y6615576D01*
X-16738542Y6558405D01*
X-16778326Y6538080D01*
X-16903651Y6500123D01*
X-16919758Y6492613D01*
X-17026560Y6422855D01*
X-17039905Y6411131D01*
X-17123539Y6313384D01*
X-17132162Y6300293D01*
X-17154752Y6254384D01*
X-17157428Y6248110D01*
X-17276300Y5921511D01*
X-17277307Y5905660D01*
X-26482064Y5905660D01*
X-26539532Y6044400D01*
X-26635786Y6169841D01*
X-26761227Y6266095D01*
X-26907306Y6326603D01*
X-27064068Y6347241D01*
X-27220830Y6326603D01*
X-27366909Y6266095D01*
X-27492350Y6169841D01*
X-27588604Y6044400D01*
X-27649112Y5898321D01*
X-27669750Y5741559D01*
X-39574420Y5741559D01*
X-39506945Y6253974D01*
X-39505913Y6260484D01*
X-39350713Y7097936D01*
X-39125526Y8313035D01*
X-39124160Y8319458D01*
X-38876397Y9351426D01*
X-38840726Y9500000D01*
X-28605682Y9500000D01*
X-28585044Y9343238D01*
X-28524536Y9197159D01*
X-28428282Y9071718D01*
X-28302841Y8975464D01*
X-28156762Y8914956D01*
X-28000000Y8894318D01*
X-27991812Y8895396D01*
X-27851426Y8913878D01*
X-27843238Y8914956D01*
X-27697159Y8975464D01*
X-27571718Y9071718D01*
X-27475464Y9197159D01*
X-27414956Y9343238D01*
X-27394318Y9500000D01*
X-27414956Y9656762D01*
X-27475464Y9802841D01*
X-27571718Y9928282D01*
X-27697159Y10024536D01*
X-27843238Y10085044D01*
X-28000000Y10105682D01*
X-28156762Y10085044D01*
X-28302841Y10024536D01*
X-28428282Y9928282D01*
X-28524536Y9802841D01*
X-28585044Y9656762D01*
X-28605682Y9500000D01*
X-38840726Y9500000D01*
X-38636813Y10349325D01*
X-38635107Y10355692D01*
X-38042293Y12357227D01*
X-38040252Y12363508D01*
X-37756444Y13164876D01*
X-37531512Y13800000D01*
X-26305682Y13800000D01*
X-26285044Y13643238D01*
X-26224536Y13497159D01*
X-26128282Y13371718D01*
X-26002841Y13275464D01*
X-25856762Y13214956D01*
X-25700000Y13194318D01*
X-25691812Y13195396D01*
X-25551426Y13213878D01*
X-25543238Y13214956D01*
X-25397159Y13275464D01*
X-25271718Y13371718D01*
X-25175464Y13497159D01*
X-25114956Y13643238D01*
X-25094318Y13800000D01*
X-25114956Y13956762D01*
X-25175464Y14102841D01*
X-25271718Y14228282D01*
X-25397159Y14324536D01*
X-25543238Y14385044D01*
X-25700000Y14405682D01*
X-25856762Y14385044D01*
X-26002841Y14324536D01*
X-26128282Y14228282D01*
X-26224536Y14102841D01*
X-26285044Y13956762D01*
X-26305682Y13800000D01*
X-37531512Y13800000D01*
X-37343366Y14331254D01*
X-37341011Y14337390D01*
X-37273658Y14500000D01*
X-24405682Y14500000D01*
X-24385044Y14343238D01*
X-24324536Y14197159D01*
X-24228282Y14071718D01*
X-24102841Y13975464D01*
X-23956762Y13914956D01*
X-23948574Y13913878D01*
X-23894902Y13906812D01*
X-23800000Y13894318D01*
X-23791812Y13895396D01*
X-23757136Y13899961D01*
X-8251019Y13899961D01*
X-8250983Y13899812D01*
X-8248474Y13883971D01*
X-8210348Y13643238D01*
X-8189813Y13513573D01*
X-8189801Y13513419D01*
X-8189783Y13513384D01*
X-8189777Y13513345D01*
X-8189695Y13513212D01*
X-8183994Y13502025D01*
X-8171414Y13477339D01*
X-8012177Y13164876D01*
X-8012116Y13164730D01*
X-8012088Y13164702D01*
X-8012070Y13164667D01*
X-8011953Y13164567D01*
X-8000402Y13153014D01*
X-8000402Y13153013D01*
X-7747648Y12900203D01*
X-7747646Y12900202D01*
X-7735460Y12888013D01*
X-7735360Y12887896D01*
X-7735325Y12887878D01*
X-7735297Y12887850D01*
X-7735150Y12887789D01*
X-7720690Y12880424D01*
X-7720690Y12880423D01*
X-7651563Y12845211D01*
X-7386752Y12710321D01*
X-7386621Y12710240D01*
X-7386582Y12710234D01*
X-7386547Y12710216D01*
X-7386394Y12710204D01*
X-7000188Y12649017D01*
X-7000039Y12648981D01*
X-7000000Y12648987D01*
X-6999961Y12648981D01*
X-6999812Y12649017D01*
X-6983926Y12651534D01*
X-6626533Y12708160D01*
X-6613607Y12710208D01*
X-6613455Y12710220D01*
X-6613420Y12710238D01*
X-6613380Y12710244D01*
X-6613244Y12710328D01*
X-6264851Y12887791D01*
X-6264704Y12887852D01*
X-6264676Y12887880D01*
X-6264641Y12887898D01*
X-6264541Y12888015D01*
X-6017566Y13135044D01*
X-6000138Y13152476D01*
X-6000138Y13152477D01*
X-5988048Y13164569D01*
X-5987931Y13164669D01*
X-5987913Y13164704D01*
X-5987885Y13164732D01*
X-5987824Y13164878D01*
X-5810305Y13513215D01*
X-5810224Y13513347D01*
X-5810218Y13513386D01*
X-5810200Y13513421D01*
X-5810188Y13513575D01*
X-5749017Y13899812D01*
X-5748981Y13899961D01*
X-5748987Y13900000D01*
X-5748981Y13900039D01*
X-5749017Y13900188D01*
X-5810188Y14286425D01*
X-5810200Y14286579D01*
X-5810218Y14286614D01*
X-5810224Y14286653D01*
X-5810305Y14286785D01*
X-5987824Y14635122D01*
X-5987885Y14635268D01*
X-5987913Y14635296D01*
X-5987931Y14635331D01*
X-5988048Y14635431D01*
X-6009374Y14656762D01*
X-6252353Y14899795D01*
X-6252355Y14899796D01*
X-6264541Y14911985D01*
X-6264641Y14912102D01*
X-6264676Y14912120D01*
X-6264704Y14912148D01*
X-6264851Y14912209D01*
X-6336599Y14948756D01*
X-6466563Y15014956D01*
X-6613244Y15089672D01*
X-6613380Y15089756D01*
X-6613420Y15089762D01*
X-6613455Y15089780D01*
X-6613607Y15089792D01*
X-6659094Y15096999D01*
X4025840Y15096999D01*
X4028789Y15084949D01*
X4028789Y15084946D01*
X4031883Y15072304D01*
X4044800Y15019521D01*
X4091965Y14955195D01*
X4142942Y14924262D01*
X4148761Y14922144D01*
X4791255Y14688295D01*
X4848426Y14646201D01*
X4866384Y14613472D01*
X5133253Y13889469D01*
X5223680Y13644146D01*
X5243392Y13590667D01*
X5244054Y13588826D01*
X5261879Y13538042D01*
X5268867Y13529517D01*
X5268868Y13529515D01*
X5275469Y13521462D01*
X5286881Y13505035D01*
X5288400Y13502430D01*
X5297676Y13486513D01*
X5308706Y13477334D01*
X5325549Y13460364D01*
X5327655Y13457795D01*
X5327658Y13457792D01*
X5334647Y13449266D01*
X5353090Y13438333D01*
X5369432Y13426800D01*
X5385909Y13413088D01*
X5396283Y13409360D01*
X5436643Y13394856D01*
X5438484Y13394178D01*
X7949413Y12447435D01*
X8006097Y12404686D01*
X8021369Y12377755D01*
X8027276Y12363494D01*
X8075464Y12247159D01*
X8171718Y12121718D01*
X8297159Y12025464D01*
X8443238Y11964956D01*
X8600000Y11944318D01*
X8608188Y11945396D01*
X8748574Y11963878D01*
X8756762Y11964956D01*
X8902841Y12025464D01*
X9028282Y12121718D01*
X9124536Y12247159D01*
X9185044Y12393238D01*
X9205682Y12550000D01*
X9185044Y12706762D01*
X9124536Y12852841D01*
X9028282Y12978282D01*
X8902841Y13074536D01*
X8756762Y13135044D01*
X8600000Y13155682D01*
X8443238Y13135044D01*
X8297159Y13074536D01*
X8290607Y13069509D01*
X8284644Y13066066D01*
X8215648Y13049329D01*
X8177192Y13057288D01*
X6990343Y13504789D01*
X6734122Y13601397D01*
X6677438Y13644146D01*
X6652865Y13710755D01*
X6668204Y13780074D01*
X6709674Y13824787D01*
X6816545Y13894589D01*
X6829901Y13906322D01*
X6913531Y14004067D01*
X6922154Y14017157D01*
X6944747Y14063071D01*
X6947421Y14069342D01*
X7035511Y14311367D01*
X7036518Y14327218D01*
X7035624Y14328826D01*
X7028977Y14333023D01*
X5997707Y14708375D01*
X5940536Y14750469D01*
X5915198Y14816791D01*
X5922401Y14869871D01*
X6009958Y15110432D01*
X6052052Y15167603D01*
X6118373Y15192941D01*
X6171453Y15185738D01*
X7198428Y14811950D01*
X7214281Y14810943D01*
X7215889Y14811838D01*
X7220086Y14818484D01*
X7266445Y14945855D01*
X7308539Y15003027D01*
X7374860Y15028365D01*
X7427572Y15020038D01*
X7427630Y15020254D01*
X7429675Y15019706D01*
X7433062Y15019171D01*
X7443238Y15014956D01*
X7600000Y14994318D01*
X7608188Y14995396D01*
X7748574Y15013878D01*
X7756762Y15014956D01*
X7768230Y15019706D01*
X7796884Y15031575D01*
X7902841Y15075464D01*
X7999743Y15149819D01*
X8021736Y15166695D01*
X8028282Y15171718D01*
X8124536Y15297159D01*
X8185044Y15443238D01*
X8205682Y15600000D01*
X8185044Y15756762D01*
X8124536Y15902841D01*
X8028282Y16028282D01*
X7924912Y16107600D01*
X21695518Y16107600D01*
X21716156Y15950838D01*
X21776664Y15804759D01*
X21872918Y15679318D01*
X21998359Y15583064D01*
X22144438Y15522556D01*
X22301200Y15501918D01*
X22309388Y15502996D01*
X22449774Y15521478D01*
X22457962Y15522556D01*
X22604041Y15583064D01*
X22729482Y15679318D01*
X22825736Y15804759D01*
X22886244Y15950838D01*
X22906882Y16107600D01*
X22886244Y16264362D01*
X22825736Y16410441D01*
X22729482Y16535882D01*
X22604041Y16632136D01*
X22457962Y16692644D01*
X22301200Y16713282D01*
X22144438Y16692644D01*
X21998359Y16632136D01*
X21872918Y16535882D01*
X21776664Y16410441D01*
X21716156Y16264362D01*
X21695518Y16107600D01*
X7924912Y16107600D01*
X7902841Y16124536D01*
X7756762Y16185044D01*
X7600000Y16205682D01*
X7591812Y16204604D01*
X7545955Y16198567D01*
X7475806Y16209506D01*
X7422708Y16256635D01*
X7407120Y16293540D01*
X7395223Y16342159D01*
X7395223Y16342160D01*
X7392273Y16354214D01*
X7345108Y16418539D01*
X7334502Y16424975D01*
X7334501Y16424976D01*
X7302626Y16444318D01*
X7294131Y16449473D01*
X7288317Y16451589D01*
X7288313Y16451591D01*
X6615576Y16696448D01*
X6558405Y16738542D01*
X6538080Y16778326D01*
X6500123Y16903651D01*
X6492613Y16919758D01*
X6422855Y17026560D01*
X6411131Y17039905D01*
X6313384Y17123539D01*
X6300293Y17132162D01*
X6254384Y17154752D01*
X6248110Y17157428D01*
X5921511Y17276300D01*
X5905660Y17277307D01*
X5904052Y17276413D01*
X5899855Y17269766D01*
X5541604Y16285481D01*
X5499510Y16228310D01*
X5433188Y16202972D01*
X5380108Y16210175D01*
X5021145Y16340827D01*
X4259164Y16618166D01*
X4243315Y16619173D01*
X4241706Y16618278D01*
X4237508Y16611631D01*
X4168374Y16421686D01*
X4166396Y16415178D01*
X4154189Y16365484D01*
X4152379Y16349900D01*
X4153615Y16221271D01*
X4156302Y16203711D01*
X4193278Y16081622D01*
X4200791Y16065510D01*
X4272395Y15955880D01*
X4292900Y15887909D01*
X4285304Y15843885D01*
X4168350Y15522556D01*
X4034911Y15155934D01*
X4025840Y15096999D01*
X-6659094Y15096999D01*
X-6999812Y15150983D01*
X-6999961Y15151019D01*
X-7000000Y15151013D01*
X-7000039Y15151019D01*
X-7000188Y15150983D01*
X-7386394Y15089792D01*
X-7386547Y15089780D01*
X-7386582Y15089762D01*
X-7386621Y15089756D01*
X-7386752Y15089675D01*
X-7397935Y15083978D01*
X-7397937Y15083978D01*
X-7711488Y14924262D01*
X-7735150Y14912209D01*
X-7735297Y14912148D01*
X-7735325Y14912120D01*
X-7735360Y14912102D01*
X-7735460Y14911985D01*
X-7828940Y14818484D01*
X-7982999Y14664391D01*
X-8011953Y14635431D01*
X-8012070Y14635331D01*
X-8012088Y14635296D01*
X-8012116Y14635268D01*
X-8012177Y14635122D01*
X-8019589Y14620578D01*
X-8165002Y14335240D01*
X-8189695Y14286786D01*
X-8189777Y14286653D01*
X-8189783Y14286614D01*
X-8189801Y14286579D01*
X-8189813Y14286425D01*
X-8250983Y13900188D01*
X-8251019Y13900039D01*
X-8251013Y13900000D01*
X-8251019Y13899961D01*
X-23757136Y13899961D01*
X-23756544Y13900039D01*
X-23705098Y13906812D01*
X-23651426Y13913878D01*
X-23643238Y13914956D01*
X-23497159Y13975464D01*
X-23371718Y14071718D01*
X-23275464Y14197159D01*
X-23214956Y14343238D01*
X-23194318Y14500000D01*
X-23214956Y14656762D01*
X-23275464Y14802841D01*
X-23371718Y14928282D01*
X-23497159Y15024536D01*
X-23643238Y15085044D01*
X-23681300Y15090055D01*
X-23791812Y15104604D01*
X-23800000Y15105682D01*
X-23808188Y15104604D01*
X-23918699Y15090055D01*
X-23956762Y15085044D01*
X-24102841Y15024536D01*
X-24228282Y14928282D01*
X-24324536Y14802841D01*
X-24385044Y14656762D01*
X-24405682Y14500000D01*
X-37273658Y14500000D01*
X-36542143Y16266080D01*
X-36539465Y16272095D01*
X-36529236Y16293540D01*
X-36168435Y17050000D01*
X-29755682Y17050000D01*
X-29735044Y16893238D01*
X-29674536Y16747159D01*
X-29578282Y16621718D01*
X-29452841Y16525464D01*
X-29306762Y16464956D01*
X-29150000Y16444318D01*
X-29141812Y16445396D01*
X-29001426Y16463878D01*
X-28993238Y16464956D01*
X-28847159Y16525464D01*
X-28721718Y16621718D01*
X-28625464Y16747159D01*
X-28564956Y16893238D01*
X-28544318Y17050000D01*
X-28551282Y17102898D01*
X4421076Y17102898D01*
X4421970Y17101290D01*
X4428617Y17097093D01*
X5177869Y16824387D01*
X5193720Y16823380D01*
X5195328Y16824274D01*
X5199525Y16830921D01*
X5420928Y17439219D01*
X5421935Y17455070D01*
X5421040Y17456678D01*
X5414394Y17460875D01*
X5083513Y17581305D01*
X5076969Y17583294D01*
X5027292Y17595497D01*
X5011708Y17597307D01*
X4883078Y17596071D01*
X4865521Y17593385D01*
X4743430Y17556408D01*
X4727322Y17548896D01*
X4620528Y17479144D01*
X4607169Y17467408D01*
X4523544Y17369670D01*
X4514918Y17356576D01*
X4492325Y17310660D01*
X4489655Y17304402D01*
X4422083Y17118749D01*
X4421076Y17102898D01*
X-28551282Y17102898D01*
X-28564956Y17206762D01*
X-28625464Y17352841D01*
X-28721718Y17478282D01*
X-28847159Y17574536D01*
X-28993238Y17635044D01*
X-29150000Y17655682D01*
X-29306762Y17635044D01*
X-29452841Y17574536D01*
X-29578282Y17478282D01*
X-29674536Y17352841D01*
X-29735044Y17206762D01*
X-29755682Y17050000D01*
X-36168435Y17050000D01*
X-35820105Y17780313D01*
X-35640837Y18156168D01*
X-35637841Y18162049D01*
X-34641708Y19996612D01*
X-34638411Y20002322D01*
X-33547691Y21782244D01*
X-33544098Y21787777D01*
X-32361761Y23508100D01*
X-32357882Y23513439D01*
X-31087027Y25169568D01*
X-31082878Y25174691D01*
X-30131580Y26288548D01*
X-27520162Y26288548D01*
X-27520157Y25893492D01*
X-27516016Y25814508D01*
X-27513852Y25793925D01*
X-27501482Y25715834D01*
X-27419361Y25329505D01*
X-27398892Y25253118D01*
X-27392495Y25233431D01*
X-27364142Y25159575D01*
X-27203467Y24798747D01*
X-27185701Y24763883D01*
X-27168316Y24729767D01*
X-27167575Y24728312D01*
X-27166770Y24726918D01*
X-27166762Y24726903D01*
X-27158048Y24711812D01*
X-27157229Y24710393D01*
X-27114166Y24644084D01*
X-27093289Y24615349D01*
X-26948431Y24415970D01*
X-26879274Y24320783D01*
X-26852033Y24285525D01*
X-26844626Y24276501D01*
X-26844029Y24275816D01*
X-26844013Y24275797D01*
X-26828417Y24257901D01*
X-26815312Y24242863D01*
X-26814709Y24242211D01*
X-26814683Y24242182D01*
X-26641973Y24055437D01*
X-26535777Y23940610D01*
X-26532214Y23936784D01*
X-26531310Y23935820D01*
X-26527937Y23932246D01*
X-26101783Y23483691D01*
X-26101780Y23483686D01*
X-26101779Y23483687D01*
X-25576566Y22930811D01*
X-25576563Y22930807D01*
X-25543737Y22896249D01*
X-25543704Y22896214D01*
X-24952893Y22274294D01*
X-24952732Y22274124D01*
X-24915439Y22234872D01*
X-24265631Y21550879D01*
X-23517333Y20763178D01*
X-23517326Y20763171D01*
X-21881869Y19041644D01*
X-21881865Y19041639D01*
X-21612396Y18757993D01*
X-21612395Y18757992D01*
X-21040666Y18156168D01*
X-21036020Y18151277D01*
X-21011657Y18126779D01*
X-21011108Y18126252D01*
X-21005627Y18120986D01*
X-21005599Y18120960D01*
X-21005135Y18120514D01*
X-21004649Y18120068D01*
X-21004633Y18120053D01*
X-20998651Y18114564D01*
X-20979736Y18097206D01*
X-20677407Y17832220D01*
X-20676216Y17831275D01*
X-20676206Y17831267D01*
X-20620619Y17787167D01*
X-20619429Y17786223D01*
X-20603676Y17774937D01*
X-20582272Y17761138D01*
X-20542731Y17735645D01*
X-20542715Y17735635D01*
X-20541435Y17734810D01*
X-20540105Y17734042D01*
X-20540095Y17734036D01*
X-20404385Y17655682D01*
X-20198798Y17536983D01*
X-20128308Y17501068D01*
X-20126812Y17500402D01*
X-20126797Y17500395D01*
X-20110903Y17493319D01*
X-20110888Y17493313D01*
X-20109406Y17492653D01*
X-20107900Y17492075D01*
X-20107883Y17492068D01*
X-20043637Y17467408D01*
X-20035589Y17464319D01*
X-19958335Y17439219D01*
X-19661395Y17342742D01*
X-19661374Y17342736D01*
X-19659848Y17342240D01*
X-19613910Y17329932D01*
X-19585021Y17322192D01*
X-19585008Y17322189D01*
X-19583452Y17321772D01*
X-19563205Y17317469D01*
X-19561577Y17317211D01*
X-19561565Y17317209D01*
X-19520204Y17310660D01*
X-19485091Y17305100D01*
X-19412049Y17297426D01*
X-19093891Y17263999D01*
X-19093882Y17263998D01*
X-19092242Y17263826D01*
X-19090589Y17263739D01*
X-19090584Y17263739D01*
X-19071807Y17262755D01*
X-19013301Y17259690D01*
X-18992613Y17259690D01*
X-18935922Y17262660D01*
X-18915334Y17263738D01*
X-18915330Y17263738D01*
X-18913675Y17263825D01*
X-18912038Y17263997D01*
X-18912025Y17263998D01*
X-18742748Y17281783D01*
X-18520813Y17305099D01*
X-18519195Y17305355D01*
X-18519189Y17305356D01*
X-18485693Y17310660D01*
X-18442711Y17317466D01*
X-18422462Y17321769D01*
X-18420868Y17322196D01*
X-18420860Y17322198D01*
X-18377112Y17333920D01*
X-18346016Y17342251D01*
X-18344456Y17342758D01*
X-18344449Y17342760D01*
X-18186961Y17393937D01*
X-17970353Y17464325D01*
X-17896541Y17492661D01*
X-17895054Y17493323D01*
X-17895049Y17493325D01*
X-17879155Y17500402D01*
X-17877639Y17501077D01*
X-17876184Y17501818D01*
X-17876168Y17501826D01*
X-17808686Y17536211D01*
X-17807194Y17536971D01*
X-17805787Y17537783D01*
X-17805771Y17537792D01*
X-17465859Y17734036D01*
X-17463425Y17735441D01*
X-17409221Y17769887D01*
X-17395425Y17779501D01*
X-17345389Y17817629D01*
X-17345386Y17817631D01*
X-17345371Y17817643D01*
X-17344325Y17818440D01*
X-17328899Y17831267D01*
X-17065130Y18050604D01*
X-17032493Y18077743D01*
X-17013766Y18093840D01*
X-17008954Y18098115D01*
X-16990674Y18114901D01*
X-16985198Y18120097D01*
X-16947180Y18156175D01*
X-16885496Y18214711D01*
X-16883146Y18216884D01*
X-16352298Y18694869D01*
X-16349824Y18697039D01*
X-16019005Y18979592D01*
X-16016469Y18981701D01*
X-15083239Y19737443D01*
X-15078005Y19741459D01*
X-14115855Y20440521D01*
X-14110425Y20444254D01*
X-13103282Y21098273D01*
X-13100555Y21099992D01*
X-13031109Y21142545D01*
X-13028288Y21144223D01*
X-13028284Y21144225D01*
X-11916396Y21786145D01*
X-11797395Y21854847D01*
X-11794518Y21856459D01*
X-11722731Y21895435D01*
X-11719816Y21896968D01*
X-10649975Y22442121D01*
X-10644020Y22444962D01*
X-10184356Y22649626D01*
X-9557599Y22928687D01*
X-9551526Y22931202D01*
X-8430478Y23361497D01*
X-8427432Y23362621D01*
X-8408752Y23369235D01*
X-8350610Y23389822D01*
X-8347489Y23390882D01*
X-6995588Y23830126D01*
X-6992440Y23831103D01*
X-6977734Y23835459D01*
X-6914337Y23854239D01*
X-6911203Y23855123D01*
X-5751244Y24165934D01*
X-5744863Y24167466D01*
X-5020079Y24321548D01*
X-4581583Y24414768D01*
X-4575097Y24415970D01*
X-3389073Y24603858D01*
X-3385804Y24604332D01*
X-3305060Y24614962D01*
X-3301781Y24615350D01*
X-1888220Y24763884D01*
X-1884933Y24764186D01*
X-1850561Y24766890D01*
X-1803655Y24770579D01*
X-1800440Y24770789D01*
X-601226Y24833632D01*
X-594631Y24833805D01*
X594631Y24833805D01*
X601226Y24833632D01*
X1800420Y24770790D01*
X1803664Y24770577D01*
X1856995Y24766383D01*
X1884935Y24764185D01*
X1888222Y24763883D01*
X2383770Y24711812D01*
X3301805Y24615347D01*
X3305047Y24614963D01*
X3385813Y24604330D01*
X3389048Y24603861D01*
X3964393Y24512716D01*
X4575107Y24415968D01*
X4581593Y24414766D01*
X5185960Y24286283D01*
X5744844Y24167469D01*
X5751244Y24165932D01*
X6911197Y23855122D01*
X6914311Y23854244D01*
X6992474Y23831090D01*
X6995605Y23830118D01*
X8347454Y23390893D01*
X8350575Y23389833D01*
X8427387Y23362635D01*
X8430482Y23361493D01*
X9551507Y22931208D01*
X9557592Y22928688D01*
X9630674Y22896149D01*
X10644013Y22444962D01*
X10649968Y22442121D01*
X11719855Y21896946D01*
X11722770Y21895412D01*
X11794444Y21856497D01*
X11797315Y21854890D01*
X11923140Y21782248D01*
X13028279Y21144225D01*
X13031045Y21142580D01*
X13100611Y21099954D01*
X13103282Y21098269D01*
X14110432Y20444246D01*
X14115859Y20440515D01*
X15077970Y19741483D01*
X15083204Y19737467D01*
X16016447Y18981714D01*
X16018983Y18979605D01*
X16349874Y18696990D01*
X16352297Y18694865D01*
X16883141Y18216883D01*
X16885457Y18214741D01*
X16952338Y18151273D01*
X16985190Y18120097D01*
X16990648Y18114917D01*
X16991013Y18114582D01*
X16991046Y18114551D01*
X17008477Y18098544D01*
X17008880Y18098174D01*
X17013708Y18093884D01*
X17032486Y18077741D01*
X17167454Y17965509D01*
X17343296Y17819288D01*
X17344319Y17818437D01*
X17395422Y17779496D01*
X17409221Y17769880D01*
X17410376Y17769146D01*
X17462255Y17736177D01*
X17462273Y17736166D01*
X17463425Y17735434D01*
X17807195Y17536965D01*
X17877620Y17501081D01*
X17888511Y17496232D01*
X17895011Y17493337D01*
X17895019Y17493334D01*
X17896514Y17492668D01*
X17898050Y17492078D01*
X17898058Y17492075D01*
X17968812Y17464912D01*
X17970344Y17464324D01*
X17971885Y17463823D01*
X17971897Y17463819D01*
X18124728Y17414156D01*
X18346002Y17342252D01*
X18347590Y17341827D01*
X18347595Y17341825D01*
X18369190Y17336039D01*
X18422434Y17321772D01*
X18442686Y17317468D01*
X18444315Y17317210D01*
X18444326Y17317208D01*
X18476177Y17312165D01*
X18520799Y17305099D01*
X18744381Y17281609D01*
X18912011Y17263997D01*
X18912024Y17263996D01*
X18913661Y17263824D01*
X18915316Y17263737D01*
X18915320Y17263737D01*
X18936118Y17262648D01*
X18992601Y17259689D01*
X19013289Y17259689D01*
X19071795Y17262754D01*
X19090572Y17263738D01*
X19090577Y17263738D01*
X19092230Y17263825D01*
X19093870Y17263997D01*
X19093879Y17263998D01*
X19340647Y17289924D01*
X19485079Y17305099D01*
X19511488Y17309281D01*
X19561553Y17317208D01*
X19561565Y17317210D01*
X19563193Y17317468D01*
X19583440Y17321771D01*
X19615402Y17330334D01*
X19658253Y17341814D01*
X19658268Y17341818D01*
X19659834Y17342238D01*
X19766821Y17376998D01*
X19979202Y17446000D01*
X29998318Y17446000D01*
X29999396Y17437812D01*
X30016891Y17304927D01*
X30018956Y17289238D01*
X30079464Y17143159D01*
X30175718Y17017718D01*
X30301159Y16921464D01*
X30447238Y16860956D01*
X30604000Y16840318D01*
X30612188Y16841396D01*
X30752574Y16859878D01*
X30760762Y16860956D01*
X30906841Y16921464D01*
X31032282Y17017718D01*
X31128536Y17143159D01*
X31189044Y17289238D01*
X31191110Y17304927D01*
X31208604Y17437812D01*
X31209682Y17446000D01*
X31191607Y17583294D01*
X31190122Y17594574D01*
X31189044Y17602762D01*
X31128536Y17748841D01*
X31032282Y17874282D01*
X30906841Y17970536D01*
X30760762Y18031044D01*
X30604000Y18051682D01*
X30447238Y18031044D01*
X30301159Y17970536D01*
X30175718Y17874282D01*
X30079464Y17748841D01*
X30018956Y17602762D01*
X30017878Y17594574D01*
X30016393Y17583294D01*
X29998318Y17446000D01*
X19979202Y17446000D01*
X20033988Y17463800D01*
X20033999Y17463804D01*
X20035569Y17464314D01*
X20109401Y17492655D01*
X20110893Y17493319D01*
X20110902Y17493323D01*
X20118544Y17496726D01*
X20128311Y17501074D01*
X20129797Y17501831D01*
X20197307Y17536228D01*
X20197320Y17536235D01*
X20198784Y17536981D01*
X20541420Y17734805D01*
X20603647Y17774921D01*
X20604897Y17775816D01*
X20604911Y17775826D01*
X20618147Y17785308D01*
X20618164Y17785321D01*
X20619401Y17786207D01*
X20677398Y17832218D01*
X20900637Y18027884D01*
X20979176Y18096722D01*
X20979213Y18096755D01*
X20979729Y18097207D01*
X21005161Y18120546D01*
X21011677Y18126806D01*
X21012144Y18127275D01*
X21012179Y18127310D01*
X21035480Y18150743D01*
X21035486Y18150749D01*
X21036007Y18151273D01*
X21044180Y18159876D01*
X21612389Y18757997D01*
X21612390Y18757999D01*
X21881446Y19041209D01*
X21881453Y19041216D01*
X22792614Y20000332D01*
X23487178Y20731452D01*
X23487182Y20731456D01*
X24234535Y21518156D01*
X24728429Y22038034D01*
X24920630Y22240346D01*
X24920643Y22240358D01*
X24952703Y22274100D01*
X24952726Y22274124D01*
X24952895Y22274302D01*
X25543635Y22896149D01*
X25543692Y22896209D01*
X25543731Y22896250D01*
X25543882Y22896409D01*
X25543945Y22896475D01*
X25576526Y22930776D01*
X25576530Y22930781D01*
X26101768Y23483686D01*
X26101769Y23483685D01*
X26101771Y23483689D01*
X26527944Y23932264D01*
X26531441Y23935970D01*
X26532353Y23936943D01*
X26535794Y23940638D01*
X26744941Y24166784D01*
X26814681Y24242192D01*
X26814700Y24242213D01*
X26815301Y24242863D01*
X26844582Y24276460D01*
X26851990Y24285484D01*
X26852608Y24286283D01*
X26878710Y24320066D01*
X26878717Y24320075D01*
X26879263Y24320782D01*
X26965727Y24439789D01*
X27113198Y24642766D01*
X27113203Y24642774D01*
X27114156Y24644085D01*
X27157215Y24710389D01*
X27158030Y24711801D01*
X27158037Y24711812D01*
X27166742Y24726889D01*
X27166750Y24726903D01*
X27167560Y24728306D01*
X27203454Y24798743D01*
X27364129Y25159568D01*
X27392483Y25233426D01*
X27392995Y25235000D01*
X27398375Y25251560D01*
X27398879Y25253110D01*
X27419347Y25329493D01*
X27501472Y25715830D01*
X27513842Y25793921D01*
X27516006Y25814503D01*
X27520148Y25893491D01*
X27520153Y26288549D01*
X27516013Y26367546D01*
X27513849Y26388131D01*
X27501479Y26466226D01*
X27419349Y26852606D01*
X27398883Y26928984D01*
X27392488Y26948666D01*
X27364130Y27022536D01*
X27203452Y27383368D01*
X27202712Y27384821D01*
X27168276Y27452393D01*
X27168267Y27452409D01*
X27167536Y27453844D01*
X27166730Y27455240D01*
X27166719Y27455260D01*
X27158016Y27470330D01*
X27158015Y27470332D01*
X27157189Y27471762D01*
X27114115Y27538077D01*
X26878821Y27861876D01*
X26878352Y27862487D01*
X26878326Y27862522D01*
X26855252Y27892588D01*
X26855248Y27892593D01*
X26854750Y27893242D01*
X26848228Y27901295D01*
X26822529Y27931380D01*
X26764243Y27996103D01*
X26754190Y28007048D01*
X26752869Y28008458D01*
X26751753Y28009650D01*
X26751699Y28009707D01*
X26751536Y28009881D01*
X26741334Y28020560D01*
X26583879Y28182183D01*
X26573444Y28192686D01*
X26570749Y28195346D01*
X26570612Y28195479D01*
X26570538Y28195551D01*
X26560372Y28205389D01*
X26560115Y28205638D01*
X26480506Y28281193D01*
X26394888Y28362450D01*
X26394886Y28362452D01*
X26095171Y28646916D01*
X25997375Y28739744D01*
X25990228Y28746440D01*
X25988325Y28748200D01*
X25980950Y28754931D01*
X25980904Y28754973D01*
X25980831Y28755039D01*
X25881925Y28844116D01*
X25881703Y28844315D01*
X25874509Y28850709D01*
X25874463Y28850750D01*
X25874396Y28850809D01*
X25872443Y28852522D01*
X25872117Y28852805D01*
X25865220Y28858774D01*
X25865217Y28858777D01*
X25864959Y28859000D01*
X25775039Y28935809D01*
X25775009Y28935835D01*
X25489699Y29179519D01*
X25489697Y29179521D01*
X25489671Y29179543D01*
X25434516Y29226647D01*
X25434472Y29226684D01*
X25434431Y29226719D01*
X25434417Y29226731D01*
X25415130Y29243201D01*
X25213538Y29415341D01*
X25213491Y29415382D01*
X25169487Y29452951D01*
X25036825Y29566266D01*
X24992772Y29603912D01*
X24992552Y29604100D01*
X24948234Y29641943D01*
X24948134Y29642028D01*
X24903965Y29679731D01*
X24903962Y29679734D01*
X24903944Y29679749D01*
X24706261Y29848565D01*
X24706123Y29848682D01*
X24699025Y29854663D01*
X24699003Y29854682D01*
X24698708Y29854930D01*
X24696718Y29856585D01*
X24689197Y29862758D01*
X24689165Y29862784D01*
X24689070Y29862862D01*
X24239836Y30226626D01*
X24232181Y30232743D01*
X24232054Y30232843D01*
X24231980Y30232902D01*
X24230342Y30234193D01*
X24230148Y30234346D01*
X24222289Y30240459D01*
X23124982Y31082463D01*
X23124981Y31082464D01*
X23124940Y31082495D01*
X23124742Y31082647D01*
X23120649Y31085765D01*
X23119622Y31086542D01*
X23119564Y31086586D01*
X23119553Y31086594D01*
X23115880Y31089355D01*
X23115876Y31089358D01*
X22782530Y31338325D01*
X22774459Y31344270D01*
X22772361Y31345794D01*
X22764421Y31351484D01*
X22424598Y31591683D01*
X22420723Y31594404D01*
X22419652Y31595151D01*
X22415355Y31598126D01*
X22415313Y31598155D01*
X22415283Y31598176D01*
X21812622Y32012351D01*
X21804533Y32017833D01*
X21802495Y32019195D01*
X21802380Y32019272D01*
X21802337Y32019300D01*
X21802246Y32019361D01*
X21794143Y32024700D01*
X21794083Y32024739D01*
X21794036Y32024770D01*
X20217122Y33048819D01*
X20200360Y33059394D01*
X20200013Y33059607D01*
X20199977Y33059629D01*
X20196340Y33061857D01*
X20196337Y33061859D01*
X20195942Y33062101D01*
X20195507Y33062360D01*
X20179443Y33071916D01*
X20179415Y33071933D01*
X20178987Y33072187D01*
X19225298Y33622809D01*
X18552211Y34011423D01*
X18552137Y34011465D01*
X18551862Y34011624D01*
X18551528Y34011811D01*
X18551463Y34011848D01*
X18534973Y34021083D01*
X18534634Y34021273D01*
X18530078Y34023747D01*
X18512537Y34032977D01*
X17317694Y34641771D01*
X16837561Y34886407D01*
X16837249Y34886566D01*
X16828330Y34891036D01*
X16826046Y34892162D01*
X16817220Y34896442D01*
X16817041Y34896527D01*
X16816992Y34896551D01*
X16156948Y35211363D01*
X16156942Y35211366D01*
X16152248Y35213585D01*
X16151072Y35214136D01*
X16146798Y35216122D01*
X15768993Y35390272D01*
X15760335Y35394197D01*
X15758011Y35395233D01*
X15752483Y35397653D01*
X15748876Y35399232D01*
X15748763Y35399281D01*
X15748608Y35399349D01*
X15366145Y35563653D01*
X15362065Y35565391D01*
X15361147Y35565779D01*
X15356149Y35567870D01*
X15355824Y35568005D01*
X15052298Y35693735D01*
X14680252Y35847848D01*
X14670942Y35851633D01*
X14668577Y35852576D01*
X14659500Y35856127D01*
X12904073Y36529956D01*
X12885494Y36536810D01*
X12885205Y36536912D01*
X12885148Y36536933D01*
X12880945Y36538421D01*
X12880903Y36538436D01*
X12880608Y36538540D01*
X12880286Y36538649D01*
X12880258Y36538659D01*
X12862201Y36544788D01*
X12861901Y36544890D01*
X11074973Y37125478D01*
X11074626Y37125586D01*
X11074578Y37125601D01*
X11056381Y37131250D01*
X11056351Y37131259D01*
X11056013Y37131364D01*
X11051045Y37132835D01*
X11050716Y37132928D01*
X11050691Y37132935D01*
X11032509Y37138061D01*
X11032508Y37138061D01*
X11032094Y37138178D01*
X10638898Y37243538D01*
X9216265Y37624746D01*
X9216154Y37624775D01*
X9215998Y37624817D01*
X9209197Y37626592D01*
X9206693Y37627246D01*
X9206659Y37627255D01*
X9206432Y37627314D01*
X9205328Y37627594D01*
X9204130Y37627899D01*
X9204050Y37627919D01*
X9203920Y37627952D01*
X9202449Y37628315D01*
X9194516Y37630275D01*
X9194406Y37630302D01*
X9194316Y37630324D01*
X9194217Y37630348D01*
X9194101Y37630376D01*
X8483153Y37801065D01*
X8478544Y37802156D01*
X8477490Y37802402D01*
X8477289Y37802449D01*
X8472325Y37803591D01*
X8066406Y37895478D01*
X8056611Y37897627D01*
X8056357Y37897681D01*
X8054344Y37898109D01*
X8054266Y37898125D01*
X8054074Y37898166D01*
X8044508Y37900133D01*
X7636390Y37981341D01*
X7631855Y37982230D01*
X7631689Y37982262D01*
X7630740Y37982445D01*
X7630661Y37982460D01*
X7625409Y37983452D01*
X6906184Y38116726D01*
X6906113Y38116739D01*
X6906068Y38116747D01*
X6899737Y38117876D01*
X6896280Y38118493D01*
X6895871Y38118563D01*
X6893759Y38118926D01*
X6893727Y38118931D01*
X6889145Y38119687D01*
X6884267Y38120492D01*
X6884185Y38120505D01*
X6884149Y38120511D01*
X6514367Y38179071D01*
X5027514Y38414535D01*
X5027475Y38414541D01*
X5027127Y38414596D01*
X5017564Y38415983D01*
X5008118Y38417354D01*
X5008070Y38417361D01*
X5007688Y38417416D01*
X5003761Y38417934D01*
X5002917Y38418045D01*
X5002897Y38418048D01*
X5002552Y38418093D01*
X5002310Y38418122D01*
X5002244Y38418130D01*
X4992318Y38419305D01*
X4982794Y38420433D01*
X4526453Y38468398D01*
X3114523Y38616804D01*
X3114484Y38616808D01*
X3114149Y38616843D01*
X3097931Y38618332D01*
X3094738Y38618625D01*
X3094727Y38618626D01*
X3094345Y38618661D01*
X3089177Y38619067D01*
X3069545Y38620353D01*
X2715734Y38638895D01*
X1192032Y38718745D01*
X1191965Y38718748D01*
X1191912Y38718751D01*
X1182060Y38719203D01*
X1179552Y38719302D01*
X1179487Y38719304D01*
X1179138Y38719315D01*
X1169592Y38719628D01*
X1169532Y38719630D01*
X1169489Y38719631D01*
X769736Y38730090D01*
X438473Y38738758D01*
X434237Y38738856D01*
X434113Y38738859D01*
X433138Y38738879D01*
X432972Y38738882D01*
X427328Y38738977D01*
X154169Y38742550D01*
X11171Y38744421D01*
X10904Y38744423D01*
X10881Y38744423D01*
X1507Y38744485D01*
X1397Y38744485D01*
X1287Y38744486D01*
X-1303Y38744486D01*
X-1413Y38744485D01*
X-1523Y38744485D01*
X-10895Y38744423D01*
X-10918Y38744423D01*
X-11185Y38744421D01*
X-427345Y38738977D01*
X-432988Y38738882D01*
X-433154Y38738879D01*
X-434129Y38738859D01*
X-434253Y38738856D01*
X-438489Y38738758D01*
X-769750Y38730090D01*
X-1169503Y38719631D01*
X-1169546Y38719630D01*
X-1169606Y38719628D01*
X-1179152Y38719315D01*
X-1179501Y38719304D01*
X-1179566Y38719302D01*
X-1182074Y38719203D01*
X-1191926Y38718751D01*
X-1191979Y38718748D01*
X-1192046Y38718745D01*
X-3069131Y38620376D01*
X-3069177Y38620373D01*
X-3069583Y38620352D01*
X-3076815Y38619878D01*
X-3088857Y38619090D01*
X-3088922Y38619085D01*
X-3089247Y38619064D01*
X-3089613Y38619035D01*
X-3089630Y38619034D01*
X-3094085Y38618684D01*
X-3094127Y38618680D01*
X-3094374Y38618661D01*
X-3094625Y38618638D01*
X-3094683Y38618633D01*
X-3113736Y38616883D01*
X-3113782Y38616878D01*
X-3114146Y38616845D01*
X-4982810Y38420433D01*
X-4992334Y38419305D01*
X-5002260Y38418130D01*
X-5002326Y38418122D01*
X-5002568Y38418093D01*
X-5002913Y38418048D01*
X-5002933Y38418045D01*
X-5003777Y38417934D01*
X-5007704Y38417416D01*
X-5008086Y38417361D01*
X-5008134Y38417354D01*
X-5017580Y38415983D01*
X-5027143Y38414596D01*
X-5027491Y38414541D01*
X-5027530Y38414535D01*
X-6514383Y38179071D01*
X-6884165Y38120511D01*
X-6884201Y38120505D01*
X-6884283Y38120492D01*
X-6889161Y38119687D01*
X-6893743Y38118931D01*
X-6893775Y38118926D01*
X-6895281Y38118667D01*
X-6896296Y38118493D01*
X-6901680Y38117532D01*
X-6905971Y38116767D01*
X-6906036Y38116755D01*
X-6906199Y38116726D01*
X-7625427Y37983452D01*
X-7625589Y37983421D01*
X-7625634Y37983413D01*
X-7630544Y37982486D01*
X-7631708Y37982262D01*
X-7636380Y37981347D01*
X-8044286Y37900181D01*
X-8044404Y37900157D01*
X-8044525Y37900133D01*
X-8044680Y37900101D01*
X-8044725Y37900092D01*
X-8044783Y37900080D01*
X-8054065Y37898171D01*
X-8056593Y37897634D01*
X-8066415Y37895479D01*
X-8472355Y37803586D01*
X-8477447Y37802415D01*
X-8478701Y37802122D01*
X-8483179Y37801061D01*
X-9194331Y37630323D01*
X-9194582Y37630261D01*
X-9194615Y37630253D01*
X-9203772Y37627992D01*
X-9203877Y37627966D01*
X-9203936Y37627951D01*
X-9206448Y37627313D01*
X-9216014Y37624816D01*
X-9216170Y37624774D01*
X-9216281Y37624745D01*
X-10237535Y37351092D01*
X-11032122Y37138176D01*
X-11051043Y37132842D01*
X-11051383Y37132741D01*
X-11051412Y37132733D01*
X-11052941Y37132280D01*
X-11056005Y37131373D01*
X-11056399Y37131251D01*
X-11056431Y37131241D01*
X-11067821Y37127705D01*
X-11074995Y37125478D01*
X-11075367Y37125357D01*
X-11075399Y37125347D01*
X-12094068Y36794373D01*
X-12861918Y36544892D01*
X-12862218Y36544790D01*
X-12880275Y36538661D01*
X-12880303Y36538651D01*
X-12880625Y36538542D01*
X-12880920Y36538438D01*
X-12880962Y36538423D01*
X-12885165Y36536935D01*
X-12885222Y36536914D01*
X-12885511Y36536812D01*
X-12904090Y36529958D01*
X-14659484Y35856142D01*
X-14659582Y35856104D01*
X-14659646Y35856079D01*
X-14664594Y35854143D01*
X-14668676Y35852545D01*
X-14671085Y35851584D01*
X-14671115Y35851572D01*
X-14671177Y35851547D01*
X-14680130Y35847907D01*
X-14680483Y35847762D01*
X-15355848Y35568005D01*
X-15356147Y35567881D01*
X-15359504Y35566476D01*
X-15361294Y35565727D01*
X-15361298Y35565725D01*
X-15362258Y35565319D01*
X-15366187Y35563644D01*
X-15748643Y35399342D01*
X-15748747Y35399297D01*
X-15748783Y35399281D01*
X-15753250Y35397327D01*
X-15757816Y35395329D01*
X-15760059Y35394330D01*
X-15768946Y35390303D01*
X-16146811Y35216125D01*
X-16151085Y35214139D01*
X-16152261Y35213588D01*
X-16156961Y35211366D01*
X-16817119Y34896499D01*
X-16817152Y34896483D01*
X-16817238Y34896442D01*
X-16825062Y34892647D01*
X-16826061Y34892162D01*
X-16826249Y34892071D01*
X-16827485Y34891461D01*
X-16828435Y34890993D01*
X-16828499Y34890961D01*
X-16828574Y34890924D01*
X-16828759Y34890831D01*
X-16837178Y34886610D01*
X-16837439Y34886478D01*
X-18512102Y34033209D01*
X-18512145Y34033187D01*
X-18512535Y34032988D01*
X-18512970Y34032759D01*
X-18529600Y34024011D01*
X-18529641Y34023989D01*
X-18529970Y34023816D01*
X-18534513Y34021350D01*
X-18551848Y34011643D01*
X-20179003Y33072189D01*
X-20195958Y33062103D01*
X-20196356Y33061859D01*
X-20199993Y33059631D01*
X-20199996Y33059629D01*
X-20200376Y33059396D01*
X-20217138Y33048821D01*
X-21794053Y32024771D01*
X-21794100Y32024740D01*
X-21794160Y32024701D01*
X-21802263Y32019362D01*
X-21802354Y32019301D01*
X-21802397Y32019273D01*
X-21804550Y32017834D01*
X-21812639Y32012352D01*
X-22415368Y31598129D01*
X-22419275Y31595425D01*
X-22420346Y31594679D01*
X-22424609Y31591688D01*
X-22764435Y31351488D01*
X-22772568Y31345658D01*
X-22774666Y31344133D01*
X-22782543Y31338329D01*
X-23115897Y31089358D01*
X-23119642Y31086543D01*
X-23120669Y31085766D01*
X-23124762Y31082648D01*
X-23124960Y31082496D01*
X-23125002Y31082464D01*
X-24222306Y30240462D01*
X-24222362Y30240419D01*
X-24230022Y30234461D01*
X-24230101Y30234399D01*
X-24230102Y30234398D01*
X-24232105Y30232819D01*
X-24239821Y30226654D01*
X-24689108Y29862849D01*
X-24696901Y29856452D01*
X-24698890Y29854797D01*
X-24706283Y29848566D01*
X-24903986Y29679734D01*
X-24928000Y29659234D01*
X-24948055Y29642114D01*
X-24948155Y29642029D01*
X-24948243Y29641954D01*
X-24992541Y29604128D01*
X-24992756Y29603944D01*
X-25036825Y29566285D01*
X-25036850Y29566274D01*
X-25036845Y29566268D01*
X-25169570Y29452898D01*
X-25169591Y29452881D01*
X-25213511Y29415382D01*
X-25213641Y29415535D01*
X-25213696Y29415487D01*
X-25213566Y29415335D01*
X-25434116Y29227005D01*
X-25434257Y29226884D01*
X-25434486Y29226688D01*
X-25489646Y29179580D01*
X-25489716Y29179521D01*
X-25774891Y28935949D01*
X-25775026Y28935834D01*
X-25775052Y28935811D01*
X-25864971Y28859003D01*
X-25872455Y28852525D01*
X-25874408Y28850812D01*
X-25881830Y28844215D01*
X-25980984Y28754913D01*
X-25988211Y28748319D01*
X-25990115Y28746559D01*
X-25990329Y28746359D01*
X-25990393Y28746299D01*
X-25994616Y28742343D01*
X-25997413Y28739723D01*
X-25997499Y28739641D01*
X-25997540Y28739602D01*
X-26095163Y28646937D01*
X-26394890Y28362458D01*
X-26480514Y28281196D01*
X-26560075Y28205689D01*
X-26570700Y28195405D01*
X-26570913Y28195195D01*
X-26570922Y28195186D01*
X-26573191Y28192946D01*
X-26573461Y28192680D01*
X-26583905Y28182169D01*
X-26584078Y28181991D01*
X-26741063Y28020855D01*
X-26741113Y28020804D01*
X-26741342Y28020568D01*
X-26751543Y28009889D01*
X-26751721Y28009699D01*
X-26751739Y28009680D01*
X-26754059Y28007204D01*
X-26754116Y28007142D01*
X-26754198Y28007055D01*
X-26754204Y28007048D01*
X-26754327Y28006915D01*
X-26764041Y27996341D01*
X-26764072Y27996307D01*
X-26764258Y27996104D01*
X-26822543Y27931382D01*
X-26848241Y27901297D01*
X-26848736Y27900686D01*
X-26848740Y27900681D01*
X-26854241Y27893889D01*
X-26854254Y27893872D01*
X-26854763Y27893244D01*
X-26878833Y27861880D01*
X-26879322Y27861207D01*
X-26879339Y27861184D01*
X-27113150Y27539428D01*
X-27113160Y27539414D01*
X-27114121Y27538091D01*
X-27115005Y27536730D01*
X-27115016Y27536714D01*
X-27156299Y27473153D01*
X-27157203Y27471761D01*
X-27167553Y27453837D01*
X-27203462Y27383373D01*
X-27364139Y27022542D01*
X-27392489Y26948697D01*
X-27398887Y26929008D01*
X-27399310Y26927430D01*
X-27399314Y26927416D01*
X-27408510Y26893096D01*
X-27419362Y26852600D01*
X-27419702Y26851001D01*
X-27419705Y26850988D01*
X-27438612Y26762033D01*
X-27501489Y26466220D01*
X-27501740Y26464635D01*
X-27501743Y26464619D01*
X-27513605Y26389726D01*
X-27513858Y26388127D01*
X-27516022Y26367541D01*
X-27516108Y26365893D01*
X-27516109Y26365875D01*
X-27520074Y26290219D01*
X-27520162Y26288548D01*
X-30131580Y26288548D01*
X-30130153Y26290219D01*
X-29727186Y26762046D01*
X-29722789Y26766928D01*
X-28684409Y27861207D01*
X-28285877Y28281193D01*
X-28281208Y28285862D01*
X-27289700Y29226722D01*
X-26766917Y29722799D01*
X-26762042Y29727190D01*
X-25982715Y30392779D01*
X-25174687Y31082881D01*
X-25169564Y31087030D01*
X-23513424Y32357895D01*
X-23508085Y32361774D01*
X-21787783Y33544096D01*
X-21782250Y33547689D01*
X-20002318Y34638415D01*
X-19996608Y34641712D01*
X-18162051Y35637837D01*
X-18156170Y35640833D01*
X-16292338Y36529806D01*
X-16272070Y36539473D01*
X-16266066Y36542146D01*
X-15044027Y37048319D01*
X-14337409Y37341002D01*
X-14331255Y37343365D01*
X-12363496Y38040254D01*
X-12357215Y38042294D01*
X-11915279Y38173187D01*
X-10355684Y38635107D01*
X-10349353Y38636803D01*
X-8319455Y39124160D01*
X-8313032Y39125526D01*
X-6933913Y39381110D01*
X-6260480Y39505913D01*
X-6253970Y39506945D01*
X-4184292Y39779479D01*
X-4177727Y39780169D01*
X-2096685Y39943944D01*
X-2090097Y39944289D01*
X-831672Y39977230D01*
X-3285Y39998914D01*
X3285Y39998914D01*
X907379Y39975245D01*
G37*
%TD.AperFunction*%
%TD*%
M02*
