%TF.GenerationSoftware,KiCad,Pcbnew,6.0.11+dfsg-1~bpo11+1*%
%TF.CreationDate,2023-06-19T16:06:01+00:00*%
%TF.ProjectId,USTTHUNDERMILLPCB01,55535454-4855-44e4-9445-524d494c4c50,rev?*%
%TF.SameCoordinates,Original*%
%TF.FileFunction,Legend,Bot*%
%TF.FilePolarity,Positive*%
%FSLAX46Y46*%
G04 Gerber Fmt 4.6, Leading zero omitted, Abs format (unit mm)*
G04 Created by KiCad (PCBNEW 6.0.11+dfsg-1~bpo11+1) date 2023-06-19 16:06:01*
%MOMM*%
%LPD*%
G01*
G04 APERTURE LIST*
%ADD10C,0.150000*%
%ADD11C,0.200000*%
%ADD12C,0.300000*%
%ADD13C,0.050000*%
%ADD14C,0.127000*%
G04 APERTURE END LIST*
D10*
X15996943Y-14728893D02*
G75*
G03*
X-20199999Y-8050000I-15996943J14728893D01*
G01*
X-17923152Y-12566128D02*
G75*
G03*
X13850000Y-16800000I17823152J12416128D01*
G01*
X-16322019Y3867063D02*
G75*
G03*
X7200000Y-15149999I16322019J-3867063D01*
G01*
X3962401Y16306805D02*
G75*
G03*
X-14350000Y8700000I-3962401J-16306805D01*
G01*
X15057712Y-7051862D02*
G75*
G03*
X8700000Y14349999I-14957712J7201862D01*
G01*
D11*
X17769047Y-8078785D02*
X16983333Y-8078785D01*
X17454761Y-7607357D02*
X17769047Y-9021642D01*
X17088095Y-8550214D02*
X17873809Y-8550214D01*
X17402380Y-9021642D02*
X17088095Y-7607357D01*
X15988095Y-8812119D02*
X16354761Y-8288309D01*
X16616666Y-8812119D02*
X16616666Y-7712119D01*
X16197619Y-7712119D01*
X16092857Y-7764500D01*
X16040476Y-7816880D01*
X15988095Y-7921642D01*
X15988095Y-8078785D01*
X16040476Y-8183547D01*
X16092857Y-8235928D01*
X16197619Y-8288309D01*
X16616666Y-8288309D01*
X15569047Y-8759738D02*
X15411904Y-8812119D01*
X15150000Y-8812119D01*
X15045238Y-8759738D01*
X14992857Y-8707357D01*
X14940476Y-8602595D01*
X14940476Y-8497833D01*
X14992857Y-8393071D01*
X15045238Y-8340690D01*
X15150000Y-8288309D01*
X15359523Y-8235928D01*
X15464285Y-8183547D01*
X15516666Y-8131166D01*
X15569047Y-8026404D01*
X15569047Y-7921642D01*
X15516666Y-7816880D01*
X15464285Y-7764500D01*
X15359523Y-7712119D01*
X15097619Y-7712119D01*
X14940476Y-7764500D01*
X14626190Y-7712119D02*
X13997619Y-7712119D01*
X14311904Y-8812119D02*
X14311904Y-7712119D01*
X12792857Y-8812119D02*
X12792857Y-7712119D01*
X12373809Y-7712119D01*
X12269047Y-7764500D01*
X12216666Y-7816880D01*
X12164285Y-7921642D01*
X12164285Y-8078785D01*
X12216666Y-8183547D01*
X12269047Y-8235928D01*
X12373809Y-8288309D01*
X12792857Y-8288309D01*
X11326190Y-8235928D02*
X11169047Y-8288309D01*
X11116666Y-8340690D01*
X11064285Y-8445452D01*
X11064285Y-8602595D01*
X11116666Y-8707357D01*
X11169047Y-8759738D01*
X11273809Y-8812119D01*
X11692857Y-8812119D01*
X11692857Y-7712119D01*
X11326190Y-7712119D01*
X11221428Y-7764500D01*
X11169047Y-7816880D01*
X11116666Y-7921642D01*
X11116666Y-8026404D01*
X11169047Y-8131166D01*
X11221428Y-8183547D01*
X11326190Y-8235928D01*
X11692857Y-8235928D01*
X10697619Y-7712119D02*
X9964285Y-7712119D01*
X10435714Y-8812119D01*
X8707142Y-8812119D02*
X8707142Y-7712119D01*
X8288095Y-7712119D01*
X8183333Y-7764500D01*
X8130952Y-7816880D01*
X8078571Y-7921642D01*
X8078571Y-8078785D01*
X8130952Y-8183547D01*
X8183333Y-8235928D01*
X8288095Y-8288309D01*
X8707142Y-8288309D01*
X7240476Y-8235928D02*
X7083333Y-8288309D01*
X7030952Y-8340690D01*
X6978571Y-8445452D01*
X6978571Y-8602595D01*
X7030952Y-8707357D01*
X7083333Y-8759738D01*
X7188095Y-8812119D01*
X7607142Y-8812119D01*
X7607142Y-7712119D01*
X7240476Y-7712119D01*
X7135714Y-7764500D01*
X7083333Y-7816880D01*
X7030952Y-7921642D01*
X7030952Y-8026404D01*
X7083333Y-8131166D01*
X7135714Y-8183547D01*
X7240476Y-8235928D01*
X7607142Y-8235928D01*
X6035714Y-7712119D02*
X6245238Y-7712119D01*
X6350000Y-7764500D01*
X6402380Y-7816880D01*
X6507142Y-7974023D01*
X6559523Y-8183547D01*
X6559523Y-8602595D01*
X6507142Y-8707357D01*
X6454761Y-8759738D01*
X6350000Y-8812119D01*
X6140476Y-8812119D01*
X6035714Y-8759738D01*
X5983333Y-8707357D01*
X5930952Y-8602595D01*
X5930952Y-8340690D01*
X5983333Y-8235928D01*
X6035714Y-8183547D01*
X6140476Y-8131166D01*
X6350000Y-8131166D01*
X6454761Y-8183547D01*
X6507142Y-8235928D01*
X6559523Y-8340690D01*
X16669047Y-9535500D02*
X16773809Y-9483119D01*
X16930952Y-9483119D01*
X17088095Y-9535500D01*
X17192857Y-9640261D01*
X17245238Y-9745023D01*
X17297619Y-9954547D01*
X17297619Y-10111690D01*
X17245238Y-10321214D01*
X17192857Y-10425976D01*
X17088095Y-10530738D01*
X16930952Y-10583119D01*
X16826190Y-10583119D01*
X16669047Y-10530738D01*
X16616666Y-10478357D01*
X16616666Y-10111690D01*
X16826190Y-10111690D01*
X16145238Y-10583119D02*
X16145238Y-9483119D01*
X15516666Y-10583119D01*
X15516666Y-9483119D01*
X14992857Y-10583119D02*
X14992857Y-9483119D01*
X14730952Y-9483119D01*
X14573809Y-9535500D01*
X14469047Y-9640261D01*
X14416666Y-9745023D01*
X14364285Y-9954547D01*
X14364285Y-10111690D01*
X14416666Y-10321214D01*
X14469047Y-10425976D01*
X14573809Y-10530738D01*
X14730952Y-10583119D01*
X14992857Y-10583119D01*
X13054761Y-10583119D02*
X13054761Y-9483119D01*
X12635714Y-9483119D01*
X12530952Y-9535500D01*
X12478571Y-9587880D01*
X12426190Y-9692642D01*
X12426190Y-9849785D01*
X12478571Y-9954547D01*
X12530952Y-10006928D01*
X12635714Y-10059309D01*
X13054761Y-10059309D01*
X11588095Y-10006928D02*
X11430952Y-10059309D01*
X11378571Y-10111690D01*
X11326190Y-10216452D01*
X11326190Y-10373595D01*
X11378571Y-10478357D01*
X11430952Y-10530738D01*
X11535714Y-10583119D01*
X11954761Y-10583119D01*
X11954761Y-9483119D01*
X11588095Y-9483119D01*
X11483333Y-9535500D01*
X11430952Y-9587880D01*
X11378571Y-9692642D01*
X11378571Y-9797404D01*
X11430952Y-9902166D01*
X11483333Y-9954547D01*
X11588095Y-10006928D01*
X11954761Y-10006928D01*
X10330952Y-9483119D02*
X10854761Y-9483119D01*
X10907142Y-10006928D01*
X10854761Y-9954547D01*
X10750000Y-9902166D01*
X10488095Y-9902166D01*
X10383333Y-9954547D01*
X10330952Y-10006928D01*
X10278571Y-10111690D01*
X10278571Y-10373595D01*
X10330952Y-10478357D01*
X10383333Y-10530738D01*
X10488095Y-10583119D01*
X10750000Y-10583119D01*
X10854761Y-10530738D01*
X10907142Y-10478357D01*
X9073809Y-9483119D02*
X8392857Y-9483119D01*
X8759523Y-9902166D01*
X8602380Y-9902166D01*
X8497619Y-9954547D01*
X8445238Y-10006928D01*
X8392857Y-10111690D01*
X8392857Y-10373595D01*
X8445238Y-10478357D01*
X8497619Y-10530738D01*
X8602380Y-10583119D01*
X8916666Y-10583119D01*
X9021428Y-10530738D01*
X9073809Y-10478357D01*
X8078571Y-9483119D02*
X7711904Y-10583119D01*
X7345238Y-9483119D01*
X7083333Y-9483119D02*
X6402380Y-9483119D01*
X6769047Y-9902166D01*
X6611904Y-9902166D01*
X6507142Y-9954547D01*
X6454761Y-10006928D01*
X6402380Y-10111690D01*
X6402380Y-10373595D01*
X6454761Y-10478357D01*
X6507142Y-10530738D01*
X6611904Y-10583119D01*
X6926190Y-10583119D01*
X7030952Y-10530738D01*
X7083333Y-10478357D01*
D12*
X-31388865Y10630246D02*
X-30210664Y10080842D01*
X-30001368Y10529681D01*
X-30005148Y10668052D01*
X-30035091Y10750319D01*
X-30121139Y10858748D01*
X-30289453Y10937234D01*
X-30427824Y10933454D01*
X-30510091Y10903511D01*
X-30618520Y10817463D01*
X-30827817Y10368625D01*
X-30839461Y11808446D02*
X-30053994Y11442177D01*
X-29661261Y11259043D02*
X-29743528Y11229100D01*
X-29773470Y11311367D01*
X-29691203Y11341309D01*
X-29661261Y11259043D01*
X-29773470Y11311367D01*
X-30630164Y12257284D02*
X-29556914Y12508168D01*
X-29844697Y11891015D02*
X-30342381Y12874437D01*
X-30133085Y13323275D02*
X-28954884Y12773871D01*
X-29897626Y13828218D02*
X-29280473Y13540435D01*
X-29194426Y13432006D01*
X-29190645Y13293634D01*
X-29269132Y13125320D01*
X-29377561Y13039273D01*
X-29459827Y13009330D01*
X-29400546Y14894208D02*
X-28783394Y14606426D01*
X-28697346Y14497997D01*
X-28693566Y14359625D01*
X-28798214Y14135206D01*
X-28906643Y14049159D01*
X-29344441Y14868046D02*
X-29452870Y14781999D01*
X-29583681Y14501475D01*
X-29579900Y14363103D01*
X-29493853Y14254675D01*
X-29381643Y14202350D01*
X-29243272Y14206131D01*
X-29134843Y14292178D01*
X-29004032Y14572702D01*
X-28895603Y14658750D01*
X-28405783Y14976777D02*
X-29086601Y15567466D01*
X-28420905Y15530264D01*
X-28877305Y16016304D01*
X-27987190Y15874454D01*
X-28563360Y16689561D02*
X-27385159Y16140157D01*
X-28062197Y16592474D02*
X-28354063Y17138399D01*
X-27568596Y16772130D02*
X-28226731Y16532589D01*
X-34083710Y9803591D02*
X-32905510Y9254187D01*
X-32782261Y9811454D02*
X-32699994Y9841397D01*
X-32591565Y9927444D01*
X-32460755Y10207968D01*
X-32464535Y10346340D01*
X-32494478Y10428607D01*
X-32580525Y10537035D01*
X-32692735Y10589360D01*
X-32887211Y10611741D01*
X-33874413Y10252429D01*
X-33534306Y10981791D01*
X-32872693Y12107667D02*
X-32954960Y12077724D01*
X-33089551Y11935572D01*
X-33141875Y11823362D01*
X-33164257Y11628886D01*
X-33104371Y11464352D01*
X-33018324Y11355923D01*
X-32820067Y11195170D01*
X-32651752Y11116684D01*
X-32401171Y11068140D01*
X-32262800Y11071921D01*
X-32098266Y11131806D01*
X-31963675Y11273959D01*
X-31911351Y11386168D01*
X-31888969Y11580645D01*
X-31918912Y11662911D01*
X-31886095Y14516391D02*
X-31912257Y14460286D01*
X-31908477Y14321915D01*
X-31818649Y14075114D01*
X-31612830Y13637618D01*
X-31496840Y13446922D01*
X-31354688Y13312331D01*
X-31242478Y13260007D01*
X-31104107Y13263788D01*
X-30995678Y13349835D01*
X-30969516Y13405940D01*
X-30973296Y13544311D01*
X-31059344Y13652740D01*
X-31115449Y13678902D01*
X-31253820Y13675122D01*
X-31336087Y13645179D01*
X-31717479Y13413199D01*
X-31799746Y13383256D01*
X-31938117Y13379476D01*
X-32106431Y13457962D01*
X-32192479Y13566391D01*
X-32222422Y13648658D01*
X-32226202Y13787029D01*
X-32147716Y13955344D01*
X-32039287Y14041391D01*
X-31957020Y14071334D01*
X-31654115Y14135000D01*
X-31459638Y14112618D01*
X-31347429Y14060294D01*
X-30053843Y15369607D02*
X-31007624Y15814362D01*
X-31093671Y15922791D01*
X-31123614Y16005058D01*
X-31127395Y16143429D01*
X-31022746Y16367849D01*
X-30914317Y16453896D01*
X-30832051Y16483839D01*
X-30693679Y16487619D01*
X-29739898Y16042864D01*
X-30346011Y16940238D02*
X-30084390Y17501286D01*
X-30734963Y16985001D02*
X-29373629Y16828331D01*
X-30368694Y17770468D01*
X-29871615Y18836458D02*
X-29493702Y18182104D01*
X-30185560Y18163201D02*
X-29007360Y17613797D01*
X-28798063Y18062636D01*
X-28801844Y18201007D01*
X-28831786Y18283274D01*
X-28917834Y18391703D01*
X-29086148Y18470189D01*
X-29224520Y18466409D01*
X-29306786Y18436466D01*
X-29415215Y18350418D01*
X-29624512Y17901580D01*
X-28536442Y18623683D02*
X-28222497Y19296940D01*
X-29557670Y19509716D02*
X-28379470Y18960312D01*
X33741595Y11804762D02*
X34793976Y11804762D01*
X34917785Y11742858D01*
X34979690Y11680953D01*
X35041595Y11557143D01*
X35041595Y11309524D01*
X34979690Y11185715D01*
X34917785Y11123810D01*
X34793976Y11061905D01*
X33741595Y11061905D01*
X34979690Y10504762D02*
X35041595Y10319048D01*
X35041595Y10009524D01*
X34979690Y9885715D01*
X34917785Y9823810D01*
X34793976Y9761905D01*
X34670166Y9761905D01*
X34546357Y9823810D01*
X34484452Y9885715D01*
X34422547Y10009524D01*
X34360642Y10257143D01*
X34298738Y10380953D01*
X34236833Y10442858D01*
X34113023Y10504762D01*
X33989214Y10504762D01*
X33865404Y10442858D01*
X33803500Y10380953D01*
X33741595Y10257143D01*
X33741595Y9947620D01*
X33803500Y9761905D01*
X33741595Y9390477D02*
X33741595Y8647620D01*
X35041595Y9019048D02*
X33741595Y9019048D01*
X33741595Y8400000D02*
X33741595Y7657143D01*
X35041595Y8028572D02*
X33741595Y8028572D01*
X35041595Y7223810D02*
X33741595Y7223810D01*
X34360642Y7223810D02*
X34360642Y6480953D01*
X35041595Y6480953D02*
X33741595Y6480953D01*
X33741595Y5861905D02*
X34793976Y5861905D01*
X34917785Y5800000D01*
X34979690Y5738096D01*
X35041595Y5614286D01*
X35041595Y5366667D01*
X34979690Y5242858D01*
X34917785Y5180953D01*
X34793976Y5119048D01*
X33741595Y5119048D01*
X35041595Y4500000D02*
X33741595Y4500000D01*
X35041595Y3757143D01*
X33741595Y3757143D01*
X35041595Y3138096D02*
X33741595Y3138096D01*
X33741595Y2828572D01*
X33803500Y2642858D01*
X33927309Y2519048D01*
X34051119Y2457143D01*
X34298738Y2395239D01*
X34484452Y2395239D01*
X34732071Y2457143D01*
X34855880Y2519048D01*
X34979690Y2642858D01*
X35041595Y2828572D01*
X35041595Y3138096D01*
X34360642Y1838096D02*
X34360642Y1404762D01*
X35041595Y1219048D02*
X35041595Y1838096D01*
X33741595Y1838096D01*
X33741595Y1219048D01*
X35041595Y-80952D02*
X34422547Y352381D01*
X35041595Y661905D02*
X33741595Y661905D01*
X33741595Y166667D01*
X33803500Y42858D01*
X33865404Y-19047D01*
X33989214Y-80952D01*
X34174928Y-80952D01*
X34298738Y-19047D01*
X34360642Y42858D01*
X34422547Y166667D01*
X34422547Y661905D01*
X35041595Y-638095D02*
X33741595Y-638095D01*
X34670166Y-1071428D01*
X33741595Y-1504761D01*
X35041595Y-1504761D01*
X35041595Y-2123809D02*
X33741595Y-2123809D01*
X35041595Y-3361904D02*
X35041595Y-2742857D01*
X33741595Y-2742857D01*
X35041595Y-4414285D02*
X35041595Y-3795238D01*
X33741595Y-3795238D01*
X35041595Y-4847619D02*
X33741595Y-4847619D01*
X33741595Y-5342857D01*
X33803500Y-5466666D01*
X33865404Y-5528571D01*
X33989214Y-5590476D01*
X34174928Y-5590476D01*
X34298738Y-5528571D01*
X34360642Y-5466666D01*
X34422547Y-5342857D01*
X34422547Y-4847619D01*
X34917785Y-6890476D02*
X34979690Y-6828571D01*
X35041595Y-6642857D01*
X35041595Y-6519047D01*
X34979690Y-6333333D01*
X34855880Y-6209523D01*
X34732071Y-6147619D01*
X34484452Y-6085714D01*
X34298738Y-6085714D01*
X34051119Y-6147619D01*
X33927309Y-6209523D01*
X33803500Y-6333333D01*
X33741595Y-6519047D01*
X33741595Y-6642857D01*
X33803500Y-6828571D01*
X33865404Y-6890476D01*
X34360642Y-7880952D02*
X34422547Y-8066666D01*
X34484452Y-8128571D01*
X34608261Y-8190476D01*
X34793976Y-8190476D01*
X34917785Y-8128571D01*
X34979690Y-8066666D01*
X35041595Y-7942857D01*
X35041595Y-7447619D01*
X33741595Y-7447619D01*
X33741595Y-7880952D01*
X33803500Y-8004761D01*
X33865404Y-8066666D01*
X33989214Y-8128571D01*
X34113023Y-8128571D01*
X34236833Y-8066666D01*
X34298738Y-8004761D01*
X34360642Y-7880952D01*
X34360642Y-7447619D01*
X33741595Y-8995238D02*
X33741595Y-9119047D01*
X33803500Y-9242857D01*
X33865404Y-9304761D01*
X33989214Y-9366666D01*
X34236833Y-9428571D01*
X34546357Y-9428571D01*
X34793976Y-9366666D01*
X34917785Y-9304761D01*
X34979690Y-9242857D01*
X35041595Y-9119047D01*
X35041595Y-8995238D01*
X34979690Y-8871428D01*
X34917785Y-8809523D01*
X34793976Y-8747619D01*
X34546357Y-8685714D01*
X34236833Y-8685714D01*
X33989214Y-8747619D01*
X33865404Y-8809523D01*
X33803500Y-8871428D01*
X33741595Y-8995238D01*
X35041595Y-10666666D02*
X35041595Y-9923809D01*
X35041595Y-10295238D02*
X33741595Y-10295238D01*
X33927309Y-10171428D01*
X34051119Y-10047619D01*
X34113023Y-9923809D01*
X34360642Y-11657142D02*
X34422547Y-11842857D01*
X34484452Y-11904761D01*
X34608261Y-11966666D01*
X34793976Y-11966666D01*
X34917785Y-11904761D01*
X34979690Y-11842857D01*
X35041595Y-11719047D01*
X35041595Y-11223809D01*
X33741595Y-11223809D01*
X33741595Y-11657142D01*
X33803500Y-11780952D01*
X33865404Y-11842857D01*
X33989214Y-11904761D01*
X34113023Y-11904761D01*
X34236833Y-11842857D01*
X34298738Y-11780952D01*
X34360642Y-11657142D01*
X34360642Y-11223809D01*
X35958404Y2178572D02*
X35896500Y2116667D01*
X35834595Y1992858D01*
X35834595Y1683334D01*
X35896500Y1559524D01*
X35958404Y1497620D01*
X36082214Y1435715D01*
X36206023Y1435715D01*
X36391738Y1497620D01*
X37134595Y2240477D01*
X37134595Y1435715D01*
X35834595Y630953D02*
X35834595Y507143D01*
X35896500Y383334D01*
X35958404Y321429D01*
X36082214Y259524D01*
X36329833Y197620D01*
X36639357Y197620D01*
X36886976Y259524D01*
X37010785Y321429D01*
X37072690Y383334D01*
X37134595Y507143D01*
X37134595Y630953D01*
X37072690Y754762D01*
X37010785Y816667D01*
X36886976Y878572D01*
X36639357Y940477D01*
X36329833Y940477D01*
X36082214Y878572D01*
X35958404Y816667D01*
X35896500Y754762D01*
X35834595Y630953D01*
X35958404Y-297619D02*
X35896500Y-359523D01*
X35834595Y-483333D01*
X35834595Y-792857D01*
X35896500Y-916666D01*
X35958404Y-978571D01*
X36082214Y-1040476D01*
X36206023Y-1040476D01*
X36391738Y-978571D01*
X37134595Y-235714D01*
X37134595Y-1040476D01*
X35834595Y-1473809D02*
X35834595Y-2278571D01*
X36329833Y-1845238D01*
X36329833Y-2030952D01*
X36391738Y-2154761D01*
X36453642Y-2216666D01*
X36577452Y-2278571D01*
X36886976Y-2278571D01*
X37010785Y-2216666D01*
X37072690Y-2154761D01*
X37134595Y-2030952D01*
X37134595Y-1659523D01*
X37072690Y-1535714D01*
X37010785Y-1473809D01*
X-26599792Y-19687550D02*
X-25431360Y-19117668D01*
X-25567046Y-18839470D01*
X-25704098Y-18699688D01*
X-25869651Y-18642683D01*
X-26008068Y-18641318D01*
X-26257764Y-18694228D01*
X-26424683Y-18775640D01*
X-26620104Y-18939828D01*
X-26704246Y-19049742D01*
X-26761251Y-19215296D01*
X-26735478Y-19409352D01*
X-26599792Y-19687550D01*
X-27331133Y-18046864D02*
X-27332498Y-18185280D01*
X-27223949Y-18407839D01*
X-27114035Y-18491981D01*
X-26975618Y-18493346D01*
X-26530501Y-18276248D01*
X-26446359Y-18166334D01*
X-26444994Y-18027917D01*
X-26553543Y-17805359D01*
X-26663457Y-17721217D01*
X-26801874Y-17719852D01*
X-26913153Y-17774126D01*
X-26753060Y-18384797D01*
X-27658145Y-17517605D02*
X-26489713Y-16947722D01*
X-26934830Y-17164820D02*
X-26933465Y-17026404D01*
X-27042014Y-16803845D01*
X-27151928Y-16719703D01*
X-27234705Y-16691201D01*
X-27373122Y-16689836D01*
X-27706959Y-16852660D01*
X-27791101Y-16962574D01*
X-27819604Y-17045351D01*
X-27820969Y-17183767D01*
X-27712420Y-17406326D01*
X-27602506Y-17490468D01*
X-27639034Y-15579774D02*
X-28417989Y-15959695D01*
X-27394798Y-16080530D02*
X-28006834Y-16379040D01*
X-28145251Y-16377675D01*
X-28255165Y-16293533D01*
X-28336577Y-16126614D01*
X-28335212Y-15988198D01*
X-28306709Y-15905421D01*
X-28154642Y-14522621D02*
X-29100515Y-14983954D01*
X-29184657Y-15093868D01*
X-29213160Y-15176645D01*
X-29214525Y-15315062D01*
X-29133113Y-15481980D01*
X-29023199Y-15566122D01*
X-28877957Y-14875405D02*
X-28879322Y-15013821D01*
X-28770773Y-15236380D01*
X-28660859Y-15320522D01*
X-28578082Y-15349024D01*
X-28439665Y-15350389D01*
X-28105828Y-15187566D01*
X-28021686Y-15077652D01*
X-27993183Y-14994875D01*
X-27991818Y-14856458D01*
X-28100367Y-14633900D01*
X-28210281Y-14549758D01*
X-28470733Y-12886029D02*
X-29416607Y-13347363D01*
X-29555023Y-13345998D01*
X-29637800Y-13317495D01*
X-29747714Y-13233353D01*
X-29856263Y-13010795D01*
X-29854898Y-12872378D01*
X-29826396Y-12789601D01*
X-29742254Y-12679687D01*
X-28796380Y-12218354D01*
X-29875210Y-12124656D02*
X-30146583Y-11568260D01*
X-30154773Y-12398759D02*
X-29176302Y-11439399D01*
X-30534695Y-11619804D01*
X-31050303Y-10562651D02*
X-30303946Y-10680756D01*
X-30724656Y-11230327D02*
X-29556224Y-10660444D01*
X-29773322Y-10215327D01*
X-29883236Y-10131185D01*
X-29966013Y-10102683D01*
X-30104429Y-10101317D01*
X-30271348Y-10182729D01*
X-30355490Y-10292643D01*
X-30383993Y-10375420D01*
X-30385358Y-10513837D01*
X-30168260Y-10958954D01*
X-30044694Y-9658931D02*
X-30370341Y-8991255D01*
X-31375950Y-9894975D02*
X-30207518Y-9325093D01*
X-32838096Y-3328571D02*
X-31538096Y-3328571D01*
X-31538096Y-2833333D01*
X-31600000Y-2709523D01*
X-31661905Y-2647619D01*
X-31785715Y-2585714D01*
X-31971429Y-2585714D01*
X-32095239Y-2647619D01*
X-32157143Y-2709523D01*
X-32219048Y-2833333D01*
X-32219048Y-3328571D01*
X-32838096Y-1471428D02*
X-32157143Y-1471428D01*
X-32033334Y-1533333D01*
X-31971429Y-1657142D01*
X-31971429Y-1904761D01*
X-32033334Y-2028571D01*
X-32776191Y-1471428D02*
X-32838096Y-1595238D01*
X-32838096Y-1904761D01*
X-32776191Y-2028571D01*
X-32652381Y-2090476D01*
X-32528572Y-2090476D01*
X-32404762Y-2028571D01*
X-32342858Y-1904761D01*
X-32342858Y-1595238D01*
X-32280953Y-1471428D01*
X-31971429Y-976190D02*
X-32838096Y-666666D01*
X-31971429Y-357142D02*
X-32838096Y-666666D01*
X-33147620Y-790476D01*
X-33209524Y-852380D01*
X-33271429Y-976190D01*
X-32838096Y323810D02*
X-32776191Y200000D01*
X-32652381Y138096D01*
X-31538096Y138096D01*
X-32838096Y1004762D02*
X-32776191Y880953D01*
X-32714286Y819048D01*
X-32590477Y757143D01*
X-32219048Y757143D01*
X-32095239Y819048D01*
X-32033334Y880953D01*
X-31971429Y1004762D01*
X-31971429Y1190477D01*
X-32033334Y1314286D01*
X-32095239Y1376191D01*
X-32219048Y1438096D01*
X-32590477Y1438096D01*
X-32714286Y1376191D01*
X-32776191Y1314286D01*
X-32838096Y1190477D01*
X-32838096Y1004762D01*
X-32838096Y2552381D02*
X-32157143Y2552381D01*
X-32033334Y2490477D01*
X-31971429Y2366667D01*
X-31971429Y2119048D01*
X-32033334Y1995239D01*
X-32776191Y2552381D02*
X-32838096Y2428572D01*
X-32838096Y2119048D01*
X-32776191Y1995239D01*
X-32652381Y1933334D01*
X-32528572Y1933334D01*
X-32404762Y1995239D01*
X-32342858Y2119048D01*
X-32342858Y2428572D01*
X-32280953Y2552381D01*
X-32838096Y3728572D02*
X-31538096Y3728572D01*
X-32776191Y3728572D02*
X-32838096Y3604762D01*
X-32838096Y3357143D01*
X-32776191Y3233334D01*
X-32714286Y3171429D01*
X-32590477Y3109524D01*
X-32219048Y3109524D01*
X-32095239Y3171429D01*
X-32033334Y3233334D01*
X-31971429Y3357143D01*
X-31971429Y3604762D01*
X-32033334Y3728572D01*
D10*
%TO.C,U6*%
X-14102150Y7985676D02*
X-14379024Y7224973D01*
X-14456345Y7151765D01*
X-14517378Y7123304D01*
X-14623160Y7111130D01*
X-14802149Y7176277D01*
X-14875357Y7253598D01*
X-14903817Y7314632D01*
X-14915991Y7420413D01*
X-14639118Y8181116D01*
X-15489316Y8490563D02*
X-15310327Y8425416D01*
X-15237119Y8348096D01*
X-15208658Y8287062D01*
X-15168024Y8120247D01*
X-15188423Y7924971D01*
X-15318717Y7566993D01*
X-15396037Y7493785D01*
X-15457071Y7465324D01*
X-15562852Y7453151D01*
X-15741841Y7518297D01*
X-15815049Y7595618D01*
X-15843510Y7656652D01*
X-15855684Y7762433D01*
X-15774250Y7986169D01*
X-15696930Y8059377D01*
X-15635896Y8087838D01*
X-15530115Y8100012D01*
X-15351126Y8034865D01*
X-15277918Y7957544D01*
X-15249457Y7896510D01*
X-15237283Y7790729D01*
%TO.C,U13*%
X7941140Y13549276D02*
X7180436Y13826149D01*
X7107228Y13903470D01*
X7078768Y13964504D01*
X7066594Y14070285D01*
X7131740Y14249274D01*
X7209061Y14322482D01*
X7270095Y14350943D01*
X7375876Y14363116D01*
X8136580Y14086243D01*
X7538907Y15367956D02*
X7343467Y14830989D01*
X7441187Y15099472D02*
X8380880Y14757452D01*
X8214065Y14716818D01*
X8091997Y14659896D01*
X8014676Y14586688D01*
X8592607Y15339167D02*
X8804333Y15920881D01*
X8332348Y15737943D01*
X8381208Y15872185D01*
X8369035Y15977967D01*
X8340574Y16039000D01*
X8267366Y16116321D01*
X8043630Y16197754D01*
X7937849Y16185581D01*
X7876815Y16157120D01*
X7799494Y16083912D01*
X7701774Y15815428D01*
X7713948Y15709647D01*
X7742408Y15648613D01*
%TO.C,U5*%
X-19357532Y-8174746D02*
X-18952770Y-8875814D01*
X-18946390Y-8982102D01*
X-18963820Y-9047151D01*
X-19022489Y-9136010D01*
X-19187447Y-9231248D01*
X-19293735Y-9237627D01*
X-19358784Y-9220198D01*
X-19447642Y-9161529D01*
X-19852404Y-8460460D01*
X-20677190Y-8936651D02*
X-20264797Y-8698556D01*
X-19985462Y-9087139D01*
X-20050511Y-9069709D01*
X-20156799Y-9076089D01*
X-20362996Y-9195137D01*
X-20421665Y-9283995D01*
X-20439095Y-9349044D01*
X-20432715Y-9455332D01*
X-20313667Y-9661529D01*
X-20224809Y-9720198D01*
X-20159760Y-9737627D01*
X-20053472Y-9731248D01*
X-19847275Y-9612200D01*
X-19788606Y-9523342D01*
X-19771177Y-9458293D01*
D13*
%TO.C,J4*%
X9508590Y-11047657D02*
X9508590Y-10761942D01*
X9508590Y-10904800D02*
X9008590Y-10904800D01*
X9080019Y-10857180D01*
X9127638Y-10809561D01*
X9151447Y-10761942D01*
D14*
%TO.C,U6*%
X-14057468Y6189661D02*
X-14741508Y4310276D01*
X-16632226Y7126796D02*
X-17316266Y5247411D01*
D11*
X-13525472Y5787414D02*
G75*
G03*
X-13525472Y5787414I-100000J0D01*
G01*
D14*
%TO.C,U13*%
X7126796Y16632226D02*
X5247411Y17316266D01*
X6189661Y14057468D02*
X4310276Y14741508D01*
D11*
X5887414Y13625472D02*
G75*
G03*
X5887414Y13625472I-100000J0D01*
G01*
D14*
%TO.C,U5*%
X-18100296Y-9292175D02*
X-17100296Y-11024225D01*
X-20473206Y-10662175D02*
X-19473206Y-12394225D01*
D11*
X-17414476Y-9219806D02*
G75*
G03*
X-17414476Y-9219806I-100000J0D01*
G01*
%TO.C,G1*%
G36*
X29820317Y-310592D02*
G01*
X29982940Y-365519D01*
X30176908Y-495795D01*
X30354693Y-663575D01*
X30468767Y-831018D01*
X30497595Y-968725D01*
X30514258Y-1198834D01*
X30514265Y-1468542D01*
X30480273Y-1800145D01*
X30367538Y-2133528D01*
X30165367Y-2381511D01*
X29861021Y-2565487D01*
X29753715Y-2604436D01*
X29514584Y-2674087D01*
X29201735Y-2754858D01*
X28850032Y-2838791D01*
X28494338Y-2917927D01*
X28169517Y-2984307D01*
X27910434Y-3029971D01*
X27751953Y-3046962D01*
X27730242Y-3043043D01*
X27674233Y-2954822D01*
X27656353Y-2741935D01*
X27656353Y-2436908D01*
X28375552Y-2311245D01*
X28860744Y-2220536D01*
X29255538Y-2130845D01*
X29544014Y-2042618D01*
X29743423Y-1950526D01*
X29871014Y-1849239D01*
X29958540Y-1694828D01*
X30002513Y-1454602D01*
X29977470Y-1213734D01*
X29882551Y-1033143D01*
X29875432Y-1026113D01*
X29819277Y-982166D01*
X29745293Y-958857D01*
X29629553Y-957705D01*
X29448131Y-980231D01*
X29177101Y-1027955D01*
X28792536Y-1102398D01*
X28675863Y-1125211D01*
X28331585Y-1191089D01*
X28042552Y-1244294D01*
X27836213Y-1279859D01*
X27740021Y-1292818D01*
X27724300Y-1289027D01*
X27674391Y-1194448D01*
X27656353Y-989849D01*
X27656353Y-686880D01*
X28662695Y-498689D01*
X28801802Y-472932D01*
X29160197Y-408977D01*
X29467887Y-357426D01*
X29695845Y-323020D01*
X29815046Y-310498D01*
X29820317Y-310592D01*
G37*
G36*
X30019307Y-3084320D02*
G01*
X30259168Y-3239710D01*
X30432326Y-3494500D01*
X30465786Y-3590110D01*
X30515651Y-3874384D01*
X30526097Y-4197393D01*
X30497267Y-4501290D01*
X30429302Y-4728229D01*
X30261150Y-4966842D01*
X29989924Y-5156679D01*
X29662227Y-5222100D01*
X29549393Y-5217555D01*
X29330985Y-5165740D01*
X29149426Y-5039601D01*
X28980820Y-4818600D01*
X28801269Y-4482199D01*
X28739599Y-4357562D01*
X28587364Y-4093045D01*
X28458644Y-3950195D01*
X28342070Y-3919293D01*
X28226272Y-3990619D01*
X28145879Y-4119492D01*
X28115068Y-4345339D01*
X28171374Y-4577360D01*
X28308895Y-4760565D01*
X28342601Y-4788733D01*
X28464733Y-4950918D01*
X28498342Y-5172111D01*
X28489362Y-5331209D01*
X28442570Y-5413917D01*
X28332390Y-5432597D01*
X28282971Y-5428591D01*
X28067164Y-5341747D01*
X27854763Y-5167113D01*
X27690034Y-4938726D01*
X27652986Y-4841096D01*
X27604976Y-4606066D01*
X27586188Y-4345028D01*
X27590224Y-4212060D01*
X27662522Y-3830219D01*
X27823270Y-3553266D01*
X28069749Y-3384602D01*
X28399244Y-3327625D01*
X28464874Y-3329383D01*
X28703262Y-3378966D01*
X28903237Y-3510631D01*
X29086035Y-3743027D01*
X29272897Y-4094806D01*
X29327859Y-4209345D01*
X29465064Y-4458143D01*
X29582588Y-4594454D01*
X29697908Y-4633926D01*
X29828503Y-4592207D01*
X29841319Y-4584881D01*
X29967289Y-4437898D01*
X30023121Y-4225768D01*
X30010828Y-3996239D01*
X29932420Y-3797062D01*
X29789909Y-3675982D01*
X29698765Y-3627796D01*
X29636498Y-3523536D01*
X29620994Y-3329361D01*
X29621232Y-3279702D01*
X29635296Y-3123820D01*
X29691007Y-3059531D01*
X29815879Y-3046962D01*
X30019307Y-3084320D01*
G37*
G36*
X27937016Y7898895D02*
G01*
X27935380Y7882452D01*
X27878383Y7828729D01*
X27844058Y7811141D01*
X27721874Y7716054D01*
X27539251Y7557014D01*
X27321010Y7355110D01*
X27292657Y7328053D01*
X27020633Y7046829D01*
X26814352Y6776262D01*
X26653153Y6478862D01*
X26516375Y6117135D01*
X26383359Y5653591D01*
X26315388Y5328079D01*
X26257513Y4810739D01*
X26242179Y4256005D01*
X26267444Y3698644D01*
X26331365Y3173422D01*
X26432001Y2715105D01*
X26567410Y2358458D01*
X26760160Y2063126D01*
X27066479Y1770045D01*
X27419601Y1580893D01*
X27793200Y1513812D01*
X27891952Y1518060D01*
X28149528Y1591582D01*
X28300984Y1753950D01*
X28345483Y2001922D01*
X28282187Y2332257D01*
X28110260Y2741712D01*
X28086912Y2788632D01*
X27846441Y3421989D01*
X27745929Y4054496D01*
X27785059Y4688060D01*
X27826428Y4896132D01*
X27982693Y5439669D01*
X28199501Y5977628D01*
X28461911Y6483202D01*
X28754981Y6929583D01*
X29063769Y7289965D01*
X29373332Y7537539D01*
X29485228Y7601352D01*
X29986997Y7809244D01*
X30469723Y7878208D01*
X30932567Y7808343D01*
X31374693Y7599748D01*
X31795262Y7252521D01*
X31808148Y7239324D01*
X32124435Y6841262D01*
X32374893Y6359511D01*
X32572913Y5768520D01*
X32628032Y5486591D01*
X32671126Y5057819D01*
X32690473Y4564391D01*
X32686515Y4046187D01*
X32659697Y3543085D01*
X32610462Y3094967D01*
X32539253Y2741712D01*
X32502446Y2616534D01*
X32236216Y1946229D01*
X31884535Y1385984D01*
X31448129Y936764D01*
X30927723Y599531D01*
X30714184Y500234D01*
X30549691Y437839D01*
X30473368Y427552D01*
X30482833Y455515D01*
X30570973Y562182D01*
X30730816Y726064D01*
X30941779Y925291D01*
X31012181Y990251D01*
X31344663Y1328243D01*
X31588951Y1650527D01*
X31774350Y2001603D01*
X31930170Y2425967D01*
X31981394Y2602464D01*
X32103345Y3226453D01*
X32158605Y3898710D01*
X32147241Y4576266D01*
X32069321Y5216148D01*
X31924912Y5775384D01*
X31807384Y6049105D01*
X31579445Y6398501D01*
X31306909Y6663428D01*
X31008290Y6834404D01*
X30702104Y6901948D01*
X30406866Y6856580D01*
X30141091Y6688818D01*
X30055940Y6588743D01*
X29981989Y6370756D01*
X30021743Y6101942D01*
X30175763Y5767381D01*
X30223871Y5679285D01*
X30468507Y5065772D01*
X30591160Y4397401D01*
X30590263Y3689439D01*
X30464247Y2957151D01*
X30339633Y2569209D01*
X30065750Y2005449D01*
X29708234Y1497494D01*
X29287680Y1072948D01*
X28824682Y759416D01*
X28429496Y616184D01*
X27992338Y561401D01*
X27563335Y596858D01*
X27191229Y723624D01*
X27159519Y740737D01*
X26729887Y1053752D01*
X26355140Y1480890D01*
X26049121Y2003112D01*
X25825674Y2601381D01*
X25787203Y2789106D01*
X25749262Y3141105D01*
X25727895Y3571127D01*
X25722738Y4043800D01*
X25733429Y4523753D01*
X25759606Y4975616D01*
X25800906Y5364019D01*
X25856965Y5653591D01*
X25920702Y5860042D01*
X26058267Y6222175D01*
X26217039Y6566835D01*
X26378158Y6854580D01*
X26522763Y7045967D01*
X26616510Y7151384D01*
X26682804Y7253800D01*
X26691470Y7267669D01*
X26787381Y7356528D01*
X26962902Y7491224D01*
X27188226Y7648483D01*
X27207775Y7661503D01*
X27509449Y7844205D01*
X27739267Y7947252D01*
X27885649Y7966773D01*
X27937016Y7898895D01*
G37*
G36*
X28147514Y-6270140D02*
G01*
X28151175Y-6407335D01*
X28180261Y-6573485D01*
X28241815Y-6625415D01*
X28273168Y-6622325D01*
X28427964Y-6597230D01*
X28681004Y-6551004D01*
X29005688Y-6488587D01*
X29375414Y-6414917D01*
X29563830Y-6376837D01*
X29903399Y-6308653D01*
X30178702Y-6253968D01*
X30365323Y-6217613D01*
X30438847Y-6204420D01*
X30445588Y-6216646D01*
X30458044Y-6325555D01*
X30462983Y-6510603D01*
X30462983Y-6816785D01*
X28153745Y-7274797D01*
X28133088Y-7704388D01*
X28129176Y-7784292D01*
X28113302Y-7986911D01*
X28079620Y-8093503D01*
X28009070Y-8138441D01*
X27882587Y-8156100D01*
X27652743Y-8178221D01*
X27672090Y-7068531D01*
X27691436Y-5958840D01*
X28147514Y-5914866D01*
X28147514Y-6270140D01*
G37*
D10*
%TO.C,J4*%
X8012400Y-11285800D02*
X8012400Y-16365800D01*
X8012400Y-16365800D02*
X15632400Y-16365800D01*
X15632400Y-16365800D02*
X15632400Y-11285800D01*
X15632400Y-11285800D02*
X8012400Y-11285800D01*
%TD*%
M02*
