%TF.GenerationSoftware,KiCad,Pcbnew,6.0.4-6f826c9f35~116~ubuntu20.04.1*%
%TF.CreationDate,2022-04-17T22:29:38+00:00*%
%TF.ProjectId,USTTHUNDERMILLPCB01,55535454-4855-44e4-9445-524d494c4c50,rev?*%
%TF.SameCoordinates,Original*%
%TF.FileFunction,Legend,Bot*%
%TF.FilePolarity,Positive*%
%FSLAX46Y46*%
G04 Gerber Fmt 4.6, Leading zero omitted, Abs format (unit mm)*
G04 Created by KiCad (PCBNEW 6.0.4-6f826c9f35~116~ubuntu20.04.1) date 2022-04-17 22:29:38*
%MOMM*%
%LPD*%
G01*
G04 APERTURE LIST*
%ADD10C,0.300000*%
%ADD11C,0.150000*%
%ADD12C,0.050000*%
%ADD13C,0.127000*%
%ADD14C,0.200000*%
G04 APERTURE END LIST*
D10*
X18845238Y-7874928D02*
X17916666Y-7874928D01*
X18473809Y-7317785D02*
X18845238Y-8989214D01*
X18040476Y-8432071D02*
X18969047Y-8432071D01*
X18411904Y-8989214D02*
X18040476Y-7317785D01*
X16740476Y-8741595D02*
X17173809Y-8122547D01*
X17483333Y-8741595D02*
X17483333Y-7441595D01*
X16988095Y-7441595D01*
X16864285Y-7503500D01*
X16802380Y-7565404D01*
X16740476Y-7689214D01*
X16740476Y-7874928D01*
X16802380Y-7998738D01*
X16864285Y-8060642D01*
X16988095Y-8122547D01*
X17483333Y-8122547D01*
X16245238Y-8679690D02*
X16059523Y-8741595D01*
X15750000Y-8741595D01*
X15626190Y-8679690D01*
X15564285Y-8617785D01*
X15502380Y-8493976D01*
X15502380Y-8370166D01*
X15564285Y-8246357D01*
X15626190Y-8184452D01*
X15750000Y-8122547D01*
X15997619Y-8060642D01*
X16121428Y-7998738D01*
X16183333Y-7936833D01*
X16245238Y-7813023D01*
X16245238Y-7689214D01*
X16183333Y-7565404D01*
X16121428Y-7503500D01*
X15997619Y-7441595D01*
X15688095Y-7441595D01*
X15502380Y-7503500D01*
X15130952Y-7441595D02*
X14388095Y-7441595D01*
X14759523Y-8741595D02*
X14759523Y-7441595D01*
X12964285Y-8741595D02*
X12964285Y-7441595D01*
X12469047Y-7441595D01*
X12345238Y-7503500D01*
X12283333Y-7565404D01*
X12221428Y-7689214D01*
X12221428Y-7874928D01*
X12283333Y-7998738D01*
X12345238Y-8060642D01*
X12469047Y-8122547D01*
X12964285Y-8122547D01*
X11230952Y-8060642D02*
X11045238Y-8122547D01*
X10983333Y-8184452D01*
X10921428Y-8308261D01*
X10921428Y-8493976D01*
X10983333Y-8617785D01*
X11045238Y-8679690D01*
X11169047Y-8741595D01*
X11664285Y-8741595D01*
X11664285Y-7441595D01*
X11230952Y-7441595D01*
X11107142Y-7503500D01*
X11045238Y-7565404D01*
X10983333Y-7689214D01*
X10983333Y-7813023D01*
X11045238Y-7936833D01*
X11107142Y-7998738D01*
X11230952Y-8060642D01*
X11664285Y-8060642D01*
X10488095Y-7441595D02*
X9621428Y-7441595D01*
X10178571Y-8741595D01*
X8135714Y-8741595D02*
X8135714Y-7441595D01*
X7640476Y-7441595D01*
X7516666Y-7503500D01*
X7454761Y-7565404D01*
X7392857Y-7689214D01*
X7392857Y-7874928D01*
X7454761Y-7998738D01*
X7516666Y-8060642D01*
X7640476Y-8122547D01*
X8135714Y-8122547D01*
X6402380Y-8060642D02*
X6216666Y-8122547D01*
X6154761Y-8184452D01*
X6092857Y-8308261D01*
X6092857Y-8493976D01*
X6154761Y-8617785D01*
X6216666Y-8679690D01*
X6340476Y-8741595D01*
X6835714Y-8741595D01*
X6835714Y-7441595D01*
X6402380Y-7441595D01*
X6278571Y-7503500D01*
X6216666Y-7565404D01*
X6154761Y-7689214D01*
X6154761Y-7813023D01*
X6216666Y-7936833D01*
X6278571Y-7998738D01*
X6402380Y-8060642D01*
X6835714Y-8060642D01*
X4978571Y-7441595D02*
X5226190Y-7441595D01*
X5350000Y-7503500D01*
X5411904Y-7565404D01*
X5535714Y-7751119D01*
X5597619Y-7998738D01*
X5597619Y-8493976D01*
X5535714Y-8617785D01*
X5473809Y-8679690D01*
X5350000Y-8741595D01*
X5102380Y-8741595D01*
X4978571Y-8679690D01*
X4916666Y-8617785D01*
X4854761Y-8493976D01*
X4854761Y-8184452D01*
X4916666Y-8060642D01*
X4978571Y-7998738D01*
X5102380Y-7936833D01*
X5350000Y-7936833D01*
X5473809Y-7998738D01*
X5535714Y-8060642D01*
X5597619Y-8184452D01*
X17545238Y-9596500D02*
X17669047Y-9534595D01*
X17854761Y-9534595D01*
X18040476Y-9596500D01*
X18164285Y-9720309D01*
X18226190Y-9844119D01*
X18288095Y-10091738D01*
X18288095Y-10277452D01*
X18226190Y-10525071D01*
X18164285Y-10648880D01*
X18040476Y-10772690D01*
X17854761Y-10834595D01*
X17730952Y-10834595D01*
X17545238Y-10772690D01*
X17483333Y-10710785D01*
X17483333Y-10277452D01*
X17730952Y-10277452D01*
X16926190Y-10834595D02*
X16926190Y-9534595D01*
X16183333Y-10834595D01*
X16183333Y-9534595D01*
X15564285Y-10834595D02*
X15564285Y-9534595D01*
X15254761Y-9534595D01*
X15069047Y-9596500D01*
X14945238Y-9720309D01*
X14883333Y-9844119D01*
X14821428Y-10091738D01*
X14821428Y-10277452D01*
X14883333Y-10525071D01*
X14945238Y-10648880D01*
X15069047Y-10772690D01*
X15254761Y-10834595D01*
X15564285Y-10834595D01*
X13273809Y-10834595D02*
X13273809Y-9534595D01*
X12778571Y-9534595D01*
X12654761Y-9596500D01*
X12592857Y-9658404D01*
X12530952Y-9782214D01*
X12530952Y-9967928D01*
X12592857Y-10091738D01*
X12654761Y-10153642D01*
X12778571Y-10215547D01*
X13273809Y-10215547D01*
X11540476Y-10153642D02*
X11354761Y-10215547D01*
X11292857Y-10277452D01*
X11230952Y-10401261D01*
X11230952Y-10586976D01*
X11292857Y-10710785D01*
X11354761Y-10772690D01*
X11478571Y-10834595D01*
X11973809Y-10834595D01*
X11973809Y-9534595D01*
X11540476Y-9534595D01*
X11416666Y-9596500D01*
X11354761Y-9658404D01*
X11292857Y-9782214D01*
X11292857Y-9906023D01*
X11354761Y-10029833D01*
X11416666Y-10091738D01*
X11540476Y-10153642D01*
X11973809Y-10153642D01*
X10054761Y-9534595D02*
X10673809Y-9534595D01*
X10735714Y-10153642D01*
X10673809Y-10091738D01*
X10550000Y-10029833D01*
X10240476Y-10029833D01*
X10116666Y-10091738D01*
X10054761Y-10153642D01*
X9992857Y-10277452D01*
X9992857Y-10586976D01*
X10054761Y-10710785D01*
X10116666Y-10772690D01*
X10240476Y-10834595D01*
X10550000Y-10834595D01*
X10673809Y-10772690D01*
X10735714Y-10710785D01*
X8569047Y-9534595D02*
X7764285Y-9534595D01*
X8197619Y-10029833D01*
X8011904Y-10029833D01*
X7888095Y-10091738D01*
X7826190Y-10153642D01*
X7764285Y-10277452D01*
X7764285Y-10586976D01*
X7826190Y-10710785D01*
X7888095Y-10772690D01*
X8011904Y-10834595D01*
X8383333Y-10834595D01*
X8507142Y-10772690D01*
X8569047Y-10710785D01*
X7392857Y-9534595D02*
X6959523Y-10834595D01*
X6526190Y-9534595D01*
X6216666Y-9534595D02*
X5411904Y-9534595D01*
X5845238Y-10029833D01*
X5659523Y-10029833D01*
X5535714Y-10091738D01*
X5473809Y-10153642D01*
X5411904Y-10277452D01*
X5411904Y-10586976D01*
X5473809Y-10710785D01*
X5535714Y-10772690D01*
X5659523Y-10834595D01*
X6030952Y-10834595D01*
X6154761Y-10772690D01*
X6216666Y-10710785D01*
X-19008405Y11661905D02*
X-17956024Y11661905D01*
X-17832215Y11600000D01*
X-17770310Y11538096D01*
X-17708405Y11414286D01*
X-17708405Y11166667D01*
X-17770310Y11042858D01*
X-17832215Y10980953D01*
X-17956024Y10919048D01*
X-19008405Y10919048D01*
X-17770310Y10361905D02*
X-17708405Y10176191D01*
X-17708405Y9866667D01*
X-17770310Y9742858D01*
X-17832215Y9680953D01*
X-17956024Y9619048D01*
X-18079834Y9619048D01*
X-18203643Y9680953D01*
X-18265548Y9742858D01*
X-18327453Y9866667D01*
X-18389358Y10114286D01*
X-18451262Y10238096D01*
X-18513167Y10300000D01*
X-18636977Y10361905D01*
X-18760786Y10361905D01*
X-18884596Y10300000D01*
X-18946500Y10238096D01*
X-19008405Y10114286D01*
X-19008405Y9804762D01*
X-18946500Y9619048D01*
X-19008405Y9247620D02*
X-19008405Y8504762D01*
X-17708405Y8876191D02*
X-19008405Y8876191D01*
X-19008405Y8257143D02*
X-19008405Y7514286D01*
X-17708405Y7885715D02*
X-19008405Y7885715D01*
X-17708405Y7080953D02*
X-19008405Y7080953D01*
X-18389358Y7080953D02*
X-18389358Y6338096D01*
X-17708405Y6338096D02*
X-19008405Y6338096D01*
X-19008405Y5719048D02*
X-17956024Y5719048D01*
X-17832215Y5657143D01*
X-17770310Y5595239D01*
X-17708405Y5471429D01*
X-17708405Y5223810D01*
X-17770310Y5100000D01*
X-17832215Y5038096D01*
X-17956024Y4976191D01*
X-19008405Y4976191D01*
X-17708405Y4357143D02*
X-19008405Y4357143D01*
X-17708405Y3614286D01*
X-19008405Y3614286D01*
X-17708405Y2995239D02*
X-19008405Y2995239D01*
X-19008405Y2685715D01*
X-18946500Y2500001D01*
X-18822691Y2376191D01*
X-18698881Y2314286D01*
X-18451262Y2252381D01*
X-18265548Y2252381D01*
X-18017929Y2314286D01*
X-17894120Y2376191D01*
X-17770310Y2500001D01*
X-17708405Y2685715D01*
X-17708405Y2995239D01*
X-18389358Y1695239D02*
X-18389358Y1261905D01*
X-17708405Y1076191D02*
X-17708405Y1695239D01*
X-19008405Y1695239D01*
X-19008405Y1076191D01*
X-17708405Y-223809D02*
X-18327453Y209524D01*
X-17708405Y519048D02*
X-19008405Y519048D01*
X-19008405Y23810D01*
X-18946500Y-99999D01*
X-18884596Y-161904D01*
X-18760786Y-223809D01*
X-18575072Y-223809D01*
X-18451262Y-161904D01*
X-18389358Y-99999D01*
X-18327453Y23810D01*
X-18327453Y519048D01*
X-17708405Y-780952D02*
X-19008405Y-780952D01*
X-18079834Y-1214285D01*
X-19008405Y-1647619D01*
X-17708405Y-1647619D01*
X-17708405Y-2266666D02*
X-19008405Y-2266666D01*
X-17708405Y-3504761D02*
X-17708405Y-2885714D01*
X-19008405Y-2885714D01*
X-17708405Y-4557142D02*
X-17708405Y-3938095D01*
X-19008405Y-3938095D01*
X-17708405Y-4990476D02*
X-19008405Y-4990476D01*
X-19008405Y-5485714D01*
X-18946500Y-5609523D01*
X-18884596Y-5671428D01*
X-18760786Y-5733333D01*
X-18575072Y-5733333D01*
X-18451262Y-5671428D01*
X-18389358Y-5609523D01*
X-18327453Y-5485714D01*
X-18327453Y-4990476D01*
X-17832215Y-7033333D02*
X-17770310Y-6971428D01*
X-17708405Y-6785714D01*
X-17708405Y-6661904D01*
X-17770310Y-6476190D01*
X-17894120Y-6352380D01*
X-18017929Y-6290476D01*
X-18265548Y-6228571D01*
X-18451262Y-6228571D01*
X-18698881Y-6290476D01*
X-18822691Y-6352380D01*
X-18946500Y-6476190D01*
X-19008405Y-6661904D01*
X-19008405Y-6785714D01*
X-18946500Y-6971428D01*
X-18884596Y-7033333D01*
X-18389358Y-8023809D02*
X-18327453Y-8209523D01*
X-18265548Y-8271428D01*
X-18141739Y-8333333D01*
X-17956024Y-8333333D01*
X-17832215Y-8271428D01*
X-17770310Y-8209523D01*
X-17708405Y-8085714D01*
X-17708405Y-7590476D01*
X-19008405Y-7590476D01*
X-19008405Y-8023809D01*
X-18946500Y-8147619D01*
X-18884596Y-8209523D01*
X-18760786Y-8271428D01*
X-18636977Y-8271428D01*
X-18513167Y-8209523D01*
X-18451262Y-8147619D01*
X-18389358Y-8023809D01*
X-18389358Y-7590476D01*
X-19008405Y-9138095D02*
X-19008405Y-9261904D01*
X-18946500Y-9385714D01*
X-18884596Y-9447619D01*
X-18760786Y-9509523D01*
X-18513167Y-9571428D01*
X-18203643Y-9571428D01*
X-17956024Y-9509523D01*
X-17832215Y-9447619D01*
X-17770310Y-9385714D01*
X-17708405Y-9261904D01*
X-17708405Y-9138095D01*
X-17770310Y-9014285D01*
X-17832215Y-8952380D01*
X-17956024Y-8890476D01*
X-18203643Y-8828571D01*
X-18513167Y-8828571D01*
X-18760786Y-8890476D01*
X-18884596Y-8952380D01*
X-18946500Y-9014285D01*
X-19008405Y-9138095D01*
X-17708405Y-10809523D02*
X-17708405Y-10066666D01*
X-17708405Y-10438095D02*
X-19008405Y-10438095D01*
X-18822691Y-10314285D01*
X-18698881Y-10190476D01*
X-18636977Y-10066666D01*
X-18079834Y-11304761D02*
X-18079834Y-11923809D01*
X-17708405Y-11180952D02*
X-19008405Y-11614285D01*
X-17708405Y-12047619D01*
X-16791596Y2128572D02*
X-16853500Y2066667D01*
X-16915405Y1942858D01*
X-16915405Y1633334D01*
X-16853500Y1509524D01*
X-16791596Y1447620D01*
X-16667786Y1385715D01*
X-16543977Y1385715D01*
X-16358262Y1447620D01*
X-15615405Y2190477D01*
X-15615405Y1385715D01*
X-16915405Y580953D02*
X-16915405Y457143D01*
X-16853500Y333334D01*
X-16791596Y271429D01*
X-16667786Y209524D01*
X-16420167Y147620D01*
X-16110643Y147620D01*
X-15863024Y209524D01*
X-15739215Y271429D01*
X-15677310Y333334D01*
X-15615405Y457143D01*
X-15615405Y580953D01*
X-15677310Y704762D01*
X-15739215Y766667D01*
X-15863024Y828572D01*
X-16110643Y890477D01*
X-16420167Y890477D01*
X-16667786Y828572D01*
X-16791596Y766667D01*
X-16853500Y704762D01*
X-16915405Y580953D01*
X-16791596Y-347619D02*
X-16853500Y-409523D01*
X-16915405Y-533333D01*
X-16915405Y-842857D01*
X-16853500Y-966666D01*
X-16791596Y-1028571D01*
X-16667786Y-1090476D01*
X-16543977Y-1090476D01*
X-16358262Y-1028571D01*
X-15615405Y-285714D01*
X-15615405Y-1090476D01*
X-15615405Y-2328571D02*
X-15615405Y-1585714D01*
X-15615405Y-1957142D02*
X-16915405Y-1957142D01*
X-16729691Y-1833333D01*
X-16605881Y-1709523D01*
X-16543977Y-1585714D01*
D11*
%TO.C,U6*%
X5603253Y13204007D02*
X5326379Y12443304D01*
X5249058Y12370096D01*
X5188025Y12341635D01*
X5082243Y12329461D01*
X4903254Y12394608D01*
X4830046Y12471929D01*
X4801586Y12532963D01*
X4789412Y12638744D01*
X5066285Y13399447D01*
X4216087Y13708894D02*
X4395076Y13643747D01*
X4468284Y13566427D01*
X4496745Y13505393D01*
X4537379Y13338578D01*
X4516980Y13143302D01*
X4386686Y12785324D01*
X4309366Y12712116D01*
X4248332Y12683655D01*
X4142551Y12671482D01*
X3963562Y12736628D01*
X3890354Y12813949D01*
X3861893Y12874983D01*
X3849719Y12980764D01*
X3931153Y13204500D01*
X4008473Y13277708D01*
X4069507Y13306169D01*
X4175288Y13318343D01*
X4354277Y13253196D01*
X4427485Y13175875D01*
X4455946Y13114841D01*
X4468120Y13009060D01*
%TO.C,U5*%
X-8913981Y17255205D02*
X-8509219Y16554137D01*
X-8502839Y16447849D01*
X-8520269Y16382800D01*
X-8578938Y16293941D01*
X-8743896Y16198703D01*
X-8850184Y16192324D01*
X-8915233Y16209753D01*
X-9004091Y16268422D01*
X-9408853Y16969491D01*
X-10233639Y16493300D02*
X-9821246Y16731395D01*
X-9541911Y16342812D01*
X-9606960Y16360242D01*
X-9713248Y16353862D01*
X-9919445Y16234814D01*
X-9978114Y16145956D01*
X-9995544Y16080907D01*
X-9989164Y15974619D01*
X-9870116Y15768422D01*
X-9781258Y15709753D01*
X-9716209Y15692324D01*
X-9609921Y15698703D01*
X-9403724Y15817751D01*
X-9345055Y15906609D01*
X-9327626Y15971658D01*
D12*
%TO.C,J4*%
X9508590Y-11047657D02*
X9508590Y-10761942D01*
X9508590Y-10904800D02*
X9008590Y-10904800D01*
X9080019Y-10857180D01*
X9127638Y-10809561D01*
X9151447Y-10761942D01*
D13*
%TO.C,U6*%
X7347935Y16157992D02*
X6663895Y14278607D01*
X4773177Y17095127D02*
X4089137Y15215742D01*
D14*
X7879931Y15755745D02*
G75*
G03*
X7879931Y15755745I-100000J0D01*
G01*
%TO.C,G\u002A\u002A\u002A*%
G36*
X29997658Y-7723500D02*
G01*
X29996289Y-7860737D01*
X30019267Y-8027841D01*
X30078877Y-8081992D01*
X30110322Y-8080053D01*
X30265934Y-8060647D01*
X30520498Y-8023725D01*
X30847251Y-7973247D01*
X31219428Y-7913175D01*
X31409113Y-7882025D01*
X31750953Y-7826329D01*
X32028074Y-7781769D01*
X32215902Y-7752277D01*
X32289860Y-7741787D01*
X32296149Y-7754252D01*
X32304606Y-7863544D01*
X32302761Y-8048649D01*
X32291541Y-8354625D01*
X29967071Y-8727711D01*
X29930686Y-9156256D01*
X29923848Y-9235963D01*
X29900560Y-9437864D01*
X29862995Y-9543151D01*
X29790846Y-9585473D01*
X29663800Y-9598486D01*
X29433300Y-9612169D01*
X29493297Y-8503934D01*
X29553294Y-7395697D01*
X30010677Y-7368465D01*
X29997658Y-7723500D01*
G37*
G36*
X31984934Y-4608409D02*
G01*
X32218940Y-4772484D01*
X32382645Y-5033448D01*
X32412579Y-5130220D01*
X32451994Y-5416130D01*
X32450597Y-5739305D01*
X32410650Y-6041942D01*
X32334415Y-6266238D01*
X32157632Y-6498529D01*
X31879632Y-6678300D01*
X31549758Y-6731669D01*
X31437166Y-6722992D01*
X31220804Y-6663209D01*
X31043989Y-6530501D01*
X30883594Y-6303470D01*
X30716491Y-5960716D01*
X30659429Y-5833903D01*
X30516989Y-5563985D01*
X30393590Y-5416514D01*
X30278227Y-5381361D01*
X30159893Y-5448396D01*
X30074832Y-5574237D01*
X30035766Y-5798803D01*
X30083532Y-6032731D01*
X30214247Y-6220853D01*
X30246898Y-6250237D01*
X30363005Y-6416788D01*
X30388486Y-6639064D01*
X30373682Y-6797726D01*
X30323891Y-6878664D01*
X30213101Y-6893294D01*
X30163862Y-6887480D01*
X29951382Y-6792786D01*
X29745523Y-6610486D01*
X29589273Y-6376217D01*
X29555828Y-6277295D01*
X29516462Y-6040663D01*
X29507252Y-5779112D01*
X29516158Y-5646381D01*
X29602400Y-5267446D01*
X29773188Y-4996569D01*
X30025682Y-4837050D01*
X30357044Y-4792186D01*
X30422565Y-4796347D01*
X30658976Y-4854633D01*
X30853992Y-4993537D01*
X31028152Y-5232475D01*
X31201998Y-5590865D01*
X31252725Y-5707341D01*
X31380721Y-5961000D01*
X31493172Y-6101526D01*
X31606968Y-6145197D01*
X31739004Y-6108292D01*
X31752080Y-6101440D01*
X31883351Y-5959172D01*
X31946919Y-5749230D01*
X31943045Y-5519405D01*
X31871988Y-5317489D01*
X31734010Y-5191268D01*
X31644692Y-5139774D01*
X31586288Y-5033303D01*
X31577909Y-4838690D01*
X31579967Y-4789073D01*
X31599734Y-4633811D01*
X31657763Y-4571607D01*
X31783012Y-4563622D01*
X31984934Y-4608409D01*
G37*
G36*
X31887718Y-1829252D02*
G01*
X32048219Y-1890102D01*
X32237283Y-2027398D01*
X32408800Y-2201580D01*
X32516662Y-2373090D01*
X32540424Y-2511761D01*
X32548644Y-2742326D01*
X32538768Y-3011853D01*
X32492648Y-3341988D01*
X32367772Y-3671016D01*
X32156650Y-3911424D01*
X31845766Y-4084124D01*
X31737105Y-4119115D01*
X31495583Y-4179957D01*
X31179984Y-4249210D01*
X30825442Y-4320198D01*
X30467087Y-4386247D01*
X30140051Y-4440680D01*
X29879469Y-4476820D01*
X29720472Y-4487992D01*
X29698919Y-4483280D01*
X29646180Y-4393066D01*
X29636113Y-4179667D01*
X29647291Y-3874845D01*
X30370611Y-3775620D01*
X30858802Y-3702751D01*
X31256617Y-3627587D01*
X31548132Y-3549990D01*
X31750782Y-3465267D01*
X31881999Y-3368724D01*
X31975124Y-3217624D01*
X32027870Y-2979170D01*
X32011671Y-2737546D01*
X31923433Y-2553598D01*
X31916576Y-2546312D01*
X31862069Y-2500337D01*
X31788989Y-2474333D01*
X31673369Y-2468940D01*
X31491243Y-2484803D01*
X31218647Y-2522564D01*
X30831612Y-2582865D01*
X30714181Y-2601387D01*
X30367721Y-2654605D01*
X30076932Y-2697183D01*
X29869429Y-2725163D01*
X29772826Y-2734589D01*
X29757255Y-2730224D01*
X29710845Y-2633880D01*
X29700316Y-2428757D01*
X29711418Y-2125992D01*
X30723980Y-1974803D01*
X30863938Y-1954161D01*
X31224436Y-1903382D01*
X31533808Y-1863140D01*
X31762874Y-1837111D01*
X31882454Y-1828965D01*
X31887718Y-1829252D01*
G37*
G36*
X30306507Y6443732D02*
G01*
X30304270Y6427360D01*
X30245343Y6375762D01*
X30210396Y6359444D01*
X30084810Y6268898D01*
X29896482Y6116657D01*
X29670989Y5922885D01*
X29641663Y5896885D01*
X29359517Y5625818D01*
X29143460Y5362992D01*
X28971471Y5071699D01*
X28821530Y4715227D01*
X28671618Y4256868D01*
X28591764Y3934065D01*
X28514971Y3419194D01*
X28479320Y2865394D01*
X28484144Y2307482D01*
X28528776Y1780270D01*
X28612550Y1318573D01*
X28734799Y957204D01*
X28916598Y655007D01*
X29211971Y350898D01*
X29557925Y148934D01*
X29928815Y68208D01*
X30027656Y68834D01*
X30287753Y132868D01*
X30445057Y289577D01*
X30498613Y535752D01*
X30447464Y868185D01*
X30290657Y1283665D01*
X30269044Y1331409D01*
X30051943Y1973152D01*
X29974676Y2608917D01*
X30036996Y3240622D01*
X30085961Y3447038D01*
X30262039Y3984484D01*
X30498414Y4514137D01*
X30779174Y5009756D01*
X31088404Y5445098D01*
X31410190Y5793923D01*
X31728617Y6029987D01*
X31842777Y6089657D01*
X32351826Y6279023D01*
X32836755Y6330251D01*
X33296728Y6243473D01*
X33730914Y6018817D01*
X34138477Y5656412D01*
X34150870Y5642752D01*
X34452359Y5233367D01*
X34684995Y4742762D01*
X34861226Y4144912D01*
X34905977Y3861152D01*
X34933330Y3431089D01*
X34934583Y2937283D01*
X34911639Y2419573D01*
X34866404Y1917791D01*
X34800781Y1471778D01*
X34716675Y1121370D01*
X34675306Y997625D01*
X34384692Y337526D01*
X34012718Y-209456D01*
X33560144Y-642383D01*
X33027730Y-960320D01*
X32810696Y-1051725D01*
X32644027Y-1108051D01*
X32567378Y-1115534D01*
X32577862Y-1087937D01*
X32669851Y-984571D01*
X32835592Y-826657D01*
X33053714Y-635294D01*
X33126449Y-572957D01*
X33471093Y-247376D01*
X33727026Y65740D01*
X33925166Y409787D01*
X34096431Y828156D01*
X34154088Y1002657D01*
X34298823Y1621759D01*
X34378680Y2291539D01*
X34392151Y2969057D01*
X34337731Y3611364D01*
X34213912Y4175516D01*
X34106493Y4453360D01*
X33891510Y4810874D01*
X33628865Y5085610D01*
X33336712Y5267413D01*
X33033207Y5346132D01*
X32736504Y5311613D01*
X32464760Y5153703D01*
X32375999Y5056815D01*
X32294110Y4841684D01*
X32323987Y4571594D01*
X32465644Y4231614D01*
X32510492Y4141814D01*
X32732482Y3519749D01*
X32830561Y2847332D01*
X32803722Y2139879D01*
X32650957Y1412700D01*
X32512211Y1029585D01*
X32217854Y476240D01*
X31841965Y-18273D01*
X31406136Y-427124D01*
X30931960Y-723479D01*
X30531791Y-852134D01*
X30092919Y-890861D01*
X29665504Y-839708D01*
X29298293Y-699391D01*
X29267231Y-681128D01*
X28849358Y-352580D01*
X28490514Y88003D01*
X28203837Y621088D01*
X28002463Y1227144D01*
X27970897Y1416152D01*
X27945880Y1769305D01*
X27940285Y2199821D01*
X27952452Y2672366D01*
X27980723Y3151605D01*
X28023440Y3602205D01*
X28078945Y3988834D01*
X28145577Y4276157D01*
X28216836Y4480134D01*
X28367579Y4836983D01*
X28538874Y5175593D01*
X28710429Y5457241D01*
X28861950Y5643201D01*
X28959497Y5745112D01*
X29029499Y5845030D01*
X29038667Y5858572D01*
X29137770Y5943856D01*
X29318109Y6072030D01*
X29549044Y6220927D01*
X29569057Y6233222D01*
X29877224Y6404747D01*
X30110663Y6499303D01*
X30257662Y6513447D01*
X30306507Y6443732D01*
G37*
D13*
%TO.C,U5*%
X-10156745Y20337776D02*
X-9156745Y18605726D01*
X-12529655Y18967776D02*
X-11529655Y17235726D01*
D14*
X-9470925Y20410145D02*
G75*
G03*
X-9470925Y20410145I-100000J0D01*
G01*
D11*
%TO.C,J4*%
X8012400Y-11285800D02*
X8012400Y-16365800D01*
X8012400Y-16365800D02*
X15632400Y-16365800D01*
X15632400Y-16365800D02*
X15632400Y-11285800D01*
X15632400Y-11285800D02*
X8012400Y-11285800D01*
%TD*%
M02*
