M48
; DRILL file {KiCad (5.99.0-10394-g2e15de97e0)} date Tue Aug 24 18:50:17 2021
; FORMAT={3:3/ absolute / metric / suppress leading zeros}
; #@! TF.CreationDate,2021-08-24T18:50:17+02:00
; #@! TF.GenerationSoftware,Kicad,Pcbnew,(5.99.0-10394-g2e15de97e0)
; #@! TF.FileFunction,Plated,1,4,PTH
FMAT,2
METRIC,TZ
; #@! TA.AperFunction,Plated,PTH,ViaDrill
T1C0.400
%
G90
G05
T1
X104267Y-86106
X104775Y-102235
X105283Y-103632
X105664Y-84455
X106045Y-86106
X106426Y-81153
X106426Y-101981
X106807Y-103124
X107315Y-76454
X107696Y-78105
X107950Y-86106
X108331Y-101981
X109093Y-78105
X109347Y-88392
X110109Y-97155
X110490Y-80010
X110617Y-83185
X110617Y-88392
X110998Y-96012
X111633Y-116078
X112141Y-99568
X113030Y-115316
X113284Y-96139
X113284Y-97536
X113411Y-103251
X113538Y-84455
X113538Y-88392
X113538Y-94488
X113665Y-86106
X113792Y-81026
X113792Y-91948
X114173Y-99060
X114427Y-114681
X114554Y-68326
X114681Y-79502
X115062Y-93345
X115189Y-88519
X115196Y-95504
X115570Y-69342
X115570Y-100330
X115697Y-104013
X115951Y-113919
X116205Y-79375
X116205Y-91948
X116205Y-94742
X116713Y-75311
X116713Y-89281
X116967Y-70739
X117221Y-101854
X117729Y-79375
X117983Y-90424
X117983Y-104775
X118110Y-96520
X118110Y-103378
X118110Y-111252
X118237Y-76200
X119126Y-110490
X119507Y-79375
X119761Y-98298
X120015Y-76200
X120269Y-94742
X121412Y-95758
X121412Y-99822
X121412Y-101854
X121539Y-79375
X121666Y-107061
X121793Y-103632
X121793Y-105410
X122047Y-76200
X122555Y-96774
X123317Y-79375
X123317Y-101727
X123952Y-98171
X123952Y-107061
X124968Y-103124
X125095Y-76200
X125222Y-93726
X125349Y-79375
X125349Y-99568
X125603Y-87884
X127000Y-100330
X127000Y-103251
X127127Y-79375
X127254Y-76073
X127635Y-107061
X128143Y-91948
X128143Y-93091
X128143Y-94107
X128270Y-90805
X128397Y-75057
X128778Y-94996
X128905Y-78613
X128905Y-90043
X129159Y-100457
X129159Y-105410
X129413Y-96901
X129413Y-103251
X129794Y-95123
X129857Y-73756
X130048Y-77470
X130048Y-89916
X130175Y-107442
X130175Y-111633
X130810Y-95123
X131064Y-90170
X131191Y-87757
X131318Y-100457
X131699Y-91059
X131826Y-94107
X131826Y-95123
X131826Y-103251
X132080Y-76454
X132334Y-108077
X132334Y-113411
X132842Y-91059
X132842Y-94107
X133223Y-75438
X133350Y-96393
X133515Y-71793
X133604Y-100457
X133858Y-91059
X133858Y-94107
X133858Y-114848
X133985Y-70485
X134239Y-74168
X134366Y-98171
X134366Y-109347
X134493Y-103378
X135255Y-73152
X135382Y-69596
X135382Y-115062
X135890Y-100457
X136271Y-109093
X136779Y-71374
X136779Y-115062
X136906Y-103251
X137160Y-69215
X137668Y-113451
X137922Y-100457
X138049Y-107188
X138557Y-71374
X138557Y-77343
X138684Y-69215
X138863Y-114213
X139573Y-115189
X139827Y-105918
X139954Y-103378
X140208Y-69088
X140208Y-73406
X140462Y-71374
X140716Y-79502
X140843Y-108331
X141986Y-108331
X142240Y-104394
X142367Y-71247
X142494Y-103378
X143129Y-81407
X143383Y-70358
X144272Y-69342
X144399Y-114935
X144660Y-115848
X145034Y-78867
X145288Y-83185
X145288Y-104902
X146050Y-116078
X146134Y-112776
X146707Y-75756
X147828Y-81280
X147828Y-115697
X148082Y-85344
X148717Y-108966
X148971Y-112014
X149479Y-99822
X149657Y-77956
X150114Y-111760
X150241Y-71628
X150368Y-87503
X150749Y-95631
X150766Y-104764
X150876Y-89408
X151257Y-84582
X151384Y-92710
X151511Y-109728
X151765Y-111633
X152798Y-107304
X153162Y-80010
X153289Y-74041
X153289Y-91440
X153289Y-94742
X153289Y-97155
X153306Y-105780
X153416Y-83439
X153416Y-86614
X153670Y-109601
X154813Y-110363
X155084Y-106796
X155448Y-111252
X155702Y-76454
X155829Y-108839
X155846Y-105018
X156591Y-93599
X156591Y-97536
X156591Y-111252
X156718Y-109728
X157480Y-83312
X157480Y-86614
X157480Y-91186
X158369Y-96012
X158369Y-100203
X158496Y-92329
X159766Y-80264
X159893Y-90805
X160020Y-84201
X160020Y-99441
X160147Y-76581
X160147Y-93980
X160147Y-95758
X160147Y-108077
X161163Y-104902
X161290Y-90043
X161417Y-101727
X161544Y-92456
X161671Y-94107
X162052Y-97536
X162560Y-87884
X162814Y-85852
X162814Y-91059
X163449Y-92456
X164211Y-95250
X164211Y-104267
X164719Y-91440
X164776Y-82514
X164801Y-76392
X164846Y-89154
X164973Y-75057
X164973Y-110617
X165227Y-86995
X165481Y-107442
X165735Y-109474
X165989Y-90170
X166116Y-92837
X166370Y-97790
X166370Y-102743
X166421Y-64262
X166510Y-120630
X166751Y-77597
X166751Y-95250
X167259Y-92837
X167386Y-91567
X167513Y-84455
X167513Y-88519
X168021Y-109347
X168148Y-99187
X168656Y-87376
X168783Y-90297
X168910Y-77724
X169164Y-75057
X169545Y-85852
X170180Y-75946
X170561Y-88392
X170815Y-109474
X171704Y-102743
X171831Y-87249
X171958Y-99568
X172085Y-81280
X172085Y-89281
X172847Y-83439
X172847Y-85852
X172974Y-109220
X173355Y-80518
X173609Y-99568
X173609Y-103124
X173736Y-76962
X173736Y-105156
X173863Y-107315
X174244Y-89154
X174396Y-73762
X174752Y-79883
X175387Y-90805
X175387Y-93726
X175387Y-99441
X175514Y-96266
T0
M30
