%TF.GenerationSoftware,KiCad,Pcbnew,7.0.5.1-1-g8f565ef7f0-dirty-deb11*%
%TF.CreationDate,2023-06-30T14:36:08+00:00*%
%TF.ProjectId,USTTHUNDERMILLPCB01,55535454-4855-44e4-9445-524d494c4c50,rev?*%
%TF.SameCoordinates,Original*%
%TF.FileFunction,Legend,Bot*%
%TF.FilePolarity,Positive*%
%FSLAX46Y46*%
G04 Gerber Fmt 4.6, Leading zero omitted, Abs format (unit mm)*
G04 Created by KiCad (PCBNEW 7.0.5.1-1-g8f565ef7f0-dirty-deb11) date 2023-06-30 14:36:08*
%MOMM*%
%LPD*%
G01*
G04 APERTURE LIST*
%ADD10C,0.150000*%
%ADD11C,0.200000*%
%ADD12C,0.300000*%
%ADD13C,0.050000*%
%ADD14C,0.127000*%
G04 APERTURE END LIST*
D10*
X15996943Y-14728893D02*
G75*
G03*
X-20199999Y-8050000I-15996943J14728893D01*
G01*
X-17923152Y-12566128D02*
G75*
G03*
X13850000Y-16800000I17823152J12416128D01*
G01*
X-16322018Y3867063D02*
G75*
G03*
X7200000Y-15149998I16322018J-3867063D01*
G01*
X3962401Y16306805D02*
G75*
G03*
X-14350000Y8700000I-3962401J-16306805D01*
G01*
X15057712Y-7051861D02*
G75*
G03*
X8700000Y14349998I-14957712J7201861D01*
G01*
D11*
X17769047Y-8079647D02*
X16983332Y-8079647D01*
X17454761Y-7608219D02*
X17769047Y-9022504D01*
X17088094Y-8551076D02*
X17873809Y-8551076D01*
X17402380Y-9022504D02*
X17088094Y-7608219D01*
X15988094Y-8812980D02*
X16354761Y-8289171D01*
X16616666Y-8812980D02*
X16616666Y-7712980D01*
X16616666Y-7712980D02*
X16197618Y-7712980D01*
X16197618Y-7712980D02*
X16092856Y-7765361D01*
X16092856Y-7765361D02*
X16040475Y-7817742D01*
X16040475Y-7817742D02*
X15988094Y-7922504D01*
X15988094Y-7922504D02*
X15988094Y-8079647D01*
X15988094Y-8079647D02*
X16040475Y-8184409D01*
X16040475Y-8184409D02*
X16092856Y-8236790D01*
X16092856Y-8236790D02*
X16197618Y-8289171D01*
X16197618Y-8289171D02*
X16616666Y-8289171D01*
X15569047Y-8760600D02*
X15411904Y-8812980D01*
X15411904Y-8812980D02*
X15149999Y-8812980D01*
X15149999Y-8812980D02*
X15045237Y-8760600D01*
X15045237Y-8760600D02*
X14992856Y-8708219D01*
X14992856Y-8708219D02*
X14940475Y-8603457D01*
X14940475Y-8603457D02*
X14940475Y-8498695D01*
X14940475Y-8498695D02*
X14992856Y-8393933D01*
X14992856Y-8393933D02*
X15045237Y-8341552D01*
X15045237Y-8341552D02*
X15149999Y-8289171D01*
X15149999Y-8289171D02*
X15359523Y-8236790D01*
X15359523Y-8236790D02*
X15464285Y-8184409D01*
X15464285Y-8184409D02*
X15516666Y-8132028D01*
X15516666Y-8132028D02*
X15569047Y-8027266D01*
X15569047Y-8027266D02*
X15569047Y-7922504D01*
X15569047Y-7922504D02*
X15516666Y-7817742D01*
X15516666Y-7817742D02*
X15464285Y-7765361D01*
X15464285Y-7765361D02*
X15359523Y-7712980D01*
X15359523Y-7712980D02*
X15097618Y-7712980D01*
X15097618Y-7712980D02*
X14940475Y-7765361D01*
X14626190Y-7712980D02*
X13997618Y-7712980D01*
X14311904Y-8812980D02*
X14311904Y-7712980D01*
X12792857Y-8812980D02*
X12792857Y-7712980D01*
X12792857Y-7712980D02*
X12373809Y-7712980D01*
X12373809Y-7712980D02*
X12269047Y-7765361D01*
X12269047Y-7765361D02*
X12216666Y-7817742D01*
X12216666Y-7817742D02*
X12164285Y-7922504D01*
X12164285Y-7922504D02*
X12164285Y-8079647D01*
X12164285Y-8079647D02*
X12216666Y-8184409D01*
X12216666Y-8184409D02*
X12269047Y-8236790D01*
X12269047Y-8236790D02*
X12373809Y-8289171D01*
X12373809Y-8289171D02*
X12792857Y-8289171D01*
X11326190Y-8236790D02*
X11169047Y-8289171D01*
X11169047Y-8289171D02*
X11116666Y-8341552D01*
X11116666Y-8341552D02*
X11064285Y-8446314D01*
X11064285Y-8446314D02*
X11064285Y-8603457D01*
X11064285Y-8603457D02*
X11116666Y-8708219D01*
X11116666Y-8708219D02*
X11169047Y-8760600D01*
X11169047Y-8760600D02*
X11273809Y-8812980D01*
X11273809Y-8812980D02*
X11692857Y-8812980D01*
X11692857Y-8812980D02*
X11692857Y-7712980D01*
X11692857Y-7712980D02*
X11326190Y-7712980D01*
X11326190Y-7712980D02*
X11221428Y-7765361D01*
X11221428Y-7765361D02*
X11169047Y-7817742D01*
X11169047Y-7817742D02*
X11116666Y-7922504D01*
X11116666Y-7922504D02*
X11116666Y-8027266D01*
X11116666Y-8027266D02*
X11169047Y-8132028D01*
X11169047Y-8132028D02*
X11221428Y-8184409D01*
X11221428Y-8184409D02*
X11326190Y-8236790D01*
X11326190Y-8236790D02*
X11692857Y-8236790D01*
X10697619Y-7712980D02*
X9964285Y-7712980D01*
X9964285Y-7712980D02*
X10435714Y-8812980D01*
X8707143Y-8812980D02*
X8707143Y-7712980D01*
X8707143Y-7712980D02*
X8288095Y-7712980D01*
X8288095Y-7712980D02*
X8183333Y-7765361D01*
X8183333Y-7765361D02*
X8130952Y-7817742D01*
X8130952Y-7817742D02*
X8078571Y-7922504D01*
X8078571Y-7922504D02*
X8078571Y-8079647D01*
X8078571Y-8079647D02*
X8130952Y-8184409D01*
X8130952Y-8184409D02*
X8183333Y-8236790D01*
X8183333Y-8236790D02*
X8288095Y-8289171D01*
X8288095Y-8289171D02*
X8707143Y-8289171D01*
X7240476Y-8236790D02*
X7083333Y-8289171D01*
X7083333Y-8289171D02*
X7030952Y-8341552D01*
X7030952Y-8341552D02*
X6978571Y-8446314D01*
X6978571Y-8446314D02*
X6978571Y-8603457D01*
X6978571Y-8603457D02*
X7030952Y-8708219D01*
X7030952Y-8708219D02*
X7083333Y-8760600D01*
X7083333Y-8760600D02*
X7188095Y-8812980D01*
X7188095Y-8812980D02*
X7607143Y-8812980D01*
X7607143Y-8812980D02*
X7607143Y-7712980D01*
X7607143Y-7712980D02*
X7240476Y-7712980D01*
X7240476Y-7712980D02*
X7135714Y-7765361D01*
X7135714Y-7765361D02*
X7083333Y-7817742D01*
X7083333Y-7817742D02*
X7030952Y-7922504D01*
X7030952Y-7922504D02*
X7030952Y-8027266D01*
X7030952Y-8027266D02*
X7083333Y-8132028D01*
X7083333Y-8132028D02*
X7135714Y-8184409D01*
X7135714Y-8184409D02*
X7240476Y-8236790D01*
X7240476Y-8236790D02*
X7607143Y-8236790D01*
X6035714Y-7712980D02*
X6245238Y-7712980D01*
X6245238Y-7712980D02*
X6350000Y-7765361D01*
X6350000Y-7765361D02*
X6402381Y-7817742D01*
X6402381Y-7817742D02*
X6507143Y-7974885D01*
X6507143Y-7974885D02*
X6559524Y-8184409D01*
X6559524Y-8184409D02*
X6559524Y-8603457D01*
X6559524Y-8603457D02*
X6507143Y-8708219D01*
X6507143Y-8708219D02*
X6454762Y-8760600D01*
X6454762Y-8760600D02*
X6350000Y-8812980D01*
X6350000Y-8812980D02*
X6140476Y-8812980D01*
X6140476Y-8812980D02*
X6035714Y-8760600D01*
X6035714Y-8760600D02*
X5983333Y-8708219D01*
X5983333Y-8708219D02*
X5930952Y-8603457D01*
X5930952Y-8603457D02*
X5930952Y-8341552D01*
X5930952Y-8341552D02*
X5983333Y-8236790D01*
X5983333Y-8236790D02*
X6035714Y-8184409D01*
X6035714Y-8184409D02*
X6140476Y-8132028D01*
X6140476Y-8132028D02*
X6350000Y-8132028D01*
X6350000Y-8132028D02*
X6454762Y-8184409D01*
X6454762Y-8184409D02*
X6507143Y-8236790D01*
X6507143Y-8236790D02*
X6559524Y-8341552D01*
X16669046Y-9536361D02*
X16773808Y-9483980D01*
X16773808Y-9483980D02*
X16930951Y-9483980D01*
X16930951Y-9483980D02*
X17088094Y-9536361D01*
X17088094Y-9536361D02*
X17192856Y-9641123D01*
X17192856Y-9641123D02*
X17245237Y-9745885D01*
X17245237Y-9745885D02*
X17297618Y-9955409D01*
X17297618Y-9955409D02*
X17297618Y-10112552D01*
X17297618Y-10112552D02*
X17245237Y-10322076D01*
X17245237Y-10322076D02*
X17192856Y-10426838D01*
X17192856Y-10426838D02*
X17088094Y-10531600D01*
X17088094Y-10531600D02*
X16930951Y-10583980D01*
X16930951Y-10583980D02*
X16826189Y-10583980D01*
X16826189Y-10583980D02*
X16669046Y-10531600D01*
X16669046Y-10531600D02*
X16616665Y-10479219D01*
X16616665Y-10479219D02*
X16616665Y-10112552D01*
X16616665Y-10112552D02*
X16826189Y-10112552D01*
X16145237Y-10583980D02*
X16145237Y-9483980D01*
X16145237Y-9483980D02*
X15516665Y-10583980D01*
X15516665Y-10583980D02*
X15516665Y-9483980D01*
X14992856Y-10583980D02*
X14992856Y-9483980D01*
X14992856Y-9483980D02*
X14730951Y-9483980D01*
X14730951Y-9483980D02*
X14573808Y-9536361D01*
X14573808Y-9536361D02*
X14469046Y-9641123D01*
X14469046Y-9641123D02*
X14416665Y-9745885D01*
X14416665Y-9745885D02*
X14364284Y-9955409D01*
X14364284Y-9955409D02*
X14364284Y-10112552D01*
X14364284Y-10112552D02*
X14416665Y-10322076D01*
X14416665Y-10322076D02*
X14469046Y-10426838D01*
X14469046Y-10426838D02*
X14573808Y-10531600D01*
X14573808Y-10531600D02*
X14730951Y-10583980D01*
X14730951Y-10583980D02*
X14992856Y-10583980D01*
X13054761Y-10583980D02*
X13054761Y-9483980D01*
X13054761Y-9483980D02*
X12635713Y-9483980D01*
X12635713Y-9483980D02*
X12530951Y-9536361D01*
X12530951Y-9536361D02*
X12478570Y-9588742D01*
X12478570Y-9588742D02*
X12426189Y-9693504D01*
X12426189Y-9693504D02*
X12426189Y-9850647D01*
X12426189Y-9850647D02*
X12478570Y-9955409D01*
X12478570Y-9955409D02*
X12530951Y-10007790D01*
X12530951Y-10007790D02*
X12635713Y-10060171D01*
X12635713Y-10060171D02*
X13054761Y-10060171D01*
X11588094Y-10007790D02*
X11430951Y-10060171D01*
X11430951Y-10060171D02*
X11378570Y-10112552D01*
X11378570Y-10112552D02*
X11326189Y-10217314D01*
X11326189Y-10217314D02*
X11326189Y-10374457D01*
X11326189Y-10374457D02*
X11378570Y-10479219D01*
X11378570Y-10479219D02*
X11430951Y-10531600D01*
X11430951Y-10531600D02*
X11535713Y-10583980D01*
X11535713Y-10583980D02*
X11954761Y-10583980D01*
X11954761Y-10583980D02*
X11954761Y-9483980D01*
X11954761Y-9483980D02*
X11588094Y-9483980D01*
X11588094Y-9483980D02*
X11483332Y-9536361D01*
X11483332Y-9536361D02*
X11430951Y-9588742D01*
X11430951Y-9588742D02*
X11378570Y-9693504D01*
X11378570Y-9693504D02*
X11378570Y-9798266D01*
X11378570Y-9798266D02*
X11430951Y-9903028D01*
X11430951Y-9903028D02*
X11483332Y-9955409D01*
X11483332Y-9955409D02*
X11588094Y-10007790D01*
X11588094Y-10007790D02*
X11954761Y-10007790D01*
X10330951Y-9483980D02*
X10854761Y-9483980D01*
X10854761Y-9483980D02*
X10907142Y-10007790D01*
X10907142Y-10007790D02*
X10854761Y-9955409D01*
X10854761Y-9955409D02*
X10749999Y-9903028D01*
X10749999Y-9903028D02*
X10488094Y-9903028D01*
X10488094Y-9903028D02*
X10383332Y-9955409D01*
X10383332Y-9955409D02*
X10330951Y-10007790D01*
X10330951Y-10007790D02*
X10278570Y-10112552D01*
X10278570Y-10112552D02*
X10278570Y-10374457D01*
X10278570Y-10374457D02*
X10330951Y-10479219D01*
X10330951Y-10479219D02*
X10383332Y-10531600D01*
X10383332Y-10531600D02*
X10488094Y-10583980D01*
X10488094Y-10583980D02*
X10749999Y-10583980D01*
X10749999Y-10583980D02*
X10854761Y-10531600D01*
X10854761Y-10531600D02*
X10907142Y-10479219D01*
X9073809Y-9483980D02*
X8392856Y-9483980D01*
X8392856Y-9483980D02*
X8759523Y-9903028D01*
X8759523Y-9903028D02*
X8602380Y-9903028D01*
X8602380Y-9903028D02*
X8497618Y-9955409D01*
X8497618Y-9955409D02*
X8445237Y-10007790D01*
X8445237Y-10007790D02*
X8392856Y-10112552D01*
X8392856Y-10112552D02*
X8392856Y-10374457D01*
X8392856Y-10374457D02*
X8445237Y-10479219D01*
X8445237Y-10479219D02*
X8497618Y-10531600D01*
X8497618Y-10531600D02*
X8602380Y-10583980D01*
X8602380Y-10583980D02*
X8916666Y-10583980D01*
X8916666Y-10583980D02*
X9021428Y-10531600D01*
X9021428Y-10531600D02*
X9073809Y-10479219D01*
X8078571Y-9483980D02*
X7711904Y-10583980D01*
X7711904Y-10583980D02*
X7345237Y-9483980D01*
X7083333Y-9483980D02*
X6402380Y-9483980D01*
X6402380Y-9483980D02*
X6769047Y-9903028D01*
X6769047Y-9903028D02*
X6611904Y-9903028D01*
X6611904Y-9903028D02*
X6507142Y-9955409D01*
X6507142Y-9955409D02*
X6454761Y-10007790D01*
X6454761Y-10007790D02*
X6402380Y-10112552D01*
X6402380Y-10112552D02*
X6402380Y-10374457D01*
X6402380Y-10374457D02*
X6454761Y-10479219D01*
X6454761Y-10479219D02*
X6507142Y-10531600D01*
X6507142Y-10531600D02*
X6611904Y-10583980D01*
X6611904Y-10583980D02*
X6926190Y-10583980D01*
X6926190Y-10583980D02*
X7030952Y-10531600D01*
X7030952Y-10531600D02*
X7083333Y-10479219D01*
D12*
X-31386788Y10629279D02*
X-30208588Y10079875D01*
X-30208588Y10079875D02*
X-29999292Y10528713D01*
X-29999292Y10528713D02*
X-30003072Y10667085D01*
X-30003072Y10667085D02*
X-30033015Y10749352D01*
X-30033015Y10749352D02*
X-30119062Y10857781D01*
X-30119062Y10857781D02*
X-30287377Y10936267D01*
X-30287377Y10936267D02*
X-30425748Y10932486D01*
X-30425748Y10932486D02*
X-30508015Y10902543D01*
X-30508015Y10902543D02*
X-30616444Y10816496D01*
X-30616444Y10816496D02*
X-30825741Y10367658D01*
X-30837385Y11807479D02*
X-30051918Y11441210D01*
X-29659185Y11258075D02*
X-29741451Y11228132D01*
X-29741451Y11228132D02*
X-29771394Y11310399D01*
X-29771394Y11310399D02*
X-29689127Y11340342D01*
X-29689127Y11340342D02*
X-29659185Y11258075D01*
X-29659185Y11258075D02*
X-29771394Y11310399D01*
X-30628088Y12256317D02*
X-29554838Y12507201D01*
X-29842621Y11890048D02*
X-30340305Y12873470D01*
X-30131008Y13322308D02*
X-28952808Y12772904D01*
X-29895550Y13827251D02*
X-29278397Y13539468D01*
X-29278397Y13539468D02*
X-29192350Y13431039D01*
X-29192350Y13431039D02*
X-29188569Y13292667D01*
X-29188569Y13292667D02*
X-29267055Y13124353D01*
X-29267055Y13124353D02*
X-29375484Y13038306D01*
X-29375484Y13038306D02*
X-29457751Y13008363D01*
X-29398470Y14893241D02*
X-28781318Y14605458D01*
X-28781318Y14605458D02*
X-28695270Y14497029D01*
X-28695270Y14497029D02*
X-28691490Y14358658D01*
X-28691490Y14358658D02*
X-28796138Y14134238D01*
X-28796138Y14134238D02*
X-28904567Y14048191D01*
X-29342365Y14867079D02*
X-29450794Y14781031D01*
X-29450794Y14781031D02*
X-29581605Y14500508D01*
X-29581605Y14500508D02*
X-29577824Y14362136D01*
X-29577824Y14362136D02*
X-29491777Y14253707D01*
X-29491777Y14253707D02*
X-29379567Y14201383D01*
X-29379567Y14201383D02*
X-29241196Y14205164D01*
X-29241196Y14205164D02*
X-29132767Y14291211D01*
X-29132767Y14291211D02*
X-29001956Y14571735D01*
X-29001956Y14571735D02*
X-28893527Y14657782D01*
X-28403707Y14975810D02*
X-29084525Y15566498D01*
X-29084525Y15566498D02*
X-28418829Y15529296D01*
X-28418829Y15529296D02*
X-28875229Y16015336D01*
X-28875229Y16015336D02*
X-27985114Y15873486D01*
X-28561284Y16688593D02*
X-27383083Y16139190D01*
X-28060121Y16591506D02*
X-28351987Y17137432D01*
X-27566520Y16771162D02*
X-28224655Y16531621D01*
X-34081634Y9802623D02*
X-32903434Y9253219D01*
X-32780185Y9810486D02*
X-32697918Y9840429D01*
X-32697918Y9840429D02*
X-32589489Y9926476D01*
X-32589489Y9926476D02*
X-32458679Y10207000D01*
X-32458679Y10207000D02*
X-32462459Y10345372D01*
X-32462459Y10345372D02*
X-32492402Y10427639D01*
X-32492402Y10427639D02*
X-32578449Y10536068D01*
X-32578449Y10536068D02*
X-32690659Y10588392D01*
X-32690659Y10588392D02*
X-32885135Y10610773D01*
X-32885135Y10610773D02*
X-33872337Y10251461D01*
X-33872337Y10251461D02*
X-33532230Y10980823D01*
X-32870617Y12106699D02*
X-32952884Y12076756D01*
X-32952884Y12076756D02*
X-33087475Y11934604D01*
X-33087475Y11934604D02*
X-33139799Y11822394D01*
X-33139799Y11822394D02*
X-33162181Y11627918D01*
X-33162181Y11627918D02*
X-33102295Y11463384D01*
X-33102295Y11463384D02*
X-33016248Y11354955D01*
X-33016248Y11354955D02*
X-32817991Y11194202D01*
X-32817991Y11194202D02*
X-32649677Y11115716D01*
X-32649677Y11115716D02*
X-32399095Y11067172D01*
X-32399095Y11067172D02*
X-32260724Y11070953D01*
X-32260724Y11070953D02*
X-32096190Y11130838D01*
X-32096190Y11130838D02*
X-31961599Y11272991D01*
X-31961599Y11272991D02*
X-31909275Y11385200D01*
X-31909275Y11385200D02*
X-31886893Y11579677D01*
X-31886893Y11579677D02*
X-31916836Y11661943D01*
X-31884019Y14515423D02*
X-31910181Y14459318D01*
X-31910181Y14459318D02*
X-31906401Y14320947D01*
X-31906401Y14320947D02*
X-31816573Y14074146D01*
X-31816573Y14074146D02*
X-31610755Y13636650D01*
X-31610755Y13636650D02*
X-31494764Y13445954D01*
X-31494764Y13445954D02*
X-31352612Y13311363D01*
X-31352612Y13311363D02*
X-31240403Y13259039D01*
X-31240403Y13259039D02*
X-31102031Y13262819D01*
X-31102031Y13262819D02*
X-30993602Y13348867D01*
X-30993602Y13348867D02*
X-30967440Y13404972D01*
X-30967440Y13404972D02*
X-30971221Y13543343D01*
X-30971221Y13543343D02*
X-31057268Y13651772D01*
X-31057268Y13651772D02*
X-31113373Y13677934D01*
X-31113373Y13677934D02*
X-31251744Y13674154D01*
X-31251744Y13674154D02*
X-31334011Y13644211D01*
X-31334011Y13644211D02*
X-31715403Y13412231D01*
X-31715403Y13412231D02*
X-31797670Y13382288D01*
X-31797670Y13382288D02*
X-31936041Y13378507D01*
X-31936041Y13378507D02*
X-32104356Y13456994D01*
X-32104356Y13456994D02*
X-32190403Y13565423D01*
X-32190403Y13565423D02*
X-32220346Y13647689D01*
X-32220346Y13647689D02*
X-32224126Y13786061D01*
X-32224126Y13786061D02*
X-32145640Y13954375D01*
X-32145640Y13954375D02*
X-32037211Y14040423D01*
X-32037211Y14040423D02*
X-31954944Y14070366D01*
X-31954944Y14070366D02*
X-31652039Y14134031D01*
X-31652039Y14134031D02*
X-31457563Y14111650D01*
X-31457563Y14111650D02*
X-31345353Y14059326D01*
X-30051767Y15368639D02*
X-31005548Y15813394D01*
X-31005548Y15813394D02*
X-31091596Y15921823D01*
X-31091596Y15921823D02*
X-31121538Y16004090D01*
X-31121538Y16004090D02*
X-31125319Y16142461D01*
X-31125319Y16142461D02*
X-31020671Y16366880D01*
X-31020671Y16366880D02*
X-30912242Y16452928D01*
X-30912242Y16452928D02*
X-30829975Y16482871D01*
X-30829975Y16482871D02*
X-30691603Y16486651D01*
X-30691603Y16486651D02*
X-29737822Y16041896D01*
X-30343935Y16939270D02*
X-30082314Y17500318D01*
X-30732888Y16984033D02*
X-29371553Y16827363D01*
X-29371553Y16827363D02*
X-30366618Y17769500D01*
X-29869539Y18835491D02*
X-29491626Y18181136D01*
X-30183484Y18162233D02*
X-29005284Y17612830D01*
X-29005284Y17612830D02*
X-28795987Y18061668D01*
X-28795987Y18061668D02*
X-28799768Y18200039D01*
X-28799768Y18200039D02*
X-28829710Y18282306D01*
X-28829710Y18282306D02*
X-28915758Y18390735D01*
X-28915758Y18390735D02*
X-29084072Y18469221D01*
X-29084072Y18469221D02*
X-29222444Y18465441D01*
X-29222444Y18465441D02*
X-29304710Y18435498D01*
X-29304710Y18435498D02*
X-29413139Y18349451D01*
X-29413139Y18349451D02*
X-29622436Y17900613D01*
X-28534366Y18622716D02*
X-28220421Y19295973D01*
X-29555594Y19508748D02*
X-28377394Y18959344D01*
X33739304Y11804762D02*
X34791685Y11804762D01*
X34791685Y11804762D02*
X34915495Y11742857D01*
X34915495Y11742857D02*
X34977400Y11680952D01*
X34977400Y11680952D02*
X35039304Y11557143D01*
X35039304Y11557143D02*
X35039304Y11309524D01*
X35039304Y11309524D02*
X34977400Y11185714D01*
X34977400Y11185714D02*
X34915495Y11123809D01*
X34915495Y11123809D02*
X34791685Y11061905D01*
X34791685Y11061905D02*
X33739304Y11061905D01*
X34977400Y10504761D02*
X35039304Y10319047D01*
X35039304Y10319047D02*
X35039304Y10009523D01*
X35039304Y10009523D02*
X34977400Y9885714D01*
X34977400Y9885714D02*
X34915495Y9823809D01*
X34915495Y9823809D02*
X34791685Y9761904D01*
X34791685Y9761904D02*
X34667876Y9761904D01*
X34667876Y9761904D02*
X34544066Y9823809D01*
X34544066Y9823809D02*
X34482161Y9885714D01*
X34482161Y9885714D02*
X34420257Y10009523D01*
X34420257Y10009523D02*
X34358352Y10257142D01*
X34358352Y10257142D02*
X34296447Y10380952D01*
X34296447Y10380952D02*
X34234542Y10442857D01*
X34234542Y10442857D02*
X34110733Y10504761D01*
X34110733Y10504761D02*
X33986923Y10504761D01*
X33986923Y10504761D02*
X33863114Y10442857D01*
X33863114Y10442857D02*
X33801209Y10380952D01*
X33801209Y10380952D02*
X33739304Y10257142D01*
X33739304Y10257142D02*
X33739304Y9947619D01*
X33739304Y9947619D02*
X33801209Y9761904D01*
X33739304Y9390476D02*
X33739304Y8647619D01*
X35039304Y9019047D02*
X33739304Y9019047D01*
X33739304Y8400000D02*
X33739304Y7657143D01*
X35039304Y8028571D02*
X33739304Y8028571D01*
X35039304Y7223810D02*
X33739304Y7223810D01*
X34358352Y7223810D02*
X34358352Y6480953D01*
X35039304Y6480953D02*
X33739304Y6480953D01*
X33739304Y5861905D02*
X34791685Y5861905D01*
X34791685Y5861905D02*
X34915495Y5800000D01*
X34915495Y5800000D02*
X34977400Y5738095D01*
X34977400Y5738095D02*
X35039304Y5614286D01*
X35039304Y5614286D02*
X35039304Y5366667D01*
X35039304Y5366667D02*
X34977400Y5242857D01*
X34977400Y5242857D02*
X34915495Y5180952D01*
X34915495Y5180952D02*
X34791685Y5119048D01*
X34791685Y5119048D02*
X33739304Y5119048D01*
X35039304Y4500000D02*
X33739304Y4500000D01*
X33739304Y4500000D02*
X35039304Y3757143D01*
X35039304Y3757143D02*
X33739304Y3757143D01*
X35039304Y3138095D02*
X33739304Y3138095D01*
X33739304Y3138095D02*
X33739304Y2828571D01*
X33739304Y2828571D02*
X33801209Y2642857D01*
X33801209Y2642857D02*
X33925019Y2519047D01*
X33925019Y2519047D02*
X34048828Y2457142D01*
X34048828Y2457142D02*
X34296447Y2395238D01*
X34296447Y2395238D02*
X34482161Y2395238D01*
X34482161Y2395238D02*
X34729780Y2457142D01*
X34729780Y2457142D02*
X34853590Y2519047D01*
X34853590Y2519047D02*
X34977400Y2642857D01*
X34977400Y2642857D02*
X35039304Y2828571D01*
X35039304Y2828571D02*
X35039304Y3138095D01*
X34358352Y1838095D02*
X34358352Y1404761D01*
X35039304Y1219047D02*
X35039304Y1838095D01*
X35039304Y1838095D02*
X33739304Y1838095D01*
X33739304Y1838095D02*
X33739304Y1219047D01*
X35039304Y-80952D02*
X34420257Y352381D01*
X35039304Y661905D02*
X33739304Y661905D01*
X33739304Y661905D02*
X33739304Y166667D01*
X33739304Y166667D02*
X33801209Y42857D01*
X33801209Y42857D02*
X33863114Y-19048D01*
X33863114Y-19048D02*
X33986923Y-80952D01*
X33986923Y-80952D02*
X34172638Y-80952D01*
X34172638Y-80952D02*
X34296447Y-19048D01*
X34296447Y-19048D02*
X34358352Y42857D01*
X34358352Y42857D02*
X34420257Y166667D01*
X34420257Y166667D02*
X34420257Y661905D01*
X35039304Y-638095D02*
X33739304Y-638095D01*
X33739304Y-638095D02*
X34667876Y-1071429D01*
X34667876Y-1071429D02*
X33739304Y-1504762D01*
X33739304Y-1504762D02*
X35039304Y-1504762D01*
X35039304Y-2123809D02*
X33739304Y-2123809D01*
X35039304Y-3361905D02*
X35039304Y-2742857D01*
X35039304Y-2742857D02*
X33739304Y-2742857D01*
X35039304Y-4414286D02*
X35039304Y-3795238D01*
X35039304Y-3795238D02*
X33739304Y-3795238D01*
X35039304Y-4847619D02*
X33739304Y-4847619D01*
X33739304Y-4847619D02*
X33739304Y-5342857D01*
X33739304Y-5342857D02*
X33801209Y-5466667D01*
X33801209Y-5466667D02*
X33863114Y-5528572D01*
X33863114Y-5528572D02*
X33986923Y-5590476D01*
X33986923Y-5590476D02*
X34172638Y-5590476D01*
X34172638Y-5590476D02*
X34296447Y-5528572D01*
X34296447Y-5528572D02*
X34358352Y-5466667D01*
X34358352Y-5466667D02*
X34420257Y-5342857D01*
X34420257Y-5342857D02*
X34420257Y-4847619D01*
X34915495Y-6890476D02*
X34977400Y-6828572D01*
X34977400Y-6828572D02*
X35039304Y-6642857D01*
X35039304Y-6642857D02*
X35039304Y-6519048D01*
X35039304Y-6519048D02*
X34977400Y-6333334D01*
X34977400Y-6333334D02*
X34853590Y-6209524D01*
X34853590Y-6209524D02*
X34729780Y-6147619D01*
X34729780Y-6147619D02*
X34482161Y-6085715D01*
X34482161Y-6085715D02*
X34296447Y-6085715D01*
X34296447Y-6085715D02*
X34048828Y-6147619D01*
X34048828Y-6147619D02*
X33925019Y-6209524D01*
X33925019Y-6209524D02*
X33801209Y-6333334D01*
X33801209Y-6333334D02*
X33739304Y-6519048D01*
X33739304Y-6519048D02*
X33739304Y-6642857D01*
X33739304Y-6642857D02*
X33801209Y-6828572D01*
X33801209Y-6828572D02*
X33863114Y-6890476D01*
X34358352Y-7880953D02*
X34420257Y-8066667D01*
X34420257Y-8066667D02*
X34482161Y-8128572D01*
X34482161Y-8128572D02*
X34605971Y-8190476D01*
X34605971Y-8190476D02*
X34791685Y-8190476D01*
X34791685Y-8190476D02*
X34915495Y-8128572D01*
X34915495Y-8128572D02*
X34977400Y-8066667D01*
X34977400Y-8066667D02*
X35039304Y-7942857D01*
X35039304Y-7942857D02*
X35039304Y-7447619D01*
X35039304Y-7447619D02*
X33739304Y-7447619D01*
X33739304Y-7447619D02*
X33739304Y-7880953D01*
X33739304Y-7880953D02*
X33801209Y-8004762D01*
X33801209Y-8004762D02*
X33863114Y-8066667D01*
X33863114Y-8066667D02*
X33986923Y-8128572D01*
X33986923Y-8128572D02*
X34110733Y-8128572D01*
X34110733Y-8128572D02*
X34234542Y-8066667D01*
X34234542Y-8066667D02*
X34296447Y-8004762D01*
X34296447Y-8004762D02*
X34358352Y-7880953D01*
X34358352Y-7880953D02*
X34358352Y-7447619D01*
X33739304Y-8995238D02*
X33739304Y-9119048D01*
X33739304Y-9119048D02*
X33801209Y-9242857D01*
X33801209Y-9242857D02*
X33863114Y-9304762D01*
X33863114Y-9304762D02*
X33986923Y-9366667D01*
X33986923Y-9366667D02*
X34234542Y-9428572D01*
X34234542Y-9428572D02*
X34544066Y-9428572D01*
X34544066Y-9428572D02*
X34791685Y-9366667D01*
X34791685Y-9366667D02*
X34915495Y-9304762D01*
X34915495Y-9304762D02*
X34977400Y-9242857D01*
X34977400Y-9242857D02*
X35039304Y-9119048D01*
X35039304Y-9119048D02*
X35039304Y-8995238D01*
X35039304Y-8995238D02*
X34977400Y-8871429D01*
X34977400Y-8871429D02*
X34915495Y-8809524D01*
X34915495Y-8809524D02*
X34791685Y-8747619D01*
X34791685Y-8747619D02*
X34544066Y-8685715D01*
X34544066Y-8685715D02*
X34234542Y-8685715D01*
X34234542Y-8685715D02*
X33986923Y-8747619D01*
X33986923Y-8747619D02*
X33863114Y-8809524D01*
X33863114Y-8809524D02*
X33801209Y-8871429D01*
X33801209Y-8871429D02*
X33739304Y-8995238D01*
X35039304Y-10666667D02*
X35039304Y-9923810D01*
X35039304Y-10295238D02*
X33739304Y-10295238D01*
X33739304Y-10295238D02*
X33925019Y-10171429D01*
X33925019Y-10171429D02*
X34048828Y-10047619D01*
X34048828Y-10047619D02*
X34110733Y-9923810D01*
X34358352Y-11657143D02*
X34420257Y-11842857D01*
X34420257Y-11842857D02*
X34482161Y-11904762D01*
X34482161Y-11904762D02*
X34605971Y-11966666D01*
X34605971Y-11966666D02*
X34791685Y-11966666D01*
X34791685Y-11966666D02*
X34915495Y-11904762D01*
X34915495Y-11904762D02*
X34977400Y-11842857D01*
X34977400Y-11842857D02*
X35039304Y-11719047D01*
X35039304Y-11719047D02*
X35039304Y-11223809D01*
X35039304Y-11223809D02*
X33739304Y-11223809D01*
X33739304Y-11223809D02*
X33739304Y-11657143D01*
X33739304Y-11657143D02*
X33801209Y-11780952D01*
X33801209Y-11780952D02*
X33863114Y-11842857D01*
X33863114Y-11842857D02*
X33986923Y-11904762D01*
X33986923Y-11904762D02*
X34110733Y-11904762D01*
X34110733Y-11904762D02*
X34234542Y-11842857D01*
X34234542Y-11842857D02*
X34296447Y-11780952D01*
X34296447Y-11780952D02*
X34358352Y-11657143D01*
X34358352Y-11657143D02*
X34358352Y-11223809D01*
X35956114Y2178571D02*
X35894209Y2116667D01*
X35894209Y2116667D02*
X35832304Y1992857D01*
X35832304Y1992857D02*
X35832304Y1683333D01*
X35832304Y1683333D02*
X35894209Y1559524D01*
X35894209Y1559524D02*
X35956114Y1497619D01*
X35956114Y1497619D02*
X36079923Y1435714D01*
X36079923Y1435714D02*
X36203733Y1435714D01*
X36203733Y1435714D02*
X36389447Y1497619D01*
X36389447Y1497619D02*
X37132304Y2240476D01*
X37132304Y2240476D02*
X37132304Y1435714D01*
X35832304Y630953D02*
X35832304Y507143D01*
X35832304Y507143D02*
X35894209Y383334D01*
X35894209Y383334D02*
X35956114Y321429D01*
X35956114Y321429D02*
X36079923Y259524D01*
X36079923Y259524D02*
X36327542Y197619D01*
X36327542Y197619D02*
X36637066Y197619D01*
X36637066Y197619D02*
X36884685Y259524D01*
X36884685Y259524D02*
X37008495Y321429D01*
X37008495Y321429D02*
X37070400Y383334D01*
X37070400Y383334D02*
X37132304Y507143D01*
X37132304Y507143D02*
X37132304Y630953D01*
X37132304Y630953D02*
X37070400Y754762D01*
X37070400Y754762D02*
X37008495Y816667D01*
X37008495Y816667D02*
X36884685Y878572D01*
X36884685Y878572D02*
X36637066Y940476D01*
X36637066Y940476D02*
X36327542Y940476D01*
X36327542Y940476D02*
X36079923Y878572D01*
X36079923Y878572D02*
X35956114Y816667D01*
X35956114Y816667D02*
X35894209Y754762D01*
X35894209Y754762D02*
X35832304Y630953D01*
X35956114Y-297619D02*
X35894209Y-359523D01*
X35894209Y-359523D02*
X35832304Y-483333D01*
X35832304Y-483333D02*
X35832304Y-792857D01*
X35832304Y-792857D02*
X35894209Y-916666D01*
X35894209Y-916666D02*
X35956114Y-978571D01*
X35956114Y-978571D02*
X36079923Y-1040476D01*
X36079923Y-1040476D02*
X36203733Y-1040476D01*
X36203733Y-1040476D02*
X36389447Y-978571D01*
X36389447Y-978571D02*
X37132304Y-235714D01*
X37132304Y-235714D02*
X37132304Y-1040476D01*
X35832304Y-1473809D02*
X35832304Y-2278571D01*
X35832304Y-2278571D02*
X36327542Y-1845237D01*
X36327542Y-1845237D02*
X36327542Y-2030952D01*
X36327542Y-2030952D02*
X36389447Y-2154761D01*
X36389447Y-2154761D02*
X36451352Y-2216666D01*
X36451352Y-2216666D02*
X36575161Y-2278571D01*
X36575161Y-2278571D02*
X36884685Y-2278571D01*
X36884685Y-2278571D02*
X37008495Y-2216666D01*
X37008495Y-2216666D02*
X37070400Y-2154761D01*
X37070400Y-2154761D02*
X37132304Y-2030952D01*
X37132304Y-2030952D02*
X37132304Y-1659523D01*
X37132304Y-1659523D02*
X37070400Y-1535714D01*
X37070400Y-1535714D02*
X37008495Y-1473809D01*
X-26597734Y-19686546D02*
X-25429302Y-19116663D01*
X-25429302Y-19116663D02*
X-25564988Y-18838465D01*
X-25564988Y-18838465D02*
X-25702039Y-18698683D01*
X-25702039Y-18698683D02*
X-25867593Y-18641678D01*
X-25867593Y-18641678D02*
X-26006010Y-18640313D01*
X-26006010Y-18640313D02*
X-26255705Y-18693223D01*
X-26255705Y-18693223D02*
X-26422624Y-18774635D01*
X-26422624Y-18774635D02*
X-26618046Y-18938823D01*
X-26618046Y-18938823D02*
X-26702188Y-19048737D01*
X-26702188Y-19048737D02*
X-26759192Y-19214291D01*
X-26759192Y-19214291D02*
X-26733420Y-19408347D01*
X-26733420Y-19408347D02*
X-26597734Y-19686546D01*
X-27329075Y-18045859D02*
X-27330440Y-18184275D01*
X-27330440Y-18184275D02*
X-27221891Y-18406834D01*
X-27221891Y-18406834D02*
X-27111977Y-18490976D01*
X-27111977Y-18490976D02*
X-26973560Y-18492341D01*
X-26973560Y-18492341D02*
X-26528443Y-18275243D01*
X-26528443Y-18275243D02*
X-26444301Y-18165329D01*
X-26444301Y-18165329D02*
X-26442936Y-18026912D01*
X-26442936Y-18026912D02*
X-26551485Y-17804354D01*
X-26551485Y-17804354D02*
X-26661399Y-17720212D01*
X-26661399Y-17720212D02*
X-26799816Y-17718847D01*
X-26799816Y-17718847D02*
X-26911095Y-17773121D01*
X-26911095Y-17773121D02*
X-26751002Y-18383792D01*
X-27656087Y-17516600D02*
X-26487655Y-16946717D01*
X-26932772Y-17163815D02*
X-26931407Y-17025399D01*
X-26931407Y-17025399D02*
X-27039956Y-16802840D01*
X-27039956Y-16802840D02*
X-27149870Y-16718698D01*
X-27149870Y-16718698D02*
X-27232647Y-16690196D01*
X-27232647Y-16690196D02*
X-27371063Y-16688831D01*
X-27371063Y-16688831D02*
X-27704901Y-16851654D01*
X-27704901Y-16851654D02*
X-27789043Y-16961568D01*
X-27789043Y-16961568D02*
X-27817546Y-17044345D01*
X-27817546Y-17044345D02*
X-27818911Y-17182762D01*
X-27818911Y-17182762D02*
X-27710362Y-17405320D01*
X-27710362Y-17405320D02*
X-27600448Y-17489462D01*
X-27636975Y-15578769D02*
X-28415930Y-15958690D01*
X-27392740Y-16079525D02*
X-28004776Y-16378035D01*
X-28004776Y-16378035D02*
X-28143193Y-16376670D01*
X-28143193Y-16376670D02*
X-28253107Y-16292528D01*
X-28253107Y-16292528D02*
X-28334519Y-16125609D01*
X-28334519Y-16125609D02*
X-28333153Y-15987193D01*
X-28333153Y-15987193D02*
X-28304651Y-15904416D01*
X-28152583Y-14521616D02*
X-29098457Y-14982950D01*
X-29098457Y-14982950D02*
X-29182599Y-15092864D01*
X-29182599Y-15092864D02*
X-29211101Y-15175641D01*
X-29211101Y-15175641D02*
X-29212466Y-15314057D01*
X-29212466Y-15314057D02*
X-29131055Y-15480976D01*
X-29131055Y-15480976D02*
X-29021140Y-15565118D01*
X-28875898Y-14874401D02*
X-28877264Y-15012817D01*
X-28877264Y-15012817D02*
X-28768714Y-15235376D01*
X-28768714Y-15235376D02*
X-28658800Y-15319518D01*
X-28658800Y-15319518D02*
X-28576023Y-15348020D01*
X-28576023Y-15348020D02*
X-28437607Y-15349385D01*
X-28437607Y-15349385D02*
X-28103769Y-15186562D01*
X-28103769Y-15186562D02*
X-28019627Y-15076647D01*
X-28019627Y-15076647D02*
X-27991125Y-14993870D01*
X-27991125Y-14993870D02*
X-27989760Y-14855454D01*
X-27989760Y-14855454D02*
X-28098309Y-14632895D01*
X-28098309Y-14632895D02*
X-28208223Y-14548753D01*
X-28468674Y-12885026D02*
X-29414548Y-13346359D01*
X-29414548Y-13346359D02*
X-29552965Y-13344994D01*
X-29552965Y-13344994D02*
X-29635741Y-13316491D01*
X-29635741Y-13316491D02*
X-29745656Y-13232349D01*
X-29745656Y-13232349D02*
X-29854205Y-13009791D01*
X-29854205Y-13009791D02*
X-29852840Y-12871374D01*
X-29852840Y-12871374D02*
X-29824337Y-12788598D01*
X-29824337Y-12788598D02*
X-29740195Y-12678683D01*
X-29740195Y-12678683D02*
X-28794321Y-12217350D01*
X-29873151Y-12123652D02*
X-30144524Y-11567256D01*
X-30152715Y-12397755D02*
X-29174243Y-11438395D01*
X-29174243Y-11438395D02*
X-30532636Y-11618800D01*
X-31048244Y-10561647D02*
X-30301887Y-10679751D01*
X-30722597Y-11229322D02*
X-29554165Y-10659440D01*
X-29554165Y-10659440D02*
X-29771263Y-10214323D01*
X-29771263Y-10214323D02*
X-29881177Y-10130181D01*
X-29881177Y-10130181D02*
X-29963954Y-10101678D01*
X-29963954Y-10101678D02*
X-30102371Y-10100313D01*
X-30102371Y-10100313D02*
X-30269290Y-10181725D01*
X-30269290Y-10181725D02*
X-30353432Y-10291639D01*
X-30353432Y-10291639D02*
X-30381934Y-10374416D01*
X-30381934Y-10374416D02*
X-30383299Y-10512833D01*
X-30383299Y-10512833D02*
X-30166201Y-10957950D01*
X-30042636Y-9657926D02*
X-30368283Y-8990251D01*
X-31373892Y-9893971D02*
X-30205459Y-9324089D01*
X-32835805Y-3328570D02*
X-31535805Y-3328570D01*
X-31535805Y-3328570D02*
X-31535805Y-2833332D01*
X-31535805Y-2833332D02*
X-31597710Y-2709522D01*
X-31597710Y-2709522D02*
X-31659615Y-2647617D01*
X-31659615Y-2647617D02*
X-31783424Y-2585713D01*
X-31783424Y-2585713D02*
X-31969139Y-2585713D01*
X-31969139Y-2585713D02*
X-32092948Y-2647617D01*
X-32092948Y-2647617D02*
X-32154853Y-2709522D01*
X-32154853Y-2709522D02*
X-32216758Y-2833332D01*
X-32216758Y-2833332D02*
X-32216758Y-3328570D01*
X-32835805Y-1471427D02*
X-32154853Y-1471427D01*
X-32154853Y-1471427D02*
X-32031043Y-1533332D01*
X-32031043Y-1533332D02*
X-31969139Y-1657141D01*
X-31969139Y-1657141D02*
X-31969139Y-1904760D01*
X-31969139Y-1904760D02*
X-32031043Y-2028570D01*
X-32773900Y-1471427D02*
X-32835805Y-1595236D01*
X-32835805Y-1595236D02*
X-32835805Y-1904760D01*
X-32835805Y-1904760D02*
X-32773900Y-2028570D01*
X-32773900Y-2028570D02*
X-32650091Y-2090474D01*
X-32650091Y-2090474D02*
X-32526281Y-2090474D01*
X-32526281Y-2090474D02*
X-32402472Y-2028570D01*
X-32402472Y-2028570D02*
X-32340567Y-1904760D01*
X-32340567Y-1904760D02*
X-32340567Y-1595236D01*
X-32340567Y-1595236D02*
X-32278662Y-1471427D01*
X-31969139Y-976189D02*
X-32835805Y-666665D01*
X-31969139Y-357142D02*
X-32835805Y-666665D01*
X-32835805Y-666665D02*
X-33145329Y-790475D01*
X-33145329Y-790475D02*
X-33207234Y-852380D01*
X-33207234Y-852380D02*
X-33269139Y-976189D01*
X-32835805Y323811D02*
X-32773900Y200001D01*
X-32773900Y200001D02*
X-32650091Y138096D01*
X-32650091Y138096D02*
X-31535805Y138096D01*
X-32835805Y1004763D02*
X-32773900Y880953D01*
X-32773900Y880953D02*
X-32711996Y819048D01*
X-32711996Y819048D02*
X-32588186Y757144D01*
X-32588186Y757144D02*
X-32216758Y757144D01*
X-32216758Y757144D02*
X-32092948Y819048D01*
X-32092948Y819048D02*
X-32031043Y880953D01*
X-32031043Y880953D02*
X-31969139Y1004763D01*
X-31969139Y1004763D02*
X-31969139Y1190477D01*
X-31969139Y1190477D02*
X-32031043Y1314286D01*
X-32031043Y1314286D02*
X-32092948Y1376191D01*
X-32092948Y1376191D02*
X-32216758Y1438096D01*
X-32216758Y1438096D02*
X-32588186Y1438096D01*
X-32588186Y1438096D02*
X-32711996Y1376191D01*
X-32711996Y1376191D02*
X-32773900Y1314286D01*
X-32773900Y1314286D02*
X-32835805Y1190477D01*
X-32835805Y1190477D02*
X-32835805Y1004763D01*
X-32835805Y2552381D02*
X-32154853Y2552381D01*
X-32154853Y2552381D02*
X-32031043Y2490476D01*
X-32031043Y2490476D02*
X-31969139Y2366667D01*
X-31969139Y2366667D02*
X-31969139Y2119048D01*
X-31969139Y2119048D02*
X-32031043Y1995238D01*
X-32773900Y2552381D02*
X-32835805Y2428572D01*
X-32835805Y2428572D02*
X-32835805Y2119048D01*
X-32835805Y2119048D02*
X-32773900Y1995238D01*
X-32773900Y1995238D02*
X-32650091Y1933334D01*
X-32650091Y1933334D02*
X-32526281Y1933334D01*
X-32526281Y1933334D02*
X-32402472Y1995238D01*
X-32402472Y1995238D02*
X-32340567Y2119048D01*
X-32340567Y2119048D02*
X-32340567Y2428572D01*
X-32340567Y2428572D02*
X-32278662Y2552381D01*
X-32835805Y3728571D02*
X-31535805Y3728571D01*
X-32773900Y3728571D02*
X-32835805Y3604762D01*
X-32835805Y3604762D02*
X-32835805Y3357143D01*
X-32835805Y3357143D02*
X-32773900Y3233333D01*
X-32773900Y3233333D02*
X-32711996Y3171428D01*
X-32711996Y3171428D02*
X-32588186Y3109524D01*
X-32588186Y3109524D02*
X-32216758Y3109524D01*
X-32216758Y3109524D02*
X-32092948Y3171428D01*
X-32092948Y3171428D02*
X-32031043Y3233333D01*
X-32031043Y3233333D02*
X-31969139Y3357143D01*
X-31969139Y3357143D02*
X-31969139Y3604762D01*
X-31969139Y3604762D02*
X-32031043Y3728571D01*
D10*
%TO.C,U6*%
X-14102984Y7983385D02*
X-14379858Y7222682D01*
X-14379858Y7222682D02*
X-14457178Y7149474D01*
X-14457178Y7149474D02*
X-14518212Y7121013D01*
X-14518212Y7121013D02*
X-14623994Y7108839D01*
X-14623994Y7108839D02*
X-14802983Y7173986D01*
X-14802983Y7173986D02*
X-14876190Y7251307D01*
X-14876190Y7251307D02*
X-14904651Y7312341D01*
X-14904651Y7312341D02*
X-14916825Y7418122D01*
X-14916825Y7418122D02*
X-14639952Y8178825D01*
X-15490150Y8488272D02*
X-15311161Y8423125D01*
X-15311161Y8423125D02*
X-15237953Y8345805D01*
X-15237953Y8345805D02*
X-15209492Y8284771D01*
X-15209492Y8284771D02*
X-15168858Y8117956D01*
X-15168858Y8117956D02*
X-15189257Y7922680D01*
X-15189257Y7922680D02*
X-15319550Y7564702D01*
X-15319550Y7564702D02*
X-15396871Y7491494D01*
X-15396871Y7491494D02*
X-15457905Y7463033D01*
X-15457905Y7463033D02*
X-15563686Y7450859D01*
X-15563686Y7450859D02*
X-15742675Y7516006D01*
X-15742675Y7516006D02*
X-15815883Y7593327D01*
X-15815883Y7593327D02*
X-15844344Y7654361D01*
X-15844344Y7654361D02*
X-15856518Y7760142D01*
X-15856518Y7760142D02*
X-15775084Y7983878D01*
X-15775084Y7983878D02*
X-15697764Y8057086D01*
X-15697764Y8057086D02*
X-15636730Y8085547D01*
X-15636730Y8085547D02*
X-15530948Y8097721D01*
X-15530948Y8097721D02*
X-15351959Y8032574D01*
X-15351959Y8032574D02*
X-15278752Y7955253D01*
X-15278752Y7955253D02*
X-15250291Y7894219D01*
X-15250291Y7894219D02*
X-15238117Y7788438D01*
%TO.C,U13*%
X7938849Y13550110D02*
X7178145Y13826984D01*
X7178145Y13826984D02*
X7104937Y13904304D01*
X7104937Y13904304D02*
X7076477Y13965338D01*
X7076477Y13965338D02*
X7064303Y14071119D01*
X7064303Y14071119D02*
X7129449Y14250108D01*
X7129449Y14250108D02*
X7206770Y14323316D01*
X7206770Y14323316D02*
X7267804Y14351777D01*
X7267804Y14351777D02*
X7373585Y14363951D01*
X7373585Y14363951D02*
X8134289Y14087077D01*
X7536616Y15368790D02*
X7341176Y14831823D01*
X7438896Y15100306D02*
X8378589Y14758286D01*
X8378589Y14758286D02*
X8211774Y14717652D01*
X8211774Y14717652D02*
X8089706Y14660731D01*
X8089706Y14660731D02*
X8012385Y14587523D01*
X8590316Y15340001D02*
X8802042Y15921715D01*
X8802042Y15921715D02*
X8330058Y15738778D01*
X8330058Y15738778D02*
X8378918Y15873020D01*
X8378918Y15873020D02*
X8366744Y15978801D01*
X8366744Y15978801D02*
X8338283Y16039835D01*
X8338283Y16039835D02*
X8265075Y16117155D01*
X8265075Y16117155D02*
X8041339Y16198589D01*
X8041339Y16198589D02*
X7935558Y16186415D01*
X7935558Y16186415D02*
X7874524Y16157954D01*
X7874524Y16157954D02*
X7797203Y16084746D01*
X7797203Y16084746D02*
X7699483Y15816263D01*
X7699483Y15816263D02*
X7711657Y15710482D01*
X7711657Y15710482D02*
X7740118Y15649448D01*
%TO.C,U5*%
X-19356313Y-8176858D02*
X-18951551Y-8877926D01*
X-18951551Y-8877926D02*
X-18945171Y-8984214D01*
X-18945171Y-8984214D02*
X-18962601Y-9049263D01*
X-18962601Y-9049263D02*
X-19021270Y-9138121D01*
X-19021270Y-9138121D02*
X-19186228Y-9233359D01*
X-19186228Y-9233359D02*
X-19292516Y-9239739D01*
X-19292516Y-9239739D02*
X-19357564Y-9222309D01*
X-19357564Y-9222309D02*
X-19446423Y-9163640D01*
X-19446423Y-9163640D02*
X-19851185Y-8462572D01*
X-20675971Y-8938762D02*
X-20263578Y-8700667D01*
X-20263578Y-8700667D02*
X-19984243Y-9089251D01*
X-19984243Y-9089251D02*
X-20049292Y-9071821D01*
X-20049292Y-9071821D02*
X-20155580Y-9078201D01*
X-20155580Y-9078201D02*
X-20361777Y-9197248D01*
X-20361777Y-9197248D02*
X-20420446Y-9286107D01*
X-20420446Y-9286107D02*
X-20437876Y-9351155D01*
X-20437876Y-9351155D02*
X-20431496Y-9457443D01*
X-20431496Y-9457443D02*
X-20312448Y-9663640D01*
X-20312448Y-9663640D02*
X-20223590Y-9722309D01*
X-20223590Y-9722309D02*
X-20158541Y-9739739D01*
X-20158541Y-9739739D02*
X-20052253Y-9733359D01*
X-20052253Y-9733359D02*
X-19846056Y-9614312D01*
X-19846056Y-9614312D02*
X-19787387Y-9525453D01*
X-19787387Y-9525453D02*
X-19769958Y-9460404D01*
D13*
%TO.C,J4*%
X9511109Y-11047657D02*
X9511109Y-10761943D01*
X9511109Y-10904800D02*
X9011109Y-10904800D01*
X9011109Y-10904800D02*
X9082538Y-10857181D01*
X9082538Y-10857181D02*
X9130157Y-10809562D01*
X9130157Y-10809562D02*
X9153966Y-10761943D01*
D14*
%TO.C,U6*%
X-14057468Y6189661D02*
X-14741508Y4310276D01*
X-16632226Y7126796D02*
X-17316266Y5247411D01*
D11*
X-13525472Y5787414D02*
G75*
G03*
X-13525472Y5787414I-100000J0D01*
G01*
D14*
%TO.C,U13*%
X6189661Y14057468D02*
X4310276Y14741508D01*
X7126796Y16632226D02*
X5247411Y17316266D01*
D11*
X5887414Y13625472D02*
G75*
G03*
X5887414Y13625472I-100000J0D01*
G01*
D14*
%TO.C,U5*%
X-18100296Y-9292175D02*
X-17100296Y-11024225D01*
X-20473206Y-10662175D02*
X-19473206Y-12394225D01*
D11*
X-17414476Y-9219806D02*
G75*
G03*
X-17414476Y-9219806I-100000J0D01*
G01*
%TO.C,G1*%
G36*
X28147514Y-6270140D02*
G01*
X28151175Y-6407335D01*
X28180261Y-6573485D01*
X28241815Y-6625415D01*
X28273168Y-6622325D01*
X28427964Y-6597230D01*
X28681004Y-6551004D01*
X29005688Y-6488587D01*
X29375414Y-6414917D01*
X29563830Y-6376837D01*
X29903399Y-6308653D01*
X30178702Y-6253968D01*
X30365323Y-6217613D01*
X30438847Y-6204420D01*
X30445588Y-6216646D01*
X30458044Y-6325555D01*
X30462983Y-6510603D01*
X30462983Y-6816785D01*
X28153745Y-7274797D01*
X28133088Y-7704388D01*
X28129176Y-7784292D01*
X28113302Y-7986911D01*
X28079620Y-8093503D01*
X28009070Y-8138441D01*
X27882587Y-8156100D01*
X27652743Y-8178221D01*
X27672090Y-7068531D01*
X27691436Y-5958840D01*
X28147514Y-5914866D01*
X28147514Y-6270140D01*
G37*
G36*
X29820317Y-310592D02*
G01*
X29982940Y-365519D01*
X30176908Y-495795D01*
X30354693Y-663575D01*
X30468767Y-831018D01*
X30497595Y-968725D01*
X30514258Y-1198834D01*
X30514265Y-1468542D01*
X30480273Y-1800145D01*
X30367538Y-2133528D01*
X30165367Y-2381511D01*
X29861021Y-2565487D01*
X29753715Y-2604436D01*
X29514584Y-2674087D01*
X29201735Y-2754858D01*
X28850032Y-2838791D01*
X28494338Y-2917927D01*
X28169517Y-2984307D01*
X27910434Y-3029971D01*
X27751953Y-3046962D01*
X27730242Y-3043043D01*
X27674233Y-2954822D01*
X27656353Y-2741935D01*
X27656353Y-2436908D01*
X28375552Y-2311245D01*
X28860744Y-2220536D01*
X29255538Y-2130845D01*
X29544014Y-2042618D01*
X29743423Y-1950526D01*
X29871014Y-1849239D01*
X29958540Y-1694828D01*
X30002513Y-1454602D01*
X29977470Y-1213734D01*
X29882551Y-1033143D01*
X29875432Y-1026113D01*
X29819277Y-982166D01*
X29745293Y-958857D01*
X29629553Y-957705D01*
X29448131Y-980231D01*
X29177101Y-1027955D01*
X28792536Y-1102398D01*
X28675863Y-1125211D01*
X28331585Y-1191089D01*
X28042552Y-1244294D01*
X27836213Y-1279859D01*
X27740021Y-1292818D01*
X27724300Y-1289027D01*
X27674391Y-1194448D01*
X27656353Y-989849D01*
X27656353Y-686880D01*
X28662695Y-498689D01*
X28801802Y-472932D01*
X29160197Y-408977D01*
X29467887Y-357426D01*
X29695845Y-323020D01*
X29815046Y-310498D01*
X29820317Y-310592D01*
G37*
G36*
X30019307Y-3084320D02*
G01*
X30259168Y-3239710D01*
X30432326Y-3494500D01*
X30465786Y-3590110D01*
X30515651Y-3874384D01*
X30526097Y-4197393D01*
X30497267Y-4501290D01*
X30429302Y-4728229D01*
X30261150Y-4966842D01*
X29989924Y-5156679D01*
X29662227Y-5222100D01*
X29549393Y-5217555D01*
X29330985Y-5165740D01*
X29149426Y-5039601D01*
X28980820Y-4818600D01*
X28801269Y-4482199D01*
X28739599Y-4357562D01*
X28587364Y-4093045D01*
X28458644Y-3950195D01*
X28342070Y-3919293D01*
X28226272Y-3990619D01*
X28145879Y-4119492D01*
X28115068Y-4345339D01*
X28171374Y-4577360D01*
X28308895Y-4760565D01*
X28342601Y-4788733D01*
X28464733Y-4950918D01*
X28498342Y-5172111D01*
X28489362Y-5331209D01*
X28442570Y-5413917D01*
X28332390Y-5432597D01*
X28282971Y-5428591D01*
X28067164Y-5341747D01*
X27854763Y-5167113D01*
X27690034Y-4938726D01*
X27652986Y-4841096D01*
X27604976Y-4606066D01*
X27586188Y-4345028D01*
X27590224Y-4212060D01*
X27662522Y-3830219D01*
X27823270Y-3553266D01*
X28069749Y-3384602D01*
X28399244Y-3327625D01*
X28464874Y-3329383D01*
X28703262Y-3378966D01*
X28903237Y-3510631D01*
X29086035Y-3743027D01*
X29272897Y-4094806D01*
X29327859Y-4209345D01*
X29465064Y-4458143D01*
X29582588Y-4594454D01*
X29697908Y-4633926D01*
X29828503Y-4592207D01*
X29841319Y-4584881D01*
X29967289Y-4437898D01*
X30023121Y-4225768D01*
X30010828Y-3996239D01*
X29932420Y-3797062D01*
X29789909Y-3675982D01*
X29698765Y-3627796D01*
X29636498Y-3523536D01*
X29620994Y-3329361D01*
X29621232Y-3279702D01*
X29635296Y-3123820D01*
X29691007Y-3059531D01*
X29815879Y-3046962D01*
X30019307Y-3084320D01*
G37*
G36*
X27937016Y7898895D02*
G01*
X27935380Y7882452D01*
X27878383Y7828729D01*
X27844058Y7811141D01*
X27721874Y7716054D01*
X27539251Y7557014D01*
X27321010Y7355110D01*
X27292657Y7328053D01*
X27020633Y7046829D01*
X26814352Y6776262D01*
X26653153Y6478862D01*
X26516375Y6117135D01*
X26383359Y5653591D01*
X26315388Y5328079D01*
X26257513Y4810739D01*
X26242179Y4256005D01*
X26267444Y3698644D01*
X26331365Y3173422D01*
X26432001Y2715105D01*
X26567410Y2358458D01*
X26760160Y2063126D01*
X27066479Y1770045D01*
X27419601Y1580893D01*
X27793200Y1513812D01*
X27891952Y1518060D01*
X28149528Y1591582D01*
X28300984Y1753950D01*
X28345483Y2001922D01*
X28282187Y2332257D01*
X28110260Y2741712D01*
X28086912Y2788632D01*
X27846441Y3421989D01*
X27745929Y4054496D01*
X27785059Y4688060D01*
X27826428Y4896132D01*
X27982693Y5439669D01*
X28199501Y5977628D01*
X28461911Y6483202D01*
X28754981Y6929583D01*
X29063769Y7289965D01*
X29373332Y7537539D01*
X29485228Y7601352D01*
X29986997Y7809244D01*
X30469723Y7878208D01*
X30932567Y7808343D01*
X31374693Y7599748D01*
X31795262Y7252521D01*
X31808148Y7239324D01*
X32124435Y6841262D01*
X32374893Y6359511D01*
X32572913Y5768520D01*
X32628032Y5486591D01*
X32671126Y5057819D01*
X32690473Y4564391D01*
X32686515Y4046187D01*
X32659697Y3543085D01*
X32610462Y3094967D01*
X32539253Y2741712D01*
X32502446Y2616534D01*
X32236216Y1946229D01*
X31884535Y1385984D01*
X31448129Y936764D01*
X30927723Y599531D01*
X30714184Y500234D01*
X30549691Y437839D01*
X30473368Y427552D01*
X30482833Y455515D01*
X30570973Y562182D01*
X30730816Y726064D01*
X30941779Y925291D01*
X31012181Y990251D01*
X31344663Y1328243D01*
X31588951Y1650527D01*
X31774350Y2001603D01*
X31930170Y2425967D01*
X31981394Y2602464D01*
X32103345Y3226453D01*
X32158605Y3898710D01*
X32147241Y4576266D01*
X32069321Y5216148D01*
X31924912Y5775384D01*
X31807384Y6049105D01*
X31579445Y6398501D01*
X31306909Y6663428D01*
X31008290Y6834404D01*
X30702104Y6901948D01*
X30406866Y6856580D01*
X30141091Y6688818D01*
X30055940Y6588743D01*
X29981989Y6370756D01*
X30021743Y6101942D01*
X30175763Y5767381D01*
X30223871Y5679285D01*
X30468507Y5065772D01*
X30591160Y4397401D01*
X30590263Y3689439D01*
X30464247Y2957151D01*
X30339633Y2569209D01*
X30065750Y2005449D01*
X29708234Y1497494D01*
X29287680Y1072948D01*
X28824682Y759416D01*
X28429496Y616184D01*
X27992338Y561401D01*
X27563335Y596858D01*
X27191229Y723624D01*
X27159519Y740737D01*
X26729887Y1053752D01*
X26355140Y1480890D01*
X26049121Y2003112D01*
X25825674Y2601381D01*
X25787203Y2789106D01*
X25749262Y3141105D01*
X25727895Y3571127D01*
X25722738Y4043800D01*
X25733429Y4523753D01*
X25759606Y4975616D01*
X25800906Y5364019D01*
X25856965Y5653591D01*
X25920702Y5860042D01*
X26058267Y6222175D01*
X26217039Y6566835D01*
X26378158Y6854580D01*
X26522763Y7045967D01*
X26616510Y7151384D01*
X26682804Y7253800D01*
X26691470Y7267669D01*
X26787381Y7356528D01*
X26962902Y7491224D01*
X27188226Y7648483D01*
X27207775Y7661503D01*
X27509449Y7844205D01*
X27739267Y7947252D01*
X27885649Y7966773D01*
X27937016Y7898895D01*
G37*
D10*
%TO.C,J4*%
X15632400Y-11285800D02*
X8012400Y-11285800D01*
X8012400Y-11285800D02*
X8012400Y-16365800D01*
X15632400Y-16365800D02*
X15632400Y-11285800D01*
X8012400Y-16365800D02*
X15632400Y-16365800D01*
%TD*%
M02*
