M48
; DRILL file {KiCad 6.0.11+dfsg-1~bpo11+1} date Tue Jun 13 13:01:03 2023
; FORMAT={-:-/ absolute / metric / decimal}
; #@! TF.CreationDate,2023-06-13T13:01:03+00:00
; #@! TF.GenerationSoftware,Kicad,Pcbnew,6.0.11+dfsg-1~bpo11+1
; #@! TF.FileFunction,Plated,1,4,PTH
FMAT,2
METRIC
; #@! TA.AperFunction,Plated,PTH,ViaDrill
T1C0.400
%
G90
G05
T1
X-38.3Y-5.9
X-38.233Y6.394
X-38.1Y8.0
X-37.725Y-9.735
X-37.217Y-11.132
X-37.1Y11.8
X-36.836Y8.045
X-36.6Y-13.0
X-36.5Y-6.0
X-36.455Y6.394
X-36.074Y11.347
X-36.074Y-9.481
X-35.85Y12.55
X-35.693Y-10.624
X-35.1Y-12.1
X-34.5Y8.45
X-34.25Y6.1
X-34.169Y-9.481
X-32.65Y19.45
X-32.264Y21.38
X-32.1Y-21.7
X-32.05Y11.55
X-30.867Y-23.578
X-30.74Y20.618
X-30.5Y-21.0
X-30.359Y-7.068
X-30.0Y19.4
X-29.3Y-9.3
X-29.25Y3.6
X-29.15Y17.05
X-29.089Y-10.751
X-28.962Y-1.988
X-28.835Y6.394
X-28.75Y-0.55
X-28.5Y-16.45
X-28.426Y3.003
X-28.4Y-25.0
X-28.327Y-6.56
X-28.0Y9.5
X-27.946Y24.174
X-27.65Y-0.75
X-27.2Y-23.0
X-27.064Y5.742
X-26.93Y-7.83
X-26.904Y-3.404
X-26.9Y-4.5
X-26.803Y-11.513
X-26.3Y18.45
X-26.295Y0.552
X-26.25Y22.2
X-26.15Y-2.1
X-26.1Y16.7
X-25.787Y3.219
X-25.7Y13.8
X-25.5Y-2.9
X-25.0Y3.75
X-24.7Y8.5
X-24.45Y20.4
X-24.4Y-20.2
X-24.39Y-4.02
X-24.3Y10.4
X-23.85Y-18.85
X-23.8Y14.5
X-23.6Y-10.7
X-22.916Y-8.416
X-22.739Y-5.798
X-22.231Y-2.242
X-22.05Y-18.95
X-22.0Y18.05
X-21.088Y-3.258
X-21.088Y-7.322
X-20.75Y-9.3
X-20.707Y-11.132
X-20.707Y-12.91
X-20.0Y-16.4
X-18.7Y-9.7
X-18.607Y-6.222
X-18.325Y-4.7
X-17.45Y-13.15
X-17.45Y-15.175
X-17.224Y-16.624
X-15.375Y11.6
X-15.375Y-2.897
X-14.975Y-11.3
X-14.8Y17.4
X-14.8Y-7.9
X-14.7Y-5.8
X-14.5Y4.6
X-14.4Y1.695
X-14.357Y0.552
X-14.357Y-0.591
X-14.357Y-1.607
X-13.722Y-2.496
X-13.7Y3.0
X-13.595Y-19.006
X-13.1Y18.7
X-13.087Y-10.751
X-12.706Y-2.623
X-12.7Y3.0
X-12.5Y10.0
X-12.325Y-19.133
X-11.95Y-14.3
X-11.9Y20.2
X-11.7Y3.0
X-11.69Y-2.623
X-11.4Y-5.7
X-10.674Y-1.607
X-10.674Y-2.623
X-10.674Y-10.751
X-10.65Y3.0
X-10.65Y1.7
X-10.55Y-21.2
X-10.166Y-15.577
X-9.7Y-5.7
X-9.658Y-1.607
X-9.65Y1.7
X-9.15Y-3.893
X-9.0Y21.8
X-8.65Y1.7
X-8.642Y-1.607
X-8.134Y-5.671
X-8.134Y-16.847
X-8.007Y-10.878
X-7.557Y-8.611
X-7.55Y4.9
X-7.468Y-6.896
X-6.4Y18.8
X-6.3Y22.1
X-6.229Y-16.593
X-6.2Y-10.9
X-6.15Y-22.825
X-5.2Y-21.1
X-4.7Y23.0
X-4.578Y-7.957
X-4.451Y-14.688
X-4.45Y-22.9
X-4.4Y16.6
X-3.9Y20.0
X-3.602Y-22.198
X-3.4Y-13.6
X-2.546Y-10.878
X-2.2Y17.9
X-1.657Y-15.831
X-1.6Y14.0
X-1.1Y23.8
X-0.3Y16.1
X-0.26Y-12.34
X0.629Y11.093
X1.2Y-10.7
X1.772Y23.158
X2.1Y-22.9
X2.5Y-23.9
X2.534Y13.633
X2.7Y-15.831
X2.788Y9.315
X2.788Y-12.402
X3.55Y12.2
X3.684Y-20.1
X3.8Y20.9
X4.5Y23.3
X5.328Y-23.197
X5.582Y7.156
X6.2Y9.7
X6.217Y-16.466
X6.471Y-19.514
X6.9Y17.7
X7.05Y-22.85
X7.134Y-18.766
X7.7Y4.5
X7.741Y20.872
X8.1Y-12.45
X8.249Y-3.131
X8.884Y-0.21
X9.011Y-17.228
X9.196Y8.357
X9.265Y-19.133
X9.6Y15.2
X10.298Y-14.804
X10.662Y12.49
X10.789Y18.459
X10.789Y1.06
X10.789Y-2.242
X10.789Y-4.655
X10.806Y-13.28
X11.292Y6.262
X11.3Y20.9
X12.051Y-19.951
X12.584Y-14.296
X13.1Y3.0
X13.202Y16.046
X13.3Y11.5
X13.329Y-16.339
X13.346Y-12.518
X13.5Y-19.8
X13.519Y-18.18
X13.55Y-4.75
X14.0Y1.35
X14.091Y-1.099
X14.9Y13.7
X14.98Y9.188
X15.1Y-4.7
X15.305Y-6.455
X15.4Y5.2
X16.705Y-4.855
X17.266Y12.236
X17.52Y6.5
X17.52Y-6.941
X17.647Y15.919
X17.647Y-15.577
X17.85Y-18.55
X18.5Y-2.0
X18.917Y-9.227
X19.25Y0.1
X19.552Y-5.036
X19.75Y-10.65
X20.314Y6.648
X20.75Y-0.35
X21.6Y1.6
X21.7Y-18.4
X21.711Y-2.75
X21.9Y5.95
X22.035Y-1.665
X22.25Y-3.75
X22.276Y9.986
X22.301Y16.108
X22.35Y-15.9
X22.473Y17.443
X22.8Y-12.7
X23.616Y-0.337
X23.65Y-18.05
X23.87Y-5.29
X23.9Y4.3
X23.921Y28.238
X24.01Y-28.13
X24.251Y14.903
X24.3Y-3.9
X24.4Y18.85
X24.886Y0.933
X25.013Y8.045
X25.648Y-6.687
X25.85Y-8.7
X26.283Y2.203
X26.41Y14.776
X26.65Y-17.7
X26.664Y17.443
X26.78Y-14.82
X27.25Y-20.95
X27.4Y3.4
X27.68Y16.554
X27.75Y5.2
X28.315Y-16.974
X28.8Y-7.0
X29.204Y-10.243
X29.45Y6.9
X29.45Y4.8
X29.585Y11.22
X29.585Y3.219
X30.347Y9.061
X30.85Y-7.3
X30.855Y11.982
X31.236Y15.538
X31.35Y-1.15
X31.363Y-14.815
X31.896Y18.738
X32.252Y12.617
X33.25Y-10.5
X34.1Y-8.1
X34.65Y-4.55
X34.75Y3.95
X35.0Y-0.4
T0
M30
