%TF.GenerationSoftware,KiCad,Pcbnew,7.0.5.1-1-g8f565ef7f0-dirty-deb11*%
%TF.CreationDate,2023-06-28T22:36:54+00:00*%
%TF.ProjectId,USTTHUNDERMILLPCB01,55535454-4855-44e4-9445-524d494c4c50,rev?*%
%TF.SameCoordinates,Original*%
%TF.FileFunction,Copper,L4,Bot*%
%TF.FilePolarity,Positive*%
%FSLAX46Y46*%
G04 Gerber Fmt 4.6, Leading zero omitted, Abs format (unit mm)*
G04 Created by KiCad (PCBNEW 7.0.5.1-1-g8f565ef7f0-dirty-deb11) date 2023-06-28 22:36:54*
%MOMM*%
%LPD*%
G01*
G04 APERTURE LIST*
G04 Aperture macros list*
%AMRotRect*
0 Rectangle, with rotation*
0 The origin of the aperture is its center*
0 $1 length*
0 $2 width*
0 $3 Rotation angle, in degrees counterclockwise*
0 Add horizontal line*
21,1,$1,$2,0,0,$3*%
G04 Aperture macros list end*
%TA.AperFunction,SMDPad,CuDef*%
%ADD10RotRect,0.970000X0.950000X160.000000*%
%TD*%
%TA.AperFunction,SMDPad,CuDef*%
%ADD11RotRect,0.970000X1.150000X160.000000*%
%TD*%
%TA.AperFunction,SMDPad,CuDef*%
%ADD12RotRect,0.850000X0.950000X160.000000*%
%TD*%
%TA.AperFunction,SMDPad,CuDef*%
%ADD13RotRect,0.850000X1.150000X160.000000*%
%TD*%
%TA.AperFunction,SMDPad,CuDef*%
%ADD14RotRect,0.970000X0.950000X70.000000*%
%TD*%
%TA.AperFunction,SMDPad,CuDef*%
%ADD15RotRect,0.970000X1.150000X70.000000*%
%TD*%
%TA.AperFunction,SMDPad,CuDef*%
%ADD16RotRect,0.850000X0.950000X70.000000*%
%TD*%
%TA.AperFunction,SMDPad,CuDef*%
%ADD17RotRect,0.850000X1.150000X70.000000*%
%TD*%
%TA.AperFunction,SMDPad,CuDef*%
%ADD18RotRect,0.970000X0.950000X210.000000*%
%TD*%
%TA.AperFunction,SMDPad,CuDef*%
%ADD19RotRect,0.970000X1.150000X210.000000*%
%TD*%
%TA.AperFunction,SMDPad,CuDef*%
%ADD20RotRect,0.850000X0.950000X210.000000*%
%TD*%
%TA.AperFunction,SMDPad,CuDef*%
%ADD21RotRect,0.850000X1.150000X210.000000*%
%TD*%
%TA.AperFunction,SMDPad,CuDef*%
%ADD22R,1.524000X1.524000*%
%TD*%
%TA.AperFunction,ViaPad*%
%ADD23C,0.800000*%
%TD*%
%TA.AperFunction,Conductor*%
%ADD24C,0.500000*%
%TD*%
%TA.AperFunction,Conductor*%
%ADD25C,0.200000*%
%TD*%
%TA.AperFunction,Conductor*%
%ADD26C,0.250000*%
%TD*%
%TA.AperFunction,Conductor*%
%ADD27C,0.300000*%
%TD*%
G04 APERTURE END LIST*
D10*
%TO.P,U6,1*%
%TO.N,GND*%
X-14903278Y6204862D03*
D11*
%TO.P,U6,2*%
%TO.N,Net-(R11-Pad2)*%
X-15365005Y4936277D03*
D12*
%TO.P,U6,3*%
%TO.N,Net-(R9-Pad2)*%
X-16030909Y6615286D03*
D13*
%TO.P,U6,4*%
%TO.N,GND*%
X-16492636Y5346701D03*
%TD*%
D14*
%TO.P,U13,1*%
%TO.N,GND*%
X6204862Y14903278D03*
D15*
%TO.P,U13,2*%
%TO.N,Net-(R28-Pad2)*%
X4936277Y15365005D03*
D16*
%TO.P,U13,3*%
%TO.N,Net-(R27-Pad2)*%
X6615286Y16030909D03*
D17*
%TO.P,U13,4*%
%TO.N,GND*%
X5346701Y16492636D03*
%TD*%
D18*
%TO.P,U5,1*%
%TO.N,GND*%
X-18655617Y-9930332D03*
D19*
%TO.P,U5,2*%
%TO.N,Net-(R10-Pad2)*%
X-17980617Y-11099466D03*
D20*
%TO.P,U5,3*%
%TO.N,Net-(R8-Pad2)*%
X-19694847Y-10530332D03*
D21*
%TO.P,U5,4*%
%TO.N,GND*%
X-19019847Y-11699466D03*
%TD*%
D22*
%TO.P,J4,1*%
%TO.N,/CPU/PB6*%
X9282400Y-12555800D03*
%TO.P,J4,2*%
%TO.N,+3V3*%
X9282400Y-15095800D03*
%TO.P,J4,3*%
%TO.N,/CPU/PB7*%
X11822400Y-12555800D03*
%TO.P,J4,4*%
%TO.N,/CPU/PB5*%
X11822400Y-15095800D03*
%TO.P,J4,5*%
%TO.N,/CPU/RST#_P*%
X14362400Y-12555800D03*
%TO.P,J4,6*%
%TO.N,GND*%
X14362400Y-15095800D03*
%TD*%
D23*
%TO.N,GNDA*%
X18650000Y-6400000D03*
X30900000Y-4800000D03*
X34400000Y-6650000D03*
X26150000Y-7600000D03*
X34450000Y6300000D03*
X34700000Y2650000D03*
X20800000Y-15500000D03*
X22300000Y-14450000D03*
X22550000Y-17700000D03*
X22300000Y-11500000D03*
X14000000Y-4900000D03*
X29400000Y5000000D03*
X25300000Y-1150000D03*
X16100000Y-7100000D03*
X26400000Y3500000D03*
%TO.N,+5V*%
X-6300000Y19800000D03*
X-30359000Y-8600000D03*
X-29150000Y17050000D03*
%TO.N,+3V3*%
X8750000Y-16450000D03*
X-15375500Y-2897131D03*
X-14700000Y-5800000D03*
X11200000Y-4400000D03*
X217500Y-12667500D03*
%TO.N,/CPU/RST#_P*%
X13282596Y-13717404D03*
%TO.N,/CPU/PB6*%
X6400000Y-12450500D03*
%TO.N,/CPU/PB7*%
X10700000Y-13000000D03*
%TO.N,/CPU/PB5*%
X12750000Y-15400000D03*
%TO.N,/CPU/TIMEPULSE*%
X-7556958Y-8610980D03*
X7850000Y-18800000D03*
%TO.N,Net-(R8-Pad2)*%
X-18607259Y-6221663D03*
%TO.N,Net-(R9-Pad2)*%
X-15375500Y11600000D03*
%TO.N,/CPU/PC1*%
X-10550000Y-21200000D03*
X-28750000Y-550000D03*
X13500000Y-19800000D03*
X-27200000Y5800000D03*
X-3601511Y-22198489D03*
%TO.N,/CPU/PC0*%
X12050800Y-19950800D03*
X-26628972Y-3678972D03*
X-5200000Y-20824500D03*
X-28962000Y-1988000D03*
X-28000000Y9500000D03*
X-12325000Y-19133000D03*
%TO.N,/CPU/RX0*%
X-23900000Y-17100000D03*
X2200000Y-23600000D03*
%TO.N,/CPU/TX0*%
X-24050000Y-18950000D03*
X3500000Y-23500000D03*
%TO.N,/CPU/TX1*%
X-23800000Y14500000D03*
X6764007Y-18861395D03*
%TO.N,/CPU/RX1*%
X-25700000Y13800000D03*
X3684019Y-20100000D03*
%TO.N,/CPU/BTN*%
X13460450Y-18175500D03*
X27400000Y-13300000D03*
%TO.N,/CPU/GEO_STAT*%
X-27137754Y-1013156D03*
X-26295000Y552000D03*
%TO.N,STATOR*%
X23920800Y28238000D03*
X24010000Y-28130000D03*
X36550000Y0D03*
%TO.N,PA1*%
X22550000Y1900000D03*
X22150000Y-950000D03*
%TO.N,COUNT_2*%
X-7750000Y-6450000D03*
X11750000Y-18450000D03*
%TO.N,Net-(JP1-B)*%
X-28500000Y-16450000D03*
X-17224500Y-16624500D03*
%TO.N,Net-(R27-Pad2)*%
X7600000Y15600000D03*
%TO.N,Net-(R10-Pad2)*%
X-18324500Y-4700000D03*
%TO.N,Net-(R11-Pad2)*%
X-14700000Y4900000D03*
%TO.N,Net-(R28-Pad2)*%
X8600000Y12550000D03*
%TO.N,COUNT_3*%
X9650000Y-5350000D03*
X13900000Y-16800000D03*
X8350000Y10750000D03*
X9250000Y2850000D03*
%TO.N,+3.3VA*%
X30250000Y2500000D03*
X19400000Y-3950000D03*
X29800000Y-2350000D03*
X18050000Y-800000D03*
X19400000Y-16100000D03*
X23100000Y-7700000D03*
%TO.N,GND*%
X-200000Y-10550000D03*
X13750000Y-2150000D03*
X-27650000Y-7600000D03*
X-21088000Y-3258000D03*
X-2250000Y23500000D03*
X-9800000Y21850000D03*
X-2350000Y-10700000D03*
X14950000Y18550000D03*
X-34550000Y-17350000D03*
X8550000Y-2800000D03*
X-38900000Y800000D03*
X-4400000Y-22900000D03*
X-29100000Y-25350000D03*
X6550000Y-15800000D03*
X1750000Y16050000D03*
X750000Y24000000D03*
X-11700000Y3000000D03*
X7800000Y22350000D03*
X38900000Y0D03*
X-9600000Y-1400000D03*
X-8500000Y1700000D03*
X-13950000Y-7450000D03*
X-8500000Y-1400000D03*
X-37300000Y-4700000D03*
X-35600000Y12750000D03*
X-37300000Y-7250000D03*
X-11700000Y-2650000D03*
X-13550000Y20000000D03*
X-13100000Y3000000D03*
X-3550000Y14650000D03*
X9250000Y-18900000D03*
X11800000Y6400000D03*
X23600000Y-19300000D03*
X-4550000Y-7800000D03*
X11300000Y20900000D03*
X-37350000Y5200000D03*
X4500000Y23100000D03*
X26600000Y-22100000D03*
X10950000Y4500000D03*
X8884000Y-210000D03*
X-10650000Y-1400000D03*
X29350000Y25450000D03*
X-14300000Y0D03*
X29800000Y-9650000D03*
X-12500000Y-13250000D03*
X-31350000Y21700000D03*
X-36500000Y-11400000D03*
X-29100000Y24700000D03*
X36350000Y-14400000D03*
X25350000Y20450000D03*
X-32700000Y19250000D03*
X-13100000Y-2650000D03*
X-37350000Y7800000D03*
X-14300000Y1350000D03*
X-36800000Y10250000D03*
X-14300000Y-1300000D03*
X-35200000Y-13700000D03*
X-7050000Y22900000D03*
X-6200000Y-22900000D03*
X-10650000Y1700000D03*
X11950000Y-3300000D03*
X-23650000Y19100000D03*
X8200000Y7500000D03*
X7700000Y4500000D03*
X3900000Y8150000D03*
X-31850000Y-20250000D03*
X29250000Y-25000000D03*
X-9650000Y1700000D03*
X11950000Y-1250000D03*
X36100000Y14950000D03*
X-26150000Y21950000D03*
X-30700000Y-22500000D03*
%TD*%
D24*
%TO.N,+5V*%
X-29150000Y17050000D02*
X-27700000Y15600000D01*
X-6500000Y19697918D02*
X-6402082Y19697918D01*
X-27700000Y15600000D02*
X-10597918Y15600000D01*
X-6402082Y19697918D02*
X-6300000Y19800000D01*
X-10597918Y15600000D02*
X-6500000Y19697918D01*
%TO.N,+3V3*%
X8750000Y-16450000D02*
X8750000Y-15628200D01*
D25*
X9573800Y-14804400D02*
X9282400Y-15095800D01*
D24*
X8750000Y-15628200D02*
X9573800Y-14804400D01*
%TO.N,/CPU/RST#_P*%
X13282596Y-13717404D02*
X13818200Y-13181800D01*
%TO.N,/CPU/PB6*%
X6400500Y-12450000D02*
X9176600Y-12450000D01*
D26*
X9176600Y-12450000D02*
X9282400Y-12555800D01*
D24*
X6400000Y-12450500D02*
X6400500Y-12450000D01*
%TO.N,/CPU/PB7*%
X10700000Y-13000000D02*
X11378200Y-13000000D01*
D26*
X11378200Y-13000000D02*
X11822400Y-12555800D01*
%TO.N,Net-(R8-Pad2)*%
X-19694847Y-7194847D02*
X-19694847Y-10530332D01*
X-18607259Y-6221663D02*
X-18721663Y-6221663D01*
X-18721663Y-6221663D02*
X-19694847Y-7194847D01*
%TO.N,Net-(R9-Pad2)*%
X-16030909Y10944591D02*
X-15375500Y11600000D01*
X-16030909Y7569091D02*
X-16030909Y6615286D01*
X-16030909Y7569091D02*
X-16030909Y10944591D01*
D27*
%TO.N,PA1*%
X22150000Y-950000D02*
X22550000Y-550000D01*
X22550000Y-550000D02*
X22550000Y1900000D01*
D26*
%TO.N,Net-(R27-Pad2)*%
X7600000Y15600000D02*
X6615286Y16030909D01*
D25*
%TO.N,Net-(R10-Pad2)*%
X-17300000Y-5724500D02*
X-17300000Y-10700000D01*
X-17300000Y-10700000D02*
X-17699466Y-11099466D01*
X-17699466Y-11099466D02*
X-17980617Y-11099466D01*
X-18324500Y-4700000D02*
X-17300000Y-5724500D01*
D26*
%TO.N,Net-(R11-Pad2)*%
X-14736277Y4936277D02*
X-15365005Y4936277D01*
X-14700000Y4900000D02*
X-14736277Y4936277D01*
%TO.N,Net-(R28-Pad2)*%
X8600000Y12550000D02*
X5550000Y13700000D01*
X5550000Y13700000D02*
X4936277Y15365005D01*
%TO.N,GND*%
X-18700000Y-12300000D02*
X-19099619Y-11900381D01*
%TD*%
%TA.AperFunction,Conductor*%
%TO.N,GND*%
G36*
X1962942Y39948113D02*
G01*
X2092099Y39944731D01*
X2094676Y39944597D01*
X3760226Y39813521D01*
X4179784Y39780502D01*
X4182363Y39780231D01*
X4537171Y39733510D01*
X6256062Y39507165D01*
X6258553Y39506770D01*
X8315106Y39125641D01*
X8317620Y39125107D01*
X10351412Y38636817D01*
X10353896Y38636152D01*
X12359352Y38042175D01*
X12361743Y38041398D01*
X14333317Y37343158D01*
X14335674Y37342254D01*
X16268136Y36541822D01*
X16270443Y36540794D01*
X17406035Y35999163D01*
X18158209Y35640406D01*
X18160489Y35639245D01*
X19998612Y34641184D01*
X20000831Y34639903D01*
X21784242Y33547046D01*
X21786374Y33545661D01*
X22504362Y33052206D01*
X23510041Y32361027D01*
X23512129Y32359510D01*
X23952251Y32021776D01*
X25171463Y31086195D01*
X25173470Y31084570D01*
X26763897Y29726253D01*
X26765787Y29724550D01*
X27791675Y28751070D01*
X28283014Y28284831D01*
X28284847Y28282998D01*
X29623794Y26871969D01*
X29724541Y26765799D01*
X29726252Y26763900D01*
X31000488Y25271922D01*
X31084562Y25173481D01*
X31086192Y25171468D01*
X32359510Y23512132D01*
X32361034Y23510033D01*
X33094355Y22443034D01*
X33545639Y21786404D01*
X33545644Y21786398D01*
X33547047Y21784238D01*
X33967096Y21098768D01*
X34639887Y20000854D01*
X34641182Y19998611D01*
X35639238Y18160515D01*
X35640415Y18158204D01*
X36540791Y16270455D01*
X36541830Y16268121D01*
X37342232Y14335730D01*
X37343160Y14333312D01*
X38041387Y12361769D01*
X38042186Y12359308D01*
X38177385Y11902839D01*
X38636152Y10353902D01*
X38636822Y10351400D01*
X39125105Y8317637D01*
X39125644Y8315101D01*
X39415532Y6750883D01*
X39498095Y6305374D01*
X39506765Y6258594D01*
X39507170Y6256040D01*
X39513330Y6209261D01*
X39780232Y4182366D01*
X39780503Y4179787D01*
X39944604Y2094690D01*
X39944739Y2092101D01*
X39999466Y1297D01*
X39999466Y-1294D01*
X39944724Y-2092109D01*
X39944589Y-2094697D01*
X39780503Y-4179792D01*
X39780232Y-4182371D01*
X39507166Y-6256018D01*
X39506760Y-6258576D01*
X39125640Y-8315119D01*
X39125101Y-8317655D01*
X38636813Y-10351410D01*
X38636143Y-10353912D01*
X38460440Y-10947146D01*
X38059020Y-12302481D01*
X38042191Y-12359301D01*
X38041389Y-12361769D01*
X37343158Y-14333326D01*
X37342235Y-14335730D01*
X37103231Y-14912748D01*
X36541837Y-16268091D01*
X36540783Y-16270459D01*
X35640403Y-18158216D01*
X35639226Y-18160527D01*
X34641182Y-19998617D01*
X34639887Y-20000860D01*
X33547056Y-21784227D01*
X33545644Y-21786401D01*
X32361034Y-23510035D01*
X32359510Y-23512134D01*
X31086192Y-25171470D01*
X31084562Y-25173483D01*
X30138096Y-26281682D01*
X29726291Y-26763859D01*
X29726266Y-26763888D01*
X29724532Y-26765813D01*
X28284840Y-28283013D01*
X28283005Y-28284848D01*
X26765784Y-29724559D01*
X26763866Y-29726286D01*
X26607973Y-29859428D01*
X25173475Y-31084569D01*
X25171463Y-31086199D01*
X23512130Y-32359508D01*
X23510033Y-32361032D01*
X21786385Y-33545657D01*
X21784211Y-33547069D01*
X20000836Y-34639905D01*
X19998593Y-34641200D01*
X18160512Y-35639238D01*
X18158201Y-35640415D01*
X16270476Y-36540788D01*
X16268108Y-36541843D01*
X14335689Y-37342247D01*
X14333271Y-37343175D01*
X12789183Y-37890022D01*
X12361760Y-38041396D01*
X12359303Y-38042194D01*
X10353899Y-38636159D01*
X10351397Y-38636829D01*
X8317626Y-39125106D01*
X8315090Y-39125645D01*
X6258584Y-39506773D01*
X6256025Y-39507179D01*
X4182363Y-39780232D01*
X4179784Y-39780503D01*
X2094687Y-39944604D01*
X2092098Y-39944739D01*
X1295Y-39999466D01*
X-1296Y-39999466D01*
X-2092108Y-39944724D01*
X-2094696Y-39944589D01*
X-4179791Y-39780503D01*
X-4182370Y-39780232D01*
X-6256021Y-39507166D01*
X-6258578Y-39506760D01*
X-8315122Y-39125640D01*
X-8317658Y-39125101D01*
X-10351413Y-38636813D01*
X-10353915Y-38636143D01*
X-10448743Y-38608057D01*
X-12359335Y-38042181D01*
X-12361778Y-38041387D01*
X-14333318Y-37343160D01*
X-14335710Y-37342242D01*
X-16268095Y-36541836D01*
X-16270461Y-36540783D01*
X-18158219Y-35640403D01*
X-18160520Y-35639231D01*
X-19998615Y-34641183D01*
X-20000852Y-34639892D01*
X-21003411Y-34025534D01*
X-21784244Y-33547047D01*
X-21786394Y-33545650D01*
X-22260861Y-33219562D01*
X-23510038Y-32361034D01*
X-23512137Y-32359510D01*
X-23512140Y-32359508D01*
X-23960421Y-32015512D01*
X-25171473Y-31086192D01*
X-25173486Y-31084562D01*
X-26763917Y-29726242D01*
X-26765805Y-29724541D01*
X-26813032Y-29679727D01*
X-28283004Y-28284847D01*
X-28284837Y-28283014D01*
X-28363734Y-28199870D01*
X-29724564Y-26765780D01*
X-29726269Y-26763887D01*
X-30115330Y-26308342D01*
X-27520154Y-26308342D01*
X-27518088Y-26347786D01*
X-27518085Y-26347827D01*
X-27511786Y-26407767D01*
X-27511786Y-26407768D01*
X-27507152Y-26437033D01*
X-27505596Y-26446855D01*
X-27437799Y-26765813D01*
X-27415237Y-26871960D01*
X-27415233Y-26871977D01*
X-27405005Y-26910148D01*
X-27404998Y-26910170D01*
X-27404995Y-26910181D01*
X-27386366Y-26967510D01*
X-27372182Y-27004457D01*
X-27365715Y-27018979D01*
X-27195413Y-27401428D01*
X-27195401Y-27401454D01*
X-27188590Y-27414819D01*
X-27177443Y-27436693D01*
X-27147311Y-27488877D01*
X-27147302Y-27488892D01*
X-27125750Y-27522072D01*
X-26871471Y-27871995D01*
X-26871436Y-27872042D01*
X-26859426Y-27887689D01*
X-26859415Y-27887703D01*
X-26854195Y-27894147D01*
X-26843709Y-27907093D01*
X-26830865Y-27922127D01*
X-26830092Y-27922985D01*
X-26758726Y-28002231D01*
X-26758666Y-28002295D01*
X-26747284Y-28014455D01*
X-26578135Y-28188077D01*
X-26578121Y-28188091D01*
X-26578114Y-28188098D01*
X-26566216Y-28199848D01*
X-26566198Y-28199865D01*
X-26566193Y-28199870D01*
X-26476858Y-28284652D01*
X-26394905Y-28362428D01*
X-26394905Y-28362429D01*
X-26095155Y-28646929D01*
X-26095155Y-28646928D01*
X-25993289Y-28743624D01*
X-25985072Y-28751219D01*
X-25923422Y-28806743D01*
X-25877663Y-28847955D01*
X-25869231Y-28855352D01*
X-25829296Y-28889463D01*
X-25775033Y-28935815D01*
X-25775032Y-28935815D01*
X-25489701Y-29179523D01*
X-25489700Y-29179523D01*
X-25435481Y-29225829D01*
X-25435466Y-29225843D01*
X-25213541Y-29415349D01*
X-25169429Y-29453012D01*
X-25038374Y-29564950D01*
X-25036968Y-29566151D01*
X-25036968Y-29566152D01*
X-24992660Y-29604015D01*
X-24950818Y-29639745D01*
X-24949174Y-29641148D01*
X-24908517Y-29675855D01*
X-24849513Y-29726242D01*
X-24701909Y-29852290D01*
X-24693320Y-29859428D01*
X-24235432Y-30230197D01*
X-24226703Y-30237076D01*
X-23120348Y-31086023D01*
X-22777999Y-31341714D01*
X-22768966Y-31348278D01*
X-22420055Y-31594901D01*
X-22116402Y-31803586D01*
X-21807791Y-32015678D01*
X-21798582Y-32021823D01*
X-21798563Y-32021835D01*
X-21798547Y-32021846D01*
X-20211916Y-33052199D01*
X-20207989Y-33054677D01*
X-20203623Y-33057433D01*
X-20203599Y-33057448D01*
X-20203589Y-33057454D01*
X-20192950Y-33063974D01*
X-20192921Y-33063991D01*
X-20184418Y-33069051D01*
X-18546429Y-34014763D01*
X-18537912Y-34019531D01*
X-18537839Y-34019572D01*
X-18526868Y-34025530D01*
X-18520291Y-34028991D01*
X-18518114Y-34030137D01*
X-18518098Y-34030145D01*
X-16832148Y-34889168D01*
X-16822131Y-34894103D01*
X-16822064Y-34894136D01*
X-16151977Y-35213740D01*
X-16151943Y-35213756D01*
X-15764023Y-35392568D01*
X-15753811Y-35397118D01*
X-15361175Y-35565793D01*
X-15010376Y-35711104D01*
X-14674925Y-35850059D01*
X-14664565Y-35854187D01*
X-14664516Y-35854205D01*
X-14664513Y-35854207D01*
X-12898233Y-36532199D01*
X-12888897Y-36535642D01*
X-12877130Y-36539807D01*
X-12867822Y-36542966D01*
X-11069058Y-37127397D01*
X-11059606Y-37130332D01*
X-11047642Y-37133875D01*
X-11047599Y-37133887D01*
X-11038138Y-37136556D01*
X-10265234Y-37343663D01*
X-9210539Y-37626279D01*
X-9202961Y-37628202D01*
X-9199681Y-37629035D01*
X-8477751Y-37802363D01*
X-8061029Y-37896694D01*
X-8050135Y-37899012D01*
X-8050105Y-37899018D01*
X-8050086Y-37899022D01*
X-7630847Y-37982441D01*
X-6900414Y-38117792D01*
X-6889409Y-38119674D01*
X-5379533Y-38358782D01*
X-5020996Y-38415561D01*
X-5020951Y-38415568D01*
X-5011141Y-38416990D01*
X-4998771Y-38418618D01*
X-4990608Y-38419583D01*
X-4989035Y-38419770D01*
X-4989024Y-38419771D01*
X-4988983Y-38419776D01*
X-3107929Y-38617490D01*
X-3098018Y-38618400D01*
X-3094110Y-38618706D01*
X-3085617Y-38619374D01*
X-3085159Y-38619403D01*
X-3075778Y-38620018D01*
X-3075733Y-38620020D01*
X-3075723Y-38620021D01*
X-1252672Y-38715560D01*
X-1186396Y-38719034D01*
X-1176761Y-38719414D01*
X-1175241Y-38719474D01*
X-1152356Y-38720072D01*
X-432910Y-38738898D01*
X-5591Y-38744488D01*
X-5556Y-38744488D01*
X5554Y-38744488D01*
X5589Y-38744488D01*
X432908Y-38738898D01*
X1175500Y-38719467D01*
X1186659Y-38719019D01*
X1186659Y-38719018D01*
X3075725Y-38620022D01*
X3079025Y-38619805D01*
X3085556Y-38619378D01*
X3098002Y-38618400D01*
X3107916Y-38617490D01*
X4988996Y-38419774D01*
X4998784Y-38418616D01*
X5011154Y-38416988D01*
X5020964Y-38415566D01*
X6889614Y-38119642D01*
X6900632Y-38117751D01*
X7630899Y-37982431D01*
X8049729Y-37899092D01*
X8057369Y-37897472D01*
X8060682Y-37896771D01*
X8477743Y-37802363D01*
X9102237Y-37652428D01*
X9199761Y-37629014D01*
X9210603Y-37626261D01*
X11038199Y-37136538D01*
X11047831Y-37133820D01*
X11059783Y-37130275D01*
X11069045Y-37127397D01*
X11069097Y-37127381D01*
X11229201Y-37075362D01*
X12867808Y-36542968D01*
X12877117Y-36539809D01*
X12888884Y-36535644D01*
X12898220Y-36532201D01*
X14664508Y-35854207D01*
X14674909Y-35850063D01*
X15361172Y-35565792D01*
X15753794Y-35397123D01*
X15764005Y-35392574D01*
X16151840Y-35213801D01*
X16822107Y-34894112D01*
X16832144Y-34889167D01*
X18518107Y-34030137D01*
X18526877Y-34025522D01*
X18537848Y-34019564D01*
X18542532Y-34016941D01*
X18546437Y-34014755D01*
X19356122Y-33547274D01*
X20184415Y-33069050D01*
X20192945Y-33063974D01*
X20203584Y-33057454D01*
X20211911Y-33052199D01*
X21798742Y-32021714D01*
X21808023Y-32015512D01*
X22420048Y-31594900D01*
X22768914Y-31348308D01*
X22777971Y-31341729D01*
X23120335Y-31086023D01*
X24226749Y-30237031D01*
X24235520Y-30230116D01*
X24693310Y-29859429D01*
X24701900Y-29852289D01*
X24903855Y-29679828D01*
X24949172Y-29641144D01*
X24991923Y-29604640D01*
X25036808Y-29566283D01*
X25036827Y-29566275D01*
X25036823Y-29566271D01*
X25038370Y-29564950D01*
X25169547Y-29452906D01*
X25169546Y-29452905D01*
X25171966Y-29450839D01*
X25213530Y-29415354D01*
X25428132Y-29232102D01*
X25541824Y-29134996D01*
X25775022Y-28935822D01*
X25869259Y-28855329D01*
X25877701Y-28847923D01*
X25985234Y-28751070D01*
X25993392Y-28743524D01*
X26091901Y-28650011D01*
X26091900Y-28650010D01*
X26095161Y-28646915D01*
X26394899Y-28362433D01*
X26394898Y-28362432D01*
X26413244Y-28345020D01*
X26566123Y-28199933D01*
X26578041Y-28188170D01*
X26747208Y-28014527D01*
X26758663Y-28002295D01*
X26830116Y-27922951D01*
X26840988Y-27910329D01*
X26854350Y-27894107D01*
X26864647Y-27881029D01*
X27125481Y-27534304D01*
X27147579Y-27501486D01*
X27178580Y-27449796D01*
X27197134Y-27414831D01*
X27381317Y-27018974D01*
X27398097Y-26976323D01*
X27419666Y-26909947D01*
X27431163Y-26865577D01*
X27514862Y-26437045D01*
X27520405Y-26397859D01*
X27525710Y-26337828D01*
X27527126Y-26298293D01*
X27519901Y-25861947D01*
X27517542Y-25825583D01*
X27511283Y-25770431D01*
X27505433Y-25734465D01*
X27505428Y-25734445D01*
X27505423Y-25734414D01*
X27415245Y-25310180D01*
X27415232Y-25310124D01*
X27405001Y-25271946D01*
X27404999Y-25271937D01*
X27386373Y-25214610D01*
X27372185Y-25177652D01*
X27195410Y-24780667D01*
X27177444Y-24745411D01*
X27147315Y-24693235D01*
X27125786Y-24660086D01*
X27125786Y-24660085D01*
X27125782Y-24660080D01*
X27125776Y-24660070D01*
X26870999Y-24309405D01*
X26857411Y-24291815D01*
X26839566Y-24270068D01*
X26839523Y-24270019D01*
X26824876Y-24253210D01*
X26824851Y-24253182D01*
X26531900Y-23936427D01*
X26524156Y-23928276D01*
X26101768Y-23483684D01*
X25576527Y-22930775D01*
X25543732Y-22896248D01*
X25543728Y-22896244D01*
X25542777Y-22895243D01*
X24952732Y-22274130D01*
X24952729Y-22274126D01*
X24920648Y-22240362D01*
X24731936Y-22041722D01*
X24265609Y-21550860D01*
X23517322Y-20763166D01*
X22709689Y-19913036D01*
X22709689Y-19913035D01*
X22709688Y-19913035D01*
X21844872Y-19002701D01*
X21844872Y-19002700D01*
X21598365Y-18743228D01*
X21097732Y-18216241D01*
X21028527Y-18143393D01*
X21028518Y-18143383D01*
X21028500Y-18143365D01*
X21016324Y-18131121D01*
X21013362Y-18128276D01*
X21000651Y-18116065D01*
X21000648Y-18116062D01*
X21000626Y-18116041D01*
X20987918Y-18104379D01*
X20984239Y-18101154D01*
X20663476Y-17820012D01*
X20663473Y-17820009D01*
X20648522Y-17808148D01*
X20634446Y-17796981D01*
X20588587Y-17764128D01*
X20557458Y-17744060D01*
X20481146Y-17700000D01*
X21944318Y-17700000D01*
X21964955Y-17856758D01*
X21964957Y-17856766D01*
X22025462Y-18002838D01*
X22025462Y-18002839D01*
X22112359Y-18116085D01*
X22121718Y-18128282D01*
X22247159Y-18224536D01*
X22247160Y-18224536D01*
X22247161Y-18224537D01*
X22393233Y-18285042D01*
X22393238Y-18285044D01*
X22510809Y-18300522D01*
X22549999Y-18305682D01*
X22550000Y-18305682D01*
X22550001Y-18305682D01*
X22581352Y-18301554D01*
X22706762Y-18285044D01*
X22852841Y-18224536D01*
X22978282Y-18128282D01*
X23074536Y-18002841D01*
X23135044Y-17856762D01*
X23155682Y-17700000D01*
X23135044Y-17543238D01*
X23104885Y-17470428D01*
X23074537Y-17397161D01*
X23074537Y-17397160D01*
X22978286Y-17271723D01*
X22978285Y-17271722D01*
X22978282Y-17271718D01*
X22978277Y-17271714D01*
X22978276Y-17271713D01*
X22852838Y-17175462D01*
X22706766Y-17114957D01*
X22706758Y-17114955D01*
X22550001Y-17094318D01*
X22549999Y-17094318D01*
X22393241Y-17114955D01*
X22393233Y-17114957D01*
X22247161Y-17175462D01*
X22247160Y-17175462D01*
X22121723Y-17271713D01*
X22121713Y-17271723D01*
X22025462Y-17397160D01*
X22025462Y-17397161D01*
X21964957Y-17543233D01*
X21964955Y-17543241D01*
X21944318Y-17699999D01*
X21944318Y-17700000D01*
X20481146Y-17700000D01*
X20291413Y-17590455D01*
X20181642Y-17527077D01*
X20181636Y-17527074D01*
X20146400Y-17509121D01*
X20146373Y-17509108D01*
X20091350Y-17484612D01*
X20091328Y-17484603D01*
X20054380Y-17470420D01*
X19641026Y-17336121D01*
X19641015Y-17336117D01*
X19602836Y-17325889D01*
X19602813Y-17325883D01*
X19602806Y-17325881D01*
X19602782Y-17325876D01*
X19578636Y-17320744D01*
X19543858Y-17313352D01*
X19543855Y-17313351D01*
X19543848Y-17313350D01*
X19504745Y-17307158D01*
X19072558Y-17261754D01*
X19072546Y-17261753D01*
X19056002Y-17260886D01*
X19033060Y-17259685D01*
X18972836Y-17259685D01*
X18950807Y-17260838D01*
X18933348Y-17261753D01*
X18933336Y-17261754D01*
X18501124Y-17307162D01*
X18462025Y-17313353D01*
X18403074Y-17325883D01*
X18364842Y-17336127D01*
X18364841Y-17336127D01*
X18364840Y-17336128D01*
X18214314Y-17385042D01*
X17951517Y-17470438D01*
X17914609Y-17484608D01*
X17859572Y-17509113D01*
X17859550Y-17509123D01*
X17824339Y-17527065D01*
X17824309Y-17527082D01*
X17449531Y-17743455D01*
X17449507Y-17743470D01*
X17422409Y-17760690D01*
X17422387Y-17760704D01*
X17382258Y-17788667D01*
X17382253Y-17788670D01*
X17356692Y-17808149D01*
X17026514Y-18082708D01*
X17017170Y-18090738D01*
X17005514Y-18101092D01*
X16996357Y-18109500D01*
X16884802Y-18215362D01*
X16883851Y-18216241D01*
X16351543Y-18695539D01*
X16350573Y-18696390D01*
X16022919Y-18976241D01*
X16018253Y-18980226D01*
X16017288Y-18981028D01*
X15193727Y-19647961D01*
X15081688Y-19738692D01*
X15079631Y-19740270D01*
X14082473Y-20464767D01*
X14068205Y-20473397D01*
X14056975Y-20478956D01*
X14056965Y-20478962D01*
X13102491Y-21098778D01*
X13101394Y-21099469D01*
X13030230Y-21143075D01*
X13029117Y-21143738D01*
X11796523Y-21855345D01*
X11795393Y-21855978D01*
X11721859Y-21895903D01*
X11720714Y-21896506D01*
X10648179Y-22443032D01*
X10645838Y-22444148D01*
X9555790Y-22929485D01*
X9553394Y-22930478D01*
X8429613Y-23361822D01*
X8428399Y-23362271D01*
X8349656Y-23390154D01*
X8348429Y-23390571D01*
X6994651Y-23830423D01*
X6993415Y-23830807D01*
X6913402Y-23854509D01*
X6912154Y-23854861D01*
X5749324Y-24166440D01*
X5746805Y-24167045D01*
X4579613Y-24415180D01*
X4577064Y-24415653D01*
X3388076Y-24604011D01*
X3386792Y-24604197D01*
X3304098Y-24615084D01*
X3302810Y-24615236D01*
X1887225Y-24763985D01*
X1885934Y-24764103D01*
X1828072Y-24768654D01*
X1802680Y-24770652D01*
X1801408Y-24770735D01*
X592675Y-24834076D01*
X581105Y-24833706D01*
X581090Y-24833968D01*
X578217Y-24833801D01*
X578211Y-24833801D01*
X-602156Y-24833801D01*
X-613240Y-24832864D01*
X-613248Y-24832938D01*
X-613251Y-24832997D01*
X-613255Y-24832996D01*
X-613273Y-24833164D01*
X-616140Y-24832845D01*
X-1801414Y-24770735D01*
X-1802681Y-24770652D01*
X-1835630Y-24768060D01*
X-1885903Y-24764106D01*
X-1887194Y-24763988D01*
X-3302790Y-24615239D01*
X-3304078Y-24615087D01*
X-3386772Y-24604200D01*
X-3388056Y-24604014D01*
X-4577063Y-24415653D01*
X-4579612Y-24415180D01*
X-5746802Y-24167046D01*
X-5749321Y-24166441D01*
X-6912124Y-23854869D01*
X-6913372Y-23854517D01*
X-6993444Y-23830798D01*
X-6994681Y-23830414D01*
X-7703850Y-23600000D01*
X1594318Y-23600000D01*
X1614955Y-23756758D01*
X1614957Y-23756766D01*
X1675462Y-23902838D01*
X1675462Y-23902839D01*
X1768844Y-24024537D01*
X1771718Y-24028282D01*
X1897159Y-24124536D01*
X1897160Y-24124536D01*
X1897161Y-24124537D01*
X1999787Y-24167046D01*
X2043238Y-24185044D01*
X2160809Y-24200522D01*
X2199999Y-24205682D01*
X2200000Y-24205682D01*
X2200001Y-24205682D01*
X2231352Y-24201554D01*
X2356762Y-24185044D01*
X2502841Y-24124536D01*
X2628282Y-24028282D01*
X2724536Y-23902841D01*
X2779247Y-23770756D01*
X2818982Y-23724232D01*
X2878477Y-23709948D01*
X2935005Y-23733362D01*
X2962174Y-23770757D01*
X2975463Y-23802838D01*
X2975464Y-23802841D01*
X3071718Y-23928282D01*
X3197159Y-24024536D01*
X3197160Y-24024536D01*
X3197161Y-24024537D01*
X3206212Y-24028286D01*
X3343238Y-24085044D01*
X3460809Y-24100522D01*
X3499999Y-24105682D01*
X3500000Y-24105682D01*
X3500001Y-24105682D01*
X3531352Y-24101554D01*
X3656762Y-24085044D01*
X3802841Y-24024536D01*
X3928282Y-23928282D01*
X4024536Y-23802841D01*
X4085044Y-23656762D01*
X4105682Y-23500000D01*
X4085044Y-23343238D01*
X4065958Y-23297160D01*
X4024537Y-23197161D01*
X4024537Y-23197160D01*
X3928286Y-23071723D01*
X3928285Y-23071722D01*
X3928282Y-23071718D01*
X3928277Y-23071714D01*
X3928276Y-23071713D01*
X3802838Y-22975462D01*
X3656766Y-22914957D01*
X3656758Y-22914955D01*
X3500001Y-22894318D01*
X3499999Y-22894318D01*
X3343241Y-22914955D01*
X3343233Y-22914957D01*
X3197161Y-22975462D01*
X3197160Y-22975462D01*
X3071723Y-23071713D01*
X3071713Y-23071723D01*
X2975463Y-23197160D01*
X2920753Y-23329242D01*
X2881016Y-23375767D01*
X2821521Y-23390051D01*
X2764994Y-23366636D01*
X2737825Y-23329241D01*
X2724537Y-23297161D01*
X2724537Y-23297160D01*
X2628286Y-23171723D01*
X2628285Y-23171722D01*
X2628282Y-23171718D01*
X2628277Y-23171714D01*
X2628276Y-23171713D01*
X2502838Y-23075462D01*
X2356766Y-23014957D01*
X2356758Y-23014955D01*
X2200001Y-22994318D01*
X2199999Y-22994318D01*
X2043241Y-23014955D01*
X2043233Y-23014957D01*
X1897161Y-23075462D01*
X1897160Y-23075462D01*
X1771723Y-23171713D01*
X1771713Y-23171723D01*
X1675462Y-23297160D01*
X1675462Y-23297161D01*
X1614957Y-23443233D01*
X1614955Y-23443241D01*
X1594318Y-23599999D01*
X1594318Y-23600000D01*
X-7703850Y-23600000D01*
X-8348438Y-23390569D01*
X-8349665Y-23390152D01*
X-8428349Y-23362290D01*
X-8429545Y-23361849D01*
X-9553364Y-22930491D01*
X-9555733Y-22929509D01*
X-10645852Y-22444140D01*
X-10648193Y-22443024D01*
X-11128082Y-22198489D01*
X-4207193Y-22198489D01*
X-4186556Y-22355247D01*
X-4186554Y-22355255D01*
X-4126049Y-22501327D01*
X-4126049Y-22501328D01*
X-4126047Y-22501330D01*
X-4029793Y-22626771D01*
X-3904352Y-22723025D01*
X-3758273Y-22783533D01*
X-3640702Y-22799011D01*
X-3601512Y-22804171D01*
X-3601511Y-22804171D01*
X-3601510Y-22804171D01*
X-3570159Y-22800043D01*
X-3444749Y-22783533D01*
X-3298670Y-22723025D01*
X-3173229Y-22626771D01*
X-3076975Y-22501330D01*
X-3016467Y-22355251D01*
X-2995829Y-22198489D01*
X-3016467Y-22041727D01*
X-3016469Y-22041722D01*
X-3076974Y-21895650D01*
X-3076974Y-21895649D01*
X-3173225Y-21770212D01*
X-3173226Y-21770211D01*
X-3173229Y-21770207D01*
X-3173234Y-21770203D01*
X-3173235Y-21770202D01*
X-3298673Y-21673951D01*
X-3444745Y-21613446D01*
X-3444753Y-21613444D01*
X-3601510Y-21592807D01*
X-3601512Y-21592807D01*
X-3758270Y-21613444D01*
X-3758278Y-21613446D01*
X-3904350Y-21673951D01*
X-3904351Y-21673951D01*
X-4029788Y-21770202D01*
X-4029798Y-21770212D01*
X-4126049Y-21895649D01*
X-4126049Y-21895650D01*
X-4186554Y-22041722D01*
X-4186556Y-22041730D01*
X-4207193Y-22198488D01*
X-4207193Y-22198489D01*
X-11128082Y-22198489D01*
X-11720713Y-21896505D01*
X-11721859Y-21895903D01*
X-11795380Y-21855984D01*
X-11796483Y-21855366D01*
X-12931662Y-21200000D01*
X-11155682Y-21200000D01*
X-11135045Y-21356758D01*
X-11135043Y-21356766D01*
X-11074538Y-21502838D01*
X-11074538Y-21502839D01*
X-11074536Y-21502841D01*
X-10978282Y-21628282D01*
X-10852841Y-21724536D01*
X-10852840Y-21724536D01*
X-10852839Y-21724537D01*
X-10706767Y-21785042D01*
X-10706762Y-21785044D01*
X-10589191Y-21800522D01*
X-10550001Y-21805682D01*
X-10550000Y-21805682D01*
X-10549999Y-21805682D01*
X-10518648Y-21801554D01*
X-10393238Y-21785044D01*
X-10247159Y-21724536D01*
X-10121718Y-21628282D01*
X-10025464Y-21502841D01*
X-9964956Y-21356762D01*
X-9944318Y-21200000D01*
X-9964956Y-21043238D01*
X-10025463Y-20897161D01*
X-10025463Y-20897160D01*
X-10081217Y-20824500D01*
X-5805682Y-20824500D01*
X-5785045Y-20981258D01*
X-5785043Y-20981266D01*
X-5724538Y-21127338D01*
X-5724538Y-21127339D01*
X-5711942Y-21143754D01*
X-5628282Y-21252782D01*
X-5502841Y-21349036D01*
X-5502840Y-21349036D01*
X-5502839Y-21349037D01*
X-5356767Y-21409542D01*
X-5356762Y-21409544D01*
X-5239191Y-21425022D01*
X-5200001Y-21430182D01*
X-5200000Y-21430182D01*
X-5199999Y-21430182D01*
X-5168648Y-21426054D01*
X-5043238Y-21409544D01*
X-4897159Y-21349036D01*
X-4771718Y-21252782D01*
X-4675464Y-21127341D01*
X-4614956Y-20981262D01*
X-4594318Y-20824500D01*
X-4614956Y-20667738D01*
X-4636819Y-20614955D01*
X-4675463Y-20521661D01*
X-4675463Y-20521660D01*
X-4771714Y-20396223D01*
X-4771715Y-20396222D01*
X-4771718Y-20396218D01*
X-4771723Y-20396214D01*
X-4771724Y-20396213D01*
X-4897162Y-20299962D01*
X-5043234Y-20239457D01*
X-5043242Y-20239455D01*
X-5199999Y-20218818D01*
X-5200001Y-20218818D01*
X-5356759Y-20239455D01*
X-5356767Y-20239457D01*
X-5502839Y-20299962D01*
X-5502840Y-20299962D01*
X-5628277Y-20396213D01*
X-5628287Y-20396223D01*
X-5724538Y-20521660D01*
X-5724538Y-20521661D01*
X-5785043Y-20667733D01*
X-5785045Y-20667741D01*
X-5805682Y-20824499D01*
X-5805682Y-20824500D01*
X-10081217Y-20824500D01*
X-10121714Y-20771723D01*
X-10121715Y-20771722D01*
X-10121718Y-20771718D01*
X-10121723Y-20771714D01*
X-10121724Y-20771713D01*
X-10247162Y-20675462D01*
X-10393234Y-20614957D01*
X-10393242Y-20614955D01*
X-10549999Y-20594318D01*
X-10550001Y-20594318D01*
X-10706759Y-20614955D01*
X-10706767Y-20614957D01*
X-10852839Y-20675462D01*
X-10852840Y-20675462D01*
X-10978277Y-20771713D01*
X-10978287Y-20771723D01*
X-11074538Y-20897160D01*
X-11074538Y-20897161D01*
X-11135043Y-21043233D01*
X-11135045Y-21043241D01*
X-11155682Y-21199999D01*
X-11155682Y-21200000D01*
X-12931662Y-21200000D01*
X-13029141Y-21143723D01*
X-13030157Y-21143119D01*
X-13101410Y-21099461D01*
X-13102492Y-21098778D01*
X-13981016Y-20528282D01*
X-14105832Y-20447229D01*
X-14110388Y-20444355D01*
X-14113076Y-20442534D01*
X-14584521Y-20100000D01*
X3078337Y-20100000D01*
X3098974Y-20256758D01*
X3098976Y-20256766D01*
X3159481Y-20402838D01*
X3159481Y-20402839D01*
X3255732Y-20528276D01*
X3255737Y-20528282D01*
X3381178Y-20624536D01*
X3381179Y-20624536D01*
X3381180Y-20624537D01*
X3485484Y-20667741D01*
X3527257Y-20685044D01*
X3644828Y-20700522D01*
X3684018Y-20705682D01*
X3684019Y-20705682D01*
X3684020Y-20705682D01*
X3715371Y-20701554D01*
X3840781Y-20685044D01*
X3986860Y-20624536D01*
X4112301Y-20528282D01*
X4208555Y-20402841D01*
X4269063Y-20256762D01*
X4289701Y-20100000D01*
X4270059Y-19950800D01*
X11445118Y-19950800D01*
X11465755Y-20107558D01*
X11465757Y-20107566D01*
X11526262Y-20253638D01*
X11526262Y-20253639D01*
X11580663Y-20324536D01*
X11622518Y-20379082D01*
X11747959Y-20475336D01*
X11894038Y-20535844D01*
X12011609Y-20551322D01*
X12050799Y-20556482D01*
X12050800Y-20556482D01*
X12050801Y-20556482D01*
X12082152Y-20552354D01*
X12207562Y-20535844D01*
X12353641Y-20475336D01*
X12479082Y-20379082D01*
X12575336Y-20253641D01*
X12635844Y-20107562D01*
X12656482Y-19950800D01*
X12655486Y-19943238D01*
X12636629Y-19800000D01*
X12894318Y-19800000D01*
X12914955Y-19956758D01*
X12914957Y-19956766D01*
X12975462Y-20102838D01*
X12975462Y-20102839D01*
X13064456Y-20218818D01*
X13071718Y-20228282D01*
X13071722Y-20228285D01*
X13071723Y-20228286D01*
X13101082Y-20250813D01*
X13197159Y-20324536D01*
X13343238Y-20385044D01*
X13460809Y-20400522D01*
X13499999Y-20405682D01*
X13500000Y-20405682D01*
X13500001Y-20405682D01*
X13531352Y-20401554D01*
X13656762Y-20385044D01*
X13802841Y-20324536D01*
X13928282Y-20228282D01*
X14024536Y-20102841D01*
X14085044Y-19956762D01*
X14105682Y-19800000D01*
X14104897Y-19794041D01*
X14088793Y-19671718D01*
X14085044Y-19643238D01*
X14031908Y-19514956D01*
X14024537Y-19497161D01*
X14024537Y-19497160D01*
X13928286Y-19371723D01*
X13928285Y-19371722D01*
X13928282Y-19371718D01*
X13928277Y-19371714D01*
X13928276Y-19371713D01*
X13821480Y-19289766D01*
X13802841Y-19275464D01*
X13802840Y-19275463D01*
X13802838Y-19275462D01*
X13656766Y-19214957D01*
X13656758Y-19214955D01*
X13500001Y-19194318D01*
X13499999Y-19194318D01*
X13343241Y-19214955D01*
X13343233Y-19214957D01*
X13197161Y-19275462D01*
X13197160Y-19275462D01*
X13071723Y-19371713D01*
X13071713Y-19371723D01*
X12975462Y-19497160D01*
X12975462Y-19497161D01*
X12914957Y-19643233D01*
X12914955Y-19643241D01*
X12894318Y-19799999D01*
X12894318Y-19800000D01*
X12636629Y-19800000D01*
X12635844Y-19794038D01*
X12604365Y-19718042D01*
X12575337Y-19647961D01*
X12575337Y-19647960D01*
X12479086Y-19522523D01*
X12479085Y-19522522D01*
X12479082Y-19522518D01*
X12479077Y-19522514D01*
X12479076Y-19522513D01*
X12406830Y-19467077D01*
X12353641Y-19426264D01*
X12353640Y-19426263D01*
X12353638Y-19426262D01*
X12207566Y-19365757D01*
X12207558Y-19365755D01*
X12050801Y-19345118D01*
X12050799Y-19345118D01*
X11894041Y-19365755D01*
X11894033Y-19365757D01*
X11747961Y-19426262D01*
X11747960Y-19426262D01*
X11622523Y-19522513D01*
X11622513Y-19522523D01*
X11526262Y-19647960D01*
X11526262Y-19647961D01*
X11465757Y-19794033D01*
X11465755Y-19794041D01*
X11445118Y-19950799D01*
X11445118Y-19950800D01*
X4270059Y-19950800D01*
X4269063Y-19943238D01*
X4256553Y-19913036D01*
X4208556Y-19797161D01*
X4208556Y-19797160D01*
X4112305Y-19671723D01*
X4112304Y-19671722D01*
X4112301Y-19671718D01*
X4112296Y-19671714D01*
X4112295Y-19671713D01*
X3986857Y-19575462D01*
X3840785Y-19514957D01*
X3840777Y-19514955D01*
X3684020Y-19494318D01*
X3684018Y-19494318D01*
X3527260Y-19514955D01*
X3527252Y-19514957D01*
X3381180Y-19575462D01*
X3381179Y-19575462D01*
X3255742Y-19671713D01*
X3255732Y-19671723D01*
X3159481Y-19797160D01*
X3159481Y-19797161D01*
X3098976Y-19943233D01*
X3098974Y-19943241D01*
X3078337Y-20099999D01*
X3078337Y-20100000D01*
X-14584521Y-20100000D01*
X-15079629Y-19740274D01*
X-15081668Y-19738709D01*
X-15829628Y-19133000D01*
X-12930682Y-19133000D01*
X-12910045Y-19289758D01*
X-12910043Y-19289766D01*
X-12849538Y-19435838D01*
X-12849538Y-19435839D01*
X-12783027Y-19522518D01*
X-12753282Y-19561282D01*
X-12627841Y-19657536D01*
X-12481762Y-19718044D01*
X-12364191Y-19733522D01*
X-12325001Y-19738682D01*
X-12325000Y-19738682D01*
X-12324999Y-19738682D01*
X-12293648Y-19734554D01*
X-12168238Y-19718044D01*
X-12022159Y-19657536D01*
X-11896718Y-19561282D01*
X-11800464Y-19435841D01*
X-11739956Y-19289762D01*
X-11719318Y-19133000D01*
X-11739956Y-18976238D01*
X-11740661Y-18974536D01*
X-11787525Y-18861395D01*
X6158325Y-18861395D01*
X6178962Y-19018153D01*
X6178964Y-19018161D01*
X6239469Y-19164233D01*
X6239469Y-19164234D01*
X6324817Y-19275462D01*
X6335725Y-19289677D01*
X6335729Y-19289680D01*
X6335730Y-19289681D01*
X6335836Y-19289762D01*
X6461166Y-19385931D01*
X6607245Y-19446439D01*
X6724816Y-19461917D01*
X6764006Y-19467077D01*
X6764007Y-19467077D01*
X6764008Y-19467077D01*
X6795359Y-19462949D01*
X6920769Y-19446439D01*
X7066848Y-19385931D01*
X7192289Y-19289677D01*
X7252018Y-19211835D01*
X7302440Y-19177182D01*
X7363604Y-19178783D01*
X7409100Y-19211838D01*
X7411492Y-19214956D01*
X7421718Y-19228282D01*
X7547159Y-19324536D01*
X7547160Y-19324536D01*
X7547161Y-19324537D01*
X7676913Y-19378282D01*
X7693238Y-19385044D01*
X7810809Y-19400522D01*
X7849999Y-19405682D01*
X7850000Y-19405682D01*
X7850001Y-19405682D01*
X7881352Y-19401554D01*
X8006762Y-19385044D01*
X8152841Y-19324536D01*
X8278282Y-19228282D01*
X8374536Y-19102841D01*
X8435044Y-18956762D01*
X8455682Y-18800000D01*
X8435044Y-18643238D01*
X8419935Y-18606762D01*
X8374537Y-18497161D01*
X8374537Y-18497160D01*
X8338350Y-18450000D01*
X11144318Y-18450000D01*
X11164955Y-18606758D01*
X11164957Y-18606766D01*
X11225462Y-18752838D01*
X11225462Y-18752839D01*
X11308759Y-18861394D01*
X11321718Y-18878282D01*
X11447159Y-18974536D01*
X11447160Y-18974536D01*
X11447161Y-18974537D01*
X11552469Y-19018157D01*
X11593238Y-19035044D01*
X11710809Y-19050522D01*
X11749999Y-19055682D01*
X11750000Y-19055682D01*
X11750001Y-19055682D01*
X11781352Y-19051554D01*
X11906762Y-19035044D01*
X12052841Y-18974536D01*
X12178282Y-18878282D01*
X12274536Y-18752841D01*
X12335044Y-18606762D01*
X12355682Y-18450000D01*
X12353459Y-18433118D01*
X12340787Y-18336859D01*
X12335044Y-18293238D01*
X12306587Y-18224536D01*
X12286275Y-18175500D01*
X12854768Y-18175500D01*
X12875405Y-18332258D01*
X12875407Y-18332266D01*
X12935912Y-18478338D01*
X12935912Y-18478339D01*
X12989331Y-18547956D01*
X13032168Y-18603782D01*
X13032172Y-18603785D01*
X13032173Y-18603786D01*
X13036057Y-18606766D01*
X13157609Y-18700036D01*
X13157610Y-18700036D01*
X13157611Y-18700037D01*
X13285091Y-18752841D01*
X13303688Y-18760544D01*
X13421259Y-18776022D01*
X13460449Y-18781182D01*
X13460450Y-18781182D01*
X13460451Y-18781182D01*
X13491802Y-18777054D01*
X13617212Y-18760544D01*
X13763291Y-18700036D01*
X13888732Y-18603782D01*
X13984986Y-18478341D01*
X14045494Y-18332262D01*
X14066132Y-18175500D01*
X14045494Y-18018738D01*
X13984987Y-17872661D01*
X13984987Y-17872660D01*
X13888736Y-17747223D01*
X13888735Y-17747222D01*
X13888732Y-17747218D01*
X13888727Y-17747214D01*
X13888726Y-17747213D01*
X13763288Y-17650962D01*
X13617216Y-17590457D01*
X13617208Y-17590455D01*
X13460451Y-17569818D01*
X13460449Y-17569818D01*
X13303691Y-17590455D01*
X13303683Y-17590457D01*
X13157611Y-17650962D01*
X13157610Y-17650962D01*
X13032173Y-17747213D01*
X13032163Y-17747223D01*
X12935912Y-17872660D01*
X12935912Y-17872661D01*
X12875407Y-18018733D01*
X12875405Y-18018741D01*
X12854768Y-18175499D01*
X12854768Y-18175500D01*
X12286275Y-18175500D01*
X12274537Y-18147161D01*
X12274537Y-18147160D01*
X12178286Y-18021723D01*
X12178285Y-18021722D01*
X12178282Y-18021718D01*
X12178277Y-18021714D01*
X12178276Y-18021713D01*
X12052838Y-17925462D01*
X11906766Y-17864957D01*
X11906758Y-17864955D01*
X11750001Y-17844318D01*
X11749999Y-17844318D01*
X11593241Y-17864955D01*
X11593233Y-17864957D01*
X11447161Y-17925462D01*
X11447160Y-17925462D01*
X11321723Y-18021713D01*
X11321713Y-18021723D01*
X11225462Y-18147160D01*
X11225462Y-18147161D01*
X11164957Y-18293233D01*
X11164955Y-18293241D01*
X11144318Y-18449999D01*
X11144318Y-18450000D01*
X8338350Y-18450000D01*
X8278286Y-18371723D01*
X8278285Y-18371722D01*
X8278282Y-18371718D01*
X8278277Y-18371714D01*
X8278276Y-18371713D01*
X8192222Y-18305682D01*
X8152841Y-18275464D01*
X8152840Y-18275463D01*
X8152838Y-18275462D01*
X8006766Y-18214957D01*
X8006758Y-18214955D01*
X7850001Y-18194318D01*
X7849999Y-18194318D01*
X7693241Y-18214955D01*
X7693233Y-18214957D01*
X7547161Y-18275462D01*
X7547160Y-18275462D01*
X7421723Y-18371713D01*
X7421716Y-18371720D01*
X7361990Y-18449557D01*
X7311565Y-18484212D01*
X7250401Y-18482610D01*
X7204907Y-18449557D01*
X7192289Y-18433113D01*
X7192284Y-18433109D01*
X7192283Y-18433108D01*
X7103465Y-18364956D01*
X7066848Y-18336859D01*
X7066847Y-18336858D01*
X7066845Y-18336857D01*
X6920773Y-18276352D01*
X6920765Y-18276350D01*
X6764008Y-18255713D01*
X6764006Y-18255713D01*
X6607248Y-18276350D01*
X6607240Y-18276352D01*
X6461168Y-18336857D01*
X6461167Y-18336857D01*
X6335730Y-18433108D01*
X6335720Y-18433118D01*
X6239469Y-18558555D01*
X6239469Y-18558556D01*
X6178964Y-18704628D01*
X6178962Y-18704636D01*
X6158325Y-18861394D01*
X6158325Y-18861395D01*
X-11787525Y-18861395D01*
X-11800463Y-18830161D01*
X-11800463Y-18830160D01*
X-11896714Y-18704723D01*
X-11896715Y-18704722D01*
X-11896718Y-18704718D01*
X-11896723Y-18704714D01*
X-11896724Y-18704713D01*
X-12022162Y-18608462D01*
X-12168234Y-18547957D01*
X-12168242Y-18547955D01*
X-12324999Y-18527318D01*
X-12325001Y-18527318D01*
X-12481759Y-18547955D01*
X-12481767Y-18547957D01*
X-12627839Y-18608462D01*
X-12627840Y-18608462D01*
X-12753277Y-18704713D01*
X-12753287Y-18704723D01*
X-12849538Y-18830160D01*
X-12849538Y-18830161D01*
X-12910043Y-18976233D01*
X-12910045Y-18976241D01*
X-12930682Y-19132999D01*
X-12930682Y-19133000D01*
X-15829628Y-19133000D01*
X-16017293Y-18981026D01*
X-16018167Y-18980299D01*
X-16350656Y-18696320D01*
X-16351589Y-18695501D01*
X-16883830Y-18216262D01*
X-16884781Y-18215383D01*
X-16996300Y-18109554D01*
X-17005472Y-18101132D01*
X-17017123Y-18090780D01*
X-17026475Y-18082741D01*
X-17026497Y-18082722D01*
X-17356690Y-17808152D01*
X-17356695Y-17808148D01*
X-17382239Y-17788682D01*
X-17382256Y-17788670D01*
X-17382261Y-17788666D01*
X-17422421Y-17760682D01*
X-17449526Y-17743458D01*
X-17514958Y-17705682D01*
X-17824314Y-17527080D01*
X-17859546Y-17509128D01*
X-17859561Y-17509121D01*
X-17914587Y-17484618D01*
X-17951535Y-17470433D01*
X-18364838Y-17336129D01*
X-18375481Y-17333277D01*
X-18403101Y-17325876D01*
X-18462033Y-17313352D01*
X-18501138Y-17307161D01*
X-18933337Y-17261754D01*
X-18933349Y-17261753D01*
X-18949894Y-17260886D01*
X-18972836Y-17259685D01*
X-19033060Y-17259685D01*
X-19055089Y-17260838D01*
X-19072547Y-17261753D01*
X-19072559Y-17261754D01*
X-19504759Y-17307160D01*
X-19543867Y-17313352D01*
X-19602769Y-17325871D01*
X-19602791Y-17325876D01*
X-19632930Y-17333951D01*
X-19641018Y-17336118D01*
X-19641022Y-17336119D01*
X-19641036Y-17336123D01*
X-20054385Y-17470421D01*
X-20054416Y-17470433D01*
X-20091352Y-17484611D01*
X-20091356Y-17484612D01*
X-20091367Y-17484617D01*
X-20146383Y-17509113D01*
X-20146405Y-17509123D01*
X-20146414Y-17509127D01*
X-20146440Y-17509140D01*
X-20181624Y-17527067D01*
X-20181668Y-17527091D01*
X-20557467Y-17744063D01*
X-20557472Y-17744066D01*
X-20588588Y-17764127D01*
X-20634440Y-17796972D01*
X-20634459Y-17796987D01*
X-20663458Y-17819993D01*
X-20987935Y-18104392D01*
X-21000677Y-18116085D01*
X-21016320Y-18131114D01*
X-21016323Y-18131118D01*
X-21028524Y-18143387D01*
X-21319381Y-18449556D01*
X-21612385Y-18757983D01*
X-21652301Y-18799999D01*
X-21844875Y-19002701D01*
X-21844874Y-19002702D01*
X-23487187Y-20731446D01*
X-23487187Y-20731448D01*
X-23878241Y-21143093D01*
X-24234541Y-21518153D01*
X-24920633Y-22240343D01*
X-24936197Y-22256723D01*
X-24952726Y-22274120D01*
X-24952729Y-22274122D01*
X-25543711Y-22896225D01*
X-25543712Y-22896224D01*
X-25575001Y-22929165D01*
X-25576532Y-22930778D01*
X-26101770Y-23483683D01*
X-26128454Y-23511770D01*
X-26531905Y-23936426D01*
X-26824857Y-24253181D01*
X-26824890Y-24253218D01*
X-26839518Y-24270004D01*
X-26839540Y-24270030D01*
X-26857375Y-24291761D01*
X-26870956Y-24309338D01*
X-26870999Y-24309395D01*
X-27085049Y-24604011D01*
X-27125793Y-24660090D01*
X-27147318Y-24693235D01*
X-27147346Y-24693278D01*
X-27177450Y-24745418D01*
X-27177455Y-24745427D01*
X-27177458Y-24745433D01*
X-27186971Y-24764103D01*
X-27195424Y-24780691D01*
X-27195427Y-24780697D01*
X-27372181Y-25177640D01*
X-27372189Y-25177659D01*
X-27386356Y-25214560D01*
X-27386358Y-25214563D01*
X-27404986Y-25271884D01*
X-27404990Y-25271897D01*
X-27405003Y-25271946D01*
X-27415237Y-25310134D01*
X-27415241Y-25310150D01*
X-27505585Y-25735160D01*
X-27505588Y-25735173D01*
X-27511780Y-25774266D01*
X-27511784Y-25774293D01*
X-27518076Y-25834146D01*
X-27518079Y-25834177D01*
X-27520150Y-25873686D01*
X-27520151Y-25873696D01*
X-27520154Y-26308316D01*
X-27520154Y-26308342D01*
X-30115330Y-26308342D01*
X-31084575Y-25173470D01*
X-31086200Y-25171463D01*
X-31827308Y-24205682D01*
X-32359516Y-23512129D01*
X-32361033Y-23510041D01*
X-32576068Y-23197161D01*
X-33545672Y-21786366D01*
X-33547057Y-21784234D01*
X-34639909Y-20000835D01*
X-34641192Y-19998612D01*
X-35210566Y-18950000D01*
X-24655682Y-18950000D01*
X-24635045Y-19106758D01*
X-24635043Y-19106766D01*
X-24574538Y-19252838D01*
X-24574538Y-19252839D01*
X-24487894Y-19365756D01*
X-24478282Y-19378282D01*
X-24352841Y-19474536D01*
X-24352840Y-19474536D01*
X-24352839Y-19474537D01*
X-24206767Y-19535042D01*
X-24206762Y-19535044D01*
X-24089191Y-19550522D01*
X-24050001Y-19555682D01*
X-24050000Y-19555682D01*
X-24049999Y-19555682D01*
X-24018648Y-19551554D01*
X-23893238Y-19535044D01*
X-23747159Y-19474536D01*
X-23621718Y-19378282D01*
X-23525464Y-19252841D01*
X-23464956Y-19106762D01*
X-23444318Y-18950000D01*
X-23464956Y-18793238D01*
X-23501657Y-18704633D01*
X-23525463Y-18647161D01*
X-23525463Y-18647160D01*
X-23621714Y-18521723D01*
X-23621715Y-18521722D01*
X-23621718Y-18521718D01*
X-23621723Y-18521714D01*
X-23621724Y-18521713D01*
X-23747162Y-18425462D01*
X-23893234Y-18364957D01*
X-23893242Y-18364955D01*
X-24049999Y-18344318D01*
X-24050001Y-18344318D01*
X-24206759Y-18364955D01*
X-24206767Y-18364957D01*
X-24352839Y-18425462D01*
X-24352840Y-18425462D01*
X-24478277Y-18521713D01*
X-24478287Y-18521723D01*
X-24574538Y-18647160D01*
X-24574538Y-18647161D01*
X-24635043Y-18793233D01*
X-24635045Y-18793241D01*
X-24655682Y-18949999D01*
X-24655682Y-18950000D01*
X-35210566Y-18950000D01*
X-35639250Y-18160496D01*
X-35640414Y-18158209D01*
X-36032513Y-17336129D01*
X-36145137Y-17100000D01*
X-24505682Y-17100000D01*
X-24485045Y-17256758D01*
X-24485043Y-17256766D01*
X-24424538Y-17402838D01*
X-24424538Y-17402839D01*
X-24329203Y-17527082D01*
X-24328282Y-17528282D01*
X-24202841Y-17624536D01*
X-24202840Y-17624536D01*
X-24202839Y-17624537D01*
X-24056767Y-17685042D01*
X-24056762Y-17685044D01*
X-23943167Y-17699999D01*
X-23900001Y-17705682D01*
X-23900000Y-17705682D01*
X-23899999Y-17705682D01*
X-23856833Y-17699999D01*
X-23743238Y-17685044D01*
X-23597159Y-17624536D01*
X-23471718Y-17528282D01*
X-23375464Y-17402841D01*
X-23314956Y-17256762D01*
X-23294318Y-17100000D01*
X-23314956Y-16943238D01*
X-23374287Y-16800000D01*
X-23375463Y-16797161D01*
X-23375463Y-16797160D01*
X-23471714Y-16671723D01*
X-23471715Y-16671722D01*
X-23471718Y-16671718D01*
X-23471723Y-16671714D01*
X-23471724Y-16671713D01*
X-23533254Y-16624500D01*
X-17830182Y-16624500D01*
X-17809545Y-16781258D01*
X-17809543Y-16781266D01*
X-17749038Y-16927338D01*
X-17749038Y-16927339D01*
X-17666393Y-17035044D01*
X-17652782Y-17052782D01*
X-17527341Y-17149036D01*
X-17527340Y-17149036D01*
X-17527339Y-17149037D01*
X-17381267Y-17209542D01*
X-17381262Y-17209544D01*
X-17263691Y-17225022D01*
X-17224501Y-17230182D01*
X-17224500Y-17230182D01*
X-17224499Y-17230182D01*
X-17193148Y-17226054D01*
X-17067738Y-17209544D01*
X-16921659Y-17149036D01*
X-16796218Y-17052782D01*
X-16699964Y-16927341D01*
X-16639456Y-16781262D01*
X-16618818Y-16624500D01*
X-16639456Y-16467738D01*
X-16646803Y-16450000D01*
X8144318Y-16450000D01*
X8164955Y-16606758D01*
X8164957Y-16606766D01*
X8225462Y-16752838D01*
X8225462Y-16752839D01*
X8261650Y-16800000D01*
X8321718Y-16878282D01*
X8447159Y-16974536D01*
X8593238Y-17035044D01*
X8710809Y-17050522D01*
X8749999Y-17055682D01*
X8750000Y-17055682D01*
X8750001Y-17055682D01*
X8781352Y-17051554D01*
X8906762Y-17035044D01*
X9052841Y-16974536D01*
X9178282Y-16878282D01*
X9274536Y-16752841D01*
X9335044Y-16606762D01*
X9355682Y-16450000D01*
X9335044Y-16293238D01*
X9327682Y-16275464D01*
X9294430Y-16195185D01*
X9289630Y-16134188D01*
X9321599Y-16082019D01*
X9378127Y-16058605D01*
X9385894Y-16058300D01*
X10064147Y-16058300D01*
X10064148Y-16058300D01*
X10122631Y-16046667D01*
X10188952Y-16002352D01*
X10233267Y-15936031D01*
X10244900Y-15877548D01*
X10244900Y-14314052D01*
X10233267Y-14255569D01*
X10188952Y-14189248D01*
X10188948Y-14189245D01*
X10122633Y-14144934D01*
X10122631Y-14144933D01*
X10122628Y-14144932D01*
X10122627Y-14144932D01*
X10064158Y-14133301D01*
X10064148Y-14133300D01*
X8500652Y-14133300D01*
X8500651Y-14133300D01*
X8500641Y-14133301D01*
X8442172Y-14144932D01*
X8442166Y-14144934D01*
X8375851Y-14189245D01*
X8375845Y-14189251D01*
X8331534Y-14255566D01*
X8331532Y-14255572D01*
X8319901Y-14314041D01*
X8319900Y-14314053D01*
X8319900Y-15476535D01*
X8314345Y-15509231D01*
X8302355Y-15543497D01*
X8300976Y-15550786D01*
X8300544Y-15550704D01*
X8300171Y-15552900D01*
X8300605Y-15552966D01*
X8299500Y-15560299D01*
X8299500Y-15618841D01*
X8299465Y-15620691D01*
X8297276Y-15679210D01*
X8298107Y-15686585D01*
X8297668Y-15686634D01*
X8299500Y-15700544D01*
X8299500Y-16017067D01*
X8280593Y-16075258D01*
X8279042Y-16077334D01*
X8225462Y-16147160D01*
X8225462Y-16147161D01*
X8164957Y-16293233D01*
X8164955Y-16293241D01*
X8144318Y-16449999D01*
X8144318Y-16450000D01*
X-16646803Y-16450000D01*
X-16666338Y-16402839D01*
X-16699963Y-16321661D01*
X-16699963Y-16321660D01*
X-16796214Y-16196223D01*
X-16796215Y-16196222D01*
X-16796218Y-16196218D01*
X-16796223Y-16196214D01*
X-16796224Y-16196213D01*
X-16877057Y-16134188D01*
X-16921659Y-16099964D01*
X-16921660Y-16099963D01*
X-16921662Y-16099962D01*
X-17067734Y-16039457D01*
X-17067742Y-16039455D01*
X-17224499Y-16018818D01*
X-17224501Y-16018818D01*
X-17381259Y-16039455D01*
X-17381267Y-16039457D01*
X-17527339Y-16099962D01*
X-17527340Y-16099962D01*
X-17652777Y-16196213D01*
X-17652787Y-16196223D01*
X-17749038Y-16321660D01*
X-17749038Y-16321661D01*
X-17809543Y-16467733D01*
X-17809545Y-16467741D01*
X-17830182Y-16624499D01*
X-17830182Y-16624500D01*
X-23533254Y-16624500D01*
X-23597162Y-16575462D01*
X-23743234Y-16514957D01*
X-23743242Y-16514955D01*
X-23899999Y-16494318D01*
X-23900001Y-16494318D01*
X-24056759Y-16514955D01*
X-24056767Y-16514957D01*
X-24202839Y-16575462D01*
X-24202840Y-16575462D01*
X-24328277Y-16671713D01*
X-24328287Y-16671723D01*
X-24424538Y-16797160D01*
X-24424538Y-16797161D01*
X-24485043Y-16943233D01*
X-24485045Y-16943241D01*
X-24505682Y-17099999D01*
X-24505682Y-17100000D01*
X-36145137Y-17100000D01*
X-36455161Y-16450000D01*
X-29105682Y-16450000D01*
X-29085045Y-16606758D01*
X-29085043Y-16606766D01*
X-29024538Y-16752838D01*
X-29024538Y-16752839D01*
X-28988350Y-16800000D01*
X-28928282Y-16878282D01*
X-28802841Y-16974536D01*
X-28656762Y-17035044D01*
X-28539191Y-17050522D01*
X-28500001Y-17055682D01*
X-28500000Y-17055682D01*
X-28499999Y-17055682D01*
X-28468648Y-17051554D01*
X-28343238Y-17035044D01*
X-28197159Y-16974536D01*
X-28071718Y-16878282D01*
X-27975464Y-16752841D01*
X-27914956Y-16606762D01*
X-27894318Y-16450000D01*
X-27914956Y-16293238D01*
X-27930065Y-16256762D01*
X-27975463Y-16147161D01*
X-27975463Y-16147160D01*
X-28071714Y-16021723D01*
X-28071715Y-16021722D01*
X-28071718Y-16021718D01*
X-28071723Y-16021714D01*
X-28071724Y-16021713D01*
X-28142896Y-15967101D01*
X-28197159Y-15925464D01*
X-28197160Y-15925463D01*
X-28197162Y-15925462D01*
X-28343234Y-15864957D01*
X-28343242Y-15864955D01*
X-28499999Y-15844318D01*
X-28500001Y-15844318D01*
X-28656759Y-15864955D01*
X-28656767Y-15864957D01*
X-28802839Y-15925462D01*
X-28802840Y-15925462D01*
X-28928277Y-16021713D01*
X-28928287Y-16021723D01*
X-29024538Y-16147160D01*
X-29024538Y-16147161D01*
X-29085043Y-16293233D01*
X-29085045Y-16293241D01*
X-29105682Y-16449999D01*
X-29105682Y-16450000D01*
X-36455161Y-16450000D01*
X-36540802Y-16270443D01*
X-36541830Y-16268136D01*
X-37342255Y-14335691D01*
X-37343162Y-14333326D01*
X-37496622Y-13900012D01*
X-8250565Y-13900012D01*
X-8250232Y-13901740D01*
X-8189593Y-14284620D01*
X-8189379Y-14286371D01*
X-8189352Y-14286489D01*
X-8189294Y-14286622D01*
X-8188402Y-14288221D01*
X-8171029Y-14322312D01*
X-8012597Y-14633196D01*
X-8011739Y-14635055D01*
X-8010219Y-14636458D01*
X-7870384Y-14776323D01*
X-7736441Y-14910296D01*
X-7735082Y-14911764D01*
X-7735010Y-14911815D01*
X-7733122Y-14912681D01*
X-7388326Y-15088311D01*
X-7386459Y-15089360D01*
X-7384347Y-15089608D01*
X-7001953Y-15150197D01*
X-7000256Y-15150533D01*
X-6999612Y-15150528D01*
X-6997763Y-15150151D01*
X-6615676Y-15089611D01*
X-6613651Y-15089375D01*
X-6613422Y-15089300D01*
X-6611606Y-15088274D01*
X-6267013Y-14912748D01*
X-6265199Y-14911922D01*
X-6264731Y-14911582D01*
X-6263437Y-14910172D01*
X-5989913Y-14636587D01*
X-5988486Y-14635279D01*
X-5988138Y-14634803D01*
X-5987363Y-14633114D01*
X-5811730Y-14288475D01*
X-5810681Y-14286623D01*
X-5810603Y-14286387D01*
X-5810362Y-14284316D01*
X-5749850Y-13902235D01*
X-5749468Y-13900363D01*
X-5749464Y-13899682D01*
X-5749842Y-13897810D01*
X-5772683Y-13753589D01*
X-5810370Y-13515629D01*
X-5810617Y-13513513D01*
X-5811666Y-13511648D01*
X-5987413Y-13166784D01*
X-5988241Y-13164990D01*
X-5988292Y-13164921D01*
X-5989762Y-13163561D01*
X-6057526Y-13095782D01*
X-6161291Y-12991993D01*
X-6263568Y-12889693D01*
X-6264932Y-12888221D01*
X-6266773Y-12887371D01*
X-6611764Y-12711641D01*
X-6613354Y-12710751D01*
X-6613555Y-12710664D01*
X-6613632Y-12710646D01*
X-6615390Y-12710431D01*
X-6886353Y-12667500D01*
X-388182Y-12667500D01*
X-367545Y-12824258D01*
X-367543Y-12824266D01*
X-307038Y-12970338D01*
X-307038Y-12970339D01*
X-241168Y-13056182D01*
X-210782Y-13095782D01*
X-85341Y-13192036D01*
X-85340Y-13192036D01*
X-85339Y-13192037D01*
X-17405Y-13220176D01*
X60738Y-13252544D01*
X178309Y-13268022D01*
X217499Y-13273182D01*
X217500Y-13273182D01*
X217501Y-13273182D01*
X248852Y-13269054D01*
X374262Y-13252544D01*
X520341Y-13192036D01*
X645782Y-13095782D01*
X742036Y-12970341D01*
X802544Y-12824262D01*
X823182Y-12667500D01*
X802544Y-12510738D01*
X797116Y-12497633D01*
X777593Y-12450500D01*
X5794318Y-12450500D01*
X5814955Y-12607258D01*
X5814957Y-12607266D01*
X5875462Y-12753338D01*
X5875462Y-12753339D01*
X5966301Y-12871723D01*
X5971718Y-12878782D01*
X5971722Y-12878785D01*
X5971723Y-12878786D01*
X6000022Y-12900500D01*
X6097159Y-12975036D01*
X6097160Y-12975036D01*
X6097161Y-12975037D01*
X6150571Y-12997160D01*
X6243238Y-13035544D01*
X6360809Y-13051022D01*
X6399999Y-13056182D01*
X6400000Y-13056182D01*
X6400001Y-13056182D01*
X6431352Y-13052054D01*
X6556762Y-13035544D01*
X6702841Y-12975036D01*
X6773317Y-12920957D01*
X6830992Y-12900534D01*
X6833584Y-12900500D01*
X8220900Y-12900500D01*
X8279091Y-12919407D01*
X8315055Y-12968907D01*
X8319900Y-12999500D01*
X8319900Y-13337546D01*
X8319901Y-13337558D01*
X8331532Y-13396027D01*
X8331534Y-13396033D01*
X8372115Y-13456766D01*
X8375848Y-13462352D01*
X8442169Y-13506667D01*
X8476838Y-13513563D01*
X8500641Y-13518298D01*
X8500646Y-13518298D01*
X8500652Y-13518300D01*
X8500653Y-13518300D01*
X10064147Y-13518300D01*
X10064148Y-13518300D01*
X10122631Y-13506667D01*
X10188952Y-13462352D01*
X10188952Y-13462351D01*
X10197059Y-13456935D01*
X10199215Y-13460161D01*
X10237221Y-13440764D01*
X10297659Y-13450293D01*
X10313043Y-13459992D01*
X10343240Y-13483162D01*
X10397159Y-13524536D01*
X10543238Y-13585044D01*
X10660809Y-13600522D01*
X10699999Y-13605682D01*
X10700000Y-13605682D01*
X10700001Y-13605682D01*
X10731352Y-13601554D01*
X10856762Y-13585044D01*
X10999703Y-13525835D01*
X11037588Y-13518300D01*
X12590239Y-13518300D01*
X12648430Y-13537207D01*
X12684394Y-13586707D01*
X12688392Y-13630222D01*
X12676914Y-13717403D01*
X12676914Y-13717404D01*
X12696339Y-13864957D01*
X12697552Y-13874166D01*
X12718800Y-13925462D01*
X12752034Y-14005697D01*
X12756835Y-14066694D01*
X12724865Y-14118863D01*
X12668337Y-14142278D01*
X12641256Y-14140681D01*
X12604150Y-14133300D01*
X12604148Y-14133300D01*
X11040652Y-14133300D01*
X11040651Y-14133300D01*
X11040641Y-14133301D01*
X10982172Y-14144932D01*
X10982166Y-14144934D01*
X10915851Y-14189245D01*
X10915845Y-14189251D01*
X10871534Y-14255566D01*
X10871532Y-14255572D01*
X10859901Y-14314041D01*
X10859900Y-14314053D01*
X10859900Y-15877546D01*
X10859901Y-15877558D01*
X10871532Y-15936027D01*
X10871534Y-15936033D01*
X10904283Y-15985044D01*
X10915848Y-16002352D01*
X10982169Y-16046667D01*
X11026631Y-16055511D01*
X11040641Y-16058298D01*
X11040646Y-16058298D01*
X11040652Y-16058300D01*
X11040653Y-16058300D01*
X12604147Y-16058300D01*
X12604148Y-16058300D01*
X12662631Y-16046667D01*
X12698997Y-16022366D01*
X12743859Y-16008757D01*
X12743566Y-16006529D01*
X12749999Y-16005681D01*
X12750000Y-16005682D01*
X12906762Y-15985044D01*
X13052841Y-15924536D01*
X13178282Y-15828282D01*
X13222858Y-15770188D01*
X13273282Y-15735533D01*
X13334446Y-15737134D01*
X13382988Y-15774381D01*
X13400400Y-15830456D01*
X13400400Y-15877500D01*
X13412003Y-15935836D01*
X13456206Y-16001989D01*
X13456210Y-16001993D01*
X13522363Y-16046196D01*
X13580699Y-16057799D01*
X13580703Y-16057800D01*
X13624939Y-16057800D01*
X13683130Y-16076707D01*
X13719094Y-16126207D01*
X13719094Y-16187393D01*
X13683130Y-16236893D01*
X13662825Y-16248264D01*
X13597160Y-16275463D01*
X13471723Y-16371713D01*
X13471713Y-16371723D01*
X13375462Y-16497160D01*
X13375462Y-16497161D01*
X13314957Y-16643233D01*
X13314955Y-16643241D01*
X13294318Y-16799999D01*
X13294318Y-16800000D01*
X13314955Y-16956758D01*
X13314957Y-16956766D01*
X13375462Y-17102838D01*
X13375462Y-17102839D01*
X13471713Y-17228276D01*
X13471718Y-17228282D01*
X13597159Y-17324536D01*
X13597160Y-17324536D01*
X13597161Y-17324537D01*
X13625147Y-17336129D01*
X13743238Y-17385044D01*
X13860809Y-17400522D01*
X13899999Y-17405682D01*
X13900000Y-17405682D01*
X13900001Y-17405682D01*
X13931352Y-17401554D01*
X14056762Y-17385044D01*
X14202841Y-17324536D01*
X14328282Y-17228282D01*
X14424536Y-17102841D01*
X14485044Y-16956762D01*
X14505682Y-16800000D01*
X14485044Y-16643238D01*
X14477297Y-16624536D01*
X14424537Y-16497161D01*
X14424537Y-16497160D01*
X14328286Y-16371723D01*
X14328285Y-16371722D01*
X14328282Y-16371718D01*
X14328277Y-16371714D01*
X14328276Y-16371713D01*
X14257104Y-16317101D01*
X14202841Y-16275464D01*
X14202840Y-16275463D01*
X14202838Y-16275462D01*
X14119035Y-16240750D01*
X14072509Y-16201014D01*
X14058225Y-16141519D01*
X14075423Y-16100000D01*
X18794318Y-16100000D01*
X18814955Y-16256758D01*
X18814957Y-16256766D01*
X18875462Y-16402838D01*
X18875462Y-16402839D01*
X18961493Y-16514957D01*
X18971718Y-16528282D01*
X19097159Y-16624536D01*
X19097160Y-16624536D01*
X19097161Y-16624537D01*
X19211054Y-16671713D01*
X19243238Y-16685044D01*
X19360809Y-16700522D01*
X19399999Y-16705682D01*
X19400000Y-16705682D01*
X19400001Y-16705682D01*
X19431352Y-16701554D01*
X19556762Y-16685044D01*
X19702841Y-16624536D01*
X19828282Y-16528282D01*
X19924536Y-16402841D01*
X19985044Y-16256762D01*
X20005682Y-16100000D01*
X19985044Y-15943238D01*
X19977297Y-15924536D01*
X19924537Y-15797161D01*
X19924537Y-15797160D01*
X19828286Y-15671723D01*
X19828285Y-15671722D01*
X19828282Y-15671718D01*
X19828277Y-15671714D01*
X19828276Y-15671713D01*
X19702838Y-15575462D01*
X19556766Y-15514957D01*
X19556758Y-15514955D01*
X19443161Y-15500000D01*
X20194318Y-15500000D01*
X20214955Y-15656758D01*
X20214957Y-15656766D01*
X20275462Y-15802838D01*
X20275462Y-15802839D01*
X20371713Y-15928276D01*
X20371718Y-15928282D01*
X20371722Y-15928285D01*
X20371723Y-15928286D01*
X20381817Y-15936031D01*
X20497159Y-16024536D01*
X20497160Y-16024536D01*
X20497161Y-16024537D01*
X20623111Y-16076707D01*
X20643238Y-16085044D01*
X20756552Y-16099962D01*
X20799999Y-16105682D01*
X20800000Y-16105682D01*
X20800001Y-16105682D01*
X20843167Y-16099999D01*
X20956762Y-16085044D01*
X21102841Y-16024536D01*
X21228282Y-15928282D01*
X21324536Y-15802841D01*
X21385044Y-15656762D01*
X21405682Y-15500000D01*
X21404807Y-15493357D01*
X21385044Y-15343241D01*
X21385044Y-15343238D01*
X21324537Y-15197161D01*
X21324537Y-15197160D01*
X21228286Y-15071723D01*
X21228285Y-15071722D01*
X21228282Y-15071718D01*
X21228277Y-15071714D01*
X21228276Y-15071713D01*
X21102838Y-14975462D01*
X20956766Y-14914957D01*
X20956758Y-14914955D01*
X20800001Y-14894318D01*
X20799999Y-14894318D01*
X20643241Y-14914955D01*
X20643233Y-14914957D01*
X20497161Y-14975462D01*
X20497160Y-14975462D01*
X20371723Y-15071713D01*
X20371713Y-15071723D01*
X20275462Y-15197160D01*
X20275462Y-15197161D01*
X20214957Y-15343233D01*
X20214955Y-15343241D01*
X20194318Y-15499999D01*
X20194318Y-15500000D01*
X19443161Y-15500000D01*
X19400001Y-15494318D01*
X19399999Y-15494318D01*
X19243241Y-15514955D01*
X19243233Y-15514957D01*
X19097161Y-15575462D01*
X19097160Y-15575462D01*
X18971723Y-15671713D01*
X18971713Y-15671723D01*
X18875462Y-15797160D01*
X18875462Y-15797161D01*
X18814957Y-15943233D01*
X18814955Y-15943241D01*
X18794318Y-16099999D01*
X18794318Y-16100000D01*
X14075423Y-16100000D01*
X14081640Y-16084991D01*
X14086917Y-16079282D01*
X14108400Y-16057799D01*
X14616400Y-16057799D01*
X14616401Y-16057800D01*
X15144097Y-16057800D01*
X15144100Y-16057799D01*
X15202436Y-16046196D01*
X15268589Y-16001993D01*
X15268593Y-16001989D01*
X15312796Y-15935836D01*
X15324399Y-15877500D01*
X15324400Y-15877497D01*
X15324400Y-15349801D01*
X15324399Y-15349800D01*
X14616401Y-15349800D01*
X14616400Y-15349801D01*
X14616400Y-16057799D01*
X14108400Y-16057799D01*
X14108400Y-14841799D01*
X14616400Y-14841799D01*
X14616401Y-14841800D01*
X15324399Y-14841800D01*
X15324400Y-14841799D01*
X15324400Y-14450000D01*
X21694318Y-14450000D01*
X21714955Y-14606758D01*
X21714957Y-14606766D01*
X21775462Y-14752838D01*
X21775462Y-14752839D01*
X21871713Y-14878276D01*
X21871718Y-14878282D01*
X21997159Y-14974536D01*
X21997160Y-14974536D01*
X21997161Y-14974537D01*
X21999399Y-14975464D01*
X22143238Y-15035044D01*
X22260809Y-15050522D01*
X22299999Y-15055682D01*
X22300000Y-15055682D01*
X22300001Y-15055682D01*
X22331352Y-15051554D01*
X22456762Y-15035044D01*
X22602841Y-14974536D01*
X22728282Y-14878282D01*
X22824536Y-14752841D01*
X22885044Y-14606762D01*
X22905682Y-14450000D01*
X22885044Y-14293238D01*
X22882271Y-14286543D01*
X22824537Y-14147161D01*
X22824537Y-14147160D01*
X22728286Y-14021723D01*
X22728285Y-14021722D01*
X22728282Y-14021718D01*
X22728277Y-14021714D01*
X22728276Y-14021713D01*
X22602838Y-13925462D01*
X22456766Y-13864957D01*
X22456758Y-13864955D01*
X22300001Y-13844318D01*
X22299999Y-13844318D01*
X22143241Y-13864955D01*
X22143233Y-13864957D01*
X21997161Y-13925462D01*
X21997160Y-13925462D01*
X21871723Y-14021713D01*
X21871713Y-14021723D01*
X21775462Y-14147160D01*
X21775462Y-14147161D01*
X21714957Y-14293233D01*
X21714955Y-14293241D01*
X21694318Y-14449999D01*
X21694318Y-14450000D01*
X15324400Y-14450000D01*
X15324400Y-14314102D01*
X15324399Y-14314099D01*
X15312796Y-14255763D01*
X15268593Y-14189610D01*
X15268589Y-14189606D01*
X15202436Y-14145403D01*
X15144100Y-14133800D01*
X14616401Y-14133800D01*
X14616400Y-14133801D01*
X14616400Y-14841799D01*
X14108400Y-14841799D01*
X14108400Y-14133800D01*
X13908260Y-14133800D01*
X13850069Y-14114893D01*
X13814105Y-14065393D01*
X13814105Y-14004207D01*
X13816796Y-13996914D01*
X13867640Y-13874166D01*
X13879127Y-13786906D01*
X13905467Y-13731682D01*
X13907234Y-13729868D01*
X14089807Y-13547296D01*
X14144325Y-13519519D01*
X14159811Y-13518300D01*
X15144147Y-13518300D01*
X15144148Y-13518300D01*
X15202631Y-13506667D01*
X15268952Y-13462352D01*
X15313267Y-13396031D01*
X15324900Y-13337548D01*
X15324900Y-13300000D01*
X26794318Y-13300000D01*
X26814955Y-13456758D01*
X26814957Y-13456766D01*
X26875462Y-13602838D01*
X26875462Y-13602839D01*
X26875464Y-13602841D01*
X26971718Y-13728282D01*
X27097159Y-13824536D01*
X27097160Y-13824536D01*
X27097161Y-13824537D01*
X27216976Y-13874166D01*
X27243238Y-13885044D01*
X27340206Y-13897810D01*
X27399999Y-13905682D01*
X27400000Y-13905682D01*
X27400001Y-13905682D01*
X27442392Y-13900101D01*
X27556762Y-13885044D01*
X27702841Y-13824536D01*
X27828282Y-13728282D01*
X27924536Y-13602841D01*
X27985044Y-13456762D01*
X28005682Y-13300000D01*
X27985044Y-13143238D01*
X27924537Y-12997161D01*
X27924537Y-12997160D01*
X27828286Y-12871723D01*
X27828285Y-12871722D01*
X27828282Y-12871718D01*
X27828277Y-12871714D01*
X27828276Y-12871713D01*
X27702838Y-12775462D01*
X27556766Y-12714957D01*
X27556758Y-12714955D01*
X27400001Y-12694318D01*
X27399999Y-12694318D01*
X27243241Y-12714955D01*
X27243233Y-12714957D01*
X27097161Y-12775462D01*
X27097160Y-12775462D01*
X26971723Y-12871713D01*
X26971713Y-12871723D01*
X26875462Y-12997160D01*
X26875462Y-12997161D01*
X26814957Y-13143233D01*
X26814955Y-13143241D01*
X26794318Y-13299999D01*
X26794318Y-13300000D01*
X15324900Y-13300000D01*
X15324900Y-11774052D01*
X15313267Y-11715569D01*
X15268952Y-11649248D01*
X15268948Y-11649245D01*
X15202633Y-11604934D01*
X15202631Y-11604933D01*
X15202628Y-11604932D01*
X15202627Y-11604932D01*
X15144158Y-11593301D01*
X15144148Y-11593300D01*
X13580652Y-11593300D01*
X13580651Y-11593300D01*
X13580641Y-11593301D01*
X13522172Y-11604932D01*
X13522166Y-11604934D01*
X13455851Y-11649245D01*
X13455845Y-11649251D01*
X13411534Y-11715566D01*
X13411532Y-11715572D01*
X13399901Y-11774041D01*
X13399900Y-11774053D01*
X13399900Y-12921989D01*
X13380993Y-12980180D01*
X13370903Y-12991993D01*
X13270173Y-13092722D01*
X13215657Y-13120499D01*
X13213093Y-13120871D01*
X13125833Y-13132360D01*
X12979757Y-13192866D01*
X12944166Y-13220176D01*
X12886490Y-13240599D01*
X12827825Y-13223221D01*
X12790578Y-13174679D01*
X12784900Y-13141633D01*
X12784900Y-11774053D01*
X12784898Y-11774041D01*
X12782111Y-11760031D01*
X12773267Y-11715569D01*
X12728952Y-11649248D01*
X12728948Y-11649245D01*
X12662633Y-11604934D01*
X12662631Y-11604933D01*
X12662628Y-11604932D01*
X12662627Y-11604932D01*
X12604158Y-11593301D01*
X12604148Y-11593300D01*
X11040652Y-11593300D01*
X11040651Y-11593300D01*
X11040641Y-11593301D01*
X10982172Y-11604932D01*
X10982166Y-11604934D01*
X10915851Y-11649245D01*
X10915845Y-11649251D01*
X10871534Y-11715566D01*
X10871532Y-11715572D01*
X10859901Y-11774041D01*
X10859900Y-11774053D01*
X10859900Y-12302481D01*
X10840993Y-12360672D01*
X10791493Y-12396636D01*
X10747979Y-12400634D01*
X10700002Y-12394318D01*
X10699999Y-12394318D01*
X10543241Y-12414955D01*
X10543233Y-12414957D01*
X10397161Y-12475462D01*
X10393404Y-12477632D01*
X10333556Y-12490356D01*
X10277660Y-12465473D01*
X10247064Y-12412486D01*
X10244900Y-12391898D01*
X10244900Y-11774053D01*
X10244898Y-11774041D01*
X10242111Y-11760031D01*
X10233267Y-11715569D01*
X10188952Y-11649248D01*
X10188948Y-11649245D01*
X10122633Y-11604934D01*
X10122631Y-11604933D01*
X10122628Y-11604932D01*
X10122627Y-11604932D01*
X10064158Y-11593301D01*
X10064148Y-11593300D01*
X8500652Y-11593300D01*
X8500651Y-11593300D01*
X8500641Y-11593301D01*
X8442172Y-11604932D01*
X8442166Y-11604934D01*
X8375851Y-11649245D01*
X8375845Y-11649251D01*
X8331534Y-11715566D01*
X8331532Y-11715572D01*
X8319901Y-11774041D01*
X8319900Y-11774053D01*
X8319900Y-11900500D01*
X8300993Y-11958691D01*
X8251493Y-11994655D01*
X8220900Y-11999500D01*
X6832281Y-11999500D01*
X6774090Y-11980593D01*
X6772014Y-11979042D01*
X6702838Y-11925962D01*
X6556766Y-11865457D01*
X6556758Y-11865455D01*
X6400001Y-11844818D01*
X6399999Y-11844818D01*
X6243241Y-11865455D01*
X6243233Y-11865457D01*
X6097161Y-11925962D01*
X6097160Y-11925962D01*
X5971723Y-12022213D01*
X5971713Y-12022223D01*
X5875462Y-12147660D01*
X5875462Y-12147661D01*
X5814957Y-12293733D01*
X5814955Y-12293741D01*
X5794318Y-12450499D01*
X5794318Y-12450500D01*
X777593Y-12450500D01*
X742037Y-12364661D01*
X742037Y-12364660D01*
X645786Y-12239223D01*
X645785Y-12239222D01*
X645782Y-12239218D01*
X645777Y-12239214D01*
X645776Y-12239213D01*
X526461Y-12147660D01*
X520341Y-12142964D01*
X520340Y-12142963D01*
X520338Y-12142962D01*
X374266Y-12082457D01*
X374258Y-12082455D01*
X217501Y-12061818D01*
X217499Y-12061818D01*
X60741Y-12082455D01*
X60733Y-12082457D01*
X-85339Y-12142962D01*
X-85340Y-12142962D01*
X-210777Y-12239213D01*
X-210787Y-12239223D01*
X-307038Y-12364660D01*
X-307038Y-12364661D01*
X-367543Y-12510733D01*
X-367545Y-12510741D01*
X-388182Y-12667499D01*
X-388182Y-12667500D01*
X-6886353Y-12667500D01*
X-6998277Y-12649767D01*
X-6999993Y-12649436D01*
X-7001676Y-12649759D01*
X-7384637Y-12710435D01*
X-7386126Y-12710618D01*
X-7386417Y-12710687D01*
X-7386789Y-12710842D01*
X-7388093Y-12711567D01*
X-7733405Y-12887460D01*
X-7734989Y-12888198D01*
X-7735052Y-12888236D01*
X-7735120Y-12888294D01*
X-7736304Y-12889564D01*
X-8010475Y-13163794D01*
X-8011697Y-13164938D01*
X-8011799Y-13165105D01*
X-8012506Y-13166621D01*
X-8188480Y-13511933D01*
X-8189206Y-13513242D01*
X-8189330Y-13513539D01*
X-8189406Y-13513865D01*
X-8189589Y-13515357D01*
X-8250242Y-13898327D01*
X-8250565Y-13900012D01*
X-37496622Y-13900012D01*
X-38041405Y-12361743D01*
X-38042182Y-12359352D01*
X-38079920Y-12231937D01*
X-19434114Y-12231937D01*
X-19263771Y-12526980D01*
X-19263766Y-12526987D01*
X-19224545Y-12571710D01*
X-19153186Y-12606900D01*
X-19073795Y-12612104D01*
X-19073793Y-12612103D01*
X-19017466Y-12592984D01*
X-18852319Y-12497636D01*
X-18852319Y-12497633D01*
X-19112818Y-12046436D01*
X-19112819Y-12046436D01*
X-19434114Y-12231936D01*
X-19434114Y-12231937D01*
X-38079920Y-12231937D01*
X-38634897Y-10358156D01*
X-20503087Y-10358156D01*
X-20483924Y-10414611D01*
X-20032120Y-11197159D01*
X-19989172Y-11271546D01*
X-19949856Y-11316378D01*
X-19931285Y-11325536D01*
X-19887459Y-11368229D01*
X-19876284Y-11420799D01*
X-19877583Y-11440613D01*
X-19877582Y-11440620D01*
X-19858467Y-11496931D01*
X-19858464Y-11496938D01*
X-19688114Y-11791994D01*
X-19012613Y-11401995D01*
X-18952765Y-11389274D01*
X-18896869Y-11414161D01*
X-18877376Y-11438232D01*
X-18701456Y-11742935D01*
X-18701456Y-11742936D01*
X-18412378Y-12243635D01*
X-18247227Y-12148287D01*
X-18247225Y-12148285D01*
X-18202508Y-12109069D01*
X-18202507Y-12109066D01*
X-18196384Y-12096652D01*
X-18153690Y-12052824D01*
X-18101117Y-12041649D01*
X-18098765Y-12041803D01*
X-18086456Y-12042610D01*
X-18029992Y-12023443D01*
X-17155742Y-11518695D01*
X-17134425Y-11500000D01*
X21694318Y-11500000D01*
X21714955Y-11656758D01*
X21714957Y-11656766D01*
X21775462Y-11802838D01*
X21775462Y-11802839D01*
X21869939Y-11925964D01*
X21871718Y-11928282D01*
X21997159Y-12024536D01*
X21997160Y-12024536D01*
X21997161Y-12024537D01*
X22136990Y-12082456D01*
X22143238Y-12085044D01*
X22260809Y-12100522D01*
X22299999Y-12105682D01*
X22300000Y-12105682D01*
X22300001Y-12105682D01*
X22331352Y-12101554D01*
X22456762Y-12085044D01*
X22602841Y-12024536D01*
X22728282Y-11928282D01*
X22824536Y-11802841D01*
X22885044Y-11656762D01*
X22905682Y-11500000D01*
X22885044Y-11343238D01*
X22873918Y-11316377D01*
X22824537Y-11197161D01*
X22824537Y-11197160D01*
X22728286Y-11071723D01*
X22728285Y-11071722D01*
X22728282Y-11071718D01*
X22728277Y-11071714D01*
X22728276Y-11071713D01*
X22657104Y-11017101D01*
X22602841Y-10975464D01*
X22602840Y-10975463D01*
X22602838Y-10975462D01*
X22456766Y-10914957D01*
X22456758Y-10914955D01*
X22300001Y-10894318D01*
X22299999Y-10894318D01*
X22143241Y-10914955D01*
X22143233Y-10914957D01*
X21997161Y-10975462D01*
X21997160Y-10975462D01*
X21871723Y-11071713D01*
X21871713Y-11071723D01*
X21775462Y-11197160D01*
X21775462Y-11197161D01*
X21714957Y-11343233D01*
X21714955Y-11343241D01*
X21694318Y-11499999D01*
X21694318Y-11500000D01*
X-17134425Y-11500000D01*
X-17110911Y-11479379D01*
X-17075633Y-11407840D01*
X-17070416Y-11328247D01*
X-17089583Y-11271783D01*
X-17182357Y-11111094D01*
X-17195077Y-11051247D01*
X-17170190Y-10995352D01*
X-17166642Y-10991611D01*
X-17133595Y-10958564D01*
X-17122336Y-10950493D01*
X-17123095Y-10949487D01*
X-17115779Y-10943961D01*
X-17115772Y-10943958D01*
X-17083368Y-10908411D01*
X-17081814Y-10906783D01*
X-17067826Y-10892797D01*
X-17065819Y-10889865D01*
X-17061560Y-10884490D01*
X-17040084Y-10860933D01*
X-17036535Y-10851770D01*
X-17025894Y-10831582D01*
X-17020344Y-10823481D01*
X-17013046Y-10792447D01*
X-17011016Y-10785896D01*
X-16999500Y-10756173D01*
X-16999501Y-10746348D01*
X-16996871Y-10723682D01*
X-16994621Y-10714119D01*
X-16999025Y-10682545D01*
X-16999500Y-10675699D01*
X-16999500Y-8610980D01*
X-8162640Y-8610980D01*
X-8142003Y-8767738D01*
X-8142001Y-8767746D01*
X-8081496Y-8913818D01*
X-8081496Y-8913819D01*
X-7985245Y-9039256D01*
X-7985240Y-9039262D01*
X-7859799Y-9135516D01*
X-7713720Y-9196024D01*
X-7596149Y-9211502D01*
X-7556959Y-9216662D01*
X-7556958Y-9216662D01*
X-7556957Y-9216662D01*
X-7525606Y-9212534D01*
X-7400196Y-9196024D01*
X-7254117Y-9135516D01*
X-7128676Y-9039262D01*
X-7032422Y-8913821D01*
X-6971914Y-8767742D01*
X-6951276Y-8610980D01*
X-6952722Y-8600000D01*
X-6971914Y-8454221D01*
X-6971914Y-8454218D01*
X-7028889Y-8316668D01*
X-7032421Y-8308141D01*
X-7032421Y-8308140D01*
X-7128672Y-8182703D01*
X-7128673Y-8182702D01*
X-7128676Y-8182698D01*
X-7128681Y-8182694D01*
X-7128682Y-8182693D01*
X-7254120Y-8086442D01*
X-7400192Y-8025937D01*
X-7400200Y-8025935D01*
X-7556957Y-8005298D01*
X-7556959Y-8005298D01*
X-7713717Y-8025935D01*
X-7713725Y-8025937D01*
X-7859797Y-8086442D01*
X-7859798Y-8086442D01*
X-7985235Y-8182693D01*
X-7985245Y-8182703D01*
X-8081496Y-8308140D01*
X-8081496Y-8308141D01*
X-8142001Y-8454213D01*
X-8142003Y-8454221D01*
X-8162640Y-8610979D01*
X-8162640Y-8610980D01*
X-16999500Y-8610980D01*
X-16999500Y-6450000D01*
X-8355682Y-6450000D01*
X-8335045Y-6606758D01*
X-8335043Y-6606766D01*
X-8274538Y-6752838D01*
X-8274538Y-6752839D01*
X-8215822Y-6829359D01*
X-8178282Y-6878282D01*
X-8052841Y-6974536D01*
X-8052840Y-6974536D01*
X-8052839Y-6974537D01*
X-8005083Y-6994318D01*
X-7906762Y-7035044D01*
X-7789191Y-7050522D01*
X-7750001Y-7055682D01*
X-7750000Y-7055682D01*
X-7749999Y-7055682D01*
X-7718648Y-7051554D01*
X-7593238Y-7035044D01*
X-7447159Y-6974536D01*
X-7321718Y-6878282D01*
X-7225464Y-6752841D01*
X-7164956Y-6606762D01*
X-7144318Y-6450000D01*
X-7164956Y-6293238D01*
X-7164958Y-6293233D01*
X-7225463Y-6147161D01*
X-7225463Y-6147160D01*
X-7321714Y-6021723D01*
X-7321715Y-6021722D01*
X-7321718Y-6021718D01*
X-7321723Y-6021714D01*
X-7321724Y-6021713D01*
X-7447162Y-5925462D01*
X-7593234Y-5864957D01*
X-7593242Y-5864955D01*
X-7749999Y-5844318D01*
X-7750001Y-5844318D01*
X-7906759Y-5864955D01*
X-7906767Y-5864957D01*
X-8052839Y-5925462D01*
X-8052840Y-5925462D01*
X-8178277Y-6021713D01*
X-8178287Y-6021723D01*
X-8274538Y-6147160D01*
X-8274538Y-6147161D01*
X-8335043Y-6293233D01*
X-8335045Y-6293241D01*
X-8355682Y-6449999D01*
X-8355682Y-6450000D01*
X-16999500Y-6450000D01*
X-16999500Y-5800000D01*
X-15305682Y-5800000D01*
X-15285045Y-5956758D01*
X-15285043Y-5956766D01*
X-15224538Y-6102838D01*
X-15224538Y-6102839D01*
X-15133362Y-6221662D01*
X-15128282Y-6228282D01*
X-15002841Y-6324536D01*
X-15002840Y-6324536D01*
X-15002839Y-6324537D01*
X-14872742Y-6378425D01*
X-14856762Y-6385044D01*
X-14743167Y-6399999D01*
X-14700001Y-6405682D01*
X-14700000Y-6405682D01*
X-14699999Y-6405682D01*
X-14656833Y-6399999D01*
X-14543238Y-6385044D01*
X-14397159Y-6324536D01*
X-14271718Y-6228282D01*
X-14175464Y-6102841D01*
X-14114956Y-5956762D01*
X-14094318Y-5800000D01*
X-14097805Y-5773517D01*
X-14107738Y-5698063D01*
X-14114956Y-5643238D01*
X-14155736Y-5544786D01*
X-14175463Y-5497161D01*
X-14175463Y-5497160D01*
X-14271714Y-5371723D01*
X-14271715Y-5371722D01*
X-14271718Y-5371718D01*
X-14271723Y-5371714D01*
X-14271724Y-5371713D01*
X-14384677Y-5285042D01*
X-14397159Y-5275464D01*
X-14397160Y-5275463D01*
X-14397162Y-5275462D01*
X-14543234Y-5214957D01*
X-14543242Y-5214955D01*
X-14699999Y-5194318D01*
X-14700001Y-5194318D01*
X-14856759Y-5214955D01*
X-14856767Y-5214957D01*
X-15002839Y-5275462D01*
X-15002840Y-5275462D01*
X-15128277Y-5371713D01*
X-15128287Y-5371723D01*
X-15224538Y-5497160D01*
X-15224538Y-5497161D01*
X-15285043Y-5643233D01*
X-15285045Y-5643241D01*
X-15305682Y-5799999D01*
X-15305682Y-5800000D01*
X-16999500Y-5800000D01*
X-16999500Y-5789669D01*
X-16997269Y-5775996D01*
X-16998495Y-5775825D01*
X-16997227Y-5766733D01*
X-16999447Y-5718716D01*
X-16999500Y-5716429D01*
X-16999500Y-5696660D01*
X-16999500Y-5696656D01*
X-17000154Y-5693164D01*
X-17000944Y-5686359D01*
X-17002415Y-5654509D01*
X-17006387Y-5645514D01*
X-17013135Y-5623720D01*
X-17014939Y-5614067D01*
X-17031722Y-5586962D01*
X-17034915Y-5580906D01*
X-17043910Y-5560531D01*
X-17047793Y-5551736D01*
X-17054743Y-5544786D01*
X-17068912Y-5526896D01*
X-17074080Y-5518549D01*
X-17074081Y-5518548D01*
X-17099517Y-5499339D01*
X-17104694Y-5494834D01*
X-17705320Y-4894209D01*
X-17733097Y-4839692D01*
X-17733469Y-4811283D01*
X-17731983Y-4800000D01*
X-17718818Y-4700000D01*
X-17739456Y-4543238D01*
X-17758542Y-4497160D01*
X-17799963Y-4397161D01*
X-17799963Y-4397160D01*
X-17896214Y-4271723D01*
X-17896215Y-4271722D01*
X-17896218Y-4271718D01*
X-17896223Y-4271714D01*
X-17896224Y-4271713D01*
X-18014056Y-4181298D01*
X-18021659Y-4175464D01*
X-18021660Y-4175463D01*
X-18021662Y-4175462D01*
X-18167734Y-4114957D01*
X-18167742Y-4114955D01*
X-18324499Y-4094318D01*
X-18324501Y-4094318D01*
X-18481259Y-4114955D01*
X-18481267Y-4114957D01*
X-18627339Y-4175462D01*
X-18627340Y-4175462D01*
X-18752777Y-4271713D01*
X-18752787Y-4271723D01*
X-18849038Y-4397160D01*
X-18849038Y-4397161D01*
X-18909543Y-4543233D01*
X-18909545Y-4543241D01*
X-18930182Y-4699999D01*
X-18930182Y-4700000D01*
X-18909545Y-4856758D01*
X-18909543Y-4856766D01*
X-18849038Y-5002838D01*
X-18849038Y-5002839D01*
X-18795328Y-5072835D01*
X-18752782Y-5128282D01*
X-18627341Y-5224536D01*
X-18627340Y-5224536D01*
X-18627339Y-5224537D01*
X-18618288Y-5228286D01*
X-18481262Y-5285044D01*
X-18363691Y-5300522D01*
X-18324501Y-5305682D01*
X-18324500Y-5305682D01*
X-18213216Y-5291031D01*
X-18153057Y-5302181D01*
X-18130291Y-5319180D01*
X-17629496Y-5819974D01*
X-17601719Y-5874491D01*
X-17600500Y-5889978D01*
X-17600500Y-10048634D01*
X-17619407Y-10106825D01*
X-17668907Y-10142789D01*
X-17730093Y-10142789D01*
X-17779593Y-10106825D01*
X-17793246Y-10080458D01*
X-17815044Y-10016249D01*
X-17935391Y-9807802D01*
X-17935393Y-9807802D01*
X-18662851Y-10227802D01*
X-18722699Y-10240524D01*
X-18778595Y-10215637D01*
X-18798087Y-10191566D01*
X-18996070Y-9848651D01*
X-18996071Y-9848648D01*
X-19213088Y-9472764D01*
X-19213089Y-9472764D01*
X-19220848Y-9477244D01*
X-19280696Y-9489965D01*
X-19336592Y-9465078D01*
X-19367184Y-9412089D01*
X-19369347Y-9391507D01*
X-19369347Y-9218764D01*
X-18773147Y-9218764D01*
X-18562647Y-9583360D01*
X-18189391Y-9367861D01*
X-18309738Y-9159413D01*
X-18348960Y-9114689D01*
X-18420316Y-9079500D01*
X-18420315Y-9079500D01*
X-18499710Y-9074296D01*
X-18499715Y-9074296D01*
X-18556026Y-9093411D01*
X-18556033Y-9093414D01*
X-18773147Y-9218764D01*
X-19369347Y-9218764D01*
X-19369347Y-7370680D01*
X-19350440Y-7312489D01*
X-19340351Y-7300677D01*
X-19108883Y-7069209D01*
X-18869034Y-6829358D01*
X-18814517Y-6801581D01*
X-18770755Y-6806763D01*
X-18770289Y-6805027D01*
X-18764027Y-6806704D01*
X-18764021Y-6806707D01*
X-18646450Y-6822185D01*
X-18607260Y-6827345D01*
X-18607259Y-6827345D01*
X-18607258Y-6827345D01*
X-18575907Y-6823217D01*
X-18450497Y-6806707D01*
X-18304418Y-6746199D01*
X-18178977Y-6649945D01*
X-18082723Y-6524504D01*
X-18022215Y-6378425D01*
X-18001577Y-6221663D01*
X-18022215Y-6064901D01*
X-18056242Y-5982753D01*
X-18082722Y-5918824D01*
X-18082722Y-5918823D01*
X-18178973Y-5793386D01*
X-18178974Y-5793385D01*
X-18178977Y-5793381D01*
X-18178982Y-5793377D01*
X-18178983Y-5793376D01*
X-18276283Y-5718716D01*
X-18304418Y-5697127D01*
X-18304419Y-5697126D01*
X-18304421Y-5697125D01*
X-18450493Y-5636620D01*
X-18450501Y-5636618D01*
X-18607258Y-5615981D01*
X-18607260Y-5615981D01*
X-18764018Y-5636618D01*
X-18764026Y-5636620D01*
X-18910098Y-5697125D01*
X-18910099Y-5697125D01*
X-19035536Y-5793376D01*
X-19035546Y-5793386D01*
X-19131797Y-5918823D01*
X-19131797Y-5918824D01*
X-19192302Y-6064896D01*
X-19192304Y-6064903D01*
X-19213248Y-6223988D01*
X-19239589Y-6279213D01*
X-19241397Y-6281069D01*
X-19913434Y-6953106D01*
X-19916618Y-6956023D01*
X-19948040Y-6982389D01*
X-19948041Y-6982391D01*
X-19968555Y-7017922D01*
X-19970875Y-7021563D01*
X-19994401Y-7055163D01*
X-19994405Y-7055171D01*
X-19994796Y-7056633D01*
X-20004677Y-7080487D01*
X-20005433Y-7081795D01*
X-20005437Y-7081807D01*
X-20012560Y-7122196D01*
X-20013494Y-7126411D01*
X-20024111Y-7166034D01*
X-20024111Y-7166040D01*
X-20020535Y-7206919D01*
X-20020347Y-7211220D01*
X-20020347Y-9881101D01*
X-20039254Y-9939292D01*
X-20069847Y-9966837D01*
X-20417757Y-10167703D01*
X-20462593Y-10207024D01*
X-20497870Y-10278558D01*
X-20503087Y-10358150D01*
X-20503087Y-10358156D01*
X-38634897Y-10358156D01*
X-38636159Y-10353896D01*
X-38636827Y-10351401D01*
X-38654316Y-10278558D01*
X-39057319Y-8600000D01*
X-30964682Y-8600000D01*
X-30944045Y-8756758D01*
X-30944043Y-8756766D01*
X-30883538Y-8902838D01*
X-30883538Y-8902839D01*
X-30875111Y-8913821D01*
X-30787282Y-9028282D01*
X-30661841Y-9124536D01*
X-30515762Y-9185044D01*
X-30398191Y-9200522D01*
X-30359001Y-9205682D01*
X-30359000Y-9205682D01*
X-30358999Y-9205682D01*
X-30327648Y-9201554D01*
X-30202238Y-9185044D01*
X-30056159Y-9124536D01*
X-29930718Y-9028282D01*
X-29834464Y-8902841D01*
X-29773956Y-8756762D01*
X-29753318Y-8600000D01*
X-29773956Y-8443238D01*
X-29825974Y-8317655D01*
X-29834463Y-8297161D01*
X-29834463Y-8297160D01*
X-29930714Y-8171723D01*
X-29930715Y-8171722D01*
X-29930718Y-8171718D01*
X-29930723Y-8171714D01*
X-29930724Y-8171713D01*
X-30056162Y-8075462D01*
X-30202234Y-8014957D01*
X-30202242Y-8014955D01*
X-30358999Y-7994318D01*
X-30359001Y-7994318D01*
X-30515759Y-8014955D01*
X-30515767Y-8014957D01*
X-30661839Y-8075462D01*
X-30661840Y-8075462D01*
X-30787277Y-8171713D01*
X-30787287Y-8171723D01*
X-30883538Y-8297160D01*
X-30883538Y-8297161D01*
X-30944043Y-8443233D01*
X-30944045Y-8443241D01*
X-30964682Y-8599999D01*
X-30964682Y-8600000D01*
X-39057319Y-8600000D01*
X-39125115Y-8317620D01*
X-39125651Y-8315094D01*
X-39506778Y-6258553D01*
X-39507173Y-6256062D01*
X-39751580Y-4399999D01*
X-39780238Y-4182363D01*
X-39780509Y-4179784D01*
X-39819922Y-3678972D01*
X-27234654Y-3678972D01*
X-27214017Y-3835730D01*
X-27214015Y-3835738D01*
X-27153510Y-3981810D01*
X-27153510Y-3981811D01*
X-27057259Y-4107248D01*
X-27057254Y-4107254D01*
X-26931813Y-4203508D01*
X-26931812Y-4203508D01*
X-26931811Y-4203509D01*
X-26835889Y-4243241D01*
X-26785734Y-4264016D01*
X-26698777Y-4275464D01*
X-26628973Y-4284654D01*
X-26628972Y-4284654D01*
X-26628971Y-4284654D01*
X-26597620Y-4280526D01*
X-26472210Y-4264016D01*
X-26326131Y-4203508D01*
X-26200690Y-4107254D01*
X-26104436Y-3981813D01*
X-26043928Y-3835734D01*
X-26023290Y-3678972D01*
X-26026710Y-3652998D01*
X-26043928Y-3522213D01*
X-26043928Y-3522210D01*
X-26044134Y-3521713D01*
X-26104435Y-3376133D01*
X-26104435Y-3376132D01*
X-26200686Y-3250695D01*
X-26200687Y-3250694D01*
X-26200690Y-3250690D01*
X-26200695Y-3250686D01*
X-26200696Y-3250685D01*
X-26326134Y-3154434D01*
X-26472206Y-3093929D01*
X-26472214Y-3093927D01*
X-26628971Y-3073290D01*
X-26628973Y-3073290D01*
X-26785731Y-3093927D01*
X-26785739Y-3093929D01*
X-26931811Y-3154434D01*
X-26931812Y-3154434D01*
X-27057249Y-3250685D01*
X-27057259Y-3250695D01*
X-27153510Y-3376132D01*
X-27153510Y-3376133D01*
X-27214015Y-3522205D01*
X-27214017Y-3522213D01*
X-27234654Y-3678971D01*
X-27234654Y-3678972D01*
X-39819922Y-3678972D01*
X-39822425Y-3647161D01*
X-39881451Y-2897131D01*
X-15981182Y-2897131D01*
X-15960545Y-3053889D01*
X-15960543Y-3053897D01*
X-15900038Y-3199969D01*
X-15900038Y-3199970D01*
X-15803787Y-3325407D01*
X-15803782Y-3325413D01*
X-15678341Y-3421667D01*
X-15678340Y-3421667D01*
X-15678339Y-3421668D01*
X-15532267Y-3482173D01*
X-15532262Y-3482175D01*
X-15414691Y-3497653D01*
X-15375501Y-3502813D01*
X-15375500Y-3502813D01*
X-15375499Y-3502813D01*
X-15344148Y-3498685D01*
X-15218738Y-3482175D01*
X-15072659Y-3421667D01*
X-14947218Y-3325413D01*
X-14850964Y-3199972D01*
X-14790456Y-3053893D01*
X-14769818Y-2897131D01*
X-14771282Y-2886014D01*
X-14785465Y-2778282D01*
X-14790456Y-2740369D01*
X-14826712Y-2652839D01*
X-14850963Y-2594292D01*
X-14850963Y-2594291D01*
X-14947214Y-2468854D01*
X-14947215Y-2468853D01*
X-14947218Y-2468849D01*
X-14947223Y-2468845D01*
X-14947224Y-2468844D01*
X-15072662Y-2372593D01*
X-15218734Y-2312088D01*
X-15218742Y-2312086D01*
X-15375499Y-2291449D01*
X-15375501Y-2291449D01*
X-15532259Y-2312086D01*
X-15532267Y-2312088D01*
X-15678339Y-2372593D01*
X-15678340Y-2372593D01*
X-15803777Y-2468844D01*
X-15803787Y-2468854D01*
X-15900038Y-2594291D01*
X-15900038Y-2594292D01*
X-15960543Y-2740364D01*
X-15960545Y-2740372D01*
X-15981182Y-2897130D01*
X-15981182Y-2897131D01*
X-39881451Y-2897131D01*
X-39944604Y-2094663D01*
X-39944738Y-2092088D01*
X-39947463Y-1988000D01*
X-29567682Y-1988000D01*
X-29547045Y-2144758D01*
X-29547043Y-2144766D01*
X-29486538Y-2290838D01*
X-29486538Y-2290839D01*
X-29390287Y-2416276D01*
X-29390282Y-2416282D01*
X-29264841Y-2512536D01*
X-29118762Y-2573044D01*
X-29001191Y-2588522D01*
X-28962001Y-2593682D01*
X-28962000Y-2593682D01*
X-28961999Y-2593682D01*
X-28930648Y-2589554D01*
X-28805238Y-2573044D01*
X-28659159Y-2512536D01*
X-28533718Y-2416282D01*
X-28437464Y-2290841D01*
X-28376956Y-2144762D01*
X-28356318Y-1988000D01*
X-28376956Y-1831238D01*
X-28379348Y-1825464D01*
X-28437463Y-1685161D01*
X-28437463Y-1685160D01*
X-28533714Y-1559723D01*
X-28533715Y-1559722D01*
X-28533718Y-1559718D01*
X-28533723Y-1559714D01*
X-28533724Y-1559713D01*
X-28604896Y-1505101D01*
X-28659159Y-1463464D01*
X-28659160Y-1463463D01*
X-28659162Y-1463462D01*
X-28805234Y-1402957D01*
X-28805242Y-1402955D01*
X-28961999Y-1382318D01*
X-28962001Y-1382318D01*
X-29118759Y-1402955D01*
X-29118767Y-1402957D01*
X-29264839Y-1463462D01*
X-29264840Y-1463462D01*
X-29390277Y-1559713D01*
X-29390287Y-1559723D01*
X-29486538Y-1685160D01*
X-29486538Y-1685161D01*
X-29547043Y-1831233D01*
X-29547045Y-1831241D01*
X-29567682Y-1987999D01*
X-29567682Y-1988000D01*
X-39947463Y-1988000D01*
X-39951051Y-1850920D01*
X-39985104Y-550000D01*
X-29355682Y-550000D01*
X-29335045Y-706758D01*
X-29335043Y-706766D01*
X-29274538Y-852838D01*
X-29274538Y-852839D01*
X-29194798Y-956758D01*
X-29178282Y-978282D01*
X-29052841Y-1074536D01*
X-29052840Y-1074536D01*
X-29052839Y-1074537D01*
X-28975041Y-1106762D01*
X-28906762Y-1135044D01*
X-28793167Y-1149999D01*
X-28750001Y-1155682D01*
X-28750000Y-1155682D01*
X-28749999Y-1155682D01*
X-28706833Y-1149999D01*
X-28593238Y-1135044D01*
X-28447159Y-1074536D01*
X-28367167Y-1013156D01*
X-27743436Y-1013156D01*
X-27722799Y-1169914D01*
X-27722797Y-1169922D01*
X-27662292Y-1315994D01*
X-27662292Y-1315995D01*
X-27566041Y-1441432D01*
X-27566036Y-1441438D01*
X-27440595Y-1537692D01*
X-27440594Y-1537692D01*
X-27440593Y-1537693D01*
X-27387432Y-1559713D01*
X-27294516Y-1598200D01*
X-27176945Y-1613678D01*
X-27137755Y-1618838D01*
X-27137754Y-1618838D01*
X-27137753Y-1618838D01*
X-27106402Y-1614710D01*
X-26980992Y-1598200D01*
X-26834913Y-1537692D01*
X-26709472Y-1441438D01*
X-26613218Y-1315997D01*
X-26552710Y-1169918D01*
X-26532072Y-1013156D01*
X-26532267Y-1011678D01*
X-26546285Y-905200D01*
X-26552710Y-856394D01*
X-26554182Y-852841D01*
X-26613217Y-710317D01*
X-26613217Y-710316D01*
X-26709468Y-584879D01*
X-26709469Y-584878D01*
X-26709472Y-584874D01*
X-26709477Y-584870D01*
X-26709478Y-584869D01*
X-26823782Y-497161D01*
X-26834913Y-488620D01*
X-26834914Y-488619D01*
X-26834916Y-488618D01*
X-26980988Y-428113D01*
X-26980996Y-428111D01*
X-27137753Y-407474D01*
X-27137755Y-407474D01*
X-27294513Y-428111D01*
X-27294521Y-428113D01*
X-27440593Y-488618D01*
X-27440594Y-488618D01*
X-27566031Y-584869D01*
X-27566041Y-584879D01*
X-27662292Y-710316D01*
X-27662292Y-710317D01*
X-27722797Y-856389D01*
X-27722799Y-856397D01*
X-27743436Y-1013155D01*
X-27743436Y-1013156D01*
X-28367167Y-1013156D01*
X-28321718Y-978282D01*
X-28225464Y-852841D01*
X-28164956Y-706762D01*
X-28144318Y-550000D01*
X-28164956Y-393238D01*
X-28167768Y-386449D01*
X-28225463Y-247161D01*
X-28225463Y-247160D01*
X-28321714Y-121723D01*
X-28321715Y-121722D01*
X-28321718Y-121718D01*
X-28321723Y-121714D01*
X-28321724Y-121713D01*
X-28392896Y-67101D01*
X-28447159Y-25464D01*
X-28447160Y-25463D01*
X-28447162Y-25462D01*
X-28593234Y35043D01*
X-28593242Y35045D01*
X-28749999Y55682D01*
X-28750001Y55682D01*
X-28906759Y35045D01*
X-28906767Y35043D01*
X-29052839Y-25462D01*
X-29052840Y-25462D01*
X-29178277Y-121713D01*
X-29178287Y-121723D01*
X-29274538Y-247160D01*
X-29274538Y-247161D01*
X-29335043Y-393233D01*
X-29335045Y-393241D01*
X-29355682Y-549999D01*
X-29355682Y-550000D01*
X-39985104Y-550000D01*
X-39999468Y-1259D01*
X-39999468Y1262D01*
X-39985052Y552000D01*
X-26900682Y552000D01*
X-26880045Y395242D01*
X-26880043Y395234D01*
X-26819538Y249162D01*
X-26819538Y249161D01*
X-26723287Y123724D01*
X-26723282Y123718D01*
X-26597841Y27464D01*
X-26597840Y27464D01*
X-26597839Y27463D01*
X-26531489Y-20D01*
X-26451762Y-33044D01*
X-26334191Y-48522D01*
X-26295001Y-53682D01*
X-26295000Y-53682D01*
X-26294999Y-53682D01*
X-26263648Y-49554D01*
X-26138238Y-33044D01*
X-26058485Y-9D01*
X-23850566Y-9D01*
X-23850233Y-1734D01*
X-23789648Y-384118D01*
X-23789569Y-384614D01*
X-23789354Y-386372D01*
X-23789336Y-386449D01*
X-23789249Y-386650D01*
X-23788359Y-388240D01*
X-23612581Y-733317D01*
X-23611761Y-735083D01*
X-23610310Y-736427D01*
X-23535285Y-811435D01*
X-23346541Y-1000137D01*
X-23336437Y-1010238D01*
X-23335077Y-1011708D01*
X-23335008Y-1011759D01*
X-23333214Y-1012587D01*
X-22988350Y-1188334D01*
X-22986485Y-1189383D01*
X-22984369Y-1189630D01*
X-22606390Y-1249494D01*
X-22601970Y-1250194D01*
X-22600262Y-1250531D01*
X-22599623Y-1250529D01*
X-22597767Y-1250150D01*
X-22215675Y-1189636D01*
X-22213613Y-1189397D01*
X-22213377Y-1189319D01*
X-22211525Y-1188270D01*
X-21867020Y-1012704D01*
X-21865216Y-1011884D01*
X-21864736Y-1011534D01*
X-21863408Y-1010082D01*
X-21589842Y-736576D01*
X-21588432Y-735282D01*
X-21588079Y-734799D01*
X-21587272Y-733024D01*
X-21411788Y-388526D01*
X-21410784Y-386761D01*
X-21410582Y-386137D01*
X-21410354Y-384118D01*
X-21408389Y-371718D01*
X-21349827Y-2089D01*
X-21349477Y-343D01*
X-21349475Y337D01*
X-21349828Y2098D01*
X-21369097Y123714D01*
X-21410365Y384178D01*
X-21410596Y386217D01*
X-21410725Y386624D01*
X-21411703Y388359D01*
X-21587326Y733130D01*
X-21588190Y735015D01*
X-21588238Y735082D01*
X-21589706Y736441D01*
X-21852064Y998742D01*
X-21853347Y1000025D01*
X-13500536Y1000025D01*
X-13500500Y998578D01*
X-13500500Y-998666D01*
X-13500532Y-1000071D01*
X-13500266Y-1001514D01*
X-13449373Y-1322797D01*
X-13449160Y-1324542D01*
X-13449134Y-1324653D01*
X-13449053Y-1324840D01*
X-13448160Y-1326437D01*
X-13407792Y-1405682D01*
X-13300830Y-1615660D01*
X-13299976Y-1617509D01*
X-13298504Y-1618872D01*
X-13068936Y-1848443D01*
X-13067580Y-1849909D01*
X-13067509Y-1849960D01*
X-13065725Y-1850785D01*
X-12776552Y-1998126D01*
X-12774685Y-1999176D01*
X-12772558Y-1999423D01*
X-12451944Y-2050197D01*
X-12450259Y-2050530D01*
X-12449619Y-2050528D01*
X-12447759Y-2050149D01*
X-12350320Y-2034718D01*
X-12127461Y-1999426D01*
X-12125413Y-1999189D01*
X-12125174Y-1999110D01*
X-12123317Y-1998058D01*
X-11834533Y-1850915D01*
X-11832728Y-1850094D01*
X-11832257Y-1849752D01*
X-11830955Y-1848333D01*
X-11601672Y-1619044D01*
X-11600252Y-1617743D01*
X-11599916Y-1617284D01*
X-11599148Y-1615612D01*
X-11451987Y-1326719D01*
X-11450984Y-1324956D01*
X-11450784Y-1324339D01*
X-11450559Y-1322338D01*
X-11399704Y-1001323D01*
X-11399478Y-1000065D01*
X-11399500Y-998821D01*
X-11399500Y-874501D01*
X-11380593Y-816310D01*
X-11331093Y-780346D01*
X-11300500Y-775501D01*
X-8101911Y-775501D01*
X-8043720Y-794408D01*
X-8007756Y-843908D01*
X-8003758Y-861579D01*
X-7951776Y-1256416D01*
X-7951685Y-1257667D01*
X-7951514Y-1258643D01*
X-7951276Y-1260144D01*
X-7951075Y-1261555D01*
X-7950743Y-1262845D01*
X-7939311Y-1324528D01*
X-7875115Y-1670926D01*
X-7874959Y-1672151D01*
X-7874767Y-1672988D01*
X-7874428Y-1674596D01*
X-7874181Y-1675874D01*
X-7873765Y-1677200D01*
X-7776937Y-2080482D01*
X-7776683Y-2081932D01*
X-7776554Y-2082367D01*
X-7775877Y-2084893D01*
X-7775044Y-2088367D01*
X-7773894Y-2091347D01*
X-7657368Y-2484732D01*
X-7657069Y-2486025D01*
X-7656779Y-2486863D01*
X-7656215Y-2488600D01*
X-7655154Y-2492079D01*
X-7654039Y-2494625D01*
X-7518247Y-2878092D01*
X-7517473Y-2880920D01*
X-7516177Y-2884087D01*
X-7515435Y-2886014D01*
X-7515053Y-2887073D01*
X-7514422Y-2888338D01*
X-7429265Y-3093929D01*
X-7355859Y-3271153D01*
X-7355410Y-3272492D01*
X-7354897Y-3273587D01*
X-7354138Y-3275292D01*
X-7352696Y-3278701D01*
X-7351296Y-3281151D01*
X-7174596Y-3651597D01*
X-7174044Y-3652998D01*
X-7173546Y-3653923D01*
X-7172574Y-3655824D01*
X-7170945Y-3659191D01*
X-7169353Y-3661650D01*
X-6973459Y-4022444D01*
X-6972842Y-4023770D01*
X-6972586Y-4024188D01*
X-6971319Y-4026381D01*
X-6969704Y-4029349D01*
X-6967881Y-4031866D01*
X-6755550Y-4378361D01*
X-6754208Y-4380958D01*
X-6752309Y-4383748D01*
X-6751160Y-4385517D01*
X-6749162Y-4388740D01*
X-6747297Y-4391048D01*
X-6605640Y-4597161D01*
X-6533011Y-4702838D01*
X-6517159Y-4725902D01*
X-6515649Y-4728485D01*
X-6513674Y-4731072D01*
X-6512347Y-4732897D01*
X-6511777Y-4733719D01*
X-6510806Y-4734816D01*
X-6487679Y-4764955D01*
X-6260766Y-5060665D01*
X-6259163Y-5063094D01*
X-6257120Y-5065505D01*
X-6255730Y-5067222D01*
X-6253765Y-5069762D01*
X-6251708Y-5071848D01*
X-5987392Y-5381331D01*
X-5985577Y-5383794D01*
X-5983579Y-5385899D01*
X-5981854Y-5387813D01*
X-5979829Y-5390181D01*
X-5977554Y-5392249D01*
X-5694941Y-5690061D01*
X-5693945Y-5691262D01*
X-5693601Y-5691587D01*
X-5691576Y-5693612D01*
X-5689240Y-5696088D01*
X-5686670Y-5698160D01*
X-5398404Y-5971713D01*
X-5389281Y-5980370D01*
X-5388232Y-5981505D01*
X-5387914Y-5981775D01*
X-5385814Y-5983662D01*
X-5383168Y-5986181D01*
X-5380499Y-5988102D01*
X-5069104Y-6254050D01*
X-5067986Y-6255150D01*
X-5067401Y-6255598D01*
X-5065318Y-6257284D01*
X-5062922Y-6259333D01*
X-5060287Y-6261055D01*
X-4734761Y-6510847D01*
X-4733607Y-6511866D01*
X-4733070Y-6512234D01*
X-4730905Y-6513806D01*
X-4728069Y-6515984D01*
X-4725279Y-6517588D01*
X-4532705Y-6649939D01*
X-4388537Y-6749022D01*
X-4387496Y-6749737D01*
X-4386291Y-6750692D01*
X-4385707Y-6751050D01*
X-4383522Y-6752469D01*
X-4380645Y-6754447D01*
X-4377809Y-6755889D01*
X-4259682Y-6828276D01*
X-4031391Y-6968171D01*
X-4028995Y-6969886D01*
X-4026268Y-6971377D01*
X-4024285Y-6972521D01*
X-4021420Y-6974264D01*
X-4018715Y-6975482D01*
X-3657908Y-7171383D01*
X-3656526Y-7172260D01*
X-3656445Y-7172298D01*
X-3653298Y-7173907D01*
X-3653175Y-7173975D01*
X-3651607Y-7174591D01*
X-3524869Y-7235044D01*
X-3280942Y-7351395D01*
X-3278227Y-7352937D01*
X-3275734Y-7353963D01*
X-3273175Y-7355102D01*
X-3269755Y-7356742D01*
X-3266574Y-7357754D01*
X-2888347Y-7514416D01*
X-2886959Y-7515109D01*
X-2886357Y-7515321D01*
X-2883786Y-7516307D01*
X-2881221Y-7517373D01*
X-2878230Y-7518197D01*
X-2494723Y-7654001D01*
X-2491656Y-7655348D01*
X-2489397Y-7655998D01*
X-2486151Y-7657053D01*
X-2483621Y-7657972D01*
X-2480264Y-7658689D01*
X-2092621Y-7773515D01*
X-2091446Y-7773863D01*
X-2088138Y-7775142D01*
X-2085308Y-7775793D01*
X-2081978Y-7776681D01*
X-2079245Y-7777513D01*
X-2075848Y-7778047D01*
X-1680746Y-7872911D01*
X-1677853Y-7873827D01*
X-1675052Y-7874347D01*
X-1672553Y-7874878D01*
X-1669205Y-7875679D01*
X-1666092Y-7876009D01*
X-1266469Y-7950069D01*
X-1263312Y-7950890D01*
X-1260960Y-7951185D01*
X-1257812Y-7951682D01*
X-1255184Y-7952184D01*
X-1251903Y-7952367D01*
X-849065Y-8005402D01*
X-845746Y-8006098D01*
X-843199Y-8006278D01*
X-839831Y-8006631D01*
X-836999Y-8007026D01*
X-833556Y-8007024D01*
X-428830Y-8038878D01*
X-425686Y-8039364D01*
X-422730Y-8039435D01*
X-419935Y-8039581D01*
X-415541Y-8039934D01*
X-412120Y-8039709D01*
X-3579Y-8050404D01*
X-1914Y-8050565D01*
X-1734Y-8050559D01*
X1725Y-8050557D01*
X4349Y-8050647D01*
X7745Y-8050295D01*
X413424Y-8039675D01*
X416689Y-8039846D01*
X419901Y-8039585D01*
X422757Y-8039435D01*
X426318Y-8039351D01*
X429599Y-8038817D01*
X834100Y-8006980D01*
X837479Y-8006965D01*
X839768Y-8006642D01*
X843250Y-8006275D01*
X847199Y-8005999D01*
X850835Y-8005169D01*
X1252167Y-7952332D01*
X1255249Y-7952151D01*
X1258070Y-7951627D01*
X1260700Y-7951210D01*
X1264408Y-7950724D01*
X1267554Y-7949867D01*
X1666531Y-7875927D01*
X1669671Y-7875580D01*
X1672421Y-7874913D01*
X1675172Y-7874327D01*
X1678445Y-7873726D01*
X1681523Y-7872724D01*
X2076138Y-7777977D01*
X2079571Y-7777425D01*
X2081826Y-7776732D01*
X2085447Y-7775766D01*
X2089028Y-7774954D01*
X2092611Y-7773517D01*
X2480428Y-7658640D01*
X2483589Y-7657960D01*
X2486353Y-7656970D01*
X2489148Y-7656061D01*
X2492655Y-7655034D01*
X2495724Y-7653646D01*
X2762428Y-7559203D01*
X2881622Y-7516996D01*
X2883183Y-7516564D01*
X2883572Y-7516401D01*
X2886535Y-7515265D01*
X2889725Y-7514157D01*
X2892797Y-7512572D01*
X3266600Y-7357742D01*
X3269824Y-7356715D01*
X3273118Y-7355131D01*
X3275794Y-7353939D01*
X3279168Y-7352555D01*
X3282088Y-7350847D01*
X3647378Y-7176605D01*
X3650567Y-7175395D01*
X3653442Y-7173816D01*
X3656316Y-7172356D01*
X3659639Y-7170801D01*
X3662625Y-7168821D01*
X3789377Y-7100000D01*
X15494318Y-7100000D01*
X15514955Y-7256758D01*
X15514957Y-7256766D01*
X15575462Y-7402838D01*
X15575462Y-7402839D01*
X15671713Y-7528276D01*
X15671718Y-7528282D01*
X15797159Y-7624536D01*
X15797160Y-7624536D01*
X15797161Y-7624537D01*
X15879500Y-7658643D01*
X15943238Y-7685044D01*
X16056833Y-7699999D01*
X16099999Y-7705682D01*
X16100000Y-7705682D01*
X16100001Y-7705682D01*
X16143159Y-7700000D01*
X22494318Y-7700000D01*
X22514955Y-7856758D01*
X22514957Y-7856766D01*
X22575462Y-8002838D01*
X22575462Y-8002839D01*
X22668844Y-8124537D01*
X22671718Y-8128282D01*
X22797159Y-8224536D01*
X22943238Y-8285044D01*
X23060809Y-8300522D01*
X23099999Y-8305682D01*
X23100000Y-8305682D01*
X23100001Y-8305682D01*
X23131352Y-8301554D01*
X23256762Y-8285044D01*
X23402841Y-8224536D01*
X23528282Y-8128282D01*
X23624536Y-8002841D01*
X23685044Y-7856762D01*
X23705682Y-7700000D01*
X23692517Y-7600000D01*
X25544318Y-7600000D01*
X25564955Y-7756758D01*
X25564957Y-7756766D01*
X25625462Y-7902838D01*
X25625462Y-7902839D01*
X25721713Y-8028276D01*
X25721718Y-8028282D01*
X25721722Y-8028285D01*
X25721723Y-8028286D01*
X25736903Y-8039934D01*
X25847159Y-8124536D01*
X25847160Y-8124536D01*
X25847161Y-8124537D01*
X25856212Y-8128286D01*
X25993238Y-8185044D01*
X26110809Y-8200522D01*
X26149999Y-8205682D01*
X26150000Y-8205682D01*
X26150001Y-8205682D01*
X26181352Y-8201554D01*
X26306762Y-8185044D01*
X26452841Y-8124536D01*
X26578282Y-8028282D01*
X26674536Y-7902841D01*
X26735044Y-7756762D01*
X26755682Y-7600000D01*
X26735044Y-7443238D01*
X26715958Y-7397160D01*
X26674537Y-7297161D01*
X26674537Y-7297160D01*
X26578286Y-7171723D01*
X26578285Y-7171722D01*
X26578282Y-7171718D01*
X26578277Y-7171714D01*
X26578276Y-7171713D01*
X26461101Y-7081802D01*
X26452841Y-7075464D01*
X26452840Y-7075463D01*
X26452838Y-7075462D01*
X26306766Y-7014957D01*
X26306758Y-7014955D01*
X26150001Y-6994318D01*
X26149999Y-6994318D01*
X25993241Y-7014955D01*
X25993233Y-7014957D01*
X25847161Y-7075462D01*
X25847160Y-7075462D01*
X25721723Y-7171713D01*
X25721713Y-7171723D01*
X25625462Y-7297160D01*
X25625462Y-7297161D01*
X25564957Y-7443233D01*
X25564955Y-7443241D01*
X25544318Y-7599999D01*
X25544318Y-7600000D01*
X23692517Y-7600000D01*
X23685044Y-7543238D01*
X23624537Y-7397161D01*
X23624537Y-7397160D01*
X23528286Y-7271723D01*
X23528285Y-7271722D01*
X23528282Y-7271718D01*
X23528277Y-7271714D01*
X23528276Y-7271713D01*
X23443813Y-7206903D01*
X23402841Y-7175464D01*
X23402840Y-7175463D01*
X23402838Y-7175462D01*
X23256766Y-7114957D01*
X23256758Y-7114955D01*
X23100001Y-7094318D01*
X23099999Y-7094318D01*
X22943241Y-7114955D01*
X22943233Y-7114957D01*
X22797161Y-7175462D01*
X22797160Y-7175462D01*
X22671723Y-7271713D01*
X22671713Y-7271723D01*
X22575462Y-7397160D01*
X22575462Y-7397161D01*
X22514957Y-7543233D01*
X22514955Y-7543241D01*
X22494318Y-7699999D01*
X22494318Y-7700000D01*
X16143159Y-7700000D01*
X16143167Y-7699999D01*
X16256762Y-7685044D01*
X16402841Y-7624536D01*
X16528282Y-7528282D01*
X16624536Y-7402841D01*
X16685044Y-7256762D01*
X16705682Y-7100000D01*
X16685044Y-6943238D01*
X16637425Y-6828276D01*
X16624537Y-6797161D01*
X16624537Y-6797160D01*
X16528286Y-6671723D01*
X16528285Y-6671722D01*
X16528282Y-6671718D01*
X16528277Y-6671714D01*
X16528276Y-6671713D01*
X16402838Y-6575462D01*
X16256766Y-6514957D01*
X16256758Y-6514955D01*
X16100001Y-6494318D01*
X16099999Y-6494318D01*
X15943241Y-6514955D01*
X15943233Y-6514957D01*
X15797161Y-6575462D01*
X15797160Y-6575462D01*
X15671723Y-6671713D01*
X15671713Y-6671723D01*
X15575462Y-6797160D01*
X15575462Y-6797161D01*
X15514957Y-6943233D01*
X15514955Y-6943241D01*
X15494318Y-7099999D01*
X15494318Y-7100000D01*
X3789377Y-7100000D01*
X4018536Y-6975577D01*
X4021651Y-6974181D01*
X4023750Y-6972870D01*
X4026831Y-6971094D01*
X4029742Y-6969553D01*
X4032690Y-6967373D01*
X4377096Y-6756322D01*
X4380219Y-6754767D01*
X4383337Y-6752602D01*
X4385940Y-6750912D01*
X4389059Y-6749022D01*
X4391738Y-6746819D01*
X4724777Y-6517929D01*
X4727827Y-6516202D01*
X4730700Y-6513972D01*
X4733301Y-6512084D01*
X4735757Y-6510420D01*
X4738277Y-6508147D01*
X4879213Y-6400000D01*
X18044318Y-6400000D01*
X18064955Y-6556758D01*
X18064957Y-6556766D01*
X18125462Y-6702838D01*
X18125462Y-6702839D01*
X18205161Y-6806705D01*
X18221718Y-6828282D01*
X18221722Y-6828285D01*
X18221723Y-6828286D01*
X18251082Y-6850813D01*
X18347159Y-6924536D01*
X18347160Y-6924536D01*
X18347161Y-6924537D01*
X18493233Y-6985042D01*
X18493238Y-6985044D01*
X18610809Y-7000522D01*
X18649999Y-7005682D01*
X18650000Y-7005682D01*
X18650001Y-7005682D01*
X18681352Y-7001554D01*
X18806762Y-6985044D01*
X18952841Y-6924536D01*
X19078282Y-6828282D01*
X19174536Y-6702841D01*
X19196423Y-6650000D01*
X33794318Y-6650000D01*
X33814955Y-6806758D01*
X33814957Y-6806766D01*
X33875462Y-6952838D01*
X33875462Y-6952839D01*
X33971713Y-7078276D01*
X33971718Y-7078282D01*
X33971722Y-7078285D01*
X33971723Y-7078286D01*
X33976296Y-7081795D01*
X34097159Y-7174536D01*
X34097160Y-7174536D01*
X34097161Y-7174537D01*
X34180507Y-7209060D01*
X34243238Y-7235044D01*
X34360809Y-7250522D01*
X34399999Y-7255682D01*
X34400000Y-7255682D01*
X34400001Y-7255682D01*
X34431352Y-7251554D01*
X34556762Y-7235044D01*
X34702841Y-7174536D01*
X34828282Y-7078282D01*
X34924536Y-6952841D01*
X34985044Y-6806762D01*
X35005682Y-6650000D01*
X34985044Y-6493238D01*
X34948777Y-6405682D01*
X34924537Y-6347161D01*
X34924537Y-6347160D01*
X34828286Y-6221723D01*
X34828285Y-6221722D01*
X34828282Y-6221718D01*
X34828277Y-6221714D01*
X34828276Y-6221713D01*
X34731116Y-6147160D01*
X34702841Y-6125464D01*
X34702840Y-6125463D01*
X34702838Y-6125462D01*
X34556766Y-6064957D01*
X34556758Y-6064955D01*
X34400001Y-6044318D01*
X34399999Y-6044318D01*
X34243241Y-6064955D01*
X34243233Y-6064957D01*
X34097161Y-6125462D01*
X34097160Y-6125462D01*
X33971723Y-6221713D01*
X33971713Y-6221723D01*
X33875462Y-6347160D01*
X33875462Y-6347161D01*
X33814957Y-6493233D01*
X33814955Y-6493241D01*
X33794318Y-6649999D01*
X33794318Y-6650000D01*
X19196423Y-6650000D01*
X19235044Y-6556762D01*
X19255682Y-6400000D01*
X19235044Y-6243238D01*
X19174537Y-6097161D01*
X19174537Y-6097160D01*
X19078286Y-5971723D01*
X19078285Y-5971722D01*
X19078282Y-5971718D01*
X19078277Y-5971714D01*
X19078276Y-5971713D01*
X18952838Y-5875462D01*
X18806766Y-5814957D01*
X18806758Y-5814955D01*
X18650001Y-5794318D01*
X18649999Y-5794318D01*
X18493241Y-5814955D01*
X18493233Y-5814957D01*
X18347161Y-5875462D01*
X18347160Y-5875462D01*
X18221723Y-5971713D01*
X18221713Y-5971723D01*
X18125462Y-6097160D01*
X18125462Y-6097161D01*
X18064957Y-6243233D01*
X18064955Y-6243241D01*
X18044318Y-6399999D01*
X18044318Y-6400000D01*
X4879213Y-6400000D01*
X5059343Y-6261778D01*
X5062316Y-6259886D01*
X5065155Y-6257433D01*
X5067578Y-6255468D01*
X5069981Y-6253641D01*
X5072331Y-6251292D01*
X5380061Y-5988474D01*
X5382811Y-5986519D01*
X5385812Y-5983663D01*
X5387914Y-5981774D01*
X5390518Y-5979564D01*
X5392737Y-5977088D01*
X5686774Y-5698057D01*
X5689493Y-5695859D01*
X5691304Y-5693915D01*
X5693931Y-5691298D01*
X5696201Y-5689199D01*
X5698527Y-5686280D01*
X5977165Y-5392655D01*
X5979736Y-5390346D01*
X5981589Y-5388143D01*
X5983886Y-5385595D01*
X5986251Y-5383146D01*
X5988352Y-5380203D01*
X6014147Y-5350000D01*
X9044318Y-5350000D01*
X9064955Y-5506758D01*
X9064957Y-5506766D01*
X9125462Y-5652838D01*
X9125462Y-5652839D01*
X9221713Y-5778276D01*
X9221718Y-5778282D01*
X9347159Y-5874536D01*
X9347160Y-5874536D01*
X9347161Y-5874537D01*
X9470105Y-5925462D01*
X9493238Y-5935044D01*
X9610809Y-5950522D01*
X9649999Y-5955682D01*
X9650000Y-5955682D01*
X9650001Y-5955682D01*
X9681352Y-5951554D01*
X9806762Y-5935044D01*
X9952841Y-5874536D01*
X10078282Y-5778282D01*
X10174536Y-5652841D01*
X10235044Y-5506762D01*
X10255682Y-5350000D01*
X10251624Y-5319180D01*
X10239658Y-5228286D01*
X10235044Y-5193238D01*
X10197600Y-5102841D01*
X10174537Y-5047161D01*
X10174537Y-5047160D01*
X10078286Y-4921723D01*
X10078285Y-4921722D01*
X10078282Y-4921718D01*
X10078277Y-4921714D01*
X10078276Y-4921713D01*
X9971383Y-4839692D01*
X9952841Y-4825464D01*
X9952840Y-4825463D01*
X9952838Y-4825462D01*
X9806766Y-4764957D01*
X9806758Y-4764955D01*
X9650001Y-4744318D01*
X9649999Y-4744318D01*
X9493241Y-4764955D01*
X9493233Y-4764957D01*
X9347161Y-4825462D01*
X9347160Y-4825462D01*
X9221723Y-4921713D01*
X9221713Y-4921723D01*
X9125462Y-5047160D01*
X9125462Y-5047161D01*
X9064957Y-5193233D01*
X9064955Y-5193241D01*
X9044318Y-5349999D01*
X9044318Y-5350000D01*
X6014147Y-5350000D01*
X6250870Y-5072824D01*
X6253407Y-5070320D01*
X6255376Y-5067709D01*
X6257521Y-5065058D01*
X6259372Y-5062924D01*
X6261244Y-5060037D01*
X6507970Y-4738507D01*
X6510314Y-4735922D01*
X6512049Y-4733357D01*
X6514020Y-4730645D01*
X6515966Y-4728148D01*
X6517706Y-4725103D01*
X6741142Y-4400000D01*
X10594318Y-4400000D01*
X10614955Y-4556758D01*
X10614957Y-4556766D01*
X10675462Y-4702838D01*
X10675462Y-4702839D01*
X10771713Y-4828276D01*
X10771718Y-4828282D01*
X10897159Y-4924536D01*
X10897160Y-4924536D01*
X10897161Y-4924537D01*
X10974959Y-4956762D01*
X11043238Y-4985044D01*
X11160809Y-5000522D01*
X11199999Y-5005682D01*
X11200000Y-5005682D01*
X11200001Y-5005682D01*
X11231352Y-5001554D01*
X11356762Y-4985044D01*
X11502841Y-4924536D01*
X11534817Y-4900000D01*
X13394318Y-4900000D01*
X13414955Y-5056758D01*
X13414957Y-5056766D01*
X13475462Y-5202838D01*
X13475462Y-5202839D01*
X13568844Y-5324537D01*
X13571718Y-5328282D01*
X13697159Y-5424536D01*
X13843238Y-5485044D01*
X13936074Y-5497266D01*
X13999999Y-5505682D01*
X14000000Y-5505682D01*
X14000001Y-5505682D01*
X14048180Y-5499339D01*
X14156762Y-5485044D01*
X14302841Y-5424536D01*
X14428282Y-5328282D01*
X14524536Y-5202841D01*
X14585044Y-5056762D01*
X14605682Y-4900000D01*
X14592517Y-4800000D01*
X30294318Y-4800000D01*
X30314955Y-4956758D01*
X30314957Y-4956766D01*
X30375462Y-5102838D01*
X30375462Y-5102839D01*
X30468844Y-5224537D01*
X30471718Y-5228282D01*
X30597159Y-5324536D01*
X30597160Y-5324536D01*
X30597161Y-5324537D01*
X30606212Y-5328286D01*
X30743238Y-5385044D01*
X30860809Y-5400522D01*
X30899999Y-5405682D01*
X30900000Y-5405682D01*
X30900001Y-5405682D01*
X30931352Y-5401554D01*
X31056762Y-5385044D01*
X31202841Y-5324536D01*
X31328282Y-5228282D01*
X31424536Y-5102841D01*
X31485044Y-4956762D01*
X31505682Y-4800000D01*
X31485044Y-4643238D01*
X31465958Y-4597160D01*
X31424537Y-4497161D01*
X31424537Y-4497160D01*
X31328286Y-4371723D01*
X31328285Y-4371722D01*
X31328282Y-4371718D01*
X31328277Y-4371714D01*
X31328276Y-4371713D01*
X31227412Y-4294318D01*
X31202841Y-4275464D01*
X31202840Y-4275463D01*
X31202838Y-4275462D01*
X31056766Y-4214957D01*
X31056758Y-4214955D01*
X30900001Y-4194318D01*
X30899999Y-4194318D01*
X30743241Y-4214955D01*
X30743233Y-4214957D01*
X30597161Y-4275462D01*
X30597160Y-4275462D01*
X30471723Y-4371713D01*
X30471713Y-4371723D01*
X30375462Y-4497160D01*
X30375462Y-4497161D01*
X30314957Y-4643233D01*
X30314955Y-4643241D01*
X30294318Y-4799999D01*
X30294318Y-4800000D01*
X14592517Y-4800000D01*
X14585044Y-4743238D01*
X14582014Y-4735922D01*
X14524537Y-4597161D01*
X14524537Y-4597160D01*
X14428286Y-4471723D01*
X14428285Y-4471722D01*
X14428282Y-4471718D01*
X14428277Y-4471714D01*
X14428276Y-4471713D01*
X14331116Y-4397160D01*
X14302841Y-4375464D01*
X14302840Y-4375463D01*
X14302838Y-4375462D01*
X14156766Y-4314957D01*
X14156758Y-4314955D01*
X14000001Y-4294318D01*
X13999999Y-4294318D01*
X13843241Y-4314955D01*
X13843233Y-4314957D01*
X13697161Y-4375462D01*
X13697160Y-4375462D01*
X13571723Y-4471713D01*
X13571713Y-4471723D01*
X13475462Y-4597160D01*
X13475462Y-4597161D01*
X13414957Y-4743233D01*
X13414955Y-4743241D01*
X13394318Y-4899999D01*
X13394318Y-4900000D01*
X11534817Y-4900000D01*
X11628282Y-4828282D01*
X11724536Y-4702841D01*
X11785044Y-4556762D01*
X11805682Y-4400000D01*
X11804503Y-4391048D01*
X11790496Y-4284654D01*
X11785044Y-4243238D01*
X11759312Y-4181115D01*
X11724537Y-4097161D01*
X11724537Y-4097160D01*
X11628286Y-3971723D01*
X11628285Y-3971722D01*
X11628282Y-3971718D01*
X11628277Y-3971714D01*
X11628276Y-3971713D01*
X11599979Y-3950000D01*
X18794318Y-3950000D01*
X18814955Y-4106758D01*
X18814957Y-4106766D01*
X18875462Y-4252838D01*
X18875462Y-4252839D01*
X18971713Y-4378276D01*
X18971718Y-4378282D01*
X18971722Y-4378285D01*
X18971723Y-4378286D01*
X18979956Y-4384603D01*
X19097159Y-4474536D01*
X19097160Y-4474536D01*
X19097161Y-4474537D01*
X19151778Y-4497160D01*
X19243238Y-4535044D01*
X19360809Y-4550522D01*
X19399999Y-4555682D01*
X19400000Y-4555682D01*
X19400001Y-4555682D01*
X19431352Y-4551554D01*
X19556762Y-4535044D01*
X19702841Y-4474536D01*
X19828282Y-4378282D01*
X19924536Y-4252841D01*
X19985044Y-4106762D01*
X20005682Y-3950000D01*
X19985044Y-3793238D01*
X19985042Y-3793233D01*
X19924537Y-3647161D01*
X19924537Y-3647160D01*
X19828286Y-3521723D01*
X19828285Y-3521722D01*
X19828282Y-3521718D01*
X19828277Y-3521714D01*
X19828276Y-3521713D01*
X19702838Y-3425462D01*
X19556766Y-3364957D01*
X19556758Y-3364955D01*
X19400001Y-3344318D01*
X19399999Y-3344318D01*
X19243241Y-3364955D01*
X19243233Y-3364957D01*
X19097161Y-3425462D01*
X19097160Y-3425462D01*
X18971723Y-3521713D01*
X18971713Y-3521723D01*
X18875462Y-3647160D01*
X18875462Y-3647161D01*
X18814957Y-3793233D01*
X18814955Y-3793241D01*
X18794318Y-3949999D01*
X18794318Y-3950000D01*
X11599979Y-3950000D01*
X11502838Y-3875462D01*
X11356766Y-3814957D01*
X11356758Y-3814955D01*
X11200001Y-3794318D01*
X11199999Y-3794318D01*
X11043241Y-3814955D01*
X11043233Y-3814957D01*
X10897161Y-3875462D01*
X10897160Y-3875462D01*
X10771723Y-3971713D01*
X10771713Y-3971723D01*
X10675462Y-4097160D01*
X10675462Y-4097161D01*
X10614957Y-4243233D01*
X10614955Y-4243241D01*
X10594318Y-4399999D01*
X10594318Y-4400000D01*
X6741142Y-4400000D01*
X6747127Y-4391291D01*
X6749271Y-4388655D01*
X6750884Y-4385990D01*
X6752662Y-4383257D01*
X6754420Y-4380739D01*
X6755983Y-4377652D01*
X6967503Y-4032478D01*
X6969491Y-4029775D01*
X6971250Y-4026515D01*
X6972681Y-4024037D01*
X6974229Y-4021524D01*
X6975542Y-4018603D01*
X7169269Y-3661800D01*
X7171212Y-3658808D01*
X7172195Y-3656683D01*
X7174062Y-3653047D01*
X7174823Y-3651702D01*
X7176117Y-3648406D01*
X7350933Y-3281906D01*
X7352667Y-3278928D01*
X7353886Y-3275935D01*
X7355221Y-3272943D01*
X7356635Y-3270034D01*
X7357703Y-3266695D01*
X7512572Y-2892797D01*
X7514157Y-2889725D01*
X7515265Y-2886535D01*
X7516401Y-2883572D01*
X7516562Y-2883188D01*
X7516995Y-2881623D01*
X7553591Y-2778276D01*
X7653669Y-2495660D01*
X7655165Y-2492343D01*
X7655959Y-2489552D01*
X7657127Y-2485965D01*
X7657875Y-2483934D01*
X7658613Y-2480517D01*
X7697274Y-2350000D01*
X29194318Y-2350000D01*
X29214955Y-2506758D01*
X29214957Y-2506766D01*
X29275462Y-2652838D01*
X29275462Y-2652839D01*
X29371713Y-2778276D01*
X29371718Y-2778282D01*
X29497159Y-2874536D01*
X29497160Y-2874536D01*
X29497161Y-2874537D01*
X29551708Y-2897131D01*
X29643238Y-2935044D01*
X29760809Y-2950522D01*
X29799999Y-2955682D01*
X29800000Y-2955682D01*
X29800001Y-2955682D01*
X29831352Y-2951554D01*
X29956762Y-2935044D01*
X30102841Y-2874536D01*
X30228282Y-2778282D01*
X30324536Y-2652841D01*
X30385044Y-2506762D01*
X30405682Y-2350000D01*
X30385044Y-2193238D01*
X30343718Y-2093468D01*
X30324537Y-2047161D01*
X30324537Y-2047160D01*
X30228286Y-1921723D01*
X30228285Y-1921722D01*
X30228282Y-1921718D01*
X30228277Y-1921714D01*
X30228276Y-1921713D01*
X30135840Y-1850785D01*
X30102841Y-1825464D01*
X30102840Y-1825463D01*
X30102838Y-1825462D01*
X29956766Y-1764957D01*
X29956758Y-1764955D01*
X29800001Y-1744318D01*
X29799999Y-1744318D01*
X29643241Y-1764955D01*
X29643233Y-1764957D01*
X29497161Y-1825462D01*
X29497160Y-1825462D01*
X29371723Y-1921713D01*
X29371713Y-1921723D01*
X29275462Y-2047160D01*
X29275462Y-2047161D01*
X29214957Y-2193233D01*
X29214955Y-2193241D01*
X29194318Y-2349999D01*
X29194318Y-2350000D01*
X7697274Y-2350000D01*
X7773517Y-2092611D01*
X7774954Y-2089028D01*
X7775766Y-2085447D01*
X7776732Y-2081826D01*
X7777425Y-2079571D01*
X7777978Y-2076134D01*
X7784132Y-2050504D01*
X7872724Y-1681523D01*
X7873726Y-1678445D01*
X7874327Y-1675172D01*
X7874913Y-1672421D01*
X7875580Y-1669671D01*
X7875927Y-1666530D01*
X7949901Y-1267368D01*
X7950810Y-1264008D01*
X7951174Y-1261060D01*
X7951701Y-1257724D01*
X7951754Y-1257444D01*
X7951855Y-1255791D01*
X8005295Y-849877D01*
X8006056Y-846394D01*
X8006275Y-843253D01*
X8006642Y-839767D01*
X8006965Y-837478D01*
X8006980Y-834100D01*
X8009664Y-800000D01*
X17444318Y-800000D01*
X17464955Y-956758D01*
X17464957Y-956766D01*
X17525462Y-1102838D01*
X17525462Y-1102839D01*
X17592065Y-1189638D01*
X17621718Y-1228282D01*
X17747159Y-1324536D01*
X17747160Y-1324536D01*
X17747161Y-1324537D01*
X17876913Y-1378282D01*
X17893238Y-1385044D01*
X18010809Y-1400522D01*
X18049999Y-1405682D01*
X18050000Y-1405682D01*
X18050001Y-1405682D01*
X18081352Y-1401554D01*
X18206762Y-1385044D01*
X18352841Y-1324536D01*
X18478282Y-1228282D01*
X18574536Y-1102841D01*
X18635044Y-956762D01*
X18635934Y-950000D01*
X21544318Y-950000D01*
X21564955Y-1106758D01*
X21564957Y-1106766D01*
X21625462Y-1252838D01*
X21625462Y-1252839D01*
X21721713Y-1378276D01*
X21721718Y-1378282D01*
X21847159Y-1474536D01*
X21993238Y-1535044D01*
X22110809Y-1550522D01*
X22149999Y-1555682D01*
X22150000Y-1555682D01*
X22150001Y-1555682D01*
X22181352Y-1551554D01*
X22306762Y-1535044D01*
X22452841Y-1474536D01*
X22578282Y-1378282D01*
X22674536Y-1252841D01*
X22717134Y-1150000D01*
X24694318Y-1150000D01*
X24714955Y-1306758D01*
X24714957Y-1306766D01*
X24775462Y-1452838D01*
X24775462Y-1452839D01*
X24857473Y-1559718D01*
X24871718Y-1578282D01*
X24997159Y-1674536D01*
X24997160Y-1674536D01*
X24997161Y-1674537D01*
X25022810Y-1685161D01*
X25143238Y-1735044D01*
X25260809Y-1750522D01*
X25299999Y-1755682D01*
X25300000Y-1755682D01*
X25300001Y-1755682D01*
X25331352Y-1751554D01*
X25456762Y-1735044D01*
X25602841Y-1674536D01*
X25728282Y-1578282D01*
X25824536Y-1452841D01*
X25885044Y-1306762D01*
X25905682Y-1150000D01*
X25885044Y-993238D01*
X25869935Y-956762D01*
X25824537Y-847161D01*
X25824537Y-847160D01*
X25728286Y-721723D01*
X25728285Y-721722D01*
X25728282Y-721718D01*
X25728277Y-721714D01*
X25728276Y-721713D01*
X25631116Y-647160D01*
X25602841Y-625464D01*
X25602840Y-625463D01*
X25602838Y-625462D01*
X25456766Y-564957D01*
X25456758Y-564955D01*
X25300001Y-544318D01*
X25299999Y-544318D01*
X25143241Y-564955D01*
X25143233Y-564957D01*
X24997161Y-625462D01*
X24997160Y-625462D01*
X24871723Y-721713D01*
X24871713Y-721723D01*
X24775462Y-847160D01*
X24775462Y-847161D01*
X24714957Y-993233D01*
X24714955Y-993241D01*
X24694318Y-1149999D01*
X24694318Y-1150000D01*
X22717134Y-1150000D01*
X22735044Y-1106762D01*
X22755682Y-950000D01*
X22749784Y-905199D01*
X22760934Y-845039D01*
X22785709Y-818164D01*
X22784632Y-816994D01*
X22790661Y-811441D01*
X22790669Y-811437D01*
X22811338Y-784879D01*
X22815388Y-780292D01*
X22818375Y-777307D01*
X22830462Y-760375D01*
X22831661Y-758769D01*
X22848920Y-736595D01*
X22862517Y-719126D01*
X22862517Y-719123D01*
X22866014Y-712662D01*
X22869239Y-706067D01*
X22883578Y-657899D01*
X22884175Y-656038D01*
X22900500Y-608488D01*
X22900500Y-608484D01*
X22901706Y-601259D01*
X22902615Y-593959D01*
X22902617Y-593954D01*
X22900541Y-543767D01*
X22900500Y-541756D01*
X22900500Y0D01*
X35944318Y0D01*
X35964955Y-156758D01*
X35964957Y-156766D01*
X36025462Y-302838D01*
X36025462Y-302839D01*
X36121588Y-428113D01*
X36121718Y-428282D01*
X36247159Y-524536D01*
X36247160Y-524536D01*
X36247161Y-524537D01*
X36393233Y-585042D01*
X36393238Y-585044D01*
X36510809Y-600522D01*
X36549999Y-605682D01*
X36550000Y-605682D01*
X36550001Y-605682D01*
X36585077Y-601064D01*
X36706762Y-585044D01*
X36852841Y-524536D01*
X36978282Y-428282D01*
X37074536Y-302841D01*
X37135044Y-156762D01*
X37155682Y0D01*
X37135044Y156762D01*
X37074537Y302839D01*
X37074537Y302840D01*
X36978286Y428277D01*
X36978285Y428278D01*
X36978282Y428282D01*
X36978277Y428286D01*
X36978276Y428287D01*
X36852838Y524538D01*
X36706766Y585043D01*
X36706758Y585045D01*
X36550001Y605682D01*
X36549999Y605682D01*
X36393241Y585045D01*
X36393233Y585043D01*
X36247161Y524538D01*
X36247160Y524538D01*
X36121723Y428287D01*
X36121713Y428277D01*
X36025462Y302840D01*
X36025462Y302839D01*
X35964957Y156767D01*
X35964955Y156759D01*
X35944318Y1D01*
X35944318Y0D01*
X22900500Y0D01*
X22900500Y1363213D01*
X22919407Y1421404D01*
X22939233Y1441755D01*
X22978282Y1471718D01*
X23074536Y1597159D01*
X23135044Y1743238D01*
X23155682Y1900000D01*
X23135044Y2056762D01*
X23120406Y2092101D01*
X23074537Y2202839D01*
X23074537Y2202840D01*
X22978286Y2328277D01*
X22978285Y2328278D01*
X22978282Y2328282D01*
X22978277Y2328286D01*
X22978276Y2328287D01*
X22907104Y2382899D01*
X22852841Y2424536D01*
X22852840Y2424537D01*
X22852838Y2424538D01*
X22706766Y2485043D01*
X22706758Y2485045D01*
X22593161Y2500000D01*
X29644318Y2500000D01*
X29664955Y2343242D01*
X29664957Y2343234D01*
X29725462Y2197162D01*
X29725462Y2197161D01*
X29821713Y2071724D01*
X29821718Y2071718D01*
X29947159Y1975464D01*
X30093238Y1914956D01*
X30206833Y1900001D01*
X30249999Y1894318D01*
X30250000Y1894318D01*
X30250001Y1894318D01*
X30293167Y1900001D01*
X30406762Y1914956D01*
X30552841Y1975464D01*
X30678282Y2071718D01*
X30774536Y2197159D01*
X30835044Y2343238D01*
X30855682Y2500000D01*
X30835934Y2650000D01*
X34094318Y2650000D01*
X34114955Y2493242D01*
X34114957Y2493234D01*
X34175462Y2347162D01*
X34175462Y2347161D01*
X34238540Y2264956D01*
X34271718Y2221718D01*
X34397159Y2125464D01*
X34397160Y2125464D01*
X34397161Y2125463D01*
X34526913Y2071718D01*
X34543238Y2064956D01*
X34652997Y2050506D01*
X34699999Y2044318D01*
X34700000Y2044318D01*
X34700001Y2044318D01*
X34739323Y2049495D01*
X34856762Y2064956D01*
X35002841Y2125464D01*
X35128282Y2221718D01*
X35224536Y2347159D01*
X35285044Y2493238D01*
X35305682Y2650000D01*
X35285044Y2806762D01*
X35251497Y2887752D01*
X35224537Y2952839D01*
X35224537Y2952840D01*
X35128286Y3078277D01*
X35128285Y3078278D01*
X35128282Y3078282D01*
X35128277Y3078286D01*
X35128276Y3078287D01*
X35031116Y3152840D01*
X35002841Y3174536D01*
X35002840Y3174537D01*
X35002838Y3174538D01*
X34856766Y3235043D01*
X34856758Y3235045D01*
X34700001Y3255682D01*
X34699999Y3255682D01*
X34543241Y3235045D01*
X34543233Y3235043D01*
X34397161Y3174538D01*
X34397160Y3174538D01*
X34271723Y3078287D01*
X34271713Y3078277D01*
X34175462Y2952840D01*
X34175462Y2952839D01*
X34114957Y2806767D01*
X34114955Y2806759D01*
X34094318Y2650001D01*
X34094318Y2650000D01*
X30835934Y2650000D01*
X30835044Y2656762D01*
X30819935Y2693238D01*
X30774537Y2802839D01*
X30774537Y2802840D01*
X30678286Y2928277D01*
X30678285Y2928278D01*
X30678282Y2928282D01*
X30678277Y2928286D01*
X30678276Y2928287D01*
X30607104Y2982899D01*
X30552841Y3024536D01*
X30552840Y3024537D01*
X30552838Y3024538D01*
X30406766Y3085043D01*
X30406758Y3085045D01*
X30250001Y3105682D01*
X30249999Y3105682D01*
X30093241Y3085045D01*
X30093233Y3085043D01*
X29947161Y3024538D01*
X29947160Y3024538D01*
X29821723Y2928287D01*
X29821713Y2928277D01*
X29725462Y2802840D01*
X29725462Y2802839D01*
X29664957Y2656767D01*
X29664955Y2656759D01*
X29644318Y2500001D01*
X29644318Y2500000D01*
X22593161Y2500000D01*
X22550001Y2505682D01*
X22549999Y2505682D01*
X22393241Y2485045D01*
X22393233Y2485043D01*
X22247161Y2424538D01*
X22247160Y2424538D01*
X22121723Y2328287D01*
X22121713Y2328277D01*
X22025462Y2202840D01*
X22025462Y2202839D01*
X21964957Y2056767D01*
X21964955Y2056759D01*
X21944318Y1900001D01*
X21944318Y1900000D01*
X21964955Y1743242D01*
X21964957Y1743234D01*
X22025462Y1597162D01*
X22025462Y1597161D01*
X22025464Y1597159D01*
X22121718Y1471718D01*
X22121722Y1471715D01*
X22160767Y1441755D01*
X22195423Y1391331D01*
X22199500Y1363213D01*
X22199500Y-250980D01*
X22180593Y-309171D01*
X22131093Y-345135D01*
X22113423Y-349133D01*
X21993240Y-364955D01*
X21993233Y-364957D01*
X21847161Y-425462D01*
X21847160Y-425462D01*
X21721723Y-521713D01*
X21721713Y-521723D01*
X21625462Y-647160D01*
X21625462Y-647161D01*
X21564957Y-793233D01*
X21564955Y-793241D01*
X21544318Y-949999D01*
X21544318Y-950000D01*
X18635934Y-950000D01*
X18655682Y-800000D01*
X18653372Y-782457D01*
X18647136Y-735086D01*
X18635044Y-643238D01*
X18602619Y-564957D01*
X18574537Y-497161D01*
X18574537Y-497160D01*
X18478286Y-371723D01*
X18478285Y-371722D01*
X18478282Y-371718D01*
X18478277Y-371714D01*
X18478276Y-371713D01*
X18388517Y-302839D01*
X18352841Y-275464D01*
X18352840Y-275463D01*
X18352838Y-275462D01*
X18206766Y-214957D01*
X18206758Y-214955D01*
X18050001Y-194318D01*
X18049999Y-194318D01*
X17893241Y-214955D01*
X17893233Y-214957D01*
X17747161Y-275462D01*
X17747160Y-275462D01*
X17621723Y-371713D01*
X17621713Y-371723D01*
X17525462Y-497160D01*
X17525462Y-497161D01*
X17464957Y-643233D01*
X17464955Y-643241D01*
X17444318Y-799999D01*
X17444318Y-800000D01*
X8009664Y-800000D01*
X8038817Y-429599D01*
X8039351Y-426318D01*
X8039435Y-422758D01*
X8039585Y-419902D01*
X8039887Y-416183D01*
X8039691Y-412819D01*
X8040327Y-388527D01*
X8050295Y-7745D01*
X8050647Y-4349D01*
X8050557Y-1725D01*
X8050559Y1734D01*
X8050565Y1914D01*
X8050404Y3579D01*
X8039709Y412120D01*
X8039934Y415541D01*
X8039581Y419935D01*
X8039435Y422730D01*
X8039364Y425686D01*
X8038878Y428830D01*
X8007041Y833340D01*
X8007050Y836503D01*
X8006571Y840176D01*
X8006297Y842834D01*
X8006055Y846020D01*
X8005386Y849189D01*
X7952367Y1251903D01*
X7952184Y1255184D01*
X7951682Y1257812D01*
X7951185Y1260960D01*
X7950890Y1263312D01*
X7950069Y1266469D01*
X7876009Y1666092D01*
X7875679Y1669205D01*
X7874878Y1672553D01*
X7874347Y1675052D01*
X7873827Y1677853D01*
X7872910Y1680751D01*
X7832648Y1848440D01*
X7778047Y2075848D01*
X7777513Y2079245D01*
X7776681Y2081978D01*
X7775793Y2085308D01*
X7775142Y2088138D01*
X7773863Y2091446D01*
X7740867Y2202839D01*
X7658689Y2480264D01*
X7657972Y2483621D01*
X7657053Y2486151D01*
X7655998Y2489397D01*
X7655348Y2491656D01*
X7654001Y2494723D01*
X7528194Y2850000D01*
X8644318Y2850000D01*
X8664955Y2693242D01*
X8664957Y2693234D01*
X8725462Y2547162D01*
X8725462Y2547161D01*
X8821713Y2421724D01*
X8821718Y2421718D01*
X8947159Y2325464D01*
X9093238Y2264956D01*
X9210809Y2249478D01*
X9249999Y2244318D01*
X9250000Y2244318D01*
X9250001Y2244318D01*
X9281352Y2248446D01*
X9406762Y2264956D01*
X9552841Y2325464D01*
X9678282Y2421718D01*
X9774536Y2547159D01*
X9835044Y2693238D01*
X9855682Y2850000D01*
X9835044Y3006762D01*
X9808136Y3071724D01*
X9774537Y3152839D01*
X9774537Y3152840D01*
X9678286Y3278277D01*
X9678285Y3278278D01*
X9678282Y3278282D01*
X9678277Y3278286D01*
X9678276Y3278287D01*
X9552838Y3374538D01*
X9406766Y3435043D01*
X9406758Y3435045D01*
X9250001Y3455682D01*
X9249999Y3455682D01*
X9093241Y3435045D01*
X9093233Y3435043D01*
X8947161Y3374538D01*
X8947160Y3374538D01*
X8821723Y3278287D01*
X8821713Y3278277D01*
X8725462Y3152840D01*
X8725462Y3152839D01*
X8664957Y3006767D01*
X8664955Y3006759D01*
X8644318Y2850001D01*
X8644318Y2850000D01*
X7528194Y2850000D01*
X7518197Y2878231D01*
X7517373Y2881221D01*
X7516307Y2883786D01*
X7515321Y2886357D01*
X7515109Y2886959D01*
X7514416Y2888347D01*
X7357783Y3266504D01*
X7356808Y3269578D01*
X7355106Y3273155D01*
X7353971Y3275727D01*
X7353742Y3276288D01*
X7352936Y3277710D01*
X7277890Y3435043D01*
X7246906Y3500000D01*
X25794318Y3500000D01*
X25814955Y3343242D01*
X25814957Y3343234D01*
X25875462Y3197162D01*
X25875462Y3197161D01*
X25961493Y3085043D01*
X25971718Y3071718D01*
X26097159Y2975464D01*
X26097160Y2975464D01*
X26097161Y2975463D01*
X26151778Y2952840D01*
X26243238Y2914956D01*
X26360809Y2899478D01*
X26399999Y2894318D01*
X26400000Y2894318D01*
X26400001Y2894318D01*
X26431352Y2898446D01*
X26556762Y2914956D01*
X26702841Y2975464D01*
X26828282Y3071718D01*
X26924536Y3197159D01*
X26985044Y3343238D01*
X27005682Y3500000D01*
X26985044Y3656762D01*
X26924537Y3802839D01*
X26924537Y3802840D01*
X26828286Y3928277D01*
X26828285Y3928278D01*
X26828282Y3928282D01*
X26828277Y3928286D01*
X26828276Y3928287D01*
X26757104Y3982899D01*
X26702841Y4024536D01*
X26702840Y4024537D01*
X26702838Y4024538D01*
X26556766Y4085043D01*
X26556758Y4085045D01*
X26400001Y4105682D01*
X26399999Y4105682D01*
X26243241Y4085045D01*
X26243233Y4085043D01*
X26097161Y4024538D01*
X26097160Y4024538D01*
X25971723Y3928287D01*
X25971713Y3928277D01*
X25875462Y3802840D01*
X25875462Y3802839D01*
X25814957Y3656767D01*
X25814955Y3656759D01*
X25794318Y3500001D01*
X25794318Y3500000D01*
X7246906Y3500000D01*
X7174591Y3651607D01*
X7173975Y3653175D01*
X7173907Y3653298D01*
X7172298Y3656445D01*
X7172260Y3656526D01*
X7171383Y3657908D01*
X6975482Y4018715D01*
X6974264Y4021420D01*
X6972521Y4024285D01*
X6971377Y4026268D01*
X6969886Y4028995D01*
X6968169Y4031394D01*
X6966013Y4034912D01*
X6810236Y4289121D01*
X6755889Y4377809D01*
X6754447Y4380645D01*
X6752469Y4383522D01*
X6751050Y4385707D01*
X6750692Y4386291D01*
X6749737Y4387496D01*
X6745048Y4394318D01*
X6536914Y4697159D01*
X6517588Y4725279D01*
X6515984Y4728069D01*
X6513806Y4730905D01*
X6512234Y4733070D01*
X6511866Y4733607D01*
X6510847Y4734761D01*
X6307316Y5000000D01*
X28794318Y5000000D01*
X28814955Y4843242D01*
X28814957Y4843234D01*
X28875462Y4697162D01*
X28875462Y4697161D01*
X28875464Y4697159D01*
X28971718Y4571718D01*
X29097159Y4475464D01*
X29097160Y4475464D01*
X29097161Y4475463D01*
X29223905Y4422964D01*
X29243238Y4414956D01*
X29360809Y4399478D01*
X29399999Y4394318D01*
X29400000Y4394318D01*
X29400001Y4394318D01*
X29431352Y4398446D01*
X29556762Y4414956D01*
X29702841Y4475464D01*
X29828282Y4571718D01*
X29924536Y4697159D01*
X29985044Y4843238D01*
X30005682Y5000000D01*
X29985044Y5156762D01*
X29965958Y5202840D01*
X29924537Y5302839D01*
X29924537Y5302840D01*
X29828286Y5428277D01*
X29828285Y5428278D01*
X29828282Y5428282D01*
X29828277Y5428286D01*
X29828276Y5428287D01*
X29738517Y5497161D01*
X29702841Y5524536D01*
X29702840Y5524537D01*
X29702838Y5524538D01*
X29556766Y5585043D01*
X29556758Y5585045D01*
X29400001Y5605682D01*
X29399999Y5605682D01*
X29243241Y5585045D01*
X29243233Y5585043D01*
X29097161Y5524538D01*
X29097160Y5524538D01*
X28971723Y5428287D01*
X28971713Y5428277D01*
X28875462Y5302840D01*
X28875462Y5302839D01*
X28814957Y5156767D01*
X28814955Y5156759D01*
X28794318Y5000001D01*
X28794318Y5000000D01*
X6307316Y5000000D01*
X6261055Y5060287D01*
X6259333Y5062922D01*
X6257284Y5065318D01*
X6255598Y5067401D01*
X6255153Y5067983D01*
X6254055Y5069098D01*
X5988115Y5380484D01*
X5986209Y5383132D01*
X5983611Y5385867D01*
X5981840Y5387834D01*
X5981471Y5388267D01*
X5980358Y5389294D01*
X5698160Y5686670D01*
X5696088Y5689240D01*
X5693612Y5691576D01*
X5691587Y5693601D01*
X5691262Y5693945D01*
X5690061Y5694941D01*
X5392249Y5977554D01*
X5390181Y5979829D01*
X5387813Y5981854D01*
X5385899Y5983579D01*
X5383796Y5985575D01*
X5381334Y5987389D01*
X5246155Y6102841D01*
X5069045Y6254105D01*
X5068040Y6255092D01*
X5067155Y6255780D01*
X5065595Y6257045D01*
X5064834Y6257688D01*
X5063651Y6258478D01*
X5009539Y6300000D01*
X33844318Y6300000D01*
X33864955Y6143242D01*
X33864957Y6143234D01*
X33925462Y5997162D01*
X33925462Y5997161D01*
X33972054Y5936441D01*
X34021718Y5871718D01*
X34147159Y5775464D01*
X34293238Y5714956D01*
X34410809Y5699478D01*
X34449999Y5694318D01*
X34450000Y5694318D01*
X34450001Y5694318D01*
X34481352Y5698446D01*
X34606762Y5714956D01*
X34752841Y5775464D01*
X34878282Y5871718D01*
X34974536Y5997159D01*
X35035044Y6143238D01*
X35055682Y6300000D01*
X35035044Y6456762D01*
X35011772Y6512945D01*
X34974537Y6602839D01*
X34974537Y6602840D01*
X34878286Y6728277D01*
X34878285Y6728278D01*
X34878282Y6728282D01*
X34878277Y6728286D01*
X34878276Y6728287D01*
X34752838Y6824538D01*
X34606766Y6885043D01*
X34606758Y6885045D01*
X34450001Y6905682D01*
X34449999Y6905682D01*
X34293241Y6885045D01*
X34293233Y6885043D01*
X34147161Y6824538D01*
X34147160Y6824538D01*
X34021723Y6728287D01*
X34021713Y6728277D01*
X33925462Y6602840D01*
X33925462Y6602839D01*
X33864957Y6456767D01*
X33864955Y6456759D01*
X33844318Y6300001D01*
X33844318Y6300000D01*
X5009539Y6300000D01*
X4734806Y6510814D01*
X4733712Y6511782D01*
X4732897Y6512347D01*
X4731072Y6513674D01*
X4728485Y6515649D01*
X4725902Y6517159D01*
X4391048Y6747297D01*
X4388740Y6749162D01*
X4385517Y6751160D01*
X4383748Y6752309D01*
X4380958Y6754208D01*
X4378361Y6755550D01*
X4031866Y6967881D01*
X4029349Y6969704D01*
X4026381Y6971319D01*
X4024188Y6972586D01*
X4023770Y6972842D01*
X4022444Y6973459D01*
X3661650Y7169353D01*
X3659191Y7170945D01*
X3655824Y7172574D01*
X3653923Y7173546D01*
X3652998Y7174044D01*
X3651597Y7174596D01*
X3281151Y7351296D01*
X3278701Y7352696D01*
X3275292Y7354138D01*
X3273587Y7354897D01*
X3272492Y7355410D01*
X3271153Y7355859D01*
X3206486Y7382644D01*
X2888338Y7514422D01*
X2887073Y7515053D01*
X2886014Y7515435D01*
X2884087Y7516177D01*
X2880921Y7517472D01*
X2878094Y7518246D01*
X2494625Y7654039D01*
X2492079Y7655154D01*
X2488600Y7656215D01*
X2486863Y7656779D01*
X2486025Y7657069D01*
X2484732Y7657368D01*
X2091347Y7773894D01*
X2088367Y7775044D01*
X2084893Y7775877D01*
X2082367Y7776554D01*
X2081932Y7776683D01*
X2080482Y7776937D01*
X1677200Y7873765D01*
X1675874Y7874181D01*
X1674596Y7874428D01*
X1672988Y7874767D01*
X1672151Y7874959D01*
X1670926Y7875115D01*
X1262847Y7950742D01*
X1261555Y7951075D01*
X1260144Y7951276D01*
X1258643Y7951514D01*
X1257667Y7951685D01*
X1256416Y7951776D01*
X849456Y8005353D01*
X846434Y8006000D01*
X842658Y8006307D01*
X840334Y8006552D01*
X839834Y8006617D01*
X838427Y8006643D01*
X424820Y8039196D01*
X423475Y8039395D01*
X422192Y8039440D01*
X420491Y8039530D01*
X419328Y8039612D01*
X417974Y8039559D01*
X225116Y8044608D01*
X3169Y8050418D01*
X1768Y8050542D01*
X1150Y8050527D01*
X-1141Y8050527D01*
X-1536Y8050537D01*
X-2883Y8050426D01*
X-413647Y8039672D01*
X-416410Y8039811D01*
X-420499Y8039528D01*
X-422134Y8039443D01*
X-423201Y8039405D01*
X-424493Y8039223D01*
X-838212Y8006660D01*
X-839637Y8006640D01*
X-840400Y8006542D01*
X-842621Y8006308D01*
X-843350Y8006249D01*
X-844744Y8005974D01*
X-1256352Y7951784D01*
X-1257699Y7951688D01*
X-1258384Y7951564D01*
X-1260400Y7951244D01*
X-1261051Y7951155D01*
X-1262348Y7950835D01*
X-1327763Y7938712D01*
X-1670797Y7875140D01*
X-1671994Y7874990D01*
X-1673095Y7874742D01*
X-1674453Y7874456D01*
X-1675592Y7874233D01*
X-1676842Y7873852D01*
X-2080398Y7776957D01*
X-2081834Y7776709D01*
X-2082531Y7776504D01*
X-2084763Y7775905D01*
X-2085615Y7775698D01*
X-2086991Y7775186D01*
X-2484792Y7657351D01*
X-2486144Y7657037D01*
X-2486648Y7656860D01*
X-2488851Y7656145D01*
X-2489497Y7655953D01*
X-2490822Y7655386D01*
X-2878003Y7518279D01*
X-2880710Y7517541D01*
X-2884277Y7516098D01*
X-2885804Y7515509D01*
X-2886626Y7515209D01*
X-2887752Y7514665D01*
X-3271269Y7355812D01*
X-3272548Y7355380D01*
X-3273650Y7354866D01*
X-3275240Y7354160D01*
X-3276155Y7353773D01*
X-3277326Y7353122D01*
X-3652545Y7174147D01*
X-3653731Y7173652D01*
X-3653763Y7173634D01*
X-3655953Y7172518D01*
X-3656342Y7172333D01*
X-3657546Y7171583D01*
X-4022618Y6973366D01*
X-4023718Y6972850D01*
X-4024693Y6972269D01*
X-4025802Y6971629D01*
X-4026966Y6970978D01*
X-4027989Y6970259D01*
X-4381958Y6753349D01*
X-4383084Y6752750D01*
X-4383927Y6752183D01*
X-4385286Y6751302D01*
X-4386135Y6750772D01*
X-4387166Y6749968D01*
X-4729209Y6514890D01*
X-4730363Y6514203D01*
X-4731263Y6513524D01*
X-4732664Y6512506D01*
X-4733465Y6511946D01*
X-4734462Y6511079D01*
X-5063851Y6258323D01*
X-5064956Y6257578D01*
X-5065674Y6256973D01*
X-5067051Y6255857D01*
X-5067874Y6255215D01*
X-5068833Y6254284D01*
X-5384209Y5984937D01*
X-5385312Y5984116D01*
X-5386176Y5983309D01*
X-5387511Y5982107D01*
X-5388178Y5981529D01*
X-5389081Y5980563D01*
X-5690233Y5694782D01*
X-5691271Y5693914D01*
X-5691849Y5693312D01*
X-5693274Y5691889D01*
X-5693877Y5691312D01*
X-5694775Y5690239D01*
X-5980563Y5389081D01*
X-5981529Y5388178D01*
X-5982107Y5387511D01*
X-5983309Y5386176D01*
X-5984113Y5385315D01*
X-5984937Y5384208D01*
X-6254440Y5068652D01*
X-6255324Y5067732D01*
X-6255967Y5066911D01*
X-6256893Y5065765D01*
X-6257772Y5064712D01*
X-6258489Y5063635D01*
X-6511298Y4734178D01*
X-6512078Y4733268D01*
X-6512548Y4732600D01*
X-6513464Y4731343D01*
X-6514331Y4730192D01*
X-6515035Y4728996D01*
X-6749875Y4387299D01*
X-6750670Y4386287D01*
X-6751329Y4385237D01*
X-6752138Y4383991D01*
X-6752990Y4382723D01*
X-6753607Y4381535D01*
X-6970261Y4027985D01*
X-6971037Y4026881D01*
X-6971459Y4026115D01*
X-6972428Y4024440D01*
X-6972836Y4023766D01*
X-6973415Y4022528D01*
X-7171526Y3657651D01*
X-7172196Y3656581D01*
X-7172697Y3655562D01*
X-7173421Y3654147D01*
X-7174062Y3652945D01*
X-7174577Y3651639D01*
X-7353217Y3277128D01*
X-7353941Y3275812D01*
X-7355159Y3273068D01*
X-7355281Y3272816D01*
X-7355780Y3271347D01*
X-7514665Y2887752D01*
X-7515209Y2886626D01*
X-7515509Y2885804D01*
X-7516098Y2884277D01*
X-7517541Y2880710D01*
X-7518279Y2878003D01*
X-7655411Y2490752D01*
X-7655912Y2489576D01*
X-7656261Y2488443D01*
X-7656711Y2487059D01*
X-7657094Y2485940D01*
X-7657380Y2484694D01*
X-7775186Y2086991D01*
X-7775698Y2085615D01*
X-7775905Y2084763D01*
X-7776504Y2082531D01*
X-7776709Y2081834D01*
X-7776957Y2080398D01*
X-7873852Y1676842D01*
X-7874233Y1675592D01*
X-7874456Y1674453D01*
X-7874742Y1673095D01*
X-7874990Y1671994D01*
X-7875140Y1670797D01*
X-7950817Y1262444D01*
X-7951118Y1261234D01*
X-7951286Y1260068D01*
X-7951494Y1258753D01*
X-7951710Y1257500D01*
X-7951797Y1256262D01*
X-8003758Y861580D01*
X-8030099Y806355D01*
X-8083870Y777160D01*
X-8101911Y775502D01*
X-11300500Y775502D01*
X-11358691Y794409D01*
X-11394655Y843909D01*
X-11399500Y874502D01*
X-11399500Y998742D01*
X-11399474Y1000021D01*
X-11399695Y1001266D01*
X-11401113Y1010215D01*
X-11429340Y1188402D01*
X-11450559Y1322348D01*
X-11450793Y1324409D01*
X-11450924Y1324821D01*
X-11451908Y1326567D01*
X-11599158Y1615633D01*
X-11600001Y1617469D01*
X-11600049Y1617536D01*
X-11601518Y1618893D01*
X-11831077Y1848454D01*
X-11832453Y1849943D01*
X-11834308Y1850799D01*
X-11960224Y1914958D01*
X-12123545Y1998177D01*
X-12125134Y1999066D01*
X-12125317Y1999145D01*
X-12125427Y1999171D01*
X-12127168Y1999383D01*
X-12448042Y2050197D01*
X-12449948Y2050574D01*
X-12451680Y2050242D01*
X-12657395Y2017664D01*
X-12772861Y1999379D01*
X-12774343Y1999197D01*
X-12774651Y1999125D01*
X-12775019Y1998971D01*
X-12776326Y1998244D01*
X-13065982Y1850652D01*
X-13067538Y1849922D01*
X-13067587Y1849879D01*
X-13068794Y1848584D01*
X-13298677Y1618701D01*
X-13299936Y1617524D01*
X-13300044Y1617345D01*
X-13300777Y1615767D01*
X-13448231Y1326302D01*
X-13448959Y1324992D01*
X-13449114Y1324622D01*
X-13449187Y1324308D01*
X-13449369Y1322823D01*
X-13500280Y1001431D01*
X-13500536Y1000025D01*
X-21853347Y1000025D01*
X-21863544Y1010219D01*
X-21864947Y1011739D01*
X-21866806Y1012597D01*
X-22152060Y1157967D01*
X-22211781Y1188402D01*
X-22213380Y1189294D01*
X-22213513Y1189352D01*
X-22213631Y1189379D01*
X-22215382Y1189593D01*
X-22598031Y1250194D01*
X-22599949Y1250573D01*
X-22601676Y1250242D01*
X-22984645Y1189589D01*
X-22986134Y1189407D01*
X-22986451Y1189333D01*
X-22986813Y1189181D01*
X-22988124Y1188453D01*
X-23333490Y1012449D01*
X-23335025Y1011728D01*
X-23335117Y1011649D01*
X-23336298Y1010381D01*
X-23610510Y736230D01*
X-23611728Y735090D01*
X-23611828Y734927D01*
X-23612535Y733410D01*
X-23788434Y388096D01*
X-23789157Y386795D01*
X-23789313Y386421D01*
X-23789382Y386129D01*
X-23789565Y384642D01*
X-23850243Y1676D01*
X-23850566Y-9D01*
X-26058485Y-9D01*
X-25992159Y27464D01*
X-25866718Y123718D01*
X-25770464Y249159D01*
X-25709956Y395238D01*
X-25689318Y552000D01*
X-25709956Y708762D01*
X-25709958Y708767D01*
X-25770463Y854839D01*
X-25770463Y854840D01*
X-25866714Y980277D01*
X-25866715Y980278D01*
X-25866718Y980282D01*
X-25866723Y980286D01*
X-25866724Y980287D01*
X-25992162Y1076538D01*
X-26138234Y1137043D01*
X-26138242Y1137045D01*
X-26294999Y1157682D01*
X-26295001Y1157682D01*
X-26451759Y1137045D01*
X-26451767Y1137043D01*
X-26597839Y1076538D01*
X-26597840Y1076538D01*
X-26723277Y980287D01*
X-26723287Y980277D01*
X-26819538Y854840D01*
X-26819538Y854839D01*
X-26880043Y708767D01*
X-26880045Y708759D01*
X-26900682Y552001D01*
X-26900682Y552000D01*
X-39985052Y552000D01*
X-39944738Y2092105D01*
X-39944603Y2094694D01*
X-39942181Y2125463D01*
X-39780509Y4179792D01*
X-39780238Y4182370D01*
X-39741644Y4475463D01*
X-39680100Y4942842D01*
X-17292391Y4942842D01*
X-17273480Y4865557D01*
X-17226432Y4801393D01*
X-17175580Y4770536D01*
X-16996385Y4705314D01*
X-16818193Y5194893D01*
X-17166818Y5321782D01*
X-17283344Y5001628D01*
X-17292391Y4942844D01*
X-17292391Y4942842D01*
X-39680100Y4942842D01*
X-39567229Y5800000D01*
X-27805682Y5800000D01*
X-27785045Y5643242D01*
X-27785043Y5643234D01*
X-27724538Y5497162D01*
X-27724538Y5497161D01*
X-27635006Y5380481D01*
X-27628282Y5371718D01*
X-27502841Y5275464D01*
X-27356762Y5214956D01*
X-27239191Y5199478D01*
X-27200001Y5194318D01*
X-27200000Y5194318D01*
X-27199999Y5194318D01*
X-27168648Y5198446D01*
X-27043238Y5214956D01*
X-26897159Y5275464D01*
X-26771718Y5371718D01*
X-26675464Y5497159D01*
X-26614956Y5643238D01*
X-26594430Y5799147D01*
X-16993072Y5799147D01*
X-16993071Y5799146D01*
X-16644446Y5672256D01*
X-16644445Y5672256D01*
X-16260112Y5532371D01*
X-16211897Y5494701D01*
X-16195032Y5435886D01*
X-16200942Y5405481D01*
X-16519020Y4531567D01*
X-16339829Y4466346D01*
X-16339823Y4466345D01*
X-16281034Y4457296D01*
X-16267586Y4460586D01*
X-16206569Y4456052D01*
X-16164217Y4422964D01*
X-16155528Y4411113D01*
X-16155525Y4411111D01*
X-16127850Y4394318D01*
X-16104556Y4380183D01*
X-16104554Y4380181D01*
X-16104553Y4380181D01*
X-16104550Y4380179D01*
X-15155934Y4034911D01*
X-15096999Y4025840D01*
X-15019521Y4044800D01*
X-14955195Y4091965D01*
X-14924262Y4142942D01*
X-14888607Y4240908D01*
X-14850938Y4289121D01*
X-14792123Y4305987D01*
X-14782662Y4305201D01*
X-14700000Y4294318D01*
X-14699999Y4294318D01*
X-14668648Y4298446D01*
X-14543238Y4314956D01*
X-14397159Y4375464D01*
X-14271718Y4471718D01*
X-14175464Y4597159D01*
X-14114956Y4743238D01*
X-14094318Y4900000D01*
X-14114956Y5056762D01*
X-14116416Y5060287D01*
X-14175463Y5202839D01*
X-14175463Y5202840D01*
X-14271714Y5328277D01*
X-14271715Y5328278D01*
X-14271718Y5328282D01*
X-14271723Y5328286D01*
X-14271724Y5328287D01*
X-14387388Y5417039D01*
X-14422044Y5467464D01*
X-14420442Y5528628D01*
X-14420150Y5529441D01*
X-14346462Y5731897D01*
X-15135803Y6019193D01*
X-15184018Y6056863D01*
X-15200883Y6115678D01*
X-15194973Y6146083D01*
X-15118325Y6356672D01*
X-14577723Y6356672D01*
X-14172716Y6209261D01*
X-14090394Y6435436D01*
X-14090393Y6435442D01*
X-14081344Y6494230D01*
X-14081344Y6494232D01*
X-14100256Y6571517D01*
X-14147303Y6635682D01*
X-14198153Y6666538D01*
X-14433733Y6752282D01*
X-14577723Y6356672D01*
X-15118325Y6356672D01*
X-15061724Y6512181D01*
X-14911098Y6926028D01*
X-15146677Y7011772D01*
X-15205463Y7020820D01*
X-15205465Y7020820D01*
X-15218917Y7017528D01*
X-15279934Y7022065D01*
X-15322282Y7055152D01*
X-15330971Y7067002D01*
X-15330973Y7067003D01*
X-15330974Y7067005D01*
X-15381943Y7097933D01*
X-15381945Y7097935D01*
X-15640269Y7191957D01*
X-15688484Y7229627D01*
X-15705409Y7284987D01*
X-15705409Y7597566D01*
X-15705409Y9071724D01*
X-15705409Y10750000D01*
X7744318Y10750000D01*
X7764955Y10593242D01*
X7764957Y10593234D01*
X7825462Y10447162D01*
X7825462Y10447161D01*
X7897837Y10352840D01*
X7921718Y10321718D01*
X8047159Y10225464D01*
X8193238Y10164956D01*
X8310809Y10149478D01*
X8349999Y10144318D01*
X8350000Y10144318D01*
X8350001Y10144318D01*
X8381352Y10148446D01*
X8506762Y10164956D01*
X8652841Y10225464D01*
X8778282Y10321718D01*
X8874536Y10447159D01*
X8935044Y10593238D01*
X8955682Y10750000D01*
X8935044Y10906762D01*
X8925262Y10930378D01*
X8874537Y11052839D01*
X8874537Y11052840D01*
X8778286Y11178277D01*
X8778285Y11178278D01*
X8778282Y11178282D01*
X8778277Y11178286D01*
X8778276Y11178287D01*
X8652838Y11274538D01*
X8506766Y11335043D01*
X8506758Y11335045D01*
X8350001Y11355682D01*
X8349999Y11355682D01*
X8193241Y11335045D01*
X8193233Y11335043D01*
X8047161Y11274538D01*
X8047160Y11274538D01*
X7921723Y11178287D01*
X7921713Y11178277D01*
X7825462Y11052840D01*
X7825462Y11052839D01*
X7764957Y10906767D01*
X7764955Y10906759D01*
X7744318Y10750001D01*
X7744318Y10750000D01*
X-15705409Y10750000D01*
X-15705409Y10768763D01*
X-15686503Y10826950D01*
X-15676431Y10838744D01*
X-15538465Y10976711D01*
X-15483952Y11004485D01*
X-15455548Y11004857D01*
X-15375500Y10994318D01*
X-15218738Y11014956D01*
X-15072659Y11075464D01*
X-14947218Y11171718D01*
X-14850964Y11297159D01*
X-14790456Y11443238D01*
X-14769818Y11600000D01*
X-14790456Y11756762D01*
X-14850963Y11902839D01*
X-14850963Y11902840D01*
X-14947214Y12028277D01*
X-14947215Y12028278D01*
X-14947218Y12028282D01*
X-14947223Y12028286D01*
X-14947224Y12028287D01*
X-15018396Y12082899D01*
X-15072659Y12124536D01*
X-15072660Y12124537D01*
X-15072662Y12124538D01*
X-15218734Y12185043D01*
X-15218742Y12185045D01*
X-15375499Y12205682D01*
X-15375501Y12205682D01*
X-15532259Y12185045D01*
X-15532267Y12185043D01*
X-15678339Y12124538D01*
X-15678340Y12124538D01*
X-15803777Y12028287D01*
X-15803787Y12028277D01*
X-15900038Y11902840D01*
X-15900038Y11902839D01*
X-15960543Y11756767D01*
X-15960545Y11756759D01*
X-15981182Y11600000D01*
X-15970645Y11519960D01*
X-15981795Y11459799D01*
X-15998794Y11437034D01*
X-16249496Y11186332D01*
X-16252680Y11183415D01*
X-16284102Y11157049D01*
X-16284103Y11157047D01*
X-16304617Y11121516D01*
X-16306937Y11117875D01*
X-16330463Y11084275D01*
X-16330467Y11084267D01*
X-16330858Y11082805D01*
X-16340739Y11058951D01*
X-16341495Y11057643D01*
X-16341499Y11057631D01*
X-16348622Y11017242D01*
X-16349556Y11013027D01*
X-16360173Y10973404D01*
X-16360173Y10973398D01*
X-16356597Y10932519D01*
X-16356409Y10928218D01*
X-16356409Y7440835D01*
X-16375316Y7382644D01*
X-16396868Y7360998D01*
X-16418541Y7345107D01*
X-16418542Y7345106D01*
X-16449470Y7294137D01*
X-16449472Y7294135D01*
X-16787901Y6364309D01*
X-16787902Y6364305D01*
X-16796971Y6305377D01*
X-16796971Y6305373D01*
X-16792049Y6285260D01*
X-16796584Y6224243D01*
X-16829670Y6181894D01*
X-16845689Y6170149D01*
X-16876542Y6119303D01*
X-16876548Y6119292D01*
X-16993072Y5799147D01*
X-26594430Y5799147D01*
X-26594318Y5800000D01*
X-26614956Y5956762D01*
X-26675463Y6102839D01*
X-26675463Y6102840D01*
X-26771714Y6228277D01*
X-26771715Y6228278D01*
X-26771718Y6228282D01*
X-26771723Y6228286D01*
X-26771724Y6228287D01*
X-26872187Y6305374D01*
X-26897159Y6324536D01*
X-26897160Y6324537D01*
X-26897162Y6324538D01*
X-27043234Y6385043D01*
X-27043242Y6385045D01*
X-27199999Y6405682D01*
X-27200001Y6405682D01*
X-27356759Y6385045D01*
X-27356767Y6385043D01*
X-27502839Y6324538D01*
X-27502840Y6324538D01*
X-27628277Y6228287D01*
X-27628287Y6228277D01*
X-27724538Y6102840D01*
X-27724538Y6102839D01*
X-27785043Y5956767D01*
X-27785045Y5956759D01*
X-27805682Y5800001D01*
X-27805682Y5800000D01*
X-39567229Y5800000D01*
X-39507172Y6256079D01*
X-39506779Y6258558D01*
X-39125647Y8315124D01*
X-39125116Y8317622D01*
X-38841241Y9500000D01*
X-28605682Y9500000D01*
X-28585045Y9343242D01*
X-28585043Y9343234D01*
X-28524538Y9197162D01*
X-28524538Y9197161D01*
X-28524536Y9197159D01*
X-28428282Y9071718D01*
X-28302841Y8975464D01*
X-28156762Y8914956D01*
X-28039191Y8899478D01*
X-28000001Y8894318D01*
X-28000000Y8894318D01*
X-27999999Y8894318D01*
X-27968648Y8898446D01*
X-27843238Y8914956D01*
X-27697159Y8975464D01*
X-27571718Y9071718D01*
X-27475464Y9197159D01*
X-27414956Y9343238D01*
X-27394318Y9500000D01*
X-27414956Y9656762D01*
X-27475463Y9802839D01*
X-27475463Y9802840D01*
X-27571714Y9928277D01*
X-27571715Y9928278D01*
X-27571718Y9928282D01*
X-27571723Y9928286D01*
X-27571724Y9928287D01*
X-27697162Y10024538D01*
X-27843234Y10085043D01*
X-27843242Y10085045D01*
X-27999999Y10105682D01*
X-28000001Y10105682D01*
X-28156759Y10085045D01*
X-28156767Y10085043D01*
X-28302839Y10024538D01*
X-28302840Y10024538D01*
X-28428277Y9928287D01*
X-28428287Y9928277D01*
X-28524538Y9802840D01*
X-28524538Y9802839D01*
X-28585043Y9656767D01*
X-28585045Y9656759D01*
X-28605682Y9500001D01*
X-28605682Y9500000D01*
X-38841241Y9500000D01*
X-38636822Y10351433D01*
X-38636157Y10353914D01*
X-38042179Y12359375D01*
X-38041409Y12361743D01*
X-37532045Y13800000D01*
X-26305682Y13800000D01*
X-26285045Y13643242D01*
X-26285043Y13643234D01*
X-26224538Y13497162D01*
X-26224538Y13497161D01*
X-26128287Y13371724D01*
X-26128282Y13371718D01*
X-26002841Y13275464D01*
X-25856762Y13214956D01*
X-25739191Y13199478D01*
X-25700001Y13194318D01*
X-25700000Y13194318D01*
X-25699999Y13194318D01*
X-25668648Y13198446D01*
X-25543238Y13214956D01*
X-25397159Y13275464D01*
X-25271718Y13371718D01*
X-25175464Y13497159D01*
X-25114956Y13643238D01*
X-25094318Y13800000D01*
X-25114956Y13956762D01*
X-25162575Y14071724D01*
X-25175463Y14102839D01*
X-25175463Y14102840D01*
X-25271714Y14228277D01*
X-25271715Y14228278D01*
X-25271718Y14228282D01*
X-25271723Y14228286D01*
X-25271724Y14228287D01*
X-25347535Y14286458D01*
X-25397159Y14324536D01*
X-25397160Y14324537D01*
X-25397162Y14324538D01*
X-25543234Y14385043D01*
X-25543242Y14385045D01*
X-25699999Y14405682D01*
X-25700001Y14405682D01*
X-25856759Y14385045D01*
X-25856767Y14385043D01*
X-26002839Y14324538D01*
X-26002840Y14324538D01*
X-26128277Y14228287D01*
X-26128287Y14228277D01*
X-26224538Y14102840D01*
X-26224538Y14102839D01*
X-26285043Y13956767D01*
X-26285045Y13956759D01*
X-26305682Y13800001D01*
X-26305682Y13800000D01*
X-37532045Y13800000D01*
X-37343162Y14333337D01*
X-37342267Y14335668D01*
X-36541824Y16268159D01*
X-36540809Y16270438D01*
X-36168990Y17050000D01*
X-29755682Y17050000D01*
X-29735045Y16893242D01*
X-29735043Y16893234D01*
X-29674538Y16747162D01*
X-29674538Y16747161D01*
X-29578287Y16621724D01*
X-29578282Y16621718D01*
X-29452841Y16525464D01*
X-29306762Y16464956D01*
X-29219505Y16453469D01*
X-29164281Y16427128D01*
X-29162424Y16425320D01*
X-28038408Y15301304D01*
X-28034706Y15297162D01*
X-28009879Y15266030D01*
X-27961491Y15233039D01*
X-27959982Y15231968D01*
X-27948609Y15223575D01*
X-27912882Y15197207D01*
X-27912879Y15197206D01*
X-27906323Y15193741D01*
X-27906531Y15193349D01*
X-27904550Y15192349D01*
X-27904357Y15192747D01*
X-27897673Y15189528D01*
X-27841708Y15172266D01*
X-27839957Y15171690D01*
X-27784699Y15152354D01*
X-27784698Y15152354D01*
X-27777407Y15150974D01*
X-27777490Y15150540D01*
X-27775303Y15150169D01*
X-27775237Y15150606D01*
X-27767904Y15149501D01*
X-27767902Y15149500D01*
X-27709374Y15149500D01*
X-27707523Y15149465D01*
X-27684080Y15148589D01*
X-27648990Y15147275D01*
X-27648983Y15147277D01*
X-27641616Y15148106D01*
X-27641567Y15147668D01*
X-27627653Y15149500D01*
X-24231629Y15149500D01*
X-24173438Y15130593D01*
X-24137474Y15081093D01*
X-24137474Y15019907D01*
X-24171362Y14971958D01*
X-24228278Y14928286D01*
X-24228287Y14928277D01*
X-24324538Y14802840D01*
X-24324538Y14802839D01*
X-24385043Y14656767D01*
X-24385045Y14656759D01*
X-24405682Y14500001D01*
X-24405682Y14500000D01*
X-24385045Y14343242D01*
X-24385043Y14343234D01*
X-24324538Y14197162D01*
X-24324538Y14197161D01*
X-24228287Y14071724D01*
X-24228282Y14071718D01*
X-24102841Y13975464D01*
X-24102840Y13975464D01*
X-24102839Y13975463D01*
X-24046450Y13952106D01*
X-23956762Y13914956D01*
X-23845582Y13900319D01*
X-23800001Y13894318D01*
X-23800000Y13894318D01*
X-23799999Y13894318D01*
X-23768648Y13898446D01*
X-23756920Y13899990D01*
X-8250565Y13899990D01*
X-8250233Y13898269D01*
X-8249607Y13894318D01*
X-8189593Y13515377D01*
X-8189379Y13513626D01*
X-8189352Y13513508D01*
X-8189294Y13513375D01*
X-8188402Y13511776D01*
X-8170014Y13475694D01*
X-8012597Y13166801D01*
X-8011739Y13164942D01*
X-8010215Y13163535D01*
X-7736441Y12889701D01*
X-7735082Y12888233D01*
X-7735010Y12888182D01*
X-7733122Y12887316D01*
X-7388326Y12711684D01*
X-7386460Y12710636D01*
X-7384373Y12710392D01*
X-7001927Y12649800D01*
X-7000250Y12649468D01*
X-6999614Y12649473D01*
X-6997776Y12649848D01*
X-6615671Y12710389D01*
X-6613642Y12710626D01*
X-6613396Y12710706D01*
X-6611536Y12711760D01*
X-6334567Y12852841D01*
X-6267009Y12887254D01*
X-6265198Y12888078D01*
X-6264731Y12888417D01*
X-6263437Y12889827D01*
X-5989913Y13163412D01*
X-5988486Y13164720D01*
X-5988138Y13165196D01*
X-5987363Y13166885D01*
X-5811730Y13511524D01*
X-5810681Y13513376D01*
X-5810603Y13513612D01*
X-5810362Y13515683D01*
X-5809710Y13519799D01*
X-5749850Y13897766D01*
X-5749468Y13899638D01*
X-5749464Y13900319D01*
X-5749842Y13902191D01*
X-5761447Y13975464D01*
X-5810370Y14284370D01*
X-5810617Y14286486D01*
X-5811666Y14288351D01*
X-5987413Y14633215D01*
X-5988241Y14635009D01*
X-5988292Y14635078D01*
X-5989762Y14636438D01*
X-5999665Y14646343D01*
X-6263568Y14910306D01*
X-6264932Y14911778D01*
X-6266773Y14912628D01*
X-6611764Y15088358D01*
X-6613354Y15089248D01*
X-6613555Y15089335D01*
X-6613632Y15089353D01*
X-6615390Y15089568D01*
X-6662290Y15096999D01*
X4025840Y15096999D01*
X4031110Y15075464D01*
X4044800Y15019521D01*
X4091964Y14955196D01*
X4091966Y14955194D01*
X4142934Y14924266D01*
X4142937Y14924265D01*
X4142942Y14924262D01*
X4803023Y14684012D01*
X4851237Y14646343D01*
X4862053Y14625223D01*
X5243733Y13589737D01*
X5261877Y13538045D01*
X5261878Y13538043D01*
X5276832Y13519799D01*
X5285798Y13506893D01*
X5297676Y13486513D01*
X5310677Y13475694D01*
X5323916Y13462357D01*
X5334647Y13449266D01*
X5354945Y13437234D01*
X5367771Y13428182D01*
X5385909Y13413088D01*
X5429973Y13397254D01*
X5437528Y13394539D01*
X7960357Y12443308D01*
X8008135Y12405087D01*
X8016893Y12388560D01*
X8029000Y12359332D01*
X8075464Y12247159D01*
X8123126Y12185045D01*
X8169555Y12124536D01*
X8171718Y12121718D01*
X8297159Y12025464D01*
X8443238Y11964956D01*
X8560809Y11949478D01*
X8599999Y11944318D01*
X8600000Y11944318D01*
X8600001Y11944318D01*
X8631352Y11948446D01*
X8756762Y11964956D01*
X8902841Y12025464D01*
X9028282Y12121718D01*
X9124536Y12247159D01*
X9185044Y12393238D01*
X9205682Y12550000D01*
X9185044Y12706762D01*
X9183543Y12710386D01*
X9124537Y12852839D01*
X9124537Y12852840D01*
X9028286Y12978277D01*
X9028285Y12978278D01*
X9028282Y12978282D01*
X9028277Y12978286D01*
X9028276Y12978287D01*
X8902838Y13074538D01*
X8756766Y13135043D01*
X8756758Y13135045D01*
X8600001Y13155682D01*
X8599999Y13155682D01*
X8443241Y13135045D01*
X8443236Y13135043D01*
X8297160Y13074537D01*
X8297158Y13074536D01*
X8286238Y13066156D01*
X8228562Y13045733D01*
X8191044Y13052065D01*
X8131444Y13074537D01*
X7889935Y13165598D01*
X5846301Y13936150D01*
X5798523Y13974371D01*
X5788339Y13994544D01*
X5722664Y14172717D01*
X6209259Y14172717D01*
X6435443Y14090392D01*
X6494229Y14081344D01*
X6494231Y14081344D01*
X6571516Y14100256D01*
X6635681Y14147303D01*
X6666536Y14198153D01*
X6752280Y14433733D01*
X6356670Y14577723D01*
X6209259Y14172717D01*
X5722664Y14172717D01*
X5700872Y14231837D01*
X5698486Y14292976D01*
X5729088Y14338749D01*
X5937333Y14910893D01*
X6019193Y15135803D01*
X6056863Y15184018D01*
X6115678Y15200883D01*
X6146083Y15194973D01*
X6926026Y14911098D01*
X7007984Y15136275D01*
X7045654Y15184490D01*
X7104469Y15201355D01*
X7161964Y15180428D01*
X7171018Y15172419D01*
X7171713Y15171724D01*
X7171718Y15171718D01*
X7171722Y15171715D01*
X7171723Y15171714D01*
X7192287Y15155935D01*
X7297159Y15075464D01*
X7443238Y15014956D01*
X7560809Y14999478D01*
X7599999Y14994318D01*
X7600000Y14994318D01*
X7600001Y14994318D01*
X7631352Y14998446D01*
X7756762Y15014956D01*
X7902841Y15075464D01*
X8028282Y15171718D01*
X8124536Y15297159D01*
X8185044Y15443238D01*
X8205682Y15600000D01*
X8185044Y15756762D01*
X8177566Y15774815D01*
X8124537Y15902839D01*
X8124537Y15902840D01*
X8028286Y16028277D01*
X8028285Y16028278D01*
X8028282Y16028282D01*
X8028277Y16028286D01*
X8028276Y16028287D01*
X7928882Y16104554D01*
X7902841Y16124536D01*
X7902840Y16124537D01*
X7902838Y16124538D01*
X7756766Y16185043D01*
X7756758Y16185045D01*
X7600001Y16205682D01*
X7599999Y16205682D01*
X7521957Y16195408D01*
X7461796Y16206558D01*
X7419679Y16250941D01*
X7412872Y16270030D01*
X7411231Y16276734D01*
X7411232Y16276736D01*
X7392273Y16354214D01*
X7345108Y16418539D01*
X7345106Y16418540D01*
X7345105Y16418542D01*
X7294136Y16449470D01*
X7294134Y16449472D01*
X6832951Y16617329D01*
X6364309Y16787901D01*
X6364306Y16787902D01*
X6364304Y16787902D01*
X6305376Y16796971D01*
X6305372Y16796971D01*
X6285259Y16792049D01*
X6224242Y16796584D01*
X6181891Y16829672D01*
X6170146Y16845690D01*
X6119302Y16876542D01*
X6119300Y16876544D01*
X5799144Y16993071D01*
X5662387Y16617339D01*
X5662386Y16617329D01*
X5532370Y16260112D01*
X5494700Y16211897D01*
X5435885Y16195032D01*
X5405480Y16200942D01*
X4531566Y16519020D01*
X4531565Y16519020D01*
X4466343Y16339821D01*
X4457295Y16281034D01*
X4460586Y16267586D01*
X4456052Y16206569D01*
X4422964Y16164217D01*
X4411112Y16155528D01*
X4411110Y16155525D01*
X4380182Y16104556D01*
X4380180Y16104554D01*
X4034911Y15155935D01*
X4034910Y15155932D01*
X4027176Y15105682D01*
X4025840Y15096999D01*
X-6662290Y15096999D01*
X-6998207Y15150223D01*
X-7000002Y15150572D01*
X-7001801Y15150222D01*
X-7282909Y15105682D01*
X-7384638Y15089564D01*
X-7386125Y15089381D01*
X-7386417Y15089312D01*
X-7386789Y15089157D01*
X-7388093Y15088432D01*
X-7733405Y14912539D01*
X-7734989Y14911801D01*
X-7735052Y14911763D01*
X-7735122Y14911703D01*
X-7736304Y14910436D01*
X-8010401Y14636278D01*
X-8011696Y14635071D01*
X-8011811Y14634881D01*
X-8012543Y14633305D01*
X-8016661Y14625223D01*
X-8188472Y14288086D01*
X-8189202Y14286769D01*
X-8189330Y14286464D01*
X-8189406Y14286138D01*
X-8189589Y14284646D01*
X-8250242Y13901674D01*
X-8250565Y13899990D01*
X-23756920Y13899990D01*
X-23643238Y13914956D01*
X-23497159Y13975464D01*
X-23371718Y14071718D01*
X-23275464Y14197159D01*
X-23214956Y14343238D01*
X-23194318Y14500000D01*
X-23214956Y14656762D01*
X-23226244Y14684013D01*
X-23275463Y14802839D01*
X-23275463Y14802840D01*
X-23371714Y14928277D01*
X-23371715Y14928278D01*
X-23371718Y14928282D01*
X-23428639Y14971959D01*
X-23463294Y15022382D01*
X-23461693Y15083546D01*
X-23424446Y15132088D01*
X-23368371Y15149500D01*
X-10626005Y15149500D01*
X-10620459Y15149189D01*
X-10580883Y15144730D01*
X-10523334Y15155620D01*
X-10521518Y15155928D01*
X-10463631Y15164652D01*
X-10463628Y15164654D01*
X-10456537Y15166841D01*
X-10456406Y15166416D01*
X-10454305Y15167108D01*
X-10454451Y15167527D01*
X-10447455Y15169976D01*
X-10447446Y15169977D01*
X-10410455Y15189528D01*
X-10395666Y15197344D01*
X-10394012Y15198179D01*
X-10373862Y15207884D01*
X-10341276Y15223575D01*
X-10341272Y15223579D01*
X-10335140Y15227758D01*
X-10334890Y15227391D01*
X-10333086Y15228671D01*
X-10333350Y15229029D01*
X-10327388Y15233431D01*
X-10327380Y15233434D01*
X-10285921Y15274895D01*
X-10284669Y15276100D01*
X-10241724Y15315945D01*
X-10241722Y15315949D01*
X-10237095Y15321749D01*
X-10236750Y15321474D01*
X-10228214Y15332602D01*
X-8564431Y16996385D01*
X4705311Y16996385D01*
X5194891Y16818193D01*
X5321780Y17166818D01*
X5001630Y17283343D01*
X5001627Y17283344D01*
X4942843Y17292391D01*
X4942841Y17292391D01*
X4865556Y17273480D01*
X4801390Y17226431D01*
X4770538Y17175587D01*
X4770532Y17175576D01*
X4705311Y16996385D01*
X-8564431Y16996385D01*
X-6393281Y19167535D01*
X-6338766Y19195310D01*
X-6310361Y19195682D01*
X-6300000Y19194318D01*
X-6143238Y19214956D01*
X-5997159Y19275464D01*
X-5871718Y19371718D01*
X-5775464Y19497159D01*
X-5714956Y19643238D01*
X-5694318Y19800000D01*
X-5714956Y19956762D01*
X-5732939Y20000177D01*
X-5775463Y20102839D01*
X-5775463Y20102840D01*
X-5871714Y20228277D01*
X-5871715Y20228278D01*
X-5871718Y20228282D01*
X-5871723Y20228286D01*
X-5871724Y20228287D01*
X-5997162Y20324538D01*
X-6143234Y20385043D01*
X-6143242Y20385045D01*
X-6299999Y20405682D01*
X-6300001Y20405682D01*
X-6456759Y20385045D01*
X-6456767Y20385043D01*
X-6602839Y20324538D01*
X-6602840Y20324538D01*
X-6728277Y20228287D01*
X-6728287Y20228277D01*
X-6824537Y20102840D01*
X-6882306Y19963375D01*
X-6903766Y19931257D01*
X-10755525Y16079496D01*
X-10810042Y16051719D01*
X-10825529Y16050500D01*
X-27472389Y16050500D01*
X-27530580Y16069407D01*
X-27542393Y16079496D01*
X-28525320Y17062423D01*
X-28553097Y17116940D01*
X-28553469Y17119505D01*
X-28559698Y17166818D01*
X-28564956Y17206762D01*
X-28573103Y17226431D01*
X-28625463Y17352839D01*
X-28625463Y17352840D01*
X-28721714Y17478277D01*
X-28721715Y17478278D01*
X-28721718Y17478282D01*
X-28721723Y17478286D01*
X-28721724Y17478287D01*
X-28847162Y17574538D01*
X-28993234Y17635043D01*
X-28993242Y17635045D01*
X-29149999Y17655682D01*
X-29150001Y17655682D01*
X-29306759Y17635045D01*
X-29306767Y17635043D01*
X-29452839Y17574538D01*
X-29452840Y17574538D01*
X-29578277Y17478287D01*
X-29578287Y17478277D01*
X-29674538Y17352840D01*
X-29674538Y17352839D01*
X-29735043Y17206767D01*
X-29735045Y17206759D01*
X-29755682Y17050001D01*
X-29755682Y17050000D01*
X-36168990Y17050000D01*
X-35640410Y18158229D01*
X-35639258Y18160491D01*
X-34641179Y19998636D01*
X-34639915Y20000827D01*
X-33547037Y21784271D01*
X-33545675Y21786368D01*
X-32361023Y23510061D01*
X-32359532Y23512113D01*
X-31086192Y25171480D01*
X-31084587Y25173462D01*
X-30115346Y26308328D01*
X-27520162Y26308328D01*
X-27520159Y25873697D01*
X-27520158Y25873691D01*
X-27518085Y25834155D01*
X-27518085Y25834152D01*
X-27511787Y25774261D01*
X-27511784Y25774243D01*
X-27505601Y25735213D01*
X-27505590Y25735153D01*
X-27415255Y25310185D01*
X-27415242Y25310129D01*
X-27405011Y25271951D01*
X-27405008Y25271941D01*
X-27397581Y25249083D01*
X-27386384Y25214620D01*
X-27372192Y25177653D01*
X-27195425Y24780688D01*
X-27195422Y24780681D01*
X-27177472Y24745456D01*
X-27177467Y24745446D01*
X-27147339Y24693264D01*
X-27130266Y24666975D01*
X-27125792Y24660085D01*
X-26870998Y24309394D01*
X-26870982Y24309372D01*
X-26857381Y24291769D01*
X-26857341Y24291719D01*
X-26845453Y24277238D01*
X-26839500Y24269987D01*
X-26830785Y24259987D01*
X-26824856Y24253184D01*
X-26531884Y23936402D01*
X-26284449Y23675961D01*
X-26101782Y23483691D01*
X-26097196Y23478864D01*
X-25576540Y22930784D01*
X-25576540Y22930785D01*
X-25547997Y22900735D01*
X-25543717Y22896229D01*
X-24952745Y22274137D01*
X-24928825Y22248962D01*
X-24920688Y22240397D01*
X-24265623Y21550871D01*
X-24265622Y21550869D01*
X-24265621Y21550869D01*
X-23517330Y20763174D01*
X-22663508Y19864421D01*
X-22663507Y19864420D01*
X-21844880Y19002707D01*
X-21612392Y18757991D01*
X-21042616Y18158219D01*
X-21028524Y18143386D01*
X-21016364Y18131158D01*
X-21000657Y18116067D01*
X-21000623Y18116036D01*
X-20987904Y18104363D01*
X-20663498Y17820027D01*
X-20663476Y17820008D01*
X-20634472Y17796999D01*
X-20634468Y17796996D01*
X-20622850Y17788673D01*
X-20588598Y17764135D01*
X-20573426Y17754355D01*
X-20557474Y17744071D01*
X-20181664Y17527092D01*
X-20146402Y17509125D01*
X-20112471Y17494019D01*
X-20091362Y17484620D01*
X-20091357Y17484618D01*
X-20091341Y17484611D01*
X-20054400Y17470431D01*
X-19641034Y17336128D01*
X-19602822Y17325889D01*
X-19543877Y17313360D01*
X-19504781Y17307169D01*
X-19504760Y17307167D01*
X-19504754Y17307166D01*
X-19409807Y17297191D01*
X-19072575Y17261759D01*
X-19033077Y17259690D01*
X-19033064Y17259690D01*
X-18972852Y17259690D01*
X-18972838Y17259690D01*
X-18933341Y17261759D01*
X-18501168Y17307164D01*
X-18501158Y17307165D01*
X-18501157Y17307166D01*
X-18501130Y17307168D01*
X-18462044Y17313357D01*
X-18426670Y17320876D01*
X-18403094Y17325885D01*
X-18403085Y17325887D01*
X-18364878Y17336125D01*
X-18364861Y17336131D01*
X-18364846Y17336134D01*
X-17951536Y17470440D01*
X-17951528Y17470444D01*
X-17951519Y17470446D01*
X-17931097Y17478287D01*
X-17914585Y17484626D01*
X-17859551Y17509134D01*
X-17824325Y17527083D01*
X-17449520Y17743469D01*
X-17422405Y17760700D01*
X-17382244Y17788687D01*
X-17356681Y17808167D01*
X-17026490Y18082736D01*
X-17017086Y18090821D01*
X-17005408Y18101199D01*
X-16996308Y18109556D01*
X-16884815Y18215360D01*
X-16883872Y18216231D01*
X-16351548Y18695546D01*
X-16350613Y18696367D01*
X-16018117Y18980353D01*
X-16017297Y18981036D01*
X-15081610Y19738764D01*
X-15079611Y19740298D01*
X-14082478Y20464775D01*
X-14068205Y20473407D01*
X-14056977Y20478963D01*
X-13102468Y21098804D01*
X-13101421Y21099465D01*
X-13030285Y21143054D01*
X-13029280Y21143652D01*
X-11796450Y21855393D01*
X-11795419Y21855971D01*
X-11721871Y21895905D01*
X-11720775Y21896481D01*
X-10648159Y22443049D01*
X-10645886Y22444133D01*
X-9555742Y22929516D01*
X-9553420Y22930478D01*
X-8429576Y23361846D01*
X-8428443Y23362264D01*
X-8349607Y23390180D01*
X-8348509Y23390554D01*
X-6994672Y23830425D01*
X-6993450Y23830804D01*
X-6913362Y23854529D01*
X-6912231Y23854849D01*
X-5749299Y24166455D01*
X-5746841Y24167046D01*
X-4579622Y24415187D01*
X-4577100Y24415655D01*
X-3554221Y24577697D01*
X-3388084Y24604015D01*
X-3386801Y24604201D01*
X-3371648Y24606197D01*
X-3304071Y24615095D01*
X-3302853Y24615239D01*
X-1887177Y24763995D01*
X-1886012Y24764102D01*
X-1802636Y24770661D01*
X-1801479Y24770736D01*
X-599231Y24833738D01*
X-596646Y24833805D01*
X596634Y24833805D01*
X599218Y24833738D01*
X1801472Y24770736D01*
X1802666Y24770657D01*
X1885926Y24764109D01*
X1887181Y24763994D01*
X3302815Y24615242D01*
X3304011Y24615101D01*
X3368121Y24606661D01*
X3386772Y24604205D01*
X3388056Y24604019D01*
X4577083Y24415656D01*
X4579632Y24415183D01*
X4720798Y24385173D01*
X5746801Y24167054D01*
X5749261Y24166464D01*
X6912139Y23854870D01*
X6913337Y23854533D01*
X6989805Y23831881D01*
X6993441Y23830804D01*
X6994672Y23830422D01*
X8348448Y23390572D01*
X8349552Y23390197D01*
X8428313Y23362309D01*
X8429383Y23361915D01*
X9553376Y22930491D01*
X9555725Y22929517D01*
X10645837Y22444151D01*
X10648125Y22443060D01*
X11300612Y22110577D01*
X11720746Y21896492D01*
X11721890Y21895891D01*
X11795355Y21856002D01*
X11795363Y21855998D01*
X11796441Y21855395D01*
X13029166Y21143712D01*
X13030228Y21143080D01*
X13101417Y21099460D01*
X13102468Y21098798D01*
X14071472Y20469546D01*
X14079620Y20464770D01*
X14092302Y20457337D01*
X14096369Y20454676D01*
X15079586Y19740310D01*
X15081620Y19738750D01*
X16017327Y18981003D01*
X16018185Y18980289D01*
X16350558Y18696408D01*
X16351486Y18695593D01*
X16883806Y18216283D01*
X16884757Y18215404D01*
X16989473Y18116032D01*
X16996297Y18109556D01*
X17005398Y18101198D01*
X17017076Y18090820D01*
X17017117Y18090785D01*
X17017119Y18090783D01*
X17026452Y18082759D01*
X17026480Y18082736D01*
X17026481Y18082735D01*
X17356680Y17808158D01*
X17382251Y17788673D01*
X17422408Y17760690D01*
X17449514Y17743465D01*
X17742115Y17574538D01*
X17824312Y17527083D01*
X17824323Y17527077D01*
X17859551Y17509127D01*
X17859570Y17509118D01*
X17914565Y17484631D01*
X17914592Y17484619D01*
X17951532Y17470437D01*
X18364827Y17336136D01*
X18364831Y17336135D01*
X18364834Y17336134D01*
X18364849Y17336130D01*
X18403037Y17325896D01*
X18403046Y17325895D01*
X18403062Y17325890D01*
X18462028Y17313357D01*
X18501120Y17307167D01*
X18501142Y17307165D01*
X18501147Y17307164D01*
X18596158Y17297183D01*
X18933329Y17261759D01*
X18972825Y17259690D01*
X18972839Y17259690D01*
X19033049Y17259690D01*
X19033063Y17259690D01*
X19072560Y17261759D01*
X19445444Y17300935D01*
X19504736Y17307164D01*
X19504738Y17307165D01*
X19504754Y17307166D01*
X19543838Y17313355D01*
X19543845Y17313357D01*
X19543848Y17313357D01*
X19543853Y17313358D01*
X19559362Y17316655D01*
X19602793Y17325884D01*
X19626050Y17332116D01*
X19641007Y17336122D01*
X19641009Y17336124D01*
X19641017Y17336125D01*
X20054384Y17470429D01*
X20091315Y17484604D01*
X20146373Y17509114D01*
X20181644Y17527085D01*
X20557457Y17744065D01*
X20588589Y17764134D01*
X20634453Y17796991D01*
X20663469Y17820010D01*
X20987919Y18104386D01*
X21000643Y18116063D01*
X21016350Y18131154D01*
X21028510Y18143382D01*
X21612390Y18758000D01*
X21612389Y18758001D01*
X21624133Y18770364D01*
X21881449Y19041212D01*
X23487181Y20731455D01*
X24234536Y21518158D01*
X24234535Y21518159D01*
X24262268Y21547351D01*
X24262267Y21547351D01*
X24913699Y22233053D01*
X24920637Y22240355D01*
X24920638Y22240354D01*
X24952723Y22274122D01*
X25113186Y22443034D01*
X25535585Y22887676D01*
X25543709Y22896229D01*
X25576530Y22930783D01*
X26101796Y23483715D01*
X26101795Y23483716D01*
X26110563Y23492945D01*
X26531899Y23936429D01*
X26824845Y24253184D01*
X26839487Y24269984D01*
X26857344Y24291737D01*
X26870986Y24309392D01*
X27125779Y24660084D01*
X27147326Y24693262D01*
X27177450Y24745437D01*
X27195408Y24780677D01*
X27372177Y25177645D01*
X27386364Y25214599D01*
X27386364Y25214602D01*
X27386367Y25214606D01*
X27404985Y25271906D01*
X27404995Y25271941D01*
X27404998Y25271951D01*
X27415231Y25310138D01*
X27505585Y25735175D01*
X27511775Y25774253D01*
X27518076Y25834189D01*
X27520148Y25873708D01*
X27520152Y26308342D01*
X27519726Y26316456D01*
X27518082Y26347855D01*
X27518081Y26347863D01*
X27511779Y26407812D01*
X27511778Y26407818D01*
X27505593Y26446863D01*
X27505585Y26446903D01*
X27415237Y26871941D01*
X27415233Y26871959D01*
X27415233Y26871960D01*
X27404993Y26910176D01*
X27386366Y26967504D01*
X27372178Y27004464D01*
X27195403Y27401443D01*
X27177433Y27436704D01*
X27147294Y27488896D01*
X27125742Y27522077D01*
X27125730Y27522093D01*
X26871507Y27871943D01*
X26859504Y27887586D01*
X26843810Y27906970D01*
X26843809Y27906971D01*
X26830927Y27922056D01*
X26830908Y27922078D01*
X26779562Y27979091D01*
X26758662Y28002299D01*
X26747211Y28014528D01*
X26747198Y28014542D01*
X26578053Y28188164D01*
X26566126Y28199935D01*
X26394885Y28362453D01*
X26095170Y28646916D01*
X26095171Y28646916D01*
X26056628Y28683501D01*
X25993407Y28743512D01*
X25985211Y28751094D01*
X25877645Y28847969D01*
X25877631Y28847982D01*
X25869205Y28855372D01*
X25869036Y28855516D01*
X25775022Y28935823D01*
X25775022Y28935824D01*
X25489689Y29179528D01*
X25434454Y29226702D01*
X25434451Y29226704D01*
X25213536Y29415343D01*
X25213474Y29415396D01*
X25169545Y29452901D01*
X25169546Y29452901D01*
X25036813Y29566276D01*
X25035942Y29567020D01*
X24992666Y29604003D01*
X24992651Y29604016D01*
X24948234Y29641943D01*
X24948227Y29641948D01*
X24948080Y29642074D01*
X24948055Y29642095D01*
X24903855Y29679824D01*
X24903843Y29679844D01*
X24903839Y29679838D01*
X24702093Y29852125D01*
X24693509Y29859267D01*
X24235549Y30230097D01*
X24235544Y30230101D01*
X24226771Y30237019D01*
X23120331Y31086031D01*
X23120182Y31086142D01*
X22777953Y31341743D01*
X22769000Y31348248D01*
X22768969Y31348270D01*
X22768951Y31348283D01*
X22419997Y31594935D01*
X21807845Y32015634D01*
X21798612Y32021798D01*
X20211904Y33052206D01*
X20211868Y33052229D01*
X20211865Y33052231D01*
X20203608Y33057442D01*
X20203590Y33057453D01*
X20203576Y33057462D01*
X20192937Y33063983D01*
X20192931Y33063987D01*
X20192914Y33063997D01*
X20184413Y33069055D01*
X19357670Y33546383D01*
X18546460Y34014743D01*
X18537846Y34019568D01*
X18526875Y34025525D01*
X18525911Y34026032D01*
X18518063Y34030162D01*
X16832393Y34889039D01*
X16822412Y34893965D01*
X16822397Y34893972D01*
X16822371Y34893985D01*
X16151917Y35213763D01*
X16151913Y35213765D01*
X16151888Y35213777D01*
X15763908Y35392616D01*
X15753797Y35397118D01*
X15753783Y35397124D01*
X15753745Y35397141D01*
X15361122Y35565811D01*
X15361080Y35565829D01*
X15361053Y35565840D01*
X14674792Y35850112D01*
X14664496Y35854209D01*
X12898199Y36532212D01*
X12892884Y36534172D01*
X12888883Y36535647D01*
X12882721Y36537828D01*
X12877097Y36539819D01*
X12867822Y36542966D01*
X12867804Y36542972D01*
X11069055Y37127401D01*
X11066253Y37128272D01*
X11059637Y37130327D01*
X11047695Y37133864D01*
X11038119Y37136565D01*
X9210600Y37626266D01*
X9199853Y37628997D01*
X8477747Y37802365D01*
X8164475Y37873279D01*
X8061083Y37896683D01*
X8052398Y37898534D01*
X8050169Y37899009D01*
X7630909Y37982433D01*
X6900673Y38117748D01*
X6889811Y38119616D01*
X5020897Y38415584D01*
X5010992Y38417019D01*
X4998648Y38418641D01*
X4988968Y38419784D01*
X3107976Y38617492D01*
X3098225Y38618389D01*
X3085886Y38619364D01*
X3075826Y38620025D01*
X1186353Y38719043D01*
X1186349Y38719044D01*
X1186314Y38719045D01*
X1177079Y38719408D01*
X1175154Y38719483D01*
X432933Y38738904D01*
X432921Y38738905D01*
X432889Y38738905D01*
X231515Y38741539D01*
X5545Y38744495D01*
X-5561Y38744495D01*
X-432904Y38738905D01*
X-432936Y38738905D01*
X-432949Y38738904D01*
X-1175245Y38719482D01*
X-1186390Y38719042D01*
X-3075859Y38620024D01*
X-3085670Y38619381D01*
X-3098168Y38618397D01*
X-3107896Y38617504D01*
X-4988952Y38419788D01*
X-4998606Y38418648D01*
X-5010913Y38417033D01*
X-5020898Y38415587D01*
X-6889549Y38119660D01*
X-6897689Y38118265D01*
X-6900494Y38117784D01*
X-6900511Y38117781D01*
X-6900516Y38117780D01*
X-7630928Y37982433D01*
X-8050317Y37898983D01*
X-8061092Y37896685D01*
X-8477775Y37802360D01*
X-9199611Y37629057D01*
X-9210354Y37626336D01*
X-11038123Y37136570D01*
X-11047565Y37133908D01*
X-11059443Y37130392D01*
X-11069034Y37127416D01*
X-12867840Y36542969D01*
X-12877165Y36539804D01*
X-12888812Y36535683D01*
X-12898206Y36532218D01*
X-14664457Y35854234D01*
X-14674830Y35850105D01*
X-15361118Y35565822D01*
X-15753808Y35397124D01*
X-15763747Y35392702D01*
X-16151932Y35213765D01*
X-16822514Y34893928D01*
X-16832405Y34889044D01*
X-18518054Y34030177D01*
X-18526737Y34025609D01*
X-18537668Y34019678D01*
X-18546407Y34014787D01*
X-20184453Y33069044D01*
X-20193027Y33063942D01*
X-20203613Y33057453D01*
X-20211891Y33052229D01*
X-21798398Y32021949D01*
X-21807547Y32015853D01*
X-22419991Y31594952D01*
X-22768863Y31348359D01*
X-22777842Y31341842D01*
X-23120352Y31086033D01*
X-24226872Y30236959D01*
X-24235572Y30230096D01*
X-24693570Y29859237D01*
X-24702013Y29852213D01*
X-24903878Y29679825D01*
X-24949803Y29640623D01*
X-24949804Y29640624D01*
X-24992678Y29604012D01*
X-25036861Y29566254D01*
X-25169444Y29453006D01*
X-25213537Y29415361D01*
X-25213539Y29415358D01*
X-25434465Y29226707D01*
X-25434469Y29226705D01*
X-25489701Y29179534D01*
X-25489702Y29179532D01*
X-25775039Y28935822D01*
X-25775040Y28935821D01*
X-25775041Y28935822D01*
X-25869050Y28855520D01*
X-25877479Y28848137D01*
X-25985246Y28751079D01*
X-25993354Y28743579D01*
X-26086589Y28655077D01*
X-26086590Y28655076D01*
X-26394884Y28362463D01*
X-26409790Y28348317D01*
X-26566282Y28199801D01*
X-26578139Y28188089D01*
X-26747316Y28014436D01*
X-26758703Y28002274D01*
X-26830940Y27922059D01*
X-26830968Y27922028D01*
X-26843793Y27907011D01*
X-26843847Y27906945D01*
X-26859528Y27887577D01*
X-26871498Y27871976D01*
X-27125745Y27522094D01*
X-27125757Y27522077D01*
X-27147293Y27488923D01*
X-27177430Y27436739D01*
X-27177437Y27436728D01*
X-27195400Y27401480D01*
X-27195403Y27401473D01*
X-27195408Y27401463D01*
X-27195410Y27401458D01*
X-27246844Y27285953D01*
X-27372188Y27004468D01*
X-27383243Y26975673D01*
X-27386374Y26967517D01*
X-27405003Y26910188D01*
X-27405006Y26910179D01*
X-27405007Y26910174D01*
X-27405014Y26910154D01*
X-27415241Y26871986D01*
X-27415245Y26871969D01*
X-27505608Y26446841D01*
X-27511791Y26407800D01*
X-27518095Y26347822D01*
X-27520162Y26308354D01*
X-27520162Y26308328D01*
X-30115346Y26308328D01*
X-29726239Y26763926D01*
X-29724569Y26765781D01*
X-28284813Y28283042D01*
X-28283019Y28284836D01*
X-26765778Y29724572D01*
X-26763923Y29726242D01*
X-25173434Y31084611D01*
X-25171502Y31086175D01*
X-23512107Y32359538D01*
X-23510077Y32361013D01*
X-21786373Y33545673D01*
X-21784276Y33547035D01*
X-20000831Y34639914D01*
X-19998641Y34641178D01*
X-18160475Y35639264D01*
X-18158230Y35640406D01*
X-16270457Y36540798D01*
X-16268158Y36541822D01*
X-14335670Y37342264D01*
X-14333339Y37343159D01*
X-12361731Y38041411D01*
X-12359363Y38042181D01*
X-10353885Y38636163D01*
X-10351421Y38636823D01*
X-8317619Y39125116D01*
X-8315121Y39125647D01*
X-6258554Y39506779D01*
X-6256075Y39507172D01*
X-4286475Y39766530D01*
X-4182366Y39780238D01*
X-4179787Y39780509D01*
X-4168707Y39781381D01*
X-2094675Y39944604D01*
X-2092102Y39944738D01*
X-2028737Y39946397D01*
X-1262Y39999468D01*
X1260Y39999468D01*
X1962942Y39948113D01*
G37*
%TD.AperFunction*%
%TD*%
%TA.AperFunction,Conductor*%
%TO.N,GND*%
G36*
X-10593200Y1544000D02*
G01*
X-7898638Y1544000D01*
X-7951095Y1260948D01*
X-7951250Y1260328D01*
X-7951338Y1259713D01*
X-7951440Y1259069D01*
X-7951553Y1258413D01*
X-7951598Y1257774D01*
X-8006218Y842902D01*
X-8006346Y842212D01*
X-8006351Y842145D01*
X-8006484Y840860D01*
X-8006522Y840572D01*
X-8006533Y839826D01*
X-8008041Y820660D01*
X-8025065Y787244D01*
X-8056890Y775502D01*
X-11350500Y775502D01*
X-11385148Y789854D01*
X-11399500Y824502D01*
X-11399500Y999255D01*
X-11399484Y1000025D01*
X-11399617Y1000776D01*
X-11450739Y1323477D01*
X-11450857Y1324525D01*
X-11450921Y1324726D01*
X-11451425Y1325621D01*
X-11562668Y1544000D01*
X-11599613Y1616527D01*
X-11600046Y1617470D01*
X-11600070Y1617503D01*
X-11600843Y1618218D01*
X-11656518Y1673893D01*
X-11831773Y1849150D01*
X-11832478Y1849913D01*
X-11833438Y1850356D01*
X-12124411Y1998618D01*
X-12125232Y1999078D01*
X-12125328Y1999119D01*
X-12125402Y1999136D01*
X-12126302Y1999246D01*
X-12448977Y2050344D01*
X-12449976Y2050542D01*
X-12450880Y2050368D01*
X-12773719Y1999243D01*
X-12774489Y1999149D01*
X-12774656Y1999110D01*
X-12774841Y1999032D01*
X-12775531Y1998649D01*
X-13066699Y1850288D01*
X-13067514Y1849906D01*
X-13067547Y1849878D01*
X-13068184Y1849194D01*
X-13299263Y1618116D01*
X-13299922Y1617500D01*
X-13299983Y1617400D01*
X-13300360Y1616586D01*
X-13448640Y1325497D01*
X-13449023Y1324809D01*
X-13449099Y1324627D01*
X-13449137Y1324464D01*
X-13449231Y1323696D01*
X-13500372Y1000854D01*
X-13500521Y1000033D01*
X-13500500Y999188D01*
X-13500500Y-999229D01*
X-13500519Y-1000057D01*
X-13500365Y-1000891D01*
X-13449234Y-1323675D01*
X-13449125Y-1324572D01*
X-13449108Y-1324642D01*
X-13449064Y-1324745D01*
X-13448609Y-1325558D01*
X-13300384Y-1616535D01*
X-13299945Y-1617487D01*
X-13299187Y-1618189D01*
X-13068236Y-1849143D01*
X-13067543Y-1849893D01*
X-13067504Y-1849922D01*
X-13066596Y-1850341D01*
X-12775629Y-1998596D01*
X-12774672Y-1999134D01*
X-12773594Y-1999259D01*
X-12494048Y-2043529D01*
X-12451024Y-2050343D01*
X-12450134Y-2050518D01*
X-12449816Y-2050518D01*
X-12448866Y-2050324D01*
X-12126447Y-1999266D01*
X-12125378Y-1999142D01*
X-12125260Y-1999103D01*
X-12124293Y-1998555D01*
X-11833540Y-1850409D01*
X-11832611Y-1849986D01*
X-11832381Y-1849819D01*
X-11831710Y-1849088D01*
X-11600902Y-1618274D01*
X-11600168Y-1617602D01*
X-11600004Y-1617377D01*
X-11599606Y-1616511D01*
X-11451470Y-1325704D01*
X-11450951Y-1324793D01*
X-11450852Y-1324485D01*
X-11450735Y-1323450D01*
X-11399622Y-1000801D01*
X-11399487Y-1000055D01*
X-11399500Y-999292D01*
X-11399500Y-824501D01*
X-11385148Y-789853D01*
X-11350500Y-775501D01*
X-8056890Y-775501D01*
X-8022242Y-789853D01*
X-8008041Y-820657D01*
X-8006527Y-839900D01*
X-8006515Y-840606D01*
X-8006465Y-840995D01*
X-8006359Y-842002D01*
X-8006322Y-842440D01*
X-8006187Y-843130D01*
X-7951587Y-1257847D01*
X-7951540Y-1258490D01*
X-7951454Y-1258982D01*
X-7951337Y-1259725D01*
X-7951229Y-1260484D01*
X-7951058Y-1261146D01*
X-7887147Y-1606000D01*
X-10593200Y-1606000D01*
X-10593200Y-2756000D01*
X-13850000Y-2750000D01*
X-14100000Y-2500000D01*
X-14300000Y-2250000D01*
X-14293200Y2994000D01*
X-10593200Y2994000D01*
X-10593200Y1544000D01*
G37*
%TD.AperFunction*%
%TD*%
%TA.AperFunction,Conductor*%
%TO.N,STATOR*%
G36*
X221633Y37986104D02*
G01*
X418066Y37983534D01*
X1150475Y37964370D01*
X1151723Y37964321D01*
X3031332Y37865819D01*
X3033889Y37865617D01*
X4905094Y37668938D01*
X4907660Y37668601D01*
X6766692Y37374198D01*
X6767849Y37373999D01*
X7488307Y37240496D01*
X7897781Y37159019D01*
X7898940Y37158772D01*
X8306130Y37066597D01*
X9018625Y36895537D01*
X9019774Y36895245D01*
X10837818Y36408084D01*
X10840285Y36407353D01*
X12629678Y35825964D01*
X12632122Y35825099D01*
X14389363Y35150573D01*
X14390496Y35150122D01*
X15067442Y34869710D01*
X15450958Y34704953D01*
X15452101Y34704444D01*
X15831150Y34529721D01*
X16492551Y34214261D01*
X16493714Y34213687D01*
X18170703Y33359232D01*
X18172981Y33357995D01*
X19173048Y32780597D01*
X19802349Y32417263D01*
X19802353Y32417261D01*
X19804562Y32415907D01*
X21383107Y31390800D01*
X21384121Y31390123D01*
X21910812Y31028157D01*
X21987988Y30975118D01*
X22328873Y30734169D01*
X22329893Y30733428D01*
X22664307Y30483664D01*
X23762879Y29640689D01*
X23763896Y29639887D01*
X24214136Y29275309D01*
X24215131Y29274481D01*
X24251566Y29243367D01*
X24331737Y29174902D01*
X24413341Y29105215D01*
X24413342Y29105214D01*
X24457624Y29067415D01*
X24457633Y29067400D01*
X24457637Y29067404D01*
X24501941Y29029573D01*
X24546128Y28991811D01*
X24546129Y28991811D01*
X24678852Y28878444D01*
X24678853Y28878444D01*
X24678861Y28878437D01*
X24678862Y28878436D01*
X24722932Y28840810D01*
X24722936Y28840804D01*
X24722938Y28840805D01*
X24943826Y28652188D01*
X24943825Y28652188D01*
X24943828Y28652187D01*
X24999031Y28605041D01*
X25276529Y28368029D01*
X25279102Y28365831D01*
X25284341Y28361356D01*
X25284343Y28361353D01*
X25284343Y28361354D01*
X25339364Y28314356D01*
X25374757Y28284123D01*
X25375733Y28283267D01*
X25422859Y28240825D01*
X25475850Y28193100D01*
X25476785Y28192235D01*
X25575049Y28098962D01*
X25874805Y27814460D01*
X26040689Y27657025D01*
X26042070Y27655662D01*
X26200860Y27492669D01*
X26202187Y27491252D01*
X26224894Y27466038D01*
X26262868Y27423871D01*
X26266121Y27419853D01*
X26502936Y27093960D01*
X26513287Y27076035D01*
X26673960Y26715216D01*
X26680357Y26695528D01*
X26762488Y26309145D01*
X26764652Y26288560D01*
X26764648Y25893502D01*
X26762484Y25872918D01*
X26680357Y25486581D01*
X26673960Y25466894D01*
X26513287Y25106073D01*
X26502941Y25088154D01*
X26266331Y24762489D01*
X26262622Y24757971D01*
X25980684Y24453119D01*
X25975389Y24447545D01*
X25942237Y24412650D01*
X25678136Y24134664D01*
X25667784Y24123767D01*
X25662693Y24118408D01*
X25624575Y24078288D01*
X25554048Y24004056D01*
X25554049Y24004055D01*
X25028783Y23451123D01*
X24987821Y23407998D01*
X24415131Y22805152D01*
X24409853Y22799596D01*
X24405007Y22794495D01*
X24405007Y22794494D01*
X24372948Y22760756D01*
X24372949Y22760755D01*
X23717873Y22071221D01*
X23717874Y22071220D01*
X23686794Y22038503D01*
X22969573Y21283520D01*
X22939442Y21251803D01*
X22161948Y20433394D01*
X22161949Y20433393D01*
X22098151Y20366236D01*
X21423077Y19655632D01*
X21333724Y19561574D01*
X21333716Y19561566D01*
X21249839Y19473278D01*
X21064649Y19278348D01*
X21064650Y19278347D01*
X20582343Y18770653D01*
X20582344Y18770652D01*
X20486709Y18669981D01*
X20483447Y18666847D01*
X20179418Y18400370D01*
X20163664Y18389084D01*
X19821030Y18191261D01*
X19802123Y18182844D01*
X19674792Y18141474D01*
X19426384Y18060766D01*
X19406137Y18056463D01*
X19013288Y18015190D01*
X18992600Y18015190D01*
X18599739Y18056464D01*
X18579489Y18060768D01*
X18427164Y18110267D01*
X18203833Y18182839D01*
X18184930Y18191256D01*
X17842269Y18389084D01*
X17841162Y18389724D01*
X17827368Y18399336D01*
X17696260Y18508359D01*
X17514296Y18659671D01*
X17511871Y18661826D01*
X17397233Y18770616D01*
X17397211Y18770636D01*
X17397195Y18770651D01*
X16849278Y19264007D01*
X16849255Y19264027D01*
X16849243Y19264038D01*
X16849223Y19264055D01*
X16500882Y19561574D01*
X15540774Y20339083D01*
X15540713Y20339130D01*
X14488171Y21103866D01*
X14484449Y21104159D01*
X14468433Y21112587D01*
X13505136Y21738133D01*
X13416043Y21792724D01*
X13415996Y21792753D01*
X13415995Y21792753D01*
X13415992Y21792755D01*
X12990324Y22038503D01*
X12165107Y22514921D01*
X12118178Y22540401D01*
X12073143Y22564854D01*
X10972414Y23125746D01*
X10972372Y23125766D01*
X10069545Y23527746D01*
X9843833Y23628244D01*
X9843818Y23628250D01*
X9843814Y23628252D01*
X9843807Y23628255D01*
X9843786Y23628263D01*
X9843772Y23628269D01*
X8690491Y24070936D01*
X8690388Y24070974D01*
X8591893Y24105850D01*
X8591852Y24105864D01*
X7555421Y24442607D01*
X7218112Y24552201D01*
X7198018Y24558154D01*
X7117885Y24581891D01*
X7117834Y24581905D01*
X5924518Y24901655D01*
X5924513Y24901657D01*
X5924494Y24901661D01*
X4716107Y25158553D01*
X4716105Y25158554D01*
X4716102Y25158554D01*
X4715674Y25158645D01*
X4714816Y25158758D01*
X3825270Y25299678D01*
X3495908Y25351855D01*
X3495907Y25351856D01*
X3495889Y25351858D01*
X3413875Y25362655D01*
X3410390Y25363114D01*
X3392264Y25365500D01*
X3392245Y25365503D01*
X3392224Y25365505D01*
X2909751Y25416203D01*
X1955714Y25516451D01*
X1955689Y25516454D01*
X1955673Y25516455D01*
X1953618Y25516617D01*
X1851467Y25524652D01*
X1851443Y25524653D01*
X617722Y25589305D01*
X617710Y25589305D01*
X-617710Y25589305D01*
X-617723Y25589305D01*
X-1851445Y25524653D01*
X-1851469Y25524652D01*
X-1955664Y25516456D01*
X-1955669Y25516456D01*
X-1955676Y25516455D01*
X-1955685Y25516455D01*
X-1955718Y25516451D01*
X-2470882Y25462319D01*
X-3392219Y25365507D01*
X-3392244Y25365504D01*
X-3392262Y25365502D01*
X-3481061Y25353810D01*
X-3495894Y25351857D01*
X-3725583Y25315471D01*
X-4716099Y25158555D01*
X-5924498Y24901661D01*
X-5924522Y24901655D01*
X-5924521Y24901655D01*
X-7117844Y24581905D01*
X-7117867Y24581899D01*
X-7117893Y24581891D01*
X-7218119Y24552201D01*
X-8591901Y24105849D01*
X-8690442Y24070956D01*
X-8690492Y24070938D01*
X-9843796Y23628263D01*
X-9844723Y23627855D01*
X-9844895Y23627773D01*
X-10972380Y23125766D01*
X-10972422Y23125746D01*
X-12073147Y22564855D01*
X-12146303Y22525134D01*
X-12165118Y22514918D01*
X-12780752Y22159498D01*
X-13416002Y21792754D01*
X-13416052Y21792724D01*
X-13505114Y21738151D01*
X-14468439Y21112587D01*
X-14480691Y21109305D01*
X-15540719Y20339130D01*
X-15540780Y20339083D01*
X-16500866Y19561593D01*
X-16662833Y19423258D01*
X-16715658Y19378139D01*
X-16798909Y19307034D01*
X-16832493Y19278349D01*
X-16849285Y19264007D01*
X-17324863Y18835788D01*
X-17397221Y18770635D01*
X-17511880Y18661827D01*
X-17514305Y18659672D01*
X-17827372Y18399342D01*
X-17841171Y18389726D01*
X-18028773Y18281418D01*
X-18184945Y18191255D01*
X-18203842Y18182840D01*
X-18579505Y18060767D01*
X-18599747Y18056465D01*
X-18854670Y18029683D01*
X-18992613Y18015190D01*
X-19013301Y18015190D01*
X-19134566Y18027931D01*
X-19406156Y18056465D01*
X-19426395Y18060767D01*
X-19576334Y18109482D01*
X-19802134Y18182845D01*
X-19821044Y18191264D01*
X-20163679Y18389089D01*
X-20179433Y18400375D01*
X-20483461Y18666851D01*
X-20486723Y18669985D01*
X-20582357Y18770655D01*
X-20582357Y18770656D01*
X-21064663Y19278349D01*
X-21064663Y19278350D01*
X-21297147Y19523062D01*
X-22132858Y20402755D01*
X-22161966Y20433397D01*
X-22161966Y20433398D01*
X-22939458Y21251804D01*
X-22969590Y21283522D01*
X-22969591Y21283522D01*
X-23686808Y22038504D01*
X-23717888Y22071223D01*
X-23717890Y22071226D01*
X-24372957Y22760754D01*
X-24405014Y22794494D01*
X-24405015Y22794496D01*
X-24405020Y22794500D01*
X-24719696Y23125746D01*
X-24989186Y23409427D01*
X-24995957Y23416555D01*
X-25028791Y23451121D01*
X-25028793Y23451124D01*
X-25554060Y24004057D01*
X-25554060Y24004058D01*
X-25617636Y24070974D01*
X-25650776Y24105855D01*
X-25662704Y24118410D01*
X-25970708Y24442605D01*
X-25980689Y24453112D01*
X-25980695Y24453119D01*
X-26262635Y24757974D01*
X-26266344Y24762492D01*
X-26502954Y25088156D01*
X-26513300Y25106075D01*
X-26673975Y25466902D01*
X-26680372Y25486590D01*
X-26762495Y25872927D01*
X-26764658Y25893495D01*
X-26764662Y26288560D01*
X-26762499Y26309142D01*
X-26680371Y26695525D01*
X-26673973Y26715214D01*
X-26513300Y27076035D01*
X-26513297Y27076045D01*
X-26502946Y27093968D01*
X-26266123Y27419871D01*
X-26262892Y27423862D01*
X-26202171Y27491288D01*
X-26200924Y27492620D01*
X-26042061Y27655685D01*
X-26040752Y27656978D01*
X-25928655Y27763363D01*
X-25874811Y27814462D01*
X-25575067Y28098958D01*
X-25566488Y28107103D01*
X-25476754Y28192280D01*
X-25475942Y28193031D01*
X-25375738Y28283278D01*
X-25374770Y28284126D01*
X-25284357Y28361356D01*
X-24999047Y28605043D01*
X-24943843Y28652189D01*
X-24722961Y28840804D01*
X-24722957Y28840806D01*
X-24678890Y28878430D01*
X-24546165Y28991800D01*
X-24501957Y29029578D01*
X-24457657Y29067406D01*
X-24457656Y29067404D01*
X-24457647Y29067415D01*
X-24413365Y29105215D01*
X-24215083Y29274542D01*
X-24214244Y29275240D01*
X-23763887Y29639912D01*
X-23762921Y29640674D01*
X-22664352Y30483646D01*
X-22329910Y30733430D01*
X-22328889Y30734171D01*
X-21988006Y30975118D01*
X-21384105Y31390148D01*
X-21383170Y31390771D01*
X-19804575Y32415912D01*
X-19802394Y32417249D01*
X-18172952Y33358023D01*
X-18170724Y33359232D01*
X-16493675Y34213718D01*
X-16492652Y34214223D01*
X-15831163Y34529724D01*
X-15452037Y34704484D01*
X-15451064Y34704917D01*
X-15067506Y34869692D01*
X-14888248Y34943947D01*
X-14390498Y35150131D01*
X-14389365Y35150582D01*
X-12632122Y35825108D01*
X-12629706Y35825963D01*
X-10840293Y36407358D01*
X-10837857Y36408079D01*
X-9019773Y36895249D01*
X-9018660Y36895531D01*
X-8306140Y37066597D01*
X-7898933Y37158777D01*
X-7897817Y37159015D01*
X-7488325Y37240496D01*
X-6767854Y37374001D01*
X-6766722Y37374195D01*
X-4907672Y37668602D01*
X-4905111Y37668938D01*
X-4327999Y37729598D01*
X-3033898Y37865619D01*
X-3031382Y37865817D01*
X-1151737Y37964321D01*
X-1150493Y37964370D01*
X-418082Y37983534D01*
X-224904Y37986061D01*
X-620Y37988995D01*
X604Y37988995D01*
X221633Y37986104D01*
G37*
%TD.AperFunction*%
%TD*%
%TA.AperFunction,Conductor*%
%TO.N,STATOR*%
G36*
X-18599748Y-18056459D02*
G01*
X-18579496Y-18060763D01*
X-18203839Y-18182834D01*
X-18184937Y-18191251D01*
X-17841173Y-18389717D01*
X-17827376Y-18399331D01*
X-17680072Y-18521821D01*
X-17514300Y-18659668D01*
X-17511887Y-18661812D01*
X-17397198Y-18770648D01*
X-16849282Y-19264001D01*
X-16710621Y-19382431D01*
X-16500863Y-19561586D01*
X-15540754Y-20339097D01*
X-15540725Y-20339118D01*
X-14541249Y-21065300D01*
X-14541249Y-21065299D01*
X-14519316Y-21081235D01*
X-14515277Y-21082204D01*
X-14513103Y-21083575D01*
X-13572047Y-21694677D01*
X-13505111Y-21738144D01*
X-13416049Y-21792717D01*
X-13416018Y-21792735D01*
X-13415999Y-21792747D01*
X-13415975Y-21792761D01*
X-13415941Y-21792781D01*
X-12165154Y-22514891D01*
X-12165107Y-22514918D01*
X-12073125Y-22564861D01*
X-10972399Y-23125751D01*
X-9843821Y-23628245D01*
X-9843810Y-23628250D01*
X-9843781Y-23628261D01*
X-8690488Y-24070933D01*
X-8690464Y-24070941D01*
X-8690437Y-24070952D01*
X-8628009Y-24093057D01*
X-8591898Y-24105844D01*
X-8591886Y-24105848D01*
X-8591880Y-24105850D01*
X-7218119Y-24552196D01*
X-7117843Y-24581899D01*
X-5924519Y-24901649D01*
X-4716901Y-25158379D01*
X-4716657Y-25158436D01*
X-4716187Y-25158531D01*
X-4716104Y-25158549D01*
X-4716100Y-25158550D01*
X-3495889Y-25351854D01*
X-3424413Y-25361264D01*
X-3392256Y-25365498D01*
X-3392250Y-25365498D01*
X-3392224Y-25365502D01*
X-1955674Y-25516452D01*
X-1851441Y-25524651D01*
X-655662Y-25587312D01*
X-650478Y-25589301D01*
X-617710Y-25589301D01*
X-617710Y-25589302D01*
X578211Y-25589301D01*
X583699Y-25591084D01*
X617710Y-25589301D01*
X617710Y-25589302D01*
X1851440Y-25524651D01*
X1851463Y-25524649D01*
X1851467Y-25524649D01*
X1862714Y-25523764D01*
X1955678Y-25516452D01*
X3392232Y-25365501D01*
X3392260Y-25365497D01*
X3392263Y-25365497D01*
X3397960Y-25364746D01*
X3495893Y-25351854D01*
X4714829Y-25158751D01*
X4715680Y-25158639D01*
X4716094Y-25158550D01*
X4716100Y-25158550D01*
X4716101Y-25158550D01*
X5924520Y-24901649D01*
X7117848Y-24581898D01*
X7218122Y-24552195D01*
X8591880Y-24105850D01*
X8690435Y-24070953D01*
X8690488Y-24070933D01*
X8923368Y-23981545D01*
X9843811Y-23628249D01*
X9843823Y-23628244D01*
X10972402Y-23125751D01*
X12073128Y-22564861D01*
X12165110Y-22514918D01*
X13416002Y-21792747D01*
X13505119Y-21738141D01*
X14468436Y-21112582D01*
X14480689Y-21109299D01*
X14541232Y-21065310D01*
X14541250Y-21065299D01*
X14541249Y-21065300D01*
X15540723Y-20339119D01*
X15540748Y-20339100D01*
X16500893Y-19561561D01*
X16849282Y-19264001D01*
X17397199Y-18770648D01*
X17511902Y-18661798D01*
X17514291Y-18659676D01*
X17827374Y-18399332D01*
X17841164Y-18389723D01*
X18184943Y-18191246D01*
X18203829Y-18182837D01*
X18579500Y-18060761D01*
X18599737Y-18056460D01*
X18992611Y-18015185D01*
X19013285Y-18015185D01*
X19406144Y-18056458D01*
X19426384Y-18060760D01*
X19802126Y-18182839D01*
X19821035Y-18191257D01*
X20163664Y-18389079D01*
X20179414Y-18400362D01*
X20483456Y-18666849D01*
X20486708Y-18669973D01*
X20582347Y-18770648D01*
X21064652Y-19278340D01*
X21187009Y-19407134D01*
X21297138Y-19523056D01*
X22132847Y-20402748D01*
X22161955Y-20433389D01*
X22939449Y-21251796D01*
X22969579Y-21283511D01*
X22969581Y-21283514D01*
X22969582Y-21283514D01*
X23685363Y-22036988D01*
X23686379Y-22038057D01*
X23686796Y-22038496D01*
X23686797Y-22038498D01*
X23686798Y-22038498D01*
X23717877Y-22071216D01*
X24186853Y-22564866D01*
X24372947Y-22760750D01*
X24405003Y-22794489D01*
X24405007Y-22794493D01*
X24405006Y-22794493D01*
X24405009Y-22794495D01*
X24995944Y-23416545D01*
X24995947Y-23416551D01*
X24995949Y-23416550D01*
X25028779Y-23451114D01*
X25197046Y-23628245D01*
X25554047Y-24004051D01*
X25662694Y-24118407D01*
X25970694Y-24442599D01*
X25970695Y-24442601D01*
X25970696Y-24442601D01*
X25980677Y-24453107D01*
X26262623Y-24757964D01*
X26266323Y-24762473D01*
X26502944Y-25088149D01*
X26513291Y-25106068D01*
X26673966Y-25466897D01*
X26680363Y-25486585D01*
X26762656Y-25873727D01*
X26764806Y-25892672D01*
X26771402Y-26291024D01*
X26769580Y-26311641D01*
X26694067Y-26698260D01*
X26686663Y-26721045D01*
X26520497Y-27078180D01*
X26509850Y-27095932D01*
X26265911Y-27420199D01*
X26263136Y-27423568D01*
X26202185Y-27491250D01*
X26200858Y-27492667D01*
X26042063Y-27655664D01*
X26040682Y-27657027D01*
X25874806Y-27814452D01*
X25575052Y-28098949D01*
X25571757Y-28102078D01*
X25476794Y-28192225D01*
X25475901Y-28193051D01*
X25400471Y-28260989D01*
X25375753Y-28283252D01*
X25374775Y-28284110D01*
X25284351Y-28361347D01*
X25284347Y-28361350D01*
X25014035Y-28592226D01*
X24970555Y-28629361D01*
X24943831Y-28652187D01*
X24940939Y-28654656D01*
X24937494Y-28657598D01*
X24730380Y-28834455D01*
X24723452Y-28840371D01*
X24722945Y-28840805D01*
X24678869Y-28878436D01*
X24546145Y-28991801D01*
X24501218Y-29030193D01*
X24459503Y-29065814D01*
X24458623Y-29066565D01*
X24413355Y-29105206D01*
X24336542Y-29170802D01*
X24215113Y-29274497D01*
X24214118Y-29275324D01*
X23763912Y-29639870D01*
X23762896Y-29640671D01*
X22664308Y-30483658D01*
X22329897Y-30733424D01*
X22328848Y-30734186D01*
X21988038Y-30975084D01*
X21488321Y-31318512D01*
X21384174Y-31390087D01*
X21383110Y-31390798D01*
X19804570Y-32415899D01*
X19802361Y-32417253D01*
X18172983Y-33357992D01*
X18170705Y-33359229D01*
X16493685Y-34213703D01*
X16492522Y-34214276D01*
X16171543Y-34367370D01*
X16127041Y-34388596D01*
X15831180Y-34529710D01*
X15831111Y-34529742D01*
X15831073Y-34529759D01*
X15758141Y-34563376D01*
X15452143Y-34704427D01*
X15450960Y-34704954D01*
X15067492Y-34869691D01*
X14390541Y-35150105D01*
X14389336Y-35150585D01*
X12632124Y-35825096D01*
X12629680Y-35825961D01*
X11405314Y-36223766D01*
X10840295Y-36407344D01*
X10837820Y-36408078D01*
X9019833Y-36895226D01*
X9018577Y-36895545D01*
X8784607Y-36951718D01*
X8306126Y-37066596D01*
X8196069Y-37091509D01*
X7898977Y-37158761D01*
X7897712Y-37159029D01*
X7488378Y-37240479D01*
X7488347Y-37240485D01*
X6767901Y-37373985D01*
X6766625Y-37374204D01*
X4907689Y-37668590D01*
X4905120Y-37668928D01*
X3033892Y-37865609D01*
X3031307Y-37865812D01*
X1548856Y-37943502D01*
X1151731Y-37964313D01*
X1150461Y-37964364D01*
X418085Y-37983527D01*
X647Y-37988988D01*
X-649Y-37988988D01*
X-418087Y-37983527D01*
X-1150463Y-37964364D01*
X-1151730Y-37964314D01*
X-3031332Y-37865811D01*
X-3033904Y-37865609D01*
X-4905107Y-37668930D01*
X-4907676Y-37668592D01*
X-6103784Y-37479173D01*
X-6766640Y-37374201D01*
X-6767903Y-37373985D01*
X-7488296Y-37240495D01*
X-7897748Y-37159023D01*
X-7899017Y-37158753D01*
X-8020041Y-37131357D01*
X-8306133Y-37066596D01*
X-9018582Y-36895545D01*
X-9019839Y-36895226D01*
X-10837826Y-36408078D01*
X-10840311Y-36407342D01*
X-12629693Y-35825959D01*
X-12632137Y-35825094D01*
X-14389341Y-35150585D01*
X-14390546Y-35150105D01*
X-15067495Y-34869692D01*
X-15450978Y-34704949D01*
X-15452161Y-34704422D01*
X-15831175Y-34529715D01*
X-16127047Y-34388596D01*
X-16171550Y-34367370D01*
X-16492526Y-34214277D01*
X-16493689Y-34213704D01*
X-18170696Y-33359237D01*
X-18172974Y-33358000D01*
X-19802366Y-32417253D01*
X-19804575Y-32415899D01*
X-21383117Y-31390799D01*
X-21384148Y-31390111D01*
X-21791810Y-31109947D01*
X-21988045Y-30975085D01*
X-22328850Y-30734191D01*
X-22329878Y-30733444D01*
X-22664324Y-30483656D01*
X-23762909Y-29640671D01*
X-23763881Y-29639905D01*
X-24062667Y-29397967D01*
X-24214127Y-29275324D01*
X-24215122Y-29274497D01*
X-24413363Y-29105208D01*
X-24413363Y-29105207D01*
X-24460253Y-29065179D01*
X-24501949Y-29029573D01*
X-24546142Y-28991809D01*
X-24546159Y-28991794D01*
X-24678875Y-28878435D01*
X-24722949Y-28840805D01*
X-24722949Y-28840804D01*
X-24722955Y-28840800D01*
X-24943828Y-28652192D01*
X-24943832Y-28652186D01*
X-24943833Y-28652188D01*
X-24999040Y-28605039D01*
X-25284349Y-28361350D01*
X-25374764Y-28284119D01*
X-25375741Y-28283262D01*
X-25475844Y-28193105D01*
X-25476796Y-28192225D01*
X-25575057Y-28098952D01*
X-25874807Y-27814452D01*
X-26040698Y-27657015D01*
X-26042062Y-27655668D01*
X-26092940Y-27603445D01*
X-26200889Y-27492641D01*
X-26202192Y-27491249D01*
X-26262864Y-27423877D01*
X-26266122Y-27419855D01*
X-26502945Y-27093953D01*
X-26513289Y-27076039D01*
X-26636509Y-26799323D01*
X-26673965Y-26715207D01*
X-26680363Y-26695518D01*
X-26762491Y-26309134D01*
X-26764654Y-26288550D01*
X-26764650Y-25893487D01*
X-26762488Y-25872922D01*
X-26680363Y-25486578D01*
X-26673967Y-25466898D01*
X-26673967Y-25466897D01*
X-26513293Y-25106066D01*
X-26502954Y-25088159D01*
X-26266328Y-24762471D01*
X-26262632Y-24757968D01*
X-25980681Y-24453107D01*
X-25970700Y-24442600D01*
X-25662697Y-24118407D01*
X-25554050Y-24004051D01*
X-25028784Y-23451117D01*
X-24995950Y-23416550D01*
X-24405011Y-22794493D01*
X-24405006Y-22794491D01*
X-24405007Y-22794490D01*
X-24405006Y-22794489D01*
X-24372949Y-22760750D01*
X-23717882Y-22071219D01*
X-23686799Y-22038498D01*
X-22969578Y-21283511D01*
X-22939448Y-21251796D01*
X-22161957Y-20433389D01*
X-22132849Y-20402748D01*
X-21297141Y-19523057D01*
X-21064654Y-19278340D01*
X-20582348Y-18770648D01*
X-20486700Y-18669963D01*
X-20483469Y-18666859D01*
X-20179412Y-18400358D01*
X-20163671Y-18389082D01*
X-19821034Y-18191256D01*
X-19802132Y-18182840D01*
X-19426384Y-18060759D01*
X-19406147Y-18056458D01*
X-19013285Y-18015185D01*
X-18992611Y-18015185D01*
X-18599748Y-18056459D01*
G37*
%TD.AperFunction*%
%TD*%
M02*
