%TF.GenerationSoftware,KiCad,Pcbnew,(5.99.0-10394-g2e15de97e0)*%
%TF.CreationDate,2021-08-24T18:50:14+02:00*%
%TF.ProjectId,USTTHUNDERMILLPCB01A,55535454-4855-44e4-9445-524d494c4c50,rev?*%
%TF.SameCoordinates,Original*%
%TF.FileFunction,Copper,L2,Inr*%
%TF.FilePolarity,Positive*%
%FSLAX46Y46*%
G04 Gerber Fmt 4.6, Leading zero omitted, Abs format (unit mm)*
G04 Created by KiCad (PCBNEW (5.99.0-10394-g2e15de97e0)) date 2021-08-24 18:50:14*
%MOMM*%
%LPD*%
G01*
G04 APERTURE LIST*
%TA.AperFunction,NonConductor*%
%ADD10C,0.100000*%
%TD*%
%TA.AperFunction,NonConductor*%
%ADD11C,0.050000*%
%TD*%
%TA.AperFunction,ViaPad*%
%ADD12C,0.800000*%
%TD*%
%TA.AperFunction,Conductor*%
%ADD13C,0.500000*%
%TD*%
%TA.AperFunction,Conductor*%
%ADD14C,0.250000*%
%TD*%
%TA.AperFunction,Conductor*%
%ADD15C,0.200000*%
%TD*%
G04 APERTURE END LIST*
D10*
X176868301Y-78264198D02*
X175645401Y-75611597D01*
X178672195Y-101184165D02*
X179242004Y-98319358D01*
X178283203Y-83909206D02*
X178846900Y-86743206D01*
X175645401Y-75611597D02*
X174218200Y-73063098D01*
X179186599Y-95387287D02*
X178846900Y-98256786D01*
X166659500Y-120787094D02*
X166659500Y-120787094D01*
X166147399Y-120681793D02*
X166404403Y-120988189D01*
X166399696Y-64517096D02*
X168521499Y-66478496D01*
X179585296Y-89581317D02*
X179242004Y-86680637D01*
X170787094Y-116659500D02*
X172595397Y-114365600D01*
X172595397Y-114365600D02*
X174218200Y-111936897D01*
X166147399Y-64318196D02*
X166399696Y-64517096D01*
X175645401Y-109388397D02*
X176868301Y-106735797D01*
X179300003Y-92499996D02*
X179186599Y-95387287D01*
X166659500Y-120787094D02*
X168804397Y-118804397D01*
X166404396Y-64011795D02*
X166147399Y-64318196D01*
X179585296Y-95418678D02*
X179699996Y-92500000D01*
X179242004Y-86680637D02*
X178672195Y-83815826D01*
X166659500Y-64212896D02*
X166404396Y-64011795D01*
X175289001Y-109206893D02*
X173877197Y-111727897D01*
X178283203Y-101090785D02*
X177498901Y-103871795D01*
X177879302Y-103995399D02*
X178672195Y-101184165D01*
X168521499Y-118521499D02*
X166399703Y-120482894D01*
X178672195Y-101184165D02*
X179242004Y-98319358D01*
X170482894Y-116399696D02*
X168521499Y-118521499D01*
X168804397Y-118804397D02*
X170787094Y-116659500D01*
X179242004Y-98319358D02*
X179585296Y-95418678D01*
X176868301Y-78264198D02*
X175645401Y-75611597D01*
X176498794Y-106582695D02*
X175289001Y-109206893D01*
X179699996Y-92500000D02*
X179585296Y-89581317D01*
X172595397Y-70634397D02*
X170787094Y-68340496D01*
X179300003Y-92499996D02*
X179186599Y-95387287D01*
X170482894Y-68600296D02*
X172271797Y-70869495D01*
X173877197Y-111727897D02*
X172271797Y-114130493D01*
X166147399Y-64318196D02*
X166399696Y-64517096D01*
X179186599Y-89612705D02*
X179300003Y-92499996D01*
X166399696Y-64517096D02*
X168521499Y-66478496D01*
X177498901Y-81128196D02*
X178283203Y-83909206D01*
X176498794Y-106582695D02*
X175289001Y-109206893D01*
X168521499Y-66478496D02*
X170482894Y-68600296D01*
X172271797Y-114130493D02*
X170482894Y-116399696D01*
X178846900Y-98256786D02*
X178283203Y-101090785D01*
D11*
X166659500Y-120787094D02*
X168804397Y-118804397D01*
X168804397Y-118804397D02*
X170787094Y-116659500D01*
X170787094Y-116659500D02*
X172595397Y-114365600D01*
X172595397Y-114365600D02*
X174218200Y-111936897D01*
X174218200Y-111936897D02*
X175645401Y-109388397D01*
X175645401Y-109388397D02*
X176868301Y-106735797D01*
X176868301Y-106735797D02*
X177879302Y-103995399D01*
X177879302Y-103995399D02*
X178672195Y-101184165D01*
X178672195Y-101184165D02*
X179242004Y-98319358D01*
X179242004Y-98319358D02*
X179585296Y-95418678D01*
X179585296Y-95418678D02*
X179699996Y-92500000D01*
X179699996Y-92500000D02*
X179585296Y-89581317D01*
X179585296Y-89581317D02*
X179242004Y-86680637D01*
X179242004Y-86680637D02*
X178672195Y-83815826D01*
X178672195Y-83815826D02*
X177879302Y-81004598D01*
X177879302Y-81004598D02*
X176868301Y-78264198D01*
X176868301Y-78264198D02*
X175645401Y-75611597D01*
X175645401Y-75611597D02*
X174218200Y-73063098D01*
X174218200Y-73063098D02*
X172595397Y-70634397D01*
X172595397Y-70634397D02*
X170787094Y-68340496D01*
X170787094Y-68340496D02*
X168804397Y-66195596D01*
X168804397Y-66195596D02*
X166659500Y-64212896D01*
X166659500Y-64212896D02*
X166404396Y-64011795D01*
X166404396Y-64011795D02*
X166147399Y-64318196D01*
X166147399Y-64318196D02*
X166399696Y-64517096D01*
X166399696Y-64517096D02*
X168521499Y-66478496D01*
X168521499Y-66478496D02*
X170482894Y-68600296D01*
X170482894Y-68600296D02*
X172271797Y-70869495D01*
X172271797Y-70869495D02*
X173877197Y-73272096D01*
X173877197Y-73272096D02*
X175289001Y-75793096D01*
X175289001Y-75793096D02*
X176498794Y-78417297D01*
X176498794Y-78417297D02*
X177498901Y-81128196D01*
X177498901Y-81128196D02*
X178283203Y-83909206D01*
X178283203Y-83909206D02*
X178846900Y-86743206D01*
X178846900Y-86743206D02*
X179186599Y-89612705D01*
X179186599Y-89612705D02*
X179300003Y-92499996D01*
X179300003Y-92499996D02*
X179186599Y-95387287D01*
X179186599Y-95387287D02*
X178846900Y-98256786D01*
X178846900Y-98256786D02*
X178283203Y-101090785D01*
X178283203Y-101090785D02*
X177498901Y-103871795D01*
X177498901Y-103871795D02*
X176498794Y-106582695D01*
X176498794Y-106582695D02*
X175289001Y-109206893D01*
X175289001Y-109206893D02*
X173877197Y-111727897D01*
X173877197Y-111727897D02*
X172271797Y-114130493D01*
X172271797Y-114130493D02*
X170482894Y-116399696D01*
X170482894Y-116399696D02*
X168521499Y-118521499D01*
X168521499Y-118521499D02*
X166399703Y-120482894D01*
X166399703Y-120482894D02*
X166147399Y-120681793D01*
X166147399Y-120681793D02*
X166404403Y-120988189D01*
X166404403Y-120988189D02*
X166659500Y-120787094D01*
X166659500Y-120787094D02*
X166659500Y-120787094D01*
G36*
X166659500Y-64212896D02*
G01*
X168804397Y-66195596D01*
X170787094Y-68340496D01*
X172595397Y-70634397D01*
X174218200Y-73063098D01*
X175645401Y-75611597D01*
X176868301Y-78264198D01*
X177879302Y-81004598D01*
X178672195Y-83815826D01*
X179242004Y-86680637D01*
X179585296Y-89581317D01*
X179699996Y-92500000D01*
X179585296Y-95418678D01*
X179242004Y-98319358D01*
X178672195Y-101184165D01*
X177879302Y-103995399D01*
X176868301Y-106735797D01*
X175645401Y-109388397D01*
X174218200Y-111936897D01*
X172595397Y-114365600D01*
X170787094Y-116659500D01*
X168804397Y-118804397D01*
X166659500Y-120787094D01*
X166404403Y-120988189D01*
X166147399Y-120681793D01*
X166399703Y-120482894D01*
X168521499Y-118521499D01*
X170482894Y-116399696D01*
X172271797Y-114130493D01*
X173877197Y-111727897D01*
X175289001Y-109206893D01*
X176498794Y-106582695D01*
X177498901Y-103871795D01*
X178283203Y-101090785D01*
X178846900Y-98256786D01*
X179186599Y-95387287D01*
X179300003Y-92499996D01*
X179186599Y-89612705D01*
X178846900Y-86743206D01*
X178283203Y-83909206D01*
X177498901Y-81128196D01*
X176498794Y-78417297D01*
X175289001Y-75793096D01*
X173877197Y-73272096D01*
X172271797Y-70869495D01*
X170482894Y-68600296D01*
X168521499Y-66478496D01*
X166399696Y-64517096D01*
X166147399Y-64318196D01*
X166404396Y-64011795D01*
X166659500Y-64212896D01*
G37*
X166659500Y-64212896D02*
X168804397Y-66195596D01*
X170787094Y-68340496D01*
X172595397Y-70634397D01*
X174218200Y-73063098D01*
X175645401Y-75611597D01*
X176868301Y-78264198D01*
X177879302Y-81004598D01*
X178672195Y-83815826D01*
X179242004Y-86680637D01*
X179585296Y-89581317D01*
X179699996Y-92500000D01*
X179585296Y-95418678D01*
X179242004Y-98319358D01*
X178672195Y-101184165D01*
X177879302Y-103995399D01*
X176868301Y-106735797D01*
X175645401Y-109388397D01*
X174218200Y-111936897D01*
X172595397Y-114365600D01*
X170787094Y-116659500D01*
X168804397Y-118804397D01*
X166659500Y-120787094D01*
X166404403Y-120988189D01*
X166147399Y-120681793D01*
X166399703Y-120482894D01*
X168521499Y-118521499D01*
X170482894Y-116399696D01*
X172271797Y-114130493D01*
X173877197Y-111727897D01*
X175289001Y-109206893D01*
X176498794Y-106582695D01*
X177498901Y-103871795D01*
X178283203Y-101090785D01*
X178846900Y-98256786D01*
X179186599Y-95387287D01*
X179300003Y-92499996D01*
X179186599Y-89612705D01*
X178846900Y-86743206D01*
X178283203Y-83909206D01*
X177498901Y-81128196D01*
X176498794Y-78417297D01*
X175289001Y-75793096D01*
X173877197Y-73272096D01*
X172271797Y-70869495D01*
X170482894Y-68600296D01*
X168521499Y-66478496D01*
X166399696Y-64517096D01*
X166147399Y-64318196D01*
X166404396Y-64011795D01*
X166659500Y-64212896D01*
D10*
X179699996Y-92500000D02*
X179585296Y-89581317D01*
X178672195Y-83815826D02*
X177879302Y-81004598D01*
X177498901Y-103871795D02*
X176498794Y-106582695D01*
X178846900Y-98256786D02*
X178283203Y-101090785D01*
X170482894Y-68600296D02*
X172271797Y-70869495D01*
X178283203Y-101090785D02*
X177498901Y-103871795D01*
X176868301Y-106735797D02*
X177879302Y-103995399D01*
X177879302Y-81004598D02*
X176868301Y-78264198D01*
X175289001Y-75793096D02*
X176498794Y-78417297D01*
X179186599Y-89612705D02*
X179300003Y-92499996D01*
X168804397Y-66195596D02*
X166659500Y-64212896D01*
X170787094Y-68340496D02*
X168804397Y-66195596D01*
X170787094Y-68340496D02*
X168804397Y-66195596D01*
X178846900Y-86743206D02*
X179186599Y-89612705D01*
X168521499Y-66478496D02*
X170482894Y-68600296D01*
X177498901Y-81128196D02*
X178283203Y-83909206D01*
X177498901Y-103871795D02*
X176498794Y-106582695D01*
X178283203Y-83909206D02*
X178846900Y-86743206D01*
X175289001Y-109206893D02*
X173877197Y-111727897D01*
X166404396Y-64011795D02*
X166147399Y-64318196D01*
X166147399Y-120681793D02*
X166404403Y-120988189D01*
X174218200Y-73063098D02*
X172595397Y-70634397D01*
X172271797Y-114130493D02*
X170482894Y-116399696D01*
X178672195Y-83815826D02*
X177879302Y-81004598D01*
X166659500Y-64212896D02*
X166404396Y-64011795D01*
X170482894Y-116399696D02*
X168521499Y-118521499D01*
X168804397Y-66195596D02*
X166659500Y-64212896D01*
X174218200Y-111936897D02*
X175645401Y-109388397D01*
X174218200Y-111936897D02*
X175645401Y-109388397D01*
X174218200Y-73063098D02*
X172595397Y-70634397D01*
X179242004Y-98319358D02*
X179585296Y-95418678D01*
X172595397Y-70634397D02*
X170787094Y-68340496D01*
X179585296Y-89581317D02*
X179242004Y-86680637D01*
X172271797Y-70869495D02*
X173877197Y-73272096D01*
X168521499Y-118521499D02*
X166399703Y-120482894D01*
X173877197Y-73272096D02*
X175289001Y-75793096D01*
X175645401Y-109388397D02*
X176868301Y-106735797D01*
X177879302Y-81004598D02*
X176868301Y-78264198D01*
X173877197Y-111727897D02*
X172271797Y-114130493D01*
X179186599Y-95387287D02*
X178846900Y-98256786D01*
X175645401Y-75611597D02*
X174218200Y-73063098D01*
X166404403Y-120988189D02*
X166659500Y-120787094D01*
X172271797Y-70869495D02*
X173877197Y-73272096D01*
X166399703Y-120482894D02*
X166147399Y-120681793D01*
X166659500Y-120787094D02*
X166659500Y-120787094D01*
X176498794Y-78417297D02*
X177498901Y-81128196D01*
X177879302Y-103995399D02*
X178672195Y-101184165D01*
X179585296Y-95418678D02*
X179699996Y-92500000D01*
X170787094Y-116659500D02*
X172595397Y-114365600D01*
X179242004Y-86680637D02*
X178672195Y-83815826D01*
X176498794Y-78417297D02*
X177498901Y-81128196D01*
X175289001Y-75793096D02*
X176498794Y-78417297D01*
X172595397Y-114365600D02*
X174218200Y-111936897D01*
X173877197Y-73272096D02*
X175289001Y-75793096D01*
X168804397Y-118804397D02*
X170787094Y-116659500D01*
X166399703Y-120482894D02*
X166147399Y-120681793D01*
X166659500Y-120787094D02*
X168804397Y-118804397D01*
X178846900Y-86743206D02*
X179186599Y-89612705D01*
X176868301Y-106735797D02*
X177879302Y-103995399D01*
X166404403Y-120988189D02*
X166659500Y-120787094D01*
D12*
%TO.N,*%
X153670000Y-109601000D03*
%TO.N,+5V*%
X112141000Y-99568000D03*
X116713000Y-75311000D03*
%TO.N,+3V3*%
X152797600Y-107304400D03*
X153289000Y-97155000D03*
X142240000Y-104394000D03*
%TO.N,/CPU/RST#_P*%
X155845600Y-105018400D03*
%TO.N,/CPU/PB6*%
X150765600Y-104764400D03*
%TO.N,/CPU/PB7*%
X153305600Y-105780400D03*
%TO.N,/CPU/PB5*%
X155083600Y-106796400D03*
%TO.N,/CPU/TIMEPULSE*%
X149479000Y-99822000D03*
X150114000Y-111760000D03*
%TO.N,Net-(R8-Pad2)*%
X129856800Y-73756000D03*
%TO.N,Net-(R9-Pad2)*%
X146706800Y-75756000D03*
%TO.N,/tachometer/COUNT_1*%
X133514594Y-71792594D03*
X140208000Y-73406000D03*
%TO.N,/CPU/PC1*%
X132334000Y-113411000D03*
X155448000Y-111252000D03*
X138862637Y-114212500D03*
%TO.N,/CPU/PC0*%
X154813000Y-110363000D03*
X115196056Y-95504000D03*
X137668000Y-113450500D03*
X113538000Y-94488000D03*
X130175000Y-111633000D03*
%TO.N,/CPU/RX0*%
X119126000Y-110490000D03*
X144399000Y-114935000D03*
%TO.N,/CPU/TX0*%
X118110000Y-111252000D03*
X144659849Y-115847970D03*
%TO.N,/CPU/TX1*%
X110998000Y-96012000D03*
X148971000Y-112014000D03*
%TO.N,/CPU/RX1*%
X146134019Y-112776000D03*
X110109000Y-97155000D03*
%TO.N,/CPU/BTN*%
X156718000Y-109728000D03*
X165481000Y-107442000D03*
%TO.N,/CPU/GEO_STAT*%
X113792000Y-91948000D03*
X116205000Y-91948000D03*
%TO.N,ROTOR_GND*%
X121793000Y-105410000D03*
X159893000Y-90805000D03*
X113411000Y-103251000D03*
X146050000Y-116078000D03*
X118237000Y-76200000D03*
X125349000Y-99568000D03*
X169164000Y-75057000D03*
X140208000Y-69088000D03*
X115951000Y-113919000D03*
X150876000Y-89408000D03*
X117729000Y-79375000D03*
X136779000Y-115062000D03*
X175387000Y-93726000D03*
X109093000Y-78105000D03*
X138557000Y-77343000D03*
X121412000Y-95758000D03*
X171704000Y-102743000D03*
X148082000Y-85344000D03*
X125222000Y-93726000D03*
X145034000Y-78867000D03*
X116205000Y-94742000D03*
X130048000Y-77470000D03*
X128143000Y-94107000D03*
X122555000Y-96774000D03*
X113792000Y-81026000D03*
X142494000Y-103378000D03*
X165227000Y-86995000D03*
X133858000Y-94107000D03*
X167513000Y-84455000D03*
X125349000Y-79375000D03*
X164719000Y-91440000D03*
X119507000Y-79375000D03*
X128143000Y-93091000D03*
X123317000Y-101727000D03*
X153289000Y-74041000D03*
X151511000Y-109728000D03*
X125603000Y-87884000D03*
X114681000Y-79502000D03*
X130175000Y-107442000D03*
X140843000Y-108331000D03*
X171958000Y-99568000D03*
X134366000Y-98171000D03*
X113284000Y-96139000D03*
X162052000Y-97536000D03*
X153289000Y-91440000D03*
X137160000Y-69215000D03*
X113030000Y-115316000D03*
X117983000Y-104775000D03*
X118110000Y-96520000D03*
X147828000Y-115697000D03*
X131318000Y-100457000D03*
X172847000Y-85852000D03*
X141986000Y-108331000D03*
X131826000Y-103251000D03*
X139954000Y-103378000D03*
X166370000Y-97790000D03*
X162814000Y-91059000D03*
X151765000Y-111633000D03*
X116205000Y-79375000D03*
X131064000Y-90170000D03*
X150241000Y-71628000D03*
X133858000Y-91059000D03*
X160147000Y-95758000D03*
X127000000Y-103251000D03*
X106807000Y-103124000D03*
X136271000Y-109093000D03*
X104775000Y-102235000D03*
X129794000Y-95123000D03*
X111633000Y-116078000D03*
X131826000Y-95123000D03*
X172085000Y-89281000D03*
X128905000Y-78613000D03*
X159766000Y-80264000D03*
X160147000Y-76581000D03*
X143383000Y-70358000D03*
X128905000Y-90043000D03*
X168021000Y-109347000D03*
X115189000Y-88519000D03*
X132334000Y-108077000D03*
X153162000Y-80010000D03*
X173355000Y-80518000D03*
X160020000Y-99441000D03*
X114427000Y-114681000D03*
X164846000Y-89154000D03*
X109347000Y-88392000D03*
X125095000Y-76200000D03*
X143129000Y-81407000D03*
X107950000Y-86106000D03*
X106045000Y-86106000D03*
X173736000Y-76962000D03*
X140716000Y-79502000D03*
X113665000Y-86106000D03*
X135382000Y-69596000D03*
X173736000Y-105156000D03*
X113538000Y-88392000D03*
X130810000Y-95123000D03*
X123952000Y-107061000D03*
X121539000Y-79375000D03*
X172085000Y-81280000D03*
X164973000Y-110617000D03*
X162814000Y-85852000D03*
X144272000Y-69342000D03*
X113284000Y-97536000D03*
X161290000Y-90043000D03*
X114173000Y-99060000D03*
X158496000Y-92329000D03*
X173609000Y-99568000D03*
X121412000Y-99822000D03*
X129413000Y-103251000D03*
X107315000Y-76454000D03*
X175514000Y-96266000D03*
X134493000Y-103378000D03*
X107696000Y-78105000D03*
X138557000Y-71374000D03*
X172974000Y-109220000D03*
X127635000Y-107061000D03*
X135382000Y-115062000D03*
X129159000Y-100457000D03*
X162560000Y-87884000D03*
X132842000Y-94107000D03*
X118110000Y-103378000D03*
X106426000Y-81153000D03*
X167386000Y-91567000D03*
X157480000Y-83312000D03*
X138049000Y-107188000D03*
X167259000Y-92837000D03*
X129159000Y-105410000D03*
X155829000Y-108839000D03*
X138684000Y-69215000D03*
X133350000Y-96393000D03*
X110617000Y-83185000D03*
X153416000Y-86614000D03*
X174244000Y-89154000D03*
X128270000Y-90805000D03*
X151384000Y-92710000D03*
X104267000Y-86106000D03*
X108331000Y-101981000D03*
X136779000Y-71374000D03*
X117983000Y-90424000D03*
X140462000Y-71374000D03*
X175387000Y-90805000D03*
X142367000Y-71247000D03*
X171831000Y-87249000D03*
X161417000Y-101727000D03*
X113538000Y-84455000D03*
X137922000Y-100457000D03*
X131826000Y-94107000D03*
X123317000Y-79375000D03*
X161163000Y-104902000D03*
X135890000Y-100457000D03*
X168148000Y-99187000D03*
X148717000Y-108966000D03*
X151257000Y-84582000D03*
X139827000Y-105918000D03*
X121412000Y-101854000D03*
X120269000Y-94742000D03*
X174752000Y-79883000D03*
X130048000Y-89916000D03*
X166751000Y-77597000D03*
X175387000Y-99441000D03*
X110617000Y-88392000D03*
X105664000Y-84455000D03*
X115697000Y-104013000D03*
X166116000Y-92837000D03*
X170561000Y-88392000D03*
X127127000Y-79375000D03*
X169545000Y-85852000D03*
X134366000Y-109347000D03*
X168783000Y-90297000D03*
X133223000Y-75438000D03*
X147828000Y-81280000D03*
X133985000Y-70485000D03*
X170180000Y-75946000D03*
X133604000Y-100457000D03*
X119761000Y-98298000D03*
X160147000Y-93980000D03*
X145288000Y-83185000D03*
X114554000Y-68326000D03*
X173609000Y-103124000D03*
X129413000Y-96901000D03*
X164211000Y-95250000D03*
X131191000Y-87757000D03*
X133858000Y-114847500D03*
X122047000Y-76200000D03*
X161671000Y-94107000D03*
X139573000Y-115189000D03*
X163449000Y-92456000D03*
X128143000Y-91948000D03*
X120015000Y-76200000D03*
X157480000Y-86614000D03*
X167513000Y-88519000D03*
X155702000Y-76454000D03*
X168656000Y-87376000D03*
X173863000Y-107315000D03*
X165735000Y-109474000D03*
X116713000Y-89281000D03*
X121793000Y-103632000D03*
X115062000Y-93345000D03*
X145288000Y-104902000D03*
X131699000Y-91059000D03*
X135255000Y-73152000D03*
X170815000Y-109474000D03*
X127254000Y-76073000D03*
X165989000Y-90170000D03*
X156591000Y-93599000D03*
X166370000Y-102743000D03*
X150368000Y-87503000D03*
X172847000Y-83439000D03*
X166751000Y-95250000D03*
X134239000Y-74168000D03*
X164973000Y-75057000D03*
X123952000Y-98171000D03*
X153416000Y-83439000D03*
X168910000Y-77724000D03*
X164211000Y-104267000D03*
X124968000Y-103124000D03*
X156591000Y-97536000D03*
X136906000Y-103251000D03*
X121666000Y-107061000D03*
X160020000Y-84201000D03*
X115570000Y-69342000D03*
X150749000Y-95631000D03*
X132080000Y-76454000D03*
X128397000Y-75057000D03*
X106426000Y-101981000D03*
X115570000Y-100330000D03*
X153289000Y-94742000D03*
X117221000Y-101854000D03*
X128778000Y-94996000D03*
X127000000Y-100330000D03*
X132842000Y-91059000D03*
X116967000Y-70739000D03*
X157480000Y-91186000D03*
X110490000Y-80010000D03*
X160147000Y-108077000D03*
X161544000Y-92456000D03*
X105283000Y-103632000D03*
%TO.N,STATOR*%
X174396400Y-73761600D03*
X166420800Y-64262000D03*
X166510000Y-120630000D03*
%TO.N,PA1*%
X164801200Y-76392400D03*
X164775800Y-82513800D03*
X158369000Y-96012000D03*
X158369000Y-100203000D03*
%TO.N,COUNT_2*%
X149656800Y-77956000D03*
X156591000Y-111252000D03*
%TD*%
D13*
%TO.N,+5V*%
X112141000Y-99568000D02*
X112141000Y-79883000D01*
X112141000Y-79883000D02*
X116713000Y-75311000D01*
%TO.N,+3V3*%
X153289000Y-97155000D02*
X150622000Y-97155000D01*
X150622000Y-97155000D02*
X143383000Y-104394000D01*
X150622000Y-97155000D02*
X150368000Y-97409000D01*
X143383000Y-104394000D02*
X142240000Y-104394000D01*
D14*
%TO.N,/CPU/TIMEPULSE*%
X149479000Y-99822000D02*
X149479000Y-111125000D01*
X149479000Y-111125000D02*
X150114000Y-111760000D01*
%TO.N,/tachometer/COUNT_1*%
X139008000Y-72206000D02*
X140208000Y-73406000D01*
X133514594Y-71792594D02*
X133928000Y-72206000D01*
X133928000Y-72206000D02*
X139008000Y-72206000D01*
%TO.N,/CPU/PC1*%
X132334000Y-113411000D02*
X133096000Y-114173000D01*
X133096000Y-114173000D02*
X152527000Y-114173000D01*
X152527000Y-114173000D02*
X155448000Y-111252000D01*
%TO.N,/CPU/PC0*%
X151130000Y-113538000D02*
X151397314Y-113538000D01*
X133731000Y-113411000D02*
X132715000Y-112395000D01*
X130175000Y-111633000D02*
X131953000Y-111633000D01*
X153670000Y-112464994D02*
X152688997Y-113445997D01*
X145770742Y-113411000D02*
X133731000Y-113411000D01*
D15*
X115196056Y-95504000D02*
X114180056Y-94488000D01*
D14*
X153670000Y-111379000D02*
X153670000Y-112464994D01*
D15*
X114180056Y-94488000D02*
X113919000Y-94488000D01*
D14*
X151130000Y-113538000D02*
X152596994Y-113538000D01*
X131953000Y-111633000D02*
X132715000Y-112395000D01*
X145897742Y-113538000D02*
X145770742Y-113411000D01*
X113919000Y-94488000D02*
X113538000Y-94488000D01*
X151130000Y-113538000D02*
X145897742Y-113538000D01*
X154686000Y-110363000D02*
X153670000Y-111379000D01*
X154813000Y-110363000D02*
X154686000Y-110363000D01*
X152596994Y-113538000D02*
X152815997Y-113318997D01*
%TO.N,/CPU/RX0*%
X143129000Y-116205000D02*
X144399000Y-114935000D01*
X119507000Y-110490000D02*
X125222000Y-116205000D01*
X125222000Y-116205000D02*
X143129000Y-116205000D01*
X119126000Y-110490000D02*
X119507000Y-110490000D01*
%TO.N,/CPU/TX0*%
X118618000Y-111252000D02*
X124079000Y-116713000D01*
X118110000Y-111252000D02*
X118618000Y-111252000D01*
X143794819Y-116713000D02*
X144659849Y-115847970D01*
X124079000Y-116713000D02*
X143794819Y-116713000D01*
%TO.N,/CPU/TX1*%
X110998000Y-102616000D02*
X116840000Y-108458000D01*
X130175000Y-108458000D02*
X133731000Y-112014000D01*
X110998000Y-96012000D02*
X110998000Y-102616000D01*
X133731000Y-112014000D02*
X148971000Y-112014000D01*
X116840000Y-108458000D02*
X130175000Y-108458000D01*
%TO.N,/CPU/RX1*%
X146134019Y-112776000D02*
X133731000Y-112776000D01*
X110109000Y-102489000D02*
X110109000Y-97155000D01*
X116713000Y-109093000D02*
X110109000Y-102489000D01*
X130048000Y-109093000D02*
X116713000Y-109093000D01*
X133731000Y-112776000D02*
X130048000Y-109093000D01*
%TO.N,/CPU/BTN*%
X156718000Y-109728000D02*
X163195000Y-109728000D01*
X163195000Y-109728000D02*
X165481000Y-107442000D01*
%TO.N,/CPU/GEO_STAT*%
X116205000Y-91948000D02*
X113792000Y-91948000D01*
D15*
%TO.N,STATOR*%
X176498794Y-78417297D02*
X177498901Y-81128196D01*
X170787094Y-68340496D02*
X168804397Y-66195596D01*
X178846900Y-98256786D02*
X178283203Y-101090785D01*
X176498794Y-106582695D02*
X175289001Y-109206893D01*
X179186599Y-89612705D02*
X179300003Y-92499996D01*
X166399703Y-120482894D02*
X166147399Y-120681793D01*
X168521499Y-118521499D02*
X166399703Y-120482894D01*
X179300003Y-92499996D02*
X179186599Y-95387287D01*
X175289001Y-75793096D02*
X176498794Y-78417297D01*
X176868301Y-106735797D02*
X177879302Y-103995399D01*
X166404403Y-120988189D02*
X166659500Y-120787094D01*
X177498901Y-81128196D02*
X178283203Y-83909206D01*
X168804397Y-66195596D02*
X166659500Y-64212896D01*
X179242004Y-86680637D02*
X178672195Y-83815826D01*
X175645401Y-75611597D02*
X174218200Y-73063098D01*
X166659500Y-120787094D02*
X168804397Y-118804397D01*
X170482894Y-68600296D02*
X172271797Y-70869495D01*
X174218200Y-73063098D02*
X172595397Y-70634397D01*
X166147399Y-64318196D02*
X166399696Y-64517096D01*
X177879302Y-103995399D02*
X178672195Y-101184165D01*
X166147399Y-120681793D02*
X166404403Y-120988189D01*
D14*
X166420800Y-64262000D02*
X166243000Y-64262000D01*
D15*
X178283203Y-83909206D02*
X178846900Y-86743206D01*
X173877197Y-111727897D02*
X172271797Y-114130493D01*
X178846900Y-86743206D02*
X179186599Y-89612705D01*
X178672195Y-83815826D02*
X177879302Y-81004598D01*
X166404396Y-64011795D02*
X166147399Y-64318196D01*
X179242004Y-98319358D02*
X179585296Y-95418678D01*
X179699996Y-92500000D02*
X179585296Y-89581317D01*
X166399696Y-64517096D02*
X168521499Y-66478496D01*
X170787094Y-116659500D02*
X172595397Y-114365600D01*
X174218200Y-111936897D02*
X175645401Y-109388397D01*
X179585296Y-95418678D02*
X179699996Y-92500000D01*
X178283203Y-101090785D02*
X177498901Y-103871795D01*
X172271797Y-70869495D02*
X173877197Y-73272096D01*
X166659500Y-120787094D02*
X166659500Y-120787094D01*
X175645401Y-109388397D02*
X176868301Y-106735797D01*
X168804397Y-118804397D02*
X170787094Y-116659500D01*
X172271797Y-114130493D02*
X170482894Y-116399696D01*
X170482894Y-116399696D02*
X168521499Y-118521499D01*
X177879302Y-81004598D02*
X176868301Y-78264198D01*
X172595397Y-70634397D02*
X170787094Y-68340496D01*
X173877197Y-73272096D02*
X175289001Y-75793096D01*
X172595397Y-114365600D02*
X174218200Y-111936897D01*
X166659500Y-64212896D02*
X166404396Y-64011795D01*
X176868301Y-78264198D02*
X175645401Y-75611597D01*
X177498901Y-103871795D02*
X176498794Y-106582695D01*
X168521499Y-66478496D02*
X170482894Y-68600296D01*
X178672195Y-101184165D02*
X179242004Y-98319358D01*
X179585296Y-89581317D02*
X179242004Y-86680637D01*
X175289001Y-109206893D02*
X173877197Y-111727897D01*
X179186599Y-95387287D02*
X178846900Y-98256786D01*
D14*
%TO.N,PA1*%
X164801200Y-82488400D02*
X164775800Y-82513800D01*
X158369000Y-100203000D02*
X158369000Y-96012000D01*
X164801200Y-76392400D02*
X164801200Y-82488400D01*
%TO.N,COUNT_2*%
X154409089Y-89512089D02*
X149656800Y-84759800D01*
X154409089Y-89512089D02*
X154241500Y-89344500D01*
X154409089Y-108689089D02*
X154409089Y-89512089D01*
X156591000Y-110871000D02*
X154409089Y-108689089D01*
X149656800Y-84759800D02*
X149656800Y-77956000D01*
X156591000Y-111252000D02*
X156591000Y-110871000D01*
%TD*%
%TA.AperFunction,Conductor*%
%TO.N,ROTOR_GND*%
G36*
X143407341Y-52523754D02*
G01*
X144590139Y-52554719D01*
X144596726Y-52555064D01*
X146677847Y-52718845D01*
X146684412Y-52719535D01*
X148754125Y-52992076D01*
X148760635Y-52993108D01*
X149434542Y-53117999D01*
X150813237Y-53373504D01*
X150819660Y-53374870D01*
X151791158Y-53608115D01*
X152849593Y-53862233D01*
X152855960Y-53863939D01*
X154857517Y-54456760D01*
X154863798Y-54458800D01*
X156831603Y-55155706D01*
X156837757Y-55158069D01*
X158766465Y-55956945D01*
X158772469Y-55959618D01*
X160065111Y-56576156D01*
X160656611Y-56858278D01*
X160662492Y-56861274D01*
X162497106Y-57857430D01*
X162502816Y-57860727D01*
X164282783Y-58951474D01*
X164288316Y-58955067D01*
X166008677Y-60137429D01*
X166014016Y-60141308D01*
X167670187Y-61412196D01*
X167675310Y-61416345D01*
X168483388Y-62106489D01*
X169262705Y-62772071D01*
X169267581Y-62776462D01*
X169979204Y-63451732D01*
X170781905Y-64213427D01*
X170786574Y-64218096D01*
X171505050Y-64975250D01*
X172223537Y-65732416D01*
X172227928Y-65737292D01*
X172893510Y-66516609D01*
X173583654Y-67324687D01*
X173587803Y-67329810D01*
X174858693Y-68985981D01*
X174862572Y-68991320D01*
X176044930Y-70711681D01*
X176048523Y-70717214D01*
X177139272Y-72497184D01*
X177142569Y-72502894D01*
X178138725Y-74337492D01*
X178141722Y-74343373D01*
X179040387Y-76227535D01*
X179043069Y-76233561D01*
X179841934Y-78162243D01*
X179844295Y-78168391D01*
X179916986Y-78373646D01*
X180541199Y-80136201D01*
X180543239Y-80142482D01*
X181136070Y-82144058D01*
X181137766Y-82150387D01*
X181617256Y-84147524D01*
X181625130Y-84180319D01*
X181626499Y-84186758D01*
X181737358Y-84784949D01*
X182006895Y-86239360D01*
X182007927Y-86245870D01*
X182280468Y-88315586D01*
X182281158Y-88322150D01*
X182444946Y-90403273D01*
X182445291Y-90409862D01*
X182471776Y-91421701D01*
X182499871Y-92495052D01*
X182499914Y-92496702D01*
X182499914Y-92503285D01*
X182476426Y-93400392D01*
X182445276Y-94590147D01*
X182444931Y-94596734D01*
X182281158Y-96677855D01*
X182280468Y-96684420D01*
X182007922Y-98754118D01*
X182006891Y-98760627D01*
X181779933Y-99985305D01*
X181701234Y-100409971D01*
X181626500Y-100813237D01*
X181625131Y-100819676D01*
X181614947Y-100862095D01*
X181137761Y-102849606D01*
X181136055Y-102855972D01*
X180543239Y-104857525D01*
X180541199Y-104863806D01*
X179844297Y-106831611D01*
X179841934Y-106837765D01*
X179043061Y-108766446D01*
X179040379Y-108772472D01*
X178141714Y-110656633D01*
X178138717Y-110662514D01*
X177142569Y-112497113D01*
X177139272Y-112502823D01*
X176048523Y-114282791D01*
X176044930Y-114288324D01*
X174862572Y-116008684D01*
X174858693Y-116014023D01*
X173587803Y-117670194D01*
X173583654Y-117675317D01*
X172227948Y-119262689D01*
X172223539Y-119267587D01*
X170786583Y-120781905D01*
X170781914Y-120786574D01*
X169267601Y-122223526D01*
X169267582Y-122223544D01*
X169262681Y-122227956D01*
X167675310Y-123583661D01*
X167670187Y-123587810D01*
X166014016Y-124858693D01*
X166008677Y-124862572D01*
X164288316Y-126044938D01*
X164282783Y-126048531D01*
X162502816Y-127139280D01*
X162497106Y-127142577D01*
X160662492Y-128138733D01*
X160656611Y-128141729D01*
X158772469Y-129040393D01*
X158766465Y-129043066D01*
X157802101Y-129442504D01*
X156837747Y-129841938D01*
X156831594Y-129844300D01*
X154863809Y-130541202D01*
X154857527Y-130543243D01*
X152855960Y-131136071D01*
X152849593Y-131137777D01*
X151790082Y-131392150D01*
X150819660Y-131625133D01*
X150813237Y-131626499D01*
X148760623Y-132006905D01*
X148754131Y-132007934D01*
X146684406Y-132280469D01*
X146677861Y-132281157D01*
X145992309Y-132335111D01*
X144596726Y-132444946D01*
X144590137Y-132445291D01*
X143343098Y-132477932D01*
X142503286Y-132499914D01*
X142496715Y-132499914D01*
X141599561Y-132476425D01*
X140409856Y-132445276D01*
X140403269Y-132444931D01*
X138322148Y-132281158D01*
X138315583Y-132280468D01*
X136245881Y-132007922D01*
X136239372Y-132006891D01*
X134186773Y-131626502D01*
X134186758Y-131626499D01*
X134180305Y-131625127D01*
X132150393Y-131137761D01*
X132144027Y-131136055D01*
X130142474Y-130543239D01*
X130136193Y-130541199D01*
X128168392Y-129844297D01*
X128162238Y-129841934D01*
X126233555Y-129043061D01*
X126227529Y-129040379D01*
X124343366Y-128141714D01*
X124337485Y-128138717D01*
X122502888Y-127142569D01*
X122497178Y-127139272D01*
X120717208Y-126048523D01*
X120711675Y-126044930D01*
X118991315Y-124862572D01*
X118985976Y-124858693D01*
X117329805Y-123587803D01*
X117324682Y-123583654D01*
X116405305Y-122798454D01*
X115737286Y-122227928D01*
X115732410Y-122223537D01*
X114975244Y-121505050D01*
X114218090Y-120786574D01*
X114213421Y-120781905D01*
X113207703Y-119722044D01*
X112776456Y-119267581D01*
X112772065Y-119262705D01*
X111538000Y-117817760D01*
X111416340Y-117675310D01*
X111412191Y-117670187D01*
X110141302Y-116014016D01*
X110137423Y-116008677D01*
X109016861Y-114378236D01*
X108955061Y-114288316D01*
X108951468Y-114282783D01*
X107860719Y-112502816D01*
X107857422Y-112497106D01*
X106861266Y-110662492D01*
X106858270Y-110656611D01*
X106282584Y-109449620D01*
X105959610Y-108772469D01*
X105956932Y-108766454D01*
X105949456Y-108748403D01*
X105415046Y-107458191D01*
X105158061Y-106837757D01*
X105155698Y-106831603D01*
X104458793Y-104863798D01*
X104456753Y-104857517D01*
X104250387Y-104160758D01*
X103863926Y-102855942D01*
X103862230Y-102849612D01*
X103374862Y-100819660D01*
X103373493Y-100813221D01*
X103362908Y-100756102D01*
X103098025Y-99326805D01*
X102993100Y-98760635D01*
X102992068Y-98754125D01*
X102790663Y-97224623D01*
X109557880Y-97224623D01*
X109596905Y-97370265D01*
X109673658Y-97500048D01*
X109717734Y-97542315D01*
X109776286Y-97598465D01*
X109776289Y-97598467D01*
X109782485Y-97604409D01*
X109783686Y-97605053D01*
X109824915Y-97658519D01*
X109833500Y-97704233D01*
X109833500Y-102451458D01*
X109831079Y-102476038D01*
X109830925Y-102476816D01*
X109828501Y-102489000D01*
X109830922Y-102501170D01*
X109833499Y-102514125D01*
X109833502Y-102514149D01*
X109838404Y-102538790D01*
X109849852Y-102596343D01*
X109910657Y-102687343D01*
X109920973Y-102694236D01*
X109921651Y-102694689D01*
X109940744Y-102710359D01*
X116491643Y-109261259D01*
X116507313Y-109280352D01*
X116514657Y-109291343D01*
X116524973Y-109298236D01*
X116535964Y-109305580D01*
X116535966Y-109305582D01*
X116579390Y-109334597D01*
X116595340Y-109345255D01*
X116595342Y-109345256D01*
X116605657Y-109352148D01*
X116617824Y-109354568D01*
X116617826Y-109354569D01*
X116663933Y-109363740D01*
X116687863Y-109368500D01*
X116687867Y-109368500D01*
X116713000Y-109373499D01*
X116725171Y-109371078D01*
X116725173Y-109371078D01*
X116725962Y-109370921D01*
X116750542Y-109368500D01*
X129881695Y-109368500D01*
X129949816Y-109388502D01*
X129970790Y-109405405D01*
X131707789Y-111142405D01*
X131741815Y-111204717D01*
X131736750Y-111275533D01*
X131694203Y-111332368D01*
X131627683Y-111357179D01*
X131618694Y-111357500D01*
X130720184Y-111357500D01*
X130652063Y-111337498D01*
X130622268Y-111310799D01*
X130555266Y-111228058D01*
X130548264Y-111223082D01*
X130548262Y-111223080D01*
X130439363Y-111145690D01*
X130432361Y-111140714D01*
X130290495Y-111089639D01*
X130281935Y-111089010D01*
X130281933Y-111089010D01*
X130203122Y-111083223D01*
X130140120Y-111078596D01*
X129992315Y-111108399D01*
X129857969Y-111176852D01*
X129851647Y-111182665D01*
X129851646Y-111182666D01*
X129768614Y-111259018D01*
X129746980Y-111278911D01*
X129742452Y-111286214D01*
X129742451Y-111286215D01*
X129684922Y-111379000D01*
X129667525Y-111407058D01*
X129625459Y-111551851D01*
X129623880Y-111702623D01*
X129662905Y-111848265D01*
X129739658Y-111978048D01*
X129848485Y-112082409D01*
X129981368Y-112153660D01*
X130023874Y-112163161D01*
X130120131Y-112184678D01*
X130120135Y-112184678D01*
X130128517Y-112186552D01*
X130222950Y-112181603D01*
X130270507Y-112179111D01*
X130270508Y-112179111D01*
X130279090Y-112178661D01*
X130421995Y-112130568D01*
X130546702Y-112045817D01*
X130552245Y-112039258D01*
X130552247Y-112039256D01*
X130624993Y-111953172D01*
X130684239Y-111914052D01*
X130721231Y-111908500D01*
X131786694Y-111908500D01*
X131854815Y-111928502D01*
X131875790Y-111945405D01*
X132206982Y-112276598D01*
X132537966Y-112607582D01*
X132537977Y-112607592D01*
X132595501Y-112665116D01*
X132629527Y-112727428D01*
X132624462Y-112798243D01*
X132581915Y-112855079D01*
X132515395Y-112879890D01*
X132463726Y-112872762D01*
X132457577Y-112870548D01*
X132457572Y-112870547D01*
X132449495Y-112867639D01*
X132440935Y-112867010D01*
X132440933Y-112867010D01*
X132362122Y-112861223D01*
X132299120Y-112856596D01*
X132151315Y-112886399D01*
X132016969Y-112954852D01*
X132010647Y-112960665D01*
X132010646Y-112960666D01*
X131912307Y-113051093D01*
X131905980Y-113056911D01*
X131901452Y-113064214D01*
X131901451Y-113064215D01*
X131847344Y-113151481D01*
X131826525Y-113185058D01*
X131784459Y-113329851D01*
X131782880Y-113480623D01*
X131821905Y-113626265D01*
X131898658Y-113756048D01*
X132007485Y-113860409D01*
X132140368Y-113931660D01*
X132182874Y-113941161D01*
X132279131Y-113962678D01*
X132279135Y-113962678D01*
X132287517Y-113964552D01*
X132365011Y-113960491D01*
X132431437Y-113957010D01*
X132500511Y-113973419D01*
X132527126Y-113993742D01*
X132874643Y-114341259D01*
X132890311Y-114360349D01*
X132897657Y-114371343D01*
X132907973Y-114378236D01*
X132907974Y-114378237D01*
X132918960Y-114385578D01*
X132918979Y-114385591D01*
X132955721Y-114410141D01*
X132955723Y-114410142D01*
X132988657Y-114432148D01*
X133000824Y-114434568D01*
X133000826Y-114434569D01*
X133035889Y-114441543D01*
X133070863Y-114448500D01*
X133070864Y-114448500D01*
X133096000Y-114453500D01*
X133108171Y-114451079D01*
X133108173Y-114451079D01*
X133108967Y-114450921D01*
X133133547Y-114448500D01*
X138290935Y-114448500D01*
X138359056Y-114468502D01*
X138399389Y-114510361D01*
X138427295Y-114557548D01*
X138536122Y-114661909D01*
X138669005Y-114733160D01*
X138711511Y-114742661D01*
X138807768Y-114764178D01*
X138807772Y-114764178D01*
X138816154Y-114766052D01*
X138910587Y-114761103D01*
X138958144Y-114758611D01*
X138958145Y-114758611D01*
X138966727Y-114758161D01*
X139109632Y-114710068D01*
X139234339Y-114625317D01*
X139239882Y-114618758D01*
X139239884Y-114618756D01*
X139326116Y-114516714D01*
X139326117Y-114516712D01*
X139331661Y-114510152D01*
X139333661Y-114505783D01*
X139385680Y-114460187D01*
X139438675Y-114448500D01*
X143826701Y-114448500D01*
X143894822Y-114468502D01*
X143941315Y-114522158D01*
X143951419Y-114592432D01*
X143933787Y-114640897D01*
X143891525Y-114709058D01*
X143849459Y-114853851D01*
X143847880Y-115004623D01*
X143850103Y-115012920D01*
X143851180Y-115021445D01*
X143848107Y-115021833D01*
X143846789Y-115077767D01*
X143815858Y-115128526D01*
X143051790Y-115892595D01*
X142989477Y-115926620D01*
X142962694Y-115929500D01*
X125388306Y-115929500D01*
X125320185Y-115909498D01*
X125299211Y-115892595D01*
X119728359Y-110321744D01*
X119712689Y-110302651D01*
X119712236Y-110301973D01*
X119705343Y-110291657D01*
X119642284Y-110249522D01*
X119604540Y-110210060D01*
X119601155Y-110202236D01*
X119595749Y-110195560D01*
X119511674Y-110091736D01*
X119511673Y-110091735D01*
X119506266Y-110085058D01*
X119499264Y-110080082D01*
X119499262Y-110080080D01*
X119390363Y-110002690D01*
X119383361Y-109997714D01*
X119241495Y-109946639D01*
X119232935Y-109946010D01*
X119232933Y-109946010D01*
X119154122Y-109940223D01*
X119091120Y-109935596D01*
X118943315Y-109965399D01*
X118808969Y-110033852D01*
X118802647Y-110039665D01*
X118802646Y-110039666D01*
X118738590Y-110098568D01*
X118697980Y-110135911D01*
X118693452Y-110143214D01*
X118693451Y-110143215D01*
X118637201Y-110233937D01*
X118618525Y-110264058D01*
X118616129Y-110272305D01*
X118613443Y-110281552D01*
X118576459Y-110408851D01*
X118574880Y-110559623D01*
X118599001Y-110649641D01*
X118599335Y-110650888D01*
X118597645Y-110721865D01*
X118557851Y-110780661D01*
X118492587Y-110808609D01*
X118422573Y-110796836D01*
X118404639Y-110786206D01*
X118374363Y-110764690D01*
X118367361Y-110759714D01*
X118225495Y-110708639D01*
X118216935Y-110708010D01*
X118216933Y-110708010D01*
X118138122Y-110702223D01*
X118075120Y-110697596D01*
X117927315Y-110727399D01*
X117792969Y-110795852D01*
X117786647Y-110801665D01*
X117786646Y-110801666D01*
X117734856Y-110849289D01*
X117681980Y-110897911D01*
X117677452Y-110905214D01*
X117677451Y-110905215D01*
X117611667Y-111011313D01*
X117602525Y-111026058D01*
X117600129Y-111034305D01*
X117597443Y-111043552D01*
X117560459Y-111170851D01*
X117560369Y-111179437D01*
X117560369Y-111179438D01*
X117560077Y-111207294D01*
X117558880Y-111321623D01*
X117597905Y-111467265D01*
X117674658Y-111597048D01*
X117783485Y-111701409D01*
X117852660Y-111738500D01*
X117905846Y-111767018D01*
X117916368Y-111772660D01*
X117932165Y-111776191D01*
X118055131Y-111803678D01*
X118055135Y-111803678D01*
X118063517Y-111805552D01*
X118157950Y-111800603D01*
X118205507Y-111798111D01*
X118205508Y-111798111D01*
X118214090Y-111797661D01*
X118356995Y-111749568D01*
X118481702Y-111664817D01*
X118482138Y-111665458D01*
X118539963Y-111637711D01*
X118610416Y-111646478D01*
X118649355Y-111672970D01*
X123857643Y-116881259D01*
X123873311Y-116900349D01*
X123880657Y-116911343D01*
X123890973Y-116918236D01*
X123901964Y-116925580D01*
X123901966Y-116925582D01*
X123961340Y-116965255D01*
X123961342Y-116965256D01*
X123971657Y-116972148D01*
X123983824Y-116974568D01*
X123983826Y-116974569D01*
X124029933Y-116983740D01*
X124053863Y-116988500D01*
X124053867Y-116988500D01*
X124079000Y-116993499D01*
X124091171Y-116991078D01*
X124091173Y-116991078D01*
X124091962Y-116990921D01*
X124116542Y-116988500D01*
X143757277Y-116988500D01*
X143781857Y-116990921D01*
X143782646Y-116991078D01*
X143782648Y-116991078D01*
X143794819Y-116993499D01*
X143819949Y-116988500D01*
X143819956Y-116988500D01*
X143819963Y-116988499D01*
X143819968Y-116988498D01*
X143889993Y-116974569D01*
X143889995Y-116974568D01*
X143902162Y-116972148D01*
X143993162Y-116911343D01*
X144000508Y-116900349D01*
X144016178Y-116881256D01*
X144468389Y-116429045D01*
X144530701Y-116395019D01*
X144584967Y-116395174D01*
X144613366Y-116401522D01*
X144707799Y-116396573D01*
X144755356Y-116394081D01*
X144755357Y-116394081D01*
X144763939Y-116393631D01*
X144906844Y-116345538D01*
X145031551Y-116260787D01*
X145037094Y-116254228D01*
X145037096Y-116254226D01*
X145123330Y-116152181D01*
X145128873Y-116145622D01*
X145191640Y-116008527D01*
X145215227Y-115859604D01*
X145215349Y-115847970D01*
X145194886Y-115698585D01*
X145135004Y-115560206D01*
X145081295Y-115493881D01*
X145045523Y-115449706D01*
X145045522Y-115449705D01*
X145040115Y-115443028D01*
X144922564Y-115359489D01*
X144878624Y-115303723D01*
X144871808Y-115233055D01*
X144880990Y-115204332D01*
X144927216Y-115103366D01*
X144927216Y-115103364D01*
X144930791Y-115095557D01*
X144954378Y-114946634D01*
X144954500Y-114935000D01*
X144934037Y-114785615D01*
X144925377Y-114765602D01*
X144877567Y-114655120D01*
X144877566Y-114655118D01*
X144874155Y-114647236D01*
X144868748Y-114640559D01*
X144868272Y-114639773D01*
X144850092Y-114571143D01*
X144871901Y-114503580D01*
X144926777Y-114458533D01*
X144976047Y-114448500D01*
X152489458Y-114448500D01*
X152514038Y-114450921D01*
X152514827Y-114451078D01*
X152514829Y-114451078D01*
X152527000Y-114453499D01*
X152552130Y-114448500D01*
X152552137Y-114448500D01*
X152552144Y-114448499D01*
X152552149Y-114448498D01*
X152622174Y-114434569D01*
X152622176Y-114434568D01*
X152634343Y-114432148D01*
X152725343Y-114371343D01*
X152732689Y-114360349D01*
X152748359Y-114341256D01*
X155256541Y-111833075D01*
X155318853Y-111799049D01*
X155373123Y-111799205D01*
X155393132Y-111803678D01*
X155393134Y-111803678D01*
X155401517Y-111805552D01*
X155495950Y-111800603D01*
X155543507Y-111798111D01*
X155543508Y-111798111D01*
X155552090Y-111797661D01*
X155694995Y-111749568D01*
X155819702Y-111664817D01*
X155825245Y-111658258D01*
X155825247Y-111658256D01*
X155911477Y-111556216D01*
X155917024Y-111549652D01*
X155917712Y-111548149D01*
X155968585Y-111503554D01*
X156038800Y-111493048D01*
X156103549Y-111522170D01*
X156130037Y-111553727D01*
X156151283Y-111589651D01*
X156155658Y-111597048D01*
X156264485Y-111701409D01*
X156333660Y-111738500D01*
X156386846Y-111767018D01*
X156397368Y-111772660D01*
X156413165Y-111776191D01*
X156536131Y-111803678D01*
X156536135Y-111803678D01*
X156544517Y-111805552D01*
X156638950Y-111800603D01*
X156686507Y-111798111D01*
X156686508Y-111798111D01*
X156695090Y-111797661D01*
X156837995Y-111749568D01*
X156962702Y-111664817D01*
X156968245Y-111658258D01*
X156968247Y-111658256D01*
X157054481Y-111556211D01*
X157060024Y-111549652D01*
X157072815Y-111521714D01*
X157119216Y-111420366D01*
X157119216Y-111420364D01*
X157122791Y-111412557D01*
X157146378Y-111263634D01*
X157146500Y-111252000D01*
X157126037Y-111102615D01*
X157100478Y-111043552D01*
X157069567Y-110972120D01*
X157069566Y-110972118D01*
X157066155Y-110964236D01*
X157003487Y-110886847D01*
X156976674Y-110853736D01*
X156976673Y-110853735D01*
X156971266Y-110847058D01*
X156964264Y-110842082D01*
X156964262Y-110842080D01*
X156865645Y-110771997D01*
X156833869Y-110739293D01*
X156796239Y-110682976D01*
X156796236Y-110682973D01*
X156789343Y-110672657D01*
X156778349Y-110665311D01*
X156759256Y-110649641D01*
X156605239Y-110495624D01*
X156571213Y-110433312D01*
X156576278Y-110362497D01*
X156618825Y-110305661D01*
X156687740Y-110280702D01*
X156813507Y-110274111D01*
X156813508Y-110274111D01*
X156822090Y-110273661D01*
X156964995Y-110225568D01*
X156987856Y-110210032D01*
X157009150Y-110195560D01*
X157089702Y-110140817D01*
X157095245Y-110134258D01*
X157095247Y-110134256D01*
X157167993Y-110048172D01*
X157227239Y-110009052D01*
X157264231Y-110003500D01*
X163157458Y-110003500D01*
X163182038Y-110005921D01*
X163182827Y-110006078D01*
X163182829Y-110006078D01*
X163195000Y-110008499D01*
X163220130Y-110003500D01*
X163220137Y-110003500D01*
X163220144Y-110003499D01*
X163220149Y-110003498D01*
X163290174Y-109989569D01*
X163290176Y-109989568D01*
X163302343Y-109987148D01*
X163393343Y-109926343D01*
X163400689Y-109915349D01*
X163416359Y-109896256D01*
X165289541Y-108023075D01*
X165351853Y-107989049D01*
X165406123Y-107989205D01*
X165426132Y-107993678D01*
X165426134Y-107993678D01*
X165434517Y-107995552D01*
X165528950Y-107990603D01*
X165576507Y-107988111D01*
X165576508Y-107988111D01*
X165585090Y-107987661D01*
X165727995Y-107939568D01*
X165852702Y-107854817D01*
X165858245Y-107848258D01*
X165858247Y-107848256D01*
X165938060Y-107753809D01*
X165950024Y-107739652D01*
X165960296Y-107717217D01*
X166009216Y-107610366D01*
X166009216Y-107610364D01*
X166012791Y-107602557D01*
X166036378Y-107453634D01*
X166036500Y-107442000D01*
X166016037Y-107292615D01*
X165995782Y-107245809D01*
X165959567Y-107162120D01*
X165959566Y-107162118D01*
X165956155Y-107154236D01*
X165861266Y-107037058D01*
X165854264Y-107032082D01*
X165854262Y-107032080D01*
X165745363Y-106954690D01*
X165738361Y-106949714D01*
X165596495Y-106898639D01*
X165587935Y-106898010D01*
X165587933Y-106898010D01*
X165509122Y-106892223D01*
X165446120Y-106887596D01*
X165298315Y-106917399D01*
X165163969Y-106985852D01*
X165157647Y-106991665D01*
X165157646Y-106991666D01*
X165101020Y-107043736D01*
X165052980Y-107087911D01*
X165048452Y-107095214D01*
X165048451Y-107095215D01*
X164978051Y-107208758D01*
X164973525Y-107216058D01*
X164971129Y-107224305D01*
X164967141Y-107238032D01*
X164931459Y-107360851D01*
X164929880Y-107511623D01*
X164932103Y-107519920D01*
X164933180Y-107528445D01*
X164930108Y-107528833D01*
X164928784Y-107584781D01*
X164897857Y-107635527D01*
X163117790Y-109415595D01*
X163055478Y-109449620D01*
X163028695Y-109452500D01*
X157263184Y-109452500D01*
X157195063Y-109432498D01*
X157165268Y-109405799D01*
X157098266Y-109323058D01*
X157091264Y-109318082D01*
X157091262Y-109318080D01*
X156982363Y-109240690D01*
X156975361Y-109235714D01*
X156833495Y-109184639D01*
X156824935Y-109184010D01*
X156824933Y-109184010D01*
X156746122Y-109178223D01*
X156683120Y-109173596D01*
X156535315Y-109203399D01*
X156400969Y-109271852D01*
X156394647Y-109277665D01*
X156394646Y-109277666D01*
X156332734Y-109334597D01*
X156289980Y-109373911D01*
X156285452Y-109381214D01*
X156285451Y-109381215D01*
X156246690Y-109443730D01*
X156210525Y-109502058D01*
X156168459Y-109646851D01*
X156168369Y-109655437D01*
X156168369Y-109655438D01*
X156167328Y-109754849D01*
X156146614Y-109822757D01*
X156092474Y-109868685D01*
X156022098Y-109878053D01*
X155957830Y-109847885D01*
X155952240Y-109842625D01*
X154721494Y-108611879D01*
X154687468Y-108549567D01*
X154684589Y-108522784D01*
X154684589Y-107417467D01*
X154704591Y-107349346D01*
X154758247Y-107302853D01*
X154828521Y-107292749D01*
X154870130Y-107306423D01*
X154879446Y-107311418D01*
X154889968Y-107317060D01*
X154905765Y-107320591D01*
X155028731Y-107348078D01*
X155028735Y-107348078D01*
X155037117Y-107349952D01*
X155131550Y-107345003D01*
X155179107Y-107342511D01*
X155179108Y-107342511D01*
X155187690Y-107342061D01*
X155330595Y-107293968D01*
X155455302Y-107209217D01*
X155460845Y-107202658D01*
X155460847Y-107202656D01*
X155547081Y-107100611D01*
X155552624Y-107094052D01*
X155558099Y-107082093D01*
X155611816Y-106964766D01*
X155611816Y-106964764D01*
X155615391Y-106956957D01*
X155638978Y-106808034D01*
X155639100Y-106796400D01*
X155618637Y-106647015D01*
X155558755Y-106508636D01*
X155463866Y-106391458D01*
X155456864Y-106386482D01*
X155456862Y-106386480D01*
X155347963Y-106309090D01*
X155340961Y-106304114D01*
X155199095Y-106253039D01*
X155190535Y-106252410D01*
X155190533Y-106252410D01*
X155111722Y-106246623D01*
X155048720Y-106241996D01*
X154900915Y-106271799D01*
X154893261Y-106275699D01*
X154867792Y-106288676D01*
X154798015Y-106301780D01*
X154732230Y-106275080D01*
X154691324Y-106217052D01*
X154684589Y-106176409D01*
X154684589Y-105088023D01*
X155294480Y-105088023D01*
X155333505Y-105233665D01*
X155410258Y-105363448D01*
X155519085Y-105467809D01*
X155651968Y-105539060D01*
X155688196Y-105547158D01*
X155790731Y-105570078D01*
X155790735Y-105570078D01*
X155799117Y-105571952D01*
X155893550Y-105567003D01*
X155941107Y-105564511D01*
X155941108Y-105564511D01*
X155949690Y-105564061D01*
X156092595Y-105515968D01*
X156217302Y-105431217D01*
X156222845Y-105424658D01*
X156222847Y-105424656D01*
X156309081Y-105322611D01*
X156314624Y-105316052D01*
X156339386Y-105261968D01*
X156373816Y-105186766D01*
X156373816Y-105186764D01*
X156377391Y-105178957D01*
X156400978Y-105030034D01*
X156401100Y-105018400D01*
X156380637Y-104869015D01*
X156375665Y-104857525D01*
X156324167Y-104738520D01*
X156324166Y-104738518D01*
X156320755Y-104730636D01*
X156241144Y-104632325D01*
X156231274Y-104620136D01*
X156231273Y-104620135D01*
X156225866Y-104613458D01*
X156218864Y-104608482D01*
X156218862Y-104608480D01*
X156109963Y-104531090D01*
X156102961Y-104526114D01*
X155961095Y-104475039D01*
X155952535Y-104474410D01*
X155952533Y-104474410D01*
X155873722Y-104468623D01*
X155810720Y-104463996D01*
X155662915Y-104493799D01*
X155528569Y-104562252D01*
X155522247Y-104568065D01*
X155522246Y-104568066D01*
X155471189Y-104615015D01*
X155417580Y-104664311D01*
X155413052Y-104671614D01*
X155413051Y-104671615D01*
X155342651Y-104785158D01*
X155338125Y-104792458D01*
X155296059Y-104937251D01*
X155294480Y-105088023D01*
X154684589Y-105088023D01*
X154684589Y-96081623D01*
X157817880Y-96081623D01*
X157856905Y-96227265D01*
X157933658Y-96357048D01*
X157988071Y-96409228D01*
X158036286Y-96455465D01*
X158036289Y-96455467D01*
X158042485Y-96461409D01*
X158043686Y-96462053D01*
X158084915Y-96515519D01*
X158093500Y-96561233D01*
X158093500Y-99653536D01*
X158073498Y-99721657D01*
X158050618Y-99745383D01*
X158051969Y-99746852D01*
X157940980Y-99848911D01*
X157936452Y-99856214D01*
X157936451Y-99856215D01*
X157894968Y-99923120D01*
X157861525Y-99977058D01*
X157819459Y-100121851D01*
X157817880Y-100272623D01*
X157856905Y-100418265D01*
X157933658Y-100548048D01*
X158042485Y-100652409D01*
X158175368Y-100723660D01*
X158217874Y-100733161D01*
X158314131Y-100754678D01*
X158314135Y-100754678D01*
X158322517Y-100756552D01*
X158416950Y-100751603D01*
X158464507Y-100749111D01*
X158464508Y-100749111D01*
X158473090Y-100748661D01*
X158615995Y-100700568D01*
X158740702Y-100615817D01*
X158746245Y-100609258D01*
X158746247Y-100609256D01*
X158832481Y-100507211D01*
X158838024Y-100500652D01*
X158900791Y-100363557D01*
X158924378Y-100214634D01*
X158924500Y-100203000D01*
X158904037Y-100053615D01*
X158888369Y-100017409D01*
X158847567Y-99923120D01*
X158847566Y-99923118D01*
X158844155Y-99915236D01*
X158749266Y-99798058D01*
X158742264Y-99793082D01*
X158742262Y-99793080D01*
X158697511Y-99761278D01*
X158653570Y-99705513D01*
X158644500Y-99658572D01*
X158644500Y-96556910D01*
X158664502Y-96488789D01*
X158699677Y-96452698D01*
X158733597Y-96429646D01*
X158733599Y-96429644D01*
X158740702Y-96424817D01*
X158746245Y-96418258D01*
X158746247Y-96418256D01*
X158832481Y-96316211D01*
X158838024Y-96309652D01*
X158895422Y-96184284D01*
X158897216Y-96180366D01*
X158897216Y-96180364D01*
X158900791Y-96172557D01*
X158924378Y-96023634D01*
X158924500Y-96012000D01*
X158904037Y-95862615D01*
X158898166Y-95849048D01*
X158847567Y-95732120D01*
X158847566Y-95732118D01*
X158844155Y-95724236D01*
X158749266Y-95607058D01*
X158742264Y-95602082D01*
X158742262Y-95602080D01*
X158633363Y-95524690D01*
X158626361Y-95519714D01*
X158484495Y-95468639D01*
X158475935Y-95468010D01*
X158475933Y-95468010D01*
X158397122Y-95462223D01*
X158334120Y-95457596D01*
X158186315Y-95487399D01*
X158051969Y-95555852D01*
X158045647Y-95561665D01*
X158045646Y-95561666D01*
X157989020Y-95613736D01*
X157940980Y-95657911D01*
X157936452Y-95665214D01*
X157936451Y-95665215D01*
X157866051Y-95778758D01*
X157861525Y-95786058D01*
X157819459Y-95930851D01*
X157817880Y-96081623D01*
X154684589Y-96081623D01*
X154684589Y-89549635D01*
X154687010Y-89525055D01*
X154687168Y-89524261D01*
X154689589Y-89512089D01*
X154668238Y-89404747D01*
X154621672Y-89335056D01*
X154621669Y-89335052D01*
X154614326Y-89324063D01*
X154614325Y-89324062D01*
X154607432Y-89313746D01*
X154596441Y-89306402D01*
X154577348Y-89290732D01*
X149969205Y-84682590D01*
X149935179Y-84620278D01*
X149932300Y-84593495D01*
X149932300Y-82583423D01*
X164224680Y-82583423D01*
X164263705Y-82729065D01*
X164340458Y-82858848D01*
X164449285Y-82963209D01*
X164582168Y-83034460D01*
X164624674Y-83043961D01*
X164720931Y-83065478D01*
X164720935Y-83065478D01*
X164729317Y-83067352D01*
X164823750Y-83062403D01*
X164871307Y-83059911D01*
X164871308Y-83059911D01*
X164879890Y-83059461D01*
X165022795Y-83011368D01*
X165147502Y-82926617D01*
X165153045Y-82920058D01*
X165153047Y-82920056D01*
X165239281Y-82818011D01*
X165244824Y-82811452D01*
X165307591Y-82674357D01*
X165331178Y-82525434D01*
X165331300Y-82513800D01*
X165310837Y-82364415D01*
X165250955Y-82226036D01*
X165189689Y-82150379D01*
X165161474Y-82115536D01*
X165161473Y-82115535D01*
X165156066Y-82108858D01*
X165129711Y-82090129D01*
X165085771Y-82034365D01*
X165076700Y-81987423D01*
X165076700Y-76937310D01*
X165096702Y-76869189D01*
X165131877Y-76833098D01*
X165165797Y-76810046D01*
X165165799Y-76810044D01*
X165172902Y-76805217D01*
X165178445Y-76798658D01*
X165178447Y-76798656D01*
X165264681Y-76696611D01*
X165270224Y-76690052D01*
X165332991Y-76552957D01*
X165356578Y-76404034D01*
X165356700Y-76392400D01*
X165336237Y-76243015D01*
X165329529Y-76227513D01*
X165279767Y-76112520D01*
X165279766Y-76112518D01*
X165276355Y-76104636D01*
X165181466Y-75987458D01*
X165174464Y-75982482D01*
X165174462Y-75982480D01*
X165065563Y-75905090D01*
X165058561Y-75900114D01*
X164916695Y-75849039D01*
X164908135Y-75848410D01*
X164908133Y-75848410D01*
X164829322Y-75842623D01*
X164766320Y-75837996D01*
X164618515Y-75867799D01*
X164484169Y-75936252D01*
X164477847Y-75942065D01*
X164477846Y-75942066D01*
X164421220Y-75994136D01*
X164373180Y-76038311D01*
X164368652Y-76045614D01*
X164368651Y-76045615D01*
X164327168Y-76112520D01*
X164293725Y-76166458D01*
X164251659Y-76311251D01*
X164250080Y-76462023D01*
X164289105Y-76607665D01*
X164365858Y-76737448D01*
X164420272Y-76789629D01*
X164468486Y-76835865D01*
X164468489Y-76835867D01*
X164474685Y-76841809D01*
X164475886Y-76842453D01*
X164517115Y-76895919D01*
X164525700Y-76941633D01*
X164525700Y-81946682D01*
X164505698Y-82014803D01*
X164471612Y-82050145D01*
X164466420Y-82053754D01*
X164458769Y-82057652D01*
X164452447Y-82063465D01*
X164452446Y-82063466D01*
X164357920Y-82150387D01*
X164347780Y-82159711D01*
X164343252Y-82167014D01*
X164343251Y-82167015D01*
X164301768Y-82233920D01*
X164268325Y-82287858D01*
X164226259Y-82432651D01*
X164224680Y-82583423D01*
X149932300Y-82583423D01*
X149932300Y-78500910D01*
X149952302Y-78432789D01*
X149987477Y-78396698D01*
X150021397Y-78373646D01*
X150021399Y-78373644D01*
X150028502Y-78368817D01*
X150034045Y-78362258D01*
X150034047Y-78362256D01*
X150120281Y-78260211D01*
X150125824Y-78253652D01*
X150167341Y-78162971D01*
X150185016Y-78124366D01*
X150185016Y-78124364D01*
X150188591Y-78116557D01*
X150212178Y-77967634D01*
X150212300Y-77956000D01*
X150191837Y-77806615D01*
X150131955Y-77668236D01*
X150037066Y-77551058D01*
X150030064Y-77546082D01*
X150030062Y-77546080D01*
X149921163Y-77468690D01*
X149914161Y-77463714D01*
X149772295Y-77412639D01*
X149763735Y-77412010D01*
X149763733Y-77412010D01*
X149684922Y-77406223D01*
X149621920Y-77401596D01*
X149474115Y-77431399D01*
X149339769Y-77499852D01*
X149333447Y-77505665D01*
X149333446Y-77505666D01*
X149276820Y-77557736D01*
X149228780Y-77601911D01*
X149224252Y-77609214D01*
X149224251Y-77609215D01*
X149182768Y-77676120D01*
X149149325Y-77730058D01*
X149107259Y-77874851D01*
X149105680Y-78025623D01*
X149144705Y-78171265D01*
X149221458Y-78301048D01*
X149275871Y-78353228D01*
X149324086Y-78399465D01*
X149324089Y-78399467D01*
X149330285Y-78405409D01*
X149331486Y-78406053D01*
X149372715Y-78459519D01*
X149381300Y-78505233D01*
X149381300Y-84722258D01*
X149378879Y-84746838D01*
X149376301Y-84759800D01*
X149381300Y-84784932D01*
X149381300Y-84784937D01*
X149397652Y-84867143D01*
X149458457Y-84958143D01*
X149468773Y-84965036D01*
X149469451Y-84965489D01*
X149488544Y-84981159D01*
X154096684Y-89589300D01*
X154130710Y-89651612D01*
X154133589Y-89678395D01*
X154133589Y-108651547D01*
X154131168Y-108676127D01*
X154128590Y-108689089D01*
X154131011Y-108701259D01*
X154133588Y-108714214D01*
X154133591Y-108714238D01*
X154142141Y-108757217D01*
X154149941Y-108796432D01*
X154210746Y-108887432D01*
X154221062Y-108894325D01*
X154221740Y-108894778D01*
X154240833Y-108910448D01*
X154928011Y-109597626D01*
X154962037Y-109659938D01*
X154956972Y-109730753D01*
X154914425Y-109787589D01*
X154847905Y-109812400D01*
X154829688Y-109812383D01*
X154778120Y-109808596D01*
X154630315Y-109838399D01*
X154495969Y-109906852D01*
X154489647Y-109912665D01*
X154489646Y-109912666D01*
X154434146Y-109963701D01*
X154384980Y-110008911D01*
X154380452Y-110016214D01*
X154380451Y-110016215D01*
X154310051Y-110129758D01*
X154305525Y-110137058D01*
X154263459Y-110281851D01*
X154263369Y-110290437D01*
X154263369Y-110290438D01*
X154262790Y-110345718D01*
X154242076Y-110413625D01*
X154225892Y-110433493D01*
X153501744Y-111157641D01*
X153482651Y-111173311D01*
X153471657Y-111180657D01*
X153410852Y-111271657D01*
X153408432Y-111283824D01*
X153408431Y-111283826D01*
X153396216Y-111345236D01*
X153394500Y-111353863D01*
X153394500Y-111353868D01*
X153389501Y-111379000D01*
X153391922Y-111391171D01*
X153391922Y-111391173D01*
X153392079Y-111391962D01*
X153394500Y-111416542D01*
X153394500Y-112298687D01*
X153374498Y-112366808D01*
X153357596Y-112387782D01*
X152638964Y-113106415D01*
X152519784Y-113225595D01*
X152457471Y-113259620D01*
X152430688Y-113262500D01*
X146711009Y-113262500D01*
X146642888Y-113242498D01*
X146596395Y-113188842D01*
X146586291Y-113118568D01*
X146602786Y-113073957D01*
X146603043Y-113073652D01*
X146665810Y-112936557D01*
X146689397Y-112787634D01*
X146689519Y-112776000D01*
X146669056Y-112626615D01*
X146643497Y-112567552D01*
X146612586Y-112496120D01*
X146612585Y-112496118D01*
X146609174Y-112488236D01*
X146603767Y-112481559D01*
X146603291Y-112480773D01*
X146585111Y-112412143D01*
X146606920Y-112344580D01*
X146661796Y-112299533D01*
X146711066Y-112289500D01*
X148422658Y-112289500D01*
X148490779Y-112309502D01*
X148525358Y-112345390D01*
X148525949Y-112344922D01*
X148530781Y-112351019D01*
X148531112Y-112351362D01*
X148531284Y-112351654D01*
X148531289Y-112351660D01*
X148535658Y-112359048D01*
X148644485Y-112463409D01*
X148777368Y-112534660D01*
X148819874Y-112544161D01*
X148916131Y-112565678D01*
X148916135Y-112565678D01*
X148924517Y-112567552D01*
X149018950Y-112562603D01*
X149066507Y-112560111D01*
X149066508Y-112560111D01*
X149075090Y-112559661D01*
X149217995Y-112511568D01*
X149342702Y-112426817D01*
X149348245Y-112420258D01*
X149348247Y-112420256D01*
X149434481Y-112318211D01*
X149440024Y-112311652D01*
X149502791Y-112174557D01*
X149504895Y-112175520D01*
X149537024Y-112126363D01*
X149601830Y-112097368D01*
X149672024Y-112108013D01*
X149706009Y-112131277D01*
X149787485Y-112209409D01*
X149920368Y-112280660D01*
X149959916Y-112289500D01*
X150059131Y-112311678D01*
X150059135Y-112311678D01*
X150067517Y-112313552D01*
X150161950Y-112308603D01*
X150209507Y-112306111D01*
X150209508Y-112306111D01*
X150218090Y-112305661D01*
X150360995Y-112257568D01*
X150485702Y-112172817D01*
X150491245Y-112166258D01*
X150491247Y-112166256D01*
X150577481Y-112064211D01*
X150583024Y-112057652D01*
X150586599Y-112049844D01*
X150642216Y-111928366D01*
X150642216Y-111928364D01*
X150645791Y-111920557D01*
X150669378Y-111771634D01*
X150669500Y-111760000D01*
X150649037Y-111610615D01*
X150639965Y-111589651D01*
X150592567Y-111480120D01*
X150592566Y-111480118D01*
X150589155Y-111472236D01*
X150494266Y-111355058D01*
X150487264Y-111350082D01*
X150487262Y-111350080D01*
X150378363Y-111272690D01*
X150371361Y-111267714D01*
X150229495Y-111216639D01*
X150220935Y-111216010D01*
X150220933Y-111216010D01*
X150142122Y-111210223D01*
X150079120Y-111205596D01*
X150047012Y-111212070D01*
X150037237Y-111214041D01*
X149966506Y-111207898D01*
X149923237Y-111179622D01*
X149791405Y-111047790D01*
X149757379Y-110985478D01*
X149754500Y-110958695D01*
X149754500Y-109670623D01*
X153118880Y-109670623D01*
X153157905Y-109816265D01*
X153234658Y-109946048D01*
X153343485Y-110050409D01*
X153476368Y-110121660D01*
X153512596Y-110129758D01*
X153615131Y-110152678D01*
X153615135Y-110152678D01*
X153623517Y-110154552D01*
X153717950Y-110149603D01*
X153765507Y-110147111D01*
X153765508Y-110147111D01*
X153774090Y-110146661D01*
X153916995Y-110098568D01*
X154041702Y-110013817D01*
X154047245Y-110007258D01*
X154047247Y-110007256D01*
X154133481Y-109905211D01*
X154139024Y-109898652D01*
X154164779Y-109842399D01*
X154198216Y-109769366D01*
X154198216Y-109769364D01*
X154201791Y-109761557D01*
X154225378Y-109612634D01*
X154225500Y-109601000D01*
X154205037Y-109451615D01*
X154189450Y-109415595D01*
X154148567Y-109321120D01*
X154148566Y-109321118D01*
X154145155Y-109313236D01*
X154050266Y-109196058D01*
X154043264Y-109191082D01*
X154043262Y-109191080D01*
X153934363Y-109113690D01*
X153927361Y-109108714D01*
X153785495Y-109057639D01*
X153776935Y-109057010D01*
X153776933Y-109057010D01*
X153698122Y-109051223D01*
X153635120Y-109046596D01*
X153487315Y-109076399D01*
X153352969Y-109144852D01*
X153346647Y-109150665D01*
X153346646Y-109150666D01*
X153291146Y-109201701D01*
X153241980Y-109246911D01*
X153237452Y-109254214D01*
X153237451Y-109254215D01*
X153190628Y-109329732D01*
X153162525Y-109375058D01*
X153120459Y-109519851D01*
X153118880Y-109670623D01*
X149754500Y-109670623D01*
X149754500Y-107374023D01*
X152246480Y-107374023D01*
X152285505Y-107519665D01*
X152362258Y-107649448D01*
X152471085Y-107753809D01*
X152603968Y-107825060D01*
X152646474Y-107834561D01*
X152742731Y-107856078D01*
X152742735Y-107856078D01*
X152751117Y-107857952D01*
X152845550Y-107853003D01*
X152893107Y-107850511D01*
X152893108Y-107850511D01*
X152901690Y-107850061D01*
X153044595Y-107801968D01*
X153169302Y-107717217D01*
X153174845Y-107710658D01*
X153174847Y-107710656D01*
X153261081Y-107608611D01*
X153266624Y-107602052D01*
X153270276Y-107594075D01*
X153325816Y-107472766D01*
X153325816Y-107472764D01*
X153329391Y-107464957D01*
X153352978Y-107316034D01*
X153353100Y-107304400D01*
X153332637Y-107155015D01*
X153329225Y-107147130D01*
X153276167Y-107024520D01*
X153276166Y-107024518D01*
X153272755Y-107016636D01*
X153195553Y-106921299D01*
X153183274Y-106906136D01*
X153183273Y-106906135D01*
X153177866Y-106899458D01*
X153170864Y-106894482D01*
X153170862Y-106894480D01*
X153061963Y-106817090D01*
X153054961Y-106812114D01*
X152913095Y-106761039D01*
X152904535Y-106760410D01*
X152904533Y-106760410D01*
X152825722Y-106754623D01*
X152762720Y-106749996D01*
X152614915Y-106779799D01*
X152480569Y-106848252D01*
X152474247Y-106854065D01*
X152474246Y-106854066D01*
X152375907Y-106944493D01*
X152369580Y-106950311D01*
X152365052Y-106957614D01*
X152365051Y-106957615D01*
X152294651Y-107071158D01*
X152290125Y-107078458D01*
X152248059Y-107223251D01*
X152246480Y-107374023D01*
X149754500Y-107374023D01*
X149754500Y-105850023D01*
X152754480Y-105850023D01*
X152793505Y-105995665D01*
X152870258Y-106125448D01*
X152979085Y-106229809D01*
X153111968Y-106301060D01*
X153125631Y-106304114D01*
X153250731Y-106332078D01*
X153250735Y-106332078D01*
X153259117Y-106333952D01*
X153353550Y-106329003D01*
X153401107Y-106326511D01*
X153401108Y-106326511D01*
X153409690Y-106326061D01*
X153552595Y-106277968D01*
X153561673Y-106271799D01*
X153590202Y-106252410D01*
X153677302Y-106193217D01*
X153682845Y-106186658D01*
X153682847Y-106186656D01*
X153769081Y-106084611D01*
X153774624Y-106078052D01*
X153837391Y-105940957D01*
X153860978Y-105792034D01*
X153861100Y-105780400D01*
X153840637Y-105631015D01*
X153815078Y-105571952D01*
X153784167Y-105500520D01*
X153784166Y-105500518D01*
X153780755Y-105492636D01*
X153685866Y-105375458D01*
X153678864Y-105370482D01*
X153678862Y-105370480D01*
X153569963Y-105293090D01*
X153562961Y-105288114D01*
X153421095Y-105237039D01*
X153412535Y-105236410D01*
X153412533Y-105236410D01*
X153333722Y-105230623D01*
X153270720Y-105225996D01*
X153122915Y-105255799D01*
X152988569Y-105324252D01*
X152982247Y-105330065D01*
X152982246Y-105330066D01*
X152925620Y-105382136D01*
X152877580Y-105426311D01*
X152873052Y-105433614D01*
X152873051Y-105433615D01*
X152802651Y-105547158D01*
X152798125Y-105554458D01*
X152756059Y-105699251D01*
X152754480Y-105850023D01*
X149754500Y-105850023D01*
X149754500Y-104834023D01*
X150214480Y-104834023D01*
X150253505Y-104979665D01*
X150330258Y-105109448D01*
X150439085Y-105213809D01*
X150571968Y-105285060D01*
X150585631Y-105288114D01*
X150710731Y-105316078D01*
X150710735Y-105316078D01*
X150719117Y-105317952D01*
X150813550Y-105313003D01*
X150861107Y-105310511D01*
X150861108Y-105310511D01*
X150869690Y-105310061D01*
X151012595Y-105261968D01*
X151021673Y-105255799D01*
X151054241Y-105233665D01*
X151137302Y-105177217D01*
X151142845Y-105170658D01*
X151142847Y-105170656D01*
X151212677Y-105088023D01*
X151234624Y-105062052D01*
X151249283Y-105030034D01*
X151293816Y-104932766D01*
X151293816Y-104932764D01*
X151297391Y-104924957D01*
X151320978Y-104776034D01*
X151321100Y-104764400D01*
X151300637Y-104615015D01*
X151294560Y-104600971D01*
X151244167Y-104484520D01*
X151244166Y-104484518D01*
X151240755Y-104476636D01*
X151145866Y-104359458D01*
X151138864Y-104354482D01*
X151138862Y-104354480D01*
X151029963Y-104277090D01*
X151022961Y-104272114D01*
X150881095Y-104221039D01*
X150872535Y-104220410D01*
X150872533Y-104220410D01*
X150793722Y-104214623D01*
X150730720Y-104209996D01*
X150582915Y-104239799D01*
X150448569Y-104308252D01*
X150442247Y-104314065D01*
X150442246Y-104314066D01*
X150385620Y-104366136D01*
X150337580Y-104410311D01*
X150333052Y-104417614D01*
X150333051Y-104417615D01*
X150262693Y-104531090D01*
X150258125Y-104538458D01*
X150216059Y-104683251D01*
X150214480Y-104834023D01*
X149754500Y-104834023D01*
X149754500Y-100366910D01*
X149774502Y-100298789D01*
X149809677Y-100262698D01*
X149843597Y-100239646D01*
X149843599Y-100239644D01*
X149850702Y-100234817D01*
X149856245Y-100228258D01*
X149856247Y-100228256D01*
X149942481Y-100126211D01*
X149948024Y-100119652D01*
X149994835Y-100017409D01*
X150007216Y-99990366D01*
X150007216Y-99990364D01*
X150010791Y-99982557D01*
X150034378Y-99833634D01*
X150034500Y-99822000D01*
X150014037Y-99672615D01*
X150005781Y-99653536D01*
X149957567Y-99542120D01*
X149957566Y-99542118D01*
X149954155Y-99534236D01*
X149900446Y-99467911D01*
X149864674Y-99423736D01*
X149864673Y-99423735D01*
X149859266Y-99417058D01*
X149852264Y-99412082D01*
X149852262Y-99412080D01*
X149743363Y-99334690D01*
X149736361Y-99329714D01*
X149594495Y-99278639D01*
X149585935Y-99278010D01*
X149585933Y-99278010D01*
X149503954Y-99271990D01*
X149444120Y-99267596D01*
X149435704Y-99269293D01*
X149435703Y-99269293D01*
X149423155Y-99271823D01*
X149391868Y-99278132D01*
X149321139Y-99271990D01*
X149264958Y-99228583D01*
X149241163Y-99161692D01*
X149257309Y-99092556D01*
X149277869Y-99065523D01*
X150750987Y-97592405D01*
X150813299Y-97558379D01*
X150840082Y-97555500D01*
X152860831Y-97555500D01*
X152928952Y-97575502D01*
X152948040Y-97590557D01*
X152956287Y-97598466D01*
X152956290Y-97598468D01*
X152962485Y-97604409D01*
X153095368Y-97675660D01*
X153137874Y-97685161D01*
X153234131Y-97706678D01*
X153234135Y-97706678D01*
X153242517Y-97708552D01*
X153336950Y-97703603D01*
X153384507Y-97701111D01*
X153384508Y-97701111D01*
X153393090Y-97700661D01*
X153535995Y-97652568D01*
X153660702Y-97567817D01*
X153666245Y-97561258D01*
X153666247Y-97561256D01*
X153752481Y-97459211D01*
X153758024Y-97452652D01*
X153820791Y-97315557D01*
X153844378Y-97166634D01*
X153844500Y-97155000D01*
X153824037Y-97005615D01*
X153764155Y-96867236D01*
X153678580Y-96761560D01*
X153674674Y-96756736D01*
X153674673Y-96756735D01*
X153669266Y-96750058D01*
X153662264Y-96745082D01*
X153662262Y-96745080D01*
X153553363Y-96667690D01*
X153546361Y-96662714D01*
X153404495Y-96611639D01*
X153395935Y-96611010D01*
X153395933Y-96611010D01*
X153317122Y-96605223D01*
X153254120Y-96600596D01*
X153106315Y-96630399D01*
X152971969Y-96698852D01*
X152965647Y-96704665D01*
X152965646Y-96704666D01*
X152947612Y-96721249D01*
X152883930Y-96752634D01*
X152862327Y-96754500D01*
X150685479Y-96754500D01*
X150685449Y-96754498D01*
X150685434Y-96754493D01*
X150558566Y-96754493D01*
X150549136Y-96757557D01*
X150549135Y-96757557D01*
X150537643Y-96761291D01*
X150518429Y-96765904D01*
X150496694Y-96769347D01*
X150487861Y-96773848D01*
X150487860Y-96773848D01*
X150477093Y-96779334D01*
X150458832Y-96786898D01*
X150437907Y-96793697D01*
X150420104Y-96806632D01*
X150403251Y-96816958D01*
X150383653Y-96826944D01*
X150293944Y-96916653D01*
X150293937Y-96916668D01*
X150293916Y-96916692D01*
X143254013Y-103956595D01*
X143191701Y-103990621D01*
X143164918Y-103993500D01*
X142666728Y-103993500D01*
X142593739Y-103970206D01*
X142504363Y-103906690D01*
X142497361Y-103901714D01*
X142355495Y-103850639D01*
X142346935Y-103850010D01*
X142346933Y-103850010D01*
X142268122Y-103844223D01*
X142205120Y-103839596D01*
X142057315Y-103869399D01*
X141922969Y-103937852D01*
X141916647Y-103943665D01*
X141916646Y-103943666D01*
X141865583Y-103990621D01*
X141811980Y-104039911D01*
X141732525Y-104168058D01*
X141690459Y-104312851D01*
X141688880Y-104463623D01*
X141727905Y-104609265D01*
X141804658Y-104739048D01*
X141913485Y-104843409D01*
X142046368Y-104914660D01*
X142088874Y-104924161D01*
X142185131Y-104945678D01*
X142185135Y-104945678D01*
X142193517Y-104947552D01*
X142287950Y-104942603D01*
X142335507Y-104940111D01*
X142335508Y-104940111D01*
X142344090Y-104939661D01*
X142486995Y-104891568D01*
X142527846Y-104863806D01*
X142597766Y-104816288D01*
X142668589Y-104794500D01*
X143319521Y-104794500D01*
X143319551Y-104794502D01*
X143319566Y-104794507D01*
X143446434Y-104794507D01*
X143467359Y-104787709D01*
X143486571Y-104783096D01*
X143508306Y-104779653D01*
X143524468Y-104771418D01*
X143527907Y-104769666D01*
X143546168Y-104762102D01*
X143567093Y-104755303D01*
X143584896Y-104742368D01*
X143601748Y-104732042D01*
X143612507Y-104726560D01*
X143621347Y-104722056D01*
X143711056Y-104632347D01*
X143711063Y-104632332D01*
X143711084Y-104632308D01*
X148718081Y-99625311D01*
X148780393Y-99591285D01*
X148851208Y-99596350D01*
X148908044Y-99638897D01*
X148932855Y-99705417D01*
X148931829Y-99732692D01*
X148929459Y-99740851D01*
X148927880Y-99891623D01*
X148966905Y-100037265D01*
X149043658Y-100167048D01*
X149076377Y-100198424D01*
X149146286Y-100265465D01*
X149146289Y-100265467D01*
X149152485Y-100271409D01*
X149153686Y-100272053D01*
X149194915Y-100325519D01*
X149203500Y-100371233D01*
X149203500Y-111087458D01*
X149201079Y-111112038D01*
X149198501Y-111125000D01*
X149202617Y-111145690D01*
X149203499Y-111150125D01*
X149203502Y-111150149D01*
X149217307Y-111219548D01*
X149219852Y-111232343D01*
X149226744Y-111242657D01*
X149226745Y-111242660D01*
X149259155Y-111291164D01*
X149280370Y-111358917D01*
X149261587Y-111427384D01*
X149208770Y-111474827D01*
X149138687Y-111486184D01*
X149111707Y-111479716D01*
X149094575Y-111473548D01*
X149086495Y-111470639D01*
X149077935Y-111470010D01*
X149077933Y-111470010D01*
X148999122Y-111464223D01*
X148936120Y-111459596D01*
X148788315Y-111489399D01*
X148653969Y-111557852D01*
X148647647Y-111563665D01*
X148647646Y-111563666D01*
X148596589Y-111610615D01*
X148542980Y-111659911D01*
X148536945Y-111669645D01*
X148531208Y-111678897D01*
X148478311Y-111726252D01*
X148424122Y-111738500D01*
X133897306Y-111738500D01*
X133829185Y-111718498D01*
X133808211Y-111701595D01*
X130396359Y-108289744D01*
X130380689Y-108270651D01*
X130380236Y-108269973D01*
X130373343Y-108259657D01*
X130282343Y-108198852D01*
X130270176Y-108196432D01*
X130270174Y-108196431D01*
X130200149Y-108182502D01*
X130200144Y-108182501D01*
X130200137Y-108182500D01*
X130200130Y-108182500D01*
X130175000Y-108177501D01*
X130162829Y-108179922D01*
X130162827Y-108179922D01*
X130162038Y-108180079D01*
X130137458Y-108182500D01*
X117006306Y-108182500D01*
X116938185Y-108162498D01*
X116917211Y-108145595D01*
X111310405Y-102538790D01*
X111276379Y-102476478D01*
X111273500Y-102449695D01*
X111273500Y-96556910D01*
X111293502Y-96488789D01*
X111328677Y-96452698D01*
X111362597Y-96429646D01*
X111362599Y-96429644D01*
X111369702Y-96424817D01*
X111375245Y-96418258D01*
X111375247Y-96418256D01*
X111461481Y-96316211D01*
X111467024Y-96309652D01*
X111499936Y-96237766D01*
X111546480Y-96184154D01*
X111614620Y-96164217D01*
X111682722Y-96184284D01*
X111729163Y-96237984D01*
X111740500Y-96290217D01*
X111740500Y-99137111D01*
X111720498Y-99205232D01*
X111716561Y-99210618D01*
X111712980Y-99213911D01*
X111676969Y-99271990D01*
X111641179Y-99329714D01*
X111633525Y-99342058D01*
X111591459Y-99486851D01*
X111589880Y-99637623D01*
X111628905Y-99783265D01*
X111705658Y-99913048D01*
X111814485Y-100017409D01*
X111947368Y-100088660D01*
X111989874Y-100098161D01*
X112086131Y-100119678D01*
X112086135Y-100119678D01*
X112094517Y-100121552D01*
X112188950Y-100116603D01*
X112236507Y-100114111D01*
X112236508Y-100114111D01*
X112245090Y-100113661D01*
X112387995Y-100065568D01*
X112512702Y-99980817D01*
X112518245Y-99974258D01*
X112518247Y-99974256D01*
X112588077Y-99891623D01*
X112610024Y-99865652D01*
X112617689Y-99848911D01*
X112669216Y-99736366D01*
X112669216Y-99736364D01*
X112672791Y-99728557D01*
X112696378Y-99579634D01*
X112696500Y-99568000D01*
X112676037Y-99418615D01*
X112672625Y-99410730D01*
X112619567Y-99288120D01*
X112619566Y-99288118D01*
X112616155Y-99280236D01*
X112569579Y-99222720D01*
X112542254Y-99157194D01*
X112541500Y-99143427D01*
X112541500Y-94557623D01*
X112986880Y-94557623D01*
X113025905Y-94703265D01*
X113102658Y-94833048D01*
X113211485Y-94937409D01*
X113344368Y-95008660D01*
X113358031Y-95011714D01*
X113483131Y-95039678D01*
X113483135Y-95039678D01*
X113491517Y-95041552D01*
X113585950Y-95036603D01*
X113633507Y-95034111D01*
X113633508Y-95034111D01*
X113642090Y-95033661D01*
X113784995Y-94985568D01*
X113909702Y-94900817D01*
X113915245Y-94894258D01*
X113915247Y-94894256D01*
X113971905Y-94827210D01*
X114031151Y-94788090D01*
X114102143Y-94787212D01*
X114157238Y-94819443D01*
X114619517Y-95281722D01*
X114653543Y-95344034D01*
X114651420Y-95405965D01*
X114648911Y-95414601D01*
X114648910Y-95414607D01*
X114646515Y-95422851D01*
X114646425Y-95431439D01*
X114646133Y-95459294D01*
X114644936Y-95573623D01*
X114683961Y-95719265D01*
X114760714Y-95849048D01*
X114869541Y-95953409D01*
X114950359Y-95996743D01*
X114991902Y-96019018D01*
X115002424Y-96024660D01*
X115018221Y-96028191D01*
X115141187Y-96055678D01*
X115141191Y-96055678D01*
X115149573Y-96057552D01*
X115244006Y-96052603D01*
X115291563Y-96050111D01*
X115291564Y-96050111D01*
X115300146Y-96049661D01*
X115443051Y-96001568D01*
X115567758Y-95916817D01*
X115573301Y-95910258D01*
X115573303Y-95910256D01*
X115659537Y-95808211D01*
X115665080Y-95801652D01*
X115668655Y-95793844D01*
X115724272Y-95672366D01*
X115724272Y-95672364D01*
X115727847Y-95664557D01*
X115751434Y-95515634D01*
X115751556Y-95504000D01*
X115731093Y-95354615D01*
X115711283Y-95308837D01*
X115674623Y-95224120D01*
X115674622Y-95224118D01*
X115671211Y-95216236D01*
X115576322Y-95099058D01*
X115569320Y-95094082D01*
X115569318Y-95094080D01*
X115460419Y-95016690D01*
X115453417Y-95011714D01*
X115311551Y-94960639D01*
X115302991Y-94960010D01*
X115302989Y-94960010D01*
X115224178Y-94954223D01*
X115161176Y-94949596D01*
X115152755Y-94951294D01*
X115089870Y-94963973D01*
X115019140Y-94957830D01*
X114975871Y-94929554D01*
X114383739Y-94337422D01*
X114368069Y-94318329D01*
X114367617Y-94317653D01*
X114367616Y-94317652D01*
X114360722Y-94307334D01*
X114334267Y-94289657D01*
X114292961Y-94262058D01*
X114277832Y-94251949D01*
X114265665Y-94249529D01*
X114265663Y-94249528D01*
X114235509Y-94243530D01*
X114205193Y-94237500D01*
X114205192Y-94237500D01*
X114180056Y-94232500D01*
X114167885Y-94234921D01*
X114167091Y-94235079D01*
X114142509Y-94237500D01*
X114103429Y-94237500D01*
X114035308Y-94217498D01*
X114005509Y-94190794D01*
X113923674Y-94089736D01*
X113923673Y-94089735D01*
X113918266Y-94083058D01*
X113911264Y-94078082D01*
X113911262Y-94078080D01*
X113802363Y-94000690D01*
X113795361Y-93995714D01*
X113653495Y-93944639D01*
X113644935Y-93944010D01*
X113644933Y-93944010D01*
X113566122Y-93938223D01*
X113503120Y-93933596D01*
X113355315Y-93963399D01*
X113220969Y-94031852D01*
X113214647Y-94037665D01*
X113214646Y-94037666D01*
X113158020Y-94089736D01*
X113109980Y-94133911D01*
X113105452Y-94141214D01*
X113105451Y-94141215D01*
X113045751Y-94237501D01*
X113030525Y-94262058D01*
X112988459Y-94406851D01*
X112986880Y-94557623D01*
X112541500Y-94557623D01*
X112541500Y-92017623D01*
X113240880Y-92017623D01*
X113279905Y-92163265D01*
X113356658Y-92293048D01*
X113465485Y-92397409D01*
X113598368Y-92468660D01*
X113640874Y-92478161D01*
X113737131Y-92499678D01*
X113737135Y-92499678D01*
X113745517Y-92501552D01*
X113839950Y-92496603D01*
X113887507Y-92494111D01*
X113887508Y-92494111D01*
X113896090Y-92493661D01*
X114038995Y-92445568D01*
X114163702Y-92360817D01*
X114169245Y-92354258D01*
X114169247Y-92354256D01*
X114241993Y-92268172D01*
X114301239Y-92229052D01*
X114338231Y-92223500D01*
X115656658Y-92223500D01*
X115724779Y-92243502D01*
X115759358Y-92279390D01*
X115759949Y-92278922D01*
X115764781Y-92285019D01*
X115765112Y-92285362D01*
X115765284Y-92285654D01*
X115765286Y-92285656D01*
X115769658Y-92293048D01*
X115878485Y-92397409D01*
X116011368Y-92468660D01*
X116053874Y-92478161D01*
X116150131Y-92499678D01*
X116150135Y-92499678D01*
X116158517Y-92501552D01*
X116252950Y-92496603D01*
X116300507Y-92494111D01*
X116300508Y-92494111D01*
X116309090Y-92493661D01*
X116451995Y-92445568D01*
X116576702Y-92360817D01*
X116582245Y-92354258D01*
X116582247Y-92354256D01*
X116668481Y-92252211D01*
X116674024Y-92245652D01*
X116736791Y-92108557D01*
X116760378Y-91959634D01*
X116760500Y-91948000D01*
X116740037Y-91798615D01*
X116680155Y-91660236D01*
X116585266Y-91543058D01*
X116578264Y-91538082D01*
X116578262Y-91538080D01*
X116469363Y-91460690D01*
X116462361Y-91455714D01*
X116320495Y-91404639D01*
X116311935Y-91404010D01*
X116311933Y-91404010D01*
X116233122Y-91398223D01*
X116170120Y-91393596D01*
X116022315Y-91423399D01*
X115887969Y-91491852D01*
X115881647Y-91497665D01*
X115881646Y-91497666D01*
X115825020Y-91549736D01*
X115776980Y-91593911D01*
X115772451Y-91601216D01*
X115765208Y-91612897D01*
X115712311Y-91660252D01*
X115658122Y-91672500D01*
X114337184Y-91672500D01*
X114269063Y-91652498D01*
X114239268Y-91625799D01*
X114172266Y-91543058D01*
X114165264Y-91538082D01*
X114165262Y-91538080D01*
X114056363Y-91460690D01*
X114049361Y-91455714D01*
X113907495Y-91404639D01*
X113898935Y-91404010D01*
X113898933Y-91404010D01*
X113820122Y-91398223D01*
X113757120Y-91393596D01*
X113609315Y-91423399D01*
X113474969Y-91491852D01*
X113468647Y-91497665D01*
X113468646Y-91497666D01*
X113412020Y-91549736D01*
X113363980Y-91593911D01*
X113359452Y-91601214D01*
X113359451Y-91601215D01*
X113317968Y-91668120D01*
X113284525Y-91722058D01*
X113242459Y-91866851D01*
X113240880Y-92017623D01*
X112541500Y-92017623D01*
X112541500Y-80101082D01*
X112561502Y-80032961D01*
X112578405Y-80011987D01*
X116694921Y-75895472D01*
X116757233Y-75861446D01*
X116777421Y-75858740D01*
X116808507Y-75857111D01*
X116808508Y-75857111D01*
X116817090Y-75856661D01*
X116909317Y-75825623D01*
X146155680Y-75825623D01*
X146194705Y-75971265D01*
X146271458Y-76101048D01*
X146380285Y-76205409D01*
X146513168Y-76276660D01*
X146555674Y-76286161D01*
X146651931Y-76307678D01*
X146651935Y-76307678D01*
X146660317Y-76309552D01*
X146754750Y-76304603D01*
X146802307Y-76302111D01*
X146802308Y-76302111D01*
X146810890Y-76301661D01*
X146953795Y-76253568D01*
X146963316Y-76247098D01*
X147018687Y-76209467D01*
X147078502Y-76168817D01*
X147084045Y-76162258D01*
X147084047Y-76162256D01*
X147170281Y-76060211D01*
X147175824Y-76053652D01*
X147182848Y-76038311D01*
X147235016Y-75924366D01*
X147235016Y-75924364D01*
X147238591Y-75916557D01*
X147262178Y-75767634D01*
X147262300Y-75756000D01*
X147241837Y-75606615D01*
X147205549Y-75522758D01*
X147185367Y-75476120D01*
X147185366Y-75476118D01*
X147181955Y-75468236D01*
X147087066Y-75351058D01*
X147080064Y-75346082D01*
X147080062Y-75346080D01*
X146971163Y-75268690D01*
X146964161Y-75263714D01*
X146822295Y-75212639D01*
X146813735Y-75212010D01*
X146813733Y-75212010D01*
X146734922Y-75206223D01*
X146671920Y-75201596D01*
X146524115Y-75231399D01*
X146389769Y-75299852D01*
X146383447Y-75305665D01*
X146383446Y-75305666D01*
X146326820Y-75357736D01*
X146278780Y-75401911D01*
X146274252Y-75409214D01*
X146274251Y-75409215D01*
X146203851Y-75522758D01*
X146199325Y-75530058D01*
X146157259Y-75674851D01*
X146155680Y-75825623D01*
X116909317Y-75825623D01*
X116959995Y-75808568D01*
X117084702Y-75723817D01*
X117090245Y-75717258D01*
X117090247Y-75717256D01*
X117176481Y-75615211D01*
X117182024Y-75608652D01*
X117186567Y-75598730D01*
X117241216Y-75479366D01*
X117241216Y-75479364D01*
X117244791Y-75471557D01*
X117268378Y-75322634D01*
X117268500Y-75311000D01*
X117248037Y-75161615D01*
X117188155Y-75023236D01*
X117093266Y-74906058D01*
X117086264Y-74901082D01*
X117086262Y-74901080D01*
X116977363Y-74823690D01*
X116970361Y-74818714D01*
X116828495Y-74767639D01*
X116819935Y-74767010D01*
X116819933Y-74767010D01*
X116741122Y-74761223D01*
X116678120Y-74756596D01*
X116530315Y-74786399D01*
X116395969Y-74854852D01*
X116389647Y-74860665D01*
X116389646Y-74860666D01*
X116333020Y-74912736D01*
X116284980Y-74956911D01*
X116280452Y-74964214D01*
X116280451Y-74964215D01*
X116238968Y-75031120D01*
X116205525Y-75085058D01*
X116163459Y-75229851D01*
X116163369Y-75238437D01*
X116163369Y-75238438D01*
X116163317Y-75243413D01*
X116142603Y-75311321D01*
X116126419Y-75331189D01*
X111902692Y-79554916D01*
X111902668Y-79554937D01*
X111902653Y-79554944D01*
X111812944Y-79644653D01*
X111808440Y-79653493D01*
X111802958Y-79664252D01*
X111792632Y-79681104D01*
X111779697Y-79698907D01*
X111772898Y-79719832D01*
X111765334Y-79738093D01*
X111755347Y-79757694D01*
X111751904Y-79779429D01*
X111747291Y-79798641D01*
X111740493Y-79819566D01*
X111740493Y-79946434D01*
X111740498Y-79946449D01*
X111740500Y-79946479D01*
X111740500Y-95733603D01*
X111720498Y-95801724D01*
X111666842Y-95848217D01*
X111596568Y-95858321D01*
X111531988Y-95828827D01*
X111498863Y-95783643D01*
X111476568Y-95732122D01*
X111476567Y-95732120D01*
X111473155Y-95724236D01*
X111378266Y-95607058D01*
X111371264Y-95602082D01*
X111371262Y-95602080D01*
X111262363Y-95524690D01*
X111255361Y-95519714D01*
X111113495Y-95468639D01*
X111104935Y-95468010D01*
X111104933Y-95468010D01*
X111026122Y-95462223D01*
X110963120Y-95457596D01*
X110815315Y-95487399D01*
X110680969Y-95555852D01*
X110674647Y-95561665D01*
X110674646Y-95561666D01*
X110618020Y-95613736D01*
X110569980Y-95657911D01*
X110565452Y-95665214D01*
X110565451Y-95665215D01*
X110495051Y-95778758D01*
X110490525Y-95786058D01*
X110448459Y-95930851D01*
X110446880Y-96081623D01*
X110485905Y-96227265D01*
X110562658Y-96357048D01*
X110617071Y-96409228D01*
X110665286Y-96455465D01*
X110665289Y-96455467D01*
X110671485Y-96461409D01*
X110672686Y-96462053D01*
X110713915Y-96515519D01*
X110722500Y-96561233D01*
X110722500Y-96682266D01*
X110702498Y-96750387D01*
X110648842Y-96796880D01*
X110578568Y-96806984D01*
X110513988Y-96777490D01*
X110498586Y-96761567D01*
X110489266Y-96750058D01*
X110482264Y-96745082D01*
X110482262Y-96745080D01*
X110373363Y-96667690D01*
X110366361Y-96662714D01*
X110224495Y-96611639D01*
X110215935Y-96611010D01*
X110215933Y-96611010D01*
X110137122Y-96605223D01*
X110074120Y-96600596D01*
X109926315Y-96630399D01*
X109791969Y-96698852D01*
X109785647Y-96704665D01*
X109785646Y-96704666D01*
X109729020Y-96756736D01*
X109680980Y-96800911D01*
X109676452Y-96808214D01*
X109676451Y-96808215D01*
X109609216Y-96916653D01*
X109601525Y-96929058D01*
X109559459Y-97073851D01*
X109557880Y-97224623D01*
X102790663Y-97224623D01*
X102719528Y-96684412D01*
X102718838Y-96677847D01*
X102555057Y-94596726D01*
X102554712Y-94590138D01*
X102521769Y-93331623D01*
X102500086Y-92503285D01*
X102500086Y-92496703D01*
X102500130Y-92495052D01*
X102528945Y-91394225D01*
X102554712Y-90409858D01*
X102555057Y-90403270D01*
X102718838Y-88322148D01*
X102719528Y-88315583D01*
X102992068Y-86245866D01*
X102993100Y-86239356D01*
X103249659Y-84854974D01*
X103373496Y-84186755D01*
X103374862Y-84180332D01*
X103862230Y-82150379D01*
X103863929Y-82144039D01*
X104350556Y-80501030D01*
X104456758Y-80142457D01*
X104458790Y-80136201D01*
X105155706Y-78168369D01*
X105158054Y-78162254D01*
X105240578Y-77963018D01*
X105956937Y-76233528D01*
X105959615Y-76227513D01*
X105968223Y-76209467D01*
X106858274Y-74343373D01*
X106861266Y-74337500D01*
X107139206Y-73825623D01*
X129305680Y-73825623D01*
X129344705Y-73971265D01*
X129421458Y-74101048D01*
X129530285Y-74205409D01*
X129663168Y-74276660D01*
X129705674Y-74286161D01*
X129801931Y-74307678D01*
X129801935Y-74307678D01*
X129810317Y-74309552D01*
X129904750Y-74304603D01*
X129952307Y-74302111D01*
X129952308Y-74302111D01*
X129960890Y-74301661D01*
X130103795Y-74253568D01*
X130228502Y-74168817D01*
X130234045Y-74162258D01*
X130234047Y-74162256D01*
X130320281Y-74060211D01*
X130325824Y-74053652D01*
X130367341Y-73962971D01*
X130385016Y-73924366D01*
X130385016Y-73924364D01*
X130388591Y-73916557D01*
X130412178Y-73767634D01*
X130412300Y-73756000D01*
X130391837Y-73606615D01*
X130377882Y-73574366D01*
X130335367Y-73476120D01*
X130335366Y-73476118D01*
X130331955Y-73468236D01*
X130237066Y-73351058D01*
X130230064Y-73346082D01*
X130230062Y-73346080D01*
X130121163Y-73268690D01*
X130114161Y-73263714D01*
X129972295Y-73212639D01*
X129963735Y-73212010D01*
X129963733Y-73212010D01*
X129884922Y-73206223D01*
X129821920Y-73201596D01*
X129674115Y-73231399D01*
X129539769Y-73299852D01*
X129533447Y-73305665D01*
X129533446Y-73305666D01*
X129476820Y-73357736D01*
X129428780Y-73401911D01*
X129424252Y-73409214D01*
X129424251Y-73409215D01*
X129383076Y-73475623D01*
X129349325Y-73530058D01*
X129307259Y-73674851D01*
X129305680Y-73825623D01*
X107139206Y-73825623D01*
X107857426Y-72502888D01*
X107860723Y-72497178D01*
X108249821Y-71862217D01*
X132963474Y-71862217D01*
X133002499Y-72007859D01*
X133079252Y-72137642D01*
X133188079Y-72242003D01*
X133320962Y-72313254D01*
X133363468Y-72322755D01*
X133459725Y-72344272D01*
X133459729Y-72344272D01*
X133468111Y-72346146D01*
X133561723Y-72341240D01*
X133611685Y-72338622D01*
X133680759Y-72355031D01*
X133713597Y-72385640D01*
X133713987Y-72385250D01*
X133722764Y-72394027D01*
X133729657Y-72404343D01*
X133739973Y-72411236D01*
X133750964Y-72418580D01*
X133750966Y-72418582D01*
X133810340Y-72458255D01*
X133810342Y-72458256D01*
X133820657Y-72465148D01*
X133832824Y-72467568D01*
X133832826Y-72467569D01*
X133878933Y-72476740D01*
X133902863Y-72481500D01*
X133902867Y-72481500D01*
X133928000Y-72486499D01*
X133940171Y-72484078D01*
X133940173Y-72484078D01*
X133940962Y-72483921D01*
X133965542Y-72481500D01*
X138841694Y-72481500D01*
X138909815Y-72501502D01*
X138930790Y-72518405D01*
X139624812Y-73212428D01*
X139658837Y-73274740D01*
X139660315Y-73318464D01*
X139658459Y-73324851D01*
X139658369Y-73333439D01*
X139658115Y-73357736D01*
X139656880Y-73475623D01*
X139695905Y-73621265D01*
X139772658Y-73751048D01*
X139881485Y-73855409D01*
X140014368Y-73926660D01*
X140056874Y-73936161D01*
X140153131Y-73957678D01*
X140153135Y-73957678D01*
X140161517Y-73959552D01*
X140255950Y-73954603D01*
X140303507Y-73952111D01*
X140303508Y-73952111D01*
X140312090Y-73951661D01*
X140454995Y-73903568D01*
X140579702Y-73818817D01*
X140585245Y-73812258D01*
X140585247Y-73812256D01*
X140671481Y-73710211D01*
X140677024Y-73703652D01*
X140690210Y-73674851D01*
X140736216Y-73574366D01*
X140736216Y-73574364D01*
X140739791Y-73566557D01*
X140763378Y-73417634D01*
X140763500Y-73406000D01*
X140743037Y-73256615D01*
X140719963Y-73203294D01*
X140686567Y-73126120D01*
X140686566Y-73126118D01*
X140683155Y-73118236D01*
X140588266Y-73001058D01*
X140581264Y-72996082D01*
X140581262Y-72996080D01*
X140472363Y-72918690D01*
X140465361Y-72913714D01*
X140323495Y-72862639D01*
X140314935Y-72862010D01*
X140314933Y-72862010D01*
X140236122Y-72856223D01*
X140173120Y-72851596D01*
X140164704Y-72853293D01*
X140164703Y-72853293D01*
X140152793Y-72855695D01*
X140131239Y-72860041D01*
X140060509Y-72853899D01*
X140017239Y-72825623D01*
X139229357Y-72037742D01*
X139213686Y-72018646D01*
X139213237Y-72017974D01*
X139213235Y-72017972D01*
X139206343Y-72007657D01*
X139115343Y-71946852D01*
X139103176Y-71944432D01*
X139103174Y-71944431D01*
X139033149Y-71930502D01*
X139033144Y-71930501D01*
X139033137Y-71930500D01*
X139033130Y-71930500D01*
X139008000Y-71925501D01*
X138995829Y-71927922D01*
X138995827Y-71927922D01*
X138995038Y-71928079D01*
X138970458Y-71930500D01*
X134195976Y-71930500D01*
X134127855Y-71910498D01*
X134081362Y-71856842D01*
X134069983Y-71803179D01*
X134070046Y-71797211D01*
X134070046Y-71797205D01*
X134070094Y-71792594D01*
X134049631Y-71643209D01*
X133989749Y-71504830D01*
X133894860Y-71387652D01*
X133887858Y-71382676D01*
X133887856Y-71382674D01*
X133778957Y-71305284D01*
X133771955Y-71300308D01*
X133630089Y-71249233D01*
X133621529Y-71248604D01*
X133621527Y-71248604D01*
X133542716Y-71242817D01*
X133479714Y-71238190D01*
X133331909Y-71267993D01*
X133197563Y-71336446D01*
X133191241Y-71342259D01*
X133191240Y-71342260D01*
X133134614Y-71394330D01*
X133086574Y-71438505D01*
X133082046Y-71445808D01*
X133082045Y-71445809D01*
X133040562Y-71512714D01*
X133007119Y-71566652D01*
X132965053Y-71711445D01*
X132963474Y-71862217D01*
X108249821Y-71862217D01*
X108951472Y-70717208D01*
X108955065Y-70711675D01*
X110137427Y-68991315D01*
X110141306Y-68985976D01*
X111412194Y-67329805D01*
X111416343Y-67324682D01*
X112772053Y-65737305D01*
X112772069Y-65737286D01*
X112776466Y-65732404D01*
X114213419Y-64218096D01*
X114218094Y-64213421D01*
X114415956Y-64025666D01*
X164446472Y-64025666D01*
X165750198Y-65277499D01*
X167643782Y-67027885D01*
X167810763Y-67182239D01*
X167817760Y-67189236D01*
X169719141Y-69246162D01*
X169725565Y-69253683D01*
X171447984Y-71438505D01*
X171459732Y-71453407D01*
X171465543Y-71461405D01*
X171850632Y-72037742D01*
X173021757Y-73790487D01*
X173026925Y-73798921D01*
X173893396Y-75346080D01*
X174391300Y-76235130D01*
X174395584Y-76242780D01*
X174400073Y-76251589D01*
X174655308Y-76805217D01*
X175572829Y-78795398D01*
X175576617Y-78804542D01*
X176167189Y-80405442D01*
X176273372Y-80693276D01*
X176546091Y-81432553D01*
X176549146Y-81441954D01*
X176871066Y-82583423D01*
X177309464Y-84137904D01*
X177311773Y-84147524D01*
X177858240Y-86894790D01*
X177859788Y-86904561D01*
X178172855Y-89549635D01*
X178189024Y-89686249D01*
X178189799Y-89696099D01*
X178299754Y-92493661D01*
X178299809Y-92495052D01*
X178299809Y-92504936D01*
X178193508Y-95209558D01*
X178189800Y-95303888D01*
X178189025Y-95313738D01*
X178011640Y-96812456D01*
X177859788Y-98095438D01*
X177858240Y-98105209D01*
X177311773Y-100852475D01*
X177309464Y-100862095D01*
X176748940Y-102849612D01*
X176549148Y-103558036D01*
X176546093Y-103567438D01*
X176237304Y-104404493D01*
X175576617Y-106195457D01*
X175572829Y-106204601D01*
X174913138Y-107635527D01*
X174404641Y-108738500D01*
X174400075Y-108748403D01*
X174395587Y-108757212D01*
X174145704Y-109203399D01*
X173026925Y-111201076D01*
X173021757Y-111209510D01*
X172306050Y-112280660D01*
X171498731Y-113488921D01*
X171465549Y-113538582D01*
X171459738Y-113546580D01*
X169725554Y-115746327D01*
X169719152Y-115753824D01*
X167947713Y-117670187D01*
X167817768Y-117810763D01*
X167810771Y-117817760D01*
X165750205Y-119722503D01*
X165749726Y-119722963D01*
X164642017Y-120786574D01*
X164446472Y-120974334D01*
X165988670Y-122812332D01*
X167308085Y-121548278D01*
X167309708Y-121546751D01*
X167919501Y-120983081D01*
X169511497Y-119511497D01*
X171213531Y-117670194D01*
X171545827Y-117310708D01*
X171545828Y-117310707D01*
X171547500Y-117308898D01*
X172470697Y-116137814D01*
X173402871Y-114955343D01*
X173402877Y-114955335D01*
X173404403Y-114953399D01*
X175070899Y-112459400D01*
X176536399Y-109842399D01*
X177792198Y-107118499D01*
X177793053Y-107116182D01*
X178829542Y-104306719D01*
X178829547Y-104306704D01*
X178830398Y-104304397D01*
X178840323Y-104269205D01*
X179643832Y-101419979D01*
X179643832Y-101419977D01*
X179644500Y-101417610D01*
X180229698Y-98475799D01*
X180229988Y-98473351D01*
X180581908Y-95499601D01*
X180581909Y-95499589D01*
X180582199Y-95497138D01*
X180699996Y-92500000D01*
X180582199Y-89502861D01*
X180572029Y-89416919D01*
X180229988Y-86526648D01*
X180229987Y-86526641D01*
X180229698Y-86524200D01*
X179644500Y-83582389D01*
X179497156Y-83059911D01*
X178831071Y-80697984D01*
X178831070Y-80697981D01*
X178830398Y-80695598D01*
X178829547Y-80693291D01*
X178829542Y-80693276D01*
X177793053Y-77883815D01*
X177793051Y-77883811D01*
X177792198Y-77881498D01*
X176536399Y-75157598D01*
X175070899Y-72540597D01*
X173404403Y-70046598D01*
X173402877Y-70044662D01*
X173402871Y-70044654D01*
X171549047Y-67693062D01*
X171547500Y-67691099D01*
X169511505Y-65488498D01*
X167309712Y-63453252D01*
X167308097Y-63451732D01*
X165988670Y-62187665D01*
X165494623Y-62776473D01*
X164458116Y-64011788D01*
X164458115Y-64011789D01*
X164446472Y-64025666D01*
X114415956Y-64025666D01*
X115732396Y-62776473D01*
X115732414Y-62776456D01*
X115737290Y-62772065D01*
X116516673Y-62106429D01*
X117324686Y-61416340D01*
X117329809Y-61412191D01*
X118985980Y-60141302D01*
X118991319Y-60137423D01*
X120711679Y-58955061D01*
X120717212Y-58951468D01*
X122497182Y-57860719D01*
X122502892Y-57857422D01*
X124337505Y-56861266D01*
X124343386Y-56858270D01*
X124932734Y-56577175D01*
X126227530Y-55959610D01*
X126233534Y-55956937D01*
X127453886Y-55451464D01*
X128162242Y-55158061D01*
X128168396Y-55155698D01*
X130136199Y-54458793D01*
X130142480Y-54456753D01*
X130585424Y-54325562D01*
X132144057Y-53863926D01*
X132150388Y-53862230D01*
X134180335Y-53374862D01*
X134186758Y-53373496D01*
X135565453Y-53117991D01*
X136239360Y-52993100D01*
X136245870Y-52992068D01*
X138315587Y-52719528D01*
X138322152Y-52718838D01*
X140403273Y-52555057D01*
X140409861Y-52554712D01*
X141668400Y-52521768D01*
X142496715Y-52500086D01*
X142503285Y-52500086D01*
X143407341Y-52523754D01*
G37*
%TD.AperFunction*%
%TD*%
M02*
