M48
; DRILL file {KiCad 7.0.5.1-1-g8f565ef7f0-dirty-deb11} date Fri Jun 30 14:36:09 2023
; FORMAT={-:-/ absolute / metric / decimal}
; #@! TF.CreationDate,2023-06-30T14:36:09+00:00
; #@! TF.GenerationSoftware,Kicad,Pcbnew,7.0.5.1-1-g8f565ef7f0-dirty-deb11
; #@! TF.FileFunction,Plated,1,4,PTH
FMAT,2
METRIC
; #@! TA.AperFunction,Plated,PTH,ViaDrill
T1C0.400
; #@! TA.AperFunction,Plated,PTH,ComponentDrill
T2C0.889
%
G90
G05
T1
X-38.9Y0.8
X-37.35Y7.8
X-37.35Y5.2
X-37.3Y-4.7
X-37.3Y-7.25
X-36.8Y10.25
X-36.5Y-11.4
X-35.6Y12.75
X-35.2Y-13.7
X-34.55Y-17.35
X-32.7Y19.25
X-31.85Y-20.25
X-31.35Y21.7
X-30.7Y-22.5
X-30.359Y-8.6
X-29.15Y17.05
X-29.1Y24.7
X-29.1Y-25.35
X-28.962Y-1.988
X-28.75Y-0.55
X-28.5Y-16.45
X-28.0Y9.5
X-27.65Y-7.6
X-27.2Y5.8
X-27.138Y-1.013
X-26.629Y-3.679
X-26.295Y0.552
X-26.15Y21.95
X-25.7Y13.8
X-24.05Y-18.95
X-23.9Y-17.1
X-23.8Y14.5
X-23.65Y19.1
X-21.088Y-3.258
X-18.607Y-6.222
X-18.325Y-4.7
X-17.224Y-16.624
X-15.375Y11.6
X-15.375Y-2.897
X-14.7Y4.9
X-14.7Y-5.8
X-14.3Y1.35
X-14.3Y0.0
X-14.3Y-1.3
X-13.95Y-7.45
X-13.55Y20.0
X-13.1Y3.0
X-13.1Y-2.65
X-12.5Y-13.25
X-12.325Y-19.133
X-11.7Y3.0
X-11.7Y-2.65
X-10.65Y1.7
X-10.65Y-1.4
X-10.55Y-21.2
X-9.8Y21.85
X-9.65Y1.7
X-9.6Y-1.4
X-8.5Y1.7
X-8.5Y-1.4
X-7.75Y-6.45
X-7.557Y-8.611
X-7.05Y22.9
X-6.3Y19.8
X-6.2Y-22.9
X-5.2Y-20.825
X-4.55Y-7.8
X-4.4Y-22.9
X-3.602Y-22.198
X-3.55Y14.65
X-2.35Y-10.7
X-2.25Y23.5
X-0.2Y-10.55
X0.217Y-12.667
X0.75Y24.0
X1.75Y16.05
X2.2Y-23.6
X3.5Y-23.5
X3.684Y-20.1
X3.9Y8.15
X4.5Y23.1
X6.4Y-12.45
X6.55Y-15.8
X6.764Y-18.861
X7.6Y15.6
X7.7Y4.5
X7.8Y22.35
X7.85Y-18.8
X8.2Y7.5
X8.35Y10.75
X8.55Y-2.8
X8.6Y12.55
X8.75Y-16.45
X8.884Y-0.21
X9.25Y2.85
X9.25Y-18.9
X9.65Y-5.35
X10.7Y-13.0
X10.95Y4.5
X11.2Y-4.4
X11.3Y20.9
X11.75Y-18.45
X11.8Y6.4
X11.95Y-1.25
X11.95Y-3.3
X12.051Y-19.951
X12.75Y-15.4
X13.283Y-13.717
X13.46Y-18.175
X13.5Y-19.8
X13.75Y-2.15
X13.9Y-16.8
X14.0Y-4.9
X14.95Y18.55
X16.1Y-7.1
X18.05Y-0.8
X18.65Y-6.4
X19.4Y-3.95
X19.4Y-16.1
X20.8Y-15.5
X22.15Y-0.95
X22.3Y-11.5
X22.3Y-14.45
X22.55Y1.9
X22.55Y-17.7
X23.1Y-7.7
X23.6Y-19.3
X23.921Y28.238
X24.01Y-28.13
X25.3Y-1.15
X25.35Y20.45
X26.15Y-7.6
X26.4Y3.5
X26.6Y-22.1
X27.4Y-13.3
X29.25Y-25.0
X29.35Y25.45
X29.4Y5.0
X29.8Y-2.35
X29.8Y-9.65
X30.25Y2.5
X30.9Y-4.8
X34.0Y2.65
X34.4Y-6.65
X34.45Y6.3
X36.0Y4.0
X36.1Y14.95
X36.35Y-14.4
X38.9Y0.0
T2
X34.8Y-4.4
T0
M30
