%TF.GenerationSoftware,KiCad,Pcbnew,7.0.5.1-1-g8f565ef7f0-dirty-deb11*%
%TF.CreationDate,2023-07-01T18:37:16+00:00*%
%TF.ProjectId,USTTHUNDERMILLPCB03,55535454-4855-44e4-9445-524d494c4c50,rev?*%
%TF.SameCoordinates,Original*%
%TF.FileFunction,Profile,NP*%
%FSLAX46Y46*%
G04 Gerber Fmt 4.6, Leading zero omitted, Abs format (unit mm)*
G04 Created by KiCad (PCBNEW 7.0.5.1-1-g8f565ef7f0-dirty-deb11) date 2023-07-01 18:37:16*
%MOMM*%
%LPD*%
G01*
G04 APERTURE LIST*
%TA.AperFunction,Profile*%
%ADD10C,0.200000*%
%TD*%
%TA.AperFunction,Profile*%
%ADD11C,0.050000*%
%TD*%
G04 APERTURE END LIST*
D10*
X8150000Y0D02*
G75*
G03*
X8150000Y0I-8150000J0D01*
G01*
D11*
X2093441Y39945195D02*
X4181140Y39780896D01*
X6257377Y39507496D01*
X8316467Y39125897D01*
X10352798Y38636998D01*
X12360698Y38042298D01*
X14334701Y37343197D01*
X16269500Y36541798D01*
X18159599Y35640297D01*
X20000000Y34640999D01*
X21785598Y33546801D01*
X23511398Y32360701D01*
X25172798Y31085801D01*
X26765197Y29725800D01*
X28284301Y28284300D01*
X29725799Y26765200D01*
X31085800Y25172801D01*
X32360702Y23511401D01*
X33546798Y21785601D01*
X34640998Y20000000D01*
X35640304Y18159600D01*
X36541801Y16269501D01*
X37343200Y14334700D01*
X38042297Y12360699D01*
X38637001Y10352799D01*
X39125900Y8316472D01*
X39507499Y6257382D01*
X39780899Y4181141D01*
X39945205Y2093442D01*
X40000000Y0D01*
X39945190Y-2093448D01*
X39780899Y-4181148D01*
X39507492Y-6257385D01*
X39125900Y-8316474D01*
X38636993Y-10352806D01*
X38042297Y-12360706D01*
X37343200Y-14334709D01*
X36541793Y-16269508D01*
X35640296Y-18159606D01*
X34640998Y-20000007D01*
X33546798Y-21785606D01*
X32360702Y-23511405D01*
X31085800Y-25172805D01*
X29725799Y-26765205D01*
X28284301Y-28284309D01*
X26765197Y-29725807D01*
X25172798Y-31085807D01*
X23511398Y-32360702D01*
X21785598Y-33546806D01*
X20000000Y-34641006D01*
X18159599Y-35640304D01*
X16269500Y-36541809D01*
X14334701Y-37343200D01*
X12360698Y-38042304D01*
X10352798Y-38637008D01*
X8316467Y-39125900D01*
X6257377Y-39507507D01*
X4181140Y-39780899D01*
X2093441Y-39945205D01*
X0Y-40000000D01*
X-2093445Y-39945190D01*
X-4181145Y-39780899D01*
X-6257386Y-39507492D01*
X-8316475Y-39125900D01*
X-10352807Y-38636993D01*
X-12360707Y-38042297D01*
X-14334706Y-37343200D01*
X-16269507Y-36541793D01*
X-18159607Y-35640296D01*
X-20000006Y-34640998D01*
X-21785607Y-33546798D01*
X-23511406Y-32360702D01*
X-25172806Y-31085800D01*
X-26765206Y-29725799D01*
X-28284306Y-28284301D01*
X-29725806Y-26765197D01*
X-31085806Y-25172798D01*
X-32360707Y-23511398D01*
X-33546807Y-21785598D01*
X-34641007Y-20000000D01*
X-35640305Y-18159599D01*
X-36541806Y-16269500D01*
X-37343205Y-14334701D01*
X-38042305Y-12360698D01*
X-38637005Y-10352798D01*
X-39125905Y-8316467D01*
X-39507504Y-6257377D01*
X-39780903Y-4181140D01*
X-39945202Y-2093441D01*
X-40000000Y0D01*
X-39945202Y2093445D01*
X-39780903Y4181145D01*
X-39507504Y6257386D01*
X-39125905Y8316475D01*
X-38637005Y10352807D01*
X-38042305Y12360707D01*
X-37343205Y14334706D01*
X-36541806Y16269507D01*
X-35640305Y18159607D01*
X-34641003Y20000006D01*
X-33546803Y21785607D01*
X-32360703Y23511406D01*
X-31085803Y25172806D01*
X-29725802Y26765206D01*
X-28284302Y28284306D01*
X-26765202Y29725806D01*
X-25172802Y31085806D01*
X-23511403Y32360707D01*
X-21785603Y33546807D01*
X-20000002Y34641007D01*
X-18159602Y35640305D01*
X-16269501Y36541806D01*
X-14334702Y37343205D01*
X-12360701Y38042305D01*
X-10352799Y38637005D01*
X-8316472Y39125905D01*
X-6257382Y39507504D01*
X-4181141Y39780903D01*
X-2093442Y39945202D01*
X0Y40000000D01*
X2093441Y39945195D01*
M02*
