M48
; DRILL file {KiCad (5.99.0-10394-g2e15de97e0)} date Wed Aug 25 07:29:18 2021
; FORMAT={3:3/ absolute / metric / suppress leading zeros}
; #@! TF.CreationDate,2021-08-25T07:29:18+02:00
; #@! TF.GenerationSoftware,Kicad,Pcbnew,(5.99.0-10394-g2e15de97e0)
; #@! TF.FileFunction,Plated,1,4,PTH
FMAT,2
METRIC,TZ
; #@! TA.AperFunction,Plated,PTH,ViaDrill
T1C0.400
%
G90
G05
T1
X104267Y-86106
X104775Y-102235
X105283Y-103632
X105664Y-84455
X106045Y-86106
X106426Y-81153
X106426Y-101981
X106807Y-103124
X107315Y-76454
X107696Y-78105
X107950Y-86106
X108331Y-101981
X109093Y-78105
X109600Y-86700
X110109Y-97155
X110200Y-88350
X110236Y-71120
X110450Y-80950
X110617Y-83185
X110998Y-96012
X111633Y-116078
X111760Y-71882
X112141Y-99568
X113030Y-115316
X113200Y-76750
X113250Y-88900
X113284Y-96139
X113284Y-97536
X113411Y-103251
X113538Y-84455
X113538Y-94488
X113665Y-72898
X113665Y-86106
X113700Y-78700
X113792Y-81026
X113792Y-91948
X114173Y-99060
X114427Y-114681
X114554Y-68326
X115000Y-90450
X115062Y-93345
X115196Y-95504
X115570Y-69342
X115570Y-100330
X115600Y-97250
X115697Y-104013
X115900Y-76550
X115951Y-113919
X116050Y-80850
X116205Y-91948
X116205Y-94742
X116713Y-89281
X116967Y-70739
X117221Y-92583
X117850Y-78700
X117983Y-90424
X117983Y-104775
X118100Y-76550
X118110Y-96520
X118110Y-111252
X119126Y-110490
X119250Y-100900
X119761Y-98298
X120000Y-80450
X120269Y-94742
X120500Y-76550
X121412Y-95758
X121412Y-99822
X121666Y-107061
X121700Y-78800
X121750Y-101800
X121793Y-103632
X121793Y-105410
X122555Y-96774
X123250Y-76550
X123317Y-101727
X123952Y-98171
X123952Y-107061
X124200Y-80700
X124968Y-103124
X125222Y-93726
X125349Y-99568
X125400Y-78800
X125603Y-87884
X126300Y-76400
X127000Y-100330
X127000Y-103251
X127600Y-80700
X127635Y-107061
X128143Y-91948
X128143Y-93091
X128143Y-94107
X128270Y-90805
X128397Y-75057
X128778Y-94996
X128905Y-90043
X128905Y-111506
X129150Y-78700
X129159Y-100457
X129159Y-105410
X129413Y-96901
X129413Y-103251
X129794Y-95123
X129857Y-73756
X130048Y-89916
X130175Y-107442
X130175Y-111633
X130810Y-95123
X131064Y-90170
X131318Y-100457
X131600Y-88350
X131699Y-91059
X131816Y-76231
X131826Y-94107
X131826Y-95123
X131826Y-103251
X132334Y-108077
X132334Y-113411
X132400Y-78800
X132842Y-91059
X132842Y-94107
X133350Y-96393
X133424Y-71707
X133604Y-100457
X133858Y-91059
X133858Y-94107
X133858Y-114848
X134366Y-98171
X134366Y-109347
X134400Y-70900
X134493Y-103378
X134600Y-76550
X134650Y-73450
X135382Y-115062
X135650Y-69750
X135890Y-100457
X136271Y-109093
X136750Y-74350
X136779Y-71374
X136779Y-115062
X136906Y-103251
X137160Y-69215
X137668Y-113451
X137922Y-100457
X138049Y-107188
X138200Y-71200
X138557Y-77343
X138684Y-69215
X138863Y-114213
X139573Y-115189
X139650Y-71150
X139827Y-105918
X139954Y-103378
X140208Y-69088
X140208Y-73406
X140716Y-79502
X140843Y-108331
X141986Y-108331
X142240Y-104394
X142367Y-71247
X142494Y-103378
X143129Y-81407
X143383Y-70358
X144272Y-69342
X144399Y-114935
X144660Y-115848
X145034Y-78867
X145288Y-83185
X145288Y-104902
X146050Y-116078
X146134Y-112776
X146707Y-75756
X147828Y-81280
X147828Y-115697
X148082Y-85344
X148717Y-108966
X148971Y-112014
X149479Y-99822
X149657Y-77956
X150114Y-111760
X150241Y-71628
X150368Y-87503
X150600Y-104950
X150749Y-95631
X150876Y-89408
X151384Y-92710
X151511Y-109728
X151696Y-84143
X151765Y-111633
X152798Y-107304
X153162Y-80010
X153289Y-74041
X153289Y-91440
X153289Y-94742
X153289Y-97155
X153306Y-105780
X153416Y-83439
X153792Y-86238
X154813Y-110363
X155084Y-106796
X155448Y-111252
X155702Y-76454
X155829Y-108839
X155846Y-105018
X156591Y-93599
X156591Y-97536
X156591Y-111252
X156718Y-109728
X157480Y-83312
X157480Y-86614
X157480Y-91186
X158369Y-96012
X158369Y-100203
X158496Y-92329
X159766Y-80264
X159893Y-90805
X160020Y-84201
X160020Y-99441
X160147Y-76581
X160147Y-93980
X160147Y-95758
X160147Y-108077
X161163Y-104902
X161290Y-90043
X161417Y-101727
X161544Y-92456
X161671Y-94107
X162052Y-97536
X162560Y-87884
X162814Y-85852
X162814Y-91059
X163449Y-92456
X164200Y-110900
X164211Y-95250
X164211Y-104267
X164719Y-91440
X164776Y-82514
X164801Y-76392
X164846Y-89154
X164973Y-75057
X165227Y-86995
X165481Y-107442
X165735Y-109474
X165989Y-90170
X166116Y-92837
X166370Y-97790
X166370Y-102743
X166421Y-64262
X166510Y-120630
X166751Y-77597
X166751Y-95250
X167259Y-92837
X167386Y-91567
X167513Y-84455
X167513Y-88519
X168021Y-109347
X168148Y-99187
X168656Y-87376
X168783Y-90297
X168910Y-77724
X169164Y-75057
X169545Y-85852
X169900Y-89100
X170180Y-75946
X170815Y-109474
X171300Y-99500
X171704Y-102743
X171950Y-85600
X171950Y-87700
X172085Y-81280
X172085Y-89281
X172847Y-83439
X172974Y-109220
X173350Y-99800
X173355Y-80518
X173609Y-103124
X173736Y-76962
X173736Y-105156
X173850Y-93650
X173863Y-107315
X174396Y-73762
X174752Y-79883
X175514Y-96266
X175650Y-99550
X175900Y-93950
X176050Y-90550
T0
M30
