%TF.GenerationSoftware,KiCad,Pcbnew,6.0.11+dfsg-1~bpo11+1*%
%TF.CreationDate,2023-06-15T06:44:31+00:00*%
%TF.ProjectId,USTTHUNDERMILLPCB01,55535454-4855-44e4-9445-524d494c4c50,rev?*%
%TF.SameCoordinates,Original*%
%TF.FileFunction,Legend,Top*%
%TF.FilePolarity,Positive*%
%FSLAX46Y46*%
G04 Gerber Fmt 4.6, Leading zero omitted, Abs format (unit mm)*
G04 Created by KiCad (PCBNEW 6.0.11+dfsg-1~bpo11+1) date 2023-06-15 06:44:31*
%MOMM*%
%LPD*%
G01*
G04 APERTURE LIST*
%ADD10C,0.300000*%
%ADD11C,0.150000*%
%ADD12C,0.304800*%
%ADD13C,0.120000*%
G04 APERTURE END LIST*
D10*
X11100186Y-36265888D02*
X11311913Y-36847603D01*
X10090312Y-37292229D01*
X10312091Y-36091587D02*
X10163883Y-35684387D01*
X10740251Y-35276973D02*
X10951977Y-35858688D01*
X9730377Y-36303314D01*
X9518650Y-35721600D01*
X10549697Y-34753430D02*
X9328096Y-35198057D01*
X9222233Y-34907199D01*
X9216886Y-34711512D01*
X9290884Y-34552824D01*
X9386054Y-34452307D01*
X9597567Y-34309445D01*
X9772081Y-34245927D01*
X10025940Y-34219408D01*
X10163455Y-34235234D01*
X10322144Y-34309232D01*
X10443833Y-34462573D01*
X10549697Y-34753430D01*
X8925815Y-34092799D02*
X8650571Y-33336570D01*
X9264151Y-33574389D01*
X9200633Y-33399875D01*
X9216459Y-33262359D01*
X9253458Y-33183015D01*
X9348628Y-33082498D01*
X9639485Y-32976635D01*
X9777001Y-32992461D01*
X9856345Y-33029460D01*
X9956862Y-33124630D01*
X10083898Y-33473659D01*
X10068072Y-33611174D01*
X10031073Y-33690518D01*
X16706902Y-33244225D02*
X16602253Y-33019806D01*
X16606034Y-32881435D01*
X16665919Y-32716901D01*
X16864176Y-32556148D01*
X17256910Y-32373013D01*
X17507491Y-32324470D01*
X17672025Y-32384355D01*
X17780454Y-32470403D01*
X17885102Y-32694822D01*
X17881321Y-32833193D01*
X17821436Y-32997727D01*
X17623179Y-33158480D01*
X17230446Y-33341615D01*
X16979864Y-33390158D01*
X16815331Y-33330273D01*
X16706902Y-33244225D01*
X17414184Y-31684936D02*
X16235984Y-32234340D01*
X17100239Y-31011679D01*
X15922039Y-31561082D01*
D11*
X-2197843Y31093122D02*
X-2169383Y31154156D01*
X-2051427Y31247763D01*
X-1961933Y31280336D01*
X-1811404Y31284449D01*
X-1689337Y31227528D01*
X-1612016Y31154320D01*
X-1502122Y30991617D01*
X-1453262Y30857376D01*
X-1432862Y30662100D01*
X-1445036Y30556319D01*
X-1501958Y30434251D01*
X-1619913Y30340644D01*
X-1709407Y30308070D01*
X-1859936Y30303957D01*
X-1920970Y30332418D01*
X-2767384Y30987176D02*
X-2661602Y30975002D01*
X-2600569Y30946542D01*
X-2523248Y30873334D01*
X-2425528Y30604850D01*
X-2437702Y30499069D01*
X-2466162Y30438035D01*
X-2539370Y30360714D01*
X-2673612Y30311854D01*
X-2779393Y30324028D01*
X-2840427Y30352489D01*
X-2917748Y30425697D01*
X-3015468Y30694180D01*
X-3003294Y30799961D01*
X-2974833Y30860995D01*
X-2901625Y30938316D01*
X-2767384Y30987176D01*
X-3255327Y30100128D02*
X-3483340Y30726589D01*
X-3287900Y30189622D02*
X-3316360Y30128588D01*
X-3389568Y30051268D01*
X-3523810Y30002407D01*
X-3629591Y30014581D01*
X-3706912Y30087789D01*
X-3886065Y30580009D01*
X-4105525Y29790681D02*
X-4333538Y30417142D01*
X-4138098Y29880175D02*
X-4166559Y29819141D01*
X-4239766Y29741821D01*
X-4374008Y29692961D01*
X-4479789Y29705135D01*
X-4557110Y29778342D01*
X-4736263Y30270562D01*
X-5525428Y29932655D02*
X-5452220Y30009976D01*
X-5273231Y30075122D01*
X-5167449Y30062948D01*
X-5090129Y29989741D01*
X-4959835Y29631762D01*
X-4972009Y29525981D01*
X-5045217Y29448661D01*
X-5224206Y29383514D01*
X-5329988Y29395688D01*
X-5407308Y29468896D01*
X-5439881Y29558390D01*
X-5024982Y29810751D01*
X-6375626Y29623208D02*
X-6302418Y29700529D01*
X-6123429Y29765676D01*
X-6017648Y29753502D01*
X-5956614Y29725041D01*
X-5879293Y29651833D01*
X-5781573Y29383350D01*
X-5793747Y29277568D01*
X-5822207Y29216534D01*
X-5895415Y29139214D01*
X-6074404Y29074067D01*
X-6180186Y29086241D01*
X-6432383Y28943774D02*
X-6790361Y28813480D01*
X-6452618Y28581683D02*
X-6745778Y29387134D01*
X-6823098Y29460341D01*
X-6928880Y29472515D01*
X-7018374Y29439942D01*
X-7465847Y29277075D02*
X-7360066Y29264901D01*
X-7299032Y29236441D01*
X-7221711Y29163233D01*
X-7123991Y28894749D01*
X-7136165Y28788968D01*
X-7164626Y28727934D01*
X-7237833Y28650614D01*
X-7372075Y28601754D01*
X-7477856Y28613927D01*
X-7538890Y28642388D01*
X-7616211Y28715596D01*
X-7713931Y28984080D01*
X-7701757Y29089861D01*
X-7673296Y29150895D01*
X-7600089Y29228215D01*
X-7465847Y29277075D01*
X-8181803Y29016489D02*
X-7953790Y28390027D01*
X-8018936Y28569016D02*
X-8031110Y28463235D01*
X-8059571Y28402201D01*
X-8132779Y28324880D01*
X-8222273Y28292307D01*
X-8702484Y28776301D02*
X-8808265Y28788475D01*
X-8987254Y28723328D01*
X-9060462Y28646008D01*
X-9072636Y28540227D01*
X-9056349Y28495479D01*
X-8979028Y28422271D01*
X-8873247Y28410098D01*
X-8739005Y28458958D01*
X-8633224Y28446784D01*
X-8555904Y28373576D01*
X-8539617Y28328829D01*
X-8551791Y28223047D01*
X-8624999Y28145727D01*
X-8759240Y28096867D01*
X-8865022Y28109041D01*
X-9491648Y28438394D02*
X-9552682Y28466854D01*
X-9524221Y28527888D01*
X-9463187Y28499428D01*
X-9491648Y28438394D01*
X-9524221Y28527888D01*
X-9312494Y27946174D02*
X-9373528Y27974634D01*
X-9345068Y28035668D01*
X-9284034Y28007208D01*
X-9312494Y27946174D01*
X-9345068Y28035668D01*
X-2721217Y33366454D02*
X-2965517Y34037663D01*
X-2969630Y34188191D01*
X-2912708Y34310259D01*
X-2794753Y34403866D01*
X-2705259Y34436440D01*
X-4002929Y33964126D02*
X-3465962Y34159566D01*
X-3734446Y34061846D02*
X-3392426Y33122153D01*
X-3351791Y33288969D01*
X-3294870Y33411036D01*
X-3221662Y33488357D01*
X-4991318Y33198981D02*
X-5707274Y32938394D01*
X-7000996Y32872919D02*
X-6658976Y31933226D01*
X-7016954Y31802933D01*
X-7122736Y31815107D01*
X-7183770Y31843567D01*
X-7261090Y31916775D01*
X-7309950Y32051017D01*
X-7297776Y32156798D01*
X-7269316Y32217832D01*
X-7196108Y32295153D01*
X-6838130Y32425446D01*
X-7940689Y32530899D02*
X-7712676Y31904437D01*
X-7598669Y31591206D02*
X-7570208Y31652240D01*
X-7631242Y31680701D01*
X-7659703Y31619667D01*
X-7598669Y31591206D01*
X-7631242Y31680701D01*
X-8298667Y32400605D02*
X-8562874Y31594990D01*
X-8070654Y31774144D02*
X-8790887Y32221452D01*
X-9148865Y32091159D02*
X-8806845Y31151466D01*
X-9551591Y31944579D02*
X-9372437Y31452359D01*
X-9295117Y31379151D01*
X-9189335Y31366977D01*
X-9055094Y31415837D01*
X-8981886Y31493157D01*
X-8953425Y31554191D01*
X-10401789Y31635132D02*
X-10222635Y31142912D01*
X-10145315Y31069704D01*
X-10039534Y31057530D01*
X-9860544Y31122677D01*
X-9787337Y31199997D01*
X-10385502Y31590384D02*
X-10312294Y31667705D01*
X-10088558Y31749138D01*
X-9982777Y31736965D01*
X-9905456Y31663757D01*
X-9872883Y31574262D01*
X-9885057Y31468481D01*
X-9958265Y31391160D01*
X-10182001Y31309727D01*
X-10255209Y31232406D01*
X-10531753Y30878377D02*
X-10938756Y31439692D01*
X-10954878Y30927072D01*
X-11296734Y31309398D01*
X-11247710Y30617790D01*
X-11833701Y31113958D02*
X-11491681Y30174266D01*
X-11792902Y30723407D02*
X-12191679Y30983665D01*
X-11963666Y30357203D02*
X-11735981Y30845475D01*
X-12968341Y29636805D02*
X-13245214Y30397509D01*
X-13322535Y30470717D01*
X-13383569Y30499177D01*
X-13489350Y30511351D01*
X-13668339Y30446205D01*
X-13741547Y30368884D01*
X-13770008Y30307850D01*
X-13782182Y30202069D01*
X-13505308Y29441365D01*
X-14152334Y29965994D02*
X-14599806Y29803127D01*
X-14160559Y30267051D02*
X-14131770Y29213352D01*
X-14787021Y30039038D01*
X-15637219Y29729591D02*
X-15161121Y29396125D01*
X-15100252Y29925031D02*
X-14758232Y28985338D01*
X-15116210Y28855045D01*
X-15221991Y28867219D01*
X-15283025Y28895680D01*
X-15360346Y28968887D01*
X-15409206Y29103129D01*
X-15397032Y29208910D01*
X-15368571Y29269944D01*
X-15295363Y29347265D01*
X-14937385Y29477558D01*
X-15563683Y28692178D02*
X-16100650Y28496738D01*
X-16174186Y29534151D02*
X-15832166Y28594458D01*
X-18232561Y28784964D02*
X-18187813Y28801251D01*
X-18082032Y28789077D01*
X-17898930Y28703695D01*
X-17577474Y28516645D01*
X-17439119Y28414976D01*
X-17345512Y28297021D01*
X-17312939Y28207526D01*
X-17325113Y28101745D01*
X-17398321Y28024425D01*
X-17443068Y28008138D01*
X-17548849Y28020312D01*
X-17626170Y28093520D01*
X-17642456Y28138267D01*
X-17630282Y28244048D01*
X-17601822Y28305082D01*
X-17398485Y28581791D01*
X-17370024Y28642825D01*
X-17357850Y28748606D01*
X-17406710Y28882848D01*
X-17484031Y28956056D01*
X-17545065Y28984517D01*
X-17650846Y28996691D01*
X-17785088Y28947831D01*
X-17858296Y28870510D01*
X-17886756Y28809476D01*
X-17955851Y28581627D01*
X-17951739Y28431098D01*
X-17919165Y28341604D01*
X-19351242Y28377797D02*
X-19009222Y27438104D01*
X-19444521Y27381019D02*
X-19472982Y27319985D01*
X-19546189Y27242664D01*
X-19769926Y27161231D01*
X-19875707Y27173405D01*
X-19936741Y27201865D01*
X-20014061Y27275073D01*
X-20046635Y27364568D01*
X-20050748Y27515096D01*
X-19709220Y28247504D01*
X-20290935Y28035777D01*
X-21198054Y27604262D02*
X-21169594Y27665296D01*
X-21051638Y27758903D01*
X-20962144Y27791477D01*
X-20811615Y27795590D01*
X-20689548Y27738668D01*
X-20612227Y27665460D01*
X-20502333Y27502758D01*
X-20453473Y27368516D01*
X-20433074Y27173241D01*
X-20445247Y27067459D01*
X-20502169Y26945391D01*
X-20620124Y26851784D01*
X-20709618Y26819211D01*
X-20860147Y26815098D01*
X-20921181Y26843559D01*
X-3271869Y34879359D02*
X-3516169Y35550568D01*
X-3520282Y35701096D01*
X-3463360Y35823164D01*
X-3345405Y35916771D01*
X-3255911Y35949345D01*
X-4166814Y34553625D02*
X-3719341Y34716492D01*
X-3837461Y35180251D01*
X-3865921Y35119217D01*
X-3939129Y35041897D01*
X-4162866Y34960463D01*
X-4268647Y34972637D01*
X-4329681Y35001098D01*
X-4407001Y35074306D01*
X-4488435Y35298042D01*
X-4476261Y35403823D01*
X-4447800Y35464857D01*
X-4374592Y35542178D01*
X-4150856Y35623611D01*
X-4045075Y35611437D01*
X-3984041Y35582977D01*
X-5541970Y34711886D02*
X-6257926Y34451299D01*
X-7551648Y34385824D02*
X-7209628Y33446131D01*
X-7567606Y33315838D01*
X-7673388Y33328012D01*
X-7734422Y33356472D01*
X-7811742Y33429680D01*
X-7860602Y33563922D01*
X-7848428Y33669703D01*
X-7819968Y33730737D01*
X-7746760Y33808058D01*
X-7388782Y33938351D01*
X-8894066Y33897224D02*
X-8714913Y33405004D01*
X-8637592Y33331796D01*
X-8531811Y33319622D01*
X-8352822Y33384769D01*
X-8279614Y33462089D01*
X-8877780Y33852476D02*
X-8804572Y33929797D01*
X-8580836Y34011230D01*
X-8475054Y33999056D01*
X-8397734Y33925849D01*
X-8365160Y33836354D01*
X-8377334Y33730573D01*
X-8450542Y33653252D01*
X-8674279Y33571819D01*
X-8747486Y33494498D01*
X-9024031Y33140469D02*
X-9475781Y33685497D01*
X-9471504Y32977602D02*
X-9475781Y33685497D01*
X-9467720Y33941807D01*
X-9439259Y34002841D01*
X-9366051Y34080161D01*
X-10191737Y33424910D02*
X-10085956Y33412736D01*
X-10008635Y33339528D01*
X-9715475Y32534078D01*
X-10683957Y33245757D02*
X-10578176Y33233583D01*
X-10517142Y33205122D01*
X-10439821Y33131914D01*
X-10342101Y32863431D01*
X-10354275Y32757650D01*
X-10382736Y32696616D01*
X-10455944Y32619295D01*
X-10590186Y32570435D01*
X-10695967Y32582609D01*
X-10757001Y32611070D01*
X-10834321Y32684277D01*
X-10932041Y32952761D01*
X-10919867Y33058542D01*
X-10891407Y33119576D01*
X-10818199Y33196897D01*
X-10683957Y33245757D01*
X-11802639Y32838590D02*
X-11623485Y32346370D01*
X-11546165Y32273162D01*
X-11440384Y32260988D01*
X-11261395Y32326135D01*
X-11188187Y32403456D01*
X-11786352Y32793843D02*
X-11713144Y32871163D01*
X-11489408Y32952597D01*
X-11383627Y32940423D01*
X-11306306Y32867215D01*
X-11273733Y32777720D01*
X-11285907Y32671939D01*
X-11359115Y32594618D01*
X-11582851Y32513185D01*
X-11656059Y32435865D01*
X-12652837Y32529143D02*
X-12310817Y31589451D01*
X-12636550Y32484396D02*
X-12563342Y32561716D01*
X-12384353Y32626863D01*
X-12278572Y32614689D01*
X-12217538Y32586229D01*
X-12140218Y32513021D01*
X-12042498Y32244537D01*
X-12054671Y32138756D01*
X-12083132Y32077722D01*
X-12156340Y32000401D01*
X-12335329Y31935255D01*
X-12441110Y31947429D01*
X-14202705Y31914362D02*
X-14129497Y31991683D01*
X-13950508Y32056830D01*
X-13844726Y32044656D01*
X-13783693Y32016195D01*
X-13706372Y31942987D01*
X-13608652Y31674504D01*
X-13620826Y31568722D01*
X-13649286Y31507688D01*
X-13722494Y31430368D01*
X-13901483Y31365221D01*
X-14007265Y31377395D01*
X-14755959Y31763669D02*
X-14650177Y31751496D01*
X-14589143Y31723035D01*
X-14511823Y31649827D01*
X-14414103Y31381343D01*
X-14426277Y31275562D01*
X-14454737Y31214528D01*
X-14527945Y31137208D01*
X-14662187Y31088348D01*
X-14767968Y31100522D01*
X-14829002Y31128982D01*
X-14906323Y31202190D01*
X-15004043Y31470674D01*
X-14991869Y31576455D01*
X-14963408Y31637489D01*
X-14890200Y31714809D01*
X-14755959Y31763669D01*
X-15243901Y30876621D02*
X-15471915Y31503083D01*
X-15276475Y30966115D02*
X-15304935Y30905082D01*
X-15378143Y30827761D01*
X-15512385Y30778901D01*
X-15618166Y30791075D01*
X-15695487Y30864283D01*
X-15874640Y31356503D01*
X-16094099Y30567174D02*
X-16322113Y31193636D01*
X-16126673Y30656669D02*
X-16155133Y30595635D01*
X-16228341Y30518314D01*
X-16362583Y30469454D01*
X-16468364Y30481628D01*
X-16545685Y30554836D01*
X-16724838Y31047056D01*
X-17514002Y30709148D02*
X-17440795Y30786469D01*
X-17261806Y30851616D01*
X-17156024Y30839442D01*
X-17078704Y30766234D01*
X-16948410Y30408256D01*
X-16960584Y30302475D01*
X-17033792Y30225154D01*
X-17212781Y30160007D01*
X-17318562Y30172181D01*
X-17395883Y30245389D01*
X-17428456Y30334884D01*
X-17013557Y30587245D01*
X-18364201Y30399702D02*
X-18290993Y30477022D01*
X-18112004Y30542169D01*
X-18006222Y30529995D01*
X-17945188Y30501534D01*
X-17867868Y30428327D01*
X-17770148Y30159843D01*
X-17782322Y30054062D01*
X-17810782Y29993028D01*
X-17883990Y29915707D01*
X-18062979Y29850561D01*
X-18168760Y29862734D01*
X-18420957Y29720267D02*
X-18778936Y29589974D01*
X-18441192Y29358176D02*
X-18734353Y30163627D01*
X-18811673Y30236835D01*
X-18917454Y30249009D01*
X-19006949Y30216435D01*
X-19454422Y30053569D02*
X-19348640Y30041395D01*
X-19287606Y30012934D01*
X-19210286Y29939726D01*
X-19112566Y29671243D01*
X-19124740Y29565462D01*
X-19153200Y29504428D01*
X-19226408Y29427107D01*
X-19360650Y29378247D01*
X-19466431Y29390421D01*
X-19527465Y29418882D01*
X-19604786Y29492089D01*
X-19702506Y29760573D01*
X-19690332Y29866354D01*
X-19661871Y29927388D01*
X-19588663Y30004709D01*
X-19454422Y30053569D01*
X-20170378Y29792982D02*
X-19942364Y29166520D01*
X-20007511Y29345509D02*
X-20019685Y29239728D01*
X-20048146Y29178694D01*
X-20121354Y29101374D01*
X-20210848Y29068800D01*
X-3822521Y36392264D02*
X-4066821Y37063473D01*
X-4070934Y37214001D01*
X-4014012Y37336069D01*
X-3896057Y37429676D01*
X-3806563Y37462250D01*
X-4672719Y36082817D02*
X-4493730Y36147963D01*
X-4420522Y36225284D01*
X-4392061Y36286318D01*
X-4351427Y36453133D01*
X-4371826Y36648409D01*
X-4502120Y37006387D01*
X-4579440Y37079595D01*
X-4640474Y37108055D01*
X-4746255Y37120229D01*
X-4925244Y37055083D01*
X-4998452Y36977762D01*
X-5026913Y36916728D01*
X-5039087Y36810947D01*
X-4957653Y36587211D01*
X-4880333Y36514003D01*
X-4819299Y36485542D01*
X-4713518Y36473368D01*
X-4534529Y36538515D01*
X-4461321Y36615836D01*
X-4432860Y36676869D01*
X-4420686Y36782651D01*
X-6092622Y36224791D02*
X-6808578Y35964204D01*
X-8102300Y35898729D02*
X-7760280Y34959036D01*
X-7984017Y34877603D01*
X-8134545Y34873490D01*
X-8256613Y34930411D01*
X-8333934Y35003619D01*
X-8443828Y35166322D01*
X-8492688Y35300563D01*
X-8513087Y35495839D01*
X-8500913Y35601620D01*
X-8443992Y35723688D01*
X-8326037Y35817296D01*
X-8102300Y35898729D01*
X-9383685Y35381668D02*
X-9310477Y35458989D01*
X-9131488Y35524135D01*
X-9025706Y35511961D01*
X-8948386Y35438754D01*
X-8818092Y35080775D01*
X-8830266Y34974994D01*
X-8903474Y34897674D01*
X-9082463Y34832527D01*
X-9188244Y34844701D01*
X-9265565Y34917909D01*
X-9298138Y35007403D01*
X-8883239Y35259765D01*
X-9847444Y35263549D02*
X-9505424Y34323856D01*
X-9635717Y34681834D02*
X-9708925Y34604514D01*
X-9887914Y34539367D01*
X-9993695Y34551541D01*
X-10054729Y34580001D01*
X-10132050Y34653209D01*
X-10229770Y34921693D01*
X-10217596Y35027474D01*
X-10189135Y35088508D01*
X-10115927Y35165829D01*
X-9936938Y35230975D01*
X-9831157Y35218801D01*
X-10872354Y34181060D02*
X-11100367Y34807522D01*
X-10469629Y34327640D02*
X-10648782Y34819860D01*
X-10726103Y34893068D01*
X-10831884Y34905242D01*
X-10966126Y34856382D01*
X-11039333Y34779061D01*
X-11067794Y34718027D01*
X-11722552Y33871613D02*
X-11999425Y34632317D01*
X-11987252Y34738098D01*
X-11958791Y34799132D01*
X-11885583Y34876453D01*
X-11751341Y34925313D01*
X-11645560Y34913139D01*
X-11934279Y34453328D02*
X-11861071Y34530648D01*
X-11682082Y34595795D01*
X-11576301Y34583621D01*
X-11515267Y34555161D01*
X-11437946Y34481953D01*
X-11340226Y34213469D01*
X-11352400Y34107688D01*
X-11380861Y34046654D01*
X-11454068Y33969333D01*
X-11633057Y33904187D01*
X-11738839Y33916361D01*
X-13874698Y33797748D02*
X-13829951Y33814035D01*
X-13724169Y33801861D01*
X-13541068Y33716479D01*
X-13219611Y33529429D01*
X-13081257Y33427760D01*
X-12987649Y33309805D01*
X-12955076Y33220311D01*
X-12967250Y33114529D01*
X-13040458Y33037209D01*
X-13085205Y33020922D01*
X-13190986Y33033096D01*
X-13268307Y33106304D01*
X-13284594Y33151051D01*
X-13272420Y33256832D01*
X-13243959Y33317866D01*
X-13040622Y33594575D01*
X-13012162Y33655609D01*
X-12999988Y33761391D01*
X-13048848Y33895632D01*
X-13126168Y33968840D01*
X-13187202Y33997301D01*
X-13292983Y34009475D01*
X-13427225Y33960615D01*
X-13500433Y33883294D01*
X-13528894Y33822260D01*
X-13597989Y33594411D01*
X-13593876Y33443883D01*
X-13561303Y33354388D01*
X-14765366Y32764119D02*
X-15107386Y33703812D01*
X-14781653Y32808867D02*
X-14854861Y32731546D01*
X-15033850Y32666399D01*
X-15139631Y32678573D01*
X-15200665Y32707034D01*
X-15277986Y32780242D01*
X-15375706Y33048725D01*
X-15363532Y33154507D01*
X-15335071Y33215541D01*
X-15261863Y33292861D01*
X-15082874Y33358008D01*
X-14977093Y33345834D01*
X-15843578Y33081134D02*
X-15615564Y32454673D01*
X-15680711Y32633662D02*
X-15692885Y32527881D01*
X-15721346Y32466847D01*
X-15794553Y32389526D01*
X-15884048Y32356953D01*
X-16559534Y32820548D02*
X-16453753Y32808374D01*
X-16392719Y32779913D01*
X-16315398Y32706705D01*
X-16217678Y32438222D01*
X-16229852Y32332440D01*
X-16258313Y32271406D01*
X-16331521Y32194086D01*
X-16465762Y32145226D01*
X-16571544Y32157400D01*
X-16632578Y32185860D01*
X-16709898Y32259068D01*
X-16807618Y32527552D01*
X-16795444Y32633333D01*
X-16766984Y32694367D01*
X-16693776Y32771688D01*
X-16559534Y32820548D01*
X-17450202Y31786919D02*
X-17727076Y32547623D01*
X-17714902Y32653404D01*
X-17686441Y32714438D01*
X-17613233Y32791758D01*
X-17478992Y32840618D01*
X-17373210Y32828444D01*
X-17661929Y32368634D02*
X-17588721Y32445954D01*
X-17409732Y32511101D01*
X-17303951Y32498927D01*
X-17242917Y32470466D01*
X-17165596Y32397258D01*
X-17067876Y32128775D01*
X-17080050Y32022994D01*
X-17108511Y31961960D01*
X-17181719Y31884639D01*
X-17360708Y31819492D01*
X-17466489Y31831666D01*
X-18125688Y32250514D02*
X-17897675Y31624052D01*
X-17962822Y31803041D02*
X-17974996Y31697260D01*
X-18003456Y31636226D01*
X-18076664Y31558906D01*
X-18166159Y31526332D01*
X-19110128Y31892207D02*
X-18930975Y31399987D01*
X-18853654Y31326779D01*
X-18747873Y31314605D01*
X-18568884Y31379752D01*
X-18495676Y31457073D01*
X-19093842Y31847460D02*
X-19020634Y31924781D01*
X-18796897Y32006214D01*
X-18691116Y31994040D01*
X-18613796Y31920832D01*
X-18581222Y31831338D01*
X-18593396Y31725556D01*
X-18666604Y31648236D01*
X-18890340Y31566802D01*
X-18963548Y31489482D01*
X-19557601Y31729340D02*
X-19329588Y31102879D01*
X-19362161Y31192373D02*
X-19390621Y31131339D01*
X-19463829Y31054019D01*
X-19598071Y31005159D01*
X-19703852Y31017333D01*
X-19781173Y31090540D01*
X-19960326Y31582760D01*
X-19781173Y31090540D02*
X-19793347Y30984759D01*
X-19866555Y30907439D01*
X-20000797Y30858579D01*
X-20106578Y30870753D01*
X-20183898Y30943960D01*
X-20363052Y31436180D01*
X-20810524Y31273314D02*
X-20582511Y30646852D01*
X-20615084Y30736346D02*
X-20643545Y30675312D01*
X-20716753Y30597992D01*
X-20850995Y30549132D01*
X-20956776Y30561306D01*
X-21034096Y30634514D01*
X-21213250Y31126734D01*
X-21034096Y30634514D02*
X-21046270Y30528732D01*
X-21119478Y30451412D01*
X-21253720Y30402552D01*
X-21359501Y30414726D01*
X-21436822Y30487934D01*
X-21615975Y30980154D01*
X-22063448Y30817287D02*
X-21835435Y30190825D01*
X-21721428Y29877594D02*
X-21692967Y29938628D01*
X-21754001Y29967089D01*
X-21782462Y29906055D01*
X-21721428Y29877594D01*
X-21754001Y29967089D01*
X-22282907Y30027958D02*
X-22510921Y30654420D01*
X-22315481Y30117453D02*
X-22343941Y30056419D01*
X-22417149Y29979098D01*
X-22551391Y29930238D01*
X-22657172Y29942412D01*
X-22734493Y30015620D01*
X-22913646Y30507840D01*
X-23535831Y29571931D02*
X-23812704Y30332635D01*
X-23800530Y30438416D01*
X-23772070Y30499450D01*
X-23698862Y30576771D01*
X-23564620Y30625631D01*
X-23458839Y30613457D01*
X-23747557Y30153646D02*
X-23674350Y30230967D01*
X-23495361Y30296113D01*
X-23389579Y30283939D01*
X-23328545Y30255479D01*
X-23251225Y30182271D01*
X-23153505Y29913787D01*
X-23165679Y29808006D01*
X-23194139Y29746972D01*
X-23267347Y29669651D01*
X-23446336Y29604505D01*
X-23552117Y29616679D01*
X-4373173Y37905169D02*
X-4617473Y38576378D01*
X-4621586Y38726906D01*
X-4564664Y38848974D01*
X-4446709Y38942581D01*
X-4357215Y38975155D01*
X-4808471Y37848083D02*
X-4836932Y37787049D01*
X-4910140Y37709728D01*
X-5133876Y37628295D01*
X-5239657Y37640469D01*
X-5300691Y37668930D01*
X-5378012Y37742137D01*
X-5410585Y37831632D01*
X-5414698Y37982160D01*
X-5073171Y38714568D01*
X-5654885Y38502841D01*
X-6643274Y37737696D02*
X-7359230Y37477109D01*
X-8652952Y37411634D02*
X-8310932Y36471941D01*
X-8868463Y37029144D01*
X-8937394Y36243928D01*
X-9279414Y37183620D01*
X-10068578Y36845713D02*
X-9995370Y36923034D01*
X-9816381Y36988180D01*
X-9710600Y36976006D01*
X-9633280Y36902799D01*
X-9502986Y36544820D01*
X-9515160Y36439039D01*
X-9588368Y36361719D01*
X-9767357Y36296572D01*
X-9873138Y36308746D01*
X-9950459Y36381954D01*
X-9983032Y36471448D01*
X-9568133Y36723810D01*
X-10935063Y36581014D02*
X-10755910Y36088794D01*
X-10678589Y36015586D01*
X-10572808Y36003412D01*
X-10393819Y36068559D01*
X-10320611Y36145879D01*
X-10918776Y36536266D02*
X-10845569Y36613587D01*
X-10621832Y36695020D01*
X-10516051Y36682846D01*
X-10438730Y36609638D01*
X-10406157Y36520144D01*
X-10418331Y36414363D01*
X-10491539Y36337042D01*
X-10715275Y36255609D01*
X-10788483Y36178288D01*
X-11321502Y36389686D02*
X-11427283Y36401860D01*
X-11606272Y36336713D01*
X-11679480Y36259393D01*
X-11691654Y36153612D01*
X-11675367Y36108864D01*
X-11598047Y36035656D01*
X-11492265Y36023483D01*
X-11358024Y36072343D01*
X-11252242Y36060169D01*
X-11174922Y35986961D01*
X-11158635Y35942214D01*
X-11170809Y35836432D01*
X-11244017Y35759112D01*
X-11378259Y35710252D01*
X-11484040Y35722426D01*
X-12317951Y35368232D02*
X-12545965Y35994693D01*
X-11915226Y35514812D02*
X-12094379Y36007032D01*
X-12171700Y36080239D01*
X-12277481Y36092413D01*
X-12411723Y36043553D01*
X-12484931Y35966233D01*
X-12513391Y35905199D01*
X-12993437Y35831827D02*
X-12765424Y35205365D01*
X-12830571Y35384354D02*
X-12842745Y35278573D01*
X-12871205Y35217539D01*
X-12944413Y35140218D01*
X-13033908Y35107645D01*
X-13575152Y35620100D02*
X-13347138Y34993638D01*
X-13233132Y34680407D02*
X-13204671Y34741441D01*
X-13265705Y34769902D01*
X-13294166Y34708868D01*
X-13233132Y34680407D01*
X-13265705Y34769902D01*
X-13794611Y34830771D02*
X-14022625Y35457233D01*
X-13827184Y34920266D02*
X-13855645Y34859232D01*
X-13928853Y34781911D01*
X-14063095Y34733051D01*
X-14168876Y34745225D01*
X-14246197Y34818433D01*
X-14425350Y35310653D01*
X-15047535Y34374744D02*
X-15324408Y35135448D01*
X-15312234Y35241229D01*
X-15283774Y35302263D01*
X-15210566Y35379584D01*
X-15076324Y35428444D01*
X-14970543Y35416270D01*
X-15259261Y34956459D02*
X-15186054Y35033780D01*
X-15007064Y35098926D01*
X-14901283Y35086752D01*
X-14840249Y35058292D01*
X-14762929Y34985084D01*
X-14665209Y34716600D01*
X-14677383Y34610819D01*
X-14705843Y34549785D01*
X-14779051Y34472465D01*
X-14958040Y34407318D01*
X-15063821Y34419492D01*
X-16377943Y34549292D02*
X-16483724Y34561466D01*
X-16662713Y34496319D01*
X-16735921Y34418999D01*
X-16748095Y34313218D01*
X-16731808Y34268470D01*
X-16654488Y34195262D01*
X-16548707Y34183088D01*
X-16414465Y34231948D01*
X-16308684Y34219775D01*
X-16231363Y34146567D01*
X-16215076Y34101819D01*
X-16227250Y33996038D01*
X-16300458Y33918718D01*
X-16434700Y33869858D01*
X-16540481Y33882032D01*
X-17199681Y34300879D02*
X-16971667Y33674418D01*
X-16857660Y33361187D02*
X-16829200Y33422221D01*
X-16890234Y33450681D01*
X-16918694Y33389647D01*
X-16857660Y33361187D01*
X-16890234Y33450681D01*
X-17821865Y33364971D02*
X-18098739Y34125674D01*
X-18086565Y34231455D01*
X-18058104Y34292489D01*
X-17984896Y34369810D01*
X-17850654Y34418670D01*
X-17744873Y34406496D01*
X-18033592Y33946685D02*
X-17960384Y34024006D01*
X-17781395Y34089153D01*
X-17675614Y34076979D01*
X-17614580Y34048518D01*
X-17537259Y33975310D01*
X-17439539Y33706827D01*
X-17451713Y33601045D01*
X-17480174Y33540011D01*
X-17553382Y33462691D01*
X-17732371Y33397544D01*
X-17838152Y33409718D01*
X-18269338Y33202104D02*
X-18497351Y33828566D01*
X-18301911Y33291599D02*
X-18330372Y33230565D01*
X-18403580Y33153244D01*
X-18537821Y33104384D01*
X-18643603Y33116558D01*
X-18720923Y33189766D01*
X-18900077Y33681986D01*
X-19750275Y33372539D02*
X-19571121Y32880319D01*
X-19493801Y32807111D01*
X-19388020Y32794937D01*
X-19209031Y32860084D01*
X-19135823Y32937404D01*
X-19733988Y33327792D02*
X-19660780Y33405112D01*
X-19437044Y33486546D01*
X-19331263Y33474372D01*
X-19253942Y33401164D01*
X-19221369Y33311669D01*
X-19233543Y33205888D01*
X-19306751Y33128567D01*
X-19530487Y33047134D01*
X-19603695Y32969813D01*
X-20331989Y33160812D02*
X-20226208Y33148638D01*
X-20148887Y33075430D01*
X-19855727Y32269980D01*
D10*
X3131777Y-37980539D02*
X3239273Y-38590182D01*
X1959023Y-38815924D01*
X2385922Y-37672035D02*
X2310675Y-37245285D01*
X2949033Y-36944146D02*
X3056529Y-37553789D01*
X1776279Y-37779531D01*
X1668783Y-37169888D01*
X2852286Y-36395467D02*
X1572036Y-36621210D01*
X1518288Y-36316388D01*
X1547003Y-36122746D01*
X1647432Y-35979318D01*
X1758611Y-35896854D01*
X1991719Y-35792891D01*
X2174612Y-35760642D01*
X2429219Y-35778608D01*
X2561897Y-35818073D01*
X2705325Y-35918502D01*
X2798538Y-36090646D01*
X2852286Y-36395467D01*
X2508297Y-34444610D02*
X2637293Y-35176181D01*
X2572795Y-34810396D02*
X1292545Y-35036138D01*
X1496937Y-35125818D01*
X1640365Y-35226247D01*
X1722829Y-35337426D01*
X7244576Y-37352981D02*
X7404797Y-37950935D01*
X6149094Y-38287400D01*
X6474672Y-37110657D02*
X6362517Y-36692089D01*
X6972200Y-36336459D02*
X7132421Y-36934413D01*
X5876717Y-37270878D01*
X5716496Y-36672924D01*
X6828001Y-35798301D02*
X5572297Y-36134765D01*
X5492186Y-35835788D01*
X5503915Y-35640380D01*
X5591462Y-35488745D01*
X5695031Y-35396905D01*
X5918190Y-35273021D01*
X6097576Y-35224955D01*
X6352780Y-35220662D01*
X6488393Y-35248413D01*
X6640028Y-35335960D01*
X6747890Y-35499324D01*
X6828001Y-35798301D01*
X5371445Y-34906813D02*
X5295628Y-34863040D01*
X5203788Y-34759471D01*
X5123677Y-34460494D01*
X5151428Y-34324881D01*
X5195202Y-34249064D01*
X5298770Y-34157224D01*
X5418361Y-34125180D01*
X5613770Y-34136909D01*
X6523580Y-34662188D01*
X6315292Y-33884848D01*
X23500929Y25796306D02*
X23945684Y26750087D01*
X23941903Y26888458D01*
X23911961Y26970725D01*
X23825913Y27079154D01*
X23601494Y27183803D01*
X23463123Y27180022D01*
X23380856Y27150079D01*
X23272427Y27064032D01*
X22827671Y26110251D01*
X22845970Y27467805D02*
X22703818Y27602396D01*
X22423294Y27733206D01*
X22284922Y27729426D01*
X22202656Y27699483D01*
X22094227Y27613436D01*
X22041902Y27501226D01*
X22045683Y27362854D01*
X22075626Y27280588D01*
X22161673Y27172159D01*
X22359930Y27011406D01*
X22445978Y26902977D01*
X22475920Y26820710D01*
X22479701Y26682338D01*
X22427377Y26570129D01*
X22318948Y26484081D01*
X22236681Y26454138D01*
X22098309Y26450358D01*
X21817786Y26581168D01*
X21675633Y26715759D01*
X21312843Y26816627D02*
X20639585Y27130572D01*
X21525618Y28151800D02*
X20976214Y26973600D01*
X20415166Y27235220D02*
X19741909Y27549165D01*
X20627941Y28570393D02*
X20078538Y27392193D01*
X19898580Y28910500D02*
X19349176Y27732300D01*
X19610797Y28293348D02*
X18937539Y28607293D01*
X19225322Y29224445D02*
X18675919Y28046245D01*
X18114871Y28307866D02*
X18559626Y29261647D01*
X18555846Y29400018D01*
X18525903Y29482285D01*
X18439856Y29590714D01*
X18215436Y29695363D01*
X18077065Y29691582D01*
X17994798Y29661639D01*
X17886369Y29575592D01*
X17441614Y28621811D01*
X17429970Y30061632D02*
X16880566Y28883432D01*
X16756713Y30375577D01*
X16207309Y29197377D01*
X16195665Y30637198D02*
X15646261Y29458997D01*
X15365737Y29589808D01*
X15223585Y29724399D01*
X15163700Y29888933D01*
X15159919Y30027304D01*
X15208463Y30277885D01*
X15286949Y30446200D01*
X15447702Y30644457D01*
X15556131Y30730504D01*
X15720665Y30790389D01*
X15915141Y30768008D01*
X16195665Y30637198D01*
X14729682Y30569449D02*
X14336948Y30752583D01*
X14456417Y31448222D02*
X15017465Y31186601D01*
X14468061Y30008401D01*
X13907013Y30270022D01*
X13278217Y31997626D02*
X13409329Y31253444D01*
X13951474Y31683681D02*
X13402070Y30505481D01*
X12953232Y30714777D01*
X12867185Y30823206D01*
X12837242Y30905473D01*
X12833461Y31043845D01*
X12911948Y31212159D01*
X13020377Y31298207D01*
X13102644Y31328149D01*
X13241015Y31331930D01*
X13689853Y31122633D01*
X12773274Y32233085D02*
X12223870Y31054884D01*
X12223568Y32079591D01*
X11438404Y31421154D01*
X11987807Y32599354D01*
X11426760Y32860975D02*
X10877356Y31682774D01*
X10304664Y33384216D02*
X10865712Y33122595D01*
X10316308Y31944395D01*
X9350883Y33828972D02*
X9911931Y33567351D01*
X9362527Y32389151D01*
X8958150Y34012106D02*
X8408746Y32833906D01*
X7959908Y33043203D01*
X7873860Y33151632D01*
X7843918Y33233899D01*
X7840137Y33372270D01*
X7918623Y33540584D01*
X8027052Y33626632D01*
X8109319Y33656575D01*
X8247691Y33660355D01*
X8696529Y33451059D01*
X7054368Y34763245D02*
X7136635Y34793188D01*
X7331112Y34770807D01*
X7443321Y34718482D01*
X7585473Y34583891D01*
X7645359Y34419358D01*
X7649139Y34280986D01*
X7600596Y34030405D01*
X7522109Y33862091D01*
X7361356Y33663834D01*
X7252927Y33577786D01*
X7088394Y33517901D01*
X6893917Y33540282D01*
X6781708Y33592606D01*
X6639556Y33727198D01*
X6609613Y33809464D01*
X5921233Y34676896D02*
X5779081Y34811487D01*
X5749138Y34893754D01*
X5745358Y35032125D01*
X5823844Y35200440D01*
X5932273Y35286487D01*
X6014540Y35316430D01*
X6152911Y35320210D01*
X6601750Y35110914D01*
X6052346Y33932714D01*
X5659612Y34115848D01*
X5573565Y34224277D01*
X5543622Y34306544D01*
X5539842Y34444916D01*
X5592166Y34557125D01*
X5700595Y34643173D01*
X5782862Y34673115D01*
X5921233Y34676896D01*
X6313967Y34493761D01*
X4649727Y34586766D02*
X4537517Y34639090D01*
X4451470Y34747519D01*
X4421527Y34829786D01*
X4417746Y34968157D01*
X4466290Y35218738D01*
X4597100Y35499262D01*
X4757853Y35697519D01*
X4866282Y35783567D01*
X4948549Y35813509D01*
X5086921Y35817290D01*
X5199130Y35764966D01*
X5285178Y35656537D01*
X5315120Y35574270D01*
X5318901Y35435898D01*
X5270358Y35185317D01*
X5139547Y34904793D01*
X4978794Y34706536D01*
X4870365Y34620489D01*
X4788098Y34590546D01*
X4649727Y34586766D01*
X3684302Y36471342D02*
X4357559Y36157397D01*
X4020930Y36314370D02*
X3471526Y35136169D01*
X3662222Y35252160D01*
X3826756Y35312045D01*
X3965128Y35315825D01*
X2498842Y36272783D02*
X2356690Y36407374D01*
X2326748Y36489641D01*
X2322967Y36628012D01*
X2401453Y36796327D01*
X2509882Y36882374D01*
X2592149Y36912317D01*
X2730521Y36916097D01*
X3179359Y36706801D01*
X2629955Y35528601D01*
X2237222Y35711735D01*
X2151174Y35820164D01*
X2121231Y35902431D01*
X2117451Y36040803D01*
X2169775Y36153012D01*
X2278204Y36239060D01*
X2360471Y36269002D01*
X2498842Y36272783D01*
X2891576Y36089648D01*
X15713501Y31873621D02*
X15631235Y31843679D01*
X15492863Y31839898D01*
X15212339Y31970708D01*
X15126292Y32079137D01*
X15096349Y32161404D01*
X15092568Y32299776D01*
X15144892Y32411985D01*
X15279483Y32554138D01*
X16266686Y32913450D01*
X15537324Y33253557D01*
X14258558Y32415464D02*
X14146348Y32467788D01*
X14060301Y32576217D01*
X14030358Y32658484D01*
X14026578Y32796855D01*
X14075121Y33047436D01*
X14205932Y33327960D01*
X14366685Y33526217D01*
X14475114Y33612265D01*
X14557381Y33642207D01*
X14695752Y33645988D01*
X14807962Y33593664D01*
X14894009Y33485235D01*
X14923952Y33402968D01*
X14927732Y33264596D01*
X14879189Y33014015D01*
X14748378Y32733491D01*
X14587625Y32535234D01*
X14479196Y32449187D01*
X14396930Y32419244D01*
X14258558Y32415464D01*
X13469311Y32920105D02*
X13387044Y32890162D01*
X13248672Y32886381D01*
X12968148Y33017192D01*
X12882101Y33125621D01*
X12852158Y33207887D01*
X12848378Y33346259D01*
X12900702Y33458469D01*
X13035293Y33600621D01*
X14022495Y33959933D01*
X13293133Y34300040D01*
X12350996Y33304975D02*
X11621634Y33645082D01*
X12223664Y33910785D01*
X12055350Y33989271D01*
X11969302Y34097700D01*
X11939360Y34179967D01*
X11935579Y34318339D01*
X12066389Y34598863D01*
X12174818Y34684910D01*
X12257085Y34714853D01*
X12395457Y34718633D01*
X12732085Y34561661D01*
X12818133Y34453232D01*
X12848075Y34370965D01*
X34407142Y-13164285D02*
X34469047Y-12978571D01*
X34530952Y-12916666D01*
X34654761Y-12854761D01*
X34840476Y-12854761D01*
X34964285Y-12916666D01*
X35026190Y-12978571D01*
X35088095Y-13102380D01*
X35088095Y-13597619D01*
X33788095Y-13597619D01*
X33788095Y-13164285D01*
X33850000Y-13040476D01*
X33911904Y-12978571D01*
X34035714Y-12916666D01*
X34159523Y-12916666D01*
X34283333Y-12978571D01*
X34345238Y-13040476D01*
X34407142Y-13164285D01*
X34407142Y-13597619D01*
X34221428Y-11740476D02*
X35088095Y-11740476D01*
X34221428Y-12297619D02*
X34902380Y-12297619D01*
X35026190Y-12235714D01*
X35088095Y-12111904D01*
X35088095Y-11926190D01*
X35026190Y-11802380D01*
X34964285Y-11740476D01*
X34221428Y-11307142D02*
X34221428Y-10811904D01*
X33788095Y-11121428D02*
X34902380Y-11121428D01*
X35026190Y-11059523D01*
X35088095Y-10935714D01*
X35088095Y-10811904D01*
X34221428Y-10564285D02*
X34221428Y-10069047D01*
X33788095Y-10378571D02*
X34902380Y-10378571D01*
X35026190Y-10316666D01*
X35088095Y-10192857D01*
X35088095Y-10069047D01*
X35088095Y-9450000D02*
X35026190Y-9573809D01*
X34964285Y-9635714D01*
X34840476Y-9697619D01*
X34469047Y-9697619D01*
X34345238Y-9635714D01*
X34283333Y-9573809D01*
X34221428Y-9450000D01*
X34221428Y-9264285D01*
X34283333Y-9140476D01*
X34345238Y-9078571D01*
X34469047Y-9016666D01*
X34840476Y-9016666D01*
X34964285Y-9078571D01*
X35026190Y-9140476D01*
X35088095Y-9264285D01*
X35088095Y-9450000D01*
X34221428Y-8459523D02*
X35088095Y-8459523D01*
X34345238Y-8459523D02*
X34283333Y-8397619D01*
X34221428Y-8273809D01*
X34221428Y-8088095D01*
X34283333Y-7964285D01*
X34407142Y-7902380D01*
X35088095Y-7902380D01*
D12*
%TO.C,U4*%
X-21426143Y9634572D02*
X-21426143Y8400858D01*
X-21353572Y8255715D01*
X-21281000Y8183143D01*
X-21135858Y8110572D01*
X-20845572Y8110572D01*
X-20700429Y8183143D01*
X-20627858Y8255715D01*
X-20555286Y8400858D01*
X-20555286Y9634572D01*
X-19176429Y9126572D02*
X-19176429Y8110572D01*
X-19539286Y9707143D02*
X-19902143Y8618572D01*
X-18958715Y8618572D01*
D11*
%TO.C,R5*%
X9452380Y-28416666D02*
X8976190Y-28750000D01*
X9452380Y-28988095D02*
X8452380Y-28988095D01*
X8452380Y-28607142D01*
X8500000Y-28511904D01*
X8547619Y-28464285D01*
X8642857Y-28416666D01*
X8785714Y-28416666D01*
X8880952Y-28464285D01*
X8928571Y-28511904D01*
X8976190Y-28607142D01*
X8976190Y-28988095D01*
X8452380Y-27511904D02*
X8452380Y-27988095D01*
X8928571Y-28035714D01*
X8880952Y-27988095D01*
X8833333Y-27892857D01*
X8833333Y-27654761D01*
X8880952Y-27559523D01*
X8928571Y-27511904D01*
X9023809Y-27464285D01*
X9261904Y-27464285D01*
X9357142Y-27511904D01*
X9404761Y-27559523D01*
X9452380Y-27654761D01*
X9452380Y-27892857D01*
X9404761Y-27988095D01*
X9357142Y-28035714D01*
%TO.C,R26*%
X8252380Y-7642857D02*
X7776190Y-7976190D01*
X8252380Y-8214285D02*
X7252380Y-8214285D01*
X7252380Y-7833333D01*
X7300000Y-7738095D01*
X7347619Y-7690476D01*
X7442857Y-7642857D01*
X7585714Y-7642857D01*
X7680952Y-7690476D01*
X7728571Y-7738095D01*
X7776190Y-7833333D01*
X7776190Y-8214285D01*
X7347619Y-7261904D02*
X7300000Y-7214285D01*
X7252380Y-7119047D01*
X7252380Y-6880952D01*
X7300000Y-6785714D01*
X7347619Y-6738095D01*
X7442857Y-6690476D01*
X7538095Y-6690476D01*
X7680952Y-6738095D01*
X8252380Y-7309523D01*
X8252380Y-6690476D01*
X7252380Y-5833333D02*
X7252380Y-6023809D01*
X7300000Y-6119047D01*
X7347619Y-6166666D01*
X7490476Y-6261904D01*
X7680952Y-6309523D01*
X8061904Y-6309523D01*
X8157142Y-6261904D01*
X8204761Y-6214285D01*
X8252380Y-6119047D01*
X8252380Y-5928571D01*
X8204761Y-5833333D01*
X8157142Y-5785714D01*
X8061904Y-5738095D01*
X7823809Y-5738095D01*
X7728571Y-5785714D01*
X7680952Y-5833333D01*
X7633333Y-5928571D01*
X7633333Y-6119047D01*
X7680952Y-6214285D01*
X7728571Y-6261904D01*
X7823809Y-6309523D01*
%TO.C,R16*%
X-26184689Y-12724450D02*
X-26757108Y-12623435D01*
X-26588750Y-13128511D02*
X-27295856Y-12421404D01*
X-27026482Y-12152030D01*
X-26925467Y-12118358D01*
X-26858124Y-12118358D01*
X-26757108Y-12152030D01*
X-26656093Y-12253045D01*
X-26622421Y-12354061D01*
X-26622421Y-12421404D01*
X-26656093Y-12522419D01*
X-26925467Y-12791793D01*
X-25511253Y-12051015D02*
X-25915314Y-12455076D01*
X-25713284Y-12253045D02*
X-26420391Y-11545938D01*
X-26386719Y-11714297D01*
X-26386719Y-11848984D01*
X-26420391Y-11950000D01*
X-25612269Y-10737816D02*
X-25746956Y-10872503D01*
X-25780627Y-10973519D01*
X-25780627Y-11040862D01*
X-25746956Y-11209221D01*
X-25645940Y-11377580D01*
X-25376566Y-11646954D01*
X-25275551Y-11680625D01*
X-25208208Y-11680625D01*
X-25107192Y-11646954D01*
X-24972505Y-11512267D01*
X-24938834Y-11411251D01*
X-24938834Y-11343908D01*
X-24972505Y-11242893D01*
X-25140864Y-11074534D01*
X-25241879Y-11040862D01*
X-25309223Y-11040862D01*
X-25410238Y-11074534D01*
X-25544925Y-11209221D01*
X-25578597Y-11310236D01*
X-25578597Y-11377580D01*
X-25544925Y-11478595D01*
%TO.C,C14*%
X21317142Y-8852857D02*
X21364761Y-8900476D01*
X21412380Y-9043333D01*
X21412380Y-9138571D01*
X21364761Y-9281428D01*
X21269523Y-9376666D01*
X21174285Y-9424285D01*
X20983809Y-9471904D01*
X20840952Y-9471904D01*
X20650476Y-9424285D01*
X20555238Y-9376666D01*
X20460000Y-9281428D01*
X20412380Y-9138571D01*
X20412380Y-9043333D01*
X20460000Y-8900476D01*
X20507619Y-8852857D01*
X21412380Y-7900476D02*
X21412380Y-8471904D01*
X21412380Y-8186190D02*
X20412380Y-8186190D01*
X20555238Y-8281428D01*
X20650476Y-8376666D01*
X20698095Y-8471904D01*
X20745714Y-7043333D02*
X21412380Y-7043333D01*
X20364761Y-7281428D02*
X21079047Y-7519523D01*
X21079047Y-6900476D01*
%TO.C,C6*%
X-3398108Y11769282D02*
X-3403977Y11702195D01*
X-3482803Y11573890D01*
X-3555760Y11512672D01*
X-3695803Y11457323D01*
X-3829978Y11469062D01*
X-3927674Y11511410D01*
X-4086588Y11626714D01*
X-4178415Y11736149D01*
X-4264372Y11912671D01*
X-4289112Y12016237D01*
X-4277373Y12150411D01*
X-4198547Y12278716D01*
X-4125591Y12339934D01*
X-3985547Y12395283D01*
X-3918459Y12389413D01*
X-3323068Y13013331D02*
X-3468981Y12890895D01*
X-3511329Y12793199D01*
X-3517198Y12726111D01*
X-3498328Y12555459D01*
X-3412370Y12378936D01*
X-3167499Y12087110D01*
X-3069803Y12044762D01*
X-3002716Y12038893D01*
X-2899150Y12063633D01*
X-2753237Y12186068D01*
X-2710889Y12283764D01*
X-2705020Y12350852D01*
X-2729759Y12454417D01*
X-2882804Y12636809D01*
X-2980500Y12679156D01*
X-3047587Y12685026D01*
X-3151153Y12660286D01*
X-3297066Y12537851D01*
X-3339414Y12440154D01*
X-3345283Y12373067D01*
X-3320544Y12269502D01*
%TO.C,R21*%
X12602380Y-30342857D02*
X12126190Y-30676190D01*
X12602380Y-30914285D02*
X11602380Y-30914285D01*
X11602380Y-30533333D01*
X11650000Y-30438095D01*
X11697619Y-30390476D01*
X11792857Y-30342857D01*
X11935714Y-30342857D01*
X12030952Y-30390476D01*
X12078571Y-30438095D01*
X12126190Y-30533333D01*
X12126190Y-30914285D01*
X11697619Y-29961904D02*
X11650000Y-29914285D01*
X11602380Y-29819047D01*
X11602380Y-29580952D01*
X11650000Y-29485714D01*
X11697619Y-29438095D01*
X11792857Y-29390476D01*
X11888095Y-29390476D01*
X12030952Y-29438095D01*
X12602380Y-30009523D01*
X12602380Y-29390476D01*
X12602380Y-28438095D02*
X12602380Y-29009523D01*
X12602380Y-28723809D02*
X11602380Y-28723809D01*
X11745238Y-28819047D01*
X11840476Y-28914285D01*
X11888095Y-29009523D01*
%TO.C,R9*%
X-12947620Y10583334D02*
X-13423810Y10250000D01*
X-12947620Y10011905D02*
X-13947620Y10011905D01*
X-13947620Y10392858D01*
X-13900000Y10488096D01*
X-13852381Y10535715D01*
X-13757143Y10583334D01*
X-13614286Y10583334D01*
X-13519048Y10535715D01*
X-13471429Y10488096D01*
X-13423810Y10392858D01*
X-13423810Y10011905D01*
X-12947620Y11059524D02*
X-12947620Y11250000D01*
X-12995239Y11345239D01*
X-13042858Y11392858D01*
X-13185715Y11488096D01*
X-13376191Y11535715D01*
X-13757143Y11535715D01*
X-13852381Y11488096D01*
X-13900000Y11440477D01*
X-13947620Y11345239D01*
X-13947620Y11154762D01*
X-13900000Y11059524D01*
X-13852381Y11011905D01*
X-13757143Y10964286D01*
X-13519048Y10964286D01*
X-13423810Y11011905D01*
X-13376191Y11059524D01*
X-13328572Y11154762D01*
X-13328572Y11345239D01*
X-13376191Y11440477D01*
X-13423810Y11488096D01*
X-13519048Y11535715D01*
%TO.C,R3*%
X30364133Y7501820D02*
X30030800Y7978010D01*
X29792704Y7501820D02*
X29792704Y8501820D01*
X30173657Y8501820D01*
X30268895Y8454200D01*
X30316514Y8406581D01*
X30364133Y8311343D01*
X30364133Y8168486D01*
X30316514Y8073248D01*
X30268895Y8025629D01*
X30173657Y7978010D01*
X29792704Y7978010D01*
X30697466Y8501820D02*
X31316514Y8501820D01*
X30983180Y8120867D01*
X31126038Y8120867D01*
X31221276Y8073248D01*
X31268895Y8025629D01*
X31316514Y7930391D01*
X31316514Y7692296D01*
X31268895Y7597058D01*
X31221276Y7549439D01*
X31126038Y7501820D01*
X30840323Y7501820D01*
X30745085Y7549439D01*
X30697466Y7597058D01*
%TO.C,R1*%
X24103533Y17085220D02*
X23770200Y17561410D01*
X23532104Y17085220D02*
X23532104Y18085220D01*
X23913057Y18085220D01*
X24008295Y18037600D01*
X24055914Y17989981D01*
X24103533Y17894743D01*
X24103533Y17751886D01*
X24055914Y17656648D01*
X24008295Y17609029D01*
X23913057Y17561410D01*
X23532104Y17561410D01*
X25055914Y17085220D02*
X24484485Y17085220D01*
X24770200Y17085220D02*
X24770200Y18085220D01*
X24674961Y17942362D01*
X24579723Y17847124D01*
X24484485Y17799505D01*
%TO.C,R8*%
X-20016667Y-6702380D02*
X-20350000Y-6226190D01*
X-20588096Y-6702380D02*
X-20588096Y-5702380D01*
X-20207143Y-5702380D01*
X-20111905Y-5750000D01*
X-20064286Y-5797619D01*
X-20016667Y-5892857D01*
X-20016667Y-6035714D01*
X-20064286Y-6130952D01*
X-20111905Y-6178571D01*
X-20207143Y-6226190D01*
X-20588096Y-6226190D01*
X-19445239Y-6130952D02*
X-19540477Y-6083333D01*
X-19588096Y-6035714D01*
X-19635715Y-5940476D01*
X-19635715Y-5892857D01*
X-19588096Y-5797619D01*
X-19540477Y-5750000D01*
X-19445239Y-5702380D01*
X-19254762Y-5702380D01*
X-19159524Y-5750000D01*
X-19111905Y-5797619D01*
X-19064286Y-5892857D01*
X-19064286Y-5940476D01*
X-19111905Y-6035714D01*
X-19159524Y-6083333D01*
X-19254762Y-6130952D01*
X-19445239Y-6130952D01*
X-19540477Y-6178571D01*
X-19588096Y-6226190D01*
X-19635715Y-6321428D01*
X-19635715Y-6511904D01*
X-19588096Y-6607142D01*
X-19540477Y-6654761D01*
X-19445239Y-6702380D01*
X-19254762Y-6702380D01*
X-19159524Y-6654761D01*
X-19111905Y-6607142D01*
X-19064286Y-6511904D01*
X-19064286Y-6321428D01*
X-19111905Y-6226190D01*
X-19159524Y-6178571D01*
X-19254762Y-6130952D01*
%TO.C,R24*%
X-27223811Y15861687D02*
X-27324667Y16434135D01*
X-27741702Y16103183D02*
X-27319083Y17009491D01*
X-26973823Y16848494D01*
X-26907633Y16765087D01*
X-26884600Y16701805D01*
X-26881692Y16595365D01*
X-26942066Y16465892D01*
X-27025473Y16399702D01*
X-27088755Y16376669D01*
X-27195195Y16373761D01*
X-27540455Y16534759D01*
X-26496182Y16520683D02*
X-26432900Y16543715D01*
X-26326460Y16546624D01*
X-26110673Y16446000D01*
X-26044483Y16362593D01*
X-26021450Y16299311D01*
X-26018542Y16192871D01*
X-26058791Y16106556D01*
X-26162322Y15997209D01*
X-26921709Y15720815D01*
X-26360661Y15459194D01*
X-25302080Y15701155D02*
X-25583826Y15096949D01*
X-25356870Y16147038D02*
X-25874528Y15600299D01*
X-25313481Y15338678D01*
%TO.C,C10*%
X18657142Y3857143D02*
X18704761Y3809524D01*
X18752380Y3666667D01*
X18752380Y3571429D01*
X18704761Y3428572D01*
X18609523Y3333334D01*
X18514285Y3285715D01*
X18323809Y3238096D01*
X18180952Y3238096D01*
X17990476Y3285715D01*
X17895238Y3333334D01*
X17800000Y3428572D01*
X17752380Y3571429D01*
X17752380Y3666667D01*
X17800000Y3809524D01*
X17847619Y3857143D01*
X18752380Y4809524D02*
X18752380Y4238096D01*
X18752380Y4523810D02*
X17752380Y4523810D01*
X17895238Y4428572D01*
X17990476Y4333334D01*
X18038095Y4238096D01*
X17752380Y5428572D02*
X17752380Y5523810D01*
X17800000Y5619048D01*
X17847619Y5666667D01*
X17942857Y5714286D01*
X18133333Y5761905D01*
X18371428Y5761905D01*
X18561904Y5714286D01*
X18657142Y5666667D01*
X18704761Y5619048D01*
X18752380Y5523810D01*
X18752380Y5428572D01*
X18704761Y5333334D01*
X18657142Y5285715D01*
X18561904Y5238096D01*
X18371428Y5190477D01*
X18133333Y5190477D01*
X17942857Y5238096D01*
X17847619Y5285715D01*
X17800000Y5333334D01*
X17752380Y5428572D01*
%TO.C,C9*%
X15783333Y11442858D02*
X15735714Y11395239D01*
X15592857Y11347620D01*
X15497619Y11347620D01*
X15354761Y11395239D01*
X15259523Y11490477D01*
X15211904Y11585715D01*
X15164285Y11776191D01*
X15164285Y11919048D01*
X15211904Y12109524D01*
X15259523Y12204762D01*
X15354761Y12300000D01*
X15497619Y12347620D01*
X15592857Y12347620D01*
X15735714Y12300000D01*
X15783333Y12252381D01*
X16259523Y11347620D02*
X16450000Y11347620D01*
X16545238Y11395239D01*
X16592857Y11442858D01*
X16688095Y11585715D01*
X16735714Y11776191D01*
X16735714Y12157143D01*
X16688095Y12252381D01*
X16640476Y12300000D01*
X16545238Y12347620D01*
X16354761Y12347620D01*
X16259523Y12300000D01*
X16211904Y12252381D01*
X16164285Y12157143D01*
X16164285Y11919048D01*
X16211904Y11823810D01*
X16259523Y11776191D01*
X16354761Y11728572D01*
X16545238Y11728572D01*
X16640476Y11776191D01*
X16688095Y11823810D01*
X16735714Y11919048D01*
%TO.C,C21*%
X20057142Y-12642857D02*
X20104761Y-12690476D01*
X20152380Y-12833333D01*
X20152380Y-12928571D01*
X20104761Y-13071428D01*
X20009523Y-13166666D01*
X19914285Y-13214285D01*
X19723809Y-13261904D01*
X19580952Y-13261904D01*
X19390476Y-13214285D01*
X19295238Y-13166666D01*
X19200000Y-13071428D01*
X19152380Y-12928571D01*
X19152380Y-12833333D01*
X19200000Y-12690476D01*
X19247619Y-12642857D01*
X19247619Y-12261904D02*
X19200000Y-12214285D01*
X19152380Y-12119047D01*
X19152380Y-11880952D01*
X19200000Y-11785714D01*
X19247619Y-11738095D01*
X19342857Y-11690476D01*
X19438095Y-11690476D01*
X19580952Y-11738095D01*
X20152380Y-12309523D01*
X20152380Y-11690476D01*
X20152380Y-10738095D02*
X20152380Y-11309523D01*
X20152380Y-11023809D02*
X19152380Y-11023809D01*
X19295238Y-11119047D01*
X19390476Y-11214285D01*
X19438095Y-11309523D01*
%TO.C,U9*%
X-19825974Y-20501522D02*
X-19253554Y-21073942D01*
X-19152539Y-21107614D01*
X-19085195Y-21107614D01*
X-18984180Y-21073942D01*
X-18849493Y-20939255D01*
X-18815821Y-20838240D01*
X-18815821Y-20770896D01*
X-18849493Y-20669881D01*
X-19421913Y-20097461D01*
X-18344417Y-20434179D02*
X-18209730Y-20299492D01*
X-18176058Y-20198477D01*
X-18176058Y-20131133D01*
X-18209730Y-19962774D01*
X-18310745Y-19794416D01*
X-18580119Y-19525042D01*
X-18681134Y-19491370D01*
X-18748478Y-19491370D01*
X-18849493Y-19525042D01*
X-18984180Y-19659729D01*
X-19017852Y-19760744D01*
X-19017852Y-19828087D01*
X-18984180Y-19929103D01*
X-18815821Y-20097461D01*
X-18714806Y-20131133D01*
X-18647462Y-20131133D01*
X-18546447Y-20097461D01*
X-18411760Y-19962774D01*
X-18378088Y-19861759D01*
X-18378088Y-19794416D01*
X-18411760Y-19693400D01*
%TO.C,R27*%
X5881023Y8956888D02*
X5982038Y9529307D01*
X5476962Y9360949D02*
X6184069Y10068055D01*
X6453443Y9798681D01*
X6487115Y9697666D01*
X6487115Y9630323D01*
X6453443Y9529307D01*
X6352428Y9428292D01*
X6251412Y9394620D01*
X6184069Y9394620D01*
X6083054Y9428292D01*
X5813680Y9697666D01*
X6790161Y9327277D02*
X6857504Y9327277D01*
X6958519Y9293605D01*
X7126878Y9125246D01*
X7160550Y9024231D01*
X7160550Y8956888D01*
X7126878Y8855872D01*
X7059535Y8788529D01*
X6924848Y8721185D01*
X6116725Y8721185D01*
X6554458Y8283452D01*
X7497267Y8754857D02*
X7968672Y8283452D01*
X6958519Y7879391D01*
%TO.C,R7*%
X-17697620Y18533334D02*
X-18173810Y18200000D01*
X-17697620Y17961905D02*
X-18697620Y17961905D01*
X-18697620Y18342858D01*
X-18650000Y18438096D01*
X-18602381Y18485715D01*
X-18507143Y18533334D01*
X-18364286Y18533334D01*
X-18269048Y18485715D01*
X-18221429Y18438096D01*
X-18173810Y18342858D01*
X-18173810Y17961905D01*
X-18697620Y18866667D02*
X-18697620Y19533334D01*
X-17697620Y19104762D01*
%TO.C,J1*%
X-33187185Y9679332D02*
X-32539822Y9377462D01*
X-32430474Y9273930D01*
X-32384408Y9147366D01*
X-32401625Y8997768D01*
X-32441874Y8911453D01*
X-31858259Y10163021D02*
X-32099755Y9645131D01*
X-31979007Y9904076D02*
X-32885314Y10326694D01*
X-32796091Y10180005D01*
X-32750026Y10053441D01*
X-32747117Y9947001D01*
%TO.C,C19*%
X13057142Y-7692857D02*
X13104761Y-7740476D01*
X13152380Y-7883333D01*
X13152380Y-7978571D01*
X13104761Y-8121428D01*
X13009523Y-8216666D01*
X12914285Y-8264285D01*
X12723809Y-8311904D01*
X12580952Y-8311904D01*
X12390476Y-8264285D01*
X12295238Y-8216666D01*
X12200000Y-8121428D01*
X12152380Y-7978571D01*
X12152380Y-7883333D01*
X12200000Y-7740476D01*
X12247619Y-7692857D01*
X13152380Y-6740476D02*
X13152380Y-7311904D01*
X13152380Y-7026190D02*
X12152380Y-7026190D01*
X12295238Y-7121428D01*
X12390476Y-7216666D01*
X12438095Y-7311904D01*
X13152380Y-6264285D02*
X13152380Y-6073809D01*
X13104761Y-5978571D01*
X13057142Y-5930952D01*
X12914285Y-5835714D01*
X12723809Y-5788095D01*
X12342857Y-5788095D01*
X12247619Y-5835714D01*
X12200000Y-5883333D01*
X12152380Y-5978571D01*
X12152380Y-6169047D01*
X12200000Y-6264285D01*
X12247619Y-6311904D01*
X12342857Y-6359523D01*
X12580952Y-6359523D01*
X12676190Y-6311904D01*
X12723809Y-6264285D01*
X12771428Y-6169047D01*
X12771428Y-5978571D01*
X12723809Y-5883333D01*
X12676190Y-5835714D01*
X12580952Y-5788095D01*
%TO.C,JP3*%
X-30433334Y7347620D02*
X-30433334Y6633334D01*
X-30480953Y6490477D01*
X-30576191Y6395239D01*
X-30719048Y6347620D01*
X-30814286Y6347620D01*
X-29957143Y6347620D02*
X-29957143Y7347620D01*
X-29576191Y7347620D01*
X-29480953Y7300000D01*
X-29433334Y7252381D01*
X-29385715Y7157143D01*
X-29385715Y7014286D01*
X-29433334Y6919048D01*
X-29480953Y6871429D01*
X-29576191Y6823810D01*
X-29957143Y6823810D01*
X-29052381Y7347620D02*
X-28433334Y7347620D01*
X-28766667Y6966667D01*
X-28623810Y6966667D01*
X-28528572Y6919048D01*
X-28480953Y6871429D01*
X-28433334Y6776191D01*
X-28433334Y6538096D01*
X-28480953Y6442858D01*
X-28528572Y6395239D01*
X-28623810Y6347620D01*
X-28909524Y6347620D01*
X-29004762Y6395239D01*
X-29052381Y6442858D01*
%TO.C,U10*%
X-20797620Y-3488095D02*
X-19988096Y-3488095D01*
X-19892858Y-3440476D01*
X-19845239Y-3392857D01*
X-19797620Y-3297619D01*
X-19797620Y-3107142D01*
X-19845239Y-3011904D01*
X-19892858Y-2964285D01*
X-19988096Y-2916666D01*
X-20797620Y-2916666D01*
X-19797620Y-1916666D02*
X-19797620Y-2488095D01*
X-19797620Y-2202380D02*
X-20797620Y-2202380D01*
X-20654762Y-2297619D01*
X-20559524Y-2392857D01*
X-20511905Y-2488095D01*
X-20797620Y-1297619D02*
X-20797620Y-1202380D01*
X-20750000Y-1107142D01*
X-20702381Y-1059523D01*
X-20607143Y-1011904D01*
X-20416667Y-964285D01*
X-20178572Y-964285D01*
X-19988096Y-1011904D01*
X-19892858Y-1059523D01*
X-19845239Y-1107142D01*
X-19797620Y-1202380D01*
X-19797620Y-1297619D01*
X-19845239Y-1392857D01*
X-19892858Y-1440476D01*
X-19988096Y-1488095D01*
X-20178572Y-1535714D01*
X-20416667Y-1535714D01*
X-20607143Y-1488095D01*
X-20702381Y-1440476D01*
X-20750000Y-1392857D01*
X-20797620Y-1297619D01*
%TO.C,C17*%
X-692858Y-24207142D02*
X-740477Y-24254761D01*
X-883334Y-24302380D01*
X-978572Y-24302380D01*
X-1121429Y-24254761D01*
X-1216667Y-24159523D01*
X-1264286Y-24064285D01*
X-1311905Y-23873809D01*
X-1311905Y-23730952D01*
X-1264286Y-23540476D01*
X-1216667Y-23445238D01*
X-1121429Y-23350000D01*
X-978572Y-23302380D01*
X-883334Y-23302380D01*
X-740477Y-23350000D01*
X-692858Y-23397619D01*
X259523Y-24302380D02*
X-311905Y-24302380D01*
X-26191Y-24302380D02*
X-26191Y-23302380D01*
X-121429Y-23445238D01*
X-216667Y-23540476D01*
X-311905Y-23588095D01*
X592857Y-23302380D02*
X1259523Y-23302380D01*
X830952Y-24302380D01*
%TO.C,D2*%
X-27152031Y25008207D02*
X-27859138Y25715313D01*
X-27690779Y25883672D01*
X-27556092Y25951016D01*
X-27421405Y25951016D01*
X-27320390Y25917344D01*
X-27152031Y25816329D01*
X-27051016Y25715313D01*
X-26950000Y25546955D01*
X-26916329Y25445939D01*
X-26916329Y25311252D01*
X-26983672Y25176565D01*
X-27152031Y25008207D01*
X-27118359Y26321405D02*
X-27118359Y26388749D01*
X-27084688Y26489764D01*
X-26916329Y26658123D01*
X-26815313Y26691794D01*
X-26747970Y26691794D01*
X-26646955Y26658123D01*
X-26579611Y26590779D01*
X-26512268Y26456092D01*
X-26512268Y25647970D01*
X-26074535Y26085703D01*
%TO.C,C15*%
X-3682858Y-18932857D02*
X-3635239Y-18980476D01*
X-3587620Y-19123333D01*
X-3587620Y-19218571D01*
X-3635239Y-19361428D01*
X-3730477Y-19456666D01*
X-3825715Y-19504285D01*
X-4016191Y-19551904D01*
X-4159048Y-19551904D01*
X-4349524Y-19504285D01*
X-4444762Y-19456666D01*
X-4540000Y-19361428D01*
X-4587620Y-19218571D01*
X-4587620Y-19123333D01*
X-4540000Y-18980476D01*
X-4492381Y-18932857D01*
X-3587620Y-17980476D02*
X-3587620Y-18551904D01*
X-3587620Y-18266190D02*
X-4587620Y-18266190D01*
X-4444762Y-18361428D01*
X-4349524Y-18456666D01*
X-4301905Y-18551904D01*
X-4587620Y-17075714D02*
X-4587620Y-17551904D01*
X-4111429Y-17599523D01*
X-4159048Y-17551904D01*
X-4206667Y-17456666D01*
X-4206667Y-17218571D01*
X-4159048Y-17123333D01*
X-4111429Y-17075714D01*
X-4016191Y-17028095D01*
X-3778096Y-17028095D01*
X-3682858Y-17075714D01*
X-3635239Y-17123333D01*
X-3587620Y-17218571D01*
X-3587620Y-17456666D01*
X-3635239Y-17551904D01*
X-3682858Y-17599523D01*
%TO.C,L1*%
X27132380Y-15266666D02*
X27132380Y-15742857D01*
X26132380Y-15742857D01*
X27132380Y-14409523D02*
X27132380Y-14980952D01*
X27132380Y-14695238D02*
X26132380Y-14695238D01*
X26275238Y-14790476D01*
X26370476Y-14885714D01*
X26418095Y-14980952D01*
%TO.C,JP2*%
X-30433334Y10047620D02*
X-30433334Y9333334D01*
X-30480953Y9190477D01*
X-30576191Y9095239D01*
X-30719048Y9047620D01*
X-30814286Y9047620D01*
X-29957143Y9047620D02*
X-29957143Y10047620D01*
X-29576191Y10047620D01*
X-29480953Y10000000D01*
X-29433334Y9952381D01*
X-29385715Y9857143D01*
X-29385715Y9714286D01*
X-29433334Y9619048D01*
X-29480953Y9571429D01*
X-29576191Y9523810D01*
X-29957143Y9523810D01*
X-29004762Y9952381D02*
X-28957143Y10000000D01*
X-28861905Y10047620D01*
X-28623810Y10047620D01*
X-28528572Y10000000D01*
X-28480953Y9952381D01*
X-28433334Y9857143D01*
X-28433334Y9761905D01*
X-28480953Y9619048D01*
X-29052381Y9047620D01*
X-28433334Y9047620D01*
%TO.C,C8*%
X2651892Y14969282D02*
X2646023Y14902195D01*
X2567197Y14773890D01*
X2494240Y14712672D01*
X2354197Y14657323D01*
X2220022Y14669062D01*
X2122326Y14711410D01*
X1963412Y14826714D01*
X1871585Y14936149D01*
X1785628Y15112671D01*
X1760888Y15216237D01*
X1772627Y15350411D01*
X1851453Y15478716D01*
X1924409Y15539934D01*
X2064453Y15595283D01*
X2131541Y15589413D01*
X2783543Y15701372D02*
X2679977Y15676633D01*
X2612890Y15682502D01*
X2515194Y15724850D01*
X2484585Y15761328D01*
X2459845Y15864894D01*
X2465715Y15931981D01*
X2508062Y16029677D01*
X2653976Y16152113D01*
X2757541Y16176852D01*
X2824628Y16170983D01*
X2922325Y16128635D01*
X2952933Y16092157D01*
X2977673Y15988591D01*
X2971804Y15921504D01*
X2929456Y15823808D01*
X2783543Y15701372D01*
X2741195Y15603676D01*
X2735326Y15536589D01*
X2760065Y15433023D01*
X2882501Y15287110D01*
X2980197Y15244762D01*
X3047284Y15238893D01*
X3150850Y15263633D01*
X3296763Y15386068D01*
X3339111Y15483764D01*
X3344980Y15550852D01*
X3320241Y15654417D01*
X3197805Y15800330D01*
X3100109Y15842678D01*
X3033022Y15848548D01*
X2929456Y15823808D01*
%TO.C,R19*%
X-28692858Y97620D02*
X-29026191Y573810D01*
X-29264286Y97620D02*
X-29264286Y1097620D01*
X-28883334Y1097620D01*
X-28788096Y1050000D01*
X-28740477Y1002381D01*
X-28692858Y907143D01*
X-28692858Y764286D01*
X-28740477Y669048D01*
X-28788096Y621429D01*
X-28883334Y573810D01*
X-29264286Y573810D01*
X-27740477Y97620D02*
X-28311905Y97620D01*
X-28026191Y97620D02*
X-28026191Y1097620D01*
X-28121429Y954762D01*
X-28216667Y859524D01*
X-28311905Y811905D01*
X-27264286Y97620D02*
X-27073810Y97620D01*
X-26978572Y145239D01*
X-26930953Y192858D01*
X-26835715Y335715D01*
X-26788096Y526191D01*
X-26788096Y907143D01*
X-26835715Y1002381D01*
X-26883334Y1050000D01*
X-26978572Y1097620D01*
X-27169048Y1097620D01*
X-27264286Y1050000D01*
X-27311905Y1002381D01*
X-27359524Y907143D01*
X-27359524Y669048D01*
X-27311905Y573810D01*
X-27264286Y526191D01*
X-27169048Y478572D01*
X-26978572Y478572D01*
X-26883334Y526191D01*
X-26835715Y573810D01*
X-26788096Y669048D01*
%TO.C,U3*%
X-470243Y11235656D02*
X-1090374Y10715304D01*
X-1132722Y10617608D01*
X-1138591Y10550521D01*
X-1113852Y10446955D01*
X-991416Y10301042D01*
X-893720Y10258694D01*
X-826632Y10252825D01*
X-723067Y10277565D01*
X-102936Y10797916D01*
X141936Y10506090D02*
X539852Y10031872D01*
X33763Y10042349D01*
X125590Y9932914D01*
X150329Y9829348D01*
X144460Y9762261D01*
X102112Y9664565D01*
X-80279Y9511520D01*
X-183845Y9486781D01*
X-250932Y9492650D01*
X-348628Y9534998D01*
X-532282Y9753867D01*
X-557021Y9857433D01*
X-551152Y9924520D01*
%TO.C,U1*%
X17188095Y14297620D02*
X17188095Y13488096D01*
X17235714Y13392858D01*
X17283333Y13345239D01*
X17378571Y13297620D01*
X17569047Y13297620D01*
X17664285Y13345239D01*
X17711904Y13392858D01*
X17759523Y13488096D01*
X17759523Y14297620D01*
X18759523Y13297620D02*
X18188095Y13297620D01*
X18473809Y13297620D02*
X18473809Y14297620D01*
X18378571Y14154762D01*
X18283333Y14059524D01*
X18188095Y14011905D01*
%TO.C,R10*%
X-20792858Y-5202380D02*
X-21126191Y-4726190D01*
X-21364286Y-5202380D02*
X-21364286Y-4202380D01*
X-20983334Y-4202380D01*
X-20888096Y-4250000D01*
X-20840477Y-4297619D01*
X-20792858Y-4392857D01*
X-20792858Y-4535714D01*
X-20840477Y-4630952D01*
X-20888096Y-4678571D01*
X-20983334Y-4726190D01*
X-21364286Y-4726190D01*
X-19840477Y-5202380D02*
X-20411905Y-5202380D01*
X-20126191Y-5202380D02*
X-20126191Y-4202380D01*
X-20221429Y-4345238D01*
X-20316667Y-4440476D01*
X-20411905Y-4488095D01*
X-19221429Y-4202380D02*
X-19126191Y-4202380D01*
X-19030953Y-4250000D01*
X-18983334Y-4297619D01*
X-18935715Y-4392857D01*
X-18888096Y-4583333D01*
X-18888096Y-4821428D01*
X-18935715Y-5011904D01*
X-18983334Y-5107142D01*
X-19030953Y-5154761D01*
X-19126191Y-5202380D01*
X-19221429Y-5202380D01*
X-19316667Y-5154761D01*
X-19364286Y-5107142D01*
X-19411905Y-5011904D01*
X-19459524Y-4821428D01*
X-19459524Y-4583333D01*
X-19411905Y-4392857D01*
X-19364286Y-4297619D01*
X-19316667Y-4250000D01*
X-19221429Y-4202380D01*
%TO.C,C18*%
X12576142Y-25109857D02*
X12623761Y-25157476D01*
X12671380Y-25300333D01*
X12671380Y-25395571D01*
X12623761Y-25538428D01*
X12528523Y-25633666D01*
X12433285Y-25681285D01*
X12242809Y-25728904D01*
X12099952Y-25728904D01*
X11909476Y-25681285D01*
X11814238Y-25633666D01*
X11719000Y-25538428D01*
X11671380Y-25395571D01*
X11671380Y-25300333D01*
X11719000Y-25157476D01*
X11766619Y-25109857D01*
X12671380Y-24157476D02*
X12671380Y-24728904D01*
X12671380Y-24443190D02*
X11671380Y-24443190D01*
X11814238Y-24538428D01*
X11909476Y-24633666D01*
X11957095Y-24728904D01*
X12099952Y-23586047D02*
X12052333Y-23681285D01*
X12004714Y-23728904D01*
X11909476Y-23776523D01*
X11861857Y-23776523D01*
X11766619Y-23728904D01*
X11719000Y-23681285D01*
X11671380Y-23586047D01*
X11671380Y-23395571D01*
X11719000Y-23300333D01*
X11766619Y-23252714D01*
X11861857Y-23205095D01*
X11909476Y-23205095D01*
X12004714Y-23252714D01*
X12052333Y-23300333D01*
X12099952Y-23395571D01*
X12099952Y-23586047D01*
X12147571Y-23681285D01*
X12195190Y-23728904D01*
X12290428Y-23776523D01*
X12480904Y-23776523D01*
X12576142Y-23728904D01*
X12623761Y-23681285D01*
X12671380Y-23586047D01*
X12671380Y-23395571D01*
X12623761Y-23300333D01*
X12576142Y-23252714D01*
X12480904Y-23205095D01*
X12290428Y-23205095D01*
X12195190Y-23252714D01*
X12147571Y-23300333D01*
X12099952Y-23395571D01*
%TO.C,JP1*%
X-11183334Y-10152380D02*
X-11183334Y-10866666D01*
X-11230953Y-11009523D01*
X-11326191Y-11104761D01*
X-11469048Y-11152380D01*
X-11564286Y-11152380D01*
X-10707143Y-11152380D02*
X-10707143Y-10152380D01*
X-10326191Y-10152380D01*
X-10230953Y-10200000D01*
X-10183334Y-10247619D01*
X-10135715Y-10342857D01*
X-10135715Y-10485714D01*
X-10183334Y-10580952D01*
X-10230953Y-10628571D01*
X-10326191Y-10676190D01*
X-10707143Y-10676190D01*
X-9183334Y-11152380D02*
X-9754762Y-11152380D01*
X-9469048Y-11152380D02*
X-9469048Y-10152380D01*
X-9564286Y-10295238D01*
X-9659524Y-10390476D01*
X-9754762Y-10438095D01*
%TO.C,U11*%
X-20847620Y-388095D02*
X-20038096Y-388095D01*
X-19942858Y-340476D01*
X-19895239Y-292857D01*
X-19847620Y-197619D01*
X-19847620Y-7142D01*
X-19895239Y88096D01*
X-19942858Y135715D01*
X-20038096Y183334D01*
X-20847620Y183334D01*
X-19847620Y1183334D02*
X-19847620Y611905D01*
X-19847620Y897620D02*
X-20847620Y897620D01*
X-20704762Y802381D01*
X-20609524Y707143D01*
X-20561905Y611905D01*
X-19847620Y2135715D02*
X-19847620Y1564286D01*
X-19847620Y1850000D02*
X-20847620Y1850000D01*
X-20704762Y1754762D01*
X-20609524Y1659524D01*
X-20561905Y1564286D01*
%TO.C,U8*%
X3538095Y-9202380D02*
X3538095Y-10011904D01*
X3585714Y-10107142D01*
X3633333Y-10154761D01*
X3728571Y-10202380D01*
X3919047Y-10202380D01*
X4014285Y-10154761D01*
X4061904Y-10107142D01*
X4109523Y-10011904D01*
X4109523Y-9202380D01*
X4728571Y-9630952D02*
X4633333Y-9583333D01*
X4585714Y-9535714D01*
X4538095Y-9440476D01*
X4538095Y-9392857D01*
X4585714Y-9297619D01*
X4633333Y-9250000D01*
X4728571Y-9202380D01*
X4919047Y-9202380D01*
X5014285Y-9250000D01*
X5061904Y-9297619D01*
X5109523Y-9392857D01*
X5109523Y-9440476D01*
X5061904Y-9535714D01*
X5014285Y-9583333D01*
X4919047Y-9630952D01*
X4728571Y-9630952D01*
X4633333Y-9678571D01*
X4585714Y-9726190D01*
X4538095Y-9821428D01*
X4538095Y-10011904D01*
X4585714Y-10107142D01*
X4633333Y-10154761D01*
X4728571Y-10202380D01*
X4919047Y-10202380D01*
X5014285Y-10154761D01*
X5061904Y-10107142D01*
X5109523Y-10011904D01*
X5109523Y-9821428D01*
X5061904Y-9726190D01*
X5014285Y-9678571D01*
X4919047Y-9630952D01*
%TO.C,D1*%
X31508206Y14752031D02*
X32215312Y15459138D01*
X32383671Y15290779D01*
X32451015Y15156092D01*
X32451015Y15021405D01*
X32417343Y14920390D01*
X32316328Y14752031D01*
X32215312Y14651016D01*
X32046954Y14550000D01*
X31945938Y14516329D01*
X31811251Y14516329D01*
X31676564Y14583672D01*
X31508206Y14752031D01*
X32585702Y13674535D02*
X32181641Y14078596D01*
X32383671Y13876565D02*
X33090778Y14583672D01*
X32922419Y14550000D01*
X32787732Y14550000D01*
X32686717Y14583672D01*
%TO.C,C4*%
X30364133Y9629058D02*
X30316514Y9581439D01*
X30173657Y9533820D01*
X30078419Y9533820D01*
X29935561Y9581439D01*
X29840323Y9676677D01*
X29792704Y9771915D01*
X29745085Y9962391D01*
X29745085Y10105248D01*
X29792704Y10295724D01*
X29840323Y10390962D01*
X29935561Y10486200D01*
X30078419Y10533820D01*
X30173657Y10533820D01*
X30316514Y10486200D01*
X30364133Y10438581D01*
X31221276Y10200486D02*
X31221276Y9533820D01*
X30983180Y10581439D02*
X30745085Y9867153D01*
X31364133Y9867153D01*
%TO.C,R13*%
X-11934688Y-17424450D02*
X-12507107Y-17323435D01*
X-12338749Y-17828511D02*
X-13045855Y-17121404D01*
X-12776481Y-16852030D01*
X-12675466Y-16818358D01*
X-12608123Y-16818358D01*
X-12507107Y-16852030D01*
X-12406092Y-16953045D01*
X-12372420Y-17054061D01*
X-12372420Y-17121404D01*
X-12406092Y-17222419D01*
X-12675466Y-17491793D01*
X-11261252Y-16751015D02*
X-11665313Y-17155076D01*
X-11463283Y-16953045D02*
X-12170390Y-16245938D01*
X-12136718Y-16414297D01*
X-12136718Y-16548984D01*
X-12170390Y-16650000D01*
X-11732657Y-15808206D02*
X-11294924Y-15370473D01*
X-11261252Y-15875549D01*
X-11160237Y-15774534D01*
X-11059222Y-15740862D01*
X-10991878Y-15740862D01*
X-10890863Y-15774534D01*
X-10722504Y-15942893D01*
X-10688833Y-16043908D01*
X-10688833Y-16111251D01*
X-10722504Y-16212267D01*
X-10924535Y-16414297D01*
X-11025550Y-16447969D01*
X-11092894Y-16447969D01*
%TO.C,R6*%
X-19147620Y18533334D02*
X-19623810Y18200000D01*
X-19147620Y17961905D02*
X-20147620Y17961905D01*
X-20147620Y18342858D01*
X-20100000Y18438096D01*
X-20052381Y18485715D01*
X-19957143Y18533334D01*
X-19814286Y18533334D01*
X-19719048Y18485715D01*
X-19671429Y18438096D01*
X-19623810Y18342858D01*
X-19623810Y17961905D01*
X-20147620Y19390477D02*
X-20147620Y19200000D01*
X-20100000Y19104762D01*
X-20052381Y19057143D01*
X-19909524Y18961905D01*
X-19719048Y18914286D01*
X-19338096Y18914286D01*
X-19242858Y18961905D01*
X-19195239Y19009524D01*
X-19147620Y19104762D01*
X-19147620Y19295239D01*
X-19195239Y19390477D01*
X-19242858Y19438096D01*
X-19338096Y19485715D01*
X-19576191Y19485715D01*
X-19671429Y19438096D01*
X-19719048Y19390477D01*
X-19766667Y19295239D01*
X-19766667Y19104762D01*
X-19719048Y19009524D01*
X-19671429Y18961905D01*
X-19576191Y18914286D01*
%TO.C,C16*%
X21507142Y-19742857D02*
X21554761Y-19790476D01*
X21602380Y-19933333D01*
X21602380Y-20028571D01*
X21554761Y-20171428D01*
X21459523Y-20266666D01*
X21364285Y-20314285D01*
X21173809Y-20361904D01*
X21030952Y-20361904D01*
X20840476Y-20314285D01*
X20745238Y-20266666D01*
X20650000Y-20171428D01*
X20602380Y-20028571D01*
X20602380Y-19933333D01*
X20650000Y-19790476D01*
X20697619Y-19742857D01*
X21602380Y-18790476D02*
X21602380Y-19361904D01*
X21602380Y-19076190D02*
X20602380Y-19076190D01*
X20745238Y-19171428D01*
X20840476Y-19266666D01*
X20888095Y-19361904D01*
X20602380Y-17933333D02*
X20602380Y-18123809D01*
X20650000Y-18219047D01*
X20697619Y-18266666D01*
X20840476Y-18361904D01*
X21030952Y-18409523D01*
X21411904Y-18409523D01*
X21507142Y-18361904D01*
X21554761Y-18314285D01*
X21602380Y-18219047D01*
X21602380Y-18028571D01*
X21554761Y-17933333D01*
X21507142Y-17885714D01*
X21411904Y-17838095D01*
X21173809Y-17838095D01*
X21078571Y-17885714D01*
X21030952Y-17933333D01*
X20983333Y-18028571D01*
X20983333Y-18219047D01*
X21030952Y-18314285D01*
X21078571Y-18361904D01*
X21173809Y-18409523D01*
%TO.C,C3*%
X22433333Y6042858D02*
X22385714Y5995239D01*
X22242857Y5947620D01*
X22147619Y5947620D01*
X22004761Y5995239D01*
X21909523Y6090477D01*
X21861904Y6185715D01*
X21814285Y6376191D01*
X21814285Y6519048D01*
X21861904Y6709524D01*
X21909523Y6804762D01*
X22004761Y6900000D01*
X22147619Y6947620D01*
X22242857Y6947620D01*
X22385714Y6900000D01*
X22433333Y6852381D01*
X22766666Y6947620D02*
X23385714Y6947620D01*
X23052380Y6566667D01*
X23195238Y6566667D01*
X23290476Y6519048D01*
X23338095Y6471429D01*
X23385714Y6376191D01*
X23385714Y6138096D01*
X23338095Y6042858D01*
X23290476Y5995239D01*
X23195238Y5947620D01*
X22909523Y5947620D01*
X22814285Y5995239D01*
X22766666Y6042858D01*
%TO.C,J6*%
X-27936602Y-20095616D02*
X-27300169Y-19771337D01*
X-27151264Y-19748910D01*
X-27023169Y-19790530D01*
X-26915884Y-19896198D01*
X-26872647Y-19981056D01*
X-28347356Y-19289467D02*
X-28260881Y-19459182D01*
X-28175215Y-19522421D01*
X-28111168Y-19543232D01*
X-27940644Y-19563234D01*
X-27749310Y-19519188D01*
X-27409879Y-19346239D01*
X-27346640Y-19260573D01*
X-27325829Y-19196526D01*
X-27326638Y-19090050D01*
X-27413112Y-18920334D01*
X-27498778Y-18857095D01*
X-27562826Y-18836285D01*
X-27669302Y-18837093D01*
X-27881446Y-18945186D01*
X-27944686Y-19030852D01*
X-27965496Y-19094899D01*
X-27964688Y-19201376D01*
X-27878213Y-19371091D01*
X-27792547Y-19434330D01*
X-27728500Y-19455141D01*
X-27622023Y-19454332D01*
%TO.C,R12*%
X-8146525Y-21624450D02*
X-8718944Y-21523435D01*
X-8550586Y-22028511D02*
X-9257692Y-21321404D01*
X-8988318Y-21052030D01*
X-8887303Y-21018358D01*
X-8819960Y-21018358D01*
X-8718944Y-21052030D01*
X-8617929Y-21153045D01*
X-8584257Y-21254061D01*
X-8584257Y-21321404D01*
X-8617929Y-21422419D01*
X-8887303Y-21691793D01*
X-7473089Y-20951015D02*
X-7877150Y-21355076D01*
X-7675120Y-21153045D02*
X-8382227Y-20445938D01*
X-8348555Y-20614297D01*
X-8348555Y-20748984D01*
X-8382227Y-20850000D01*
X-7843479Y-20041877D02*
X-7843479Y-19974534D01*
X-7809807Y-19873519D01*
X-7641448Y-19705160D01*
X-7540433Y-19671488D01*
X-7473089Y-19671488D01*
X-7372074Y-19705160D01*
X-7304731Y-19772503D01*
X-7237387Y-19907190D01*
X-7237387Y-20715312D01*
X-6799654Y-20277580D01*
%TO.C,C23*%
X18657142Y-12542857D02*
X18704761Y-12590476D01*
X18752380Y-12733333D01*
X18752380Y-12828571D01*
X18704761Y-12971428D01*
X18609523Y-13066666D01*
X18514285Y-13114285D01*
X18323809Y-13161904D01*
X18180952Y-13161904D01*
X17990476Y-13114285D01*
X17895238Y-13066666D01*
X17800000Y-12971428D01*
X17752380Y-12828571D01*
X17752380Y-12733333D01*
X17800000Y-12590476D01*
X17847619Y-12542857D01*
X17847619Y-12161904D02*
X17800000Y-12114285D01*
X17752380Y-12019047D01*
X17752380Y-11780952D01*
X17800000Y-11685714D01*
X17847619Y-11638095D01*
X17942857Y-11590476D01*
X18038095Y-11590476D01*
X18180952Y-11638095D01*
X18752380Y-12209523D01*
X18752380Y-11590476D01*
X17752380Y-11257142D02*
X17752380Y-10638095D01*
X18133333Y-10971428D01*
X18133333Y-10828571D01*
X18180952Y-10733333D01*
X18228571Y-10685714D01*
X18323809Y-10638095D01*
X18561904Y-10638095D01*
X18657142Y-10685714D01*
X18704761Y-10733333D01*
X18752380Y-10828571D01*
X18752380Y-11114285D01*
X18704761Y-11209523D01*
X18657142Y-11257142D01*
%TO.C,U2*%
X28738095Y12747620D02*
X28738095Y11938096D01*
X28785714Y11842858D01*
X28833333Y11795239D01*
X28928571Y11747620D01*
X29119047Y11747620D01*
X29214285Y11795239D01*
X29261904Y11842858D01*
X29309523Y11938096D01*
X29309523Y12747620D01*
X29738095Y12652381D02*
X29785714Y12700000D01*
X29880952Y12747620D01*
X30119047Y12747620D01*
X30214285Y12700000D01*
X30261904Y12652381D01*
X30309523Y12557143D01*
X30309523Y12461905D01*
X30261904Y12319048D01*
X29690476Y11747620D01*
X30309523Y11747620D01*
%TO.C,R28*%
X12615312Y8125550D02*
X12042893Y8226565D01*
X12211251Y7721489D02*
X11504145Y8428596D01*
X11773519Y8697970D01*
X11874534Y8731642D01*
X11941877Y8731642D01*
X12042893Y8697970D01*
X12143908Y8596955D01*
X12177580Y8495939D01*
X12177580Y8428596D01*
X12143908Y8327581D01*
X11874534Y8058207D01*
X12244923Y9034688D02*
X12244923Y9102031D01*
X12278595Y9203046D01*
X12446954Y9371405D01*
X12547969Y9405077D01*
X12615312Y9405077D01*
X12716328Y9371405D01*
X12783671Y9304062D01*
X12851015Y9169375D01*
X12851015Y8361252D01*
X13288748Y8798985D01*
X13288748Y9607107D02*
X13187732Y9573436D01*
X13120389Y9573436D01*
X13019374Y9607107D01*
X12985702Y9640779D01*
X12952030Y9741794D01*
X12952030Y9809138D01*
X12985702Y9910153D01*
X13120389Y10044840D01*
X13221404Y10078512D01*
X13288748Y10078512D01*
X13389763Y10044840D01*
X13423435Y10011168D01*
X13457106Y9910153D01*
X13457106Y9842810D01*
X13423435Y9741794D01*
X13288748Y9607107D01*
X13255076Y9506092D01*
X13255076Y9438749D01*
X13288748Y9337733D01*
X13423435Y9203046D01*
X13524450Y9169375D01*
X13591793Y9169375D01*
X13692809Y9203046D01*
X13827496Y9337733D01*
X13861167Y9438749D01*
X13861167Y9506092D01*
X13827496Y9607107D01*
X13692809Y9741794D01*
X13591793Y9775466D01*
X13524450Y9775466D01*
X13423435Y9741794D01*
%TO.C,Y1*%
X2423809Y-18826190D02*
X2423809Y-19302380D01*
X2090476Y-18302380D02*
X2423809Y-18826190D01*
X2757142Y-18302380D01*
X3614285Y-19302380D02*
X3042857Y-19302380D01*
X3328571Y-19302380D02*
X3328571Y-18302380D01*
X3233333Y-18445238D01*
X3138095Y-18540476D01*
X3042857Y-18588095D01*
%TO.C,C22*%
X-23642858Y17292858D02*
X-23690477Y17245239D01*
X-23833334Y17197620D01*
X-23928572Y17197620D01*
X-24071429Y17245239D01*
X-24166667Y17340477D01*
X-24214286Y17435715D01*
X-24261905Y17626191D01*
X-24261905Y17769048D01*
X-24214286Y17959524D01*
X-24166667Y18054762D01*
X-24071429Y18150000D01*
X-23928572Y18197620D01*
X-23833334Y18197620D01*
X-23690477Y18150000D01*
X-23642858Y18102381D01*
X-23261905Y18102381D02*
X-23214286Y18150000D01*
X-23119048Y18197620D01*
X-22880953Y18197620D01*
X-22785715Y18150000D01*
X-22738096Y18102381D01*
X-22690477Y18007143D01*
X-22690477Y17911905D01*
X-22738096Y17769048D01*
X-23309524Y17197620D01*
X-22690477Y17197620D01*
X-22309524Y18102381D02*
X-22261905Y18150000D01*
X-22166667Y18197620D01*
X-21928572Y18197620D01*
X-21833334Y18150000D01*
X-21785715Y18102381D01*
X-21738096Y18007143D01*
X-21738096Y17911905D01*
X-21785715Y17769048D01*
X-22357143Y17197620D01*
X-21738096Y17197620D01*
%TO.C,J2*%
X25552380Y-4883333D02*
X26266666Y-4883333D01*
X26409523Y-4930952D01*
X26504761Y-5026190D01*
X26552380Y-5169047D01*
X26552380Y-5264285D01*
X25647619Y-4454761D02*
X25600000Y-4407142D01*
X25552380Y-4311904D01*
X25552380Y-4073809D01*
X25600000Y-3978571D01*
X25647619Y-3930952D01*
X25742857Y-3883333D01*
X25838095Y-3883333D01*
X25980952Y-3930952D01*
X26552380Y-4502380D01*
X26552380Y-3883333D01*
%TO.C,R2*%
X24833333Y8047620D02*
X24500000Y8523810D01*
X24261904Y8047620D02*
X24261904Y9047620D01*
X24642857Y9047620D01*
X24738095Y9000000D01*
X24785714Y8952381D01*
X24833333Y8857143D01*
X24833333Y8714286D01*
X24785714Y8619048D01*
X24738095Y8571429D01*
X24642857Y8523810D01*
X24261904Y8523810D01*
X25214285Y8952381D02*
X25261904Y9000000D01*
X25357142Y9047620D01*
X25595238Y9047620D01*
X25690476Y9000000D01*
X25738095Y8952381D01*
X25785714Y8857143D01*
X25785714Y8761905D01*
X25738095Y8619048D01*
X25166666Y8047620D01*
X25785714Y8047620D01*
%TO.C,C1*%
X19880933Y16425458D02*
X19833314Y16377839D01*
X19690457Y16330220D01*
X19595219Y16330220D01*
X19452361Y16377839D01*
X19357123Y16473077D01*
X19309504Y16568315D01*
X19261885Y16758791D01*
X19261885Y16901648D01*
X19309504Y17092124D01*
X19357123Y17187362D01*
X19452361Y17282600D01*
X19595219Y17330220D01*
X19690457Y17330220D01*
X19833314Y17282600D01*
X19880933Y17234981D01*
X20833314Y16330220D02*
X20261885Y16330220D01*
X20547600Y16330220D02*
X20547600Y17330220D01*
X20452361Y17187362D01*
X20357123Y17092124D01*
X20261885Y17044505D01*
%TO.C,R22*%
X-28947620Y-8092857D02*
X-29423810Y-8426190D01*
X-28947620Y-8664285D02*
X-29947620Y-8664285D01*
X-29947620Y-8283333D01*
X-29900000Y-8188095D01*
X-29852381Y-8140476D01*
X-29757143Y-8092857D01*
X-29614286Y-8092857D01*
X-29519048Y-8140476D01*
X-29471429Y-8188095D01*
X-29423810Y-8283333D01*
X-29423810Y-8664285D01*
X-29852381Y-7711904D02*
X-29900000Y-7664285D01*
X-29947620Y-7569047D01*
X-29947620Y-7330952D01*
X-29900000Y-7235714D01*
X-29852381Y-7188095D01*
X-29757143Y-7140476D01*
X-29661905Y-7140476D01*
X-29519048Y-7188095D01*
X-28947620Y-7759523D01*
X-28947620Y-7140476D01*
X-29852381Y-6759523D02*
X-29900000Y-6711904D01*
X-29947620Y-6616666D01*
X-29947620Y-6378571D01*
X-29900000Y-6283333D01*
X-29852381Y-6235714D01*
X-29757143Y-6188095D01*
X-29661905Y-6188095D01*
X-29519048Y-6235714D01*
X-28947620Y-6807142D01*
X-28947620Y-6188095D01*
%TO.C,R23*%
X-30797620Y-8042857D02*
X-31273810Y-8376190D01*
X-30797620Y-8614285D02*
X-31797620Y-8614285D01*
X-31797620Y-8233333D01*
X-31750000Y-8138095D01*
X-31702381Y-8090476D01*
X-31607143Y-8042857D01*
X-31464286Y-8042857D01*
X-31369048Y-8090476D01*
X-31321429Y-8138095D01*
X-31273810Y-8233333D01*
X-31273810Y-8614285D01*
X-31702381Y-7661904D02*
X-31750000Y-7614285D01*
X-31797620Y-7519047D01*
X-31797620Y-7280952D01*
X-31750000Y-7185714D01*
X-31702381Y-7138095D01*
X-31607143Y-7090476D01*
X-31511905Y-7090476D01*
X-31369048Y-7138095D01*
X-30797620Y-7709523D01*
X-30797620Y-7090476D01*
X-31797620Y-6757142D02*
X-31797620Y-6138095D01*
X-31416667Y-6471428D01*
X-31416667Y-6328571D01*
X-31369048Y-6233333D01*
X-31321429Y-6185714D01*
X-31226191Y-6138095D01*
X-30988096Y-6138095D01*
X-30892858Y-6185714D01*
X-30845239Y-6233333D01*
X-30797620Y-6328571D01*
X-30797620Y-6614285D01*
X-30845239Y-6709523D01*
X-30892858Y-6757142D01*
%TO.C,R11*%
X-12747620Y6863143D02*
X-13223810Y6529810D01*
X-12747620Y6291715D02*
X-13747620Y6291715D01*
X-13747620Y6672667D01*
X-13700000Y6767905D01*
X-13652381Y6815524D01*
X-13557143Y6863143D01*
X-13414286Y6863143D01*
X-13319048Y6815524D01*
X-13271429Y6767905D01*
X-13223810Y6672667D01*
X-13223810Y6291715D01*
X-12747620Y7815524D02*
X-12747620Y7244096D01*
X-12747620Y7529810D02*
X-13747620Y7529810D01*
X-13604762Y7434572D01*
X-13509524Y7339334D01*
X-13461905Y7244096D01*
X-12747620Y8767905D02*
X-12747620Y8196477D01*
X-12747620Y8482191D02*
X-13747620Y8482191D01*
X-13604762Y8386953D01*
X-13509524Y8291715D01*
X-13461905Y8196477D01*
%TO.C,R18*%
X11152380Y-28492857D02*
X10676190Y-28826190D01*
X11152380Y-29064285D02*
X10152380Y-29064285D01*
X10152380Y-28683333D01*
X10200000Y-28588095D01*
X10247619Y-28540476D01*
X10342857Y-28492857D01*
X10485714Y-28492857D01*
X10580952Y-28540476D01*
X10628571Y-28588095D01*
X10676190Y-28683333D01*
X10676190Y-29064285D01*
X11152380Y-27540476D02*
X11152380Y-28111904D01*
X11152380Y-27826190D02*
X10152380Y-27826190D01*
X10295238Y-27921428D01*
X10390476Y-28016666D01*
X10438095Y-28111904D01*
X10580952Y-26969047D02*
X10533333Y-27064285D01*
X10485714Y-27111904D01*
X10390476Y-27159523D01*
X10342857Y-27159523D01*
X10247619Y-27111904D01*
X10200000Y-27064285D01*
X10152380Y-26969047D01*
X10152380Y-26778571D01*
X10200000Y-26683333D01*
X10247619Y-26635714D01*
X10342857Y-26588095D01*
X10390476Y-26588095D01*
X10485714Y-26635714D01*
X10533333Y-26683333D01*
X10580952Y-26778571D01*
X10580952Y-26969047D01*
X10628571Y-27064285D01*
X10676190Y-27111904D01*
X10771428Y-27159523D01*
X10961904Y-27159523D01*
X11057142Y-27111904D01*
X11104761Y-27064285D01*
X11152380Y-26969047D01*
X11152380Y-26778571D01*
X11104761Y-26683333D01*
X11057142Y-26635714D01*
X10961904Y-26588095D01*
X10771428Y-26588095D01*
X10676190Y-26635714D01*
X10628571Y-26683333D01*
X10580952Y-26778571D01*
%TO.C,C5*%
X22883333Y10642858D02*
X22835714Y10595239D01*
X22692857Y10547620D01*
X22597619Y10547620D01*
X22454761Y10595239D01*
X22359523Y10690477D01*
X22311904Y10785715D01*
X22264285Y10976191D01*
X22264285Y11119048D01*
X22311904Y11309524D01*
X22359523Y11404762D01*
X22454761Y11500000D01*
X22597619Y11547620D01*
X22692857Y11547620D01*
X22835714Y11500000D01*
X22883333Y11452381D01*
X23788095Y11547620D02*
X23311904Y11547620D01*
X23264285Y11071429D01*
X23311904Y11119048D01*
X23407142Y11166667D01*
X23645238Y11166667D01*
X23740476Y11119048D01*
X23788095Y11071429D01*
X23835714Y10976191D01*
X23835714Y10738096D01*
X23788095Y10642858D01*
X23740476Y10595239D01*
X23645238Y10547620D01*
X23407142Y10547620D01*
X23311904Y10595239D01*
X23264285Y10642858D01*
%TO.C,C20*%
X-3092858Y-15357142D02*
X-3140477Y-15404761D01*
X-3283334Y-15452380D01*
X-3378572Y-15452380D01*
X-3521429Y-15404761D01*
X-3616667Y-15309523D01*
X-3664286Y-15214285D01*
X-3711905Y-15023809D01*
X-3711905Y-14880952D01*
X-3664286Y-14690476D01*
X-3616667Y-14595238D01*
X-3521429Y-14500000D01*
X-3378572Y-14452380D01*
X-3283334Y-14452380D01*
X-3140477Y-14500000D01*
X-3092858Y-14547619D01*
X-2711905Y-14547619D02*
X-2664286Y-14500000D01*
X-2569048Y-14452380D01*
X-2330953Y-14452380D01*
X-2235715Y-14500000D01*
X-2188096Y-14547619D01*
X-2140477Y-14642857D01*
X-2140477Y-14738095D01*
X-2188096Y-14880952D01*
X-2759524Y-15452380D01*
X-2140477Y-15452380D01*
X-1521429Y-14452380D02*
X-1426191Y-14452380D01*
X-1330953Y-14500000D01*
X-1283334Y-14547619D01*
X-1235715Y-14642857D01*
X-1188096Y-14833333D01*
X-1188096Y-15071428D01*
X-1235715Y-15261904D01*
X-1283334Y-15357142D01*
X-1330953Y-15404761D01*
X-1426191Y-15452380D01*
X-1521429Y-15452380D01*
X-1616667Y-15404761D01*
X-1664286Y-15357142D01*
X-1711905Y-15261904D01*
X-1759524Y-15071428D01*
X-1759524Y-14833333D01*
X-1711905Y-14642857D01*
X-1664286Y-14547619D01*
X-1616667Y-14500000D01*
X-1521429Y-14452380D01*
%TO.C,C25*%
X-6742858Y-12407142D02*
X-6790477Y-12454761D01*
X-6933334Y-12502380D01*
X-7028572Y-12502380D01*
X-7171429Y-12454761D01*
X-7266667Y-12359523D01*
X-7314286Y-12264285D01*
X-7361905Y-12073809D01*
X-7361905Y-11930952D01*
X-7314286Y-11740476D01*
X-7266667Y-11645238D01*
X-7171429Y-11550000D01*
X-7028572Y-11502380D01*
X-6933334Y-11502380D01*
X-6790477Y-11550000D01*
X-6742858Y-11597619D01*
X-6361905Y-11597619D02*
X-6314286Y-11550000D01*
X-6219048Y-11502380D01*
X-5980953Y-11502380D01*
X-5885715Y-11550000D01*
X-5838096Y-11597619D01*
X-5790477Y-11692857D01*
X-5790477Y-11788095D01*
X-5838096Y-11930952D01*
X-6409524Y-12502380D01*
X-5790477Y-12502380D01*
X-4885715Y-11502380D02*
X-5361905Y-11502380D01*
X-5409524Y-11978571D01*
X-5361905Y-11930952D01*
X-5266667Y-11883333D01*
X-5028572Y-11883333D01*
X-4933334Y-11930952D01*
X-4885715Y-11978571D01*
X-4838096Y-12073809D01*
X-4838096Y-12311904D01*
X-4885715Y-12407142D01*
X-4933334Y-12454761D01*
X-5028572Y-12502380D01*
X-5266667Y-12502380D01*
X-5361905Y-12454761D01*
X-5409524Y-12407142D01*
%TO.C,R25*%
X-28973811Y11761687D02*
X-29074667Y12334135D01*
X-29491702Y12003183D02*
X-29069083Y12909491D01*
X-28723823Y12748494D01*
X-28657633Y12665087D01*
X-28634600Y12601805D01*
X-28631692Y12495365D01*
X-28692066Y12365892D01*
X-28775473Y12299702D01*
X-28838755Y12276669D01*
X-28945195Y12273761D01*
X-29290455Y12434759D01*
X-28246182Y12420683D02*
X-28182900Y12443715D01*
X-28076460Y12446624D01*
X-27860673Y12346000D01*
X-27794483Y12262593D01*
X-27771450Y12199311D01*
X-27768542Y12092871D01*
X-27808791Y12006556D01*
X-27912322Y11897209D01*
X-28671709Y11620815D01*
X-28110661Y11359194D01*
X-26868050Y11883133D02*
X-27299625Y12084379D01*
X-27544030Y11672929D01*
X-27480747Y11695962D01*
X-27374308Y11698870D01*
X-27158520Y11598247D01*
X-27092330Y11514840D01*
X-27069297Y11451557D01*
X-27066389Y11345118D01*
X-27167012Y11129330D01*
X-27250419Y11063140D01*
X-27313701Y11040107D01*
X-27420141Y11037199D01*
X-27635928Y11137822D01*
X-27702119Y11221229D01*
X-27725152Y11284511D01*
%TO.C,C11*%
X-9592858Y-29727277D02*
X-9545239Y-29774896D01*
X-9497620Y-29917753D01*
X-9497620Y-30012991D01*
X-9545239Y-30155848D01*
X-9640477Y-30251086D01*
X-9735715Y-30298705D01*
X-9926191Y-30346324D01*
X-10069048Y-30346324D01*
X-10259524Y-30298705D01*
X-10354762Y-30251086D01*
X-10450000Y-30155848D01*
X-10497620Y-30012991D01*
X-10497620Y-29917753D01*
X-10450000Y-29774896D01*
X-10402381Y-29727277D01*
X-9497620Y-28774896D02*
X-9497620Y-29346324D01*
X-9497620Y-29060610D02*
X-10497620Y-29060610D01*
X-10354762Y-29155848D01*
X-10259524Y-29251086D01*
X-10211905Y-29346324D01*
X-9497620Y-27822515D02*
X-9497620Y-28393943D01*
X-9497620Y-28108229D02*
X-10497620Y-28108229D01*
X-10354762Y-28203467D01*
X-10259524Y-28298705D01*
X-10211905Y-28393943D01*
%TO.C,C2*%
X29034687Y17379611D02*
X29034687Y17312268D01*
X28967343Y17177581D01*
X28900000Y17110237D01*
X28765312Y17042894D01*
X28630625Y17042894D01*
X28529610Y17076565D01*
X28361251Y17177581D01*
X28260236Y17278596D01*
X28159221Y17446955D01*
X28125549Y17547970D01*
X28125549Y17682657D01*
X28192893Y17817344D01*
X28260236Y17884688D01*
X28394923Y17952031D01*
X28462267Y17952031D01*
X28731641Y18221405D02*
X28731641Y18288749D01*
X28765312Y18389764D01*
X28933671Y18558123D01*
X29034687Y18591794D01*
X29102030Y18591794D01*
X29203045Y18558123D01*
X29270389Y18490779D01*
X29337732Y18356092D01*
X29337732Y17547970D01*
X29775465Y17985703D01*
%TO.C,C13*%
X23117142Y-8802857D02*
X23164761Y-8850476D01*
X23212380Y-8993333D01*
X23212380Y-9088571D01*
X23164761Y-9231428D01*
X23069523Y-9326666D01*
X22974285Y-9374285D01*
X22783809Y-9421904D01*
X22640952Y-9421904D01*
X22450476Y-9374285D01*
X22355238Y-9326666D01*
X22260000Y-9231428D01*
X22212380Y-9088571D01*
X22212380Y-8993333D01*
X22260000Y-8850476D01*
X22307619Y-8802857D01*
X23212380Y-7850476D02*
X23212380Y-8421904D01*
X23212380Y-8136190D02*
X22212380Y-8136190D01*
X22355238Y-8231428D01*
X22450476Y-8326666D01*
X22498095Y-8421904D01*
X22212380Y-7517142D02*
X22212380Y-6898095D01*
X22593333Y-7231428D01*
X22593333Y-7088571D01*
X22640952Y-6993333D01*
X22688571Y-6945714D01*
X22783809Y-6898095D01*
X23021904Y-6898095D01*
X23117142Y-6945714D01*
X23164761Y-6993333D01*
X23212380Y-7088571D01*
X23212380Y-7374285D01*
X23164761Y-7469523D01*
X23117142Y-7517142D01*
%TO.C,R17*%
X-28634688Y-14974450D02*
X-29207107Y-14873435D01*
X-29038749Y-15378511D02*
X-29745855Y-14671404D01*
X-29476481Y-14402030D01*
X-29375466Y-14368358D01*
X-29308123Y-14368358D01*
X-29207107Y-14402030D01*
X-29106092Y-14503045D01*
X-29072420Y-14604061D01*
X-29072420Y-14671404D01*
X-29106092Y-14772419D01*
X-29375466Y-15041793D01*
X-27961252Y-14301015D02*
X-28365313Y-14705076D01*
X-28163283Y-14503045D02*
X-28870390Y-13795938D01*
X-28836718Y-13964297D01*
X-28836718Y-14098984D01*
X-28870390Y-14200000D01*
X-28432657Y-13358206D02*
X-27961252Y-12886801D01*
X-27557191Y-13896954D01*
%TO.C,R20*%
X-28642858Y-1752380D02*
X-28976191Y-1276190D01*
X-29214286Y-1752380D02*
X-29214286Y-752380D01*
X-28833334Y-752380D01*
X-28738096Y-800000D01*
X-28690477Y-847619D01*
X-28642858Y-942857D01*
X-28642858Y-1085714D01*
X-28690477Y-1180952D01*
X-28738096Y-1228571D01*
X-28833334Y-1276190D01*
X-29214286Y-1276190D01*
X-28261905Y-847619D02*
X-28214286Y-800000D01*
X-28119048Y-752380D01*
X-27880953Y-752380D01*
X-27785715Y-800000D01*
X-27738096Y-847619D01*
X-27690477Y-942857D01*
X-27690477Y-1038095D01*
X-27738096Y-1180952D01*
X-28309524Y-1752380D01*
X-27690477Y-1752380D01*
X-27071429Y-752380D02*
X-26976191Y-752380D01*
X-26880953Y-800000D01*
X-26833334Y-847619D01*
X-26785715Y-942857D01*
X-26738096Y-1133333D01*
X-26738096Y-1371428D01*
X-26785715Y-1561904D01*
X-26833334Y-1657142D01*
X-26880953Y-1704761D01*
X-26976191Y-1752380D01*
X-27071429Y-1752380D01*
X-27166667Y-1704761D01*
X-27214286Y-1657142D01*
X-27261905Y-1561904D01*
X-27309524Y-1371428D01*
X-27309524Y-1133333D01*
X-27261905Y-942857D01*
X-27214286Y-847619D01*
X-27166667Y-800000D01*
X-27071429Y-752380D01*
%TO.C,R14*%
X-3092858Y-14052380D02*
X-3426191Y-13576190D01*
X-3664286Y-14052380D02*
X-3664286Y-13052380D01*
X-3283334Y-13052380D01*
X-3188096Y-13100000D01*
X-3140477Y-13147619D01*
X-3092858Y-13242857D01*
X-3092858Y-13385714D01*
X-3140477Y-13480952D01*
X-3188096Y-13528571D01*
X-3283334Y-13576190D01*
X-3664286Y-13576190D01*
X-2140477Y-14052380D02*
X-2711905Y-14052380D01*
X-2426191Y-14052380D02*
X-2426191Y-13052380D01*
X-2521429Y-13195238D01*
X-2616667Y-13290476D01*
X-2711905Y-13338095D01*
X-1283334Y-13385714D02*
X-1283334Y-14052380D01*
X-1521429Y-13004761D02*
X-1759524Y-13719047D01*
X-1140477Y-13719047D01*
%TO.C,C24*%
X-16402031Y-16157106D02*
X-16402031Y-16224450D01*
X-16469375Y-16359137D01*
X-16536718Y-16426480D01*
X-16671405Y-16493824D01*
X-16806092Y-16493824D01*
X-16907107Y-16460152D01*
X-17075466Y-16359137D01*
X-17176481Y-16258122D01*
X-17277497Y-16089763D01*
X-17311168Y-15988748D01*
X-17311168Y-15854061D01*
X-17243825Y-15719374D01*
X-17176481Y-15652030D01*
X-17041794Y-15584687D01*
X-16974451Y-15584687D01*
X-16705077Y-15315312D02*
X-16705077Y-15247969D01*
X-16671405Y-15146954D01*
X-16503046Y-14978595D01*
X-16402031Y-14944923D01*
X-16334688Y-14944923D01*
X-16233672Y-14978595D01*
X-16166329Y-15045938D01*
X-16098985Y-15180625D01*
X-16098985Y-15988748D01*
X-15661252Y-15551015D01*
X-15526565Y-14473519D02*
X-15055161Y-14944923D01*
X-15964298Y-14372503D02*
X-15627581Y-15045938D01*
X-15189848Y-14608206D01*
%TO.C,F1*%
X-21274769Y19876247D02*
X-21510472Y19640545D01*
X-21140082Y19270155D02*
X-21847189Y19977262D01*
X-21510472Y20313980D01*
X-20163602Y20246636D02*
X-20567663Y19842575D01*
X-20365632Y20044606D02*
X-21072739Y20751712D01*
X-21039067Y20583354D01*
X-21039067Y20448667D01*
X-21072739Y20347651D01*
%TO.C,R15*%
X7602380Y-28492857D02*
X7126190Y-28826190D01*
X7602380Y-29064285D02*
X6602380Y-29064285D01*
X6602380Y-28683333D01*
X6650000Y-28588095D01*
X6697619Y-28540476D01*
X6792857Y-28492857D01*
X6935714Y-28492857D01*
X7030952Y-28540476D01*
X7078571Y-28588095D01*
X7126190Y-28683333D01*
X7126190Y-29064285D01*
X7602380Y-27540476D02*
X7602380Y-28111904D01*
X7602380Y-27826190D02*
X6602380Y-27826190D01*
X6745238Y-27921428D01*
X6840476Y-28016666D01*
X6888095Y-28111904D01*
X6602380Y-26635714D02*
X6602380Y-27111904D01*
X7078571Y-27159523D01*
X7030952Y-27111904D01*
X6983333Y-27016666D01*
X6983333Y-26778571D01*
X7030952Y-26683333D01*
X7078571Y-26635714D01*
X7173809Y-26588095D01*
X7411904Y-26588095D01*
X7507142Y-26635714D01*
X7554761Y-26683333D01*
X7602380Y-26778571D01*
X7602380Y-27016666D01*
X7554761Y-27111904D01*
X7507142Y-27159523D01*
%TO.C,U12*%
X8437309Y13711760D02*
X9009729Y13139340D01*
X9110744Y13105669D01*
X9178087Y13105669D01*
X9279103Y13139340D01*
X9413790Y13274027D01*
X9447461Y13375043D01*
X9447461Y13442386D01*
X9413790Y13543401D01*
X8841370Y14115821D01*
X10255583Y14115821D02*
X9851522Y13711760D01*
X10053553Y13913791D02*
X9346446Y14620897D01*
X9380118Y14452539D01*
X9380118Y14317852D01*
X9346446Y14216836D01*
X9885194Y15024958D02*
X9885194Y15092302D01*
X9918866Y15193317D01*
X10087225Y15361676D01*
X10188240Y15395348D01*
X10255583Y15395348D01*
X10356599Y15361676D01*
X10423942Y15294332D01*
X10491286Y15159645D01*
X10491286Y14351523D01*
X10929018Y14789256D01*
%TO.C,C7*%
X901892Y17419282D02*
X896023Y17352195D01*
X817197Y17223890D01*
X744240Y17162672D01*
X604197Y17107323D01*
X470022Y17119062D01*
X372326Y17161410D01*
X213412Y17276714D01*
X121585Y17386149D01*
X35628Y17562671D01*
X10888Y17666237D01*
X22627Y17800411D01*
X101453Y17928716D01*
X174409Y17989934D01*
X314453Y18045283D01*
X381541Y18039413D01*
X575671Y18326632D02*
X1086367Y18755157D01*
X1400850Y17713633D01*
%TO.C,R4*%
X15752030Y5062268D02*
X15179610Y5163283D01*
X15347969Y4658207D02*
X14640862Y5365313D01*
X14910236Y5634688D01*
X15011251Y5668359D01*
X15078595Y5668359D01*
X15179610Y5634688D01*
X15280625Y5533672D01*
X15314297Y5432657D01*
X15314297Y5365313D01*
X15280625Y5264298D01*
X15011251Y4994924D01*
X15886717Y6139764D02*
X16358122Y5668359D01*
X15448984Y6240779D02*
X15785702Y5567344D01*
X16223435Y6005077D01*
%TO.C,U7*%
X-9361905Y-33927380D02*
X-9361905Y-34736904D01*
X-9314286Y-34832142D01*
X-9266667Y-34879761D01*
X-9171429Y-34927380D01*
X-8980953Y-34927380D01*
X-8885715Y-34879761D01*
X-8838096Y-34832142D01*
X-8790477Y-34736904D01*
X-8790477Y-33927380D01*
X-8409524Y-33927380D02*
X-7742858Y-33927380D01*
X-8171429Y-34927380D01*
%TO.C,C12*%
X24717142Y-8852857D02*
X24764761Y-8900476D01*
X24812380Y-9043333D01*
X24812380Y-9138571D01*
X24764761Y-9281428D01*
X24669523Y-9376666D01*
X24574285Y-9424285D01*
X24383809Y-9471904D01*
X24240952Y-9471904D01*
X24050476Y-9424285D01*
X23955238Y-9376666D01*
X23860000Y-9281428D01*
X23812380Y-9138571D01*
X23812380Y-9043333D01*
X23860000Y-8900476D01*
X23907619Y-8852857D01*
X24812380Y-7900476D02*
X24812380Y-8471904D01*
X24812380Y-8186190D02*
X23812380Y-8186190D01*
X23955238Y-8281428D01*
X24050476Y-8376666D01*
X24098095Y-8471904D01*
X23907619Y-7519523D02*
X23860000Y-7471904D01*
X23812380Y-7376666D01*
X23812380Y-7138571D01*
X23860000Y-7043333D01*
X23907619Y-6995714D01*
X24002857Y-6948095D01*
X24098095Y-6948095D01*
X24240952Y-6995714D01*
X24812380Y-7567142D01*
X24812380Y-6948095D01*
%TO.C,J5*%
X-33647620Y-6233333D02*
X-32933334Y-6233333D01*
X-32790477Y-6280952D01*
X-32695239Y-6376190D01*
X-32647620Y-6519047D01*
X-32647620Y-6614285D01*
X-33647620Y-5280952D02*
X-33647620Y-5757142D01*
X-33171429Y-5804761D01*
X-33219048Y-5757142D01*
X-33266667Y-5661904D01*
X-33266667Y-5423809D01*
X-33219048Y-5328571D01*
X-33171429Y-5280952D01*
X-33076191Y-5233333D01*
X-32838096Y-5233333D01*
X-32742858Y-5280952D01*
X-32695239Y-5328571D01*
X-32647620Y-5423809D01*
X-32647620Y-5661904D01*
X-32695239Y-5757142D01*
X-32742858Y-5804761D01*
%TO.C,U4*%
X-24115000Y5600000D02*
X-22805000Y5600000D01*
X-24115000Y12650000D02*
X-22805000Y12650000D01*
X-24115000Y4950000D02*
X-24115000Y12650000D01*
X-24115000Y4950000D02*
X-22805000Y4950000D01*
X-17725000Y4950000D02*
X-16415000Y4950000D01*
X-17725000Y12650000D02*
X-16415000Y12650000D01*
X-16415000Y4950000D02*
X-16415000Y12650000D01*
X-17725000Y5600000D02*
X-16415000Y5600000D01*
X-22678000Y6260000D02*
G75*
G03*
X-22678000Y6260000I-127000J0D01*
G01*
D13*
%TO.C,R5*%
X8361500Y-31107658D02*
X8361500Y-30633142D01*
X9406500Y-31107658D02*
X9406500Y-30633142D01*
%TO.C,R26*%
X9822500Y-6812742D02*
X9822500Y-7287258D01*
X8777500Y-6812742D02*
X8777500Y-7287258D01*
%TO.C,R16*%
X-24817133Y-14029940D02*
X-25152666Y-13694407D01*
X-25556060Y-14768867D02*
X-25891593Y-14433334D01*
%TO.C,C14*%
X21429200Y-11380580D02*
X21429200Y-11099420D01*
X20409200Y-11380580D02*
X20409200Y-11099420D01*
%TO.C,C6*%
X-693256Y13476791D02*
X-1093518Y13140932D01*
X-1638154Y14602876D02*
X-2038416Y14267017D01*
%TO.C,D3*%
X6950989Y-34806491D02*
X7542391Y-37013632D01*
X8962302Y-36633168D02*
X8370900Y-34426027D01*
X7542391Y-37013632D02*
X8962302Y-36633168D01*
%TO.C,R21*%
X13060500Y-29974258D02*
X13060500Y-29499742D01*
X14105500Y-29974258D02*
X14105500Y-29499742D01*
%TO.C,R9*%
X-15322500Y10487742D02*
X-15322500Y10962258D01*
X-14277500Y10487742D02*
X-14277500Y10962258D01*
%TO.C,D6*%
X15068452Y-34632491D02*
X16400724Y-34011243D01*
X16400724Y-34011243D02*
X15435042Y-31940329D01*
X14102769Y-32561578D02*
X15068452Y-34632491D01*
%TO.C,R3*%
X27397942Y7457100D02*
X27872458Y7457100D01*
X27397942Y8502100D02*
X27872458Y8502100D01*
%TO.C,R1*%
X24032942Y15585100D02*
X24507458Y15585100D01*
X24032942Y16630100D02*
X24507458Y16630100D01*
%TO.C,D4*%
X3592034Y-37614071D02*
X5039701Y-37358808D01*
X5039701Y-37358808D02*
X4642915Y-35108522D01*
X3195248Y-35363785D02*
X3592034Y-37614071D01*
%TO.C,R8*%
X-16562742Y-6822500D02*
X-17037258Y-6822500D01*
X-16562742Y-5777500D02*
X-17037258Y-5777500D01*
%TO.C,R24*%
X-26466449Y15074616D02*
X-26896507Y15275155D01*
X-26908085Y14127525D02*
X-27338143Y14328064D01*
%TO.C,C10*%
X17890000Y7615580D02*
X17890000Y7334420D01*
X18910000Y7615580D02*
X18910000Y7334420D01*
%TO.C,C9*%
X17235000Y9038748D02*
X17235000Y9561252D01*
X15765000Y9038748D02*
X15765000Y9561252D01*
%TO.C,C21*%
X20165800Y-14728748D02*
X20165800Y-15251252D01*
X21635800Y-14728748D02*
X21635800Y-15251252D01*
%TO.C,U9*%
X-14324807Y-24753193D02*
X-15703665Y-26132052D01*
X-14324807Y-24753193D02*
X-12945948Y-23374335D01*
X-17945193Y-21132807D02*
X-16566335Y-19753948D01*
X-17945193Y-21132807D02*
X-20384712Y-23572325D01*
%TO.C,R27*%
X7464940Y9296133D02*
X7129407Y9631666D01*
X8203867Y10035060D02*
X7868334Y10370593D01*
%TO.C,R7*%
X-17577500Y16512258D02*
X-17577500Y16037742D01*
X-18622500Y16512258D02*
X-18622500Y16037742D01*
%TO.C,J1*%
X-29132153Y19648421D02*
X-29892865Y18017067D01*
X-35082421Y10319021D02*
X-33768275Y9706225D01*
X-33768275Y9706225D02*
X-33007562Y11337579D01*
X-33538812Y20301990D02*
X-37101484Y12661815D01*
X-29892865Y18017067D02*
X-28995621Y17598675D01*
X-30446299Y20261217D02*
X-29132153Y19648421D01*
%TO.C,C19*%
X11730000Y-7140580D02*
X11730000Y-6859420D01*
X10710000Y-7140580D02*
X10710000Y-6859420D01*
%TO.C,JP3*%
X-27400000Y7800000D02*
X-26000000Y7800000D01*
X-25300000Y7100000D02*
X-25300000Y6500000D01*
X-26000000Y5800000D02*
X-27400000Y5800000D01*
X-28100000Y6500000D02*
X-28100000Y7100000D01*
X-26000000Y5800000D02*
G75*
G03*
X-25300000Y6500000I1J699999D01*
G01*
X-28100000Y6500000D02*
G75*
G03*
X-27400000Y5800000I700000J0D01*
G01*
X-27400000Y7800000D02*
G75*
G03*
X-28100000Y7100000I0J-700000D01*
G01*
X-25300000Y7100000D02*
G75*
G03*
X-26000000Y7800000I-699999J1D01*
G01*
%TO.C,U10*%
X-17200000Y-1140000D02*
X-19100000Y-1140000D01*
X-18600000Y-3460000D02*
X-17200000Y-3460000D01*
%TO.C,C17*%
X90580Y-22930000D02*
X-190580Y-22930000D01*
X90580Y-21910000D02*
X-190580Y-21910000D01*
%TO.C,D2*%
X-23189771Y25546016D02*
X-24603984Y26960229D01*
X-26230330Y22505456D02*
X-23189771Y25546016D01*
X-24603984Y26960229D02*
X-27644544Y23919670D01*
%TO.C,C15*%
X-3010000Y-18059420D02*
X-3010000Y-18340580D01*
X-1990000Y-18059420D02*
X-1990000Y-18340580D01*
%TO.C,L1*%
X23040000Y-14497936D02*
X23040000Y-15702064D01*
X25760000Y-14497936D02*
X25760000Y-15702064D01*
%TO.C,JP2*%
X-25300000Y9800000D02*
X-25300000Y9200000D01*
X-28100000Y9200000D02*
X-28100000Y9800000D01*
X-27400000Y10500000D02*
X-26000000Y10500000D01*
X-26000000Y8500000D02*
X-27400000Y8500000D01*
X-26000000Y8500000D02*
G75*
G03*
X-25300000Y9200000I1J699999D01*
G01*
X-25300000Y9800000D02*
G75*
G03*
X-26000000Y10500000I-699999J1D01*
G01*
X-28100000Y9200000D02*
G75*
G03*
X-27400000Y8500000I700000J0D01*
G01*
X-27400000Y10500000D02*
G75*
G03*
X-28100000Y9800000I0J-700000D01*
G01*
%TO.C,C8*%
X3499680Y13164488D02*
X3318954Y13379869D01*
X4281046Y13820131D02*
X4100320Y14035512D01*
%TO.C,R19*%
X-30712742Y1022500D02*
X-31187258Y1022500D01*
X-30712742Y-22500D02*
X-31187258Y-22500D01*
%TO.C,U3*%
X404971Y11147251D02*
X919201Y10534416D01*
X2795029Y13152749D02*
X1638012Y14531629D01*
X404971Y11147251D02*
X-109259Y11760087D01*
X2795029Y13152749D02*
X3309259Y12539913D01*
%TO.C,U1*%
X19300000Y13816000D02*
X20760000Y13816000D01*
X19300000Y10656000D02*
X21460000Y10656000D01*
X19300000Y13816000D02*
X19300000Y12886000D01*
X19300000Y10656000D02*
X19300000Y11586000D01*
%TO.C,R10*%
X-16562742Y-5222500D02*
X-17037258Y-5222500D01*
X-16562742Y-4177500D02*
X-17037258Y-4177500D01*
%TO.C,G2*%
G36*
X8338036Y29047694D02*
G01*
X8652936Y28938359D01*
X8897372Y28824370D01*
X9098879Y28712020D01*
X9211501Y28627695D01*
X9315046Y28453544D01*
X9391971Y28221510D01*
X9428067Y27990658D01*
X9409120Y27820058D01*
X9406978Y27815241D01*
X9345252Y27712501D01*
X9217731Y27520441D01*
X9040974Y27263366D01*
X8831547Y26965578D01*
X8749414Y26850390D01*
X8153557Y26017867D01*
X7878974Y26145907D01*
X7701167Y26248722D01*
X7636542Y26333926D01*
X7639750Y26349776D01*
X7692147Y26431479D01*
X7811583Y26603455D01*
X7981954Y26842923D01*
X8187157Y27127103D01*
X8257141Y27223204D01*
X8487134Y27540277D01*
X8644928Y27765745D01*
X8742016Y27920649D01*
X8789886Y28026032D01*
X8800028Y28102935D01*
X8783930Y28172402D01*
X8780568Y28181825D01*
X8657011Y28344171D01*
X8449294Y28468663D01*
X8212992Y28530334D01*
X8036058Y28516266D01*
X7890338Y28443435D01*
X7722601Y28301628D01*
X7520725Y28077467D01*
X7272590Y27757567D01*
X6985329Y27356169D01*
X6567493Y26757461D01*
X6291044Y26886371D01*
X6105660Y26992545D01*
X6049375Y27080591D01*
X6054998Y27101924D01*
X6137374Y27238376D01*
X6288253Y27453886D01*
X6485689Y27720220D01*
X6707734Y28009144D01*
X6932439Y28292424D01*
X7137858Y28541826D01*
X7302044Y28729117D01*
X7382693Y28809908D01*
X7678055Y29007988D01*
X7988245Y29086415D01*
X8338036Y29047694D01*
G37*
G36*
X4061604Y31022749D02*
G01*
X4227227Y30940068D01*
X4320668Y30882752D01*
X4328900Y30871476D01*
X4285870Y30810416D01*
X4174052Y30656645D01*
X4008143Y30430246D01*
X3802839Y30151308D01*
X3688699Y29996638D01*
X3465678Y29692687D01*
X3271892Y29424802D01*
X3123057Y29215006D01*
X3034894Y29085319D01*
X3018843Y29058209D01*
X3039894Y28980476D01*
X3178185Y28883897D01*
X3300978Y28822598D01*
X3622966Y28672452D01*
X3390365Y28277689D01*
X2376467Y28729132D01*
X1362570Y29180573D01*
X1479755Y29379533D01*
X1549214Y29486703D01*
X1619757Y29531651D01*
X1730597Y29517130D01*
X1920941Y29445886D01*
X1995011Y29415663D01*
X2393083Y29252831D01*
X3784109Y31152147D01*
X4061604Y31022749D01*
G37*
G36*
X13195514Y29013836D02*
G01*
X13324519Y28994292D01*
X13674771Y28909537D01*
X14101711Y28764776D01*
X14569010Y28576461D01*
X15040336Y28361046D01*
X15479357Y28134980D01*
X15849744Y27914717D01*
X16081964Y27745614D01*
X16533897Y27316383D01*
X16864663Y26885794D01*
X17091761Y26430912D01*
X17098276Y26413657D01*
X17235231Y25885747D01*
X17237431Y25396889D01*
X17105144Y24947883D01*
X16838633Y24539531D01*
X16438162Y24172632D01*
X16333038Y24098189D01*
X15977833Y23922259D01*
X15520717Y23794706D01*
X14992301Y23717743D01*
X14423196Y23693583D01*
X13844013Y23724440D01*
X13285361Y23812524D01*
X13079300Y23862966D01*
X12488559Y24095258D01*
X11957791Y24453662D01*
X11485402Y24939271D01*
X11452746Y24980261D01*
X11154313Y25309123D01*
X10881678Y25506094D01*
X10638133Y25570562D01*
X10426969Y25501916D01*
X10251479Y25299544D01*
X10205895Y25211840D01*
X10108801Y24844894D01*
X10130995Y24444918D01*
X10267161Y24043437D01*
X10453363Y23743934D01*
X10719369Y23470486D01*
X11092214Y23185586D01*
X11541213Y22905685D01*
X12035676Y22647237D01*
X12544916Y22426693D01*
X13038245Y22260508D01*
X13361984Y22184544D01*
X13838313Y22109195D01*
X14223954Y22080286D01*
X14561615Y22100695D01*
X14894010Y22173302D01*
X15263848Y22300989D01*
X15300353Y22315251D01*
X15575573Y22427716D01*
X15796892Y22526016D01*
X15934707Y22596567D01*
X15965153Y22620243D01*
X16037931Y22649195D01*
X16053525Y22643729D01*
X16093334Y22568488D01*
X16013779Y22444071D01*
X15823261Y22279334D01*
X15530184Y22083138D01*
X15510122Y22070923D01*
X15272371Y21933171D01*
X15076117Y21831020D01*
X14955049Y21781648D01*
X14938817Y21779655D01*
X14817980Y21762856D01*
X14682820Y21722443D01*
X14448252Y21672270D01*
X14119375Y21647853D01*
X13739907Y21649616D01*
X13353565Y21677984D01*
X13139521Y21707469D01*
X12853388Y21779040D01*
X12483921Y21905756D01*
X12063331Y22072997D01*
X11623828Y22266145D01*
X11197620Y22470579D01*
X10816918Y22671679D01*
X10513933Y22854827D01*
X10360055Y22969029D01*
X9912272Y23424380D01*
X9568307Y23922428D01*
X9339564Y24442581D01*
X9237446Y24964245D01*
X9235338Y25000217D01*
X9277707Y25391033D01*
X9426877Y25794826D01*
X9661278Y26167874D01*
X9958103Y26465501D01*
X10437931Y26752616D01*
X11000434Y26954346D01*
X11611891Y27063695D01*
X12238579Y27073662D01*
X12642838Y27022649D01*
X13359773Y26827380D01*
X14001783Y26528995D01*
X14555698Y26135368D01*
X15008342Y25654371D01*
X15067852Y25573539D01*
X15305976Y25292558D01*
X15532803Y25142923D01*
X15761620Y25117820D01*
X15888305Y25152700D01*
X16152670Y25322674D01*
X16318561Y25571077D01*
X16386745Y25877122D01*
X16357990Y26220020D01*
X16233063Y26578984D01*
X16012734Y26933228D01*
X15814328Y27155424D01*
X15368518Y27522647D01*
X14821518Y27863692D01*
X14212247Y28160339D01*
X13579621Y28394364D01*
X12962556Y28547548D01*
X12780947Y28575715D01*
X12330490Y28613838D01*
X11933955Y28594180D01*
X11538626Y28508983D01*
X11091788Y28350494D01*
X11003161Y28314141D01*
X10733443Y28207141D01*
X10517363Y28131533D01*
X10383440Y28096731D01*
X10354097Y28099970D01*
X10395676Y28164795D01*
X10521743Y28287507D01*
X10701982Y28439074D01*
X11227552Y28768201D01*
X11819116Y28973871D01*
X12475498Y29055832D01*
X13195514Y29013836D01*
G37*
G36*
X5897149Y30204649D02*
G01*
X6184758Y30102345D01*
X6473089Y29956368D01*
X6709654Y29791036D01*
X6782166Y29720304D01*
X6939904Y29455691D01*
X6979366Y29172632D01*
X6927251Y28972476D01*
X6863087Y28864615D01*
X6781276Y28841294D01*
X6634056Y28894426D01*
X6588949Y28915197D01*
X6419519Y29011310D01*
X6351342Y29111806D01*
X6346190Y29214774D01*
X6296682Y29395104D01*
X6149303Y29550341D01*
X5946474Y29658486D01*
X5730624Y29697535D01*
X5544175Y29645485D01*
X5532119Y29636966D01*
X5439117Y29536238D01*
X5426154Y29415041D01*
X5500026Y29250920D01*
X5667528Y29021424D01*
X5748108Y28923205D01*
X5987957Y28605182D01*
X6121325Y28341296D01*
X6156141Y28104413D01*
X6100331Y27867406D01*
X6074188Y27807182D01*
X5883299Y27532638D01*
X5626271Y27380532D01*
X5307331Y27351890D01*
X4930711Y27447739D01*
X4808496Y27500276D01*
X4579855Y27627623D01*
X4387135Y27770463D01*
X4314310Y27845300D01*
X4176938Y28091116D01*
X4108431Y28357420D01*
X4120927Y28589709D01*
X4138182Y28636191D01*
X4201676Y28728154D01*
X4296410Y28735608D01*
X4444397Y28676509D01*
X4630662Y28552568D01*
X4726036Y28373337D01*
X4737320Y28330884D01*
X4845242Y28128822D01*
X5031728Y27979735D01*
X5249436Y27912213D01*
X5400210Y27930609D01*
X5513792Y28005414D01*
X5535052Y28124126D01*
X5459985Y28301157D01*
X5284589Y28550918D01*
X5197692Y28659484D01*
X4968691Y28964382D01*
X4839652Y29210590D01*
X4802061Y29428447D01*
X4847404Y29648290D01*
X4890970Y29752473D01*
X5088753Y30021819D01*
X5375429Y30187405D01*
X5662749Y30238960D01*
X5897149Y30204649D01*
G37*
%TO.C,C18*%
X11299000Y-24326420D02*
X11299000Y-24607580D01*
X10279000Y-24326420D02*
X10279000Y-24607580D01*
%TO.C,JP1*%
X-11000000Y-11400000D02*
X-9600000Y-11400000D01*
X-9600000Y-13400000D02*
X-11000000Y-13400000D01*
X-8900000Y-12100000D02*
X-8900000Y-12700000D01*
X-11700000Y-12700000D02*
X-11700000Y-12100000D01*
X-8900000Y-12100000D02*
G75*
G03*
X-9600000Y-11400000I-699999J1D01*
G01*
X-11000000Y-11400000D02*
G75*
G03*
X-11700000Y-12100000I0J-700000D01*
G01*
X-11700000Y-12700000D02*
G75*
G03*
X-11000000Y-13400000I700000J0D01*
G01*
X-9600000Y-13400000D02*
G75*
G03*
X-8900000Y-12700000I1J699999D01*
G01*
%TO.C,SW1*%
X29800000Y-11750000D02*
X30400000Y-10250000D01*
X32950000Y-8850000D02*
X32950000Y-9100000D01*
X26650000Y-8850000D02*
X32950000Y-8850000D01*
X26650000Y-12250000D02*
X26650000Y-9650000D01*
X26650000Y-13000000D02*
X26650000Y-12750000D01*
X32950000Y-13000000D02*
X26650000Y-13000000D01*
X32950000Y-9650000D02*
X32950000Y-12250000D01*
X26650000Y-9100000D02*
X26650000Y-8850000D01*
X29800000Y-10350000D02*
X29800000Y-9650000D01*
X32950000Y-12750000D02*
X32950000Y-13000000D01*
X28700000Y-12250000D02*
X30900000Y-12250000D01*
X30900000Y-9650000D02*
X28700000Y-9650000D01*
X29800000Y-12250000D02*
X29800000Y-11750000D01*
%TO.C,U11*%
X-17200000Y1860000D02*
X-19100000Y1860000D01*
X-18600000Y-460000D02*
X-17200000Y-460000D01*
D11*
%TO.C,U8*%
X5275800Y-10455000D02*
X5275800Y-11030000D01*
X5275800Y-11030000D02*
X4000800Y-11030000D01*
X15625800Y-20805000D02*
X15625800Y-20130000D01*
X5275800Y-20805000D02*
X5950800Y-20805000D01*
X15625800Y-20805000D02*
X14950800Y-20805000D01*
X15625800Y-10455000D02*
X14950800Y-10455000D01*
X5275800Y-20805000D02*
X5275800Y-20130000D01*
X5275800Y-10455000D02*
X5950800Y-10455000D01*
X15625800Y-10455000D02*
X15625800Y-11130000D01*
D13*
%TO.C,D1*%
X30339091Y15251437D02*
X29490563Y14402909D01*
X31647239Y13943289D02*
X30339091Y15251437D01*
X30798711Y13094761D02*
X29490563Y14402909D01*
%TO.C,C4*%
X27494620Y9501600D02*
X27775780Y9501600D01*
X27494620Y10521600D02*
X27775780Y10521600D01*
%TO.C,R13*%
X-11129697Y-17198770D02*
X-11465230Y-17534303D01*
X-10390770Y-17937697D02*
X-10726303Y-18273230D01*
%TO.C,R6*%
X-19355500Y16512258D02*
X-19355500Y16037742D01*
X-20400500Y16512258D02*
X-20400500Y16037742D01*
%TO.C,C16*%
X20260000Y-18209420D02*
X20260000Y-18490580D01*
X19240000Y-18209420D02*
X19240000Y-18490580D01*
%TO.C,C3*%
X22332420Y7408000D02*
X22613580Y7408000D01*
X22332420Y8428000D02*
X22613580Y8428000D01*
%TO.C,J6*%
X-34649476Y-11333792D02*
X-33357517Y-10675505D01*
X-33357517Y-10675505D02*
X-32540334Y-12279317D01*
X-36585547Y-13745623D02*
X-32758407Y-21256808D01*
X-29669200Y-21108133D02*
X-28377241Y-20449847D01*
X-32540334Y-12279317D02*
X-31658237Y-11829867D01*
X-28377241Y-20449847D02*
X-29194424Y-18846035D01*
%TO.C,R12*%
X-9224697Y-19103770D02*
X-9560230Y-19439303D01*
X-8485770Y-19842697D02*
X-8821303Y-20178230D01*
%TO.C,C23*%
X19260800Y-14674420D02*
X19260800Y-14955580D01*
X18240800Y-14674420D02*
X18240800Y-14955580D01*
%TO.C,U2*%
X26492200Y11372600D02*
X25692200Y11372600D01*
X26492200Y11372600D02*
X28292200Y11372600D01*
X26492200Y14492600D02*
X25692200Y14492600D01*
X26492200Y14492600D02*
X27292200Y14492600D01*
%TO.C,R28*%
X11951697Y9362770D02*
X12287230Y9698303D01*
X11212770Y10101697D02*
X11548303Y10437230D01*
%TO.C,Y1*%
X2041600Y-16641400D02*
X-1258400Y-16641400D01*
X-1258400Y-16641400D02*
X-1258400Y-20841400D01*
%TO.C,C22*%
X-22884420Y15890000D02*
X-23165580Y15890000D01*
X-22884420Y16910000D02*
X-23165580Y16910000D01*
%TO.C,J2*%
X28436000Y-5242400D02*
X26986000Y-5242400D01*
X26986000Y1977600D02*
X26986000Y177600D01*
X28436000Y1977600D02*
X26986000Y1977600D01*
X26986000Y-3442400D02*
X25996000Y-3442400D01*
X31256000Y-3972400D02*
X31256000Y707600D01*
X26986000Y-5242400D02*
X26986000Y-3442400D01*
%TO.C,R2*%
X23841942Y9362100D02*
X24316458Y9362100D01*
X23841942Y10407100D02*
X24316458Y10407100D01*
%TO.C,C1*%
X20327580Y15667000D02*
X20046420Y15667000D01*
X20327580Y14647000D02*
X20046420Y14647000D01*
%TO.C,R22*%
X-29972500Y-4687258D02*
X-29972500Y-4212742D01*
X-28927500Y-4687258D02*
X-28927500Y-4212742D01*
%TO.C,R23*%
X-30777500Y-4687258D02*
X-30777500Y-4212742D01*
X-31822500Y-4687258D02*
X-31822500Y-4212742D01*
%TO.C,R11*%
X-15222500Y7737258D02*
X-15222500Y7262742D01*
X-14177500Y7737258D02*
X-14177500Y7262742D01*
%TO.C,R18*%
X10139500Y-31054258D02*
X10139500Y-30579742D01*
X11184500Y-31054258D02*
X11184500Y-30579742D01*
%TO.C,C5*%
X23573200Y13187180D02*
X23573200Y12906020D01*
X22553200Y13187180D02*
X22553200Y12906020D01*
%TO.C,C20*%
X740580Y-14360000D02*
X459420Y-14360000D01*
X740580Y-15380000D02*
X459420Y-15380000D01*
%TO.C,C25*%
X-3265580Y-12510000D02*
X-2984420Y-12510000D01*
X-3265580Y-11490000D02*
X-2984420Y-11490000D01*
%TO.C,R25*%
X-27653493Y12524845D02*
X-28083551Y12725384D01*
X-27211857Y13471936D02*
X-27641915Y13672475D01*
%TO.C,C11*%
X-8910000Y-29365580D02*
X-8910000Y-29084420D01*
X-7890000Y-29365580D02*
X-7890000Y-29084420D01*
%TO.C,C2*%
X29323781Y16760030D02*
X29124970Y16561219D01*
X30045030Y16038781D02*
X29846219Y15839970D01*
%TO.C,C13*%
X22289200Y-11350580D02*
X22289200Y-11069420D01*
X23309200Y-11350580D02*
X23309200Y-11069420D01*
%TO.C,R17*%
X-26190407Y-15323666D02*
X-26525940Y-14988133D01*
X-26929334Y-16062593D02*
X-27264867Y-15727060D01*
%TO.C,R20*%
X-30712742Y-1822500D02*
X-31187258Y-1822500D01*
X-30712742Y-777500D02*
X-31187258Y-777500D01*
%TO.C,R14*%
X777258Y-12647500D02*
X302742Y-12647500D01*
X777258Y-13692500D02*
X302742Y-13692500D01*
%TO.C,C24*%
X-14039970Y-16838781D02*
X-14238781Y-16639970D01*
X-14761219Y-17560030D02*
X-14960030Y-17361219D01*
%TO.C,F1*%
X-22859635Y19622060D02*
X-20899178Y21582517D01*
X-25277940Y22040365D02*
X-23317483Y24000822D01*
%TO.C,R15*%
X6583500Y-31117258D02*
X6583500Y-30642742D01*
X7628500Y-31117258D02*
X7628500Y-30642742D01*
%TO.C,U12*%
X10425269Y10284781D02*
X11768772Y11628284D01*
X9774731Y12915219D02*
X8784781Y11925269D01*
%TO.C,C7*%
X-1054041Y15833228D02*
X-838660Y16013954D01*
X-1709684Y16614594D02*
X-1494303Y16795320D01*
%TO.C,R4*%
X14887230Y6348303D02*
X14551697Y6012770D01*
X14148303Y7087230D02*
X13812770Y6751697D01*
D11*
%TO.C,U7*%
X-7400000Y-33600000D02*
X-9800000Y-33600000D01*
X-7400000Y-31200000D02*
X-9800000Y-31200000D01*
D13*
%TO.C,C12*%
X25110000Y-11390580D02*
X25110000Y-11109420D01*
X24090000Y-11390580D02*
X24090000Y-11109420D01*
%TO.C,J5*%
X-35721516Y-6458129D02*
X-34271516Y-6458129D01*
X-34271516Y5211871D02*
X-33281516Y5211871D01*
X-35721516Y7011871D02*
X-34271516Y7011871D01*
X-38541516Y5741871D02*
X-38541516Y-5188129D01*
X-34271516Y7011871D02*
X-34271516Y5211871D01*
X-34271516Y-6458129D02*
X-34271516Y-4658129D01*
%TO.C,D5*%
X10586710Y-33872631D02*
X11368226Y-36019828D01*
X11368226Y-36019828D02*
X12749574Y-35517059D01*
X12749574Y-35517059D02*
X11968058Y-33369861D01*
%TD*%
M02*
