%TF.GenerationSoftware,KiCad,Pcbnew,6.0.11+dfsg-1~bpo11+1*%
%TF.CreationDate,2023-06-13T12:56:10+00:00*%
%TF.ProjectId,USTTHUNDERMILLPCB01,55535454-4855-44e4-9445-524d494c4c50,rev?*%
%TF.SameCoordinates,Original*%
%TF.FileFunction,Paste,Top*%
%TF.FilePolarity,Positive*%
%FSLAX46Y46*%
G04 Gerber Fmt 4.6, Leading zero omitted, Abs format (unit mm)*
G04 Created by KiCad (PCBNEW 6.0.11+dfsg-1~bpo11+1) date 2023-06-13 12:56:10*
%MOMM*%
%LPD*%
G01*
G04 APERTURE LIST*
G04 Aperture macros list*
%AMRoundRect*
0 Rectangle with rounded corners*
0 $1 Rounding radius*
0 $2 $3 $4 $5 $6 $7 $8 $9 X,Y pos of 4 corners*
0 Add a 4 corners polygon primitive as box body*
4,1,4,$2,$3,$4,$5,$6,$7,$8,$9,$2,$3,0*
0 Add four circle primitives for the rounded corners*
1,1,$1+$1,$2,$3*
1,1,$1+$1,$4,$5*
1,1,$1+$1,$6,$7*
1,1,$1+$1,$8,$9*
0 Add four rect primitives between the rounded corners*
20,1,$1+$1,$2,$3,$4,$5,0*
20,1,$1+$1,$4,$5,$6,$7,0*
20,1,$1+$1,$6,$7,$8,$9,0*
20,1,$1+$1,$8,$9,$2,$3,0*%
%AMRotRect*
0 Rectangle, with rotation*
0 The origin of the aperture is its center*
0 $1 length*
0 $2 width*
0 $3 Rotation angle, in degrees counterclockwise*
0 Add horizontal line*
21,1,$1,$2,0,0,$3*%
G04 Aperture macros list end*
%ADD10RoundRect,0.200000X0.275000X-0.200000X0.275000X0.200000X-0.275000X0.200000X-0.275000X-0.200000X0*%
%ADD11RoundRect,0.200000X-0.275000X0.200000X-0.275000X-0.200000X0.275000X-0.200000X0.275000X0.200000X0*%
%ADD12RoundRect,0.200000X0.335876X0.053033X0.053033X0.335876X-0.335876X-0.053033X-0.053033X-0.335876X0*%
%ADD13RoundRect,0.225000X0.250000X-0.225000X0.250000X0.225000X-0.250000X0.225000X-0.250000X-0.225000X0*%
%ADD14RoundRect,0.250000X0.512652X0.159099X0.159099X0.512652X-0.512652X-0.159099X-0.159099X-0.512652X0*%
%ADD15RoundRect,0.218750X0.304135X-0.144974X0.190902X0.277619X-0.304135X0.144974X-0.190902X-0.277619X0*%
%ADD16RoundRect,0.218750X0.324689X-0.089959X0.139794X0.306551X-0.324689X0.089959X-0.139794X-0.306551X0*%
%ADD17RoundRect,0.200000X-0.200000X-0.275000X0.200000X-0.275000X0.200000X0.275000X-0.200000X0.275000X0*%
%ADD18RoundRect,0.218750X0.290343X-0.170929X0.214371X0.259924X-0.290343X0.170929X-0.214371X-0.259924X0*%
%ADD19RoundRect,0.200000X0.200000X0.275000X-0.200000X0.275000X-0.200000X-0.275000X0.200000X-0.275000X0*%
%ADD20RoundRect,0.200000X0.297482X0.164711X-0.065042X0.333758X-0.297482X-0.164711X0.065042X-0.333758X0*%
%ADD21RoundRect,0.250000X0.475000X-0.250000X0.475000X0.250000X-0.475000X0.250000X-0.475000X-0.250000X0*%
%ADD22RoundRect,0.250000X-0.475000X0.250000X-0.475000X-0.250000X0.475000X-0.250000X0.475000X0.250000X0*%
%ADD23RoundRect,0.150000X-0.477297X-0.689429X0.689429X0.477297X0.477297X0.689429X-0.689429X-0.477297X0*%
%ADD24RoundRect,0.150000X-0.571023X0.431779X-0.697808X0.159887X0.571023X-0.431779X0.697808X-0.159887X0*%
%ADD25RoundRect,0.250000X-0.891284X0.691457X-1.102593X0.238303X0.891284X-0.691457X1.102593X-0.238303X0*%
%ADD26R,0.650000X0.400000*%
%ADD27RoundRect,0.225000X0.225000X0.250000X-0.225000X0.250000X-0.225000X-0.250000X0.225000X-0.250000X0*%
%ADD28RotRect,1.300000X1.700000X135.000000*%
%ADD29RoundRect,0.225000X-0.250000X0.225000X-0.250000X-0.225000X0.250000X-0.225000X0.250000X0.225000X0*%
%ADD30RoundRect,0.250000X-1.075000X0.375000X-1.075000X-0.375000X1.075000X-0.375000X1.075000X0.375000X0*%
%ADD31RoundRect,0.225000X0.017678X-0.335876X0.335876X-0.017678X-0.017678X0.335876X-0.335876X0.017678X0*%
%ADD32RoundRect,0.150000X-0.512500X-0.150000X0.512500X-0.150000X0.512500X0.150000X-0.512500X0.150000X0*%
%ADD33R,0.900000X0.800000*%
%ADD34R,1.550000X1.150000*%
%ADD35R,1.550000X1.050000*%
%ADD36R,1.500000X0.550000*%
%ADD37R,0.550000X1.500000*%
%ADD38RotRect,0.600000X0.700000X135.000000*%
%ADD39RoundRect,0.225000X-0.225000X-0.250000X0.225000X-0.250000X0.225000X0.250000X-0.225000X0.250000X0*%
%ADD40RoundRect,0.200000X-0.053033X0.335876X-0.335876X0.053033X0.053033X-0.335876X0.335876X-0.053033X0*%
%ADD41RoundRect,0.150000X-0.691803X-0.184142X-0.555606X-0.451444X0.691803X0.184142X0.555606X0.451444X0*%
%ADD42RoundRect,0.250000X-1.093605X-0.276638X-0.866610X-0.722141X1.093605X0.276638X0.866610X0.722141X0*%
%ADD43RoundRect,0.150000X0.512500X0.150000X-0.512500X0.150000X-0.512500X-0.150000X0.512500X-0.150000X0*%
%ADD44R,1.200000X1.400000*%
%ADD45RoundRect,0.150000X0.700000X-0.150000X0.700000X0.150000X-0.700000X0.150000X-0.700000X-0.150000X0*%
%ADD46RoundRect,0.250000X1.100000X-0.250000X1.100000X0.250000X-1.100000X0.250000X-1.100000X-0.250000X0*%
%ADD47RoundRect,0.225000X-0.017678X0.335876X-0.335876X0.017678X0.017678X-0.335876X0.335876X-0.017678X0*%
%ADD48RoundRect,0.225000X0.335876X0.017678X0.017678X0.335876X-0.335876X-0.017678X-0.017678X-0.335876X0*%
%ADD49RoundRect,0.250000X0.804334X-1.246276X1.246276X-0.804334X-0.804334X1.246276X-1.246276X0.804334X0*%
%ADD50R,0.600000X0.300000*%
%ADD51R,0.600000X1.020000*%
%ADD52RoundRect,0.150000X-0.700000X0.150000X-0.700000X-0.150000X0.700000X-0.150000X0.700000X0.150000X0*%
%ADD53RoundRect,0.250000X-1.100000X0.250000X-1.100000X-0.250000X1.100000X-0.250000X1.100000X0.250000X0*%
%ADD54RoundRect,0.218750X0.315613X-0.117915X0.165979X0.293200X-0.315613X0.117915X-0.165979X-0.293200X0*%
G04 APERTURE END LIST*
D10*
%TO.C,R5*%
X8884000Y-31695400D03*
X8884000Y-30045400D03*
%TD*%
D11*
%TO.C,R26*%
X-13100000Y-6075000D03*
X-13100000Y-7725000D03*
%TD*%
D12*
%TO.C,R16*%
X-24771000Y-14815000D03*
X-25937726Y-13648274D03*
%TD*%
D13*
%TO.C,C14*%
X20919200Y-12015000D03*
X20919200Y-10465000D03*
%TD*%
D14*
%TO.C,C6*%
X-19691000Y24682000D03*
X-21034502Y26025502D03*
%TD*%
D15*
%TO.C,D3*%
X8071820Y-36149667D03*
X7664180Y-34628333D03*
%TD*%
D10*
%TO.C,R21*%
X13583000Y-30562000D03*
X13583000Y-28912000D03*
%TD*%
%TO.C,R9*%
X-14800000Y9900000D03*
X-14800000Y11550000D03*
%TD*%
D16*
%TO.C,D6*%
X15439812Y-33689717D03*
X14774188Y-32262283D03*
%TD*%
D17*
%TO.C,R3*%
X26810200Y7979600D03*
X28460200Y7979600D03*
%TD*%
%TO.C,R1*%
X23445200Y16107600D03*
X25095200Y16107600D03*
%TD*%
D18*
%TO.C,D4*%
X4194748Y-36799536D03*
X3921252Y-35248464D03*
%TD*%
D19*
%TO.C,R8*%
X-15975000Y-6300000D03*
X-17625000Y-6300000D03*
%TD*%
D20*
%TO.C,R24*%
X-26154592Y14352680D03*
X-27650000Y15050000D03*
%TD*%
D13*
%TO.C,C10*%
X18300000Y8175000D03*
X18300000Y9725000D03*
%TD*%
D21*
%TO.C,C9*%
X16500000Y8350000D03*
X16500000Y10250000D03*
%TD*%
D22*
%TO.C,C21*%
X20900800Y-14040000D03*
X20900800Y-15940000D03*
%TD*%
D23*
%TO.C,U9*%
X-19232128Y-23346051D03*
X-18334102Y-24244076D03*
X-17436076Y-25142102D03*
X-16538051Y-26040128D03*
X-13037872Y-22539949D03*
X-13935898Y-21641924D03*
X-14833924Y-20743898D03*
X-15731949Y-19845872D03*
%TD*%
D11*
%TO.C,R7*%
X-18100000Y17100000D03*
X-18100000Y15450000D03*
%TD*%
D24*
%TO.C,J1*%
X-30002649Y17450368D03*
X-30530921Y16317483D03*
X-31059194Y15184599D03*
X-31587467Y14051714D03*
X-32115740Y12918829D03*
X-32644013Y11785944D03*
D25*
X-32120990Y20479416D03*
X-36326041Y11461653D03*
%TD*%
D13*
%TO.C,C19*%
X11220000Y-7775000D03*
X11220000Y-6225000D03*
%TD*%
D26*
%TO.C,U10*%
X-18850000Y-1650000D03*
X-18850000Y-2300000D03*
X-18850000Y-2950000D03*
X-16950000Y-2950000D03*
X-16950000Y-1650000D03*
%TD*%
D27*
%TO.C,C17*%
X725000Y-22420000D03*
X-825000Y-22420000D03*
%TD*%
D28*
%TO.C,D2*%
X-21882563Y22809563D03*
X-24357437Y25284437D03*
%TD*%
D29*
%TO.C,C15*%
X-2500000Y-17425000D03*
X-2500000Y-18975000D03*
%TD*%
D30*
%TO.C,L1*%
X24400000Y-13700000D03*
X24400000Y-16500000D03*
%TD*%
D31*
%TO.C,C8*%
X-11048008Y26001992D03*
X-9951992Y27098008D03*
%TD*%
D19*
%TO.C,R19*%
X-30125000Y500000D03*
X-31775000Y500000D03*
%TD*%
D32*
%TO.C,U3*%
X-15637500Y27200000D03*
X-15637500Y26250000D03*
X-15637500Y25300000D03*
X-13362500Y25300000D03*
X-13362500Y27200000D03*
%TD*%
D33*
%TO.C,U1*%
X21060000Y11286000D03*
X21060000Y13186000D03*
X19060000Y12236000D03*
%TD*%
D19*
%TO.C,R10*%
X-15975000Y-4700000D03*
X-17625000Y-4700000D03*
%TD*%
D29*
%TO.C,C18*%
X10789000Y-23692000D03*
X10789000Y-25242000D03*
%TD*%
D34*
%TO.C,SW1*%
X31700000Y-9750000D03*
X27900000Y-9750000D03*
X27900000Y-12150000D03*
D35*
X31700000Y-12150000D03*
%TD*%
D26*
%TO.C,U11*%
X-18850000Y1350000D03*
X-18850000Y700000D03*
X-18850000Y50000D03*
X-16950000Y50000D03*
X-16950000Y1350000D03*
%TD*%
D36*
%TO.C,U8*%
X4750800Y-11630000D03*
X4750800Y-12430000D03*
X4750800Y-13230000D03*
X4750800Y-14030000D03*
X4750800Y-14830000D03*
X4750800Y-15630000D03*
X4750800Y-16430000D03*
X4750800Y-17230000D03*
X4750800Y-18030000D03*
X4750800Y-18830000D03*
X4750800Y-19630000D03*
D37*
X6450800Y-21330000D03*
X7250800Y-21330000D03*
X8050800Y-21330000D03*
X8850800Y-21330000D03*
X9650800Y-21330000D03*
X10450800Y-21330000D03*
X11250800Y-21330000D03*
X12050800Y-21330000D03*
X12850800Y-21330000D03*
X13650800Y-21330000D03*
X14450800Y-21330000D03*
D36*
X16150800Y-19630000D03*
X16150800Y-18830000D03*
X16150800Y-18030000D03*
X16150800Y-17230000D03*
X16150800Y-16430000D03*
X16150800Y-15630000D03*
X16150800Y-14830000D03*
X16150800Y-14030000D03*
X16150800Y-13230000D03*
X16150800Y-12430000D03*
X16150800Y-11630000D03*
D37*
X14450800Y-9930000D03*
X13650800Y-9930000D03*
X12850800Y-9930000D03*
X12050800Y-9930000D03*
X11250800Y-9930000D03*
X10450800Y-9930000D03*
X9650800Y-9930000D03*
X8850800Y-9930000D03*
X8050800Y-9930000D03*
X7250800Y-9930000D03*
X6450800Y-9930000D03*
%TD*%
D38*
%TO.C,D1*%
X30233025Y14508975D03*
X31222975Y13519025D03*
%TD*%
D39*
%TO.C,C4*%
X26860200Y10011600D03*
X28410200Y10011600D03*
%TD*%
D40*
%TO.C,R13*%
X-10344637Y-17152637D03*
X-11511363Y-18319363D03*
%TD*%
D11*
%TO.C,R6*%
X-19878000Y17100000D03*
X-19878000Y15450000D03*
%TD*%
D29*
%TO.C,C16*%
X19750000Y-17575000D03*
X19750000Y-19125000D03*
%TD*%
D39*
%TO.C,C3*%
X21698000Y7918000D03*
X23248000Y7918000D03*
%TD*%
D41*
%TO.C,J6*%
X-32161358Y-12714722D03*
X-31593870Y-13828480D03*
X-31026382Y-14942238D03*
X-30458894Y-16055997D03*
X-29891406Y-17169755D03*
X-29323918Y-18283513D03*
D42*
X-31335256Y-21384645D03*
X-35852462Y-12519130D03*
%TD*%
D40*
%TO.C,R12*%
X-8439637Y-19057637D03*
X-9606363Y-20224363D03*
%TD*%
D29*
%TO.C,C23*%
X18750800Y-14040000D03*
X18750800Y-15590000D03*
%TD*%
D43*
%TO.C,U2*%
X27629700Y11982600D03*
X27629700Y12932600D03*
X27629700Y13882600D03*
X25354700Y13882600D03*
X25354700Y11982600D03*
%TD*%
D44*
%TO.C,Y1*%
X-558400Y-17441400D03*
X-558400Y-20041400D03*
X1341600Y-20041400D03*
X1341600Y-17441400D03*
%TD*%
D27*
%TO.C,C22*%
X-22250000Y16400000D03*
X-23800000Y16400000D03*
%TD*%
D45*
%TO.C,J2*%
X26846000Y-2882400D03*
X26846000Y-1632400D03*
X26846000Y-382400D03*
D46*
X30046000Y1467600D03*
X30046000Y-4732400D03*
%TD*%
D17*
%TO.C,R2*%
X23254200Y9884600D03*
X24904200Y9884600D03*
%TD*%
D27*
%TO.C,C1*%
X20962000Y15157000D03*
X19412000Y15157000D03*
%TD*%
D10*
%TO.C,R22*%
X-29450000Y-5275000D03*
X-29450000Y-3625000D03*
%TD*%
%TO.C,R23*%
X-31300000Y-5275000D03*
X-31300000Y-3625000D03*
%TD*%
D11*
%TO.C,R11*%
X-14700000Y8325000D03*
X-14700000Y6675000D03*
%TD*%
D10*
%TO.C,R18*%
X10662000Y-31642000D03*
X10662000Y-29992000D03*
%TD*%
D29*
%TO.C,C5*%
X23063200Y13821600D03*
X23063200Y12271600D03*
%TD*%
D27*
%TO.C,C20*%
X1375000Y-14870000D03*
X-175000Y-14870000D03*
%TD*%
D39*
%TO.C,C25*%
X-3900000Y-12000000D03*
X-2350000Y-12000000D03*
%TD*%
D20*
%TO.C,R25*%
X-26900000Y12750000D03*
X-28395408Y13447320D03*
%TD*%
D13*
%TO.C,C11*%
X-8400000Y-30000000D03*
X-8400000Y-28450000D03*
%TD*%
D47*
%TO.C,C2*%
X30133008Y16848008D03*
X29036992Y15751992D03*
%TD*%
D13*
%TO.C,C13*%
X22799200Y-11985000D03*
X22799200Y-10435000D03*
%TD*%
D12*
%TO.C,R17*%
X-26144274Y-16108726D03*
X-27311000Y-14942000D03*
%TD*%
D19*
%TO.C,R20*%
X-30125000Y-1300000D03*
X-31775000Y-1300000D03*
%TD*%
%TO.C,R14*%
X1365000Y-13170000D03*
X-285000Y-13170000D03*
%TD*%
D48*
%TO.C,C24*%
X-13951992Y-17648008D03*
X-15048008Y-16551992D03*
%TD*%
D49*
%TO.C,F1*%
X-19711441Y20138559D03*
X-16688559Y23161441D03*
%TD*%
D10*
%TO.C,R15*%
X7106000Y-31705000D03*
X7106000Y-30055000D03*
%TD*%
D48*
%TO.C,C7*%
X-17999992Y26419992D03*
X-19096008Y27516008D03*
%TD*%
D40*
%TO.C,R4*%
X14933363Y7133363D03*
X13766637Y5966637D03*
%TD*%
D50*
%TO.C,U7*%
X-7400000Y-33150000D03*
X-7400000Y-32650000D03*
X-7400000Y-32150000D03*
X-7400000Y-31650000D03*
X-9800000Y-31650000D03*
X-9800000Y-32150000D03*
X-9800000Y-32650000D03*
X-9800000Y-33150000D03*
D51*
X-8600000Y-32400000D03*
%TD*%
D13*
%TO.C,C12*%
X24600000Y-12025000D03*
X24600000Y-10475000D03*
%TD*%
D52*
%TO.C,J5*%
X-34131516Y4651871D03*
X-34131516Y3401871D03*
X-34131516Y2151871D03*
X-34131516Y901871D03*
X-34131516Y-348129D03*
X-34131516Y-1598129D03*
X-34131516Y-2848129D03*
X-34131516Y-4098129D03*
D53*
X-37331516Y-5948129D03*
X-37331516Y6501871D03*
%TD*%
D54*
%TO.C,D5*%
X11820341Y-35113008D03*
X11281659Y-33632992D03*
%TD*%
M02*
