M48
; DRILL file {KiCad 7.0.5.1-1-g8f565ef7f0-dirty-deb11} date Wed Jun 28 16:47:18 2023
; FORMAT={-:-/ absolute / metric / decimal}
; #@! TF.CreationDate,2023-06-28T16:47:18+00:00
; #@! TF.GenerationSoftware,Kicad,Pcbnew,7.0.5.1-1-g8f565ef7f0-dirty-deb11
; #@! TF.FileFunction,Plated,1,4,PTH
FMAT,2
METRIC
; #@! TA.AperFunction,Plated,PTH,ViaDrill
T1C0.400
%
G90
G05
T1
X-38.3Y-5.9
X-38.233Y6.394
X-38.1Y8.0
X-37.725Y-9.735
X-37.217Y-11.132
X-37.1Y11.8
X-36.836Y8.045
X-36.6Y-13.0
X-36.5Y-6.0
X-36.455Y6.394
X-36.074Y11.347
X-36.074Y-9.481
X-35.85Y12.55
X-35.693Y-10.624
X-35.1Y-12.1
X-34.5Y8.45
X-34.25Y6.1
X-34.169Y-9.481
X-32.65Y19.45
X-32.264Y21.38
X-32.1Y-21.7
X-32.05Y11.55
X-30.867Y-23.578
X-30.74Y20.618
X-30.5Y-21.0
X-30.359Y-7.068
X-30.0Y19.4
X-29.65Y22.5
X-29.3Y-9.3
X-29.25Y3.6
X-29.15Y17.05
X-29.089Y-10.751
X-28.962Y-1.988
X-28.835Y6.394
X-28.8Y24.1
X-28.75Y-0.55
X-28.5Y-16.45
X-28.4Y-25.0
X-28.327Y-6.56
X-28.0Y9.5
X-27.7Y17.1
X-27.65Y-0.75
X-27.2Y-23.0
X-27.064Y5.742
X-26.93Y-7.83
X-26.904Y-3.404
X-26.9Y-4.5
X-26.85Y21.3
X-26.803Y-11.513
X-26.295Y0.552
X-25.7Y13.8
X-25.3Y-3.1
X-25.1Y16.7
X-24.7Y8.5
X-24.5Y10.55
X-24.4Y-20.2
X-24.39Y-4.02
X-24.3Y19.8
X-24.05Y-18.95
X-23.9Y-17.1
X-23.8Y14.5
X-23.6Y-10.7
X-22.916Y-8.416
X-22.739Y-5.798
X-22.231Y-2.242
X-22.0Y18.05
X-21.088Y-3.258
X-21.088Y-7.322
X-20.75Y-9.3
X-20.707Y-11.132
X-20.707Y-12.91
X-20.0Y-16.4
X-18.7Y-9.7
X-18.607Y-6.222
X-18.325Y-4.7
X-17.45Y-13.15
X-17.45Y-15.175
X-17.224Y-16.624
X-15.375Y11.6
X-15.375Y-2.897
X-15.3Y14.5
X-14.975Y-11.3
X-14.8Y16.5
X-14.8Y-7.9
X-14.7Y-5.8
X-14.68Y4.67
X-14.4Y1.695
X-14.357Y0.552
X-14.357Y-0.591
X-14.357Y-1.607
X-13.722Y-2.496
X-13.55Y18.0
X-13.087Y-10.751
X-12.9Y-18.3
X-12.706Y-2.623
X-12.7Y3.0
X-12.5Y10.0
X-12.325Y-19.133
X-11.95Y-14.3
X-11.9Y20.2
X-11.9Y14.75
X-11.7Y3.0
X-11.69Y-2.623
X-11.0Y-4.55
X-10.674Y-1.607
X-10.674Y-2.623
X-10.674Y-10.751
X-10.65Y3.0
X-10.65Y1.7
X-10.55Y-21.2
X-10.166Y-15.577
X-10.15Y7.6
X-9.7Y-5.7
X-9.658Y-1.607
X-9.65Y1.7
X-9.4Y18.0
X-9.15Y-3.893
X-9.0Y21.8
X-8.65Y1.7
X-8.642Y-1.607
X-8.5Y16.3
X-8.3Y9.95
X-8.134Y-16.847
X-8.007Y-10.878
X-7.9Y-5.45
X-7.8Y-6.65
X-7.557Y-8.611
X-7.55Y4.9
X-6.3Y19.8
X-6.229Y-16.593
X-6.2Y-10.9
X-6.2Y-22.9
X-5.4Y23.3
X-5.4Y7.6
X-5.2Y-20.825
X-4.578Y-7.957
X-4.451Y-14.688
X-4.4Y-22.9
X-3.602Y-22.198
X-3.4Y-13.6
X-3.1Y14.45
X-2.75Y9.85
X-2.546Y-10.878
X-1.657Y-15.831
X-1.1Y23.8
X-0.9Y11.75
X-0.3Y16.1
X-0.26Y-12.34
X1.2Y-10.7
X2.2Y-23.6
X2.7Y-15.831
X2.95Y-13.33
X3.4Y23.6
X3.45Y8.3
X3.5Y-23.5
X3.55Y17.05
X3.684Y-20.1
X4.75Y7.75
X5.328Y-23.197
X5.582Y7.156
X5.85Y10.35
X6.217Y-16.466
X6.4Y-12.45
X6.471Y-19.514
X7.05Y-22.85
X7.6Y15.6
X7.7Y4.5
X7.8Y22.35
X7.85Y-18.8
X8.2Y7.5
X8.249Y-3.131
X8.35Y10.75
X8.6Y12.55
X8.884Y-0.21
X9.011Y-17.228
X9.25Y2.85
X9.265Y-19.133
X10.1Y-5.4
X10.3Y-16.0
X10.7Y-13.0
X10.95Y4.5
X11.3Y20.9
X11.3Y-4.1
X11.8Y6.4
X11.953Y-17.953
X12.051Y-19.951
X12.8Y-15.1
X13.0Y-4.0
X13.1Y3.0
X13.3Y11.5
X13.3Y-13.7
X13.329Y-16.339
X13.4Y-17.95
X13.5Y-19.8
X13.55Y0.15
X14.0Y-4.9
X14.35Y-17.2
X14.95Y18.55
X16.1Y-7.1
X18.3Y-17.3
X18.4Y-15.63
X20.0Y-3.8
X22.393Y-1.102
X22.5Y1.1
X23.7Y-13.2
X23.921Y28.238
X24.01Y-28.13
X24.9Y-8.4
X26.4Y3.5
X27.4Y-13.3
X29.4Y5.0
X30.9Y-4.8
X31.363Y-14.815
X33.25Y-10.5
X33.6Y-6.3
X34.1Y-8.1
X34.65Y-4.55
X35.5Y-3.1
X36.3Y0.0
X38.9Y0.0
T0
M30
