%TF.GenerationSoftware,KiCad,Pcbnew,(5.99.0-10394-g2e15de97e0)*%
%TF.CreationDate,2021-08-25T07:29:16+02:00*%
%TF.ProjectId,USTTHUNDERMILLPCB01A,55535454-4855-44e4-9445-524d494c4c50,rev?*%
%TF.SameCoordinates,Original*%
%TF.FileFunction,Soldermask,Top*%
%TF.FilePolarity,Negative*%
%FSLAX46Y46*%
G04 Gerber Fmt 4.6, Leading zero omitted, Abs format (unit mm)*
G04 Created by KiCad (PCBNEW (5.99.0-10394-g2e15de97e0)) date 2021-08-25 07:29:16*
%MOMM*%
%LPD*%
G01*
G04 APERTURE LIST*
G04 Aperture macros list*
%AMRoundRect*
0 Rectangle with rounded corners*
0 $1 Rounding radius*
0 $2 $3 $4 $5 $6 $7 $8 $9 X,Y pos of 4 corners*
0 Add a 4 corners polygon primitive as box body*
4,1,4,$2,$3,$4,$5,$6,$7,$8,$9,$2,$3,0*
0 Add four circle primitives for the rounded corners*
1,1,$1+$1,$2,$3*
1,1,$1+$1,$4,$5*
1,1,$1+$1,$6,$7*
1,1,$1+$1,$8,$9*
0 Add four rect primitives between the rounded corners*
20,1,$1+$1,$2,$3,$4,$5,0*
20,1,$1+$1,$4,$5,$6,$7,0*
20,1,$1+$1,$6,$7,$8,$9,0*
20,1,$1+$1,$8,$9,$2,$3,0*%
G04 Aperture macros list end*
%ADD10C,0.150000*%
%ADD11O,1.100000X3.000000*%
%ADD12RoundRect,0.300000X0.375000X-0.300000X0.375000X0.300000X-0.375000X0.300000X-0.375000X-0.300000X0*%
%ADD13RoundRect,0.300000X0.477297X0.053033X0.053033X0.477297X-0.477297X-0.053033X-0.053033X-0.477297X0*%
%ADD14RoundRect,0.325000X-0.350000X0.325000X-0.350000X-0.325000X0.350000X-0.325000X0.350000X0.325000X0*%
%ADD15RoundRect,0.350000X0.654074X0.159099X0.159099X0.654074X-0.654074X-0.159099X-0.159099X-0.654074X0*%
%ADD16RoundRect,0.318750X0.426610X-0.215685X0.261613X0.400093X-0.426610X0.215685X-0.261613X-0.400093X0*%
%ADD17RoundRect,0.300000X-0.375000X0.300000X-0.375000X-0.300000X0.375000X-0.300000X0.375000X0.300000X0*%
%ADD18RoundRect,0.318750X0.457582X-0.138328X0.188163X0.439443X-0.457582X0.138328X-0.188163X-0.439443X0*%
%ADD19RoundRect,0.300000X-0.300000X-0.375000X0.300000X-0.375000X0.300000X0.375000X-0.300000X0.375000X0*%
%ADD20RoundRect,0.318750X0.406188X-0.252045X0.295487X0.375770X-0.406188X0.252045X-0.295487X-0.375770X0*%
%ADD21RoundRect,0.300000X-0.474760X0.072308X-0.174760X-0.447308X0.474760X-0.072308X0.174760X0.447308X0*%
%ADD22RoundRect,0.325000X0.350000X-0.325000X0.350000X0.325000X-0.350000X0.325000X-0.350000X-0.325000X0*%
%ADD23RoundRect,0.350000X0.575000X-0.350000X0.575000X0.350000X-0.575000X0.350000X-0.575000X-0.350000X0*%
%ADD24RoundRect,0.350000X-0.575000X0.350000X-0.575000X-0.350000X0.575000X-0.350000X0.575000X0.350000X0*%
%ADD25RoundRect,0.250000X-0.477297X-0.830850X0.830850X0.477297X0.477297X0.830850X-0.830850X-0.477297X0*%
%ADD26RoundRect,0.250000X-0.619392X0.564672X-0.830701X0.111518X0.619392X-0.564672X0.830701X-0.111518X0*%
%ADD27RoundRect,0.350000X-0.939653X0.824350X-1.235486X0.189934X0.939653X-0.824350X1.235486X-0.189934X0*%
%ADD28RoundRect,0.325000X0.325000X0.350000X-0.325000X0.350000X-0.325000X-0.350000X0.325000X-0.350000X0*%
%ADD29RoundRect,0.200000X1.060660X0.141421X0.141421X1.060660X-1.060660X-0.141421X-0.141421X-1.060660X0*%
%ADD30RoundRect,0.330000X1.195000X-0.495000X1.195000X0.495000X-1.195000X0.495000X-1.195000X-0.495000X0*%
%ADD31RoundRect,0.325000X-0.325000X-0.350000X0.325000X-0.350000X0.325000X0.350000X-0.325000X0.350000X0*%
%ADD32RoundRect,0.300000X0.300000X0.375000X-0.300000X0.375000X-0.300000X-0.375000X0.300000X-0.375000X0*%
%ADD33RoundRect,0.250000X0.250000X-0.612500X0.250000X0.612500X-0.250000X0.612500X-0.250000X-0.612500X0*%
%ADD34RoundRect,0.200000X0.450000X0.400000X-0.450000X0.400000X-0.450000X-0.400000X0.450000X-0.400000X0*%
%ADD35RoundRect,0.200000X-0.775000X-0.575000X0.775000X-0.575000X0.775000X0.575000X-0.775000X0.575000X0*%
%ADD36RoundRect,0.200000X-0.775000X-0.525000X0.775000X-0.525000X0.775000X0.525000X-0.775000X0.525000X0*%
%ADD37RoundRect,0.200000X-0.750000X-0.275000X0.750000X-0.275000X0.750000X0.275000X-0.750000X0.275000X0*%
%ADD38RoundRect,0.200000X0.275000X-0.750000X0.275000X0.750000X-0.275000X0.750000X-0.275000X-0.750000X0*%
%ADD39RoundRect,0.200000X0.459619X0.035355X0.035355X0.459619X-0.459619X-0.035355X-0.035355X-0.459619X0*%
%ADD40RoundRect,0.300000X-0.053033X0.477297X-0.477297X0.053033X0.053033X-0.477297X0.477297X-0.053033X0*%
%ADD41RoundRect,0.250000X-0.826303X-0.140441X-0.599308X-0.585944X0.826303X0.140441X0.599308X0.585944X0*%
%ADD42RoundRect,0.350000X-1.228105X-0.232936X-0.910311X-0.856641X1.228105X0.232936X0.910311X0.856641X0*%
%ADD43RoundRect,0.250000X0.612500X0.250000X-0.612500X0.250000X-0.612500X-0.250000X0.612500X-0.250000X0*%
%ADD44RoundRect,0.200000X-0.600000X0.700000X-0.600000X-0.700000X0.600000X-0.700000X0.600000X0.700000X0*%
%ADD45RoundRect,0.250000X0.800000X-0.250000X0.800000X0.250000X-0.800000X0.250000X-0.800000X-0.250000X0*%
%ADD46RoundRect,0.350000X1.200000X-0.350000X1.200000X0.350000X-1.200000X0.350000X-1.200000X-0.350000X0*%
%ADD47RoundRect,0.325000X-0.017678X0.477297X-0.477297X0.017678X0.017678X-0.477297X0.477297X-0.017678X0*%
%ADD48RoundRect,0.325000X0.017678X-0.477297X0.477297X-0.017678X-0.017678X0.477297X-0.477297X0.017678X0*%
%ADD49RoundRect,0.325000X0.477297X0.017678X0.017678X0.477297X-0.477297X-0.017678X-0.017678X-0.477297X0*%
%ADD50RoundRect,0.200000X-0.300000X-0.150000X0.300000X-0.150000X0.300000X0.150000X-0.300000X0.150000X0*%
%ADD51RoundRect,0.200000X-0.500000X-0.850000X0.500000X-0.850000X0.500000X0.850000X-0.500000X0.850000X0*%
%ADD52RoundRect,0.250000X-0.800000X0.250000X-0.800000X-0.250000X0.800000X-0.250000X0.800000X0.250000X0*%
%ADD53RoundRect,0.350000X-1.200000X0.350000X-1.200000X-0.350000X1.200000X-0.350000X1.200000X0.350000X0*%
%ADD54RoundRect,0.318750X0.443784X-0.177682X0.225747X0.421372X-0.443784X0.177682X-0.225747X-0.421372X0*%
G04 APERTURE END LIST*
D10*
X135006800Y-90956000D02*
X129906800Y-90956000D01*
X129906800Y-90956000D02*
X129906800Y-94056000D01*
X129906800Y-94056000D02*
X135006800Y-94056000D01*
X135006800Y-94056000D02*
X135006800Y-90956000D01*
G36*
X135006800Y-90956000D02*
G01*
X129906800Y-90956000D01*
X129906800Y-94056000D01*
X135006800Y-94056000D01*
X135006800Y-90956000D01*
G37*
X128606800Y-90206000D02*
X131306800Y-90206000D01*
X131306800Y-90206000D02*
X131306800Y-94756000D01*
X131306800Y-94756000D02*
X128606800Y-94756000D01*
X128606800Y-94756000D02*
X128606800Y-90206000D01*
G36*
X128606800Y-90206000D02*
G01*
X131306800Y-90206000D01*
X131306800Y-94756000D01*
X128606800Y-94756000D01*
X128606800Y-90206000D01*
G37*
X135006800Y-90956000D02*
X129906800Y-90956000D01*
X129906800Y-90956000D02*
X129906800Y-94056000D01*
X129906800Y-94056000D02*
X135006800Y-94056000D01*
X135006800Y-94056000D02*
X135006800Y-90956000D01*
G36*
X135006800Y-90956000D02*
G01*
X129906800Y-90956000D01*
X129906800Y-94056000D01*
X135006800Y-94056000D01*
X135006800Y-90956000D01*
G37*
X128606800Y-90206000D02*
X131306800Y-90206000D01*
X131306800Y-90206000D02*
X131306800Y-94756000D01*
X131306800Y-94756000D02*
X128606800Y-94756000D01*
X128606800Y-94756000D02*
X128606800Y-90206000D01*
G36*
X128606800Y-90206000D02*
G01*
X131306800Y-90206000D01*
X131306800Y-94756000D01*
X128606800Y-94756000D01*
X128606800Y-90206000D01*
G37*
D11*
%TO.C,U4*%
X140185000Y-75960000D03*
X141455000Y-75960000D03*
X142725000Y-75960000D03*
X144000000Y-75960000D03*
X143995000Y-67160000D03*
X142725000Y-67160000D03*
X141390000Y-67160000D03*
X140185000Y-67160000D03*
%TD*%
D12*
%TO.C,R5*%
X151384000Y-124195400D03*
X151384000Y-122545400D03*
%TD*%
D13*
%TO.C,R16*%
X117729000Y-107315000D03*
X116562274Y-106148274D03*
%TD*%
D14*
%TO.C,C14*%
X161140800Y-117195000D03*
X161140800Y-118745000D03*
%TD*%
D15*
%TO.C,C6*%
X122809000Y-67818000D03*
X121465498Y-66474498D03*
%TD*%
D16*
%TO.C,D3*%
X150571820Y-128649667D03*
X150164180Y-127128333D03*
%TD*%
D12*
%TO.C,R21*%
X156083000Y-123062000D03*
X156083000Y-121412000D03*
%TD*%
D17*
%TO.C,R9*%
X147856797Y-73556001D03*
X147856797Y-75206001D03*
%TD*%
D18*
%TO.C,D6*%
X157939812Y-126189717D03*
X157274188Y-124762283D03*
%TD*%
D19*
%TO.C,R3*%
X169310200Y-84520400D03*
X170960200Y-84520400D03*
%TD*%
%TO.C,R1*%
X165945200Y-76392400D03*
X167595200Y-76392400D03*
%TD*%
D20*
%TO.C,D4*%
X146694748Y-129299536D03*
X146421252Y-127748464D03*
%TD*%
D21*
%TO.C,R8*%
X128365500Y-71421529D03*
X129190500Y-72850471D03*
%TD*%
D22*
%TO.C,C10*%
X137287000Y-60732000D03*
X137287000Y-59182000D03*
%TD*%
D23*
%TO.C,C9*%
X134747000Y-60828000D03*
X134747000Y-58928000D03*
%TD*%
D24*
%TO.C,C21*%
X163400800Y-106540000D03*
X163400800Y-108440000D03*
%TD*%
D25*
%TO.C,U9*%
X123267872Y-115846051D03*
X124165898Y-116744076D03*
X125063924Y-117642102D03*
X125961949Y-118540128D03*
X129462128Y-115039949D03*
X128564102Y-114141924D03*
X127666076Y-113243898D03*
X126768051Y-112345872D03*
%TD*%
D17*
%TO.C,R7*%
X142494000Y-62802000D03*
X142494000Y-64452000D03*
%TD*%
D26*
%TO.C,J1*%
X111969079Y-76182517D03*
X111440806Y-77315401D03*
X110912533Y-78448286D03*
X110384260Y-79581171D03*
D27*
X106702231Y-79905462D03*
X109850738Y-73153469D03*
%TD*%
D22*
%TO.C,C19*%
X153720000Y-100275000D03*
X153720000Y-98725000D03*
%TD*%
D28*
%TO.C,C17*%
X143225000Y-114920000D03*
X141675000Y-114920000D03*
%TD*%
D29*
%TO.C,D2*%
X120617437Y-69690437D03*
X118142563Y-67215563D03*
%TD*%
D14*
%TO.C,C15*%
X139490000Y-109935000D03*
X139490000Y-111485000D03*
%TD*%
D30*
%TO.C,L1*%
X162630800Y-115380000D03*
X162630800Y-112580000D03*
%TD*%
D31*
%TO.C,C8*%
X126720000Y-60960000D03*
X128270000Y-60960000D03*
%TD*%
D32*
%TO.C,R19*%
X112375000Y-92000000D03*
X110725000Y-92000000D03*
%TD*%
D33*
%TO.C,U3*%
X126558000Y-65399500D03*
X127508000Y-65399500D03*
X128458000Y-65399500D03*
X128458000Y-63124500D03*
X126558000Y-63124500D03*
%TD*%
D34*
%TO.C,U1*%
X163560000Y-81214000D03*
X163560000Y-79314000D03*
X161560000Y-80264000D03*
%TD*%
D21*
%TO.C,R10*%
X131540500Y-69770529D03*
X132365500Y-71199471D03*
%TD*%
D14*
%TO.C,C18*%
X153289000Y-116192000D03*
X153289000Y-117742000D03*
%TD*%
D35*
%TO.C,SW1*%
X171070000Y-104920000D03*
X167270000Y-104920000D03*
X167270000Y-107320000D03*
D36*
X171070000Y-107320000D03*
%TD*%
D37*
%TO.C,U8*%
X147250800Y-104130000D03*
X147250800Y-104930000D03*
X147250800Y-105730000D03*
X147250800Y-106530000D03*
X147250800Y-107330000D03*
X147250800Y-108130000D03*
X147250800Y-108930000D03*
X147250800Y-109730000D03*
X147250800Y-110530000D03*
X147250800Y-111330000D03*
X147250800Y-112130000D03*
D38*
X148950800Y-113830000D03*
X149750800Y-113830000D03*
X150550800Y-113830000D03*
X151350800Y-113830000D03*
X152150800Y-113830000D03*
X152950800Y-113830000D03*
X153750800Y-113830000D03*
X154550800Y-113830000D03*
X155350800Y-113830000D03*
X156150800Y-113830000D03*
X156950800Y-113830000D03*
D37*
X158650800Y-112130000D03*
X158650800Y-111330000D03*
X158650800Y-110530000D03*
X158650800Y-109730000D03*
X158650800Y-108930000D03*
X158650800Y-108130000D03*
X158650800Y-107330000D03*
X158650800Y-106530000D03*
X158650800Y-105730000D03*
X158650800Y-104930000D03*
X158650800Y-104130000D03*
D38*
X156950800Y-102430000D03*
X156150800Y-102430000D03*
X155350800Y-102430000D03*
X154550800Y-102430000D03*
X153750800Y-102430000D03*
X152950800Y-102430000D03*
X152150800Y-102430000D03*
X151350800Y-102430000D03*
X150550800Y-102430000D03*
X149750800Y-102430000D03*
X148950800Y-102430000D03*
%TD*%
D39*
%TO.C,D1*%
X172733025Y-77991025D03*
X173722975Y-78980975D03*
%TD*%
D31*
%TO.C,C4*%
X169360200Y-82488400D03*
X170910200Y-82488400D03*
%TD*%
D40*
%TO.C,R13*%
X132155363Y-109652637D03*
X130988637Y-110819363D03*
%TD*%
D17*
%TO.C,R6*%
X140716000Y-62802000D03*
X140716000Y-64452000D03*
%TD*%
D28*
%TO.C,C16*%
X162770800Y-110880000D03*
X161220800Y-110880000D03*
%TD*%
D31*
%TO.C,C3*%
X164198000Y-84582000D03*
X165748000Y-84582000D03*
%TD*%
D41*
%TO.C,J6*%
X110338642Y-105214722D03*
X110906130Y-106328480D03*
X111473618Y-107442238D03*
X112041106Y-108555997D03*
X112608594Y-109669755D03*
X113176082Y-110783513D03*
D42*
X111164744Y-113884645D03*
X106647538Y-105019130D03*
%TD*%
D40*
%TO.C,R12*%
X134060363Y-111557637D03*
X132893637Y-112724363D03*
%TD*%
D14*
%TO.C,C23*%
X161250800Y-106540000D03*
X161250800Y-108090000D03*
%TD*%
D43*
%TO.C,U2*%
X170129700Y-80517400D03*
X170129700Y-79567400D03*
X170129700Y-78617400D03*
X167854700Y-78617400D03*
X167854700Y-80517400D03*
%TD*%
D44*
%TO.C,Y1*%
X141941600Y-109941400D03*
X141941600Y-112541400D03*
X143841600Y-112541400D03*
X143841600Y-109941400D03*
%TD*%
D28*
%TO.C,C22*%
X139192000Y-64643000D03*
X137642000Y-64643000D03*
%TD*%
D45*
%TO.C,J2*%
X169346000Y-95382400D03*
X169346000Y-94132400D03*
X169346000Y-92882400D03*
D46*
X172546000Y-91032400D03*
X172546000Y-97232400D03*
%TD*%
D19*
%TO.C,R2*%
X165754200Y-82615400D03*
X167404200Y-82615400D03*
%TD*%
D28*
%TO.C,C1*%
X163462000Y-77343000D03*
X161912000Y-77343000D03*
%TD*%
D17*
%TO.C,R11*%
X149656800Y-73581000D03*
X149656800Y-75231000D03*
%TD*%
D12*
%TO.C,R18*%
X153162000Y-124142000D03*
X153162000Y-122492000D03*
%TD*%
D14*
%TO.C,C5*%
X165563200Y-78678400D03*
X165563200Y-80228400D03*
%TD*%
D28*
%TO.C,C20*%
X144785000Y-107370000D03*
X143235000Y-107370000D03*
%TD*%
D22*
%TO.C,C11*%
X143637000Y-126632000D03*
X143637000Y-125082000D03*
%TD*%
D47*
%TO.C,C2*%
X172633008Y-75651992D03*
X171536992Y-76748008D03*
%TD*%
D14*
%TO.C,C13*%
X159260800Y-117225000D03*
X159260800Y-118775000D03*
%TD*%
D13*
%TO.C,R17*%
X116355726Y-108608726D03*
X115189000Y-107442000D03*
%TD*%
D32*
%TO.C,R20*%
X112375000Y-93800000D03*
X110725000Y-93800000D03*
%TD*%
%TO.C,R14*%
X143865000Y-105670000D03*
X142215000Y-105670000D03*
%TD*%
D48*
%TO.C,C24*%
X125435992Y-111165008D03*
X126532008Y-110068992D03*
%TD*%
D12*
%TO.C,R15*%
X149606000Y-124205000D03*
X149606000Y-122555000D03*
%TD*%
D49*
%TO.C,C7*%
X124500008Y-66080008D03*
X123403992Y-64983992D03*
%TD*%
D32*
%TO.C,R4*%
X132524000Y-59944000D03*
X130874000Y-59944000D03*
%TD*%
D50*
%TO.C,U7*%
X139262000Y-125107000D03*
X139262000Y-125607000D03*
X139262000Y-126107000D03*
X139262000Y-126607000D03*
X141662000Y-126607000D03*
X141662000Y-126107000D03*
X141662000Y-125607000D03*
X141662000Y-125107000D03*
D51*
X140462000Y-125857000D03*
%TD*%
D14*
%TO.C,C12*%
X157460000Y-117185000D03*
X157460000Y-118735000D03*
%TD*%
D52*
%TO.C,J5*%
X108368484Y-87848129D03*
X108368484Y-89098129D03*
X108368484Y-90348129D03*
X108368484Y-91598129D03*
X108368484Y-92848129D03*
X108368484Y-94098129D03*
X108368484Y-95348129D03*
X108368484Y-96598129D03*
D53*
X105168484Y-98448129D03*
X105168484Y-85998129D03*
%TD*%
D54*
%TO.C,D5*%
X154320341Y-127613008D03*
X153781659Y-126132992D03*
%TD*%
M02*
