%TF.GenerationSoftware,KiCad,Pcbnew,6.0.11+dfsg-1~bpo11+1*%
%TF.CreationDate,2023-06-13T13:01:03+00:00*%
%TF.ProjectId,USTTHUNDERMILLPCB01,55535454-4855-44e4-9445-524d494c4c50,rev?*%
%TF.SameCoordinates,Original*%
%TF.FileFunction,Copper,L2,Inr*%
%TF.FilePolarity,Positive*%
%FSLAX46Y46*%
G04 Gerber Fmt 4.6, Leading zero omitted, Abs format (unit mm)*
G04 Created by KiCad (PCBNEW 6.0.11+dfsg-1~bpo11+1) date 2023-06-13 13:01:03*
%MOMM*%
%LPD*%
G01*
G04 APERTURE LIST*
%TA.AperFunction,NonConductor*%
%ADD10C,0.100000*%
%TD*%
%TA.AperFunction,NonConductor*%
%ADD11C,0.050000*%
%TD*%
%TA.AperFunction,ViaPad*%
%ADD12C,0.800000*%
%TD*%
%TA.AperFunction,Conductor*%
%ADD13C,0.500000*%
%TD*%
%TA.AperFunction,Conductor*%
%ADD14C,0.300000*%
%TD*%
%TA.AperFunction,Conductor*%
%ADD15C,0.250000*%
%TD*%
%TA.AperFunction,Conductor*%
%ADD16C,0.200000*%
%TD*%
G04 APERTURE END LIST*
D10*
X34368301Y14235802D02*
X33145401Y16888403D01*
X36172195Y-8684165D02*
X36742004Y-5819358D01*
X35783203Y8590794D02*
X36346900Y5756794D01*
X33145401Y16888403D02*
X31718200Y19436902D01*
X36686599Y-2887287D02*
X36346900Y-5756786D01*
X24159500Y-28287094D02*
X24159500Y-28287094D01*
X23647399Y-28181793D02*
X23904403Y-28488189D01*
X23899696Y27982904D02*
X26021499Y26021504D01*
X37085296Y2918683D02*
X36742004Y5819363D01*
X28287094Y-24159500D02*
X30095397Y-21865600D01*
X30095397Y-21865600D02*
X31718200Y-19436897D01*
X23647399Y28181804D02*
X23899696Y27982904D01*
X33145401Y-16888397D02*
X34368301Y-14235797D01*
X36800003Y4D02*
X36686599Y-2887287D01*
X24159500Y-28287094D02*
X26304397Y-26304397D01*
X23904396Y28488205D02*
X23647399Y28181804D01*
X37085296Y-2918678D02*
X37199996Y0D01*
X36742004Y5819363D02*
X36172195Y8684174D01*
X24159500Y28287104D02*
X23904396Y28488205D01*
X32789001Y-16706893D02*
X31377197Y-19227897D01*
X35783203Y-8590785D02*
X34998901Y-11371795D01*
X35379302Y-11495399D02*
X36172195Y-8684165D01*
X26021499Y-26021499D02*
X23899703Y-27982894D01*
X36172195Y-8684165D02*
X36742004Y-5819358D01*
X27982894Y-23899696D02*
X26021499Y-26021499D01*
X26304397Y-26304397D02*
X28287094Y-24159500D01*
X36742004Y-5819358D02*
X37085296Y-2918678D01*
X34368301Y14235802D02*
X33145401Y16888403D01*
X33998794Y-14082695D02*
X32789001Y-16706893D01*
X37199996Y0D02*
X37085296Y2918683D01*
X30095397Y21865603D02*
X28287094Y24159504D01*
X36800003Y4D02*
X36686599Y-2887287D01*
X27982894Y23899704D02*
X29771797Y21630505D01*
X31377197Y-19227897D02*
X29771797Y-21630493D01*
X23647399Y28181804D02*
X23899696Y27982904D01*
X36686599Y2887295D02*
X36800003Y4D01*
X23899696Y27982904D02*
X26021499Y26021504D01*
X34998901Y11371804D02*
X35783203Y8590794D01*
X33998794Y-14082695D02*
X32789001Y-16706893D01*
X26021499Y26021504D02*
X27982894Y23899704D01*
X29771797Y-21630493D02*
X27982894Y-23899696D01*
X36346900Y-5756786D02*
X35783203Y-8590785D01*
D11*
G36*
X24159500Y28287104D02*
G01*
X26304397Y26304404D01*
X28287094Y24159504D01*
X30095397Y21865603D01*
X31718200Y19436902D01*
X33145401Y16888403D01*
X34368301Y14235802D01*
X35379302Y11495402D01*
X36172195Y8684174D01*
X36742004Y5819363D01*
X37085296Y2918683D01*
X37199996Y0D01*
X37085296Y-2918678D01*
X36742004Y-5819358D01*
X36172195Y-8684165D01*
X35379302Y-11495399D01*
X34368301Y-14235797D01*
X33145401Y-16888397D01*
X31718200Y-19436897D01*
X30095397Y-21865600D01*
X28287094Y-24159500D01*
X26304397Y-26304397D01*
X24159500Y-28287094D01*
X23904403Y-28488189D01*
X23647399Y-28181793D01*
X23899703Y-27982894D01*
X26021499Y-26021499D01*
X27982894Y-23899696D01*
X29771797Y-21630493D01*
X31377197Y-19227897D01*
X32789001Y-16706893D01*
X33998794Y-14082695D01*
X34998901Y-11371795D01*
X35783203Y-8590785D01*
X36346900Y-5756786D01*
X36686599Y-2887287D01*
X36800003Y4D01*
X36686599Y2887295D01*
X36346900Y5756794D01*
X35783203Y8590794D01*
X34998901Y11371804D01*
X33998794Y14082703D01*
X32789001Y16706904D01*
X31377197Y19227904D01*
X29771797Y21630505D01*
X27982894Y23899704D01*
X26021499Y26021504D01*
X23899696Y27982904D01*
X23647399Y28181804D01*
X23904396Y28488205D01*
X24159500Y28287104D01*
G37*
X24159500Y28287104D02*
X26304397Y26304404D01*
X28287094Y24159504D01*
X30095397Y21865603D01*
X31718200Y19436902D01*
X33145401Y16888403D01*
X34368301Y14235802D01*
X35379302Y11495402D01*
X36172195Y8684174D01*
X36742004Y5819363D01*
X37085296Y2918683D01*
X37199996Y0D01*
X37085296Y-2918678D01*
X36742004Y-5819358D01*
X36172195Y-8684165D01*
X35379302Y-11495399D01*
X34368301Y-14235797D01*
X33145401Y-16888397D01*
X31718200Y-19436897D01*
X30095397Y-21865600D01*
X28287094Y-24159500D01*
X26304397Y-26304397D01*
X24159500Y-28287094D01*
X23904403Y-28488189D01*
X23647399Y-28181793D01*
X23899703Y-27982894D01*
X26021499Y-26021499D01*
X27982894Y-23899696D01*
X29771797Y-21630493D01*
X31377197Y-19227897D01*
X32789001Y-16706893D01*
X33998794Y-14082695D01*
X34998901Y-11371795D01*
X35783203Y-8590785D01*
X36346900Y-5756786D01*
X36686599Y-2887287D01*
X36800003Y4D01*
X36686599Y2887295D01*
X36346900Y5756794D01*
X35783203Y8590794D01*
X34998901Y11371804D01*
X33998794Y14082703D01*
X32789001Y16706904D01*
X31377197Y19227904D01*
X29771797Y21630505D01*
X27982894Y23899704D01*
X26021499Y26021504D01*
X23899696Y27982904D01*
X23647399Y28181804D01*
X23904396Y28488205D01*
X24159500Y28287104D01*
D10*
X37199996Y0D02*
X37085296Y2918683D01*
X36172195Y8684174D02*
X35379302Y11495402D01*
X34998901Y-11371795D02*
X33998794Y-14082695D01*
X36346900Y-5756786D02*
X35783203Y-8590785D01*
X27982894Y23899704D02*
X29771797Y21630505D01*
X35783203Y-8590785D02*
X34998901Y-11371795D01*
X34368301Y-14235797D02*
X35379302Y-11495399D01*
X35379302Y11495402D02*
X34368301Y14235802D01*
X32789001Y16706904D02*
X33998794Y14082703D01*
X36686599Y2887295D02*
X36800003Y4D01*
X26304397Y26304404D02*
X24159500Y28287104D01*
X28287094Y24159504D02*
X26304397Y26304404D01*
X28287094Y24159504D02*
X26304397Y26304404D01*
X36346900Y5756794D02*
X36686599Y2887295D01*
X26021499Y26021504D02*
X27982894Y23899704D01*
X34998901Y11371804D02*
X35783203Y8590794D01*
X34998901Y-11371795D02*
X33998794Y-14082695D01*
X35783203Y8590794D02*
X36346900Y5756794D01*
X32789001Y-16706893D02*
X31377197Y-19227897D01*
X23904396Y28488205D02*
X23647399Y28181804D01*
X23647399Y-28181793D02*
X23904403Y-28488189D01*
X31718200Y19436902D02*
X30095397Y21865603D01*
X29771797Y-21630493D02*
X27982894Y-23899696D01*
X36172195Y8684174D02*
X35379302Y11495402D01*
X24159500Y28287104D02*
X23904396Y28488205D01*
X27982894Y-23899696D02*
X26021499Y-26021499D01*
X26304397Y26304404D02*
X24159500Y28287104D01*
X31718200Y-19436897D02*
X33145401Y-16888397D01*
X31718200Y-19436897D02*
X33145401Y-16888397D01*
X31718200Y19436902D02*
X30095397Y21865603D01*
X36742004Y-5819358D02*
X37085296Y-2918678D01*
X30095397Y21865603D02*
X28287094Y24159504D01*
X37085296Y2918683D02*
X36742004Y5819363D01*
X29771797Y21630505D02*
X31377197Y19227904D01*
X26021499Y-26021499D02*
X23899703Y-27982894D01*
X31377197Y19227904D02*
X32789001Y16706904D01*
X33145401Y-16888397D02*
X34368301Y-14235797D01*
X35379302Y11495402D02*
X34368301Y14235802D01*
X31377197Y-19227897D02*
X29771797Y-21630493D01*
X36686599Y-2887287D02*
X36346900Y-5756786D01*
X33145401Y16888403D02*
X31718200Y19436902D01*
X23904403Y-28488189D02*
X24159500Y-28287094D01*
X29771797Y21630505D02*
X31377197Y19227904D01*
X23899703Y-27982894D02*
X23647399Y-28181793D01*
X24159500Y-28287094D02*
X24159500Y-28287094D01*
X33998794Y14082703D02*
X34998901Y11371804D01*
X35379302Y-11495399D02*
X36172195Y-8684165D01*
X37085296Y-2918678D02*
X37199996Y0D01*
X28287094Y-24159500D02*
X30095397Y-21865600D01*
X36742004Y5819363D02*
X36172195Y8684174D01*
X33998794Y14082703D02*
X34998901Y11371804D01*
X32789001Y16706904D02*
X33998794Y14082703D01*
X30095397Y-21865600D02*
X31718200Y-19436897D01*
X31377197Y19227904D02*
X32789001Y16706904D01*
X26304397Y-26304397D02*
X28287094Y-24159500D01*
X23899703Y-27982894D02*
X23647399Y-28181793D01*
X24159500Y-28287094D02*
X26304397Y-26304397D01*
X36346900Y5756794D02*
X36686599Y2887295D01*
X34368301Y-14235797D02*
X35379302Y-11495399D01*
X23904403Y-28488189D02*
X24159500Y-28287094D01*
D12*
%TO.N,+5V*%
X-30359000Y-7068000D03*
X-29150000Y17050000D03*
%TO.N,+3V3*%
X10297600Y-14804400D03*
X-15375500Y-2897131D03*
X-14700000Y-5800000D03*
X22800000Y-12700000D03*
X10789000Y-4655000D03*
X-260000Y-12340000D03*
%TO.N,/CPU/RST#_P*%
X13345600Y-12518400D03*
%TO.N,/CPU/PB6*%
X8100000Y-12450000D03*
%TO.N,/CPU/PB7*%
X10805600Y-13280400D03*
%TO.N,/CPU/PB5*%
X12583600Y-14296400D03*
%TO.N,/CPU/TIMEPULSE*%
X-7556958Y-8610980D03*
X7133528Y-18765626D03*
%TO.N,Net-(R8-Pad2)*%
X-18607259Y-6221663D03*
%TO.N,Net-(R9-Pad2)*%
X-15375500Y11600000D03*
%TO.N,/CPU/PC1*%
X-10550000Y-21200000D03*
X-28750000Y-550000D03*
X13500000Y-19800000D03*
X-27064068Y5741559D03*
X-3601511Y-22198489D03*
%TO.N,/CPU/PC0*%
X12050800Y-19950800D03*
X-26903972Y-3403972D03*
X-5200000Y-21100000D03*
X-28962000Y-1988000D03*
X-28000000Y9500000D03*
X-12325000Y-19133000D03*
%TO.N,/CPU/RX0*%
X-22050000Y-18950000D03*
X2100000Y-22900000D03*
%TO.N,/CPU/TX0*%
X-23850000Y-18850000D03*
X2500000Y-23900000D03*
%TO.N,/CPU/TX1*%
X-23800000Y14500000D03*
X6471000Y-19514000D03*
%TO.N,/CPU/RX1*%
X-25700000Y13800000D03*
X3684019Y-20100000D03*
%TO.N,/CPU/BTN*%
X17850000Y-18550000D03*
X26780000Y-14820000D03*
%TO.N,/CPU/GEO_STAT*%
X-27650000Y-750000D03*
X-26295000Y552000D03*
%TO.N,ROTOR_GND*%
X-20707000Y-12910000D03*
X-29089000Y-10751000D03*
X7050000Y-22850000D03*
X-26100000Y16700000D03*
X26664000Y17443000D03*
X-1100000Y23800000D03*
X-27200000Y-23000000D03*
X13100000Y3000000D03*
X-4450000Y-22900000D03*
X35000000Y-400000D03*
X-32650000Y19450000D03*
X-21088000Y-3258000D03*
X29204000Y-10243000D03*
X5582000Y7156000D03*
X2534000Y13633000D03*
X-25500000Y-2900000D03*
X-14357000Y-1607000D03*
X1200000Y-10700000D03*
X21900000Y5950000D03*
X-8642000Y-1607000D03*
X25013000Y8045000D03*
X-24300000Y10400000D03*
X-14357000Y-591000D03*
X10789000Y18459000D03*
X9011000Y-17228000D03*
X-11950000Y-14300000D03*
X-38300000Y-5900000D03*
X-1657000Y-15831000D03*
X-36600000Y-13000000D03*
X28800000Y-7000000D03*
X-8134000Y-5671000D03*
X-29300000Y-9300000D03*
X19552000Y-5036000D03*
X10789000Y1060000D03*
X-4700000Y23000000D03*
X-28400000Y-25000000D03*
X-23600000Y-10700000D03*
X-24390000Y-4020000D03*
X5328000Y-23197000D03*
X-11400000Y-5700500D03*
X29450000Y6900000D03*
X2700000Y-15831000D03*
X-10674000Y-10751000D03*
X-2546000Y-10878000D03*
X23870000Y-5290000D03*
X19250000Y100000D03*
X9265000Y-19133000D03*
X13300000Y11500000D03*
X-11700000Y3000000D03*
X7741000Y20872000D03*
X-8650000Y1700000D03*
X-35693000Y-10624000D03*
X-6229000Y-16593000D03*
X-37725000Y-9735000D03*
X-12706000Y-2623000D03*
X-30867000Y-23578000D03*
X-10674000Y-2623000D03*
X29585000Y3219000D03*
X9600000Y15200000D03*
X-30740000Y20618000D03*
X17266000Y12236000D03*
X17647000Y15919000D03*
X-13700000Y3000000D03*
X-4400000Y16600000D03*
X-6400000Y18800000D03*
X26650000Y-17700000D03*
X-28425717Y3002869D03*
X-10166000Y-15577000D03*
X10662000Y12490000D03*
X30855000Y11982000D03*
X17520000Y-6941000D03*
X-24400000Y-20200000D03*
X6900000Y17700000D03*
X-34250000Y6100000D03*
X629000Y11093000D03*
X-38100000Y8000000D03*
X-36455000Y6394000D03*
X31236000Y15538000D03*
X-28835000Y6394000D03*
X-9000000Y21800000D03*
X-26300000Y18450000D03*
X27250000Y-20950000D03*
X3800000Y20900000D03*
X-29250000Y3600000D03*
X-11690000Y-2623000D03*
X-17450000Y-13150000D03*
X29585000Y11220000D03*
X21700000Y-18400000D03*
X-36500000Y-6000000D03*
X20314000Y6648000D03*
X1772000Y23158000D03*
X15400000Y5200000D03*
X-28327000Y-6560000D03*
X30850000Y-7300000D03*
X-21088000Y-7322000D03*
X-13087000Y-10751000D03*
X-14800000Y17400000D03*
X34650000Y-4550000D03*
X-8007000Y-10878000D03*
X-35850000Y12550000D03*
X-3900000Y20000000D03*
X-17450000Y-15174500D03*
X-6150000Y-22824500D03*
X-18700000Y-9700000D03*
X-11900000Y20200000D03*
X24400000Y18850000D03*
X-9658000Y-1607000D03*
X-300000Y16100000D03*
X-13595000Y-19006000D03*
X-32100000Y-21700000D03*
X-22916271Y-8416271D03*
X-36074000Y11347000D03*
X11300000Y20900000D03*
X24886000Y933000D03*
X14980000Y9188000D03*
X-30000000Y19400000D03*
X-4451000Y-14688000D03*
X22250000Y-3750000D03*
X13329000Y-16339000D03*
X-9150000Y-3893000D03*
X-34500000Y8450000D03*
X11291944Y6261944D03*
X31350000Y-1150000D03*
X-14400000Y1695000D03*
X8884000Y-210000D03*
X-38233000Y6394000D03*
X-2200000Y17900000D03*
X-34169000Y-9481000D03*
X-25000000Y3750000D03*
X34750000Y3950000D03*
X29450000Y4800000D03*
X18917000Y-9227000D03*
X-24700000Y8500000D03*
X-4578000Y-7957000D03*
X-10674000Y-1607000D03*
X19750000Y-10650000D03*
X25648000Y-6687000D03*
X6217000Y-16466000D03*
X9196444Y8357444D03*
X-3400000Y-13600000D03*
X-20750000Y-9300000D03*
X-22231000Y-2242000D03*
X32252000Y12617000D03*
X-12700000Y3000000D03*
X3550000Y12200000D03*
X24251000Y14903000D03*
X34100000Y-8100000D03*
X-36836000Y8045000D03*
X-26803000Y-11513000D03*
X23616000Y-337000D03*
X27400000Y3400000D03*
X-12500000Y10000000D03*
X27750000Y5200000D03*
X-8134000Y-16847000D03*
X-32264000Y21380000D03*
X26283000Y2203000D03*
X6200000Y9700000D03*
X27680000Y16554000D03*
X-9700000Y-5700500D03*
X-22739000Y-5798000D03*
X15100000Y-4700000D03*
X-35100000Y-12100000D03*
X2788000Y9315000D03*
X-27946000Y24174000D03*
X33250000Y-10500000D03*
X-7550000Y4900000D03*
X21711000Y-2750000D03*
X-10650000Y3000000D03*
X-14357000Y552000D03*
X-22000000Y18050000D03*
X21600000Y1600000D03*
X13202000Y16046000D03*
X4500000Y23300000D03*
X23900000Y4300000D03*
X31363000Y-14815000D03*
X23650000Y-18050000D03*
X-25787000Y3219000D03*
X-1600000Y14000000D03*
X-20707000Y-11132000D03*
X14900000Y13700000D03*
X-26150000Y-2100000D03*
X2788000Y-12402000D03*
X-10650000Y1700000D03*
X28315000Y-16974000D03*
X-30500000Y-21000000D03*
X14091000Y-1099000D03*
X25850000Y-8700000D03*
X-37100000Y11800000D03*
X-13100000Y18700000D03*
X7700000Y4500000D03*
X30347000Y9061000D03*
X24300000Y-3900000D03*
X22473000Y17443000D03*
X26410000Y14776000D03*
X22350000Y-15900000D03*
X-14975500Y-11300000D03*
X13550000Y-4750000D03*
X-6200000Y-10900000D03*
X-6300000Y22100000D03*
X-20000000Y-16400000D03*
X17520000Y6500000D03*
X-26250000Y22200000D03*
X8249000Y-3131000D03*
X-36074000Y-9481000D03*
X-26930000Y-7830000D03*
X10789000Y-2242000D03*
X-26900000Y-4500000D03*
X-13722000Y-2496000D03*
X-14800000Y-7900000D03*
X-9650000Y1700000D03*
X-24450000Y20400000D03*
X14000000Y1350000D03*
X-32050000Y11550000D03*
X17647000Y-15577000D03*
X18500000Y-2000000D03*
X-37217000Y-11132000D03*
%TO.N,STATOR*%
X31896400Y18738400D03*
X23920800Y28238000D03*
X24010000Y-28130000D03*
%TO.N,PA1*%
X22301200Y16107600D03*
X22035023Y-1664977D03*
X22275800Y9986200D03*
X16704523Y-4854523D03*
X15304977Y-6454977D03*
X20750000Y-350000D03*
%TO.N,COUNT_2*%
X-7467811Y-6895892D03*
X13519500Y-18180500D03*
%TO.N,Net-(J6-Pad5)*%
X-28500000Y-16450000D03*
X-17224500Y-16624500D03*
%TO.N,Net-(R10-Pad2)*%
X-18324500Y-4700000D03*
%TO.N,Net-(R11-Pad2)*%
X-14500000Y4600000D03*
%TD*%
D13*
%TO.N,+5V*%
X-30359000Y15841000D02*
X-30359000Y-7068000D01*
X-29150000Y17050000D02*
X-30359000Y15841000D01*
D14*
%TO.N,+3V3*%
X-15375500Y-5124500D02*
X-14700000Y-5800000D01*
D13*
X9345000Y-4655000D02*
X10789000Y-4655000D01*
X1938000Y-12049918D02*
X2435918Y-11552000D01*
X19800000Y-13650000D02*
X10805000Y-4655000D01*
X2448000Y-11552000D02*
X9345000Y-4655000D01*
X22800000Y-12700000D02*
X21850000Y-13650000D01*
X1938000Y-12062000D02*
X1938000Y-12049918D01*
X21850000Y-13650000D02*
X19800000Y-13650000D01*
X1660000Y-12340000D02*
X1938000Y-12062000D01*
X2435918Y-11552000D02*
X2448000Y-11552000D01*
X10805000Y-4655000D02*
X10789000Y-4655000D01*
X-260000Y-12340000D02*
X1660000Y-12340000D01*
D14*
X-15375500Y-2897131D02*
X-15375500Y-5124500D01*
D15*
%TO.N,/CPU/TIMEPULSE*%
X-7367938Y-8800000D02*
X-7556958Y-8610980D01*
X3000000Y-18100000D02*
X-6300000Y-8800000D01*
X6467902Y-18100000D02*
X3000000Y-18100000D01*
X7133528Y-18765626D02*
X6467902Y-18100000D01*
X-6300000Y-8800000D02*
X-7367938Y-8800000D01*
%TO.N,/CPU/PC1*%
X-27064068Y1135932D02*
X-28643863Y-443863D01*
X-27064068Y5741559D02*
X-27064068Y1135932D01*
X-9650000Y-22100000D02*
X-10550000Y-21200000D01*
X13500000Y-19800000D02*
X13500000Y-20700000D01*
X13500000Y-20700000D02*
X12100000Y-22100000D01*
X12100000Y-22100000D02*
X-9650000Y-22100000D01*
%TO.N,/CPU/PC0*%
X-24275000Y6075000D02*
X-24275000Y1025000D01*
X-10547000Y-19133000D02*
X-12325000Y-19133000D01*
X-27700000Y9500000D02*
X-24275000Y6075000D01*
X10098200Y-19950800D02*
X9138000Y-20911000D01*
X-28319944Y-1988000D02*
X-26903972Y-3403972D01*
X-28000000Y9500000D02*
X-27700000Y9500000D01*
X-28962000Y-1988000D02*
X-28362000Y-1988000D01*
X-24275000Y1025000D02*
X-27750000Y-2450000D01*
X9138000Y-20911000D02*
X-8769000Y-20911000D01*
X-8769000Y-20911000D02*
X-10547000Y-19133000D01*
X12050800Y-19950800D02*
X10098200Y-19950800D01*
%TO.N,/CPU/RX0*%
X-17278000Y-23705000D02*
X-22033000Y-18950000D01*
X2100000Y-22900000D02*
X1295000Y-23705000D01*
X1295000Y-23705000D02*
X-17278000Y-23705000D01*
X-22033000Y-18950000D02*
X-22050000Y-18950000D01*
%TO.N,/CPU/TX0*%
X-23850000Y-18850000D02*
X-23784000Y-18850000D01*
X1700000Y-24700000D02*
X2500000Y-23900000D01*
X-23784000Y-18850000D02*
X-17934000Y-24700000D01*
X-17934000Y-24700000D02*
X1700000Y-24700000D01*
%TO.N,/CPU/TX1*%
X-18200000Y14500000D02*
X-16100000Y12400000D01*
X-16100000Y12400000D02*
X-16100000Y-11300000D01*
X-23800000Y14500000D02*
X-18200000Y14500000D01*
X-8550000Y-18850000D02*
X5807000Y-18850000D01*
X-16100000Y-11300000D02*
X-8550000Y-18850000D01*
X5807000Y-18850000D02*
X6471000Y-19514000D01*
%TO.N,/CPU/RX1*%
X-17600000Y-11443604D02*
X-8818104Y-20225500D01*
X-19200000Y13200000D02*
X-17600000Y11600000D01*
X-8818104Y-20225500D02*
X3558519Y-20225500D01*
X-17600000Y11600000D02*
X-17600000Y-11443604D01*
X3558519Y-20225500D02*
X3684019Y-20100000D01*
X-25700000Y13800000D02*
X-25100000Y13200000D01*
X-25100000Y13200000D02*
X-19200000Y13200000D01*
%TO.N,/CPU/BTN*%
X17850000Y-18550000D02*
X17850000Y-17506000D01*
X26658000Y-14942000D02*
X26780000Y-14820000D01*
X17850000Y-17506000D02*
X20414000Y-14942000D01*
X20414000Y-14942000D02*
X26658000Y-14942000D01*
%TO.N,/CPU/GEO_STAT*%
X-26348000Y552000D02*
X-26295000Y552000D01*
X-27650000Y-750000D02*
X-26348000Y552000D01*
D16*
%TO.N,STATOR*%
X33998794Y14082703D02*
X34998901Y11371804D01*
X28287094Y24159504D02*
X26304397Y26304404D01*
X36346900Y-5756786D02*
X35783203Y-8590785D01*
X33998794Y-14082695D02*
X32789001Y-16706893D01*
X36686599Y2887295D02*
X36800003Y4D01*
X23899703Y-27982894D02*
X23647399Y-28181793D01*
X26021499Y-26021499D02*
X23899703Y-27982894D01*
X36800003Y4D02*
X36686599Y-2887287D01*
X32789001Y16706904D02*
X33998794Y14082703D01*
X34368301Y-14235797D02*
X35379302Y-11495399D01*
X23904403Y-28488189D02*
X24159500Y-28287094D01*
X34998901Y11371804D02*
X35783203Y8590794D01*
X26304397Y26304404D02*
X24159500Y28287104D01*
X36742004Y5819363D02*
X36172195Y8684174D01*
X33145401Y16888403D02*
X31718200Y19436902D01*
X24159500Y-28287094D02*
X26304397Y-26304397D01*
X27982894Y23899704D02*
X29771797Y21630505D01*
X31718200Y19436902D02*
X30095397Y21865603D01*
X23647399Y28181804D02*
X23899696Y27982904D01*
X35379302Y-11495399D02*
X36172195Y-8684165D01*
X23647399Y-28181793D02*
X23904403Y-28488189D01*
D15*
X23920800Y28238000D02*
X23743000Y28238000D01*
D16*
X35783203Y8590794D02*
X36346900Y5756794D01*
X31377197Y-19227897D02*
X29771797Y-21630493D01*
X36346900Y5756794D02*
X36686599Y2887295D01*
X36172195Y8684174D02*
X35379302Y11495402D01*
X23904396Y28488205D02*
X23647399Y28181804D01*
X36742004Y-5819358D02*
X37085296Y-2918678D01*
X37199996Y0D02*
X37085296Y2918683D01*
X23899696Y27982904D02*
X26021499Y26021504D01*
X28287094Y-24159500D02*
X30095397Y-21865600D01*
X31718200Y-19436897D02*
X33145401Y-16888397D01*
X37085296Y-2918678D02*
X37199996Y0D01*
X35783203Y-8590785D02*
X34998901Y-11371795D01*
X29771797Y21630505D02*
X31377197Y19227904D01*
X33145401Y-16888397D02*
X34368301Y-14235797D01*
X26304397Y-26304397D02*
X28287094Y-24159500D01*
X29771797Y-21630493D02*
X27982894Y-23899696D01*
X27982894Y-23899696D02*
X26021499Y-26021499D01*
X35379302Y11495402D02*
X34368301Y14235802D01*
X30095397Y21865603D02*
X28287094Y24159504D01*
X31377197Y19227904D02*
X32789001Y16706904D01*
X30095397Y-21865600D02*
X31718200Y-19436897D01*
X24159500Y28287104D02*
X23904396Y28488205D01*
X34368301Y14235802D02*
X33145401Y16888403D01*
X34998901Y-11371795D02*
X33998794Y-14082695D01*
X26021499Y26021504D02*
X27982894Y23899704D01*
X36172195Y-8684165D02*
X36742004Y-5819358D01*
X37085296Y2918683D02*
X36742004Y5819363D01*
X32789001Y-16706893D02*
X31377197Y-19227897D01*
X36686599Y-2887287D02*
X36346900Y-5756786D01*
D14*
%TO.N,PA1*%
X22301200Y10011600D02*
X22275800Y9986200D01*
X16704523Y-4854523D02*
X15304977Y-6254069D01*
X15304977Y-6254069D02*
X15304977Y-6454977D01*
X22035023Y-1664977D02*
X22035023Y-1635023D01*
X22301200Y16107600D02*
X22301200Y10011600D01*
X22035023Y-1635023D02*
X20750000Y-350000D01*
D15*
%TO.N,COUNT_2*%
X7753000Y-17953000D02*
X7200000Y-17400000D01*
X-7467811Y-6981494D02*
X-7467811Y-6895892D01*
X13292000Y-17953000D02*
X7753000Y-17953000D01*
X13519500Y-18180500D02*
X13292000Y-17953000D01*
X7200000Y-17400000D02*
X2950695Y-17400000D01*
X2950695Y-17400000D02*
X-7467811Y-6981494D01*
%TO.N,Net-(J6-Pad5)*%
X-17800000Y-17200000D02*
X-27750000Y-17200000D01*
X-17224500Y-16624500D02*
X-17800000Y-17200000D01*
X-27750000Y-17200000D02*
X-28500000Y-16450000D01*
%TD*%
%TA.AperFunction,Conductor*%
%TO.N,ROTOR_GND*%
G36*
X907379Y39975245D02*
G01*
X2090097Y39944282D01*
X2096684Y39943937D01*
X4177726Y39780162D01*
X4184291Y39779472D01*
X6253968Y39506936D01*
X6260478Y39505904D01*
X6934672Y39380960D01*
X8313027Y39125518D01*
X8319450Y39124152D01*
X9291039Y38890885D01*
X10349334Y38636800D01*
X10355701Y38635094D01*
X12357201Y38042291D01*
X12363482Y38040251D01*
X14331247Y37343359D01*
X14337401Y37340996D01*
X16266073Y36542135D01*
X16272077Y36539462D01*
X17560688Y35924845D01*
X18156167Y35640825D01*
X18162048Y35637829D01*
X19996606Y34641704D01*
X20002316Y34638407D01*
X21782235Y33547689D01*
X21787768Y33544096D01*
X23508088Y32361762D01*
X23513427Y32357883D01*
X25169560Y31087025D01*
X25174683Y31082876D01*
X25982775Y30392718D01*
X26762037Y29727184D01*
X26766913Y29722793D01*
X27477751Y29048268D01*
X28281197Y28285865D01*
X28285869Y28281193D01*
X29722792Y26766916D01*
X29727183Y26762040D01*
X30392717Y25982778D01*
X31082875Y25174686D01*
X31087024Y25169563D01*
X32357890Y23513422D01*
X32361769Y23508083D01*
X33544087Y21787781D01*
X33547680Y21782248D01*
X34638406Y20002316D01*
X34641703Y19996606D01*
X35637832Y18162056D01*
X35640829Y18156175D01*
X36539467Y16272073D01*
X36542149Y16266047D01*
X36817977Y15600122D01*
X37335191Y14351426D01*
X37340997Y14337408D01*
X37343358Y14331260D01*
X37684960Y13366695D01*
X38040246Y12363494D01*
X38042286Y12357213D01*
X38077072Y12239766D01*
X38635103Y10355683D01*
X38636799Y10349353D01*
X39124151Y8319474D01*
X39124152Y8319471D01*
X39125521Y8313032D01*
X39303415Y7353123D01*
X39505908Y6260480D01*
X39506940Y6253970D01*
X39779475Y4184293D01*
X39780165Y4177729D01*
X39943947Y2096685D01*
X39944292Y2090096D01*
X39973513Y973736D01*
X39998728Y10417D01*
X39998914Y3302D01*
X39998914Y-3281D01*
X39979425Y-747647D01*
X39944277Y-2090106D01*
X39943932Y-2096693D01*
X39780165Y-4177734D01*
X39779475Y-4184299D01*
X39731131Y-4551426D01*
X39510317Y-6228282D01*
X39506936Y-6253954D01*
X39505906Y-6260455D01*
X39135459Y-8259405D01*
X39125521Y-8313032D01*
X39124148Y-8319488D01*
X38636794Y-10349347D01*
X38635088Y-10355713D01*
X38042286Y-12357220D01*
X38040246Y-12363501D01*
X37343360Y-14331262D01*
X37340997Y-14337416D01*
X37099713Y-14919937D01*
X36547591Y-16252899D01*
X36542135Y-16266070D01*
X36539457Y-16272085D01*
X35987152Y-17430058D01*
X35640824Y-18156174D01*
X35637828Y-18162055D01*
X34641703Y-19996613D01*
X34638406Y-20002323D01*
X33547680Y-21782253D01*
X33544087Y-21787786D01*
X32361769Y-23508087D01*
X32357890Y-23513426D01*
X31087024Y-25169567D01*
X31082875Y-25174690D01*
X30392743Y-25982753D01*
X29727183Y-26762045D01*
X29722792Y-26766921D01*
X29290919Y-27222044D01*
X28285866Y-28281205D01*
X28281197Y-28285874D01*
X27524061Y-29004331D01*
X26766913Y-29722800D01*
X26762037Y-29727191D01*
X26082993Y-30307133D01*
X25174683Y-31082882D01*
X25169560Y-31087031D01*
X23513419Y-32357890D01*
X23508080Y-32361769D01*
X21787760Y-33544106D01*
X21782227Y-33547699D01*
X20002316Y-34638414D01*
X19996606Y-34641711D01*
X18162048Y-35637836D01*
X18156167Y-35640832D01*
X18155234Y-35641277D01*
X16272077Y-36539473D01*
X16266073Y-36542146D01*
X15301727Y-36941577D01*
X14337391Y-37341003D01*
X14331238Y-37343365D01*
X12890390Y-37853650D01*
X12363514Y-38040246D01*
X12363494Y-38040253D01*
X12357216Y-38042293D01*
X11995479Y-38149433D01*
X10355701Y-38635104D01*
X10349334Y-38636810D01*
X9290011Y-38891138D01*
X8319447Y-39124156D01*
X8313027Y-39125521D01*
X6260466Y-39505917D01*
X6253974Y-39506946D01*
X4184285Y-39779476D01*
X4177740Y-39780164D01*
X3492566Y-39834089D01*
X2096684Y-39943947D01*
X2090095Y-39944292D01*
X843160Y-39976931D01*
X3286Y-39998914D01*
X-3285Y-39998914D01*
X-900467Y-39975424D01*
X-2090103Y-39944277D01*
X-2096690Y-39943932D01*
X-4177731Y-39780165D01*
X-4184296Y-39779475D01*
X-4875514Y-39688453D01*
X-6253965Y-39506934D01*
X-6260456Y-39505906D01*
X-8313035Y-39125521D01*
X-8319489Y-39124148D01*
X-10349348Y-38636794D01*
X-10355714Y-38635088D01*
X-12357221Y-38042286D01*
X-12363502Y-38040246D01*
X-14331259Y-37343360D01*
X-14337413Y-37340997D01*
X-16266053Y-36542141D01*
X-16272079Y-36539459D01*
X-18156190Y-35640817D01*
X-18162071Y-35637820D01*
X-19996612Y-34641703D01*
X-20002322Y-34638406D01*
X-21782254Y-33547680D01*
X-21787787Y-33544087D01*
X-23508088Y-32361769D01*
X-23513427Y-32357890D01*
X-25169568Y-31087024D01*
X-25174691Y-31082875D01*
X-26093155Y-30298454D01*
X-26762046Y-29727183D01*
X-26766925Y-29722789D01*
X-27524068Y-29004323D01*
X-28082588Y-28474334D01*
X21946472Y-28474334D01*
X23488670Y-30312332D01*
X24808085Y-29048278D01*
X24809708Y-29046751D01*
X25419501Y-28483081D01*
X27011497Y-27011497D01*
X28710403Y-25173578D01*
X29045827Y-24810708D01*
X29045828Y-24810707D01*
X29047500Y-24808898D01*
X29887588Y-23743238D01*
X30902871Y-22455343D01*
X30902877Y-22455335D01*
X30904403Y-22453399D01*
X32570899Y-19959400D01*
X34036399Y-17342399D01*
X35292198Y-14618499D01*
X35302118Y-14591611D01*
X36329542Y-11806719D01*
X36329547Y-11806704D01*
X36330398Y-11804397D01*
X36355040Y-11717019D01*
X37143832Y-8919979D01*
X37143832Y-8919977D01*
X37144500Y-8917610D01*
X37729698Y-5975799D01*
X37737216Y-5912271D01*
X38081908Y-2999601D01*
X38081909Y-2999589D01*
X38082199Y-2997138D01*
X38199996Y0D01*
X38082199Y2997139D01*
X38049359Y3274645D01*
X37729988Y5973352D01*
X37729987Y5973359D01*
X37729698Y5975800D01*
X37144500Y8917611D01*
X36965344Y9552895D01*
X36331071Y11802016D01*
X36331070Y11802019D01*
X36330398Y11804402D01*
X36329547Y11806709D01*
X36329542Y11806724D01*
X35293053Y14616185D01*
X35293051Y14616189D01*
X35292198Y14618502D01*
X34036399Y17342402D01*
X32570899Y19959403D01*
X30904403Y22453402D01*
X30902877Y22455338D01*
X30902871Y22455346D01*
X29049047Y24806938D01*
X29047500Y24808901D01*
X27011505Y27011502D01*
X24809712Y29046748D01*
X24808097Y29048268D01*
X23488670Y30312335D01*
X22997066Y29726438D01*
X21958116Y28488212D01*
X21958115Y28488211D01*
X21946472Y28474334D01*
X23250198Y27222501D01*
X23748343Y26762027D01*
X25310763Y25317761D01*
X25317760Y25310764D01*
X27219141Y23253838D01*
X27225565Y23246317D01*
X28379777Y21782244D01*
X28959732Y21046593D01*
X28965543Y21038595D01*
X29659154Y20000514D01*
X30521757Y18709513D01*
X30526925Y18701079D01*
X31359530Y17214391D01*
X31890641Y16266047D01*
X31895584Y16257220D01*
X31900073Y16248411D01*
X32118025Y15775653D01*
X33072829Y13704602D01*
X33076617Y13695458D01*
X33633809Y12185044D01*
X34043134Y11075464D01*
X34046091Y11067447D01*
X34049146Y11058046D01*
X34515535Y9404316D01*
X34809464Y8362096D01*
X34811773Y8352476D01*
X35358240Y5605210D01*
X35359788Y5595439D01*
X35461952Y4732260D01*
X35680650Y2884505D01*
X35689024Y2813751D01*
X35689799Y2803901D01*
X35799809Y4948D01*
X35799809Y-4936D01*
X35689978Y-2799368D01*
X35689800Y-2803888D01*
X35689025Y-2813738D01*
X35504551Y-4372349D01*
X35359788Y-5595438D01*
X35358240Y-5605209D01*
X34811773Y-8352475D01*
X34809464Y-8362095D01*
X34247915Y-10353246D01*
X34049148Y-11058036D01*
X34046093Y-11067438D01*
X33690780Y-12030608D01*
X33076617Y-13695457D01*
X33072829Y-13704601D01*
X32436901Y-15083982D01*
X31921116Y-16202764D01*
X31900075Y-16248403D01*
X31895587Y-16257212D01*
X31622288Y-16745211D01*
X30526925Y-18701076D01*
X30521757Y-18709510D01*
X29798599Y-19791812D01*
X29033634Y-20936684D01*
X28965549Y-21038582D01*
X28959738Y-21046580D01*
X27225554Y-23246327D01*
X27219152Y-23253824D01*
X25586996Y-25019509D01*
X25317768Y-25310763D01*
X25310771Y-25317760D01*
X23250205Y-27222503D01*
X23249726Y-27222963D01*
X22143498Y-28285152D01*
X21946472Y-28474334D01*
X-28082588Y-28474334D01*
X-28281202Y-28285866D01*
X-28285871Y-28281197D01*
X-29290046Y-27222963D01*
X-29722799Y-26766913D01*
X-29727194Y-26762032D01*
X-30392754Y-25982740D01*
X-31082881Y-25174683D01*
X-31087030Y-25169560D01*
X-32357889Y-23513427D01*
X-32361768Y-23508088D01*
X-33544107Y-21787760D01*
X-33547700Y-21782227D01*
X-34638415Y-20002316D01*
X-34641712Y-19996606D01*
X-35637837Y-18162048D01*
X-35640833Y-18156167D01*
X-35946774Y-17514728D01*
X-36454608Y-16450000D01*
X-29105682Y-16450000D01*
X-29085044Y-16606762D01*
X-29024536Y-16752841D01*
X-28928282Y-16878282D01*
X-28802841Y-16974536D01*
X-28656762Y-17035044D01*
X-28500000Y-17055682D01*
X-28433159Y-17046882D01*
X-28363011Y-17057821D01*
X-28327618Y-17082709D01*
X-27994105Y-17416222D01*
X-27986685Y-17424318D01*
X-27962455Y-17453194D01*
X-27952912Y-17458704D01*
X-27952908Y-17458707D01*
X-27929821Y-17472036D01*
X-27920552Y-17477940D01*
X-27889684Y-17499554D01*
X-27879036Y-17502407D01*
X-27875865Y-17503886D01*
X-27872589Y-17505078D01*
X-27863045Y-17510588D01*
X-27825924Y-17517134D01*
X-27815217Y-17519508D01*
X-27778807Y-17529263D01*
X-27767832Y-17528303D01*
X-27767830Y-17528303D01*
X-27741269Y-17525979D01*
X-27730288Y-17525500D01*
X-17819710Y-17525500D01*
X-17808728Y-17525980D01*
X-17782180Y-17528303D01*
X-17782178Y-17528303D01*
X-17771193Y-17529264D01*
X-17734785Y-17519508D01*
X-17724058Y-17517130D01*
X-17720699Y-17516538D01*
X-17686955Y-17510588D01*
X-17677410Y-17505077D01*
X-17674134Y-17503885D01*
X-17670966Y-17502408D01*
X-17660316Y-17499554D01*
X-17629450Y-17477941D01*
X-17620185Y-17472039D01*
X-17597094Y-17458707D01*
X-17587545Y-17453194D01*
X-17563315Y-17424317D01*
X-17555889Y-17416215D01*
X-17396883Y-17257209D01*
X-17334571Y-17223183D01*
X-17291343Y-17221382D01*
X-17224500Y-17230182D01*
X-17216312Y-17229104D01*
X-17075926Y-17210622D01*
X-17067738Y-17209544D01*
X-16921659Y-17149036D01*
X-16832329Y-17080491D01*
X-16802764Y-17057805D01*
X-16796218Y-17052782D01*
X-16699964Y-16927341D01*
X-16639456Y-16781262D01*
X-16618818Y-16624500D01*
X-16639456Y-16467738D01*
X-16699964Y-16321659D01*
X-16796218Y-16196218D01*
X-16921659Y-16099964D01*
X-17067738Y-16039456D01*
X-17224500Y-16018818D01*
X-17381262Y-16039456D01*
X-17527341Y-16099964D01*
X-17652782Y-16196218D01*
X-17749036Y-16321659D01*
X-17809544Y-16467738D01*
X-17830182Y-16624500D01*
X-17829104Y-16632688D01*
X-17821382Y-16691342D01*
X-17832321Y-16761490D01*
X-17857209Y-16796883D01*
X-17897921Y-16837595D01*
X-17960233Y-16871621D01*
X-17987016Y-16874500D01*
X-27562983Y-16874500D01*
X-27631104Y-16854498D01*
X-27652078Y-16837595D01*
X-27867291Y-16622382D01*
X-27901317Y-16560070D01*
X-27903118Y-16516840D01*
X-27895396Y-16458187D01*
X-27894318Y-16450000D01*
X-27914956Y-16293238D01*
X-27975464Y-16147159D01*
X-28071718Y-16021718D01*
X-28197159Y-15925464D01*
X-28343238Y-15864956D01*
X-28500000Y-15844318D01*
X-28656762Y-15864956D01*
X-28802841Y-15925464D01*
X-28928282Y-16021718D01*
X-29024536Y-16147159D01*
X-29085044Y-16293238D01*
X-29105682Y-16450000D01*
X-36454608Y-16450000D01*
X-36539470Y-16272077D01*
X-36542148Y-16266062D01*
X-36545811Y-16257217D01*
X-37106454Y-14903670D01*
X-37341004Y-14337401D01*
X-37343367Y-14331247D01*
X-38040258Y-12363482D01*
X-38042298Y-12357201D01*
X-38635107Y-10355683D01*
X-38636813Y-10349316D01*
X-38909009Y-9215584D01*
X-39124160Y-8319450D01*
X-39125529Y-8313011D01*
X-39126431Y-8308139D01*
X-39356259Y-7068000D01*
X-30964682Y-7068000D01*
X-30944044Y-7224762D01*
X-30883536Y-7370841D01*
X-30787282Y-7496282D01*
X-30780736Y-7501305D01*
X-30761262Y-7516248D01*
X-30661841Y-7592536D01*
X-30515762Y-7653044D01*
X-30507574Y-7654122D01*
X-30485660Y-7657007D01*
X-30359000Y-7673682D01*
X-30350812Y-7672604D01*
X-30210426Y-7654122D01*
X-30202238Y-7653044D01*
X-30056159Y-7592536D01*
X-29956738Y-7516248D01*
X-29937264Y-7501305D01*
X-29930718Y-7496282D01*
X-29834464Y-7370841D01*
X-29773956Y-7224762D01*
X-29753318Y-7068000D01*
X-29773956Y-6911238D01*
X-29834464Y-6765159D01*
X-29882463Y-6702605D01*
X-29908063Y-6636384D01*
X-29908500Y-6625901D01*
X-29908500Y-1988000D01*
X-29567682Y-1988000D01*
X-29547044Y-2144762D01*
X-29486536Y-2290841D01*
X-29390282Y-2416282D01*
X-29264841Y-2512536D01*
X-29118762Y-2573044D01*
X-28962000Y-2593682D01*
X-28953812Y-2592604D01*
X-28813426Y-2574122D01*
X-28805238Y-2573044D01*
X-28659159Y-2512536D01*
X-28533718Y-2416282D01*
X-28531100Y-2412870D01*
X-28470393Y-2379724D01*
X-28399577Y-2384792D01*
X-28354519Y-2413751D01*
X-27536681Y-3231589D01*
X-27502655Y-3293901D01*
X-27500854Y-3337129D01*
X-27509654Y-3403972D01*
X-27489016Y-3560734D01*
X-27428508Y-3706813D01*
X-27332254Y-3832254D01*
X-27206813Y-3928508D01*
X-27060734Y-3989016D01*
X-26903972Y-4009654D01*
X-26895784Y-4008576D01*
X-26755398Y-3990094D01*
X-26747210Y-3989016D01*
X-26601131Y-3928508D01*
X-26475690Y-3832254D01*
X-26379436Y-3706813D01*
X-26318928Y-3560734D01*
X-26298290Y-3403972D01*
X-26315341Y-3274455D01*
X-26317850Y-3255398D01*
X-26318928Y-3247210D01*
X-26379436Y-3101131D01*
X-26475690Y-2975690D01*
X-26601131Y-2879436D01*
X-26747210Y-2818928D01*
X-26903972Y-2798290D01*
X-26970815Y-2807090D01*
X-27040962Y-2796151D01*
X-27076355Y-2771263D01*
X-27254551Y-2593067D01*
X-27288577Y-2530755D01*
X-27283512Y-2459940D01*
X-27254551Y-2414877D01*
X-24839713Y-39D01*
X-23851020Y-39D01*
X-23850984Y-188D01*
X-23789793Y-386397D01*
X-23789781Y-386549D01*
X-23789763Y-386584D01*
X-23789757Y-386624D01*
X-23789673Y-386760D01*
X-23612206Y-735155D01*
X-23612147Y-735296D01*
X-23612120Y-735323D01*
X-23612101Y-735360D01*
X-23611979Y-735464D01*
X-23502208Y-845211D01*
X-23355203Y-992183D01*
X-23335430Y-1011952D01*
X-23335330Y-1012069D01*
X-23335295Y-1012087D01*
X-23335267Y-1012115D01*
X-23335121Y-1012176D01*
X-22986784Y-1189695D01*
X-22986652Y-1189776D01*
X-22986613Y-1189782D01*
X-22986578Y-1189800D01*
X-22986424Y-1189812D01*
X-22600189Y-1250983D01*
X-22600040Y-1251019D01*
X-22600001Y-1251013D01*
X-22599962Y-1251019D01*
X-22599813Y-1250983D01*
X-22213576Y-1189812D01*
X-22213422Y-1189800D01*
X-22213387Y-1189782D01*
X-22213348Y-1189776D01*
X-22213216Y-1189695D01*
X-21864879Y-1012176D01*
X-21864733Y-1012115D01*
X-21864705Y-1012087D01*
X-21864670Y-1012069D01*
X-21864570Y-1011952D01*
X-21846424Y-993810D01*
X-21600206Y-747647D01*
X-21600205Y-747645D01*
X-21588016Y-735459D01*
X-21587899Y-735359D01*
X-21587881Y-735324D01*
X-21587853Y-735296D01*
X-21587792Y-735149D01*
X-21410327Y-386760D01*
X-21410243Y-386624D01*
X-21410237Y-386584D01*
X-21410219Y-386549D01*
X-21410207Y-386398D01*
X-21357493Y-53682D01*
X-21351670Y-16927D01*
X-21349018Y-188D01*
X-21348982Y-39D01*
X-21348988Y0D01*
X-21348982Y39D01*
X-21349018Y188D01*
X-21353339Y27464D01*
X-21383908Y220398D01*
X-21410209Y386399D01*
X-21410221Y386550D01*
X-21410239Y386585D01*
X-21410245Y386625D01*
X-21410329Y386761D01*
X-21587794Y735150D01*
X-21587855Y735297D01*
X-21587883Y735325D01*
X-21587901Y735360D01*
X-21588018Y735460D01*
X-21813486Y960878D01*
X-21852479Y999863D01*
X-21852480Y999863D01*
X-21864572Y1011953D01*
X-21864672Y1012070D01*
X-21864707Y1012088D01*
X-21864735Y1012116D01*
X-21864881Y1012177D01*
X-21981305Y1071509D01*
X-22202030Y1183994D01*
X-22213217Y1189695D01*
X-22213350Y1189777D01*
X-22213389Y1189783D01*
X-22213424Y1189801D01*
X-22213578Y1189813D01*
X-22599813Y1250983D01*
X-22599962Y1251019D01*
X-22600001Y1251013D01*
X-22600040Y1251019D01*
X-22600189Y1250983D01*
X-22986424Y1189813D01*
X-22986578Y1189801D01*
X-22986613Y1189783D01*
X-22986652Y1189777D01*
X-22986784Y1189696D01*
X-23335121Y1012177D01*
X-23335267Y1012116D01*
X-23335295Y1012088D01*
X-23335330Y1012070D01*
X-23335430Y1011953D01*
X-23346983Y1000402D01*
X-23346984Y1000402D01*
X-23387592Y959803D01*
X-23611979Y735465D01*
X-23612101Y735361D01*
X-23612120Y735324D01*
X-23612147Y735297D01*
X-23612206Y735156D01*
X-23789673Y386761D01*
X-23789757Y386625D01*
X-23789763Y386585D01*
X-23789781Y386550D01*
X-23789793Y386398D01*
X-23791841Y373471D01*
X-23846662Y27464D01*
X-23850984Y188D01*
X-23851020Y39D01*
X-23851014Y0D01*
X-23851020Y-39D01*
X-24839713Y-39D01*
X-24058785Y780889D01*
X-24050681Y788316D01*
X-24030251Y805459D01*
X-24021806Y812545D01*
X-24016293Y822094D01*
X-24002961Y845185D01*
X-23997055Y854456D01*
X-23992198Y861392D01*
X-23975446Y885316D01*
X-23972592Y895967D01*
X-23971112Y899140D01*
X-23969921Y902412D01*
X-23964412Y911955D01*
X-23957866Y949076D01*
X-23955492Y959783D01*
X-23945737Y996193D01*
X-23946759Y1007882D01*
X-23949021Y1033731D01*
X-23949500Y1044712D01*
X-23949500Y6055302D01*
X-23949020Y6066284D01*
X-23946698Y6092820D01*
X-23946698Y6092822D01*
X-23945737Y6103807D01*
X-23955488Y6140197D01*
X-23957868Y6150931D01*
X-23962498Y6177188D01*
X-23964412Y6188045D01*
X-23969924Y6197593D01*
X-23971117Y6200870D01*
X-23972594Y6204038D01*
X-23975447Y6214684D01*
X-23997058Y6245548D01*
X-24002962Y6254816D01*
X-24004425Y6257350D01*
X-24021806Y6287455D01*
X-24050669Y6311674D01*
X-24058773Y6319100D01*
X-27410328Y9670654D01*
X-27437642Y9711531D01*
X-27472304Y9795211D01*
X-27475464Y9802841D01*
X-27571718Y9928282D01*
X-27697159Y10024536D01*
X-27843238Y10085044D01*
X-28000000Y10105682D01*
X-28156762Y10085044D01*
X-28302841Y10024536D01*
X-28428282Y9928282D01*
X-28524536Y9802841D01*
X-28585044Y9656762D01*
X-28605682Y9500000D01*
X-28585044Y9343238D01*
X-28524536Y9197159D01*
X-28428282Y9071718D01*
X-28302841Y8975464D01*
X-28156762Y8914956D01*
X-28000000Y8894318D01*
X-27991812Y8895396D01*
X-27851426Y8913878D01*
X-27843238Y8914956D01*
X-27731544Y8961221D01*
X-27660957Y8968810D01*
X-27594233Y8933907D01*
X-24637405Y5977078D01*
X-24603379Y5914766D01*
X-24600500Y5887983D01*
X-24600500Y1212016D01*
X-24620502Y1143895D01*
X-24637405Y1122921D01*
X-25505902Y254424D01*
X-25568214Y220398D01*
X-25639029Y225463D01*
X-25695865Y268010D01*
X-25720676Y334530D01*
X-25713447Y379146D01*
X-25715254Y379630D01*
X-25713116Y387609D01*
X-25709956Y395238D01*
X-25706517Y421356D01*
X-25690396Y543812D01*
X-25689318Y552000D01*
X-25709956Y708762D01*
X-25770464Y854841D01*
X-25866718Y980282D01*
X-25892236Y999863D01*
X-25908205Y1012116D01*
X-25992159Y1076536D01*
X-26138238Y1137044D01*
X-26295000Y1157682D01*
X-26451762Y1137044D01*
X-26564352Y1090408D01*
X-26634939Y1082819D01*
X-26698426Y1114598D01*
X-26734654Y1175656D01*
X-26738568Y1206817D01*
X-26738568Y5172273D01*
X-26718566Y5240394D01*
X-26689272Y5272236D01*
X-26642332Y5308254D01*
X-26635786Y5313277D01*
X-26539532Y5438718D01*
X-26479024Y5584797D01*
X-26458386Y5741559D01*
X-26479024Y5898321D01*
X-26539532Y6044400D01*
X-26635786Y6169841D01*
X-26761227Y6266095D01*
X-26907306Y6326603D01*
X-27064068Y6347241D01*
X-27220830Y6326603D01*
X-27366909Y6266095D01*
X-27492350Y6169841D01*
X-27588604Y6044400D01*
X-27649112Y5898321D01*
X-27669750Y5741559D01*
X-27649112Y5584797D01*
X-27588604Y5438718D01*
X-27492350Y5313277D01*
X-27485804Y5308254D01*
X-27438864Y5272236D01*
X-27396997Y5214898D01*
X-27389568Y5172273D01*
X-27389568Y1322948D01*
X-27409570Y1254827D01*
X-27426473Y1233853D01*
X-28577617Y82709D01*
X-28639929Y48683D01*
X-28683157Y46882D01*
X-28750000Y55682D01*
X-28906762Y35044D01*
X-29052841Y-25464D01*
X-29178282Y-121718D01*
X-29274536Y-247159D01*
X-29335044Y-393238D01*
X-29336122Y-401426D01*
X-29342149Y-447203D01*
X-29355682Y-550000D01*
X-29335044Y-706762D01*
X-29274536Y-852841D01*
X-29178282Y-978282D01*
X-29171736Y-983305D01*
X-29149873Y-1000081D01*
X-29052841Y-1074536D01*
X-28906762Y-1135044D01*
X-28898574Y-1136122D01*
X-28828381Y-1145363D01*
X-28750000Y-1155682D01*
X-28741812Y-1154604D01*
X-28601426Y-1136122D01*
X-28593238Y-1135044D01*
X-28447159Y-1074536D01*
X-28362676Y-1009710D01*
X-28296456Y-984110D01*
X-28226907Y-998375D01*
X-28177249Y-1046291D01*
X-28174536Y-1052841D01*
X-28078282Y-1178282D01*
X-27952841Y-1274536D01*
X-27863189Y-1311671D01*
X-27816189Y-1331139D01*
X-27806762Y-1335044D01*
X-27650000Y-1355682D01*
X-27641812Y-1354604D01*
X-27501426Y-1336122D01*
X-27493238Y-1335044D01*
X-27483810Y-1331139D01*
X-27399260Y-1296117D01*
X-27328670Y-1288528D01*
X-27265183Y-1320307D01*
X-27228956Y-1381365D01*
X-27231490Y-1452317D01*
X-27261947Y-1501621D01*
X-27714877Y-1954551D01*
X-27777189Y-1988577D01*
X-27848004Y-1983512D01*
X-27893067Y-1954551D01*
X-28109916Y-1737702D01*
X-28180260Y-1688446D01*
X-28291137Y-1658736D01*
X-28302123Y-1659697D01*
X-28302125Y-1659697D01*
X-28328672Y-1662020D01*
X-28339654Y-1662500D01*
X-28392714Y-1662500D01*
X-28460835Y-1642498D01*
X-28492677Y-1613204D01*
X-28528695Y-1566264D01*
X-28533718Y-1559718D01*
X-28659159Y-1463464D01*
X-28805238Y-1402956D01*
X-28962000Y-1382318D01*
X-29118762Y-1402956D01*
X-29264841Y-1463464D01*
X-29390282Y-1559718D01*
X-29486536Y-1685159D01*
X-29547044Y-1831238D01*
X-29548122Y-1839426D01*
X-29548789Y-1844490D01*
X-29567682Y-1988000D01*
X-29908500Y-1988000D01*
X-29908500Y13800000D01*
X-26305682Y13800000D01*
X-26285044Y13643238D01*
X-26224536Y13497159D01*
X-26128282Y13371718D01*
X-26002841Y13275464D01*
X-25856762Y13214956D01*
X-25700000Y13194318D01*
X-25633157Y13203118D01*
X-25563010Y13192179D01*
X-25527617Y13167291D01*
X-25344111Y12983785D01*
X-25336684Y12975681D01*
X-25312455Y12946806D01*
X-25302906Y12941293D01*
X-25279815Y12927961D01*
X-25270544Y12922055D01*
X-25239684Y12900446D01*
X-25229033Y12897592D01*
X-25225860Y12896112D01*
X-25222588Y12894921D01*
X-25213045Y12889412D01*
X-25175924Y12882866D01*
X-25165217Y12880492D01*
X-25128807Y12870737D01*
X-25117832Y12871697D01*
X-25117830Y12871697D01*
X-25091269Y12874021D01*
X-25080288Y12874500D01*
X-19387016Y12874500D01*
X-19318895Y12854498D01*
X-19297921Y12837595D01*
X-17962405Y11502079D01*
X-17928379Y11439767D01*
X-17925500Y11412984D01*
X-17925500Y-4026722D01*
X-17945502Y-4094843D01*
X-17999158Y-4141336D01*
X-18069432Y-4151440D01*
X-18099718Y-4143131D01*
X-18130298Y-4130464D01*
X-18167738Y-4114956D01*
X-18324500Y-4094318D01*
X-18481262Y-4114956D01*
X-18627341Y-4175464D01*
X-18752782Y-4271718D01*
X-18757805Y-4278264D01*
X-18767367Y-4290725D01*
X-18849036Y-4397159D01*
X-18909544Y-4543238D01*
X-18930182Y-4700000D01*
X-18909544Y-4856762D01*
X-18849036Y-5002841D01*
X-18752782Y-5128282D01*
X-18746236Y-5133305D01*
X-18730516Y-5145367D01*
X-18627341Y-5224536D01*
X-18481262Y-5285044D01*
X-18473074Y-5286122D01*
X-18454343Y-5288588D01*
X-18324500Y-5305682D01*
X-18316312Y-5304604D01*
X-18175926Y-5286122D01*
X-18167738Y-5285044D01*
X-18099718Y-5256869D01*
X-18029129Y-5249280D01*
X-17965642Y-5281059D01*
X-17929414Y-5342117D01*
X-17925500Y-5373278D01*
X-17925500Y-5752534D01*
X-17945502Y-5820655D01*
X-17999158Y-5867148D01*
X-18069432Y-5877252D01*
X-18134012Y-5847758D01*
X-18151463Y-5829238D01*
X-18173954Y-5799927D01*
X-18178977Y-5793381D01*
X-18304418Y-5697127D01*
X-18450497Y-5636619D01*
X-18607259Y-5615981D01*
X-18764021Y-5636619D01*
X-18910100Y-5697127D01*
X-19035541Y-5793381D01*
X-19131795Y-5918822D01*
X-19192303Y-6064901D01*
X-19212941Y-6221663D01*
X-19192303Y-6378425D01*
X-19131795Y-6524504D01*
X-19084224Y-6586500D01*
X-19059003Y-6619368D01*
X-19035541Y-6649945D01*
X-18910100Y-6746199D01*
X-18764021Y-6806707D01*
X-18607259Y-6827345D01*
X-18599071Y-6826267D01*
X-18458685Y-6807785D01*
X-18450497Y-6806707D01*
X-18304418Y-6746199D01*
X-18178977Y-6649945D01*
X-18155514Y-6619368D01*
X-18151463Y-6614088D01*
X-18094125Y-6572221D01*
X-18023254Y-6567999D01*
X-17961351Y-6602763D01*
X-17928070Y-6665476D01*
X-17925500Y-6690792D01*
X-17925500Y-11423894D01*
X-17925980Y-11434876D01*
X-17929264Y-11472411D01*
X-17926410Y-11483060D01*
X-17919509Y-11508814D01*
X-17917131Y-11519541D01*
X-17910588Y-11556649D01*
X-17905077Y-11566194D01*
X-17903885Y-11569470D01*
X-17902408Y-11572638D01*
X-17899554Y-11583288D01*
X-17893230Y-11592319D01*
X-17877945Y-11614148D01*
X-17872039Y-11623419D01*
X-17858707Y-11646510D01*
X-17853194Y-11656059D01*
X-17844749Y-11663145D01*
X-17824318Y-11680289D01*
X-17816215Y-11687715D01*
X-10911526Y-18592405D01*
X-10877500Y-18654717D01*
X-10882565Y-18725532D01*
X-10925112Y-18782368D01*
X-10991632Y-18807179D01*
X-11000621Y-18807500D01*
X-11755714Y-18807500D01*
X-11823835Y-18787498D01*
X-11855677Y-18758204D01*
X-11891695Y-18711264D01*
X-11896718Y-18704718D01*
X-12022159Y-18608464D01*
X-12168238Y-18547956D01*
X-12214906Y-18541812D01*
X-12316812Y-18528396D01*
X-12325000Y-18527318D01*
X-12333188Y-18528396D01*
X-12435093Y-18541812D01*
X-12481762Y-18547956D01*
X-12627841Y-18608464D01*
X-12753282Y-18704718D01*
X-12849536Y-18830159D01*
X-12910044Y-18976238D01*
X-12930682Y-19133000D01*
X-12910044Y-19289762D01*
X-12849536Y-19435841D01*
X-12753282Y-19561282D01*
X-12627841Y-19657536D01*
X-12481762Y-19718044D01*
X-12325000Y-19738682D01*
X-12316812Y-19737604D01*
X-12176426Y-19719122D01*
X-12168238Y-19718044D01*
X-12022159Y-19657536D01*
X-11896718Y-19561282D01*
X-11855677Y-19507796D01*
X-11798339Y-19465929D01*
X-11755714Y-19458500D01*
X-10734016Y-19458500D01*
X-10665895Y-19478502D01*
X-10644921Y-19495405D01*
X-9013111Y-21127215D01*
X-9005685Y-21135318D01*
X-8981455Y-21164194D01*
X-8971906Y-21169707D01*
X-8948815Y-21183039D01*
X-8939544Y-21188945D01*
X-8908684Y-21210554D01*
X-8898034Y-21213408D01*
X-8894866Y-21214885D01*
X-8891590Y-21216077D01*
X-8882045Y-21221588D01*
X-8848301Y-21227538D01*
X-8844942Y-21228130D01*
X-8834215Y-21230508D01*
X-8797807Y-21240264D01*
X-8786831Y-21239304D01*
X-8786828Y-21239304D01*
X-8760257Y-21236979D01*
X-8749276Y-21236500D01*
X-5877627Y-21236500D01*
X-5809506Y-21256502D01*
X-5761219Y-21314281D01*
X-5724536Y-21402841D01*
X-5628282Y-21528282D01*
X-5621736Y-21533305D01*
X-5601885Y-21548537D01*
X-5560018Y-21605875D01*
X-5555796Y-21676746D01*
X-5590560Y-21738649D01*
X-5653272Y-21771930D01*
X-5678589Y-21774500D01*
X-9462982Y-21774500D01*
X-9531103Y-21754498D01*
X-9552077Y-21737596D01*
X-9917291Y-21372383D01*
X-9951316Y-21310070D01*
X-9953118Y-21266840D01*
X-9949492Y-21239304D01*
X-9944318Y-21200000D01*
X-9964956Y-21043238D01*
X-10025464Y-20897159D01*
X-10121718Y-20771718D01*
X-10247159Y-20675464D01*
X-10393238Y-20614956D01*
X-10550000Y-20594318D01*
X-10706762Y-20614956D01*
X-10852841Y-20675464D01*
X-10978282Y-20771718D01*
X-11074536Y-20897159D01*
X-11135044Y-21043238D01*
X-11155682Y-21200000D01*
X-11135044Y-21356762D01*
X-11074536Y-21502841D01*
X-10978282Y-21628282D01*
X-10852841Y-21724536D01*
X-10706762Y-21785044D01*
X-10698574Y-21786122D01*
X-10678445Y-21788772D01*
X-10550000Y-21805682D01*
X-10483158Y-21796882D01*
X-10413011Y-21807821D01*
X-10377617Y-21832709D01*
X-9894099Y-22316228D01*
X-9886673Y-22324331D01*
X-9862455Y-22353194D01*
X-9852912Y-22358704D01*
X-9852908Y-22358707D01*
X-9829821Y-22372036D01*
X-9820552Y-22377940D01*
X-9789684Y-22399554D01*
X-9779036Y-22402407D01*
X-9775865Y-22403886D01*
X-9772589Y-22405078D01*
X-9763045Y-22410588D01*
X-9725924Y-22417134D01*
X-9715217Y-22419508D01*
X-9678807Y-22429263D01*
X-9667832Y-22428303D01*
X-9667830Y-22428303D01*
X-9641269Y-22425979D01*
X-9630288Y-22425500D01*
X-4241329Y-22425500D01*
X-4173208Y-22445502D01*
X-4132209Y-22488501D01*
X-4129208Y-22493699D01*
X-4126047Y-22501330D01*
X-4029793Y-22626771D01*
X-3904352Y-22723025D01*
X-3758273Y-22783533D01*
X-3601511Y-22804171D01*
X-3593323Y-22803093D01*
X-3452937Y-22784611D01*
X-3444749Y-22783533D01*
X-3298670Y-22723025D01*
X-3173229Y-22626771D01*
X-3076975Y-22501330D01*
X-3073814Y-22493699D01*
X-3070813Y-22488501D01*
X-3019431Y-22439507D01*
X-2961693Y-22425500D01*
X1457995Y-22425500D01*
X1526116Y-22445502D01*
X1572609Y-22499158D01*
X1582713Y-22569432D01*
X1574404Y-22599718D01*
X1523329Y-22723025D01*
X1514956Y-22743238D01*
X1494318Y-22900000D01*
X1495396Y-22908188D01*
X1503118Y-22966842D01*
X1492179Y-23036990D01*
X1467291Y-23072383D01*
X1197079Y-23342595D01*
X1134767Y-23376621D01*
X1107984Y-23379500D01*
X-17090983Y-23379500D01*
X-17159104Y-23359498D01*
X-17180078Y-23342595D01*
X-19294543Y-21228130D01*
X-21415313Y-19107361D01*
X-21449339Y-19045049D01*
X-21451140Y-19001820D01*
X-21445396Y-18958189D01*
X-21445396Y-18958188D01*
X-21444318Y-18950000D01*
X-21464956Y-18793238D01*
X-21469458Y-18782368D01*
X-21479468Y-18758204D01*
X-21525464Y-18647159D01*
X-21599674Y-18550446D01*
X-21616695Y-18528264D01*
X-21621718Y-18521718D01*
X-21747159Y-18425464D01*
X-21893238Y-18364956D01*
X-22050000Y-18344318D01*
X-22206762Y-18364956D01*
X-22352841Y-18425464D01*
X-22478282Y-18521718D01*
X-22483305Y-18528264D01*
X-22500326Y-18550446D01*
X-22574536Y-18647159D01*
X-22620532Y-18758204D01*
X-22630541Y-18782368D01*
X-22635044Y-18793238D01*
X-22655682Y-18950000D01*
X-22635044Y-19106762D01*
X-22631884Y-19114391D01*
X-22596866Y-19198931D01*
X-22576823Y-19247321D01*
X-22576822Y-19247323D01*
X-22574536Y-19252841D01*
X-22575397Y-19253198D01*
X-22560335Y-19315291D01*
X-22583558Y-19382382D01*
X-22639366Y-19426268D01*
X-22710041Y-19433014D01*
X-22775287Y-19398387D01*
X-23209613Y-18964061D01*
X-23243639Y-18901749D01*
X-23245109Y-18866446D01*
X-23245396Y-18866446D01*
X-23245396Y-18859548D01*
X-23245439Y-18858515D01*
X-23245396Y-18858188D01*
X-23244318Y-18850000D01*
X-23264956Y-18693238D01*
X-23325464Y-18547159D01*
X-23414986Y-18430491D01*
X-23416695Y-18428264D01*
X-23421718Y-18421718D01*
X-23547159Y-18325464D01*
X-23693238Y-18264956D01*
X-23850000Y-18244318D01*
X-24006762Y-18264956D01*
X-24152841Y-18325464D01*
X-24278282Y-18421718D01*
X-24283305Y-18428264D01*
X-24285014Y-18430491D01*
X-24374536Y-18547159D01*
X-24435044Y-18693238D01*
X-24455682Y-18850000D01*
X-24435044Y-19006762D01*
X-24374536Y-19152841D01*
X-24278282Y-19278282D01*
X-24271736Y-19283305D01*
X-24253379Y-19297391D01*
X-24152841Y-19374536D01*
X-24006762Y-19435044D01*
X-23998574Y-19436122D01*
X-23950948Y-19442392D01*
X-23850000Y-19455682D01*
X-23724837Y-19439204D01*
X-23654689Y-19450143D01*
X-23619296Y-19475031D01*
X-18178105Y-24916222D01*
X-18170685Y-24924318D01*
X-18146455Y-24953194D01*
X-18136912Y-24958704D01*
X-18136908Y-24958707D01*
X-18113821Y-24972036D01*
X-18104552Y-24977940D01*
X-18073684Y-24999554D01*
X-18063036Y-25002407D01*
X-18059865Y-25003886D01*
X-18056589Y-25005078D01*
X-18047045Y-25010588D01*
X-18009924Y-25017134D01*
X-17999217Y-25019508D01*
X-17962807Y-25029263D01*
X-17951832Y-25028303D01*
X-17951830Y-25028303D01*
X-17925269Y-25025979D01*
X-17914288Y-25025500D01*
X1680290Y-25025500D01*
X1691272Y-25025980D01*
X1717820Y-25028303D01*
X1717822Y-25028303D01*
X1728807Y-25029264D01*
X1765215Y-25019508D01*
X1775942Y-25017130D01*
X1779301Y-25016538D01*
X1813045Y-25010588D01*
X1822590Y-25005077D01*
X1825866Y-25003885D01*
X1829034Y-25002408D01*
X1839684Y-24999554D01*
X1870550Y-24977941D01*
X1879815Y-24972039D01*
X1902906Y-24958707D01*
X1912455Y-24953194D01*
X1936685Y-24924317D01*
X1944111Y-24916215D01*
X2327617Y-24532709D01*
X2389929Y-24498683D01*
X2433157Y-24496882D01*
X2500000Y-24505682D01*
X2508188Y-24504604D01*
X2648574Y-24486122D01*
X2656762Y-24485044D01*
X2802841Y-24424536D01*
X2928282Y-24328282D01*
X3024536Y-24202841D01*
X3085044Y-24056762D01*
X3105682Y-23900000D01*
X3085044Y-23743238D01*
X3024536Y-23597159D01*
X2928282Y-23471718D01*
X2802841Y-23375464D01*
X2706026Y-23335362D01*
X2650745Y-23290814D01*
X2628324Y-23223450D01*
X2637835Y-23170735D01*
X2681884Y-23064392D01*
X2681885Y-23064389D01*
X2685044Y-23056762D01*
X2705682Y-22900000D01*
X2685044Y-22743238D01*
X2676672Y-22723025D01*
X2625596Y-22599718D01*
X2618007Y-22529128D01*
X2649786Y-22465641D01*
X2710844Y-22429414D01*
X2742005Y-22425500D01*
X12080290Y-22425500D01*
X12091272Y-22425980D01*
X12117820Y-22428303D01*
X12117822Y-22428303D01*
X12128807Y-22429264D01*
X12165215Y-22419508D01*
X12175942Y-22417130D01*
X12179301Y-22416538D01*
X12213045Y-22410588D01*
X12222590Y-22405077D01*
X12225866Y-22403885D01*
X12229034Y-22402408D01*
X12239684Y-22399554D01*
X12270550Y-22377941D01*
X12279815Y-22372039D01*
X12302906Y-22358707D01*
X12312455Y-22353194D01*
X12336685Y-22324317D01*
X12344111Y-22316215D01*
X13716215Y-20944111D01*
X13724319Y-20936684D01*
X13744749Y-20919541D01*
X13753194Y-20912455D01*
X13765807Y-20890608D01*
X13772039Y-20879815D01*
X13777945Y-20870544D01*
X13793230Y-20848715D01*
X13799554Y-20839684D01*
X13802408Y-20829034D01*
X13803885Y-20825866D01*
X13805077Y-20822590D01*
X13810588Y-20813045D01*
X13816538Y-20779301D01*
X13817130Y-20775942D01*
X13819509Y-20765210D01*
X13826410Y-20739456D01*
X13829264Y-20728807D01*
X13825980Y-20691272D01*
X13825500Y-20680290D01*
X13825500Y-20369286D01*
X13845502Y-20301165D01*
X13874796Y-20269323D01*
X13921736Y-20233305D01*
X13928282Y-20228282D01*
X14024536Y-20102841D01*
X14085044Y-19956762D01*
X14105682Y-19800000D01*
X14085044Y-19643238D01*
X14024536Y-19497159D01*
X13938899Y-19385554D01*
X13933305Y-19378264D01*
X13928282Y-19371718D01*
X13919070Y-19364649D01*
X13892082Y-19343941D01*
X13802841Y-19275464D01*
X13656762Y-19214956D01*
X13500000Y-19194318D01*
X13343238Y-19214956D01*
X13197159Y-19275464D01*
X13107918Y-19343941D01*
X13080931Y-19364649D01*
X13071718Y-19371718D01*
X13066695Y-19378264D01*
X13061101Y-19385554D01*
X12975464Y-19497159D01*
X12914956Y-19643238D01*
X12894318Y-19800000D01*
X12914956Y-19956762D01*
X12975464Y-20102841D01*
X13071718Y-20228282D01*
X13078264Y-20233305D01*
X13125204Y-20269323D01*
X13167071Y-20326661D01*
X13174500Y-20369286D01*
X13174500Y-20512984D01*
X13154498Y-20581105D01*
X13137595Y-20602079D01*
X12002079Y-21737595D01*
X11939767Y-21771621D01*
X11912984Y-21774500D01*
X-3124862Y-21774500D01*
X-3192983Y-21754498D01*
X-3201566Y-21748463D01*
X-3257320Y-21705682D01*
X-3298670Y-21673953D01*
X-3444749Y-21613445D01*
X-3601511Y-21592807D01*
X-3758273Y-21613445D01*
X-3904352Y-21673953D01*
X-3945702Y-21705682D01*
X-4001456Y-21748463D01*
X-4067677Y-21774063D01*
X-4078160Y-21774500D01*
X-4721411Y-21774500D01*
X-4789532Y-21754498D01*
X-4836025Y-21700842D01*
X-4846129Y-21630568D01*
X-4816635Y-21565988D01*
X-4798115Y-21548537D01*
X-4778264Y-21533305D01*
X-4771718Y-21528282D01*
X-4675464Y-21402841D01*
X-4638781Y-21314281D01*
X-4594234Y-21259001D01*
X-4522373Y-21236500D01*
X9118290Y-21236500D01*
X9129272Y-21236980D01*
X9155820Y-21239303D01*
X9155822Y-21239303D01*
X9166807Y-21240264D01*
X9203215Y-21230508D01*
X9213942Y-21228130D01*
X9217301Y-21227538D01*
X9251045Y-21221588D01*
X9260590Y-21216077D01*
X9263866Y-21214885D01*
X9267034Y-21213408D01*
X9277684Y-21210554D01*
X9308544Y-21188945D01*
X9317815Y-21183039D01*
X9340906Y-21169707D01*
X9350455Y-21164194D01*
X9374685Y-21135317D01*
X9382111Y-21127215D01*
X10196121Y-20313205D01*
X10258433Y-20279179D01*
X10285216Y-20276300D01*
X11481514Y-20276300D01*
X11549635Y-20296302D01*
X11581477Y-20325596D01*
X11622518Y-20379082D01*
X11747959Y-20475336D01*
X11894038Y-20535844D01*
X12050800Y-20556482D01*
X12058988Y-20555404D01*
X12199374Y-20536922D01*
X12207562Y-20535844D01*
X12353641Y-20475336D01*
X12479082Y-20379082D01*
X12575336Y-20253641D01*
X12635844Y-20107562D01*
X12656482Y-19950800D01*
X12635844Y-19794038D01*
X12575336Y-19647959D01*
X12479082Y-19522518D01*
X12353641Y-19426264D01*
X12207562Y-19365756D01*
X12199154Y-19364649D01*
X12058988Y-19346196D01*
X12050800Y-19345118D01*
X12042612Y-19346196D01*
X11902447Y-19364649D01*
X11894038Y-19365756D01*
X11747959Y-19426264D01*
X11622518Y-19522518D01*
X11617495Y-19529064D01*
X11581477Y-19576004D01*
X11524139Y-19617871D01*
X11481514Y-19625300D01*
X10117910Y-19625300D01*
X10106928Y-19624820D01*
X10080380Y-19622497D01*
X10080378Y-19622497D01*
X10069393Y-19621536D01*
X10032985Y-19631292D01*
X10022258Y-19633670D01*
X10018899Y-19634262D01*
X9985155Y-19640212D01*
X9975610Y-19645723D01*
X9972334Y-19646915D01*
X9969166Y-19648392D01*
X9958516Y-19651246D01*
X9936453Y-19666695D01*
X9927656Y-19672855D01*
X9918385Y-19678761D01*
X9895294Y-19692093D01*
X9885745Y-19697606D01*
X9878659Y-19706051D01*
X9861515Y-19726482D01*
X9854089Y-19734585D01*
X9040079Y-20548595D01*
X8977767Y-20582621D01*
X8950984Y-20585500D01*
X4320091Y-20585500D01*
X4251970Y-20565498D01*
X4205477Y-20511842D01*
X4195373Y-20441568D01*
X4208748Y-20402921D01*
X4208555Y-20402841D01*
X4209898Y-20399599D01*
X4209899Y-20399597D01*
X4269063Y-20256762D01*
X4289701Y-20100000D01*
X4269063Y-19943238D01*
X4208555Y-19797159D01*
X4112301Y-19671718D01*
X3986860Y-19575464D01*
X3840781Y-19514956D01*
X3684019Y-19494318D01*
X3527257Y-19514956D01*
X3381178Y-19575464D01*
X3255737Y-19671718D01*
X3159483Y-19797159D01*
X3156323Y-19804787D01*
X3156320Y-19804793D01*
X3149102Y-19822219D01*
X3104554Y-19877500D01*
X3032694Y-19900000D01*
X-8631087Y-19900000D01*
X-8699208Y-19879998D01*
X-8720182Y-19863095D01*
X-17237595Y-11345683D01*
X-17271621Y-11283371D01*
X-17274500Y-11256588D01*
X-17274500Y11580290D01*
X-17274020Y11591272D01*
X-17271697Y11617820D01*
X-17271697Y11617822D01*
X-17270736Y11628807D01*
X-17280492Y11665215D01*
X-17282870Y11675942D01*
X-17283462Y11679301D01*
X-17289412Y11713045D01*
X-17294923Y11722590D01*
X-17296115Y11725866D01*
X-17297592Y11729034D01*
X-17300446Y11739684D01*
X-17322055Y11770544D01*
X-17327961Y11779815D01*
X-17341293Y11802906D01*
X-17346806Y11812455D01*
X-17375683Y11836685D01*
X-17383785Y11844111D01*
X-18955889Y13416215D01*
X-18963316Y13424319D01*
X-18980459Y13444749D01*
X-18980458Y13444749D01*
X-18987545Y13453194D01*
X-18997094Y13458707D01*
X-19020185Y13472039D01*
X-19029456Y13477945D01*
X-19051285Y13493230D01*
X-19060316Y13499554D01*
X-19070966Y13502408D01*
X-19074134Y13503885D01*
X-19077410Y13505077D01*
X-19086955Y13510588D01*
X-19120699Y13516538D01*
X-19124058Y13517130D01*
X-19134785Y13519508D01*
X-19171193Y13529264D01*
X-19182178Y13528303D01*
X-19182180Y13528303D01*
X-19208728Y13525980D01*
X-19219710Y13525500D01*
X-24912984Y13525500D01*
X-24981105Y13545502D01*
X-25002079Y13562405D01*
X-25067291Y13627617D01*
X-25101317Y13689929D01*
X-25103118Y13733158D01*
X-25095396Y13791812D01*
X-25094318Y13800000D01*
X-25114956Y13956762D01*
X-25175464Y14102841D01*
X-25271718Y14228282D01*
X-25397159Y14324536D01*
X-25543238Y14385044D01*
X-25700000Y14405682D01*
X-25856762Y14385044D01*
X-26002841Y14324536D01*
X-26128282Y14228282D01*
X-26224536Y14102841D01*
X-26285044Y13956762D01*
X-26305682Y13800000D01*
X-29908500Y13800000D01*
X-29908500Y14500000D01*
X-24405682Y14500000D01*
X-24385044Y14343238D01*
X-24324536Y14197159D01*
X-24228282Y14071718D01*
X-24102841Y13975464D01*
X-23956762Y13914956D01*
X-23948574Y13913878D01*
X-23894902Y13906812D01*
X-23800000Y13894318D01*
X-23791812Y13895396D01*
X-23756544Y13900039D01*
X-23705098Y13906812D01*
X-23651426Y13913878D01*
X-23643238Y13914956D01*
X-23497159Y13975464D01*
X-23371718Y14071718D01*
X-23330677Y14125204D01*
X-23273339Y14167071D01*
X-23230714Y14174500D01*
X-18387016Y14174500D01*
X-18318895Y14154498D01*
X-18297921Y14137595D01*
X-16462405Y12302078D01*
X-16428379Y12239766D01*
X-16425500Y12212983D01*
X-16425500Y-11280290D01*
X-16425980Y-11291272D01*
X-16429264Y-11328807D01*
X-16419509Y-11365210D01*
X-16417130Y-11375942D01*
X-16410588Y-11413045D01*
X-16405077Y-11422590D01*
X-16403885Y-11425866D01*
X-16402408Y-11429034D01*
X-16399554Y-11439684D01*
X-16393230Y-11448715D01*
X-16377945Y-11470544D01*
X-16372039Y-11479815D01*
X-16370165Y-11483060D01*
X-16353194Y-11512455D01*
X-16344749Y-11519541D01*
X-16324318Y-11536685D01*
X-16316215Y-11544111D01*
X-8794105Y-19066222D01*
X-8786678Y-19074326D01*
X-8762455Y-19103194D01*
X-8743061Y-19114391D01*
X-8729816Y-19122038D01*
X-8720548Y-19127942D01*
X-8689684Y-19149553D01*
X-8679038Y-19152406D01*
X-8675870Y-19153883D01*
X-8672593Y-19155076D01*
X-8663045Y-19160588D01*
X-8633492Y-19165799D01*
X-8625931Y-19167132D01*
X-8615197Y-19169512D01*
X-8578807Y-19179263D01*
X-8567831Y-19178303D01*
X-8567828Y-19178303D01*
X-8541269Y-19175979D01*
X-8530288Y-19175500D01*
X5619984Y-19175500D01*
X5688105Y-19195502D01*
X5709079Y-19212405D01*
X5838291Y-19341617D01*
X5872317Y-19403929D01*
X5874118Y-19447157D01*
X5865318Y-19514000D01*
X5885956Y-19670762D01*
X5946464Y-19816841D01*
X6042718Y-19942282D01*
X6168159Y-20038536D01*
X6314238Y-20099044D01*
X6471000Y-20119682D01*
X6479188Y-20118604D01*
X6619574Y-20100122D01*
X6627762Y-20099044D01*
X6773841Y-20038536D01*
X6899282Y-19942282D01*
X6995536Y-19816841D01*
X7056044Y-19670762D01*
X7076682Y-19514000D01*
X7075604Y-19505812D01*
X7075604Y-19497554D01*
X7076951Y-19497554D01*
X7086570Y-19435869D01*
X7133698Y-19382770D01*
X7184106Y-19364649D01*
X7290290Y-19350670D01*
X7436369Y-19290162D01*
X7561810Y-19193908D01*
X7573048Y-19179263D01*
X7608546Y-19133000D01*
X7658064Y-19068467D01*
X7718572Y-18922388D01*
X7723983Y-18881291D01*
X7735575Y-18793238D01*
X7739210Y-18765626D01*
X7718572Y-18608864D01*
X7694652Y-18551116D01*
X7661223Y-18470411D01*
X7661222Y-18470410D01*
X7658064Y-18462785D01*
X7658469Y-18462617D01*
X7642999Y-18398836D01*
X7666223Y-18331745D01*
X7722032Y-18287860D01*
X7757884Y-18279316D01*
X7761742Y-18278978D01*
X7772712Y-18278500D01*
X12825925Y-18278500D01*
X12894046Y-18298502D01*
X12942334Y-18356282D01*
X12945927Y-18364956D01*
X12994964Y-18483341D01*
X13049788Y-18554789D01*
X13082029Y-18596806D01*
X13091218Y-18608782D01*
X13216659Y-18705036D01*
X13362738Y-18765544D01*
X13519500Y-18786182D01*
X13527688Y-18785104D01*
X13668074Y-18766622D01*
X13676262Y-18765544D01*
X13822341Y-18705036D01*
X13947782Y-18608782D01*
X13956972Y-18596806D01*
X13989212Y-18554789D01*
X13992887Y-18550000D01*
X17244318Y-18550000D01*
X17264956Y-18706762D01*
X17325464Y-18852841D01*
X17374785Y-18917118D01*
X17400017Y-18950000D01*
X17421718Y-18978282D01*
X17547159Y-19074536D01*
X17693238Y-19135044D01*
X17701426Y-19136122D01*
X17755425Y-19143231D01*
X17850000Y-19155682D01*
X17858188Y-19154604D01*
X17867972Y-19153316D01*
X17944575Y-19143231D01*
X17998574Y-19136122D01*
X18006762Y-19135044D01*
X18152841Y-19074536D01*
X18278282Y-18978282D01*
X18299984Y-18950000D01*
X18325215Y-18917118D01*
X18374536Y-18852841D01*
X18435044Y-18706762D01*
X18455682Y-18550000D01*
X18435044Y-18393238D01*
X18374536Y-18247159D01*
X18278282Y-18121718D01*
X18224796Y-18080677D01*
X18182929Y-18023339D01*
X18175500Y-17980714D01*
X18175500Y-17693016D01*
X18195502Y-17624895D01*
X18212405Y-17603921D01*
X20511921Y-15304405D01*
X20574233Y-15270379D01*
X20601016Y-15267500D01*
X26333991Y-15267500D01*
X26402112Y-15287502D01*
X26410694Y-15293537D01*
X26470604Y-15339507D01*
X26470608Y-15339509D01*
X26477159Y-15344536D01*
X26623238Y-15405044D01*
X26631426Y-15406122D01*
X26701619Y-15415363D01*
X26780000Y-15425682D01*
X26788188Y-15424604D01*
X26928574Y-15406122D01*
X26936762Y-15405044D01*
X27082841Y-15344536D01*
X27208282Y-15248282D01*
X27304536Y-15122841D01*
X27365044Y-14976762D01*
X27385682Y-14820000D01*
X27365044Y-14663238D01*
X27304536Y-14517159D01*
X27208282Y-14391718D01*
X27082841Y-14295464D01*
X26936762Y-14234956D01*
X26780000Y-14214318D01*
X26623238Y-14234956D01*
X26477159Y-14295464D01*
X26351718Y-14391718D01*
X26255464Y-14517159D01*
X26252304Y-14524789D01*
X26246534Y-14538718D01*
X26201986Y-14593999D01*
X26130125Y-14616500D01*
X20433710Y-14616500D01*
X20422728Y-14616020D01*
X20396180Y-14613697D01*
X20396178Y-14613697D01*
X20385193Y-14612736D01*
X20348785Y-14622492D01*
X20338058Y-14624870D01*
X20336805Y-14625091D01*
X20300955Y-14631412D01*
X20291410Y-14636923D01*
X20288134Y-14638115D01*
X20284966Y-14639592D01*
X20274316Y-14642446D01*
X20265285Y-14648770D01*
X20243456Y-14664055D01*
X20234185Y-14669961D01*
X20211094Y-14683293D01*
X20201545Y-14688806D01*
X20194459Y-14697251D01*
X20177315Y-14717682D01*
X20169889Y-14725785D01*
X17633785Y-17261889D01*
X17625681Y-17269316D01*
X17596806Y-17293545D01*
X17591293Y-17303094D01*
X17577961Y-17326185D01*
X17572055Y-17335456D01*
X17550446Y-17366316D01*
X17547592Y-17376966D01*
X17546115Y-17380134D01*
X17544923Y-17383410D01*
X17539412Y-17392955D01*
X17535311Y-17416215D01*
X17532870Y-17430058D01*
X17530492Y-17440785D01*
X17520736Y-17477193D01*
X17521697Y-17488178D01*
X17521697Y-17488180D01*
X17524020Y-17514728D01*
X17524500Y-17525710D01*
X17524500Y-17980714D01*
X17504498Y-18048835D01*
X17475204Y-18080677D01*
X17421718Y-18121718D01*
X17325464Y-18247159D01*
X17264956Y-18393238D01*
X17244318Y-18550000D01*
X13992887Y-18550000D01*
X14044036Y-18483341D01*
X14104544Y-18337262D01*
X14125182Y-18180500D01*
X14104544Y-18023738D01*
X14044036Y-17877659D01*
X13947782Y-17752218D01*
X13822341Y-17655964D01*
X13676262Y-17595456D01*
X13519500Y-17574818D01*
X13362738Y-17595456D01*
X13355109Y-17598616D01*
X13308532Y-17617909D01*
X13260314Y-17627500D01*
X7940016Y-17627500D01*
X7871895Y-17607498D01*
X7850921Y-17590595D01*
X7444111Y-17183785D01*
X7436684Y-17175681D01*
X7419541Y-17155251D01*
X7419542Y-17155251D01*
X7412455Y-17146806D01*
X7402906Y-17141293D01*
X7379815Y-17127961D01*
X7370544Y-17122055D01*
X7348715Y-17106770D01*
X7339684Y-17100446D01*
X7329034Y-17097592D01*
X7325866Y-17096115D01*
X7322590Y-17094923D01*
X7313045Y-17089412D01*
X7279301Y-17083462D01*
X7275942Y-17082870D01*
X7265215Y-17080492D01*
X7228807Y-17070736D01*
X7217822Y-17071697D01*
X7217820Y-17071697D01*
X7191272Y-17074020D01*
X7180290Y-17074500D01*
X3137712Y-17074500D01*
X3069591Y-17054498D01*
X3048617Y-17037595D01*
X815422Y-14804400D01*
X9691918Y-14804400D01*
X9712556Y-14961162D01*
X9773064Y-15107241D01*
X9869318Y-15232682D01*
X9994759Y-15328936D01*
X10140838Y-15389444D01*
X10297600Y-15410082D01*
X10305788Y-15409004D01*
X10335868Y-15405044D01*
X10454362Y-15389444D01*
X10600441Y-15328936D01*
X10725882Y-15232682D01*
X10822136Y-15107241D01*
X10882644Y-14961162D01*
X10903282Y-14804400D01*
X10882644Y-14647638D01*
X10822136Y-14501559D01*
X10725882Y-14376118D01*
X10621991Y-14296400D01*
X11977918Y-14296400D01*
X11998556Y-14453162D01*
X12059064Y-14599241D01*
X12108797Y-14664055D01*
X12134270Y-14697251D01*
X12155318Y-14724682D01*
X12280759Y-14820936D01*
X12426838Y-14881444D01*
X12583600Y-14902082D01*
X12591788Y-14901004D01*
X12592009Y-14900975D01*
X12740362Y-14881444D01*
X12886441Y-14820936D01*
X13011882Y-14724682D01*
X13032931Y-14697251D01*
X13058403Y-14664055D01*
X13108136Y-14599241D01*
X13168644Y-14453162D01*
X13189282Y-14296400D01*
X13168644Y-14139638D01*
X13108136Y-13993559D01*
X13025666Y-13886082D01*
X13016905Y-13874664D01*
X13011882Y-13868118D01*
X12886441Y-13771864D01*
X12740362Y-13711356D01*
X12689053Y-13704601D01*
X12591788Y-13691796D01*
X12583600Y-13690718D01*
X12575412Y-13691796D01*
X12478148Y-13704601D01*
X12426838Y-13711356D01*
X12280759Y-13771864D01*
X12155318Y-13868118D01*
X12150295Y-13874664D01*
X12141534Y-13886082D01*
X12059064Y-13993559D01*
X11998556Y-14139638D01*
X11977918Y-14296400D01*
X10621991Y-14296400D01*
X10600441Y-14279864D01*
X10454362Y-14219356D01*
X10416095Y-14214318D01*
X10305788Y-14199796D01*
X10297600Y-14198718D01*
X10289412Y-14199796D01*
X10179106Y-14214318D01*
X10140838Y-14219356D01*
X9994759Y-14279864D01*
X9869318Y-14376118D01*
X9773064Y-14501559D01*
X9712556Y-14647638D01*
X9691918Y-14804400D01*
X815422Y-14804400D01*
X-708578Y-13280400D01*
X10199918Y-13280400D01*
X10220556Y-13437162D01*
X10281064Y-13583241D01*
X10377318Y-13708682D01*
X10502759Y-13804936D01*
X10648838Y-13865444D01*
X10805600Y-13886082D01*
X10813788Y-13885004D01*
X10828251Y-13883100D01*
X10962362Y-13865444D01*
X11108441Y-13804936D01*
X11233882Y-13708682D01*
X11330136Y-13583241D01*
X11390644Y-13437162D01*
X11411282Y-13280400D01*
X11394776Y-13155025D01*
X11391722Y-13131826D01*
X11390644Y-13123638D01*
X11330136Y-12977559D01*
X11233882Y-12852118D01*
X11108441Y-12755864D01*
X10962362Y-12695356D01*
X10952511Y-12694059D01*
X10813788Y-12675796D01*
X10805600Y-12674718D01*
X10797412Y-12675796D01*
X10658690Y-12694059D01*
X10648838Y-12695356D01*
X10502759Y-12755864D01*
X10377318Y-12852118D01*
X10281064Y-12977559D01*
X10220556Y-13123638D01*
X10219478Y-13131826D01*
X10216424Y-13155025D01*
X10199918Y-13280400D01*
X-708578Y-13280400D01*
X-1648978Y-12340000D01*
X-865682Y-12340000D01*
X-845044Y-12496762D01*
X-784536Y-12642841D01*
X-688282Y-12768282D01*
X-681736Y-12773305D01*
X-679519Y-12775006D01*
X-562841Y-12864536D01*
X-416762Y-12925044D01*
X-260000Y-12945682D01*
X-251812Y-12944604D01*
X-111426Y-12926122D01*
X-103238Y-12925044D01*
X42841Y-12864536D01*
X90727Y-12827792D01*
X105395Y-12816537D01*
X171616Y-12790937D01*
X182099Y-12790500D01*
X1625780Y-12790500D01*
X1640589Y-12791373D01*
X1674310Y-12795364D01*
X1683574Y-12793672D01*
X1683575Y-12793672D01*
X1732001Y-12784828D01*
X1735904Y-12784178D01*
X1784645Y-12776850D01*
X1784646Y-12776850D01*
X1793962Y-12775449D01*
X1800475Y-12772321D01*
X1807573Y-12771025D01*
X1859647Y-12743975D01*
X1863137Y-12742232D01*
X1916079Y-12716809D01*
X1921365Y-12711923D01*
X1921413Y-12711890D01*
X1927788Y-12708579D01*
X1932828Y-12704275D01*
X1970055Y-12667048D01*
X1973621Y-12663618D01*
X1986546Y-12651670D01*
X2015556Y-12624854D01*
X2019249Y-12618495D01*
X2024766Y-12612337D01*
X2187103Y-12450000D01*
X7494318Y-12450000D01*
X7514956Y-12606762D01*
X7575464Y-12752841D01*
X7671718Y-12878282D01*
X7678264Y-12883305D01*
X7684401Y-12888014D01*
X7797159Y-12974536D01*
X7943238Y-13035044D01*
X8100000Y-13055682D01*
X8108188Y-13054604D01*
X8248574Y-13036122D01*
X8256762Y-13035044D01*
X8402841Y-12974536D01*
X8515599Y-12888014D01*
X8521736Y-12883305D01*
X8528282Y-12878282D01*
X8624536Y-12752841D01*
X8685044Y-12606762D01*
X8696677Y-12518400D01*
X12739918Y-12518400D01*
X12740996Y-12526588D01*
X12757244Y-12650001D01*
X12760556Y-12675162D01*
X12821064Y-12821241D01*
X12917318Y-12946682D01*
X13042759Y-13042936D01*
X13188838Y-13103444D01*
X13345600Y-13124082D01*
X13353788Y-13123004D01*
X13494174Y-13104522D01*
X13502362Y-13103444D01*
X13648441Y-13042936D01*
X13773882Y-12946682D01*
X13870136Y-12821241D01*
X13930644Y-12675162D01*
X13933957Y-12650001D01*
X13950204Y-12526588D01*
X13951282Y-12518400D01*
X13930644Y-12361638D01*
X13870136Y-12215559D01*
X13773882Y-12090118D01*
X13648441Y-11993864D01*
X13502362Y-11933356D01*
X13345600Y-11912718D01*
X13188838Y-11933356D01*
X13042759Y-11993864D01*
X12917318Y-12090118D01*
X12821064Y-12215559D01*
X12760556Y-12361638D01*
X12739918Y-12518400D01*
X8696677Y-12518400D01*
X8705682Y-12450000D01*
X8688299Y-12317960D01*
X8686122Y-12301426D01*
X8685044Y-12293238D01*
X8624536Y-12147159D01*
X8528282Y-12021718D01*
X8402841Y-11925464D01*
X8256762Y-11864956D01*
X8245422Y-11863463D01*
X8108188Y-11845396D01*
X8100000Y-11844318D01*
X8091812Y-11845396D01*
X7954579Y-11863463D01*
X7943238Y-11864956D01*
X7797159Y-11925464D01*
X7671718Y-12021718D01*
X7575464Y-12147159D01*
X7514956Y-12293238D01*
X7513878Y-12301426D01*
X7511701Y-12317960D01*
X7494318Y-12450000D01*
X2187103Y-12450000D01*
X2232350Y-12404753D01*
X2243439Y-12394899D01*
X2262709Y-12379707D01*
X2262711Y-12379705D01*
X2270110Y-12373872D01*
X2278566Y-12361638D01*
X2303455Y-12325625D01*
X2305760Y-12322399D01*
X2309039Y-12317960D01*
X2321292Y-12303729D01*
X2676383Y-11948638D01*
X2694649Y-11933525D01*
X2695590Y-11932886D01*
X2704079Y-11928809D01*
X2709363Y-11923925D01*
X2709416Y-11923889D01*
X2715788Y-11920579D01*
X2720828Y-11916275D01*
X2758055Y-11879048D01*
X2761621Y-11875618D01*
X2796641Y-11843246D01*
X2803556Y-11836854D01*
X2807249Y-11830495D01*
X2812766Y-11824337D01*
X9494698Y-5142405D01*
X9557010Y-5108379D01*
X9583793Y-5105500D01*
X10346901Y-5105500D01*
X10415022Y-5125502D01*
X10423605Y-5131537D01*
X10486159Y-5179536D01*
X10632238Y-5240044D01*
X10728837Y-5252761D01*
X10793763Y-5281483D01*
X10801485Y-5288588D01*
X19457247Y-13944350D01*
X19467101Y-13955439D01*
X19481433Y-13973618D01*
X19488128Y-13982110D01*
X19495876Y-13987465D01*
X19495878Y-13987467D01*
X19536400Y-14015474D01*
X19539619Y-14017774D01*
X19552605Y-14027365D01*
X19586817Y-14052634D01*
X19593631Y-14055027D01*
X19599569Y-14059131D01*
X19608546Y-14061970D01*
X19608548Y-14061971D01*
X19655517Y-14076825D01*
X19659266Y-14078076D01*
X19714631Y-14097519D01*
X19721818Y-14097801D01*
X19721880Y-14097813D01*
X19728730Y-14099980D01*
X19735337Y-14100500D01*
X19788016Y-14100500D01*
X19792962Y-14100597D01*
X19849994Y-14102838D01*
X19857100Y-14100954D01*
X19865347Y-14100500D01*
X21815780Y-14100500D01*
X21830589Y-14101373D01*
X21864310Y-14105364D01*
X21873574Y-14103672D01*
X21873575Y-14103672D01*
X21922001Y-14094828D01*
X21925904Y-14094178D01*
X21974645Y-14086850D01*
X21974646Y-14086850D01*
X21983962Y-14085449D01*
X21990475Y-14082321D01*
X21997573Y-14081025D01*
X22049647Y-14053975D01*
X22053137Y-14052232D01*
X22106079Y-14026809D01*
X22111365Y-14021923D01*
X22111413Y-14021890D01*
X22117788Y-14018579D01*
X22122828Y-14014275D01*
X22160055Y-13977048D01*
X22163621Y-13973618D01*
X22198641Y-13941246D01*
X22205556Y-13934854D01*
X22209249Y-13928495D01*
X22214766Y-13922337D01*
X22805941Y-13331162D01*
X22868253Y-13297136D01*
X22878585Y-13295336D01*
X22956762Y-13285044D01*
X23102841Y-13224536D01*
X23228282Y-13128282D01*
X23324536Y-13002841D01*
X23385044Y-12856762D01*
X23405682Y-12700000D01*
X23385044Y-12543238D01*
X23324536Y-12397159D01*
X23228282Y-12271718D01*
X23102841Y-12175464D01*
X22956762Y-12114956D01*
X22800000Y-12094318D01*
X22643238Y-12114956D01*
X22497159Y-12175464D01*
X22371718Y-12271718D01*
X22275464Y-12397159D01*
X22214956Y-12543238D01*
X22213878Y-12551426D01*
X22213878Y-12551427D01*
X22204665Y-12621409D01*
X22175943Y-12686337D01*
X22168838Y-12694059D01*
X21700302Y-13162595D01*
X21637990Y-13196621D01*
X21611207Y-13199500D01*
X20038793Y-13199500D01*
X19970672Y-13179498D01*
X19949698Y-13162595D01*
X13242080Y-6454977D01*
X14699295Y-6454977D01*
X14719933Y-6611739D01*
X14780441Y-6757818D01*
X14876695Y-6883259D01*
X14883241Y-6888282D01*
X14903831Y-6904081D01*
X15002136Y-6979513D01*
X15148215Y-7040021D01*
X15304977Y-7060659D01*
X15313165Y-7059581D01*
X15453551Y-7041099D01*
X15461739Y-7040021D01*
X15607818Y-6979513D01*
X15706123Y-6904081D01*
X15726713Y-6888282D01*
X15733259Y-6883259D01*
X15829513Y-6757818D01*
X15890021Y-6611739D01*
X15910659Y-6454977D01*
X15890021Y-6298215D01*
X15883135Y-6281590D01*
X15875546Y-6211002D01*
X15910449Y-6144278D01*
X16563382Y-5491345D01*
X16625694Y-5457319D01*
X16668922Y-5455518D01*
X16704523Y-5460205D01*
X16712711Y-5459127D01*
X16853097Y-5440645D01*
X16861285Y-5439567D01*
X17007364Y-5379059D01*
X17104396Y-5304604D01*
X17126259Y-5287828D01*
X17132805Y-5282805D01*
X17229059Y-5157364D01*
X17289567Y-5011285D01*
X17310205Y-4854523D01*
X17294195Y-4732914D01*
X17290645Y-4705949D01*
X17289567Y-4697761D01*
X17229059Y-4551682D01*
X17132805Y-4426241D01*
X17007364Y-4329987D01*
X16861285Y-4269479D01*
X16840139Y-4266695D01*
X16712711Y-4249919D01*
X16704523Y-4248841D01*
X16696335Y-4249919D01*
X16568908Y-4266695D01*
X16547761Y-4269479D01*
X16401682Y-4329987D01*
X16276241Y-4426241D01*
X16179987Y-4551682D01*
X16119479Y-4697761D01*
X16118401Y-4705949D01*
X16114851Y-4732914D01*
X16098841Y-4854523D01*
X16099919Y-4862710D01*
X16103528Y-4890121D01*
X16092589Y-4960269D01*
X16067701Y-4995663D01*
X15230531Y-5832833D01*
X15168219Y-5866859D01*
X15157890Y-5868659D01*
X15157235Y-5868746D01*
X15156402Y-5868855D01*
X15156400Y-5868855D01*
X15148215Y-5869933D01*
X15002136Y-5930441D01*
X14876695Y-6026695D01*
X14871672Y-6033241D01*
X14848918Y-6062895D01*
X14780441Y-6152136D01*
X14719933Y-6298215D01*
X14699295Y-6454977D01*
X13242080Y-6454977D01*
X11417737Y-4630634D01*
X11383711Y-4568322D01*
X11381910Y-4557986D01*
X11375122Y-4506426D01*
X11374044Y-4498238D01*
X11313536Y-4352159D01*
X11217282Y-4226718D01*
X11209613Y-4220833D01*
X11158274Y-4181440D01*
X11091841Y-4130464D01*
X10945762Y-4069956D01*
X10789000Y-4049318D01*
X10632238Y-4069956D01*
X10486159Y-4130464D01*
X10445662Y-4161538D01*
X10423605Y-4178463D01*
X10357384Y-4204063D01*
X10346901Y-4204500D01*
X9379220Y-4204500D01*
X9364411Y-4203627D01*
X9340043Y-4200743D01*
X9330690Y-4199636D01*
X9321426Y-4201328D01*
X9321425Y-4201328D01*
X9272999Y-4210172D01*
X9269096Y-4210822D01*
X9220355Y-4218150D01*
X9220354Y-4218150D01*
X9211038Y-4219551D01*
X9204525Y-4222679D01*
X9197427Y-4223975D01*
X9145353Y-4251025D01*
X9141863Y-4252768D01*
X9088921Y-4278191D01*
X9083635Y-4283077D01*
X9083587Y-4283110D01*
X9077212Y-4286421D01*
X9072172Y-4290725D01*
X9034945Y-4327952D01*
X9031380Y-4331381D01*
X8989444Y-4370146D01*
X8985751Y-4376505D01*
X8980234Y-4382663D01*
X2207535Y-11155362D01*
X2189261Y-11170480D01*
X2188326Y-11171116D01*
X2179839Y-11175191D01*
X2174554Y-11180077D01*
X2174507Y-11180108D01*
X2168129Y-11183421D01*
X2163090Y-11187725D01*
X2125863Y-11224952D01*
X2122298Y-11228381D01*
X2080362Y-11267146D01*
X2076669Y-11273505D01*
X2071152Y-11279663D01*
X1643650Y-11707165D01*
X1632561Y-11717019D01*
X1613291Y-11732211D01*
X1613289Y-11732213D01*
X1605890Y-11738046D01*
X1600535Y-11745793D01*
X1600534Y-11745795D01*
X1572545Y-11786293D01*
X1570240Y-11789519D01*
X1566961Y-11793958D01*
X1554708Y-11808189D01*
X1510302Y-11852595D01*
X1447990Y-11886621D01*
X1421207Y-11889500D01*
X182099Y-11889500D01*
X113978Y-11869498D01*
X105395Y-11863463D01*
X67846Y-11834651D01*
X42841Y-11815464D01*
X-103238Y-11754956D01*
X-260000Y-11734318D01*
X-416762Y-11754956D01*
X-562841Y-11815464D01*
X-688282Y-11911718D01*
X-784536Y-12037159D01*
X-845044Y-12183238D01*
X-865682Y-12340000D01*
X-1648978Y-12340000D01*
X-1894660Y-12094318D01*
X-5980929Y-8008050D01*
X-841513Y-8008050D01*
X-841452Y-8008057D01*
X-841364Y-8006935D01*
X-841513Y-8008050D01*
X-5980929Y-8008050D01*
X-6845060Y-7143919D01*
X-6879086Y-7081607D01*
X-6880887Y-7038378D01*
X-6863207Y-6904081D01*
X-6863207Y-6904080D01*
X-6862129Y-6895892D01*
X-6882767Y-6739130D01*
X-6943275Y-6593051D01*
X-7039529Y-6467610D01*
X-7066663Y-6446789D01*
X-7075729Y-6439833D01*
X-7164970Y-6371356D01*
X-7311049Y-6310848D01*
X-7467811Y-6290210D01*
X-7624573Y-6310848D01*
X-7770652Y-6371356D01*
X-7859893Y-6439833D01*
X-7868958Y-6446789D01*
X-7896093Y-6467610D01*
X-7992347Y-6593051D01*
X-8052855Y-6739130D01*
X-8073493Y-6895892D01*
X-8052855Y-7052654D01*
X-7992347Y-7198733D01*
X-7896093Y-7324174D01*
X-7770652Y-7420428D01*
X-7624573Y-7480936D01*
X-7467811Y-7501574D01*
X-7460798Y-7500651D01*
X-7393204Y-7520498D01*
X-7372230Y-7537401D01*
X-6650226Y-8259405D01*
X-6616200Y-8321717D01*
X-6621265Y-8392532D01*
X-6663812Y-8449368D01*
X-6730332Y-8474179D01*
X-6739321Y-8474500D01*
X-6879322Y-8474500D01*
X-6947443Y-8454498D01*
X-6995731Y-8396719D01*
X-7010073Y-8362095D01*
X-7032422Y-8308139D01*
X-7128676Y-8182698D01*
X-7254117Y-8086444D01*
X-7400196Y-8025936D01*
X-7556958Y-8005298D01*
X-7713720Y-8025936D01*
X-7859799Y-8086444D01*
X-7985240Y-8182698D01*
X-8081494Y-8308139D01*
X-8142002Y-8454218D01*
X-8162640Y-8610980D01*
X-8142002Y-8767742D01*
X-8081494Y-8913821D01*
X-7985240Y-9039262D01*
X-7859799Y-9135516D01*
X-7713720Y-9196024D01*
X-7556958Y-9216662D01*
X-7548770Y-9215584D01*
X-7408384Y-9197102D01*
X-7400196Y-9196024D01*
X-7254117Y-9135516D01*
X-7252960Y-9138309D01*
X-7205163Y-9125500D01*
X-6487016Y-9125500D01*
X-6418895Y-9145502D01*
X-6397921Y-9162405D01*
X2749079Y-18309405D01*
X2783105Y-18371717D01*
X2778040Y-18442532D01*
X2735493Y-18499368D01*
X2668973Y-18524179D01*
X2659984Y-18524500D01*
X-8362983Y-18524500D01*
X-8431104Y-18504498D01*
X-8452078Y-18487595D01*
X-13039634Y-13900040D01*
X-8251019Y-13900040D01*
X-8250983Y-13900189D01*
X-8189813Y-14286424D01*
X-8189801Y-14286578D01*
X-8189783Y-14286613D01*
X-8189777Y-14286652D01*
X-8189695Y-14286785D01*
X-8012177Y-14635121D01*
X-8012116Y-14635267D01*
X-8012088Y-14635295D01*
X-8012070Y-14635330D01*
X-8011953Y-14635430D01*
X-8000402Y-14646983D01*
X-8000402Y-14646984D01*
X-7747648Y-14899794D01*
X-7747646Y-14899795D01*
X-7735460Y-14911984D01*
X-7735360Y-14912101D01*
X-7735325Y-14912119D01*
X-7735297Y-14912147D01*
X-7735150Y-14912208D01*
X-7524620Y-15019447D01*
X-7397937Y-15083977D01*
X-7397935Y-15083977D01*
X-7386752Y-15089674D01*
X-7386621Y-15089755D01*
X-7386582Y-15089761D01*
X-7386547Y-15089779D01*
X-7386394Y-15089791D01*
X-7000188Y-15150984D01*
X-7000039Y-15151020D01*
X-7000000Y-15151014D01*
X-6999961Y-15151020D01*
X-6999812Y-15150984D01*
X-6983926Y-15148467D01*
X-6863539Y-15129392D01*
X-6613607Y-15089791D01*
X-6613455Y-15089779D01*
X-6613420Y-15089761D01*
X-6613380Y-15089755D01*
X-6613242Y-15089671D01*
X-6602063Y-15083977D01*
X-6280024Y-14919937D01*
X-6264851Y-14912208D01*
X-6264704Y-14912147D01*
X-6264676Y-14912119D01*
X-6264641Y-14912101D01*
X-6264541Y-14911984D01*
X-6019824Y-14667213D01*
X-6000138Y-14647523D01*
X-6000138Y-14647522D01*
X-5988048Y-14635430D01*
X-5987931Y-14635330D01*
X-5987913Y-14635295D01*
X-5987885Y-14635267D01*
X-5987824Y-14635121D01*
X-5810305Y-14286784D01*
X-5810224Y-14286652D01*
X-5810218Y-14286613D01*
X-5810200Y-14286578D01*
X-5810188Y-14286424D01*
X-5749017Y-13900189D01*
X-5748981Y-13900040D01*
X-5748987Y-13900001D01*
X-5748981Y-13899962D01*
X-5749017Y-13899813D01*
X-5810188Y-13513574D01*
X-5810200Y-13513420D01*
X-5810218Y-13513385D01*
X-5810224Y-13513346D01*
X-5810305Y-13513214D01*
X-5987824Y-13164877D01*
X-5987885Y-13164731D01*
X-5987913Y-13164703D01*
X-5987931Y-13164668D01*
X-5988048Y-13164568D01*
X-6019304Y-13133305D01*
X-6252353Y-12900204D01*
X-6252355Y-12900203D01*
X-6264541Y-12888014D01*
X-6264641Y-12887897D01*
X-6264676Y-12887879D01*
X-6264704Y-12887851D01*
X-6264851Y-12887790D01*
X-6310787Y-12864391D01*
X-6410478Y-12813611D01*
X-6613244Y-12710327D01*
X-6613380Y-12710243D01*
X-6613420Y-12710237D01*
X-6613455Y-12710219D01*
X-6613607Y-12710207D01*
X-6844253Y-12673664D01*
X-6983073Y-12651670D01*
X-6999812Y-12649018D01*
X-6999961Y-12648982D01*
X-7000000Y-12648988D01*
X-7000039Y-12648982D01*
X-7000188Y-12649018D01*
X-7016069Y-12651534D01*
X-7373818Y-12708214D01*
X-7373820Y-12708215D01*
X-7386394Y-12710207D01*
X-7386547Y-12710219D01*
X-7386582Y-12710237D01*
X-7386621Y-12710243D01*
X-7386752Y-12710324D01*
X-7397935Y-12716021D01*
X-7397937Y-12716021D01*
X-7695702Y-12867696D01*
X-7735150Y-12887790D01*
X-7735297Y-12887851D01*
X-7735325Y-12887879D01*
X-7735360Y-12887897D01*
X-7735460Y-12888014D01*
X-8011948Y-13164563D01*
X-8012070Y-13164667D01*
X-8012089Y-13164704D01*
X-8012116Y-13164731D01*
X-8012174Y-13164872D01*
X-8019585Y-13179414D01*
X-8146764Y-13428974D01*
X-8189695Y-13513217D01*
X-8189777Y-13513350D01*
X-8189783Y-13513389D01*
X-8189801Y-13513424D01*
X-8189813Y-13513578D01*
X-8250983Y-13899813D01*
X-8251019Y-13899962D01*
X-8251013Y-13900001D01*
X-8251019Y-13900040D01*
X-13039634Y-13900040D01*
X-15737595Y-11202079D01*
X-15771621Y-11139767D01*
X-15774500Y-11112984D01*
X-15774500Y-5525372D01*
X-15754498Y-5457251D01*
X-15700842Y-5410758D01*
X-15630568Y-5400654D01*
X-15565988Y-5430148D01*
X-15559405Y-5436277D01*
X-15336822Y-5658860D01*
X-15302796Y-5721172D01*
X-15300995Y-5764399D01*
X-15305682Y-5800000D01*
X-15285044Y-5956762D01*
X-15224536Y-6102841D01*
X-15128282Y-6228282D01*
X-15002841Y-6324536D01*
X-14856762Y-6385044D01*
X-14700000Y-6405682D01*
X-14691812Y-6404604D01*
X-14551426Y-6386122D01*
X-14543238Y-6385044D01*
X-14397159Y-6324536D01*
X-14271718Y-6228282D01*
X-14175464Y-6102841D01*
X-14114956Y-5956762D01*
X-14094318Y-5800000D01*
X-14108434Y-5692775D01*
X-14113878Y-5651426D01*
X-14114956Y-5643238D01*
X-14175464Y-5497159D01*
X-14249515Y-5400654D01*
X-14266695Y-5378264D01*
X-14271718Y-5371718D01*
X-14397159Y-5275464D01*
X-14543238Y-5214956D01*
X-14700000Y-5194318D01*
X-14735600Y-5199005D01*
X-14805746Y-5188066D01*
X-14841140Y-5163178D01*
X-14988095Y-5016223D01*
X-15022121Y-4953911D01*
X-15025000Y-4927128D01*
X-15025000Y-3447234D01*
X-15004998Y-3379113D01*
X-14975704Y-3347271D01*
X-14953764Y-3330436D01*
X-14947218Y-3325413D01*
X-14850964Y-3199972D01*
X-14790456Y-3053893D01*
X-14769818Y-2897131D01*
X-14790456Y-2740369D01*
X-14850964Y-2594290D01*
X-14932488Y-2488045D01*
X-14942195Y-2475395D01*
X-14947218Y-2468849D01*
X-15072659Y-2372595D01*
X-15218738Y-2312087D01*
X-15375500Y-2291449D01*
X-15532262Y-2312087D01*
X-15539891Y-2315247D01*
X-15600282Y-2340262D01*
X-15670871Y-2347851D01*
X-15734358Y-2316072D01*
X-15770586Y-2255014D01*
X-15774500Y-2223853D01*
X-15774500Y-999961D01*
X-13501019Y-999961D01*
X-13501000Y-1000081D01*
X-13501000Y-1000198D01*
X-13500970Y-1000270D01*
X-13449594Y-1324595D01*
X-13449582Y-1324747D01*
X-13449564Y-1324782D01*
X-13449558Y-1324822D01*
X-13449474Y-1324958D01*
X-13443788Y-1336120D01*
X-13443787Y-1336123D01*
X-13329887Y-1559718D01*
X-13300408Y-1617589D01*
X-13300347Y-1617735D01*
X-13300319Y-1617763D01*
X-13300301Y-1617798D01*
X-13300183Y-1617899D01*
X-13288735Y-1629347D01*
X-13104534Y-1813551D01*
X-13067930Y-1850156D01*
X-13067830Y-1850273D01*
X-13067795Y-1850291D01*
X-13067767Y-1850319D01*
X-13067621Y-1850380D01*
X-12952904Y-1908831D01*
X-12786175Y-1993785D01*
X-12786172Y-1993786D01*
X-12774983Y-1999487D01*
X-12774852Y-1999568D01*
X-12774813Y-1999574D01*
X-12774778Y-1999592D01*
X-12774624Y-1999604D01*
X-12762052Y-2001595D01*
X-12466893Y-2048337D01*
X-12466892Y-2048337D01*
X-12450189Y-2050982D01*
X-12450040Y-2051018D01*
X-12450001Y-2051012D01*
X-12449962Y-2051018D01*
X-12449813Y-2050982D01*
X-12125376Y-1999604D01*
X-12125222Y-1999592D01*
X-12125187Y-1999574D01*
X-12125148Y-1999568D01*
X-12125015Y-1999487D01*
X-11832379Y-1850380D01*
X-11832233Y-1850319D01*
X-11832205Y-1850291D01*
X-11832170Y-1850273D01*
X-11832070Y-1850156D01*
X-11805523Y-1823609D01*
X-11674706Y-1692789D01*
X-11599817Y-1617898D01*
X-11599700Y-1617798D01*
X-11599682Y-1617763D01*
X-11599654Y-1617735D01*
X-11599593Y-1617589D01*
X-11450528Y-1324958D01*
X-11450444Y-1324822D01*
X-11450438Y-1324782D01*
X-11450420Y-1324747D01*
X-11450408Y-1324595D01*
X-11399030Y-1000270D01*
X-11399000Y-1000198D01*
X-11399000Y-1000081D01*
X-11398981Y-999961D01*
X-11399000Y-999882D01*
X-11399000Y-902001D01*
X-11378998Y-833880D01*
X-11325342Y-787387D01*
X-11273000Y-776001D01*
X-8126026Y-776001D01*
X-8057905Y-796003D01*
X-8011412Y-849659D01*
X-8001104Y-885554D01*
X-7967862Y-1138053D01*
X-7951904Y-1259264D01*
X-7953046Y-1259414D01*
X-7953033Y-1259497D01*
X-7951909Y-1259288D01*
X-7951880Y-1259444D01*
X-7951856Y-1259627D01*
X-7952989Y-1259776D01*
X-7952976Y-1259862D01*
X-7951842Y-1259652D01*
X-7875206Y-1673165D01*
X-7875108Y-1673696D01*
X-7875112Y-1673731D01*
X-7875069Y-1673909D01*
X-7875040Y-1674067D01*
X-7875148Y-1674087D01*
X-7875151Y-1674118D01*
X-7875026Y-1674088D01*
X-7776712Y-2083555D01*
X-7777933Y-2083848D01*
X-7777909Y-2083937D01*
X-7776715Y-2083582D01*
X-7776666Y-2083747D01*
X-7776626Y-2083914D01*
X-7777838Y-2084204D01*
X-7777814Y-2084293D01*
X-7776610Y-2083936D01*
X-7657007Y-2487711D01*
X-7658133Y-2488045D01*
X-7658106Y-2488126D01*
X-7657008Y-2487737D01*
X-7656952Y-2487895D01*
X-7656902Y-2488064D01*
X-7658018Y-2488394D01*
X-7657991Y-2488477D01*
X-7656885Y-2488085D01*
X-7516320Y-2885031D01*
X-7517642Y-2885499D01*
X-7517607Y-2885591D01*
X-7516320Y-2885060D01*
X-7516249Y-2885232D01*
X-7516196Y-2885381D01*
X-7517507Y-2885847D01*
X-7517472Y-2885935D01*
X-7516179Y-2885399D01*
X-7355032Y-3274455D01*
X-7356143Y-3274915D01*
X-7355959Y-3275333D01*
X-7354872Y-3274815D01*
X-7173576Y-3654898D01*
X-7174610Y-3655391D01*
X-7174571Y-3655468D01*
X-7173573Y-3654924D01*
X-7173494Y-3655069D01*
X-7173417Y-3655231D01*
X-7174442Y-3655718D01*
X-7174402Y-3655796D01*
X-7173396Y-3655250D01*
X-6972461Y-4025330D01*
X-6973648Y-4025975D01*
X-6973604Y-4026051D01*
X-6972457Y-4025355D01*
X-6972372Y-4025495D01*
X-6972286Y-4025652D01*
X-6973463Y-4026296D01*
X-6973417Y-4026376D01*
X-6972264Y-4025670D01*
X-6752243Y-4384715D01*
X-6753226Y-4385317D01*
X-6753179Y-4385389D01*
X-6752237Y-4384741D01*
X-6752140Y-4384882D01*
X-6752050Y-4385029D01*
X-6753024Y-4385625D01*
X-6752977Y-4385697D01*
X-6752028Y-4385045D01*
X-6513510Y-4732094D01*
X-6514592Y-4732838D01*
X-6514537Y-4732914D01*
X-6513503Y-4732122D01*
X-6513392Y-4732267D01*
X-6513301Y-4732399D01*
X-6514376Y-4733140D01*
X-6514323Y-4733213D01*
X-6513280Y-4732413D01*
X-6256917Y-5066502D01*
X-6257825Y-5067199D01*
X-6257540Y-5067552D01*
X-6256669Y-5066808D01*
X-5983191Y-5387020D01*
X-5984150Y-5387839D01*
X-5984090Y-5387906D01*
X-5983181Y-5387046D01*
X-5983059Y-5387175D01*
X-5982951Y-5387301D01*
X-5983902Y-5388116D01*
X-5983843Y-5388181D01*
X-5982928Y-5387313D01*
X-5693055Y-5692775D01*
X-5693924Y-5693600D01*
X-5693601Y-5693923D01*
X-5692776Y-5693054D01*
X-5387315Y-5982925D01*
X-5388160Y-5983815D01*
X-5388092Y-5983876D01*
X-5387302Y-5982950D01*
X-5387166Y-5983066D01*
X-5387046Y-5983180D01*
X-5387884Y-5984062D01*
X-5387818Y-5984121D01*
X-5387022Y-5983189D01*
X-5066809Y-6256668D01*
X-5067552Y-6257538D01*
X-5067199Y-6257823D01*
X-5066503Y-6256916D01*
X-4732416Y-6513277D01*
X-4733180Y-6514273D01*
X-4733107Y-6514326D01*
X-4732401Y-6513300D01*
X-4732260Y-6513397D01*
X-4732123Y-6513502D01*
X-4732881Y-6514491D01*
X-4732808Y-6514544D01*
X-4732097Y-6513509D01*
X-4385045Y-6752028D01*
X-4385713Y-6753000D01*
X-4385332Y-6753249D01*
X-4384715Y-6752242D01*
X-4025669Y-6972264D01*
X-4026406Y-6973466D01*
X-4026324Y-6973513D01*
X-4025653Y-6972284D01*
X-4025510Y-6972362D01*
X-4025356Y-6972456D01*
X-4026085Y-6973650D01*
X-4026001Y-6973699D01*
X-4025328Y-6972460D01*
X-3655248Y-7173397D01*
X-3655792Y-7174399D01*
X-3655389Y-7174605D01*
X-3654898Y-7173575D01*
X-3274817Y-7354870D01*
X-3275422Y-7356139D01*
X-3275334Y-7356177D01*
X-3274797Y-7354890D01*
X-3274634Y-7354958D01*
X-3274482Y-7355030D01*
X-3275079Y-7356290D01*
X-3274993Y-7356328D01*
X-3274456Y-7355031D01*
X-2885401Y-7516178D01*
X-2885381Y-7516196D01*
X-2885222Y-7516252D01*
X-2885061Y-7516319D01*
X-2885084Y-7516374D01*
X-2885060Y-7516392D01*
X-2885034Y-7516319D01*
X-2488086Y-7656884D01*
X-2488478Y-7657990D01*
X-2488395Y-7658017D01*
X-2488065Y-7656901D01*
X-2487896Y-7656951D01*
X-2487738Y-7657007D01*
X-2488127Y-7658105D01*
X-2488046Y-7658132D01*
X-2487712Y-7657006D01*
X-2083937Y-7776609D01*
X-2084294Y-7777813D01*
X-2084205Y-7777837D01*
X-2083915Y-7776625D01*
X-2083748Y-7776665D01*
X-2083583Y-7776714D01*
X-2083938Y-7777908D01*
X-2083849Y-7777932D01*
X-2083556Y-7776711D01*
X-1674089Y-7875025D01*
X-1674364Y-7876170D01*
X-1674186Y-7876209D01*
X-1673910Y-7875068D01*
X-1673732Y-7875111D01*
X-1673704Y-7875107D01*
X-1270116Y-7949902D01*
X-1259653Y-7951841D01*
X-1259863Y-7952975D01*
X-1259777Y-7952988D01*
X-1259628Y-7951855D01*
X-1259445Y-7951879D01*
X-1259289Y-7951908D01*
X-1259498Y-7953032D01*
X-1259415Y-7953045D01*
X-1259265Y-7951903D01*
X-841754Y-8006870D01*
X-841764Y-8006949D01*
X-841476Y-8006906D01*
X-841388Y-8006918D01*
X-841387Y-8006918D01*
X-841363Y-8006921D01*
X-841362Y-8006911D01*
X-446734Y-8037971D01*
X-421552Y-8039953D01*
X-421583Y-8040346D01*
X-421166Y-8040274D01*
X-421158Y-8039974D01*
X-197Y-8050994D01*
X-236Y-8052472D01*
X-138Y-8052472D01*
X-172Y-8051004D01*
X-1Y-8051000D01*
X171Y-8051004D01*
X137Y-8052472D01*
X235Y-8052472D01*
X196Y-8050994D01*
X421157Y-8039974D01*
X421166Y-8040305D01*
X421585Y-8040388D01*
X421551Y-8039953D01*
X841361Y-8006911D01*
X841453Y-8008082D01*
X841541Y-8008073D01*
X841387Y-8006918D01*
X841560Y-8006895D01*
X841728Y-8006882D01*
X841818Y-8008044D01*
X841905Y-8008035D01*
X841752Y-8006870D01*
X1259264Y-7951903D01*
X1259414Y-7953045D01*
X1259497Y-7953032D01*
X1259288Y-7951908D01*
X1259444Y-7951879D01*
X1259627Y-7951855D01*
X1259776Y-7952988D01*
X1259862Y-7952975D01*
X1259652Y-7951841D01*
X1270115Y-7949902D01*
X1673697Y-7875107D01*
X1673729Y-7875111D01*
X1673732Y-7875111D01*
X1673909Y-7875068D01*
X1674067Y-7875039D01*
X1674087Y-7875147D01*
X1674118Y-7875150D01*
X1674088Y-7875025D01*
X2083555Y-7776711D01*
X2083848Y-7777932D01*
X2083937Y-7777908D01*
X2083582Y-7776714D01*
X2083747Y-7776665D01*
X2083914Y-7776625D01*
X2084204Y-7777837D01*
X2084293Y-7777813D01*
X2083936Y-7776609D01*
X2487711Y-7657006D01*
X2488045Y-7658132D01*
X2488126Y-7658105D01*
X2487737Y-7657007D01*
X2487895Y-7656951D01*
X2488064Y-7656901D01*
X2488394Y-7658017D01*
X2488477Y-7657990D01*
X2488085Y-7656884D01*
X2885031Y-7516319D01*
X2885499Y-7517641D01*
X2885591Y-7517606D01*
X2885060Y-7516319D01*
X2885232Y-7516248D01*
X2885381Y-7516195D01*
X2885847Y-7517506D01*
X2885935Y-7517471D01*
X2885399Y-7516178D01*
X3274455Y-7355031D01*
X3274915Y-7356142D01*
X3275333Y-7355958D01*
X3274815Y-7354871D01*
X3654898Y-7173575D01*
X3655391Y-7174609D01*
X3655468Y-7174570D01*
X3654924Y-7173572D01*
X3655069Y-7173493D01*
X3655231Y-7173416D01*
X3655718Y-7174441D01*
X3655796Y-7174401D01*
X3655250Y-7173395D01*
X4025330Y-6972460D01*
X4025975Y-6973647D01*
X4026051Y-6973603D01*
X4025355Y-6972456D01*
X4025495Y-6972371D01*
X4025652Y-6972285D01*
X4026296Y-6973462D01*
X4026376Y-6973416D01*
X4025670Y-6972263D01*
X4384715Y-6752242D01*
X4385317Y-6753225D01*
X4385389Y-6753178D01*
X4384741Y-6752236D01*
X4384882Y-6752139D01*
X4385029Y-6752049D01*
X4385625Y-6753023D01*
X4385697Y-6752976D01*
X4385045Y-6752027D01*
X4732094Y-6513509D01*
X4732838Y-6514591D01*
X4732914Y-6514536D01*
X4732122Y-6513502D01*
X4732267Y-6513391D01*
X4732399Y-6513300D01*
X4733140Y-6514375D01*
X4733213Y-6514322D01*
X4732413Y-6513279D01*
X5066502Y-6256916D01*
X5067199Y-6257824D01*
X5067552Y-6257539D01*
X5066808Y-6256668D01*
X5387020Y-5983190D01*
X5387839Y-5984149D01*
X5387906Y-5984089D01*
X5387046Y-5983180D01*
X5387175Y-5983058D01*
X5387301Y-5982950D01*
X5388116Y-5983901D01*
X5388181Y-5983842D01*
X5387313Y-5982927D01*
X5692775Y-5693054D01*
X5693600Y-5693923D01*
X5693923Y-5693600D01*
X5693054Y-5692775D01*
X5982925Y-5387314D01*
X5983815Y-5388159D01*
X5983876Y-5388091D01*
X5982950Y-5387301D01*
X5983066Y-5387165D01*
X5983180Y-5387045D01*
X5984062Y-5387883D01*
X5984121Y-5387817D01*
X5983189Y-5387021D01*
X6256668Y-5066808D01*
X6257538Y-5067551D01*
X6257823Y-5067198D01*
X6256916Y-5066502D01*
X6513277Y-4732415D01*
X6514273Y-4733179D01*
X6514326Y-4733106D01*
X6513300Y-4732400D01*
X6513397Y-4732259D01*
X6513502Y-4732122D01*
X6514491Y-4732880D01*
X6514544Y-4732807D01*
X6513509Y-4732096D01*
X6752028Y-4385044D01*
X6753000Y-4385712D01*
X6753249Y-4385331D01*
X6752242Y-4384714D01*
X6972264Y-4025668D01*
X6973466Y-4026405D01*
X6973513Y-4026323D01*
X6972284Y-4025652D01*
X6972362Y-4025509D01*
X6972456Y-4025355D01*
X6973650Y-4026084D01*
X6973699Y-4026000D01*
X6972460Y-4025327D01*
X7173397Y-3655247D01*
X7174399Y-3655791D01*
X7174605Y-3655388D01*
X7173575Y-3654897D01*
X7354870Y-3274816D01*
X7356139Y-3275421D01*
X7356177Y-3275333D01*
X7354890Y-3274796D01*
X7354958Y-3274633D01*
X7355030Y-3274481D01*
X7356290Y-3275078D01*
X7356328Y-3274992D01*
X7355031Y-3274455D01*
X7372786Y-3231589D01*
X7516178Y-2885400D01*
X7516196Y-2885380D01*
X7516252Y-2885221D01*
X7516319Y-2885060D01*
X7516374Y-2885083D01*
X7516392Y-2885059D01*
X7516319Y-2885033D01*
X7656884Y-2488085D01*
X7657990Y-2488477D01*
X7658017Y-2488394D01*
X7656901Y-2488064D01*
X7656951Y-2487895D01*
X7657007Y-2487737D01*
X7658105Y-2488126D01*
X7658132Y-2488045D01*
X7657006Y-2487711D01*
X7776609Y-2083936D01*
X7777813Y-2084293D01*
X7777837Y-2084204D01*
X7776625Y-2083914D01*
X7776665Y-2083747D01*
X7776714Y-2083582D01*
X7777908Y-2083937D01*
X7777932Y-2083848D01*
X7776711Y-2083555D01*
X7875025Y-1674088D01*
X7876170Y-1674363D01*
X7876209Y-1674185D01*
X7875068Y-1673909D01*
X7875084Y-1673842D01*
X7875111Y-1673731D01*
X7875107Y-1673703D01*
X7951841Y-1259652D01*
X7952975Y-1259862D01*
X7952988Y-1259776D01*
X7951855Y-1259627D01*
X7951879Y-1259444D01*
X7951908Y-1259288D01*
X7953032Y-1259497D01*
X7953045Y-1259414D01*
X7951903Y-1259264D01*
X8006870Y-841753D01*
X8006949Y-841763D01*
X8006906Y-841473D01*
X8006921Y-841363D01*
X8006935Y-841363D01*
X8008050Y-841512D01*
X8008057Y-841451D01*
X8006935Y-841363D01*
X8006921Y-841363D01*
X8006921Y-841362D01*
X8006911Y-841361D01*
X8039953Y-421551D01*
X8040346Y-421582D01*
X8040274Y-421165D01*
X8039974Y-421157D01*
X8041837Y-350000D01*
X20144318Y-350000D01*
X20164956Y-506762D01*
X20225464Y-652841D01*
X20288755Y-735324D01*
X20300017Y-750000D01*
X20321718Y-778282D01*
X20328264Y-783305D01*
X20357918Y-806059D01*
X20447159Y-874536D01*
X20593238Y-935044D01*
X20750000Y-955682D01*
X20785598Y-950995D01*
X20855745Y-961934D01*
X20891139Y-986821D01*
X21401686Y-1497367D01*
X21435711Y-1559680D01*
X21437513Y-1602906D01*
X21429341Y-1664977D01*
X21449979Y-1821739D01*
X21510487Y-1967818D01*
X21606741Y-2093259D01*
X21732182Y-2189513D01*
X21878261Y-2250021D01*
X22035023Y-2270659D01*
X22043211Y-2269581D01*
X22183597Y-2251099D01*
X22191785Y-2250021D01*
X22337864Y-2189513D01*
X22463305Y-2093259D01*
X22559559Y-1967818D01*
X22620067Y-1821739D01*
X22640705Y-1664977D01*
X22620067Y-1508215D01*
X22559559Y-1362136D01*
X22481016Y-1259776D01*
X22468328Y-1243241D01*
X22463305Y-1236695D01*
X22337864Y-1140441D01*
X22191785Y-1079933D01*
X22150791Y-1074536D01*
X22043211Y-1060373D01*
X22035023Y-1059295D01*
X22025893Y-1060497D01*
X22025098Y-1060373D01*
X22018577Y-1060373D01*
X22018577Y-1059356D01*
X21955745Y-1049558D01*
X21920352Y-1024670D01*
X21386822Y-491140D01*
X21352796Y-428828D01*
X21350995Y-385598D01*
X21354604Y-358187D01*
X21355682Y-350000D01*
X21335044Y-193238D01*
X21274536Y-47159D01*
X21178282Y78282D01*
X21052841Y174536D01*
X20906762Y235044D01*
X20750000Y255682D01*
X20593238Y235044D01*
X20447159Y174536D01*
X20321718Y78282D01*
X20225464Y-47159D01*
X20164956Y-193238D01*
X20144318Y-350000D01*
X8041837Y-350000D01*
X8050994Y-196D01*
X8052472Y-235D01*
X8052472Y-137D01*
X8051004Y-171D01*
X8051000Y0D01*
X8051004Y171D01*
X8052472Y137D01*
X8052472Y235D01*
X8050994Y196D01*
X8039974Y421158D01*
X8040305Y421167D01*
X8040388Y421586D01*
X8039953Y421552D01*
X8006911Y841362D01*
X8007071Y841375D01*
X8007063Y841407D01*
X8006918Y841388D01*
X8006894Y841573D01*
X8007016Y841589D01*
X8006971Y841767D01*
X8006870Y841754D01*
X7951903Y1259265D01*
X7953045Y1259415D01*
X7953032Y1259498D01*
X7951908Y1259289D01*
X7951879Y1259445D01*
X7951855Y1259628D01*
X7952988Y1259777D01*
X7952975Y1259863D01*
X7951841Y1259653D01*
X7875107Y1673704D01*
X7875111Y1673732D01*
X7875068Y1673910D01*
X7876209Y1674186D01*
X7876170Y1674364D01*
X7875025Y1674089D01*
X7776711Y2083556D01*
X7777932Y2083849D01*
X7777908Y2083938D01*
X7776714Y2083583D01*
X7776665Y2083748D01*
X7776625Y2083915D01*
X7777837Y2084205D01*
X7777813Y2084294D01*
X7776609Y2083937D01*
X7657006Y2487712D01*
X7658132Y2488046D01*
X7658105Y2488127D01*
X7657007Y2487738D01*
X7656951Y2487896D01*
X7656901Y2488065D01*
X7658017Y2488395D01*
X7657990Y2488478D01*
X7656884Y2488086D01*
X7516319Y2885034D01*
X7516329Y2885038D01*
X7516320Y2885061D01*
X7516319Y2885061D01*
X7516252Y2885222D01*
X7516196Y2885381D01*
X7516178Y2885401D01*
X7355031Y3274456D01*
X7356328Y3274993D01*
X7356290Y3275079D01*
X7355030Y3274482D01*
X7354958Y3274634D01*
X7354890Y3274797D01*
X7356177Y3275334D01*
X7356139Y3275422D01*
X7354870Y3274817D01*
X7173575Y3654898D01*
X7174605Y3655389D01*
X7174399Y3655792D01*
X7173397Y3655248D01*
X6972460Y4025328D01*
X6973699Y4026001D01*
X6973650Y4026085D01*
X6972456Y4025356D01*
X6972362Y4025510D01*
X6972284Y4025653D01*
X6973513Y4026324D01*
X6973466Y4026406D01*
X6972264Y4025669D01*
X6752242Y4384715D01*
X6753249Y4385332D01*
X6753000Y4385713D01*
X6752028Y4385045D01*
X6513509Y4732097D01*
X6514544Y4732808D01*
X6514491Y4732881D01*
X6513502Y4732123D01*
X6513397Y4732260D01*
X6513300Y4732401D01*
X6514326Y4733107D01*
X6514273Y4733180D01*
X6513277Y4732416D01*
X6256916Y5066503D01*
X6257823Y5067199D01*
X6257538Y5067552D01*
X6256668Y5066809D01*
X5983189Y5387022D01*
X5984121Y5387818D01*
X5984062Y5387884D01*
X5983180Y5387046D01*
X5983066Y5387166D01*
X5982950Y5387302D01*
X5983876Y5388092D01*
X5983815Y5388160D01*
X5982925Y5387315D01*
X5693054Y5692776D01*
X5693923Y5693601D01*
X5693600Y5693924D01*
X5692775Y5693055D01*
X5387313Y5982928D01*
X5388140Y5983800D01*
X5388076Y5983857D01*
X5387301Y5982951D01*
X5387169Y5983064D01*
X5387046Y5983181D01*
X5387867Y5984044D01*
X5387800Y5984105D01*
X5387020Y5983191D01*
X5066812Y6256669D01*
X5067556Y6257540D01*
X5067203Y6257825D01*
X5066506Y6256917D01*
X4732413Y6513280D01*
X4733213Y6514323D01*
X4733140Y6514376D01*
X4732399Y6513301D01*
X4732267Y6513392D01*
X4732122Y6513503D01*
X4732914Y6514537D01*
X4732838Y6514592D01*
X4732094Y6513510D01*
X4385045Y6752028D01*
X4385697Y6752977D01*
X4385625Y6753024D01*
X4385029Y6752050D01*
X4384882Y6752140D01*
X4384741Y6752237D01*
X4385389Y6753179D01*
X4385317Y6753226D01*
X4384715Y6752243D01*
X4025670Y6972264D01*
X4026376Y6973417D01*
X4026296Y6973463D01*
X4025652Y6972286D01*
X4025495Y6972372D01*
X4025355Y6972457D01*
X4026051Y6973604D01*
X4025975Y6973648D01*
X4025330Y6972461D01*
X3655250Y7173396D01*
X3655796Y7174402D01*
X3655718Y7174442D01*
X3655231Y7173417D01*
X3655069Y7173494D01*
X3654924Y7173573D01*
X3655468Y7174571D01*
X3655391Y7174610D01*
X3654898Y7173576D01*
X3274815Y7354872D01*
X3275333Y7355959D01*
X3274915Y7356143D01*
X3274455Y7355032D01*
X2885399Y7516179D01*
X2885935Y7517472D01*
X2885847Y7517507D01*
X2885381Y7516196D01*
X2885232Y7516249D01*
X2885060Y7516320D01*
X2885591Y7517607D01*
X2885499Y7517642D01*
X2885031Y7516320D01*
X2488085Y7656885D01*
X2488477Y7657991D01*
X2488394Y7658018D01*
X2488064Y7656902D01*
X2487895Y7656952D01*
X2487737Y7657008D01*
X2488126Y7658106D01*
X2488045Y7658133D01*
X2487711Y7657007D01*
X2083936Y7776610D01*
X2084293Y7777814D01*
X2084204Y7777838D01*
X2083914Y7776626D01*
X2083747Y7776666D01*
X2083582Y7776715D01*
X2083937Y7777909D01*
X2083848Y7777933D01*
X2083555Y7776712D01*
X1674088Y7875026D01*
X1674120Y7875160D01*
X1674088Y7875156D01*
X1674067Y7875040D01*
X1673909Y7875069D01*
X1673731Y7875112D01*
X1673697Y7875108D01*
X1259652Y7951842D01*
X1259862Y7952976D01*
X1259776Y7952989D01*
X1259627Y7951856D01*
X1259444Y7951880D01*
X1259288Y7951909D01*
X1259497Y7953033D01*
X1259414Y7953046D01*
X1259264Y7951904D01*
X841752Y8006871D01*
X841905Y8008036D01*
X841818Y8008045D01*
X841728Y8006883D01*
X841560Y8006896D01*
X841387Y8006919D01*
X841541Y8008074D01*
X841453Y8008083D01*
X841361Y8006912D01*
X421551Y8039954D01*
X421582Y8040347D01*
X421165Y8040275D01*
X421157Y8039975D01*
X196Y8050995D01*
X235Y8052473D01*
X137Y8052473D01*
X171Y8051005D01*
X0Y8051001D01*
X-172Y8051005D01*
X-138Y8052473D01*
X-236Y8052473D01*
X-197Y8050995D01*
X-421158Y8039975D01*
X-421167Y8040306D01*
X-421586Y8040389D01*
X-421552Y8039954D01*
X-841362Y8006912D01*
X-841363Y8006922D01*
X-841387Y8006919D01*
X-841388Y8006919D01*
X-841476Y8006907D01*
X-841765Y8006952D01*
X-841754Y8006871D01*
X-1259265Y7951904D01*
X-1259415Y7953046D01*
X-1259498Y7953033D01*
X-1259289Y7951909D01*
X-1259445Y7951880D01*
X-1259628Y7951856D01*
X-1259777Y7952989D01*
X-1259863Y7952976D01*
X-1259653Y7951842D01*
X-1673704Y7875108D01*
X-1673732Y7875112D01*
X-1673910Y7875069D01*
X-1674186Y7876210D01*
X-1674364Y7876171D01*
X-1674089Y7875026D01*
X-2083556Y7776712D01*
X-2083849Y7777933D01*
X-2083938Y7777909D01*
X-2083583Y7776715D01*
X-2083748Y7776666D01*
X-2083915Y7776626D01*
X-2084205Y7777838D01*
X-2084294Y7777814D01*
X-2083937Y7776610D01*
X-2487712Y7657007D01*
X-2488046Y7658133D01*
X-2488127Y7658106D01*
X-2487738Y7657008D01*
X-2487896Y7656952D01*
X-2488065Y7656902D01*
X-2488395Y7658018D01*
X-2488478Y7657991D01*
X-2488086Y7656885D01*
X-2885034Y7516320D01*
X-2885038Y7516330D01*
X-2885179Y7516273D01*
X-2885178Y7516271D01*
X-2885222Y7516253D01*
X-2885381Y7516197D01*
X-2885401Y7516179D01*
X-3274456Y7355032D01*
X-3274993Y7356329D01*
X-3275079Y7356291D01*
X-3274482Y7355031D01*
X-3274634Y7354959D01*
X-3274797Y7354891D01*
X-3275334Y7356178D01*
X-3275422Y7356140D01*
X-3274817Y7354871D01*
X-3654898Y7173576D01*
X-3655389Y7174606D01*
X-3655792Y7174400D01*
X-3655248Y7173398D01*
X-4025328Y6972461D01*
X-4026001Y6973700D01*
X-4026085Y6973651D01*
X-4025356Y6972457D01*
X-4025510Y6972363D01*
X-4025653Y6972285D01*
X-4026324Y6973514D01*
X-4026406Y6973467D01*
X-4025669Y6972265D01*
X-4384715Y6752243D01*
X-4385332Y6753250D01*
X-4385713Y6753001D01*
X-4385045Y6752029D01*
X-4732097Y6513510D01*
X-4732808Y6514545D01*
X-4732881Y6514492D01*
X-4732123Y6513503D01*
X-4732260Y6513398D01*
X-4732401Y6513301D01*
X-4733107Y6514327D01*
X-4733180Y6514274D01*
X-4732416Y6513278D01*
X-5066503Y6256917D01*
X-5067199Y6257824D01*
X-5067552Y6257539D01*
X-5066809Y6256669D01*
X-5387022Y5983190D01*
X-5387818Y5984122D01*
X-5387884Y5984063D01*
X-5387046Y5983181D01*
X-5387166Y5983067D01*
X-5387302Y5982951D01*
X-5388092Y5983877D01*
X-5388160Y5983816D01*
X-5387315Y5982926D01*
X-5692776Y5693055D01*
X-5693601Y5693924D01*
X-5693924Y5693601D01*
X-5693055Y5692776D01*
X-5982928Y5387314D01*
X-5983843Y5388182D01*
X-5983902Y5388117D01*
X-5982951Y5387302D01*
X-5983059Y5387176D01*
X-5983181Y5387047D01*
X-5984090Y5387907D01*
X-5984150Y5387840D01*
X-5983191Y5387021D01*
X-6256669Y5066809D01*
X-6257540Y5067553D01*
X-6257825Y5067200D01*
X-6256917Y5066503D01*
X-6513280Y4732414D01*
X-6514323Y4733214D01*
X-6514376Y4733141D01*
X-6513301Y4732400D01*
X-6513392Y4732268D01*
X-6513503Y4732123D01*
X-6514537Y4732915D01*
X-6514592Y4732839D01*
X-6513510Y4732095D01*
X-6752028Y4385046D01*
X-6752977Y4385698D01*
X-6753024Y4385626D01*
X-6752050Y4385030D01*
X-6752140Y4384883D01*
X-6752237Y4384742D01*
X-6753179Y4385390D01*
X-6753226Y4385318D01*
X-6752243Y4384716D01*
X-6972264Y4025671D01*
X-6973417Y4026377D01*
X-6973463Y4026297D01*
X-6972286Y4025653D01*
X-6972372Y4025496D01*
X-6972457Y4025356D01*
X-6973604Y4026052D01*
X-6973648Y4025976D01*
X-6972461Y4025331D01*
X-7173396Y3655251D01*
X-7174402Y3655797D01*
X-7174442Y3655719D01*
X-7173417Y3655232D01*
X-7173494Y3655070D01*
X-7173573Y3654925D01*
X-7174571Y3655469D01*
X-7174610Y3655392D01*
X-7173576Y3654899D01*
X-7354872Y3274816D01*
X-7356089Y3275397D01*
X-7356128Y3275310D01*
X-7354891Y3274797D01*
X-7354954Y3274645D01*
X-7355031Y3274483D01*
X-7356239Y3275057D01*
X-7356277Y3274972D01*
X-7355032Y3274456D01*
X-7516179Y2885400D01*
X-7517472Y2885936D01*
X-7517507Y2885848D01*
X-7516196Y2885382D01*
X-7516249Y2885233D01*
X-7516320Y2885061D01*
X-7517607Y2885592D01*
X-7517642Y2885500D01*
X-7516320Y2885032D01*
X-7656885Y2488086D01*
X-7657991Y2488478D01*
X-7658018Y2488395D01*
X-7656902Y2488065D01*
X-7656952Y2487896D01*
X-7657008Y2487738D01*
X-7658106Y2488127D01*
X-7658133Y2488046D01*
X-7657007Y2487712D01*
X-7776610Y2083937D01*
X-7777814Y2084294D01*
X-7777838Y2084205D01*
X-7776626Y2083915D01*
X-7776666Y2083748D01*
X-7776715Y2083583D01*
X-7777909Y2083938D01*
X-7777933Y2083849D01*
X-7776712Y2083556D01*
X-7875026Y1674089D01*
X-7875160Y1674121D01*
X-7875156Y1674089D01*
X-7875040Y1674068D01*
X-7875069Y1673910D01*
X-7875112Y1673732D01*
X-7875108Y1673698D01*
X-7951842Y1259653D01*
X-7952976Y1259863D01*
X-7952989Y1259777D01*
X-7951856Y1259628D01*
X-7951880Y1259445D01*
X-7951909Y1259289D01*
X-7953033Y1259498D01*
X-7953046Y1259415D01*
X-7951904Y1259265D01*
X-7999286Y899362D01*
X-8001104Y885556D01*
X-8029826Y820628D01*
X-8089092Y781537D01*
X-8126026Y776002D01*
X-11273000Y776002D01*
X-11341121Y796004D01*
X-11387614Y849660D01*
X-11399000Y902002D01*
X-11399000Y999882D01*
X-11398981Y999961D01*
X-11399000Y1000081D01*
X-11399000Y1000198D01*
X-11399030Y1000270D01*
X-11450408Y1324596D01*
X-11450420Y1324748D01*
X-11450438Y1324783D01*
X-11450444Y1324823D01*
X-11450528Y1324959D01*
X-11599593Y1617590D01*
X-11599654Y1617736D01*
X-11599682Y1617764D01*
X-11599700Y1617799D01*
X-11599817Y1617899D01*
X-11832070Y1850153D01*
X-11832170Y1850270D01*
X-11832205Y1850288D01*
X-11832233Y1850316D01*
X-11832379Y1850377D01*
X-12125015Y1999488D01*
X-12125148Y1999569D01*
X-12125187Y1999575D01*
X-12125222Y1999593D01*
X-12125376Y1999605D01*
X-12158175Y2004799D01*
X-12433109Y2048338D01*
X-12433110Y2048338D01*
X-12449813Y2050983D01*
X-12449962Y2051019D01*
X-12450001Y2051013D01*
X-12450040Y2051019D01*
X-12450189Y2050983D01*
X-12642719Y2020494D01*
X-12762161Y2001579D01*
X-12762163Y2001578D01*
X-12774624Y1999605D01*
X-12774778Y1999593D01*
X-12774813Y1999575D01*
X-12774852Y1999569D01*
X-12774984Y1999488D01*
X-13067621Y1850377D01*
X-13067767Y1850316D01*
X-13067795Y1850288D01*
X-13067830Y1850270D01*
X-13067930Y1850153D01*
X-13300183Y1617900D01*
X-13300301Y1617799D01*
X-13300319Y1617764D01*
X-13300347Y1617736D01*
X-13300408Y1617590D01*
X-13449474Y1324959D01*
X-13449558Y1324823D01*
X-13449564Y1324783D01*
X-13449582Y1324748D01*
X-13449594Y1324596D01*
X-13500970Y1000270D01*
X-13501000Y1000198D01*
X-13501000Y1000081D01*
X-13501019Y999961D01*
X-13501000Y999882D01*
X-13501000Y-999882D01*
X-13501019Y-999961D01*
X-15774500Y-999961D01*
X-15774500Y4600000D01*
X-15105682Y4600000D01*
X-15085044Y4443238D01*
X-15024536Y4297159D01*
X-14928282Y4171718D01*
X-14802841Y4075464D01*
X-14656762Y4014956D01*
X-14500000Y3994318D01*
X-14491812Y3995396D01*
X-14351426Y4013878D01*
X-14343238Y4014956D01*
X-14197159Y4075464D01*
X-14071718Y4171718D01*
X-13975464Y4297159D01*
X-13914956Y4443238D01*
X-13894318Y4600000D01*
X-13914956Y4756762D01*
X-13975464Y4902841D01*
X-14071718Y5028282D01*
X-14197159Y5124536D01*
X-14343238Y5185044D01*
X-14500000Y5205682D01*
X-14656762Y5185044D01*
X-14802841Y5124536D01*
X-14928282Y5028282D01*
X-15024536Y4902841D01*
X-15085044Y4756762D01*
X-15105682Y4600000D01*
X-15774500Y4600000D01*
X-15774500Y8008051D01*
X-841513Y8008051D01*
X-841364Y8006936D01*
X-841452Y8008058D01*
X-841513Y8008051D01*
X-15774500Y8008051D01*
X-15774500Y9986200D01*
X21670118Y9986200D01*
X21690756Y9829438D01*
X21751264Y9683359D01*
X21847518Y9557918D01*
X21972959Y9461664D01*
X22119038Y9401156D01*
X22275800Y9380518D01*
X22283988Y9381596D01*
X22424374Y9400078D01*
X22432562Y9401156D01*
X22578641Y9461664D01*
X22704082Y9557918D01*
X22800336Y9683359D01*
X22860844Y9829438D01*
X22881482Y9986200D01*
X22860844Y10142962D01*
X22800336Y10289041D01*
X22704082Y10414482D01*
X22697536Y10419505D01*
X22691691Y10425350D01*
X22693482Y10427141D01*
X22659128Y10474189D01*
X22651700Y10516813D01*
X22651700Y15557497D01*
X22671702Y15625618D01*
X22700996Y15657460D01*
X22722936Y15674295D01*
X22729482Y15679318D01*
X22825736Y15804759D01*
X22886244Y15950838D01*
X22906882Y16107600D01*
X22886244Y16264362D01*
X22825736Y16410441D01*
X22729482Y16535882D01*
X22604041Y16632136D01*
X22457962Y16692644D01*
X22301200Y16713282D01*
X22144438Y16692644D01*
X21998359Y16632136D01*
X21872918Y16535882D01*
X21776664Y16410441D01*
X21716156Y16264362D01*
X21695518Y16107600D01*
X21716156Y15950838D01*
X21776664Y15804759D01*
X21872918Y15679318D01*
X21879464Y15674295D01*
X21901404Y15657460D01*
X21943271Y15600122D01*
X21950700Y15557497D01*
X21950700Y10555793D01*
X21930698Y10487672D01*
X21901404Y10455830D01*
X21861682Y10425350D01*
X21847518Y10414482D01*
X21751264Y10289041D01*
X21690756Y10142962D01*
X21670118Y9986200D01*
X-15774500Y9986200D01*
X-15774500Y10926722D01*
X-15754498Y10994843D01*
X-15700842Y11041336D01*
X-15630568Y11051440D01*
X-15600283Y11043131D01*
X-15532262Y11014956D01*
X-15375500Y10994318D01*
X-15367312Y10995396D01*
X-15226926Y11013878D01*
X-15218738Y11014956D01*
X-15072659Y11075464D01*
X-14947218Y11171718D01*
X-14850964Y11297159D01*
X-14790456Y11443238D01*
X-14769818Y11600000D01*
X-14790456Y11756762D01*
X-14850964Y11902841D01*
X-14947218Y12028282D01*
X-15072659Y12124536D01*
X-15218738Y12185044D01*
X-15375500Y12205682D01*
X-15532262Y12185044D01*
X-15539891Y12181884D01*
X-15600282Y12156869D01*
X-15670871Y12149280D01*
X-15734358Y12181059D01*
X-15770586Y12242117D01*
X-15774500Y12273278D01*
X-15774500Y12380302D01*
X-15774020Y12391284D01*
X-15771698Y12417820D01*
X-15771698Y12417822D01*
X-15770737Y12428807D01*
X-15780488Y12465197D01*
X-15782868Y12475931D01*
X-15787498Y12502188D01*
X-15789412Y12513045D01*
X-15794924Y12522593D01*
X-15796117Y12525870D01*
X-15797594Y12529038D01*
X-15800447Y12539684D01*
X-15822058Y12570548D01*
X-15827962Y12579816D01*
X-15846806Y12612455D01*
X-15875677Y12636680D01*
X-15883782Y12644108D01*
X-17139635Y13899961D01*
X-8251019Y13899961D01*
X-8250983Y13899812D01*
X-8248474Y13883971D01*
X-8210348Y13643238D01*
X-8189813Y13513573D01*
X-8189801Y13513419D01*
X-8189783Y13513384D01*
X-8189777Y13513345D01*
X-8189695Y13513212D01*
X-8012177Y13164876D01*
X-8012116Y13164730D01*
X-8012088Y13164702D01*
X-8012070Y13164667D01*
X-8011953Y13164567D01*
X-8000402Y13153014D01*
X-8000402Y13153013D01*
X-7747648Y12900203D01*
X-7747646Y12900202D01*
X-7735460Y12888013D01*
X-7735360Y12887896D01*
X-7735325Y12887878D01*
X-7735297Y12887850D01*
X-7735150Y12887789D01*
X-7720690Y12880424D01*
X-7720690Y12880423D01*
X-7435396Y12735099D01*
X-7386752Y12710321D01*
X-7386621Y12710240D01*
X-7386582Y12710234D01*
X-7386547Y12710216D01*
X-7386394Y12710204D01*
X-7000188Y12649017D01*
X-7000039Y12648981D01*
X-7000000Y12648987D01*
X-6999961Y12648981D01*
X-6999812Y12649017D01*
X-6983926Y12651534D01*
X-6626533Y12708160D01*
X-6613607Y12710208D01*
X-6613455Y12710220D01*
X-6613420Y12710238D01*
X-6613380Y12710244D01*
X-6613244Y12710328D01*
X-6264851Y12887791D01*
X-6264704Y12887852D01*
X-6264676Y12887880D01*
X-6264641Y12887898D01*
X-6264541Y12888015D01*
X-5988048Y13164569D01*
X-5987931Y13164669D01*
X-5987913Y13164704D01*
X-5987885Y13164732D01*
X-5987824Y13164878D01*
X-5810305Y13513215D01*
X-5810224Y13513347D01*
X-5810218Y13513386D01*
X-5810200Y13513421D01*
X-5810188Y13513575D01*
X-5749017Y13899812D01*
X-5748981Y13899961D01*
X-5748987Y13900000D01*
X-5748981Y13900039D01*
X-5749017Y13900188D01*
X-5810188Y14286425D01*
X-5810200Y14286579D01*
X-5810218Y14286614D01*
X-5810224Y14286653D01*
X-5810305Y14286785D01*
X-5987824Y14635122D01*
X-5987885Y14635268D01*
X-5987913Y14635296D01*
X-5987931Y14635331D01*
X-5988048Y14635431D01*
X-6009374Y14656762D01*
X-6252353Y14899795D01*
X-6252355Y14899796D01*
X-6264541Y14911985D01*
X-6264641Y14912102D01*
X-6264676Y14912120D01*
X-6264704Y14912148D01*
X-6264851Y14912209D01*
X-6613244Y15089672D01*
X-6613380Y15089756D01*
X-6613420Y15089762D01*
X-6613455Y15089780D01*
X-6613607Y15089792D01*
X-6999812Y15150983D01*
X-6999961Y15151019D01*
X-7000000Y15151013D01*
X-7000039Y15151019D01*
X-7000188Y15150983D01*
X-7386394Y15089792D01*
X-7386547Y15089780D01*
X-7386582Y15089762D01*
X-7386621Y15089756D01*
X-7386752Y15089675D01*
X-7397935Y15083978D01*
X-7397937Y15083978D01*
X-7514632Y15024536D01*
X-7735150Y14912209D01*
X-7735297Y14912148D01*
X-7735325Y14912120D01*
X-7735360Y14912102D01*
X-7735460Y14911985D01*
X-7838030Y14809392D01*
X-7982999Y14664391D01*
X-8011953Y14635431D01*
X-8012070Y14635331D01*
X-8012088Y14635296D01*
X-8012116Y14635268D01*
X-8012177Y14635122D01*
X-8019589Y14620578D01*
X-8165002Y14335240D01*
X-8189695Y14286786D01*
X-8189777Y14286653D01*
X-8189783Y14286614D01*
X-8189801Y14286579D01*
X-8189813Y14286425D01*
X-8250983Y13900188D01*
X-8251019Y13900039D01*
X-8251013Y13900000D01*
X-8251019Y13899961D01*
X-17139635Y13899961D01*
X-17955889Y14716215D01*
X-17963316Y14724319D01*
X-17980459Y14744749D01*
X-17980458Y14744749D01*
X-17987545Y14753194D01*
X-17997094Y14758707D01*
X-18020185Y14772039D01*
X-18029456Y14777945D01*
X-18051285Y14793230D01*
X-18060316Y14799554D01*
X-18070966Y14802408D01*
X-18074134Y14803885D01*
X-18077410Y14805077D01*
X-18086955Y14810588D01*
X-18120699Y14816538D01*
X-18124058Y14817130D01*
X-18134785Y14819508D01*
X-18171193Y14829264D01*
X-18182178Y14828303D01*
X-18182180Y14828303D01*
X-18208728Y14825980D01*
X-18219710Y14825500D01*
X-23230714Y14825500D01*
X-23298835Y14845502D01*
X-23330677Y14874796D01*
X-23366695Y14921736D01*
X-23371718Y14928282D01*
X-23497159Y15024536D01*
X-23643238Y15085044D01*
X-23681300Y15090055D01*
X-23791812Y15104604D01*
X-23800000Y15105682D01*
X-23808188Y15104604D01*
X-23918699Y15090055D01*
X-23956762Y15085044D01*
X-24102841Y15024536D01*
X-24228282Y14928282D01*
X-24324536Y14802841D01*
X-24385044Y14656762D01*
X-24405682Y14500000D01*
X-29908500Y14500000D01*
X-29908500Y15602207D01*
X-29888498Y15670328D01*
X-29871595Y15691302D01*
X-29144059Y16418838D01*
X-29081747Y16452864D01*
X-29071415Y16454664D01*
X-28993238Y16464956D01*
X-28847159Y16525464D01*
X-28721718Y16621718D01*
X-28625464Y16747159D01*
X-28564956Y16893238D01*
X-28544318Y17050000D01*
X-28564956Y17206762D01*
X-28625464Y17352841D01*
X-28721718Y17478282D01*
X-28847159Y17574536D01*
X-28993238Y17635044D01*
X-29150000Y17655682D01*
X-29306762Y17635044D01*
X-29452841Y17574536D01*
X-29578282Y17478282D01*
X-29674536Y17352841D01*
X-29735044Y17206762D01*
X-29736122Y17198574D01*
X-29736122Y17198573D01*
X-29745335Y17128591D01*
X-29774057Y17063663D01*
X-29781162Y17055941D01*
X-30653350Y16183753D01*
X-30664439Y16173899D01*
X-30683709Y16158707D01*
X-30683711Y16158705D01*
X-30691110Y16152872D01*
X-30696465Y16145125D01*
X-30696466Y16145123D01*
X-30724455Y16104625D01*
X-30726750Y16101413D01*
X-30761634Y16054184D01*
X-30764027Y16047368D01*
X-30768131Y16041431D01*
X-30770971Y16032451D01*
X-30770972Y16032449D01*
X-30785818Y15985505D01*
X-30787071Y15981750D01*
X-30800605Y15943209D01*
X-30806519Y15926369D01*
X-30806801Y15919181D01*
X-30806812Y15919122D01*
X-30808980Y15912270D01*
X-30809500Y15905663D01*
X-30809500Y15852984D01*
X-30809597Y15848038D01*
X-30811838Y15791006D01*
X-30809954Y15783900D01*
X-30809500Y15775653D01*
X-30809500Y-6625901D01*
X-30829502Y-6694022D01*
X-30835537Y-6702605D01*
X-30883536Y-6765159D01*
X-30944044Y-6911238D01*
X-30964682Y-7068000D01*
X-39356259Y-7068000D01*
X-39413597Y-6758608D01*
X-39505913Y-6260475D01*
X-39506945Y-6253965D01*
X-39779479Y-4184291D01*
X-39780169Y-4177726D01*
X-39943944Y-2096684D01*
X-39944289Y-2090096D01*
X-39979748Y-735464D01*
X-39998914Y-3281D01*
X-39998914Y3301D01*
X-39998727Y10417D01*
X-39974157Y949072D01*
X-39944289Y2090100D01*
X-39943944Y2096688D01*
X-39780169Y4177731D01*
X-39779479Y4184296D01*
X-39506945Y6253974D01*
X-39505913Y6260484D01*
X-39373737Y6973700D01*
X-39125526Y8313035D01*
X-39124160Y8319458D01*
X-38876397Y9351426D01*
X-38636813Y10349325D01*
X-38635107Y10355692D01*
X-38042293Y12357227D01*
X-38040252Y12363508D01*
X-37756444Y13164876D01*
X-37343366Y14331254D01*
X-37341011Y14337390D01*
X-36542143Y16266080D01*
X-36539465Y16272095D01*
X-36477118Y16402811D01*
X-35640837Y18156168D01*
X-35637841Y18162049D01*
X-34641708Y19996612D01*
X-34638411Y20002322D01*
X-33547691Y21782244D01*
X-33544098Y21787777D01*
X-32361761Y23508100D01*
X-32357882Y23513439D01*
X-31087027Y25169568D01*
X-31082878Y25174691D01*
X-29727202Y26762027D01*
X-29727186Y26762046D01*
X-29722789Y26766928D01*
X-29004330Y27524064D01*
X-28285877Y28281193D01*
X-28281208Y28285862D01*
X-26766936Y29722782D01*
X-26766917Y29722799D01*
X-26762042Y29727190D01*
X-25982715Y30392779D01*
X-25174687Y31082881D01*
X-25169564Y31087030D01*
X-23513424Y32357895D01*
X-23508085Y32361774D01*
X-21787783Y33544096D01*
X-21782250Y33547689D01*
X-20002318Y34638415D01*
X-19996608Y34641712D01*
X-18162051Y35637837D01*
X-18156170Y35640833D01*
X-17564611Y35922983D01*
X-16272070Y36539473D01*
X-16266066Y36542146D01*
X-15044027Y37048319D01*
X-14337409Y37341002D01*
X-14331255Y37343365D01*
X-12363496Y38040254D01*
X-12357215Y38042294D01*
X-11915279Y38173187D01*
X-10355684Y38635107D01*
X-10349353Y38636803D01*
X-8319455Y39124160D01*
X-8313032Y39125526D01*
X-6933913Y39381110D01*
X-6260480Y39505913D01*
X-6253970Y39506945D01*
X-4184292Y39779479D01*
X-4177727Y39780169D01*
X-2096685Y39943944D01*
X-2090097Y39944289D01*
X-831672Y39977230D01*
X-3285Y39998914D01*
X3285Y39998914D01*
X907379Y39975245D01*
G37*
%TD.AperFunction*%
%TD*%
M02*
