%TF.GenerationSoftware,KiCad,Pcbnew,7.0.5.1-1-g8f565ef7f0-dirty-deb11*%
%TF.CreationDate,2023-07-01T18:37:16+00:00*%
%TF.ProjectId,USTTHUNDERMILLPCB03,55535454-4855-44e4-9445-524d494c4c50,rev?*%
%TF.SameCoordinates,Original*%
%TF.FileFunction,Legend,Top*%
%TF.FilePolarity,Positive*%
%FSLAX46Y46*%
G04 Gerber Fmt 4.6, Leading zero omitted, Abs format (unit mm)*
G04 Created by KiCad (PCBNEW 7.0.5.1-1-g8f565ef7f0-dirty-deb11) date 2023-07-01 18:37:16*
%MOMM*%
%LPD*%
G01*
G04 APERTURE LIST*
%ADD10C,0.300000*%
G04 APERTURE END LIST*
D10*
X30339304Y-11811904D02*
X31391685Y-11811904D01*
X31391685Y-11811904D02*
X31515495Y-11749999D01*
X31515495Y-11749999D02*
X31577400Y-11688094D01*
X31577400Y-11688094D02*
X31639304Y-11564285D01*
X31639304Y-11564285D02*
X31639304Y-11316666D01*
X31639304Y-11316666D02*
X31577400Y-11192856D01*
X31577400Y-11192856D02*
X31515495Y-11130951D01*
X31515495Y-11130951D02*
X31391685Y-11069047D01*
X31391685Y-11069047D02*
X30339304Y-11069047D01*
X31577400Y-10511903D02*
X31639304Y-10326189D01*
X31639304Y-10326189D02*
X31639304Y-10016665D01*
X31639304Y-10016665D02*
X31577400Y-9892856D01*
X31577400Y-9892856D02*
X31515495Y-9830951D01*
X31515495Y-9830951D02*
X31391685Y-9769046D01*
X31391685Y-9769046D02*
X31267876Y-9769046D01*
X31267876Y-9769046D02*
X31144066Y-9830951D01*
X31144066Y-9830951D02*
X31082161Y-9892856D01*
X31082161Y-9892856D02*
X31020257Y-10016665D01*
X31020257Y-10016665D02*
X30958352Y-10264284D01*
X30958352Y-10264284D02*
X30896447Y-10388094D01*
X30896447Y-10388094D02*
X30834542Y-10449999D01*
X30834542Y-10449999D02*
X30710733Y-10511903D01*
X30710733Y-10511903D02*
X30586923Y-10511903D01*
X30586923Y-10511903D02*
X30463114Y-10449999D01*
X30463114Y-10449999D02*
X30401209Y-10388094D01*
X30401209Y-10388094D02*
X30339304Y-10264284D01*
X30339304Y-10264284D02*
X30339304Y-9954761D01*
X30339304Y-9954761D02*
X30401209Y-9769046D01*
X30339304Y-9397618D02*
X30339304Y-8654761D01*
X31639304Y-9026189D02*
X30339304Y-9026189D01*
X30339304Y-8407142D02*
X30339304Y-7664285D01*
X31639304Y-8035713D02*
X30339304Y-8035713D01*
X31639304Y-7230952D02*
X30339304Y-7230952D01*
X30958352Y-7230952D02*
X30958352Y-6488095D01*
X31639304Y-6488095D02*
X30339304Y-6488095D01*
X30339304Y-5869047D02*
X31391685Y-5869047D01*
X31391685Y-5869047D02*
X31515495Y-5807142D01*
X31515495Y-5807142D02*
X31577400Y-5745237D01*
X31577400Y-5745237D02*
X31639304Y-5621428D01*
X31639304Y-5621428D02*
X31639304Y-5373809D01*
X31639304Y-5373809D02*
X31577400Y-5249999D01*
X31577400Y-5249999D02*
X31515495Y-5188094D01*
X31515495Y-5188094D02*
X31391685Y-5126190D01*
X31391685Y-5126190D02*
X30339304Y-5126190D01*
X31639304Y-4507142D02*
X30339304Y-4507142D01*
X30339304Y-4507142D02*
X31639304Y-3764285D01*
X31639304Y-3764285D02*
X30339304Y-3764285D01*
X31639304Y-3145237D02*
X30339304Y-3145237D01*
X30339304Y-3145237D02*
X30339304Y-2835713D01*
X30339304Y-2835713D02*
X30401209Y-2649999D01*
X30401209Y-2649999D02*
X30525019Y-2526189D01*
X30525019Y-2526189D02*
X30648828Y-2464284D01*
X30648828Y-2464284D02*
X30896447Y-2402380D01*
X30896447Y-2402380D02*
X31082161Y-2402380D01*
X31082161Y-2402380D02*
X31329780Y-2464284D01*
X31329780Y-2464284D02*
X31453590Y-2526189D01*
X31453590Y-2526189D02*
X31577400Y-2649999D01*
X31577400Y-2649999D02*
X31639304Y-2835713D01*
X31639304Y-2835713D02*
X31639304Y-3145237D01*
X30958352Y-1845237D02*
X30958352Y-1411903D01*
X31639304Y-1226189D02*
X31639304Y-1845237D01*
X31639304Y-1845237D02*
X30339304Y-1845237D01*
X30339304Y-1845237D02*
X30339304Y-1226189D01*
X31639304Y73810D02*
X31020257Y-359523D01*
X31639304Y-669047D02*
X30339304Y-669047D01*
X30339304Y-669047D02*
X30339304Y-173809D01*
X30339304Y-173809D02*
X30401209Y-49999D01*
X30401209Y-49999D02*
X30463114Y11906D01*
X30463114Y11906D02*
X30586923Y73810D01*
X30586923Y73810D02*
X30772638Y73810D01*
X30772638Y73810D02*
X30896447Y11906D01*
X30896447Y11906D02*
X30958352Y-49999D01*
X30958352Y-49999D02*
X31020257Y-173809D01*
X31020257Y-173809D02*
X31020257Y-669047D01*
X31639304Y630953D02*
X30339304Y630953D01*
X30339304Y630953D02*
X31267876Y1064287D01*
X31267876Y1064287D02*
X30339304Y1497620D01*
X30339304Y1497620D02*
X31639304Y1497620D01*
X31639304Y2116667D02*
X30339304Y2116667D01*
X31639304Y3354763D02*
X31639304Y2735715D01*
X31639304Y2735715D02*
X30339304Y2735715D01*
X31639304Y4407144D02*
X31639304Y3788096D01*
X31639304Y3788096D02*
X30339304Y3788096D01*
X31639304Y4840477D02*
X30339304Y4840477D01*
X30339304Y4840477D02*
X30339304Y5335715D01*
X30339304Y5335715D02*
X30401209Y5459525D01*
X30401209Y5459525D02*
X30463114Y5521430D01*
X30463114Y5521430D02*
X30586923Y5583334D01*
X30586923Y5583334D02*
X30772638Y5583334D01*
X30772638Y5583334D02*
X30896447Y5521430D01*
X30896447Y5521430D02*
X30958352Y5459525D01*
X30958352Y5459525D02*
X31020257Y5335715D01*
X31020257Y5335715D02*
X31020257Y4840477D01*
X31515495Y6883334D02*
X31577400Y6821430D01*
X31577400Y6821430D02*
X31639304Y6635715D01*
X31639304Y6635715D02*
X31639304Y6511906D01*
X31639304Y6511906D02*
X31577400Y6326192D01*
X31577400Y6326192D02*
X31453590Y6202382D01*
X31453590Y6202382D02*
X31329780Y6140477D01*
X31329780Y6140477D02*
X31082161Y6078573D01*
X31082161Y6078573D02*
X30896447Y6078573D01*
X30896447Y6078573D02*
X30648828Y6140477D01*
X30648828Y6140477D02*
X30525019Y6202382D01*
X30525019Y6202382D02*
X30401209Y6326192D01*
X30401209Y6326192D02*
X30339304Y6511906D01*
X30339304Y6511906D02*
X30339304Y6635715D01*
X30339304Y6635715D02*
X30401209Y6821430D01*
X30401209Y6821430D02*
X30463114Y6883334D01*
X30958352Y7873811D02*
X31020257Y8059525D01*
X31020257Y8059525D02*
X31082161Y8121430D01*
X31082161Y8121430D02*
X31205971Y8183334D01*
X31205971Y8183334D02*
X31391685Y8183334D01*
X31391685Y8183334D02*
X31515495Y8121430D01*
X31515495Y8121430D02*
X31577400Y8059525D01*
X31577400Y8059525D02*
X31639304Y7935715D01*
X31639304Y7935715D02*
X31639304Y7440477D01*
X31639304Y7440477D02*
X30339304Y7440477D01*
X30339304Y7440477D02*
X30339304Y7873811D01*
X30339304Y7873811D02*
X30401209Y7997620D01*
X30401209Y7997620D02*
X30463114Y8059525D01*
X30463114Y8059525D02*
X30586923Y8121430D01*
X30586923Y8121430D02*
X30710733Y8121430D01*
X30710733Y8121430D02*
X30834542Y8059525D01*
X30834542Y8059525D02*
X30896447Y7997620D01*
X30896447Y7997620D02*
X30958352Y7873811D01*
X30958352Y7873811D02*
X30958352Y7440477D01*
X30339304Y8988096D02*
X30339304Y9111906D01*
X30339304Y9111906D02*
X30401209Y9235715D01*
X30401209Y9235715D02*
X30463114Y9297620D01*
X30463114Y9297620D02*
X30586923Y9359525D01*
X30586923Y9359525D02*
X30834542Y9421430D01*
X30834542Y9421430D02*
X31144066Y9421430D01*
X31144066Y9421430D02*
X31391685Y9359525D01*
X31391685Y9359525D02*
X31515495Y9297620D01*
X31515495Y9297620D02*
X31577400Y9235715D01*
X31577400Y9235715D02*
X31639304Y9111906D01*
X31639304Y9111906D02*
X31639304Y8988096D01*
X31639304Y8988096D02*
X31577400Y8864287D01*
X31577400Y8864287D02*
X31515495Y8802382D01*
X31515495Y8802382D02*
X31391685Y8740477D01*
X31391685Y8740477D02*
X31144066Y8678573D01*
X31144066Y8678573D02*
X30834542Y8678573D01*
X30834542Y8678573D02*
X30586923Y8740477D01*
X30586923Y8740477D02*
X30463114Y8802382D01*
X30463114Y8802382D02*
X30401209Y8864287D01*
X30401209Y8864287D02*
X30339304Y8988096D01*
X30339304Y9854763D02*
X30339304Y10659525D01*
X30339304Y10659525D02*
X30834542Y10226191D01*
X30834542Y10226191D02*
X30834542Y10411906D01*
X30834542Y10411906D02*
X30896447Y10535715D01*
X30896447Y10535715D02*
X30958352Y10597620D01*
X30958352Y10597620D02*
X31082161Y10659525D01*
X31082161Y10659525D02*
X31391685Y10659525D01*
X31391685Y10659525D02*
X31515495Y10597620D01*
X31515495Y10597620D02*
X31577400Y10535715D01*
X31577400Y10535715D02*
X31639304Y10411906D01*
X31639304Y10411906D02*
X31639304Y10040477D01*
X31639304Y10040477D02*
X31577400Y9916668D01*
X31577400Y9916668D02*
X31515495Y9854763D01*
X31267876Y11154763D02*
X31267876Y11773810D01*
X31639304Y11030953D02*
X30339304Y11464286D01*
X30339304Y11464286D02*
X31639304Y11897620D01*
X32556114Y-2278570D02*
X32494209Y-2216666D01*
X32494209Y-2216666D02*
X32432304Y-2092856D01*
X32432304Y-2092856D02*
X32432304Y-1783332D01*
X32432304Y-1783332D02*
X32494209Y-1659523D01*
X32494209Y-1659523D02*
X32556114Y-1597618D01*
X32556114Y-1597618D02*
X32679923Y-1535713D01*
X32679923Y-1535713D02*
X32803733Y-1535713D01*
X32803733Y-1535713D02*
X32989447Y-1597618D01*
X32989447Y-1597618D02*
X33732304Y-2340475D01*
X33732304Y-2340475D02*
X33732304Y-1535713D01*
X32432304Y-730952D02*
X32432304Y-607142D01*
X32432304Y-607142D02*
X32494209Y-483333D01*
X32494209Y-483333D02*
X32556114Y-421428D01*
X32556114Y-421428D02*
X32679923Y-359523D01*
X32679923Y-359523D02*
X32927542Y-297618D01*
X32927542Y-297618D02*
X33237066Y-297618D01*
X33237066Y-297618D02*
X33484685Y-359523D01*
X33484685Y-359523D02*
X33608495Y-421428D01*
X33608495Y-421428D02*
X33670400Y-483333D01*
X33670400Y-483333D02*
X33732304Y-607142D01*
X33732304Y-607142D02*
X33732304Y-730952D01*
X33732304Y-730952D02*
X33670400Y-854761D01*
X33670400Y-854761D02*
X33608495Y-916666D01*
X33608495Y-916666D02*
X33484685Y-978571D01*
X33484685Y-978571D02*
X33237066Y-1040475D01*
X33237066Y-1040475D02*
X32927542Y-1040475D01*
X32927542Y-1040475D02*
X32679923Y-978571D01*
X32679923Y-978571D02*
X32556114Y-916666D01*
X32556114Y-916666D02*
X32494209Y-854761D01*
X32494209Y-854761D02*
X32432304Y-730952D01*
X32556114Y197620D02*
X32494209Y259524D01*
X32494209Y259524D02*
X32432304Y383334D01*
X32432304Y383334D02*
X32432304Y692858D01*
X32432304Y692858D02*
X32494209Y816667D01*
X32494209Y816667D02*
X32556114Y878572D01*
X32556114Y878572D02*
X32679923Y940477D01*
X32679923Y940477D02*
X32803733Y940477D01*
X32803733Y940477D02*
X32989447Y878572D01*
X32989447Y878572D02*
X33732304Y135715D01*
X33732304Y135715D02*
X33732304Y940477D01*
X32432304Y1373810D02*
X32432304Y2178572D01*
X32432304Y2178572D02*
X32927542Y1745238D01*
X32927542Y1745238D02*
X32927542Y1930953D01*
X32927542Y1930953D02*
X32989447Y2054762D01*
X32989447Y2054762D02*
X33051352Y2116667D01*
X33051352Y2116667D02*
X33175161Y2178572D01*
X33175161Y2178572D02*
X33484685Y2178572D01*
X33484685Y2178572D02*
X33608495Y2116667D01*
X33608495Y2116667D02*
X33670400Y2054762D01*
X33670400Y2054762D02*
X33732304Y1930953D01*
X33732304Y1930953D02*
X33732304Y1559524D01*
X33732304Y1559524D02*
X33670400Y1435715D01*
X33670400Y1435715D02*
X33608495Y1373810D01*
M02*
