  0
SECTION
  2
HEADER
  9
$ANGBASE
  50
0.0
  9
$ANGDIR
  70
1
  9
$MEASUREMENT
  70
0
  0
ENDSEC
  0
SECTION
  2
TABLES
  0
TABLE
  2
LTYPE
  70
4
  0
LTYPE
  5
40F
  2
CONTINUOUS
  70
0
  3
Solid line
  72
65
  73
0
  40
0.0
  0
LTYPE
  5
410
  2
DASHDOT
 70
0
  3
Dash Dot ____ _ ____ _
 72
65
 73
4
 40
2.0
 49
1.25
 49
-0.25
 49
0.25
 49
-0.25
  0
LTYPE
  5
411
  2
DASHED
 70
0
  3
Dashed __ __ __ __ __
 72
65
 73
2
 40
0.75
 49
0.5
 49
-0.25
  0
LTYPE
  5
43B
  2
DOTTED
 70
0
  3
Dotted .  .  .  .
 72
65
 73
2
 40
0.2
 49
0.0
 49
-0.2
  0
ENDTAB
  0
TABLE
  2
STYLE
  70
4
  0
STYLE
  2
KICAD
  70
0
  40
0
  41
1
  42
1
  50
0
  71
0
  3
isocp.shx
  0
STYLE
  2
KICADB
  70
0
  40
0
  41
1
  42
1
  50
0
  71
0
  3
isocp.shx
  0
STYLE
  2
KICADI
  70
0
  40
0
  41
1
  42
1
  50
15
  71
0
  3
isocp.shx
  0
STYLE
  2
KICADBI
  70
0
  40
0
  41
1
  42
1
  50
15
  71
0
  3
isocp.shx
  0
ENDTAB
  0
TABLE
  2
LAYER
  70
1
  0
LAYER
  2
BLACK
  70
0
  62
7
  6
CONTINUOUS
  0
ENDTAB
  0
ENDSEC
  0
SECTION
  2
ENTITIES
0
LINE
8
BLACK
6
CONTINUOUS
10
0.0364979
20
0.85919
11
0.0729301
21
0.856866
0
LINE
8
BLACK
6
CONTINUOUS
10
0.0729301
20
0.856866
11
0.109231
21
0.852999
0
LINE
8
BLACK
6
CONTINUOUS
10
0.109231
20
0.852999
11
0.145335
21
0.847595
0
LINE
8
BLACK
6
CONTINUOUS
10
0.145335
20
0.847595
11
0.181177
21
0.840663
0
LINE
8
BLACK
6
CONTINUOUS
10
0.181177
20
0.840663
11
0.216692
21
0.832216
0
LINE
8
BLACK
6
CONTINUOUS
10
0.216692
20
0.832216
11
0.251817
21
0.822269
0
LINE
8
BLACK
6
CONTINUOUS
10
0.251817
20
0.822269
11
0.286488
21
0.810841
0
LINE
8
BLACK
6
CONTINUOUS
10
0.286488
20
0.810841
11
0.320643
21
0.797952
0
LINE
8
BLACK
6
CONTINUOUS
10
0.320643
20
0.797952
11
0.35422
21
0.783624
0
LINE
8
BLACK
6
CONTINUOUS
10
0.35422
20
0.783624
11
0.387159
21
0.767884
0
LINE
8
BLACK
6
CONTINUOUS
10
0.387159
20
0.767884
11
0.4194
21
0.750761
0
LINE
8
BLACK
6
CONTINUOUS
10
0.4194
20
0.750761
11
0.450886
21
0.732285
0
LINE
8
BLACK
6
CONTINUOUS
10
0.450886
20
0.732285
11
0.481558
21
0.712489
0
LINE
8
BLACK
6
CONTINUOUS
10
0.481558
20
0.712489
11
0.511363
21
0.691409
0
LINE
8
BLACK
6
CONTINUOUS
10
0.511363
20
0.691409
11
0.540247
21
0.669083
0
LINE
8
BLACK
6
CONTINUOUS
10
0.540247
20
0.669083
11
0.568157
21
0.645551
0
LINE
8
BLACK
6
CONTINUOUS
10
0.568157
20
0.645551
11
0.595043
21
0.620857
0
LINE
8
BLACK
6
CONTINUOUS
10
0.595043
20
0.620857
11
0.620857
21
0.595043
0
LINE
8
BLACK
6
CONTINUOUS
10
0.620857
20
0.595043
11
0.645551
21
0.568157
0
LINE
8
BLACK
6
CONTINUOUS
10
0.645551
20
0.568157
11
0.669083
21
0.540247
0
LINE
8
BLACK
6
CONTINUOUS
10
0.669083
20
0.540247
11
0.691409
21
0.511363
0
LINE
8
BLACK
6
CONTINUOUS
10
0.691409
20
0.511363
11
0.712489
21
0.481558
0
LINE
8
BLACK
6
CONTINUOUS
10
0.712489
20
0.481558
11
0.732285
21
0.450886
0
LINE
8
BLACK
6
CONTINUOUS
10
0.732285
20
0.450886
11
0.750761
21
0.4194
0
LINE
8
BLACK
6
CONTINUOUS
10
0.750761
20
0.4194
11
0.767884
21
0.387159
0
LINE
8
BLACK
6
CONTINUOUS
10
0.767884
20
0.387159
11
0.783624
21
0.35422
0
LINE
8
BLACK
6
CONTINUOUS
10
0.783624
20
0.35422
11
0.797952
21
0.320643
0
LINE
8
BLACK
6
CONTINUOUS
10
0.797952
20
0.320643
11
0.810841
21
0.286488
0
LINE
8
BLACK
6
CONTINUOUS
10
0.810841
20
0.286488
11
0.822269
21
0.251817
0
LINE
8
BLACK
6
CONTINUOUS
10
0.822269
20
0.251817
11
0.832216
21
0.216692
0
LINE
8
BLACK
6
CONTINUOUS
10
0.832216
20
0.216692
11
0.840663
21
0.181177
0
LINE
8
BLACK
6
CONTINUOUS
10
0.840663
20
0.181177
11
0.847595
21
0.145335
0
LINE
8
BLACK
6
CONTINUOUS
10
0.847595
20
0.145335
11
0.852999
21
0.109231
0
LINE
8
BLACK
6
CONTINUOUS
10
0.852999
20
0.109231
11
0.856866
21
0.0729301
0
LINE
8
BLACK
6
CONTINUOUS
10
0.856866
20
0.0729301
11
0.85919
21
0.0364979
0
LINE
8
BLACK
6
CONTINUOUS
10
0.85919
20
0.0364979
11
0.859964
21
0
0
LINE
8
BLACK
6
CONTINUOUS
10
0.859964
20
0
11
0.85919
21
-0.0364979
0
LINE
8
BLACK
6
CONTINUOUS
10
0.85919
20
-0.0364979
11
0.856866
21
-0.0729301
0
LINE
8
BLACK
6
CONTINUOUS
10
0.856866
20
-0.0729301
11
0.852999
21
-0.109231
0
LINE
8
BLACK
6
CONTINUOUS
10
0.852999
20
-0.109231
11
0.847595
21
-0.145335
0
LINE
8
BLACK
6
CONTINUOUS
10
0.847595
20
-0.145335
11
0.840663
21
-0.181177
0
LINE
8
BLACK
6
CONTINUOUS
10
0.840663
20
-0.181177
11
0.832216
21
-0.216692
0
LINE
8
BLACK
6
CONTINUOUS
10
0.832216
20
-0.216692
11
0.822269
21
-0.251817
0
LINE
8
BLACK
6
CONTINUOUS
10
0.822269
20
-0.251817
11
0.810841
21
-0.286488
0
LINE
8
BLACK
6
CONTINUOUS
10
0.810841
20
-0.286488
11
0.797952
21
-0.320643
0
LINE
8
BLACK
6
CONTINUOUS
10
0.797952
20
-0.320643
11
0.783624
21
-0.35422
0
LINE
8
BLACK
6
CONTINUOUS
10
0.783624
20
-0.35422
11
0.767884
21
-0.387159
0
LINE
8
BLACK
6
CONTINUOUS
10
0.767884
20
-0.387159
11
0.750761
21
-0.4194
0
LINE
8
BLACK
6
CONTINUOUS
10
0.750761
20
-0.4194
11
0.732285
21
-0.450886
0
LINE
8
BLACK
6
CONTINUOUS
10
0.732285
20
-0.450886
11
0.712489
21
-0.481558
0
LINE
8
BLACK
6
CONTINUOUS
10
0.712489
20
-0.481558
11
0.691409
21
-0.511363
0
LINE
8
BLACK
6
CONTINUOUS
10
0.691409
20
-0.511363
11
0.669083
21
-0.540247
0
LINE
8
BLACK
6
CONTINUOUS
10
0.669083
20
-0.540247
11
0.645551
21
-0.568157
0
LINE
8
BLACK
6
CONTINUOUS
10
0.645551
20
-0.568157
11
0.620857
21
-0.595043
0
LINE
8
BLACK
6
CONTINUOUS
10
0.620857
20
-0.595043
11
0.595043
21
-0.620857
0
LINE
8
BLACK
6
CONTINUOUS
10
0.595043
20
-0.620857
11
0.568157
21
-0.645551
0
LINE
8
BLACK
6
CONTINUOUS
10
0.568157
20
-0.645551
11
0.540247
21
-0.669083
0
LINE
8
BLACK
6
CONTINUOUS
10
0.540247
20
-0.669083
11
0.511363
21
-0.691409
0
LINE
8
BLACK
6
CONTINUOUS
10
0.511363
20
-0.691409
11
0.481558
21
-0.712489
0
LINE
8
BLACK
6
CONTINUOUS
10
0.481558
20
-0.712489
11
0.450886
21
-0.732285
0
LINE
8
BLACK
6
CONTINUOUS
10
0.450886
20
-0.732285
11
0.4194
21
-0.750761
0
LINE
8
BLACK
6
CONTINUOUS
10
0.4194
20
-0.750761
11
0.387159
21
-0.767884
0
LINE
8
BLACK
6
CONTINUOUS
10
0.387159
20
-0.767884
11
0.35422
21
-0.783624
0
LINE
8
BLACK
6
CONTINUOUS
10
0.35422
20
-0.783624
11
0.320643
21
-0.797952
0
LINE
8
BLACK
6
CONTINUOUS
10
0.320643
20
-0.797952
11
0.286488
21
-0.810841
0
LINE
8
BLACK
6
CONTINUOUS
10
0.286488
20
-0.810841
11
0.251817
21
-0.822269
0
LINE
8
BLACK
6
CONTINUOUS
10
0.251817
20
-0.822269
11
0.216692
21
-0.832216
0
LINE
8
BLACK
6
CONTINUOUS
10
0.216692
20
-0.832216
11
0.181177
21
-0.840663
0
LINE
8
BLACK
6
CONTINUOUS
10
0.181177
20
-0.840663
11
0.145335
21
-0.847595
0
LINE
8
BLACK
6
CONTINUOUS
10
0.145335
20
-0.847595
11
0.109231
21
-0.852999
0
LINE
8
BLACK
6
CONTINUOUS
10
0.109231
20
-0.852999
11
0.0729301
21
-0.856866
0
LINE
8
BLACK
6
CONTINUOUS
10
0.0729301
20
-0.856866
11
0.0364979
21
-0.85919
0
LINE
8
BLACK
6
CONTINUOUS
10
0.0364979
20
-0.85919
11
0
21
-0.859964
0
LINE
8
BLACK
6
CONTINUOUS
10
0
20
-0.859964
11
-0.0364979
21
-0.85919
0
LINE
8
BLACK
6
CONTINUOUS
10
-0.0364979
20
-0.85919
11
-0.0729301
21
-0.856866
0
LINE
8
BLACK
6
CONTINUOUS
10
-0.0729301
20
-0.856866
11
-0.109231
21
-0.852999
0
LINE
8
BLACK
6
CONTINUOUS
10
-0.109231
20
-0.852999
11
-0.145335
21
-0.847595
0
LINE
8
BLACK
6
CONTINUOUS
10
-0.145335
20
-0.847595
11
-0.181177
21
-0.840663
0
LINE
8
BLACK
6
CONTINUOUS
10
-0.181177
20
-0.840663
11
-0.216692
21
-0.832216
0
LINE
8
BLACK
6
CONTINUOUS
10
-0.216692
20
-0.832216
11
-0.251817
21
-0.822269
0
LINE
8
BLACK
6
CONTINUOUS
10
-0.251817
20
-0.822269
11
-0.286488
21
-0.810841
0
LINE
8
BLACK
6
CONTINUOUS
10
-0.286488
20
-0.810841
11
-0.320643
21
-0.797952
0
LINE
8
BLACK
6
CONTINUOUS
10
-0.320643
20
-0.797952
11
-0.35422
21
-0.783624
0
LINE
8
BLACK
6
CONTINUOUS
10
-0.35422
20
-0.783624
11
-0.387159
21
-0.767884
0
LINE
8
BLACK
6
CONTINUOUS
10
-0.387159
20
-0.767884
11
-0.4194
21
-0.750761
0
LINE
8
BLACK
6
CONTINUOUS
10
-0.4194
20
-0.750761
11
-0.450886
21
-0.732285
0
LINE
8
BLACK
6
CONTINUOUS
10
-0.450886
20
-0.732285
11
-0.481558
21
-0.712489
0
LINE
8
BLACK
6
CONTINUOUS
10
-0.481558
20
-0.712489
11
-0.511363
21
-0.691409
0
LINE
8
BLACK
6
CONTINUOUS
10
-0.511363
20
-0.691409
11
-0.540247
21
-0.669083
0
LINE
8
BLACK
6
CONTINUOUS
10
-0.540247
20
-0.669083
11
-0.568157
21
-0.645551
0
LINE
8
BLACK
6
CONTINUOUS
10
-0.568157
20
-0.645551
11
-0.595043
21
-0.620857
0
LINE
8
BLACK
6
CONTINUOUS
10
-0.595043
20
-0.620857
11
-0.620857
21
-0.595043
0
LINE
8
BLACK
6
CONTINUOUS
10
-0.620857
20
-0.595043
11
-0.645551
21
-0.568157
0
LINE
8
BLACK
6
CONTINUOUS
10
-0.645551
20
-0.568157
11
-0.669083
21
-0.540247
0
LINE
8
BLACK
6
CONTINUOUS
10
-0.669083
20
-0.540247
11
-0.691409
21
-0.511363
0
LINE
8
BLACK
6
CONTINUOUS
10
-0.691409
20
-0.511363
11
-0.712489
21
-0.481558
0
LINE
8
BLACK
6
CONTINUOUS
10
-0.712489
20
-0.481558
11
-0.732285
21
-0.450886
0
LINE
8
BLACK
6
CONTINUOUS
10
-0.732285
20
-0.450886
11
-0.750761
21
-0.4194
0
LINE
8
BLACK
6
CONTINUOUS
10
-0.750761
20
-0.4194
11
-0.767884
21
-0.387159
0
LINE
8
BLACK
6
CONTINUOUS
10
-0.767884
20
-0.387159
11
-0.783624
21
-0.35422
0
LINE
8
BLACK
6
CONTINUOUS
10
-0.783624
20
-0.35422
11
-0.797952
21
-0.320643
0
LINE
8
BLACK
6
CONTINUOUS
10
-0.797952
20
-0.320643
11
-0.810841
21
-0.286488
0
LINE
8
BLACK
6
CONTINUOUS
10
-0.810841
20
-0.286488
11
-0.822269
21
-0.251817
0
LINE
8
BLACK
6
CONTINUOUS
10
-0.822269
20
-0.251817
11
-0.832216
21
-0.216692
0
LINE
8
BLACK
6
CONTINUOUS
10
-0.832216
20
-0.216692
11
-0.840663
21
-0.181177
0
LINE
8
BLACK
6
CONTINUOUS
10
-0.840663
20
-0.181177
11
-0.847595
21
-0.145335
0
LINE
8
BLACK
6
CONTINUOUS
10
-0.847595
20
-0.145335
11
-0.852999
21
-0.109231
0
LINE
8
BLACK
6
CONTINUOUS
10
-0.852999
20
-0.109231
11
-0.856866
21
-0.0729301
0
LINE
8
BLACK
6
CONTINUOUS
10
-0.856866
20
-0.0729301
11
-0.85919
21
-0.0364979
0
LINE
8
BLACK
6
CONTINUOUS
10
-0.85919
20
-0.0364979
11
-0.859964
21
0
0
LINE
8
BLACK
6
CONTINUOUS
10
-0.859964
20
0
11
-0.85919
21
0.0364979
0
LINE
8
BLACK
6
CONTINUOUS
10
-0.85919
20
0.0364979
11
-0.856866
21
0.0729301
0
LINE
8
BLACK
6
CONTINUOUS
10
-0.856866
20
0.0729301
11
-0.852999
21
0.109231
0
LINE
8
BLACK
6
CONTINUOUS
10
-0.852999
20
0.109231
11
-0.847595
21
0.145335
0
LINE
8
BLACK
6
CONTINUOUS
10
-0.847595
20
0.145335
11
-0.840663
21
0.181177
0
LINE
8
BLACK
6
CONTINUOUS
10
-0.840663
20
0.181177
11
-0.832216
21
0.216692
0
LINE
8
BLACK
6
CONTINUOUS
10
-0.832216
20
0.216692
11
-0.822269
21
0.251817
0
LINE
8
BLACK
6
CONTINUOUS
10
-0.822269
20
0.251817
11
-0.810841
21
0.286488
0
LINE
8
BLACK
6
CONTINUOUS
10
-0.810841
20
0.286488
11
-0.797952
21
0.320643
0
LINE
8
BLACK
6
CONTINUOUS
10
-0.797952
20
0.320643
11
-0.783624
21
0.35422
0
LINE
8
BLACK
6
CONTINUOUS
10
-0.783624
20
0.35422
11
-0.767884
21
0.387159
0
LINE
8
BLACK
6
CONTINUOUS
10
-0.767884
20
0.387159
11
-0.750761
21
0.4194
0
LINE
8
BLACK
6
CONTINUOUS
10
-0.750761
20
0.4194
11
-0.732285
21
0.450886
0
LINE
8
BLACK
6
CONTINUOUS
10
-0.732285
20
0.450886
11
-0.712489
21
0.481558
0
LINE
8
BLACK
6
CONTINUOUS
10
-0.712489
20
0.481558
11
-0.691409
21
0.511363
0
LINE
8
BLACK
6
CONTINUOUS
10
-0.691409
20
0.511363
11
-0.669083
21
0.540247
0
LINE
8
BLACK
6
CONTINUOUS
10
-0.669083
20
0.540247
11
-0.645551
21
0.568157
0
LINE
8
BLACK
6
CONTINUOUS
10
-0.645551
20
0.568157
11
-0.620857
21
0.595043
0
LINE
8
BLACK
6
CONTINUOUS
10
-0.620857
20
0.595043
11
-0.595043
21
0.620857
0
LINE
8
BLACK
6
CONTINUOUS
10
-0.595043
20
0.620857
11
-0.568157
21
0.645551
0
LINE
8
BLACK
6
CONTINUOUS
10
-0.568157
20
0.645551
11
-0.540247
21
0.669083
0
LINE
8
BLACK
6
CONTINUOUS
10
-0.540247
20
0.669083
11
-0.511363
21
0.691409
0
LINE
8
BLACK
6
CONTINUOUS
10
-0.511363
20
0.691409
11
-0.481558
21
0.712489
0
LINE
8
BLACK
6
CONTINUOUS
10
-0.481558
20
0.712489
11
-0.450886
21
0.732285
0
LINE
8
BLACK
6
CONTINUOUS
10
-0.450886
20
0.732285
11
-0.4194
21
0.750761
0
LINE
8
BLACK
6
CONTINUOUS
10
-0.4194
20
0.750761
11
-0.387159
21
0.767884
0
LINE
8
BLACK
6
CONTINUOUS
10
-0.387159
20
0.767884
11
-0.35422
21
0.783624
0
LINE
8
BLACK
6
CONTINUOUS
10
-0.35422
20
0.783624
11
-0.320643
21
0.797952
0
LINE
8
BLACK
6
CONTINUOUS
10
-0.320643
20
0.797952
11
-0.286488
21
0.810841
0
LINE
8
BLACK
6
CONTINUOUS
10
-0.286488
20
0.810841
11
-0.251817
21
0.822269
0
LINE
8
BLACK
6
CONTINUOUS
10
-0.251817
20
0.822269
11
-0.216692
21
0.832216
0
LINE
8
BLACK
6
CONTINUOUS
10
-0.216692
20
0.832216
11
-0.181177
21
0.840663
0
LINE
8
BLACK
6
CONTINUOUS
10
-0.181177
20
0.840663
11
-0.145335
21
0.847595
0
LINE
8
BLACK
6
CONTINUOUS
10
-0.145335
20
0.847595
11
-0.109231
21
0.852999
0
LINE
8
BLACK
6
CONTINUOUS
10
-0.109231
20
0.852999
11
-0.0729301
21
0.856866
0
LINE
8
BLACK
6
CONTINUOUS
10
-0.0729301
20
0.856866
11
-0.0364979
21
0.85919
0
LINE
8
BLACK
6
CONTINUOUS
10
-0.0364979
20
0.85919
11
0
21
0.859964
0
LINE
8
BLACK
6
CONTINUOUS
10
0
20
0.859964
11
0.0364979
21
0.85919
0
LINE
8
BLACK
6
CONTINUOUS
10
-0.853466
20
-0.036752
11
-0.851094
21
-0.073436
0
LINE
8
BLACK
6
CONTINUOUS
10
-0.851094
20
-0.073436
11
-0.847147
21
-0.109984
0
LINE
8
BLACK
6
CONTINUOUS
10
-0.847147
20
-0.109984
11
-0.841631
21
-0.146328
0
LINE
8
BLACK
6
CONTINUOUS
10
-0.841631
20
-0.146328
11
-0.834556
21
-0.182402
0
LINE
8
BLACK
6
CONTINUOUS
10
-0.834556
20
-0.182402
11
-0.825936
21
-0.218137
0
LINE
8
BLACK
6
CONTINUOUS
10
-0.825936
20
-0.218137
11
-0.815787
21
-0.253469
0
LINE
8
BLACK
6
CONTINUOUS
10
-0.815787
20
-0.253469
11
-0.804127
21
-0.288331
0
LINE
8
BLACK
6
CONTINUOUS
10
-0.804127
20
-0.288331
11
-0.790977
21
-0.32266
0
LINE
8
BLACK
6
CONTINUOUS
10
-0.790977
20
-0.32266
11
-0.776364
21
-0.35639
0
LINE
8
BLACK
6
CONTINUOUS
10
-0.776364
20
-0.35639
11
-0.760312
21
-0.389461
0
LINE
8
BLACK
6
CONTINUOUS
10
-0.760312
20
-0.389461
11
-0.742853
21
-0.421811
0
LINE
8
BLACK
6
CONTINUOUS
10
-0.742853
20
-0.421811
11
-0.724017
21
-0.45338
0
LINE
8
BLACK
6
CONTINUOUS
10
-0.724017
20
-0.45338
11
-0.703842
21
-0.484109
0
LINE
8
BLACK
6
CONTINUOUS
10
-0.703842
20
-0.484109
11
-0.682363
21
-0.513941
0
LINE
8
BLACK
6
CONTINUOUS
10
-0.682363
20
-0.513941
11
-0.65962
21
-0.542822
0
LINE
8
BLACK
6
CONTINUOUS
10
-0.65962
20
-0.542822
11
-0.635656
21
-0.570698
0
LINE
8
BLACK
6
CONTINUOUS
10
-0.635656
20
-0.570698
11
-0.610514
21
-0.597517
0
LINE
8
BLACK
6
CONTINUOUS
10
-0.610514
20
-0.597517
11
-0.584243
21
-0.623229
0
LINE
8
BLACK
6
CONTINUOUS
10
-0.584243
20
-0.623229
11
-0.556889
21
-0.647788
0
LINE
8
BLACK
6
CONTINUOUS
10
-0.556889
20
-0.647788
11
-0.528504
21
-0.671147
0
LINE
8
BLACK
6
CONTINUOUS
10
-0.528504
20
-0.671147
11
-0.499141
21
-0.693263
0
LINE
8
BLACK
6
CONTINUOUS
10
-0.499141
20
-0.693263
11
-0.468853
21
-0.714095
0
LINE
8
BLACK
6
CONTINUOUS
10
-0.468853
20
-0.714095
11
-0.437697
21
-0.733605
0
LINE
8
BLACK
6
CONTINUOUS
10
-0.437697
20
-0.733605
11
-0.40573
21
-0.751756
0
LINE
8
BLACK
6
CONTINUOUS
10
-0.40573
20
-0.751756
11
-0.373012
21
-0.768516
0
LINE
8
BLACK
6
CONTINUOUS
10
-0.373012
20
-0.768516
11
-0.339604
21
-0.783852
0
LINE
8
BLACK
6
CONTINUOUS
10
-0.339604
20
-0.783852
11
-0.305566
21
-0.797737
0
LINE
8
BLACK
6
CONTINUOUS
10
-0.305566
20
-0.797737
11
-0.270963
21
-0.810144
0
LINE
8
BLACK
6
CONTINUOUS
10
-0.270963
20
-0.810144
11
-0.235858
21
-0.821051
0
LINE
8
BLACK
6
CONTINUOUS
10
-0.235858
20
-0.821051
11
-0.200316
21
-0.830438
0
LINE
8
BLACK
6
CONTINUOUS
10
-0.200316
20
-0.830438
11
-0.164403
21
-0.838288
0
LINE
8
BLACK
6
CONTINUOUS
10
-0.164403
20
-0.838288
11
-0.128186
21
-0.844584
0
LINE
8
BLACK
6
CONTINUOUS
10
-0.128186
20
-0.844584
11
-0.0917312
21
-0.849317
0
LINE
8
BLACK
6
CONTINUOUS
10
-0.0917312
20
-0.849317
11
-0.0551068
21
-0.852477
0
LINE
8
BLACK
6
CONTINUOUS
10
-0.0551068
20
-0.852477
11
-0.0183803
21
-0.854059
0
LINE
8
BLACK
6
CONTINUOUS
10
-0.0183803
20
-0.854059
11
0.0183803
21
-0.854059
0
LINE
8
BLACK
6
CONTINUOUS
10
0.0183803
20
-0.854059
11
0.0551068
21
-0.852477
0
LINE
8
BLACK
6
CONTINUOUS
10
0.0551068
20
-0.852477
11
0.0917312
21
-0.849317
0
LINE
8
BLACK
6
CONTINUOUS
10
0.0917312
20
-0.849317
11
0.128186
21
-0.844584
0
LINE
8
BLACK
6
CONTINUOUS
10
0.128186
20
-0.844584
11
0.164403
21
-0.838288
0
LINE
8
BLACK
6
CONTINUOUS
10
0.164403
20
-0.838288
11
0.200316
21
-0.830438
0
LINE
8
BLACK
6
CONTINUOUS
10
0.200316
20
-0.830438
11
0.235858
21
-0.821051
0
LINE
8
BLACK
6
CONTINUOUS
10
0.235858
20
-0.821051
11
0.270963
21
-0.810144
0
LINE
8
BLACK
6
CONTINUOUS
10
0.270963
20
-0.810144
11
0.305566
21
-0.797737
0
LINE
8
BLACK
6
CONTINUOUS
10
0.305566
20
-0.797737
11
0.339604
21
-0.783852
0
LINE
8
BLACK
6
CONTINUOUS
10
0.339604
20
-0.783852
11
0.373012
21
-0.768516
0
LINE
8
BLACK
6
CONTINUOUS
10
0.373012
20
-0.768516
11
0.40573
21
-0.751756
0
LINE
8
BLACK
6
CONTINUOUS
10
0.40573
20
-0.751756
11
0.437697
21
-0.733605
0
LINE
8
BLACK
6
CONTINUOUS
10
0.437697
20
-0.733605
11
0.468853
21
-0.714095
0
LINE
8
BLACK
6
CONTINUOUS
10
0.468853
20
-0.714095
11
0.499141
21
-0.693263
0
LINE
8
BLACK
6
CONTINUOUS
10
0.499141
20
-0.693263
11
0.528504
21
-0.671147
0
LINE
8
BLACK
6
CONTINUOUS
10
0.528504
20
-0.671147
11
0.556889
21
-0.647788
0
LINE
8
BLACK
6
CONTINUOUS
10
0.556889
20
-0.647788
11
0.584243
21
-0.623229
0
LINE
8
BLACK
6
CONTINUOUS
10
0.584243
20
-0.623229
11
0.610514
21
-0.597517
0
LINE
8
BLACK
6
CONTINUOUS
10
0.610514
20
-0.597517
11
0.635656
21
-0.570698
0
LINE
8
BLACK
6
CONTINUOUS
10
0.635656
20
-0.570698
11
0.65962
21
-0.542822
0
LINE
8
BLACK
6
CONTINUOUS
10
0.65962
20
-0.542822
11
0.682363
21
-0.513941
0
LINE
8
BLACK
6
CONTINUOUS
10
0.682363
20
-0.513941
11
0.703842
21
-0.484109
0
LINE
8
BLACK
6
CONTINUOUS
10
0.703842
20
-0.484109
11
0.724017
21
-0.45338
0
LINE
8
BLACK
6
CONTINUOUS
10
0.724017
20
-0.45338
11
0.742853
21
-0.421811
0
LINE
8
BLACK
6
CONTINUOUS
10
0.742853
20
-0.421811
11
0.760312
21
-0.389461
0
LINE
8
BLACK
6
CONTINUOUS
10
0.760312
20
-0.389461
11
0.776364
21
-0.35639
0
LINE
8
BLACK
6
CONTINUOUS
10
0.776364
20
-0.35639
11
0.790977
21
-0.32266
0
LINE
8
BLACK
6
CONTINUOUS
10
0.790977
20
-0.32266
11
0.804127
21
-0.288331
0
LINE
8
BLACK
6
CONTINUOUS
10
0.804127
20
-0.288331
11
0.815787
21
-0.253469
0
LINE
8
BLACK
6
CONTINUOUS
10
0.815787
20
-0.253469
11
0.825936
21
-0.218137
0
LINE
8
BLACK
6
CONTINUOUS
10
0.825936
20
-0.218137
11
0.834556
21
-0.182402
0
LINE
8
BLACK
6
CONTINUOUS
10
0.834556
20
-0.182402
11
0.841631
21
-0.146328
0
LINE
8
BLACK
6
CONTINUOUS
10
0.841631
20
-0.146328
11
0.847147
21
-0.109984
0
LINE
8
BLACK
6
CONTINUOUS
10
0.847147
20
-0.109984
11
0.851094
21
-0.073436
0
LINE
8
BLACK
6
CONTINUOUS
10
0.851094
20
-0.073436
11
0.853466
21
-0.036752
0
LINE
8
BLACK
6
CONTINUOUS
10
0.853466
20
-0.036752
11
0.854257
21
0
0
LINE
8
BLACK
6
CONTINUOUS
10
0.854257
20
0
11
0.853466
21
0.036752
0
LINE
8
BLACK
6
CONTINUOUS
10
0.853466
20
0.036752
11
0.851094
21
0.073436
0
LINE
8
BLACK
6
CONTINUOUS
10
0.851094
20
0.073436
11
0.847147
21
0.109984
0
LINE
8
BLACK
6
CONTINUOUS
10
0.847147
20
0.109984
11
0.841631
21
0.146328
0
LINE
8
BLACK
6
CONTINUOUS
10
0.841631
20
0.146328
11
0.834556
21
0.182402
0
LINE
8
BLACK
6
CONTINUOUS
10
0.834556
20
0.182402
11
0.825936
21
0.218137
0
LINE
8
BLACK
6
CONTINUOUS
10
0.825936
20
0.218137
11
0.815787
21
0.253469
0
LINE
8
BLACK
6
CONTINUOUS
10
0.815787
20
0.253469
11
0.804127
21
0.288331
0
LINE
8
BLACK
6
CONTINUOUS
10
0.804127
20
0.288331
11
0.790977
21
0.32266
0
LINE
8
BLACK
6
CONTINUOUS
10
0.790977
20
0.32266
11
0.776364
21
0.35639
0
LINE
8
BLACK
6
CONTINUOUS
10
0.776364
20
0.35639
11
0.760312
21
0.389461
0
LINE
8
BLACK
6
CONTINUOUS
10
0.760312
20
0.389461
11
0.742853
21
0.421811
0
LINE
8
BLACK
6
CONTINUOUS
10
0.742853
20
0.421811
11
0.724017
21
0.45338
0
LINE
8
BLACK
6
CONTINUOUS
10
0.724017
20
0.45338
11
0.703842
21
0.484109
0
LINE
8
BLACK
6
CONTINUOUS
10
0.703842
20
0.484109
11
0.682363
21
0.513941
0
LINE
8
BLACK
6
CONTINUOUS
10
0.682363
20
0.513941
11
0.65962
21
0.542822
0
LINE
8
BLACK
6
CONTINUOUS
10
0.65962
20
0.542822
11
0.635656
21
0.570698
0
LINE
8
BLACK
6
CONTINUOUS
10
0.635656
20
0.570698
11
0.610514
21
0.597517
0
LINE
8
BLACK
6
CONTINUOUS
10
0.610514
20
0.597517
11
0.584243
21
0.623229
0
LINE
8
BLACK
6
CONTINUOUS
10
0.584243
20
0.623229
11
0.556889
21
0.647788
0
LINE
8
BLACK
6
CONTINUOUS
10
0.556889
20
0.647788
11
0.528504
21
0.671147
0
LINE
8
BLACK
6
CONTINUOUS
10
0.528504
20
0.671147
11
0.499141
21
0.693263
0
LINE
8
BLACK
6
CONTINUOUS
10
0.499141
20
0.693263
11
0.468853
21
0.714095
0
LINE
8
BLACK
6
CONTINUOUS
10
0.468853
20
0.714095
11
0.437697
21
0.733605
0
LINE
8
BLACK
6
CONTINUOUS
10
0.437697
20
0.733605
11
0.40573
21
0.751756
0
LINE
8
BLACK
6
CONTINUOUS
10
0.40573
20
0.751756
11
0.373012
21
0.768516
0
LINE
8
BLACK
6
CONTINUOUS
10
0.373012
20
0.768516
11
0.339604
21
0.783852
0
LINE
8
BLACK
6
CONTINUOUS
10
0.339604
20
0.783852
11
0.305566
21
0.797737
0
LINE
8
BLACK
6
CONTINUOUS
10
0.305566
20
0.797737
11
0.270963
21
0.810144
0
LINE
8
BLACK
6
CONTINUOUS
10
0.270963
20
0.810144
11
0.235858
21
0.821051
0
LINE
8
BLACK
6
CONTINUOUS
10
0.235858
20
0.821051
11
0.200316
21
0.830438
0
LINE
8
BLACK
6
CONTINUOUS
10
0.200316
20
0.830438
11
0.164403
21
0.838288
0
LINE
8
BLACK
6
CONTINUOUS
10
0.164403
20
0.838288
11
0.128186
21
0.844584
0
LINE
8
BLACK
6
CONTINUOUS
10
0.128186
20
0.844584
11
0.0917312
21
0.849317
0
LINE
8
BLACK
6
CONTINUOUS
10
0.0917312
20
0.849317
11
0.0551068
21
0.852477
0
LINE
8
BLACK
6
CONTINUOUS
10
0.0551068
20
0.852477
11
0.0183803
21
0.854059
0
LINE
8
BLACK
6
CONTINUOUS
10
0.0183803
20
0.854059
11
-0.0183803
21
0.854059
0
LINE
8
BLACK
6
CONTINUOUS
10
-0.0183803
20
0.854059
11
-0.0551068
21
0.852477
0
LINE
8
BLACK
6
CONTINUOUS
10
-0.0551068
20
0.852477
11
-0.0917312
21
0.849317
0
LINE
8
BLACK
6
CONTINUOUS
10
-0.0917312
20
0.849317
11
-0.128186
21
0.844584
0
LINE
8
BLACK
6
CONTINUOUS
10
-0.128186
20
0.844584
11
-0.164403
21
0.838288
0
LINE
8
BLACK
6
CONTINUOUS
10
-0.164403
20
0.838288
11
-0.200316
21
0.830438
0
LINE
8
BLACK
6
CONTINUOUS
10
-0.200316
20
0.830438
11
-0.235858
21
0.821051
0
LINE
8
BLACK
6
CONTINUOUS
10
-0.235858
20
0.821051
11
-0.270963
21
0.810144
0
LINE
8
BLACK
6
CONTINUOUS
10
-0.270963
20
0.810144
11
-0.305566
21
0.797737
0
LINE
8
BLACK
6
CONTINUOUS
10
-0.305566
20
0.797737
11
-0.339604
21
0.783852
0
LINE
8
BLACK
6
CONTINUOUS
10
-0.339604
20
0.783852
11
-0.373012
21
0.768516
0
LINE
8
BLACK
6
CONTINUOUS
10
-0.373012
20
0.768516
11
-0.40573
21
0.751756
0
LINE
8
BLACK
6
CONTINUOUS
10
-0.40573
20
0.751756
11
-0.437697
21
0.733605
0
LINE
8
BLACK
6
CONTINUOUS
10
-0.437697
20
0.733605
11
-0.468853
21
0.714095
0
LINE
8
BLACK
6
CONTINUOUS
10
-0.468853
20
0.714095
11
-0.499141
21
0.693263
0
LINE
8
BLACK
6
CONTINUOUS
10
-0.499141
20
0.693263
11
-0.528504
21
0.671147
0
LINE
8
BLACK
6
CONTINUOUS
10
-0.528504
20
0.671147
11
-0.556889
21
0.647788
0
LINE
8
BLACK
6
CONTINUOUS
10
-0.556889
20
0.647788
11
-0.584243
21
0.623229
0
LINE
8
BLACK
6
CONTINUOUS
10
-0.584243
20
0.623229
11
-0.610514
21
0.597517
0
LINE
8
BLACK
6
CONTINUOUS
10
-0.610514
20
0.597517
11
-0.635656
21
0.570698
0
LINE
8
BLACK
6
CONTINUOUS
10
-0.635656
20
0.570698
11
-0.65962
21
0.542822
0
LINE
8
BLACK
6
CONTINUOUS
10
-0.65962
20
0.542822
11
-0.682363
21
0.513941
0
LINE
8
BLACK
6
CONTINUOUS
10
-0.682363
20
0.513941
11
-0.703842
21
0.484109
0
LINE
8
BLACK
6
CONTINUOUS
10
-0.703842
20
0.484109
11
-0.724017
21
0.45338
0
LINE
8
BLACK
6
CONTINUOUS
10
-0.724017
20
0.45338
11
-0.742853
21
0.421811
0
LINE
8
BLACK
6
CONTINUOUS
10
-0.742853
20
0.421811
11
-0.760312
21
0.389461
0
LINE
8
BLACK
6
CONTINUOUS
10
-0.760312
20
0.389461
11
-0.776364
21
0.35639
0
LINE
8
BLACK
6
CONTINUOUS
10
-0.776364
20
0.35639
11
-0.790977
21
0.32266
0
LINE
8
BLACK
6
CONTINUOUS
10
-0.790977
20
0.32266
11
-0.804127
21
0.288331
0
LINE
8
BLACK
6
CONTINUOUS
10
-0.804127
20
0.288331
11
-0.815787
21
0.253469
0
LINE
8
BLACK
6
CONTINUOUS
10
-0.815787
20
0.253469
11
-0.825936
21
0.218137
0
LINE
8
BLACK
6
CONTINUOUS
10
-0.825936
20
0.218137
11
-0.834556
21
0.182402
0
LINE
8
BLACK
6
CONTINUOUS
10
-0.834556
20
0.182402
11
-0.841631
21
0.146328
0
LINE
8
BLACK
6
CONTINUOUS
10
-0.841631
20
0.146328
11
-0.847147
21
0.109984
0
LINE
8
BLACK
6
CONTINUOUS
10
-0.847147
20
0.109984
11
-0.851094
21
0.073436
0
LINE
8
BLACK
6
CONTINUOUS
10
-0.851094
20
0.073436
11
-0.853466
21
0.036752
0
LINE
8
BLACK
6
CONTINUOUS
10
-0.853466
20
0.036752
11
-0.854257
21
0
0
LINE
8
BLACK
6
CONTINUOUS
10
-0.854257
20
0
11
-0.853466
21
-0.036752
0
LINE
8
BLACK
6
CONTINUOUS
10
0.753394
20
-0.736559
11
0.762465
21
-0.738736
0
LINE
8
BLACK
6
CONTINUOUS
10
0.762465
20
-0.738736
11
0.771084
21
-0.742306
0
LINE
8
BLACK
6
CONTINUOUS
10
0.771084
20
-0.742306
11
0.779038
21
-0.74718
0
LINE
8
BLACK
6
CONTINUOUS
10
0.779038
20
-0.74718
11
0.786131
21
-0.753239
0
LINE
8
BLACK
6
CONTINUOUS
10
0.786131
20
-0.753239
11
0.79219
21
-0.760332
0
LINE
8
BLACK
6
CONTINUOUS
10
0.79219
20
-0.760332
11
0.797064
21
-0.768286
0
LINE
8
BLACK
6
CONTINUOUS
10
0.797064
20
-0.768286
11
0.800634
21
-0.776905
0
LINE
8
BLACK
6
CONTINUOUS
10
0.800634
20
-0.776905
11
0.802811
21
-0.785976
0
LINE
8
BLACK
6
CONTINUOUS
10
0.802811
20
-0.785976
11
0.803543
21
-0.795276
0
LINE
8
BLACK
6
CONTINUOUS
10
0.803543
20
-0.795276
11
0.802811
21
-0.804575
0
LINE
8
BLACK
6
CONTINUOUS
10
0.802811
20
-0.804575
11
0.800634
21
-0.813646
0
LINE
8
BLACK
6
CONTINUOUS
10
0.800634
20
-0.813646
11
0.797064
21
-0.822265
0
LINE
8
BLACK
6
CONTINUOUS
10
0.797064
20
-0.822265
11
0.79219
21
-0.830219
0
LINE
8
BLACK
6
CONTINUOUS
10
0.79219
20
-0.830219
11
0.786131
21
-0.837312
0
LINE
8
BLACK
6
CONTINUOUS
10
0.786131
20
-0.837312
11
0.779038
21
-0.843371
0
LINE
8
BLACK
6
CONTINUOUS
10
0.779038
20
-0.843371
11
0.771084
21
-0.848245
0
LINE
8
BLACK
6
CONTINUOUS
10
0.771084
20
-0.848245
11
0.762465
21
-0.851815
0
LINE
8
BLACK
6
CONTINUOUS
10
0.762465
20
-0.851815
11
0.753394
21
-0.853992
0
LINE
8
BLACK
6
CONTINUOUS
10
0.753394
20
-0.853992
11
0.744094
21
-0.854724
0
LINE
8
BLACK
6
CONTINUOUS
10
0.744094
20
-0.854724
11
0.734795
21
-0.853992
0
LINE
8
BLACK
6
CONTINUOUS
10
0.734795
20
-0.853992
11
0.725724
21
-0.851815
0
LINE
8
BLACK
6
CONTINUOUS
10
0.725724
20
-0.851815
11
0.717105
21
-0.848245
0
LINE
8
BLACK
6
CONTINUOUS
10
0.717105
20
-0.848245
11
0.709151
21
-0.843371
0
LINE
8
BLACK
6
CONTINUOUS
10
0.709151
20
-0.843371
11
0.702058
21
-0.837312
0
LINE
8
BLACK
6
CONTINUOUS
10
0.702058
20
-0.837312
11
0.695999
21
-0.830219
0
LINE
8
BLACK
6
CONTINUOUS
10
0.695999
20
-0.830219
11
0.691125
21
-0.822265
0
LINE
8
BLACK
6
CONTINUOUS
10
0.691125
20
-0.822265
11
0.687555
21
-0.813646
0
LINE
8
BLACK
6
CONTINUOUS
10
0.687555
20
-0.813646
11
0.685378
21
-0.804575
0
LINE
8
BLACK
6
CONTINUOUS
10
0.685378
20
-0.804575
11
0.684646
21
-0.795276
0
LINE
8
BLACK
6
CONTINUOUS
10
0.684646
20
-0.795276
11
0.685378
21
-0.785976
0
LINE
8
BLACK
6
CONTINUOUS
10
0.685378
20
-0.785976
11
0.687555
21
-0.776905
0
LINE
8
BLACK
6
CONTINUOUS
10
0.687555
20
-0.776905
11
0.691125
21
-0.768286
0
LINE
8
BLACK
6
CONTINUOUS
10
0.691125
20
-0.768286
11
0.695999
21
-0.760332
0
LINE
8
BLACK
6
CONTINUOUS
10
0.695999
20
-0.760332
11
0.702058
21
-0.753239
0
LINE
8
BLACK
6
CONTINUOUS
10
0.702058
20
-0.753239
11
0.709151
21
-0.74718
0
LINE
8
BLACK
6
CONTINUOUS
10
0.709151
20
-0.74718
11
0.717105
21
-0.742306
0
LINE
8
BLACK
6
CONTINUOUS
10
0.717105
20
-0.742306
11
0.725724
21
-0.738736
0
LINE
8
BLACK
6
CONTINUOUS
10
0.725724
20
-0.738736
11
0.734795
21
-0.736559
0
LINE
8
BLACK
6
CONTINUOUS
10
0.734795
20
-0.736559
11
0.744094
21
-0.735827
0
LINE
8
BLACK
6
CONTINUOUS
10
0.744094
20
-0.735827
11
0.753394
21
-0.736559
0
LINE
8
BLACK
6
CONTINUOUS
10
0.689931
20
-0.804314
11
0.692158
21
-0.813105
0
LINE
8
BLACK
6
CONTINUOUS
10
0.692158
20
-0.813105
11
0.695801
21
-0.821411
0
LINE
8
BLACK
6
CONTINUOUS
10
0.695801
20
-0.821411
11
0.700761
21
-0.829003
0
LINE
8
BLACK
6
CONTINUOUS
10
0.700761
20
-0.829003
11
0.706904
21
-0.835676
0
LINE
8
BLACK
6
CONTINUOUS
10
0.706904
20
-0.835676
11
0.71406
21
-0.841246
0
LINE
8
BLACK
6
CONTINUOUS
10
0.71406
20
-0.841246
11
0.722037
21
-0.845563
0
LINE
8
BLACK
6
CONTINUOUS
10
0.722037
20
-0.845563
11
0.730614
21
-0.848507
0
LINE
8
BLACK
6
CONTINUOUS
10
0.730614
20
-0.848507
11
0.73956
21
-0.85
0
LINE
8
BLACK
6
CONTINUOUS
10
0.73956
20
-0.85
11
0.748629
21
-0.85
0
LINE
8
BLACK
6
CONTINUOUS
10
0.748629
20
-0.85
11
0.757575
21
-0.848507
0
LINE
8
BLACK
6
CONTINUOUS
10
0.757575
20
-0.848507
11
0.766152
21
-0.845563
0
LINE
8
BLACK
6
CONTINUOUS
10
0.766152
20
-0.845563
11
0.774129
21
-0.841246
0
LINE
8
BLACK
6
CONTINUOUS
10
0.774129
20
-0.841246
11
0.781285
21
-0.835676
0
LINE
8
BLACK
6
CONTINUOUS
10
0.781285
20
-0.835676
11
0.787428
21
-0.829003
0
LINE
8
BLACK
6
CONTINUOUS
10
0.787428
20
-0.829003
11
0.792388
21
-0.821411
0
LINE
8
BLACK
6
CONTINUOUS
10
0.792388
20
-0.821411
11
0.796031
21
-0.813105
0
LINE
8
BLACK
6
CONTINUOUS
10
0.796031
20
-0.813105
11
0.798258
21
-0.804314
0
LINE
8
BLACK
6
CONTINUOUS
10
0.798258
20
-0.804314
11
0.799006
21
-0.795276
0
LINE
8
BLACK
6
CONTINUOUS
10
0.799006
20
-0.795276
11
0.798258
21
-0.786237
0
LINE
8
BLACK
6
CONTINUOUS
10
0.798258
20
-0.786237
11
0.796031
21
-0.777446
0
LINE
8
BLACK
6
CONTINUOUS
10
0.796031
20
-0.777446
11
0.792388
21
-0.76914
0
LINE
8
BLACK
6
CONTINUOUS
10
0.792388
20
-0.76914
11
0.787428
21
-0.761548
0
LINE
8
BLACK
6
CONTINUOUS
10
0.787428
20
-0.761548
11
0.781285
21
-0.754876
0
LINE
8
BLACK
6
CONTINUOUS
10
0.781285
20
-0.754876
11
0.774129
21
-0.749305
0
LINE
8
BLACK
6
CONTINUOUS
10
0.774129
20
-0.749305
11
0.766152
21
-0.744989
0
LINE
8
BLACK
6
CONTINUOUS
10
0.766152
20
-0.744989
11
0.757575
21
-0.742044
0
LINE
8
BLACK
6
CONTINUOUS
10
0.757575
20
-0.742044
11
0.748629
21
-0.740551
0
LINE
8
BLACK
6
CONTINUOUS
10
0.748629
20
-0.740551
11
0.73956
21
-0.740551
0
LINE
8
BLACK
6
CONTINUOUS
10
0.73956
20
-0.740551
11
0.730614
21
-0.742044
0
LINE
8
BLACK
6
CONTINUOUS
10
0.730614
20
-0.742044
11
0.722037
21
-0.744989
0
LINE
8
BLACK
6
CONTINUOUS
10
0.722037
20
-0.744989
11
0.71406
21
-0.749305
0
LINE
8
BLACK
6
CONTINUOUS
10
0.71406
20
-0.749305
11
0.706904
21
-0.754876
0
LINE
8
BLACK
6
CONTINUOUS
10
0.706904
20
-0.754876
11
0.700761
21
-0.761548
0
LINE
8
BLACK
6
CONTINUOUS
10
0.700761
20
-0.761548
11
0.695801
21
-0.76914
0
LINE
8
BLACK
6
CONTINUOUS
10
0.695801
20
-0.76914
11
0.692158
21
-0.777446
0
LINE
8
BLACK
6
CONTINUOUS
10
0.692158
20
-0.777446
11
0.689931
21
-0.786237
0
LINE
8
BLACK
6
CONTINUOUS
10
0.689931
20
-0.786237
11
0.689183
21
-0.795276
0
LINE
8
BLACK
6
CONTINUOUS
10
0.689183
20
-0.795276
11
0.689931
21
-0.804314
0
LINE
8
BLACK
6
CONTINUOUS
10
0.849904
20
-0.7671
11
0.850039
21
-0.767214
0
LINE
8
BLACK
6
CONTINUOUS
10
0.850039
20
-0.767214
11
0.850214
21
-0.767234
0
LINE
8
BLACK
6
CONTINUOUS
10
0.850214
20
-0.767234
11
0.853964
21
-0.769109
0
LINE
8
BLACK
6
CONTINUOUS
10
0.853964
20
-0.769109
11
0.854673
21
-0.769634
0
LINE
8
BLACK
6
CONTINUOUS
10
0.854673
20
-0.769634
11
0.854731
21
-0.769662
0
LINE
8
BLACK
6
CONTINUOUS
10
0.854731
20
-0.769662
11
0.856606
21
-0.771536
0
LINE
8
BLACK
6
CONTINUOUS
10
0.856606
20
-0.771536
11
0.857194
21
-0.772376
0
LINE
8
BLACK
6
CONTINUOUS
10
0.857194
20
-0.772376
11
0.85737
21
-0.774389
0
LINE
8
BLACK
6
CONTINUOUS
10
0.85737
20
-0.774389
11
0.856212
21
-0.776043
0
LINE
8
BLACK
6
CONTINUOUS
10
0.856212
20
-0.776043
11
0.854261
21
-0.776566
0
LINE
8
BLACK
6
CONTINUOUS
10
0.854261
20
-0.776566
11
0.85243
21
-0.775712
0
LINE
8
BLACK
6
CONTINUOUS
10
0.85243
20
-0.775712
11
0.850894
21
-0.774176
0
LINE
8
BLACK
6
CONTINUOUS
10
0.850894
20
-0.774176
11
0.848197
21
-0.772828
0
LINE
8
BLACK
6
CONTINUOUS
10
0.848197
20
-0.772828
11
0.840217
21
-0.772828
0
LINE
8
BLACK
6
CONTINUOUS
10
0.840217
20
-0.772828
11
0.83752
21
-0.774176
0
LINE
8
BLACK
6
CONTINUOUS
10
0.83752
20
-0.774176
11
0.836322
21
-0.775373
0
LINE
8
BLACK
6
CONTINUOUS
10
0.836322
20
-0.775373
11
0.834974
21
-0.778071
0
LINE
8
BLACK
6
CONTINUOUS
10
0.834974
20
-0.778071
11
0.834974
21
-0.780644
0
LINE
8
BLACK
6
CONTINUOUS
10
0.834974
20
-0.780644
11
0.836477
21
-0.785153
0
LINE
8
BLACK
6
CONTINUOUS
10
0.836477
20
-0.785153
11
0.858481
21
-0.807157
0
LINE
8
BLACK
6
CONTINUOUS
10
0.858481
20
-0.807157
11
0.858851
21
-0.807685
0
LINE
8
BLACK
6
CONTINUOUS
10
0.858851
20
-0.807685
11
0.85895
21
-0.807768
0
LINE
8
BLACK
6
CONTINUOUS
10
0.85895
20
-0.807768
11
0.858964
21
-0.807847
0
LINE
8
BLACK
6
CONTINUOUS
10
0.858964
20
-0.807847
11
0.859069
21
-0.807997
0
LINE
8
BLACK
6
CONTINUOUS
10
0.859069
20
-0.807997
11
0.859146
21
-0.808883
0
LINE
8
BLACK
6
CONTINUOUS
10
0.859146
20
-0.808883
11
0.859301
21
-0.809758
0
LINE
8
BLACK
6
CONTINUOUS
10
0.859301
20
-0.809758
11
0.859233
21
-0.809875
0
LINE
8
BLACK
6
CONTINUOUS
10
0.859233
20
-0.809875
11
0.859245
21
-0.810009
0
LINE
8
BLACK
6
CONTINUOUS
10
0.859245
20
-0.810009
11
0.858735
21
-0.810737
0
LINE
8
BLACK
6
CONTINUOUS
10
0.858735
20
-0.810737
11
0.858291
21
-0.811507
0
LINE
8
BLACK
6
CONTINUOUS
10
0.858291
20
-0.811507
11
0.858164
21
-0.811553
0
LINE
8
BLACK
6
CONTINUOUS
10
0.858164
20
-0.811553
11
0.858087
21
-0.811664
0
LINE
8
BLACK
6
CONTINUOUS
10
0.858087
20
-0.811664
11
0.857228
21
-0.811894
0
LINE
8
BLACK
6
CONTINUOUS
10
0.857228
20
-0.811894
11
0.856393
21
-0.812198
0
LINE
8
BLACK
6
CONTINUOUS
10
0.856393
20
-0.812198
11
0.832021
21
-0.812198
0
LINE
8
BLACK
6
CONTINUOUS
10
0.832021
20
-0.812198
11
0.831011
21
-0.81202
0
LINE
8
BLACK
6
CONTINUOUS
10
0.831011
20
-0.81202
11
0.829464
21
-0.810721
0
LINE
8
BLACK
6
CONTINUOUS
10
0.829464
20
-0.810721
11
0.829113
21
-0.808732
0
LINE
8
BLACK
6
CONTINUOUS
10
0.829113
20
-0.808732
11
0.830123
21
-0.806983
0
LINE
8
BLACK
6
CONTINUOUS
10
0.830123
20
-0.806983
11
0.832021
21
-0.806292
0
LINE
8
BLACK
6
CONTINUOUS
10
0.832021
20
-0.806292
11
0.849264
21
-0.806292
0
LINE
8
BLACK
6
CONTINUOUS
10
0.849264
20
-0.806292
11
0.831808
21
-0.788836
0
LINE
8
BLACK
6
CONTINUOUS
10
0.831808
20
-0.788836
11
0.83122
21
-0.787996
0
LINE
8
BLACK
6
CONTINUOUS
10
0.83122
20
-0.787996
11
0.831204
21
-0.78782
0
LINE
8
BLACK
6
CONTINUOUS
10
0.831204
20
-0.78782
11
0.831095
21
-0.787681
0
LINE
8
BLACK
6
CONTINUOUS
10
0.831095
20
-0.787681
11
0.82922
21
-0.782057
0
LINE
8
BLACK
6
CONTINUOUS
10
0.82922
20
-0.782057
11
0.82909
21
-0.781184
0
LINE
8
BLACK
6
CONTINUOUS
10
0.82909
20
-0.781184
11
0.829068
21
-0.781123
0
LINE
8
BLACK
6
CONTINUOUS
10
0.829068
20
-0.781123
11
0.829068
21
-0.777374
0
LINE
8
BLACK
6
CONTINUOUS
10
0.829068
20
-0.777374
11
0.829246
21
-0.776364
0
LINE
8
BLACK
6
CONTINUOUS
10
0.829246
20
-0.776364
11
0.82936
21
-0.776229
0
LINE
8
BLACK
6
CONTINUOUS
10
0.82936
20
-0.776229
11
0.82938
21
-0.776053
0
LINE
8
BLACK
6
CONTINUOUS
10
0.82938
20
-0.776053
11
0.831255
21
-0.772304
0
LINE
8
BLACK
6
CONTINUOUS
10
0.831255
20
-0.772304
11
0.831781
21
-0.771595
0
LINE
8
BLACK
6
CONTINUOUS
10
0.831781
20
-0.771595
11
0.831808
21
-0.771536
0
LINE
8
BLACK
6
CONTINUOUS
10
0.831808
20
-0.771536
11
0.833683
21
-0.769662
0
LINE
8
BLACK
6
CONTINUOUS
10
0.833683
20
-0.769662
11
0.834406
21
-0.769155
0
LINE
8
BLACK
6
CONTINUOUS
10
0.834406
20
-0.769155
11
0.83445
21
-0.769109
0
LINE
8
BLACK
6
CONTINUOUS
10
0.83445
20
-0.769109
11
0.8382
21
-0.767234
0
LINE
8
BLACK
6
CONTINUOUS
10
0.8382
20
-0.767234
11
0.839182
21
-0.766941
0
LINE
8
BLACK
6
CONTINUOUS
10
0.839182
20
-0.766941
11
0.839354
21
-0.766982
0
LINE
8
BLACK
6
CONTINUOUS
10
0.839354
20
-0.766982
11
0.83952
21
-0.766922
0
LINE
8
BLACK
6
CONTINUOUS
10
0.83952
20
-0.766922
11
0.848894
21
-0.766922
0
LINE
8
BLACK
6
CONTINUOUS
10
0.848894
20
-0.766922
11
0.849904
21
-0.7671
0
LINE
8
BLACK
6
CONTINUOUS
10
0.873653
20
-0.767977
11
0.874344
21
-0.769875
0
LINE
8
BLACK
6
CONTINUOUS
10
0.874344
20
-0.769875
11
0.874344
21
-0.797517
0
LINE
8
BLACK
6
CONTINUOUS
10
0.874344
20
-0.797517
11
0.875847
21
-0.802025
0
LINE
8
BLACK
6
CONTINUOUS
10
0.875847
20
-0.802025
11
0.87861
21
-0.804789
0
LINE
8
BLACK
6
CONTINUOUS
10
0.87861
20
-0.804789
11
0.883119
21
-0.806292
0
LINE
8
BLACK
6
CONTINUOUS
10
0.883119
20
-0.806292
11
0.886389
21
-0.806292
0
LINE
8
BLACK
6
CONTINUOUS
10
0.886389
20
-0.806292
11
0.887399
21
-0.80647
0
LINE
8
BLACK
6
CONTINUOUS
10
0.887399
20
-0.80647
11
0.888946
21
-0.807768
0
LINE
8
BLACK
6
CONTINUOUS
10
0.888946
20
-0.807768
11
0.889297
21
-0.809758
0
LINE
8
BLACK
6
CONTINUOUS
10
0.889297
20
-0.809758
11
0.888287
21
-0.811507
0
LINE
8
BLACK
6
CONTINUOUS
10
0.888287
20
-0.811507
11
0.886389
21
-0.812198
0
LINE
8
BLACK
6
CONTINUOUS
10
0.886389
20
-0.812198
11
0.88264
21
-0.812198
0
LINE
8
BLACK
6
CONTINUOUS
10
0.88264
20
-0.812198
11
0.88177
21
-0.812044
0
LINE
8
BLACK
6
CONTINUOUS
10
0.88177
20
-0.812044
11
0.881706
21
-0.812046
0
LINE
8
BLACK
6
CONTINUOUS
10
0.881706
20
-0.812046
11
0.876082
21
-0.810171
0
LINE
8
BLACK
6
CONTINUOUS
10
0.876082
20
-0.810171
11
0.87518
21
-0.809683
0
LINE
8
BLACK
6
CONTINUOUS
10
0.87518
20
-0.809683
11
0.875087
21
-0.809533
0
LINE
8
BLACK
6
CONTINUOUS
10
0.875087
20
-0.809533
11
0.874927
21
-0.809458
0
LINE
8
BLACK
6
CONTINUOUS
10
0.874927
20
-0.809458
11
0.871178
21
-0.805708
0
LINE
8
BLACK
6
CONTINUOUS
10
0.871178
20
-0.805708
11
0.87059
21
-0.804868
0
LINE
8
BLACK
6
CONTINUOUS
10
0.87059
20
-0.804868
11
0.870574
21
-0.804692
0
LINE
8
BLACK
6
CONTINUOUS
10
0.870574
20
-0.804692
11
0.870465
21
-0.804554
0
LINE
8
BLACK
6
CONTINUOUS
10
0.870465
20
-0.804554
11
0.86859
21
-0.79893
0
LINE
8
BLACK
6
CONTINUOUS
10
0.86859
20
-0.79893
11
0.86846
21
-0.798057
0
LINE
8
BLACK
6
CONTINUOUS
10
0.86846
20
-0.798057
11
0.868438
21
-0.797996
0
LINE
8
BLACK
6
CONTINUOUS
10
0.868438
20
-0.797996
11
0.868438
21
-0.769875
0
LINE
8
BLACK
6
CONTINUOUS
10
0.868438
20
-0.769875
11
0.868616
21
-0.768865
0
LINE
8
BLACK
6
CONTINUOUS
10
0.868616
20
-0.768865
11
0.869915
21
-0.767318
0
LINE
8
BLACK
6
CONTINUOUS
10
0.869915
20
-0.767318
11
0.871904
21
-0.766967
0
LINE
8
BLACK
6
CONTINUOUS
10
0.871904
20
-0.766967
11
0.873653
21
-0.767977
0
LINE
8
BLACK
6
CONTINUOUS
10
0.759843
20
-0.605906
11
0.76568
21
-0.60648
0
LINE
8
BLACK
6
CONTINUOUS
10
0.76568
20
-0.60648
11
0.771293
21
-0.608183
0
LINE
8
BLACK
6
CONTINUOUS
10
0.771293
20
-0.608183
11
0.776466
21
-0.610948
0
LINE
8
BLACK
6
CONTINUOUS
10
0.776466
20
-0.610948
11
0.781
21
-0.614669
0
LINE
8
BLACK
6
CONTINUOUS
10
0.781
20
-0.614669
11
0.784721
21
-0.619203
0
LINE
8
BLACK
6
CONTINUOUS
10
0.784721
20
-0.619203
11
0.787486
21
-0.624376
0
LINE
8
BLACK
6
CONTINUOUS
10
0.787486
20
-0.624376
11
0.789189
21
-0.629989
0
LINE
8
BLACK
6
CONTINUOUS
10
0.789189
20
-0.629989
11
0.789764
21
-0.635827
0
LINE
8
BLACK
6
CONTINUOUS
10
0.789764
20
-0.635827
11
0.789764
21
-0.690945
0
LINE
8
BLACK
6
CONTINUOUS
10
0.789764
20
-0.690945
11
0.789189
21
-0.696782
0
LINE
8
BLACK
6
CONTINUOUS
10
0.789189
20
-0.696782
11
0.787486
21
-0.702395
0
LINE
8
BLACK
6
CONTINUOUS
10
0.787486
20
-0.702395
11
0.784721
21
-0.707568
0
LINE
8
BLACK
6
CONTINUOUS
10
0.784721
20
-0.707568
11
0.781
21
-0.712102
0
LINE
8
BLACK
6
CONTINUOUS
10
0.781
20
-0.712102
11
0.776466
21
-0.715824
0
LINE
8
BLACK
6
CONTINUOUS
10
0.776466
20
-0.715824
11
0.771293
21
-0.718589
0
LINE
8
BLACK
6
CONTINUOUS
10
0.771293
20
-0.718589
11
0.76568
21
-0.720291
0
LINE
8
BLACK
6
CONTINUOUS
10
0.76568
20
-0.720291
11
0.759843
21
-0.720866
0
LINE
8
BLACK
6
CONTINUOUS
10
0.759843
20
-0.720866
11
0.73622
21
-0.720866
0
LINE
8
BLACK
6
CONTINUOUS
10
0.73622
20
-0.720866
11
0.730383
21
-0.720291
0
LINE
8
BLACK
6
CONTINUOUS
10
0.730383
20
-0.720291
11
0.72477
21
-0.718589
0
LINE
8
BLACK
6
CONTINUOUS
10
0.72477
20
-0.718589
11
0.719597
21
-0.715824
0
LINE
8
BLACK
6
CONTINUOUS
10
0.719597
20
-0.715824
11
0.715063
21
-0.712102
0
LINE
8
BLACK
6
CONTINUOUS
10
0.715063
20
-0.712102
11
0.711342
21
-0.707568
0
LINE
8
BLACK
6
CONTINUOUS
10
0.711342
20
-0.707568
11
0.708577
21
-0.702395
0
LINE
8
BLACK
6
CONTINUOUS
10
0.708577
20
-0.702395
11
0.706874
21
-0.696782
0
LINE
8
BLACK
6
CONTINUOUS
10
0.706874
20
-0.696782
11
0.706299
21
-0.690945
0
LINE
8
BLACK
6
CONTINUOUS
10
0.706299
20
-0.690945
11
0.706299
21
-0.690945
0
LINE
8
BLACK
6
CONTINUOUS
10
0.706299
20
-0.690945
11
0.706299
21
-0.635827
0
LINE
8
BLACK
6
CONTINUOUS
10
0.706299
20
-0.635827
11
0.706299
21
-0.635827
0
LINE
8
BLACK
6
CONTINUOUS
10
0.706299
20
-0.635827
11
0.706874
21
-0.629989
0
LINE
8
BLACK
6
CONTINUOUS
10
0.706874
20
-0.629989
11
0.708577
21
-0.624376
0
LINE
8
BLACK
6
CONTINUOUS
10
0.708577
20
-0.624376
11
0.711342
21
-0.619203
0
LINE
8
BLACK
6
CONTINUOUS
10
0.711342
20
-0.619203
11
0.715063
21
-0.614669
0
LINE
8
BLACK
6
CONTINUOUS
10
0.715063
20
-0.614669
11
0.719597
21
-0.610948
0
LINE
8
BLACK
6
CONTINUOUS
10
0.719597
20
-0.610948
11
0.72477
21
-0.608183
0
LINE
8
BLACK
6
CONTINUOUS
10
0.72477
20
-0.608183
11
0.730383
21
-0.60648
0
LINE
8
BLACK
6
CONTINUOUS
10
0.730383
20
-0.60648
11
0.73622
21
-0.605906
0
LINE
8
BLACK
6
CONTINUOUS
10
0.73622
20
-0.605906
11
0.759843
21
-0.605906
0
LINE
8
BLACK
6
CONTINUOUS
10
0.73622
20
-0.61063
11
0.733381
21
-0.61063
0
LINE
8
BLACK
6
CONTINUOUS
10
0.733381
20
-0.61063
11
0.727846
21
-0.611893
0
LINE
8
BLACK
6
CONTINUOUS
10
0.727846
20
-0.611893
11
0.72273
21
-0.614357
0
LINE
8
BLACK
6
CONTINUOUS
10
0.72273
20
-0.614357
11
0.718291
21
-0.617897
0
LINE
8
BLACK
6
CONTINUOUS
10
0.718291
20
-0.617897
11
0.714751
21
-0.622336
0
LINE
8
BLACK
6
CONTINUOUS
10
0.714751
20
-0.622336
11
0.712287
21
-0.627452
0
LINE
8
BLACK
6
CONTINUOUS
10
0.712287
20
-0.627452
11
0.711024
21
-0.632988
0
LINE
8
BLACK
6
CONTINUOUS
10
0.711024
20
-0.632988
11
0.711024
21
-0.635827
0
LINE
8
BLACK
6
CONTINUOUS
10
0.711024
20
-0.635827
11
0.711024
21
-0.635827
0
LINE
8
BLACK
6
CONTINUOUS
10
0.711024
20
-0.635827
11
0.711024
21
-0.690945
0
LINE
8
BLACK
6
CONTINUOUS
10
0.711024
20
-0.690945
11
0.711024
21
-0.693784
0
LINE
8
BLACK
6
CONTINUOUS
10
0.711024
20
-0.693784
11
0.712287
21
-0.69932
0
LINE
8
BLACK
6
CONTINUOUS
10
0.712287
20
-0.69932
11
0.714751
21
-0.704435
0
LINE
8
BLACK
6
CONTINUOUS
10
0.714751
20
-0.704435
11
0.718291
21
-0.708874
0
LINE
8
BLACK
6
CONTINUOUS
10
0.718291
20
-0.708874
11
0.72273
21
-0.712415
0
LINE
8
BLACK
6
CONTINUOUS
10
0.72273
20
-0.712415
11
0.727846
21
-0.714878
0
LINE
8
BLACK
6
CONTINUOUS
10
0.727846
20
-0.714878
11
0.733381
21
-0.716142
0
LINE
8
BLACK
6
CONTINUOUS
10
0.733381
20
-0.716142
11
0.73622
21
-0.716142
0
LINE
8
BLACK
6
CONTINUOUS
10
0.73622
20
-0.716142
11
0.759843
21
-0.716142
0
LINE
8
BLACK
6
CONTINUOUS
10
0.759843
20
-0.716142
11
0.762682
21
-0.716142
0
LINE
8
BLACK
6
CONTINUOUS
10
0.762682
20
-0.716142
11
0.768217
21
-0.714878
0
LINE
8
BLACK
6
CONTINUOUS
10
0.768217
20
-0.714878
11
0.773333
21
-0.712415
0
LINE
8
BLACK
6
CONTINUOUS
10
0.773333
20
-0.712415
11
0.777772
21
-0.708874
0
LINE
8
BLACK
6
CONTINUOUS
10
0.777772
20
-0.708874
11
0.781312
21
-0.704435
0
LINE
8
BLACK
6
CONTINUOUS
10
0.781312
20
-0.704435
11
0.783776
21
-0.69932
0
LINE
8
BLACK
6
CONTINUOUS
10
0.783776
20
-0.69932
11
0.785039
21
-0.693784
0
LINE
8
BLACK
6
CONTINUOUS
10
0.785039
20
-0.693784
11
0.785039
21
-0.690945
0
LINE
8
BLACK
6
CONTINUOUS
10
0.785039
20
-0.690945
11
0.785039
21
-0.690945
0
LINE
8
BLACK
6
CONTINUOUS
10
0.785039
20
-0.690945
11
0.785039
21
-0.635827
0
LINE
8
BLACK
6
CONTINUOUS
10
0.785039
20
-0.635827
11
0.785039
21
-0.635827
0
LINE
8
BLACK
6
CONTINUOUS
10
0.785039
20
-0.635827
11
0.785039
21
-0.632988
0
LINE
8
BLACK
6
CONTINUOUS
10
0.785039
20
-0.632988
11
0.783776
21
-0.627452
0
LINE
8
BLACK
6
CONTINUOUS
10
0.783776
20
-0.627452
11
0.781312
21
-0.622336
0
LINE
8
BLACK
6
CONTINUOUS
10
0.781312
20
-0.622336
11
0.777772
21
-0.617897
0
LINE
8
BLACK
6
CONTINUOUS
10
0.777772
20
-0.617897
11
0.773333
21
-0.614357
0
LINE
8
BLACK
6
CONTINUOUS
10
0.773333
20
-0.614357
11
0.768217
21
-0.611893
0
LINE
8
BLACK
6
CONTINUOUS
10
0.768217
20
-0.611893
11
0.762682
21
-0.61063
0
LINE
8
BLACK
6
CONTINUOUS
10
0.762682
20
-0.61063
11
0.759843
21
-0.61063
0
LINE
8
BLACK
6
CONTINUOUS
10
0.759843
20
-0.61063
11
0.73622
21
-0.61063
0
LINE
8
BLACK
6
CONTINUOUS
10
0.691764
20
-0.680137
11
0.691899
21
-0.680125
0
LINE
8
BLACK
6
CONTINUOUS
10
0.691899
20
-0.680125
11
0.692627
21
-0.680635
0
LINE
8
BLACK
6
CONTINUOUS
10
0.692627
20
-0.680635
11
0.693397
21
-0.681079
0
LINE
8
BLACK
6
CONTINUOUS
10
0.693397
20
-0.681079
11
0.693443
21
-0.681206
0
LINE
8
BLACK
6
CONTINUOUS
10
0.693443
20
-0.681206
11
0.693553
21
-0.681284
0
LINE
8
BLACK
6
CONTINUOUS
10
0.693553
20
-0.681284
11
0.693783
21
-0.682142
0
LINE
8
BLACK
6
CONTINUOUS
10
0.693783
20
-0.682142
11
0.694087
21
-0.682977
0
LINE
8
BLACK
6
CONTINUOUS
10
0.694087
20
-0.682977
11
0.694087
21
-0.707349
0
LINE
8
BLACK
6
CONTINUOUS
10
0.694087
20
-0.707349
11
0.693909
21
-0.708359
0
LINE
8
BLACK
6
CONTINUOUS
10
0.693909
20
-0.708359
11
0.692611
21
-0.709906
0
LINE
8
BLACK
6
CONTINUOUS
10
0.692611
20
-0.709906
11
0.690622
21
-0.710257
0
LINE
8
BLACK
6
CONTINUOUS
10
0.690622
20
-0.710257
11
0.688873
21
-0.709247
0
LINE
8
BLACK
6
CONTINUOUS
10
0.688873
20
-0.709247
11
0.688182
21
-0.707349
0
LINE
8
BLACK
6
CONTINUOUS
10
0.688182
20
-0.707349
11
0.688182
21
-0.690106
0
LINE
8
BLACK
6
CONTINUOUS
10
0.688182
20
-0.690106
11
0.670725
21
-0.707562
0
LINE
8
BLACK
6
CONTINUOUS
10
0.670725
20
-0.707562
11
0.669885
21
-0.70815
0
LINE
8
BLACK
6
CONTINUOUS
10
0.669885
20
-0.70815
11
0.669709
21
-0.708166
0
LINE
8
BLACK
6
CONTINUOUS
10
0.669709
20
-0.708166
11
0.669571
21
-0.708276
0
LINE
8
BLACK
6
CONTINUOUS
10
0.669571
20
-0.708276
11
0.663947
21
-0.71015
0
LINE
8
BLACK
6
CONTINUOUS
10
0.663947
20
-0.71015
11
0.663074
21
-0.71028
0
LINE
8
BLACK
6
CONTINUOUS
10
0.663074
20
-0.71028
11
0.663013
21
-0.710302
0
LINE
8
BLACK
6
CONTINUOUS
10
0.663013
20
-0.710302
11
0.659264
21
-0.710302
0
LINE
8
BLACK
6
CONTINUOUS
10
0.659264
20
-0.710302
11
0.658254
21
-0.710124
0
LINE
8
BLACK
6
CONTINUOUS
10
0.658254
20
-0.710124
11
0.658118
21
-0.71001
0
LINE
8
BLACK
6
CONTINUOUS
10
0.658118
20
-0.71001
11
0.657943
21
-0.70999
0
LINE
8
BLACK
6
CONTINUOUS
10
0.657943
20
-0.70999
11
0.654194
21
-0.708115
0
LINE
8
BLACK
6
CONTINUOUS
10
0.654194
20
-0.708115
11
0.653484
21
-0.707589
0
LINE
8
BLACK
6
CONTINUOUS
10
0.653484
20
-0.707589
11
0.653426
21
-0.707562
0
LINE
8
BLACK
6
CONTINUOUS
10
0.653426
20
-0.707562
11
0.651551
21
-0.705687
0
LINE
8
BLACK
6
CONTINUOUS
10
0.651551
20
-0.705687
11
0.651045
21
-0.704964
0
LINE
8
BLACK
6
CONTINUOUS
10
0.651045
20
-0.704964
11
0.650998
21
-0.70492
0
LINE
8
BLACK
6
CONTINUOUS
10
0.650998
20
-0.70492
11
0.649124
21
-0.701171
0
LINE
8
BLACK
6
CONTINUOUS
10
0.649124
20
-0.701171
11
0.648831
21
-0.700188
0
LINE
8
BLACK
6
CONTINUOUS
10
0.648831
20
-0.700188
11
0.648872
21
-0.700016
0
LINE
8
BLACK
6
CONTINUOUS
10
0.648872
20
-0.700016
11
0.648812
21
-0.69985
0
LINE
8
BLACK
6
CONTINUOUS
10
0.648812
20
-0.69985
11
0.648812
21
-0.690476
0
LINE
8
BLACK
6
CONTINUOUS
10
0.648812
20
-0.690476
11
0.64899
21
-0.689466
0
LINE
8
BLACK
6
CONTINUOUS
10
0.64899
20
-0.689466
11
0.649103
21
-0.689331
0
LINE
8
BLACK
6
CONTINUOUS
10
0.649103
20
-0.689331
11
0.649124
21
-0.689156
0
LINE
8
BLACK
6
CONTINUOUS
10
0.649124
20
-0.689156
11
0.650998
21
-0.685406
0
LINE
8
BLACK
6
CONTINUOUS
10
0.650998
20
-0.685406
11
0.651524
21
-0.684697
0
LINE
8
BLACK
6
CONTINUOUS
10
0.651524
20
-0.684697
11
0.651551
21
-0.684639
0
LINE
8
BLACK
6
CONTINUOUS
10
0.651551
20
-0.684639
11
0.653426
21
-0.682764
0
LINE
8
BLACK
6
CONTINUOUS
10
0.653426
20
-0.682764
11
0.654266
21
-0.682176
0
LINE
8
BLACK
6
CONTINUOUS
10
0.654266
20
-0.682176
11
0.656278
21
-0.682
0
LINE
8
BLACK
6
CONTINUOUS
10
0.656278
20
-0.682
11
0.657933
21
-0.683158
0
LINE
8
BLACK
6
CONTINUOUS
10
0.657933
20
-0.683158
11
0.658456
21
-0.685109
0
LINE
8
BLACK
6
CONTINUOUS
10
0.658456
20
-0.685109
11
0.657602
21
-0.68694
0
LINE
8
BLACK
6
CONTINUOUS
10
0.657602
20
-0.68694
11
0.656066
21
-0.688476
0
LINE
8
BLACK
6
CONTINUOUS
10
0.656066
20
-0.688476
11
0.654717
21
-0.691173
0
LINE
8
BLACK
6
CONTINUOUS
10
0.654717
20
-0.691173
11
0.654717
21
-0.699153
0
LINE
8
BLACK
6
CONTINUOUS
10
0.654717
20
-0.699153
11
0.656066
21
-0.70185
0
LINE
8
BLACK
6
CONTINUOUS
10
0.656066
20
-0.70185
11
0.657263
21
-0.703048
0
LINE
8
BLACK
6
CONTINUOUS
10
0.657263
20
-0.703048
11
0.659961
21
-0.704396
0
LINE
8
BLACK
6
CONTINUOUS
10
0.659961
20
-0.704396
11
0.662534
21
-0.704396
0
LINE
8
BLACK
6
CONTINUOUS
10
0.662534
20
-0.704396
11
0.667042
21
-0.702893
0
LINE
8
BLACK
6
CONTINUOUS
10
0.667042
20
-0.702893
11
0.689047
21
-0.680889
0
LINE
8
BLACK
6
CONTINUOUS
10
0.689047
20
-0.680889
11
0.689575
21
-0.680519
0
LINE
8
BLACK
6
CONTINUOUS
10
0.689575
20
-0.680519
11
0.689658
21
-0.68042
0
LINE
8
BLACK
6
CONTINUOUS
10
0.689658
20
-0.68042
11
0.689737
21
-0.680406
0
LINE
8
BLACK
6
CONTINUOUS
10
0.689737
20
-0.680406
11
0.689887
21
-0.680301
0
LINE
8
BLACK
6
CONTINUOUS
10
0.689887
20
-0.680301
11
0.690772
21
-0.680224
0
LINE
8
BLACK
6
CONTINUOUS
10
0.690772
20
-0.680224
11
0.691647
21
-0.680069
0
LINE
8
BLACK
6
CONTINUOUS
10
0.691647
20
-0.680069
11
0.691764
21
-0.680137
0
LINE
8
BLACK
6
CONTINUOUS
10
0.692145
20
-0.644582
11
0.693692
21
-0.64588
0
LINE
8
BLACK
6
CONTINUOUS
10
0.693692
20
-0.64588
11
0.694043
21
-0.647869
0
LINE
8
BLACK
6
CONTINUOUS
10
0.694043
20
-0.647869
11
0.693033
21
-0.649619
0
LINE
8
BLACK
6
CONTINUOUS
10
0.693033
20
-0.649619
11
0.691135
21
-0.650309
0
LINE
8
BLACK
6
CONTINUOUS
10
0.691135
20
-0.650309
11
0.67534
21
-0.650309
0
LINE
8
BLACK
6
CONTINUOUS
10
0.67534
20
-0.650309
11
0.67534
21
-0.662355
0
LINE
8
BLACK
6
CONTINUOUS
10
0.67534
20
-0.662355
11
0.675162
21
-0.663365
0
LINE
8
BLACK
6
CONTINUOUS
10
0.675162
20
-0.663365
11
0.675048
21
-0.6635
0
LINE
8
BLACK
6
CONTINUOUS
10
0.675048
20
-0.6635
11
0.675028
21
-0.663675
0
LINE
8
BLACK
6
CONTINUOUS
10
0.675028
20
-0.663675
11
0.673153
21
-0.667425
0
LINE
8
BLACK
6
CONTINUOUS
10
0.673153
20
-0.667425
11
0.672627
21
-0.668134
0
LINE
8
BLACK
6
CONTINUOUS
10
0.672627
20
-0.668134
11
0.6726
21
-0.668192
0
LINE
8
BLACK
6
CONTINUOUS
10
0.6726
20
-0.668192
11
0.670725
21
-0.670067
0
LINE
8
BLACK
6
CONTINUOUS
10
0.670725
20
-0.670067
11
0.670002
21
-0.670573
0
LINE
8
BLACK
6
CONTINUOUS
10
0.670002
20
-0.670573
11
0.669958
21
-0.67062
0
LINE
8
BLACK
6
CONTINUOUS
10
0.669958
20
-0.67062
11
0.666208
21
-0.672495
0
LINE
8
BLACK
6
CONTINUOUS
10
0.666208
20
-0.672495
11
0.665225
21
-0.672787
0
LINE
8
BLACK
6
CONTINUOUS
10
0.665225
20
-0.672787
11
0.665054
21
-0.672746
0
LINE
8
BLACK
6
CONTINUOUS
10
0.665054
20
-0.672746
11
0.664888
21
-0.672806
0
LINE
8
BLACK
6
CONTINUOUS
10
0.664888
20
-0.672806
11
0.659264
21
-0.672806
0
LINE
8
BLACK
6
CONTINUOUS
10
0.659264
20
-0.672806
11
0.658254
21
-0.672628
0
LINE
8
BLACK
6
CONTINUOUS
10
0.658254
20
-0.672628
11
0.658118
21
-0.672515
0
LINE
8
BLACK
6
CONTINUOUS
10
0.658118
20
-0.672515
11
0.657943
21
-0.672495
0
LINE
8
BLACK
6
CONTINUOUS
10
0.657943
20
-0.672495
11
0.654194
21
-0.67062
0
LINE
8
BLACK
6
CONTINUOUS
10
0.654194
20
-0.67062
11
0.653484
21
-0.670094
0
LINE
8
BLACK
6
CONTINUOUS
10
0.653484
20
-0.670094
11
0.653426
21
-0.670067
0
LINE
8
BLACK
6
CONTINUOUS
10
0.653426
20
-0.670067
11
0.651551
21
-0.668192
0
LINE
8
BLACK
6
CONTINUOUS
10
0.651551
20
-0.668192
11
0.651045
21
-0.667469
0
LINE
8
BLACK
6
CONTINUOUS
10
0.651045
20
-0.667469
11
0.650998
21
-0.667425
0
LINE
8
BLACK
6
CONTINUOUS
10
0.650998
20
-0.667425
11
0.649124
21
-0.663675
0
LINE
8
BLACK
6
CONTINUOUS
10
0.649124
20
-0.663675
11
0.648831
21
-0.662692
0
LINE
8
BLACK
6
CONTINUOUS
10
0.648831
20
-0.662692
11
0.648872
21
-0.662521
0
LINE
8
BLACK
6
CONTINUOUS
10
0.648872
20
-0.662521
11
0.648812
21
-0.662355
0
LINE
8
BLACK
6
CONTINUOUS
10
0.648812
20
-0.662355
11
0.648812
21
-0.647357
0
LINE
8
BLACK
6
CONTINUOUS
10
0.648812
20
-0.647357
11
0.648879
21
-0.646973
0
LINE
8
BLACK
6
CONTINUOUS
10
0.648879
20
-0.646973
11
0.648857
21
-0.646844
0
LINE
8
BLACK
6
CONTINUOUS
10
0.648857
20
-0.646844
11
0.648922
21
-0.64673
0
LINE
8
BLACK
6
CONTINUOUS
10
0.648922
20
-0.64673
11
0.64899
21
-0.646347
0
LINE
8
BLACK
6
CONTINUOUS
10
0.64899
20
-0.646347
11
0.649483
21
-0.645759
0
LINE
8
BLACK
6
CONTINUOUS
10
0.649483
20
-0.645759
11
0.649867
21
-0.645095
0
LINE
8
BLACK
6
CONTINUOUS
10
0.649867
20
-0.645095
11
0.650117
21
-0.645004
0
LINE
8
BLACK
6
CONTINUOUS
10
0.650117
20
-0.645004
11
0.650288
21
-0.644799
0
LINE
8
BLACK
6
CONTINUOUS
10
0.650288
20
-0.644799
11
0.651044
21
-0.644666
0
LINE
8
BLACK
6
CONTINUOUS
10
0.651044
20
-0.644666
11
0.651765
21
-0.644404
0
LINE
8
BLACK
6
CONTINUOUS
10
0.651765
20
-0.644404
11
0.691135
21
-0.644404
0
LINE
8
BLACK
6
CONTINUOUS
10
0.691135
20
-0.644404
11
0.692145
21
-0.644582
0
LINE
8
BLACK
6
CONTINUOUS
10
0.654717
20
-0.661658
11
0.656066
21
-0.664355
0
LINE
8
BLACK
6
CONTINUOUS
10
0.656066
20
-0.664355
11
0.657263
21
-0.665552
0
LINE
8
BLACK
6
CONTINUOUS
10
0.657263
20
-0.665552
11
0.659961
21
-0.666901
0
LINE
8
BLACK
6
CONTINUOUS
10
0.659961
20
-0.666901
11
0.664191
21
-0.666901
0
LINE
8
BLACK
6
CONTINUOUS
10
0.664191
20
-0.666901
11
0.666888
21
-0.665552
0
LINE
8
BLACK
6
CONTINUOUS
10
0.666888
20
-0.665552
11
0.668085
21
-0.664355
0
LINE
8
BLACK
6
CONTINUOUS
10
0.668085
20
-0.664355
11
0.669434
21
-0.661658
0
LINE
8
BLACK
6
CONTINUOUS
10
0.669434
20
-0.661658
11
0.669434
21
-0.650309
0
LINE
8
BLACK
6
CONTINUOUS
10
0.669434
20
-0.650309
11
0.654717
21
-0.650309
0
LINE
8
BLACK
6
CONTINUOUS
10
0.654717
20
-0.650309
11
0.654717
21
-0.661658
0
LINE
8
BLACK
6
CONTINUOUS
10
0.693397
20
-0.611713
11
0.694087
21
-0.613611
0
LINE
8
BLACK
6
CONTINUOUS
10
0.694087
20
-0.613611
11
0.694087
21
-0.61736
0
LINE
8
BLACK
6
CONTINUOUS
10
0.694087
20
-0.61736
11
0.693934
21
-0.61823
0
LINE
8
BLACK
6
CONTINUOUS
10
0.693934
20
-0.61823
11
0.693936
21
-0.618294
0
LINE
8
BLACK
6
CONTINUOUS
10
0.693936
20
-0.618294
11
0.692061
21
-0.623918
0
LINE
8
BLACK
6
CONTINUOUS
10
0.692061
20
-0.623918
11
0.691573
21
-0.62482
0
LINE
8
BLACK
6
CONTINUOUS
10
0.691573
20
-0.62482
11
0.691422
21
-0.624912
0
LINE
8
BLACK
6
CONTINUOUS
10
0.691422
20
-0.624912
11
0.691348
21
-0.625073
0
LINE
8
BLACK
6
CONTINUOUS
10
0.691348
20
-0.625073
11
0.687598
21
-0.628822
0
LINE
8
BLACK
6
CONTINUOUS
10
0.687598
20
-0.628822
11
0.686758
21
-0.62941
0
LINE
8
BLACK
6
CONTINUOUS
10
0.686758
20
-0.62941
11
0.686582
21
-0.629426
0
LINE
8
BLACK
6
CONTINUOUS
10
0.686582
20
-0.629426
11
0.686444
21
-0.629535
0
LINE
8
BLACK
6
CONTINUOUS
10
0.686444
20
-0.629535
11
0.68082
21
-0.63141
0
LINE
8
BLACK
6
CONTINUOUS
10
0.68082
20
-0.63141
11
0.679947
21
-0.63154
0
LINE
8
BLACK
6
CONTINUOUS
10
0.679947
20
-0.63154
11
0.679886
21
-0.631562
0
LINE
8
BLACK
6
CONTINUOUS
10
0.679886
20
-0.631562
11
0.651765
21
-0.631562
0
LINE
8
BLACK
6
CONTINUOUS
10
0.651765
20
-0.631562
11
0.650755
21
-0.631384
0
LINE
8
BLACK
6
CONTINUOUS
10
0.650755
20
-0.631384
11
0.649207
21
-0.630085
0
LINE
8
BLACK
6
CONTINUOUS
10
0.649207
20
-0.630085
11
0.648857
21
-0.628096
0
LINE
8
BLACK
6
CONTINUOUS
10
0.648857
20
-0.628096
11
0.649867
21
-0.626347
0
LINE
8
BLACK
6
CONTINUOUS
10
0.649867
20
-0.626347
11
0.651765
21
-0.625656
0
LINE
8
BLACK
6
CONTINUOUS
10
0.651765
20
-0.625656
11
0.679407
21
-0.625656
0
LINE
8
BLACK
6
CONTINUOUS
10
0.679407
20
-0.625656
11
0.683915
21
-0.624153
0
LINE
8
BLACK
6
CONTINUOUS
10
0.683915
20
-0.624153
11
0.686679
21
-0.62139
0
LINE
8
BLACK
6
CONTINUOUS
10
0.686679
20
-0.62139
11
0.688182
21
-0.616881
0
LINE
8
BLACK
6
CONTINUOUS
10
0.688182
20
-0.616881
11
0.688182
21
-0.613611
0
LINE
8
BLACK
6
CONTINUOUS
10
0.688182
20
-0.613611
11
0.68836
21
-0.612601
0
LINE
8
BLACK
6
CONTINUOUS
10
0.68836
20
-0.612601
11
0.689658
21
-0.611054
0
LINE
8
BLACK
6
CONTINUOUS
10
0.689658
20
-0.611054
11
0.691647
21
-0.610703
0
LINE
8
BLACK
6
CONTINUOUS
10
0.691647
20
-0.610703
11
0.693397
21
-0.611713
0
LINE
8
BLACK
6
CONTINUOUS
10
0.755906
20
0.709055
11
0.761743
21
0.70848
0
LINE
8
BLACK
6
CONTINUOUS
10
0.761743
20
0.70848
11
0.767356
21
0.706777
0
LINE
8
BLACK
6
CONTINUOUS
10
0.767356
20
0.706777
11
0.772529
21
0.704012
0
LINE
8
BLACK
6
CONTINUOUS
10
0.772529
20
0.704012
11
0.777063
21
0.700291
0
LINE
8
BLACK
6
CONTINUOUS
10
0.777063
20
0.700291
11
0.780784
21
0.695757
0
LINE
8
BLACK
6
CONTINUOUS
10
0.780784
20
0.695757
11
0.783549
21
0.690584
0
LINE
8
BLACK
6
CONTINUOUS
10
0.783549
20
0.690584
11
0.785252
21
0.684971
0
LINE
8
BLACK
6
CONTINUOUS
10
0.785252
20
0.684971
11
0.785827
21
0.679134
0
LINE
8
BLACK
6
CONTINUOUS
10
0.785827
20
0.679134
11
0.785827
21
0.624016
0
LINE
8
BLACK
6
CONTINUOUS
10
0.785827
20
0.624016
11
0.785252
21
0.618178
0
LINE
8
BLACK
6
CONTINUOUS
10
0.785252
20
0.618178
11
0.783549
21
0.612565
0
LINE
8
BLACK
6
CONTINUOUS
10
0.783549
20
0.612565
11
0.780784
21
0.607392
0
LINE
8
BLACK
6
CONTINUOUS
10
0.780784
20
0.607392
11
0.777063
21
0.602858
0
LINE
8
BLACK
6
CONTINUOUS
10
0.777063
20
0.602858
11
0.772529
21
0.599137
0
LINE
8
BLACK
6
CONTINUOUS
10
0.772529
20
0.599137
11
0.767356
21
0.596372
0
LINE
8
BLACK
6
CONTINUOUS
10
0.767356
20
0.596372
11
0.761743
21
0.594669
0
LINE
8
BLACK
6
CONTINUOUS
10
0.761743
20
0.594669
11
0.755906
21
0.594094
0
LINE
8
BLACK
6
CONTINUOUS
10
0.755906
20
0.594094
11
0.732283
21
0.594094
0
LINE
8
BLACK
6
CONTINUOUS
10
0.732283
20
0.594094
11
0.726446
21
0.594669
0
LINE
8
BLACK
6
CONTINUOUS
10
0.726446
20
0.594669
11
0.720833
21
0.596372
0
LINE
8
BLACK
6
CONTINUOUS
10
0.720833
20
0.596372
11
0.71566
21
0.599137
0
LINE
8
BLACK
6
CONTINUOUS
10
0.71566
20
0.599137
11
0.711126
21
0.602858
0
LINE
8
BLACK
6
CONTINUOUS
10
0.711126
20
0.602858
11
0.707405
21
0.607392
0
LINE
8
BLACK
6
CONTINUOUS
10
0.707405
20
0.607392
11
0.70464
21
0.612565
0
LINE
8
BLACK
6
CONTINUOUS
10
0.70464
20
0.612565
11
0.702937
21
0.618178
0
LINE
8
BLACK
6
CONTINUOUS
10
0.702937
20
0.618178
11
0.702362
21
0.624016
0
LINE
8
BLACK
6
CONTINUOUS
10
0.702362
20
0.624016
11
0.702362
21
0.679134
0
LINE
8
BLACK
6
CONTINUOUS
10
0.702362
20
0.679134
11
0.702937
21
0.684971
0
LINE
8
BLACK
6
CONTINUOUS
10
0.702937
20
0.684971
11
0.70464
21
0.690584
0
LINE
8
BLACK
6
CONTINUOUS
10
0.70464
20
0.690584
11
0.707405
21
0.695757
0
LINE
8
BLACK
6
CONTINUOUS
10
0.707405
20
0.695757
11
0.711126
21
0.700291
0
LINE
8
BLACK
6
CONTINUOUS
10
0.711126
20
0.700291
11
0.71566
21
0.704012
0
LINE
8
BLACK
6
CONTINUOUS
10
0.71566
20
0.704012
11
0.720833
21
0.706777
0
LINE
8
BLACK
6
CONTINUOUS
10
0.720833
20
0.706777
11
0.726446
21
0.70848
0
LINE
8
BLACK
6
CONTINUOUS
10
0.726446
20
0.70848
11
0.732283
21
0.709055
0
LINE
8
BLACK
6
CONTINUOUS
10
0.732283
20
0.709055
11
0.755906
21
0.709055
0
LINE
8
BLACK
6
CONTINUOUS
10
0.732283
20
0.704331
11
0.729444
21
0.704331
0
LINE
8
BLACK
6
CONTINUOUS
10
0.729444
20
0.704331
11
0.723909
21
0.703067
0
LINE
8
BLACK
6
CONTINUOUS
10
0.723909
20
0.703067
11
0.718793
21
0.700604
0
LINE
8
BLACK
6
CONTINUOUS
10
0.718793
20
0.700604
11
0.714354
21
0.697063
0
LINE
8
BLACK
6
CONTINUOUS
10
0.714354
20
0.697063
11
0.710814
21
0.692624
0
LINE
8
BLACK
6
CONTINUOUS
10
0.710814
20
0.692624
11
0.70835
21
0.687509
0
LINE
8
BLACK
6
CONTINUOUS
10
0.70835
20
0.687509
11
0.707087
21
0.681973
0
LINE
8
BLACK
6
CONTINUOUS
10
0.707087
20
0.681973
11
0.707087
21
0.679134
0
LINE
8
BLACK
6
CONTINUOUS
10
0.707087
20
0.679134
11
0.707087
21
0.624016
0
LINE
8
BLACK
6
CONTINUOUS
10
0.707087
20
0.624016
11
0.707087
21
0.621177
0
LINE
8
BLACK
6
CONTINUOUS
10
0.707087
20
0.621177
11
0.70835
21
0.615641
0
LINE
8
BLACK
6
CONTINUOUS
10
0.70835
20
0.615641
11
0.710814
21
0.610525
0
LINE
8
BLACK
6
CONTINUOUS
10
0.710814
20
0.610525
11
0.714354
21
0.606086
0
LINE
8
BLACK
6
CONTINUOUS
10
0.714354
20
0.606086
11
0.718793
21
0.602546
0
LINE
8
BLACK
6
CONTINUOUS
10
0.718793
20
0.602546
11
0.723909
21
0.600082
0
LINE
8
BLACK
6
CONTINUOUS
10
0.723909
20
0.600082
11
0.729444
21
0.598819
0
LINE
8
BLACK
6
CONTINUOUS
10
0.729444
20
0.598819
11
0.732283
21
0.598819
0
LINE
8
BLACK
6
CONTINUOUS
10
0.732283
20
0.598819
11
0.755906
21
0.598819
0
LINE
8
BLACK
6
CONTINUOUS
10
0.755906
20
0.598819
11
0.758745
21
0.598819
0
LINE
8
BLACK
6
CONTINUOUS
10
0.758745
20
0.598819
11
0.76428
21
0.600082
0
LINE
8
BLACK
6
CONTINUOUS
10
0.76428
20
0.600082
11
0.769396
21
0.602546
0
LINE
8
BLACK
6
CONTINUOUS
10
0.769396
20
0.602546
11
0.773835
21
0.606086
0
LINE
8
BLACK
6
CONTINUOUS
10
0.773835
20
0.606086
11
0.777375
21
0.610525
0
LINE
8
BLACK
6
CONTINUOUS
10
0.777375
20
0.610525
11
0.779839
21
0.615641
0
LINE
8
BLACK
6
CONTINUOUS
10
0.779839
20
0.615641
11
0.781102
21
0.621177
0
LINE
8
BLACK
6
CONTINUOUS
10
0.781102
20
0.621177
11
0.781102
21
0.624016
0
LINE
8
BLACK
6
CONTINUOUS
10
0.781102
20
0.624016
11
0.781102
21
0.679134
0
LINE
8
BLACK
6
CONTINUOUS
10
0.781102
20
0.679134
11
0.781102
21
0.681973
0
LINE
8
BLACK
6
CONTINUOUS
10
0.781102
20
0.681973
11
0.779839
21
0.687509
0
LINE
8
BLACK
6
CONTINUOUS
10
0.779839
20
0.687509
11
0.777375
21
0.692624
0
LINE
8
BLACK
6
CONTINUOUS
10
0.777375
20
0.692624
11
0.773835
21
0.697063
0
LINE
8
BLACK
6
CONTINUOUS
10
0.773835
20
0.697063
11
0.769396
21
0.700604
0
LINE
8
BLACK
6
CONTINUOUS
10
0.769396
20
0.700604
11
0.76428
21
0.703067
0
LINE
8
BLACK
6
CONTINUOUS
10
0.76428
20
0.703067
11
0.758745
21
0.704331
0
LINE
8
BLACK
6
CONTINUOUS
10
0.758745
20
0.704331
11
0.755906
21
0.704331
0
LINE
8
BLACK
6
CONTINUOUS
10
0.755906
20
0.704331
11
0.732283
21
0.704331
0
LINE
8
BLACK
6
CONTINUOUS
10
0.664772
20
0.630512
11
0.665885
21
0.628826
0
LINE
8
BLACK
6
CONTINUOUS
10
0.665885
20
0.628826
11
0.665654
21
0.62682
0
LINE
8
BLACK
6
CONTINUOUS
10
0.665654
20
0.62682
11
0.663779
21
0.62307
0
LINE
8
BLACK
6
CONTINUOUS
10
0.663779
20
0.62307
11
0.663253
21
0.622361
0
LINE
8
BLACK
6
CONTINUOUS
10
0.663253
20
0.622361
11
0.663226
21
0.622303
0
LINE
8
BLACK
6
CONTINUOUS
10
0.663226
20
0.622303
11
0.660768
21
0.619844
0
LINE
8
BLACK
6
CONTINUOUS
10
0.660768
20
0.619844
11
0.688182
21
0.619844
0
LINE
8
BLACK
6
CONTINUOUS
10
0.688182
20
0.619844
11
0.688182
21
0.62814
0
LINE
8
BLACK
6
CONTINUOUS
10
0.688182
20
0.62814
11
0.68836
21
0.62915
0
LINE
8
BLACK
6
CONTINUOUS
10
0.68836
20
0.62915
11
0.689658
21
0.630697
0
LINE
8
BLACK
6
CONTINUOUS
10
0.689658
20
0.630697
11
0.691647
21
0.631048
0
LINE
8
BLACK
6
CONTINUOUS
10
0.691647
20
0.631048
11
0.693397
21
0.630038
0
LINE
8
BLACK
6
CONTINUOUS
10
0.693397
20
0.630038
11
0.694087
21
0.62814
0
LINE
8
BLACK
6
CONTINUOUS
10
0.694087
20
0.62814
11
0.694087
21
0.605643
0
LINE
8
BLACK
6
CONTINUOUS
10
0.694087
20
0.605643
11
0.693909
21
0.604633
0
LINE
8
BLACK
6
CONTINUOUS
10
0.693909
20
0.604633
11
0.692611
21
0.603086
0
LINE
8
BLACK
6
CONTINUOUS
10
0.692611
20
0.603086
11
0.690622
21
0.602735
0
LINE
8
BLACK
6
CONTINUOUS
10
0.690622
20
0.602735
11
0.688873
21
0.603745
0
LINE
8
BLACK
6
CONTINUOUS
10
0.688873
20
0.603745
11
0.688182
21
0.605643
0
LINE
8
BLACK
6
CONTINUOUS
10
0.688182
20
0.605643
11
0.688182
21
0.613939
0
LINE
8
BLACK
6
CONTINUOUS
10
0.688182
20
0.613939
11
0.651765
21
0.613939
0
LINE
8
BLACK
6
CONTINUOUS
10
0.651765
20
0.613939
11
0.650755
21
0.614117
0
LINE
8
BLACK
6
CONTINUOUS
10
0.650755
20
0.614117
11
0.650625
21
0.614226
0
LINE
8
BLACK
6
CONTINUOUS
10
0.650625
20
0.614226
11
0.650456
21
0.614245
0
LINE
8
BLACK
6
CONTINUOUS
10
0.650456
20
0.614245
11
0.649864
21
0.614864
0
LINE
8
BLACK
6
CONTINUOUS
10
0.649864
20
0.614864
11
0.649207
21
0.615415
0
LINE
8
BLACK
6
CONTINUOUS
10
0.649207
20
0.615415
11
0.649178
21
0.615583
0
LINE
8
BLACK
6
CONTINUOUS
10
0.649178
20
0.615583
11
0.649061
21
0.615705
0
LINE
8
BLACK
6
CONTINUOUS
10
0.649061
20
0.615705
11
0.649005
21
0.61656
0
LINE
8
BLACK
6
CONTINUOUS
10
0.649005
20
0.61656
11
0.648857
21
0.617404
0
LINE
8
BLACK
6
CONTINUOUS
10
0.648857
20
0.617404
11
0.648941
21
0.617551
0
LINE
8
BLACK
6
CONTINUOUS
10
0.648941
20
0.617551
11
0.648931
21
0.617721
0
LINE
8
BLACK
6
CONTINUOUS
10
0.648931
20
0.617721
11
0.649438
21
0.618411
0
LINE
8
BLACK
6
CONTINUOUS
10
0.649438
20
0.618411
11
0.649867
21
0.619154
0
LINE
8
BLACK
6
CONTINUOUS
10
0.649867
20
0.619154
11
0.650026
21
0.619212
0
LINE
8
BLACK
6
CONTINUOUS
10
0.650026
20
0.619212
11
0.650127
21
0.619349
0
LINE
8
BLACK
6
CONTINUOUS
10
0.650127
20
0.619349
11
0.655508
21
0.622936
0
LINE
8
BLACK
6
CONTINUOUS
10
0.655508
20
0.622936
11
0.658712
21
0.62614
0
LINE
8
BLACK
6
CONTINUOUS
10
0.658712
20
0.62614
11
0.660372
21
0.629461
0
LINE
8
BLACK
6
CONTINUOUS
10
0.660372
20
0.629461
11
0.660983
21
0.630284
0
LINE
8
BLACK
6
CONTINUOUS
10
0.660983
20
0.630284
11
0.662836
21
0.631088
0
LINE
8
BLACK
6
CONTINUOUS
10
0.662836
20
0.631088
11
0.664772
21
0.630512
0
LINE
8
BLACK
6
CONTINUOUS
10
0.692145
20
0.66841
11
0.693692
21
0.667112
0
LINE
8
BLACK
6
CONTINUOUS
10
0.693692
20
0.667112
11
0.694043
21
0.665123
0
LINE
8
BLACK
6
CONTINUOUS
10
0.694043
20
0.665123
11
0.693033
21
0.663374
0
LINE
8
BLACK
6
CONTINUOUS
10
0.693033
20
0.663374
11
0.691135
21
0.662683
0
LINE
8
BLACK
6
CONTINUOUS
10
0.691135
20
0.662683
11
0.67534
21
0.662683
0
LINE
8
BLACK
6
CONTINUOUS
10
0.67534
20
0.662683
11
0.67534
21
0.650637
0
LINE
8
BLACK
6
CONTINUOUS
10
0.67534
20
0.650637
11
0.675162
21
0.649628
0
LINE
8
BLACK
6
CONTINUOUS
10
0.675162
20
0.649628
11
0.675048
21
0.649492
0
LINE
8
BLACK
6
CONTINUOUS
10
0.675048
20
0.649492
11
0.675028
21
0.649317
0
LINE
8
BLACK
6
CONTINUOUS
10
0.675028
20
0.649317
11
0.673153
21
0.645567
0
LINE
8
BLACK
6
CONTINUOUS
10
0.673153
20
0.645567
11
0.672627
21
0.644858
0
LINE
8
BLACK
6
CONTINUOUS
10
0.672627
20
0.644858
11
0.6726
21
0.6448
0
LINE
8
BLACK
6
CONTINUOUS
10
0.6726
20
0.6448
11
0.670725
21
0.642925
0
LINE
8
BLACK
6
CONTINUOUS
10
0.670725
20
0.642925
11
0.670002
21
0.642419
0
LINE
8
BLACK
6
CONTINUOUS
10
0.670002
20
0.642419
11
0.669958
21
0.642372
0
LINE
8
BLACK
6
CONTINUOUS
10
0.669958
20
0.642372
11
0.666208
21
0.640497
0
LINE
8
BLACK
6
CONTINUOUS
10
0.666208
20
0.640497
11
0.665225
21
0.640205
0
LINE
8
BLACK
6
CONTINUOUS
10
0.665225
20
0.640205
11
0.665054
21
0.640246
0
LINE
8
BLACK
6
CONTINUOUS
10
0.665054
20
0.640246
11
0.664888
21
0.640186
0
LINE
8
BLACK
6
CONTINUOUS
10
0.664888
20
0.640186
11
0.659264
21
0.640186
0
LINE
8
BLACK
6
CONTINUOUS
10
0.659264
20
0.640186
11
0.658254
21
0.640364
0
LINE
8
BLACK
6
CONTINUOUS
10
0.658254
20
0.640364
11
0.658118
21
0.640477
0
LINE
8
BLACK
6
CONTINUOUS
10
0.658118
20
0.640477
11
0.657943
21
0.640497
0
LINE
8
BLACK
6
CONTINUOUS
10
0.657943
20
0.640497
11
0.654194
21
0.642372
0
LINE
8
BLACK
6
CONTINUOUS
10
0.654194
20
0.642372
11
0.653484
21
0.642898
0
LINE
8
BLACK
6
CONTINUOUS
10
0.653484
20
0.642898
11
0.653426
21
0.642925
0
LINE
8
BLACK
6
CONTINUOUS
10
0.653426
20
0.642925
11
0.651551
21
0.6448
0
LINE
8
BLACK
6
CONTINUOUS
10
0.651551
20
0.6448
11
0.651045
21
0.645523
0
LINE
8
BLACK
6
CONTINUOUS
10
0.651045
20
0.645523
11
0.650998
21
0.645567
0
LINE
8
BLACK
6
CONTINUOUS
10
0.650998
20
0.645567
11
0.649124
21
0.649317
0
LINE
8
BLACK
6
CONTINUOUS
10
0.649124
20
0.649317
11
0.648831
21
0.6503
0
LINE
8
BLACK
6
CONTINUOUS
10
0.648831
20
0.6503
11
0.648872
21
0.650472
0
LINE
8
BLACK
6
CONTINUOUS
10
0.648872
20
0.650472
11
0.648812
21
0.650637
0
LINE
8
BLACK
6
CONTINUOUS
10
0.648812
20
0.650637
11
0.648812
21
0.665636
0
LINE
8
BLACK
6
CONTINUOUS
10
0.648812
20
0.665636
11
0.648879
21
0.666019
0
LINE
8
BLACK
6
CONTINUOUS
10
0.648879
20
0.666019
11
0.648857
21
0.666148
0
LINE
8
BLACK
6
CONTINUOUS
10
0.648857
20
0.666148
11
0.648922
21
0.666262
0
LINE
8
BLACK
6
CONTINUOUS
10
0.648922
20
0.666262
11
0.64899
21
0.666645
0
LINE
8
BLACK
6
CONTINUOUS
10
0.64899
20
0.666645
11
0.649483
21
0.667233
0
LINE
8
BLACK
6
CONTINUOUS
10
0.649483
20
0.667233
11
0.649867
21
0.667897
0
LINE
8
BLACK
6
CONTINUOUS
10
0.649867
20
0.667897
11
0.650117
21
0.667989
0
LINE
8
BLACK
6
CONTINUOUS
10
0.650117
20
0.667989
11
0.650288
21
0.668193
0
LINE
8
BLACK
6
CONTINUOUS
10
0.650288
20
0.668193
11
0.651044
21
0.668326
0
LINE
8
BLACK
6
CONTINUOUS
10
0.651044
20
0.668326
11
0.651765
21
0.668588
0
LINE
8
BLACK
6
CONTINUOUS
10
0.651765
20
0.668588
11
0.691135
21
0.668588
0
LINE
8
BLACK
6
CONTINUOUS
10
0.691135
20
0.668588
11
0.692145
21
0.66841
0
LINE
8
BLACK
6
CONTINUOUS
10
0.654717
20
0.651334
11
0.656066
21
0.648637
0
LINE
8
BLACK
6
CONTINUOUS
10
0.656066
20
0.648637
11
0.657263
21
0.64744
0
LINE
8
BLACK
6
CONTINUOUS
10
0.657263
20
0.64744
11
0.659961
21
0.646091
0
LINE
8
BLACK
6
CONTINUOUS
10
0.659961
20
0.646091
11
0.664191
21
0.646091
0
LINE
8
BLACK
6
CONTINUOUS
10
0.664191
20
0.646091
11
0.666888
21
0.64744
0
LINE
8
BLACK
6
CONTINUOUS
10
0.666888
20
0.64744
11
0.668085
21
0.648637
0
LINE
8
BLACK
6
CONTINUOUS
10
0.668085
20
0.648637
11
0.669434
21
0.651335
0
LINE
8
BLACK
6
CONTINUOUS
10
0.669434
20
0.651335
11
0.669434
21
0.662683
0
LINE
8
BLACK
6
CONTINUOUS
10
0.669434
20
0.662683
11
0.654717
21
0.662683
0
LINE
8
BLACK
6
CONTINUOUS
10
0.654717
20
0.662683
11
0.654717
21
0.651334
0
LINE
8
BLACK
6
CONTINUOUS
10
0.693397
20
0.701279
11
0.694087
21
0.699381
0
LINE
8
BLACK
6
CONTINUOUS
10
0.694087
20
0.699381
11
0.694087
21
0.695632
0
LINE
8
BLACK
6
CONTINUOUS
10
0.694087
20
0.695632
11
0.693934
21
0.694762
0
LINE
8
BLACK
6
CONTINUOUS
10
0.693934
20
0.694762
11
0.693936
21
0.694698
0
LINE
8
BLACK
6
CONTINUOUS
10
0.693936
20
0.694698
11
0.692061
21
0.689074
0
LINE
8
BLACK
6
CONTINUOUS
10
0.692061
20
0.689074
11
0.691573
21
0.688172
0
LINE
8
BLACK
6
CONTINUOUS
10
0.691573
20
0.688172
11
0.691422
21
0.68808
0
LINE
8
BLACK
6
CONTINUOUS
10
0.691422
20
0.68808
11
0.691348
21
0.68792
0
LINE
8
BLACK
6
CONTINUOUS
10
0.691348
20
0.68792
11
0.687598
21
0.68417
0
LINE
8
BLACK
6
CONTINUOUS
10
0.687598
20
0.68417
11
0.686758
21
0.683582
0
LINE
8
BLACK
6
CONTINUOUS
10
0.686758
20
0.683582
11
0.686582
21
0.683566
0
LINE
8
BLACK
6
CONTINUOUS
10
0.686582
20
0.683566
11
0.686444
21
0.683457
0
LINE
8
BLACK
6
CONTINUOUS
10
0.686444
20
0.683457
11
0.68082
21
0.681582
0
LINE
8
BLACK
6
CONTINUOUS
10
0.68082
20
0.681582
11
0.679947
21
0.681453
0
LINE
8
BLACK
6
CONTINUOUS
10
0.679947
20
0.681453
11
0.679886
21
0.68143
0
LINE
8
BLACK
6
CONTINUOUS
10
0.679886
20
0.68143
11
0.651765
21
0.68143
0
LINE
8
BLACK
6
CONTINUOUS
10
0.651765
20
0.68143
11
0.650755
21
0.681609
0
LINE
8
BLACK
6
CONTINUOUS
10
0.650755
20
0.681609
11
0.649207
21
0.682907
0
LINE
8
BLACK
6
CONTINUOUS
10
0.649207
20
0.682907
11
0.648857
21
0.684896
0
LINE
8
BLACK
6
CONTINUOUS
10
0.648857
20
0.684896
11
0.649867
21
0.686645
0
LINE
8
BLACK
6
CONTINUOUS
10
0.649867
20
0.686645
11
0.651765
21
0.687336
0
LINE
8
BLACK
6
CONTINUOUS
10
0.651765
20
0.687336
11
0.679407
21
0.687336
0
LINE
8
BLACK
6
CONTINUOUS
10
0.679407
20
0.687336
11
0.683915
21
0.688839
0
LINE
8
BLACK
6
CONTINUOUS
10
0.683915
20
0.688839
11
0.686679
21
0.691603
0
LINE
8
BLACK
6
CONTINUOUS
10
0.686679
20
0.691603
11
0.688182
21
0.696111
0
LINE
8
BLACK
6
CONTINUOUS
10
0.688182
20
0.696111
11
0.688182
21
0.699381
0
LINE
8
BLACK
6
CONTINUOUS
10
0.688182
20
0.699381
11
0.68836
21
0.700391
0
LINE
8
BLACK
6
CONTINUOUS
10
0.68836
20
0.700391
11
0.689658
21
0.701939
0
LINE
8
BLACK
6
CONTINUOUS
10
0.689658
20
0.701939
11
0.691647
21
0.702289
0
LINE
8
BLACK
6
CONTINUOUS
10
0.691647
20
0.702289
11
0.693397
21
0.701279
0
LINE
8
BLACK
6
CONTINUOUS
10
0.753394
20
0.842181
11
0.762465
21
0.840004
0
LINE
8
BLACK
6
CONTINUOUS
10
0.762465
20
0.840004
11
0.771084
21
0.836434
0
LINE
8
BLACK
6
CONTINUOUS
10
0.771084
20
0.836434
11
0.779038
21
0.83156
0
LINE
8
BLACK
6
CONTINUOUS
10
0.779038
20
0.83156
11
0.786131
21
0.825501
0
LINE
8
BLACK
6
CONTINUOUS
10
0.786131
20
0.825501
11
0.79219
21
0.818408
0
LINE
8
BLACK
6
CONTINUOUS
10
0.79219
20
0.818408
11
0.797064
21
0.810454
0
LINE
8
BLACK
6
CONTINUOUS
10
0.797064
20
0.810454
11
0.800634
21
0.801835
0
LINE
8
BLACK
6
CONTINUOUS
10
0.800634
20
0.801835
11
0.802811
21
0.792764
0
LINE
8
BLACK
6
CONTINUOUS
10
0.802811
20
0.792764
11
0.803543
21
0.783465
0
LINE
8
BLACK
6
CONTINUOUS
10
0.803543
20
0.783465
11
0.802811
21
0.774165
0
LINE
8
BLACK
6
CONTINUOUS
10
0.802811
20
0.774165
11
0.800634
21
0.765094
0
LINE
8
BLACK
6
CONTINUOUS
10
0.800634
20
0.765094
11
0.797064
21
0.756475
0
LINE
8
BLACK
6
CONTINUOUS
10
0.797064
20
0.756475
11
0.79219
21
0.748521
0
LINE
8
BLACK
6
CONTINUOUS
10
0.79219
20
0.748521
11
0.786131
21
0.741428
0
LINE
8
BLACK
6
CONTINUOUS
10
0.786131
20
0.741428
11
0.779038
21
0.735369
0
LINE
8
BLACK
6
CONTINUOUS
10
0.779038
20
0.735369
11
0.771084
21
0.730495
0
LINE
8
BLACK
6
CONTINUOUS
10
0.771084
20
0.730495
11
0.762465
21
0.726925
0
LINE
8
BLACK
6
CONTINUOUS
10
0.762465
20
0.726925
11
0.753394
21
0.724748
0
LINE
8
BLACK
6
CONTINUOUS
10
0.753394
20
0.724748
11
0.744094
21
0.724016
0
LINE
8
BLACK
6
CONTINUOUS
10
0.744094
20
0.724016
11
0.734795
21
0.724748
0
LINE
8
BLACK
6
CONTINUOUS
10
0.734795
20
0.724748
11
0.725724
21
0.726925
0
LINE
8
BLACK
6
CONTINUOUS
10
0.725724
20
0.726925
11
0.717105
21
0.730495
0
LINE
8
BLACK
6
CONTINUOUS
10
0.717105
20
0.730495
11
0.709151
21
0.735369
0
LINE
8
BLACK
6
CONTINUOUS
10
0.709151
20
0.735369
11
0.702058
21
0.741428
0
LINE
8
BLACK
6
CONTINUOUS
10
0.702058
20
0.741428
11
0.695999
21
0.748521
0
LINE
8
BLACK
6
CONTINUOUS
10
0.695999
20
0.748521
11
0.691125
21
0.756475
0
LINE
8
BLACK
6
CONTINUOUS
10
0.691125
20
0.756475
11
0.687555
21
0.765094
0
LINE
8
BLACK
6
CONTINUOUS
10
0.687555
20
0.765094
11
0.685378
21
0.774165
0
LINE
8
BLACK
6
CONTINUOUS
10
0.685378
20
0.774165
11
0.684646
21
0.783465
0
LINE
8
BLACK
6
CONTINUOUS
10
0.684646
20
0.783465
11
0.685378
21
0.792764
0
LINE
8
BLACK
6
CONTINUOUS
10
0.685378
20
0.792764
11
0.687555
21
0.801835
0
LINE
8
BLACK
6
CONTINUOUS
10
0.687555
20
0.801835
11
0.691125
21
0.810454
0
LINE
8
BLACK
6
CONTINUOUS
10
0.691125
20
0.810454
11
0.695999
21
0.818408
0
LINE
8
BLACK
6
CONTINUOUS
10
0.695999
20
0.818408
11
0.702058
21
0.825501
0
LINE
8
BLACK
6
CONTINUOUS
10
0.702058
20
0.825501
11
0.709151
21
0.83156
0
LINE
8
BLACK
6
CONTINUOUS
10
0.709151
20
0.83156
11
0.717105
21
0.836434
0
LINE
8
BLACK
6
CONTINUOUS
10
0.717105
20
0.836434
11
0.725724
21
0.840004
0
LINE
8
BLACK
6
CONTINUOUS
10
0.725724
20
0.840004
11
0.734795
21
0.842181
0
LINE
8
BLACK
6
CONTINUOUS
10
0.734795
20
0.842181
11
0.744094
21
0.842913
0
LINE
8
BLACK
6
CONTINUOUS
10
0.744094
20
0.842913
11
0.753394
21
0.842181
0
LINE
8
BLACK
6
CONTINUOUS
10
0.689931
20
0.774426
11
0.692158
21
0.765635
0
LINE
8
BLACK
6
CONTINUOUS
10
0.692158
20
0.765635
11
0.695801
21
0.757329
0
LINE
8
BLACK
6
CONTINUOUS
10
0.695801
20
0.757329
11
0.700761
21
0.749737
0
LINE
8
BLACK
6
CONTINUOUS
10
0.700761
20
0.749737
11
0.706904
21
0.743065
0
LINE
8
BLACK
6
CONTINUOUS
10
0.706904
20
0.743065
11
0.71406
21
0.737494
0
LINE
8
BLACK
6
CONTINUOUS
10
0.71406
20
0.737494
11
0.722037
21
0.733178
0
LINE
8
BLACK
6
CONTINUOUS
10
0.722037
20
0.733178
11
0.730614
21
0.730233
0
LINE
8
BLACK
6
CONTINUOUS
10
0.730614
20
0.730233
11
0.73956
21
0.72874
0
LINE
8
BLACK
6
CONTINUOUS
10
0.73956
20
0.72874
11
0.748629
21
0.72874
0
LINE
8
BLACK
6
CONTINUOUS
10
0.748629
20
0.72874
11
0.757575
21
0.730233
0
LINE
8
BLACK
6
CONTINUOUS
10
0.757575
20
0.730233
11
0.766152
21
0.733178
0
LINE
8
BLACK
6
CONTINUOUS
10
0.766152
20
0.733178
11
0.774129
21
0.737494
0
LINE
8
BLACK
6
CONTINUOUS
10
0.774129
20
0.737494
11
0.781285
21
0.743065
0
LINE
8
BLACK
6
CONTINUOUS
10
0.781285
20
0.743065
11
0.787428
21
0.749737
0
LINE
8
BLACK
6
CONTINUOUS
10
0.787428
20
0.749737
11
0.792388
21
0.757329
0
LINE
8
BLACK
6
CONTINUOUS
10
0.792388
20
0.757329
11
0.796031
21
0.765635
0
LINE
8
BLACK
6
CONTINUOUS
10
0.796031
20
0.765635
11
0.798258
21
0.774426
0
LINE
8
BLACK
6
CONTINUOUS
10
0.798258
20
0.774426
11
0.799006
21
0.783465
0
LINE
8
BLACK
6
CONTINUOUS
10
0.799006
20
0.783465
11
0.798258
21
0.792503
0
LINE
8
BLACK
6
CONTINUOUS
10
0.798258
20
0.792503
11
0.796031
21
0.801294
0
LINE
8
BLACK
6
CONTINUOUS
10
0.796031
20
0.801294
11
0.792388
21
0.8096
0
LINE
8
BLACK
6
CONTINUOUS
10
0.792388
20
0.8096
11
0.787428
21
0.817192
0
LINE
8
BLACK
6
CONTINUOUS
10
0.787428
20
0.817192
11
0.781285
21
0.823865
0
LINE
8
BLACK
6
CONTINUOUS
10
0.781285
20
0.823865
11
0.774129
21
0.829435
0
LINE
8
BLACK
6
CONTINUOUS
10
0.774129
20
0.829435
11
0.766152
21
0.833751
0
LINE
8
BLACK
6
CONTINUOUS
10
0.766152
20
0.833751
11
0.757575
21
0.836696
0
LINE
8
BLACK
6
CONTINUOUS
10
0.757575
20
0.836696
11
0.748629
21
0.838189
0
LINE
8
BLACK
6
CONTINUOUS
10
0.748629
20
0.838189
11
0.73956
21
0.838189
0
LINE
8
BLACK
6
CONTINUOUS
10
0.73956
20
0.838189
11
0.730614
21
0.836696
0
LINE
8
BLACK
6
CONTINUOUS
10
0.730614
20
0.836696
11
0.722037
21
0.833751
0
LINE
8
BLACK
6
CONTINUOUS
10
0.722037
20
0.833751
11
0.71406
21
0.829435
0
LINE
8
BLACK
6
CONTINUOUS
10
0.71406
20
0.829435
11
0.706904
21
0.823865
0
LINE
8
BLACK
6
CONTINUOUS
10
0.706904
20
0.823865
11
0.700761
21
0.817192
0
LINE
8
BLACK
6
CONTINUOUS
10
0.700761
20
0.817192
11
0.695801
21
0.8096
0
LINE
8
BLACK
6
CONTINUOUS
10
0.695801
20
0.8096
11
0.692158
21
0.801294
0
LINE
8
BLACK
6
CONTINUOUS
10
0.692158
20
0.801294
11
0.689931
21
0.792503
0
LINE
8
BLACK
6
CONTINUOUS
10
0.689931
20
0.792503
11
0.689183
21
0.783465
0
LINE
8
BLACK
6
CONTINUOUS
10
0.689183
20
0.783465
11
0.689931
21
0.774426
0
LINE
8
BLACK
6
CONTINUOUS
10
0.820307
20
0.811688
11
0.820477
21
0.811699
0
LINE
8
BLACK
6
CONTINUOUS
10
0.820477
20
0.811699
11
0.821167
21
0.811192
0
LINE
8
BLACK
6
CONTINUOUS
10
0.821167
20
0.811192
11
0.821909
21
0.810763
0
LINE
8
BLACK
6
CONTINUOUS
10
0.821909
20
0.810763
11
0.821967
21
0.810604
0
LINE
8
BLACK
6
CONTINUOUS
10
0.821967
20
0.810604
11
0.822104
21
0.810503
0
LINE
8
BLACK
6
CONTINUOUS
10
0.822104
20
0.810503
11
0.825692
21
0.805122
0
LINE
8
BLACK
6
CONTINUOUS
10
0.825692
20
0.805122
11
0.828896
21
0.801918
0
LINE
8
BLACK
6
CONTINUOUS
10
0.828896
20
0.801918
11
0.832217
21
0.800258
0
LINE
8
BLACK
6
CONTINUOUS
10
0.832217
20
0.800258
11
0.83304
21
0.799647
0
LINE
8
BLACK
6
CONTINUOUS
10
0.83304
20
0.799647
11
0.833844
21
0.797794
0
LINE
8
BLACK
6
CONTINUOUS
10
0.833844
20
0.797794
11
0.833268
21
0.795858
0
LINE
8
BLACK
6
CONTINUOUS
10
0.833268
20
0.795858
11
0.831582
21
0.794745
0
LINE
8
BLACK
6
CONTINUOUS
10
0.831582
20
0.794745
11
0.829576
21
0.794976
0
LINE
8
BLACK
6
CONTINUOUS
10
0.829576
20
0.794976
11
0.825826
21
0.796851
0
LINE
8
BLACK
6
CONTINUOUS
10
0.825826
20
0.796851
11
0.825117
21
0.797376
0
LINE
8
BLACK
6
CONTINUOUS
10
0.825117
20
0.797376
11
0.825059
21
0.797404
0
LINE
8
BLACK
6
CONTINUOUS
10
0.825059
20
0.797404
11
0.8226
21
0.799862
0
LINE
8
BLACK
6
CONTINUOUS
10
0.8226
20
0.799862
11
0.8226
21
0.772448
0
LINE
8
BLACK
6
CONTINUOUS
10
0.8226
20
0.772448
11
0.830896
21
0.772448
0
LINE
8
BLACK
6
CONTINUOUS
10
0.830896
20
0.772448
11
0.831906
21
0.77227
0
LINE
8
BLACK
6
CONTINUOUS
10
0.831906
20
0.77227
11
0.833453
21
0.770972
0
LINE
8
BLACK
6
CONTINUOUS
10
0.833453
20
0.770972
11
0.833804
21
0.768983
0
LINE
8
BLACK
6
CONTINUOUS
10
0.833804
20
0.768983
11
0.832794
21
0.767233
0
LINE
8
BLACK
6
CONTINUOUS
10
0.832794
20
0.767233
11
0.830896
21
0.766543
0
LINE
8
BLACK
6
CONTINUOUS
10
0.830896
20
0.766543
11
0.808399
21
0.766543
0
LINE
8
BLACK
6
CONTINUOUS
10
0.808399
20
0.766543
11
0.807389
21
0.766721
0
LINE
8
BLACK
6
CONTINUOUS
10
0.807389
20
0.766721
11
0.805842
21
0.768019
0
LINE
8
BLACK
6
CONTINUOUS
10
0.805842
20
0.768019
11
0.805491
21
0.770008
0
LINE
8
BLACK
6
CONTINUOUS
10
0.805491
20
0.770008
11
0.806501
21
0.771757
0
LINE
8
BLACK
6
CONTINUOUS
10
0.806501
20
0.771757
11
0.808399
21
0.772448
0
LINE
8
BLACK
6
CONTINUOUS
10
0.808399
20
0.772448
11
0.816695
21
0.772448
0
LINE
8
BLACK
6
CONTINUOUS
10
0.816695
20
0.772448
11
0.816695
21
0.808865
0
LINE
8
BLACK
6
CONTINUOUS
10
0.816695
20
0.808865
11
0.816873
21
0.809875
0
LINE
8
BLACK
6
CONTINUOUS
10
0.816873
20
0.809875
11
0.816982
21
0.810005
0
LINE
8
BLACK
6
CONTINUOUS
10
0.816982
20
0.810005
11
0.817001
21
0.810174
0
LINE
8
BLACK
6
CONTINUOUS
10
0.817001
20
0.810174
11
0.81762
21
0.810766
0
LINE
8
BLACK
6
CONTINUOUS
10
0.81762
20
0.810766
11
0.818171
21
0.811423
0
LINE
8
BLACK
6
CONTINUOUS
10
0.818171
20
0.811423
11
0.818338
21
0.811452
0
LINE
8
BLACK
6
CONTINUOUS
10
0.818338
20
0.811452
11
0.818461
21
0.811569
0
LINE
8
BLACK
6
CONTINUOUS
10
0.818461
20
0.811569
11
0.819316
21
0.811624
0
LINE
8
BLACK
6
CONTINUOUS
10
0.819316
20
0.811624
11
0.82016
21
0.811773
0
LINE
8
BLACK
6
CONTINUOUS
10
0.82016
20
0.811773
11
0.820307
21
0.811688
0
LINE
8
BLACK
6
CONTINUOUS
10
0.850031
20
0.810763
11
0.850722
21
0.808865
0
LINE
8
BLACK
6
CONTINUOUS
10
0.850722
20
0.808865
11
0.850722
21
0.781223
0
LINE
8
BLACK
6
CONTINUOUS
10
0.850722
20
0.781223
11
0.852225
21
0.776715
0
LINE
8
BLACK
6
CONTINUOUS
10
0.852225
20
0.776715
11
0.854988
21
0.773951
0
LINE
8
BLACK
6
CONTINUOUS
10
0.854988
20
0.773951
11
0.859497
21
0.772448
0
LINE
8
BLACK
6
CONTINUOUS
10
0.859497
20
0.772448
11
0.862767
21
0.772448
0
LINE
8
BLACK
6
CONTINUOUS
10
0.862767
20
0.772448
11
0.863777
21
0.77227
0
LINE
8
BLACK
6
CONTINUOUS
10
0.863777
20
0.77227
11
0.865324
21
0.770972
0
LINE
8
BLACK
6
CONTINUOUS
10
0.865324
20
0.770972
11
0.865675
21
0.768983
0
LINE
8
BLACK
6
CONTINUOUS
10
0.865675
20
0.768983
11
0.864665
21
0.767233
0
LINE
8
BLACK
6
CONTINUOUS
10
0.864665
20
0.767233
11
0.862767
21
0.766543
0
LINE
8
BLACK
6
CONTINUOUS
10
0.862767
20
0.766543
11
0.859018
21
0.766543
0
LINE
8
BLACK
6
CONTINUOUS
10
0.859018
20
0.766543
11
0.858148
21
0.766696
0
LINE
8
BLACK
6
CONTINUOUS
10
0.858148
20
0.766696
11
0.858084
21
0.766694
0
LINE
8
BLACK
6
CONTINUOUS
10
0.858084
20
0.766694
11
0.85246
21
0.768569
0
LINE
8
BLACK
6
CONTINUOUS
10
0.85246
20
0.768569
11
0.851558
21
0.769057
0
LINE
8
BLACK
6
CONTINUOUS
10
0.851558
20
0.769057
11
0.851465
21
0.769208
0
LINE
8
BLACK
6
CONTINUOUS
10
0.851465
20
0.769208
11
0.851305
21
0.769282
0
LINE
8
BLACK
6
CONTINUOUS
10
0.851305
20
0.769282
11
0.847556
21
0.773032
0
LINE
8
BLACK
6
CONTINUOUS
10
0.847556
20
0.773032
11
0.846968
21
0.773872
0
LINE
8
BLACK
6
CONTINUOUS
10
0.846968
20
0.773872
11
0.846952
21
0.774048
0
LINE
8
BLACK
6
CONTINUOUS
10
0.846952
20
0.774048
11
0.846843
21
0.774186
0
LINE
8
BLACK
6
CONTINUOUS
10
0.846843
20
0.774186
11
0.844968
21
0.77981
0
LINE
8
BLACK
6
CONTINUOUS
10
0.844968
20
0.77981
11
0.844838
21
0.780683
0
LINE
8
BLACK
6
CONTINUOUS
10
0.844838
20
0.780683
11
0.844816
21
0.780744
0
LINE
8
BLACK
6
CONTINUOUS
10
0.844816
20
0.780744
11
0.844816
21
0.808865
0
LINE
8
BLACK
6
CONTINUOUS
10
0.844816
20
0.808865
11
0.844994
21
0.809875
0
LINE
8
BLACK
6
CONTINUOUS
10
0.844994
20
0.809875
11
0.846293
21
0.811423
0
LINE
8
BLACK
6
CONTINUOUS
10
0.846293
20
0.811423
11
0.848282
21
0.811773
0
LINE
8
BLACK
6
CONTINUOUS
10
0.848282
20
0.811773
11
0.850031
21
0.810763
0
CIRCLE
8
BLACK
10
-0.216535
20
0.37505
40
0.00688976
0
CIRCLE
8
BLACK
10
-0.216535
20
-0.37505
40
0.00688976
0
CIRCLE
8
BLACK
10
0.433071
20
0
40
0.00688976
  0
ENDSEC
  0
EOF
