  0
SECTION
  2
HEADER
  9
$ANGBASE
  50
0.0
  9
$ANGDIR
  70
1
  9
$MEASUREMENT
  70
0
  0
ENDSEC
  0
SECTION
  2
TABLES
  0
TABLE
  2
LTYPE
  70
4
  0
LTYPE
  5
40F
  2
CONTINUOUS
  70
0
  3
Solid line
  72
65
  73
0
  40
0.0
  0
LTYPE
  5
410
  2
DASHDOT
 70
0
  3
Dash Dot ____ _ ____ _
 72
65
 73
4
 40
2.0
 49
1.25
 49
-0.25
 49
0.25
 49
-0.25
  0
LTYPE
  5
411
  2
DASHED
 70
0
  3
Dashed __ __ __ __ __
 72
65
 73
2
 40
0.75
 49
0.5
 49
-0.25
  0
LTYPE
  5
43B
  2
DOTTED
 70
0
  3
Dotted .  .  .  .
 72
65
 73
2
 40
0.2
 49
0.0
 49
-0.2
  0
ENDTAB
  0
TABLE
  2
STYLE
  70
4
  0
STYLE
  2
KICAD
  70
0
  40
0
  41
1
  42
1
  50
0
  71
0
  3
isocp.shx
  0
STYLE
  2
KICADB
  70
0
  40
0
  41
1
  42
1
  50
0
  71
0
  3
isocp.shx
  0
STYLE
  2
KICADI
  70
0
  40
0
  41
1
  42
1
  50
15
  71
0
  3
isocp.shx
  0
STYLE
  2
KICADBI
  70
0
  40
0
  41
1
  42
1
  50
15
  71
0
  3
isocp.shx
  0
ENDTAB
  0
TABLE
  2
LAYER
  70
1
  0
LAYER
  2
BLACK
  70
0
  62
7
  6
CONTINUOUS
  0
ENDTAB
  0
ENDSEC
  0
SECTION
  2
ENTITIES
0
LINE
8
BLACK
6
CONTINUOUS
10
0.0772812
20
1.57276
11
0.0823661
21
1.57263
0
LINE
8
BLACK
6
CONTINUOUS
10
0.0823661
20
1.57263
11
0.0824676
21
1.57262
0
LINE
8
BLACK
6
CONTINUOUS
10
0.0824676
20
1.57262
11
0.14804
21
1.56746
0
LINE
8
BLACK
6
CONTINUOUS
10
0.14804
20
1.56746
11
0.164558
21
1.56616
0
LINE
8
BLACK
6
CONTINUOUS
10
0.164558
20
1.56616
11
0.16466
21
1.56615
0
LINE
8
BLACK
6
CONTINUOUS
10
0.16466
20
1.56615
11
0.178629
21
1.56431
0
LINE
8
BLACK
6
CONTINUOUS
10
0.178629
20
1.56431
11
0.246302
21
1.5554
0
LINE
8
BLACK
6
CONTINUOUS
10
0.246302
20
1.5554
11
0.2464
21
1.55538
0
LINE
8
BLACK
6
CONTINUOUS
10
0.2464
20
1.55538
11
0.327366
21
1.54038
0
LINE
8
BLACK
6
CONTINUOUS
10
0.327366
20
1.54038
11
0.327465
21
1.54036
0
LINE
8
BLACK
6
CONTINUOUS
10
0.327465
20
1.54036
11
0.407536
21
1.52113
0
LINE
8
BLACK
6
CONTINUOUS
10
0.407536
20
1.52113
11
0.407634
21
1.52111
0
LINE
8
BLACK
6
CONTINUOUS
10
0.407634
20
1.52111
11
0.486589
21
1.49772
0
LINE
8
BLACK
6
CONTINUOUS
10
0.486589
20
1.49772
11
0.486683
21
1.49769
0
LINE
8
BLACK
6
CONTINUOUS
10
0.486683
20
1.49769
11
0.564304
21
1.4702
0
LINE
8
BLACK
6
CONTINUOUS
10
0.564304
20
1.4702
11
0.564397
21
1.47017
0
LINE
8
BLACK
6
CONTINUOUS
10
0.564397
20
1.47017
11
0.640478
21
1.43865
0
LINE
8
BLACK
6
CONTINUOUS
10
0.640478
20
1.43865
11
0.640569
21
1.43861
0
LINE
8
BLACK
6
CONTINUOUS
10
0.640569
20
1.43861
11
0.640569
21
1.43861
0
LINE
8
BLACK
6
CONTINUOUS
10
0.640569
20
1.43861
11
0.71489
21
1.40317
0
LINE
8
BLACK
6
CONTINUOUS
10
0.71489
20
1.40317
11
0.71498
21
1.40312
0
LINE
8
BLACK
6
CONTINUOUS
10
0.71498
20
1.40312
11
0.787347
21
1.36383
0
LINE
8
BLACK
6
CONTINUOUS
10
0.787347
20
1.36383
11
0.787434
21
1.36378
0
LINE
8
BLACK
6
CONTINUOUS
10
0.787434
20
1.36378
11
0.857647
21
1.32075
0
LINE
8
BLACK
6
CONTINUOUS
10
0.857647
20
1.32075
11
0.857731
21
1.3207
0
LINE
8
BLACK
6
CONTINUOUS
10
0.857731
20
1.3207
11
0.924596
21
1.27474
0
LINE
8
BLACK
6
CONTINUOUS
10
0.924596
20
1.27474
11
0.925592
21
1.27406
0
LINE
8
BLACK
6
CONTINUOUS
10
0.925592
20
1.27406
11
0.925674
21
1.274
0
LINE
8
BLACK
6
CONTINUOUS
10
0.925674
20
1.274
11
0.954802
21
1.25164
0
LINE
8
BLACK
6
CONTINUOUS
10
0.954802
20
1.25164
11
0.991002
21
1.22387
0
LINE
8
BLACK
6
CONTINUOUS
10
0.991002
20
1.22387
11
0.991081
21
1.2238
0
LINE
8
BLACK
6
CONTINUOUS
10
0.991081
20
1.2238
11
1.0537
21
1.17032
0
LINE
8
BLACK
6
CONTINUOUS
10
1.0537
20
1.17032
11
1.05377
21
1.17026
0
LINE
8
BLACK
6
CONTINUOUS
10
1.05377
20
1.17026
11
1.1135
21
1.11358
0
LINE
8
BLACK
6
CONTINUOUS
10
1.1135
20
1.11358
11
1.11358
21
1.1135
0
LINE
8
BLACK
6
CONTINUOUS
10
1.11358
20
1.1135
11
1.17026
21
1.05377
0
LINE
8
BLACK
6
CONTINUOUS
10
1.17026
20
1.05377
11
1.17032
21
1.0537
0
LINE
8
BLACK
6
CONTINUOUS
10
1.17032
20
1.0537
11
1.2238
21
0.991082
0
LINE
8
BLACK
6
CONTINUOUS
10
1.2238
20
0.991082
11
1.2238
21
0.991082
0
LINE
8
BLACK
6
CONTINUOUS
10
1.2238
20
0.991082
11
1.22387
21
0.991003
0
LINE
8
BLACK
6
CONTINUOUS
10
1.22387
20
0.991003
11
1.274
21
0.925674
0
LINE
8
BLACK
6
CONTINUOUS
10
1.274
20
0.925674
11
1.27406
21
0.925592
0
LINE
8
BLACK
6
CONTINUOUS
10
1.27406
20
0.925592
11
1.30786
21
0.876402
0
LINE
8
BLACK
6
CONTINUOUS
10
1.30786
20
0.876402
11
1.32069
21
0.857732
0
LINE
8
BLACK
6
CONTINUOUS
10
1.32069
20
0.857732
11
1.32069
21
0.857732
0
LINE
8
BLACK
6
CONTINUOUS
10
1.32069
20
0.857732
11
1.32075
21
0.857647
0
LINE
8
BLACK
6
CONTINUOUS
10
1.32075
20
0.857647
11
1.32953
21
0.843316
0
LINE
8
BLACK
6
CONTINUOUS
10
1.32953
20
0.843316
11
1.36378
21
0.787435
0
LINE
8
BLACK
6
CONTINUOUS
10
1.36378
20
0.787435
11
1.36383
21
0.787347
0
LINE
8
BLACK
6
CONTINUOUS
10
1.36383
20
0.787347
11
1.40312
21
0.714981
0
LINE
8
BLACK
6
CONTINUOUS
10
1.40312
20
0.714981
11
1.40317
21
0.71489
0
LINE
8
BLACK
6
CONTINUOUS
10
1.40317
20
0.71489
11
1.43861
21
0.640569
0
LINE
8
BLACK
6
CONTINUOUS
10
1.43861
20
0.640569
11
1.43865
21
0.640477
0
LINE
8
BLACK
6
CONTINUOUS
10
1.43865
20
0.640477
11
1.47017
21
0.564399
0
LINE
8
BLACK
6
CONTINUOUS
10
1.47017
20
0.564399
11
1.4702
21
0.564304
0
LINE
8
BLACK
6
CONTINUOUS
10
1.4702
20
0.564304
11
1.49769
21
0.486684
0
LINE
8
BLACK
6
CONTINUOUS
10
1.49769
20
0.486684
11
1.49772
21
0.486587
0
LINE
8
BLACK
6
CONTINUOUS
10
1.49772
20
0.486587
11
1.52111
21
0.407634
0
LINE
8
BLACK
6
CONTINUOUS
10
1.52111
20
0.407634
11
1.52113
21
0.407535
0
LINE
8
BLACK
6
CONTINUOUS
10
1.52113
20
0.407535
11
1.54036
21
0.327466
0
LINE
8
BLACK
6
CONTINUOUS
10
1.54036
20
0.327466
11
1.54038
21
0.327366
0
LINE
8
BLACK
6
CONTINUOUS
10
1.54038
20
0.327366
11
1.54952
21
0.278065
0
LINE
8
BLACK
6
CONTINUOUS
10
1.54952
20
0.278065
11
1.55419
21
0.25283
0
LINE
8
BLACK
6
CONTINUOUS
10
1.55419
20
0.25283
11
1.55538
21
0.246401
0
LINE
8
BLACK
6
CONTINUOUS
10
1.55538
20
0.246401
11
1.5554
21
0.246301
0
LINE
8
BLACK
6
CONTINUOUS
10
1.5554
20
0.246301
11
1.56615
21
0.16466
0
LINE
8
BLACK
6
CONTINUOUS
10
1.56615
20
0.16466
11
1.56616
21
0.164559
0
LINE
8
BLACK
6
CONTINUOUS
10
1.56616
20
0.164559
11
1.57262
21
0.0824681
0
LINE
8
BLACK
6
CONTINUOUS
10
1.57262
20
0.0824681
11
1.57263
21
0.0823662
0
LINE
8
BLACK
6
CONTINUOUS
10
1.57263
20
0.0823662
11
1.57478
21
5.1063e-05
0
LINE
8
BLACK
6
CONTINUOUS
10
1.57478
20
5.1063e-05
11
1.57478
21
-5.09449e-05
0
LINE
8
BLACK
6
CONTINUOUS
10
1.57478
20
-5.09449e-05
11
1.57263
21
-0.0823665
0
LINE
8
BLACK
6
CONTINUOUS
10
1.57263
20
-0.0823665
11
1.57262
21
-0.0824684
0
LINE
8
BLACK
6
CONTINUOUS
10
1.57262
20
-0.0824684
11
1.56616
21
-0.164559
0
LINE
8
BLACK
6
CONTINUOUS
10
1.56616
20
-0.164559
11
1.56615
21
-0.16466
0
LINE
8
BLACK
6
CONTINUOUS
10
1.56615
20
-0.16466
11
1.5554
21
-0.2463
0
LINE
8
BLACK
6
CONTINUOUS
10
1.5554
20
-0.2463
11
1.55538
21
-0.246401
0
LINE
8
BLACK
6
CONTINUOUS
10
1.55538
20
-0.246401
11
1.54038
21
-0.327367
0
LINE
8
BLACK
6
CONTINUOUS
10
1.54038
20
-0.327367
11
1.54036
21
-0.327467
0
LINE
8
BLACK
6
CONTINUOUS
10
1.54036
20
-0.327467
11
1.52113
21
-0.407536
0
LINE
8
BLACK
6
CONTINUOUS
10
1.52113
20
-0.407536
11
1.52111
21
-0.407634
0
LINE
8
BLACK
6
CONTINUOUS
10
1.52111
20
-0.407634
11
1.49772
21
-0.486587
0
LINE
8
BLACK
6
CONTINUOUS
10
1.49772
20
-0.486587
11
1.49769
21
-0.486684
0
LINE
8
BLACK
6
CONTINUOUS
10
1.49769
20
-0.486684
11
1.4702
21
-0.564304
0
LINE
8
BLACK
6
CONTINUOUS
10
1.4702
20
-0.564304
11
1.47017
21
-0.564399
0
LINE
8
BLACK
6
CONTINUOUS
10
1.47017
20
-0.564399
11
1.43866
21
-0.640476
0
LINE
8
BLACK
6
CONTINUOUS
10
1.43866
20
-0.640476
11
1.43861
21
-0.640569
0
LINE
8
BLACK
6
CONTINUOUS
10
1.43861
20
-0.640569
11
1.40317
21
-0.71489
0
LINE
8
BLACK
6
CONTINUOUS
10
1.40317
20
-0.71489
11
1.40312
21
-0.714981
0
LINE
8
BLACK
6
CONTINUOUS
10
1.40312
20
-0.714981
11
1.36383
21
-0.787347
0
LINE
8
BLACK
6
CONTINUOUS
10
1.36383
20
-0.787347
11
1.36378
21
-0.787435
0
LINE
8
BLACK
6
CONTINUOUS
10
1.36378
20
-0.787435
11
1.32075
21
-0.857647
0
LINE
8
BLACK
6
CONTINUOUS
10
1.32075
20
-0.857647
11
1.32069
21
-0.857732
0
LINE
8
BLACK
6
CONTINUOUS
10
1.32069
20
-0.857732
11
1.27406
21
-0.925592
0
LINE
8
BLACK
6
CONTINUOUS
10
1.27406
20
-0.925592
11
1.274
21
-0.925675
0
LINE
8
BLACK
6
CONTINUOUS
10
1.274
20
-0.925675
11
1.22387
21
-0.991003
0
LINE
8
BLACK
6
CONTINUOUS
10
1.22387
20
-0.991003
11
1.2238
21
-0.991082
0
LINE
8
BLACK
6
CONTINUOUS
10
1.2238
20
-0.991082
11
1.18654
21
-1.03471
0
LINE
8
BLACK
6
CONTINUOUS
10
1.18654
20
-1.03471
11
1.17033
21
-1.0537
0
LINE
8
BLACK
6
CONTINUOUS
10
1.17033
20
-1.0537
11
1.17033
21
-1.0537
0
LINE
8
BLACK
6
CONTINUOUS
10
1.17033
20
-1.0537
11
1.17026
21
-1.05377
0
LINE
8
BLACK
6
CONTINUOUS
10
1.17026
20
-1.05377
11
1.11358
21
-1.1135
0
LINE
8
BLACK
6
CONTINUOUS
10
1.11358
20
-1.1135
11
1.1135
21
-1.11358
0
LINE
8
BLACK
6
CONTINUOUS
10
1.1135
20
-1.11358
11
1.05377
21
-1.17026
0
LINE
8
BLACK
6
CONTINUOUS
10
1.05377
20
-1.17026
11
1.0537
21
-1.17033
0
LINE
8
BLACK
6
CONTINUOUS
10
1.0537
20
-1.17033
11
0.991082
21
-1.2238
0
LINE
8
BLACK
6
CONTINUOUS
10
0.991082
20
-1.2238
11
0.991002
21
-1.22387
0
LINE
8
BLACK
6
CONTINUOUS
10
0.991002
20
-1.22387
11
0.925674
21
-1.274
0
LINE
8
BLACK
6
CONTINUOUS
10
0.925674
20
-1.274
11
0.925592
21
-1.27406
0
LINE
8
BLACK
6
CONTINUOUS
10
0.925592
20
-1.27406
11
0.857732
21
-1.3207
0
LINE
8
BLACK
6
CONTINUOUS
10
0.857732
20
-1.3207
11
0.857646
21
-1.32075
0
LINE
8
BLACK
6
CONTINUOUS
10
0.857646
20
-1.32075
11
0.787434
21
-1.36378
0
LINE
8
BLACK
6
CONTINUOUS
10
0.787434
20
-1.36378
11
0.787346
21
-1.36383
0
LINE
8
BLACK
6
CONTINUOUS
10
0.787346
20
-1.36383
11
0.714981
21
-1.40312
0
LINE
8
BLACK
6
CONTINUOUS
10
0.714981
20
-1.40312
11
0.71489
21
-1.40317
0
LINE
8
BLACK
6
CONTINUOUS
10
0.71489
20
-1.40317
11
0.64057
21
-1.43861
0
LINE
8
BLACK
6
CONTINUOUS
10
0.64057
20
-1.43861
11
0.640477
21
-1.43866
0
LINE
8
BLACK
6
CONTINUOUS
10
0.640477
20
-1.43866
11
0.564397
21
-1.47017
0
LINE
8
BLACK
6
CONTINUOUS
10
0.564397
20
-1.47017
11
0.564302
21
-1.4702
0
LINE
8
BLACK
6
CONTINUOUS
10
0.564302
20
-1.4702
11
0.503511
21
-1.49173
0
LINE
8
BLACK
6
CONTINUOUS
10
0.503511
20
-1.49173
11
0.486683
21
-1.49769
0
LINE
8
BLACK
6
CONTINUOUS
10
0.486683
20
-1.49769
11
0.486587
21
-1.49772
0
LINE
8
BLACK
6
CONTINUOUS
10
0.486587
20
-1.49772
11
0.407634
21
-1.52111
0
LINE
8
BLACK
6
CONTINUOUS
10
0.407634
20
-1.52111
11
0.407535
21
-1.52113
0
LINE
8
BLACK
6
CONTINUOUS
10
0.407535
20
-1.52113
11
0.327466
21
-1.54036
0
LINE
8
BLACK
6
CONTINUOUS
10
0.327466
20
-1.54036
11
0.327366
21
-1.54038
0
LINE
8
BLACK
6
CONTINUOUS
10
0.327366
20
-1.54038
11
0.246401
21
-1.55538
0
LINE
8
BLACK
6
CONTINUOUS
10
0.246401
20
-1.55538
11
0.2463
21
-1.5554
0
LINE
8
BLACK
6
CONTINUOUS
10
0.2463
20
-1.5554
11
0.16466
21
-1.56615
0
LINE
8
BLACK
6
CONTINUOUS
10
0.16466
20
-1.56615
11
0.164558
21
-1.56616
0
LINE
8
BLACK
6
CONTINUOUS
10
0.164558
20
-1.56616
11
0.082468
21
-1.57262
0
LINE
8
BLACK
6
CONTINUOUS
10
0.082468
20
-1.57262
11
0.0823661
21
-1.57263
0
LINE
8
BLACK
6
CONTINUOUS
10
0.0823661
20
-1.57263
11
5.09843e-05
21
-1.57478
0
LINE
8
BLACK
6
CONTINUOUS
10
5.09843e-05
20
-1.57478
11
-5.10236e-05
21
-1.57478
0
LINE
8
BLACK
6
CONTINUOUS
10
-5.10236e-05
20
-1.57478
11
-0.0823665
21
-1.57263
0
LINE
8
BLACK
6
CONTINUOUS
10
-0.0823665
20
-1.57263
11
-0.0824683
21
-1.57262
0
LINE
8
BLACK
6
CONTINUOUS
10
-0.0824683
20
-1.57262
11
-0.164559
21
-1.56616
0
LINE
8
BLACK
6
CONTINUOUS
10
-0.164559
20
-1.56616
11
-0.16466
21
-1.56615
0
LINE
8
BLACK
6
CONTINUOUS
10
-0.16466
20
-1.56615
11
-0.2463
21
-1.5554
0
LINE
8
BLACK
6
CONTINUOUS
10
-0.2463
20
-1.5554
11
-0.246401
21
-1.55538
0
LINE
8
BLACK
6
CONTINUOUS
10
-0.246401
20
-1.55538
11
-0.327367
21
-1.54038
0
LINE
8
BLACK
6
CONTINUOUS
10
-0.327367
20
-1.54038
11
-0.327467
21
-1.54036
0
LINE
8
BLACK
6
CONTINUOUS
10
-0.327467
20
-1.54036
11
-0.407536
21
-1.52113
0
LINE
8
BLACK
6
CONTINUOUS
10
-0.407536
20
-1.52113
11
-0.407634
21
-1.52111
0
LINE
8
BLACK
6
CONTINUOUS
10
-0.407634
20
-1.52111
11
-0.411368
21
-1.52
0
LINE
8
BLACK
6
CONTINUOUS
10
-0.411368
20
-1.52
11
-0.486588
21
-1.49772
0
LINE
8
BLACK
6
CONTINUOUS
10
-0.486588
20
-1.49772
11
-0.486684
21
-1.49769
0
LINE
8
BLACK
6
CONTINUOUS
10
-0.486684
20
-1.49769
11
-0.564304
21
-1.4702
0
LINE
8
BLACK
6
CONTINUOUS
10
-0.564304
20
-1.4702
11
-0.564398
21
-1.47017
0
LINE
8
BLACK
6
CONTINUOUS
10
-0.564398
20
-1.47017
11
-0.640476
21
-1.43865
0
LINE
8
BLACK
6
CONTINUOUS
10
-0.640476
20
-1.43865
11
-0.640569
21
-1.43861
0
LINE
8
BLACK
6
CONTINUOUS
10
-0.640569
20
-1.43861
11
-0.714891
21
-1.40317
0
LINE
8
BLACK
6
CONTINUOUS
10
-0.714891
20
-1.40317
11
-0.714981
21
-1.40312
0
LINE
8
BLACK
6
CONTINUOUS
10
-0.714981
20
-1.40312
11
-0.787347
21
-1.36383
0
LINE
8
BLACK
6
CONTINUOUS
10
-0.787347
20
-1.36383
11
-0.787435
21
-1.36378
0
LINE
8
BLACK
6
CONTINUOUS
10
-0.787435
20
-1.36378
11
-0.857633
21
-1.32076
0
LINE
8
BLACK
6
CONTINUOUS
10
-0.857633
20
-1.32076
11
-0.857647
21
-1.32075
0
LINE
8
BLACK
6
CONTINUOUS
10
-0.857647
20
-1.32075
11
-0.857732
21
-1.32069
0
LINE
8
BLACK
6
CONTINUOUS
10
-0.857732
20
-1.32069
11
-0.876412
21
-1.30786
0
LINE
8
BLACK
6
CONTINUOUS
10
-0.876412
20
-1.30786
11
-0.925592
21
-1.27406
0
LINE
8
BLACK
6
CONTINUOUS
10
-0.925592
20
-1.27406
11
-0.925675
21
-1.274
0
LINE
8
BLACK
6
CONTINUOUS
10
-0.925675
20
-1.274
11
-0.925675
21
-1.274
0
LINE
8
BLACK
6
CONTINUOUS
10
-0.925675
20
-1.274
11
-0.937269
21
-1.2651
0
LINE
8
BLACK
6
CONTINUOUS
10
-0.937269
20
-1.2651
11
-0.991003
21
-1.22387
0
LINE
8
BLACK
6
CONTINUOUS
10
-0.991003
20
-1.22387
11
-0.991082
21
-1.2238
0
LINE
8
BLACK
6
CONTINUOUS
10
-0.991082
20
-1.2238
11
-1.0537
21
-1.17032
0
LINE
8
BLACK
6
CONTINUOUS
10
-1.0537
20
-1.17032
11
-1.05377
21
-1.17026
0
LINE
8
BLACK
6
CONTINUOUS
10
-1.05377
20
-1.17026
11
-1.1135
21
-1.11358
0
LINE
8
BLACK
6
CONTINUOUS
10
-1.1135
20
-1.11358
11
-1.11358
21
-1.1135
0
LINE
8
BLACK
6
CONTINUOUS
10
-1.11358
20
-1.1135
11
-1.17026
21
-1.05377
0
LINE
8
BLACK
6
CONTINUOUS
10
-1.17026
20
-1.05377
11
-1.17033
21
-1.0537
0
LINE
8
BLACK
6
CONTINUOUS
10
-1.17033
20
-1.0537
11
-1.2238
21
-0.991081
0
LINE
8
BLACK
6
CONTINUOUS
10
-1.2238
20
-0.991081
11
-1.22387
21
-0.991002
0
LINE
8
BLACK
6
CONTINUOUS
10
-1.22387
20
-0.991002
11
-1.274
21
-0.925675
0
LINE
8
BLACK
6
CONTINUOUS
10
-1.274
20
-0.925675
11
-1.274
21
-0.925675
0
LINE
8
BLACK
6
CONTINUOUS
10
-1.274
20
-0.925675
11
-1.274
21
-0.925674
0
LINE
8
BLACK
6
CONTINUOUS
10
-1.274
20
-0.925674
11
-1.27406
21
-0.925592
0
LINE
8
BLACK
6
CONTINUOUS
10
-1.27406
20
-0.925592
11
-1.27472
21
-0.924625
0
LINE
8
BLACK
6
CONTINUOUS
10
-1.27472
20
-0.924625
11
-1.3207
21
-0.857731
0
LINE
8
BLACK
6
CONTINUOUS
10
-1.3207
20
-0.857731
11
-1.32075
21
-0.857647
0
LINE
8
BLACK
6
CONTINUOUS
10
-1.32075
20
-0.857647
11
-1.35897
21
-0.795276
0
LINE
8
BLACK
6
CONTINUOUS
10
-1.35897
20
-0.795276
11
-1.36378
21
-0.787434
0
LINE
8
BLACK
6
CONTINUOUS
10
-1.36378
20
-0.787434
11
-1.36383
21
-0.787347
0
LINE
8
BLACK
6
CONTINUOUS
10
-1.36383
20
-0.787347
11
-1.40312
21
-0.71498
0
LINE
8
BLACK
6
CONTINUOUS
10
-1.40312
20
-0.71498
11
-1.40317
21
-0.71489
0
LINE
8
BLACK
6
CONTINUOUS
10
-1.40317
20
-0.71489
11
-1.41729
21
-0.685277
0
LINE
8
BLACK
6
CONTINUOUS
10
-1.41729
20
-0.685277
11
-1.43861
21
-0.640569
0
LINE
8
BLACK
6
CONTINUOUS
10
-1.43861
20
-0.640569
11
-1.43865
21
-0.640478
0
LINE
8
BLACK
6
CONTINUOUS
10
-1.43865
20
-0.640478
11
-1.47017
21
-0.564397
0
LINE
8
BLACK
6
CONTINUOUS
10
-1.47017
20
-0.564397
11
-1.4702
21
-0.564304
0
LINE
8
BLACK
6
CONTINUOUS
10
-1.4702
20
-0.564304
11
-1.49769
21
-0.486683
0
LINE
8
BLACK
6
CONTINUOUS
10
-1.49769
20
-0.486683
11
-1.49772
21
-0.486589
0
LINE
8
BLACK
6
CONTINUOUS
10
-1.49772
20
-0.486589
11
-1.52111
21
-0.407634
0
LINE
8
BLACK
6
CONTINUOUS
10
-1.52111
20
-0.407634
11
-1.52113
21
-0.407535
0
LINE
8
BLACK
6
CONTINUOUS
10
-1.52113
20
-0.407535
11
-1.54036
21
-0.327466
0
LINE
8
BLACK
6
CONTINUOUS
10
-1.54036
20
-0.327466
11
-1.54038
21
-0.327366
0
LINE
8
BLACK
6
CONTINUOUS
10
-1.54038
20
-0.327366
11
-1.54158
21
-0.320886
0
LINE
8
BLACK
6
CONTINUOUS
10
-1.54158
20
-0.320886
11
-1.55538
21
-0.2464
0
LINE
8
BLACK
6
CONTINUOUS
10
-1.55538
20
-0.2464
11
-1.5554
21
-0.246302
0
LINE
8
BLACK
6
CONTINUOUS
10
-1.5554
20
-0.246302
11
-1.56615
21
-0.16466
0
LINE
8
BLACK
6
CONTINUOUS
10
-1.56615
20
-0.16466
11
-1.56616
21
-0.164558
0
LINE
8
BLACK
6
CONTINUOUS
10
-1.56616
20
-0.164558
11
-1.57048
21
-0.109736
0
LINE
8
BLACK
6
CONTINUOUS
10
-1.57048
20
-0.109736
11
-1.57262
21
-0.082467
0
LINE
8
BLACK
6
CONTINUOUS
10
-1.57262
20
-0.082467
11
-1.57263
21
-0.0823657
0
LINE
8
BLACK
6
CONTINUOUS
10
-1.57263
20
-0.0823657
11
-1.57304
21
-0.0667077
0
LINE
8
BLACK
6
CONTINUOUS
10
-1.57304
20
-0.0667077
11
-1.57478
21
-4.95669e-05
0
LINE
8
BLACK
6
CONTINUOUS
10
-1.57478
20
-4.95669e-05
11
-1.57478
21
3.93701e-08
0
LINE
8
BLACK
6
CONTINUOUS
10
-1.57478
20
3.93701e-08
11
-1.57478
21
4.9685e-05
0
LINE
8
BLACK
6
CONTINUOUS
10
-1.57478
20
4.9685e-05
11
-1.57263
21
0.0823663
0
LINE
8
BLACK
6
CONTINUOUS
10
-1.57263
20
0.0823663
11
-1.57262
21
0.0824683
0
LINE
8
BLACK
6
CONTINUOUS
10
-1.57262
20
0.0824683
11
-1.57215
21
0.088502
0
LINE
8
BLACK
6
CONTINUOUS
10
-1.57215
20
0.088502
11
-1.56616
21
0.164559
0
LINE
8
BLACK
6
CONTINUOUS
10
-1.56616
20
0.164559
11
-1.56615
21
0.16466
0
LINE
8
BLACK
6
CONTINUOUS
10
-1.56615
20
0.16466
11
-1.56298
21
0.188727
0
LINE
8
BLACK
6
CONTINUOUS
10
-1.56298
20
0.188727
11
-1.5554
21
0.246302
0
LINE
8
BLACK
6
CONTINUOUS
10
-1.5554
20
0.246302
11
-1.55539
21
0.2464
0
LINE
8
BLACK
6
CONTINUOUS
10
-1.55539
20
0.2464
11
-1.54038
21
0.327367
0
LINE
8
BLACK
6
CONTINUOUS
10
-1.54038
20
0.327367
11
-1.54036
21
0.327465
0
LINE
8
BLACK
6
CONTINUOUS
10
-1.54036
20
0.327465
11
-1.52113
21
0.407537
0
LINE
8
BLACK
6
CONTINUOUS
10
-1.52113
20
0.407537
11
-1.52111
21
0.407634
0
LINE
8
BLACK
6
CONTINUOUS
10
-1.52111
20
0.407634
11
-1.49772
21
0.48659
0
LINE
8
BLACK
6
CONTINUOUS
10
-1.49772
20
0.48659
11
-1.49769
21
0.486683
0
LINE
8
BLACK
6
CONTINUOUS
10
-1.49769
20
0.486683
11
-1.4702
21
0.564305
0
LINE
8
BLACK
6
CONTINUOUS
10
-1.4702
20
0.564305
11
-1.47017
21
0.564396
0
LINE
8
BLACK
6
CONTINUOUS
10
-1.47017
20
0.564396
11
-1.43865
21
0.640479
0
LINE
8
BLACK
6
CONTINUOUS
10
-1.43865
20
0.640479
11
-1.43861
21
0.640568
0
LINE
8
BLACK
6
CONTINUOUS
10
-1.43861
20
0.640568
11
-1.40317
21
0.714891
0
LINE
8
BLACK
6
CONTINUOUS
10
-1.40317
20
0.714891
11
-1.40312
21
0.71498
0
LINE
8
BLACK
6
CONTINUOUS
10
-1.40312
20
0.71498
11
-1.36383
21
0.787348
0
LINE
8
BLACK
6
CONTINUOUS
10
-1.36383
20
0.787348
11
-1.36378
21
0.787434
0
LINE
8
BLACK
6
CONTINUOUS
10
-1.36378
20
0.787434
11
-1.32075
21
0.857648
0
LINE
8
BLACK
6
CONTINUOUS
10
-1.32075
20
0.857648
11
-1.3207
21
0.857731
0
LINE
8
BLACK
6
CONTINUOUS
10
-1.3207
20
0.857731
11
-1.27406
21
0.925593
0
LINE
8
BLACK
6
CONTINUOUS
10
-1.27406
20
0.925593
11
-1.274
21
0.925674
0
LINE
8
BLACK
6
CONTINUOUS
10
-1.274
20
0.925674
11
-1.22387
21
0.991003
0
LINE
8
BLACK
6
CONTINUOUS
10
-1.22387
20
0.991003
11
-1.2238
21
0.991081
0
LINE
8
BLACK
6
CONTINUOUS
10
-1.2238
20
0.991081
11
-1.17032
21
1.0537
0
LINE
8
BLACK
6
CONTINUOUS
10
-1.17032
20
1.0537
11
-1.17026
21
1.05377
0
LINE
8
BLACK
6
CONTINUOUS
10
-1.17026
20
1.05377
11
-1.11358
21
1.11351
0
LINE
8
BLACK
6
CONTINUOUS
10
-1.11358
20
1.11351
11
-1.1135
21
1.11358
0
LINE
8
BLACK
6
CONTINUOUS
10
-1.1135
20
1.11358
11
-1.05377
21
1.17026
0
LINE
8
BLACK
6
CONTINUOUS
10
-1.05377
20
1.17026
11
-1.0537
21
1.17032
0
LINE
8
BLACK
6
CONTINUOUS
10
-1.0537
20
1.17032
11
-0.99108
21
1.2238
0
LINE
8
BLACK
6
CONTINUOUS
10
-0.99108
20
1.2238
11
-0.991004
21
1.22387
0
LINE
8
BLACK
6
CONTINUOUS
10
-0.991004
20
1.22387
11
-0.925674
21
1.274
0
LINE
8
BLACK
6
CONTINUOUS
10
-0.925674
20
1.274
11
-0.925594
21
1.27406
0
LINE
8
BLACK
6
CONTINUOUS
10
-0.925594
20
1.27406
11
-0.857731
21
1.3207
0
LINE
8
BLACK
6
CONTINUOUS
10
-0.857731
20
1.3207
11
-0.857649
21
1.32075
0
LINE
8
BLACK
6
CONTINUOUS
10
-0.857649
20
1.32075
11
-0.787434
21
1.36378
0
LINE
8
BLACK
6
CONTINUOUS
10
-0.787434
20
1.36378
11
-0.787348
21
1.36383
0
LINE
8
BLACK
6
CONTINUOUS
10
-0.787348
20
1.36383
11
-0.714979
21
1.40312
0
LINE
8
BLACK
6
CONTINUOUS
10
-0.714979
20
1.40312
11
-0.714891
21
1.40317
0
LINE
8
BLACK
6
CONTINUOUS
10
-0.714891
20
1.40317
11
-0.640569
21
1.43861
0
LINE
8
BLACK
6
CONTINUOUS
10
-0.640569
20
1.43861
11
-0.640479
21
1.43865
0
LINE
8
BLACK
6
CONTINUOUS
10
-0.640479
20
1.43865
11
-0.564396
21
1.47017
0
LINE
8
BLACK
6
CONTINUOUS
10
-0.564396
20
1.47017
11
-0.564305
21
1.4702
0
LINE
8
BLACK
6
CONTINUOUS
10
-0.564305
20
1.4702
11
-0.486682
21
1.49769
0
LINE
8
BLACK
6
CONTINUOUS
10
-0.486682
20
1.49769
11
-0.486589
21
1.49772
0
LINE
8
BLACK
6
CONTINUOUS
10
-0.486589
20
1.49772
11
-0.407633
21
1.52111
0
LINE
8
BLACK
6
CONTINUOUS
10
-0.407633
20
1.52111
11
-0.407536
21
1.52113
0
LINE
8
BLACK
6
CONTINUOUS
10
-0.407536
20
1.52113
11
-0.327465
21
1.54036
0
LINE
8
BLACK
6
CONTINUOUS
10
-0.327465
20
1.54036
11
-0.327367
21
1.54038
0
LINE
8
BLACK
6
CONTINUOUS
10
-0.327367
20
1.54038
11
-0.2464
21
1.55539
0
LINE
8
BLACK
6
CONTINUOUS
10
-0.2464
20
1.55539
11
-0.246302
21
1.5554
0
LINE
8
BLACK
6
CONTINUOUS
10
-0.246302
20
1.5554
11
-0.168759
21
1.56561
0
LINE
8
BLACK
6
CONTINUOUS
10
-0.168759
20
1.56561
11
-0.16466
21
1.56615
0
LINE
8
BLACK
6
CONTINUOUS
10
-0.16466
20
1.56615
11
-0.164559
21
1.56616
0
LINE
8
BLACK
6
CONTINUOUS
10
-0.164559
20
1.56616
11
-0.164122
21
1.5662
0
LINE
8
BLACK
6
CONTINUOUS
10
-0.164122
20
1.5662
11
-0.0824675
21
1.57262
0
LINE
8
BLACK
6
CONTINUOUS
10
-0.0824675
20
1.57262
11
-0.0823662
21
1.57263
0
LINE
8
BLACK
6
CONTINUOUS
10
-0.0823662
20
1.57263
11
-0.0798715
21
1.57269
0
LINE
8
BLACK
6
CONTINUOUS
10
-0.0798715
20
1.57269
11
-4.9685e-05
21
1.57478
0
LINE
8
BLACK
6
CONTINUOUS
10
-4.9685e-05
20
1.57478
11
4.96063e-05
21
1.57478
0
LINE
8
BLACK
6
CONTINUOUS
10
4.96063e-05
20
1.57478
11
0.0772812
21
1.57276
0
LINE
8
BLACK
6
CONTINUOUS
10
0.75264
20
0.83193
11
0.760926
21
0.829709
0
LINE
8
BLACK
6
CONTINUOUS
10
0.760926
20
0.829709
11
0.768701
21
0.826084
0
LINE
8
BLACK
6
CONTINUOUS
10
0.768701
20
0.826084
11
0.775728
21
0.821164
0
LINE
8
BLACK
6
CONTINUOUS
10
0.775728
20
0.821164
11
0.781794
21
0.815098
0
LINE
8
BLACK
6
CONTINUOUS
10
0.781794
20
0.815098
11
0.786714
21
0.808071
0
LINE
8
BLACK
6
CONTINUOUS
10
0.786714
20
0.808071
11
0.790339
21
0.800296
0
LINE
8
BLACK
6
CONTINUOUS
10
0.790339
20
0.800296
11
0.792559
21
0.79201
0
LINE
8
BLACK
6
CONTINUOUS
10
0.792559
20
0.79201
11
0.793307
21
0.783465
0
LINE
8
BLACK
6
CONTINUOUS
10
0.793307
20
0.783465
11
0.792559
21
0.774919
0
LINE
8
BLACK
6
CONTINUOUS
10
0.792559
20
0.774919
11
0.790339
21
0.766633
0
LINE
8
BLACK
6
CONTINUOUS
10
0.790339
20
0.766633
11
0.786714
21
0.758858
0
LINE
8
BLACK
6
CONTINUOUS
10
0.786714
20
0.758858
11
0.781794
21
0.751831
0
LINE
8
BLACK
6
CONTINUOUS
10
0.781794
20
0.751831
11
0.775728
21
0.745766
0
LINE
8
BLACK
6
CONTINUOUS
10
0.775728
20
0.745766
11
0.768701
21
0.740845
0
LINE
8
BLACK
6
CONTINUOUS
10
0.768701
20
0.740845
11
0.760926
21
0.73722
0
LINE
8
BLACK
6
CONTINUOUS
10
0.760926
20
0.73722
11
0.753937
21
0.735347
0
LINE
8
BLACK
6
CONTINUOUS
10
0.753937
20
0.735347
11
0.753937
21
0.69685
0
LINE
8
BLACK
6
CONTINUOUS
10
0.753937
20
0.69685
11
0.759483
21
0.696053
0
LINE
8
BLACK
6
CONTINUOUS
10
0.759483
20
0.696053
11
0.76458
21
0.693725
0
LINE
8
BLACK
6
CONTINUOUS
10
0.76458
20
0.693725
11
0.768814
21
0.690056
0
LINE
8
BLACK
6
CONTINUOUS
10
0.768814
20
0.690056
11
0.771843
21
0.685343
0
LINE
8
BLACK
6
CONTINUOUS
10
0.771843
20
0.685343
11
0.773422
21
0.679967
0
LINE
8
BLACK
6
CONTINUOUS
10
0.773422
20
0.679967
11
0.773422
21
0.677165
0
LINE
8
BLACK
6
CONTINUOUS
10
0.773422
20
0.677165
11
0.773622
21
0.677165
0
LINE
8
BLACK
6
CONTINUOUS
10
0.773622
20
0.677165
11
0.773622
21
0.65748
0
LINE
8
BLACK
6
CONTINUOUS
10
0.773622
20
0.65748
11
0.755906
21
0.65748
0
LINE
8
BLACK
6
CONTINUOUS
10
0.755906
20
0.65748
11
0.755906
21
0.645669
0
LINE
8
BLACK
6
CONTINUOUS
10
0.755906
20
0.645669
11
0.773622
21
0.645669
0
LINE
8
BLACK
6
CONTINUOUS
10
0.773622
20
0.645669
11
0.773622
21
0.625984
0
LINE
8
BLACK
6
CONTINUOUS
10
0.773622
20
0.625984
11
0.773422
21
0.625984
0
LINE
8
BLACK
6
CONTINUOUS
10
0.773422
20
0.625984
11
0.773422
21
0.623183
0
LINE
8
BLACK
6
CONTINUOUS
10
0.773422
20
0.623183
11
0.771843
21
0.617807
0
LINE
8
BLACK
6
CONTINUOUS
10
0.771843
20
0.617807
11
0.768814
21
0.613093
0
LINE
8
BLACK
6
CONTINUOUS
10
0.768814
20
0.613093
11
0.76458
21
0.609424
0
LINE
8
BLACK
6
CONTINUOUS
10
0.76458
20
0.609424
11
0.759483
21
0.607097
0
LINE
8
BLACK
6
CONTINUOUS
10
0.759483
20
0.607097
11
0.757874
21
0.606865
0
LINE
8
BLACK
6
CONTINUOUS
10
0.757874
20
0.606865
11
0.757874
21
-0.61811
0
LINE
8
BLACK
6
CONTINUOUS
10
0.757874
20
-0.61811
11
0.76342
21
-0.618908
0
LINE
8
BLACK
6
CONTINUOUS
10
0.76342
20
-0.618908
11
0.768517
21
-0.621235
0
LINE
8
BLACK
6
CONTINUOUS
10
0.768517
20
-0.621235
11
0.772751
21
-0.624904
0
LINE
8
BLACK
6
CONTINUOUS
10
0.772751
20
-0.624904
11
0.77578
21
-0.629618
0
LINE
8
BLACK
6
CONTINUOUS
10
0.77578
20
-0.629618
11
0.777359
21
-0.634994
0
LINE
8
BLACK
6
CONTINUOUS
10
0.777359
20
-0.634994
11
0.777359
21
-0.637795
0
LINE
8
BLACK
6
CONTINUOUS
10
0.777359
20
-0.637795
11
0.777559
21
-0.637795
0
LINE
8
BLACK
6
CONTINUOUS
10
0.777559
20
-0.637795
11
0.777559
21
-0.65748
0
LINE
8
BLACK
6
CONTINUOUS
10
0.777559
20
-0.65748
11
0.759843
21
-0.65748
0
LINE
8
BLACK
6
CONTINUOUS
10
0.759843
20
-0.65748
11
0.759843
21
-0.669291
0
LINE
8
BLACK
6
CONTINUOUS
10
0.759843
20
-0.669291
11
0.777559
21
-0.669291
0
LINE
8
BLACK
6
CONTINUOUS
10
0.777559
20
-0.669291
11
0.777559
21
-0.688976
0
LINE
8
BLACK
6
CONTINUOUS
10
0.777559
20
-0.688976
11
0.777359
21
-0.688976
0
LINE
8
BLACK
6
CONTINUOUS
10
0.777359
20
-0.688976
11
0.777359
21
-0.691778
0
LINE
8
BLACK
6
CONTINUOUS
10
0.777359
20
-0.691778
11
0.77578
21
-0.697154
0
LINE
8
BLACK
6
CONTINUOUS
10
0.77578
20
-0.697154
11
0.772751
21
-0.701867
0
LINE
8
BLACK
6
CONTINUOUS
10
0.772751
20
-0.701867
11
0.768517
21
-0.705536
0
LINE
8
BLACK
6
CONTINUOUS
10
0.768517
20
-0.705536
11
0.76342
21
-0.707864
0
LINE
8
BLACK
6
CONTINUOUS
10
0.76342
20
-0.707864
11
0.757874
21
-0.708661
0
LINE
8
BLACK
6
CONTINUOUS
10
0.757874
20
-0.708661
11
0.753937
21
-0.708661
0
LINE
8
BLACK
6
CONTINUOUS
10
0.753937
20
-0.708661
11
0.753937
21
-0.747158
0
LINE
8
BLACK
6
CONTINUOUS
10
0.753937
20
-0.747158
11
0.760926
21
-0.749031
0
LINE
8
BLACK
6
CONTINUOUS
10
0.760926
20
-0.749031
11
0.768701
21
-0.752656
0
LINE
8
BLACK
6
CONTINUOUS
10
0.768701
20
-0.752656
11
0.775728
21
-0.757577
0
LINE
8
BLACK
6
CONTINUOUS
10
0.775728
20
-0.757577
11
0.781794
21
-0.763642
0
LINE
8
BLACK
6
CONTINUOUS
10
0.781794
20
-0.763642
11
0.786714
21
-0.770669
0
LINE
8
BLACK
6
CONTINUOUS
10
0.786714
20
-0.770669
11
0.790339
21
-0.778444
0
LINE
8
BLACK
6
CONTINUOUS
10
0.790339
20
-0.778444
11
0.792559
21
-0.78673
0
LINE
8
BLACK
6
CONTINUOUS
10
0.792559
20
-0.78673
11
0.793307
21
-0.795276
0
LINE
8
BLACK
6
CONTINUOUS
10
0.793307
20
-0.795276
11
0.792559
21
-0.803821
0
LINE
8
BLACK
6
CONTINUOUS
10
0.792559
20
-0.803821
11
0.790339
21
-0.812107
0
LINE
8
BLACK
6
CONTINUOUS
10
0.790339
20
-0.812107
11
0.786714
21
-0.819882
0
LINE
8
BLACK
6
CONTINUOUS
10
0.786714
20
-0.819882
11
0.781794
21
-0.826909
0
LINE
8
BLACK
6
CONTINUOUS
10
0.781794
20
-0.826909
11
0.775728
21
-0.832975
0
LINE
8
BLACK
6
CONTINUOUS
10
0.775728
20
-0.832975
11
0.768701
21
-0.837895
0
LINE
8
BLACK
6
CONTINUOUS
10
0.768701
20
-0.837895
11
0.760926
21
-0.84152
0
LINE
8
BLACK
6
CONTINUOUS
10
0.760926
20
-0.84152
11
0.75264
21
-0.843741
0
LINE
8
BLACK
6
CONTINUOUS
10
0.75264
20
-0.843741
11
0.744094
21
-0.844488
0
LINE
8
BLACK
6
CONTINUOUS
10
0.744094
20
-0.844488
11
0.735549
21
-0.843741
0
LINE
8
BLACK
6
CONTINUOUS
10
0.735549
20
-0.843741
11
0.727263
21
-0.84152
0
LINE
8
BLACK
6
CONTINUOUS
10
0.727263
20
-0.84152
11
0.719488
21
-0.837895
0
LINE
8
BLACK
6
CONTINUOUS
10
0.719488
20
-0.837895
11
0.712461
21
-0.832975
0
LINE
8
BLACK
6
CONTINUOUS
10
0.712461
20
-0.832975
11
0.706395
21
-0.826909
0
LINE
8
BLACK
6
CONTINUOUS
10
0.706395
20
-0.826909
11
0.701475
21
-0.819882
0
LINE
8
BLACK
6
CONTINUOUS
10
0.701475
20
-0.819882
11
0.69785
21
-0.812107
0
LINE
8
BLACK
6
CONTINUOUS
10
0.69785
20
-0.812107
11
0.69563
21
-0.803821
0
LINE
8
BLACK
6
CONTINUOUS
10
0.69563
20
-0.803821
11
0.694882
21
-0.795276
0
LINE
8
BLACK
6
CONTINUOUS
10
0.694882
20
-0.795276
11
0.69563
21
-0.78673
0
LINE
8
BLACK
6
CONTINUOUS
10
0.69563
20
-0.78673
11
0.69785
21
-0.778444
0
LINE
8
BLACK
6
CONTINUOUS
10
0.69785
20
-0.778444
11
0.701475
21
-0.770669
0
LINE
8
BLACK
6
CONTINUOUS
10
0.701475
20
-0.770669
11
0.706395
21
-0.763642
0
LINE
8
BLACK
6
CONTINUOUS
10
0.706395
20
-0.763642
11
0.712461
21
-0.757577
0
LINE
8
BLACK
6
CONTINUOUS
10
0.712461
20
-0.757577
11
0.719488
21
-0.752656
0
LINE
8
BLACK
6
CONTINUOUS
10
0.719488
20
-0.752656
11
0.727263
21
-0.749031
0
LINE
8
BLACK
6
CONTINUOUS
10
0.727263
20
-0.749031
11
0.734252
21
-0.747158
0
LINE
8
BLACK
6
CONTINUOUS
10
0.734252
20
-0.747158
11
0.734252
21
-0.708095
0
LINE
8
BLACK
6
CONTINUOUS
10
0.734252
20
-0.708095
11
0.732643
21
-0.707864
0
LINE
8
BLACK
6
CONTINUOUS
10
0.732643
20
-0.707864
11
0.727546
21
-0.705536
0
LINE
8
BLACK
6
CONTINUOUS
10
0.727546
20
-0.705536
11
0.723312
21
-0.701867
0
LINE
8
BLACK
6
CONTINUOUS
10
0.723312
20
-0.701867
11
0.720283
21
-0.697154
0
LINE
8
BLACK
6
CONTINUOUS
10
0.720283
20
-0.697154
11
0.718704
21
-0.691778
0
LINE
8
BLACK
6
CONTINUOUS
10
0.718704
20
-0.691778
11
0.718704
21
-0.688976
0
LINE
8
BLACK
6
CONTINUOUS
10
0.718704
20
-0.688976
11
0.718504
21
-0.688976
0
LINE
8
BLACK
6
CONTINUOUS
10
0.718504
20
-0.688976
11
0.718504
21
-0.669291
0
LINE
8
BLACK
6
CONTINUOUS
10
0.718504
20
-0.669291
11
0.73622
21
-0.669291
0
LINE
8
BLACK
6
CONTINUOUS
10
0.73622
20
-0.669291
11
0.73622
21
-0.65748
0
LINE
8
BLACK
6
CONTINUOUS
10
0.73622
20
-0.65748
11
0.718504
21
-0.65748
0
LINE
8
BLACK
6
CONTINUOUS
10
0.718504
20
-0.65748
11
0.718504
21
-0.637795
0
LINE
8
BLACK
6
CONTINUOUS
10
0.718504
20
-0.637795
11
0.718704
21
-0.637795
0
LINE
8
BLACK
6
CONTINUOUS
10
0.718704
20
-0.637795
11
0.718704
21
-0.634994
0
LINE
8
BLACK
6
CONTINUOUS
10
0.718704
20
-0.634994
11
0.720283
21
-0.629618
0
LINE
8
BLACK
6
CONTINUOUS
10
0.720283
20
-0.629618
11
0.723312
21
-0.624904
0
LINE
8
BLACK
6
CONTINUOUS
10
0.723312
20
-0.624904
11
0.727546
21
-0.621235
0
LINE
8
BLACK
6
CONTINUOUS
10
0.727546
20
-0.621235
11
0.732643
21
-0.618908
0
LINE
8
BLACK
6
CONTINUOUS
10
0.732643
20
-0.618908
11
0.738189
21
-0.61811
0
LINE
8
BLACK
6
CONTINUOUS
10
0.738189
20
-0.61811
11
0.738189
21
0.606299
0
LINE
8
BLACK
6
CONTINUOUS
10
0.738189
20
0.606299
11
0.734252
21
0.606299
0
LINE
8
BLACK
6
CONTINUOUS
10
0.734252
20
0.606299
11
0.728706
21
0.607097
0
LINE
8
BLACK
6
CONTINUOUS
10
0.728706
20
0.607097
11
0.723609
21
0.609424
0
LINE
8
BLACK
6
CONTINUOUS
10
0.723609
20
0.609424
11
0.719375
21
0.613093
0
LINE
8
BLACK
6
CONTINUOUS
10
0.719375
20
0.613093
11
0.716346
21
0.617807
0
LINE
8
BLACK
6
CONTINUOUS
10
0.716346
20
0.617807
11
0.714767
21
0.623183
0
LINE
8
BLACK
6
CONTINUOUS
10
0.714767
20
0.623183
11
0.714767
21
0.625984
0
LINE
8
BLACK
6
CONTINUOUS
10
0.714767
20
0.625984
11
0.714567
21
0.625984
0
LINE
8
BLACK
6
CONTINUOUS
10
0.714567
20
0.625984
11
0.714567
21
0.645669
0
LINE
8
BLACK
6
CONTINUOUS
10
0.714567
20
0.645669
11
0.732283
21
0.645669
0
LINE
8
BLACK
6
CONTINUOUS
10
0.732283
20
0.645669
11
0.732283
21
0.65748
0
LINE
8
BLACK
6
CONTINUOUS
10
0.732283
20
0.65748
11
0.714567
21
0.65748
0
LINE
8
BLACK
6
CONTINUOUS
10
0.714567
20
0.65748
11
0.714567
21
0.677165
0
LINE
8
BLACK
6
CONTINUOUS
10
0.714567
20
0.677165
11
0.714767
21
0.677165
0
LINE
8
BLACK
6
CONTINUOUS
10
0.714767
20
0.677165
11
0.714767
21
0.679967
0
LINE
8
BLACK
6
CONTINUOUS
10
0.714767
20
0.679967
11
0.716346
21
0.685343
0
LINE
8
BLACK
6
CONTINUOUS
10
0.716346
20
0.685343
11
0.719375
21
0.690056
0
LINE
8
BLACK
6
CONTINUOUS
10
0.719375
20
0.690056
11
0.723609
21
0.693725
0
LINE
8
BLACK
6
CONTINUOUS
10
0.723609
20
0.693725
11
0.728706
21
0.696053
0
LINE
8
BLACK
6
CONTINUOUS
10
0.728706
20
0.696053
11
0.734252
21
0.69685
0
LINE
8
BLACK
6
CONTINUOUS
10
0.734252
20
0.69685
11
0.734252
21
0.735347
0
LINE
8
BLACK
6
CONTINUOUS
10
0.734252
20
0.735347
11
0.727263
21
0.73722
0
LINE
8
BLACK
6
CONTINUOUS
10
0.727263
20
0.73722
11
0.719488
21
0.740845
0
LINE
8
BLACK
6
CONTINUOUS
10
0.719488
20
0.740845
11
0.712461
21
0.745766
0
LINE
8
BLACK
6
CONTINUOUS
10
0.712461
20
0.745766
11
0.706395
21
0.751831
0
LINE
8
BLACK
6
CONTINUOUS
10
0.706395
20
0.751831
11
0.701475
21
0.758858
0
LINE
8
BLACK
6
CONTINUOUS
10
0.701475
20
0.758858
11
0.69785
21
0.766633
0
LINE
8
BLACK
6
CONTINUOUS
10
0.69785
20
0.766633
11
0.69563
21
0.774919
0
LINE
8
BLACK
6
CONTINUOUS
10
0.69563
20
0.774919
11
0.694882
21
0.783465
0
LINE
8
BLACK
6
CONTINUOUS
10
0.694882
20
0.783465
11
0.69563
21
0.79201
0
LINE
8
BLACK
6
CONTINUOUS
10
0.69563
20
0.79201
11
0.69785
21
0.800296
0
LINE
8
BLACK
6
CONTINUOUS
10
0.69785
20
0.800296
11
0.701475
21
0.808071
0
LINE
8
BLACK
6
CONTINUOUS
10
0.701475
20
0.808071
11
0.706395
21
0.815098
0
LINE
8
BLACK
6
CONTINUOUS
10
0.706395
20
0.815098
11
0.712461
21
0.821164
0
LINE
8
BLACK
6
CONTINUOUS
10
0.712461
20
0.821164
11
0.719488
21
0.826084
0
LINE
8
BLACK
6
CONTINUOUS
10
0.719488
20
0.826084
11
0.727263
21
0.829709
0
LINE
8
BLACK
6
CONTINUOUS
10
0.727263
20
0.829709
11
0.735549
21
0.83193
0
LINE
8
BLACK
6
CONTINUOUS
10
0.735549
20
0.83193
11
0.744094
21
0.832677
0
LINE
8
BLACK
6
CONTINUOUS
10
0.744094
20
0.832677
11
0.75264
21
0.83193
0
LINE
8
BLACK
6
CONTINUOUS
10
0.675756
20
-0.805576
11
0.675756
21
-0.805576
0
LINE
8
BLACK
6
CONTINUOUS
10
0.675756
20
-0.805576
11
0.678054
21
-0.815646
0
LINE
8
BLACK
6
CONTINUOUS
10
0.678054
20
-0.815646
11
0.681828
21
-0.825261
0
LINE
8
BLACK
6
CONTINUOUS
10
0.681828
20
-0.825261
11
0.681828
21
-0.825262
0
LINE
8
BLACK
6
CONTINUOUS
10
0.681828
20
-0.825262
11
0.686993
21
-0.834207
0
LINE
8
BLACK
6
CONTINUOUS
10
0.686993
20
-0.834207
11
0.686993
21
-0.834207
0
LINE
8
BLACK
6
CONTINUOUS
10
0.686993
20
-0.834207
11
0.693432
21
-0.842282
0
LINE
8
BLACK
6
CONTINUOUS
10
0.693432
20
-0.842282
11
0.693433
21
-0.842283
0
LINE
8
BLACK
6
CONTINUOUS
10
0.693433
20
-0.842283
11
0.701004
21
-0.849308
0
LINE
8
BLACK
6
CONTINUOUS
10
0.701004
20
-0.849308
11
0.701005
21
-0.849308
0
LINE
8
BLACK
6
CONTINUOUS
10
0.701005
20
-0.849308
11
0.701005
21
-0.849308
0
LINE
8
BLACK
6
CONTINUOUS
10
0.701005
20
-0.849308
11
0.709539
21
-0.855127
0
LINE
8
BLACK
6
CONTINUOUS
10
0.709539
20
-0.855127
11
0.718846
21
-0.859609
0
LINE
8
BLACK
6
CONTINUOUS
10
0.718846
20
-0.859609
11
0.728486
21
-0.862582
0
LINE
8
BLACK
6
CONTINUOUS
10
0.728486
20
-0.862582
11
0.728704
21
-0.862664
0
LINE
8
BLACK
6
CONTINUOUS
10
0.728704
20
-0.862664
11
0.733079
21
-0.864612
0
LINE
8
BLACK
6
CONTINUOUS
10
0.733079
20
-0.864612
11
0.740368
21
-0.866161
0
LINE
8
BLACK
6
CONTINUOUS
10
0.740368
20
-0.866161
11
0.740368
21
-0.866161
0
LINE
8
BLACK
6
CONTINUOUS
10
0.740368
20
-0.866161
11
0.747821
21
-0.866161
0
LINE
8
BLACK
6
CONTINUOUS
10
0.747821
20
-0.866161
11
0.747821
21
-0.866161
0
LINE
8
BLACK
6
CONTINUOUS
10
0.747821
20
-0.866161
11
0.75511
21
-0.864612
0
LINE
8
BLACK
6
CONTINUOUS
10
0.75511
20
-0.864612
11
0.759485
21
-0.862664
0
LINE
8
BLACK
6
CONTINUOUS
10
0.759485
20
-0.862664
11
0.759702
21
-0.862583
0
LINE
8
BLACK
6
CONTINUOUS
10
0.759702
20
-0.862583
11
0.769343
21
-0.859609
0
LINE
8
BLACK
6
CONTINUOUS
10
0.769343
20
-0.859609
11
0.77865
21
-0.855127
0
LINE
8
BLACK
6
CONTINUOUS
10
0.77865
20
-0.855127
11
0.787184
21
-0.849308
0
LINE
8
BLACK
6
CONTINUOUS
10
0.787184
20
-0.849308
11
0.794756
21
-0.842283
0
LINE
8
BLACK
6
CONTINUOUS
10
0.794756
20
-0.842283
11
0.801196
21
-0.834207
0
LINE
8
BLACK
6
CONTINUOUS
10
0.801196
20
-0.834207
11
0.806361
21
-0.825262
0
LINE
8
BLACK
6
CONTINUOUS
10
0.806361
20
-0.825262
11
0.810135
21
-0.815646
0
LINE
8
BLACK
6
CONTINUOUS
10
0.810135
20
-0.815646
11
0.812433
21
-0.805576
0
LINE
8
BLACK
6
CONTINUOUS
10
0.812433
20
-0.805576
11
0.813205
21
-0.795276
0
LINE
8
BLACK
6
CONTINUOUS
10
0.813205
20
-0.795276
11
0.812433
21
-0.784975
0
LINE
8
BLACK
6
CONTINUOUS
10
0.812433
20
-0.784975
11
0.810135
21
-0.774905
0
LINE
8
BLACK
6
CONTINUOUS
10
0.810135
20
-0.774905
11
0.810135
21
-0.774905
0
LINE
8
BLACK
6
CONTINUOUS
10
0.810135
20
-0.774905
11
0.810135
21
-0.774905
0
LINE
8
BLACK
6
CONTINUOUS
10
0.810135
20
-0.774905
11
0.806361
21
-0.76529
0
LINE
8
BLACK
6
CONTINUOUS
10
0.806361
20
-0.76529
11
0.806361
21
-0.76529
0
LINE
8
BLACK
6
CONTINUOUS
10
0.806361
20
-0.76529
11
0.806361
21
-0.765289
0
LINE
8
BLACK
6
CONTINUOUS
10
0.806361
20
-0.765289
11
0.806361
21
-0.765289
0
LINE
8
BLACK
6
CONTINUOUS
10
0.806361
20
-0.765289
11
0.801196
21
-0.756344
0
LINE
8
BLACK
6
CONTINUOUS
10
0.801196
20
-0.756344
11
0.801196
21
-0.756344
0
LINE
8
BLACK
6
CONTINUOUS
10
0.801196
20
-0.756344
11
0.801196
21
-0.756344
0
LINE
8
BLACK
6
CONTINUOUS
10
0.801196
20
-0.756344
11
0.801196
21
-0.756344
0
LINE
8
BLACK
6
CONTINUOUS
10
0.801196
20
-0.756344
11
0.794756
21
-0.748269
0
LINE
8
BLACK
6
CONTINUOUS
10
0.794756
20
-0.748269
11
0.794756
21
-0.748268
0
LINE
8
BLACK
6
CONTINUOUS
10
0.794756
20
-0.748268
11
0.787184
21
-0.741243
0
LINE
8
BLACK
6
CONTINUOUS
10
0.787184
20
-0.741243
11
0.787184
21
-0.741243
0
LINE
8
BLACK
6
CONTINUOUS
10
0.787184
20
-0.741243
11
0.787184
21
-0.741243
0
LINE
8
BLACK
6
CONTINUOUS
10
0.787184
20
-0.741243
11
0.77865
21
-0.735424
0
LINE
8
BLACK
6
CONTINUOUS
10
0.77865
20
-0.735424
11
0.777573
21
-0.734906
0
LINE
8
BLACK
6
CONTINUOUS
10
0.777573
20
-0.734906
11
0.775848
21
-0.734075
0
LINE
8
BLACK
6
CONTINUOUS
10
0.775848
20
-0.734075
11
0.774107
21
-0.73241
0
LINE
8
BLACK
6
CONTINUOUS
10
0.774107
20
-0.73241
11
0.773642
21
-0.730563
0
LINE
8
BLACK
6
CONTINUOUS
10
0.773642
20
-0.730563
11
0.773642
21
-0.727806
0
LINE
8
BLACK
6
CONTINUOUS
10
0.773642
20
-0.727806
11
0.774386
21
-0.725515
0
LINE
8
BLACK
6
CONTINUOUS
10
0.774386
20
-0.725515
11
0.77592
21
-0.724261
0
LINE
8
BLACK
6
CONTINUOUS
10
0.77592
20
-0.724261
11
0.776896
21
-0.723815
0
LINE
8
BLACK
6
CONTINUOUS
10
0.776896
20
-0.723815
11
0.781662
21
-0.720752
0
LINE
8
BLACK
6
CONTINUOUS
10
0.781662
20
-0.720752
11
0.78594
21
-0.717045
0
LINE
8
BLACK
6
CONTINUOUS
10
0.78594
20
-0.717045
11
0.785941
21
-0.717045
0
LINE
8
BLACK
6
CONTINUOUS
10
0.785941
20
-0.717045
11
0.789651
21
-0.712763
0
LINE
8
BLACK
6
CONTINUOUS
10
0.789651
20
-0.712763
11
0.792711
21
-0.708001
0
LINE
8
BLACK
6
CONTINUOUS
10
0.792711
20
-0.708001
11
0.795065
21
-0.702846
0
LINE
8
BLACK
6
CONTINUOUS
10
0.795065
20
-0.702846
11
0.79666
21
-0.697415
0
LINE
8
BLACK
6
CONTINUOUS
10
0.79666
20
-0.697415
11
0.797063
21
-0.694611
0
LINE
8
BLACK
6
CONTINUOUS
10
0.797063
20
-0.694611
11
0.797466
21
-0.691807
0
LINE
8
BLACK
6
CONTINUOUS
10
0.797466
20
-0.691807
11
0.797466
21
-0.669291
0
LINE
8
BLACK
6
CONTINUOUS
10
0.797466
20
-0.669291
11
0.797466
21
-0.669291
0
LINE
8
BLACK
6
CONTINUOUS
10
0.797466
20
-0.669291
11
0.797264
21
-0.666458
0
LINE
8
BLACK
6
CONTINUOUS
10
0.797264
20
-0.666458
11
0.796772
21
-0.664784
0
LINE
8
BLACK
6
CONTINUOUS
10
0.796772
20
-0.664784
11
0.796654
21
-0.663131
0
LINE
8
BLACK
6
CONTINUOUS
10
0.796654
20
-0.663131
11
0.79666
21
-0.663089
0
LINE
8
BLACK
6
CONTINUOUS
10
0.79666
20
-0.663089
11
0.79666
21
-0.663089
0
LINE
8
BLACK
6
CONTINUOUS
10
0.79666
20
-0.663089
11
0.797143
21
-0.659727
0
LINE
8
BLACK
6
CONTINUOUS
10
0.797143
20
-0.659727
11
0.797466
21
-0.65748
0
LINE
8
BLACK
6
CONTINUOUS
10
0.797466
20
-0.65748
11
0.797466
21
-0.634965
0
LINE
8
BLACK
6
CONTINUOUS
10
0.797466
20
-0.634965
11
0.796983
21
-0.6316
0
LINE
8
BLACK
6
CONTINUOUS
10
0.796983
20
-0.6316
11
0.79666
21
-0.629356
0
LINE
8
BLACK
6
CONTINUOUS
10
0.79666
20
-0.629356
11
0.795065
21
-0.623925
0
LINE
8
BLACK
6
CONTINUOUS
10
0.795065
20
-0.623925
11
0.792711
21
-0.618771
0
LINE
8
BLACK
6
CONTINUOUS
10
0.792711
20
-0.618771
11
0.792711
21
-0.618771
0
LINE
8
BLACK
6
CONTINUOUS
10
0.792711
20
-0.618771
11
0.789651
21
-0.614009
0
LINE
8
BLACK
6
CONTINUOUS
10
0.789651
20
-0.614009
11
0.789651
21
-0.614009
0
LINE
8
BLACK
6
CONTINUOUS
10
0.789651
20
-0.614009
11
0.789651
21
-0.614009
0
LINE
8
BLACK
6
CONTINUOUS
10
0.789651
20
-0.614009
11
0.789651
21
-0.614009
0
LINE
8
BLACK
6
CONTINUOUS
10
0.789651
20
-0.614009
11
0.789651
21
-0.614009
0
LINE
8
BLACK
6
CONTINUOUS
10
0.789651
20
-0.614009
11
0.787179
21
-0.611156
0
LINE
8
BLACK
6
CONTINUOUS
10
0.787179
20
-0.611156
11
0.785941
21
-0.609727
0
LINE
8
BLACK
6
CONTINUOUS
10
0.785941
20
-0.609727
11
0.78594
21
-0.609726
0
LINE
8
BLACK
6
CONTINUOUS
10
0.78594
20
-0.609726
11
0.781663
21
-0.60602
0
LINE
8
BLACK
6
CONTINUOUS
10
0.781663
20
-0.60602
11
0.781663
21
-0.60602
0
LINE
8
BLACK
6
CONTINUOUS
10
0.781663
20
-0.60602
11
0.781662
21
-0.60602
0
LINE
8
BLACK
6
CONTINUOUS
10
0.781662
20
-0.60602
11
0.779369
21
-0.604546
0
LINE
8
BLACK
6
CONTINUOUS
10
0.779369
20
-0.604546
11
0.777844
21
-0.602681
0
LINE
8
BLACK
6
CONTINUOUS
10
0.777844
20
-0.602681
11
0.777579
21
-0.601267
0
LINE
8
BLACK
6
CONTINUOUS
10
0.777579
20
-0.601267
11
0.777579
21
0.592302
0
LINE
8
BLACK
6
CONTINUOUS
10
0.777579
20
0.592302
11
0.778323
21
0.594593
0
LINE
8
BLACK
6
CONTINUOUS
10
0.778323
20
0.594593
11
0.778924
21
0.595247
0
LINE
8
BLACK
6
CONTINUOUS
10
0.778924
20
0.595247
11
0.782003
21
0.597916
0
LINE
8
BLACK
6
CONTINUOUS
10
0.782003
20
0.597916
11
0.782004
21
0.597916
0
LINE
8
BLACK
6
CONTINUOUS
10
0.782004
20
0.597916
11
0.785714
21
0.602198
0
LINE
8
BLACK
6
CONTINUOUS
10
0.785714
20
0.602198
11
0.788774
21
0.60696
0
LINE
8
BLACK
6
CONTINUOUS
10
0.788774
20
0.60696
11
0.791128
21
0.612114
0
LINE
8
BLACK
6
CONTINUOUS
10
0.791128
20
0.612114
11
0.792723
21
0.617545
0
LINE
8
BLACK
6
CONTINUOUS
10
0.792723
20
0.617545
11
0.793126
21
0.62035
0
LINE
8
BLACK
6
CONTINUOUS
10
0.793126
20
0.62035
11
0.793529
21
0.623154
0
LINE
8
BLACK
6
CONTINUOUS
10
0.793529
20
0.623154
11
0.793529
21
0.645669
0
LINE
8
BLACK
6
CONTINUOUS
10
0.793529
20
0.645669
11
0.793529
21
0.645669
0
LINE
8
BLACK
6
CONTINUOUS
10
0.793529
20
0.645669
11
0.793327
21
0.648502
0
LINE
8
BLACK
6
CONTINUOUS
10
0.793327
20
0.648502
11
0.792835
21
0.650177
0
LINE
8
BLACK
6
CONTINUOUS
10
0.792835
20
0.650177
11
0.792717
21
0.65183
0
LINE
8
BLACK
6
CONTINUOUS
10
0.792717
20
0.65183
11
0.792723
21
0.651872
0
LINE
8
BLACK
6
CONTINUOUS
10
0.792723
20
0.651872
11
0.792723
21
0.651872
0
LINE
8
BLACK
6
CONTINUOUS
10
0.792723
20
0.651872
11
0.793206
21
0.655234
0
LINE
8
BLACK
6
CONTINUOUS
10
0.793206
20
0.655234
11
0.793529
21
0.65748
0
LINE
8
BLACK
6
CONTINUOUS
10
0.793529
20
0.65748
11
0.793529
21
0.679996
0
LINE
8
BLACK
6
CONTINUOUS
10
0.793529
20
0.679996
11
0.793046
21
0.683361
0
LINE
8
BLACK
6
CONTINUOUS
10
0.793046
20
0.683361
11
0.792723
21
0.685604
0
LINE
8
BLACK
6
CONTINUOUS
10
0.792723
20
0.685604
11
0.791128
21
0.691035
0
LINE
8
BLACK
6
CONTINUOUS
10
0.791128
20
0.691035
11
0.788774
21
0.69619
0
LINE
8
BLACK
6
CONTINUOUS
10
0.788774
20
0.69619
11
0.788774
21
0.69619
0
LINE
8
BLACK
6
CONTINUOUS
10
0.788774
20
0.69619
11
0.785714
21
0.700951
0
LINE
8
BLACK
6
CONTINUOUS
10
0.785714
20
0.700951
11
0.785714
21
0.700951
0
LINE
8
BLACK
6
CONTINUOUS
10
0.785714
20
0.700951
11
0.785714
21
0.700951
0
LINE
8
BLACK
6
CONTINUOUS
10
0.785714
20
0.700951
11
0.785714
21
0.700952
0
LINE
8
BLACK
6
CONTINUOUS
10
0.785714
20
0.700952
11
0.785714
21
0.700952
0
LINE
8
BLACK
6
CONTINUOUS
10
0.785714
20
0.700952
11
0.783242
21
0.703804
0
LINE
8
BLACK
6
CONTINUOUS
10
0.783242
20
0.703804
11
0.782004
21
0.705234
0
LINE
8
BLACK
6
CONTINUOUS
10
0.782004
20
0.705234
11
0.782003
21
0.705234
0
LINE
8
BLACK
6
CONTINUOUS
10
0.782003
20
0.705234
11
0.777726
21
0.70894
0
LINE
8
BLACK
6
CONTINUOUS
10
0.777726
20
0.70894
11
0.777726
21
0.708941
0
LINE
8
BLACK
6
CONTINUOUS
10
0.777726
20
0.708941
11
0.777725
21
0.708941
0
LINE
8
BLACK
6
CONTINUOUS
10
0.777725
20
0.708941
11
0.775432
21
0.710415
0
LINE
8
BLACK
6
CONTINUOUS
10
0.775432
20
0.710415
11
0.773907
21
0.712279
0
LINE
8
BLACK
6
CONTINUOUS
10
0.773907
20
0.712279
11
0.773642
21
0.713694
0
LINE
8
BLACK
6
CONTINUOUS
10
0.773642
20
0.713694
11
0.773642
21
0.718752
0
LINE
8
BLACK
6
CONTINUOUS
10
0.773642
20
0.718752
11
0.774386
21
0.721043
0
LINE
8
BLACK
6
CONTINUOUS
10
0.774386
20
0.721043
11
0.775848
21
0.722264
0
LINE
8
BLACK
6
CONTINUOUS
10
0.775848
20
0.722264
11
0.77865
21
0.723613
0
LINE
8
BLACK
6
CONTINUOUS
10
0.77865
20
0.723613
11
0.787184
21
0.729432
0
LINE
8
BLACK
6
CONTINUOUS
10
0.787184
20
0.729432
11
0.794756
21
0.736457
0
LINE
8
BLACK
6
CONTINUOUS
10
0.794756
20
0.736457
11
0.801196
21
0.744533
0
LINE
8
BLACK
6
CONTINUOUS
10
0.801196
20
0.744533
11
0.806361
21
0.753479
0
LINE
8
BLACK
6
CONTINUOUS
10
0.806361
20
0.753479
11
0.810135
21
0.763094
0
LINE
8
BLACK
6
CONTINUOUS
10
0.810135
20
0.763094
11
0.812433
21
0.773164
0
LINE
8
BLACK
6
CONTINUOUS
10
0.812433
20
0.773164
11
0.813205
21
0.783465
0
LINE
8
BLACK
6
CONTINUOUS
10
0.813205
20
0.783465
11
0.812909
21
0.787409
0
LINE
8
BLACK
6
CONTINUOUS
10
0.812909
20
0.787409
11
0.812433
21
0.793765
0
LINE
8
BLACK
6
CONTINUOUS
10
0.812433
20
0.793765
11
0.812433
21
0.793765
0
LINE
8
BLACK
6
CONTINUOUS
10
0.812433
20
0.793765
11
0.810135
21
0.803835
0
LINE
8
BLACK
6
CONTINUOUS
10
0.810135
20
0.803835
11
0.810135
21
0.803835
0
LINE
8
BLACK
6
CONTINUOUS
10
0.810135
20
0.803835
11
0.810135
21
0.803835
0
LINE
8
BLACK
6
CONTINUOUS
10
0.810135
20
0.803835
11
0.806361
21
0.81345
0
LINE
8
BLACK
6
CONTINUOUS
10
0.806361
20
0.81345
11
0.806361
21
0.813451
0
LINE
8
BLACK
6
CONTINUOUS
10
0.806361
20
0.813451
11
0.806361
21
0.813451
0
LINE
8
BLACK
6
CONTINUOUS
10
0.806361
20
0.813451
11
0.806361
21
0.813451
0
LINE
8
BLACK
6
CONTINUOUS
10
0.806361
20
0.813451
11
0.801196
21
0.822396
0
LINE
8
BLACK
6
CONTINUOUS
10
0.801196
20
0.822396
11
0.801196
21
0.822396
0
LINE
8
BLACK
6
CONTINUOUS
10
0.801196
20
0.822396
11
0.801196
21
0.822396
0
LINE
8
BLACK
6
CONTINUOUS
10
0.801196
20
0.822396
11
0.801196
21
0.822396
0
LINE
8
BLACK
6
CONTINUOUS
10
0.801196
20
0.822396
11
0.794756
21
0.830471
0
LINE
8
BLACK
6
CONTINUOUS
10
0.794756
20
0.830471
11
0.794756
21
0.830472
0
LINE
8
BLACK
6
CONTINUOUS
10
0.794756
20
0.830472
11
0.787184
21
0.837497
0
LINE
8
BLACK
6
CONTINUOUS
10
0.787184
20
0.837497
11
0.787184
21
0.837497
0
LINE
8
BLACK
6
CONTINUOUS
10
0.787184
20
0.837497
11
0.787184
21
0.837497
0
LINE
8
BLACK
6
CONTINUOUS
10
0.787184
20
0.837497
11
0.77865
21
0.843316
0
LINE
8
BLACK
6
CONTINUOUS
10
0.77865
20
0.843316
11
0.778649
21
0.843316
0
LINE
8
BLACK
6
CONTINUOUS
10
0.778649
20
0.843316
11
0.769344
21
0.847798
0
LINE
8
BLACK
6
CONTINUOUS
10
0.769344
20
0.847798
11
0.759473
21
0.850842
0
LINE
8
BLACK
6
CONTINUOUS
10
0.759473
20
0.850842
11
0.759473
21
0.850842
0
LINE
8
BLACK
6
CONTINUOUS
10
0.759473
20
0.850842
11
0.759473
21
0.850842
0
LINE
8
BLACK
6
CONTINUOUS
10
0.759473
20
0.850842
11
0.759473
21
0.850842
0
LINE
8
BLACK
6
CONTINUOUS
10
0.759473
20
0.850842
11
0.759473
21
0.850842
0
LINE
8
BLACK
6
CONTINUOUS
10
0.759473
20
0.850842
11
0.749259
21
0.852382
0
LINE
8
BLACK
6
CONTINUOUS
10
0.749259
20
0.852382
11
0.749259
21
0.852382
0
LINE
8
BLACK
6
CONTINUOUS
10
0.749259
20
0.852382
11
0.73893
21
0.852382
0
LINE
8
BLACK
6
CONTINUOUS
10
0.73893
20
0.852382
11
0.73893
21
0.852382
0
LINE
8
BLACK
6
CONTINUOUS
10
0.73893
20
0.852382
11
0.728716
21
0.850842
0
LINE
8
BLACK
6
CONTINUOUS
10
0.728716
20
0.850842
11
0.728716
21
0.850842
0
LINE
8
BLACK
6
CONTINUOUS
10
0.728716
20
0.850842
11
0.718845
21
0.847798
0
LINE
8
BLACK
6
CONTINUOUS
10
0.718845
20
0.847798
11
0.709539
21
0.843316
0
LINE
8
BLACK
6
CONTINUOUS
10
0.709539
20
0.843316
11
0.709539
21
0.843316
0
LINE
8
BLACK
6
CONTINUOUS
10
0.709539
20
0.843316
11
0.709539
21
0.843316
0
LINE
8
BLACK
6
CONTINUOUS
10
0.709539
20
0.843316
11
0.701005
21
0.837497
0
LINE
8
BLACK
6
CONTINUOUS
10
0.701005
20
0.837497
11
0.701004
21
0.837497
0
LINE
8
BLACK
6
CONTINUOUS
10
0.701004
20
0.837497
11
0.693433
21
0.830472
0
LINE
8
BLACK
6
CONTINUOUS
10
0.693433
20
0.830472
11
0.693432
21
0.830471
0
LINE
8
BLACK
6
CONTINUOUS
10
0.693432
20
0.830471
11
0.686993
21
0.822396
0
LINE
8
BLACK
6
CONTINUOUS
10
0.686993
20
0.822396
11
0.686993
21
0.822396
0
LINE
8
BLACK
6
CONTINUOUS
10
0.686993
20
0.822396
11
0.681828
21
0.813451
0
LINE
8
BLACK
6
CONTINUOUS
10
0.681828
20
0.813451
11
0.681828
21
0.81345
0
LINE
8
BLACK
6
CONTINUOUS
10
0.681828
20
0.81345
11
0.678054
21
0.803835
0
LINE
8
BLACK
6
CONTINUOUS
10
0.678054
20
0.803835
11
0.675756
21
0.793765
0
LINE
8
BLACK
6
CONTINUOUS
10
0.675756
20
0.793765
11
0.675756
21
0.793765
0
LINE
8
BLACK
6
CONTINUOUS
10
0.675756
20
0.793765
11
0.674984
21
0.783465
0
LINE
8
BLACK
6
CONTINUOUS
10
0.674984
20
0.783465
11
0.674984
21
0.783464
0
LINE
8
BLACK
6
CONTINUOUS
10
0.674984
20
0.783464
11
0.675756
21
0.773164
0
LINE
8
BLACK
6
CONTINUOUS
10
0.675756
20
0.773164
11
0.675756
21
0.773164
0
LINE
8
BLACK
6
CONTINUOUS
10
0.675756
20
0.773164
11
0.678054
21
0.763094
0
LINE
8
BLACK
6
CONTINUOUS
10
0.678054
20
0.763094
11
0.681828
21
0.753479
0
LINE
8
BLACK
6
CONTINUOUS
10
0.681828
20
0.753479
11
0.681828
21
0.753478
0
LINE
8
BLACK
6
CONTINUOUS
10
0.681828
20
0.753478
11
0.686993
21
0.744533
0
LINE
8
BLACK
6
CONTINUOUS
10
0.686993
20
0.744533
11
0.686993
21
0.744533
0
LINE
8
BLACK
6
CONTINUOUS
10
0.686993
20
0.744533
11
0.693432
21
0.736458
0
LINE
8
BLACK
6
CONTINUOUS
10
0.693432
20
0.736458
11
0.693433
21
0.736457
0
LINE
8
BLACK
6
CONTINUOUS
10
0.693433
20
0.736457
11
0.701004
21
0.729432
0
LINE
8
BLACK
6
CONTINUOUS
10
0.701004
20
0.729432
11
0.701005
21
0.729432
0
LINE
8
BLACK
6
CONTINUOUS
10
0.701005
20
0.729432
11
0.701005
21
0.729432
0
LINE
8
BLACK
6
CONTINUOUS
10
0.701005
20
0.729432
11
0.709539
21
0.723613
0
LINE
8
BLACK
6
CONTINUOUS
10
0.709539
20
0.723613
11
0.712341
21
0.722264
0
LINE
8
BLACK
6
CONTINUOUS
10
0.712341
20
0.722264
11
0.714082
21
0.720599
0
LINE
8
BLACK
6
CONTINUOUS
10
0.714082
20
0.720599
11
0.714547
21
0.718752
0
LINE
8
BLACK
6
CONTINUOUS
10
0.714547
20
0.718752
11
0.714547
21
0.713694
0
LINE
8
BLACK
6
CONTINUOUS
10
0.714547
20
0.713694
11
0.713803
21
0.711403
0
LINE
8
BLACK
6
CONTINUOUS
10
0.713803
20
0.711403
11
0.712757
21
0.710415
0
LINE
8
BLACK
6
CONTINUOUS
10
0.712757
20
0.710415
11
0.710464
21
0.708941
0
LINE
8
BLACK
6
CONTINUOUS
10
0.710464
20
0.708941
11
0.710463
21
0.708941
0
LINE
8
BLACK
6
CONTINUOUS
10
0.710463
20
0.708941
11
0.710464
21
0.708941
0
LINE
8
BLACK
6
CONTINUOUS
10
0.710464
20
0.708941
11
0.710463
21
0.708941
0
LINE
8
BLACK
6
CONTINUOUS
10
0.710463
20
0.708941
11
0.706186
21
0.705234
0
LINE
8
BLACK
6
CONTINUOUS
10
0.706186
20
0.705234
11
0.706185
21
0.705234
0
LINE
8
BLACK
6
CONTINUOUS
10
0.706185
20
0.705234
11
0.706185
21
0.705233
0
LINE
8
BLACK
6
CONTINUOUS
10
0.706185
20
0.705233
11
0.702475
21
0.700952
0
LINE
8
BLACK
6
CONTINUOUS
10
0.702475
20
0.700952
11
0.702475
21
0.700951
0
LINE
8
BLACK
6
CONTINUOUS
10
0.702475
20
0.700951
11
0.699415
21
0.69619
0
LINE
8
BLACK
6
CONTINUOUS
10
0.699415
20
0.69619
11
0.699415
21
0.69619
0
LINE
8
BLACK
6
CONTINUOUS
10
0.699415
20
0.69619
11
0.697061
21
0.691035
0
LINE
8
BLACK
6
CONTINUOUS
10
0.697061
20
0.691035
11
0.695466
21
0.685604
0
LINE
8
BLACK
6
CONTINUOUS
10
0.695466
20
0.685604
11
0.695466
21
0.685604
0
LINE
8
BLACK
6
CONTINUOUS
10
0.695466
20
0.685604
11
0.69466
21
0.679996
0
LINE
8
BLACK
6
CONTINUOUS
10
0.69466
20
0.679996
11
0.69466
21
0.65748
0
LINE
8
BLACK
6
CONTINUOUS
10
0.69466
20
0.65748
11
0.694862
21
0.654647
0
LINE
8
BLACK
6
CONTINUOUS
10
0.694862
20
0.654647
11
0.694862
21
0.654647
0
LINE
8
BLACK
6
CONTINUOUS
10
0.694862
20
0.654647
11
0.695354
21
0.652973
0
LINE
8
BLACK
6
CONTINUOUS
10
0.695354
20
0.652973
11
0.695472
21
0.65132
0
LINE
8
BLACK
6
CONTINUOUS
10
0.695472
20
0.65132
11
0.69466
21
0.64567
0
LINE
8
BLACK
6
CONTINUOUS
10
0.69466
20
0.64567
11
0.69466
21
0.623154
0
LINE
8
BLACK
6
CONTINUOUS
10
0.69466
20
0.623154
11
0.695466
21
0.617546
0
LINE
8
BLACK
6
CONTINUOUS
10
0.695466
20
0.617546
11
0.695466
21
0.617545
0
LINE
8
BLACK
6
CONTINUOUS
10
0.695466
20
0.617545
11
0.697061
21
0.612114
0
LINE
8
BLACK
6
CONTINUOUS
10
0.697061
20
0.612114
11
0.699415
21
0.60696
0
LINE
8
BLACK
6
CONTINUOUS
10
0.699415
20
0.60696
11
0.699415
21
0.60696
0
LINE
8
BLACK
6
CONTINUOUS
10
0.699415
20
0.60696
11
0.699415
21
0.60696
0
LINE
8
BLACK
6
CONTINUOUS
10
0.699415
20
0.60696
11
0.702475
21
0.602198
0
LINE
8
BLACK
6
CONTINUOUS
10
0.702475
20
0.602198
11
0.702475
21
0.602198
0
LINE
8
BLACK
6
CONTINUOUS
10
0.702475
20
0.602198
11
0.702475
21
0.602198
0
LINE
8
BLACK
6
CONTINUOUS
10
0.702475
20
0.602198
11
0.702475
21
0.602198
0
LINE
8
BLACK
6
CONTINUOUS
10
0.702475
20
0.602198
11
0.704637
21
0.599703
0
LINE
8
BLACK
6
CONTINUOUS
10
0.704637
20
0.599703
11
0.706185
21
0.597916
0
LINE
8
BLACK
6
CONTINUOUS
10
0.706185
20
0.597916
11
0.706186
21
0.597915
0
LINE
8
BLACK
6
CONTINUOUS
10
0.706186
20
0.597915
11
0.710463
21
0.594209
0
LINE
8
BLACK
6
CONTINUOUS
10
0.710463
20
0.594209
11
0.710464
21
0.594209
0
LINE
8
BLACK
6
CONTINUOUS
10
0.710464
20
0.594209
11
0.71523
21
0.591146
0
LINE
8
BLACK
6
CONTINUOUS
10
0.71523
20
0.591146
11
0.71523
21
0.591146
0
LINE
8
BLACK
6
CONTINUOUS
10
0.71523
20
0.591146
11
0.71523
21
0.591146
0
LINE
8
BLACK
6
CONTINUOUS
10
0.71523
20
0.591146
11
0.716206
21
0.5907
0
LINE
8
BLACK
6
CONTINUOUS
10
0.716206
20
0.5907
11
0.71798
21
0.589071
0
LINE
8
BLACK
6
CONTINUOUS
10
0.71798
20
0.589071
11
0.718484
21
0.587155
0
LINE
8
BLACK
6
CONTINUOUS
10
0.718484
20
0.587155
11
0.718484
21
-0.601267
0
LINE
8
BLACK
6
CONTINUOUS
10
0.718484
20
-0.601267
11
0.71774
21
-0.603558
0
LINE
8
BLACK
6
CONTINUOUS
10
0.71774
20
-0.603558
11
0.716694
21
-0.604546
0
LINE
8
BLACK
6
CONTINUOUS
10
0.716694
20
-0.604546
11
0.714401
21
-0.60602
0
LINE
8
BLACK
6
CONTINUOUS
10
0.714401
20
-0.60602
11
0.7144
21
-0.60602
0
LINE
8
BLACK
6
CONTINUOUS
10
0.7144
20
-0.60602
11
0.714401
21
-0.60602
0
LINE
8
BLACK
6
CONTINUOUS
10
0.714401
20
-0.60602
11
0.7144
21
-0.60602
0
LINE
8
BLACK
6
CONTINUOUS
10
0.7144
20
-0.60602
11
0.710123
21
-0.609726
0
LINE
8
BLACK
6
CONTINUOUS
10
0.710123
20
-0.609726
11
0.710122
21
-0.609727
0
LINE
8
BLACK
6
CONTINUOUS
10
0.710122
20
-0.609727
11
0.710122
21
-0.609727
0
LINE
8
BLACK
6
CONTINUOUS
10
0.710122
20
-0.609727
11
0.706412
21
-0.614009
0
LINE
8
BLACK
6
CONTINUOUS
10
0.706412
20
-0.614009
11
0.706412
21
-0.614009
0
LINE
8
BLACK
6
CONTINUOUS
10
0.706412
20
-0.614009
11
0.703352
21
-0.618771
0
LINE
8
BLACK
6
CONTINUOUS
10
0.703352
20
-0.618771
11
0.703352
21
-0.618771
0
LINE
8
BLACK
6
CONTINUOUS
10
0.703352
20
-0.618771
11
0.700998
21
-0.623925
0
LINE
8
BLACK
6
CONTINUOUS
10
0.700998
20
-0.623925
11
0.699403
21
-0.629356
0
LINE
8
BLACK
6
CONTINUOUS
10
0.699403
20
-0.629356
11
0.699403
21
-0.629357
0
LINE
8
BLACK
6
CONTINUOUS
10
0.699403
20
-0.629357
11
0.698597
21
-0.634965
0
LINE
8
BLACK
6
CONTINUOUS
10
0.698597
20
-0.634965
11
0.698597
21
-0.65748
0
LINE
8
BLACK
6
CONTINUOUS
10
0.698597
20
-0.65748
11
0.698799
21
-0.660313
0
LINE
8
BLACK
6
CONTINUOUS
10
0.698799
20
-0.660313
11
0.698799
21
-0.660314
0
LINE
8
BLACK
6
CONTINUOUS
10
0.698799
20
-0.660314
11
0.699291
21
-0.661988
0
LINE
8
BLACK
6
CONTINUOUS
10
0.699291
20
-0.661988
11
0.699409
21
-0.66364
0
LINE
8
BLACK
6
CONTINUOUS
10
0.699409
20
-0.66364
11
0.698597
21
-0.669291
0
LINE
8
BLACK
6
CONTINUOUS
10
0.698597
20
-0.669291
11
0.698597
21
-0.691807
0
LINE
8
BLACK
6
CONTINUOUS
10
0.698597
20
-0.691807
11
0.699403
21
-0.697415
0
LINE
8
BLACK
6
CONTINUOUS
10
0.699403
20
-0.697415
11
0.699403
21
-0.697415
0
LINE
8
BLACK
6
CONTINUOUS
10
0.699403
20
-0.697415
11
0.700998
21
-0.702846
0
LINE
8
BLACK
6
CONTINUOUS
10
0.700998
20
-0.702846
11
0.703352
21
-0.708001
0
LINE
8
BLACK
6
CONTINUOUS
10
0.703352
20
-0.708001
11
0.703352
21
-0.708001
0
LINE
8
BLACK
6
CONTINUOUS
10
0.703352
20
-0.708001
11
0.703352
21
-0.708001
0
LINE
8
BLACK
6
CONTINUOUS
10
0.703352
20
-0.708001
11
0.706412
21
-0.712762
0
LINE
8
BLACK
6
CONTINUOUS
10
0.706412
20
-0.712762
11
0.706412
21
-0.712762
0
LINE
8
BLACK
6
CONTINUOUS
10
0.706412
20
-0.712762
11
0.706412
21
-0.712763
0
LINE
8
BLACK
6
CONTINUOUS
10
0.706412
20
-0.712763
11
0.706412
21
-0.712763
0
LINE
8
BLACK
6
CONTINUOUS
10
0.706412
20
-0.712763
11
0.708313
21
-0.714957
0
LINE
8
BLACK
6
CONTINUOUS
10
0.708313
20
-0.714957
11
0.710122
21
-0.717045
0
LINE
8
BLACK
6
CONTINUOUS
10
0.710122
20
-0.717045
11
0.710123
21
-0.717045
0
LINE
8
BLACK
6
CONTINUOUS
10
0.710123
20
-0.717045
11
0.713202
21
-0.719713
0
LINE
8
BLACK
6
CONTINUOUS
10
0.713202
20
-0.719713
11
0.714446
21
-0.721776
0
LINE
8
BLACK
6
CONTINUOUS
10
0.714446
20
-0.721776
11
0.714547
21
-0.722659
0
LINE
8
BLACK
6
CONTINUOUS
10
0.714547
20
-0.722659
11
0.714547
21
-0.730563
0
LINE
8
BLACK
6
CONTINUOUS
10
0.714547
20
-0.730563
11
0.713803
21
-0.732854
0
LINE
8
BLACK
6
CONTINUOUS
10
0.713803
20
-0.732854
11
0.712341
21
-0.734075
0
LINE
8
BLACK
6
CONTINUOUS
10
0.712341
20
-0.734075
11
0.709539
21
-0.735424
0
LINE
8
BLACK
6
CONTINUOUS
10
0.709539
20
-0.735424
11
0.709539
21
-0.735424
0
LINE
8
BLACK
6
CONTINUOUS
10
0.709539
20
-0.735424
11
0.701005
21
-0.741243
0
LINE
8
BLACK
6
CONTINUOUS
10
0.701005
20
-0.741243
11
0.701004
21
-0.741243
0
LINE
8
BLACK
6
CONTINUOUS
10
0.701004
20
-0.741243
11
0.693433
21
-0.748268
0
LINE
8
BLACK
6
CONTINUOUS
10
0.693433
20
-0.748268
11
0.693432
21
-0.748269
0
LINE
8
BLACK
6
CONTINUOUS
10
0.693432
20
-0.748269
11
0.686993
21
-0.756344
0
LINE
8
BLACK
6
CONTINUOUS
10
0.686993
20
-0.756344
11
0.686993
21
-0.756344
0
LINE
8
BLACK
6
CONTINUOUS
10
0.686993
20
-0.756344
11
0.681828
21
-0.765289
0
LINE
8
BLACK
6
CONTINUOUS
10
0.681828
20
-0.765289
11
0.681828
21
-0.76529
0
LINE
8
BLACK
6
CONTINUOUS
10
0.681828
20
-0.76529
11
0.678054
21
-0.774905
0
LINE
8
BLACK
6
CONTINUOUS
10
0.678054
20
-0.774905
11
0.675756
21
-0.784975
0
LINE
8
BLACK
6
CONTINUOUS
10
0.675756
20
-0.784975
11
0.675756
21
-0.784975
0
LINE
8
BLACK
6
CONTINUOUS
10
0.675756
20
-0.784975
11
0.674984
21
-0.795275
0
LINE
8
BLACK
6
CONTINUOUS
10
0.674984
20
-0.795275
11
0.674984
21
-0.795276
0
LINE
8
BLACK
6
CONTINUOUS
10
0.674984
20
-0.795276
11
0.675756
21
-0.805576
0
LINE
8
BLACK
6
CONTINUOUS
10
-0.320299
20
-0.0223976
11
-0.317957
21
-0.044686
0
LINE
8
BLACK
6
CONTINUOUS
10
-0.317957
20
-0.044686
11
-0.314065
21
-0.0667559
0
LINE
8
BLACK
6
CONTINUOUS
10
-0.314065
20
-0.0667559
11
-0.314065
21
-0.0667572
0
LINE
8
BLACK
6
CONTINUOUS
10
-0.314065
20
-0.0667572
11
-0.308643
21
-0.0885019
0
LINE
8
BLACK
6
CONTINUOUS
10
-0.308643
20
-0.0885019
11
-0.301718
21
-0.109817
0
LINE
8
BLACK
6
CONTINUOUS
10
-0.301718
20
-0.109817
11
-0.293323
21
-0.130595
0
LINE
8
BLACK
6
CONTINUOUS
10
-0.293323
20
-0.130595
11
-0.283498
21
-0.150739
0
LINE
8
BLACK
6
CONTINUOUS
10
-0.283498
20
-0.150739
11
-0.283498
21
-0.150739
0
LINE
8
BLACK
6
CONTINUOUS
10
-0.283498
20
-0.150739
11
-0.272293
21
-0.170147
0
LINE
8
BLACK
6
CONTINUOUS
10
-0.272293
20
-0.170147
11
-0.272293
21
-0.170147
0
LINE
8
BLACK
6
CONTINUOUS
10
-0.272293
20
-0.170147
11
-0.272292
21
-0.170147
0
LINE
8
BLACK
6
CONTINUOUS
10
-0.272292
20
-0.170147
11
-0.25976
21
-0.188727
0
LINE
8
BLACK
6
CONTINUOUS
10
-0.25976
20
-0.188727
11
-0.25976
21
-0.188727
0
LINE
8
BLACK
6
CONTINUOUS
10
-0.25976
20
-0.188727
11
-0.245962
21
-0.206388
0
LINE
8
BLACK
6
CONTINUOUS
10
-0.245962
20
-0.206388
11
-0.245962
21
-0.206388
0
LINE
8
BLACK
6
CONTINUOUS
10
-0.245962
20
-0.206388
11
-0.230967
21
-0.223042
0
LINE
8
BLACK
6
CONTINUOUS
10
-0.230967
20
-0.223042
11
-0.230967
21
-0.223042
0
LINE
8
BLACK
6
CONTINUOUS
10
-0.230967
20
-0.223042
11
-0.230967
21
-0.223042
0
LINE
8
BLACK
6
CONTINUOUS
10
-0.230967
20
-0.223042
11
-0.214845
21
-0.23861
0
LINE
8
BLACK
6
CONTINUOUS
10
-0.214845
20
-0.23861
11
-0.197898
21
-0.25283
0
LINE
8
BLACK
6
CONTINUOUS
10
-0.197898
20
-0.25283
11
-0.197677
21
-0.253016
0
LINE
8
BLACK
6
CONTINUOUS
10
-0.197677
20
-0.253016
11
-0.191589
21
-0.257439
0
LINE
8
BLACK
6
CONTINUOUS
10
-0.191589
20
-0.257439
11
-0.179546
21
-0.266189
0
LINE
8
BLACK
6
CONTINUOUS
10
-0.179546
20
-0.266189
11
-0.160866
21
-0.277861
0
LINE
8
BLACK
6
CONTINUOUS
10
-0.160866
20
-0.277861
11
-0.16054
21
-0.278065
0
LINE
8
BLACK
6
CONTINUOUS
10
-0.16054
20
-0.278065
11
-0.143627
21
-0.287058
0
LINE
8
BLACK
6
CONTINUOUS
10
-0.143627
20
-0.287058
11
-0.140753
21
-0.288586
0
LINE
8
BLACK
6
CONTINUOUS
10
-0.140753
20
-0.288586
11
-0.120279
21
-0.297701
0
LINE
8
BLACK
6
CONTINUOUS
10
-0.120279
20
-0.297701
11
-0.0992196
21
-0.305367
0
LINE
8
BLACK
6
CONTINUOUS
10
-0.0992196
20
-0.305367
11
-0.0776766
21
-0.311544
0
LINE
8
BLACK
6
CONTINUOUS
10
-0.0776766
20
-0.311544
11
-0.0557552
21
-0.316203
0
LINE
8
BLACK
6
CONTINUOUS
10
-0.0557552
20
-0.316203
11
-0.0335622
21
-0.319322
0
LINE
8
BLACK
6
CONTINUOUS
10
-0.0335622
20
-0.319322
11
-0.0112056
21
-0.320886
0
LINE
8
BLACK
6
CONTINUOUS
10
-0.0112056
20
-0.320886
11
-0.0112053
21
-0.320886
0
LINE
8
BLACK
6
CONTINUOUS
10
-0.0112053
20
-0.320886
11
0.0112053
21
-0.320886
0
LINE
8
BLACK
6
CONTINUOUS
10
0.0112053
20
-0.320886
11
0.0112056
21
-0.320886
0
LINE
8
BLACK
6
CONTINUOUS
10
0.0112056
20
-0.320886
11
0.0335622
21
-0.319322
0
LINE
8
BLACK
6
CONTINUOUS
10
0.0335622
20
-0.319322
11
0.0557552
21
-0.316203
0
LINE
8
BLACK
6
CONTINUOUS
10
0.0557552
20
-0.316203
11
0.0776766
21
-0.311544
0
LINE
8
BLACK
6
CONTINUOUS
10
0.0776766
20
-0.311544
11
0.0992196
21
-0.305367
0
LINE
8
BLACK
6
CONTINUOUS
10
0.0992196
20
-0.305367
11
0.120279
21
-0.297701
0
LINE
8
BLACK
6
CONTINUOUS
10
0.120279
20
-0.297701
11
0.140753
21
-0.288586
0
LINE
8
BLACK
6
CONTINUOUS
10
0.140753
20
-0.288586
11
0.160541
21
-0.278065
0
LINE
8
BLACK
6
CONTINUOUS
10
0.160541
20
-0.278065
11
0.179546
21
-0.266189
0
LINE
8
BLACK
6
CONTINUOUS
10
0.179546
20
-0.266189
11
0.197677
21
-0.253016
0
LINE
8
BLACK
6
CONTINUOUS
10
0.197677
20
-0.253016
11
0.214845
21
-0.23861
0
LINE
8
BLACK
6
CONTINUOUS
10
0.214845
20
-0.23861
11
0.230967
21
-0.223042
0
LINE
8
BLACK
6
CONTINUOUS
10
0.230967
20
-0.223042
11
0.245963
21
-0.206387
0
LINE
8
BLACK
6
CONTINUOUS
10
0.245963
20
-0.206387
11
0.25976
21
-0.188727
0
LINE
8
BLACK
6
CONTINUOUS
10
0.25976
20
-0.188727
11
0.272292
21
-0.170147
0
LINE
8
BLACK
6
CONTINUOUS
10
0.272292
20
-0.170147
11
0.283498
21
-0.150739
0
LINE
8
BLACK
6
CONTINUOUS
10
0.283498
20
-0.150739
11
0.293322
21
-0.130596
0
LINE
8
BLACK
6
CONTINUOUS
10
0.293322
20
-0.130596
11
0.301718
21
-0.109816
0
LINE
8
BLACK
6
CONTINUOUS
10
0.301718
20
-0.109816
11
0.308643
21
-0.088502
0
LINE
8
BLACK
6
CONTINUOUS
10
0.308643
20
-0.088502
11
0.314065
21
-0.0667566
0
LINE
8
BLACK
6
CONTINUOUS
10
0.314065
20
-0.0667566
11
0.317957
21
-0.0446859
0
LINE
8
BLACK
6
CONTINUOUS
10
0.317957
20
-0.0446859
11
0.320299
21
-0.0223975
0
LINE
8
BLACK
6
CONTINUOUS
10
0.320299
20
-0.0223975
11
0.321081
21
0
0
LINE
8
BLACK
6
CONTINUOUS
10
0.321081
20
0
11
0.320299
21
0.0223975
0
LINE
8
BLACK
6
CONTINUOUS
10
0.320299
20
0.0223975
11
0.317957
21
0.0446859
0
LINE
8
BLACK
6
CONTINUOUS
10
0.317957
20
0.0446859
11
0.314065
21
0.0667566
0
LINE
8
BLACK
6
CONTINUOUS
10
0.314065
20
0.0667566
11
0.310161
21
0.0824163
0
LINE
8
BLACK
6
CONTINUOUS
10
0.310161
20
0.0824163
11
0.308643
21
0.0885019
0
LINE
8
BLACK
6
CONTINUOUS
10
0.308643
20
0.0885019
11
0.301718
21
0.109817
0
LINE
8
BLACK
6
CONTINUOUS
10
0.301718
20
0.109817
11
0.293323
21
0.130595
0
LINE
8
BLACK
6
CONTINUOUS
10
0.293323
20
0.130595
11
0.293322
21
0.130596
0
LINE
8
BLACK
6
CONTINUOUS
10
0.293322
20
0.130596
11
0.283498
21
0.150739
0
LINE
8
BLACK
6
CONTINUOUS
10
0.283498
20
0.150739
11
0.272292
21
0.170147
0
LINE
8
BLACK
6
CONTINUOUS
10
0.272292
20
0.170147
11
0.25976
21
0.188727
0
LINE
8
BLACK
6
CONTINUOUS
10
0.25976
20
0.188727
11
0.245963
21
0.206387
0
LINE
8
BLACK
6
CONTINUOUS
10
0.245963
20
0.206387
11
0.245962
21
0.206387
0
LINE
8
BLACK
6
CONTINUOUS
10
0.245962
20
0.206387
11
0.245962
21
0.206388
0
LINE
8
BLACK
6
CONTINUOUS
10
0.245962
20
0.206388
11
0.245962
21
0.206388
0
LINE
8
BLACK
6
CONTINUOUS
10
0.245962
20
0.206388
11
0.230967
21
0.223042
0
LINE
8
BLACK
6
CONTINUOUS
10
0.230967
20
0.223042
11
0.230967
21
0.223042
0
LINE
8
BLACK
6
CONTINUOUS
10
0.230967
20
0.223042
11
0.214845
21
0.23861
0
LINE
8
BLACK
6
CONTINUOUS
10
0.214845
20
0.23861
11
0.197677
21
0.253016
0
LINE
8
BLACK
6
CONTINUOUS
10
0.197677
20
0.253016
11
0.187057
21
0.260732
0
LINE
8
BLACK
6
CONTINUOUS
10
0.187057
20
0.260732
11
0.179546
21
0.266189
0
LINE
8
BLACK
6
CONTINUOUS
10
0.179546
20
0.266189
11
0.160866
21
0.277861
0
LINE
8
BLACK
6
CONTINUOUS
10
0.160866
20
0.277861
11
0.16054
21
0.278065
0
LINE
8
BLACK
6
CONTINUOUS
10
0.16054
20
0.278065
11
0.140753
21
0.288586
0
LINE
8
BLACK
6
CONTINUOUS
10
0.140753
20
0.288586
11
0.120279
21
0.297702
0
LINE
8
BLACK
6
CONTINUOUS
10
0.120279
20
0.297702
11
0.0992194
21
0.305367
0
LINE
8
BLACK
6
CONTINUOUS
10
0.0992194
20
0.305367
11
0.0819412
21
0.310321
0
LINE
8
BLACK
6
CONTINUOUS
10
0.0819412
20
0.310321
11
0.0776766
21
0.311544
0
LINE
8
BLACK
6
CONTINUOUS
10
0.0776766
20
0.311544
11
0.0557552
21
0.316203
0
LINE
8
BLACK
6
CONTINUOUS
10
0.0557552
20
0.316203
11
0.0335622
21
0.319322
0
LINE
8
BLACK
6
CONTINUOUS
10
0.0335622
20
0.319322
11
0.0112056
21
0.320886
0
LINE
8
BLACK
6
CONTINUOUS
10
0.0112056
20
0.320886
11
-0.0112056
21
0.320886
0
LINE
8
BLACK
6
CONTINUOUS
10
-0.0112056
20
0.320886
11
-0.0335622
21
0.319322
0
LINE
8
BLACK
6
CONTINUOUS
10
-0.0335622
20
0.319322
11
-0.0557552
21
0.316203
0
LINE
8
BLACK
6
CONTINUOUS
10
-0.0557552
20
0.316203
11
-0.0776766
21
0.311544
0
LINE
8
BLACK
6
CONTINUOUS
10
-0.0776766
20
0.311544
11
-0.0776767
21
0.311544
0
LINE
8
BLACK
6
CONTINUOUS
10
-0.0776767
20
0.311544
11
-0.0776768
21
0.311544
0
LINE
8
BLACK
6
CONTINUOUS
10
-0.0776768
20
0.311544
11
-0.0992194
21
0.305367
0
LINE
8
BLACK
6
CONTINUOUS
10
-0.0992194
20
0.305367
11
-0.120279
21
0.297702
0
LINE
8
BLACK
6
CONTINUOUS
10
-0.120279
20
0.297702
11
-0.140753
21
0.288586
0
LINE
8
BLACK
6
CONTINUOUS
10
-0.140753
20
0.288586
11
-0.16054
21
0.278065
0
LINE
8
BLACK
6
CONTINUOUS
10
-0.16054
20
0.278065
11
-0.179546
21
0.266189
0
LINE
8
BLACK
6
CONTINUOUS
10
-0.179546
20
0.266189
11
-0.197677
21
0.253016
0
LINE
8
BLACK
6
CONTINUOUS
10
-0.197677
20
0.253016
11
-0.214845
21
0.23861
0
LINE
8
BLACK
6
CONTINUOUS
10
-0.214845
20
0.23861
11
-0.230967
21
0.223042
0
LINE
8
BLACK
6
CONTINUOUS
10
-0.230967
20
0.223042
11
-0.230967
21
0.223042
0
LINE
8
BLACK
6
CONTINUOUS
10
-0.230967
20
0.223042
11
-0.245962
21
0.206388
0
LINE
8
BLACK
6
CONTINUOUS
10
-0.245962
20
0.206388
11
-0.245962
21
0.206388
0
LINE
8
BLACK
6
CONTINUOUS
10
-0.245962
20
0.206388
11
-0.25976
21
0.188727
0
LINE
8
BLACK
6
CONTINUOUS
10
-0.25976
20
0.188727
11
-0.272293
21
0.170147
0
LINE
8
BLACK
6
CONTINUOUS
10
-0.272293
20
0.170147
11
-0.272293
21
0.170147
0
LINE
8
BLACK
6
CONTINUOUS
10
-0.272293
20
0.170147
11
-0.283498
21
0.150739
0
LINE
8
BLACK
6
CONTINUOUS
10
-0.283498
20
0.150739
11
-0.283498
21
0.150739
0
LINE
8
BLACK
6
CONTINUOUS
10
-0.283498
20
0.150739
11
-0.293323
21
0.130595
0
LINE
8
BLACK
6
CONTINUOUS
10
-0.293323
20
0.130595
11
-0.301718
21
0.109817
0
LINE
8
BLACK
6
CONTINUOUS
10
-0.301718
20
0.109817
11
-0.308643
21
0.0885019
0
LINE
8
BLACK
6
CONTINUOUS
10
-0.308643
20
0.0885019
11
-0.314065
21
0.0667573
0
LINE
8
BLACK
6
CONTINUOUS
10
-0.314065
20
0.0667573
11
-0.314065
21
0.0667559
0
LINE
8
BLACK
6
CONTINUOUS
10
-0.314065
20
0.0667559
11
-0.317957
21
0.0446861
0
LINE
8
BLACK
6
CONTINUOUS
10
-0.317957
20
0.0446861
11
-0.320299
21
0.0223976
0
LINE
8
BLACK
6
CONTINUOUS
10
-0.320299
20
0.0223976
11
-0.321081
21
3.93701e-08
0
LINE
8
BLACK
6
CONTINUOUS
10
-0.321081
20
3.93701e-08
11
-0.320299
21
-0.0223976
0
CIRCLE
8
BLACK
10
-0.216535
20
0.37505
40
0.00688976
0
CIRCLE
8
BLACK
10
-0.216535
20
-0.37505
40
0.00688976
0
CIRCLE
8
BLACK
10
0.433071
20
0
40
0.00688976
0
CIRCLE
8
BLACK
10
0.744094
20
0.751969
40
0.00787402
0
CIRCLE
8
BLACK
10
0.744094
20
-0.759843
40
0.00787402
0
CIRCLE
8
BLACK
10
1.45873
20
-0.0161207
40
0.00787402
0
CIRCLE
8
BLACK
10
-1.37627
20
-0.483765
40
0.00787402
0
CIRCLE
8
BLACK
10
-1.27135
20
-0.715402
40
0.00787402
0
CIRCLE
8
BLACK
10
-1.45873
20
0.0161207
40
0.00787402
0
CIRCLE
8
BLACK
10
-1.36524
20
0.514062
40
0.00787402
0
CIRCLE
8
BLACK
10
-1.12781
20
-0.925302
40
0.00787402
0
CIRCLE
8
BLACK
10
-1.43936
20
-0.237429
40
0.00787402
0
CIRCLE
8
BLACK
10
-1.43377
20
0.269181
40
0.00787402
0
CIRCLE
8
BLACK
10
1.12781
20
0.925302
40
0.00787402
0
CIRCLE
8
BLACK
10
1.25523
20
-0.743324
40
0.00787402
0
CIRCLE
8
BLACK
10
1.37627
20
0.483765
40
0.00787402
0
CIRCLE
8
BLACK
10
-1.25523
20
0.743324
40
0.00787402
0
CIRCLE
8
BLACK
10
1.10709
20
-0.95
40
0.00787402
0
CIRCLE
8
BLACK
10
1.43377
20
-0.269181
40
0.00787402
0
CIRCLE
8
BLACK
10
-1.10709
20
0.95
40
0.00787402
0
CIRCLE
8
BLACK
10
1.43936
20
0.237429
40
0.00787402
0
CIRCLE
8
BLACK
10
1.36524
20
-0.514062
40
0.00787402
0
CIRCLE
8
BLACK
10
1.27135
20
0.715402
40
0.00787402
  0
ENDSEC
  0
EOF
