  0
SECTION
  2
HEADER
  9
$ANGBASE
  50
0.0
  9
$ANGDIR
  70
1
  9
$MEASUREMENT
  70
0
  0
ENDSEC
  0
SECTION
  2
TABLES
  0
TABLE
  2
LTYPE
  70
4
  0
LTYPE
  5
40F
  2
CONTINUOUS
  70
0
  3
Solid line
  72
65
  73
0
  40
0.0
  0
LTYPE
  5
410
  2
DASHDOT
 70
0
  3
Dash Dot ____ _ ____ _
 72
65
 73
4
 40
2.0
 49
1.25
 49
-0.25
 49
0.25
 49
-0.25
  0
LTYPE
  5
411
  2
DASHED
 70
0
  3
Dashed __ __ __ __ __
 72
65
 73
2
 40
0.75
 49
0.5
 49
-0.25
  0
LTYPE
  5
43B
  2
DOTTED
 70
0
  3
Dotted .  .  .  .
 72
65
 73
2
 40
0.2
 49
0.0
 49
-0.2
  0
ENDTAB
  0
TABLE
  2
STYLE
  70
4
  0
STYLE
  2
KICAD
  70
0
  40
0
  41
1
  42
1
  50
0
  71
0
  3
isocp.shx
  0
STYLE
  2
KICADB
  70
0
  40
0
  41
1
  42
1
  50
0
  71
0
  3
isocp.shx
  0
STYLE
  2
KICADI
  70
0
  40
0
  41
1
  42
1
  50
15
  71
0
  3
isocp.shx
  0
STYLE
  2
KICADBI
  70
0
  40
0
  41
1
  42
1
  50
15
  71
0
  3
isocp.shx
  0
ENDTAB
  0
TABLE
  2
LAYER
  70
1
  0
LAYER
  2
BLACK
  70
0
  62
7
  6
CONTINUOUS
  0
ENDTAB
  0
ENDSEC
  0
SECTION
  2
ENTITIES
0
LINE
8
BLACK
6
CONTINUOUS
10
-0.737759
20
-0.688695
11
-0.737654
21
-0.688675
0
LINE
8
BLACK
6
CONTINUOUS
10
-0.737654
20
-0.688675
11
-0.717528
21
-0.692955
0
LINE
8
BLACK
6
CONTINUOUS
10
-0.717528
20
-0.692955
11
-0.717439
21
-0.693015
0
LINE
8
BLACK
6
CONTINUOUS
10
-0.717439
20
-0.693015
11
-0.717332
21
-0.693018
0
LINE
8
BLACK
6
CONTINUOUS
10
-0.717332
20
-0.693018
11
-0.698537
21
-0.701388
0
LINE
8
BLACK
6
CONTINUOUS
10
-0.698537
20
-0.701388
11
-0.698463
21
-0.701466
0
LINE
8
BLACK
6
CONTINUOUS
10
-0.698463
20
-0.701466
11
-0.698359
21
-0.701491
0
LINE
8
BLACK
6
CONTINUOUS
10
-0.698359
20
-0.701491
11
-0.681709
21
-0.713586
0
LINE
8
BLACK
6
CONTINUOUS
10
-0.681709
20
-0.713586
11
-0.681674
21
-0.713644
0
LINE
8
BLACK
6
CONTINUOUS
10
-0.681674
20
-0.713644
11
-0.68161
21
-0.713668
0
LINE
8
BLACK
6
CONTINUOUS
10
-0.68161
20
-0.713668
11
-0.66057
21
-0.733634
0
LINE
8
BLACK
6
CONTINUOUS
10
-0.66057
20
-0.733634
11
-0.617349
21
-0.77055
0
LINE
8
BLACK
6
CONTINUOUS
10
-0.617349
20
-0.77055
11
-0.580421
21
-0.798884
0
LINE
8
BLACK
6
CONTINUOUS
10
-0.580421
20
-0.798884
11
-0.542062
21
-0.825245
0
LINE
8
BLACK
6
CONTINUOUS
10
-0.542062
20
-0.825245
11
-0.493602
21
-0.854943
0
LINE
8
BLACK
6
CONTINUOUS
10
-0.493602
20
-0.854943
11
-0.443651
21
-0.882064
0
LINE
8
BLACK
6
CONTINUOUS
10
-0.443651
20
-0.882064
11
-0.401643
21
-0.902101
0
LINE
8
BLACK
6
CONTINUOUS
10
-0.401643
20
-0.902101
11
-0.35864
21
-0.919915
0
LINE
8
BLACK
6
CONTINUOUS
10
-0.35864
20
-0.919915
11
-0.305062
21
-0.938886
0
LINE
8
BLACK
6
CONTINUOUS
10
-0.305062
20
-0.938886
11
-0.250566
21
-0.955029
0
LINE
8
BLACK
6
CONTINUOUS
10
-0.250566
20
-0.955029
11
-0.205307
21
-0.965895
0
LINE
8
BLACK
6
CONTINUOUS
10
-0.205307
20
-0.965895
11
-0.159541
21
-0.974378
0
LINE
8
BLACK
6
CONTINUOUS
10
-0.159541
20
-0.974378
11
-0.103191
21
-0.981796
0
LINE
8
BLACK
6
CONTINUOUS
10
-0.103191
20
-0.981796
11
-0.0465289
21
-0.986257
0
LINE
8
BLACK
6
CONTINUOUS
10
-0.0465289
20
-0.986257
11
-3.93701e-08
21
-0.987472
0
LINE
8
BLACK
6
CONTINUOUS
10
-3.93701e-08
20
-0.987472
11
0.0465285
21
-0.986257
0
LINE
8
BLACK
6
CONTINUOUS
10
0.0465285
20
-0.986257
11
0.103191
21
-0.981796
0
LINE
8
BLACK
6
CONTINUOUS
10
0.103191
20
-0.981796
11
0.159541
21
-0.974378
0
LINE
8
BLACK
6
CONTINUOUS
10
0.159541
20
-0.974378
11
0.205306
21
-0.965895
0
LINE
8
BLACK
6
CONTINUOUS
10
0.205306
20
-0.965895
11
0.250566
21
-0.955029
0
LINE
8
BLACK
6
CONTINUOUS
10
0.250566
20
-0.955029
11
0.305062
21
-0.938886
0
LINE
8
BLACK
6
CONTINUOUS
10
0.305062
20
-0.938886
11
0.358639
21
-0.919916
0
LINE
8
BLACK
6
CONTINUOUS
10
0.358639
20
-0.919916
11
0.401642
21
-0.902101
0
LINE
8
BLACK
6
CONTINUOUS
10
0.401642
20
-0.902101
11
0.443652
21
-0.882063
0
LINE
8
BLACK
6
CONTINUOUS
10
0.443652
20
-0.882063
11
0.493602
21
-0.854942
0
LINE
8
BLACK
6
CONTINUOUS
10
0.493602
20
-0.854942
11
0.542062
21
-0.825245
0
LINE
8
BLACK
6
CONTINUOUS
10
0.542062
20
-0.825245
11
0.580421
21
-0.798885
0
LINE
8
BLACK
6
CONTINUOUS
10
0.580421
20
-0.798885
11
0.617348
21
-0.77055
0
LINE
8
BLACK
6
CONTINUOUS
10
0.617348
20
-0.77055
11
0.660569
21
-0.733634
0
LINE
8
BLACK
6
CONTINUOUS
10
0.660569
20
-0.733634
11
0.68161
21
-0.713668
0
LINE
8
BLACK
6
CONTINUOUS
10
0.68161
20
-0.713668
11
0.681673
21
-0.713644
0
LINE
8
BLACK
6
CONTINUOUS
10
0.681673
20
-0.713644
11
0.681709
21
-0.713586
0
LINE
8
BLACK
6
CONTINUOUS
10
0.681709
20
-0.713586
11
0.698358
21
-0.701491
0
LINE
8
BLACK
6
CONTINUOUS
10
0.698358
20
-0.701491
11
0.698462
21
-0.701466
0
LINE
8
BLACK
6
CONTINUOUS
10
0.698462
20
-0.701466
11
0.698536
21
-0.701388
0
LINE
8
BLACK
6
CONTINUOUS
10
0.698536
20
-0.701388
11
0.717332
21
-0.693018
0
LINE
8
BLACK
6
CONTINUOUS
10
0.717332
20
-0.693018
11
0.717439
21
-0.693015
0
LINE
8
BLACK
6
CONTINUOUS
10
0.717439
20
-0.693015
11
0.717527
21
-0.692955
0
LINE
8
BLACK
6
CONTINUOUS
10
0.717527
20
-0.692955
11
0.737653
21
-0.688675
0
LINE
8
BLACK
6
CONTINUOUS
10
0.737653
20
-0.688675
11
0.737759
21
-0.688695
0
LINE
8
BLACK
6
CONTINUOUS
10
0.737759
20
-0.688695
11
0.737858
21
-0.688654
0
LINE
8
BLACK
6
CONTINUOUS
10
0.737858
20
-0.688654
11
0.758437
21
-0.688654
0
LINE
8
BLACK
6
CONTINUOUS
10
0.758437
20
-0.688654
11
0.758536
21
-0.688695
0
LINE
8
BLACK
6
CONTINUOUS
10
0.758536
20
-0.688695
11
0.758641
21
-0.688675
0
LINE
8
BLACK
6
CONTINUOUS
10
0.758641
20
-0.688675
11
0.778767
21
-0.692955
0
LINE
8
BLACK
6
CONTINUOUS
10
0.778767
20
-0.692955
11
0.778856
21
-0.693015
0
LINE
8
BLACK
6
CONTINUOUS
10
0.778856
20
-0.693015
11
0.778963
21
-0.693018
0
LINE
8
BLACK
6
CONTINUOUS
10
0.778963
20
-0.693018
11
0.797762
21
-0.701388
0
LINE
8
BLACK
6
CONTINUOUS
10
0.797762
20
-0.701388
11
0.797836
21
-0.701466
0
LINE
8
BLACK
6
CONTINUOUS
10
0.797836
20
-0.701466
11
0.797941
21
-0.701491
0
LINE
8
BLACK
6
CONTINUOUS
10
0.797941
20
-0.701491
11
0.814586
21
-0.713586
0
LINE
8
BLACK
6
CONTINUOUS
10
0.814586
20
-0.713586
11
0.814635
21
-0.713666
0
LINE
8
BLACK
6
CONTINUOUS
10
0.814635
20
-0.713666
11
0.814721
21
-0.713704
0
LINE
8
BLACK
6
CONTINUOUS
10
0.814721
20
-0.713704
11
1.04242
21
-0.953385
0
LINE
8
BLACK
6
CONTINUOUS
10
1.04242
20
-0.953385
11
1.04242
21
-0.953398
0
LINE
8
BLACK
6
CONTINUOUS
10
1.04242
20
-0.953398
11
1.04244
21
-0.953404
0
LINE
8
BLACK
6
CONTINUOUS
10
1.04244
20
-0.953404
11
1.0562
21
-0.968696
0
LINE
8
BLACK
6
CONTINUOUS
10
1.0562
20
-0.968696
11
1.05624
21
-0.968797
0
LINE
8
BLACK
6
CONTINUOUS
10
1.05624
20
-0.968797
11
1.05632
21
-0.968862
0
LINE
8
BLACK
6
CONTINUOUS
10
1.05632
20
-0.968862
11
1.06661
21
-0.986681
0
LINE
8
BLACK
6
CONTINUOUS
10
1.06661
20
-0.986681
11
1.06663
21
-0.986788
0
LINE
8
BLACK
6
CONTINUOUS
10
1.06663
20
-0.986788
11
1.0667
21
-0.986869
0
LINE
8
BLACK
6
CONTINUOUS
10
1.0667
20
-0.986869
11
1.07306
21
-1.00644
0
LINE
8
BLACK
6
CONTINUOUS
10
1.07306
20
-1.00644
11
1.07305
21
-1.00655
0
LINE
8
BLACK
6
CONTINUOUS
10
1.07305
20
-1.00655
11
1.0731
21
-1.00664
0
LINE
8
BLACK
6
CONTINUOUS
10
1.0731
20
-1.00664
11
1.07525
21
-1.0271
0
LINE
8
BLACK
6
CONTINUOUS
10
1.07525
20
-1.0271
11
1.07522
21
-1.0272
0
LINE
8
BLACK
6
CONTINUOUS
10
1.07522
20
-1.0272
11
1.07525
21
-1.02731
0
LINE
8
BLACK
6
CONTINUOUS
10
1.07525
20
-1.02731
11
1.0731
21
-1.04777
0
LINE
8
BLACK
6
CONTINUOUS
10
1.0731
20
-1.04777
11
1.07305
21
-1.04787
0
LINE
8
BLACK
6
CONTINUOUS
10
1.07305
20
-1.04787
11
1.07306
21
-1.04797
0
LINE
8
BLACK
6
CONTINUOUS
10
1.07306
20
-1.04797
11
1.0667
21
-1.06754
0
LINE
8
BLACK
6
CONTINUOUS
10
1.0667
20
-1.06754
11
1.06663
21
-1.06763
0
LINE
8
BLACK
6
CONTINUOUS
10
1.06663
20
-1.06763
11
1.06661
21
-1.06773
0
LINE
8
BLACK
6
CONTINUOUS
10
1.06661
20
-1.06773
11
1.05632
21
-1.08555
0
LINE
8
BLACK
6
CONTINUOUS
10
1.05632
20
-1.08555
11
1.05624
21
-1.08562
0
LINE
8
BLACK
6
CONTINUOUS
10
1.05624
20
-1.08562
11
1.0562
21
-1.08572
0
LINE
8
BLACK
6
CONTINUOUS
10
1.0562
20
-1.08572
11
1.04244
21
-1.10101
0
LINE
8
BLACK
6
CONTINUOUS
10
1.04244
20
-1.10101
11
1.0424
21
-1.10103
0
LINE
8
BLACK
6
CONTINUOUS
10
1.0424
20
-1.10103
11
1.04238
21
-1.10106
0
LINE
8
BLACK
6
CONTINUOUS
10
1.04238
20
-1.10106
11
1.01491
21
-1.12714
0
LINE
8
BLACK
6
CONTINUOUS
10
1.01491
20
-1.12714
11
1.01488
21
-1.12715
0
LINE
8
BLACK
6
CONTINUOUS
10
1.01488
20
-1.12715
11
1.01487
21
-1.12717
0
LINE
8
BLACK
6
CONTINUOUS
10
1.01487
20
-1.12717
11
0.95845
21
-1.17536
0
LINE
8
BLACK
6
CONTINUOUS
10
0.95845
20
-1.17536
11
0.958424
21
-1.17537
0
LINE
8
BLACK
6
CONTINUOUS
10
0.958424
20
-1.17537
11
0.95841
21
-1.17539
0
LINE
8
BLACK
6
CONTINUOUS
10
0.95841
20
-1.17539
11
0.89954
21
-1.22056
0
LINE
8
BLACK
6
CONTINUOUS
10
0.89954
20
-1.22056
11
0.899526
21
-1.22057
0
LINE
8
BLACK
6
CONTINUOUS
10
0.899526
20
-1.22057
11
0.899519
21
-1.22058
0
LINE
8
BLACK
6
CONTINUOUS
10
0.899519
20
-1.22058
11
0.882874
21
-1.23267
0
LINE
8
BLACK
6
CONTINUOUS
10
0.882874
20
-1.23267
11
0.88286
21
-1.23268
0
LINE
8
BLACK
6
CONTINUOUS
10
0.88286
20
-1.23268
11
0.882852
21
-1.23269
0
LINE
8
BLACK
6
CONTINUOUS
10
0.882852
20
-1.23269
11
0.821699
21
-1.27472
0
LINE
8
BLACK
6
CONTINUOUS
10
0.821699
20
-1.27472
11
0.821672
21
-1.27472
0
LINE
8
BLACK
6
CONTINUOUS
10
0.821672
20
-1.27472
11
0.821656
21
-1.27475
0
LINE
8
BLACK
6
CONTINUOUS
10
0.821656
20
-1.27475
11
0.758388
21
-1.31352
0
LINE
8
BLACK
6
CONTINUOUS
10
0.758388
20
-1.31352
11
0.758361
21
-1.31352
0
LINE
8
BLACK
6
CONTINUOUS
10
0.758361
20
-1.31352
11
0.758344
21
-1.31354
0
LINE
8
BLACK
6
CONTINUOUS
10
0.758344
20
-1.31354
11
0.693135
21
-1.34895
0
LINE
8
BLACK
6
CONTINUOUS
10
0.693135
20
-1.34895
11
0.693107
21
-1.34895
0
LINE
8
BLACK
6
CONTINUOUS
10
0.693107
20
-1.34895
11
0.693089
21
-1.34897
0
LINE
8
BLACK
6
CONTINUOUS
10
0.693089
20
-1.34897
11
0.626113
21
-1.38092
0
LINE
8
BLACK
6
CONTINUOUS
10
0.626113
20
-1.38092
11
0.626099
21
-1.38092
0
LINE
8
BLACK
6
CONTINUOUS
10
0.626099
20
-1.38092
11
0.626089
21
-1.38093
0
LINE
8
BLACK
6
CONTINUOUS
10
0.626089
20
-1.38093
11
0.607294
21
-1.3893
0
LINE
8
BLACK
6
CONTINUOUS
10
0.607294
20
-1.3893
11
0.60728
21
-1.3893
0
LINE
8
BLACK
6
CONTINUOUS
10
0.60728
20
-1.3893
11
0.60727
21
-1.38931
0
LINE
8
BLACK
6
CONTINUOUS
10
0.60727
20
-1.38931
11
0.538715
21
-1.4177
0
LINE
8
BLACK
6
CONTINUOUS
10
0.538715
20
-1.4177
11
0.538688
21
-1.4177
0
LINE
8
BLACK
6
CONTINUOUS
10
0.538688
20
-1.4177
11
0.538667
21
-1.41772
0
LINE
8
BLACK
6
CONTINUOUS
10
0.538667
20
-1.41772
11
0.468718
21
-1.44249
0
LINE
8
BLACK
6
CONTINUOUS
10
0.468718
20
-1.44249
11
0.468691
21
-1.44249
0
LINE
8
BLACK
6
CONTINUOUS
10
0.468691
20
-1.44249
11
0.468669
21
-1.44251
0
LINE
8
BLACK
6
CONTINUOUS
10
0.468669
20
-1.44251
11
0.397523
21
-1.46358
0
LINE
8
BLACK
6
CONTINUOUS
10
0.397523
20
-1.46358
11
0.397496
21
-1.46358
0
LINE
8
BLACK
6
CONTINUOUS
10
0.397496
20
-1.46358
11
0.397474
21
-1.46359
0
LINE
8
BLACK
6
CONTINUOUS
10
0.397474
20
-1.46359
11
0.325322
21
-1.48091
0
LINE
8
BLACK
6
CONTINUOUS
10
0.325322
20
-1.48091
11
0.325308
21
-1.48091
0
LINE
8
BLACK
6
CONTINUOUS
10
0.325308
20
-1.48091
11
0.325297
21
-1.48092
0
LINE
8
BLACK
6
CONTINUOUS
10
0.325297
20
-1.48092
11
0.305171
21
-1.4852
0
LINE
8
BLACK
6
CONTINUOUS
10
0.305171
20
-1.4852
11
0.305157
21
-1.4852
0
LINE
8
BLACK
6
CONTINUOUS
10
0.305157
20
-1.4852
11
0.305145
21
-1.4852
0
LINE
8
BLACK
6
CONTINUOUS
10
0.305145
20
-1.4852
11
0.232186
21
-1.49873
0
LINE
8
BLACK
6
CONTINUOUS
10
0.232186
20
-1.49873
11
0.232159
21
-1.49872
0
LINE
8
BLACK
6
CONTINUOUS
10
0.232159
20
-1.49872
11
0.232135
21
-1.49874
0
LINE
8
BLACK
6
CONTINUOUS
10
0.232135
20
-1.49874
11
0.158567
21
-1.50842
0
LINE
8
BLACK
6
CONTINUOUS
10
0.158567
20
-1.50842
11
0.15854
21
-1.50841
0
LINE
8
BLACK
6
CONTINUOUS
10
0.15854
20
-1.50841
11
0.158516
21
-1.50843
0
LINE
8
BLACK
6
CONTINUOUS
10
0.158516
20
-1.50843
11
0.0845419
21
-1.51425
0
LINE
8
BLACK
6
CONTINUOUS
10
0.0845419
20
-1.51425
11
0.0845156
21
-1.51424
0
LINE
8
BLACK
6
CONTINUOUS
10
0.0845156
20
-1.51424
11
0.0844904
21
-1.51425
0
LINE
8
BLACK
6
CONTINUOUS
10
0.0844904
20
-1.51425
11
0.0103134
21
-1.51619
0
LINE
8
BLACK
6
CONTINUOUS
10
0.0103134
20
-1.51619
11
0.0103004
21
-1.51619
0
LINE
8
BLACK
6
CONTINUOUS
10
0.0103004
20
-1.51619
11
0.0102876
21
-1.51619
0
LINE
8
BLACK
6
CONTINUOUS
10
0.0102876
20
-1.51619
11
-0.0102877
21
-1.51619
0
LINE
8
BLACK
6
CONTINUOUS
10
-0.0102877
20
-1.51619
11
-0.0103005
21
-1.51619
0
LINE
8
BLACK
6
CONTINUOUS
10
-0.0103005
20
-1.51619
11
-0.0103134
21
-1.51619
0
LINE
8
BLACK
6
CONTINUOUS
10
-0.0103134
20
-1.51619
11
-0.0844904
21
-1.51425
0
LINE
8
BLACK
6
CONTINUOUS
10
-0.0844904
20
-1.51425
11
-0.0845156
21
-1.51424
0
LINE
8
BLACK
6
CONTINUOUS
10
-0.0845156
20
-1.51424
11
-0.0845419
21
-1.51425
0
LINE
8
BLACK
6
CONTINUOUS
10
-0.0845419
20
-1.51425
11
-0.158516
21
-1.50843
0
LINE
8
BLACK
6
CONTINUOUS
10
-0.158516
20
-1.50843
11
-0.15854
21
-1.50841
0
LINE
8
BLACK
6
CONTINUOUS
10
-0.15854
20
-1.50841
11
-0.158567
21
-1.50842
0
LINE
8
BLACK
6
CONTINUOUS
10
-0.158567
20
-1.50842
11
-0.232135
21
-1.49874
0
LINE
8
BLACK
6
CONTINUOUS
10
-0.232135
20
-1.49874
11
-0.232159
21
-1.49872
0
LINE
8
BLACK
6
CONTINUOUS
10
-0.232159
20
-1.49872
11
-0.232186
21
-1.49873
0
LINE
8
BLACK
6
CONTINUOUS
10
-0.232186
20
-1.49873
11
-0.305146
21
-1.4852
0
LINE
8
BLACK
6
CONTINUOUS
10
-0.305146
20
-1.4852
11
-0.305157
21
-1.4852
0
LINE
8
BLACK
6
CONTINUOUS
10
-0.305157
20
-1.4852
11
-0.305171
21
-1.4852
0
LINE
8
BLACK
6
CONTINUOUS
10
-0.305171
20
-1.4852
11
-0.325297
21
-1.48092
0
LINE
8
BLACK
6
CONTINUOUS
10
-0.325297
20
-1.48092
11
-0.325309
21
-1.48091
0
LINE
8
BLACK
6
CONTINUOUS
10
-0.325309
20
-1.48091
11
-0.325322
21
-1.48091
0
LINE
8
BLACK
6
CONTINUOUS
10
-0.325322
20
-1.48091
11
-0.397474
21
-1.46359
0
LINE
8
BLACK
6
CONTINUOUS
10
-0.397474
20
-1.46359
11
-0.397496
21
-1.46358
0
LINE
8
BLACK
6
CONTINUOUS
10
-0.397496
20
-1.46358
11
-0.397524
21
-1.46358
0
LINE
8
BLACK
6
CONTINUOUS
10
-0.397524
20
-1.46358
11
-0.468669
21
-1.44251
0
LINE
8
BLACK
6
CONTINUOUS
10
-0.468669
20
-1.44251
11
-0.468691
21
-1.44249
0
LINE
8
BLACK
6
CONTINUOUS
10
-0.468691
20
-1.44249
11
-0.468718
21
-1.44249
0
LINE
8
BLACK
6
CONTINUOUS
10
-0.468718
20
-1.44249
11
-0.538667
21
-1.41772
0
LINE
8
BLACK
6
CONTINUOUS
10
-0.538667
20
-1.41772
11
-0.538688
21
-1.4177
0
LINE
8
BLACK
6
CONTINUOUS
10
-0.538688
20
-1.4177
11
-0.538715
21
-1.4177
0
LINE
8
BLACK
6
CONTINUOUS
10
-0.538715
20
-1.4177
11
-0.60727
21
-1.38931
0
LINE
8
BLACK
6
CONTINUOUS
10
-0.60727
20
-1.38931
11
-0.60728
21
-1.3893
0
LINE
8
BLACK
6
CONTINUOUS
10
-0.60728
20
-1.3893
11
-0.607294
21
-1.3893
0
LINE
8
BLACK
6
CONTINUOUS
10
-0.607294
20
-1.3893
11
-0.626089
21
-1.38093
0
LINE
8
BLACK
6
CONTINUOUS
10
-0.626089
20
-1.38093
11
-0.626099
21
-1.38092
0
LINE
8
BLACK
6
CONTINUOUS
10
-0.626099
20
-1.38092
11
-0.626113
21
-1.38092
0
LINE
8
BLACK
6
CONTINUOUS
10
-0.626113
20
-1.38092
11
-0.693089
21
-1.34897
0
LINE
8
BLACK
6
CONTINUOUS
10
-0.693089
20
-1.34897
11
-0.693108
21
-1.34895
0
LINE
8
BLACK
6
CONTINUOUS
10
-0.693108
20
-1.34895
11
-0.693135
21
-1.34895
0
LINE
8
BLACK
6
CONTINUOUS
10
-0.693135
20
-1.34895
11
-0.758344
21
-1.31354
0
LINE
8
BLACK
6
CONTINUOUS
10
-0.758344
20
-1.31354
11
-0.758361
21
-1.31352
0
LINE
8
BLACK
6
CONTINUOUS
10
-0.758361
20
-1.31352
11
-0.758388
21
-1.31352
0
LINE
8
BLACK
6
CONTINUOUS
10
-0.758388
20
-1.31352
11
-0.821656
21
-1.27474
0
LINE
8
BLACK
6
CONTINUOUS
10
-0.821656
20
-1.27474
11
-0.821672
21
-1.27472
0
LINE
8
BLACK
6
CONTINUOUS
10
-0.821672
20
-1.27472
11
-0.821699
21
-1.27472
0
LINE
8
BLACK
6
CONTINUOUS
10
-0.821699
20
-1.27472
11
-0.882853
21
-1.23269
0
LINE
8
BLACK
6
CONTINUOUS
10
-0.882853
20
-1.23269
11
-0.88286
21
-1.23268
0
LINE
8
BLACK
6
CONTINUOUS
10
-0.88286
20
-1.23268
11
-0.882874
21
-1.23267
0
LINE
8
BLACK
6
CONTINUOUS
10
-0.882874
20
-1.23267
11
-0.899519
21
-1.22058
0
LINE
8
BLACK
6
CONTINUOUS
10
-0.899519
20
-1.22058
11
-0.899527
21
-1.22057
0
LINE
8
BLACK
6
CONTINUOUS
10
-0.899527
20
-1.22057
11
-0.89954
21
-1.22056
0
LINE
8
BLACK
6
CONTINUOUS
10
-0.89954
20
-1.22056
11
-0.95841
21
-1.17539
0
LINE
8
BLACK
6
CONTINUOUS
10
-0.95841
20
-1.17539
11
-0.958424
21
-1.17537
0
LINE
8
BLACK
6
CONTINUOUS
10
-0.958424
20
-1.17537
11
-0.95845
21
-1.17536
0
LINE
8
BLACK
6
CONTINUOUS
10
-0.95845
20
-1.17536
11
-1.01487
21
-1.12717
0
LINE
8
BLACK
6
CONTINUOUS
10
-1.01487
20
-1.12717
11
-1.01488
21
-1.12715
0
LINE
8
BLACK
6
CONTINUOUS
10
-1.01488
20
-1.12715
11
-1.01491
21
-1.12714
0
LINE
8
BLACK
6
CONTINUOUS
10
-1.01491
20
-1.12714
11
-1.04238
21
-1.10106
0
LINE
8
BLACK
6
CONTINUOUS
10
-1.04238
20
-1.10106
11
-1.0424
21
-1.10103
0
LINE
8
BLACK
6
CONTINUOUS
10
-1.0424
20
-1.10103
11
-1.04244
21
-1.10101
0
LINE
8
BLACK
6
CONTINUOUS
10
-1.04244
20
-1.10101
11
-1.0562
21
-1.08572
0
LINE
8
BLACK
6
CONTINUOUS
10
-1.0562
20
-1.08572
11
-1.05624
21
-1.08562
0
LINE
8
BLACK
6
CONTINUOUS
10
-1.05624
20
-1.08562
11
-1.05632
21
-1.08555
0
LINE
8
BLACK
6
CONTINUOUS
10
-1.05632
20
-1.08555
11
-1.06661
21
-1.06773
0
LINE
8
BLACK
6
CONTINUOUS
10
-1.06661
20
-1.06773
11
-1.06663
21
-1.06763
0
LINE
8
BLACK
6
CONTINUOUS
10
-1.06663
20
-1.06763
11
-1.0667
21
-1.06754
0
LINE
8
BLACK
6
CONTINUOUS
10
-1.0667
20
-1.06754
11
-1.07306
21
-1.04797
0
LINE
8
BLACK
6
CONTINUOUS
10
-1.07306
20
-1.04797
11
-1.07305
21
-1.04787
0
LINE
8
BLACK
6
CONTINUOUS
10
-1.07305
20
-1.04787
11
-1.0731
21
-1.04777
0
LINE
8
BLACK
6
CONTINUOUS
10
-1.0731
20
-1.04777
11
-1.07525
21
-1.02731
0
LINE
8
BLACK
6
CONTINUOUS
10
-1.07525
20
-1.02731
11
-1.07522
21
-1.0272
0
LINE
8
BLACK
6
CONTINUOUS
10
-1.07522
20
-1.0272
11
-1.07525
21
-1.0271
0
LINE
8
BLACK
6
CONTINUOUS
10
-1.07525
20
-1.0271
11
-1.0731
21
-1.00664
0
LINE
8
BLACK
6
CONTINUOUS
10
-1.0731
20
-1.00664
11
-1.07305
21
-1.00655
0
LINE
8
BLACK
6
CONTINUOUS
10
-1.07305
20
-1.00655
11
-1.07306
21
-1.00644
0
LINE
8
BLACK
6
CONTINUOUS
10
-1.07306
20
-1.00644
11
-1.0667
21
-0.986869
0
LINE
8
BLACK
6
CONTINUOUS
10
-1.0667
20
-0.986869
11
-1.06663
21
-0.986788
0
LINE
8
BLACK
6
CONTINUOUS
10
-1.06663
20
-0.986788
11
-1.06661
21
-0.986681
0
LINE
8
BLACK
6
CONTINUOUS
10
-1.06661
20
-0.986681
11
-1.05632
21
-0.968862
0
LINE
8
BLACK
6
CONTINUOUS
10
-1.05632
20
-0.968862
11
-1.05624
21
-0.968797
0
LINE
8
BLACK
6
CONTINUOUS
10
-1.05624
20
-0.968797
11
-1.0562
21
-0.968696
0
LINE
8
BLACK
6
CONTINUOUS
10
-1.0562
20
-0.968696
11
-1.04244
21
-0.953404
0
LINE
8
BLACK
6
CONTINUOUS
10
-1.04244
20
-0.953404
11
-1.04242
21
-0.953398
0
LINE
8
BLACK
6
CONTINUOUS
10
-1.04242
20
-0.953398
11
-1.04242
21
-0.953385
0
LINE
8
BLACK
6
CONTINUOUS
10
-1.04242
20
-0.953385
11
-0.814721
21
-0.713704
0
LINE
8
BLACK
6
CONTINUOUS
10
-0.814721
20
-0.713704
11
-0.814636
21
-0.713666
0
LINE
8
BLACK
6
CONTINUOUS
10
-0.814636
20
-0.713666
11
-0.814586
21
-0.713586
0
LINE
8
BLACK
6
CONTINUOUS
10
-0.814586
20
-0.713586
11
-0.797941
21
-0.701491
0
LINE
8
BLACK
6
CONTINUOUS
10
-0.797941
20
-0.701491
11
-0.797836
21
-0.701466
0
LINE
8
BLACK
6
CONTINUOUS
10
-0.797836
20
-0.701466
11
-0.797763
21
-0.701388
0
LINE
8
BLACK
6
CONTINUOUS
10
-0.797763
20
-0.701388
11
-0.778963
21
-0.693018
0
LINE
8
BLACK
6
CONTINUOUS
10
-0.778963
20
-0.693018
11
-0.778856
21
-0.693015
0
LINE
8
BLACK
6
CONTINUOUS
10
-0.778856
20
-0.693015
11
-0.778768
21
-0.692955
0
LINE
8
BLACK
6
CONTINUOUS
10
-0.778768
20
-0.692955
11
-0.758642
21
-0.688675
0
LINE
8
BLACK
6
CONTINUOUS
10
-0.758642
20
-0.688675
11
-0.758536
21
-0.688695
0
LINE
8
BLACK
6
CONTINUOUS
10
-0.758536
20
-0.688695
11
-0.758437
21
-0.688654
0
LINE
8
BLACK
6
CONTINUOUS
10
-0.758437
20
-0.688654
11
-0.737858
21
-0.688654
0
LINE
8
BLACK
6
CONTINUOUS
10
-0.737858
20
-0.688654
11
-0.737759
21
-0.688695
0
LINE
8
BLACK
6
CONTINUOUS
10
0.396955
20
-0.560686
11
0.398233
21
-0.561539
0
LINE
8
BLACK
6
CONTINUOUS
10
0.398233
20
-0.561539
11
0.399086
21
-0.562816
0
LINE
8
BLACK
6
CONTINUOUS
10
0.399086
20
-0.562816
11
0.399386
21
-0.564323
0
LINE
8
BLACK
6
CONTINUOUS
10
0.399386
20
-0.564323
11
0.399386
21
-0.624323
0
LINE
8
BLACK
6
CONTINUOUS
10
0.399386
20
-0.624323
11
0.399086
21
-0.625829
0
LINE
8
BLACK
6
CONTINUOUS
10
0.399086
20
-0.625829
11
0.398233
21
-0.627107
0
LINE
8
BLACK
6
CONTINUOUS
10
0.398233
20
-0.627107
11
0.396955
21
-0.62796
0
LINE
8
BLACK
6
CONTINUOUS
10
0.396955
20
-0.62796
11
0.395449
21
-0.62826
0
LINE
8
BLACK
6
CONTINUOUS
10
0.395449
20
-0.62826
11
0.335449
21
-0.62826
0
LINE
8
BLACK
6
CONTINUOUS
10
0.335449
20
-0.62826
11
0.333942
21
-0.62796
0
LINE
8
BLACK
6
CONTINUOUS
10
0.333942
20
-0.62796
11
0.332665
21
-0.627107
0
LINE
8
BLACK
6
CONTINUOUS
10
0.332665
20
-0.627107
11
0.331811
21
-0.625829
0
LINE
8
BLACK
6
CONTINUOUS
10
0.331811
20
-0.625829
11
0.331512
21
-0.624323
0
LINE
8
BLACK
6
CONTINUOUS
10
0.331512
20
-0.624323
11
0.331512
21
-0.564323
0
LINE
8
BLACK
6
CONTINUOUS
10
0.331512
20
-0.564323
11
0.331811
21
-0.562816
0
LINE
8
BLACK
6
CONTINUOUS
10
0.331811
20
-0.562816
11
0.332665
21
-0.561539
0
LINE
8
BLACK
6
CONTINUOUS
10
0.332665
20
-0.561539
11
0.333942
21
-0.560686
0
LINE
8
BLACK
6
CONTINUOUS
10
0.333942
20
-0.560686
11
0.335449
21
-0.560386
0
LINE
8
BLACK
6
CONTINUOUS
10
0.335449
20
-0.560386
11
0.395449
21
-0.560386
0
LINE
8
BLACK
6
CONTINUOUS
10
0.395449
20
-0.560386
11
0.396955
21
-0.560686
0
LINE
8
BLACK
6
CONTINUOUS
10
0.496955
20
-0.560686
11
0.498233
21
-0.561539
0
LINE
8
BLACK
6
CONTINUOUS
10
0.498233
20
-0.561539
11
0.499086
21
-0.562816
0
LINE
8
BLACK
6
CONTINUOUS
10
0.499086
20
-0.562816
11
0.499386
21
-0.564323
0
LINE
8
BLACK
6
CONTINUOUS
10
0.499386
20
-0.564323
11
0.499386
21
-0.624323
0
LINE
8
BLACK
6
CONTINUOUS
10
0.499386
20
-0.624323
11
0.499086
21
-0.625829
0
LINE
8
BLACK
6
CONTINUOUS
10
0.499086
20
-0.625829
11
0.498233
21
-0.627107
0
LINE
8
BLACK
6
CONTINUOUS
10
0.498233
20
-0.627107
11
0.496955
21
-0.62796
0
LINE
8
BLACK
6
CONTINUOUS
10
0.496955
20
-0.62796
11
0.495449
21
-0.62826
0
LINE
8
BLACK
6
CONTINUOUS
10
0.495449
20
-0.62826
11
0.435449
21
-0.62826
0
LINE
8
BLACK
6
CONTINUOUS
10
0.435449
20
-0.62826
11
0.433942
21
-0.62796
0
LINE
8
BLACK
6
CONTINUOUS
10
0.433942
20
-0.62796
11
0.432665
21
-0.627107
0
LINE
8
BLACK
6
CONTINUOUS
10
0.432665
20
-0.627107
11
0.431811
21
-0.625829
0
LINE
8
BLACK
6
CONTINUOUS
10
0.431811
20
-0.625829
11
0.431512
21
-0.624323
0
LINE
8
BLACK
6
CONTINUOUS
10
0.431512
20
-0.624323
11
0.431512
21
-0.564323
0
LINE
8
BLACK
6
CONTINUOUS
10
0.431512
20
-0.564323
11
0.431811
21
-0.562816
0
LINE
8
BLACK
6
CONTINUOUS
10
0.431811
20
-0.562816
11
0.432665
21
-0.561539
0
LINE
8
BLACK
6
CONTINUOUS
10
0.432665
20
-0.561539
11
0.433942
21
-0.560686
0
LINE
8
BLACK
6
CONTINUOUS
10
0.433942
20
-0.560686
11
0.435449
21
-0.560386
0
LINE
8
BLACK
6
CONTINUOUS
10
0.435449
20
-0.560386
11
0.495449
21
-0.560386
0
LINE
8
BLACK
6
CONTINUOUS
10
0.495449
20
-0.560386
11
0.496955
21
-0.560686
0
LINE
8
BLACK
6
CONTINUOUS
10
0.596955
20
-0.560686
11
0.598233
21
-0.561539
0
LINE
8
BLACK
6
CONTINUOUS
10
0.598233
20
-0.561539
11
0.599086
21
-0.562816
0
LINE
8
BLACK
6
CONTINUOUS
10
0.599086
20
-0.562816
11
0.599386
21
-0.564323
0
LINE
8
BLACK
6
CONTINUOUS
10
0.599386
20
-0.564323
11
0.599386
21
-0.624323
0
LINE
8
BLACK
6
CONTINUOUS
10
0.599386
20
-0.624323
11
0.599086
21
-0.625829
0
LINE
8
BLACK
6
CONTINUOUS
10
0.599086
20
-0.625829
11
0.598233
21
-0.627107
0
LINE
8
BLACK
6
CONTINUOUS
10
0.598233
20
-0.627107
11
0.596955
21
-0.62796
0
LINE
8
BLACK
6
CONTINUOUS
10
0.596955
20
-0.62796
11
0.595449
21
-0.62826
0
LINE
8
BLACK
6
CONTINUOUS
10
0.595449
20
-0.62826
11
0.535449
21
-0.62826
0
LINE
8
BLACK
6
CONTINUOUS
10
0.535449
20
-0.62826
11
0.533942
21
-0.62796
0
LINE
8
BLACK
6
CONTINUOUS
10
0.533942
20
-0.62796
11
0.532665
21
-0.627107
0
LINE
8
BLACK
6
CONTINUOUS
10
0.532665
20
-0.627107
11
0.531811
21
-0.625829
0
LINE
8
BLACK
6
CONTINUOUS
10
0.531811
20
-0.625829
11
0.531512
21
-0.624323
0
LINE
8
BLACK
6
CONTINUOUS
10
0.531512
20
-0.624323
11
0.531512
21
-0.564323
0
LINE
8
BLACK
6
CONTINUOUS
10
0.531512
20
-0.564323
11
0.531811
21
-0.562816
0
LINE
8
BLACK
6
CONTINUOUS
10
0.531811
20
-0.562816
11
0.532665
21
-0.561539
0
LINE
8
BLACK
6
CONTINUOUS
10
0.532665
20
-0.561539
11
0.533942
21
-0.560686
0
LINE
8
BLACK
6
CONTINUOUS
10
0.533942
20
-0.560686
11
0.535449
21
-0.560386
0
LINE
8
BLACK
6
CONTINUOUS
10
0.535449
20
-0.560386
11
0.595449
21
-0.560386
0
LINE
8
BLACK
6
CONTINUOUS
10
0.595449
20
-0.560386
11
0.596955
21
-0.560686
0
LINE
8
BLACK
6
CONTINUOUS
10
0.396955
20
-0.460686
11
0.398233
21
-0.461539
0
LINE
8
BLACK
6
CONTINUOUS
10
0.398233
20
-0.461539
11
0.399086
21
-0.462816
0
LINE
8
BLACK
6
CONTINUOUS
10
0.399086
20
-0.462816
11
0.399386
21
-0.464323
0
LINE
8
BLACK
6
CONTINUOUS
10
0.399386
20
-0.464323
11
0.399386
21
-0.524323
0
LINE
8
BLACK
6
CONTINUOUS
10
0.399386
20
-0.524323
11
0.399086
21
-0.525829
0
LINE
8
BLACK
6
CONTINUOUS
10
0.399086
20
-0.525829
11
0.398233
21
-0.527107
0
LINE
8
BLACK
6
CONTINUOUS
10
0.398233
20
-0.527107
11
0.396955
21
-0.52796
0
LINE
8
BLACK
6
CONTINUOUS
10
0.396955
20
-0.52796
11
0.395449
21
-0.52826
0
LINE
8
BLACK
6
CONTINUOUS
10
0.395449
20
-0.52826
11
0.335449
21
-0.52826
0
LINE
8
BLACK
6
CONTINUOUS
10
0.335449
20
-0.52826
11
0.333942
21
-0.52796
0
LINE
8
BLACK
6
CONTINUOUS
10
0.333942
20
-0.52796
11
0.332665
21
-0.527107
0
LINE
8
BLACK
6
CONTINUOUS
10
0.332665
20
-0.527107
11
0.331811
21
-0.525829
0
LINE
8
BLACK
6
CONTINUOUS
10
0.331811
20
-0.525829
11
0.331512
21
-0.524323
0
LINE
8
BLACK
6
CONTINUOUS
10
0.331512
20
-0.524323
11
0.331512
21
-0.464323
0
LINE
8
BLACK
6
CONTINUOUS
10
0.331512
20
-0.464323
11
0.331811
21
-0.462816
0
LINE
8
BLACK
6
CONTINUOUS
10
0.331811
20
-0.462816
11
0.332665
21
-0.461539
0
LINE
8
BLACK
6
CONTINUOUS
10
0.332665
20
-0.461539
11
0.333942
21
-0.460686
0
LINE
8
BLACK
6
CONTINUOUS
10
0.333942
20
-0.460686
11
0.335449
21
-0.460386
0
LINE
8
BLACK
6
CONTINUOUS
10
0.335449
20
-0.460386
11
0.395449
21
-0.460386
0
LINE
8
BLACK
6
CONTINUOUS
10
0.395449
20
-0.460386
11
0.396955
21
-0.460686
0
LINE
8
BLACK
6
CONTINUOUS
10
0.496955
20
-0.460686
11
0.498233
21
-0.461539
0
LINE
8
BLACK
6
CONTINUOUS
10
0.498233
20
-0.461539
11
0.499086
21
-0.462816
0
LINE
8
BLACK
6
CONTINUOUS
10
0.499086
20
-0.462816
11
0.499386
21
-0.464323
0
LINE
8
BLACK
6
CONTINUOUS
10
0.499386
20
-0.464323
11
0.499386
21
-0.524323
0
LINE
8
BLACK
6
CONTINUOUS
10
0.499386
20
-0.524323
11
0.499086
21
-0.525829
0
LINE
8
BLACK
6
CONTINUOUS
10
0.499086
20
-0.525829
11
0.498233
21
-0.527107
0
LINE
8
BLACK
6
CONTINUOUS
10
0.498233
20
-0.527107
11
0.496955
21
-0.52796
0
LINE
8
BLACK
6
CONTINUOUS
10
0.496955
20
-0.52796
11
0.495449
21
-0.52826
0
LINE
8
BLACK
6
CONTINUOUS
10
0.495449
20
-0.52826
11
0.435449
21
-0.52826
0
LINE
8
BLACK
6
CONTINUOUS
10
0.435449
20
-0.52826
11
0.433942
21
-0.52796
0
LINE
8
BLACK
6
CONTINUOUS
10
0.433942
20
-0.52796
11
0.432665
21
-0.527107
0
LINE
8
BLACK
6
CONTINUOUS
10
0.432665
20
-0.527107
11
0.431811
21
-0.525829
0
LINE
8
BLACK
6
CONTINUOUS
10
0.431811
20
-0.525829
11
0.431512
21
-0.524323
0
LINE
8
BLACK
6
CONTINUOUS
10
0.431512
20
-0.524323
11
0.431512
21
-0.464323
0
LINE
8
BLACK
6
CONTINUOUS
10
0.431512
20
-0.464323
11
0.431811
21
-0.462816
0
LINE
8
BLACK
6
CONTINUOUS
10
0.431811
20
-0.462816
11
0.432665
21
-0.461539
0
LINE
8
BLACK
6
CONTINUOUS
10
0.432665
20
-0.461539
11
0.433942
21
-0.460686
0
LINE
8
BLACK
6
CONTINUOUS
10
0.433942
20
-0.460686
11
0.435449
21
-0.460386
0
LINE
8
BLACK
6
CONTINUOUS
10
0.435449
20
-0.460386
11
0.495449
21
-0.460386
0
LINE
8
BLACK
6
CONTINUOUS
10
0.495449
20
-0.460386
11
0.496955
21
-0.460686
0
LINE
8
BLACK
6
CONTINUOUS
10
0.596955
20
-0.460686
11
0.598233
21
-0.461539
0
LINE
8
BLACK
6
CONTINUOUS
10
0.598233
20
-0.461539
11
0.599086
21
-0.462816
0
LINE
8
BLACK
6
CONTINUOUS
10
0.599086
20
-0.462816
11
0.599386
21
-0.464323
0
LINE
8
BLACK
6
CONTINUOUS
10
0.599386
20
-0.464323
11
0.599386
21
-0.524323
0
LINE
8
BLACK
6
CONTINUOUS
10
0.599386
20
-0.524323
11
0.599086
21
-0.525829
0
LINE
8
BLACK
6
CONTINUOUS
10
0.599086
20
-0.525829
11
0.598233
21
-0.527107
0
LINE
8
BLACK
6
CONTINUOUS
10
0.598233
20
-0.527107
11
0.596955
21
-0.52796
0
LINE
8
BLACK
6
CONTINUOUS
10
0.596955
20
-0.52796
11
0.595449
21
-0.52826
0
LINE
8
BLACK
6
CONTINUOUS
10
0.595449
20
-0.52826
11
0.535449
21
-0.52826
0
LINE
8
BLACK
6
CONTINUOUS
10
0.535449
20
-0.52826
11
0.533942
21
-0.52796
0
LINE
8
BLACK
6
CONTINUOUS
10
0.533942
20
-0.52796
11
0.532665
21
-0.527107
0
LINE
8
BLACK
6
CONTINUOUS
10
0.532665
20
-0.527107
11
0.531811
21
-0.525829
0
LINE
8
BLACK
6
CONTINUOUS
10
0.531811
20
-0.525829
11
0.531512
21
-0.524323
0
LINE
8
BLACK
6
CONTINUOUS
10
0.531512
20
-0.524323
11
0.531512
21
-0.464323
0
LINE
8
BLACK
6
CONTINUOUS
10
0.531512
20
-0.464323
11
0.531811
21
-0.462816
0
LINE
8
BLACK
6
CONTINUOUS
10
0.531811
20
-0.462816
11
0.532665
21
-0.461539
0
LINE
8
BLACK
6
CONTINUOUS
10
0.532665
20
-0.461539
11
0.533942
21
-0.460686
0
LINE
8
BLACK
6
CONTINUOUS
10
0.533942
20
-0.460686
11
0.535449
21
-0.460386
0
LINE
8
BLACK
6
CONTINUOUS
10
0.535449
20
-0.460386
11
0.595449
21
-0.460386
0
LINE
8
BLACK
6
CONTINUOUS
10
0.595449
20
-0.460386
11
0.596955
21
-0.460686
0
LINE
8
BLACK
6
CONTINUOUS
10
-0.744622
20
-0.428835
11
-0.743244
21
-0.429514
0
LINE
8
BLACK
6
CONTINUOUS
10
-0.743244
20
-0.429514
11
-0.742232
21
-0.430669
0
LINE
8
BLACK
6
CONTINUOUS
10
-0.742232
20
-0.430669
11
-0.719594
21
-0.469879
0
LINE
8
BLACK
6
CONTINUOUS
10
-0.719594
20
-0.469879
11
-0.7191
21
-0.471334
0
LINE
8
BLACK
6
CONTINUOUS
10
-0.7191
20
-0.471334
11
-0.719201
21
-0.472867
0
LINE
8
BLACK
6
CONTINUOUS
10
-0.719201
20
-0.472867
11
-0.71988
21
-0.474244
0
LINE
8
BLACK
6
CONTINUOUS
10
-0.71988
20
-0.474244
11
-0.721035
21
-0.475257
0
LINE
8
BLACK
6
CONTINUOUS
10
-0.721035
20
-0.475257
11
-0.750016
21
-0.491989
0
LINE
8
BLACK
6
CONTINUOUS
10
-0.750016
20
-0.491989
11
-0.751471
21
-0.492483
0
LINE
8
BLACK
6
CONTINUOUS
10
-0.751471
20
-0.492483
11
-0.753004
21
-0.492383
0
LINE
8
BLACK
6
CONTINUOUS
10
-0.753004
20
-0.492383
11
-0.754381
21
-0.491703
0
LINE
8
BLACK
6
CONTINUOUS
10
-0.754381
20
-0.491703
11
-0.755394
21
-0.490548
0
LINE
8
BLACK
6
CONTINUOUS
10
-0.755394
20
-0.490548
11
-0.778032
21
-0.451339
0
LINE
8
BLACK
6
CONTINUOUS
10
-0.778032
20
-0.451339
11
-0.778526
21
-0.449884
0
LINE
8
BLACK
6
CONTINUOUS
10
-0.778526
20
-0.449884
11
-0.778425
21
-0.448351
0
LINE
8
BLACK
6
CONTINUOUS
10
-0.778425
20
-0.448351
11
-0.777746
21
-0.446973
0
LINE
8
BLACK
6
CONTINUOUS
10
-0.777746
20
-0.446973
11
-0.776591
21
-0.445961
0
LINE
8
BLACK
6
CONTINUOUS
10
-0.776591
20
-0.445961
11
-0.74761
21
-0.429228
0
LINE
8
BLACK
6
CONTINUOUS
10
-0.74761
20
-0.429228
11
-0.746155
21
-0.428735
0
LINE
8
BLACK
6
CONTINUOUS
10
-0.746155
20
-0.428735
11
-0.744622
21
-0.428835
0
LINE
8
BLACK
6
CONTINUOUS
10
-0.701662
20
-0.404032
11
-0.700284
21
-0.404711
0
LINE
8
BLACK
6
CONTINUOUS
10
-0.700284
20
-0.404711
11
-0.699271
21
-0.405866
0
LINE
8
BLACK
6
CONTINUOUS
10
-0.699271
20
-0.405866
11
-0.676634
21
-0.445076
0
LINE
8
BLACK
6
CONTINUOUS
10
-0.676634
20
-0.445076
11
-0.67614
21
-0.446531
0
LINE
8
BLACK
6
CONTINUOUS
10
-0.67614
20
-0.446531
11
-0.67624
21
-0.448064
0
LINE
8
BLACK
6
CONTINUOUS
10
-0.67624
20
-0.448064
11
-0.67692
21
-0.449441
0
LINE
8
BLACK
6
CONTINUOUS
10
-0.67692
20
-0.449441
11
-0.678075
21
-0.450454
0
LINE
8
BLACK
6
CONTINUOUS
10
-0.678075
20
-0.450454
11
-0.711147
21
-0.469549
0
LINE
8
BLACK
6
CONTINUOUS
10
-0.711147
20
-0.469549
11
-0.712602
21
-0.470042
0
LINE
8
BLACK
6
CONTINUOUS
10
-0.712602
20
-0.470042
11
-0.714135
21
-0.469942
0
LINE
8
BLACK
6
CONTINUOUS
10
-0.714135
20
-0.469942
11
-0.715512
21
-0.469262
0
LINE
8
BLACK
6
CONTINUOUS
10
-0.715512
20
-0.469262
11
-0.716525
21
-0.468108
0
LINE
8
BLACK
6
CONTINUOUS
10
-0.716525
20
-0.468108
11
-0.739163
21
-0.428898
0
LINE
8
BLACK
6
CONTINUOUS
10
-0.739163
20
-0.428898
11
-0.739657
21
-0.427443
0
LINE
8
BLACK
6
CONTINUOUS
10
-0.739657
20
-0.427443
11
-0.739556
21
-0.42591
0
LINE
8
BLACK
6
CONTINUOUS
10
-0.739556
20
-0.42591
11
-0.738877
21
-0.424532
0
LINE
8
BLACK
6
CONTINUOUS
10
-0.738877
20
-0.424532
11
-0.737722
21
-0.42352
0
LINE
8
BLACK
6
CONTINUOUS
10
-0.737722
20
-0.42352
11
-0.704649
21
-0.404425
0
LINE
8
BLACK
6
CONTINUOUS
10
-0.704649
20
-0.404425
11
-0.703195
21
-0.403931
0
LINE
8
BLACK
6
CONTINUOUS
10
-0.703195
20
-0.403931
11
-0.701662
21
-0.404032
0
LINE
8
BLACK
6
CONTINUOUS
10
-0.769229
20
-0.386216
11
-0.767851
21
-0.386895
0
LINE
8
BLACK
6
CONTINUOUS
10
-0.767851
20
-0.386895
11
-0.766838
21
-0.38805
0
LINE
8
BLACK
6
CONTINUOUS
10
-0.766838
20
-0.38805
11
-0.748137
21
-0.420441
0
LINE
8
BLACK
6
CONTINUOUS
10
-0.748137
20
-0.420441
11
-0.747643
21
-0.421895
0
LINE
8
BLACK
6
CONTINUOUS
10
-0.747643
20
-0.421895
11
-0.747744
21
-0.423428
0
LINE
8
BLACK
6
CONTINUOUS
10
-0.747744
20
-0.423428
11
-0.748423
21
-0.424806
0
LINE
8
BLACK
6
CONTINUOUS
10
-0.748423
20
-0.424806
11
-0.749578
21
-0.425819
0
LINE
8
BLACK
6
CONTINUOUS
10
-0.749578
20
-0.425819
11
-0.778559
21
-0.442551
0
LINE
8
BLACK
6
CONTINUOUS
10
-0.778559
20
-0.442551
11
-0.780014
21
-0.443045
0
LINE
8
BLACK
6
CONTINUOUS
10
-0.780014
20
-0.443045
11
-0.781547
21
-0.442944
0
LINE
8
BLACK
6
CONTINUOUS
10
-0.781547
20
-0.442944
11
-0.782925
21
-0.442265
0
LINE
8
BLACK
6
CONTINUOUS
10
-0.782925
20
-0.442265
11
-0.783937
21
-0.44111
0
LINE
8
BLACK
6
CONTINUOUS
10
-0.783937
20
-0.44111
11
-0.802638
21
-0.408719
0
LINE
8
BLACK
6
CONTINUOUS
10
-0.802638
20
-0.408719
11
-0.803132
21
-0.407265
0
LINE
8
BLACK
6
CONTINUOUS
10
-0.803132
20
-0.407265
11
-0.803032
21
-0.405732
0
LINE
8
BLACK
6
CONTINUOUS
10
-0.803032
20
-0.405732
11
-0.802352
21
-0.404354
0
LINE
8
BLACK
6
CONTINUOUS
10
-0.802352
20
-0.404354
11
-0.801197
21
-0.403341
0
LINE
8
BLACK
6
CONTINUOUS
10
-0.801197
20
-0.403341
11
-0.772216
21
-0.386609
0
LINE
8
BLACK
6
CONTINUOUS
10
-0.772216
20
-0.386609
11
-0.770761
21
-0.386115
0
LINE
8
BLACK
6
CONTINUOUS
10
-0.770761
20
-0.386115
11
-0.769229
21
-0.386216
0
LINE
8
BLACK
6
CONTINUOUS
10
-0.726268
20
-0.361412
11
-0.72489
21
-0.362092
0
LINE
8
BLACK
6
CONTINUOUS
10
-0.72489
20
-0.362092
11
-0.723878
21
-0.363247
0
LINE
8
BLACK
6
CONTINUOUS
10
-0.723878
20
-0.363247
11
-0.705177
21
-0.395638
0
LINE
8
BLACK
6
CONTINUOUS
10
-0.705177
20
-0.395638
11
-0.704683
21
-0.397092
0
LINE
8
BLACK
6
CONTINUOUS
10
-0.704683
20
-0.397092
11
-0.704784
21
-0.398625
0
LINE
8
BLACK
6
CONTINUOUS
10
-0.704784
20
-0.398625
11
-0.705463
21
-0.400003
0
LINE
8
BLACK
6
CONTINUOUS
10
-0.705463
20
-0.400003
11
-0.706618
21
-0.401016
0
LINE
8
BLACK
6
CONTINUOUS
10
-0.706618
20
-0.401016
11
-0.739691
21
-0.42011
0
LINE
8
BLACK
6
CONTINUOUS
10
-0.739691
20
-0.42011
11
-0.741145
21
-0.420604
0
LINE
8
BLACK
6
CONTINUOUS
10
-0.741145
20
-0.420604
11
-0.742678
21
-0.420503
0
LINE
8
BLACK
6
CONTINUOUS
10
-0.742678
20
-0.420503
11
-0.744056
21
-0.419824
0
LINE
8
BLACK
6
CONTINUOUS
10
-0.744056
20
-0.419824
11
-0.745069
21
-0.418669
0
LINE
8
BLACK
6
CONTINUOUS
10
-0.745069
20
-0.418669
11
-0.763769
21
-0.386278
0
LINE
8
BLACK
6
CONTINUOUS
10
-0.763769
20
-0.386278
11
-0.764263
21
-0.384824
0
LINE
8
BLACK
6
CONTINUOUS
10
-0.764263
20
-0.384824
11
-0.764163
21
-0.383291
0
LINE
8
BLACK
6
CONTINUOUS
10
-0.764163
20
-0.383291
11
-0.763483
21
-0.381913
0
LINE
8
BLACK
6
CONTINUOUS
10
-0.763483
20
-0.381913
11
-0.762328
21
-0.3809
0
LINE
8
BLACK
6
CONTINUOUS
10
-0.762328
20
-0.3809
11
-0.729256
21
-0.361806
0
LINE
8
BLACK
6
CONTINUOUS
10
-0.729256
20
-0.361806
11
-0.727801
21
-0.361312
0
LINE
8
BLACK
6
CONTINUOUS
10
-0.727801
20
-0.361312
11
-0.726268
21
-0.361412
0
LINE
8
BLACK
6
CONTINUOUS
10
1.40159
20
-0.139591
11
1.40286
21
-0.140444
0
LINE
8
BLACK
6
CONTINUOUS
10
1.40286
20
-0.140444
11
1.40372
21
-0.141722
0
LINE
8
BLACK
6
CONTINUOUS
10
1.40372
20
-0.141722
11
1.40402
21
-0.143228
0
LINE
8
BLACK
6
CONTINUOUS
10
1.40402
20
-0.143228
11
1.40402
21
-0.203228
0
LINE
8
BLACK
6
CONTINUOUS
10
1.40402
20
-0.203228
11
1.40372
21
-0.204735
0
LINE
8
BLACK
6
CONTINUOUS
10
1.40372
20
-0.204735
11
1.40286
21
-0.206012
0
LINE
8
BLACK
6
CONTINUOUS
10
1.40286
20
-0.206012
11
1.40159
21
-0.206866
0
LINE
8
BLACK
6
CONTINUOUS
10
1.40159
20
-0.206866
11
1.40008
21
-0.207165
0
LINE
8
BLACK
6
CONTINUOUS
10
1.40008
20
-0.207165
11
1.34008
21
-0.207165
0
LINE
8
BLACK
6
CONTINUOUS
10
1.34008
20
-0.207165
11
1.33857
21
-0.206866
0
LINE
8
BLACK
6
CONTINUOUS
10
1.33857
20
-0.206866
11
1.33729
21
-0.206012
0
LINE
8
BLACK
6
CONTINUOUS
10
1.33729
20
-0.206012
11
1.33644
21
-0.204735
0
LINE
8
BLACK
6
CONTINUOUS
10
1.33644
20
-0.204735
11
1.33614
21
-0.203228
0
LINE
8
BLACK
6
CONTINUOUS
10
1.33614
20
-0.203228
11
1.33614
21
-0.143228
0
LINE
8
BLACK
6
CONTINUOUS
10
1.33614
20
-0.143228
11
1.33644
21
-0.141722
0
LINE
8
BLACK
6
CONTINUOUS
10
1.33644
20
-0.141722
11
1.33729
21
-0.140444
0
LINE
8
BLACK
6
CONTINUOUS
10
1.33729
20
-0.140444
11
1.33857
21
-0.139591
0
LINE
8
BLACK
6
CONTINUOUS
10
1.33857
20
-0.139591
11
1.34008
21
-0.139291
0
LINE
8
BLACK
6
CONTINUOUS
10
1.34008
20
-0.139291
11
1.40008
21
-0.139291
0
LINE
8
BLACK
6
CONTINUOUS
10
1.40008
20
-0.139291
11
1.40159
21
-0.139591
0
LINE
8
BLACK
6
CONTINUOUS
10
-0.440294
20
0.0932001
11
-0.440164
21
0.0932229
0
LINE
8
BLACK
6
CONTINUOUS
10
-0.440164
20
0.0932229
11
-0.440051
21
0.0931573
0
LINE
8
BLACK
6
CONTINUOUS
10
-0.440051
20
0.0931573
11
-0.439667
21
0.0930896
0
LINE
8
BLACK
6
CONTINUOUS
10
-0.439667
20
0.0930896
11
-0.43908
21
0.0925965
0
LINE
8
BLACK
6
CONTINUOUS
10
-0.43908
20
0.0925965
11
-0.438415
21
0.092213
0
LINE
8
BLACK
6
CONTINUOUS
10
-0.438415
20
0.092213
11
-0.438324
21
0.0919626
0
LINE
8
BLACK
6
CONTINUOUS
10
-0.438324
20
0.0919626
11
-0.43812
21
0.0917913
0
LINE
8
BLACK
6
CONTINUOUS
10
-0.43812
20
0.0917913
11
-0.437987
21
0.0910358
0
LINE
8
BLACK
6
CONTINUOUS
10
-0.437987
20
0.0910358
11
-0.437724
21
0.090315
0
LINE
8
BLACK
6
CONTINUOUS
10
-0.437724
20
0.090315
11
-0.437724
21
0.0637402
0
LINE
8
BLACK
6
CONTINUOUS
10
-0.437724
20
0.0637402
11
-0.295008
21
0.0637402
0
LINE
8
BLACK
6
CONTINUOUS
10
-0.295008
20
0.0637402
11
-0.294624
21
0.0636726
0
LINE
8
BLACK
6
CONTINUOUS
10
-0.294624
20
0.0636726
11
-0.294495
21
0.0636953
0
LINE
8
BLACK
6
CONTINUOUS
10
-0.294495
20
0.0636953
11
-0.294382
21
0.0636297
0
LINE
8
BLACK
6
CONTINUOUS
10
-0.294382
20
0.0636297
11
-0.293998
21
0.0635621
0
LINE
8
BLACK
6
CONTINUOUS
10
-0.293998
20
0.0635621
11
-0.29341
21
0.063069
0
LINE
8
BLACK
6
CONTINUOUS
10
-0.29341
20
0.063069
11
-0.292746
21
0.0626854
0
LINE
8
BLACK
6
CONTINUOUS
10
-0.292746
20
0.0626854
11
-0.292655
21
0.0624351
0
LINE
8
BLACK
6
CONTINUOUS
10
-0.292655
20
0.0624351
11
-0.292451
21
0.0622638
0
LINE
8
BLACK
6
CONTINUOUS
10
-0.292451
20
0.0622638
11
-0.292317
21
0.0615082
0
LINE
8
BLACK
6
CONTINUOUS
10
-0.292317
20
0.0615082
11
-0.292055
21
0.0607874
0
LINE
8
BLACK
6
CONTINUOUS
10
-0.292055
20
0.0607874
11
-0.292055
21
-0.0612598
0
LINE
8
BLACK
6
CONTINUOUS
10
-0.292055
20
-0.0612598
11
-0.292123
21
-0.0616433
0
LINE
8
BLACK
6
CONTINUOUS
10
-0.292123
20
-0.0616433
11
-0.2921
21
-0.0617726
0
LINE
8
BLACK
6
CONTINUOUS
10
-0.2921
20
-0.0617726
11
-0.292166
21
-0.0618862
0
LINE
8
BLACK
6
CONTINUOUS
10
-0.292166
20
-0.0618862
11
-0.292233
21
-0.0622698
0
LINE
8
BLACK
6
CONTINUOUS
10
-0.292233
20
-0.0622698
11
-0.292726
21
-0.0628574
0
LINE
8
BLACK
6
CONTINUOUS
10
-0.292726
20
-0.0628574
11
-0.29311
21
-0.0635218
0
LINE
8
BLACK
6
CONTINUOUS
10
-0.29311
20
-0.0635218
11
-0.29336
21
-0.0636129
0
LINE
8
BLACK
6
CONTINUOUS
10
-0.29336
20
-0.0636129
11
-0.293531
21
-0.063817
0
LINE
8
BLACK
6
CONTINUOUS
10
-0.293531
20
-0.063817
11
-0.294287
21
-0.0639502
0
LINE
8
BLACK
6
CONTINUOUS
10
-0.294287
20
-0.0639502
11
-0.295008
21
-0.0642126
0
LINE
8
BLACK
6
CONTINUOUS
10
-0.295008
20
-0.0642126
11
-0.437724
21
-0.0642126
0
LINE
8
BLACK
6
CONTINUOUS
10
-0.437724
20
-0.0642126
11
-0.437724
21
-0.0888189
0
LINE
8
BLACK
6
CONTINUOUS
10
-0.437724
20
-0.0888189
11
-0.437792
21
-0.0892024
0
LINE
8
BLACK
6
CONTINUOUS
10
-0.437792
20
-0.0892024
11
-0.437769
21
-0.0893317
0
LINE
8
BLACK
6
CONTINUOUS
10
-0.437769
20
-0.0893317
11
-0.437835
21
-0.0894452
0
LINE
8
BLACK
6
CONTINUOUS
10
-0.437835
20
-0.0894452
11
-0.437902
21
-0.0898288
0
LINE
8
BLACK
6
CONTINUOUS
10
-0.437902
20
-0.0898288
11
-0.438396
21
-0.0904165
0
LINE
8
BLACK
6
CONTINUOUS
10
-0.438396
20
-0.0904165
11
-0.438779
21
-0.0910808
0
LINE
8
BLACK
6
CONTINUOUS
10
-0.438779
20
-0.0910808
11
-0.43903
21
-0.0911719
0
LINE
8
BLACK
6
CONTINUOUS
10
-0.43903
20
-0.0911719
11
-0.439201
21
-0.0913761
0
LINE
8
BLACK
6
CONTINUOUS
10
-0.439201
20
-0.0913761
11
-0.439956
21
-0.0915093
0
LINE
8
BLACK
6
CONTINUOUS
10
-0.439956
20
-0.0915093
11
-0.440677
21
-0.0917717
0
LINE
8
BLACK
6
CONTINUOUS
10
-0.440677
20
-0.0917717
11
-0.545008
21
-0.0917717
0
LINE
8
BLACK
6
CONTINUOUS
10
-0.545008
20
-0.0917717
11
-0.545391
21
-0.091704
0
LINE
8
BLACK
6
CONTINUOUS
10
-0.545391
20
-0.091704
11
-0.545521
21
-0.0917268
0
LINE
8
BLACK
6
CONTINUOUS
10
-0.545521
20
-0.0917268
11
-0.545634
21
-0.0916612
0
LINE
8
BLACK
6
CONTINUOUS
10
-0.545634
20
-0.0916612
11
-0.546018
21
-0.0915936
0
LINE
8
BLACK
6
CONTINUOUS
10
-0.546018
20
-0.0915936
11
-0.546606
21
-0.0911004
0
LINE
8
BLACK
6
CONTINUOUS
10
-0.546606
20
-0.0911004
11
-0.54727
21
-0.0907169
0
LINE
8
BLACK
6
CONTINUOUS
10
-0.54727
20
-0.0907169
11
-0.547361
21
-0.0904665
0
LINE
8
BLACK
6
CONTINUOUS
10
-0.547361
20
-0.0904665
11
-0.547565
21
-0.0902953
0
LINE
8
BLACK
6
CONTINUOUS
10
-0.547565
20
-0.0902953
11
-0.547698
21
-0.0895397
0
LINE
8
BLACK
6
CONTINUOUS
10
-0.547698
20
-0.0895397
11
-0.547961
21
-0.0888189
0
LINE
8
BLACK
6
CONTINUOUS
10
-0.547961
20
-0.0888189
11
-0.547961
21
0.090315
0
LINE
8
BLACK
6
CONTINUOUS
10
-0.547961
20
0.090315
11
-0.547893
21
0.0906985
0
LINE
8
BLACK
6
CONTINUOUS
10
-0.547893
20
0.0906985
11
-0.547916
21
0.0908277
0
LINE
8
BLACK
6
CONTINUOUS
10
-0.547916
20
0.0908277
11
-0.54785
21
0.0909413
0
LINE
8
BLACK
6
CONTINUOUS
10
-0.54785
20
0.0909413
11
-0.547783
21
0.0913249
0
LINE
8
BLACK
6
CONTINUOUS
10
-0.547783
20
0.0913249
11
-0.547289
21
0.0919126
0
LINE
8
BLACK
6
CONTINUOUS
10
-0.547289
20
0.0919126
11
-0.546906
21
0.0925769
0
LINE
8
BLACK
6
CONTINUOUS
10
-0.546906
20
0.0925769
11
-0.546656
21
0.092668
0
LINE
8
BLACK
6
CONTINUOUS
10
-0.546656
20
0.092668
11
-0.546484
21
0.0928721
0
LINE
8
BLACK
6
CONTINUOUS
10
-0.546484
20
0.0928721
11
-0.545729
21
0.0930054
0
LINE
8
BLACK
6
CONTINUOUS
10
-0.545729
20
0.0930054
11
-0.545008
21
0.0932677
0
LINE
8
BLACK
6
CONTINUOUS
10
-0.545008
20
0.0932677
11
-0.440677
21
0.0932677
0
LINE
8
BLACK
6
CONTINUOUS
10
-0.440677
20
0.0932677
11
-0.440294
21
0.0932001
0
LINE
8
BLACK
6
CONTINUOUS
10
-0.613775
20
0.225844
11
-0.577889
21
0.212783
0
LINE
8
BLACK
6
CONTINUOUS
10
-0.577889
20
0.212783
11
-0.576576
21
0.211986
0
LINE
8
BLACK
6
CONTINUOUS
10
-0.576576
20
0.211986
11
-0.575668
21
0.210747
0
LINE
8
BLACK
6
CONTINUOUS
10
-0.575668
20
0.210747
11
-0.575303
21
0.209255
0
LINE
8
BLACK
6
CONTINUOUS
10
-0.575303
20
0.209255
11
-0.575536
21
0.207737
0
LINE
8
BLACK
6
CONTINUOUS
10
-0.575536
20
0.207737
11
-0.591021
21
0.165192
0
LINE
8
BLACK
6
CONTINUOUS
10
-0.591021
20
0.165192
11
-0.591818
21
0.163879
0
LINE
8
BLACK
6
CONTINUOUS
10
-0.591818
20
0.163879
11
-0.593057
21
0.16297
0
LINE
8
BLACK
6
CONTINUOUS
10
-0.593057
20
0.16297
11
-0.594549
21
0.162605
0
LINE
8
BLACK
6
CONTINUOUS
10
-0.594549
20
0.162605
11
-0.596068
21
0.162839
0
LINE
8
BLACK
6
CONTINUOUS
10
-0.596068
20
0.162839
11
-0.631954
21
0.1759
0
LINE
8
BLACK
6
CONTINUOUS
10
-0.631954
20
0.1759
11
-0.633267
21
0.176697
0
LINE
8
BLACK
6
CONTINUOUS
10
-0.633267
20
0.176697
11
-0.634175
21
0.177936
0
LINE
8
BLACK
6
CONTINUOUS
10
-0.634175
20
0.177936
11
-0.63454
21
0.179428
0
LINE
8
BLACK
6
CONTINUOUS
10
-0.63454
20
0.179428
11
-0.634307
21
0.180946
0
LINE
8
BLACK
6
CONTINUOUS
10
-0.634307
20
0.180946
11
-0.618821
21
0.223491
0
LINE
8
BLACK
6
CONTINUOUS
10
-0.618821
20
0.223491
11
-0.618024
21
0.224805
0
LINE
8
BLACK
6
CONTINUOUS
10
-0.618024
20
0.224805
11
-0.616786
21
0.225713
0
LINE
8
BLACK
6
CONTINUOUS
10
-0.616786
20
0.225713
11
-0.615294
21
0.226078
0
LINE
8
BLACK
6
CONTINUOUS
10
-0.615294
20
0.226078
11
-0.613775
21
0.225844
0
LINE
8
BLACK
6
CONTINUOUS
10
-0.65595
20
0.241195
11
-0.624504
21
0.229749
0
LINE
8
BLACK
6
CONTINUOUS
10
-0.624504
20
0.229749
11
-0.623191
21
0.228953
0
LINE
8
BLACK
6
CONTINUOUS
10
-0.623191
20
0.228953
11
-0.622282
21
0.227714
0
LINE
8
BLACK
6
CONTINUOUS
10
-0.622282
20
0.227714
11
-0.621917
21
0.226222
0
LINE
8
BLACK
6
CONTINUOUS
10
-0.621917
20
0.226222
11
-0.622151
21
0.224703
0
LINE
8
BLACK
6
CONTINUOUS
10
-0.622151
20
0.224703
11
-0.637636
21
0.182158
0
LINE
8
BLACK
6
CONTINUOUS
10
-0.637636
20
0.182158
11
-0.638433
21
0.180845
0
LINE
8
BLACK
6
CONTINUOUS
10
-0.638433
20
0.180845
11
-0.639672
21
0.179937
0
LINE
8
BLACK
6
CONTINUOUS
10
-0.639672
20
0.179937
11
-0.641164
21
0.179571
0
LINE
8
BLACK
6
CONTINUOUS
10
-0.641164
20
0.179571
11
-0.642682
21
0.179805
0
LINE
8
BLACK
6
CONTINUOUS
10
-0.642682
20
0.179805
11
-0.674129
21
0.191251
0
LINE
8
BLACK
6
CONTINUOUS
10
-0.674129
20
0.191251
11
-0.675442
21
0.192048
0
LINE
8
BLACK
6
CONTINUOUS
10
-0.675442
20
0.192048
11
-0.67635
21
0.193286
0
LINE
8
BLACK
6
CONTINUOUS
10
-0.67635
20
0.193286
11
-0.676715
21
0.194779
0
LINE
8
BLACK
6
CONTINUOUS
10
-0.676715
20
0.194779
11
-0.676482
21
0.196297
0
LINE
8
BLACK
6
CONTINUOUS
10
-0.676482
20
0.196297
11
-0.660997
21
0.238842
0
LINE
8
BLACK
6
CONTINUOUS
10
-0.660997
20
0.238842
11
-0.6602
21
0.240155
0
LINE
8
BLACK
6
CONTINUOUS
10
-0.6602
20
0.240155
11
-0.658961
21
0.241064
0
LINE
8
BLACK
6
CONTINUOUS
10
-0.658961
20
0.241064
11
-0.657469
21
0.241429
0
LINE
8
BLACK
6
CONTINUOUS
10
-0.657469
20
0.241429
11
-0.65595
21
0.241195
0
LINE
8
BLACK
6
CONTINUOUS
10
-0.596944
20
0.272089
11
-0.561058
21
0.259028
0
LINE
8
BLACK
6
CONTINUOUS
10
-0.561058
20
0.259028
11
-0.559744
21
0.258231
0
LINE
8
BLACK
6
CONTINUOUS
10
-0.559744
20
0.258231
11
-0.558836
21
0.256992
0
LINE
8
BLACK
6
CONTINUOUS
10
-0.558836
20
0.256992
11
-0.558471
21
0.2555
0
LINE
8
BLACK
6
CONTINUOUS
10
-0.558471
20
0.2555
11
-0.558705
21
0.253982
0
LINE
8
BLACK
6
CONTINUOUS
10
-0.558705
20
0.253982
11
-0.571497
21
0.218836
0
LINE
8
BLACK
6
CONTINUOUS
10
-0.571497
20
0.218836
11
-0.572294
21
0.217522
0
LINE
8
BLACK
6
CONTINUOUS
10
-0.572294
20
0.217522
11
-0.573532
21
0.216614
0
LINE
8
BLACK
6
CONTINUOUS
10
-0.573532
20
0.216614
11
-0.575025
21
0.216249
0
LINE
8
BLACK
6
CONTINUOUS
10
-0.575025
20
0.216249
11
-0.576543
21
0.216483
0
LINE
8
BLACK
6
CONTINUOUS
10
-0.576543
20
0.216483
11
-0.612429
21
0.229544
0
LINE
8
BLACK
6
CONTINUOUS
10
-0.612429
20
0.229544
11
-0.613742
21
0.230341
0
LINE
8
BLACK
6
CONTINUOUS
10
-0.613742
20
0.230341
11
-0.61465
21
0.23158
0
LINE
8
BLACK
6
CONTINUOUS
10
-0.61465
20
0.23158
11
-0.615015
21
0.233072
0
LINE
8
BLACK
6
CONTINUOUS
10
-0.615015
20
0.233072
11
-0.614782
21
0.23459
0
LINE
8
BLACK
6
CONTINUOUS
10
-0.614782
20
0.23459
11
-0.60199
21
0.269736
0
LINE
8
BLACK
6
CONTINUOUS
10
-0.60199
20
0.269736
11
-0.601193
21
0.271049
0
LINE
8
BLACK
6
CONTINUOUS
10
-0.601193
20
0.271049
11
-0.599954
21
0.271958
0
LINE
8
BLACK
6
CONTINUOUS
10
-0.599954
20
0.271958
11
-0.598462
21
0.272323
0
LINE
8
BLACK
6
CONTINUOUS
10
-0.598462
20
0.272323
11
-0.596944
21
0.272089
0
LINE
8
BLACK
6
CONTINUOUS
10
-0.639119
20
0.28744
11
-0.607672
21
0.275994
0
LINE
8
BLACK
6
CONTINUOUS
10
-0.607672
20
0.275994
11
-0.606359
21
0.275197
0
LINE
8
BLACK
6
CONTINUOUS
10
-0.606359
20
0.275197
11
-0.605451
21
0.273958
0
LINE
8
BLACK
6
CONTINUOUS
10
-0.605451
20
0.273958
11
-0.605086
21
0.272466
0
LINE
8
BLACK
6
CONTINUOUS
10
-0.605086
20
0.272466
11
-0.605319
21
0.270948
0
LINE
8
BLACK
6
CONTINUOUS
10
-0.605319
20
0.270948
11
-0.618111
21
0.235802
0
LINE
8
BLACK
6
CONTINUOUS
10
-0.618111
20
0.235802
11
-0.618908
21
0.234489
0
LINE
8
BLACK
6
CONTINUOUS
10
-0.618908
20
0.234489
11
-0.620147
21
0.23358
0
LINE
8
BLACK
6
CONTINUOUS
10
-0.620147
20
0.23358
11
-0.621639
21
0.233215
0
LINE
8
BLACK
6
CONTINUOUS
10
-0.621639
20
0.233215
11
-0.623158
21
0.233449
0
LINE
8
BLACK
6
CONTINUOUS
10
-0.623158
20
0.233449
11
-0.654604
21
0.244895
0
LINE
8
BLACK
6
CONTINUOUS
10
-0.654604
20
0.244895
11
-0.655917
21
0.245691
0
LINE
8
BLACK
6
CONTINUOUS
10
-0.655917
20
0.245691
11
-0.656826
21
0.24693
0
LINE
8
BLACK
6
CONTINUOUS
10
-0.656826
20
0.24693
11
-0.657191
21
0.248422
0
LINE
8
BLACK
6
CONTINUOUS
10
-0.657191
20
0.248422
11
-0.656957
21
0.249941
0
LINE
8
BLACK
6
CONTINUOUS
10
-0.656957
20
0.249941
11
-0.644165
21
0.285087
0
LINE
8
BLACK
6
CONTINUOUS
10
-0.644165
20
0.285087
11
-0.643368
21
0.2864
0
LINE
8
BLACK
6
CONTINUOUS
10
-0.643368
20
0.2864
11
-0.642129
21
0.287308
0
LINE
8
BLACK
6
CONTINUOUS
10
-0.642129
20
0.287308
11
-0.640637
21
0.287673
0
LINE
8
BLACK
6
CONTINUOUS
10
-0.640637
20
0.287673
11
-0.639119
21
0.28744
0
LINE
8
BLACK
6
CONTINUOUS
10
0.23459
20
0.614782
11
0.269736
21
0.60199
0
LINE
8
BLACK
6
CONTINUOUS
10
0.269736
20
0.60199
11
0.271049
21
0.601193
0
LINE
8
BLACK
6
CONTINUOUS
10
0.271049
20
0.601193
11
0.271958
21
0.599954
0
LINE
8
BLACK
6
CONTINUOUS
10
0.271958
20
0.599954
11
0.272323
21
0.598462
0
LINE
8
BLACK
6
CONTINUOUS
10
0.272323
20
0.598462
11
0.272089
21
0.596944
0
LINE
8
BLACK
6
CONTINUOUS
10
0.272089
20
0.596944
11
0.259028
21
0.561058
0
LINE
8
BLACK
6
CONTINUOUS
10
0.259028
20
0.561058
11
0.258231
21
0.559744
0
LINE
8
BLACK
6
CONTINUOUS
10
0.258231
20
0.559744
11
0.256992
21
0.558836
0
LINE
8
BLACK
6
CONTINUOUS
10
0.256992
20
0.558836
11
0.2555
21
0.558471
0
LINE
8
BLACK
6
CONTINUOUS
10
0.2555
20
0.558471
11
0.253982
21
0.558705
0
LINE
8
BLACK
6
CONTINUOUS
10
0.253982
20
0.558705
11
0.218836
21
0.571497
0
LINE
8
BLACK
6
CONTINUOUS
10
0.218836
20
0.571497
11
0.217522
21
0.572294
0
LINE
8
BLACK
6
CONTINUOUS
10
0.217522
20
0.572294
11
0.216614
21
0.573532
0
LINE
8
BLACK
6
CONTINUOUS
10
0.216614
20
0.573532
11
0.216249
21
0.575025
0
LINE
8
BLACK
6
CONTINUOUS
10
0.216249
20
0.575025
11
0.216483
21
0.576543
0
LINE
8
BLACK
6
CONTINUOUS
10
0.216483
20
0.576543
11
0.229544
21
0.612429
0
LINE
8
BLACK
6
CONTINUOUS
10
0.229544
20
0.612429
11
0.230341
21
0.613742
0
LINE
8
BLACK
6
CONTINUOUS
10
0.230341
20
0.613742
11
0.23158
21
0.61465
0
LINE
8
BLACK
6
CONTINUOUS
10
0.23158
20
0.61465
11
0.233072
21
0.615015
0
LINE
8
BLACK
6
CONTINUOUS
10
0.233072
20
0.615015
11
0.23459
21
0.614782
0
LINE
8
BLACK
6
CONTINUOUS
10
0.180946
20
0.634307
11
0.223491
21
0.618821
0
LINE
8
BLACK
6
CONTINUOUS
10
0.223491
20
0.618821
11
0.224805
21
0.618024
0
LINE
8
BLACK
6
CONTINUOUS
10
0.224805
20
0.618024
11
0.225713
21
0.616786
0
LINE
8
BLACK
6
CONTINUOUS
10
0.225713
20
0.616786
11
0.226078
21
0.615294
0
LINE
8
BLACK
6
CONTINUOUS
10
0.226078
20
0.615294
11
0.225844
21
0.613775
0
LINE
8
BLACK
6
CONTINUOUS
10
0.225844
20
0.613775
11
0.212783
21
0.577889
0
LINE
8
BLACK
6
CONTINUOUS
10
0.212783
20
0.577889
11
0.211986
21
0.576576
0
LINE
8
BLACK
6
CONTINUOUS
10
0.211986
20
0.576576
11
0.210747
21
0.575668
0
LINE
8
BLACK
6
CONTINUOUS
10
0.210747
20
0.575668
11
0.209255
21
0.575303
0
LINE
8
BLACK
6
CONTINUOUS
10
0.209255
20
0.575303
11
0.207737
21
0.575536
0
LINE
8
BLACK
6
CONTINUOUS
10
0.207737
20
0.575536
11
0.165192
21
0.591021
0
LINE
8
BLACK
6
CONTINUOUS
10
0.165192
20
0.591021
11
0.163879
21
0.591818
0
LINE
8
BLACK
6
CONTINUOUS
10
0.163879
20
0.591818
11
0.16297
21
0.593057
0
LINE
8
BLACK
6
CONTINUOUS
10
0.16297
20
0.593057
11
0.162605
21
0.594549
0
LINE
8
BLACK
6
CONTINUOUS
10
0.162605
20
0.594549
11
0.162839
21
0.596068
0
LINE
8
BLACK
6
CONTINUOUS
10
0.162839
20
0.596068
11
0.1759
21
0.631954
0
LINE
8
BLACK
6
CONTINUOUS
10
0.1759
20
0.631954
11
0.176697
21
0.633267
0
LINE
8
BLACK
6
CONTINUOUS
10
0.176697
20
0.633267
11
0.177936
21
0.634175
0
LINE
8
BLACK
6
CONTINUOUS
10
0.177936
20
0.634175
11
0.179428
21
0.63454
0
LINE
8
BLACK
6
CONTINUOUS
10
0.179428
20
0.63454
11
0.180946
21
0.634307
0
LINE
8
BLACK
6
CONTINUOUS
10
0.249941
20
0.656957
11
0.285087
21
0.644165
0
LINE
8
BLACK
6
CONTINUOUS
10
0.285087
20
0.644165
11
0.2864
21
0.643368
0
LINE
8
BLACK
6
CONTINUOUS
10
0.2864
20
0.643368
11
0.287308
21
0.642129
0
LINE
8
BLACK
6
CONTINUOUS
10
0.287308
20
0.642129
11
0.287673
21
0.640637
0
LINE
8
BLACK
6
CONTINUOUS
10
0.287673
20
0.640637
11
0.28744
21
0.639119
0
LINE
8
BLACK
6
CONTINUOUS
10
0.28744
20
0.639119
11
0.275994
21
0.607672
0
LINE
8
BLACK
6
CONTINUOUS
10
0.275994
20
0.607672
11
0.275197
21
0.606359
0
LINE
8
BLACK
6
CONTINUOUS
10
0.275197
20
0.606359
11
0.273958
21
0.605451
0
LINE
8
BLACK
6
CONTINUOUS
10
0.273958
20
0.605451
11
0.272466
21
0.605086
0
LINE
8
BLACK
6
CONTINUOUS
10
0.272466
20
0.605086
11
0.270948
21
0.605319
0
LINE
8
BLACK
6
CONTINUOUS
10
0.270948
20
0.605319
11
0.235802
21
0.618111
0
LINE
8
BLACK
6
CONTINUOUS
10
0.235802
20
0.618111
11
0.234489
21
0.618908
0
LINE
8
BLACK
6
CONTINUOUS
10
0.234489
20
0.618908
11
0.23358
21
0.620147
0
LINE
8
BLACK
6
CONTINUOUS
10
0.23358
20
0.620147
11
0.233215
21
0.621639
0
LINE
8
BLACK
6
CONTINUOUS
10
0.233215
20
0.621639
11
0.233449
21
0.623158
0
LINE
8
BLACK
6
CONTINUOUS
10
0.233449
20
0.623158
11
0.244895
21
0.654604
0
LINE
8
BLACK
6
CONTINUOUS
10
0.244895
20
0.654604
11
0.245691
21
0.655917
0
LINE
8
BLACK
6
CONTINUOUS
10
0.245691
20
0.655917
11
0.24693
21
0.656826
0
LINE
8
BLACK
6
CONTINUOUS
10
0.24693
20
0.656826
11
0.248422
21
0.657191
0
LINE
8
BLACK
6
CONTINUOUS
10
0.248422
20
0.657191
11
0.249941
21
0.656957
0
LINE
8
BLACK
6
CONTINUOUS
10
0.196297
20
0.676482
11
0.238842
21
0.660997
0
LINE
8
BLACK
6
CONTINUOUS
10
0.238842
20
0.660997
11
0.240155
21
0.6602
0
LINE
8
BLACK
6
CONTINUOUS
10
0.240155
20
0.6602
11
0.241064
21
0.658961
0
LINE
8
BLACK
6
CONTINUOUS
10
0.241064
20
0.658961
11
0.241429
21
0.657469
0
LINE
8
BLACK
6
CONTINUOUS
10
0.241429
20
0.657469
11
0.241195
21
0.65595
0
LINE
8
BLACK
6
CONTINUOUS
10
0.241195
20
0.65595
11
0.229749
21
0.624504
0
LINE
8
BLACK
6
CONTINUOUS
10
0.229749
20
0.624504
11
0.228953
21
0.623191
0
LINE
8
BLACK
6
CONTINUOUS
10
0.228953
20
0.623191
11
0.227714
21
0.622282
0
LINE
8
BLACK
6
CONTINUOUS
10
0.227714
20
0.622282
11
0.226222
21
0.621917
0
LINE
8
BLACK
6
CONTINUOUS
10
0.226222
20
0.621917
11
0.224703
21
0.622151
0
LINE
8
BLACK
6
CONTINUOUS
10
0.224703
20
0.622151
11
0.182158
21
0.637636
0
LINE
8
BLACK
6
CONTINUOUS
10
0.182158
20
0.637636
11
0.180845
21
0.638433
0
LINE
8
BLACK
6
CONTINUOUS
10
0.180845
20
0.638433
11
0.179937
21
0.639672
0
LINE
8
BLACK
6
CONTINUOUS
10
0.179937
20
0.639672
11
0.179571
21
0.641164
0
LINE
8
BLACK
6
CONTINUOUS
10
0.179571
20
0.641164
11
0.179805
21
0.642682
0
LINE
8
BLACK
6
CONTINUOUS
10
0.179805
20
0.642682
11
0.191251
21
0.674129
0
LINE
8
BLACK
6
CONTINUOUS
10
0.191251
20
0.674129
11
0.192048
21
0.675442
0
LINE
8
BLACK
6
CONTINUOUS
10
0.192048
20
0.675442
11
0.193286
21
0.67635
0
LINE
8
BLACK
6
CONTINUOUS
10
0.193286
20
0.67635
11
0.194779
21
0.676715
0
LINE
8
BLACK
6
CONTINUOUS
10
0.194779
20
0.676715
11
0.196297
21
0.676482
0
LINE
8
BLACK
6
CONTINUOUS
10
0.0103007
20
1.51619
11
0.0103137
21
1.51619
0
LINE
8
BLACK
6
CONTINUOUS
10
0.0103137
20
1.51619
11
0.0844906
21
1.51425
0
LINE
8
BLACK
6
CONTINUOUS
10
0.0844906
20
1.51425
11
0.0845158
21
1.51424
0
LINE
8
BLACK
6
CONTINUOUS
10
0.0845158
20
1.51424
11
0.0845421
21
1.51425
0
LINE
8
BLACK
6
CONTINUOUS
10
0.0845421
20
1.51425
11
0.158516
21
1.50843
0
LINE
8
BLACK
6
CONTINUOUS
10
0.158516
20
1.50843
11
0.158541
21
1.50841
0
LINE
8
BLACK
6
CONTINUOUS
10
0.158541
20
1.50841
11
0.158567
21
1.50842
0
LINE
8
BLACK
6
CONTINUOUS
10
0.158567
20
1.50842
11
0.232135
21
1.49874
0
LINE
8
BLACK
6
CONTINUOUS
10
0.232135
20
1.49874
11
0.232159
21
1.49872
0
LINE
8
BLACK
6
CONTINUOUS
10
0.232159
20
1.49872
11
0.232186
21
1.49873
0
LINE
8
BLACK
6
CONTINUOUS
10
0.232186
20
1.49873
11
0.305146
21
1.4852
0
LINE
8
BLACK
6
CONTINUOUS
10
0.305146
20
1.4852
11
0.305157
21
1.4852
0
LINE
8
BLACK
6
CONTINUOUS
10
0.305157
20
1.4852
11
0.305171
21
1.4852
0
LINE
8
BLACK
6
CONTINUOUS
10
0.305171
20
1.4852
11
0.325297
21
1.48092
0
LINE
8
BLACK
6
CONTINUOUS
10
0.325297
20
1.48092
11
0.325309
21
1.48091
0
LINE
8
BLACK
6
CONTINUOUS
10
0.325309
20
1.48091
11
0.325322
21
1.48091
0
LINE
8
BLACK
6
CONTINUOUS
10
0.325322
20
1.48091
11
0.397474
21
1.46359
0
LINE
8
BLACK
6
CONTINUOUS
10
0.397474
20
1.46359
11
0.397496
21
1.46358
0
LINE
8
BLACK
6
CONTINUOUS
10
0.397496
20
1.46358
11
0.397524
21
1.46358
0
LINE
8
BLACK
6
CONTINUOUS
10
0.397524
20
1.46358
11
0.46867
21
1.44251
0
LINE
8
BLACK
6
CONTINUOUS
10
0.46867
20
1.44251
11
0.468691
21
1.44249
0
LINE
8
BLACK
6
CONTINUOUS
10
0.468691
20
1.44249
11
0.468719
21
1.44249
0
LINE
8
BLACK
6
CONTINUOUS
10
0.468719
20
1.44249
11
0.538667
21
1.41772
0
LINE
8
BLACK
6
CONTINUOUS
10
0.538667
20
1.41772
11
0.538688
21
1.4177
0
LINE
8
BLACK
6
CONTINUOUS
10
0.538688
20
1.4177
11
0.538715
21
1.4177
0
LINE
8
BLACK
6
CONTINUOUS
10
0.538715
20
1.4177
11
0.607271
21
1.38931
0
LINE
8
BLACK
6
CONTINUOUS
10
0.607271
20
1.38931
11
0.60728
21
1.3893
0
LINE
8
BLACK
6
CONTINUOUS
10
0.60728
20
1.3893
11
0.607294
21
1.3893
0
LINE
8
BLACK
6
CONTINUOUS
10
0.607294
20
1.3893
11
0.62609
21
1.38093
0
LINE
8
BLACK
6
CONTINUOUS
10
0.62609
20
1.38093
11
0.626099
21
1.38092
0
LINE
8
BLACK
6
CONTINUOUS
10
0.626099
20
1.38092
11
0.626113
21
1.38092
0
LINE
8
BLACK
6
CONTINUOUS
10
0.626113
20
1.38092
11
0.693089
21
1.34897
0
LINE
8
BLACK
6
CONTINUOUS
10
0.693089
20
1.34897
11
0.693108
21
1.34895
0
LINE
8
BLACK
6
CONTINUOUS
10
0.693108
20
1.34895
11
0.693135
21
1.34895
0
LINE
8
BLACK
6
CONTINUOUS
10
0.693135
20
1.34895
11
0.758344
21
1.31354
0
LINE
8
BLACK
6
CONTINUOUS
10
0.758344
20
1.31354
11
0.758361
21
1.31352
0
LINE
8
BLACK
6
CONTINUOUS
10
0.758361
20
1.31352
11
0.758389
21
1.31352
0
LINE
8
BLACK
6
CONTINUOUS
10
0.758389
20
1.31352
11
0.821656
21
1.27474
0
LINE
8
BLACK
6
CONTINUOUS
10
0.821656
20
1.27474
11
0.821672
21
1.27472
0
LINE
8
BLACK
6
CONTINUOUS
10
0.821672
20
1.27472
11
0.821699
21
1.27472
0
LINE
8
BLACK
6
CONTINUOUS
10
0.821699
20
1.27472
11
0.882853
21
1.23269
0
LINE
8
BLACK
6
CONTINUOUS
10
0.882853
20
1.23269
11
0.882861
21
1.23268
0
LINE
8
BLACK
6
CONTINUOUS
10
0.882861
20
1.23268
11
0.882874
21
1.23267
0
LINE
8
BLACK
6
CONTINUOUS
10
0.882874
20
1.23267
11
0.899519
21
1.22058
0
LINE
8
BLACK
6
CONTINUOUS
10
0.899519
20
1.22058
11
0.899527
21
1.22057
0
LINE
8
BLACK
6
CONTINUOUS
10
0.899527
20
1.22057
11
0.89954
21
1.22056
0
LINE
8
BLACK
6
CONTINUOUS
10
0.89954
20
1.22056
11
0.95841
21
1.17539
0
LINE
8
BLACK
6
CONTINUOUS
10
0.95841
20
1.17539
11
0.958424
21
1.17537
0
LINE
8
BLACK
6
CONTINUOUS
10
0.958424
20
1.17537
11
0.95845
21
1.17536
0
LINE
8
BLACK
6
CONTINUOUS
10
0.95845
20
1.17536
11
1.01487
21
1.12717
0
LINE
8
BLACK
6
CONTINUOUS
10
1.01487
20
1.12717
11
1.01488
21
1.12715
0
LINE
8
BLACK
6
CONTINUOUS
10
1.01488
20
1.12715
11
1.01491
21
1.12714
0
LINE
8
BLACK
6
CONTINUOUS
10
1.01491
20
1.12714
11
1.04238
21
1.10106
0
LINE
8
BLACK
6
CONTINUOUS
10
1.04238
20
1.10106
11
1.0424
21
1.10103
0
LINE
8
BLACK
6
CONTINUOUS
10
1.0424
20
1.10103
11
1.04244
21
1.10101
0
LINE
8
BLACK
6
CONTINUOUS
10
1.04244
20
1.10101
11
1.0562
21
1.08572
0
LINE
8
BLACK
6
CONTINUOUS
10
1.0562
20
1.08572
11
1.05624
21
1.08562
0
LINE
8
BLACK
6
CONTINUOUS
10
1.05624
20
1.08562
11
1.05633
21
1.08555
0
LINE
8
BLACK
6
CONTINUOUS
10
1.05633
20
1.08555
11
1.06661
21
1.06773
0
LINE
8
BLACK
6
CONTINUOUS
10
1.06661
20
1.06773
11
1.06663
21
1.06763
0
LINE
8
BLACK
6
CONTINUOUS
10
1.06663
20
1.06763
11
1.0667
21
1.06754
0
LINE
8
BLACK
6
CONTINUOUS
10
1.0667
20
1.06754
11
1.07306
21
1.04797
0
LINE
8
BLACK
6
CONTINUOUS
10
1.07306
20
1.04797
11
1.07305
21
1.04787
0
LINE
8
BLACK
6
CONTINUOUS
10
1.07305
20
1.04787
11
1.0731
21
1.04777
0
LINE
8
BLACK
6
CONTINUOUS
10
1.0731
20
1.04777
11
1.07525
21
1.02731
0
LINE
8
BLACK
6
CONTINUOUS
10
1.07525
20
1.02731
11
1.07522
21
1.0272
0
LINE
8
BLACK
6
CONTINUOUS
10
1.07522
20
1.0272
11
1.07525
21
1.0271
0
LINE
8
BLACK
6
CONTINUOUS
10
1.07525
20
1.0271
11
1.0731
21
1.00664
0
LINE
8
BLACK
6
CONTINUOUS
10
1.0731
20
1.00664
11
1.07305
21
1.00655
0
LINE
8
BLACK
6
CONTINUOUS
10
1.07305
20
1.00655
11
1.07306
21
1.00644
0
LINE
8
BLACK
6
CONTINUOUS
10
1.07306
20
1.00644
11
1.0667
21
0.986869
0
LINE
8
BLACK
6
CONTINUOUS
10
1.0667
20
0.986869
11
1.06663
21
0.986787
0
LINE
8
BLACK
6
CONTINUOUS
10
1.06663
20
0.986787
11
1.06661
21
0.986681
0
LINE
8
BLACK
6
CONTINUOUS
10
1.06661
20
0.986681
11
1.05633
21
0.968862
0
LINE
8
BLACK
6
CONTINUOUS
10
1.05633
20
0.968862
11
1.05624
21
0.968797
0
LINE
8
BLACK
6
CONTINUOUS
10
1.05624
20
0.968797
11
1.0562
21
0.968696
0
LINE
8
BLACK
6
CONTINUOUS
10
1.0562
20
0.968696
11
1.04244
21
0.953404
0
LINE
8
BLACK
6
CONTINUOUS
10
1.04244
20
0.953404
11
1.04242
21
0.953398
0
LINE
8
BLACK
6
CONTINUOUS
10
1.04242
20
0.953398
11
1.04242
21
0.953385
0
LINE
8
BLACK
6
CONTINUOUS
10
1.04242
20
0.953385
11
0.814722
21
0.713704
0
LINE
8
BLACK
6
CONTINUOUS
10
0.814722
20
0.713704
11
0.814636
21
0.713666
0
LINE
8
BLACK
6
CONTINUOUS
10
0.814636
20
0.713666
11
0.814587
21
0.713586
0
LINE
8
BLACK
6
CONTINUOUS
10
0.814587
20
0.713586
11
0.797941
21
0.701491
0
LINE
8
BLACK
6
CONTINUOUS
10
0.797941
20
0.701491
11
0.797837
21
0.701466
0
LINE
8
BLACK
6
CONTINUOUS
10
0.797837
20
0.701466
11
0.797763
21
0.701388
0
LINE
8
BLACK
6
CONTINUOUS
10
0.797763
20
0.701388
11
0.778964
21
0.693018
0
LINE
8
BLACK
6
CONTINUOUS
10
0.778964
20
0.693018
11
0.778856
21
0.693015
0
LINE
8
BLACK
6
CONTINUOUS
10
0.778856
20
0.693015
11
0.778768
21
0.692955
0
LINE
8
BLACK
6
CONTINUOUS
10
0.778768
20
0.692955
11
0.758642
21
0.688675
0
LINE
8
BLACK
6
CONTINUOUS
10
0.758642
20
0.688675
11
0.758536
21
0.688695
0
LINE
8
BLACK
6
CONTINUOUS
10
0.758536
20
0.688695
11
0.758437
21
0.688654
0
LINE
8
BLACK
6
CONTINUOUS
10
0.758437
20
0.688654
11
0.737858
21
0.688654
0
LINE
8
BLACK
6
CONTINUOUS
10
0.737858
20
0.688654
11
0.737759
21
0.688695
0
LINE
8
BLACK
6
CONTINUOUS
10
0.737759
20
0.688695
11
0.737654
21
0.688675
0
LINE
8
BLACK
6
CONTINUOUS
10
0.737654
20
0.688675
11
0.717528
21
0.692955
0
LINE
8
BLACK
6
CONTINUOUS
10
0.717528
20
0.692955
11
0.717439
21
0.693015
0
LINE
8
BLACK
6
CONTINUOUS
10
0.717439
20
0.693015
11
0.717332
21
0.693018
0
LINE
8
BLACK
6
CONTINUOUS
10
0.717332
20
0.693018
11
0.698537
21
0.701388
0
LINE
8
BLACK
6
CONTINUOUS
10
0.698537
20
0.701388
11
0.698463
21
0.701466
0
LINE
8
BLACK
6
CONTINUOUS
10
0.698463
20
0.701466
11
0.698359
21
0.701491
0
LINE
8
BLACK
6
CONTINUOUS
10
0.698359
20
0.701491
11
0.681709
21
0.713586
0
LINE
8
BLACK
6
CONTINUOUS
10
0.681709
20
0.713586
11
0.681673
21
0.713644
0
LINE
8
BLACK
6
CONTINUOUS
10
0.681673
20
0.713644
11
0.68161
21
0.713668
0
LINE
8
BLACK
6
CONTINUOUS
10
0.68161
20
0.713668
11
0.660569
21
0.733635
0
LINE
8
BLACK
6
CONTINUOUS
10
0.660569
20
0.733635
11
0.617349
21
0.77055
0
LINE
8
BLACK
6
CONTINUOUS
10
0.617349
20
0.77055
11
0.580421
21
0.798885
0
LINE
8
BLACK
6
CONTINUOUS
10
0.580421
20
0.798885
11
0.542062
21
0.825245
0
LINE
8
BLACK
6
CONTINUOUS
10
0.542062
20
0.825245
11
0.493602
21
0.854943
0
LINE
8
BLACK
6
CONTINUOUS
10
0.493602
20
0.854943
11
0.443652
21
0.882064
0
LINE
8
BLACK
6
CONTINUOUS
10
0.443652
20
0.882064
11
0.401642
21
0.902101
0
LINE
8
BLACK
6
CONTINUOUS
10
0.401642
20
0.902101
11
0.358639
21
0.919916
0
LINE
8
BLACK
6
CONTINUOUS
10
0.358639
20
0.919916
11
0.305063
21
0.938886
0
LINE
8
BLACK
6
CONTINUOUS
10
0.305063
20
0.938886
11
0.250566
21
0.955029
0
LINE
8
BLACK
6
CONTINUOUS
10
0.250566
20
0.955029
11
0.205307
21
0.965895
0
LINE
8
BLACK
6
CONTINUOUS
10
0.205307
20
0.965895
11
0.159541
21
0.974378
0
LINE
8
BLACK
6
CONTINUOUS
10
0.159541
20
0.974378
11
0.103191
21
0.981796
0
LINE
8
BLACK
6
CONTINUOUS
10
0.103191
20
0.981796
11
0.0465288
21
0.986257
0
LINE
8
BLACK
6
CONTINUOUS
10
0.0465288
20
0.986257
11
-3.93701e-08
21
0.987472
0
LINE
8
BLACK
6
CONTINUOUS
10
-3.93701e-08
20
0.987472
11
-0.0465289
21
0.986257
0
LINE
8
BLACK
6
CONTINUOUS
10
-0.0465289
20
0.986257
11
-0.103191
21
0.981796
0
LINE
8
BLACK
6
CONTINUOUS
10
-0.103191
20
0.981796
11
-0.159541
21
0.974378
0
LINE
8
BLACK
6
CONTINUOUS
10
-0.159541
20
0.974378
11
-0.205306
21
0.965895
0
LINE
8
BLACK
6
CONTINUOUS
10
-0.205306
20
0.965895
11
-0.250566
21
0.955029
0
LINE
8
BLACK
6
CONTINUOUS
10
-0.250566
20
0.955029
11
-0.305062
21
0.938887
0
LINE
8
BLACK
6
CONTINUOUS
10
-0.305062
20
0.938887
11
-0.358639
21
0.919916
0
LINE
8
BLACK
6
CONTINUOUS
10
-0.358639
20
0.919916
11
-0.401643
21
0.902101
0
LINE
8
BLACK
6
CONTINUOUS
10
-0.401643
20
0.902101
11
-0.443651
21
0.882064
0
LINE
8
BLACK
6
CONTINUOUS
10
-0.443651
20
0.882064
11
-0.493602
21
0.854943
0
LINE
8
BLACK
6
CONTINUOUS
10
-0.493602
20
0.854943
11
-0.542062
21
0.825245
0
LINE
8
BLACK
6
CONTINUOUS
10
-0.542062
20
0.825245
11
-0.580421
21
0.798885
0
LINE
8
BLACK
6
CONTINUOUS
10
-0.580421
20
0.798885
11
-0.617349
21
0.77055
0
LINE
8
BLACK
6
CONTINUOUS
10
-0.617349
20
0.77055
11
-0.66057
21
0.733634
0
LINE
8
BLACK
6
CONTINUOUS
10
-0.66057
20
0.733634
11
-0.68161
21
0.713668
0
LINE
8
BLACK
6
CONTINUOUS
10
-0.68161
20
0.713668
11
-0.681674
21
0.713644
0
LINE
8
BLACK
6
CONTINUOUS
10
-0.681674
20
0.713644
11
-0.681709
21
0.713586
0
LINE
8
BLACK
6
CONTINUOUS
10
-0.681709
20
0.713586
11
-0.698359
21
0.701491
0
LINE
8
BLACK
6
CONTINUOUS
10
-0.698359
20
0.701491
11
-0.698463
21
0.701466
0
LINE
8
BLACK
6
CONTINUOUS
10
-0.698463
20
0.701466
11
-0.698537
21
0.701388
0
LINE
8
BLACK
6
CONTINUOUS
10
-0.698537
20
0.701388
11
-0.717332
21
0.693018
0
LINE
8
BLACK
6
CONTINUOUS
10
-0.717332
20
0.693018
11
-0.717439
21
0.693015
0
LINE
8
BLACK
6
CONTINUOUS
10
-0.717439
20
0.693015
11
-0.717528
21
0.692955
0
LINE
8
BLACK
6
CONTINUOUS
10
-0.717528
20
0.692955
11
-0.737654
21
0.688675
0
LINE
8
BLACK
6
CONTINUOUS
10
-0.737654
20
0.688675
11
-0.737759
21
0.688695
0
LINE
8
BLACK
6
CONTINUOUS
10
-0.737759
20
0.688695
11
-0.737858
21
0.688654
0
LINE
8
BLACK
6
CONTINUOUS
10
-0.737858
20
0.688654
11
-0.758437
21
0.688654
0
LINE
8
BLACK
6
CONTINUOUS
10
-0.758437
20
0.688654
11
-0.758536
21
0.688695
0
LINE
8
BLACK
6
CONTINUOUS
10
-0.758536
20
0.688695
11
-0.758641
21
0.688675
0
LINE
8
BLACK
6
CONTINUOUS
10
-0.758641
20
0.688675
11
-0.778767
21
0.692955
0
LINE
8
BLACK
6
CONTINUOUS
10
-0.778767
20
0.692955
11
-0.778856
21
0.693015
0
LINE
8
BLACK
6
CONTINUOUS
10
-0.778856
20
0.693015
11
-0.778963
21
0.693018
0
LINE
8
BLACK
6
CONTINUOUS
10
-0.778963
20
0.693018
11
-0.797762
21
0.701388
0
LINE
8
BLACK
6
CONTINUOUS
10
-0.797762
20
0.701388
11
-0.797836
21
0.701466
0
LINE
8
BLACK
6
CONTINUOUS
10
-0.797836
20
0.701466
11
-0.79794
21
0.701491
0
LINE
8
BLACK
6
CONTINUOUS
10
-0.79794
20
0.701491
11
-0.814586
21
0.713586
0
LINE
8
BLACK
6
CONTINUOUS
10
-0.814586
20
0.713586
11
-0.814635
21
0.713666
0
LINE
8
BLACK
6
CONTINUOUS
10
-0.814635
20
0.713666
11
-0.814721
21
0.713704
0
LINE
8
BLACK
6
CONTINUOUS
10
-0.814721
20
0.713704
11
-1.04242
21
0.953385
0
LINE
8
BLACK
6
CONTINUOUS
10
-1.04242
20
0.953385
11
-1.04242
21
0.953398
0
LINE
8
BLACK
6
CONTINUOUS
10
-1.04242
20
0.953398
11
-1.04244
21
0.953404
0
LINE
8
BLACK
6
CONTINUOUS
10
-1.04244
20
0.953404
11
-1.0562
21
0.968696
0
LINE
8
BLACK
6
CONTINUOUS
10
-1.0562
20
0.968696
11
-1.05624
21
0.968797
0
LINE
8
BLACK
6
CONTINUOUS
10
-1.05624
20
0.968797
11
-1.05632
21
0.968862
0
LINE
8
BLACK
6
CONTINUOUS
10
-1.05632
20
0.968862
11
-1.06661
21
0.986681
0
LINE
8
BLACK
6
CONTINUOUS
10
-1.06661
20
0.986681
11
-1.06663
21
0.986787
0
LINE
8
BLACK
6
CONTINUOUS
10
-1.06663
20
0.986787
11
-1.0667
21
0.986869
0
LINE
8
BLACK
6
CONTINUOUS
10
-1.0667
20
0.986869
11
-1.07306
21
1.00644
0
LINE
8
BLACK
6
CONTINUOUS
10
-1.07306
20
1.00644
11
-1.07305
21
1.00655
0
LINE
8
BLACK
6
CONTINUOUS
10
-1.07305
20
1.00655
11
-1.0731
21
1.00664
0
LINE
8
BLACK
6
CONTINUOUS
10
-1.0731
20
1.00664
11
-1.07525
21
1.0271
0
LINE
8
BLACK
6
CONTINUOUS
10
-1.07525
20
1.0271
11
-1.07522
21
1.0272
0
LINE
8
BLACK
6
CONTINUOUS
10
-1.07522
20
1.0272
11
-1.07525
21
1.02731
0
LINE
8
BLACK
6
CONTINUOUS
10
-1.07525
20
1.02731
11
-1.0731
21
1.04777
0
LINE
8
BLACK
6
CONTINUOUS
10
-1.0731
20
1.04777
11
-1.07305
21
1.04787
0
LINE
8
BLACK
6
CONTINUOUS
10
-1.07305
20
1.04787
11
-1.07306
21
1.04797
0
LINE
8
BLACK
6
CONTINUOUS
10
-1.07306
20
1.04797
11
-1.0667
21
1.06754
0
LINE
8
BLACK
6
CONTINUOUS
10
-1.0667
20
1.06754
11
-1.06663
21
1.06763
0
LINE
8
BLACK
6
CONTINUOUS
10
-1.06663
20
1.06763
11
-1.06661
21
1.06773
0
LINE
8
BLACK
6
CONTINUOUS
10
-1.06661
20
1.06773
11
-1.05632
21
1.08555
0
LINE
8
BLACK
6
CONTINUOUS
10
-1.05632
20
1.08555
11
-1.05624
21
1.08562
0
LINE
8
BLACK
6
CONTINUOUS
10
-1.05624
20
1.08562
11
-1.0562
21
1.08572
0
LINE
8
BLACK
6
CONTINUOUS
10
-1.0562
20
1.08572
11
-1.04244
21
1.10101
0
LINE
8
BLACK
6
CONTINUOUS
10
-1.04244
20
1.10101
11
-1.0424
21
1.10103
0
LINE
8
BLACK
6
CONTINUOUS
10
-1.0424
20
1.10103
11
-1.04238
21
1.10106
0
LINE
8
BLACK
6
CONTINUOUS
10
-1.04238
20
1.10106
11
-1.01491
21
1.12714
0
LINE
8
BLACK
6
CONTINUOUS
10
-1.01491
20
1.12714
11
-1.01488
21
1.12715
0
LINE
8
BLACK
6
CONTINUOUS
10
-1.01488
20
1.12715
11
-1.01487
21
1.12717
0
LINE
8
BLACK
6
CONTINUOUS
10
-1.01487
20
1.12717
11
-0.95845
21
1.17536
0
LINE
8
BLACK
6
CONTINUOUS
10
-0.95845
20
1.17536
11
-0.958424
21
1.17537
0
LINE
8
BLACK
6
CONTINUOUS
10
-0.958424
20
1.17537
11
-0.95841
21
1.17539
0
LINE
8
BLACK
6
CONTINUOUS
10
-0.95841
20
1.17539
11
-0.89954
21
1.22056
0
LINE
8
BLACK
6
CONTINUOUS
10
-0.89954
20
1.22056
11
-0.899526
21
1.22057
0
LINE
8
BLACK
6
CONTINUOUS
10
-0.899526
20
1.22057
11
-0.899519
21
1.22058
0
LINE
8
BLACK
6
CONTINUOUS
10
-0.899519
20
1.22058
11
-0.882874
21
1.23267
0
LINE
8
BLACK
6
CONTINUOUS
10
-0.882874
20
1.23267
11
-0.88286
21
1.23268
0
LINE
8
BLACK
6
CONTINUOUS
10
-0.88286
20
1.23268
11
-0.882853
21
1.23269
0
LINE
8
BLACK
6
CONTINUOUS
10
-0.882853
20
1.23269
11
-0.821699
21
1.27472
0
LINE
8
BLACK
6
CONTINUOUS
10
-0.821699
20
1.27472
11
-0.821672
21
1.27472
0
LINE
8
BLACK
6
CONTINUOUS
10
-0.821672
20
1.27472
11
-0.821656
21
1.27474
0
LINE
8
BLACK
6
CONTINUOUS
10
-0.821656
20
1.27474
11
-0.758388
21
1.31352
0
LINE
8
BLACK
6
CONTINUOUS
10
-0.758388
20
1.31352
11
-0.758361
21
1.31352
0
LINE
8
BLACK
6
CONTINUOUS
10
-0.758361
20
1.31352
11
-0.758343
21
1.31354
0
LINE
8
BLACK
6
CONTINUOUS
10
-0.758343
20
1.31354
11
-0.693135
21
1.34895
0
LINE
8
BLACK
6
CONTINUOUS
10
-0.693135
20
1.34895
11
-0.693107
21
1.34895
0
LINE
8
BLACK
6
CONTINUOUS
10
-0.693107
20
1.34895
11
-0.693089
21
1.34897
0
LINE
8
BLACK
6
CONTINUOUS
10
-0.693089
20
1.34897
11
-0.626112
21
1.38092
0
LINE
8
BLACK
6
CONTINUOUS
10
-0.626112
20
1.38092
11
-0.626099
21
1.38092
0
LINE
8
BLACK
6
CONTINUOUS
10
-0.626099
20
1.38092
11
-0.626089
21
1.38093
0
LINE
8
BLACK
6
CONTINUOUS
10
-0.626089
20
1.38093
11
-0.607294
21
1.3893
0
LINE
8
BLACK
6
CONTINUOUS
10
-0.607294
20
1.3893
11
-0.60728
21
1.3893
0
LINE
8
BLACK
6
CONTINUOUS
10
-0.60728
20
1.3893
11
-0.60727
21
1.38931
0
LINE
8
BLACK
6
CONTINUOUS
10
-0.60727
20
1.38931
11
-0.538715
21
1.4177
0
LINE
8
BLACK
6
CONTINUOUS
10
-0.538715
20
1.4177
11
-0.538687
21
1.4177
0
LINE
8
BLACK
6
CONTINUOUS
10
-0.538687
20
1.4177
11
-0.538667
21
1.41772
0
LINE
8
BLACK
6
CONTINUOUS
10
-0.538667
20
1.41772
11
-0.468718
21
1.44249
0
LINE
8
BLACK
6
CONTINUOUS
10
-0.468718
20
1.44249
11
-0.468691
21
1.44249
0
LINE
8
BLACK
6
CONTINUOUS
10
-0.468691
20
1.44249
11
-0.468669
21
1.44251
0
LINE
8
BLACK
6
CONTINUOUS
10
-0.468669
20
1.44251
11
-0.397523
21
1.46358
0
LINE
8
BLACK
6
CONTINUOUS
10
-0.397523
20
1.46358
11
-0.397496
21
1.46358
0
LINE
8
BLACK
6
CONTINUOUS
10
-0.397496
20
1.46358
11
-0.397474
21
1.46359
0
LINE
8
BLACK
6
CONTINUOUS
10
-0.397474
20
1.46359
11
-0.325322
21
1.48091
0
LINE
8
BLACK
6
CONTINUOUS
10
-0.325322
20
1.48091
11
-0.325308
21
1.48091
0
LINE
8
BLACK
6
CONTINUOUS
10
-0.325308
20
1.48091
11
-0.325297
21
1.48092
0
LINE
8
BLACK
6
CONTINUOUS
10
-0.325297
20
1.48092
11
-0.305171
21
1.4852
0
LINE
8
BLACK
6
CONTINUOUS
10
-0.305171
20
1.4852
11
-0.305157
21
1.4852
0
LINE
8
BLACK
6
CONTINUOUS
10
-0.305157
20
1.4852
11
-0.305145
21
1.4852
0
LINE
8
BLACK
6
CONTINUOUS
10
-0.305145
20
1.4852
11
-0.232185
21
1.49873
0
LINE
8
BLACK
6
CONTINUOUS
10
-0.232185
20
1.49873
11
-0.232158
21
1.49872
0
LINE
8
BLACK
6
CONTINUOUS
10
-0.232158
20
1.49872
11
-0.232134
21
1.49874
0
LINE
8
BLACK
6
CONTINUOUS
10
-0.232134
20
1.49874
11
-0.158567
21
1.50842
0
LINE
8
BLACK
6
CONTINUOUS
10
-0.158567
20
1.50842
11
-0.15854
21
1.50841
0
LINE
8
BLACK
6
CONTINUOUS
10
-0.15854
20
1.50841
11
-0.158516
21
1.50843
0
LINE
8
BLACK
6
CONTINUOUS
10
-0.158516
20
1.50843
11
-0.0845416
21
1.51425
0
LINE
8
BLACK
6
CONTINUOUS
10
-0.0845416
20
1.51425
11
-0.0845153
21
1.51424
0
LINE
8
BLACK
6
CONTINUOUS
10
-0.0845153
20
1.51424
11
-0.0844901
21
1.51425
0
LINE
8
BLACK
6
CONTINUOUS
10
-0.0844901
20
1.51425
11
-0.0103131
21
1.51619
0
LINE
8
BLACK
6
CONTINUOUS
10
-0.0103131
20
1.51619
11
-0.0103002
21
1.51619
0
LINE
8
BLACK
6
CONTINUOUS
10
-0.0103002
20
1.51619
11
-0.0102874
21
1.51619
0
LINE
8
BLACK
6
CONTINUOUS
10
-0.0102874
20
1.51619
11
0.010288
21
1.51619
0
LINE
8
BLACK
6
CONTINUOUS
10
0.010288
20
1.51619
11
0.0103007
21
1.51619
  0
ENDSEC
  0
EOF
