  0
SECTION
  2
HEADER
  9
$ANGBASE
  50
0.0
  9
$ANGDIR
  70
1
  9
$MEASUREMENT
  70
0
  0
ENDSEC
  0
SECTION
  2
TABLES
  0
TABLE
  2
LTYPE
  70
4
  0
LTYPE
  5
40F
  2
CONTINUOUS
  70
0
  3
Solid line
  72
65
  73
0
  40
0.0
  0
LTYPE
  5
410
  2
DASHDOT
 70
0
  3
Dash Dot ____ _ ____ _
 72
65
 73
4
 40
2.0
 49
1.25
 49
-0.25
 49
0.25
 49
-0.25
  0
LTYPE
  5
411
  2
DASHED
 70
0
  3
Dashed __ __ __ __ __
 72
65
 73
2
 40
0.75
 49
0.5
 49
-0.25
  0
LTYPE
  5
43B
  2
DOTTED
 70
0
  3
Dotted .  .  .  .
 72
65
 73
2
 40
0.2
 49
0.0
 49
-0.2
  0
ENDTAB
  0
TABLE
  2
STYLE
  70
4
  0
STYLE
  2
KICAD
  70
0
  40
0
  41
1
  42
1
  50
0
  71
0
  3
isocp.shx
  0
STYLE
  2
KICADB
  70
0
  40
0
  41
1
  42
1
  50
0
  71
0
  3
isocp.shx
  0
STYLE
  2
KICADI
  70
0
  40
0
  41
1
  42
1
  50
15
  71
0
  3
isocp.shx
  0
STYLE
  2
KICADBI
  70
0
  40
0
  41
1
  42
1
  50
15
  71
0
  3
isocp.shx
  0
ENDTAB
  0
TABLE
  2
LAYER
  70
1
  0
LAYER
  2
BLACK
  70
0
  62
7
  6
CONTINUOUS
  0
ENDTAB
  0
ENDSEC
  0
SECTION
  2
ENTITIES
0
LINE
8
BLACK
6
CONTINUOUS
10
0.178514
20
-1.35509
11
0.178919
21
-1.35572
0
LINE
8
BLACK
6
CONTINUOUS
10
0.178919
20
-1.35572
11
0.199155
21
-1.47049
0
LINE
8
BLACK
6
CONTINUOUS
10
0.199155
20
-1.47049
11
0.198992
21
-1.47122
0
LINE
8
BLACK
6
CONTINUOUS
10
0.198992
20
-1.47122
11
0.198356
21
-1.47163
0
LINE
8
BLACK
6
CONTINUOUS
10
0.198356
20
-1.47163
11
0.141749
21
-1.48161
0
LINE
8
BLACK
6
CONTINUOUS
10
0.141749
20
-1.48161
11
0.141014
21
-1.48145
0
LINE
8
BLACK
6
CONTINUOUS
10
0.141014
20
-1.48145
11
0.140609
21
-1.48081
0
LINE
8
BLACK
6
CONTINUOUS
10
0.140609
20
-1.48081
11
0.120373
21
-1.36605
0
LINE
8
BLACK
6
CONTINUOUS
10
0.120373
20
-1.36605
11
0.120536
21
-1.36531
0
LINE
8
BLACK
6
CONTINUOUS
10
0.120536
20
-1.36531
11
0.121171
21
-1.36491
0
LINE
8
BLACK
6
CONTINUOUS
10
0.121171
20
-1.36491
11
0.177778
21
-1.35493
0
LINE
8
BLACK
6
CONTINUOUS
10
0.177778
20
-1.35493
11
0.178514
21
-1.35509
0
LINE
8
BLACK
6
CONTINUOUS
10
0.122482
20
-1.36667
11
0.142377
21
-1.4795
0
LINE
8
BLACK
6
CONTINUOUS
10
0.142377
20
-1.4795
11
0.197045
21
-1.46986
0
LINE
8
BLACK
6
CONTINUOUS
10
0.197045
20
-1.46986
11
0.177151
21
-1.35703
0
LINE
8
BLACK
6
CONTINUOUS
10
0.177151
20
-1.35703
11
0.122482
21
-1.36667
0
LINE
8
BLACK
6
CONTINUOUS
10
0.322936
20
-1.32869
11
0.323395
21
-1.32929
0
LINE
8
BLACK
6
CONTINUOUS
10
0.323395
20
-1.32929
11
0.353556
21
-1.44186
0
LINE
8
BLACK
6
CONTINUOUS
10
0.353556
20
-1.44186
11
0.353458
21
-1.4426
0
LINE
8
BLACK
6
CONTINUOUS
10
0.353458
20
-1.4426
11
0.35286
21
-1.44306
0
LINE
8
BLACK
6
CONTINUOUS
10
0.35286
20
-1.44306
11
0.297338
21
-1.45794
0
LINE
8
BLACK
6
CONTINUOUS
10
0.297338
20
-1.45794
11
0.296592
21
-1.45784
0
LINE
8
BLACK
6
CONTINUOUS
10
0.296592
20
-1.45784
11
0.296133
21
-1.45724
0
LINE
8
BLACK
6
CONTINUOUS
10
0.296133
20
-1.45724
11
0.265971
21
-1.34468
0
LINE
8
BLACK
6
CONTINUOUS
10
0.265971
20
-1.34468
11
0.26607
21
-1.34393
0
LINE
8
BLACK
6
CONTINUOUS
10
0.26607
20
-1.34393
11
0.266667
21
-1.34347
0
LINE
8
BLACK
6
CONTINUOUS
10
0.266667
20
-1.34347
11
0.322189
21
-1.3286
0
LINE
8
BLACK
6
CONTINUOUS
10
0.322189
20
-1.3286
11
0.322189
21
-1.3286
0
LINE
8
BLACK
6
CONTINUOUS
10
0.322189
20
-1.3286
11
0.322936
21
-1.32869
0
LINE
8
BLACK
6
CONTINUOUS
10
0.268128
20
-1.34512
11
0.29778
21
-1.45578
0
LINE
8
BLACK
6
CONTINUOUS
10
0.29778
20
-1.45578
11
0.3514
21
-1.44142
0
LINE
8
BLACK
6
CONTINUOUS
10
0.3514
20
-1.44142
11
0.321748
21
-1.33075
0
LINE
8
BLACK
6
CONTINUOUS
10
0.321748
20
-1.33075
11
0.268128
21
-1.34512
0
LINE
8
BLACK
6
CONTINUOUS
10
0.462258
20
-1.28779
11
0.462767
21
-1.28835
0
LINE
8
BLACK
6
CONTINUOUS
10
0.462767
20
-1.28835
11
0.462767
21
-1.28835
0
LINE
8
BLACK
6
CONTINUOUS
10
0.462767
20
-1.28835
11
0.502624
21
-1.39786
0
LINE
8
BLACK
6
CONTINUOUS
10
0.502624
20
-1.39786
11
0.502591
21
-1.39861
0
LINE
8
BLACK
6
CONTINUOUS
10
0.502591
20
-1.39861
11
0.502036
21
-1.39912
0
LINE
8
BLACK
6
CONTINUOUS
10
0.502036
20
-1.39912
11
0.502036
21
-1.39912
0
LINE
8
BLACK
6
CONTINUOUS
10
0.502036
20
-1.39912
11
0.448022
21
-1.41878
0
LINE
8
BLACK
6
CONTINUOUS
10
0.448022
20
-1.41878
11
0.448022
21
-1.41878
0
LINE
8
BLACK
6
CONTINUOUS
10
0.448022
20
-1.41878
11
0.44727
21
-1.41874
0
LINE
8
BLACK
6
CONTINUOUS
10
0.44727
20
-1.41874
11
0.446761
21
-1.41819
0
LINE
8
BLACK
6
CONTINUOUS
10
0.446761
20
-1.41819
11
0.406903
21
-1.30868
0
LINE
8
BLACK
6
CONTINUOUS
10
0.406903
20
-1.30868
11
0.406936
21
-1.30793
0
LINE
8
BLACK
6
CONTINUOUS
10
0.406936
20
-1.30793
11
0.407491
21
-1.30742
0
LINE
8
BLACK
6
CONTINUOUS
10
0.407491
20
-1.30742
11
0.461505
21
-1.28776
0
LINE
8
BLACK
6
CONTINUOUS
10
0.461505
20
-1.28776
11
0.461505
21
-1.28776
0
LINE
8
BLACK
6
CONTINUOUS
10
0.461505
20
-1.28776
11
0.462258
21
-1.28779
0
LINE
8
BLACK
6
CONTINUOUS
10
0.40909
20
-1.30893
11
0.448274
21
-1.41659
0
LINE
8
BLACK
6
CONTINUOUS
10
0.448274
20
-1.41659
11
0.500438
21
-1.3976
0
LINE
8
BLACK
6
CONTINUOUS
10
0.500438
20
-1.3976
11
0.461254
21
-1.28995
0
LINE
8
BLACK
6
CONTINUOUS
10
0.461254
20
-1.28995
11
0.40909
21
-1.30893
0
LINE
8
BLACK
6
CONTINUOUS
10
0.0153276
20
-1.37223
11
0.0150394
21
-1.37154
0
LINE
8
BLACK
6
CONTINUOUS
10
0.0150394
20
-1.37154
11
0.0150394
21
-1.255
0
LINE
8
BLACK
6
CONTINUOUS
10
0.0150394
20
-1.255
11
0.0153276
21
-1.2543
0
LINE
8
BLACK
6
CONTINUOUS
10
0.0153276
20
-1.2543
11
0.0160236
21
-1.25402
0
LINE
8
BLACK
6
CONTINUOUS
10
0.0160236
20
-1.25402
11
0.0735039
21
-1.25402
0
LINE
8
BLACK
6
CONTINUOUS
10
0.0735039
20
-1.25402
11
0.0741999
21
-1.2543
0
LINE
8
BLACK
6
CONTINUOUS
10
0.0741999
20
-1.2543
11
0.0744882
21
-1.255
0
LINE
8
BLACK
6
CONTINUOUS
10
0.0744882
20
-1.255
11
0.0744882
21
-1.37154
0
LINE
8
BLACK
6
CONTINUOUS
10
0.0744882
20
-1.37154
11
0.0741999
21
-1.37223
0
LINE
8
BLACK
6
CONTINUOUS
10
0.0741999
20
-1.37223
11
0.0735039
21
-1.37252
0
LINE
8
BLACK
6
CONTINUOUS
10
0.0735039
20
-1.37252
11
0.0160236
21
-1.37252
0
LINE
8
BLACK
6
CONTINUOUS
10
0.0160236
20
-1.37252
11
0.0153276
21
-1.37223
0
LINE
8
BLACK
6
CONTINUOUS
10
0.0170079
20
-1.25598
11
0.0170079
21
-1.37055
0
LINE
8
BLACK
6
CONTINUOUS
10
0.0170079
20
-1.37055
11
0.0725197
21
-1.37055
0
LINE
8
BLACK
6
CONTINUOUS
10
0.0725197
20
-1.37055
11
0.0725197
21
-1.25598
0
LINE
8
BLACK
6
CONTINUOUS
10
0.0725197
20
-1.25598
11
0.0170079
21
-1.25598
0
LINE
8
BLACK
6
CONTINUOUS
10
-0.13605
20
-1.36711
11
-0.136339
21
-1.36642
0
LINE
8
BLACK
6
CONTINUOUS
10
-0.136339
20
-1.36642
11
-0.136339
21
-1.26012
0
LINE
8
BLACK
6
CONTINUOUS
10
-0.136339
20
-1.26012
11
-0.13605
21
-1.25942
0
LINE
8
BLACK
6
CONTINUOUS
10
-0.13605
20
-1.25942
11
-0.135354
21
-1.25913
0
LINE
8
BLACK
6
CONTINUOUS
10
-0.135354
20
-1.25913
11
-0.0251181
21
-1.25913
0
LINE
8
BLACK
6
CONTINUOUS
10
-0.0251181
20
-1.25913
11
-0.0244221
21
-1.25942
0
LINE
8
BLACK
6
CONTINUOUS
10
-0.0244221
20
-1.25942
11
-0.0241339
21
-1.26012
0
LINE
8
BLACK
6
CONTINUOUS
10
-0.0241339
20
-1.26012
11
-0.0241339
21
-1.36642
0
LINE
8
BLACK
6
CONTINUOUS
10
-0.0241339
20
-1.36642
11
-0.0244221
21
-1.36711
0
LINE
8
BLACK
6
CONTINUOUS
10
-0.0244221
20
-1.36711
11
-0.0251181
21
-1.3674
0
LINE
8
BLACK
6
CONTINUOUS
10
-0.0251181
20
-1.3674
11
-0.135354
21
-1.3674
0
LINE
8
BLACK
6
CONTINUOUS
10
-0.135354
20
-1.3674
11
-0.13605
21
-1.36711
0
LINE
8
BLACK
6
CONTINUOUS
10
-0.13437
20
-1.2611
11
-0.13437
21
-1.36543
0
LINE
8
BLACK
6
CONTINUOUS
10
-0.13437
20
-1.36543
11
-0.0261024
21
-1.36543
0
LINE
8
BLACK
6
CONTINUOUS
10
-0.0261024
20
-1.36543
11
-0.0261024
21
-1.2611
0
LINE
8
BLACK
6
CONTINUOUS
10
-0.0261024
20
-1.2611
11
-0.13437
21
-1.2611
0
LINE
8
BLACK
6
CONTINUOUS
10
0.543199
20
-1.25802
11
0.543166
21
-1.25727
0
LINE
8
BLACK
6
CONTINUOUS
10
0.543166
20
-1.25727
11
0.543675
21
-1.25671
0
LINE
8
BLACK
6
CONTINUOUS
10
0.543675
20
-1.25671
11
0.59577
21
-1.23242
0
LINE
8
BLACK
6
CONTINUOUS
10
0.59577
20
-1.23242
11
0.596523
21
-1.23239
0
LINE
8
BLACK
6
CONTINUOUS
10
0.596523
20
-1.23239
11
0.597078
21
-1.2329
0
LINE
8
BLACK
6
CONTINUOUS
10
0.597078
20
-1.2329
11
0.597078
21
-1.2329
0
LINE
8
BLACK
6
CONTINUOUS
10
0.597078
20
-1.2329
11
0.646328
21
-1.33851
0
LINE
8
BLACK
6
CONTINUOUS
10
0.646328
20
-1.33851
11
0.646328
21
-1.33851
0
LINE
8
BLACK
6
CONTINUOUS
10
0.646328
20
-1.33851
11
0.646361
21
-1.33927
0
LINE
8
BLACK
6
CONTINUOUS
10
0.646361
20
-1.33927
11
0.645852
21
-1.33982
0
LINE
8
BLACK
6
CONTINUOUS
10
0.645852
20
-1.33982
11
0.593757
21
-1.36411
0
LINE
8
BLACK
6
CONTINUOUS
10
0.593757
20
-1.36411
11
0.593005
21
-1.36415
0
LINE
8
BLACK
6
CONTINUOUS
10
0.593005
20
-1.36415
11
0.592449
21
-1.36364
0
LINE
8
BLACK
6
CONTINUOUS
10
0.592449
20
-1.36364
11
0.543199
21
-1.25802
0
LINE
8
BLACK
6
CONTINUOUS
10
0.545399
20
-1.25808
11
0.593817
21
-1.36191
0
LINE
8
BLACK
6
CONTINUOUS
10
0.593817
20
-1.36191
11
0.644128
21
-1.33845
0
LINE
8
BLACK
6
CONTINUOUS
10
0.644128
20
-1.33845
11
0.59571
21
-1.23462
0
LINE
8
BLACK
6
CONTINUOUS
10
0.59571
20
-1.23462
11
0.545399
21
-1.25808
0
LINE
8
BLACK
6
CONTINUOUS
10
0.250328
20
-1.27471
11
0.250039
21
-1.27402
0
LINE
8
BLACK
6
CONTINUOUS
10
0.250039
20
-1.27402
11
0.250039
21
-1.15748
0
LINE
8
BLACK
6
CONTINUOUS
10
0.250039
20
-1.15748
11
0.250328
21
-1.15678
0
LINE
8
BLACK
6
CONTINUOUS
10
0.250328
20
-1.15678
11
0.251024
21
-1.1565
0
LINE
8
BLACK
6
CONTINUOUS
10
0.251024
20
-1.1565
11
0.308504
21
-1.1565
0
LINE
8
BLACK
6
CONTINUOUS
10
0.308504
20
-1.1565
11
0.3092
21
-1.15678
0
LINE
8
BLACK
6
CONTINUOUS
10
0.3092
20
-1.15678
11
0.309488
21
-1.15748
0
LINE
8
BLACK
6
CONTINUOUS
10
0.309488
20
-1.15748
11
0.309488
21
-1.27402
0
LINE
8
BLACK
6
CONTINUOUS
10
0.309488
20
-1.27402
11
0.3092
21
-1.27471
0
LINE
8
BLACK
6
CONTINUOUS
10
0.3092
20
-1.27471
11
0.308504
21
-1.275
0
LINE
8
BLACK
6
CONTINUOUS
10
0.308504
20
-1.275
11
0.251024
21
-1.275
0
LINE
8
BLACK
6
CONTINUOUS
10
0.251024
20
-1.275
11
0.250328
21
-1.27471
0
LINE
8
BLACK
6
CONTINUOUS
10
0.252008
20
-1.15846
11
0.252008
21
-1.27303
0
LINE
8
BLACK
6
CONTINUOUS
10
0.252008
20
-1.27303
11
0.30752
21
-1.27303
0
LINE
8
BLACK
6
CONTINUOUS
10
0.30752
20
-1.27303
11
0.30752
21
-1.15846
0
LINE
8
BLACK
6
CONTINUOUS
10
0.30752
20
-1.15846
11
0.252008
21
-1.15846
0
LINE
8
BLACK
6
CONTINUOUS
10
0.320328
20
-1.27433
11
0.320039
21
-1.27364
0
LINE
8
BLACK
6
CONTINUOUS
10
0.320039
20
-1.27364
11
0.320039
21
-1.1571
0
LINE
8
BLACK
6
CONTINUOUS
10
0.320039
20
-1.1571
11
0.320328
21
-1.15641
0
LINE
8
BLACK
6
CONTINUOUS
10
0.320328
20
-1.15641
11
0.321024
21
-1.15612
0
LINE
8
BLACK
6
CONTINUOUS
10
0.321024
20
-1.15612
11
0.378504
21
-1.15612
0
LINE
8
BLACK
6
CONTINUOUS
10
0.378504
20
-1.15612
11
0.3792
21
-1.15641
0
LINE
8
BLACK
6
CONTINUOUS
10
0.3792
20
-1.15641
11
0.379488
21
-1.1571
0
LINE
8
BLACK
6
CONTINUOUS
10
0.379488
20
-1.1571
11
0.379488
21
-1.27364
0
LINE
8
BLACK
6
CONTINUOUS
10
0.379488
20
-1.27364
11
0.3792
21
-1.27433
0
LINE
8
BLACK
6
CONTINUOUS
10
0.3792
20
-1.27433
11
0.378504
21
-1.27462
0
LINE
8
BLACK
6
CONTINUOUS
10
0.378504
20
-1.27462
11
0.321024
21
-1.27462
0
LINE
8
BLACK
6
CONTINUOUS
10
0.321024
20
-1.27462
11
0.320328
21
-1.27433
0
LINE
8
BLACK
6
CONTINUOUS
10
0.322008
20
-1.15809
11
0.322008
21
-1.27265
0
LINE
8
BLACK
6
CONTINUOUS
10
0.322008
20
-1.27265
11
0.37752
21
-1.27265
0
LINE
8
BLACK
6
CONTINUOUS
10
0.37752
20
-1.27265
11
0.37752
21
-1.15809
0
LINE
8
BLACK
6
CONTINUOUS
10
0.37752
20
-1.15809
11
0.322008
21
-1.15809
0
LINE
8
BLACK
6
CONTINUOUS
10
0.390328
20
-1.27223
11
0.390039
21
-1.27154
0
LINE
8
BLACK
6
CONTINUOUS
10
0.390039
20
-1.27154
11
0.390039
21
-1.155
0
LINE
8
BLACK
6
CONTINUOUS
10
0.390039
20
-1.155
11
0.390328
21
-1.1543
0
LINE
8
BLACK
6
CONTINUOUS
10
0.390328
20
-1.1543
11
0.391024
21
-1.15402
0
LINE
8
BLACK
6
CONTINUOUS
10
0.391024
20
-1.15402
11
0.448504
21
-1.15402
0
LINE
8
BLACK
6
CONTINUOUS
10
0.448504
20
-1.15402
11
0.4492
21
-1.1543
0
LINE
8
BLACK
6
CONTINUOUS
10
0.4492
20
-1.1543
11
0.449488
21
-1.155
0
LINE
8
BLACK
6
CONTINUOUS
10
0.449488
20
-1.155
11
0.449488
21
-1.27154
0
LINE
8
BLACK
6
CONTINUOUS
10
0.449488
20
-1.27154
11
0.4492
21
-1.27223
0
LINE
8
BLACK
6
CONTINUOUS
10
0.4492
20
-1.27223
11
0.448504
21
-1.27252
0
LINE
8
BLACK
6
CONTINUOUS
10
0.448504
20
-1.27252
11
0.391024
21
-1.27252
0
LINE
8
BLACK
6
CONTINUOUS
10
0.391024
20
-1.27252
11
0.390328
21
-1.27223
0
LINE
8
BLACK
6
CONTINUOUS
10
0.392008
20
-1.15598
11
0.392008
21
-1.27055
0
LINE
8
BLACK
6
CONTINUOUS
10
0.392008
20
-1.27055
11
0.44752
21
-1.27055
0
LINE
8
BLACK
6
CONTINUOUS
10
0.44752
20
-1.27055
11
0.44752
21
-1.15598
0
LINE
8
BLACK
6
CONTINUOUS
10
0.44752
20
-1.15598
11
0.392008
21
-1.15598
0
LINE
8
BLACK
6
CONTINUOUS
10
0.505328
20
-1.22971
11
0.505039
21
-1.22902
0
LINE
8
BLACK
6
CONTINUOUS
10
0.505039
20
-1.22902
11
0.505039
21
-1.11248
0
LINE
8
BLACK
6
CONTINUOUS
10
0.505039
20
-1.11248
11
0.505328
21
-1.11178
0
LINE
8
BLACK
6
CONTINUOUS
10
0.505328
20
-1.11178
11
0.506024
21
-1.1115
0
LINE
8
BLACK
6
CONTINUOUS
10
0.506024
20
-1.1115
11
0.563504
21
-1.1115
0
LINE
8
BLACK
6
CONTINUOUS
10
0.563504
20
-1.1115
11
0.5642
21
-1.11178
0
LINE
8
BLACK
6
CONTINUOUS
10
0.5642
20
-1.11178
11
0.564488
21
-1.11248
0
LINE
8
BLACK
6
CONTINUOUS
10
0.564488
20
-1.11248
11
0.564488
21
-1.22902
0
LINE
8
BLACK
6
CONTINUOUS
10
0.564488
20
-1.22902
11
0.5642
21
-1.22971
0
LINE
8
BLACK
6
CONTINUOUS
10
0.5642
20
-1.22971
11
0.563504
21
-1.23
0
LINE
8
BLACK
6
CONTINUOUS
10
0.563504
20
-1.23
11
0.506024
21
-1.23
0
LINE
8
BLACK
6
CONTINUOUS
10
0.506024
20
-1.23
11
0.505328
21
-1.22971
0
LINE
8
BLACK
6
CONTINUOUS
10
0.507008
20
-1.11346
11
0.507008
21
-1.22803
0
LINE
8
BLACK
6
CONTINUOUS
10
0.507008
20
-1.22803
11
0.56252
21
-1.22803
0
LINE
8
BLACK
6
CONTINUOUS
10
0.56252
20
-1.22803
11
0.56252
21
-1.11346
0
LINE
8
BLACK
6
CONTINUOUS
10
0.56252
20
-1.11346
11
0.507008
21
-1.11346
0
LINE
8
BLACK
6
CONTINUOUS
10
-0.606701
20
-0.724403
11
-0.456372
21
-0.874733
0
LINE
8
BLACK
6
CONTINUOUS
10
-0.456372
20
-0.874733
11
-0.456083
21
-0.875429
0
LINE
8
BLACK
6
CONTINUOUS
10
-0.456083
20
-0.875429
11
-0.456287
21
-0.875921
0
LINE
8
BLACK
6
CONTINUOUS
10
-0.456287
20
-0.875921
11
-0.456372
21
-0.876125
0
LINE
8
BLACK
6
CONTINUOUS
10
-0.456372
20
-0.876125
11
-0.456372
21
-0.876125
0
LINE
8
BLACK
6
CONTINUOUS
10
-0.456372
20
-0.876125
11
-0.662379
21
-1.08213
0
LINE
8
BLACK
6
CONTINUOUS
10
-0.662379
20
-1.08213
11
-0.663075
21
-1.08242
0
LINE
8
BLACK
6
CONTINUOUS
10
-0.663075
20
-1.08242
11
-0.663771
21
-1.08213
0
LINE
8
BLACK
6
CONTINUOUS
10
-0.663771
20
-1.08213
11
-0.814101
21
-0.931803
0
LINE
8
BLACK
6
CONTINUOUS
10
-0.814101
20
-0.931803
11
-0.814389
21
-0.931107
0
LINE
8
BLACK
6
CONTINUOUS
10
-0.814389
20
-0.931107
11
-0.814101
21
-0.930411
0
LINE
8
BLACK
6
CONTINUOUS
10
-0.814101
20
-0.930411
11
-0.608093
21
-0.724403
0
LINE
8
BLACK
6
CONTINUOUS
10
-0.608093
20
-0.724403
11
-0.608093
21
-0.724403
0
LINE
8
BLACK
6
CONTINUOUS
10
-0.608093
20
-0.724403
11
-0.607889
21
-0.724319
0
LINE
8
BLACK
6
CONTINUOUS
10
-0.607889
20
-0.724319
11
-0.607397
21
-0.724115
0
LINE
8
BLACK
6
CONTINUOUS
10
-0.607397
20
-0.724115
11
-0.606701
21
-0.724403
0
LINE
8
BLACK
6
CONTINUOUS
10
-0.812013
20
-0.931107
11
-0.663075
21
-1.08004
0
LINE
8
BLACK
6
CONTINUOUS
10
-0.663075
20
-1.08004
11
-0.45846
21
-0.875429
0
LINE
8
BLACK
6
CONTINUOUS
10
-0.45846
20
-0.875429
11
-0.607397
21
-0.726491
0
LINE
8
BLACK
6
CONTINUOUS
10
-0.607397
20
-0.726491
11
-0.812013
21
-0.931107
0
LINE
8
BLACK
6
CONTINUOUS
10
0.630438
20
-1.0629
11
0.63015
21
-1.0622
0
LINE
8
BLACK
6
CONTINUOUS
10
0.63015
20
-1.0622
11
0.63015
21
-0.945669
0
LINE
8
BLACK
6
CONTINUOUS
10
0.63015
20
-0.945669
11
0.630438
21
-0.944973
0
LINE
8
BLACK
6
CONTINUOUS
10
0.630438
20
-0.944973
11
0.631134
21
-0.944685
0
LINE
8
BLACK
6
CONTINUOUS
10
0.631134
20
-0.944685
11
0.688614
21
-0.944685
0
LINE
8
BLACK
6
CONTINUOUS
10
0.688614
20
-0.944685
11
0.68931
21
-0.944973
0
LINE
8
BLACK
6
CONTINUOUS
10
0.68931
20
-0.944973
11
0.689598
21
-0.945669
0
LINE
8
BLACK
6
CONTINUOUS
10
0.689598
20
-0.945669
11
0.689598
21
-1.0622
0
LINE
8
BLACK
6
CONTINUOUS
10
0.689598
20
-1.0622
11
0.68931
21
-1.0629
0
LINE
8
BLACK
6
CONTINUOUS
10
0.68931
20
-1.0629
11
0.688614
21
-1.06319
0
LINE
8
BLACK
6
CONTINUOUS
10
0.688614
20
-1.06319
11
0.631134
21
-1.06319
0
LINE
8
BLACK
6
CONTINUOUS
10
0.631134
20
-1.06319
11
0.630438
21
-1.0629
0
LINE
8
BLACK
6
CONTINUOUS
10
0.632118
20
-0.946654
11
0.632118
21
-1.06122
0
LINE
8
BLACK
6
CONTINUOUS
10
0.632118
20
-1.06122
11
0.68763
21
-1.06122
0
LINE
8
BLACK
6
CONTINUOUS
10
0.68763
20
-1.06122
11
0.68763
21
-0.946654
0
LINE
8
BLACK
6
CONTINUOUS
10
0.68763
20
-0.946654
11
0.632118
21
-0.946654
0
LINE
8
BLACK
6
CONTINUOUS
10
0.704454
20
-1.06172
11
0.704165
21
-1.06102
0
LINE
8
BLACK
6
CONTINUOUS
10
0.704165
20
-1.06102
11
0.704165
21
-0.944488
0
LINE
8
BLACK
6
CONTINUOUS
10
0.704165
20
-0.944488
11
0.704454
21
-0.943792
0
LINE
8
BLACK
6
CONTINUOUS
10
0.704454
20
-0.943792
11
0.70515
21
-0.943504
0
LINE
8
BLACK
6
CONTINUOUS
10
0.70515
20
-0.943504
11
0.76263
21
-0.943504
0
LINE
8
BLACK
6
CONTINUOUS
10
0.76263
20
-0.943504
11
0.763326
21
-0.943792
0
LINE
8
BLACK
6
CONTINUOUS
10
0.763326
20
-0.943792
11
0.763614
21
-0.944488
0
LINE
8
BLACK
6
CONTINUOUS
10
0.763614
20
-0.944488
11
0.763614
21
-1.06102
0
LINE
8
BLACK
6
CONTINUOUS
10
0.763614
20
-1.06102
11
0.763326
21
-1.06172
0
LINE
8
BLACK
6
CONTINUOUS
10
0.763326
20
-1.06172
11
0.76263
21
-1.06201
0
LINE
8
BLACK
6
CONTINUOUS
10
0.76263
20
-1.06201
11
0.70515
21
-1.06201
0
LINE
8
BLACK
6
CONTINUOUS
10
0.70515
20
-1.06201
11
0.704454
21
-1.06172
0
LINE
8
BLACK
6
CONTINUOUS
10
0.706134
20
-0.945472
11
0.706134
21
-1.06004
0
LINE
8
BLACK
6
CONTINUOUS
10
0.706134
20
-1.06004
11
0.761646
21
-1.06004
0
LINE
8
BLACK
6
CONTINUOUS
10
0.761646
20
-1.06004
11
0.761646
21
-0.945472
0
LINE
8
BLACK
6
CONTINUOUS
10
0.761646
20
-0.945472
11
0.706134
21
-0.945472
0
LINE
8
BLACK
6
CONTINUOUS
10
0.55954
20
-1.06133
11
0.559252
21
-1.06063
0
LINE
8
BLACK
6
CONTINUOUS
10
0.559252
20
-1.06063
11
0.559252
21
-0.944094
0
LINE
8
BLACK
6
CONTINUOUS
10
0.559252
20
-0.944094
11
0.55954
21
-0.943399
0
LINE
8
BLACK
6
CONTINUOUS
10
0.55954
20
-0.943399
11
0.560236
21
-0.94311
0
LINE
8
BLACK
6
CONTINUOUS
10
0.560236
20
-0.94311
11
0.617717
21
-0.94311
0
LINE
8
BLACK
6
CONTINUOUS
10
0.617717
20
-0.94311
11
0.618413
21
-0.943399
0
LINE
8
BLACK
6
CONTINUOUS
10
0.618413
20
-0.943399
11
0.618701
21
-0.944094
0
LINE
8
BLACK
6
CONTINUOUS
10
0.618701
20
-0.944094
11
0.618701
21
-1.06063
0
LINE
8
BLACK
6
CONTINUOUS
10
0.618701
20
-1.06063
11
0.618413
21
-1.06133
0
LINE
8
BLACK
6
CONTINUOUS
10
0.618413
20
-1.06133
11
0.617717
21
-1.06161
0
LINE
8
BLACK
6
CONTINUOUS
10
0.617717
20
-1.06161
11
0.560236
21
-1.06161
0
LINE
8
BLACK
6
CONTINUOUS
10
0.560236
20
-1.06161
11
0.55954
21
-1.06133
0
LINE
8
BLACK
6
CONTINUOUS
10
0.56122
20
-0.945079
11
0.56122
21
-1.05965
0
LINE
8
BLACK
6
CONTINUOUS
10
0.56122
20
-1.05965
11
0.616732
21
-1.05965
0
LINE
8
BLACK
6
CONTINUOUS
10
0.616732
20
-1.05965
11
0.616732
21
-0.945079
0
LINE
8
BLACK
6
CONTINUOUS
10
0.616732
20
-0.945079
11
0.56122
21
-0.945079
0
LINE
8
BLACK
6
CONTINUOUS
10
0.395328
20
-1.02223
11
0.395039
21
-1.02154
0
LINE
8
BLACK
6
CONTINUOUS
10
0.395039
20
-1.02154
11
0.395039
21
-0.905
0
LINE
8
BLACK
6
CONTINUOUS
10
0.395039
20
-0.905
11
0.395328
21
-0.904304
0
LINE
8
BLACK
6
CONTINUOUS
10
0.395328
20
-0.904304
11
0.396024
21
-0.904016
0
LINE
8
BLACK
6
CONTINUOUS
10
0.396024
20
-0.904016
11
0.453504
21
-0.904016
0
LINE
8
BLACK
6
CONTINUOUS
10
0.453504
20
-0.904016
11
0.4542
21
-0.904304
0
LINE
8
BLACK
6
CONTINUOUS
10
0.4542
20
-0.904304
11
0.454488
21
-0.905
0
LINE
8
BLACK
6
CONTINUOUS
10
0.454488
20
-0.905
11
0.454488
21
-1.02154
0
LINE
8
BLACK
6
CONTINUOUS
10
0.454488
20
-1.02154
11
0.4542
21
-1.02223
0
LINE
8
BLACK
6
CONTINUOUS
10
0.4542
20
-1.02223
11
0.453504
21
-1.02252
0
LINE
8
BLACK
6
CONTINUOUS
10
0.453504
20
-1.02252
11
0.396024
21
-1.02252
0
LINE
8
BLACK
6
CONTINUOUS
10
0.396024
20
-1.02252
11
0.395328
21
-1.02223
0
LINE
8
BLACK
6
CONTINUOUS
10
0.397008
20
-0.905984
11
0.397008
21
-1.02055
0
LINE
8
BLACK
6
CONTINUOUS
10
0.397008
20
-1.02055
11
0.45252
21
-1.02055
0
LINE
8
BLACK
6
CONTINUOUS
10
0.45252
20
-1.02055
11
0.45252
21
-0.905984
0
LINE
8
BLACK
6
CONTINUOUS
10
0.45252
20
-0.905984
11
0.397008
21
-0.905984
0
LINE
8
BLACK
6
CONTINUOUS
10
0.72965
20
-0.936129
11
0.729362
21
-0.935433
0
LINE
8
BLACK
6
CONTINUOUS
10
0.729362
20
-0.935433
11
0.729362
21
-0.755906
0
LINE
8
BLACK
6
CONTINUOUS
10
0.729362
20
-0.755906
11
0.72965
21
-0.75521
0
LINE
8
BLACK
6
CONTINUOUS
10
0.72965
20
-0.75521
11
0.730346
21
-0.754921
0
LINE
8
BLACK
6
CONTINUOUS
10
0.730346
20
-0.754921
11
0.854756
21
-0.754921
0
LINE
8
BLACK
6
CONTINUOUS
10
0.854756
20
-0.754921
11
0.855452
21
-0.75521
0
LINE
8
BLACK
6
CONTINUOUS
10
0.855452
20
-0.75521
11
0.85574
21
-0.755906
0
LINE
8
BLACK
6
CONTINUOUS
10
0.85574
20
-0.755906
11
0.85574
21
-0.935433
0
LINE
8
BLACK
6
CONTINUOUS
10
0.85574
20
-0.935433
11
0.855452
21
-0.936129
0
LINE
8
BLACK
6
CONTINUOUS
10
0.855452
20
-0.936129
11
0.854756
21
-0.936417
0
LINE
8
BLACK
6
CONTINUOUS
10
0.854756
20
-0.936417
11
0.730346
21
-0.936417
0
LINE
8
BLACK
6
CONTINUOUS
10
0.730346
20
-0.936417
11
0.72965
21
-0.936129
0
LINE
8
BLACK
6
CONTINUOUS
10
0.731331
20
-0.75689
11
0.731331
21
-0.934449
0
LINE
8
BLACK
6
CONTINUOUS
10
0.731331
20
-0.934449
11
0.853772
21
-0.934449
0
LINE
8
BLACK
6
CONTINUOUS
10
0.853772
20
-0.934449
11
0.853772
21
-0.75689
0
LINE
8
BLACK
6
CONTINUOUS
10
0.853772
20
-0.75689
11
0.731331
21
-0.75689
0
LINE
8
BLACK
6
CONTINUOUS
10
-0.0609322
20
-0.912113
11
-0.0612205
21
-0.911417
0
LINE
8
BLACK
6
CONTINUOUS
10
-0.0612205
20
-0.911417
11
-0.0612205
21
-0.853937
0
LINE
8
BLACK
6
CONTINUOUS
10
-0.0612205
20
-0.853937
11
-0.0609322
21
-0.853241
0
LINE
8
BLACK
6
CONTINUOUS
10
-0.0609322
20
-0.853241
11
-0.0602362
21
-0.852953
0
LINE
8
BLACK
6
CONTINUOUS
10
-0.0602362
20
-0.852953
11
0.0562992
21
-0.852953
0
LINE
8
BLACK
6
CONTINUOUS
10
0.0562992
20
-0.852953
11
0.0569952
21
-0.853241
0
LINE
8
BLACK
6
CONTINUOUS
10
0.0569952
20
-0.853241
11
0.0572835
21
-0.853937
0
LINE
8
BLACK
6
CONTINUOUS
10
0.0572835
20
-0.853937
11
0.0572835
21
-0.911417
0
LINE
8
BLACK
6
CONTINUOUS
10
0.0572835
20
-0.911417
11
0.0569952
21
-0.912113
0
LINE
8
BLACK
6
CONTINUOUS
10
0.0569952
20
-0.912113
11
0.0562992
21
-0.912402
0
LINE
8
BLACK
6
CONTINUOUS
10
0.0562992
20
-0.912402
11
-0.0602362
21
-0.912402
0
LINE
8
BLACK
6
CONTINUOUS
10
-0.0602362
20
-0.912402
11
-0.0609322
21
-0.912113
0
LINE
8
BLACK
6
CONTINUOUS
10
-0.059252
20
-0.854921
11
-0.059252
21
-0.910433
0
LINE
8
BLACK
6
CONTINUOUS
10
-0.059252
20
-0.910433
11
0.055315
21
-0.910433
0
LINE
8
BLACK
6
CONTINUOUS
10
0.055315
20
-0.910433
11
0.055315
21
-0.854921
0
LINE
8
BLACK
6
CONTINUOUS
10
0.055315
20
-0.854921
11
-0.059252
21
-0.854921
0
LINE
8
BLACK
6
CONTINUOUS
10
-1.28148
20
-0.910683
11
-1.49525
21
-0.491138
0
LINE
8
BLACK
6
CONTINUOUS
10
-1.49525
20
-0.491138
11
-1.49531
21
-0.490387
0
LINE
8
BLACK
6
CONTINUOUS
10
-1.49531
20
-0.490387
11
-1.49482
21
-0.489814
0
LINE
8
BLACK
6
CONTINUOUS
10
-1.49482
20
-0.489814
11
-1.27031
21
-0.375423
0
LINE
8
BLACK
6
CONTINUOUS
10
-1.27031
20
-0.375423
11
-1.27031
21
-0.375423
0
LINE
8
BLACK
6
CONTINUOUS
10
-1.27031
20
-0.375423
11
-1.26956
21
-0.375364
0
LINE
8
BLACK
6
CONTINUOUS
10
-1.26956
20
-0.375364
11
-1.26899
21
-0.375853
0
LINE
8
BLACK
6
CONTINUOUS
10
-1.26899
20
-0.375853
11
-1.26899
21
-0.375853
0
LINE
8
BLACK
6
CONTINUOUS
10
-1.26899
20
-0.375853
11
-1.05522
21
-0.795398
0
LINE
8
BLACK
6
CONTINUOUS
10
-1.05522
20
-0.795398
11
-1.05522
21
-0.795398
0
LINE
8
BLACK
6
CONTINUOUS
10
-1.05522
20
-0.795398
11
-1.05516
21
-0.796149
0
LINE
8
BLACK
6
CONTINUOUS
10
-1.05516
20
-0.796149
11
-1.05516
21
-0.796149
0
LINE
8
BLACK
6
CONTINUOUS
10
-1.05516
20
-0.796149
11
-1.05565
21
-0.796721
0
LINE
8
BLACK
6
CONTINUOUS
10
-1.05565
20
-0.796721
11
-1.28016
21
-0.911113
0
LINE
8
BLACK
6
CONTINUOUS
10
-1.28016
20
-0.911113
11
-1.28091
21
-0.911172
0
LINE
8
BLACK
6
CONTINUOUS
10
-1.28091
20
-0.911172
11
-1.28091
21
-0.911172
0
LINE
8
BLACK
6
CONTINUOUS
10
-1.28091
20
-0.911172
11
-1.28148
21
-0.910683
0
LINE
8
BLACK
6
CONTINUOUS
10
-1.49305
20
-0.491121
11
-1.28017
21
-0.908912
0
LINE
8
BLACK
6
CONTINUOUS
10
-1.28017
20
-0.908912
11
-1.05742
21
-0.795414
0
LINE
8
BLACK
6
CONTINUOUS
10
-1.05742
20
-0.795414
11
-1.2703
21
-0.377623
0
LINE
8
BLACK
6
CONTINUOUS
10
-1.2703
20
-0.377623
11
-1.49305
21
-0.491121
0
LINE
8
BLACK
6
CONTINUOUS
10
0.146973
20
-0.87983
11
0.146685
21
-0.879134
0
LINE
8
BLACK
6
CONTINUOUS
10
0.146685
20
-0.879134
11
0.146685
21
-0.351575
0
LINE
8
BLACK
6
CONTINUOUS
10
0.146685
20
-0.351575
11
0.146973
21
-0.350879
0
LINE
8
BLACK
6
CONTINUOUS
10
0.146973
20
-0.350879
11
0.147669
21
-0.350591
0
LINE
8
BLACK
6
CONTINUOUS
10
0.147669
20
-0.350591
11
0.675228
21
-0.350591
0
LINE
8
BLACK
6
CONTINUOUS
10
0.675228
20
-0.350591
11
0.675924
21
-0.350879
0
LINE
8
BLACK
6
CONTINUOUS
10
0.675924
20
-0.350879
11
0.676213
21
-0.351575
0
LINE
8
BLACK
6
CONTINUOUS
10
0.676213
20
-0.351575
11
0.676213
21
-0.879134
0
LINE
8
BLACK
6
CONTINUOUS
10
0.676213
20
-0.879134
11
0.675924
21
-0.87983
0
LINE
8
BLACK
6
CONTINUOUS
10
0.675924
20
-0.87983
11
0.675228
21
-0.880118
0
LINE
8
BLACK
6
CONTINUOUS
10
0.675228
20
-0.880118
11
0.147669
21
-0.880118
0
LINE
8
BLACK
6
CONTINUOUS
10
0.147669
20
-0.880118
11
0.146973
21
-0.87983
0
LINE
8
BLACK
6
CONTINUOUS
10
0.148654
20
-0.352559
11
0.148654
21
-0.87815
0
LINE
8
BLACK
6
CONTINUOUS
10
0.148654
20
-0.87815
11
0.674244
21
-0.87815
0
LINE
8
BLACK
6
CONTINUOUS
10
0.674244
20
-0.87815
11
0.674244
21
-0.352559
0
LINE
8
BLACK
6
CONTINUOUS
10
0.674244
20
-0.352559
11
0.148654
21
-0.352559
0
LINE
8
BLACK
6
CONTINUOUS
10
-0.333661
20
-0.711048
11
-0.293016
21
-0.751693
0
LINE
8
BLACK
6
CONTINUOUS
10
-0.293016
20
-0.751693
11
-0.292728
21
-0.752389
0
LINE
8
BLACK
6
CONTINUOUS
10
-0.292728
20
-0.752389
11
-0.293016
21
-0.753085
0
LINE
8
BLACK
6
CONTINUOUS
10
-0.293016
20
-0.753085
11
-0.375419
21
-0.835488
0
LINE
8
BLACK
6
CONTINUOUS
10
-0.375419
20
-0.835488
11
-0.376115
21
-0.835776
0
LINE
8
BLACK
6
CONTINUOUS
10
-0.376115
20
-0.835776
11
-0.376811
21
-0.835488
0
LINE
8
BLACK
6
CONTINUOUS
10
-0.376811
20
-0.835488
11
-0.417456
21
-0.794843
0
LINE
8
BLACK
6
CONTINUOUS
10
-0.417456
20
-0.794843
11
-0.417744
21
-0.794147
0
LINE
8
BLACK
6
CONTINUOUS
10
-0.417744
20
-0.794147
11
-0.417456
21
-0.793451
0
LINE
8
BLACK
6
CONTINUOUS
10
-0.417456
20
-0.793451
11
-0.335053
21
-0.711048
0
LINE
8
BLACK
6
CONTINUOUS
10
-0.335053
20
-0.711048
11
-0.334357
21
-0.71076
0
LINE
8
BLACK
6
CONTINUOUS
10
-0.334357
20
-0.71076
11
-0.333661
21
-0.711048
0
LINE
8
BLACK
6
CONTINUOUS
10
-0.415368
20
-0.794147
11
-0.376115
21
-0.8334
0
LINE
8
BLACK
6
CONTINUOUS
10
-0.376115
20
-0.8334
11
-0.295104
21
-0.752389
0
LINE
8
BLACK
6
CONTINUOUS
10
-0.295104
20
-0.752389
11
-0.334357
21
-0.713136
0
LINE
8
BLACK
6
CONTINUOUS
10
-0.334357
20
-0.713136
11
-0.415368
21
-0.794147
0
LINE
8
BLACK
6
CONTINUOUS
10
-0.0522078
20
-0.821224
11
-0.0524961
21
-0.820528
0
LINE
8
BLACK
6
CONTINUOUS
10
-0.0524961
20
-0.820528
11
-0.0524961
21
-0.655173
0
LINE
8
BLACK
6
CONTINUOUS
10
-0.0524961
20
-0.655173
11
-0.0522078
21
-0.654477
0
LINE
8
BLACK
6
CONTINUOUS
10
-0.0522078
20
-0.654477
11
-0.0515118
21
-0.654189
0
LINE
8
BLACK
6
CONTINUOUS
10
-0.0515118
20
-0.654189
11
0.0823465
21
-0.654189
0
LINE
8
BLACK
6
CONTINUOUS
10
0.0823465
20
-0.654189
11
0.0830424
21
-0.654477
0
LINE
8
BLACK
6
CONTINUOUS
10
0.0830424
20
-0.654477
11
0.0833307
21
-0.655173
0
LINE
8
BLACK
6
CONTINUOUS
10
0.0833307
20
-0.655173
11
0.0833307
21
-0.820528
0
LINE
8
BLACK
6
CONTINUOUS
10
0.0833307
20
-0.820528
11
0.0830424
21
-0.821224
0
LINE
8
BLACK
6
CONTINUOUS
10
0.0830424
20
-0.821224
11
0.0823465
21
-0.821512
0
LINE
8
BLACK
6
CONTINUOUS
10
0.0823465
20
-0.821512
11
-0.0515118
21
-0.821512
0
LINE
8
BLACK
6
CONTINUOUS
10
-0.0515118
20
-0.821512
11
-0.0522078
21
-0.821224
0
LINE
8
BLACK
6
CONTINUOUS
10
-0.0505276
20
-0.656157
11
-0.0505276
21
-0.819543
0
LINE
8
BLACK
6
CONTINUOUS
10
-0.0505276
20
-0.819543
11
0.0813622
21
-0.819543
0
LINE
8
BLACK
6
CONTINUOUS
10
0.0813622
20
-0.819543
11
0.0813622
21
-0.656157
0
LINE
8
BLACK
6
CONTINUOUS
10
0.0813622
20
-0.656157
11
-0.0505276
21
-0.656157
0
LINE
8
BLACK
6
CONTINUOUS
10
-0.14794
20
-0.775893
11
-0.148228
21
-0.775197
0
LINE
8
BLACK
6
CONTINUOUS
10
-0.148228
20
-0.775197
11
-0.148228
21
-0.658661
0
LINE
8
BLACK
6
CONTINUOUS
10
-0.148228
20
-0.658661
11
-0.14794
21
-0.657965
0
LINE
8
BLACK
6
CONTINUOUS
10
-0.14794
20
-0.657965
11
-0.147244
21
-0.657677
0
LINE
8
BLACK
6
CONTINUOUS
10
-0.147244
20
-0.657677
11
-0.0897638
21
-0.657677
0
LINE
8
BLACK
6
CONTINUOUS
10
-0.0897638
20
-0.657677
11
-0.0890678
21
-0.657965
0
LINE
8
BLACK
6
CONTINUOUS
10
-0.0890678
20
-0.657965
11
-0.0887795
21
-0.658661
0
LINE
8
BLACK
6
CONTINUOUS
10
-0.0887795
20
-0.658661
11
-0.0887795
21
-0.775197
0
LINE
8
BLACK
6
CONTINUOUS
10
-0.0887795
20
-0.775197
11
-0.0890678
21
-0.775893
0
LINE
8
BLACK
6
CONTINUOUS
10
-0.0890678
20
-0.775893
11
-0.0897638
21
-0.776181
0
LINE
8
BLACK
6
CONTINUOUS
10
-0.0897638
20
-0.776181
11
-0.147244
21
-0.776181
0
LINE
8
BLACK
6
CONTINUOUS
10
-0.147244
20
-0.776181
11
-0.14794
21
-0.775893
0
LINE
8
BLACK
6
CONTINUOUS
10
-0.14626
20
-0.659646
11
-0.14626
21
-0.774213
0
LINE
8
BLACK
6
CONTINUOUS
10
-0.14626
20
-0.774213
11
-0.090748
21
-0.774213
0
LINE
8
BLACK
6
CONTINUOUS
10
-0.090748
20
-0.774213
11
-0.090748
21
-0.659646
0
LINE
8
BLACK
6
CONTINUOUS
10
-0.090748
20
-0.659646
11
-0.14626
21
-0.659646
0
LINE
8
BLACK
6
CONTINUOUS
10
-0.628661
20
-0.651048
11
-0.588016
21
-0.691693
0
LINE
8
BLACK
6
CONTINUOUS
10
-0.588016
20
-0.691693
11
-0.587728
21
-0.692389
0
LINE
8
BLACK
6
CONTINUOUS
10
-0.587728
20
-0.692389
11
-0.588016
21
-0.693085
0
LINE
8
BLACK
6
CONTINUOUS
10
-0.588016
20
-0.693085
11
-0.670419
21
-0.775488
0
LINE
8
BLACK
6
CONTINUOUS
10
-0.670419
20
-0.775488
11
-0.671115
21
-0.775776
0
LINE
8
BLACK
6
CONTINUOUS
10
-0.671115
20
-0.775776
11
-0.671811
21
-0.775488
0
LINE
8
BLACK
6
CONTINUOUS
10
-0.671811
20
-0.775488
11
-0.712456
21
-0.734843
0
LINE
8
BLACK
6
CONTINUOUS
10
-0.712456
20
-0.734843
11
-0.712744
21
-0.734147
0
LINE
8
BLACK
6
CONTINUOUS
10
-0.712744
20
-0.734147
11
-0.712456
21
-0.733451
0
LINE
8
BLACK
6
CONTINUOUS
10
-0.712456
20
-0.733451
11
-0.630053
21
-0.651048
0
LINE
8
BLACK
6
CONTINUOUS
10
-0.630053
20
-0.651048
11
-0.629357
21
-0.65076
0
LINE
8
BLACK
6
CONTINUOUS
10
-0.629357
20
-0.65076
11
-0.628661
21
-0.651048
0
LINE
8
BLACK
6
CONTINUOUS
10
-0.710368
20
-0.734147
11
-0.671115
21
-0.7734
0
LINE
8
BLACK
6
CONTINUOUS
10
-0.671115
20
-0.7734
11
-0.590104
21
-0.692389
0
LINE
8
BLACK
6
CONTINUOUS
10
-0.590104
20
-0.692389
11
-0.629357
21
-0.653136
0
LINE
8
BLACK
6
CONTINUOUS
10
-0.629357
20
-0.653136
11
-0.710368
21
-0.734147
0
LINE
8
BLACK
6
CONTINUOUS
10
-0.408661
20
-0.636048
11
-0.368016
21
-0.676693
0
LINE
8
BLACK
6
CONTINUOUS
10
-0.368016
20
-0.676693
11
-0.367728
21
-0.677389
0
LINE
8
BLACK
6
CONTINUOUS
10
-0.367728
20
-0.677389
11
-0.368016
21
-0.678085
0
LINE
8
BLACK
6
CONTINUOUS
10
-0.368016
20
-0.678085
11
-0.450419
21
-0.760488
0
LINE
8
BLACK
6
CONTINUOUS
10
-0.450419
20
-0.760488
11
-0.451115
21
-0.760776
0
LINE
8
BLACK
6
CONTINUOUS
10
-0.451115
20
-0.760776
11
-0.451811
21
-0.760488
0
LINE
8
BLACK
6
CONTINUOUS
10
-0.451811
20
-0.760488
11
-0.492456
21
-0.719843
0
LINE
8
BLACK
6
CONTINUOUS
10
-0.492456
20
-0.719843
11
-0.492744
21
-0.719147
0
LINE
8
BLACK
6
CONTINUOUS
10
-0.492744
20
-0.719147
11
-0.492456
21
-0.718451
0
LINE
8
BLACK
6
CONTINUOUS
10
-0.492456
20
-0.718451
11
-0.410053
21
-0.636048
0
LINE
8
BLACK
6
CONTINUOUS
10
-0.410053
20
-0.636048
11
-0.409357
21
-0.63576
0
LINE
8
BLACK
6
CONTINUOUS
10
-0.409357
20
-0.63576
11
-0.408661
21
-0.636048
0
LINE
8
BLACK
6
CONTINUOUS
10
-0.490368
20
-0.719147
11
-0.451115
21
-0.7584
0
LINE
8
BLACK
6
CONTINUOUS
10
-0.451115
20
-0.7584
11
-0.370104
21
-0.677389
0
LINE
8
BLACK
6
CONTINUOUS
10
-0.370104
20
-0.677389
11
-0.409357
21
-0.638136
0
LINE
8
BLACK
6
CONTINUOUS
10
-0.409357
20
-0.638136
11
-0.490368
21
-0.719147
0
LINE
8
BLACK
6
CONTINUOUS
10
0.708587
20
-0.753058
11
0.708299
21
-0.752362
0
LINE
8
BLACK
6
CONTINUOUS
10
0.708299
20
-0.752362
11
0.708299
21
-0.694882
0
LINE
8
BLACK
6
CONTINUOUS
10
0.708299
20
-0.694882
11
0.708587
21
-0.694186
0
LINE
8
BLACK
6
CONTINUOUS
10
0.708587
20
-0.694186
11
0.709283
21
-0.693898
0
LINE
8
BLACK
6
CONTINUOUS
10
0.709283
20
-0.693898
11
0.825819
21
-0.693898
0
LINE
8
BLACK
6
CONTINUOUS
10
0.825819
20
-0.693898
11
0.826515
21
-0.694186
0
LINE
8
BLACK
6
CONTINUOUS
10
0.826515
20
-0.694186
11
0.826803
21
-0.694882
0
LINE
8
BLACK
6
CONTINUOUS
10
0.826803
20
-0.694882
11
0.826803
21
-0.752362
0
LINE
8
BLACK
6
CONTINUOUS
10
0.826803
20
-0.752362
11
0.826515
21
-0.753058
0
LINE
8
BLACK
6
CONTINUOUS
10
0.826515
20
-0.753058
11
0.825819
21
-0.753346
0
LINE
8
BLACK
6
CONTINUOUS
10
0.825819
20
-0.753346
11
0.709283
21
-0.753346
0
LINE
8
BLACK
6
CONTINUOUS
10
0.709283
20
-0.753346
11
0.708587
21
-0.753058
0
LINE
8
BLACK
6
CONTINUOUS
10
0.710268
20
-0.695866
11
0.710268
21
-0.751378
0
LINE
8
BLACK
6
CONTINUOUS
10
0.710268
20
-0.751378
11
0.824835
21
-0.751378
0
LINE
8
BLACK
6
CONTINUOUS
10
0.824835
20
-0.751378
11
0.824835
21
-0.695866
0
LINE
8
BLACK
6
CONTINUOUS
10
0.824835
20
-0.695866
11
0.710268
21
-0.695866
0
LINE
8
BLACK
6
CONTINUOUS
10
-1.07245
20
-0.549015
11
-0.990049
21
-0.631418
0
LINE
8
BLACK
6
CONTINUOUS
10
-0.990049
20
-0.631418
11
-0.989761
21
-0.632114
0
LINE
8
BLACK
6
CONTINUOUS
10
-0.989761
20
-0.632114
11
-0.990049
21
-0.63281
0
LINE
8
BLACK
6
CONTINUOUS
10
-0.990049
20
-0.63281
11
-1.03069
21
-0.673455
0
LINE
8
BLACK
6
CONTINUOUS
10
-1.03069
20
-0.673455
11
-1.03139
21
-0.673743
0
LINE
8
BLACK
6
CONTINUOUS
10
-1.03139
20
-0.673743
11
-1.03209
21
-0.673455
0
LINE
8
BLACK
6
CONTINUOUS
10
-1.03209
20
-0.673455
11
-1.11449
21
-0.591052
0
LINE
8
BLACK
6
CONTINUOUS
10
-1.11449
20
-0.591052
11
-1.11478
21
-0.590356
0
LINE
8
BLACK
6
CONTINUOUS
10
-1.11478
20
-0.590356
11
-1.11449
21
-0.58966
0
LINE
8
BLACK
6
CONTINUOUS
10
-1.11449
20
-0.58966
11
-1.07384
21
-0.549015
0
LINE
8
BLACK
6
CONTINUOUS
10
-1.07384
20
-0.549015
11
-1.07315
21
-0.548727
0
LINE
8
BLACK
6
CONTINUOUS
10
-1.07315
20
-0.548727
11
-1.07245
21
-0.549015
0
LINE
8
BLACK
6
CONTINUOUS
10
-1.1124
20
-0.590356
11
-1.03139
21
-0.671367
0
LINE
8
BLACK
6
CONTINUOUS
10
-1.03139
20
-0.671367
11
-0.992137
21
-0.632114
0
LINE
8
BLACK
6
CONTINUOUS
10
-0.992137
20
-0.632114
11
-1.07315
21
-0.551103
0
LINE
8
BLACK
6
CONTINUOUS
10
-1.07315
20
-0.551103
11
-1.1124
21
-0.590356
0
LINE
8
BLACK
6
CONTINUOUS
10
0.783587
20
-0.657783
11
0.783299
21
-0.657087
0
LINE
8
BLACK
6
CONTINUOUS
10
0.783299
20
-0.657087
11
0.783299
21
-0.523228
0
LINE
8
BLACK
6
CONTINUOUS
10
0.783299
20
-0.523228
11
0.783587
21
-0.522532
0
LINE
8
BLACK
6
CONTINUOUS
10
0.783587
20
-0.522532
11
0.784283
21
-0.522244
0
LINE
8
BLACK
6
CONTINUOUS
10
0.784283
20
-0.522244
11
0.861449
21
-0.522244
0
LINE
8
BLACK
6
CONTINUOUS
10
0.861449
20
-0.522244
11
0.862145
21
-0.522532
0
LINE
8
BLACK
6
CONTINUOUS
10
0.862145
20
-0.522532
11
0.862433
21
-0.523228
0
LINE
8
BLACK
6
CONTINUOUS
10
0.862433
20
-0.523228
11
0.862433
21
-0.657087
0
LINE
8
BLACK
6
CONTINUOUS
10
0.862433
20
-0.657087
11
0.862145
21
-0.657783
0
LINE
8
BLACK
6
CONTINUOUS
10
0.862145
20
-0.657783
11
0.861449
21
-0.658071
0
LINE
8
BLACK
6
CONTINUOUS
10
0.861449
20
-0.658071
11
0.784283
21
-0.658071
0
LINE
8
BLACK
6
CONTINUOUS
10
0.784283
20
-0.658071
11
0.783587
21
-0.657783
0
LINE
8
BLACK
6
CONTINUOUS
10
0.785268
20
-0.524213
11
0.785268
21
-0.656102
0
LINE
8
BLACK
6
CONTINUOUS
10
0.785268
20
-0.656102
11
0.860465
21
-0.656102
0
LINE
8
BLACK
6
CONTINUOUS
10
0.860465
20
-0.656102
11
0.860465
21
-0.524213
0
LINE
8
BLACK
6
CONTINUOUS
10
0.860465
20
-0.524213
11
0.785268
21
-0.524213
0
LINE
8
BLACK
6
CONTINUOUS
10
0.708784
20
-0.642231
11
0.708496
21
-0.641535
0
LINE
8
BLACK
6
CONTINUOUS
10
0.708496
20
-0.641535
11
0.708496
21
-0.525
0
LINE
8
BLACK
6
CONTINUOUS
10
0.708496
20
-0.525
11
0.708784
21
-0.524304
0
LINE
8
BLACK
6
CONTINUOUS
10
0.708784
20
-0.524304
11
0.70948
21
-0.524016
0
LINE
8
BLACK
6
CONTINUOUS
10
0.70948
20
-0.524016
11
0.766961
21
-0.524016
0
LINE
8
BLACK
6
CONTINUOUS
10
0.766961
20
-0.524016
11
0.767657
21
-0.524304
0
LINE
8
BLACK
6
CONTINUOUS
10
0.767657
20
-0.524304
11
0.767945
21
-0.525
0
LINE
8
BLACK
6
CONTINUOUS
10
0.767945
20
-0.525
11
0.767945
21
-0.641535
0
LINE
8
BLACK
6
CONTINUOUS
10
0.767945
20
-0.641535
11
0.767657
21
-0.642231
0
LINE
8
BLACK
6
CONTINUOUS
10
0.767657
20
-0.642231
11
0.766961
21
-0.64252
0
LINE
8
BLACK
6
CONTINUOUS
10
0.766961
20
-0.64252
11
0.70948
21
-0.64252
0
LINE
8
BLACK
6
CONTINUOUS
10
0.70948
20
-0.64252
11
0.708784
21
-0.642231
0
LINE
8
BLACK
6
CONTINUOUS
10
0.710465
20
-0.525984
11
0.710465
21
-0.640551
0
LINE
8
BLACK
6
CONTINUOUS
10
0.710465
20
-0.640551
11
0.765976
21
-0.640551
0
LINE
8
BLACK
6
CONTINUOUS
10
0.765976
20
-0.640551
11
0.765976
21
-0.525984
0
LINE
8
BLACK
6
CONTINUOUS
10
0.765976
20
-0.525984
11
0.710465
21
-0.525984
0
LINE
8
BLACK
6
CONTINUOUS
10
0.915446
20
-0.627468
11
0.915157
21
-0.626772
0
LINE
8
BLACK
6
CONTINUOUS
10
0.915157
20
-0.626772
11
0.915157
21
-0.445669
0
LINE
8
BLACK
6
CONTINUOUS
10
0.915157
20
-0.445669
11
0.915446
21
-0.444973
0
LINE
8
BLACK
6
CONTINUOUS
10
0.915446
20
-0.444973
11
0.916142
21
-0.444685
0
LINE
8
BLACK
6
CONTINUOUS
10
0.916142
20
-0.444685
11
1.17992
21
-0.444685
0
LINE
8
BLACK
6
CONTINUOUS
10
1.17992
20
-0.444685
11
1.18062
21
-0.444973
0
LINE
8
BLACK
6
CONTINUOUS
10
1.18062
20
-0.444973
11
1.18091
21
-0.445669
0
LINE
8
BLACK
6
CONTINUOUS
10
1.18091
20
-0.445669
11
1.18091
21
-0.626772
0
LINE
8
BLACK
6
CONTINUOUS
10
1.18091
20
-0.626772
11
1.18062
21
-0.627468
0
LINE
8
BLACK
6
CONTINUOUS
10
1.18062
20
-0.627468
11
1.17992
21
-0.627756
0
LINE
8
BLACK
6
CONTINUOUS
10
1.17992
20
-0.627756
11
0.916142
21
-0.627756
0
LINE
8
BLACK
6
CONTINUOUS
10
0.916142
20
-0.627756
11
0.915446
21
-0.627468
0
LINE
8
BLACK
6
CONTINUOUS
10
0.917126
20
-0.446654
11
0.917126
21
-0.625787
0
LINE
8
BLACK
6
CONTINUOUS
10
0.917126
20
-0.625787
11
1.17894
21
-0.625787
0
LINE
8
BLACK
6
CONTINUOUS
10
1.17894
20
-0.625787
11
1.17894
21
-0.446654
0
LINE
8
BLACK
6
CONTINUOUS
10
1.17894
20
-0.446654
11
0.917126
21
-0.446654
0
LINE
8
BLACK
6
CONTINUOUS
10
-1.01839
20
-0.498081
11
-0.935983
21
-0.580484
0
LINE
8
BLACK
6
CONTINUOUS
10
-0.935983
20
-0.580484
11
-0.935695
21
-0.58118
0
LINE
8
BLACK
6
CONTINUOUS
10
-0.935695
20
-0.58118
11
-0.935983
21
-0.581876
0
LINE
8
BLACK
6
CONTINUOUS
10
-0.935983
20
-0.581876
11
-0.976628
21
-0.622521
0
LINE
8
BLACK
6
CONTINUOUS
10
-0.976628
20
-0.622521
11
-0.977324
21
-0.622809
0
LINE
8
BLACK
6
CONTINUOUS
10
-0.977324
20
-0.622809
11
-0.97802
21
-0.622521
0
LINE
8
BLACK
6
CONTINUOUS
10
-0.97802
20
-0.622521
11
-1.06042
21
-0.540118
0
LINE
8
BLACK
6
CONTINUOUS
10
-1.06042
20
-0.540118
11
-1.06071
21
-0.539422
0
LINE
8
BLACK
6
CONTINUOUS
10
-1.06071
20
-0.539422
11
-1.06042
21
-0.538726
0
LINE
8
BLACK
6
CONTINUOUS
10
-1.06042
20
-0.538726
11
-1.01978
21
-0.498081
0
LINE
8
BLACK
6
CONTINUOUS
10
-1.01978
20
-0.498081
11
-1.01908
21
-0.497793
0
LINE
8
BLACK
6
CONTINUOUS
10
-1.01908
20
-0.497793
11
-1.01839
21
-0.498081
0
LINE
8
BLACK
6
CONTINUOUS
10
-1.05834
20
-0.539422
11
-0.977324
21
-0.620433
0
LINE
8
BLACK
6
CONTINUOUS
10
-0.977324
20
-0.620433
11
-0.938071
21
-0.58118
0
LINE
8
BLACK
6
CONTINUOUS
10
-0.938071
20
-0.58118
11
-1.01908
21
-0.500169
0
LINE
8
BLACK
6
CONTINUOUS
10
-1.01908
20
-0.500169
11
-1.05834
21
-0.539422
0
LINE
8
BLACK
6
CONTINUOUS
10
0.000485118
20
-0.614869
11
0.00019685
21
-0.614173
0
LINE
8
BLACK
6
CONTINUOUS
10
0.00019685
20
-0.614173
11
0.00019685
21
-0.556693
0
LINE
8
BLACK
6
CONTINUOUS
10
0.00019685
20
-0.556693
11
0.000485118
21
-0.555997
0
LINE
8
BLACK
6
CONTINUOUS
10
0.000485118
20
-0.555997
11
0.0011811
21
-0.555709
0
LINE
8
BLACK
6
CONTINUOUS
10
0.0011811
20
-0.555709
11
0.117717
21
-0.555709
0
LINE
8
BLACK
6
CONTINUOUS
10
0.117717
20
-0.555709
11
0.118413
21
-0.555997
0
LINE
8
BLACK
6
CONTINUOUS
10
0.118413
20
-0.555997
11
0.118701
21
-0.556693
0
LINE
8
BLACK
6
CONTINUOUS
10
0.118701
20
-0.556693
11
0.118701
21
-0.614173
0
LINE
8
BLACK
6
CONTINUOUS
10
0.118701
20
-0.614173
11
0.118413
21
-0.614869
0
LINE
8
BLACK
6
CONTINUOUS
10
0.118413
20
-0.614869
11
0.117717
21
-0.615157
0
LINE
8
BLACK
6
CONTINUOUS
10
0.117717
20
-0.615157
11
0.0011811
21
-0.615157
0
LINE
8
BLACK
6
CONTINUOUS
10
0.0011811
20
-0.615157
11
0.000485118
21
-0.614869
0
LINE
8
BLACK
6
CONTINUOUS
10
0.00216535
20
-0.557677
11
0.00216535
21
-0.613189
0
LINE
8
BLACK
6
CONTINUOUS
10
0.00216535
20
-0.613189
11
0.116732
21
-0.613189
0
LINE
8
BLACK
6
CONTINUOUS
10
0.116732
20
-0.613189
11
0.116732
21
-0.557677
0
LINE
8
BLACK
6
CONTINUOUS
10
0.116732
20
-0.557677
11
0.00216535
21
-0.557677
0
LINE
8
BLACK
6
CONTINUOUS
10
-0.0377039
20
-0.54794
11
-0.0379921
21
-0.547244
0
LINE
8
BLACK
6
CONTINUOUS
10
-0.0379921
20
-0.547244
11
-0.0379921
21
-0.489764
0
LINE
8
BLACK
6
CONTINUOUS
10
-0.0379921
20
-0.489764
11
-0.0377039
21
-0.489068
0
LINE
8
BLACK
6
CONTINUOUS
10
-0.0377039
20
-0.489068
11
-0.0370079
21
-0.48878
0
LINE
8
BLACK
6
CONTINUOUS
10
-0.0370079
20
-0.48878
11
0.0795276
21
-0.48878
0
LINE
8
BLACK
6
CONTINUOUS
10
0.0795276
20
-0.48878
11
0.0802235
21
-0.489068
0
LINE
8
BLACK
6
CONTINUOUS
10
0.0802235
20
-0.489068
11
0.0805118
21
-0.489764
0
LINE
8
BLACK
6
CONTINUOUS
10
0.0805118
20
-0.489764
11
0.0805118
21
-0.547244
0
LINE
8
BLACK
6
CONTINUOUS
10
0.0805118
20
-0.547244
11
0.0802235
21
-0.54794
0
LINE
8
BLACK
6
CONTINUOUS
10
0.0802235
20
-0.54794
11
0.0795276
21
-0.548228
0
LINE
8
BLACK
6
CONTINUOUS
10
0.0795276
20
-0.548228
11
-0.0370079
21
-0.548228
0
LINE
8
BLACK
6
CONTINUOUS
10
-0.0370079
20
-0.548228
11
-0.0377039
21
-0.54794
0
LINE
8
BLACK
6
CONTINUOUS
10
-0.0360236
20
-0.490748
11
-0.0360236
21
-0.54626
0
LINE
8
BLACK
6
CONTINUOUS
10
-0.0360236
20
-0.54626
11
0.0785433
21
-0.54626
0
LINE
8
BLACK
6
CONTINUOUS
10
0.0785433
20
-0.54626
11
0.0785433
21
-0.490748
0
LINE
8
BLACK
6
CONTINUOUS
10
0.0785433
20
-0.490748
11
-0.0360236
21
-0.490748
0
LINE
8
BLACK
6
CONTINUOUS
10
0.412296
20
-0.334554
11
0.412008
21
-0.333858
0
LINE
8
BLACK
6
CONTINUOUS
10
0.412008
20
-0.333858
11
0.412008
21
-0.217323
0
LINE
8
BLACK
6
CONTINUOUS
10
0.412008
20
-0.217323
11
0.412296
21
-0.216627
0
LINE
8
BLACK
6
CONTINUOUS
10
0.412296
20
-0.216627
11
0.412992
21
-0.216339
0
LINE
8
BLACK
6
CONTINUOUS
10
0.412992
20
-0.216339
11
0.470472
21
-0.216339
0
LINE
8
BLACK
6
CONTINUOUS
10
0.470472
20
-0.216339
11
0.471168
21
-0.216627
0
LINE
8
BLACK
6
CONTINUOUS
10
0.471168
20
-0.216627
11
0.471457
21
-0.217323
0
LINE
8
BLACK
6
CONTINUOUS
10
0.471457
20
-0.217323
11
0.471457
21
-0.333858
0
LINE
8
BLACK
6
CONTINUOUS
10
0.471457
20
-0.333858
11
0.471168
21
-0.334554
0
LINE
8
BLACK
6
CONTINUOUS
10
0.471168
20
-0.334554
11
0.470472
21
-0.334843
0
LINE
8
BLACK
6
CONTINUOUS
10
0.470472
20
-0.334843
11
0.412992
21
-0.334843
0
LINE
8
BLACK
6
CONTINUOUS
10
0.412992
20
-0.334843
11
0.412296
21
-0.334554
0
LINE
8
BLACK
6
CONTINUOUS
10
0.413976
20
-0.218307
11
0.413976
21
-0.332874
0
LINE
8
BLACK
6
CONTINUOUS
10
0.413976
20
-0.332874
11
0.469488
21
-0.332874
0
LINE
8
BLACK
6
CONTINUOUS
10
0.469488
20
-0.332874
11
0.469488
21
-0.218307
0
LINE
8
BLACK
6
CONTINUOUS
10
0.469488
20
-0.218307
11
0.413976
21
-0.218307
0
LINE
8
BLACK
6
CONTINUOUS
10
-1.54328
20
-0.274048
11
-1.54356
21
-0.273352
0
LINE
8
BLACK
6
CONTINUOUS
10
-1.54356
20
-0.273352
11
-1.54356
21
0.295152
0
LINE
8
BLACK
6
CONTINUOUS
10
-1.54356
20
0.295152
11
-1.54328
21
0.295848
0
LINE
8
BLACK
6
CONTINUOUS
10
-1.54328
20
0.295848
11
-1.54258
21
0.296137
0
LINE
8
BLACK
6
CONTINUOUS
10
-1.54258
20
0.296137
11
-1.29061
21
0.296137
0
LINE
8
BLACK
6
CONTINUOUS
10
-1.29061
20
0.296137
11
-1.28991
21
0.295848
0
LINE
8
BLACK
6
CONTINUOUS
10
-1.28991
20
0.295848
11
-1.28963
21
0.295152
0
LINE
8
BLACK
6
CONTINUOUS
10
-1.28963
20
0.295152
11
-1.28963
21
-0.273352
0
LINE
8
BLACK
6
CONTINUOUS
10
-1.28963
20
-0.273352
11
-1.28991
21
-0.274048
0
LINE
8
BLACK
6
CONTINUOUS
10
-1.28991
20
-0.274048
11
-1.29061
21
-0.274336
0
LINE
8
BLACK
6
CONTINUOUS
10
-1.29061
20
-0.274336
11
-1.54258
21
-0.274336
0
LINE
8
BLACK
6
CONTINUOUS
10
-1.54258
20
-0.274336
11
-1.54328
21
-0.274048
0
LINE
8
BLACK
6
CONTINUOUS
10
-1.5416
20
0.294168
11
-1.5416
21
-0.272367
0
LINE
8
BLACK
6
CONTINUOUS
10
-1.5416
20
-0.272367
11
-1.2916
21
-0.272367
0
LINE
8
BLACK
6
CONTINUOUS
10
-1.2916
20
-0.272367
11
-1.2916
21
0.294168
0
LINE
8
BLACK
6
CONTINUOUS
10
-1.2916
20
0.294168
11
-1.5416
21
0.294168
0
LINE
8
BLACK
6
CONTINUOUS
10
1.00308
20
-0.226381
11
1.0028
21
-0.225685
0
LINE
8
BLACK
6
CONTINUOUS
10
1.0028
20
-0.225685
11
1.0028
21
0.0971496
0
LINE
8
BLACK
6
CONTINUOUS
10
1.0028
20
0.0971496
11
1.00308
21
0.0978456
0
LINE
8
BLACK
6
CONTINUOUS
10
1.00308
20
0.0978456
11
1.00378
21
0.0981339
0
LINE
8
BLACK
6
CONTINUOUS
10
1.00378
20
0.0981339
11
1.25575
21
0.0981339
0
LINE
8
BLACK
6
CONTINUOUS
10
1.25575
20
0.0981339
11
1.25644
21
0.0978456
0
LINE
8
BLACK
6
CONTINUOUS
10
1.25644
20
0.0978456
11
1.25673
21
0.0971496
0
LINE
8
BLACK
6
CONTINUOUS
10
1.25673
20
0.0971496
11
1.25673
21
-0.225685
0
LINE
8
BLACK
6
CONTINUOUS
10
1.25673
20
-0.225685
11
1.25644
21
-0.226381
0
LINE
8
BLACK
6
CONTINUOUS
10
1.25644
20
-0.226381
11
1.25575
21
-0.226669
0
LINE
8
BLACK
6
CONTINUOUS
10
1.25575
20
-0.226669
11
1.00378
21
-0.226669
0
LINE
8
BLACK
6
CONTINUOUS
10
1.00378
20
-0.226669
11
1.00308
21
-0.226381
0
LINE
8
BLACK
6
CONTINUOUS
10
1.00476
20
0.0961654
11
1.00476
21
-0.224701
0
LINE
8
BLACK
6
CONTINUOUS
10
1.00476
20
-0.224701
11
1.25476
21
-0.224701
0
LINE
8
BLACK
6
CONTINUOUS
10
1.25476
20
-0.224701
11
1.25476
21
0.0961654
0
LINE
8
BLACK
6
CONTINUOUS
10
1.25476
20
0.0961654
11
1.00476
21
0.0961654
0
LINE
8
BLACK
6
CONTINUOUS
10
-1.27747
20
-0.0806172
11
-1.27776
21
-0.0799213
0
LINE
8
BLACK
6
CONTINUOUS
10
-1.27776
20
-0.0799213
11
-1.27776
21
-0.0224409
0
LINE
8
BLACK
6
CONTINUOUS
10
-1.27776
20
-0.0224409
11
-1.27747
21
-0.021745
0
LINE
8
BLACK
6
CONTINUOUS
10
-1.27747
20
-0.021745
11
-1.27677
21
-0.0214567
0
LINE
8
BLACK
6
CONTINUOUS
10
-1.27677
20
-0.0214567
11
-1.16024
21
-0.0214567
0
LINE
8
BLACK
6
CONTINUOUS
10
-1.16024
20
-0.0214567
11
-1.15954
21
-0.021745
0
LINE
8
BLACK
6
CONTINUOUS
10
-1.15954
20
-0.021745
11
-1.15925
21
-0.0224409
0
LINE
8
BLACK
6
CONTINUOUS
10
-1.15925
20
-0.0224409
11
-1.15925
21
-0.0799213
0
LINE
8
BLACK
6
CONTINUOUS
10
-1.15925
20
-0.0799213
11
-1.15954
21
-0.0806172
0
LINE
8
BLACK
6
CONTINUOUS
10
-1.15954
20
-0.0806172
11
-1.16024
21
-0.0809055
0
LINE
8
BLACK
6
CONTINUOUS
10
-1.16024
20
-0.0809055
11
-1.27677
21
-0.0809055
0
LINE
8
BLACK
6
CONTINUOUS
10
-1.27677
20
-0.0809055
11
-1.27747
21
-0.0806172
0
LINE
8
BLACK
6
CONTINUOUS
10
-1.27579
20
-0.0234252
11
-1.27579
21
-0.078937
0
LINE
8
BLACK
6
CONTINUOUS
10
-1.27579
20
-0.078937
11
-1.16122
21
-0.078937
0
LINE
8
BLACK
6
CONTINUOUS
10
-1.16122
20
-0.078937
11
-1.16122
21
-0.0234252
0
LINE
8
BLACK
6
CONTINUOUS
10
-1.16122
20
-0.0234252
11
-1.27579
21
-0.0234252
0
LINE
8
BLACK
6
CONTINUOUS
10
-1.27747
20
-0.0097511
11
-1.27776
21
-0.00905512
0
LINE
8
BLACK
6
CONTINUOUS
10
-1.27776
20
-0.00905512
11
-1.27776
21
0.0484252
0
LINE
8
BLACK
6
CONTINUOUS
10
-1.27776
20
0.0484252
11
-1.27747
21
0.0491212
0
LINE
8
BLACK
6
CONTINUOUS
10
-1.27747
20
0.0491212
11
-1.27677
21
0.0494094
0
LINE
8
BLACK
6
CONTINUOUS
10
-1.27677
20
0.0494094
11
-1.16024
21
0.0494094
0
LINE
8
BLACK
6
CONTINUOUS
10
-1.16024
20
0.0494094
11
-1.15954
21
0.0491212
0
LINE
8
BLACK
6
CONTINUOUS
10
-1.15954
20
0.0491212
11
-1.15925
21
0.0484252
0
LINE
8
BLACK
6
CONTINUOUS
10
-1.15925
20
0.0484252
11
-1.15925
21
-0.00905512
0
LINE
8
BLACK
6
CONTINUOUS
10
-1.15925
20
-0.00905512
11
-1.15954
21
-0.0097511
0
LINE
8
BLACK
6
CONTINUOUS
10
-1.15954
20
-0.0097511
11
-1.16024
21
-0.0100394
0
LINE
8
BLACK
6
CONTINUOUS
10
-1.16024
20
-0.0100394
11
-1.27677
21
-0.0100394
0
LINE
8
BLACK
6
CONTINUOUS
10
-1.27677
20
-0.0100394
11
-1.27747
21
-0.0097511
0
LINE
8
BLACK
6
CONTINUOUS
10
-1.27579
20
0.0474409
11
-1.27579
21
-0.00807087
0
LINE
8
BLACK
6
CONTINUOUS
10
-1.27579
20
-0.00807087
11
-1.16122
21
-0.00807087
0
LINE
8
BLACK
6
CONTINUOUS
10
-1.16122
20
-0.00807087
11
-1.16122
21
0.0474409
0
LINE
8
BLACK
6
CONTINUOUS
10
-1.16122
20
0.0474409
11
-1.27579
21
0.0474409
0
LINE
8
BLACK
6
CONTINUOUS
10
0.8258
20
0.282296
11
0.825512
21
0.282992
0
LINE
8
BLACK
6
CONTINUOUS
10
0.825512
20
0.282992
11
0.825512
21
0.340472
0
LINE
8
BLACK
6
CONTINUOUS
10
0.825512
20
0.340472
11
0.8258
21
0.341168
0
LINE
8
BLACK
6
CONTINUOUS
10
0.8258
20
0.341168
11
0.826496
21
0.341457
0
LINE
8
BLACK
6
CONTINUOUS
10
0.826496
20
0.341457
11
0.943031
21
0.341457
0
LINE
8
BLACK
6
CONTINUOUS
10
0.943031
20
0.341457
11
0.943727
21
0.341168
0
LINE
8
BLACK
6
CONTINUOUS
10
0.943727
20
0.341168
11
0.944016
21
0.340472
0
LINE
8
BLACK
6
CONTINUOUS
10
0.944016
20
0.340472
11
0.944016
21
0.282992
0
LINE
8
BLACK
6
CONTINUOUS
10
0.944016
20
0.282992
11
0.943727
21
0.282296
0
LINE
8
BLACK
6
CONTINUOUS
10
0.943727
20
0.282296
11
0.943031
21
0.282008
0
LINE
8
BLACK
6
CONTINUOUS
10
0.943031
20
0.282008
11
0.826496
21
0.282008
0
LINE
8
BLACK
6
CONTINUOUS
10
0.826496
20
0.282008
11
0.8258
21
0.282296
0
LINE
8
BLACK
6
CONTINUOUS
10
0.82748
20
0.339488
11
0.82748
21
0.283976
0
LINE
8
BLACK
6
CONTINUOUS
10
0.82748
20
0.283976
11
0.942047
21
0.283976
0
LINE
8
BLACK
6
CONTINUOUS
10
0.942047
20
0.283976
11
0.942047
21
0.339488
0
LINE
8
BLACK
6
CONTINUOUS
10
0.942047
20
0.339488
11
0.82748
21
0.339488
0
LINE
8
BLACK
6
CONTINUOUS
10
1.02904
20
0.284721
11
1.02875
21
0.285417
0
LINE
8
BLACK
6
CONTINUOUS
10
1.02875
20
0.285417
11
1.02875
21
0.342898
0
LINE
8
BLACK
6
CONTINUOUS
10
1.02875
20
0.342898
11
1.02904
21
0.343594
0
LINE
8
BLACK
6
CONTINUOUS
10
1.02904
20
0.343594
11
1.02973
21
0.343882
0
LINE
8
BLACK
6
CONTINUOUS
10
1.02973
20
0.343882
11
1.14627
21
0.343882
0
LINE
8
BLACK
6
CONTINUOUS
10
1.14627
20
0.343882
11
1.14696
21
0.343594
0
LINE
8
BLACK
6
CONTINUOUS
10
1.14696
20
0.343594
11
1.14725
21
0.342898
0
LINE
8
BLACK
6
CONTINUOUS
10
1.14725
20
0.342898
11
1.14725
21
0.285417
0
LINE
8
BLACK
6
CONTINUOUS
10
1.14725
20
0.285417
11
1.14696
21
0.284721
0
LINE
8
BLACK
6
CONTINUOUS
10
1.14696
20
0.284721
11
1.14627
21
0.284433
0
LINE
8
BLACK
6
CONTINUOUS
10
1.14627
20
0.284433
11
1.02973
21
0.284433
0
LINE
8
BLACK
6
CONTINUOUS
10
1.02973
20
0.284433
11
1.02904
21
0.284721
0
LINE
8
BLACK
6
CONTINUOUS
10
1.03072
20
0.341913
11
1.03072
21
0.286402
0
LINE
8
BLACK
6
CONTINUOUS
10
1.03072
20
0.286402
11
1.14528
21
0.286402
0
LINE
8
BLACK
6
CONTINUOUS
10
1.14528
20
0.286402
11
1.14528
21
0.341913
0
LINE
8
BLACK
6
CONTINUOUS
10
1.14528
20
0.341913
11
1.03072
21
0.341913
0
LINE
8
BLACK
6
CONTINUOUS
10
0.889036
20
0.359721
11
0.888748
21
0.360417
0
LINE
8
BLACK
6
CONTINUOUS
10
0.888748
20
0.360417
11
0.888748
21
0.417898
0
LINE
8
BLACK
6
CONTINUOUS
10
0.888748
20
0.417898
11
0.889036
21
0.418594
0
LINE
8
BLACK
6
CONTINUOUS
10
0.889036
20
0.418594
11
0.889732
21
0.418882
0
LINE
8
BLACK
6
CONTINUOUS
10
0.889732
20
0.418882
11
1.00627
21
0.418882
0
LINE
8
BLACK
6
CONTINUOUS
10
1.00627
20
0.418882
11
1.00696
21
0.418594
0
LINE
8
BLACK
6
CONTINUOUS
10
1.00696
20
0.418594
11
1.00725
21
0.417898
0
LINE
8
BLACK
6
CONTINUOUS
10
1.00725
20
0.417898
11
1.00725
21
0.360417
0
LINE
8
BLACK
6
CONTINUOUS
10
1.00725
20
0.360417
11
1.00696
21
0.359721
0
LINE
8
BLACK
6
CONTINUOUS
10
1.00696
20
0.359721
11
1.00627
21
0.359433
0
LINE
8
BLACK
6
CONTINUOUS
10
1.00627
20
0.359433
11
0.889732
21
0.359433
0
LINE
8
BLACK
6
CONTINUOUS
10
0.889732
20
0.359433
11
0.889036
21
0.359721
0
LINE
8
BLACK
6
CONTINUOUS
10
0.890717
20
0.416913
11
0.890717
21
0.361402
0
LINE
8
BLACK
6
CONTINUOUS
10
0.890717
20
0.361402
11
1.00528
21
0.361402
0
LINE
8
BLACK
6
CONTINUOUS
10
1.00528
20
0.361402
11
1.00528
21
0.416913
0
LINE
8
BLACK
6
CONTINUOUS
10
1.00528
20
0.416913
11
0.890717
21
0.416913
0
LINE
8
BLACK
6
CONTINUOUS
10
1.02904
20
0.364721
11
1.02875
21
0.365417
0
LINE
8
BLACK
6
CONTINUOUS
10
1.02875
20
0.365417
11
1.02875
21
0.422898
0
LINE
8
BLACK
6
CONTINUOUS
10
1.02875
20
0.422898
11
1.02904
21
0.423594
0
LINE
8
BLACK
6
CONTINUOUS
10
1.02904
20
0.423594
11
1.02973
21
0.423882
0
LINE
8
BLACK
6
CONTINUOUS
10
1.02973
20
0.423882
11
1.14627
21
0.423882
0
LINE
8
BLACK
6
CONTINUOUS
10
1.14627
20
0.423882
11
1.14696
21
0.423594
0
LINE
8
BLACK
6
CONTINUOUS
10
1.14696
20
0.423594
11
1.14725
21
0.422898
0
LINE
8
BLACK
6
CONTINUOUS
10
1.14725
20
0.422898
11
1.14725
21
0.365417
0
LINE
8
BLACK
6
CONTINUOUS
10
1.14725
20
0.365417
11
1.14696
21
0.364721
0
LINE
8
BLACK
6
CONTINUOUS
10
1.14696
20
0.364721
11
1.14627
21
0.364433
0
LINE
8
BLACK
6
CONTINUOUS
10
1.14627
20
0.364433
11
1.02973
21
0.364433
0
LINE
8
BLACK
6
CONTINUOUS
10
1.02973
20
0.364433
11
1.02904
21
0.364721
0
LINE
8
BLACK
6
CONTINUOUS
10
1.03072
20
0.421913
11
1.03072
21
0.366402
0
LINE
8
BLACK
6
CONTINUOUS
10
1.03072
20
0.366402
11
1.14528
21
0.366402
0
LINE
8
BLACK
6
CONTINUOUS
10
1.14528
20
0.366402
11
1.14528
21
0.421913
0
LINE
8
BLACK
6
CONTINUOUS
10
1.14528
20
0.421913
11
1.03072
21
0.421913
0
LINE
8
BLACK
6
CONTINUOUS
10
-1.33444
20
0.828851
11
-1.10608
21
0.722364
0
LINE
8
BLACK
6
CONTINUOUS
10
-1.10608
20
0.722364
11
-1.10557
21
0.721809
0
LINE
8
BLACK
6
CONTINUOUS
10
-1.10557
20
0.721809
11
-1.10557
21
0.721809
0
LINE
8
BLACK
6
CONTINUOUS
10
-1.10557
20
0.721809
11
-1.10561
21
0.721056
0
LINE
8
BLACK
6
CONTINUOUS
10
-1.10561
20
0.721056
11
-1.26267
21
0.384224
0
LINE
8
BLACK
6
CONTINUOUS
10
-1.26267
20
0.384224
11
-1.26323
21
0.383715
0
LINE
8
BLACK
6
CONTINUOUS
10
-1.26323
20
0.383715
11
-1.26323
21
0.383715
0
LINE
8
BLACK
6
CONTINUOUS
10
-1.26323
20
0.383715
11
-1.26398
21
0.383748
0
LINE
8
BLACK
6
CONTINUOUS
10
-1.26398
20
0.383748
11
-1.49234
21
0.490234
0
LINE
8
BLACK
6
CONTINUOUS
10
-1.49234
20
0.490234
11
-1.49285
21
0.49079
0
LINE
8
BLACK
6
CONTINUOUS
10
-1.49285
20
0.49079
11
-1.49282
21
0.491542
0
LINE
8
BLACK
6
CONTINUOUS
10
-1.49282
20
0.491542
11
-1.33575
21
0.828375
0
LINE
8
BLACK
6
CONTINUOUS
10
-1.33575
20
0.828375
11
-1.3352
21
0.828884
0
LINE
8
BLACK
6
CONTINUOUS
10
-1.3352
20
0.828884
11
-1.33444
21
0.828851
0
LINE
8
BLACK
6
CONTINUOUS
10
-1.49062
20
0.491602
11
-1.26404
21
0.385948
0
LINE
8
BLACK
6
CONTINUOUS
10
-1.26404
20
0.385948
11
-1.10781
21
0.720996
0
LINE
8
BLACK
6
CONTINUOUS
10
-1.10781
20
0.720996
11
-1.33438
21
0.826651
0
LINE
8
BLACK
6
CONTINUOUS
10
-1.33438
20
0.826651
11
-1.49062
21
0.491602
0
LINE
8
BLACK
6
CONTINUOUS
10
0.722139
20
0.412139
11
0.72185
21
0.412835
0
LINE
8
BLACK
6
CONTINUOUS
10
0.72185
20
0.412835
11
0.72185
21
0.55063
0
LINE
8
BLACK
6
CONTINUOUS
10
0.72185
20
0.55063
11
0.722139
21
0.551326
0
LINE
8
BLACK
6
CONTINUOUS
10
0.722139
20
0.551326
11
0.722835
21
0.551614
0
LINE
8
BLACK
6
CONTINUOUS
10
0.722835
20
0.551614
11
0.856693
21
0.551614
0
LINE
8
BLACK
6
CONTINUOUS
10
0.856693
20
0.551614
11
0.857389
21
0.551326
0
LINE
8
BLACK
6
CONTINUOUS
10
0.857389
20
0.551326
11
0.857677
21
0.55063
0
LINE
8
BLACK
6
CONTINUOUS
10
0.857677
20
0.55063
11
0.857677
21
0.412835
0
LINE
8
BLACK
6
CONTINUOUS
10
0.857677
20
0.412835
11
0.857389
21
0.412139
0
LINE
8
BLACK
6
CONTINUOUS
10
0.857389
20
0.412139
11
0.856693
21
0.41185
0
LINE
8
BLACK
6
CONTINUOUS
10
0.856693
20
0.41185
11
0.722835
21
0.41185
0
LINE
8
BLACK
6
CONTINUOUS
10
0.722835
20
0.41185
11
0.722139
21
0.412139
0
LINE
8
BLACK
6
CONTINUOUS
10
0.723819
20
0.549646
11
0.723819
21
0.413819
0
LINE
8
BLACK
6
CONTINUOUS
10
0.723819
20
0.413819
11
0.855709
21
0.413819
0
LINE
8
BLACK
6
CONTINUOUS
10
0.855709
20
0.413819
11
0.855709
21
0.549646
0
LINE
8
BLACK
6
CONTINUOUS
10
0.855709
20
0.549646
11
0.723819
21
0.549646
0
LINE
8
BLACK
6
CONTINUOUS
10
0.961595
20
0.441532
11
0.961307
21
0.442228
0
LINE
8
BLACK
6
CONTINUOUS
10
0.961307
20
0.442228
11
0.961307
21
0.576087
0
LINE
8
BLACK
6
CONTINUOUS
10
0.961307
20
0.576087
11
0.961595
21
0.576783
0
LINE
8
BLACK
6
CONTINUOUS
10
0.961595
20
0.576783
11
0.962291
21
0.577071
0
LINE
8
BLACK
6
CONTINUOUS
10
0.962291
20
0.577071
11
1.12371
21
0.577071
0
LINE
8
BLACK
6
CONTINUOUS
10
1.12371
20
0.577071
11
1.1244
21
0.576783
0
LINE
8
BLACK
6
CONTINUOUS
10
1.1244
20
0.576783
11
1.12469
21
0.576087
0
LINE
8
BLACK
6
CONTINUOUS
10
1.12469
20
0.576087
11
1.12469
21
0.442228
0
LINE
8
BLACK
6
CONTINUOUS
10
1.12469
20
0.442228
11
1.1244
21
0.441532
0
LINE
8
BLACK
6
CONTINUOUS
10
1.1244
20
0.441532
11
1.12371
21
0.441244
0
LINE
8
BLACK
6
CONTINUOUS
10
1.12371
20
0.441244
11
0.962291
21
0.441244
0
LINE
8
BLACK
6
CONTINUOUS
10
0.962291
20
0.441244
11
0.961595
21
0.441532
0
LINE
8
BLACK
6
CONTINUOUS
10
0.963276
20
0.575102
11
0.963276
21
0.443213
0
LINE
8
BLACK
6
CONTINUOUS
10
0.963276
20
0.443213
11
1.12272
21
0.443213
0
LINE
8
BLACK
6
CONTINUOUS
10
1.12272
20
0.443213
11
1.12272
21
0.575102
0
LINE
8
BLACK
6
CONTINUOUS
10
1.12272
20
0.575102
11
0.963276
21
0.575102
0
LINE
8
BLACK
6
CONTINUOUS
10
0.878564
20
0.454682
11
0.878276
21
0.455378
0
LINE
8
BLACK
6
CONTINUOUS
10
0.878276
20
0.455378
11
0.878276
21
0.571913
0
LINE
8
BLACK
6
CONTINUOUS
10
0.878276
20
0.571913
11
0.878564
21
0.572609
0
LINE
8
BLACK
6
CONTINUOUS
10
0.878564
20
0.572609
11
0.87926
21
0.572898
0
LINE
8
BLACK
6
CONTINUOUS
10
0.87926
20
0.572898
11
0.93674
21
0.572898
0
LINE
8
BLACK
6
CONTINUOUS
10
0.93674
20
0.572898
11
0.937436
21
0.572609
0
LINE
8
BLACK
6
CONTINUOUS
10
0.937436
20
0.572609
11
0.937724
21
0.571913
0
LINE
8
BLACK
6
CONTINUOUS
10
0.937724
20
0.571913
11
0.937724
21
0.455378
0
LINE
8
BLACK
6
CONTINUOUS
10
0.937724
20
0.455378
11
0.937436
21
0.454682
0
LINE
8
BLACK
6
CONTINUOUS
10
0.937436
20
0.454682
11
0.93674
21
0.454394
0
LINE
8
BLACK
6
CONTINUOUS
10
0.93674
20
0.454394
11
0.87926
21
0.454394
0
LINE
8
BLACK
6
CONTINUOUS
10
0.87926
20
0.454394
11
0.878564
21
0.454682
0
LINE
8
BLACK
6
CONTINUOUS
10
0.880244
20
0.570929
11
0.880244
21
0.456362
0
LINE
8
BLACK
6
CONTINUOUS
10
0.880244
20
0.456362
11
0.935756
21
0.456362
0
LINE
8
BLACK
6
CONTINUOUS
10
0.935756
20
0.456362
11
0.935756
21
0.570929
0
LINE
8
BLACK
6
CONTINUOUS
10
0.935756
20
0.570929
11
0.880244
21
0.570929
0
LINE
8
BLACK
6
CONTINUOUS
10
1.19515
20
0.606714
11
1.26475
21
0.537117
0
LINE
8
BLACK
6
CONTINUOUS
10
1.26475
20
0.537117
11
1.26503
21
0.536421
0
LINE
8
BLACK
6
CONTINUOUS
10
1.26503
20
0.536421
11
1.26475
21
0.535725
0
LINE
8
BLACK
6
CONTINUOUS
10
1.26475
20
0.535725
11
1.26475
21
0.535725
0
LINE
8
BLACK
6
CONTINUOUS
10
1.26475
20
0.535725
11
1.22577
21
0.496751
0
LINE
8
BLACK
6
CONTINUOUS
10
1.22577
20
0.496751
11
1.22508
21
0.496462
0
LINE
8
BLACK
6
CONTINUOUS
10
1.22508
20
0.496462
11
1.22438
21
0.496751
0
LINE
8
BLACK
6
CONTINUOUS
10
1.22438
20
0.496751
11
1.15478
21
0.566348
0
LINE
8
BLACK
6
CONTINUOUS
10
1.15478
20
0.566348
11
1.15449
21
0.567044
0
LINE
8
BLACK
6
CONTINUOUS
10
1.15449
20
0.567044
11
1.15478
21
0.56774
0
LINE
8
BLACK
6
CONTINUOUS
10
1.15478
20
0.56774
11
1.19376
21
0.606714
0
LINE
8
BLACK
6
CONTINUOUS
10
1.19376
20
0.606714
11
1.19376
21
0.606714
0
LINE
8
BLACK
6
CONTINUOUS
10
1.19376
20
0.606714
11
1.19445
21
0.607002
0
LINE
8
BLACK
6
CONTINUOUS
10
1.19445
20
0.607002
11
1.19515
21
0.606714
0
LINE
8
BLACK
6
CONTINUOUS
10
1.15687
20
0.567044
11
1.22508
21
0.498839
0
LINE
8
BLACK
6
CONTINUOUS
10
1.22508
20
0.498839
11
1.26266
21
0.536421
0
LINE
8
BLACK
6
CONTINUOUS
10
1.26266
20
0.536421
11
1.19445
21
0.604626
0
LINE
8
BLACK
6
CONTINUOUS
10
1.19445
20
0.604626
11
1.15687
21
0.567044
0
LINE
8
BLACK
6
CONTINUOUS
10
0.7358
20
0.567296
11
0.735512
21
0.567992
0
LINE
8
BLACK
6
CONTINUOUS
10
0.735512
20
0.567992
11
0.735512
21
0.625472
0
LINE
8
BLACK
6
CONTINUOUS
10
0.735512
20
0.625472
11
0.7358
21
0.626168
0
LINE
8
BLACK
6
CONTINUOUS
10
0.7358
20
0.626168
11
0.736496
21
0.626457
0
LINE
8
BLACK
6
CONTINUOUS
10
0.736496
20
0.626457
11
0.853031
21
0.626457
0
LINE
8
BLACK
6
CONTINUOUS
10
0.853031
20
0.626457
11
0.853727
21
0.626168
0
LINE
8
BLACK
6
CONTINUOUS
10
0.853727
20
0.626168
11
0.854016
21
0.625472
0
LINE
8
BLACK
6
CONTINUOUS
10
0.854016
20
0.625472
11
0.854016
21
0.567992
0
LINE
8
BLACK
6
CONTINUOUS
10
0.854016
20
0.567992
11
0.853727
21
0.567296
0
LINE
8
BLACK
6
CONTINUOUS
10
0.853727
20
0.567296
11
0.853031
21
0.567008
0
LINE
8
BLACK
6
CONTINUOUS
10
0.853031
20
0.567008
11
0.736496
21
0.567008
0
LINE
8
BLACK
6
CONTINUOUS
10
0.736496
20
0.567008
11
0.7358
21
0.567296
0
LINE
8
BLACK
6
CONTINUOUS
10
0.73748
20
0.624488
11
0.73748
21
0.568976
0
LINE
8
BLACK
6
CONTINUOUS
10
0.73748
20
0.568976
11
0.852047
21
0.568976
0
LINE
8
BLACK
6
CONTINUOUS
10
0.852047
20
0.568976
11
0.852047
21
0.624488
0
LINE
8
BLACK
6
CONTINUOUS
10
0.852047
20
0.624488
11
0.73748
21
0.624488
0
LINE
8
BLACK
6
CONTINUOUS
10
1.18634
20
0.703952
11
1.22698
21
0.663307
0
LINE
8
BLACK
6
CONTINUOUS
10
1.22698
20
0.663307
11
1.22727
21
0.662611
0
LINE
8
BLACK
6
CONTINUOUS
10
1.22727
20
0.662611
11
1.22698
21
0.661915
0
LINE
8
BLACK
6
CONTINUOUS
10
1.22698
20
0.661915
11
1.14458
21
0.579512
0
LINE
8
BLACK
6
CONTINUOUS
10
1.14458
20
0.579512
11
1.14388
21
0.579224
0
LINE
8
BLACK
6
CONTINUOUS
10
1.14388
20
0.579224
11
1.14319
21
0.579512
0
LINE
8
BLACK
6
CONTINUOUS
10
1.14319
20
0.579512
11
1.10254
21
0.620157
0
LINE
8
BLACK
6
CONTINUOUS
10
1.10254
20
0.620157
11
1.10226
21
0.620853
0
LINE
8
BLACK
6
CONTINUOUS
10
1.10226
20
0.620853
11
1.10254
21
0.621549
0
LINE
8
BLACK
6
CONTINUOUS
10
1.10254
20
0.621549
11
1.18495
21
0.703952
0
LINE
8
BLACK
6
CONTINUOUS
10
1.18495
20
0.703952
11
1.18564
21
0.70424
0
LINE
8
BLACK
6
CONTINUOUS
10
1.18564
20
0.70424
11
1.18634
21
0.703952
0
LINE
8
BLACK
6
CONTINUOUS
10
1.10463
20
0.620853
11
1.14388
21
0.5816
0
LINE
8
BLACK
6
CONTINUOUS
10
1.14388
20
0.5816
11
1.2249
21
0.662611
0
LINE
8
BLACK
6
CONTINUOUS
10
1.2249
20
0.662611
11
1.18564
21
0.701864
0
LINE
8
BLACK
6
CONTINUOUS
10
1.18564
20
0.701864
11
1.10463
21
0.620853
0
LINE
8
BLACK
6
CONTINUOUS
10
0.896556
20
0.604721
11
0.896268
21
0.605417
0
LINE
8
BLACK
6
CONTINUOUS
10
0.896268
20
0.605417
11
0.896268
21
0.662898
0
LINE
8
BLACK
6
CONTINUOUS
10
0.896268
20
0.662898
11
0.896556
21
0.663594
0
LINE
8
BLACK
6
CONTINUOUS
10
0.896556
20
0.663594
11
0.897252
21
0.663882
0
LINE
8
BLACK
6
CONTINUOUS
10
0.897252
20
0.663882
11
1.01379
21
0.663882
0
LINE
8
BLACK
6
CONTINUOUS
10
1.01379
20
0.663882
11
1.01448
21
0.663594
0
LINE
8
BLACK
6
CONTINUOUS
10
1.01448
20
0.663594
11
1.01477
21
0.662898
0
LINE
8
BLACK
6
CONTINUOUS
10
1.01477
20
0.662898
11
1.01477
21
0.605417
0
LINE
8
BLACK
6
CONTINUOUS
10
1.01477
20
0.605417
11
1.01448
21
0.604721
0
LINE
8
BLACK
6
CONTINUOUS
10
1.01448
20
0.604721
11
1.01379
21
0.604433
0
LINE
8
BLACK
6
CONTINUOUS
10
1.01379
20
0.604433
11
0.897252
21
0.604433
0
LINE
8
BLACK
6
CONTINUOUS
10
0.897252
20
0.604433
11
0.896556
21
0.604721
0
LINE
8
BLACK
6
CONTINUOUS
10
0.898236
20
0.661913
11
0.898236
21
0.606402
0
LINE
8
BLACK
6
CONTINUOUS
10
0.898236
20
0.606402
11
1.0128
21
0.606402
0
LINE
8
BLACK
6
CONTINUOUS
10
1.0128
20
0.606402
11
1.0128
21
0.661913
0
LINE
8
BLACK
6
CONTINUOUS
10
1.0128
20
0.661913
11
0.898236
21
0.661913
0
LINE
8
BLACK
6
CONTINUOUS
10
0.252328
20
0.653399
11
0.252039
21
0.654094
0
LINE
8
BLACK
6
CONTINUOUS
10
0.252039
20
0.654094
11
0.252039
21
0.77063
0
LINE
8
BLACK
6
CONTINUOUS
10
0.252039
20
0.77063
11
0.252328
21
0.771326
0
LINE
8
BLACK
6
CONTINUOUS
10
0.252328
20
0.771326
11
0.253024
21
0.771614
0
LINE
8
BLACK
6
CONTINUOUS
10
0.253024
20
0.771614
11
0.310504
21
0.771614
0
LINE
8
BLACK
6
CONTINUOUS
10
0.310504
20
0.771614
11
0.3112
21
0.771326
0
LINE
8
BLACK
6
CONTINUOUS
10
0.3112
20
0.771326
11
0.311488
21
0.77063
0
LINE
8
BLACK
6
CONTINUOUS
10
0.311488
20
0.77063
11
0.311488
21
0.654094
0
LINE
8
BLACK
6
CONTINUOUS
10
0.311488
20
0.654094
11
0.3112
21
0.653399
0
LINE
8
BLACK
6
CONTINUOUS
10
0.3112
20
0.653399
11
0.310504
21
0.65311
0
LINE
8
BLACK
6
CONTINUOUS
10
0.310504
20
0.65311
11
0.253024
21
0.65311
0
LINE
8
BLACK
6
CONTINUOUS
10
0.253024
20
0.65311
11
0.252328
21
0.653399
0
LINE
8
BLACK
6
CONTINUOUS
10
0.254008
20
0.769646
11
0.254008
21
0.655079
0
LINE
8
BLACK
6
CONTINUOUS
10
0.254008
20
0.655079
11
0.30952
21
0.655079
0
LINE
8
BLACK
6
CONTINUOUS
10
0.30952
20
0.655079
11
0.30952
21
0.769646
0
LINE
8
BLACK
6
CONTINUOUS
10
0.30952
20
0.769646
11
0.254008
21
0.769646
0
LINE
8
BLACK
6
CONTINUOUS
10
0.240334
20
0.654383
11
0.239638
21
0.654094
0
LINE
8
BLACK
6
CONTINUOUS
10
0.239638
20
0.654094
11
0.182157
21
0.654094
0
LINE
8
BLACK
6
CONTINUOUS
10
0.182157
20
0.654094
11
0.181461
21
0.654383
0
LINE
8
BLACK
6
CONTINUOUS
10
0.181461
20
0.654383
11
0.181173
21
0.655079
0
LINE
8
BLACK
6
CONTINUOUS
10
0.181173
20
0.655079
11
0.181173
21
0.771614
0
LINE
8
BLACK
6
CONTINUOUS
10
0.181173
20
0.771614
11
0.181461
21
0.77231
0
LINE
8
BLACK
6
CONTINUOUS
10
0.181461
20
0.77231
11
0.182157
21
0.772598
0
LINE
8
BLACK
6
CONTINUOUS
10
0.182157
20
0.772598
11
0.239638
21
0.772598
0
LINE
8
BLACK
6
CONTINUOUS
10
0.239638
20
0.772598
11
0.240334
21
0.77231
0
LINE
8
BLACK
6
CONTINUOUS
10
0.240334
20
0.77231
11
0.240622
21
0.771614
0
LINE
8
BLACK
6
CONTINUOUS
10
0.240622
20
0.771614
11
0.240622
21
0.655079
0
LINE
8
BLACK
6
CONTINUOUS
10
0.240622
20
0.655079
11
0.240334
21
0.654383
0
LINE
8
BLACK
6
CONTINUOUS
10
0.183142
20
0.77063
11
0.183142
21
0.656063
0
LINE
8
BLACK
6
CONTINUOUS
10
0.183142
20
0.656063
11
0.238653
21
0.656063
0
LINE
8
BLACK
6
CONTINUOUS
10
0.238653
20
0.656063
11
0.238653
21
0.77063
0
LINE
8
BLACK
6
CONTINUOUS
10
0.238653
20
0.77063
11
0.183142
21
0.77063
0
LINE
8
BLACK
6
CONTINUOUS
10
-0.536844
20
0.736409
11
-0.536844
21
0.736409
0
LINE
8
BLACK
6
CONTINUOUS
10
-0.536844
20
0.736409
11
-0.595112
21
0.837331
0
LINE
8
BLACK
6
CONTINUOUS
10
-0.595112
20
0.837331
11
-0.595211
21
0.838078
0
LINE
8
BLACK
6
CONTINUOUS
10
-0.595211
20
0.838078
11
-0.594752
21
0.838676
0
LINE
8
BLACK
6
CONTINUOUS
10
-0.594752
20
0.838676
11
-0.544972
21
0.867416
0
LINE
8
BLACK
6
CONTINUOUS
10
-0.544972
20
0.867416
11
-0.544226
21
0.867514
0
LINE
8
BLACK
6
CONTINUOUS
10
-0.544226
20
0.867514
11
-0.543628
21
0.867056
0
LINE
8
BLACK
6
CONTINUOUS
10
-0.543628
20
0.867056
11
-0.48536
21
0.766133
0
LINE
8
BLACK
6
CONTINUOUS
10
-0.48536
20
0.766133
11
-0.485262
21
0.765386
0
LINE
8
BLACK
6
CONTINUOUS
10
-0.485262
20
0.765386
11
-0.485444
21
0.765149
0
LINE
8
BLACK
6
CONTINUOUS
10
-0.485444
20
0.765149
11
-0.485721
21
0.764789
0
LINE
8
BLACK
6
CONTINUOUS
10
-0.485721
20
0.764789
11
-0.5355
21
0.736048
0
LINE
8
BLACK
6
CONTINUOUS
10
-0.5355
20
0.736048
11
-0.536247
21
0.73595
0
LINE
8
BLACK
6
CONTINUOUS
10
-0.536247
20
0.73595
11
-0.536247
21
0.73595
0
LINE
8
BLACK
6
CONTINUOUS
10
-0.536247
20
0.73595
11
-0.536844
21
0.736409
0
LINE
8
BLACK
6
CONTINUOUS
10
-0.592915
20
0.837463
11
-0.535632
21
0.738245
0
LINE
8
BLACK
6
CONTINUOUS
10
-0.535632
20
0.738245
11
-0.487557
21
0.766001
0
LINE
8
BLACK
6
CONTINUOUS
10
-0.487557
20
0.766001
11
-0.544841
21
0.865219
0
LINE
8
BLACK
6
CONTINUOUS
10
-0.544841
20
0.865219
11
-0.592915
21
0.837463
0
LINE
8
BLACK
6
CONTINUOUS
10
-0.411844
20
0.801409
11
-0.411844
21
0.801409
0
LINE
8
BLACK
6
CONTINUOUS
10
-0.411844
20
0.801409
11
-0.470112
21
0.902331
0
LINE
8
BLACK
6
CONTINUOUS
10
-0.470112
20
0.902331
11
-0.470211
21
0.903078
0
LINE
8
BLACK
6
CONTINUOUS
10
-0.470211
20
0.903078
11
-0.469752
21
0.903676
0
LINE
8
BLACK
6
CONTINUOUS
10
-0.469752
20
0.903676
11
-0.419972
21
0.932416
0
LINE
8
BLACK
6
CONTINUOUS
10
-0.419972
20
0.932416
11
-0.419226
21
0.932514
0
LINE
8
BLACK
6
CONTINUOUS
10
-0.419226
20
0.932514
11
-0.418628
21
0.932056
0
LINE
8
BLACK
6
CONTINUOUS
10
-0.418628
20
0.932056
11
-0.36036
21
0.831133
0
LINE
8
BLACK
6
CONTINUOUS
10
-0.36036
20
0.831133
11
-0.360262
21
0.830386
0
LINE
8
BLACK
6
CONTINUOUS
10
-0.360262
20
0.830386
11
-0.360444
21
0.830149
0
LINE
8
BLACK
6
CONTINUOUS
10
-0.360444
20
0.830149
11
-0.360721
21
0.829789
0
LINE
8
BLACK
6
CONTINUOUS
10
-0.360721
20
0.829789
11
-0.4105
21
0.801048
0
LINE
8
BLACK
6
CONTINUOUS
10
-0.4105
20
0.801048
11
-0.411247
21
0.80095
0
LINE
8
BLACK
6
CONTINUOUS
10
-0.411247
20
0.80095
11
-0.411247
21
0.80095
0
LINE
8
BLACK
6
CONTINUOUS
10
-0.411247
20
0.80095
11
-0.411844
21
0.801409
0
LINE
8
BLACK
6
CONTINUOUS
10
-0.467915
20
0.902463
11
-0.410632
21
0.803245
0
LINE
8
BLACK
6
CONTINUOUS
10
-0.410632
20
0.803245
11
-0.362557
21
0.831001
0
LINE
8
BLACK
6
CONTINUOUS
10
-0.362557
20
0.831001
11
-0.419841
21
0.930219
0
LINE
8
BLACK
6
CONTINUOUS
10
-0.419841
20
0.930219
11
-0.467915
21
0.902463
0
LINE
8
BLACK
6
CONTINUOUS
10
-0.95269
20
1.05182
11
-0.805145
21
0.904278
0
LINE
8
BLACK
6
CONTINUOUS
10
-0.805145
20
0.904278
11
-0.804856
21
0.903582
0
LINE
8
BLACK
6
CONTINUOUS
10
-0.804856
20
0.903582
11
-0.804967
21
0.903316
0
LINE
8
BLACK
6
CONTINUOUS
10
-0.804967
20
0.903316
11
-0.805145
21
0.902886
0
LINE
8
BLACK
6
CONTINUOUS
10
-0.805145
20
0.902886
11
-0.805145
21
0.902886
0
LINE
8
BLACK
6
CONTINUOUS
10
-0.805145
20
0.902886
11
-0.86639
21
0.841641
0
LINE
8
BLACK
6
CONTINUOUS
10
-0.86639
20
0.841641
11
-0.867086
21
0.841352
0
LINE
8
BLACK
6
CONTINUOUS
10
-0.867086
20
0.841352
11
-0.867782
21
0.841641
0
LINE
8
BLACK
6
CONTINUOUS
10
-0.867782
20
0.841641
11
-1.01533
21
0.989187
0
LINE
8
BLACK
6
CONTINUOUS
10
-1.01533
20
0.989187
11
-1.01562
21
0.989883
0
LINE
8
BLACK
6
CONTINUOUS
10
-1.01562
20
0.989883
11
-1.01533
21
0.990579
0
LINE
8
BLACK
6
CONTINUOUS
10
-1.01533
20
0.990579
11
-0.954082
21
1.05182
0
LINE
8
BLACK
6
CONTINUOUS
10
-0.954082
20
1.05182
11
-0.954082
21
1.05182
0
LINE
8
BLACK
6
CONTINUOUS
10
-0.954082
20
1.05182
11
-0.953879
21
1.05191
0
LINE
8
BLACK
6
CONTINUOUS
10
-0.953879
20
1.05191
11
-0.953386
21
1.05211
0
LINE
8
BLACK
6
CONTINUOUS
10
-0.953386
20
1.05211
11
-0.95269
21
1.05182
0
LINE
8
BLACK
6
CONTINUOUS
10
-1.01324
20
0.989883
11
-0.867086
21
0.843729
0
LINE
8
BLACK
6
CONTINUOUS
10
-0.867086
20
0.843729
11
-0.807233
21
0.903582
0
LINE
8
BLACK
6
CONTINUOUS
10
-0.807233
20
0.903582
11
-0.953386
21
1.04974
0
LINE
8
BLACK
6
CONTINUOUS
10
-0.953386
20
1.04974
11
-1.01324
21
0.989883
0
LINE
8
BLACK
6
CONTINUOUS
10
-0.821031
20
1.07348
11
-0.726379
21
0.978831
0
LINE
8
BLACK
6
CONTINUOUS
10
-0.726379
20
0.978831
11
-0.726091
21
0.978135
0
LINE
8
BLACK
6
CONTINUOUS
10
-0.726091
20
0.978135
11
-0.726379
21
0.977439
0
LINE
8
BLACK
6
CONTINUOUS
10
-0.726379
20
0.977439
11
-0.726379
21
0.977439
0
LINE
8
BLACK
6
CONTINUOUS
10
-0.726379
20
0.977439
11
-0.780943
21
0.922875
0
LINE
8
BLACK
6
CONTINUOUS
10
-0.780943
20
0.922875
11
-0.781639
21
0.922587
0
LINE
8
BLACK
6
CONTINUOUS
10
-0.781639
20
0.922587
11
-0.782335
21
0.922875
0
LINE
8
BLACK
6
CONTINUOUS
10
-0.782335
20
0.922875
11
-0.876987
21
1.01753
0
LINE
8
BLACK
6
CONTINUOUS
10
-0.876987
20
1.01753
11
-0.877275
21
1.01822
0
LINE
8
BLACK
6
CONTINUOUS
10
-0.877275
20
1.01822
11
-0.876987
21
1.01892
0
LINE
8
BLACK
6
CONTINUOUS
10
-0.876987
20
1.01892
11
-0.822423
21
1.07348
0
LINE
8
BLACK
6
CONTINUOUS
10
-0.822423
20
1.07348
11
-0.822423
21
1.07348
0
LINE
8
BLACK
6
CONTINUOUS
10
-0.822423
20
1.07348
11
-0.822219
21
1.07357
0
LINE
8
BLACK
6
CONTINUOUS
10
-0.822219
20
1.07357
11
-0.821727
21
1.07377
0
LINE
8
BLACK
6
CONTINUOUS
10
-0.821727
20
1.07377
11
-0.821031
21
1.07348
0
LINE
8
BLACK
6
CONTINUOUS
10
-0.874899
20
1.01822
11
-0.781639
21
0.924963
0
LINE
8
BLACK
6
CONTINUOUS
10
-0.781639
20
0.924963
11
-0.728467
21
0.978135
0
LINE
8
BLACK
6
CONTINUOUS
10
-0.728467
20
0.978135
11
-0.821727
21
1.0714
0
LINE
8
BLACK
6
CONTINUOUS
10
-0.821727
20
1.0714
11
-0.874899
21
1.01822
0
LINE
8
BLACK
6
CONTINUOUS
10
-0.750419
20
1.12395
11
-0.668016
21
1.04155
0
LINE
8
BLACK
6
CONTINUOUS
10
-0.668016
20
1.04155
11
-0.667728
21
1.04085
0
LINE
8
BLACK
6
CONTINUOUS
10
-0.667728
20
1.04085
11
-0.668016
21
1.04016
0
LINE
8
BLACK
6
CONTINUOUS
10
-0.668016
20
1.04016
11
-0.708661
21
0.999512
0
LINE
8
BLACK
6
CONTINUOUS
10
-0.708661
20
0.999512
11
-0.709357
21
0.999224
0
LINE
8
BLACK
6
CONTINUOUS
10
-0.709357
20
0.999224
11
-0.710053
21
0.999512
0
LINE
8
BLACK
6
CONTINUOUS
10
-0.710053
20
0.999512
11
-0.792456
21
1.08192
0
LINE
8
BLACK
6
CONTINUOUS
10
-0.792456
20
1.08192
11
-0.792744
21
1.08261
0
LINE
8
BLACK
6
CONTINUOUS
10
-0.792744
20
1.08261
11
-0.792456
21
1.08331
0
LINE
8
BLACK
6
CONTINUOUS
10
-0.792456
20
1.08331
11
-0.751811
21
1.12395
0
LINE
8
BLACK
6
CONTINUOUS
10
-0.751811
20
1.12395
11
-0.751115
21
1.12424
0
LINE
8
BLACK
6
CONTINUOUS
10
-0.751115
20
1.12424
11
-0.750419
21
1.12395
0
LINE
8
BLACK
6
CONTINUOUS
10
-0.790368
20
1.08261
11
-0.709357
21
1.0016
0
LINE
8
BLACK
6
CONTINUOUS
10
-0.709357
20
1.0016
11
-0.670104
21
1.04085
0
LINE
8
BLACK
6
CONTINUOUS
10
-0.670104
20
1.04085
11
-0.751115
21
1.12186
0
LINE
8
BLACK
6
CONTINUOUS
10
-0.751115
20
1.12186
11
-0.790368
21
1.08261
0
LINE
8
BLACK
6
CONTINUOUS
10
-0.657861
20
1.03033
11
-0.65815
21
1.03102
0
LINE
8
BLACK
6
CONTINUOUS
10
-0.65815
20
1.03102
11
-0.65815
21
1.19244
0
LINE
8
BLACK
6
CONTINUOUS
10
-0.65815
20
1.19244
11
-0.657861
21
1.19314
0
LINE
8
BLACK
6
CONTINUOUS
10
-0.657861
20
1.19314
11
-0.657165
21
1.19343
0
LINE
8
BLACK
6
CONTINUOUS
10
-0.657165
20
1.19343
11
-0.523307
21
1.19343
0
LINE
8
BLACK
6
CONTINUOUS
10
-0.523307
20
1.19343
11
-0.522611
21
1.19314
0
LINE
8
BLACK
6
CONTINUOUS
10
-0.522611
20
1.19314
11
-0.522323
21
1.19244
0
LINE
8
BLACK
6
CONTINUOUS
10
-0.522323
20
1.19244
11
-0.522323
21
1.03102
0
LINE
8
BLACK
6
CONTINUOUS
10
-0.522323
20
1.03102
11
-0.522611
21
1.03033
0
LINE
8
BLACK
6
CONTINUOUS
10
-0.522611
20
1.03033
11
-0.523307
21
1.03004
0
LINE
8
BLACK
6
CONTINUOUS
10
-0.523307
20
1.03004
11
-0.657165
21
1.03004
0
LINE
8
BLACK
6
CONTINUOUS
10
-0.657165
20
1.03004
11
-0.657861
21
1.03033
0
LINE
8
BLACK
6
CONTINUOUS
10
-0.656181
20
1.19146
11
-0.656181
21
1.03201
0
LINE
8
BLACK
6
CONTINUOUS
10
-0.656181
20
1.03201
11
-0.524291
21
1.03201
0
LINE
8
BLACK
6
CONTINUOUS
10
-0.524291
20
1.03201
11
-0.524291
21
1.19146
0
LINE
8
BLACK
6
CONTINUOUS
10
-0.524291
20
1.19146
11
-0.656181
21
1.19146
0
LINE
8
BLACK
6
CONTINUOUS
10
-0.219712
20
1.0673
11
-0.22
21
1.06799
0
LINE
8
BLACK
6
CONTINUOUS
10
-0.22
20
1.06799
11
-0.22
21
1.12547
0
LINE
8
BLACK
6
CONTINUOUS
10
-0.22
20
1.12547
11
-0.219712
21
1.12617
0
LINE
8
BLACK
6
CONTINUOUS
10
-0.219712
20
1.12617
11
-0.219016
21
1.12646
0
LINE
8
BLACK
6
CONTINUOUS
10
-0.219016
20
1.12646
11
-0.10248
21
1.12646
0
LINE
8
BLACK
6
CONTINUOUS
10
-0.10248
20
1.12646
11
-0.101784
21
1.12617
0
LINE
8
BLACK
6
CONTINUOUS
10
-0.101784
20
1.12617
11
-0.101496
21
1.12547
0
LINE
8
BLACK
6
CONTINUOUS
10
-0.101496
20
1.12547
11
-0.101496
21
1.06799
0
LINE
8
BLACK
6
CONTINUOUS
10
-0.101496
20
1.06799
11
-0.101784
21
1.0673
0
LINE
8
BLACK
6
CONTINUOUS
10
-0.101784
20
1.0673
11
-0.10248
21
1.06701
0
LINE
8
BLACK
6
CONTINUOUS
10
-0.10248
20
1.06701
11
-0.219016
21
1.06701
0
LINE
8
BLACK
6
CONTINUOUS
10
-0.219016
20
1.06701
11
-0.219712
21
1.0673
0
LINE
8
BLACK
6
CONTINUOUS
10
-0.218031
20
1.12449
11
-0.218031
21
1.06898
0
LINE
8
BLACK
6
CONTINUOUS
10
-0.218031
20
1.06898
11
-0.103465
21
1.06898
0
LINE
8
BLACK
6
CONTINUOUS
10
-0.103465
20
1.06898
11
-0.103465
21
1.12449
0
LINE
8
BLACK
6
CONTINUOUS
10
-0.103465
20
1.12449
11
-0.218031
21
1.12449
0
LINE
8
BLACK
6
CONTINUOUS
10
-0.0296724
20
1.07777
11
-0.0299606
21
1.07846
0
LINE
8
BLACK
6
CONTINUOUS
10
-0.0299606
20
1.07846
11
-0.0299606
21
1.195
0
LINE
8
BLACK
6
CONTINUOUS
10
-0.0299606
20
1.195
11
-0.0296724
21
1.1957
0
LINE
8
BLACK
6
CONTINUOUS
10
-0.0296724
20
1.1957
11
-0.0289764
21
1.19598
0
LINE
8
BLACK
6
CONTINUOUS
10
-0.0289764
20
1.19598
11
0.0285039
21
1.19598
0
LINE
8
BLACK
6
CONTINUOUS
10
0.0285039
20
1.19598
11
0.0291999
21
1.1957
0
LINE
8
BLACK
6
CONTINUOUS
10
0.0291999
20
1.1957
11
0.0294882
21
1.195
0
LINE
8
BLACK
6
CONTINUOUS
10
0.0294882
20
1.195
11
0.0294882
21
1.07846
0
LINE
8
BLACK
6
CONTINUOUS
10
0.0294882
20
1.07846
11
0.0291999
21
1.07777
0
LINE
8
BLACK
6
CONTINUOUS
10
0.0291999
20
1.07777
11
0.0285039
21
1.07748
0
LINE
8
BLACK
6
CONTINUOUS
10
0.0285039
20
1.07748
11
-0.0289764
21
1.07748
0
LINE
8
BLACK
6
CONTINUOUS
10
-0.0289764
20
1.07748
11
-0.0296724
21
1.07777
0
LINE
8
BLACK
6
CONTINUOUS
10
-0.0279921
20
1.19402
11
-0.0279921
21
1.07945
0
LINE
8
BLACK
6
CONTINUOUS
10
-0.0279921
20
1.07945
11
0.0275197
21
1.07945
0
LINE
8
BLACK
6
CONTINUOUS
10
0.0275197
20
1.07945
11
0.0275197
21
1.19402
0
LINE
8
BLACK
6
CONTINUOUS
10
0.0275197
20
1.19402
11
-0.0279921
21
1.19402
0
LINE
8
BLACK
6
CONTINUOUS
10
-0.0996724
20
1.07777
11
-0.0999606
21
1.07846
0
LINE
8
BLACK
6
CONTINUOUS
10
-0.0999606
20
1.07846
11
-0.0999606
21
1.195
0
LINE
8
BLACK
6
CONTINUOUS
10
-0.0999606
20
1.195
11
-0.0996724
21
1.1957
0
LINE
8
BLACK
6
CONTINUOUS
10
-0.0996724
20
1.1957
11
-0.0989764
21
1.19598
0
LINE
8
BLACK
6
CONTINUOUS
10
-0.0989764
20
1.19598
11
-0.0414961
21
1.19598
0
LINE
8
BLACK
6
CONTINUOUS
10
-0.0414961
20
1.19598
11
-0.0408001
21
1.1957
0
LINE
8
BLACK
6
CONTINUOUS
10
-0.0408001
20
1.1957
11
-0.0405118
21
1.195
0
LINE
8
BLACK
6
CONTINUOUS
10
-0.0405118
20
1.195
11
-0.0405118
21
1.07846
0
LINE
8
BLACK
6
CONTINUOUS
10
-0.0405118
20
1.07846
11
-0.0408001
21
1.07777
0
LINE
8
BLACK
6
CONTINUOUS
10
-0.0408001
20
1.07777
11
-0.0414961
21
1.07748
0
LINE
8
BLACK
6
CONTINUOUS
10
-0.0414961
20
1.07748
11
-0.0989764
21
1.07748
0
LINE
8
BLACK
6
CONTINUOUS
10
-0.0989764
20
1.07748
11
-0.0996724
21
1.07777
0
LINE
8
BLACK
6
CONTINUOUS
10
-0.0979921
20
1.19402
11
-0.0979921
21
1.07945
0
LINE
8
BLACK
6
CONTINUOUS
10
-0.0979921
20
1.07945
11
-0.0424803
21
1.07945
0
LINE
8
BLACK
6
CONTINUOUS
10
-0.0424803
20
1.07945
11
-0.0424803
21
1.19402
0
LINE
8
BLACK
6
CONTINUOUS
10
-0.0424803
20
1.19402
11
-0.0979921
21
1.19402
0
LINE
8
BLACK
6
CONTINUOUS
10
-0.649712
20
1.2123
11
-0.65
21
1.21299
0
LINE
8
BLACK
6
CONTINUOUS
10
-0.65
20
1.21299
11
-0.65
21
1.27047
0
LINE
8
BLACK
6
CONTINUOUS
10
-0.65
20
1.27047
11
-0.649712
21
1.27117
0
LINE
8
BLACK
6
CONTINUOUS
10
-0.649712
20
1.27117
11
-0.649016
21
1.27146
0
LINE
8
BLACK
6
CONTINUOUS
10
-0.649016
20
1.27146
11
-0.53248
21
1.27146
0
LINE
8
BLACK
6
CONTINUOUS
10
-0.53248
20
1.27146
11
-0.531784
21
1.27117
0
LINE
8
BLACK
6
CONTINUOUS
10
-0.531784
20
1.27117
11
-0.531496
21
1.27047
0
LINE
8
BLACK
6
CONTINUOUS
10
-0.531496
20
1.27047
11
-0.531496
21
1.21299
0
LINE
8
BLACK
6
CONTINUOUS
10
-0.531496
20
1.21299
11
-0.531784
21
1.2123
0
LINE
8
BLACK
6
CONTINUOUS
10
-0.531784
20
1.2123
11
-0.53248
21
1.21201
0
LINE
8
BLACK
6
CONTINUOUS
10
-0.53248
20
1.21201
11
-0.649016
21
1.21201
0
LINE
8
BLACK
6
CONTINUOUS
10
-0.649016
20
1.21201
11
-0.649712
21
1.2123
0
LINE
8
BLACK
6
CONTINUOUS
10
-0.648031
20
1.26949
11
-0.648031
21
1.21398
0
LINE
8
BLACK
6
CONTINUOUS
10
-0.648031
20
1.21398
11
-0.533465
21
1.21398
0
LINE
8
BLACK
6
CONTINUOUS
10
-0.533465
20
1.21398
11
-0.533465
21
1.26949
0
LINE
8
BLACK
6
CONTINUOUS
10
-0.533465
20
1.26949
11
-0.648031
21
1.26949
0
LINE
8
BLACK
6
CONTINUOUS
10
-0.344515
20
1.21671
11
-0.344803
21
1.2174
0
LINE
8
BLACK
6
CONTINUOUS
10
-0.344803
20
1.2174
11
-0.344803
21
1.35126
0
LINE
8
BLACK
6
CONTINUOUS
10
-0.344803
20
1.35126
11
-0.344515
21
1.35196
0
LINE
8
BLACK
6
CONTINUOUS
10
-0.344515
20
1.35196
11
-0.343819
21
1.35224
0
LINE
8
BLACK
6
CONTINUOUS
10
-0.343819
20
1.35224
11
-0.266654
21
1.35224
0
LINE
8
BLACK
6
CONTINUOUS
10
-0.266654
20
1.35224
11
-0.265958
21
1.35196
0
LINE
8
BLACK
6
CONTINUOUS
10
-0.265958
20
1.35196
11
-0.265669
21
1.35126
0
LINE
8
BLACK
6
CONTINUOUS
10
-0.265669
20
1.35126
11
-0.265669
21
1.2174
0
LINE
8
BLACK
6
CONTINUOUS
10
-0.265669
20
1.2174
11
-0.265958
21
1.21671
0
LINE
8
BLACK
6
CONTINUOUS
10
-0.265958
20
1.21671
11
-0.266654
21
1.21642
0
LINE
8
BLACK
6
CONTINUOUS
10
-0.266654
20
1.21642
11
-0.343819
21
1.21642
0
LINE
8
BLACK
6
CONTINUOUS
10
-0.343819
20
1.21642
11
-0.344515
21
1.21671
0
LINE
8
BLACK
6
CONTINUOUS
10
-0.342835
20
1.35028
11
-0.342835
21
1.21839
0
LINE
8
BLACK
6
CONTINUOUS
10
-0.342835
20
1.21839
11
-0.267638
21
1.21839
0
LINE
8
BLACK
6
CONTINUOUS
10
-0.267638
20
1.21839
11
-0.267638
21
1.35028
0
LINE
8
BLACK
6
CONTINUOUS
10
-0.267638
20
1.35028
11
-0.342835
21
1.35028
0
LINE
8
BLACK
6
CONTINUOUS
10
-0.234672
20
1.22226
11
-0.234961
21
1.22295
0
LINE
8
BLACK
6
CONTINUOUS
10
-0.234961
20
1.22295
11
-0.234961
21
1.33949
0
LINE
8
BLACK
6
CONTINUOUS
10
-0.234961
20
1.33949
11
-0.234672
21
1.34018
0
LINE
8
BLACK
6
CONTINUOUS
10
-0.234672
20
1.34018
11
-0.233976
21
1.34047
0
LINE
8
BLACK
6
CONTINUOUS
10
-0.233976
20
1.34047
11
-0.176496
21
1.34047
0
LINE
8
BLACK
6
CONTINUOUS
10
-0.176496
20
1.34047
11
-0.1758
21
1.34018
0
LINE
8
BLACK
6
CONTINUOUS
10
-0.1758
20
1.34018
11
-0.175512
21
1.33949
0
LINE
8
BLACK
6
CONTINUOUS
10
-0.175512
20
1.33949
11
-0.175512
21
1.22295
0
LINE
8
BLACK
6
CONTINUOUS
10
-0.175512
20
1.22295
11
-0.1758
21
1.22226
0
LINE
8
BLACK
6
CONTINUOUS
10
-0.1758
20
1.22226
11
-0.176496
21
1.22197
0
LINE
8
BLACK
6
CONTINUOUS
10
-0.176496
20
1.22197
11
-0.233976
21
1.22197
0
LINE
8
BLACK
6
CONTINUOUS
10
-0.233976
20
1.22197
11
-0.234672
21
1.22226
0
LINE
8
BLACK
6
CONTINUOUS
10
-0.232992
20
1.3385
11
-0.232992
21
1.22394
0
LINE
8
BLACK
6
CONTINUOUS
10
-0.232992
20
1.22394
11
-0.17748
21
1.22394
0
LINE
8
BLACK
6
CONTINUOUS
10
-0.17748
20
1.22394
11
-0.17748
21
1.3385
0
LINE
8
BLACK
6
CONTINUOUS
10
-0.17748
20
1.3385
11
-0.232992
21
1.3385
0
LINE
8
BLACK
6
CONTINUOUS
10
-0.4842
20
1.2523
11
-0.484488
21
1.25299
0
LINE
8
BLACK
6
CONTINUOUS
10
-0.484488
20
1.25299
11
-0.484488
21
1.31047
0
LINE
8
BLACK
6
CONTINUOUS
10
-0.484488
20
1.31047
11
-0.4842
21
1.31117
0
LINE
8
BLACK
6
CONTINUOUS
10
-0.4842
20
1.31117
11
-0.483504
21
1.31146
0
LINE
8
BLACK
6
CONTINUOUS
10
-0.483504
20
1.31146
11
-0.366969
21
1.31146
0
LINE
8
BLACK
6
CONTINUOUS
10
-0.366969
20
1.31146
11
-0.366273
21
1.31117
0
LINE
8
BLACK
6
CONTINUOUS
10
-0.366273
20
1.31117
11
-0.365984
21
1.31047
0
LINE
8
BLACK
6
CONTINUOUS
10
-0.365984
20
1.31047
11
-0.365984
21
1.25299
0
LINE
8
BLACK
6
CONTINUOUS
10
-0.365984
20
1.25299
11
-0.366273
21
1.2523
0
LINE
8
BLACK
6
CONTINUOUS
10
-0.366273
20
1.2523
11
-0.366969
21
1.25201
0
LINE
8
BLACK
6
CONTINUOUS
10
-0.366969
20
1.25201
11
-0.483504
21
1.25201
0
LINE
8
BLACK
6
CONTINUOUS
10
-0.483504
20
1.25201
11
-0.4842
21
1.2523
0
LINE
8
BLACK
6
CONTINUOUS
10
-0.48252
20
1.30949
11
-0.48252
21
1.25398
0
LINE
8
BLACK
6
CONTINUOUS
10
-0.48252
20
1.25398
11
-0.367953
21
1.25398
0
LINE
8
BLACK
6
CONTINUOUS
10
-0.367953
20
1.25398
11
-0.367953
21
1.30949
0
LINE
8
BLACK
6
CONTINUOUS
10
-0.367953
20
1.30949
11
-0.48252
21
1.30949
  0
ENDSEC
  0
EOF
