  0
SECTION
  2
HEADER
  9
$ANGBASE
  50
0.0
  9
$ANGDIR
  70
1
  9
$MEASUREMENT
  70
0
  0
ENDSEC
  0
SECTION
  2
TABLES
  0
TABLE
  2
LTYPE
  70
4
  0
LTYPE
  5
40F
  2
CONTINUOUS
  70
0
  3
Solid line
  72
65
  73
0
  40
0.0
  0
LTYPE
  5
410
  2
DASHDOT
 70
0
  3
Dash Dot ____ _ ____ _
 72
65
 73
4
 40
2.0
 49
1.25
 49
-0.25
 49
0.25
 49
-0.25
  0
LTYPE
  5
411
  2
DASHED
 70
0
  3
Dashed __ __ __ __ __
 72
65
 73
2
 40
0.75
 49
0.5
 49
-0.25
  0
LTYPE
  5
43B
  2
DOTTED
 70
0
  3
Dotted .  .  .  .
 72
65
 73
2
 40
0.2
 49
0.0
 49
-0.2
  0
ENDTAB
  0
TABLE
  2
STYLE
  70
4
  0
STYLE
  2
KICAD
  70
0
  40
0
  41
1
  42
1
  50
0
  71
0
  3
isocp.shx
  0
STYLE
  2
KICADB
  70
0
  40
0
  41
1
  42
1
  50
0
  71
0
  3
isocp.shx
  0
STYLE
  2
KICADI
  70
0
  40
0
  41
1
  42
1
  50
15
  71
0
  3
isocp.shx
  0
STYLE
  2
KICADBI
  70
0
  40
0
  41
1
  42
1
  50
15
  71
0
  3
isocp.shx
  0
ENDTAB
  0
TABLE
  2
LAYER
  70
1
  0
LAYER
  2
BLACK
  70
0
  62
7
  6
CONTINUOUS
  0
ENDTAB
  0
ENDSEC
  0
SECTION
  2
ENTITIES
0
LINE
8
BLACK
6
CONTINUOUS
10
0.735731
20
-0.686391
11
0.735866
21
-0.686505
0
LINE
8
BLACK
6
CONTINUOUS
10
0.735866
20
-0.686505
11
0.736041
21
-0.686525
0
LINE
8
BLACK
6
CONTINUOUS
10
0.736041
20
-0.686525
11
0.739791
21
-0.6884
0
LINE
8
BLACK
6
CONTINUOUS
10
0.739791
20
-0.6884
11
0.7405
21
-0.688926
0
LINE
8
BLACK
6
CONTINUOUS
10
0.7405
20
-0.688926
11
0.740558
21
-0.688953
0
LINE
8
BLACK
6
CONTINUOUS
10
0.740558
20
-0.688953
11
0.742433
21
-0.690828
0
LINE
8
BLACK
6
CONTINUOUS
10
0.742433
20
-0.690828
11
0.743021
21
-0.691668
0
LINE
8
BLACK
6
CONTINUOUS
10
0.743021
20
-0.691668
11
0.743197
21
-0.69368
0
LINE
8
BLACK
6
CONTINUOUS
10
0.743197
20
-0.69368
11
0.742039
21
-0.695334
0
LINE
8
BLACK
6
CONTINUOUS
10
0.742039
20
-0.695334
11
0.740088
21
-0.695857
0
LINE
8
BLACK
6
CONTINUOUS
10
0.740088
20
-0.695857
11
0.738257
21
-0.695004
0
LINE
8
BLACK
6
CONTINUOUS
10
0.738257
20
-0.695004
11
0.736721
21
-0.693468
0
LINE
8
BLACK
6
CONTINUOUS
10
0.736721
20
-0.693468
11
0.734024
21
-0.692119
0
LINE
8
BLACK
6
CONTINUOUS
10
0.734024
20
-0.692119
11
0.726044
21
-0.692119
0
LINE
8
BLACK
6
CONTINUOUS
10
0.726044
20
-0.692119
11
0.723346
21
-0.693468
0
LINE
8
BLACK
6
CONTINUOUS
10
0.723346
20
-0.693468
11
0.722149
21
-0.694665
0
LINE
8
BLACK
6
CONTINUOUS
10
0.722149
20
-0.694665
11
0.720801
21
-0.697362
0
LINE
8
BLACK
6
CONTINUOUS
10
0.720801
20
-0.697362
11
0.720801
21
-0.699936
0
LINE
8
BLACK
6
CONTINUOUS
10
0.720801
20
-0.699936
11
0.722303
21
-0.704444
0
LINE
8
BLACK
6
CONTINUOUS
10
0.722303
20
-0.704444
11
0.744308
21
-0.726448
0
LINE
8
BLACK
6
CONTINUOUS
10
0.744308
20
-0.726448
11
0.744677
21
-0.726976
0
LINE
8
BLACK
6
CONTINUOUS
10
0.744677
20
-0.726976
11
0.744777
21
-0.72706
0
LINE
8
BLACK
6
CONTINUOUS
10
0.744777
20
-0.72706
11
0.744791
21
-0.727138
0
LINE
8
BLACK
6
CONTINUOUS
10
0.744791
20
-0.727138
11
0.744896
21
-0.727288
0
LINE
8
BLACK
6
CONTINUOUS
10
0.744896
20
-0.727288
11
0.744973
21
-0.728174
0
LINE
8
BLACK
6
CONTINUOUS
10
0.744973
20
-0.728174
11
0.745128
21
-0.729049
0
LINE
8
BLACK
6
CONTINUOUS
10
0.745128
20
-0.729049
11
0.74506
21
-0.729166
0
LINE
8
BLACK
6
CONTINUOUS
10
0.74506
20
-0.729166
11
0.745072
21
-0.7293
0
LINE
8
BLACK
6
CONTINUOUS
10
0.745072
20
-0.7293
11
0.744562
21
-0.730029
0
LINE
8
BLACK
6
CONTINUOUS
10
0.744562
20
-0.730029
11
0.744118
21
-0.730798
0
LINE
8
BLACK
6
CONTINUOUS
10
0.744118
20
-0.730798
11
0.743991
21
-0.730844
0
LINE
8
BLACK
6
CONTINUOUS
10
0.743991
20
-0.730844
11
0.743913
21
-0.730955
0
LINE
8
BLACK
6
CONTINUOUS
10
0.743913
20
-0.730955
11
0.743055
21
-0.731185
0
LINE
8
BLACK
6
CONTINUOUS
10
0.743055
20
-0.731185
11
0.74222
21
-0.731489
0
LINE
8
BLACK
6
CONTINUOUS
10
0.74222
20
-0.731489
11
0.717848
21
-0.731489
0
LINE
8
BLACK
6
CONTINUOUS
10
0.717848
20
-0.731489
11
0.716838
21
-0.731311
0
LINE
8
BLACK
6
CONTINUOUS
10
0.716838
20
-0.731311
11
0.715291
21
-0.730013
0
LINE
8
BLACK
6
CONTINUOUS
10
0.715291
20
-0.730013
11
0.71494
21
-0.728023
0
LINE
8
BLACK
6
CONTINUOUS
10
0.71494
20
-0.728023
11
0.71595
21
-0.726274
0
LINE
8
BLACK
6
CONTINUOUS
10
0.71595
20
-0.726274
11
0.717848
21
-0.725583
0
LINE
8
BLACK
6
CONTINUOUS
10
0.717848
20
-0.725583
11
0.735091
21
-0.725583
0
LINE
8
BLACK
6
CONTINUOUS
10
0.735091
20
-0.725583
11
0.717635
21
-0.708127
0
LINE
8
BLACK
6
CONTINUOUS
10
0.717635
20
-0.708127
11
0.717046
21
-0.707287
0
LINE
8
BLACK
6
CONTINUOUS
10
0.717046
20
-0.707287
11
0.717031
21
-0.707111
0
LINE
8
BLACK
6
CONTINUOUS
10
0.717031
20
-0.707111
11
0.716921
21
-0.706973
0
LINE
8
BLACK
6
CONTINUOUS
10
0.716921
20
-0.706973
11
0.715047
21
-0.701348
0
LINE
8
BLACK
6
CONTINUOUS
10
0.715047
20
-0.701348
11
0.714917
21
-0.700475
0
LINE
8
BLACK
6
CONTINUOUS
10
0.714917
20
-0.700475
11
0.714895
21
-0.700415
0
LINE
8
BLACK
6
CONTINUOUS
10
0.714895
20
-0.700415
11
0.714895
21
-0.696665
0
LINE
8
BLACK
6
CONTINUOUS
10
0.714895
20
-0.696665
11
0.715073
21
-0.695655
0
LINE
8
BLACK
6
CONTINUOUS
10
0.715073
20
-0.695655
11
0.715187
21
-0.69552
0
LINE
8
BLACK
6
CONTINUOUS
10
0.715187
20
-0.69552
11
0.715207
21
-0.695345
0
LINE
8
BLACK
6
CONTINUOUS
10
0.715207
20
-0.695345
11
0.717081
21
-0.691595
0
LINE
8
BLACK
6
CONTINUOUS
10
0.717081
20
-0.691595
11
0.717607
21
-0.690886
0
LINE
8
BLACK
6
CONTINUOUS
10
0.717607
20
-0.690886
11
0.717635
21
-0.690828
0
LINE
8
BLACK
6
CONTINUOUS
10
0.717635
20
-0.690828
11
0.719509
21
-0.688953
0
LINE
8
BLACK
6
CONTINUOUS
10
0.719509
20
-0.688953
11
0.720232
21
-0.688447
0
LINE
8
BLACK
6
CONTINUOUS
10
0.720232
20
-0.688447
11
0.720277
21
-0.6884
0
LINE
8
BLACK
6
CONTINUOUS
10
0.720277
20
-0.6884
11
0.724026
21
-0.686525
0
LINE
8
BLACK
6
CONTINUOUS
10
0.724026
20
-0.686525
11
0.725009
21
-0.686233
0
LINE
8
BLACK
6
CONTINUOUS
10
0.725009
20
-0.686233
11
0.725181
21
-0.686274
0
LINE
8
BLACK
6
CONTINUOUS
10
0.725181
20
-0.686274
11
0.725347
21
-0.686213
0
LINE
8
BLACK
6
CONTINUOUS
10
0.725347
20
-0.686213
11
0.734721
21
-0.686213
0
LINE
8
BLACK
6
CONTINUOUS
10
0.734721
20
-0.686213
11
0.735731
21
-0.686391
0
LINE
8
BLACK
6
CONTINUOUS
10
0.75948
20
-0.687268
11
0.760171
21
-0.689166
0
LINE
8
BLACK
6
CONTINUOUS
10
0.760171
20
-0.689166
11
0.760171
21
-0.716808
0
LINE
8
BLACK
6
CONTINUOUS
10
0.760171
20
-0.716808
11
0.761673
21
-0.721317
0
LINE
8
BLACK
6
CONTINUOUS
10
0.761673
20
-0.721317
11
0.764437
21
-0.724081
0
LINE
8
BLACK
6
CONTINUOUS
10
0.764437
20
-0.724081
11
0.768946
21
-0.725583
0
LINE
8
BLACK
6
CONTINUOUS
10
0.768946
20
-0.725583
11
0.772216
21
-0.725583
0
LINE
8
BLACK
6
CONTINUOUS
10
0.772216
20
-0.725583
11
0.773226
21
-0.725761
0
LINE
8
BLACK
6
CONTINUOUS
10
0.773226
20
-0.725761
11
0.774773
21
-0.72706
0
LINE
8
BLACK
6
CONTINUOUS
10
0.774773
20
-0.72706
11
0.775124
21
-0.729049
0
LINE
8
BLACK
6
CONTINUOUS
10
0.775124
20
-0.729049
11
0.774114
21
-0.730798
0
LINE
8
BLACK
6
CONTINUOUS
10
0.774114
20
-0.730798
11
0.772216
21
-0.731489
0
LINE
8
BLACK
6
CONTINUOUS
10
0.772216
20
-0.731489
11
0.768466
21
-0.731489
0
LINE
8
BLACK
6
CONTINUOUS
10
0.768466
20
-0.731489
11
0.767597
21
-0.731336
0
LINE
8
BLACK
6
CONTINUOUS
10
0.767597
20
-0.731336
11
0.767533
21
-0.731337
0
LINE
8
BLACK
6
CONTINUOUS
10
0.767533
20
-0.731337
11
0.761908
21
-0.729463
0
LINE
8
BLACK
6
CONTINUOUS
10
0.761908
20
-0.729463
11
0.761007
21
-0.728974
0
LINE
8
BLACK
6
CONTINUOUS
10
0.761007
20
-0.728974
11
0.760914
21
-0.728824
0
LINE
8
BLACK
6
CONTINUOUS
10
0.760914
20
-0.728824
11
0.760754
21
-0.728749
0
LINE
8
BLACK
6
CONTINUOUS
10
0.760754
20
-0.728749
11
0.757005
21
-0.725
0
LINE
8
BLACK
6
CONTINUOUS
10
0.757005
20
-0.725
11
0.756416
21
-0.72416
0
LINE
8
BLACK
6
CONTINUOUS
10
0.756416
20
-0.72416
11
0.756401
21
-0.723984
0
LINE
8
BLACK
6
CONTINUOUS
10
0.756401
20
-0.723984
11
0.756291
21
-0.723846
0
LINE
8
BLACK
6
CONTINUOUS
10
0.756291
20
-0.723846
11
0.754417
21
-0.718221
0
LINE
8
BLACK
6
CONTINUOUS
10
0.754417
20
-0.718221
11
0.754287
21
-0.717348
0
LINE
8
BLACK
6
CONTINUOUS
10
0.754287
20
-0.717348
11
0.754265
21
-0.717288
0
LINE
8
BLACK
6
CONTINUOUS
10
0.754265
20
-0.717288
11
0.754265
21
-0.689166
0
LINE
8
BLACK
6
CONTINUOUS
10
0.754265
20
-0.689166
11
0.754443
21
-0.688156
0
LINE
8
BLACK
6
CONTINUOUS
10
0.754443
20
-0.688156
11
0.755741
21
-0.686609
0
LINE
8
BLACK
6
CONTINUOUS
10
0.755741
20
-0.686609
11
0.757731
21
-0.686258
0
LINE
8
BLACK
6
CONTINUOUS
10
0.757731
20
-0.686258
11
0.75948
21
-0.687268
0
LINE
8
BLACK
6
CONTINUOUS
10
0.729756
20
0.892397
11
0.729926
21
0.892408
0
LINE
8
BLACK
6
CONTINUOUS
10
0.729926
20
0.892408
11
0.730616
21
0.891901
0
LINE
8
BLACK
6
CONTINUOUS
10
0.730616
20
0.891901
11
0.731358
21
0.891472
0
LINE
8
BLACK
6
CONTINUOUS
10
0.731358
20
0.891472
11
0.731416
21
0.891313
0
LINE
8
BLACK
6
CONTINUOUS
10
0.731416
20
0.891313
11
0.731553
21
0.891212
0
LINE
8
BLACK
6
CONTINUOUS
10
0.731553
20
0.891212
11
0.735141
21
0.885831
0
LINE
8
BLACK
6
CONTINUOUS
10
0.735141
20
0.885831
11
0.738344
21
0.882627
0
LINE
8
BLACK
6
CONTINUOUS
10
0.738344
20
0.882627
11
0.741665
21
0.880966
0
LINE
8
BLACK
6
CONTINUOUS
10
0.741665
20
0.880966
11
0.742489
21
0.880356
0
LINE
8
BLACK
6
CONTINUOUS
10
0.742489
20
0.880356
11
0.743292
21
0.878502
0
LINE
8
BLACK
6
CONTINUOUS
10
0.743292
20
0.878502
11
0.742716
21
0.876566
0
LINE
8
BLACK
6
CONTINUOUS
10
0.742716
20
0.876566
11
0.741031
21
0.875454
0
LINE
8
BLACK
6
CONTINUOUS
10
0.741031
20
0.875454
11
0.739024
21
0.875684
0
LINE
8
BLACK
6
CONTINUOUS
10
0.739024
20
0.875684
11
0.735275
21
0.877559
0
LINE
8
BLACK
6
CONTINUOUS
10
0.735275
20
0.877559
11
0.734566
21
0.878085
0
LINE
8
BLACK
6
CONTINUOUS
10
0.734566
20
0.878085
11
0.734507
21
0.878112
0
LINE
8
BLACK
6
CONTINUOUS
10
0.734507
20
0.878112
11
0.732049
21
0.880571
0
LINE
8
BLACK
6
CONTINUOUS
10
0.732049
20
0.880571
11
0.732049
21
0.853157
0
LINE
8
BLACK
6
CONTINUOUS
10
0.732049
20
0.853157
11
0.740345
21
0.853157
0
LINE
8
BLACK
6
CONTINUOUS
10
0.740345
20
0.853157
11
0.741355
21
0.852979
0
LINE
8
BLACK
6
CONTINUOUS
10
0.741355
20
0.852979
11
0.742902
21
0.85168
0
LINE
8
BLACK
6
CONTINUOUS
10
0.742902
20
0.85168
11
0.743253
21
0.849691
0
LINE
8
BLACK
6
CONTINUOUS
10
0.743253
20
0.849691
11
0.742243
21
0.847942
0
LINE
8
BLACK
6
CONTINUOUS
10
0.742243
20
0.847942
11
0.740345
21
0.847251
0
LINE
8
BLACK
6
CONTINUOUS
10
0.740345
20
0.847251
11
0.717848
21
0.847251
0
LINE
8
BLACK
6
CONTINUOUS
10
0.717848
20
0.847251
11
0.716838
21
0.847429
0
LINE
8
BLACK
6
CONTINUOUS
10
0.716838
20
0.847429
11
0.715291
21
0.848728
0
LINE
8
BLACK
6
CONTINUOUS
10
0.715291
20
0.848728
11
0.71494
21
0.850717
0
LINE
8
BLACK
6
CONTINUOUS
10
0.71494
20
0.850717
11
0.71595
21
0.852466
0
LINE
8
BLACK
6
CONTINUOUS
10
0.71595
20
0.852466
11
0.717848
21
0.853157
0
LINE
8
BLACK
6
CONTINUOUS
10
0.717848
20
0.853157
11
0.726144
21
0.853157
0
LINE
8
BLACK
6
CONTINUOUS
10
0.726144
20
0.853157
11
0.726144
21
0.889574
0
LINE
8
BLACK
6
CONTINUOUS
10
0.726144
20
0.889574
11
0.726322
21
0.890584
0
LINE
8
BLACK
6
CONTINUOUS
10
0.726322
20
0.890584
11
0.726431
21
0.890714
0
LINE
8
BLACK
6
CONTINUOUS
10
0.726431
20
0.890714
11
0.726449
21
0.890883
0
LINE
8
BLACK
6
CONTINUOUS
10
0.726449
20
0.890883
11
0.727069
21
0.891475
0
LINE
8
BLACK
6
CONTINUOUS
10
0.727069
20
0.891475
11
0.72762
21
0.892131
0
LINE
8
BLACK
6
CONTINUOUS
10
0.72762
20
0.892131
11
0.727787
21
0.892161
0
LINE
8
BLACK
6
CONTINUOUS
10
0.727787
20
0.892161
11
0.72791
21
0.892278
0
LINE
8
BLACK
6
CONTINUOUS
10
0.72791
20
0.892278
11
0.728765
21
0.892333
0
LINE
8
BLACK
6
CONTINUOUS
10
0.728765
20
0.892333
11
0.729609
21
0.892482
0
LINE
8
BLACK
6
CONTINUOUS
10
0.729609
20
0.892482
11
0.729756
21
0.892397
0
LINE
8
BLACK
6
CONTINUOUS
10
0.75948
20
0.891472
11
0.760171
21
0.889574
0
LINE
8
BLACK
6
CONTINUOUS
10
0.760171
20
0.889574
11
0.760171
21
0.861932
0
LINE
8
BLACK
6
CONTINUOUS
10
0.760171
20
0.861932
11
0.761673
21
0.857423
0
LINE
8
BLACK
6
CONTINUOUS
10
0.761673
20
0.857423
11
0.764437
21
0.85466
0
LINE
8
BLACK
6
CONTINUOUS
10
0.764437
20
0.85466
11
0.768946
21
0.853157
0
LINE
8
BLACK
6
CONTINUOUS
10
0.768946
20
0.853157
11
0.772216
21
0.853157
0
LINE
8
BLACK
6
CONTINUOUS
10
0.772216
20
0.853157
11
0.773226
21
0.852979
0
LINE
8
BLACK
6
CONTINUOUS
10
0.773226
20
0.852979
11
0.774773
21
0.85168
0
LINE
8
BLACK
6
CONTINUOUS
10
0.774773
20
0.85168
11
0.775124
21
0.849691
0
LINE
8
BLACK
6
CONTINUOUS
10
0.775124
20
0.849691
11
0.774114
21
0.847942
0
LINE
8
BLACK
6
CONTINUOUS
10
0.774114
20
0.847942
11
0.772216
21
0.847251
0
LINE
8
BLACK
6
CONTINUOUS
10
0.772216
20
0.847251
11
0.768466
21
0.847251
0
LINE
8
BLACK
6
CONTINUOUS
10
0.768466
20
0.847251
11
0.767597
21
0.847405
0
LINE
8
BLACK
6
CONTINUOUS
10
0.767597
20
0.847405
11
0.767533
21
0.847403
0
LINE
8
BLACK
6
CONTINUOUS
10
0.767533
20
0.847403
11
0.761908
21
0.849278
0
LINE
8
BLACK
6
CONTINUOUS
10
0.761908
20
0.849278
11
0.761007
21
0.849766
0
LINE
8
BLACK
6
CONTINUOUS
10
0.761007
20
0.849766
11
0.760914
21
0.849916
0
LINE
8
BLACK
6
CONTINUOUS
10
0.760914
20
0.849916
11
0.760754
21
0.849991
0
LINE
8
BLACK
6
CONTINUOUS
10
0.760754
20
0.849991
11
0.757005
21
0.85374
0
LINE
8
BLACK
6
CONTINUOUS
10
0.757005
20
0.85374
11
0.756416
21
0.85458
0
LINE
8
BLACK
6
CONTINUOUS
10
0.756416
20
0.85458
11
0.756401
21
0.854756
0
LINE
8
BLACK
6
CONTINUOUS
10
0.756401
20
0.854756
11
0.756291
21
0.854895
0
LINE
8
BLACK
6
CONTINUOUS
10
0.756291
20
0.854895
11
0.754417
21
0.860519
0
LINE
8
BLACK
6
CONTINUOUS
10
0.754417
20
0.860519
11
0.754287
21
0.861392
0
LINE
8
BLACK
6
CONTINUOUS
10
0.754287
20
0.861392
11
0.754265
21
0.861453
0
LINE
8
BLACK
6
CONTINUOUS
10
0.754265
20
0.861453
11
0.754265
21
0.889574
0
LINE
8
BLACK
6
CONTINUOUS
10
0.754265
20
0.889574
11
0.754443
21
0.890584
0
LINE
8
BLACK
6
CONTINUOUS
10
0.754443
20
0.890584
11
0.755741
21
0.892131
0
LINE
8
BLACK
6
CONTINUOUS
10
0.755741
20
0.892131
11
0.757731
21
0.892482
0
LINE
8
BLACK
6
CONTINUOUS
10
0.757731
20
0.892482
11
0.75948
21
0.891472
  0
ENDSEC
  0
EOF
