  0
SECTION
  2
HEADER
  9
$ANGBASE
  50
0.0
  9
$ANGDIR
  70
1
  9
$MEASUREMENT
  70
0
  0
ENDSEC
  0
SECTION
  2
TABLES
  0
TABLE
  2
LTYPE
  70
4
  0
LTYPE
  5
40F
  2
CONTINUOUS
  70
0
  3
Solid line
  72
65
  73
0
  40
0.0
  0
LTYPE
  5
410
  2
DASHDOT
 70
0
  3
Dash Dot ____ _ ____ _
 72
65
 73
4
 40
2.0
 49
1.25
 49
-0.25
 49
0.25
 49
-0.25
  0
LTYPE
  5
411
  2
DASHED
 70
0
  3
Dashed __ __ __ __ __
 72
65
 73
2
 40
0.75
 49
0.5
 49
-0.25
  0
LTYPE
  5
43B
  2
DOTTED
 70
0
  3
Dotted .  .  .  .
 72
65
 73
2
 40
0.2
 49
0.0
 49
-0.2
  0
ENDTAB
  0
TABLE
  2
STYLE
  70
4
  0
STYLE
  2
KICAD
  70
0
  40
0
  41
1
  42
1
  50
0
  71
0
  3
isocp.shx
  0
STYLE
  2
KICADB
  70
0
  40
0
  41
1
  42
1
  50
0
  71
0
  3
isocp.shx
  0
STYLE
  2
KICADI
  70
0
  40
0
  41
1
  42
1
  50
15
  71
0
  3
isocp.shx
  0
STYLE
  2
KICADBI
  70
0
  40
0
  41
1
  42
1
  50
15
  71
0
  3
isocp.shx
  0
ENDTAB
  0
TABLE
  2
LAYER
  70
1
  0
LAYER
  2
BLACK
  70
0
  62
7
  6
CONTINUOUS
  0
ENDTAB
  0
ENDSEC
  0
SECTION
  2
ENTITIES
0
LINE
8
BLACK
6
CONTINUOUS
10
0.0772812
20
1.57276
11
0.0823661
21
1.57263
0
LINE
8
BLACK
6
CONTINUOUS
10
0.0823661
20
1.57263
11
0.0824676
21
1.57262
0
LINE
8
BLACK
6
CONTINUOUS
10
0.0824676
20
1.57262
11
0.14804
21
1.56746
0
LINE
8
BLACK
6
CONTINUOUS
10
0.14804
20
1.56746
11
0.164558
21
1.56616
0
LINE
8
BLACK
6
CONTINUOUS
10
0.164558
20
1.56616
11
0.16466
21
1.56615
0
LINE
8
BLACK
6
CONTINUOUS
10
0.16466
20
1.56615
11
0.178629
21
1.56431
0
LINE
8
BLACK
6
CONTINUOUS
10
0.178629
20
1.56431
11
0.246302
21
1.5554
0
LINE
8
BLACK
6
CONTINUOUS
10
0.246302
20
1.5554
11
0.2464
21
1.55538
0
LINE
8
BLACK
6
CONTINUOUS
10
0.2464
20
1.55538
11
0.327366
21
1.54038
0
LINE
8
BLACK
6
CONTINUOUS
10
0.327366
20
1.54038
11
0.327465
21
1.54036
0
LINE
8
BLACK
6
CONTINUOUS
10
0.327465
20
1.54036
11
0.407536
21
1.52113
0
LINE
8
BLACK
6
CONTINUOUS
10
0.407536
20
1.52113
11
0.407634
21
1.52111
0
LINE
8
BLACK
6
CONTINUOUS
10
0.407634
20
1.52111
11
0.486589
21
1.49772
0
LINE
8
BLACK
6
CONTINUOUS
10
0.486589
20
1.49772
11
0.486683
21
1.49769
0
LINE
8
BLACK
6
CONTINUOUS
10
0.486683
20
1.49769
11
0.564304
21
1.4702
0
LINE
8
BLACK
6
CONTINUOUS
10
0.564304
20
1.4702
11
0.564397
21
1.47017
0
LINE
8
BLACK
6
CONTINUOUS
10
0.564397
20
1.47017
11
0.640478
21
1.43865
0
LINE
8
BLACK
6
CONTINUOUS
10
0.640478
20
1.43865
11
0.640569
21
1.43861
0
LINE
8
BLACK
6
CONTINUOUS
10
0.640569
20
1.43861
11
0.685277
21
1.41729
0
LINE
8
BLACK
6
CONTINUOUS
10
0.685277
20
1.41729
11
0.71489
21
1.40317
0
LINE
8
BLACK
6
CONTINUOUS
10
0.71489
20
1.40317
11
0.71498
21
1.40312
0
LINE
8
BLACK
6
CONTINUOUS
10
0.71498
20
1.40312
11
0.787347
21
1.36383
0
LINE
8
BLACK
6
CONTINUOUS
10
0.787347
20
1.36383
11
0.787434
21
1.36378
0
LINE
8
BLACK
6
CONTINUOUS
10
0.787434
20
1.36378
11
0.857647
21
1.32075
0
LINE
8
BLACK
6
CONTINUOUS
10
0.857647
20
1.32075
11
0.857731
21
1.3207
0
LINE
8
BLACK
6
CONTINUOUS
10
0.857731
20
1.3207
11
0.885999
21
1.30127
0
LINE
8
BLACK
6
CONTINUOUS
10
0.885999
20
1.30127
11
0.925592
21
1.27406
0
LINE
8
BLACK
6
CONTINUOUS
10
0.925592
20
1.27406
11
0.925674
21
1.274
0
LINE
8
BLACK
6
CONTINUOUS
10
0.925674
20
1.274
11
0.943002
21
1.2607
0
LINE
8
BLACK
6
CONTINUOUS
10
0.943002
20
1.2607
11
0.991002
21
1.22387
0
LINE
8
BLACK
6
CONTINUOUS
10
0.991002
20
1.22387
11
0.991081
21
1.2238
0
LINE
8
BLACK
6
CONTINUOUS
10
0.991081
20
1.2238
11
1.0537
21
1.17032
0
LINE
8
BLACK
6
CONTINUOUS
10
1.0537
20
1.17032
11
1.05377
21
1.17026
0
LINE
8
BLACK
6
CONTINUOUS
10
1.05377
20
1.17026
11
1.09416
21
1.13193
0
LINE
8
BLACK
6
CONTINUOUS
10
1.09416
20
1.13193
11
1.1135
21
1.11358
0
LINE
8
BLACK
6
CONTINUOUS
10
1.1135
20
1.11358
11
1.11358
21
1.1135
0
LINE
8
BLACK
6
CONTINUOUS
10
1.11358
20
1.1135
11
1.16629
21
1.05795
0
LINE
8
BLACK
6
CONTINUOUS
10
1.16629
20
1.05795
11
1.17026
21
1.05377
0
LINE
8
BLACK
6
CONTINUOUS
10
1.17026
20
1.05377
11
1.17032
21
1.0537
0
LINE
8
BLACK
6
CONTINUOUS
10
1.17032
20
1.0537
11
1.22049
21
0.994958
0
LINE
8
BLACK
6
CONTINUOUS
10
1.22049
20
0.994958
11
1.2238
21
0.991082
0
LINE
8
BLACK
6
CONTINUOUS
10
1.2238
20
0.991082
11
1.22387
21
0.991003
0
LINE
8
BLACK
6
CONTINUOUS
10
1.22387
20
0.991003
11
1.274
21
0.925674
0
LINE
8
BLACK
6
CONTINUOUS
10
1.274
20
0.925674
11
1.27406
21
0.925592
0
LINE
8
BLACK
6
CONTINUOUS
10
1.27406
20
0.925592
11
1.30293
21
0.883584
0
LINE
8
BLACK
6
CONTINUOUS
10
1.30293
20
0.883584
11
1.32069
21
0.857732
0
LINE
8
BLACK
6
CONTINUOUS
10
1.32069
20
0.857732
11
1.32069
21
0.857732
0
LINE
8
BLACK
6
CONTINUOUS
10
1.32069
20
0.857732
11
1.32075
21
0.857647
0
LINE
8
BLACK
6
CONTINUOUS
10
1.32075
20
0.857647
11
1.33729
21
0.83066
0
LINE
8
BLACK
6
CONTINUOUS
10
1.33729
20
0.83066
11
1.36378
21
0.787435
0
LINE
8
BLACK
6
CONTINUOUS
10
1.36378
20
0.787435
11
1.36383
21
0.787347
0
LINE
8
BLACK
6
CONTINUOUS
10
1.36383
20
0.787347
11
1.40312
21
0.714981
0
LINE
8
BLACK
6
CONTINUOUS
10
1.40312
20
0.714981
11
1.40317
21
0.71489
0
LINE
8
BLACK
6
CONTINUOUS
10
1.40317
20
0.71489
11
1.43861
21
0.640569
0
LINE
8
BLACK
6
CONTINUOUS
10
1.43861
20
0.640569
11
1.43865
21
0.640477
0
LINE
8
BLACK
6
CONTINUOUS
10
1.43865
20
0.640477
11
1.47017
21
0.564399
0
LINE
8
BLACK
6
CONTINUOUS
10
1.47017
20
0.564399
11
1.4702
21
0.564304
0
LINE
8
BLACK
6
CONTINUOUS
10
1.4702
20
0.564304
11
1.49769
21
0.486684
0
LINE
8
BLACK
6
CONTINUOUS
10
1.49769
20
0.486684
11
1.49772
21
0.486587
0
LINE
8
BLACK
6
CONTINUOUS
10
1.49772
20
0.486587
11
1.52111
21
0.407634
0
LINE
8
BLACK
6
CONTINUOUS
10
1.52111
20
0.407634
11
1.52113
21
0.407535
0
LINE
8
BLACK
6
CONTINUOUS
10
1.52113
20
0.407535
11
1.54036
21
0.327466
0
LINE
8
BLACK
6
CONTINUOUS
10
1.54036
20
0.327466
11
1.54038
21
0.327366
0
LINE
8
BLACK
6
CONTINUOUS
10
1.54038
20
0.327366
11
1.54952
21
0.278065
0
LINE
8
BLACK
6
CONTINUOUS
10
1.54952
20
0.278065
11
1.55419
21
0.25283
0
LINE
8
BLACK
6
CONTINUOUS
10
1.55419
20
0.25283
11
1.55538
21
0.246401
0
LINE
8
BLACK
6
CONTINUOUS
10
1.55538
20
0.246401
11
1.5554
21
0.246301
0
LINE
8
BLACK
6
CONTINUOUS
10
1.5554
20
0.246301
11
1.56615
21
0.16466
0
LINE
8
BLACK
6
CONTINUOUS
10
1.56615
20
0.16466
11
1.56616
21
0.164559
0
LINE
8
BLACK
6
CONTINUOUS
10
1.56616
20
0.164559
11
1.57262
21
0.0824681
0
LINE
8
BLACK
6
CONTINUOUS
10
1.57262
20
0.0824681
11
1.57263
21
0.0823662
0
LINE
8
BLACK
6
CONTINUOUS
10
1.57263
20
0.0823662
11
1.57478
21
5.1063e-05
0
LINE
8
BLACK
6
CONTINUOUS
10
1.57478
20
5.1063e-05
11
1.57478
21
-5.09449e-05
0
LINE
8
BLACK
6
CONTINUOUS
10
1.57478
20
-5.09449e-05
11
1.57263
21
-0.0823665
0
LINE
8
BLACK
6
CONTINUOUS
10
1.57263
20
-0.0823665
11
1.57262
21
-0.0824684
0
LINE
8
BLACK
6
CONTINUOUS
10
1.57262
20
-0.0824684
11
1.56616
21
-0.164559
0
LINE
8
BLACK
6
CONTINUOUS
10
1.56616
20
-0.164559
11
1.56615
21
-0.16466
0
LINE
8
BLACK
6
CONTINUOUS
10
1.56615
20
-0.16466
11
1.5554
21
-0.2463
0
LINE
8
BLACK
6
CONTINUOUS
10
1.5554
20
-0.2463
11
1.55538
21
-0.246401
0
LINE
8
BLACK
6
CONTINUOUS
10
1.55538
20
-0.246401
11
1.54038
21
-0.327367
0
LINE
8
BLACK
6
CONTINUOUS
10
1.54038
20
-0.327367
11
1.54036
21
-0.327467
0
LINE
8
BLACK
6
CONTINUOUS
10
1.54036
20
-0.327467
11
1.52113
21
-0.407536
0
LINE
8
BLACK
6
CONTINUOUS
10
1.52113
20
-0.407536
11
1.52111
21
-0.407634
0
LINE
8
BLACK
6
CONTINUOUS
10
1.52111
20
-0.407634
11
1.49772
21
-0.486587
0
LINE
8
BLACK
6
CONTINUOUS
10
1.49772
20
-0.486587
11
1.49769
21
-0.486684
0
LINE
8
BLACK
6
CONTINUOUS
10
1.49769
20
-0.486684
11
1.4702
21
-0.564304
0
LINE
8
BLACK
6
CONTINUOUS
10
1.4702
20
-0.564304
11
1.47017
21
-0.564399
0
LINE
8
BLACK
6
CONTINUOUS
10
1.47017
20
-0.564399
11
1.43866
21
-0.640476
0
LINE
8
BLACK
6
CONTINUOUS
10
1.43866
20
-0.640476
11
1.43861
21
-0.640569
0
LINE
8
BLACK
6
CONTINUOUS
10
1.43861
20
-0.640569
11
1.40317
21
-0.71489
0
LINE
8
BLACK
6
CONTINUOUS
10
1.40317
20
-0.71489
11
1.40312
21
-0.714981
0
LINE
8
BLACK
6
CONTINUOUS
10
1.40312
20
-0.714981
11
1.36383
21
-0.787347
0
LINE
8
BLACK
6
CONTINUOUS
10
1.36383
20
-0.787347
11
1.36378
21
-0.787435
0
LINE
8
BLACK
6
CONTINUOUS
10
1.36378
20
-0.787435
11
1.32075
21
-0.857647
0
LINE
8
BLACK
6
CONTINUOUS
10
1.32075
20
-0.857647
11
1.32069
21
-0.857732
0
LINE
8
BLACK
6
CONTINUOUS
10
1.32069
20
-0.857732
11
1.27406
21
-0.925592
0
LINE
8
BLACK
6
CONTINUOUS
10
1.27406
20
-0.925592
11
1.274
21
-0.925675
0
LINE
8
BLACK
6
CONTINUOUS
10
1.274
20
-0.925675
11
1.22387
21
-0.991003
0
LINE
8
BLACK
6
CONTINUOUS
10
1.22387
20
-0.991003
11
1.2238
21
-0.991082
0
LINE
8
BLACK
6
CONTINUOUS
10
1.2238
20
-0.991082
11
1.18654
21
-1.03471
0
LINE
8
BLACK
6
CONTINUOUS
10
1.18654
20
-1.03471
11
1.17033
21
-1.0537
0
LINE
8
BLACK
6
CONTINUOUS
10
1.17033
20
-1.0537
11
1.17033
21
-1.0537
0
LINE
8
BLACK
6
CONTINUOUS
10
1.17033
20
-1.0537
11
1.17026
21
-1.05377
0
LINE
8
BLACK
6
CONTINUOUS
10
1.17026
20
-1.05377
11
1.11358
21
-1.1135
0
LINE
8
BLACK
6
CONTINUOUS
10
1.11358
20
-1.1135
11
1.1135
21
-1.11358
0
LINE
8
BLACK
6
CONTINUOUS
10
1.1135
20
-1.11358
11
1.05377
21
-1.17026
0
LINE
8
BLACK
6
CONTINUOUS
10
1.05377
20
-1.17026
11
1.0537
21
-1.17033
0
LINE
8
BLACK
6
CONTINUOUS
10
1.0537
20
-1.17033
11
1.04756
21
-1.17557
0
LINE
8
BLACK
6
CONTINUOUS
10
1.04756
20
-1.17557
11
0.991082
21
-1.2238
0
LINE
8
BLACK
6
CONTINUOUS
10
0.991082
20
-1.2238
11
0.991002
21
-1.22387
0
LINE
8
BLACK
6
CONTINUOUS
10
0.991002
20
-1.22387
11
0.925674
21
-1.274
0
LINE
8
BLACK
6
CONTINUOUS
10
0.925674
20
-1.274
11
0.925592
21
-1.27406
0
LINE
8
BLACK
6
CONTINUOUS
10
0.925592
20
-1.27406
11
0.857732
21
-1.3207
0
LINE
8
BLACK
6
CONTINUOUS
10
0.857732
20
-1.3207
11
0.857646
21
-1.32075
0
LINE
8
BLACK
6
CONTINUOUS
10
0.857646
20
-1.32075
11
0.787434
21
-1.36378
0
LINE
8
BLACK
6
CONTINUOUS
10
0.787434
20
-1.36378
11
0.787346
21
-1.36383
0
LINE
8
BLACK
6
CONTINUOUS
10
0.787346
20
-1.36383
11
0.714981
21
-1.40312
0
LINE
8
BLACK
6
CONTINUOUS
10
0.714981
20
-1.40312
11
0.71489
21
-1.40317
0
LINE
8
BLACK
6
CONTINUOUS
10
0.71489
20
-1.40317
11
0.64057
21
-1.43861
0
LINE
8
BLACK
6
CONTINUOUS
10
0.64057
20
-1.43861
11
0.640477
21
-1.43866
0
LINE
8
BLACK
6
CONTINUOUS
10
0.640477
20
-1.43866
11
0.564397
21
-1.47017
0
LINE
8
BLACK
6
CONTINUOUS
10
0.564397
20
-1.47017
11
0.564302
21
-1.4702
0
LINE
8
BLACK
6
CONTINUOUS
10
0.564302
20
-1.4702
11
0.503511
21
-1.49173
0
LINE
8
BLACK
6
CONTINUOUS
10
0.503511
20
-1.49173
11
0.486683
21
-1.49769
0
LINE
8
BLACK
6
CONTINUOUS
10
0.486683
20
-1.49769
11
0.486587
21
-1.49772
0
LINE
8
BLACK
6
CONTINUOUS
10
0.486587
20
-1.49772
11
0.407634
21
-1.52111
0
LINE
8
BLACK
6
CONTINUOUS
10
0.407634
20
-1.52111
11
0.407535
21
-1.52113
0
LINE
8
BLACK
6
CONTINUOUS
10
0.407535
20
-1.52113
11
0.327466
21
-1.54036
0
LINE
8
BLACK
6
CONTINUOUS
10
0.327466
20
-1.54036
11
0.327366
21
-1.54038
0
LINE
8
BLACK
6
CONTINUOUS
10
0.327366
20
-1.54038
11
0.246401
21
-1.55538
0
LINE
8
BLACK
6
CONTINUOUS
10
0.246401
20
-1.55538
11
0.2463
21
-1.5554
0
LINE
8
BLACK
6
CONTINUOUS
10
0.2463
20
-1.5554
11
0.16466
21
-1.56615
0
LINE
8
BLACK
6
CONTINUOUS
10
0.16466
20
-1.56615
11
0.164558
21
-1.56616
0
LINE
8
BLACK
6
CONTINUOUS
10
0.164558
20
-1.56616
11
0.082468
21
-1.57262
0
LINE
8
BLACK
6
CONTINUOUS
10
0.082468
20
-1.57262
11
0.0823661
21
-1.57263
0
LINE
8
BLACK
6
CONTINUOUS
10
0.0823661
20
-1.57263
11
5.09843e-05
21
-1.57478
0
LINE
8
BLACK
6
CONTINUOUS
10
5.09843e-05
20
-1.57478
11
-5.10236e-05
21
-1.57478
0
LINE
8
BLACK
6
CONTINUOUS
10
-5.10236e-05
20
-1.57478
11
-0.0823665
21
-1.57263
0
LINE
8
BLACK
6
CONTINUOUS
10
-0.0823665
20
-1.57263
11
-0.0824683
21
-1.57262
0
LINE
8
BLACK
6
CONTINUOUS
10
-0.0824683
20
-1.57262
11
-0.164559
21
-1.56616
0
LINE
8
BLACK
6
CONTINUOUS
10
-0.164559
20
-1.56616
11
-0.16466
21
-1.56615
0
LINE
8
BLACK
6
CONTINUOUS
10
-0.16466
20
-1.56615
11
-0.2463
21
-1.5554
0
LINE
8
BLACK
6
CONTINUOUS
10
-0.2463
20
-1.5554
11
-0.246401
21
-1.55538
0
LINE
8
BLACK
6
CONTINUOUS
10
-0.246401
20
-1.55538
11
-0.327367
21
-1.54038
0
LINE
8
BLACK
6
CONTINUOUS
10
-0.327367
20
-1.54038
11
-0.327467
21
-1.54036
0
LINE
8
BLACK
6
CONTINUOUS
10
-0.327467
20
-1.54036
11
-0.407536
21
-1.52113
0
LINE
8
BLACK
6
CONTINUOUS
10
-0.407536
20
-1.52113
11
-0.407634
21
-1.52111
0
LINE
8
BLACK
6
CONTINUOUS
10
-0.407634
20
-1.52111
11
-0.411368
21
-1.52
0
LINE
8
BLACK
6
CONTINUOUS
10
-0.411368
20
-1.52
11
-0.486588
21
-1.49772
0
LINE
8
BLACK
6
CONTINUOUS
10
-0.486588
20
-1.49772
11
-0.486684
21
-1.49769
0
LINE
8
BLACK
6
CONTINUOUS
10
-0.486684
20
-1.49769
11
-0.564304
21
-1.4702
0
LINE
8
BLACK
6
CONTINUOUS
10
-0.564304
20
-1.4702
11
-0.564398
21
-1.47017
0
LINE
8
BLACK
6
CONTINUOUS
10
-0.564398
20
-1.47017
11
-0.640476
21
-1.43865
0
LINE
8
BLACK
6
CONTINUOUS
10
-0.640476
20
-1.43865
11
-0.640569
21
-1.43861
0
LINE
8
BLACK
6
CONTINUOUS
10
-0.640569
20
-1.43861
11
-0.714891
21
-1.40317
0
LINE
8
BLACK
6
CONTINUOUS
10
-0.714891
20
-1.40317
11
-0.714981
21
-1.40312
0
LINE
8
BLACK
6
CONTINUOUS
10
-0.714981
20
-1.40312
11
-0.787347
21
-1.36383
0
LINE
8
BLACK
6
CONTINUOUS
10
-0.787347
20
-1.36383
11
-0.787435
21
-1.36378
0
LINE
8
BLACK
6
CONTINUOUS
10
-0.787435
20
-1.36378
11
-0.826906
21
-1.33959
0
LINE
8
BLACK
6
CONTINUOUS
10
-0.826906
20
-1.33959
11
-0.857647
21
-1.32075
0
LINE
8
BLACK
6
CONTINUOUS
10
-0.857647
20
-1.32075
11
-0.857732
21
-1.32069
0
LINE
8
BLACK
6
CONTINUOUS
10
-0.857732
20
-1.32069
11
-0.876412
21
-1.30786
0
LINE
8
BLACK
6
CONTINUOUS
10
-0.876412
20
-1.30786
11
-0.925592
21
-1.27406
0
LINE
8
BLACK
6
CONTINUOUS
10
-0.925592
20
-1.27406
11
-0.925675
21
-1.274
0
LINE
8
BLACK
6
CONTINUOUS
10
-0.925675
20
-1.274
11
-0.925675
21
-1.274
0
LINE
8
BLACK
6
CONTINUOUS
10
-0.925675
20
-1.274
11
-0.943324
21
-1.26045
0
LINE
8
BLACK
6
CONTINUOUS
10
-0.943324
20
-1.26045
11
-0.991003
21
-1.22387
0
LINE
8
BLACK
6
CONTINUOUS
10
-0.991003
20
-1.22387
11
-0.991082
21
-1.2238
0
LINE
8
BLACK
6
CONTINUOUS
10
-0.991082
20
-1.2238
11
-1.0537
21
-1.17032
0
LINE
8
BLACK
6
CONTINUOUS
10
-1.0537
20
-1.17032
11
-1.05377
21
-1.17026
0
LINE
8
BLACK
6
CONTINUOUS
10
-1.05377
20
-1.17026
11
-1.05563
21
-1.16849
0
LINE
8
BLACK
6
CONTINUOUS
10
-1.05563
20
-1.16849
11
-1.1135
21
-1.11358
0
LINE
8
BLACK
6
CONTINUOUS
10
-1.1135
20
-1.11358
11
-1.11358
21
-1.1135
0
LINE
8
BLACK
6
CONTINUOUS
10
-1.11358
20
-1.1135
11
-1.11668
21
-1.11023
0
LINE
8
BLACK
6
CONTINUOUS
10
-1.11668
20
-1.11023
11
-1.17026
21
-1.05377
0
LINE
8
BLACK
6
CONTINUOUS
10
-1.17026
20
-1.05377
11
-1.17033
21
-1.0537
0
LINE
8
BLACK
6
CONTINUOUS
10
-1.17033
20
-1.0537
11
-1.18564
21
-1.03576
0
LINE
8
BLACK
6
CONTINUOUS
10
-1.18564
20
-1.03576
11
-1.2238
21
-0.991081
0
LINE
8
BLACK
6
CONTINUOUS
10
-1.2238
20
-0.991081
11
-1.22387
21
-0.991002
0
LINE
8
BLACK
6
CONTINUOUS
10
-1.22387
20
-0.991002
11
-1.25422
21
-0.951448
0
LINE
8
BLACK
6
CONTINUOUS
10
-1.25422
20
-0.951448
11
-1.274
21
-0.925674
0
LINE
8
BLACK
6
CONTINUOUS
10
-1.274
20
-0.925674
11
-1.27406
21
-0.925592
0
LINE
8
BLACK
6
CONTINUOUS
10
-1.27406
20
-0.925592
11
-1.28973
21
-0.902786
0
LINE
8
BLACK
6
CONTINUOUS
10
-1.28973
20
-0.902786
11
-1.3207
21
-0.857731
0
LINE
8
BLACK
6
CONTINUOUS
10
-1.3207
20
-0.857731
11
-1.32075
21
-0.857647
0
LINE
8
BLACK
6
CONTINUOUS
10
-1.32075
20
-0.857647
11
-1.36378
21
-0.787434
0
LINE
8
BLACK
6
CONTINUOUS
10
-1.36378
20
-0.787434
11
-1.36383
21
-0.787347
0
LINE
8
BLACK
6
CONTINUOUS
10
-1.36383
20
-0.787347
11
-1.40312
21
-0.71498
0
LINE
8
BLACK
6
CONTINUOUS
10
-1.40312
20
-0.71498
11
-1.40317
21
-0.71489
0
LINE
8
BLACK
6
CONTINUOUS
10
-1.40317
20
-0.71489
11
-1.4186
21
-0.682525
0
LINE
8
BLACK
6
CONTINUOUS
10
-1.4186
20
-0.682525
11
-1.43861
21
-0.640569
0
LINE
8
BLACK
6
CONTINUOUS
10
-1.43861
20
-0.640569
11
-1.43865
21
-0.640478
0
LINE
8
BLACK
6
CONTINUOUS
10
-1.43865
20
-0.640478
11
-1.47017
21
-0.564397
0
LINE
8
BLACK
6
CONTINUOUS
10
-1.47017
20
-0.564397
11
-1.4702
21
-0.564304
0
LINE
8
BLACK
6
CONTINUOUS
10
-1.4702
20
-0.564304
11
-1.49769
21
-0.486683
0
LINE
8
BLACK
6
CONTINUOUS
10
-1.49769
20
-0.486683
11
-1.49772
21
-0.486589
0
LINE
8
BLACK
6
CONTINUOUS
10
-1.49772
20
-0.486589
11
-1.52111
21
-0.407634
0
LINE
8
BLACK
6
CONTINUOUS
10
-1.52111
20
-0.407634
11
-1.52113
21
-0.407535
0
LINE
8
BLACK
6
CONTINUOUS
10
-1.52113
20
-0.407535
11
-1.54036
21
-0.327466
0
LINE
8
BLACK
6
CONTINUOUS
10
-1.54036
20
-0.327466
11
-1.54038
21
-0.327366
0
LINE
8
BLACK
6
CONTINUOUS
10
-1.54038
20
-0.327366
11
-1.54158
21
-0.320886
0
LINE
8
BLACK
6
CONTINUOUS
10
-1.54158
20
-0.320886
11
-1.55538
21
-0.2464
0
LINE
8
BLACK
6
CONTINUOUS
10
-1.55538
20
-0.2464
11
-1.5554
21
-0.246302
0
LINE
8
BLACK
6
CONTINUOUS
10
-1.5554
20
-0.246302
11
-1.56615
21
-0.16466
0
LINE
8
BLACK
6
CONTINUOUS
10
-1.56615
20
-0.16466
11
-1.56616
21
-0.164558
0
LINE
8
BLACK
6
CONTINUOUS
10
-1.56616
20
-0.164558
11
-1.57048
21
-0.109736
0
LINE
8
BLACK
6
CONTINUOUS
10
-1.57048
20
-0.109736
11
-1.57262
21
-0.082467
0
LINE
8
BLACK
6
CONTINUOUS
10
-1.57262
20
-0.082467
11
-1.57263
21
-0.0823657
0
LINE
8
BLACK
6
CONTINUOUS
10
-1.57263
20
-0.0823657
11
-1.57304
21
-0.0667077
0
LINE
8
BLACK
6
CONTINUOUS
10
-1.57304
20
-0.0667077
11
-1.57478
21
-4.95669e-05
0
LINE
8
BLACK
6
CONTINUOUS
10
-1.57478
20
-4.95669e-05
11
-1.57478
21
3.93701e-08
0
LINE
8
BLACK
6
CONTINUOUS
10
-1.57478
20
3.93701e-08
11
-1.57478
21
4.9685e-05
0
LINE
8
BLACK
6
CONTINUOUS
10
-1.57478
20
4.9685e-05
11
-1.57263
21
0.0823663
0
LINE
8
BLACK
6
CONTINUOUS
10
-1.57263
20
0.0823663
11
-1.57262
21
0.0824683
0
LINE
8
BLACK
6
CONTINUOUS
10
-1.57262
20
0.0824683
11
-1.57215
21
0.088502
0
LINE
8
BLACK
6
CONTINUOUS
10
-1.57215
20
0.088502
11
-1.56616
21
0.164559
0
LINE
8
BLACK
6
CONTINUOUS
10
-1.56616
20
0.164559
11
-1.56615
21
0.16466
0
LINE
8
BLACK
6
CONTINUOUS
10
-1.56615
20
0.16466
11
-1.56298
21
0.188727
0
LINE
8
BLACK
6
CONTINUOUS
10
-1.56298
20
0.188727
11
-1.5554
21
0.246302
0
LINE
8
BLACK
6
CONTINUOUS
10
-1.5554
20
0.246302
11
-1.55539
21
0.2464
0
LINE
8
BLACK
6
CONTINUOUS
10
-1.55539
20
0.2464
11
-1.54038
21
0.327367
0
LINE
8
BLACK
6
CONTINUOUS
10
-1.54038
20
0.327367
11
-1.54036
21
0.327465
0
LINE
8
BLACK
6
CONTINUOUS
10
-1.54036
20
0.327465
11
-1.52113
21
0.407537
0
LINE
8
BLACK
6
CONTINUOUS
10
-1.52113
20
0.407537
11
-1.52111
21
0.407634
0
LINE
8
BLACK
6
CONTINUOUS
10
-1.52111
20
0.407634
11
-1.49772
21
0.48659
0
LINE
8
BLACK
6
CONTINUOUS
10
-1.49772
20
0.48659
11
-1.49769
21
0.486683
0
LINE
8
BLACK
6
CONTINUOUS
10
-1.49769
20
0.486683
11
-1.4702
21
0.564305
0
LINE
8
BLACK
6
CONTINUOUS
10
-1.4702
20
0.564305
11
-1.47017
21
0.564396
0
LINE
8
BLACK
6
CONTINUOUS
10
-1.47017
20
0.564396
11
-1.43865
21
0.640479
0
LINE
8
BLACK
6
CONTINUOUS
10
-1.43865
20
0.640479
11
-1.43861
21
0.640568
0
LINE
8
BLACK
6
CONTINUOUS
10
-1.43861
20
0.640568
11
-1.40317
21
0.714891
0
LINE
8
BLACK
6
CONTINUOUS
10
-1.40317
20
0.714891
11
-1.40312
21
0.71498
0
LINE
8
BLACK
6
CONTINUOUS
10
-1.40312
20
0.71498
11
-1.36383
21
0.787348
0
LINE
8
BLACK
6
CONTINUOUS
10
-1.36383
20
0.787348
11
-1.36378
21
0.787434
0
LINE
8
BLACK
6
CONTINUOUS
10
-1.36378
20
0.787434
11
-1.32075
21
0.857648
0
LINE
8
BLACK
6
CONTINUOUS
10
-1.32075
20
0.857648
11
-1.3207
21
0.857731
0
LINE
8
BLACK
6
CONTINUOUS
10
-1.3207
20
0.857731
11
-1.27406
21
0.925593
0
LINE
8
BLACK
6
CONTINUOUS
10
-1.27406
20
0.925593
11
-1.274
21
0.925674
0
LINE
8
BLACK
6
CONTINUOUS
10
-1.274
20
0.925674
11
-1.22387
21
0.991003
0
LINE
8
BLACK
6
CONTINUOUS
10
-1.22387
20
0.991003
11
-1.2238
21
0.991081
0
LINE
8
BLACK
6
CONTINUOUS
10
-1.2238
20
0.991081
11
-1.18564
21
1.03576
0
LINE
8
BLACK
6
CONTINUOUS
10
-1.18564
20
1.03576
11
-1.17032
21
1.0537
0
LINE
8
BLACK
6
CONTINUOUS
10
-1.17032
20
1.0537
11
-1.17026
21
1.05377
0
LINE
8
BLACK
6
CONTINUOUS
10
-1.17026
20
1.05377
11
-1.11358
21
1.11351
0
LINE
8
BLACK
6
CONTINUOUS
10
-1.11358
20
1.11351
11
-1.1135
21
1.11358
0
LINE
8
BLACK
6
CONTINUOUS
10
-1.1135
20
1.11358
11
-1.05377
21
1.17026
0
LINE
8
BLACK
6
CONTINUOUS
10
-1.05377
20
1.17026
11
-1.0537
21
1.17032
0
LINE
8
BLACK
6
CONTINUOUS
10
-1.0537
20
1.17032
11
-0.99108
21
1.2238
0
LINE
8
BLACK
6
CONTINUOUS
10
-0.99108
20
1.2238
11
-0.991004
21
1.22387
0
LINE
8
BLACK
6
CONTINUOUS
10
-0.991004
20
1.22387
11
-0.925674
21
1.274
0
LINE
8
BLACK
6
CONTINUOUS
10
-0.925674
20
1.274
11
-0.925594
21
1.27406
0
LINE
8
BLACK
6
CONTINUOUS
10
-0.925594
20
1.27406
11
-0.857731
21
1.3207
0
LINE
8
BLACK
6
CONTINUOUS
10
-0.857731
20
1.3207
11
-0.857649
21
1.32075
0
LINE
8
BLACK
6
CONTINUOUS
10
-0.857649
20
1.32075
11
-0.787434
21
1.36378
0
LINE
8
BLACK
6
CONTINUOUS
10
-0.787434
20
1.36378
11
-0.787348
21
1.36383
0
LINE
8
BLACK
6
CONTINUOUS
10
-0.787348
20
1.36383
11
-0.714979
21
1.40312
0
LINE
8
BLACK
6
CONTINUOUS
10
-0.714979
20
1.40312
11
-0.714891
21
1.40317
0
LINE
8
BLACK
6
CONTINUOUS
10
-0.714891
20
1.40317
11
-0.640569
21
1.43861
0
LINE
8
BLACK
6
CONTINUOUS
10
-0.640569
20
1.43861
11
-0.640479
21
1.43865
0
LINE
8
BLACK
6
CONTINUOUS
10
-0.640479
20
1.43865
11
-0.564396
21
1.47017
0
LINE
8
BLACK
6
CONTINUOUS
10
-0.564396
20
1.47017
11
-0.564305
21
1.4702
0
LINE
8
BLACK
6
CONTINUOUS
10
-0.564305
20
1.4702
11
-0.486682
21
1.49769
0
LINE
8
BLACK
6
CONTINUOUS
10
-0.486682
20
1.49769
11
-0.486589
21
1.49772
0
LINE
8
BLACK
6
CONTINUOUS
10
-0.486589
20
1.49772
11
-0.407633
21
1.52111
0
LINE
8
BLACK
6
CONTINUOUS
10
-0.407633
20
1.52111
11
-0.407536
21
1.52113
0
LINE
8
BLACK
6
CONTINUOUS
10
-0.407536
20
1.52113
11
-0.327465
21
1.54036
0
LINE
8
BLACK
6
CONTINUOUS
10
-0.327465
20
1.54036
11
-0.327367
21
1.54038
0
LINE
8
BLACK
6
CONTINUOUS
10
-0.327367
20
1.54038
11
-0.2464
21
1.55539
0
LINE
8
BLACK
6
CONTINUOUS
10
-0.2464
20
1.55539
11
-0.246302
21
1.5554
0
LINE
8
BLACK
6
CONTINUOUS
10
-0.246302
20
1.5554
11
-0.168759
21
1.56561
0
LINE
8
BLACK
6
CONTINUOUS
10
-0.168759
20
1.56561
11
-0.16466
21
1.56615
0
LINE
8
BLACK
6
CONTINUOUS
10
-0.16466
20
1.56615
11
-0.164559
21
1.56616
0
LINE
8
BLACK
6
CONTINUOUS
10
-0.164559
20
1.56616
11
-0.164122
21
1.5662
0
LINE
8
BLACK
6
CONTINUOUS
10
-0.164122
20
1.5662
11
-0.0824675
21
1.57262
0
LINE
8
BLACK
6
CONTINUOUS
10
-0.0824675
20
1.57262
11
-0.0823662
21
1.57263
0
LINE
8
BLACK
6
CONTINUOUS
10
-0.0823662
20
1.57263
11
-0.0798715
21
1.57269
0
LINE
8
BLACK
6
CONTINUOUS
10
-0.0798715
20
1.57269
11
-4.9685e-05
21
1.57478
0
LINE
8
BLACK
6
CONTINUOUS
10
-4.9685e-05
20
1.57478
11
4.96063e-05
21
1.57478
0
LINE
8
BLACK
6
CONTINUOUS
10
4.96063e-05
20
1.57478
11
0.0772812
21
1.57276
0
LINE
8
BLACK
6
CONTINUOUS
10
-0.732274
20
-0.710884
11
-0.731476
21
-0.711054
0
LINE
8
BLACK
6
CONTINUOUS
10
-0.731476
20
-0.711054
11
-0.716687
21
-0.71586
0
LINE
8
BLACK
6
CONTINUOUS
10
-0.716687
20
-0.71586
11
-0.715942
21
-0.716191
0
LINE
8
BLACK
6
CONTINUOUS
10
-0.715942
20
-0.716191
11
-0.702408
21
-0.724005
0
LINE
8
BLACK
6
CONTINUOUS
10
-0.702408
20
-0.724005
11
-0.701865
21
-0.724383
0
LINE
8
BLACK
6
CONTINUOUS
10
-0.701865
20
-0.724383
11
-0.696066
21
-0.729206
0
LINE
8
BLACK
6
CONTINUOUS
10
-0.696066
20
-0.729206
11
-0.689539
21
-0.734633
0
LINE
8
BLACK
6
CONTINUOUS
10
-0.689539
20
-0.734633
11
-0.689444
21
-0.734717
0
LINE
8
BLACK
6
CONTINUOUS
10
-0.689444
20
-0.734717
11
-0.684929
21
-0.739002
0
LINE
8
BLACK
6
CONTINUOUS
10
-0.684929
20
-0.739002
11
-0.663358
21
-0.758425
0
LINE
8
BLACK
6
CONTINUOUS
10
-0.663358
20
-0.758425
11
-0.657898
21
-0.763088
0
LINE
8
BLACK
6
CONTINUOUS
10
-0.657898
20
-0.763088
11
-0.64964
21
-0.770141
0
LINE
8
BLACK
6
CONTINUOUS
10
-0.64964
20
-0.770141
11
-0.611841
21
-0.800752
0
LINE
8
BLACK
6
CONTINUOUS
10
-0.611841
20
-0.800752
11
-0.61184
21
-0.800753
0
LINE
8
BLACK
6
CONTINUOUS
10
-0.61184
20
-0.800753
11
-0.57249
21
-0.829343
0
LINE
8
BLACK
6
CONTINUOUS
10
-0.57249
20
-0.829343
11
-0.57249
21
-0.829342
0
LINE
8
BLACK
6
CONTINUOUS
10
-0.57249
20
-0.829342
11
-0.571627
21
-0.82997
0
LINE
8
BLACK
6
CONTINUOUS
10
-0.571627
20
-0.82997
11
-0.571468
21
-0.830008
0
LINE
8
BLACK
6
CONTINUOUS
10
-0.571468
20
-0.830008
11
-0.571382
21
-0.830062
0
LINE
8
BLACK
6
CONTINUOUS
10
-0.571382
20
-0.830062
11
-0.534333
21
-0.854121
0
LINE
8
BLACK
6
CONTINUOUS
10
-0.534333
20
-0.854121
11
-0.531697
21
-0.855832
0
LINE
8
BLACK
6
CONTINUOUS
10
-0.531697
20
-0.855832
11
-0.528191
21
-0.857981
0
LINE
8
BLACK
6
CONTINUOUS
10
-0.528191
20
-0.857981
11
-0.52819
21
-0.857982
0
LINE
8
BLACK
6
CONTINUOUS
10
-0.52819
20
-0.857982
11
-0.528189
21
-0.857982
0
LINE
8
BLACK
6
CONTINUOUS
10
-0.528189
20
-0.857982
11
-0.528188
21
-0.857983
0
LINE
8
BLACK
6
CONTINUOUS
10
-0.528188
20
-0.857983
11
-0.528187
21
-0.857984
0
LINE
8
BLACK
6
CONTINUOUS
10
-0.528187
20
-0.857984
11
-0.478943
21
-0.886413
0
LINE
8
BLACK
6
CONTINUOUS
10
-0.478943
20
-0.886413
11
-0.478941
21
-0.886414
0
LINE
8
BLACK
6
CONTINUOUS
10
-0.478941
20
-0.886414
11
-0.47532
21
-0.88838
0
LINE
8
BLACK
6
CONTINUOUS
10
-0.47532
20
-0.88838
11
-0.431984
21
-0.910463
0
LINE
8
BLACK
6
CONTINUOUS
10
-0.431984
20
-0.910463
11
-0.387552
21
-0.930246
0
LINE
8
BLACK
6
CONTINUOUS
10
-0.387552
20
-0.930246
11
-0.387552
21
-0.930246
0
LINE
8
BLACK
6
CONTINUOUS
10
-0.387552
20
-0.930246
11
-0.38755
21
-0.930246
0
LINE
8
BLACK
6
CONTINUOUS
10
-0.38755
20
-0.930246
11
-0.342145
21
-0.947675
0
LINE
8
BLACK
6
CONTINUOUS
10
-0.342145
20
-0.947675
11
-0.342144
21
-0.947675
0
LINE
8
BLACK
6
CONTINUOUS
10
-0.342144
20
-0.947675
11
-0.342143
21
-0.947675
0
LINE
8
BLACK
6
CONTINUOUS
10
-0.342143
20
-0.947675
11
-0.339685
21
-0.948546
0
LINE
8
BLACK
6
CONTINUOUS
10
-0.339685
20
-0.948546
11
-0.338264
21
-0.949049
0
LINE
8
BLACK
6
CONTINUOUS
10
-0.338264
20
-0.949049
11
-0.338263
21
-0.949049
0
LINE
8
BLACK
6
CONTINUOUS
10
-0.338263
20
-0.949049
11
-0.338263
21
-0.949049
0
LINE
8
BLACK
6
CONTINUOUS
10
-0.338263
20
-0.949049
11
-0.284178
21
-0.966622
0
LINE
8
BLACK
6
CONTINUOUS
10
-0.284178
20
-0.966622
11
-0.28023
21
-0.967791
0
LINE
8
BLACK
6
CONTINUOUS
10
-0.28023
20
-0.967791
11
-0.233249
21
-0.98038
0
LINE
8
BLACK
6
CONTINUOUS
10
-0.233249
20
-0.98038
11
-0.185705
21
-0.990487
0
LINE
8
BLACK
6
CONTINUOUS
10
-0.185705
20
-0.990487
11
-0.185695
21
-0.99049
0
LINE
8
BLACK
6
CONTINUOUS
10
-0.185695
20
-0.99049
11
-0.185677
21
-0.990493
0
LINE
8
BLACK
6
CONTINUOUS
10
-0.185677
20
-0.990493
11
-0.185673
21
-0.990494
0
LINE
8
BLACK
6
CONTINUOUS
10
-0.185673
20
-0.990494
11
-0.185673
21
-0.990494
0
LINE
8
BLACK
6
CONTINUOUS
10
-0.185673
20
-0.990494
11
-0.137633
21
-0.998104
0
LINE
8
BLACK
6
CONTINUOUS
10
-0.137633
20
-0.998104
11
-0.134819
21
-0.998475
0
LINE
8
BLACK
6
CONTINUOUS
10
-0.134819
20
-0.998475
11
-0.133553
21
-0.998642
0
LINE
8
BLACK
6
CONTINUOUS
10
-0.133553
20
-0.998642
11
-0.133553
21
-0.998642
0
LINE
8
BLACK
6
CONTINUOUS
10
-0.133553
20
-0.998642
11
-0.133552
21
-0.998642
0
LINE
8
BLACK
6
CONTINUOUS
10
-0.133552
20
-0.998642
11
-0.076995
21
-1.00458
0
LINE
8
BLACK
6
CONTINUOUS
10
-0.076995
20
-1.00458
11
-0.0728914
21
-1.00491
0
LINE
8
BLACK
6
CONTINUOUS
10
-0.0728914
20
-1.00491
11
-0.0258135
21
-1.00737
0
LINE
8
BLACK
6
CONTINUOUS
10
-0.0258135
20
-1.00737
11
-0.0256094
21
-1.00745
0
LINE
8
BLACK
6
CONTINUOUS
10
-0.0256094
20
-1.00745
11
-0.0243193
21
-1.00745
0
LINE
8
BLACK
6
CONTINUOUS
10
-0.0243193
20
-1.00745
11
-0.0243193
21
-1.00745
0
LINE
8
BLACK
6
CONTINUOUS
10
-0.0243193
20
-1.00745
11
0.0227642
21
-1.00745
0
LINE
8
BLACK
6
CONTINUOUS
10
0.0227642
20
-1.00745
11
0.0229803
21
-1.00752
0
LINE
8
BLACK
6
CONTINUOUS
10
0.0229803
20
-1.00752
11
0.0243193
21
-1.00745
0
LINE
8
BLACK
6
CONTINUOUS
10
0.0243193
20
-1.00745
11
0.0243193
21
-1.00745
0
LINE
8
BLACK
6
CONTINUOUS
10
0.0243193
20
-1.00745
11
0.0728913
21
-1.00491
0
LINE
8
BLACK
6
CONTINUOUS
10
0.0728913
20
-1.00491
11
0.0728922
21
-1.00491
0
LINE
8
BLACK
6
CONTINUOUS
10
0.0728922
20
-1.00491
11
0.0728924
21
-1.00491
0
LINE
8
BLACK
6
CONTINUOUS
10
0.0728924
20
-1.00491
11
0.0733352
21
-1.00487
0
LINE
8
BLACK
6
CONTINUOUS
10
0.0733352
20
-1.00487
11
0.0769952
21
-1.00458
0
LINE
8
BLACK
6
CONTINUOUS
10
0.0769952
20
-1.00458
11
0.133552
21
-0.998642
0
LINE
8
BLACK
6
CONTINUOUS
10
0.133552
20
-0.998642
11
0.133554
21
-0.998642
0
LINE
8
BLACK
6
CONTINUOUS
10
0.133554
20
-0.998642
11
0.133554
21
-0.998642
0
LINE
8
BLACK
6
CONTINUOUS
10
0.133554
20
-0.998642
11
0.133778
21
-0.998612
0
LINE
8
BLACK
6
CONTINUOUS
10
0.133778
20
-0.998612
11
0.137634
21
-0.998104
0
LINE
8
BLACK
6
CONTINUOUS
10
0.137634
20
-0.998104
11
0.185623
21
-0.990502
0
LINE
8
BLACK
6
CONTINUOUS
10
0.185623
20
-0.990502
11
0.185657
21
-0.990498
0
LINE
8
BLACK
6
CONTINUOUS
10
0.185657
20
-0.990498
11
0.185673
21
-0.990494
0
LINE
8
BLACK
6
CONTINUOUS
10
0.185673
20
-0.990494
11
0.185673
21
-0.990494
0
LINE
8
BLACK
6
CONTINUOUS
10
0.185673
20
-0.990494
11
0.185673
21
-0.990494
0
LINE
8
BLACK
6
CONTINUOUS
10
0.185673
20
-0.990494
11
0.233249
21
-0.98038
0
LINE
8
BLACK
6
CONTINUOUS
10
0.233249
20
-0.98038
11
0.28023
21
-0.967791
0
LINE
8
BLACK
6
CONTINUOUS
10
0.28023
20
-0.967791
11
0.284178
21
-0.966622
0
LINE
8
BLACK
6
CONTINUOUS
10
0.284178
20
-0.966622
11
0.338263
21
-0.949049
0
LINE
8
BLACK
6
CONTINUOUS
10
0.338263
20
-0.949049
11
0.342143
21
-0.947675
0
LINE
8
BLACK
6
CONTINUOUS
10
0.342143
20
-0.947675
11
0.342145
21
-0.947675
0
LINE
8
BLACK
6
CONTINUOUS
10
0.342145
20
-0.947675
11
0.351314
21
-0.944155
0
LINE
8
BLACK
6
CONTINUOUS
10
0.351314
20
-0.944155
11
0.387552
21
-0.930246
0
LINE
8
BLACK
6
CONTINUOUS
10
0.387552
20
-0.930246
11
0.387552
21
-0.930246
0
LINE
8
BLACK
6
CONTINUOUS
10
0.387552
20
-0.930246
11
0.431984
21
-0.910463
0
LINE
8
BLACK
6
CONTINUOUS
10
0.431984
20
-0.910463
11
0.47532
21
-0.88838
0
LINE
8
BLACK
6
CONTINUOUS
10
0.47532
20
-0.88838
11
0.478941
21
-0.886414
0
LINE
8
BLACK
6
CONTINUOUS
10
0.478941
20
-0.886414
11
0.528189
21
-0.857982
0
LINE
8
BLACK
6
CONTINUOUS
10
0.528189
20
-0.857982
11
0.531698
21
-0.855832
0
LINE
8
BLACK
6
CONTINUOUS
10
0.531698
20
-0.855832
11
0.569623
21
-0.831204
0
LINE
8
BLACK
6
CONTINUOUS
10
0.569623
20
-0.831204
11
0.570106
21
-0.831075
0
LINE
8
BLACK
6
CONTINUOUS
10
0.570106
20
-0.831075
11
0.572489
21
-0.829343
0
LINE
8
BLACK
6
CONTINUOUS
10
0.572489
20
-0.829343
11
0.57249
21
-0.829342
0
LINE
8
BLACK
6
CONTINUOUS
10
0.57249
20
-0.829342
11
0.57249
21
-0.829343
0
LINE
8
BLACK
6
CONTINUOUS
10
0.57249
20
-0.829343
11
0.611839
21
-0.800753
0
LINE
8
BLACK
6
CONTINUOUS
10
0.611839
20
-0.800753
11
0.61184
21
-0.800752
0
LINE
8
BLACK
6
CONTINUOUS
10
0.61184
20
-0.800752
11
0.649641
21
-0.77014
0
LINE
8
BLACK
6
CONTINUOUS
10
0.649641
20
-0.77014
11
0.663358
21
-0.758425
0
LINE
8
BLACK
6
CONTINUOUS
10
0.663358
20
-0.758425
11
0.684929
21
-0.739002
0
LINE
8
BLACK
6
CONTINUOUS
10
0.684929
20
-0.739002
11
0.689445
21
-0.734716
0
LINE
8
BLACK
6
CONTINUOUS
10
0.689445
20
-0.734716
11
0.689539
21
-0.734633
0
LINE
8
BLACK
6
CONTINUOUS
10
0.689539
20
-0.734633
11
0.701865
21
-0.724383
0
LINE
8
BLACK
6
CONTINUOUS
10
0.701865
20
-0.724383
11
0.702408
21
-0.724005
0
LINE
8
BLACK
6
CONTINUOUS
10
0.702408
20
-0.724005
11
0.715943
21
-0.716191
0
LINE
8
BLACK
6
CONTINUOUS
10
0.715943
20
-0.716191
11
0.716686
21
-0.71586
0
LINE
8
BLACK
6
CONTINUOUS
10
0.716686
20
-0.71586
11
0.731476
21
-0.711054
0
LINE
8
BLACK
6
CONTINUOUS
10
0.731476
20
-0.711054
11
0.732273
21
-0.710884
0
LINE
8
BLACK
6
CONTINUOUS
10
0.732273
20
-0.710884
11
0.747741
21
-0.709259
0
LINE
8
BLACK
6
CONTINUOUS
10
0.747741
20
-0.709259
11
0.748555
21
-0.709259
0
LINE
8
BLACK
6
CONTINUOUS
10
0.748555
20
-0.709259
11
0.764021
21
-0.710884
0
LINE
8
BLACK
6
CONTINUOUS
10
0.764021
20
-0.710884
11
0.764818
21
-0.711054
0
LINE
8
BLACK
6
CONTINUOUS
10
0.764818
20
-0.711054
11
0.779611
21
-0.71586
0
LINE
8
BLACK
6
CONTINUOUS
10
0.779611
20
-0.71586
11
0.780356
21
-0.716191
0
LINE
8
BLACK
6
CONTINUOUS
10
0.780356
20
-0.716191
11
0.793845
21
-0.723979
0
LINE
8
BLACK
6
CONTINUOUS
10
0.793845
20
-0.723979
11
0.794465
21
-0.724424
0
LINE
8
BLACK
6
CONTINUOUS
10
0.794465
20
-0.724424
11
0.806435
21
-0.734915
0
LINE
8
BLACK
6
CONTINUOUS
10
0.806435
20
-0.734915
11
0.806563
21
-0.735038
0
LINE
8
BLACK
6
CONTINUOUS
10
0.806563
20
-0.735038
11
0.810329
21
-0.739002
0
LINE
8
BLACK
6
CONTINUOUS
10
0.810329
20
-0.739002
11
0.829317
21
-0.75899
0
LINE
8
BLACK
6
CONTINUOUS
10
0.829317
20
-0.75899
11
0.834134
21
-0.76406
0
LINE
8
BLACK
6
CONTINUOUS
10
0.834134
20
-0.76406
11
0.83847
21
-0.768624
0
LINE
8
BLACK
6
CONTINUOUS
10
0.83847
20
-0.768624
11
0.871372
21
-0.803258
0
LINE
8
BLACK
6
CONTINUOUS
10
0.871372
20
-0.803258
11
0.872518
21
-0.804464
0
LINE
8
BLACK
6
CONTINUOUS
10
0.872518
20
-0.804464
11
0.903128
21
-0.836685
0
LINE
8
BLACK
6
CONTINUOUS
10
0.903128
20
-0.836685
11
0.904314
21
-0.837934
0
LINE
8
BLACK
6
CONTINUOUS
10
0.904314
20
-0.837934
11
0.904314
21
-0.837934
0
LINE
8
BLACK
6
CONTINUOUS
10
0.904314
20
-0.837934
11
0.904314
21
-0.837934
0
LINE
8
BLACK
6
CONTINUOUS
10
0.904314
20
-0.837934
11
0.932495
21
-0.867598
0
LINE
8
BLACK
6
CONTINUOUS
10
0.932495
20
-0.867598
11
0.932535
21
-0.86764
0
LINE
8
BLACK
6
CONTINUOUS
10
0.932535
20
-0.86764
11
0.932551
21
-0.867657
0
LINE
8
BLACK
6
CONTINUOUS
10
0.932551
20
-0.867657
11
0.932551
21
-0.867657
0
LINE
8
BLACK
6
CONTINUOUS
10
0.932551
20
-0.867657
11
0.932551
21
-0.867657
0
LINE
8
BLACK
6
CONTINUOUS
10
0.932551
20
-0.867657
11
0.933775
21
-0.868946
0
LINE
8
BLACK
6
CONTINUOUS
10
0.933775
20
-0.868946
11
0.952238
21
-0.888381
0
LINE
8
BLACK
6
CONTINUOUS
10
0.952238
20
-0.888381
11
0.959565
21
-0.896093
0
LINE
8
BLACK
6
CONTINUOUS
10
0.959565
20
-0.896093
11
0.960827
21
-0.897421
0
LINE
8
BLACK
6
CONTINUOUS
10
0.960827
20
-0.897421
11
0.960827
21
-0.897421
0
LINE
8
BLACK
6
CONTINUOUS
10
0.960827
20
-0.897421
11
0.960827
21
-0.897421
0
LINE
8
BLACK
6
CONTINUOUS
10
0.960827
20
-0.897421
11
0.960827
21
-0.897421
0
LINE
8
BLACK
6
CONTINUOUS
10
0.960827
20
-0.897421
11
0.984092
21
-0.921911
0
LINE
8
BLACK
6
CONTINUOUS
10
0.984092
20
-0.921911
11
0.984092
21
-0.921911
0
LINE
8
BLACK
6
CONTINUOUS
10
0.984092
20
-0.921911
11
0.984092
21
-0.921911
0
LINE
8
BLACK
6
CONTINUOUS
10
0.984092
20
-0.921911
11
0.985385
21
-0.923272
0
LINE
8
BLACK
6
CONTINUOUS
10
0.985385
20
-0.923272
11
0.99201
21
-0.930246
0
LINE
8
BLACK
6
CONTINUOUS
10
0.99201
20
-0.930246
11
1.00606
21
-0.945041
0
LINE
8
BLACK
6
CONTINUOUS
10
1.00606
20
-0.945041
11
1.01034
21
-0.949544
0
LINE
8
BLACK
6
CONTINUOUS
10
1.01034
20
-0.949544
11
1.02247
21
-0.962307
0
LINE
8
BLACK
6
CONTINUOUS
10
1.02247
20
-0.962307
11
1.02247
21
-0.962307
0
LINE
8
BLACK
6
CONTINUOUS
10
1.02247
20
-0.962307
11
1.02247
21
-0.962307
0
LINE
8
BLACK
6
CONTINUOUS
10
1.02247
20
-0.962307
11
1.02286
21
-0.962721
0
LINE
8
BLACK
6
CONTINUOUS
10
1.02286
20
-0.962721
11
1.03396
21
-0.974723
0
LINE
8
BLACK
6
CONTINUOUS
10
1.03396
20
-0.974723
11
1.03411
21
-0.974901
0
LINE
8
BLACK
6
CONTINUOUS
10
1.03411
20
-0.974901
11
1.04342
21
-0.987722
0
LINE
8
BLACK
6
CONTINUOUS
10
1.04342
20
-0.987722
11
1.04383
21
-0.988428
0
LINE
8
BLACK
6
CONTINUOUS
10
1.04383
20
-0.988428
11
1.05016
21
-1.00263
0
LINE
8
BLACK
6
CONTINUOUS
10
1.05016
20
-1.00263
11
1.05041
21
-1.00341
0
LINE
8
BLACK
6
CONTINUOUS
10
1.05041
20
-1.00341
11
1.05365
21
-1.01865
0
LINE
8
BLACK
6
CONTINUOUS
10
1.05365
20
-1.01865
11
1.05373
21
-1.0194
0
LINE
8
BLACK
6
CONTINUOUS
10
1.05373
20
-1.0194
11
1.05399
21
-1.03508
0
LINE
8
BLACK
6
CONTINUOUS
10
1.05399
20
-1.03508
11
1.05392
21
-1.03589
0
LINE
8
BLACK
6
CONTINUOUS
10
1.05392
20
-1.03589
11
1.05095
21
-1.05111
0
LINE
8
BLACK
6
CONTINUOUS
10
1.05095
20
-1.05111
11
1.05066
21
-1.05201
0
LINE
8
BLACK
6
CONTINUOUS
10
1.05066
20
-1.05201
11
1.04411
21
-1.06607
0
LINE
8
BLACK
6
CONTINUOUS
10
1.04411
20
-1.06607
11
1.04369
21
-1.06677
0
LINE
8
BLACK
6
CONTINUOUS
10
1.04369
20
-1.06677
11
1.03409
21
-1.07954
0
LINE
8
BLACK
6
CONTINUOUS
10
1.03409
20
-1.07954
11
1.03398
21
-1.07967
0
LINE
8
BLACK
6
CONTINUOUS
10
1.03398
20
-1.07967
11
1.03158
21
-1.08233
0
LINE
8
BLACK
6
CONTINUOUS
10
1.03158
20
-1.08233
11
1.03153
21
-1.08239
0
LINE
8
BLACK
6
CONTINUOUS
10
1.03153
20
-1.08239
11
1.02528
21
-1.08881
0
LINE
8
BLACK
6
CONTINUOUS
10
1.02528
20
-1.08881
11
1.02522
21
-1.08886
0
LINE
8
BLACK
6
CONTINUOUS
10
1.02522
20
-1.08886
11
1.01869
21
-1.09506
0
LINE
8
BLACK
6
CONTINUOUS
10
1.01869
20
-1.09506
11
1.00689
21
-1.10626
0
LINE
8
BLACK
6
CONTINUOUS
10
1.00689
20
-1.10626
11
1.00676
21
-1.10638
0
LINE
8
BLACK
6
CONTINUOUS
10
1.00676
20
-1.10638
11
1.00302
21
-1.10993
0
LINE
8
BLACK
6
CONTINUOUS
10
1.00302
20
-1.10993
11
1.00299
21
-1.10996
0
LINE
8
BLACK
6
CONTINUOUS
10
1.00299
20
-1.10996
11
1.00002
21
-1.11264
0
LINE
8
BLACK
6
CONTINUOUS
10
1.00002
20
-1.11264
11
0.999045
21
-1.11351
0
LINE
8
BLACK
6
CONTINUOUS
10
0.999045
20
-1.11351
11
0.999007
21
-1.11355
0
LINE
8
BLACK
6
CONTINUOUS
10
0.999007
20
-1.11355
11
0.995447
21
-1.11659
0
LINE
8
BLACK
6
CONTINUOUS
10
0.995447
20
-1.11659
11
0.995447
21
-1.11659
0
LINE
8
BLACK
6
CONTINUOUS
10
0.995447
20
-1.11659
11
0.984805
21
-1.12568
0
LINE
8
BLACK
6
CONTINUOUS
10
0.984805
20
-1.12568
11
0.983093
21
-1.12714
0
LINE
8
BLACK
6
CONTINUOUS
10
0.983093
20
-1.12714
11
0.982041
21
-1.12804
0
LINE
8
BLACK
6
CONTINUOUS
10
0.982041
20
-1.12804
11
0.981927
21
-1.12814
0
LINE
8
BLACK
6
CONTINUOUS
10
0.981927
20
-1.12814
11
0.981791
21
-1.12825
0
LINE
8
BLACK
6
CONTINUOUS
10
0.981791
20
-1.12825
11
0.973637
21
-1.13521
0
LINE
8
BLACK
6
CONTINUOUS
10
0.973637
20
-1.13521
11
0.973364
21
-1.13545
0
LINE
8
BLACK
6
CONTINUOUS
10
0.973364
20
-1.13545
11
0.973344
21
-1.13546
0
LINE
8
BLACK
6
CONTINUOUS
10
0.973344
20
-1.13546
11
0.971609
21
-1.13695
0
LINE
8
BLACK
6
CONTINUOUS
10
0.971609
20
-1.13695
11
0.966384
21
-1.14141
0
LINE
8
BLACK
6
CONTINUOUS
10
0.966384
20
-1.14141
11
0.964615
21
-1.14292
0
LINE
8
BLACK
6
CONTINUOUS
10
0.964615
20
-1.14292
11
0.962973
21
-1.14432
0
LINE
8
BLACK
6
CONTINUOUS
10
0.962973
20
-1.14432
11
0.962938
21
-1.14435
0
LINE
8
BLACK
6
CONTINUOUS
10
0.962938
20
-1.14435
11
0.961156
21
-1.14587
0
LINE
8
BLACK
6
CONTINUOUS
10
0.961156
20
-1.14587
11
0.958132
21
-1.14846
0
LINE
8
BLACK
6
CONTINUOUS
10
0.958132
20
-1.14846
11
0.953351
21
-1.15254
0
LINE
8
BLACK
6
CONTINUOUS
10
0.953351
20
-1.15254
11
0.953312
21
-1.15257
0
LINE
8
BLACK
6
CONTINUOUS
10
0.953312
20
-1.15257
11
0.935587
21
-1.16692
0
LINE
8
BLACK
6
CONTINUOUS
10
0.935587
20
-1.16692
11
0.935547
21
-1.16696
0
LINE
8
BLACK
6
CONTINUOUS
10
0.935547
20
-1.16696
11
0.892296
21
-1.20014
0
LINE
8
BLACK
6
CONTINUOUS
10
0.892296
20
-1.20014
11
0.87913
21
-1.20998
0
LINE
8
BLACK
6
CONTINUOUS
10
0.87913
20
-1.20998
11
0.879089
21
-1.21001
0
LINE
8
BLACK
6
CONTINUOUS
10
0.879089
20
-1.21001
11
0.865671
21
-1.21949
0
LINE
8
BLACK
6
CONTINUOUS
10
0.865671
20
-1.21949
11
0.845997
21
-1.23301
0
LINE
8
BLACK
6
CONTINUOUS
10
0.845997
20
-1.23301
11
0.841897
21
-1.23583
0
LINE
8
BLACK
6
CONTINUOUS
10
0.841897
20
-1.23583
11
0.841855
21
-1.23586
0
LINE
8
BLACK
6
CONTINUOUS
10
0.841855
20
-1.23586
11
0.779707
21
-1.27622
0
LINE
8
BLACK
6
CONTINUOUS
10
0.779707
20
-1.27622
11
0.779621
21
-1.27627
0
LINE
8
BLACK
6
CONTINUOUS
10
0.779621
20
-1.27627
11
0.715472
21
-1.31331
0
LINE
8
BLACK
6
CONTINUOUS
10
0.715472
20
-1.31331
11
0.715382
21
-1.31336
0
LINE
8
BLACK
6
CONTINUOUS
10
0.715382
20
-1.31336
11
0.649358
21
-1.347
0
LINE
8
BLACK
6
CONTINUOUS
10
0.649358
20
-1.347
11
0.649312
21
-1.34702
0
LINE
8
BLACK
6
CONTINUOUS
10
0.649312
20
-1.34702
11
0.636675
21
-1.35305
0
LINE
8
BLACK
6
CONTINUOUS
10
0.636675
20
-1.35305
11
0.634923
21
-1.35388
0
LINE
8
BLACK
6
CONTINUOUS
10
0.634923
20
-1.35388
11
0.623275
21
-1.35944
0
LINE
8
BLACK
6
CONTINUOUS
10
0.623275
20
-1.35944
11
0.623272
21
-1.35944
0
LINE
8
BLACK
6
CONTINUOUS
10
0.623272
20
-1.35944
11
0.623271
21
-1.35944
0
LINE
8
BLACK
6
CONTINUOUS
10
0.623271
20
-1.35944
11
0.620399
21
-1.36076
0
LINE
8
BLACK
6
CONTINUOUS
10
0.620399
20
-1.36076
11
0.608352
21
-1.36632
0
LINE
8
BLACK
6
CONTINUOUS
10
0.608352
20
-1.36632
11
0.608306
21
-1.36634
0
LINE
8
BLACK
6
CONTINUOUS
10
0.608306
20
-1.36634
11
0.593208
21
-1.37282
0
LINE
8
BLACK
6
CONTINUOUS
10
0.593208
20
-1.37282
11
0.566557
21
-1.38386
0
LINE
8
BLACK
6
CONTINUOUS
10
0.566557
20
-1.38386
11
0.566509
21
-1.38388
0
LINE
8
BLACK
6
CONTINUOUS
10
0.566509
20
-1.38388
11
0.497328
21
-1.41044
0
LINE
8
BLACK
6
CONTINUOUS
10
0.497328
20
-1.41044
11
0.497231
21
-1.41047
0
LINE
8
BLACK
6
CONTINUOUS
10
0.497231
20
-1.41047
11
0.449028
21
-1.42613
0
LINE
8
BLACK
6
CONTINUOUS
10
0.449028
20
-1.42613
11
0.426783
21
-1.43336
0
LINE
8
BLACK
6
CONTINUOUS
10
0.426783
20
-1.43336
11
0.426686
21
-1.43339
0
LINE
8
BLACK
6
CONTINUOUS
10
0.426686
20
-1.43339
11
0.355112
21
-1.45257
0
LINE
8
BLACK
6
CONTINUOUS
10
0.355112
20
-1.45257
11
0.355062
21
-1.45258
0
LINE
8
BLACK
6
CONTINUOUS
10
0.355062
20
-1.45258
11
0.345851
21
-1.45479
0
LINE
8
BLACK
6
CONTINUOUS
10
0.345851
20
-1.45479
11
0.327013
21
-1.45931
0
LINE
8
BLACK
6
CONTINUOUS
10
0.327013
20
-1.45931
11
0.32268
21
-1.4603
0
LINE
8
BLACK
6
CONTINUOUS
10
0.32268
20
-1.4603
11
0.310983
21
-1.46294
0
LINE
8
BLACK
6
CONTINUOUS
10
0.310983
20
-1.46294
11
0.310934
21
-1.46295
0
LINE
8
BLACK
6
CONTINUOUS
10
0.310934
20
-1.46295
11
0.294818
21
-1.46616
0
LINE
8
BLACK
6
CONTINUOUS
10
0.294818
20
-1.46616
11
0.294817
21
-1.46616
0
LINE
8
BLACK
6
CONTINUOUS
10
0.294817
20
-1.46616
11
0.266453
21
-1.47142
0
LINE
8
BLACK
6
CONTINUOUS
10
0.266453
20
-1.47142
11
0.266403
21
-1.47143
0
LINE
8
BLACK
6
CONTINUOUS
10
0.266403
20
-1.47143
11
0.193216
21
-1.48302
0
LINE
8
BLACK
6
CONTINUOUS
10
0.193216
20
-1.48302
11
0.193115
21
-1.48303
0
LINE
8
BLACK
6
CONTINUOUS
10
0.193115
20
-1.48303
11
0.119445
21
-1.49077
0
LINE
8
BLACK
6
CONTINUOUS
10
0.119445
20
-1.49077
11
0.119343
21
-1.49078
0
LINE
8
BLACK
6
CONTINUOUS
10
0.119343
20
-1.49078
11
0.0609786
21
-1.49384
0
LINE
8
BLACK
6
CONTINUOUS
10
0.0609786
20
-1.49384
11
0.0453437
21
-1.49466
0
LINE
8
BLACK
6
CONTINUOUS
10
0.0453437
20
-1.49466
11
0.0452937
21
-1.49466
0
LINE
8
BLACK
6
CONTINUOUS
10
0.0452937
20
-1.49466
11
0.01646
21
-1.49541
0
LINE
8
BLACK
6
CONTINUOUS
10
0.01646
20
-1.49541
11
2.54724e-05
21
-1.49563
0
LINE
8
BLACK
6
CONTINUOUS
10
2.54724e-05
20
-1.49563
11
-2.55512e-05
21
-1.49563
0
LINE
8
BLACK
6
CONTINUOUS
10
-2.55512e-05
20
-1.49563
11
-0.0164601
21
-1.49541
0
LINE
8
BLACK
6
CONTINUOUS
10
-0.0164601
20
-1.49541
11
-0.0452938
21
-1.49466
0
LINE
8
BLACK
6
CONTINUOUS
10
-0.0452938
20
-1.49466
11
-0.0453437
21
-1.49466
0
LINE
8
BLACK
6
CONTINUOUS
10
-0.0453437
20
-1.49466
11
-0.119344
21
-1.49078
0
LINE
8
BLACK
6
CONTINUOUS
10
-0.119344
20
-1.49078
11
-0.119445
21
-1.49077
0
LINE
8
BLACK
6
CONTINUOUS
10
-0.119445
20
-1.49077
11
-0.193114
21
-1.48303
0
LINE
8
BLACK
6
CONTINUOUS
10
-0.193114
20
-1.48303
11
-0.193216
21
-1.48302
0
LINE
8
BLACK
6
CONTINUOUS
10
-0.193216
20
-1.48302
11
-0.240306
21
-1.47556
0
LINE
8
BLACK
6
CONTINUOUS
10
-0.240306
20
-1.47556
11
-0.266403
21
-1.47143
0
LINE
8
BLACK
6
CONTINUOUS
10
-0.266403
20
-1.47143
11
-0.266453
21
-1.47142
0
LINE
8
BLACK
6
CONTINUOUS
10
-0.266453
20
-1.47142
11
-0.294815
21
-1.46616
0
LINE
8
BLACK
6
CONTINUOUS
10
-0.294815
20
-1.46616
11
-0.310935
21
-1.46295
0
LINE
8
BLACK
6
CONTINUOUS
10
-0.310935
20
-1.46295
11
-0.310985
21
-1.46294
0
LINE
8
BLACK
6
CONTINUOUS
10
-0.310985
20
-1.46294
11
-0.31575
21
-1.46186
0
LINE
8
BLACK
6
CONTINUOUS
10
-0.31575
20
-1.46186
11
-0.327013
21
-1.45931
0
LINE
8
BLACK
6
CONTINUOUS
10
-0.327013
20
-1.45931
11
-0.355062
21
-1.45258
0
LINE
8
BLACK
6
CONTINUOUS
10
-0.355062
20
-1.45258
11
-0.355112
21
-1.45257
0
LINE
8
BLACK
6
CONTINUOUS
10
-0.355112
20
-1.45257
11
-0.426686
21
-1.43339
0
LINE
8
BLACK
6
CONTINUOUS
10
-0.426686
20
-1.43339
11
-0.426784
21
-1.43336
0
LINE
8
BLACK
6
CONTINUOUS
10
-0.426784
20
-1.43336
11
-0.497232
21
-1.41047
0
LINE
8
BLACK
6
CONTINUOUS
10
-0.497232
20
-1.41047
11
-0.497328
21
-1.41044
0
LINE
8
BLACK
6
CONTINUOUS
10
-0.497328
20
-1.41044
11
-0.566509
21
-1.38388
0
LINE
8
BLACK
6
CONTINUOUS
10
-0.566509
20
-1.38388
11
-0.566557
21
-1.38386
0
LINE
8
BLACK
6
CONTINUOUS
10
-0.566557
20
-1.38386
11
-0.593208
21
-1.37282
0
LINE
8
BLACK
6
CONTINUOUS
10
-0.593208
20
-1.37282
11
-0.608306
21
-1.36634
0
LINE
8
BLACK
6
CONTINUOUS
10
-0.608306
20
-1.36634
11
-0.608353
21
-1.36632
0
LINE
8
BLACK
6
CONTINUOUS
10
-0.608353
20
-1.36632
11
-0.623275
21
-1.35944
0
LINE
8
BLACK
6
CONTINUOUS
10
-0.623275
20
-1.35944
11
-0.634923
21
-1.35388
0
LINE
8
BLACK
6
CONTINUOUS
10
-0.634923
20
-1.35388
11
-0.636675
21
-1.35305
0
LINE
8
BLACK
6
CONTINUOUS
10
-0.636675
20
-1.35305
11
-0.649312
21
-1.34702
0
LINE
8
BLACK
6
CONTINUOUS
10
-0.649312
20
-1.34702
11
-0.649358
21
-1.347
0
LINE
8
BLACK
6
CONTINUOUS
10
-0.649358
20
-1.347
11
-0.715382
21
-1.31336
0
LINE
8
BLACK
6
CONTINUOUS
10
-0.715382
20
-1.31336
11
-0.715471
21
-1.31331
0
LINE
8
BLACK
6
CONTINUOUS
10
-0.715471
20
-1.31331
11
-0.779621
21
-1.27627
0
LINE
8
BLACK
6
CONTINUOUS
10
-0.779621
20
-1.27627
11
-0.779708
21
-1.27622
0
LINE
8
BLACK
6
CONTINUOUS
10
-0.779708
20
-1.27622
11
-0.841855
21
-1.23586
0
LINE
8
BLACK
6
CONTINUOUS
10
-0.841855
20
-1.23586
11
-0.841896
21
-1.23583
0
LINE
8
BLACK
6
CONTINUOUS
10
-0.841896
20
-1.23583
11
-0.857945
21
-1.2248
0
LINE
8
BLACK
6
CONTINUOUS
10
-0.857945
20
-1.2248
11
-0.865671
21
-1.21949
0
LINE
8
BLACK
6
CONTINUOUS
10
-0.865671
20
-1.21949
11
-0.879089
21
-1.21001
0
LINE
8
BLACK
6
CONTINUOUS
10
-0.879089
20
-1.21001
11
-0.879129
21
-1.20998
0
LINE
8
BLACK
6
CONTINUOUS
10
-0.879129
20
-1.20998
11
-0.892296
21
-1.20014
0
LINE
8
BLACK
6
CONTINUOUS
10
-0.892296
20
-1.20014
11
-0.935548
21
-1.16696
0
LINE
8
BLACK
6
CONTINUOUS
10
-0.935548
20
-1.16696
11
-0.935586
21
-1.16693
0
LINE
8
BLACK
6
CONTINUOUS
10
-0.935586
20
-1.16693
11
-0.947349
21
-1.1574
0
LINE
8
BLACK
6
CONTINUOUS
10
-0.947349
20
-1.1574
11
-0.953312
21
-1.15257
0
LINE
8
BLACK
6
CONTINUOUS
10
-0.953312
20
-1.15257
11
-0.953351
21
-1.15254
0
LINE
8
BLACK
6
CONTINUOUS
10
-0.953351
20
-1.15254
11
-0.961156
21
-1.14587
0
LINE
8
BLACK
6
CONTINUOUS
10
-0.961156
20
-1.14587
11
-0.961156
21
-1.14587
0
LINE
8
BLACK
6
CONTINUOUS
10
-0.961156
20
-1.14587
11
-0.963002
21
-1.1443
0
LINE
8
BLACK
6
CONTINUOUS
10
-0.963002
20
-1.1443
11
-0.964644
21
-1.1429
0
LINE
8
BLACK
6
CONTINUOUS
10
-0.964644
20
-1.1429
11
-0.966384
21
-1.14141
0
LINE
8
BLACK
6
CONTINUOUS
10
-0.966384
20
-1.14141
11
-0.966384
21
-1.14141
0
LINE
8
BLACK
6
CONTINUOUS
10
-0.966384
20
-1.14141
11
-0.971609
21
-1.13695
0
LINE
8
BLACK
6
CONTINUOUS
10
-0.971609
20
-1.13695
11
-0.973344
21
-1.13546
0
LINE
8
BLACK
6
CONTINUOUS
10
-0.973344
20
-1.13546
11
-0.973344
21
-1.13546
0
LINE
8
BLACK
6
CONTINUOUS
10
-0.973344
20
-1.13546
11
-0.973345
21
-1.13546
0
LINE
8
BLACK
6
CONTINUOUS
10
-0.973345
20
-1.13546
11
-0.98204
21
-1.12804
0
LINE
8
BLACK
6
CONTINUOUS
10
-0.98204
20
-1.12804
11
-0.982041
21
-1.12804
0
LINE
8
BLACK
6
CONTINUOUS
10
-0.982041
20
-1.12804
11
-0.982041
21
-1.12804
0
LINE
8
BLACK
6
CONTINUOUS
10
-0.982041
20
-1.12804
11
-0.984214
21
-1.12618
0
LINE
8
BLACK
6
CONTINUOUS
10
-0.984214
20
-1.12618
11
-0.995447
21
-1.11659
0
LINE
8
BLACK
6
CONTINUOUS
10
-0.995447
20
-1.11659
11
-0.999006
21
-1.11355
0
LINE
8
BLACK
6
CONTINUOUS
10
-0.999006
20
-1.11355
11
-0.999045
21
-1.11351
0
LINE
8
BLACK
6
CONTINUOUS
10
-0.999045
20
-1.11351
11
-1.00299
21
-1.10996
0
LINE
8
BLACK
6
CONTINUOUS
10
-1.00299
20
-1.10996
11
-1.00302
21
-1.10993
0
LINE
8
BLACK
6
CONTINUOUS
10
-1.00302
20
-1.10993
11
-1.00689
21
-1.10626
0
LINE
8
BLACK
6
CONTINUOUS
10
-1.00689
20
-1.10626
11
-1.01869
21
-1.09506
0
LINE
8
BLACK
6
CONTINUOUS
10
-1.01869
20
-1.09506
11
-1.02522
21
-1.08886
0
LINE
8
BLACK
6
CONTINUOUS
10
-1.02522
20
-1.08886
11
-1.02528
21
-1.08881
0
LINE
8
BLACK
6
CONTINUOUS
10
-1.02528
20
-1.08881
11
-1.02728
21
-1.08675
0
LINE
8
BLACK
6
CONTINUOUS
10
-1.02728
20
-1.08675
11
-1.03153
21
-1.08239
0
LINE
8
BLACK
6
CONTINUOUS
10
-1.03153
20
-1.08239
11
-1.03158
21
-1.08233
0
LINE
8
BLACK
6
CONTINUOUS
10
-1.03158
20
-1.08233
11
-1.03397
21
-1.07968
0
LINE
8
BLACK
6
CONTINUOUS
10
-1.03397
20
-1.07968
11
-1.0341
21
-1.07952
0
LINE
8
BLACK
6
CONTINUOUS
10
-1.0341
20
-1.07952
11
-1.04342
21
-1.06669
0
LINE
8
BLACK
6
CONTINUOUS
10
-1.04342
20
-1.06669
11
-1.04383
21
-1.06599
0
LINE
8
BLACK
6
CONTINUOUS
10
-1.04383
20
-1.06599
11
-1.04868
21
-1.05509
0
LINE
8
BLACK
6
CONTINUOUS
10
-1.04868
20
-1.05509
11
-1.05016
21
-1.05178
0
LINE
8
BLACK
6
CONTINUOUS
10
-1.05016
20
-1.05178
11
-1.05041
21
-1.051
0
LINE
8
BLACK
6
CONTINUOUS
10
-1.05041
20
-1.051
11
-1.05364
21
-1.03579
0
LINE
8
BLACK
6
CONTINUOUS
10
-1.05364
20
-1.03579
11
-1.05373
21
-1.03498
0
LINE
8
BLACK
6
CONTINUOUS
10
-1.05373
20
-1.03498
11
-1.05373
21
-1.01943
0
LINE
8
BLACK
6
CONTINUOUS
10
-1.05373
20
-1.01943
11
-1.05364
21
-1.01862
0
LINE
8
BLACK
6
CONTINUOUS
10
-1.05364
20
-1.01862
11
-1.05041
21
-1.00341
0
LINE
8
BLACK
6
CONTINUOUS
10
-1.05041
20
-1.00341
11
-1.05016
21
-1.00263
0
LINE
8
BLACK
6
CONTINUOUS
10
-1.05016
20
-1.00263
11
-1.05016
21
-1.00263
0
LINE
8
BLACK
6
CONTINUOUS
10
-1.05016
20
-1.00263
11
-1.04383
21
-0.988428
0
LINE
8
BLACK
6
CONTINUOUS
10
-1.04383
20
-0.988428
11
-1.04342
21
-0.987723
0
LINE
8
BLACK
6
CONTINUOUS
10
-1.04342
20
-0.987723
11
-1.03411
21
-0.9749
0
LINE
8
BLACK
6
CONTINUOUS
10
-1.03411
20
-0.9749
11
-1.03396
21
-0.974723
0
LINE
8
BLACK
6
CONTINUOUS
10
-1.03396
20
-0.974723
11
-1.02286
21
-0.962721
0
LINE
8
BLACK
6
CONTINUOUS
10
-1.02286
20
-0.962721
11
-1.02247
21
-0.962307
0
LINE
8
BLACK
6
CONTINUOUS
10
-1.02247
20
-0.962307
11
-1.01034
21
-0.949544
0
LINE
8
BLACK
6
CONTINUOUS
10
-1.01034
20
-0.949544
11
-1.00606
21
-0.945041
0
LINE
8
BLACK
6
CONTINUOUS
10
-1.00606
20
-0.945041
11
-0.985385
21
-0.923272
0
LINE
8
BLACK
6
CONTINUOUS
10
-0.985385
20
-0.923272
11
-0.984093
21
-0.921911
0
LINE
8
BLACK
6
CONTINUOUS
10
-0.984093
20
-0.921911
11
-0.960827
21
-0.897421
0
LINE
8
BLACK
6
CONTINUOUS
10
-0.960827
20
-0.897421
11
-0.960827
21
-0.897421
0
LINE
8
BLACK
6
CONTINUOUS
10
-0.960827
20
-0.897421
11
-0.960827
21
-0.897421
0
LINE
8
BLACK
6
CONTINUOUS
10
-0.960827
20
-0.897421
11
-0.960827
21
-0.897421
0
LINE
8
BLACK
6
CONTINUOUS
10
-0.960827
20
-0.897421
11
-0.959565
21
-0.896093
0
LINE
8
BLACK
6
CONTINUOUS
10
-0.959565
20
-0.896093
11
-0.933775
21
-0.868946
0
LINE
8
BLACK
6
CONTINUOUS
10
-0.933775
20
-0.868946
11
-0.932551
21
-0.867657
0
LINE
8
BLACK
6
CONTINUOUS
10
-0.932551
20
-0.867657
11
-0.904314
21
-0.837934
0
LINE
8
BLACK
6
CONTINUOUS
10
-0.904314
20
-0.837934
11
-0.903128
21
-0.836685
0
LINE
8
BLACK
6
CONTINUOUS
10
-0.903128
20
-0.836685
11
-0.872518
21
-0.804464
0
LINE
8
BLACK
6
CONTINUOUS
10
-0.872518
20
-0.804464
11
-0.871372
21
-0.803258
0
LINE
8
BLACK
6
CONTINUOUS
10
-0.871372
20
-0.803258
11
-0.83847
21
-0.768624
0
LINE
8
BLACK
6
CONTINUOUS
10
-0.83847
20
-0.768624
11
-0.829317
21
-0.75899
0
LINE
8
BLACK
6
CONTINUOUS
10
-0.829317
20
-0.75899
11
-0.810329
21
-0.739002
0
LINE
8
BLACK
6
CONTINUOUS
10
-0.810329
20
-0.739002
11
-0.806563
21
-0.735038
0
LINE
8
BLACK
6
CONTINUOUS
10
-0.806563
20
-0.735038
11
-0.806436
21
-0.734916
0
LINE
8
BLACK
6
CONTINUOUS
10
-0.806436
20
-0.734916
11
-0.794465
21
-0.724424
0
LINE
8
BLACK
6
CONTINUOUS
10
-0.794465
20
-0.724424
11
-0.793845
21
-0.72398
0
LINE
8
BLACK
6
CONTINUOUS
10
-0.793845
20
-0.72398
11
-0.780356
21
-0.716191
0
LINE
8
BLACK
6
CONTINUOUS
10
-0.780356
20
-0.716191
11
-0.779611
21
-0.71586
0
LINE
8
BLACK
6
CONTINUOUS
10
-0.779611
20
-0.71586
11
-0.764818
21
-0.711054
0
LINE
8
BLACK
6
CONTINUOUS
10
-0.764818
20
-0.711054
11
-0.764022
21
-0.710884
0
LINE
8
BLACK
6
CONTINUOUS
10
-0.764022
20
-0.710884
11
-0.748555
21
-0.709259
0
LINE
8
BLACK
6
CONTINUOUS
10
-0.748555
20
-0.709259
11
-0.747741
21
-0.709259
0
LINE
8
BLACK
6
CONTINUOUS
10
-0.747741
20
-0.709259
11
-0.732274
21
-0.710884
0
LINE
8
BLACK
6
CONTINUOUS
10
0.00872571
20
1.49552
11
0.0164593
21
1.49541
0
LINE
8
BLACK
6
CONTINUOUS
10
0.0164593
20
1.49541
11
0.0452943
21
1.49466
0
LINE
8
BLACK
6
CONTINUOUS
10
0.0452943
20
1.49466
11
0.0453434
21
1.49466
0
LINE
8
BLACK
6
CONTINUOUS
10
0.0453434
20
1.49466
11
0.119344
21
1.49078
0
LINE
8
BLACK
6
CONTINUOUS
10
0.119344
20
1.49078
11
0.119444
21
1.49077
0
LINE
8
BLACK
6
CONTINUOUS
10
0.119444
20
1.49077
11
0.193114
21
1.48303
0
LINE
8
BLACK
6
CONTINUOUS
10
0.193114
20
1.48303
11
0.193215
21
1.48302
0
LINE
8
BLACK
6
CONTINUOUS
10
0.193215
20
1.48302
11
0.266405
21
1.47143
0
LINE
8
BLACK
6
CONTINUOUS
10
0.266405
20
1.47143
11
0.266451
21
1.47142
0
LINE
8
BLACK
6
CONTINUOUS
10
0.266451
20
1.47142
11
0.294815
21
1.46616
0
LINE
8
BLACK
6
CONTINUOUS
10
0.294815
20
1.46616
11
0.310936
21
1.46295
0
LINE
8
BLACK
6
CONTINUOUS
10
0.310936
20
1.46295
11
0.310982
21
1.46294
0
LINE
8
BLACK
6
CONTINUOUS
10
0.310982
20
1.46294
11
0.327013
21
1.45931
0
LINE
8
BLACK
6
CONTINUOUS
10
0.327013
20
1.45931
11
0.355064
21
1.45258
0
LINE
8
BLACK
6
CONTINUOUS
10
0.355064
20
1.45258
11
0.355109
21
1.45257
0
LINE
8
BLACK
6
CONTINUOUS
10
0.355109
20
1.45257
11
0.426686
21
1.43339
0
LINE
8
BLACK
6
CONTINUOUS
10
0.426686
20
1.43339
11
0.426783
21
1.43336
0
LINE
8
BLACK
6
CONTINUOUS
10
0.426783
20
1.43336
11
0.497231
21
1.41047
0
LINE
8
BLACK
6
CONTINUOUS
10
0.497231
20
1.41047
11
0.497328
21
1.41044
0
LINE
8
BLACK
6
CONTINUOUS
10
0.497328
20
1.41044
11
0.56651
21
1.38388
0
LINE
8
BLACK
6
CONTINUOUS
10
0.56651
20
1.38388
11
0.566555
21
1.38386
0
LINE
8
BLACK
6
CONTINUOUS
10
0.566555
20
1.38386
11
0.593206
21
1.37282
0
LINE
8
BLACK
6
CONTINUOUS
10
0.593206
20
1.37282
11
0.608305
21
1.36634
0
LINE
8
BLACK
6
CONTINUOUS
10
0.608305
20
1.36634
11
0.60835
21
1.36632
0
LINE
8
BLACK
6
CONTINUOUS
10
0.60835
20
1.36632
11
0.623274
21
1.35944
0
LINE
8
BLACK
6
CONTINUOUS
10
0.623274
20
1.35944
11
0.649313
21
1.34702
0
LINE
8
BLACK
6
CONTINUOUS
10
0.649313
20
1.34702
11
0.649359
21
1.347
0
LINE
8
BLACK
6
CONTINUOUS
10
0.649359
20
1.347
11
0.715382
21
1.31336
0
LINE
8
BLACK
6
CONTINUOUS
10
0.715382
20
1.31336
11
0.715472
21
1.31331
0
LINE
8
BLACK
6
CONTINUOUS
10
0.715472
20
1.31331
11
0.754844
21
1.29057
0
LINE
8
BLACK
6
CONTINUOUS
10
0.754844
20
1.29057
11
0.77962
21
1.27627
0
LINE
8
BLACK
6
CONTINUOUS
10
0.77962
20
1.27627
11
0.77962
21
1.27627
0
LINE
8
BLACK
6
CONTINUOUS
10
0.77962
20
1.27627
11
0.779707
21
1.27622
0
LINE
8
BLACK
6
CONTINUOUS
10
0.779707
20
1.27622
11
0.841855
21
1.23586
0
LINE
8
BLACK
6
CONTINUOUS
10
0.841855
20
1.23586
11
0.841895
21
1.23583
0
LINE
8
BLACK
6
CONTINUOUS
10
0.841895
20
1.23583
11
0.86263
21
1.22158
0
LINE
8
BLACK
6
CONTINUOUS
10
0.86263
20
1.22158
11
0.865669
21
1.21949
0
LINE
8
BLACK
6
CONTINUOUS
10
0.865669
20
1.21949
11
0.879089
21
1.21001
0
LINE
8
BLACK
6
CONTINUOUS
10
0.879089
20
1.21001
11
0.87913
21
1.20998
0
LINE
8
BLACK
6
CONTINUOUS
10
0.87913
20
1.20998
11
0.892296
21
1.20014
0
LINE
8
BLACK
6
CONTINUOUS
10
0.892296
20
1.20014
11
0.935546
21
1.16696
0
LINE
8
BLACK
6
CONTINUOUS
10
0.935546
20
1.16696
11
0.935586
21
1.16692
0
LINE
8
BLACK
6
CONTINUOUS
10
0.935586
20
1.16692
11
0.953312
21
1.15257
0
LINE
8
BLACK
6
CONTINUOUS
10
0.953312
20
1.15257
11
0.953352
21
1.15254
0
LINE
8
BLACK
6
CONTINUOUS
10
0.953352
20
1.15254
11
0.954786
21
1.15131
0
LINE
8
BLACK
6
CONTINUOUS
10
0.954786
20
1.15131
11
0.957942
21
1.14862
0
LINE
8
BLACK
6
CONTINUOUS
10
0.957942
20
1.14862
11
0.961155
21
1.14587
0
LINE
8
BLACK
6
CONTINUOUS
10
0.961155
20
1.14587
11
0.961155
21
1.14587
0
LINE
8
BLACK
6
CONTINUOUS
10
0.961155
20
1.14587
11
0.962899
21
1.14439
0
LINE
8
BLACK
6
CONTINUOUS
10
0.962899
20
1.14439
11
0.962899
21
1.14439
0
LINE
8
BLACK
6
CONTINUOUS
10
0.962899
20
1.14439
11
0.962899
21
1.14439
0
LINE
8
BLACK
6
CONTINUOUS
10
0.962899
20
1.14439
11
0.964643
21
1.1429
0
LINE
8
BLACK
6
CONTINUOUS
10
0.964643
20
1.1429
11
0.966383
21
1.14141
0
LINE
8
BLACK
6
CONTINUOUS
10
0.966383
20
1.14141
11
0.966383
21
1.14141
0
LINE
8
BLACK
6
CONTINUOUS
10
0.966383
20
1.14141
11
0.971608
21
1.13695
0
LINE
8
BLACK
6
CONTINUOUS
10
0.971608
20
1.13695
11
0.971608
21
1.13695
0
LINE
8
BLACK
6
CONTINUOUS
10
0.971608
20
1.13695
11
0.971609
21
1.13695
0
LINE
8
BLACK
6
CONTINUOUS
10
0.971609
20
1.13695
11
0.971609
21
1.13695
0
LINE
8
BLACK
6
CONTINUOUS
10
0.971609
20
1.13695
11
0.973344
21
1.13546
0
LINE
8
BLACK
6
CONTINUOUS
10
0.973344
20
1.13546
11
0.973344
21
1.13546
0
LINE
8
BLACK
6
CONTINUOUS
10
0.973344
20
1.13546
11
0.973344
21
1.13546
0
LINE
8
BLACK
6
CONTINUOUS
10
0.973344
20
1.13546
11
0.98204
21
1.12804
0
LINE
8
BLACK
6
CONTINUOUS
10
0.98204
20
1.12804
11
0.98204
21
1.12804
0
LINE
8
BLACK
6
CONTINUOUS
10
0.98204
20
1.12804
11
0.98204
21
1.12804
0
LINE
8
BLACK
6
CONTINUOUS
10
0.98204
20
1.12804
11
0.984214
21
1.12618
0
LINE
8
BLACK
6
CONTINUOUS
10
0.984214
20
1.12618
11
0.995139
21
1.11685
0
LINE
8
BLACK
6
CONTINUOUS
10
0.995139
20
1.11685
11
0.99524
21
1.11677
0
LINE
8
BLACK
6
CONTINUOUS
10
0.99524
20
1.11677
11
0.995446
21
1.11659
0
LINE
8
BLACK
6
CONTINUOUS
10
0.995446
20
1.11659
11
0.995447
21
1.11659
0
LINE
8
BLACK
6
CONTINUOUS
10
0.995447
20
1.11659
11
0.995447
21
1.11659
0
LINE
8
BLACK
6
CONTINUOUS
10
0.995447
20
1.11659
11
0.997613
21
1.11474
0
LINE
8
BLACK
6
CONTINUOUS
10
0.997613
20
1.11474
11
0.999006
21
1.11355
0
LINE
8
BLACK
6
CONTINUOUS
10
0.999006
20
1.11355
11
0.999045
21
1.11351
0
LINE
8
BLACK
6
CONTINUOUS
10
0.999045
20
1.11351
11
1.0009
21
1.11184
0
LINE
8
BLACK
6
CONTINUOUS
10
1.0009
20
1.11184
11
1.00299
21
1.10996
0
LINE
8
BLACK
6
CONTINUOUS
10
1.00299
20
1.10996
11
1.00302
21
1.10993
0
LINE
8
BLACK
6
CONTINUOUS
10
1.00302
20
1.10993
11
1.00689
21
1.10626
0
LINE
8
BLACK
6
CONTINUOUS
10
1.00689
20
1.10626
11
1.01869
21
1.09506
0
LINE
8
BLACK
6
CONTINUOUS
10
1.01869
20
1.09506
11
1.02522
21
1.08886
0
LINE
8
BLACK
6
CONTINUOUS
10
1.02522
20
1.08886
11
1.02528
21
1.08881
0
LINE
8
BLACK
6
CONTINUOUS
10
1.02528
20
1.08881
11
1.03153
21
1.08239
0
LINE
8
BLACK
6
CONTINUOUS
10
1.03153
20
1.08239
11
1.03158
21
1.08233
0
LINE
8
BLACK
6
CONTINUOUS
10
1.03158
20
1.08233
11
1.03248
21
1.08134
0
LINE
8
BLACK
6
CONTINUOUS
10
1.03248
20
1.08134
11
1.03397
21
1.07968
0
LINE
8
BLACK
6
CONTINUOUS
10
1.03397
20
1.07968
11
1.0341
21
1.07952
0
LINE
8
BLACK
6
CONTINUOUS
10
1.0341
20
1.07952
11
1.04342
21
1.06669
0
LINE
8
BLACK
6
CONTINUOUS
10
1.04342
20
1.06669
11
1.04383
21
1.06599
0
LINE
8
BLACK
6
CONTINUOUS
10
1.04383
20
1.06599
11
1.05016
21
1.05178
0
LINE
8
BLACK
6
CONTINUOUS
10
1.05016
20
1.05178
11
1.05041
21
1.05101
0
LINE
8
BLACK
6
CONTINUOUS
10
1.05041
20
1.05101
11
1.05364
21
1.03579
0
LINE
8
BLACK
6
CONTINUOUS
10
1.05364
20
1.03579
11
1.05373
21
1.03498
0
LINE
8
BLACK
6
CONTINUOUS
10
1.05373
20
1.03498
11
1.05373
21
1.01943
0
LINE
8
BLACK
6
CONTINUOUS
10
1.05373
20
1.01943
11
1.05364
21
1.01862
0
LINE
8
BLACK
6
CONTINUOUS
10
1.05364
20
1.01862
11
1.05041
21
1.00341
0
LINE
8
BLACK
6
CONTINUOUS
10
1.05041
20
1.00341
11
1.05016
21
1.00263
0
LINE
8
BLACK
6
CONTINUOUS
10
1.05016
20
1.00263
11
1.04383
21
0.988428
0
LINE
8
BLACK
6
CONTINUOUS
10
1.04383
20
0.988428
11
1.04342
21
0.987723
0
LINE
8
BLACK
6
CONTINUOUS
10
1.04342
20
0.987723
11
1.03411
21
0.974901
0
LINE
8
BLACK
6
CONTINUOUS
10
1.03411
20
0.974901
11
1.03396
21
0.974723
0
LINE
8
BLACK
6
CONTINUOUS
10
1.03396
20
0.974723
11
1.02286
21
0.962721
0
LINE
8
BLACK
6
CONTINUOUS
10
1.02286
20
0.962721
11
1.02265
21
0.962502
0
LINE
8
BLACK
6
CONTINUOUS
10
1.02265
20
0.962502
11
1.02135
21
0.961128
0
LINE
8
BLACK
6
CONTINUOUS
10
1.02135
20
0.961128
11
1.01095
21
0.950184
0
LINE
8
BLACK
6
CONTINUOUS
10
1.01095
20
0.950184
11
1.01054
21
0.949755
0
LINE
8
BLACK
6
CONTINUOUS
10
1.01054
20
0.949755
11
1.01034
21
0.949544
0
LINE
8
BLACK
6
CONTINUOUS
10
1.01034
20
0.949544
11
1.00884
21
0.947964
0
LINE
8
BLACK
6
CONTINUOUS
10
1.00884
20
0.947964
11
1.00606
21
0.945042
0
LINE
8
BLACK
6
CONTINUOUS
10
1.00606
20
0.945042
11
1.00606
21
0.945042
0
LINE
8
BLACK
6
CONTINUOUS
10
1.00606
20
0.945042
11
0.985385
21
0.923273
0
LINE
8
BLACK
6
CONTINUOUS
10
0.985385
20
0.923273
11
0.983772
21
0.921575
0
LINE
8
BLACK
6
CONTINUOUS
10
0.983772
20
0.921575
11
0.961226
21
0.897841
0
LINE
8
BLACK
6
CONTINUOUS
10
0.961226
20
0.897841
11
0.961018
21
0.897622
0
LINE
8
BLACK
6
CONTINUOUS
10
0.961018
20
0.897622
11
0.960827
21
0.897421
0
LINE
8
BLACK
6
CONTINUOUS
10
0.960827
20
0.897421
11
0.960827
21
0.897421
0
LINE
8
BLACK
6
CONTINUOUS
10
0.960827
20
0.897421
11
0.959565
21
0.896093
0
LINE
8
BLACK
6
CONTINUOUS
10
0.959565
20
0.896093
11
0.959565
21
0.896093
0
LINE
8
BLACK
6
CONTINUOUS
10
0.959565
20
0.896093
11
0.933775
21
0.868946
0
LINE
8
BLACK
6
CONTINUOUS
10
0.933775
20
0.868946
11
0.933775
21
0.868946
0
LINE
8
BLACK
6
CONTINUOUS
10
0.933775
20
0.868946
11
0.932551
21
0.867658
0
LINE
8
BLACK
6
CONTINUOUS
10
0.932551
20
0.867658
11
0.904314
21
0.837934
0
LINE
8
BLACK
6
CONTINUOUS
10
0.904314
20
0.837934
11
0.903128
21
0.836685
0
LINE
8
BLACK
6
CONTINUOUS
10
0.903128
20
0.836685
11
0.872518
21
0.804464
0
LINE
8
BLACK
6
CONTINUOUS
10
0.872518
20
0.804464
11
0.872518
21
0.804464
0
LINE
8
BLACK
6
CONTINUOUS
10
0.872518
20
0.804464
11
0.870006
21
0.80182
0
LINE
8
BLACK
6
CONTINUOUS
10
0.870006
20
0.80182
11
0.843428
21
0.773844
0
LINE
8
BLACK
6
CONTINUOUS
10
0.843428
20
0.773844
11
0.83991
21
0.770141
0
LINE
8
BLACK
6
CONTINUOUS
10
0.83991
20
0.770141
11
0.83991
21
0.77014
0
LINE
8
BLACK
6
CONTINUOUS
10
0.83991
20
0.77014
11
0.836608
21
0.766664
0
LINE
8
BLACK
6
CONTINUOUS
10
0.836608
20
0.766664
11
0.829317
21
0.75899
0
LINE
8
BLACK
6
CONTINUOUS
10
0.829317
20
0.75899
11
0.829317
21
0.75899
0
LINE
8
BLACK
6
CONTINUOUS
10
0.829317
20
0.75899
11
0.810328
21
0.739002
0
LINE
8
BLACK
6
CONTINUOUS
10
0.810328
20
0.739002
11
0.810329
21
0.739002
0
LINE
8
BLACK
6
CONTINUOUS
10
0.810329
20
0.739002
11
0.806563
21
0.735039
0
LINE
8
BLACK
6
CONTINUOUS
10
0.806563
20
0.735039
11
0.806435
21
0.734915
0
LINE
8
BLACK
6
CONTINUOUS
10
0.806435
20
0.734915
11
0.794465
21
0.724424
0
LINE
8
BLACK
6
CONTINUOUS
10
0.794465
20
0.724424
11
0.793845
21
0.72398
0
LINE
8
BLACK
6
CONTINUOUS
10
0.793845
20
0.72398
11
0.780356
21
0.716191
0
LINE
8
BLACK
6
CONTINUOUS
10
0.780356
20
0.716191
11
0.779611
21
0.71586
0
LINE
8
BLACK
6
CONTINUOUS
10
0.779611
20
0.71586
11
0.774598
21
0.714231
0
LINE
8
BLACK
6
CONTINUOUS
10
0.774598
20
0.714231
11
0.764818
21
0.711054
0
LINE
8
BLACK
6
CONTINUOUS
10
0.764818
20
0.711054
11
0.764021
21
0.710884
0
LINE
8
BLACK
6
CONTINUOUS
10
0.764021
20
0.710884
11
0.748555
21
0.709259
0
LINE
8
BLACK
6
CONTINUOUS
10
0.748555
20
0.709259
11
0.74774
21
0.709259
0
LINE
8
BLACK
6
CONTINUOUS
10
0.74774
20
0.709259
11
0.732273
21
0.710884
0
LINE
8
BLACK
6
CONTINUOUS
10
0.732273
20
0.710884
11
0.731476
21
0.711054
0
LINE
8
BLACK
6
CONTINUOUS
10
0.731476
20
0.711054
11
0.725479
21
0.713003
0
LINE
8
BLACK
6
CONTINUOUS
10
0.725479
20
0.713003
11
0.716686
21
0.71586
0
LINE
8
BLACK
6
CONTINUOUS
10
0.716686
20
0.71586
11
0.715942
21
0.716191
0
LINE
8
BLACK
6
CONTINUOUS
10
0.715942
20
0.716191
11
0.702452
21
0.72398
0
LINE
8
BLACK
6
CONTINUOUS
10
0.702452
20
0.72398
11
0.702408
21
0.724005
0
LINE
8
BLACK
6
CONTINUOUS
10
0.702408
20
0.724005
11
0.701865
21
0.724383
0
LINE
8
BLACK
6
CONTINUOUS
10
0.701865
20
0.724383
11
0.696703
21
0.728676
0
LINE
8
BLACK
6
CONTINUOUS
10
0.696703
20
0.728676
11
0.689539
21
0.734633
0
LINE
8
BLACK
6
CONTINUOUS
10
0.689539
20
0.734633
11
0.689444
21
0.734718
0
LINE
8
BLACK
6
CONTINUOUS
10
0.689444
20
0.734718
11
0.68493
21
0.739001
0
LINE
8
BLACK
6
CONTINUOUS
10
0.68493
20
0.739001
11
0.68493
21
0.739001
0
LINE
8
BLACK
6
CONTINUOUS
10
0.68493
20
0.739001
11
0.684929
21
0.739002
0
LINE
8
BLACK
6
CONTINUOUS
10
0.684929
20
0.739002
11
0.663357
21
0.758425
0
LINE
8
BLACK
6
CONTINUOUS
10
0.663357
20
0.758425
11
0.663356
21
0.758426
0
LINE
8
BLACK
6
CONTINUOUS
10
0.663356
20
0.758426
11
0.663356
21
0.758427
0
LINE
8
BLACK
6
CONTINUOUS
10
0.663356
20
0.758427
11
0.663355
21
0.758427
0
LINE
8
BLACK
6
CONTINUOUS
10
0.663355
20
0.758427
11
0.649641
21
0.770141
0
LINE
8
BLACK
6
CONTINUOUS
10
0.649641
20
0.770141
11
0.611841
21
0.800751
0
LINE
8
BLACK
6
CONTINUOUS
10
0.611841
20
0.800751
11
0.611839
21
0.800753
0
LINE
8
BLACK
6
CONTINUOUS
10
0.611839
20
0.800753
11
0.5704
21
0.830861
0
LINE
8
BLACK
6
CONTINUOUS
10
0.5704
20
0.830861
11
0.570254
21
0.830872
0
LINE
8
BLACK
6
CONTINUOUS
10
0.570254
20
0.830872
11
0.569623
21
0.831204
0
LINE
8
BLACK
6
CONTINUOUS
10
0.569623
20
0.831204
11
0.531698
21
0.855832
0
LINE
8
BLACK
6
CONTINUOUS
10
0.531698
20
0.855832
11
0.528191
21
0.857981
0
LINE
8
BLACK
6
CONTINUOUS
10
0.528191
20
0.857981
11
0.528189
21
0.857982
0
LINE
8
BLACK
6
CONTINUOUS
10
0.528189
20
0.857982
11
0.528189
21
0.857982
0
LINE
8
BLACK
6
CONTINUOUS
10
0.528189
20
0.857982
11
0.528189
21
0.857982
0
LINE
8
BLACK
6
CONTINUOUS
10
0.528189
20
0.857982
11
0.51143
21
0.867658
0
LINE
8
BLACK
6
CONTINUOUS
10
0.51143
20
0.867658
11
0.478941
21
0.886414
0
LINE
8
BLACK
6
CONTINUOUS
10
0.478941
20
0.886414
11
0.477094
21
0.887417
0
LINE
8
BLACK
6
CONTINUOUS
10
0.477094
20
0.887417
11
0.475321
21
0.88838
0
LINE
8
BLACK
6
CONTINUOUS
10
0.475321
20
0.88838
11
0.431985
21
0.910462
0
LINE
8
BLACK
6
CONTINUOUS
10
0.431985
20
0.910462
11
0.431983
21
0.910463
0
LINE
8
BLACK
6
CONTINUOUS
10
0.431983
20
0.910463
11
0.396439
21
0.926289
0
LINE
8
BLACK
6
CONTINUOUS
10
0.396439
20
0.926289
11
0.387552
21
0.930246
0
LINE
8
BLACK
6
CONTINUOUS
10
0.387552
20
0.930246
11
0.387552
21
0.930246
0
LINE
8
BLACK
6
CONTINUOUS
10
0.387552
20
0.930246
11
0.387552
21
0.930246
0
LINE
8
BLACK
6
CONTINUOUS
10
0.387552
20
0.930246
11
0.387551
21
0.930246
0
LINE
8
BLACK
6
CONTINUOUS
10
0.387551
20
0.930246
11
0.387551
21
0.930247
0
LINE
8
BLACK
6
CONTINUOUS
10
0.387551
20
0.930247
11
0.38755
21
0.930247
0
LINE
8
BLACK
6
CONTINUOUS
10
0.38755
20
0.930247
11
0.342145
21
0.947675
0
LINE
8
BLACK
6
CONTINUOUS
10
0.342145
20
0.947675
11
0.342141
21
0.947676
0
LINE
8
BLACK
6
CONTINUOUS
10
0.342141
20
0.947676
11
0.338264
21
0.949049
0
LINE
8
BLACK
6
CONTINUOUS
10
0.338264
20
0.949049
11
0.338262
21
0.94905
0
LINE
8
BLACK
6
CONTINUOUS
10
0.338262
20
0.94905
11
0.297458
21
0.962307
0
LINE
8
BLACK
6
CONTINUOUS
10
0.297458
20
0.962307
11
0.284178
21
0.966622
0
LINE
8
BLACK
6
CONTINUOUS
10
0.284178
20
0.966622
11
0.283387
21
0.966856
0
LINE
8
BLACK
6
CONTINUOUS
10
0.283387
20
0.966856
11
0.280232
21
0.967791
0
LINE
8
BLACK
6
CONTINUOUS
10
0.280232
20
0.967791
11
0.28023
21
0.967792
0
LINE
8
BLACK
6
CONTINUOUS
10
0.28023
20
0.967792
11
0.233249
21
0.98038
0
LINE
8
BLACK
6
CONTINUOUS
10
0.233249
20
0.98038
11
0.233249
21
0.98038
0
LINE
8
BLACK
6
CONTINUOUS
10
0.233249
20
0.98038
11
0.233248
21
0.98038
0
LINE
8
BLACK
6
CONTINUOUS
10
0.233248
20
0.98038
11
0.185674
21
0.990494
0
LINE
8
BLACK
6
CONTINUOUS
10
0.185674
20
0.990494
11
0.185673
21
0.990494
0
LINE
8
BLACK
6
CONTINUOUS
10
0.185673
20
0.990494
11
0.185673
21
0.990494
0
LINE
8
BLACK
6
CONTINUOUS
10
0.185673
20
0.990494
11
0.185656
21
0.990498
0
LINE
8
BLACK
6
CONTINUOUS
10
0.185656
20
0.990498
11
0.185623
21
0.990502
0
LINE
8
BLACK
6
CONTINUOUS
10
0.185623
20
0.990502
11
0.150601
21
0.99605
0
LINE
8
BLACK
6
CONTINUOUS
10
0.150601
20
0.99605
11
0.137634
21
0.998105
0
LINE
8
BLACK
6
CONTINUOUS
10
0.137634
20
0.998105
11
0.137634
21
0.998105
0
LINE
8
BLACK
6
CONTINUOUS
10
0.137634
20
0.998105
11
0.137633
21
0.998105
0
LINE
8
BLACK
6
CONTINUOUS
10
0.137633
20
0.998105
11
0.134405
21
0.99853
0
LINE
8
BLACK
6
CONTINUOUS
10
0.134405
20
0.99853
11
0.134267
21
0.998548
0
LINE
8
BLACK
6
CONTINUOUS
10
0.134267
20
0.998548
11
0.133554
21
0.998642
0
LINE
8
BLACK
6
CONTINUOUS
10
0.133554
20
0.998642
11
0.133553
21
0.998642
0
LINE
8
BLACK
6
CONTINUOUS
10
0.133553
20
0.998642
11
0.133552
21
0.998642
0
LINE
8
BLACK
6
CONTINUOUS
10
0.133552
20
0.998642
11
0.114557
21
1.00064
0
LINE
8
BLACK
6
CONTINUOUS
10
0.114557
20
1.00064
11
0.0769966
21
1.00458
0
LINE
8
BLACK
6
CONTINUOUS
10
0.0769966
20
1.00458
11
0.0769956
21
1.00458
0
LINE
8
BLACK
6
CONTINUOUS
10
0.0769956
20
1.00458
11
0.076995
21
1.00458
0
LINE
8
BLACK
6
CONTINUOUS
10
0.076995
20
1.00458
11
0.0769141
21
1.00459
0
LINE
8
BLACK
6
CONTINUOUS
10
0.0769141
20
1.00459
11
0.0728924
21
1.00491
0
LINE
8
BLACK
6
CONTINUOUS
10
0.0728924
20
1.00491
11
0.0728915
21
1.00491
0
LINE
8
BLACK
6
CONTINUOUS
10
0.0728915
20
1.00491
11
0.0243198
21
1.00745
0
LINE
8
BLACK
6
CONTINUOUS
10
0.0243198
20
1.00745
11
0.0243193
21
1.00745
0
LINE
8
BLACK
6
CONTINUOUS
10
0.0243193
20
1.00745
11
-0.0243193
21
1.00745
0
LINE
8
BLACK
6
CONTINUOUS
10
-0.0243193
20
1.00745
11
-0.0243198
21
1.00745
0
LINE
8
BLACK
6
CONTINUOUS
10
-0.0243198
20
1.00745
11
-0.0728915
21
1.00491
0
LINE
8
BLACK
6
CONTINUOUS
10
-0.0728915
20
1.00491
11
-0.0728925
21
1.00491
0
LINE
8
BLACK
6
CONTINUOUS
10
-0.0728925
20
1.00491
11
-0.0769946
21
1.00458
0
LINE
8
BLACK
6
CONTINUOUS
10
-0.0769946
20
1.00458
11
-0.0769948
21
1.00458
0
LINE
8
BLACK
6
CONTINUOUS
10
-0.0769948
20
1.00458
11
-0.0769951
21
1.00458
0
LINE
8
BLACK
6
CONTINUOUS
10
-0.0769951
20
1.00458
11
-0.0769955
21
1.00458
0
LINE
8
BLACK
6
CONTINUOUS
10
-0.0769955
20
1.00458
11
-0.0769968
21
1.00458
0
LINE
8
BLACK
6
CONTINUOUS
10
-0.0769968
20
1.00458
11
-0.0972788
21
1.00245
0
LINE
8
BLACK
6
CONTINUOUS
10
-0.0972788
20
1.00245
11
-0.133552
21
0.998642
0
LINE
8
BLACK
6
CONTINUOUS
10
-0.133552
20
0.998642
11
-0.133553
21
0.998642
0
LINE
8
BLACK
6
CONTINUOUS
10
-0.133553
20
0.998642
11
-0.133554
21
0.998642
0
LINE
8
BLACK
6
CONTINUOUS
10
-0.133554
20
0.998642
11
-0.13705
21
0.998181
0
LINE
8
BLACK
6
CONTINUOUS
10
-0.13705
20
0.998181
11
-0.137634
21
0.998105
0
LINE
8
BLACK
6
CONTINUOUS
10
-0.137634
20
0.998105
11
-0.146676
21
0.996672
0
LINE
8
BLACK
6
CONTINUOUS
10
-0.146676
20
0.996672
11
-0.185673
21
0.990494
0
LINE
8
BLACK
6
CONTINUOUS
10
-0.185673
20
0.990494
11
-0.233248
21
0.98038
0
LINE
8
BLACK
6
CONTINUOUS
10
-0.233248
20
0.98038
11
-0.233249
21
0.98038
0
LINE
8
BLACK
6
CONTINUOUS
10
-0.233249
20
0.98038
11
-0.233249
21
0.98038
0
LINE
8
BLACK
6
CONTINUOUS
10
-0.233249
20
0.98038
11
-0.28023
21
0.967792
0
LINE
8
BLACK
6
CONTINUOUS
10
-0.28023
20
0.967792
11
-0.280231
21
0.967791
0
LINE
8
BLACK
6
CONTINUOUS
10
-0.280231
20
0.967791
11
-0.280232
21
0.967791
0
LINE
8
BLACK
6
CONTINUOUS
10
-0.280232
20
0.967791
11
-0.284178
21
0.966622
0
LINE
8
BLACK
6
CONTINUOUS
10
-0.284178
20
0.966622
11
-0.338264
21
0.949049
0
LINE
8
BLACK
6
CONTINUOUS
10
-0.338264
20
0.949049
11
-0.342143
21
0.947675
0
LINE
8
BLACK
6
CONTINUOUS
10
-0.342143
20
0.947675
11
-0.342145
21
0.947675
0
LINE
8
BLACK
6
CONTINUOUS
10
-0.342145
20
0.947675
11
-0.387551
21
0.930247
0
LINE
8
BLACK
6
CONTINUOUS
10
-0.387551
20
0.930247
11
-0.387588
21
0.930231
0
LINE
8
BLACK
6
CONTINUOUS
10
-0.387588
20
0.930231
11
-0.387594
21
0.930227
0
LINE
8
BLACK
6
CONTINUOUS
10
-0.387594
20
0.930227
11
-0.431983
21
0.910463
0
LINE
8
BLACK
6
CONTINUOUS
10
-0.431983
20
0.910463
11
-0.431985
21
0.910462
0
LINE
8
BLACK
6
CONTINUOUS
10
-0.431985
20
0.910462
11
-0.475321
21
0.88838
0
LINE
8
BLACK
6
CONTINUOUS
10
-0.475321
20
0.88838
11
-0.478201
21
0.886816
0
LINE
8
BLACK
6
CONTINUOUS
10
-0.478201
20
0.886816
11
-0.478942
21
0.886414
0
LINE
8
BLACK
6
CONTINUOUS
10
-0.478942
20
0.886414
11
-0.503179
21
0.872421
0
LINE
8
BLACK
6
CONTINUOUS
10
-0.503179
20
0.872421
11
-0.528189
21
0.857982
0
LINE
8
BLACK
6
CONTINUOUS
10
-0.528189
20
0.857982
11
-0.528191
21
0.857981
0
LINE
8
BLACK
6
CONTINUOUS
10
-0.528191
20
0.857981
11
-0.531697
21
0.855833
0
LINE
8
BLACK
6
CONTINUOUS
10
-0.531697
20
0.855833
11
-0.569624
21
0.831204
0
LINE
8
BLACK
6
CONTINUOUS
10
-0.569624
20
0.831204
11
-0.570106
21
0.831075
0
LINE
8
BLACK
6
CONTINUOUS
10
-0.570106
20
0.831075
11
-0.611839
21
0.800753
0
LINE
8
BLACK
6
CONTINUOUS
10
-0.611839
20
0.800753
11
-0.611842
21
0.800751
0
LINE
8
BLACK
6
CONTINUOUS
10
-0.611842
20
0.800751
11
-0.64964
21
0.770141
0
LINE
8
BLACK
6
CONTINUOUS
10
-0.64964
20
0.770141
11
-0.656017
21
0.764695
0
LINE
8
BLACK
6
CONTINUOUS
10
-0.656017
20
0.764695
11
-0.658097
21
0.762919
0
LINE
8
BLACK
6
CONTINUOUS
10
-0.658097
20
0.762919
11
-0.661374
21
0.760119
0
LINE
8
BLACK
6
CONTINUOUS
10
-0.661374
20
0.760119
11
-0.662697
21
0.75899
0
LINE
8
BLACK
6
CONTINUOUS
10
-0.662697
20
0.75899
11
-0.663358
21
0.758425
0
LINE
8
BLACK
6
CONTINUOUS
10
-0.663358
20
0.758425
11
-0.682081
21
0.741566
0
LINE
8
BLACK
6
CONTINUOUS
10
-0.682081
20
0.741566
11
-0.68493
21
0.739001
0
LINE
8
BLACK
6
CONTINUOUS
10
-0.68493
20
0.739001
11
-0.689444
21
0.734718
0
LINE
8
BLACK
6
CONTINUOUS
10
-0.689444
20
0.734718
11
-0.68954
21
0.734633
0
LINE
8
BLACK
6
CONTINUOUS
10
-0.68954
20
0.734633
11
-0.701865
21
0.724384
0
LINE
8
BLACK
6
CONTINUOUS
10
-0.701865
20
0.724384
11
-0.702408
21
0.724005
0
LINE
8
BLACK
6
CONTINUOUS
10
-0.702408
20
0.724005
11
-0.709794
21
0.719741
0
LINE
8
BLACK
6
CONTINUOUS
10
-0.709794
20
0.719741
11
-0.715943
21
0.716191
0
LINE
8
BLACK
6
CONTINUOUS
10
-0.715943
20
0.716191
11
-0.716687
21
0.71586
0
LINE
8
BLACK
6
CONTINUOUS
10
-0.716687
20
0.71586
11
-0.731477
21
0.711054
0
LINE
8
BLACK
6
CONTINUOUS
10
-0.731477
20
0.711054
11
-0.732274
21
0.710884
0
LINE
8
BLACK
6
CONTINUOUS
10
-0.732274
20
0.710884
11
-0.74231
21
0.70983
0
LINE
8
BLACK
6
CONTINUOUS
10
-0.74231
20
0.70983
11
-0.747741
21
0.709259
0
LINE
8
BLACK
6
CONTINUOUS
10
-0.747741
20
0.709259
11
-0.748555
21
0.709259
0
LINE
8
BLACK
6
CONTINUOUS
10
-0.748555
20
0.709259
11
-0.753329
21
0.709761
0
LINE
8
BLACK
6
CONTINUOUS
10
-0.753329
20
0.709761
11
-0.764022
21
0.710884
0
LINE
8
BLACK
6
CONTINUOUS
10
-0.764022
20
0.710884
11
-0.764819
21
0.711054
0
LINE
8
BLACK
6
CONTINUOUS
10
-0.764819
20
0.711054
11
-0.770722
21
0.712972
0
LINE
8
BLACK
6
CONTINUOUS
10
-0.770722
20
0.712972
11
-0.779612
21
0.71586
0
LINE
8
BLACK
6
CONTINUOUS
10
-0.779612
20
0.71586
11
-0.780356
21
0.716191
0
LINE
8
BLACK
6
CONTINUOUS
10
-0.780356
20
0.716191
11
-0.793846
21
0.72398
0
LINE
8
BLACK
6
CONTINUOUS
10
-0.793846
20
0.72398
11
-0.794466
21
0.724424
0
LINE
8
BLACK
6
CONTINUOUS
10
-0.794466
20
0.724424
11
-0.806435
21
0.734915
0
LINE
8
BLACK
6
CONTINUOUS
10
-0.806435
20
0.734915
11
-0.806564
21
0.735039
0
LINE
8
BLACK
6
CONTINUOUS
10
-0.806564
20
0.735039
11
-0.810329
21
0.739002
0
LINE
8
BLACK
6
CONTINUOUS
10
-0.810329
20
0.739002
11
-0.810329
21
0.739002
0
LINE
8
BLACK
6
CONTINUOUS
10
-0.810329
20
0.739002
11
-0.829317
21
0.75899
0
LINE
8
BLACK
6
CONTINUOUS
10
-0.829317
20
0.75899
11
-0.829317
21
0.75899
0
LINE
8
BLACK
6
CONTINUOUS
10
-0.829317
20
0.75899
11
-0.83847
21
0.768624
0
LINE
8
BLACK
6
CONTINUOUS
10
-0.83847
20
0.768624
11
-0.871372
21
0.803258
0
LINE
8
BLACK
6
CONTINUOUS
10
-0.871372
20
0.803258
11
-0.872518
21
0.804464
0
LINE
8
BLACK
6
CONTINUOUS
10
-0.872518
20
0.804464
11
-0.872518
21
0.804464
0
LINE
8
BLACK
6
CONTINUOUS
10
-0.872518
20
0.804464
11
-0.903128
21
0.836685
0
LINE
8
BLACK
6
CONTINUOUS
10
-0.903128
20
0.836685
11
-0.904315
21
0.837934
0
LINE
8
BLACK
6
CONTINUOUS
10
-0.904315
20
0.837934
11
-0.904315
21
0.837934
0
LINE
8
BLACK
6
CONTINUOUS
10
-0.904315
20
0.837934
11
-0.932551
21
0.867658
0
LINE
8
BLACK
6
CONTINUOUS
10
-0.932551
20
0.867658
11
-0.933775
21
0.868946
0
LINE
8
BLACK
6
CONTINUOUS
10
-0.933775
20
0.868946
11
-0.933775
21
0.868946
0
LINE
8
BLACK
6
CONTINUOUS
10
-0.933775
20
0.868946
11
-0.959565
21
0.896093
0
LINE
8
BLACK
6
CONTINUOUS
10
-0.959565
20
0.896093
11
-0.960827
21
0.897421
0
LINE
8
BLACK
6
CONTINUOUS
10
-0.960827
20
0.897421
11
-0.960827
21
0.897421
0
LINE
8
BLACK
6
CONTINUOUS
10
-0.960827
20
0.897421
11
-0.960828
21
0.897421
0
LINE
8
BLACK
6
CONTINUOUS
10
-0.960828
20
0.897421
11
-0.973216
21
0.910462
0
LINE
8
BLACK
6
CONTINUOUS
10
-0.973216
20
0.910462
11
-0.983826
21
0.921631
0
LINE
8
BLACK
6
CONTINUOUS
10
-0.983826
20
0.921631
11
-0.984093
21
0.921912
0
LINE
8
BLACK
6
CONTINUOUS
10
-0.984093
20
0.921912
11
-0.985385
21
0.923272
0
LINE
8
BLACK
6
CONTINUOUS
10
-0.985385
20
0.923272
11
-0.985386
21
0.923273
0
LINE
8
BLACK
6
CONTINUOUS
10
-0.985386
20
0.923273
11
-1.00607
21
0.945042
0
LINE
8
BLACK
6
CONTINUOUS
10
-1.00607
20
0.945042
11
-1.00607
21
0.945042
0
LINE
8
BLACK
6
CONTINUOUS
10
-1.00607
20
0.945042
11
-1.00857
21
0.947676
0
LINE
8
BLACK
6
CONTINUOUS
10
-1.00857
20
0.947676
11
-1.00987
21
0.949049
0
LINE
8
BLACK
6
CONTINUOUS
10
-1.00987
20
0.949049
11
-1.01034
21
0.949544
0
LINE
8
BLACK
6
CONTINUOUS
10
-1.01034
20
0.949544
11
-1.02247
21
0.962307
0
LINE
8
BLACK
6
CONTINUOUS
10
-1.02247
20
0.962307
11
-1.02286
21
0.962721
0
LINE
8
BLACK
6
CONTINUOUS
10
-1.02286
20
0.962721
11
-1.02286
21
0.962721
0
LINE
8
BLACK
6
CONTINUOUS
10
-1.02286
20
0.962721
11
-1.03396
21
0.974723
0
LINE
8
BLACK
6
CONTINUOUS
10
-1.03396
20
0.974723
11
-1.03411
21
0.974901
0
LINE
8
BLACK
6
CONTINUOUS
10
-1.03411
20
0.974901
11
-1.04342
21
0.987723
0
LINE
8
BLACK
6
CONTINUOUS
10
-1.04342
20
0.987723
11
-1.04383
21
0.988428
0
LINE
8
BLACK
6
CONTINUOUS
10
-1.04383
20
0.988428
11
-1.05016
21
1.00263
0
LINE
8
BLACK
6
CONTINUOUS
10
-1.05016
20
1.00263
11
-1.05041
21
1.00341
0
LINE
8
BLACK
6
CONTINUOUS
10
-1.05041
20
1.00341
11
-1.05364
21
1.01862
0
LINE
8
BLACK
6
CONTINUOUS
10
-1.05364
20
1.01862
11
-1.05373
21
1.01943
0
LINE
8
BLACK
6
CONTINUOUS
10
-1.05373
20
1.01943
11
-1.05373
21
1.03498
0
LINE
8
BLACK
6
CONTINUOUS
10
-1.05373
20
1.03498
11
-1.05364
21
1.03579
0
LINE
8
BLACK
6
CONTINUOUS
10
-1.05364
20
1.03579
11
-1.05041
21
1.051
0
LINE
8
BLACK
6
CONTINUOUS
10
-1.05041
20
1.051
11
-1.05016
21
1.05178
0
LINE
8
BLACK
6
CONTINUOUS
10
-1.05016
20
1.05178
11
-1.04383
21
1.06599
0
LINE
8
BLACK
6
CONTINUOUS
10
-1.04383
20
1.06599
11
-1.04383
21
1.06599
0
LINE
8
BLACK
6
CONTINUOUS
10
-1.04383
20
1.06599
11
-1.04342
21
1.06669
0
LINE
8
BLACK
6
CONTINUOUS
10
-1.04342
20
1.06669
11
-1.0341
21
1.07952
0
LINE
8
BLACK
6
CONTINUOUS
10
-1.0341
20
1.07952
11
-1.03397
21
1.07968
0
LINE
8
BLACK
6
CONTINUOUS
10
-1.03397
20
1.07968
11
-1.03158
21
1.08233
0
LINE
8
BLACK
6
CONTINUOUS
10
-1.03158
20
1.08233
11
-1.03153
21
1.08239
0
LINE
8
BLACK
6
CONTINUOUS
10
-1.03153
20
1.08239
11
-1.02528
21
1.08881
0
LINE
8
BLACK
6
CONTINUOUS
10
-1.02528
20
1.08881
11
-1.02523
21
1.08886
0
LINE
8
BLACK
6
CONTINUOUS
10
-1.02523
20
1.08886
11
-1.02081
21
1.09305
0
LINE
8
BLACK
6
CONTINUOUS
10
-1.02081
20
1.09305
11
-1.01869
21
1.09506
0
LINE
8
BLACK
6
CONTINUOUS
10
-1.01869
20
1.09506
11
-1.00689
21
1.10626
0
LINE
8
BLACK
6
CONTINUOUS
10
-1.00689
20
1.10626
11
-1.00655
21
1.10658
0
LINE
8
BLACK
6
CONTINUOUS
10
-1.00655
20
1.10658
11
-1.00302
21
1.10993
0
LINE
8
BLACK
6
CONTINUOUS
10
-1.00302
20
1.10993
11
-1.00299
21
1.10996
0
LINE
8
BLACK
6
CONTINUOUS
10
-1.00299
20
1.10996
11
-0.999045
21
1.11351
0
LINE
8
BLACK
6
CONTINUOUS
10
-0.999045
20
1.11351
11
-0.999007
21
1.11355
0
LINE
8
BLACK
6
CONTINUOUS
10
-0.999007
20
1.11355
11
-0.995447
21
1.11659
0
LINE
8
BLACK
6
CONTINUOUS
10
-0.995447
20
1.11659
11
-0.984214
21
1.12618
0
LINE
8
BLACK
6
CONTINUOUS
10
-0.984214
20
1.12618
11
-0.982041
21
1.12804
0
LINE
8
BLACK
6
CONTINUOUS
10
-0.982041
20
1.12804
11
-0.973345
21
1.13546
0
LINE
8
BLACK
6
CONTINUOUS
10
-0.973345
20
1.13546
11
-0.973345
21
1.13546
0
LINE
8
BLACK
6
CONTINUOUS
10
-0.973345
20
1.13546
11
-0.97161
21
1.13695
0
LINE
8
BLACK
6
CONTINUOUS
10
-0.97161
20
1.13695
11
-0.966384
21
1.14141
0
LINE
8
BLACK
6
CONTINUOUS
10
-0.966384
20
1.14141
11
-0.964644
21
1.1429
0
LINE
8
BLACK
6
CONTINUOUS
10
-0.964644
20
1.1429
11
-0.9629
21
1.14439
0
LINE
8
BLACK
6
CONTINUOUS
10
-0.9629
20
1.14439
11
-0.9629
21
1.14439
0
LINE
8
BLACK
6
CONTINUOUS
10
-0.9629
20
1.14439
11
-0.962899
21
1.14439
0
LINE
8
BLACK
6
CONTINUOUS
10
-0.962899
20
1.14439
11
-0.961156
21
1.14587
0
LINE
8
BLACK
6
CONTINUOUS
10
-0.961156
20
1.14587
11
-0.95335
21
1.15254
0
LINE
8
BLACK
6
CONTINUOUS
10
-0.95335
20
1.15254
11
-0.953317
21
1.15257
0
LINE
8
BLACK
6
CONTINUOUS
10
-0.953317
20
1.15257
11
-0.935586
21
1.16693
0
LINE
8
BLACK
6
CONTINUOUS
10
-0.935586
20
1.16693
11
-0.935548
21
1.16696
0
LINE
8
BLACK
6
CONTINUOUS
10
-0.935548
20
1.16696
11
-0.892297
21
1.20014
0
LINE
8
BLACK
6
CONTINUOUS
10
-0.892297
20
1.20014
11
-0.87913
21
1.20998
0
LINE
8
BLACK
6
CONTINUOUS
10
-0.87913
20
1.20998
11
-0.87909
21
1.21001
0
LINE
8
BLACK
6
CONTINUOUS
10
-0.87909
20
1.21001
11
-0.86567
21
1.21949
0
LINE
8
BLACK
6
CONTINUOUS
10
-0.86567
20
1.21949
11
-0.841894
21
1.23583
0
LINE
8
BLACK
6
CONTINUOUS
10
-0.841894
20
1.23583
11
-0.841857
21
1.23586
0
LINE
8
BLACK
6
CONTINUOUS
10
-0.841857
20
1.23586
11
-0.779708
21
1.27622
0
LINE
8
BLACK
6
CONTINUOUS
10
-0.779708
20
1.27622
11
-0.779622
21
1.27627
0
LINE
8
BLACK
6
CONTINUOUS
10
-0.779622
20
1.27627
11
-0.715471
21
1.31331
0
LINE
8
BLACK
6
CONTINUOUS
10
-0.715471
20
1.31331
11
-0.715383
21
1.31336
0
LINE
8
BLACK
6
CONTINUOUS
10
-0.715383
20
1.31336
11
-0.649357
21
1.347
0
LINE
8
BLACK
6
CONTINUOUS
10
-0.649357
20
1.347
11
-0.649317
21
1.34702
0
LINE
8
BLACK
6
CONTINUOUS
10
-0.649317
20
1.34702
11
-0.623274
21
1.35944
0
LINE
8
BLACK
6
CONTINUOUS
10
-0.623274
20
1.35944
11
-0.608348
21
1.36632
0
LINE
8
BLACK
6
CONTINUOUS
10
-0.608348
20
1.36632
11
-0.60831
21
1.36634
0
LINE
8
BLACK
6
CONTINUOUS
10
-0.60831
20
1.36634
11
-0.593209
21
1.37282
0
LINE
8
BLACK
6
CONTINUOUS
10
-0.593209
20
1.37282
11
-0.586151
21
1.37575
0
LINE
8
BLACK
6
CONTINUOUS
10
-0.586151
20
1.37575
11
-0.566555
21
1.38386
0
LINE
8
BLACK
6
CONTINUOUS
10
-0.566555
20
1.38386
11
-0.56651
21
1.38388
0
LINE
8
BLACK
6
CONTINUOUS
10
-0.56651
20
1.38388
11
-0.497328
21
1.41044
0
LINE
8
BLACK
6
CONTINUOUS
10
-0.497328
20
1.41044
11
-0.497233
21
1.41047
0
LINE
8
BLACK
6
CONTINUOUS
10
-0.497233
20
1.41047
11
-0.426783
21
1.43336
0
LINE
8
BLACK
6
CONTINUOUS
10
-0.426783
20
1.43336
11
-0.426687
21
1.43339
0
LINE
8
BLACK
6
CONTINUOUS
10
-0.426687
20
1.43339
11
-0.355109
21
1.45257
0
LINE
8
BLACK
6
CONTINUOUS
10
-0.355109
20
1.45257
11
-0.355065
21
1.45258
0
LINE
8
BLACK
6
CONTINUOUS
10
-0.355065
20
1.45258
11
-0.327013
21
1.45931
0
LINE
8
BLACK
6
CONTINUOUS
10
-0.327013
20
1.45931
11
-0.310982
21
1.46294
0
LINE
8
BLACK
6
CONTINUOUS
10
-0.310982
20
1.46294
11
-0.310938
21
1.46295
0
LINE
8
BLACK
6
CONTINUOUS
10
-0.310938
20
1.46295
11
-0.294816
21
1.46616
0
LINE
8
BLACK
6
CONTINUOUS
10
-0.294816
20
1.46616
11
-0.266451
21
1.47142
0
LINE
8
BLACK
6
CONTINUOUS
10
-0.266451
20
1.47142
11
-0.266406
21
1.47142
0
LINE
8
BLACK
6
CONTINUOUS
10
-0.266406
20
1.47142
11
-0.193215
21
1.48302
0
LINE
8
BLACK
6
CONTINUOUS
10
-0.193215
20
1.48302
11
-0.193115
21
1.48303
0
LINE
8
BLACK
6
CONTINUOUS
10
-0.193115
20
1.48303
11
-0.170394
21
1.48542
0
LINE
8
BLACK
6
CONTINUOUS
10
-0.170394
20
1.48542
11
-0.119445
21
1.49077
0
LINE
8
BLACK
6
CONTINUOUS
10
-0.119445
20
1.49077
11
-0.119346
21
1.49078
0
LINE
8
BLACK
6
CONTINUOUS
10
-0.119346
20
1.49078
11
-0.045344
21
1.49466
0
LINE
8
BLACK
6
CONTINUOUS
10
-0.045344
20
1.49466
11
-0.045295
21
1.49466
0
LINE
8
BLACK
6
CONTINUOUS
10
-0.045295
20
1.49466
11
-0.0164599
21
1.49541
0
LINE
8
BLACK
6
CONTINUOUS
10
-0.0164599
20
1.49541
11
-0.00885449
21
1.49551
0
LINE
8
BLACK
6
CONTINUOUS
10
-0.00885449
20
1.49551
11
-2.44094e-05
21
1.49563
0
LINE
8
BLACK
6
CONTINUOUS
10
-2.44094e-05
20
1.49563
11
2.37795e-05
21
1.49563
0
LINE
8
BLACK
6
CONTINUOUS
10
2.37795e-05
20
1.49563
11
0.00872571
21
1.49552
0
LINE
8
BLACK
6
CONTINUOUS
10
-1.08339
20
-1.03731
11
-1.08339
21
-1.03732
0
LINE
8
BLACK
6
CONTINUOUS
10
-1.08339
20
-1.03732
11
-1.08314
21
-1.03968
0
LINE
8
BLACK
6
CONTINUOUS
10
-1.08314
20
-1.03968
11
-1.08314
21
-1.03968
0
LINE
8
BLACK
6
CONTINUOUS
10
-1.08314
20
-1.03968
11
-1.08296
21
-1.04083
0
LINE
8
BLACK
6
CONTINUOUS
10
-1.08296
20
-1.04083
11
-1.0829
21
-1.04121
0
LINE
8
BLACK
6
CONTINUOUS
10
-1.0829
20
-1.04121
11
-1.08023
21
-1.05377
0
LINE
8
BLACK
6
CONTINUOUS
10
-1.08023
20
-1.05377
11
-1.07934
21
-1.05795
0
LINE
8
BLACK
6
CONTINUOUS
10
-1.07934
20
-1.05795
11
-1.07934
21
-1.05795
0
LINE
8
BLACK
6
CONTINUOUS
10
-1.07934
20
-1.05795
11
-1.07894
21
-1.05945
0
LINE
8
BLACK
6
CONTINUOUS
10
-1.07894
20
-1.05945
11
-1.07894
21
-1.05946
0
LINE
8
BLACK
6
CONTINUOUS
10
-1.07894
20
-1.05946
11
-1.07894
21
-1.05946
0
LINE
8
BLACK
6
CONTINUOUS
10
-1.07894
20
-1.05946
11
-1.0782
21
-1.06171
0
LINE
8
BLACK
6
CONTINUOUS
10
-1.0782
20
-1.06171
11
-1.07764
21
-1.06317
0
LINE
8
BLACK
6
CONTINUOUS
10
-1.07764
20
-1.06317
11
-1.07739
21
-1.06374
0
LINE
8
BLACK
6
CONTINUOUS
10
-1.07739
20
-1.06374
11
-1.07069
21
-1.0788
0
LINE
8
BLACK
6
CONTINUOUS
10
-1.07069
20
-1.0788
11
-1.07069
21
-1.0788
0
LINE
8
BLACK
6
CONTINUOUS
10
-1.07069
20
-1.0788
11
-1.07042
21
-1.07932
0
LINE
8
BLACK
6
CONTINUOUS
10
-1.07042
20
-1.07932
11
-1.06998
21
-1.08018
0
LINE
8
BLACK
6
CONTINUOUS
10
-1.06998
20
-1.08018
11
-1.06879
21
-1.08224
0
LINE
8
BLACK
6
CONTINUOUS
10
-1.06879
20
-1.08224
11
-1.06879
21
-1.08224
0
LINE
8
BLACK
6
CONTINUOUS
10
-1.06879
20
-1.08224
11
-1.06794
21
-1.08355
0
LINE
8
BLACK
6
CONTINUOUS
10
-1.06794
20
-1.08355
11
-1.05793
21
-1.09732
0
LINE
8
BLACK
6
CONTINUOUS
10
-1.05793
20
-1.09732
11
-1.05793
21
-1.09732
0
LINE
8
BLACK
6
CONTINUOUS
10
-1.05793
20
-1.09732
11
-1.05746
21
-1.09794
0
LINE
8
BLACK
6
CONTINUOUS
10
-1.05746
20
-1.09794
11
-1.05746
21
-1.09794
0
LINE
8
BLACK
6
CONTINUOUS
10
-1.05746
20
-1.09794
11
-1.05725
21
-1.09819
0
LINE
8
BLACK
6
CONTINUOUS
10
-1.05725
20
-1.09819
11
-1.05684
21
-1.0987
0
LINE
8
BLACK
6
CONTINUOUS
10
-1.05684
20
-1.0987
11
-1.05633
21
-1.0993
0
LINE
8
BLACK
6
CONTINUOUS
10
-1.05633
20
-1.0993
11
-1.0563
21
-1.09933
0
LINE
8
BLACK
6
CONTINUOUS
10
-1.0563
20
-1.09933
11
-1.05349
21
-1.10245
0
LINE
8
BLACK
6
CONTINUOUS
10
-1.05349
20
-1.10245
11
-1.05349
21
-1.10245
0
LINE
8
BLACK
6
CONTINUOUS
10
-1.05349
20
-1.10245
11
-1.05304
21
-1.10293
0
LINE
8
BLACK
6
CONTINUOUS
10
-1.05304
20
-1.10293
11
-1.04638
21
-1.10977
0
LINE
8
BLACK
6
CONTINUOUS
10
-1.04638
20
-1.10977
11
-1.04638
21
-1.10977
0
LINE
8
BLACK
6
CONTINUOUS
10
-1.04638
20
-1.10977
11
-1.04638
21
-1.10977
0
LINE
8
BLACK
6
CONTINUOUS
10
-1.04638
20
-1.10977
11
-1.04591
21
-1.11023
0
LINE
8
BLACK
6
CONTINUOUS
10
-1.04591
20
-1.11023
11
-1.04591
21
-1.11023
0
LINE
8
BLACK
6
CONTINUOUS
10
-1.04591
20
-1.11023
11
-1.04591
21
-1.11023
0
LINE
8
BLACK
6
CONTINUOUS
10
-1.04591
20
-1.11023
11
-1.0424
21
-1.11357
0
LINE
8
BLACK
6
CONTINUOUS
10
-1.0424
20
-1.11357
11
-1.03917
21
-1.11663
0
LINE
8
BLACK
6
CONTINUOUS
10
-1.03917
20
-1.11663
11
-1.03917
21
-1.11663
0
LINE
8
BLACK
6
CONTINUOUS
10
-1.03917
20
-1.11663
11
-1.02737
21
-1.12783
0
LINE
8
BLACK
6
CONTINUOUS
10
-1.02737
20
-1.12783
11
-1.02737
21
-1.12783
0
LINE
8
BLACK
6
CONTINUOUS
10
-1.02737
20
-1.12783
11
-1.02336
21
-1.13164
0
LINE
8
BLACK
6
CONTINUOUS
10
-1.02336
20
-1.13164
11
-1.02303
21
-1.13194
0
LINE
8
BLACK
6
CONTINUOUS
10
-1.02303
20
-1.13194
11
-1.02061
21
-1.13412
0
LINE
8
BLACK
6
CONTINUOUS
10
-1.02061
20
-1.13412
11
-1.01881
21
-1.13575
0
LINE
8
BLACK
6
CONTINUOUS
10
-1.01881
20
-1.13575
11
-1.01847
21
-1.13604
0
LINE
8
BLACK
6
CONTINUOUS
10
-1.01847
20
-1.13604
11
-1.0169
21
-1.13738
0
LINE
8
BLACK
6
CONTINUOUS
10
-1.0169
20
-1.13738
11
-1.01477
21
-1.13921
0
LINE
8
BLACK
6
CONTINUOUS
10
-1.01477
20
-1.13921
11
-1.01477
21
-1.13921
0
LINE
8
BLACK
6
CONTINUOUS
10
-1.01477
20
-1.13921
11
-1.00353
21
-1.1488
0
LINE
8
BLACK
6
CONTINUOUS
10
-1.00353
20
-1.1488
11
-1.00353
21
-1.1488
0
LINE
8
BLACK
6
CONTINUOUS
10
-1.00353
20
-1.1488
11
-1.0014
21
-1.15062
0
LINE
8
BLACK
6
CONTINUOUS
10
-1.0014
20
-1.15062
11
-1.0014
21
-1.15062
0
LINE
8
BLACK
6
CONTINUOUS
10
-1.0014
20
-1.15062
11
-0.992659
21
-1.15808
0
LINE
8
BLACK
6
CONTINUOUS
10
-0.992659
20
-1.15808
11
-0.990922
21
-1.15957
0
LINE
8
BLACK
6
CONTINUOUS
10
-0.990922
20
-1.15957
11
-0.985763
21
-1.16397
0
LINE
8
BLACK
6
CONTINUOUS
10
-0.985763
20
-1.16397
11
-0.985707
21
-1.16402
0
LINE
8
BLACK
6
CONTINUOUS
10
-0.985707
20
-1.16402
11
-0.985707
21
-1.16402
0
LINE
8
BLACK
6
CONTINUOUS
10
-0.985707
20
-1.16402
11
-0.983963
21
-1.16551
0
LINE
8
BLACK
6
CONTINUOUS
10
-0.983963
20
-1.16551
11
-0.982316
21
-1.16692
0
LINE
8
BLACK
6
CONTINUOUS
10
-0.982316
20
-1.16692
11
-0.982251
21
-1.16697
0
LINE
8
BLACK
6
CONTINUOUS
10
-0.982251
20
-1.16697
11
-0.98065
21
-1.16834
0
LINE
8
BLACK
6
CONTINUOUS
10
-0.98065
20
-1.16834
11
-0.978327
21
-1.17032
0
LINE
8
BLACK
6
CONTINUOUS
10
-0.978327
20
-1.17032
11
-0.972516
21
-1.17529
0
LINE
8
BLACK
6
CONTINUOUS
10
-0.972516
20
-1.17529
11
-0.972178
21
-1.17557
0
LINE
8
BLACK
6
CONTINUOUS
10
-0.972178
20
-1.17557
11
-0.954151
21
-1.19017
0
LINE
8
BLACK
6
CONTINUOUS
10
-0.954151
20
-1.19017
11
-0.953807
21
-1.19044
0
LINE
8
BLACK
6
CONTINUOUS
10
-0.953807
20
-1.19044
11
-0.91025
21
-1.22386
0
LINE
8
BLACK
6
CONTINUOUS
10
-0.91025
20
-1.22386
11
-0.896772
21
-1.23393
0
LINE
8
BLACK
6
CONTINUOUS
10
-0.896772
20
-1.23393
11
-0.896416
21
-1.23418
0
LINE
8
BLACK
6
CONTINUOUS
10
-0.896416
20
-1.23418
11
-0.882679
21
-1.24389
0
LINE
8
BLACK
6
CONTINUOUS
10
-0.882679
20
-1.24389
11
-0.870724
21
-1.25211
0
LINE
8
BLACK
6
CONTINUOUS
10
-0.870724
20
-1.25211
11
-0.858574
21
-1.26046
0
LINE
8
BLACK
6
CONTINUOUS
10
-0.858574
20
-1.26046
11
-0.858212
21
-1.2607
0
LINE
8
BLACK
6
CONTINUOUS
10
-0.858212
20
-1.2607
11
-0.858211
21
-1.2607
0
LINE
8
BLACK
6
CONTINUOUS
10
-0.858211
20
-1.2607
11
-0.858211
21
-1.2607
0
LINE
8
BLACK
6
CONTINUOUS
10
-0.858211
20
-1.2607
11
-0.795745
21
-1.30127
0
LINE
8
BLACK
6
CONTINUOUS
10
-0.795745
20
-1.30127
11
-0.79559
21
-1.30137
0
LINE
8
BLACK
6
CONTINUOUS
10
-0.79559
20
-1.30137
11
-0.795418
21
-1.30147
0
LINE
8
BLACK
6
CONTINUOUS
10
-0.795418
20
-1.30147
11
-0.795417
21
-1.30147
0
LINE
8
BLACK
6
CONTINUOUS
10
-0.795417
20
-1.30147
11
-0.795417
21
-1.30147
0
LINE
8
BLACK
6
CONTINUOUS
10
-0.795417
20
-1.30147
11
-0.794998
21
-1.30173
0
LINE
8
BLACK
6
CONTINUOUS
10
-0.794998
20
-1.30173
11
-0.794997
21
-1.30173
0
LINE
8
BLACK
6
CONTINUOUS
10
-0.794997
20
-1.30173
11
-0.794662
21
-1.30193
0
LINE
8
BLACK
6
CONTINUOUS
10
-0.794662
20
-1.30193
11
-0.730174
21
-1.33916
0
LINE
8
BLACK
6
CONTINUOUS
10
-0.730174
20
-1.33916
11
-0.729839
21
-1.33935
0
LINE
8
BLACK
6
CONTINUOUS
10
-0.729839
20
-1.33935
11
-0.729836
21
-1.33935
0
LINE
8
BLACK
6
CONTINUOUS
10
-0.729836
20
-1.33935
11
-0.729404
21
-1.33959
0
LINE
8
BLACK
6
CONTINUOUS
10
-0.729404
20
-1.33959
11
-0.729145
21
-1.33972
0
LINE
8
BLACK
6
CONTINUOUS
10
-0.729145
20
-1.33972
11
-0.72906
21
-1.33977
0
LINE
8
BLACK
6
CONTINUOUS
10
-0.72906
20
-1.33977
11
-0.729059
21
-1.33977
0
LINE
8
BLACK
6
CONTINUOUS
10
-0.729059
20
-1.33977
11
-0.662683
21
-1.37359
0
LINE
8
BLACK
6
CONTINUOUS
10
-0.662683
20
-1.37359
11
-0.662289
21
-1.37378
0
LINE
8
BLACK
6
CONTINUOUS
10
-0.662289
20
-1.37378
11
-0.662286
21
-1.37378
0
LINE
8
BLACK
6
CONTINUOUS
10
-0.662286
20
-1.37378
11
-0.635905
21
-1.38637
0
LINE
8
BLACK
6
CONTINUOUS
10
-0.635905
20
-1.38637
11
-0.635903
21
-1.38637
0
LINE
8
BLACK
6
CONTINUOUS
10
-0.635903
20
-1.38637
11
-0.620631
21
-1.39341
0
LINE
8
BLACK
6
CONTINUOUS
10
-0.620631
20
-1.39341
11
-0.620229
21
-1.39359
0
LINE
8
BLACK
6
CONTINUOUS
10
-0.620229
20
-1.39359
11
-0.604771
21
-1.40023
0
LINE
8
BLACK
6
CONTINUOUS
10
-0.604771
20
-1.40023
11
-0.59096
21
-1.40595
0
LINE
8
BLACK
6
CONTINUOUS
10
-0.59096
20
-1.40595
11
-0.577753
21
-1.41142
0
LINE
8
BLACK
6
CONTINUOUS
10
-0.577753
20
-1.41142
11
-0.577345
21
-1.41158
0
LINE
8
BLACK
6
CONTINUOUS
10
-0.577345
20
-1.41158
11
-0.577343
21
-1.41158
0
LINE
8
BLACK
6
CONTINUOUS
10
-0.577343
20
-1.41158
11
-0.577343
21
-1.41158
0
LINE
8
BLACK
6
CONTINUOUS
10
-0.577343
20
-1.41158
11
-0.507804
21
-1.43828
0
LINE
8
BLACK
6
CONTINUOUS
10
-0.507804
20
-1.43828
11
-0.507437
21
-1.43841
0
LINE
8
BLACK
6
CONTINUOUS
10
-0.507437
20
-1.43841
11
-0.506974
21
-1.43858
0
LINE
8
BLACK
6
CONTINUOUS
10
-0.506974
20
-1.43858
11
-0.506607
21
-1.4387
0
LINE
8
BLACK
6
CONTINUOUS
10
-0.506607
20
-1.4387
11
-0.43579
21
-1.46171
0
LINE
8
BLACK
6
CONTINUOUS
10
-0.43579
20
-1.46171
11
-0.435418
21
-1.46182
0
LINE
8
BLACK
6
CONTINUOUS
10
-0.435418
20
-1.46182
11
-0.434947
21
-1.46196
0
LINE
8
BLACK
6
CONTINUOUS
10
-0.434947
20
-1.46196
11
-0.434945
21
-1.46196
0
LINE
8
BLACK
6
CONTINUOUS
10
-0.434945
20
-1.46196
11
-0.434572
21
-1.46207
0
LINE
8
BLACK
6
CONTINUOUS
10
-0.434572
20
-1.46207
11
-0.404143
21
-1.47022
0
LINE
8
BLACK
6
CONTINUOUS
10
-0.404143
20
-1.47022
11
-0.36262
21
-1.48135
0
LINE
8
BLACK
6
CONTINUOUS
10
-0.36262
20
-1.48135
11
-0.362321
21
-1.48143
0
LINE
8
BLACK
6
CONTINUOUS
10
-0.362321
20
-1.48143
11
-0.362192
21
-1.48146
0
LINE
8
BLACK
6
CONTINUOUS
10
-0.362192
20
-1.48146
11
-0.33377
21
-1.48828
0
LINE
8
BLACK
6
CONTINUOUS
10
-0.33377
20
-1.48828
11
-0.317363
21
-1.492
0
LINE
8
BLACK
6
CONTINUOUS
10
-0.317363
20
-1.492
11
-0.316934
21
-1.49209
0
LINE
8
BLACK
6
CONTINUOUS
10
-0.316934
20
-1.49209
11
-0.316933
21
-1.49209
0
LINE
8
BLACK
6
CONTINUOUS
10
-0.316933
20
-1.49209
11
-0.316933
21
-1.49209
0
LINE
8
BLACK
6
CONTINUOUS
10
-0.316933
20
-1.49209
11
-0.300427
21
-1.49537
0
LINE
8
BLACK
6
CONTINUOUS
10
-0.300427
20
-1.49537
11
-0.27167
21
-1.5007
0
LINE
8
BLACK
6
CONTINUOUS
10
-0.27167
20
-1.5007
11
-0.271237
21
-1.50077
0
LINE
8
BLACK
6
CONTINUOUS
10
-0.271237
20
-1.50077
11
-0.211793
21
-1.51019
0
LINE
8
BLACK
6
CONTINUOUS
10
-0.211793
20
-1.51019
11
-0.197677
21
-1.51242
0
LINE
8
BLACK
6
CONTINUOUS
10
-0.197677
20
-1.51242
11
-0.197675
21
-1.51242
0
LINE
8
BLACK
6
CONTINUOUS
10
-0.197675
20
-1.51242
11
-0.197289
21
-1.51248
0
LINE
8
BLACK
6
CONTINUOUS
10
-0.197289
20
-1.51248
11
-0.196802
21
-1.51254
0
LINE
8
BLACK
6
CONTINUOUS
10
-0.196802
20
-1.51254
11
-0.196481
21
-1.51258
0
LINE
8
BLACK
6
CONTINUOUS
10
-0.196481
20
-1.51258
11
-0.196419
21
-1.51259
0
LINE
8
BLACK
6
CONTINUOUS
10
-0.196419
20
-1.51259
11
-0.196418
21
-1.51259
0
LINE
8
BLACK
6
CONTINUOUS
10
-0.196418
20
-1.51259
11
-0.196417
21
-1.51259
0
LINE
8
BLACK
6
CONTINUOUS
10
-0.196417
20
-1.51259
11
-0.122359
21
-1.52037
0
LINE
8
BLACK
6
CONTINUOUS
10
-0.122359
20
-1.52037
11
-0.121969
21
-1.52041
0
LINE
8
BLACK
6
CONTINUOUS
10
-0.121969
20
-1.52041
11
-0.121815
21
-1.52042
0
LINE
8
BLACK
6
CONTINUOUS
10
-0.121815
20
-1.52042
11
-0.121481
21
-1.52045
0
LINE
8
BLACK
6
CONTINUOUS
10
-0.121481
20
-1.52045
11
-0.121463
21
-1.52045
0
LINE
8
BLACK
6
CONTINUOUS
10
-0.121463
20
-1.52045
11
-0.121094
21
-1.52047
0
LINE
8
BLACK
6
CONTINUOUS
10
-0.121094
20
-1.52047
11
-0.121092
21
-1.52047
0
LINE
8
BLACK
6
CONTINUOUS
10
-0.121092
20
-1.52047
11
-0.121091
21
-1.52047
0
LINE
8
BLACK
6
CONTINUOUS
10
-0.121091
20
-1.52047
11
-0.0493178
21
-1.52423
0
LINE
8
BLACK
6
CONTINUOUS
10
-0.0493178
20
-1.52423
11
-0.0467085
21
-1.52437
0
LINE
8
BLACK
6
CONTINUOUS
10
-0.0467085
20
-1.52437
11
-0.0463292
21
-1.52439
0
LINE
8
BLACK
6
CONTINUOUS
10
-0.0463292
20
-1.52439
11
-0.0462693
21
-1.52439
0
LINE
8
BLACK
6
CONTINUOUS
10
-0.0462693
20
-1.52439
11
-0.0453683
21
-1.52441
0
LINE
8
BLACK
6
CONTINUOUS
10
-0.0453683
20
-1.52441
11
-0.0170437
21
-1.52515
0
LINE
8
BLACK
6
CONTINUOUS
10
-0.0170437
20
-1.52515
11
-0.000220118
21
-1.52537
0
LINE
8
BLACK
6
CONTINUOUS
10
-0.000220118
20
-1.52537
11
-0.00021874
21
-1.52537
0
LINE
8
BLACK
6
CONTINUOUS
10
-0.00021874
20
-1.52537
11
0.000218661
21
-1.52537
0
LINE
8
BLACK
6
CONTINUOUS
10
0.000218661
20
-1.52537
11
0.000220039
21
-1.52537
0
LINE
8
BLACK
6
CONTINUOUS
10
0.000220039
20
-1.52537
11
0.0170436
21
-1.52515
0
LINE
8
BLACK
6
CONTINUOUS
10
0.0170436
20
-1.52515
11
0.0462795
21
-1.52439
0
LINE
8
BLACK
6
CONTINUOUS
10
0.0462795
20
-1.52439
11
0.0467189
21
-1.52437
0
LINE
8
BLACK
6
CONTINUOUS
10
0.0467189
20
-1.52437
11
0.0467189
21
-1.52437
0
LINE
8
BLACK
6
CONTINUOUS
10
0.0467189
20
-1.52437
11
0.121092
21
-1.52047
0
LINE
8
BLACK
6
CONTINUOUS
10
0.121092
20
-1.52047
11
0.121221
21
-1.52046
0
LINE
8
BLACK
6
CONTINUOUS
10
0.121221
20
-1.52046
11
0.121479
21
-1.52045
0
LINE
8
BLACK
6
CONTINUOUS
10
0.121479
20
-1.52045
11
0.121969
21
-1.52041
0
LINE
8
BLACK
6
CONTINUOUS
10
0.121969
20
-1.52041
11
0.122359
21
-1.52037
0
LINE
8
BLACK
6
CONTINUOUS
10
0.122359
20
-1.52037
11
0.196417
21
-1.51259
0
LINE
8
BLACK
6
CONTINUOUS
10
0.196417
20
-1.51259
11
0.196803
21
-1.51254
0
LINE
8
BLACK
6
CONTINUOUS
10
0.196803
20
-1.51254
11
0.19729
21
-1.51248
0
LINE
8
BLACK
6
CONTINUOUS
10
0.19729
20
-1.51248
11
0.197676
21
-1.51242
0
LINE
8
BLACK
6
CONTINUOUS
10
0.197676
20
-1.51242
11
0.271245
21
-1.50077
0
LINE
8
BLACK
6
CONTINUOUS
10
0.271245
20
-1.50077
11
0.271678
21
-1.5007
0
LINE
8
BLACK
6
CONTINUOUS
10
0.271678
20
-1.5007
11
0.300429
21
-1.49537
0
LINE
8
BLACK
6
CONTINUOUS
10
0.300429
20
-1.49537
11
0.316918
21
-1.49209
0
LINE
8
BLACK
6
CONTINUOUS
10
0.316918
20
-1.49209
11
0.317219
21
-1.49203
0
LINE
8
BLACK
6
CONTINUOUS
10
0.317219
20
-1.49203
11
0.31735
21
-1.492
0
LINE
8
BLACK
6
CONTINUOUS
10
0.31735
20
-1.492
11
0.333769
21
-1.48828
0
LINE
8
BLACK
6
CONTINUOUS
10
0.333769
20
-1.48828
11
0.358356
21
-1.48238
0
LINE
8
BLACK
6
CONTINUOUS
10
0.358356
20
-1.48238
11
0.362195
21
-1.48146
0
LINE
8
BLACK
6
CONTINUOUS
10
0.362195
20
-1.48146
11
0.362622
21
-1.48135
0
LINE
8
BLACK
6
CONTINUOUS
10
0.362622
20
-1.48135
11
0.434575
21
-1.46207
0
LINE
8
BLACK
6
CONTINUOUS
10
0.434575
20
-1.46207
11
0.434954
21
-1.46196
0
LINE
8
BLACK
6
CONTINUOUS
10
0.434954
20
-1.46196
11
0.435425
21
-1.46182
0
LINE
8
BLACK
6
CONTINUOUS
10
0.435425
20
-1.46182
11
0.435789
21
-1.46171
0
LINE
8
BLACK
6
CONTINUOUS
10
0.435789
20
-1.46171
11
0.435791
21
-1.46171
0
LINE
8
BLACK
6
CONTINUOUS
10
0.435791
20
-1.46171
11
0.442095
21
-1.45966
0
LINE
8
BLACK
6
CONTINUOUS
10
0.442095
20
-1.45966
11
0.506607
21
-1.4387
0
LINE
8
BLACK
6
CONTINUOUS
10
0.506607
20
-1.4387
11
0.506973
21
-1.43858
0
LINE
8
BLACK
6
CONTINUOUS
10
0.506973
20
-1.43858
11
0.507436
21
-1.43841
0
LINE
8
BLACK
6
CONTINUOUS
10
0.507436
20
-1.43841
11
0.507804
21
-1.43828
0
LINE
8
BLACK
6
CONTINUOUS
10
0.507804
20
-1.43828
11
0.577343
21
-1.41158
0
LINE
8
BLACK
6
CONTINUOUS
10
0.577343
20
-1.41158
11
0.577752
21
-1.41142
0
LINE
8
BLACK
6
CONTINUOUS
10
0.577752
20
-1.41142
11
0.604771
21
-1.40023
0
LINE
8
BLACK
6
CONTINUOUS
10
0.604771
20
-1.40023
11
0.620228
21
-1.39359
0
LINE
8
BLACK
6
CONTINUOUS
10
0.620228
20
-1.39359
11
0.62063
21
-1.39341
0
LINE
8
BLACK
6
CONTINUOUS
10
0.62063
20
-1.39341
11
0.635899
21
-1.38637
0
LINE
8
BLACK
6
CONTINUOUS
10
0.635899
20
-1.38637
11
0.662288
21
-1.37378
0
LINE
8
BLACK
6
CONTINUOUS
10
0.662288
20
-1.37378
11
0.662683
21
-1.37359
0
LINE
8
BLACK
6
CONTINUOUS
10
0.662683
20
-1.37359
11
0.729059
21
-1.33977
0
LINE
8
BLACK
6
CONTINUOUS
10
0.729059
20
-1.33977
11
0.729405
21
-1.33959
0
LINE
8
BLACK
6
CONTINUOUS
10
0.729405
20
-1.33959
11
0.729837
21
-1.33935
0
LINE
8
BLACK
6
CONTINUOUS
10
0.729837
20
-1.33935
11
0.730021
21
-1.33925
0
LINE
8
BLACK
6
CONTINUOUS
10
0.730021
20
-1.33925
11
0.730175
21
-1.33916
0
LINE
8
BLACK
6
CONTINUOUS
10
0.730175
20
-1.33916
11
0.762052
21
-1.32076
0
LINE
8
BLACK
6
CONTINUOUS
10
0.762052
20
-1.32076
11
0.794662
21
-1.30193
0
LINE
8
BLACK
6
CONTINUOUS
10
0.794662
20
-1.30193
11
0.794998
21
-1.30173
0
LINE
8
BLACK
6
CONTINUOUS
10
0.794998
20
-1.30173
11
0.795417
21
-1.30147
0
LINE
8
BLACK
6
CONTINUOUS
10
0.795417
20
-1.30147
11
0.795745
21
-1.30127
0
LINE
8
BLACK
6
CONTINUOUS
10
0.795745
20
-1.30127
11
0.858218
21
-1.2607
0
LINE
8
BLACK
6
CONTINUOUS
10
0.858218
20
-1.2607
11
0.858584
21
-1.26045
0
LINE
8
BLACK
6
CONTINUOUS
10
0.858584
20
-1.26045
11
0.882679
21
-1.24389
0
LINE
8
BLACK
6
CONTINUOUS
10
0.882679
20
-1.24389
11
0.896414
21
-1.23419
0
LINE
8
BLACK
6
CONTINUOUS
10
0.896414
20
-1.23419
11
0.896771
21
-1.23393
0
LINE
8
BLACK
6
CONTINUOUS
10
0.896771
20
-1.23393
11
0.910249
21
-1.22386
0
LINE
8
BLACK
6
CONTINUOUS
10
0.910249
20
-1.22386
11
0.953809
21
-1.19043
0
LINE
8
BLACK
6
CONTINUOUS
10
0.953809
20
-1.19043
11
0.954154
21
-1.19016
0
LINE
8
BLACK
6
CONTINUOUS
10
0.954154
20
-1.19016
11
0.972178
21
-1.17557
0
LINE
8
BLACK
6
CONTINUOUS
10
0.972178
20
-1.17557
11
0.972516
21
-1.17529
0
LINE
8
BLACK
6
CONTINUOUS
10
0.972516
20
-1.17529
11
0.980467
21
-1.1685
0
LINE
8
BLACK
6
CONTINUOUS
10
0.980467
20
-1.1685
11
0.982251
21
-1.16697
0
LINE
8
BLACK
6
CONTINUOUS
10
0.982251
20
-1.16697
11
0.983934
21
-1.16554
0
LINE
8
BLACK
6
CONTINUOUS
10
0.983934
20
-1.16554
11
0.985701
21
-1.16403
0
LINE
8
BLACK
6
CONTINUOUS
10
0.985701
20
-1.16403
11
0.985702
21
-1.16403
0
LINE
8
BLACK
6
CONTINUOUS
10
0.985702
20
-1.16403
11
0.985702
21
-1.16403
0
LINE
8
BLACK
6
CONTINUOUS
10
0.985702
20
-1.16403
11
0.985763
21
-1.16397
0
LINE
8
BLACK
6
CONTINUOUS
10
0.985763
20
-1.16397
11
0.990927
21
-1.15956
0
LINE
8
BLACK
6
CONTINUOUS
10
0.990927
20
-1.15956
11
0.990927
21
-1.15956
0
LINE
8
BLACK
6
CONTINUOUS
10
0.990927
20
-1.15956
11
0.991022
21
-1.15948
0
LINE
8
BLACK
6
CONTINUOUS
10
0.991022
20
-1.15948
11
0.992659
21
-1.15808
0
LINE
8
BLACK
6
CONTINUOUS
10
0.992659
20
-1.15808
11
1.00111
21
-1.15087
0
LINE
8
BLACK
6
CONTINUOUS
10
1.00111
20
-1.15087
11
1.00558
21
-1.14705
0
LINE
8
BLACK
6
CONTINUOUS
10
1.00558
20
-1.14705
11
1.01476
21
-1.13921
0
LINE
8
BLACK
6
CONTINUOUS
10
1.01476
20
-1.13921
11
1.01847
21
-1.13604
0
LINE
8
BLACK
6
CONTINUOUS
10
1.01847
20
-1.13604
11
1.01881
21
-1.13575
0
LINE
8
BLACK
6
CONTINUOUS
10
1.01881
20
-1.13575
11
1.02304
21
-1.13193
0
LINE
8
BLACK
6
CONTINUOUS
10
1.02304
20
-1.13193
11
1.02336
21
-1.13163
0
LINE
8
BLACK
6
CONTINUOUS
10
1.02336
20
-1.13163
11
1.02724
21
-1.12795
0
LINE
8
BLACK
6
CONTINUOUS
10
1.02724
20
-1.12795
11
1.02724
21
-1.12795
0
LINE
8
BLACK
6
CONTINUOUS
10
1.02724
20
-1.12795
11
1.02737
21
-1.12783
0
LINE
8
BLACK
6
CONTINUOUS
10
1.02737
20
-1.12783
11
1.03917
21
-1.11663
0
LINE
8
BLACK
6
CONTINUOUS
10
1.03917
20
-1.11663
11
1.03917
21
-1.11663
0
LINE
8
BLACK
6
CONTINUOUS
10
1.03917
20
-1.11663
11
1.03989
21
-1.11595
0
LINE
8
BLACK
6
CONTINUOUS
10
1.03989
20
-1.11595
11
1.04591
21
-1.11023
0
LINE
8
BLACK
6
CONTINUOUS
10
1.04591
20
-1.11023
11
1.04638
21
-1.10977
0
LINE
8
BLACK
6
CONTINUOUS
10
1.04638
20
-1.10977
11
1.05304
21
-1.10293
0
LINE
8
BLACK
6
CONTINUOUS
10
1.05304
20
-1.10293
11
1.05349
21
-1.10245
0
LINE
8
BLACK
6
CONTINUOUS
10
1.05349
20
-1.10245
11
1.0563
21
-1.09933
0
LINE
8
BLACK
6
CONTINUOUS
10
1.0563
20
-1.09933
11
1.05673
21
-1.09883
0
LINE
8
BLACK
6
CONTINUOUS
10
1.05673
20
-1.09883
11
1.05726
21
-1.09819
0
LINE
8
BLACK
6
CONTINUOUS
10
1.05726
20
-1.09819
11
1.05766
21
-1.09768
0
LINE
8
BLACK
6
CONTINUOUS
10
1.05766
20
-1.09768
11
1.06793
21
-1.08403
0
LINE
8
BLACK
6
CONTINUOUS
10
1.06793
20
-1.08403
11
1.0688
21
-1.08274
0
LINE
8
BLACK
6
CONTINUOUS
10
1.0688
20
-1.08274
11
1.07002
21
-1.0807
0
LINE
8
BLACK
6
CONTINUOUS
10
1.07002
20
-1.0807
11
1.07075
21
-1.07932
0
LINE
8
BLACK
6
CONTINUOUS
10
1.07075
20
-1.07932
11
1.078
21
-1.06374
0
LINE
8
BLACK
6
CONTINUOUS
10
1.078
20
-1.06374
11
1.07867
21
-1.06206
0
LINE
8
BLACK
6
CONTINUOUS
10
1.07867
20
-1.06206
11
1.07951
21
-1.05945
0
LINE
8
BLACK
6
CONTINUOUS
10
1.07951
20
-1.05945
11
1.07997
21
-1.0577
0
LINE
8
BLACK
6
CONTINUOUS
10
1.07997
20
-1.0577
11
1.08326
21
-1.04083
0
LINE
8
BLACK
6
CONTINUOUS
10
1.08326
20
-1.04083
11
1.08348
21
-1.03929
0
LINE
8
BLACK
6
CONTINUOUS
10
1.08348
20
-1.03929
11
1.08369
21
-1.03692
0
LINE
8
BLACK
6
CONTINUOUS
10
1.08369
20
-1.03692
11
1.08375
21
-1.03537
0
LINE
8
BLACK
6
CONTINUOUS
10
1.08375
20
-1.03537
11
1.08346
21
-1.01819
0
LINE
8
BLACK
6
CONTINUOUS
10
1.08346
20
-1.01819
11
1.08337
21
-1.01676
0
LINE
8
BLACK
6
CONTINUOUS
10
1.08337
20
-1.01676
11
1.08312
21
-1.01458
0
LINE
8
BLACK
6
CONTINUOUS
10
1.08312
20
-1.01458
11
1.08289
21
-1.01317
0
LINE
8
BLACK
6
CONTINUOUS
10
1.08289
20
-1.01317
11
1.08289
21
-1.01317
0
LINE
8
BLACK
6
CONTINUOUS
10
1.08289
20
-1.01317
11
1.08289
21
-1.01317
0
LINE
8
BLACK
6
CONTINUOUS
10
1.08289
20
-1.01317
11
1.07934
21
-0.996464
0
LINE
8
BLACK
6
CONTINUOUS
10
1.07934
20
-0.996464
11
1.07934
21
-0.996462
0
LINE
8
BLACK
6
CONTINUOUS
10
1.07934
20
-0.996462
11
1.07894
21
-0.994959
0
LINE
8
BLACK
6
CONTINUOUS
10
1.07894
20
-0.994959
11
1.07894
21
-0.994958
0
LINE
8
BLACK
6
CONTINUOUS
10
1.07894
20
-0.994958
11
1.0782
21
-0.992701
0
LINE
8
BLACK
6
CONTINUOUS
10
1.0782
20
-0.992701
11
1.07765
21
-0.991246
0
LINE
8
BLACK
6
CONTINUOUS
10
1.07765
20
-0.991246
11
1.07069
21
-0.975617
0
LINE
8
BLACK
6
CONTINUOUS
10
1.07069
20
-0.975617
11
1.06998
21
-0.974229
0
LINE
8
BLACK
6
CONTINUOUS
10
1.06998
20
-0.974229
11
1.06879
21
-0.972175
0
LINE
8
BLACK
6
CONTINUOUS
10
1.06879
20
-0.972175
11
1.06794
21
-0.97087
0
LINE
8
BLACK
6
CONTINUOUS
10
1.06794
20
-0.97087
11
1.06794
21
-0.970869
0
LINE
8
BLACK
6
CONTINUOUS
10
1.06794
20
-0.970869
11
1.06794
21
-0.970869
0
LINE
8
BLACK
6
CONTINUOUS
10
1.06794
20
-0.970869
11
1.06794
21
-0.970869
0
LINE
8
BLACK
6
CONTINUOUS
10
1.06794
20
-0.970869
11
1.05791
21
-0.957063
0
LINE
8
BLACK
6
CONTINUOUS
10
1.05791
20
-0.957063
11
1.05738
21
-0.956371
0
LINE
8
BLACK
6
CONTINUOUS
10
1.05738
20
-0.956371
11
1.05668
21
-0.955514
0
LINE
8
BLACK
6
CONTINUOUS
10
1.05668
20
-0.955514
11
1.05667
21
-0.955513
0
LINE
8
BLACK
6
CONTINUOUS
10
1.05667
20
-0.955513
11
1.0561
21
-0.954851
0
LINE
8
BLACK
6
CONTINUOUS
10
1.0561
20
-0.954851
11
1.0561
21
-0.95485
0
LINE
8
BLACK
6
CONTINUOUS
10
1.0561
20
-0.95485
11
1.04456
21
-0.942379
0
LINE
8
BLACK
6
CONTINUOUS
10
1.04456
20
-0.942379
11
1.04456
21
-0.942379
0
LINE
8
BLACK
6
CONTINUOUS
10
1.04456
20
-0.942379
11
1.02763
21
-0.924554
0
LINE
8
BLACK
6
CONTINUOUS
10
1.02763
20
-0.924554
11
1.00695
21
-0.902786
0
LINE
8
BLACK
6
CONTINUOUS
10
1.00695
20
-0.902786
11
1.00566
21
-0.901427
0
LINE
8
BLACK
6
CONTINUOUS
10
1.00566
20
-0.901427
11
1.00566
21
-0.901427
0
LINE
8
BLACK
6
CONTINUOUS
10
1.00566
20
-0.901427
11
1.00562
21
-0.901388
0
LINE
8
BLACK
6
CONTINUOUS
10
1.00562
20
-0.901388
11
0.982391
21
-0.876934
0
LINE
8
BLACK
6
CONTINUOUS
10
0.982391
20
-0.876934
11
0.982391
21
-0.876934
0
LINE
8
BLACK
6
CONTINUOUS
10
0.982391
20
-0.876934
11
0.981128
21
-0.875605
0
LINE
8
BLACK
6
CONTINUOUS
10
0.981128
20
-0.875605
11
0.964132
21
-0.857715
0
LINE
8
BLACK
6
CONTINUOUS
10
0.964132
20
-0.857715
11
0.955339
21
-0.848459
0
LINE
8
BLACK
6
CONTINUOUS
10
0.955339
20
-0.848459
11
0.925879
21
-0.817447
0
LINE
8
BLACK
6
CONTINUOUS
10
0.925879
20
-0.817447
11
0.894082
21
-0.783978
0
LINE
8
BLACK
6
CONTINUOUS
10
0.894082
20
-0.783978
11
0.894082
21
-0.783978
0
LINE
8
BLACK
6
CONTINUOUS
10
0.894082
20
-0.783978
11
0.894082
21
-0.783978
0
LINE
8
BLACK
6
CONTINUOUS
10
0.894082
20
-0.783978
11
0.860034
21
-0.748138
0
LINE
8
BLACK
6
CONTINUOUS
10
0.860034
20
-0.748138
11
0.860034
21
-0.748138
0
LINE
8
BLACK
6
CONTINUOUS
10
0.860034
20
-0.748138
11
0.850329
21
-0.737922
0
LINE
8
BLACK
6
CONTINUOUS
10
0.850329
20
-0.737922
11
0.830619
21
-0.717175
0
LINE
8
BLACK
6
CONTINUOUS
10
0.830619
20
-0.717175
11
0.827895
21
-0.714307
0
LINE
8
BLACK
6
CONTINUOUS
10
0.827895
20
-0.714307
11
0.827894
21
-0.714306
0
LINE
8
BLACK
6
CONTINUOUS
10
0.827894
20
-0.714306
11
0.827894
21
-0.714306
0
LINE
8
BLACK
6
CONTINUOUS
10
0.827894
20
-0.714306
11
0.827414
21
-0.713824
0
LINE
8
BLACK
6
CONTINUOUS
10
0.827414
20
-0.713824
11
0.826796
21
-0.71323
0
LINE
8
BLACK
6
CONTINUOUS
10
0.826796
20
-0.71323
11
0.826296
21
-0.712771
0
LINE
8
BLACK
6
CONTINUOUS
10
0.826296
20
-0.712771
11
0.826151
21
-0.712644
0
LINE
8
BLACK
6
CONTINUOUS
10
0.826151
20
-0.712644
11
0.813523
21
-0.701575
0
LINE
8
BLACK
6
CONTINUOUS
10
0.813523
20
-0.701575
11
0.813523
21
-0.701575
0
LINE
8
BLACK
6
CONTINUOUS
10
0.813523
20
-0.701575
11
0.812934
21
-0.701108
0
LINE
8
BLACK
6
CONTINUOUS
10
0.812934
20
-0.701108
11
0.81238
21
-0.700669
0
LINE
8
BLACK
6
CONTINUOUS
10
0.81238
20
-0.700669
11
0.810574
21
-0.699375
0
LINE
8
BLACK
6
CONTINUOUS
10
0.810574
20
-0.699375
11
0.809349
21
-0.698585
0
LINE
8
BLACK
6
CONTINUOUS
10
0.809349
20
-0.698585
11
0.794554
21
-0.690043
0
LINE
8
BLACK
6
CONTINUOUS
10
0.794554
20
-0.690043
11
0.794553
21
-0.690042
0
LINE
8
BLACK
6
CONTINUOUS
10
0.794553
20
-0.690042
11
0.794553
21
-0.690042
0
LINE
8
BLACK
6
CONTINUOUS
10
0.794553
20
-0.690042
11
0.793165
21
-0.689335
0
LINE
8
BLACK
6
CONTINUOUS
10
0.793165
20
-0.689335
11
0.793164
21
-0.689335
0
LINE
8
BLACK
6
CONTINUOUS
10
0.793164
20
-0.689335
11
0.790998
21
-0.688371
0
LINE
8
BLACK
6
CONTINUOUS
10
0.790998
20
-0.688371
11
0.790997
21
-0.68837
0
LINE
8
BLACK
6
CONTINUOUS
10
0.790997
20
-0.68837
11
0.789543
21
-0.687812
0
LINE
8
BLACK
6
CONTINUOUS
10
0.789543
20
-0.687812
11
0.773269
21
-0.682524
0
LINE
8
BLACK
6
CONTINUOUS
10
0.773269
20
-0.682524
11
0.773268
21
-0.682524
0
LINE
8
BLACK
6
CONTINUOUS
10
0.773268
20
-0.682524
11
0.771765
21
-0.682122
0
LINE
8
BLACK
6
CONTINUOUS
10
0.771765
20
-0.682122
11
0.771764
21
-0.682121
0
LINE
8
BLACK
6
CONTINUOUS
10
0.771764
20
-0.682121
11
0.771764
21
-0.682121
0
LINE
8
BLACK
6
CONTINUOUS
10
0.771764
20
-0.682121
11
0.771763
21
-0.682121
0
LINE
8
BLACK
6
CONTINUOUS
10
0.771763
20
-0.682121
11
0.770812
21
-0.681919
0
LINE
8
BLACK
6
CONTINUOUS
10
0.770812
20
-0.681919
11
0.769443
21
-0.681628
0
LINE
8
BLACK
6
CONTINUOUS
10
0.769443
20
-0.681628
11
0.769443
21
-0.681628
0
LINE
8
BLACK
6
CONTINUOUS
10
0.769443
20
-0.681628
11
0.769443
21
-0.681628
0
LINE
8
BLACK
6
CONTINUOUS
10
0.769443
20
-0.681628
11
0.767903
21
-0.681384
0
LINE
8
BLACK
6
CONTINUOUS
10
0.767903
20
-0.681384
11
0.750888
21
-0.679597
0
LINE
8
BLACK
6
CONTINUOUS
10
0.750888
20
-0.679597
11
0.750888
21
-0.679597
0
LINE
8
BLACK
6
CONTINUOUS
10
0.750888
20
-0.679597
11
0.750236
21
-0.679562
0
LINE
8
BLACK
6
CONTINUOUS
10
0.750236
20
-0.679562
11
0.749333
21
-0.679515
0
LINE
8
BLACK
6
CONTINUOUS
10
0.749333
20
-0.679515
11
0.746962
21
-0.679515
0
LINE
8
BLACK
6
CONTINUOUS
10
0.746962
20
-0.679515
11
0.746095
21
-0.679561
0
LINE
8
BLACK
6
CONTINUOUS
10
0.746095
20
-0.679561
11
0.745407
21
-0.679597
0
LINE
8
BLACK
6
CONTINUOUS
10
0.745407
20
-0.679597
11
0.745407
21
-0.679597
0
LINE
8
BLACK
6
CONTINUOUS
10
0.745407
20
-0.679597
11
0.728391
21
-0.681384
0
LINE
8
BLACK
6
CONTINUOUS
10
0.728391
20
-0.681384
11
0.726851
21
-0.681628
0
LINE
8
BLACK
6
CONTINUOUS
10
0.726851
20
-0.681628
11
0.72453
21
-0.682121
0
LINE
8
BLACK
6
CONTINUOUS
10
0.72453
20
-0.682121
11
0.723025
21
-0.682525
0
LINE
8
BLACK
6
CONTINUOUS
10
0.723025
20
-0.682525
11
0.723025
21
-0.682525
0
LINE
8
BLACK
6
CONTINUOUS
10
0.723025
20
-0.682525
11
0.723025
21
-0.682525
0
LINE
8
BLACK
6
CONTINUOUS
10
0.723025
20
-0.682525
11
0.716977
21
-0.68449
0
LINE
8
BLACK
6
CONTINUOUS
10
0.716977
20
-0.68449
11
0.706753
21
-0.687813
0
LINE
8
BLACK
6
CONTINUOUS
10
0.706753
20
-0.687813
11
0.7053
21
-0.68837
0
LINE
8
BLACK
6
CONTINUOUS
10
0.7053
20
-0.68837
11
0.703133
21
-0.689335
0
LINE
8
BLACK
6
CONTINUOUS
10
0.703133
20
-0.689335
11
0.703132
21
-0.689336
0
LINE
8
BLACK
6
CONTINUOUS
10
0.703132
20
-0.689336
11
0.701746
21
-0.690042
0
LINE
8
BLACK
6
CONTINUOUS
10
0.701746
20
-0.690042
11
0.701744
21
-0.690043
0
LINE
8
BLACK
6
CONTINUOUS
10
0.701744
20
-0.690043
11
0.686989
21
-0.698561
0
LINE
8
BLACK
6
CONTINUOUS
10
0.686989
20
-0.698561
11
0.686988
21
-0.698562
0
LINE
8
BLACK
6
CONTINUOUS
10
0.686988
20
-0.698562
11
0.685922
21
-0.69924
0
LINE
8
BLACK
6
CONTINUOUS
10
0.685922
20
-0.69924
11
0.685921
21
-0.69924
0
LINE
8
BLACK
6
CONTINUOUS
10
0.685921
20
-0.69924
11
0.684341
21
-0.700341
0
LINE
8
BLACK
6
CONTINUOUS
10
0.684341
20
-0.700341
11
0.684341
21
-0.700341
0
LINE
8
BLACK
6
CONTINUOUS
10
0.684341
20
-0.700341
11
0.683334
21
-0.701108
0
LINE
8
BLACK
6
CONTINUOUS
10
0.683334
20
-0.701108
11
0.670335
21
-0.711918
0
LINE
8
BLACK
6
CONTINUOUS
10
0.670335
20
-0.711918
11
0.669967
21
-0.712234
0
LINE
8
BLACK
6
CONTINUOUS
10
0.669967
20
-0.712234
11
0.669508
21
-0.712641
0
LINE
8
BLACK
6
CONTINUOUS
10
0.669508
20
-0.712641
11
0.669148
21
-0.712972
0
LINE
8
BLACK
6
CONTINUOUS
10
0.669148
20
-0.712972
11
0.664756
21
-0.71714
0
LINE
8
BLACK
6
CONTINUOUS
10
0.664756
20
-0.71714
11
0.664719
21
-0.717175
0
LINE
8
BLACK
6
CONTINUOUS
10
0.664719
20
-0.717175
11
0.643762
21
-0.736045
0
LINE
8
BLACK
6
CONTINUOUS
10
0.643762
20
-0.736045
11
0.643723
21
-0.736079
0
LINE
8
BLACK
6
CONTINUOUS
10
0.643723
20
-0.736079
11
0.63064
21
-0.747253
0
LINE
8
BLACK
6
CONTINUOUS
10
0.63064
20
-0.747253
11
0.630602
21
-0.747285
0
LINE
8
BLACK
6
CONTINUOUS
10
0.630602
20
-0.747285
11
0.595626
21
-0.775609
0
LINE
8
BLACK
6
CONTINUOUS
10
0.595626
20
-0.775609
11
0.593767
21
-0.777114
0
LINE
8
BLACK
6
CONTINUOUS
10
0.593767
20
-0.777114
11
0.593686
21
-0.777176
0
LINE
8
BLACK
6
CONTINUOUS
10
0.593686
20
-0.777176
11
0.554428
21
-0.805699
0
LINE
8
BLACK
6
CONTINUOUS
10
0.554428
20
-0.805699
11
0.553866
21
-0.806039
0
LINE
8
BLACK
6
CONTINUOUS
10
0.553866
20
-0.806039
11
0.553424
21
-0.806258
0
LINE
8
BLACK
6
CONTINUOUS
10
0.553424
20
-0.806258
11
0.553424
21
-0.806258
0
LINE
8
BLACK
6
CONTINUOUS
10
0.553424
20
-0.806258
11
0.515846
21
-0.830661
0
LINE
8
BLACK
6
CONTINUOUS
10
0.515846
20
-0.830661
11
0.515803
21
-0.830688
0
LINE
8
BLACK
6
CONTINUOUS
10
0.515803
20
-0.830688
11
0.513001
21
-0.832405
0
LINE
8
BLACK
6
CONTINUOUS
10
0.513001
20
-0.832405
11
0.512957
21
-0.832431
0
LINE
8
BLACK
6
CONTINUOUS
10
0.512957
20
-0.832431
11
0.46443
21
-0.860447
0
LINE
8
BLACK
6
CONTINUOUS
10
0.46443
20
-0.860447
11
0.464386
21
-0.860472
0
LINE
8
BLACK
6
CONTINUOUS
10
0.464386
20
-0.860472
11
0.461491
21
-0.862043
0
LINE
8
BLACK
6
CONTINUOUS
10
0.461491
20
-0.862043
11
0.461445
21
-0.862067
0
LINE
8
BLACK
6
CONTINUOUS
10
0.461445
20
-0.862067
11
0.41922
21
-0.883584
0
LINE
8
BLACK
6
CONTINUOUS
10
0.41922
20
-0.883584
11
0.419127
21
-0.883628
0
LINE
8
BLACK
6
CONTINUOUS
10
0.419127
20
-0.883628
11
0.376212
21
-0.902736
0
LINE
8
BLACK
6
CONTINUOUS
10
0.376212
20
-0.902736
11
0.376118
21
-0.902775
0
LINE
8
BLACK
6
CONTINUOUS
10
0.376118
20
-0.902775
11
0.331875
21
-0.919757
0
LINE
8
BLACK
6
CONTINUOUS
10
0.331875
20
-0.919757
11
0.331827
21
-0.919774
0
LINE
8
BLACK
6
CONTINUOUS
10
0.331827
20
-0.919774
11
0.328727
21
-0.920872
0
LINE
8
BLACK
6
CONTINUOUS
10
0.328727
20
-0.920872
11
0.328678
21
-0.920889
0
LINE
8
BLACK
6
CONTINUOUS
10
0.328678
20
-0.920889
11
0.27538
21
-0.938206
0
LINE
8
BLACK
6
CONTINUOUS
10
0.27538
20
-0.938206
11
0.275331
21
-0.938221
0
LINE
8
BLACK
6
CONTINUOUS
10
0.275331
20
-0.938221
11
0.272181
21
-0.939154
0
LINE
8
BLACK
6
CONTINUOUS
10
0.272181
20
-0.939154
11
0.272132
21
-0.939168
0
LINE
8
BLACK
6
CONTINUOUS
10
0.272132
20
-0.939168
11
0.226351
21
-0.951435
0
LINE
8
BLACK
6
CONTINUOUS
10
0.226351
20
-0.951435
11
0.226252
21
-0.951458
0
LINE
8
BLACK
6
CONTINUOUS
10
0.226252
20
-0.951458
11
0.1803
21
-0.961228
0
LINE
8
BLACK
6
CONTINUOUS
10
0.1803
20
-0.961228
11
0.180199
21
-0.961246
0
LINE
8
BLACK
6
CONTINUOUS
10
0.180199
20
-0.961246
11
0.133389
21
-0.968662
0
LINE
8
BLACK
6
CONTINUOUS
10
0.133389
20
-0.968662
11
0.133338
21
-0.968669
0
LINE
8
BLACK
6
CONTINUOUS
10
0.133338
20
-0.968669
11
0.130083
21
-0.969098
0
LINE
8
BLACK
6
CONTINUOUS
10
0.130083
20
-0.969098
11
0.130032
21
-0.969104
0
LINE
8
BLACK
6
CONTINUOUS
10
0.130032
20
-0.969104
11
0.0743002
21
-0.97496
0
LINE
8
BLACK
6
CONTINUOUS
10
0.0743002
20
-0.97496
11
0.0742494
21
-0.974965
0
LINE
8
BLACK
6
CONTINUOUS
10
0.0742494
20
-0.974965
11
0.0719713
21
-0.975144
0
LINE
8
BLACK
6
CONTINUOUS
10
0.0719713
20
-0.975144
11
0.0709717
21
-0.975223
0
LINE
8
BLACK
6
CONTINUOUS
10
0.0709717
20
-0.975223
11
0.0709216
21
-0.975226
0
LINE
8
BLACK
6
CONTINUOUS
10
0.0709216
20
-0.975226
11
0.0233337
21
-0.97772
0
LINE
8
BLACK
6
CONTINUOUS
10
0.0233337
20
-0.97772
11
0.0228781
21
-0.977705
0
LINE
8
BLACK
6
CONTINUOUS
10
0.0228781
20
-0.977705
11
0.0228776
21
-0.977715
0
LINE
8
BLACK
6
CONTINUOUS
10
0.0228776
20
-0.977715
11
0.0227644
21
-0.977709
0
LINE
8
BLACK
6
CONTINUOUS
10
0.0227644
20
-0.977709
11
0.0227642
21
-0.977709
0
LINE
8
BLACK
6
CONTINUOUS
10
0.0227642
20
-0.977709
11
-0.0237069
21
-0.977709
0
LINE
8
BLACK
6
CONTINUOUS
10
-0.0237069
20
-0.977709
11
-0.0241433
21
-0.977672
0
LINE
8
BLACK
6
CONTINUOUS
10
-0.0241433
20
-0.977672
11
-0.0241436
21
-0.977675
0
LINE
8
BLACK
6
CONTINUOUS
10
-0.0241436
20
-0.977675
11
-0.0241437
21
-0.977677
0
LINE
8
BLACK
6
CONTINUOUS
10
-0.0241437
20
-0.977677
11
-0.0241439
21
-0.977677
0
LINE
8
BLACK
6
CONTINUOUS
10
-0.0241439
20
-0.977677
11
-0.0241446
21
-0.977684
0
LINE
8
BLACK
6
CONTINUOUS
10
-0.0241446
20
-0.977684
11
-0.0242575
21
-0.977671
0
LINE
8
BLACK
6
CONTINUOUS
10
-0.0242575
20
-0.977671
11
-0.0709218
21
-0.975226
0
LINE
8
BLACK
6
CONTINUOUS
10
-0.0709218
20
-0.975226
11
-0.0709717
21
-0.975223
0
LINE
8
BLACK
6
CONTINUOUS
10
-0.0709717
20
-0.975223
11
-0.0722689
21
-0.97512
0
LINE
8
BLACK
6
CONTINUOUS
10
-0.0722689
20
-0.97512
11
-0.0742481
21
-0.974965
0
LINE
8
BLACK
6
CONTINUOUS
10
-0.0742481
20
-0.974965
11
-0.074299
21
-0.97496
0
LINE
8
BLACK
6
CONTINUOUS
10
-0.074299
20
-0.97496
11
-0.130031
21
-0.969104
0
LINE
8
BLACK
6
CONTINUOUS
10
-0.130031
20
-0.969104
11
-0.130082
21
-0.969098
0
LINE
8
BLACK
6
CONTINUOUS
10
-0.130082
20
-0.969098
11
-0.133337
21
-0.968669
0
LINE
8
BLACK
6
CONTINUOUS
10
-0.133337
20
-0.968669
11
-0.133388
21
-0.968662
0
LINE
8
BLACK
6
CONTINUOUS
10
-0.133388
20
-0.968662
11
-0.180199
21
-0.961246
0
LINE
8
BLACK
6
CONTINUOUS
10
-0.180199
20
-0.961246
11
-0.1803
21
-0.961228
0
LINE
8
BLACK
6
CONTINUOUS
10
-0.1803
20
-0.961228
11
-0.226252
21
-0.951459
0
LINE
8
BLACK
6
CONTINUOUS
10
-0.226252
20
-0.951459
11
-0.226351
21
-0.951435
0
LINE
8
BLACK
6
CONTINUOUS
10
-0.226351
20
-0.951435
11
-0.272131
21
-0.939168
0
LINE
8
BLACK
6
CONTINUOUS
10
-0.272131
20
-0.939168
11
-0.27218
21
-0.939154
0
LINE
8
BLACK
6
CONTINUOUS
10
-0.27218
20
-0.939154
11
-0.275332
21
-0.93822
0
LINE
8
BLACK
6
CONTINUOUS
10
-0.275332
20
-0.93822
11
-0.275381
21
-0.938205
0
LINE
8
BLACK
6
CONTINUOUS
10
-0.275381
20
-0.938205
11
-0.328679
21
-0.920889
0
LINE
8
BLACK
6
CONTINUOUS
10
-0.328679
20
-0.920889
11
-0.328727
21
-0.920872
0
LINE
8
BLACK
6
CONTINUOUS
10
-0.328727
20
-0.920872
11
-0.331825
21
-0.919775
0
LINE
8
BLACK
6
CONTINUOUS
10
-0.331825
20
-0.919775
11
-0.331872
21
-0.919758
0
LINE
8
BLACK
6
CONTINUOUS
10
-0.331872
20
-0.919758
11
-0.376117
21
-0.902775
0
LINE
8
BLACK
6
CONTINUOUS
10
-0.376117
20
-0.902775
11
-0.37621
21
-0.902737
0
LINE
8
BLACK
6
CONTINUOUS
10
-0.37621
20
-0.902737
11
-0.419128
21
-0.883628
0
LINE
8
BLACK
6
CONTINUOUS
10
-0.419128
20
-0.883628
11
-0.41922
21
-0.883584
0
LINE
8
BLACK
6
CONTINUOUS
10
-0.41922
20
-0.883584
11
-0.461445
21
-0.862067
0
LINE
8
BLACK
6
CONTINUOUS
10
-0.461445
20
-0.862067
11
-0.461491
21
-0.862043
0
LINE
8
BLACK
6
CONTINUOUS
10
-0.461491
20
-0.862043
11
-0.464385
21
-0.860472
0
LINE
8
BLACK
6
CONTINUOUS
10
-0.464385
20
-0.860472
11
-0.464428
21
-0.860447
0
LINE
8
BLACK
6
CONTINUOUS
10
-0.464428
20
-0.860447
11
-0.512958
21
-0.83243
0
LINE
8
BLACK
6
CONTINUOUS
10
-0.512958
20
-0.83243
11
-0.512998
21
-0.832406
0
LINE
8
BLACK
6
CONTINUOUS
10
-0.512998
20
-0.832406
11
-0.515804
21
-0.830687
0
LINE
8
BLACK
6
CONTINUOUS
10
-0.515804
20
-0.830687
11
-0.515846
21
-0.830661
0
LINE
8
BLACK
6
CONTINUOUS
10
-0.515846
20
-0.830661
11
-0.541133
21
-0.81424
0
LINE
8
BLACK
6
CONTINUOUS
10
-0.541133
20
-0.81424
11
-0.555348
21
-0.805009
0
LINE
8
BLACK
6
CONTINUOUS
10
-0.555348
20
-0.805009
11
-0.555527
21
-0.804896
0
LINE
8
BLACK
6
CONTINUOUS
10
-0.555527
20
-0.804896
11
-0.555633
21
-0.804824
0
LINE
8
BLACK
6
CONTINUOUS
10
-0.555633
20
-0.804824
11
-0.593686
21
-0.777176
0
LINE
8
BLACK
6
CONTINUOUS
10
-0.593686
20
-0.777176
11
-0.593766
21
-0.777115
0
LINE
8
BLACK
6
CONTINUOUS
10
-0.593766
20
-0.777115
11
-0.630602
21
-0.747284
0
LINE
8
BLACK
6
CONTINUOUS
10
-0.630602
20
-0.747284
11
-0.630636
21
-0.747256
0
LINE
8
BLACK
6
CONTINUOUS
10
-0.630636
20
-0.747256
11
-0.643727
21
-0.736076
0
LINE
8
BLACK
6
CONTINUOUS
10
-0.643727
20
-0.736076
11
-0.643763
21
-0.736043
0
LINE
8
BLACK
6
CONTINUOUS
10
-0.643763
20
-0.736043
11
-0.664718
21
-0.717176
0
LINE
8
BLACK
6
CONTINUOUS
10
-0.664718
20
-0.717176
11
-0.664755
21
-0.717141
0
LINE
8
BLACK
6
CONTINUOUS
10
-0.664755
20
-0.717141
11
-0.669146
21
-0.712975
0
LINE
8
BLACK
6
CONTINUOUS
10
-0.669146
20
-0.712975
11
-0.669507
21
-0.712643
0
LINE
8
BLACK
6
CONTINUOUS
10
-0.669507
20
-0.712643
11
-0.669965
21
-0.712235
0
LINE
8
BLACK
6
CONTINUOUS
10
-0.669965
20
-0.712235
11
-0.670334
21
-0.711919
0
LINE
8
BLACK
6
CONTINUOUS
10
-0.670334
20
-0.711919
11
-0.670335
21
-0.711918
0
LINE
8
BLACK
6
CONTINUOUS
10
-0.670335
20
-0.711918
11
-0.683334
21
-0.701108
0
LINE
8
BLACK
6
CONTINUOUS
10
-0.683334
20
-0.701108
11
-0.683334
21
-0.701108
0
LINE
8
BLACK
6
CONTINUOUS
10
-0.683334
20
-0.701108
11
-0.68434
21
-0.700342
0
LINE
8
BLACK
6
CONTINUOUS
10
-0.68434
20
-0.700342
11
-0.684341
21
-0.700341
0
LINE
8
BLACK
6
CONTINUOUS
10
-0.684341
20
-0.700341
11
-0.684341
21
-0.700341
0
LINE
8
BLACK
6
CONTINUOUS
10
-0.684341
20
-0.700341
11
-0.685922
21
-0.699239
0
LINE
8
BLACK
6
CONTINUOUS
10
-0.685922
20
-0.699239
11
-0.686989
21
-0.698561
0
LINE
8
BLACK
6
CONTINUOUS
10
-0.686989
20
-0.698561
11
-0.686989
21
-0.698561
0
LINE
8
BLACK
6
CONTINUOUS
10
-0.686989
20
-0.698561
11
-0.701745
21
-0.690043
0
LINE
8
BLACK
6
CONTINUOUS
10
-0.701745
20
-0.690043
11
-0.703132
21
-0.689336
0
LINE
8
BLACK
6
CONTINUOUS
10
-0.703132
20
-0.689336
11
-0.703132
21
-0.689335
0
LINE
8
BLACK
6
CONTINUOUS
10
-0.703132
20
-0.689335
11
-0.705299
21
-0.688371
0
LINE
8
BLACK
6
CONTINUOUS
10
-0.705299
20
-0.688371
11
-0.706753
21
-0.687812
0
LINE
8
BLACK
6
CONTINUOUS
10
-0.706753
20
-0.687812
11
-0.723025
21
-0.682525
0
LINE
8
BLACK
6
CONTINUOUS
10
-0.723025
20
-0.682525
11
-0.723444
21
-0.682412
0
LINE
8
BLACK
6
CONTINUOUS
10
-0.723444
20
-0.682412
11
-0.724532
21
-0.682121
0
LINE
8
BLACK
6
CONTINUOUS
10
-0.724532
20
-0.682121
11
-0.726852
21
-0.681628
0
LINE
8
BLACK
6
CONTINUOUS
10
-0.726852
20
-0.681628
11
-0.728391
21
-0.681384
0
LINE
8
BLACK
6
CONTINUOUS
10
-0.728391
20
-0.681384
11
-0.745407
21
-0.679597
0
LINE
8
BLACK
6
CONTINUOUS
10
-0.745407
20
-0.679597
11
-0.745407
21
-0.679597
0
LINE
8
BLACK
6
CONTINUOUS
10
-0.745407
20
-0.679597
11
-0.746059
21
-0.679562
0
LINE
8
BLACK
6
CONTINUOUS
10
-0.746059
20
-0.679562
11
-0.746962
21
-0.679515
0
LINE
8
BLACK
6
CONTINUOUS
10
-0.746962
20
-0.679515
11
-0.749333
21
-0.679515
0
LINE
8
BLACK
6
CONTINUOUS
10
-0.749333
20
-0.679515
11
-0.7502
21
-0.679561
0
LINE
8
BLACK
6
CONTINUOUS
10
-0.7502
20
-0.679561
11
-0.750888
21
-0.679597
0
LINE
8
BLACK
6
CONTINUOUS
10
-0.750888
20
-0.679597
11
-0.750888
21
-0.679597
0
LINE
8
BLACK
6
CONTINUOUS
10
-0.750888
20
-0.679597
11
-0.767904
21
-0.681384
0
LINE
8
BLACK
6
CONTINUOUS
10
-0.767904
20
-0.681384
11
-0.769444
21
-0.681628
0
LINE
8
BLACK
6
CONTINUOUS
10
-0.769444
20
-0.681628
11
-0.771763
21
-0.682121
0
LINE
8
BLACK
6
CONTINUOUS
10
-0.771763
20
-0.682121
11
-0.771763
21
-0.682121
0
LINE
8
BLACK
6
CONTINUOUS
10
-0.771763
20
-0.682121
11
-0.77295
21
-0.682439
0
LINE
8
BLACK
6
CONTINUOUS
10
-0.77295
20
-0.682439
11
-0.773268
21
-0.682524
0
LINE
8
BLACK
6
CONTINUOUS
10
-0.773268
20
-0.682524
11
-0.773269
21
-0.682524
0
LINE
8
BLACK
6
CONTINUOUS
10
-0.773269
20
-0.682524
11
-0.773269
21
-0.682525
0
LINE
8
BLACK
6
CONTINUOUS
10
-0.773269
20
-0.682525
11
-0.789543
21
-0.687812
0
LINE
8
BLACK
6
CONTINUOUS
10
-0.789543
20
-0.687812
11
-0.789544
21
-0.687812
0
LINE
8
BLACK
6
CONTINUOUS
10
-0.789544
20
-0.687812
11
-0.790998
21
-0.688371
0
LINE
8
BLACK
6
CONTINUOUS
10
-0.790998
20
-0.688371
11
-0.790998
21
-0.688371
0
LINE
8
BLACK
6
CONTINUOUS
10
-0.790998
20
-0.688371
11
-0.790999
21
-0.688371
0
LINE
8
BLACK
6
CONTINUOUS
10
-0.790999
20
-0.688371
11
-0.793165
21
-0.689335
0
LINE
8
BLACK
6
CONTINUOUS
10
-0.793165
20
-0.689335
11
-0.793166
21
-0.689336
0
LINE
8
BLACK
6
CONTINUOUS
10
-0.793166
20
-0.689336
11
-0.793166
21
-0.689336
0
LINE
8
BLACK
6
CONTINUOUS
10
-0.793166
20
-0.689336
11
-0.793167
21
-0.689336
0
LINE
8
BLACK
6
CONTINUOUS
10
-0.793167
20
-0.689336
11
-0.794552
21
-0.690042
0
LINE
8
BLACK
6
CONTINUOUS
10
-0.794552
20
-0.690042
11
-0.794554
21
-0.690043
0
LINE
8
BLACK
6
CONTINUOUS
10
-0.794554
20
-0.690043
11
-0.809349
21
-0.698585
0
LINE
8
BLACK
6
CONTINUOUS
10
-0.809349
20
-0.698585
11
-0.809349
21
-0.698585
0
LINE
8
BLACK
6
CONTINUOUS
10
-0.809349
20
-0.698585
11
-0.810574
21
-0.699375
0
LINE
8
BLACK
6
CONTINUOUS
10
-0.810574
20
-0.699375
11
-0.81238
21
-0.700668
0
LINE
8
BLACK
6
CONTINUOUS
10
-0.81238
20
-0.700668
11
-0.81238
21
-0.700669
0
LINE
8
BLACK
6
CONTINUOUS
10
-0.81238
20
-0.700669
11
-0.813522
21
-0.701575
0
LINE
8
BLACK
6
CONTINUOUS
10
-0.813522
20
-0.701575
11
-0.826297
21
-0.712771
0
LINE
8
BLACK
6
CONTINUOUS
10
-0.826297
20
-0.712771
11
-0.826798
21
-0.713232
0
LINE
8
BLACK
6
CONTINUOUS
10
-0.826798
20
-0.713232
11
-0.827414
21
-0.713823
0
LINE
8
BLACK
6
CONTINUOUS
10
-0.827414
20
-0.713823
11
-0.827414
21
-0.713824
0
LINE
8
BLACK
6
CONTINUOUS
10
-0.827414
20
-0.713824
11
-0.827895
21
-0.714307
0
LINE
8
BLACK
6
CONTINUOUS
10
-0.827895
20
-0.714307
11
-0.841304
21
-0.728422
0
LINE
8
BLACK
6
CONTINUOUS
10
-0.841304
20
-0.728422
11
-0.850881
21
-0.738503
0
LINE
8
BLACK
6
CONTINUOUS
10
-0.850881
20
-0.738503
11
-0.853228
21
-0.740974
0
LINE
8
BLACK
6
CONTINUOUS
10
-0.853228
20
-0.740974
11
-0.860034
21
-0.748138
0
LINE
8
BLACK
6
CONTINUOUS
10
-0.860034
20
-0.748138
11
-0.860034
21
-0.748138
0
LINE
8
BLACK
6
CONTINUOUS
10
-0.860034
20
-0.748138
11
-0.924692
21
-0.816199
0
LINE
8
BLACK
6
CONTINUOUS
10
-0.924692
20
-0.816199
11
-0.924692
21
-0.816199
0
LINE
8
BLACK
6
CONTINUOUS
10
-0.924692
20
-0.816199
11
-0.940088
21
-0.832405
0
LINE
8
BLACK
6
CONTINUOUS
10
-0.940088
20
-0.832405
11
-0.954116
21
-0.847171
0
LINE
8
BLACK
6
CONTINUOUS
10
-0.954116
20
-0.847171
11
-0.981127
21
-0.875604
0
LINE
8
BLACK
6
CONTINUOUS
10
-0.981127
20
-0.875604
11
-0.98174
21
-0.876249
0
LINE
8
BLACK
6
CONTINUOUS
10
-0.98174
20
-0.876249
11
-0.982391
21
-0.876934
0
LINE
8
BLACK
6
CONTINUOUS
10
-0.982391
20
-0.876934
11
-0.982391
21
-0.876934
0
LINE
8
BLACK
6
CONTINUOUS
10
-0.982391
20
-0.876934
11
-1.00566
21
-0.901426
0
LINE
8
BLACK
6
CONTINUOUS
10
-1.00566
20
-0.901426
11
-1.00566
21
-0.901426
0
LINE
8
BLACK
6
CONTINUOUS
10
-1.00566
20
-0.901426
11
-1.00689
21
-0.902723
0
LINE
8
BLACK
6
CONTINUOUS
10
-1.00689
20
-0.902723
11
-1.00695
21
-0.902787
0
LINE
8
BLACK
6
CONTINUOUS
10
-1.00695
20
-0.902787
11
-1.02763
21
-0.924554
0
LINE
8
BLACK
6
CONTINUOUS
10
-1.02763
20
-0.924554
11
-1.02868
21
-0.92566
0
LINE
8
BLACK
6
CONTINUOUS
10
-1.02868
20
-0.92566
11
-1.04456
21
-0.942379
0
LINE
8
BLACK
6
CONTINUOUS
10
-1.04456
20
-0.942379
11
-1.0561
21
-0.95485
0
LINE
8
BLACK
6
CONTINUOUS
10
-1.0561
20
-0.95485
11
-1.0561
21
-0.954851
0
LINE
8
BLACK
6
CONTINUOUS
10
-1.0561
20
-0.954851
11
-1.05667
21
-0.955512
0
LINE
8
BLACK
6
CONTINUOUS
10
-1.05667
20
-0.955512
11
-1.05667
21
-0.955513
0
LINE
8
BLACK
6
CONTINUOUS
10
-1.05667
20
-0.955513
11
-1.05738
21
-0.956369
0
LINE
8
BLACK
6
CONTINUOUS
10
-1.05738
20
-0.956369
11
-1.05791
21
-0.957061
0
LINE
8
BLACK
6
CONTINUOUS
10
-1.05791
20
-0.957061
11
-1.05791
21
-0.957063
0
LINE
8
BLACK
6
CONTINUOUS
10
-1.05791
20
-0.957063
11
-1.06634
21
-0.968662
0
LINE
8
BLACK
6
CONTINUOUS
10
-1.06634
20
-0.968662
11
-1.06794
21
-0.97087
0
LINE
8
BLACK
6
CONTINUOUS
10
-1.06794
20
-0.97087
11
-1.06879
21
-0.972175
0
LINE
8
BLACK
6
CONTINUOUS
10
-1.06879
20
-0.972175
11
-1.06879
21
-0.972176
0
LINE
8
BLACK
6
CONTINUOUS
10
-1.06879
20
-0.972176
11
-1.06998
21
-0.974229
0
LINE
8
BLACK
6
CONTINUOUS
10
-1.06998
20
-0.974229
11
-1.06998
21
-0.974229
0
LINE
8
BLACK
6
CONTINUOUS
10
-1.06998
20
-0.974229
11
-1.06998
21
-0.97423
0
LINE
8
BLACK
6
CONTINUOUS
10
-1.06998
20
-0.97423
11
-1.07035
21
-0.974965
0
LINE
8
BLACK
6
CONTINUOUS
10
-1.07035
20
-0.974965
11
-1.07069
21
-0.975618
0
LINE
8
BLACK
6
CONTINUOUS
10
-1.07069
20
-0.975618
11
-1.07069
21
-0.975618
0
LINE
8
BLACK
6
CONTINUOUS
10
-1.07069
20
-0.975618
11
-1.07764
21
-0.991246
0
LINE
8
BLACK
6
CONTINUOUS
10
-1.07764
20
-0.991246
11
-1.07765
21
-0.991246
0
LINE
8
BLACK
6
CONTINUOUS
10
-1.07765
20
-0.991246
11
-1.0782
21
-0.992699
0
LINE
8
BLACK
6
CONTINUOUS
10
-1.0782
20
-0.992699
11
-1.0782
21
-0.992699
0
LINE
8
BLACK
6
CONTINUOUS
10
-1.0782
20
-0.992699
11
-1.07894
21
-0.994956
0
LINE
8
BLACK
6
CONTINUOUS
10
-1.07894
20
-0.994956
11
-1.07894
21
-0.994957
0
LINE
8
BLACK
6
CONTINUOUS
10
-1.07894
20
-0.994957
11
-1.07894
21
-0.994959
0
LINE
8
BLACK
6
CONTINUOUS
10
-1.07894
20
-0.994959
11
-1.07934
21
-0.996462
0
LINE
8
BLACK
6
CONTINUOUS
10
-1.07934
20
-0.996462
11
-1.07934
21
-0.996463
0
LINE
8
BLACK
6
CONTINUOUS
10
-1.07934
20
-0.996463
11
-1.0829
21
-1.0132
0
LINE
8
BLACK
6
CONTINUOUS
10
-1.0829
20
-1.0132
11
-1.0829
21
-1.0132
0
LINE
8
BLACK
6
CONTINUOUS
10
-1.0829
20
-1.0132
11
-1.08314
21
-1.01473
0
LINE
8
BLACK
6
CONTINUOUS
10
-1.08314
20
-1.01473
11
-1.08314
21
-1.01474
0
LINE
8
BLACK
6
CONTINUOUS
10
-1.08314
20
-1.01474
11
-1.08339
21
-1.01709
0
LINE
8
BLACK
6
CONTINUOUS
10
-1.08339
20
-1.01709
11
-1.08339
21
-1.01709
0
LINE
8
BLACK
6
CONTINUOUS
10
-1.08339
20
-1.01709
11
-1.08347
21
-1.01865
0
LINE
8
BLACK
6
CONTINUOUS
10
-1.08347
20
-1.01865
11
-1.08347
21
-1.01865
0
LINE
8
BLACK
6
CONTINUOUS
10
-1.08347
20
-1.01865
11
-1.08347
21
-1.03576
0
LINE
8
BLACK
6
CONTINUOUS
10
-1.08347
20
-1.03576
11
-1.08347
21
-1.03576
0
LINE
8
BLACK
6
CONTINUOUS
10
-1.08347
20
-1.03576
11
-1.08339
21
-1.03731
0
LINE
8
BLACK
6
CONTINUOUS
10
-0.320299
20
-0.0223976
11
-0.317957
21
-0.044686
0
LINE
8
BLACK
6
CONTINUOUS
10
-0.317957
20
-0.044686
11
-0.314065
21
-0.0667559
0
LINE
8
BLACK
6
CONTINUOUS
10
-0.314065
20
-0.0667559
11
-0.314065
21
-0.0667572
0
LINE
8
BLACK
6
CONTINUOUS
10
-0.314065
20
-0.0667572
11
-0.308643
21
-0.0885019
0
LINE
8
BLACK
6
CONTINUOUS
10
-0.308643
20
-0.0885019
11
-0.301718
21
-0.109817
0
LINE
8
BLACK
6
CONTINUOUS
10
-0.301718
20
-0.109817
11
-0.293323
21
-0.130595
0
LINE
8
BLACK
6
CONTINUOUS
10
-0.293323
20
-0.130595
11
-0.283498
21
-0.150739
0
LINE
8
BLACK
6
CONTINUOUS
10
-0.283498
20
-0.150739
11
-0.283498
21
-0.150739
0
LINE
8
BLACK
6
CONTINUOUS
10
-0.283498
20
-0.150739
11
-0.272293
21
-0.170147
0
LINE
8
BLACK
6
CONTINUOUS
10
-0.272293
20
-0.170147
11
-0.272293
21
-0.170147
0
LINE
8
BLACK
6
CONTINUOUS
10
-0.272293
20
-0.170147
11
-0.272292
21
-0.170147
0
LINE
8
BLACK
6
CONTINUOUS
10
-0.272292
20
-0.170147
11
-0.25976
21
-0.188727
0
LINE
8
BLACK
6
CONTINUOUS
10
-0.25976
20
-0.188727
11
-0.25976
21
-0.188727
0
LINE
8
BLACK
6
CONTINUOUS
10
-0.25976
20
-0.188727
11
-0.245962
21
-0.206388
0
LINE
8
BLACK
6
CONTINUOUS
10
-0.245962
20
-0.206388
11
-0.245962
21
-0.206388
0
LINE
8
BLACK
6
CONTINUOUS
10
-0.245962
20
-0.206388
11
-0.230967
21
-0.223042
0
LINE
8
BLACK
6
CONTINUOUS
10
-0.230967
20
-0.223042
11
-0.230967
21
-0.223042
0
LINE
8
BLACK
6
CONTINUOUS
10
-0.230967
20
-0.223042
11
-0.230967
21
-0.223042
0
LINE
8
BLACK
6
CONTINUOUS
10
-0.230967
20
-0.223042
11
-0.214845
21
-0.23861
0
LINE
8
BLACK
6
CONTINUOUS
10
-0.214845
20
-0.23861
11
-0.197898
21
-0.25283
0
LINE
8
BLACK
6
CONTINUOUS
10
-0.197898
20
-0.25283
11
-0.197677
21
-0.253016
0
LINE
8
BLACK
6
CONTINUOUS
10
-0.197677
20
-0.253016
11
-0.191589
21
-0.257439
0
LINE
8
BLACK
6
CONTINUOUS
10
-0.191589
20
-0.257439
11
-0.179546
21
-0.266189
0
LINE
8
BLACK
6
CONTINUOUS
10
-0.179546
20
-0.266189
11
-0.160866
21
-0.277861
0
LINE
8
BLACK
6
CONTINUOUS
10
-0.160866
20
-0.277861
11
-0.16054
21
-0.278065
0
LINE
8
BLACK
6
CONTINUOUS
10
-0.16054
20
-0.278065
11
-0.143627
21
-0.287058
0
LINE
8
BLACK
6
CONTINUOUS
10
-0.143627
20
-0.287058
11
-0.140753
21
-0.288586
0
LINE
8
BLACK
6
CONTINUOUS
10
-0.140753
20
-0.288586
11
-0.120279
21
-0.297701
0
LINE
8
BLACK
6
CONTINUOUS
10
-0.120279
20
-0.297701
11
-0.0992196
21
-0.305367
0
LINE
8
BLACK
6
CONTINUOUS
10
-0.0992196
20
-0.305367
11
-0.0776766
21
-0.311544
0
LINE
8
BLACK
6
CONTINUOUS
10
-0.0776766
20
-0.311544
11
-0.0557552
21
-0.316203
0
LINE
8
BLACK
6
CONTINUOUS
10
-0.0557552
20
-0.316203
11
-0.0335622
21
-0.319322
0
LINE
8
BLACK
6
CONTINUOUS
10
-0.0335622
20
-0.319322
11
-0.0112056
21
-0.320886
0
LINE
8
BLACK
6
CONTINUOUS
10
-0.0112056
20
-0.320886
11
-0.0112053
21
-0.320886
0
LINE
8
BLACK
6
CONTINUOUS
10
-0.0112053
20
-0.320886
11
0.0112053
21
-0.320886
0
LINE
8
BLACK
6
CONTINUOUS
10
0.0112053
20
-0.320886
11
0.0112056
21
-0.320886
0
LINE
8
BLACK
6
CONTINUOUS
10
0.0112056
20
-0.320886
11
0.0335622
21
-0.319322
0
LINE
8
BLACK
6
CONTINUOUS
10
0.0335622
20
-0.319322
11
0.0557552
21
-0.316203
0
LINE
8
BLACK
6
CONTINUOUS
10
0.0557552
20
-0.316203
11
0.0776766
21
-0.311544
0
LINE
8
BLACK
6
CONTINUOUS
10
0.0776766
20
-0.311544
11
0.0992196
21
-0.305367
0
LINE
8
BLACK
6
CONTINUOUS
10
0.0992196
20
-0.305367
11
0.120279
21
-0.297701
0
LINE
8
BLACK
6
CONTINUOUS
10
0.120279
20
-0.297701
11
0.140753
21
-0.288586
0
LINE
8
BLACK
6
CONTINUOUS
10
0.140753
20
-0.288586
11
0.160541
21
-0.278065
0
LINE
8
BLACK
6
CONTINUOUS
10
0.160541
20
-0.278065
11
0.179546
21
-0.266189
0
LINE
8
BLACK
6
CONTINUOUS
10
0.179546
20
-0.266189
11
0.197677
21
-0.253016
0
LINE
8
BLACK
6
CONTINUOUS
10
0.197677
20
-0.253016
11
0.214845
21
-0.23861
0
LINE
8
BLACK
6
CONTINUOUS
10
0.214845
20
-0.23861
11
0.230967
21
-0.223042
0
LINE
8
BLACK
6
CONTINUOUS
10
0.230967
20
-0.223042
11
0.245963
21
-0.206387
0
LINE
8
BLACK
6
CONTINUOUS
10
0.245963
20
-0.206387
11
0.25976
21
-0.188727
0
LINE
8
BLACK
6
CONTINUOUS
10
0.25976
20
-0.188727
11
0.272292
21
-0.170147
0
LINE
8
BLACK
6
CONTINUOUS
10
0.272292
20
-0.170147
11
0.283498
21
-0.150739
0
LINE
8
BLACK
6
CONTINUOUS
10
0.283498
20
-0.150739
11
0.293322
21
-0.130596
0
LINE
8
BLACK
6
CONTINUOUS
10
0.293322
20
-0.130596
11
0.301718
21
-0.109816
0
LINE
8
BLACK
6
CONTINUOUS
10
0.301718
20
-0.109816
11
0.308643
21
-0.088502
0
LINE
8
BLACK
6
CONTINUOUS
10
0.308643
20
-0.088502
11
0.314065
21
-0.0667566
0
LINE
8
BLACK
6
CONTINUOUS
10
0.314065
20
-0.0667566
11
0.317957
21
-0.0446859
0
LINE
8
BLACK
6
CONTINUOUS
10
0.317957
20
-0.0446859
11
0.320299
21
-0.0223975
0
LINE
8
BLACK
6
CONTINUOUS
10
0.320299
20
-0.0223975
11
0.321081
21
0
0
LINE
8
BLACK
6
CONTINUOUS
10
0.321081
20
0
11
0.320299
21
0.0223975
0
LINE
8
BLACK
6
CONTINUOUS
10
0.320299
20
0.0223975
11
0.317957
21
0.0446859
0
LINE
8
BLACK
6
CONTINUOUS
10
0.317957
20
0.0446859
11
0.314065
21
0.0667566
0
LINE
8
BLACK
6
CONTINUOUS
10
0.314065
20
0.0667566
11
0.310161
21
0.0824163
0
LINE
8
BLACK
6
CONTINUOUS
10
0.310161
20
0.0824163
11
0.308643
21
0.0885019
0
LINE
8
BLACK
6
CONTINUOUS
10
0.308643
20
0.0885019
11
0.301718
21
0.109817
0
LINE
8
BLACK
6
CONTINUOUS
10
0.301718
20
0.109817
11
0.293323
21
0.130595
0
LINE
8
BLACK
6
CONTINUOUS
10
0.293323
20
0.130595
11
0.293322
21
0.130596
0
LINE
8
BLACK
6
CONTINUOUS
10
0.293322
20
0.130596
11
0.283498
21
0.150739
0
LINE
8
BLACK
6
CONTINUOUS
10
0.283498
20
0.150739
11
0.272292
21
0.170147
0
LINE
8
BLACK
6
CONTINUOUS
10
0.272292
20
0.170147
11
0.25976
21
0.188727
0
LINE
8
BLACK
6
CONTINUOUS
10
0.25976
20
0.188727
11
0.245963
21
0.206387
0
LINE
8
BLACK
6
CONTINUOUS
10
0.245963
20
0.206387
11
0.245962
21
0.206387
0
LINE
8
BLACK
6
CONTINUOUS
10
0.245962
20
0.206387
11
0.245962
21
0.206388
0
LINE
8
BLACK
6
CONTINUOUS
10
0.245962
20
0.206388
11
0.245962
21
0.206388
0
LINE
8
BLACK
6
CONTINUOUS
10
0.245962
20
0.206388
11
0.230967
21
0.223042
0
LINE
8
BLACK
6
CONTINUOUS
10
0.230967
20
0.223042
11
0.230967
21
0.223042
0
LINE
8
BLACK
6
CONTINUOUS
10
0.230967
20
0.223042
11
0.214845
21
0.23861
0
LINE
8
BLACK
6
CONTINUOUS
10
0.214845
20
0.23861
11
0.197677
21
0.253016
0
LINE
8
BLACK
6
CONTINUOUS
10
0.197677
20
0.253016
11
0.187057
21
0.260732
0
LINE
8
BLACK
6
CONTINUOUS
10
0.187057
20
0.260732
11
0.179546
21
0.266189
0
LINE
8
BLACK
6
CONTINUOUS
10
0.179546
20
0.266189
11
0.160866
21
0.277861
0
LINE
8
BLACK
6
CONTINUOUS
10
0.160866
20
0.277861
11
0.16054
21
0.278065
0
LINE
8
BLACK
6
CONTINUOUS
10
0.16054
20
0.278065
11
0.140753
21
0.288586
0
LINE
8
BLACK
6
CONTINUOUS
10
0.140753
20
0.288586
11
0.120279
21
0.297702
0
LINE
8
BLACK
6
CONTINUOUS
10
0.120279
20
0.297702
11
0.0992194
21
0.305367
0
LINE
8
BLACK
6
CONTINUOUS
10
0.0992194
20
0.305367
11
0.0819412
21
0.310321
0
LINE
8
BLACK
6
CONTINUOUS
10
0.0819412
20
0.310321
11
0.0776766
21
0.311544
0
LINE
8
BLACK
6
CONTINUOUS
10
0.0776766
20
0.311544
11
0.0557552
21
0.316203
0
LINE
8
BLACK
6
CONTINUOUS
10
0.0557552
20
0.316203
11
0.0335622
21
0.319322
0
LINE
8
BLACK
6
CONTINUOUS
10
0.0335622
20
0.319322
11
0.0112056
21
0.320886
0
LINE
8
BLACK
6
CONTINUOUS
10
0.0112056
20
0.320886
11
-0.0112056
21
0.320886
0
LINE
8
BLACK
6
CONTINUOUS
10
-0.0112056
20
0.320886
11
-0.0335622
21
0.319322
0
LINE
8
BLACK
6
CONTINUOUS
10
-0.0335622
20
0.319322
11
-0.0557552
21
0.316203
0
LINE
8
BLACK
6
CONTINUOUS
10
-0.0557552
20
0.316203
11
-0.0776766
21
0.311544
0
LINE
8
BLACK
6
CONTINUOUS
10
-0.0776766
20
0.311544
11
-0.0776767
21
0.311544
0
LINE
8
BLACK
6
CONTINUOUS
10
-0.0776767
20
0.311544
11
-0.0776768
21
0.311544
0
LINE
8
BLACK
6
CONTINUOUS
10
-0.0776768
20
0.311544
11
-0.0992194
21
0.305367
0
LINE
8
BLACK
6
CONTINUOUS
10
-0.0992194
20
0.305367
11
-0.120279
21
0.297702
0
LINE
8
BLACK
6
CONTINUOUS
10
-0.120279
20
0.297702
11
-0.140753
21
0.288586
0
LINE
8
BLACK
6
CONTINUOUS
10
-0.140753
20
0.288586
11
-0.16054
21
0.278065
0
LINE
8
BLACK
6
CONTINUOUS
10
-0.16054
20
0.278065
11
-0.179546
21
0.266189
0
LINE
8
BLACK
6
CONTINUOUS
10
-0.179546
20
0.266189
11
-0.197677
21
0.253016
0
LINE
8
BLACK
6
CONTINUOUS
10
-0.197677
20
0.253016
11
-0.214845
21
0.23861
0
LINE
8
BLACK
6
CONTINUOUS
10
-0.214845
20
0.23861
11
-0.230967
21
0.223042
0
LINE
8
BLACK
6
CONTINUOUS
10
-0.230967
20
0.223042
11
-0.230967
21
0.223042
0
LINE
8
BLACK
6
CONTINUOUS
10
-0.230967
20
0.223042
11
-0.245962
21
0.206388
0
LINE
8
BLACK
6
CONTINUOUS
10
-0.245962
20
0.206388
11
-0.245962
21
0.206388
0
LINE
8
BLACK
6
CONTINUOUS
10
-0.245962
20
0.206388
11
-0.25976
21
0.188727
0
LINE
8
BLACK
6
CONTINUOUS
10
-0.25976
20
0.188727
11
-0.272293
21
0.170147
0
LINE
8
BLACK
6
CONTINUOUS
10
-0.272293
20
0.170147
11
-0.272293
21
0.170147
0
LINE
8
BLACK
6
CONTINUOUS
10
-0.272293
20
0.170147
11
-0.283498
21
0.150739
0
LINE
8
BLACK
6
CONTINUOUS
10
-0.283498
20
0.150739
11
-0.283498
21
0.150739
0
LINE
8
BLACK
6
CONTINUOUS
10
-0.283498
20
0.150739
11
-0.293323
21
0.130595
0
LINE
8
BLACK
6
CONTINUOUS
10
-0.293323
20
0.130595
11
-0.301718
21
0.109817
0
LINE
8
BLACK
6
CONTINUOUS
10
-0.301718
20
0.109817
11
-0.308643
21
0.0885019
0
LINE
8
BLACK
6
CONTINUOUS
10
-0.308643
20
0.0885019
11
-0.314065
21
0.0667573
0
LINE
8
BLACK
6
CONTINUOUS
10
-0.314065
20
0.0667573
11
-0.314065
21
0.0667559
0
LINE
8
BLACK
6
CONTINUOUS
10
-0.314065
20
0.0667559
11
-0.317957
21
0.0446861
0
LINE
8
BLACK
6
CONTINUOUS
10
-0.317957
20
0.0446861
11
-0.320299
21
0.0223976
0
LINE
8
BLACK
6
CONTINUOUS
10
-0.320299
20
0.0223976
11
-0.321081
21
3.93701e-08
0
LINE
8
BLACK
6
CONTINUOUS
10
-0.321081
20
3.93701e-08
11
-0.320299
21
-0.0223976
0
LINE
8
BLACK
6
CONTINUOUS
10
-1.08347
20
1.01865
11
-1.08347
21
1.01865
0
LINE
8
BLACK
6
CONTINUOUS
10
-1.08347
20
1.01865
11
-1.08339
21
1.01709
0
LINE
8
BLACK
6
CONTINUOUS
10
-1.08339
20
1.01709
11
-1.08339
21
1.01709
0
LINE
8
BLACK
6
CONTINUOUS
10
-1.08339
20
1.01709
11
-1.08314
21
1.01473
0
LINE
8
BLACK
6
CONTINUOUS
10
-1.08314
20
1.01473
11
-1.08314
21
1.01473
0
LINE
8
BLACK
6
CONTINUOUS
10
-1.08314
20
1.01473
11
-1.0829
21
1.0132
0
LINE
8
BLACK
6
CONTINUOUS
10
-1.0829
20
1.0132
11
-1.0829
21
1.0132
0
LINE
8
BLACK
6
CONTINUOUS
10
-1.0829
20
1.0132
11
-1.07934
21
0.996464
0
LINE
8
BLACK
6
CONTINUOUS
10
-1.07934
20
0.996464
11
-1.07934
21
0.996462
0
LINE
8
BLACK
6
CONTINUOUS
10
-1.07934
20
0.996462
11
-1.07894
21
0.994959
0
LINE
8
BLACK
6
CONTINUOUS
10
-1.07894
20
0.994959
11
-1.07894
21
0.994958
0
LINE
8
BLACK
6
CONTINUOUS
10
-1.07894
20
0.994958
11
-1.07864
21
0.994058
0
LINE
8
BLACK
6
CONTINUOUS
10
-1.07864
20
0.994058
11
-1.0782
21
0.992702
0
LINE
8
BLACK
6
CONTINUOUS
10
-1.0782
20
0.992702
11
-1.07765
21
0.991246
0
LINE
8
BLACK
6
CONTINUOUS
10
-1.07765
20
0.991246
11
-1.07069
21
0.975618
0
LINE
8
BLACK
6
CONTINUOUS
10
-1.07069
20
0.975618
11
-1.07069
21
0.975617
0
LINE
8
BLACK
6
CONTINUOUS
10
-1.07069
20
0.975617
11
-1.06998
21
0.974231
0
LINE
8
BLACK
6
CONTINUOUS
10
-1.06998
20
0.974231
11
-1.06998
21
0.97423
0
LINE
8
BLACK
6
CONTINUOUS
10
-1.06998
20
0.97423
11
-1.06879
21
0.972176
0
LINE
8
BLACK
6
CONTINUOUS
10
-1.06879
20
0.972176
11
-1.06812
21
0.971141
0
LINE
8
BLACK
6
CONTINUOUS
10
-1.06812
20
0.971141
11
-1.06794
21
0.970869
0
LINE
8
BLACK
6
CONTINUOUS
10
-1.06794
20
0.970869
11
-1.05791
21
0.957063
0
LINE
8
BLACK
6
CONTINUOUS
10
-1.05791
20
0.957063
11
-1.05791
21
0.957062
0
LINE
8
BLACK
6
CONTINUOUS
10
-1.05791
20
0.957062
11
-1.05738
21
0.956369
0
LINE
8
BLACK
6
CONTINUOUS
10
-1.05738
20
0.956369
11
-1.05738
21
0.956367
0
LINE
8
BLACK
6
CONTINUOUS
10
-1.05738
20
0.956367
11
-1.05691
21
0.955797
0
LINE
8
BLACK
6
CONTINUOUS
10
-1.05691
20
0.955797
11
-1.05667
21
0.955511
0
LINE
8
BLACK
6
CONTINUOUS
10
-1.05667
20
0.955511
11
-1.05633
21
0.955118
0
LINE
8
BLACK
6
CONTINUOUS
10
-1.05633
20
0.955118
11
-1.0561
21
0.95485
0
LINE
8
BLACK
6
CONTINUOUS
10
-1.0561
20
0.95485
11
-1.04456
21
0.942378
0
LINE
8
BLACK
6
CONTINUOUS
10
-1.04456
20
0.942378
11
-1.03482
21
0.932124
0
LINE
8
BLACK
6
CONTINUOUS
10
-1.03482
20
0.932124
11
-1.02763
21
0.924555
0
LINE
8
BLACK
6
CONTINUOUS
10
-1.02763
20
0.924555
11
-1.02745
21
0.924365
0
LINE
8
BLACK
6
CONTINUOUS
10
-1.02745
20
0.924365
11
-1.00695
21
0.902787
0
LINE
8
BLACK
6
CONTINUOUS
10
-1.00695
20
0.902787
11
-1.00695
21
0.902787
0
LINE
8
BLACK
6
CONTINUOUS
10
-1.00695
20
0.902787
11
-1.00583
21
0.901604
0
LINE
8
BLACK
6
CONTINUOUS
10
-1.00583
20
0.901604
11
-1.00566
21
0.901426
0
LINE
8
BLACK
6
CONTINUOUS
10
-1.00566
20
0.901426
11
-0.982392
21
0.876935
0
LINE
8
BLACK
6
CONTINUOUS
10
-0.982392
20
0.876935
11
-0.98145
21
0.875943
0
LINE
8
BLACK
6
CONTINUOUS
10
-0.98145
20
0.875943
11
-0.981129
21
0.875606
0
LINE
8
BLACK
6
CONTINUOUS
10
-0.981129
20
0.875606
11
-0.955339
21
0.848459
0
LINE
8
BLACK
6
CONTINUOUS
10
-0.955339
20
0.848459
11
-0.955339
21
0.848459
0
LINE
8
BLACK
6
CONTINUOUS
10
-0.955339
20
0.848459
11
-0.955339
21
0.848459
0
LINE
8
BLACK
6
CONTINUOUS
10
-0.955339
20
0.848459
11
-0.925879
21
0.817448
0
LINE
8
BLACK
6
CONTINUOUS
10
-0.925879
20
0.817448
11
-0.892264
21
0.782064
0
LINE
8
BLACK
6
CONTINUOUS
10
-0.892264
20
0.782064
11
-0.892264
21
0.782064
0
LINE
8
BLACK
6
CONTINUOUS
10
-0.892264
20
0.782064
11
-0.860035
21
0.748138
0
LINE
8
BLACK
6
CONTINUOUS
10
-0.860035
20
0.748138
11
-0.850882
21
0.738504
0
LINE
8
BLACK
6
CONTINUOUS
10
-0.850882
20
0.738504
11
-0.828449
21
0.714891
0
LINE
8
BLACK
6
CONTINUOUS
10
-0.828449
20
0.714891
11
-0.827895
21
0.714307
0
LINE
8
BLACK
6
CONTINUOUS
10
-0.827895
20
0.714307
11
-0.827416
21
0.713825
0
LINE
8
BLACK
6
CONTINUOUS
10
-0.827416
20
0.713825
11
-0.826798
21
0.713231
0
LINE
8
BLACK
6
CONTINUOUS
10
-0.826798
20
0.713231
11
-0.826796
21
0.71323
0
LINE
8
BLACK
6
CONTINUOUS
10
-0.826796
20
0.71323
11
-0.826295
21
0.71277
0
LINE
8
BLACK
6
CONTINUOUS
10
-0.826295
20
0.71277
11
-0.813524
21
0.701576
0
LINE
8
BLACK
6
CONTINUOUS
10
-0.813524
20
0.701576
11
-0.813523
21
0.701575
0
LINE
8
BLACK
6
CONTINUOUS
10
-0.813523
20
0.701575
11
-0.812381
21
0.700669
0
LINE
8
BLACK
6
CONTINUOUS
10
-0.812381
20
0.700669
11
-0.812381
21
0.700669
0
LINE
8
BLACK
6
CONTINUOUS
10
-0.812381
20
0.700669
11
-0.811923
21
0.700341
0
LINE
8
BLACK
6
CONTINUOUS
10
-0.811923
20
0.700341
11
-0.810575
21
0.699375
0
LINE
8
BLACK
6
CONTINUOUS
10
-0.810575
20
0.699375
11
-0.809977
21
0.69899
0
LINE
8
BLACK
6
CONTINUOUS
10
-0.809977
20
0.69899
11
-0.809349
21
0.698585
0
LINE
8
BLACK
6
CONTINUOUS
10
-0.809349
20
0.698585
11
-0.794554
21
0.690043
0
LINE
8
BLACK
6
CONTINUOUS
10
-0.794554
20
0.690043
11
-0.793165
21
0.689336
0
LINE
8
BLACK
6
CONTINUOUS
10
-0.793165
20
0.689336
11
-0.79183
21
0.688741
0
LINE
8
BLACK
6
CONTINUOUS
10
-0.79183
20
0.688741
11
-0.790999
21
0.688371
0
LINE
8
BLACK
6
CONTINUOUS
10
-0.790999
20
0.688371
11
-0.790998
21
0.688371
0
LINE
8
BLACK
6
CONTINUOUS
10
-0.790998
20
0.688371
11
-0.790998
21
0.688371
0
LINE
8
BLACK
6
CONTINUOUS
10
-0.790998
20
0.688371
11
-0.789543
21
0.687812
0
LINE
8
BLACK
6
CONTINUOUS
10
-0.789543
20
0.687812
11
-0.773269
21
0.682525
0
LINE
8
BLACK
6
CONTINUOUS
10
-0.773269
20
0.682525
11
-0.771765
21
0.682122
0
LINE
8
BLACK
6
CONTINUOUS
10
-0.771765
20
0.682122
11
-0.769444
21
0.681628
0
LINE
8
BLACK
6
CONTINUOUS
10
-0.769444
20
0.681628
11
-0.767905
21
0.681385
0
LINE
8
BLACK
6
CONTINUOUS
10
-0.767905
20
0.681385
11
-0.767904
21
0.681385
0
LINE
8
BLACK
6
CONTINUOUS
10
-0.767904
20
0.681385
11
-0.767904
21
0.681384
0
LINE
8
BLACK
6
CONTINUOUS
10
-0.767904
20
0.681384
11
-0.764166
21
0.680992
0
LINE
8
BLACK
6
CONTINUOUS
10
-0.764166
20
0.680992
11
-0.750889
21
0.679597
0
LINE
8
BLACK
6
CONTINUOUS
10
-0.750889
20
0.679597
11
-0.749334
21
0.679515
0
LINE
8
BLACK
6
CONTINUOUS
10
-0.749334
20
0.679515
11
-0.749333
21
0.679515
0
LINE
8
BLACK
6
CONTINUOUS
10
-0.749333
20
0.679515
11
-0.746963
21
0.679515
0
LINE
8
BLACK
6
CONTINUOUS
10
-0.746963
20
0.679515
11
-0.746962
21
0.679515
0
LINE
8
BLACK
6
CONTINUOUS
10
-0.746962
20
0.679515
11
-0.745407
21
0.679597
0
LINE
8
BLACK
6
CONTINUOUS
10
-0.745407
20
0.679597
11
-0.728392
21
0.681384
0
LINE
8
BLACK
6
CONTINUOUS
10
-0.728392
20
0.681384
11
-0.728392
21
0.681384
0
LINE
8
BLACK
6
CONTINUOUS
10
-0.728392
20
0.681384
11
-0.728392
21
0.681384
0
LINE
8
BLACK
6
CONTINUOUS
10
-0.728392
20
0.681384
11
-0.728391
21
0.681385
0
LINE
8
BLACK
6
CONTINUOUS
10
-0.728391
20
0.681385
11
-0.726852
21
0.681628
0
LINE
8
BLACK
6
CONTINUOUS
10
-0.726852
20
0.681628
11
-0.725459
21
0.681924
0
LINE
8
BLACK
6
CONTINUOUS
10
-0.725459
20
0.681924
11
-0.724531
21
0.682121
0
LINE
8
BLACK
6
CONTINUOUS
10
-0.724531
20
0.682121
11
-0.724531
21
0.682122
0
LINE
8
BLACK
6
CONTINUOUS
10
-0.724531
20
0.682122
11
-0.723027
21
0.682525
0
LINE
8
BLACK
6
CONTINUOUS
10
-0.723027
20
0.682525
11
-0.723026
21
0.682525
0
LINE
8
BLACK
6
CONTINUOUS
10
-0.723026
20
0.682525
11
-0.723025
21
0.682525
0
LINE
8
BLACK
6
CONTINUOUS
10
-0.723025
20
0.682525
11
-0.706753
21
0.687813
0
LINE
8
BLACK
6
CONTINUOUS
10
-0.706753
20
0.687813
11
-0.706753
21
0.687813
0
LINE
8
BLACK
6
CONTINUOUS
10
-0.706753
20
0.687813
11
-0.706753
21
0.687813
0
LINE
8
BLACK
6
CONTINUOUS
10
-0.706753
20
0.687813
11
-0.705966
21
0.688115
0
LINE
8
BLACK
6
CONTINUOUS
10
-0.705966
20
0.688115
11
-0.705299
21
0.688371
0
LINE
8
BLACK
6
CONTINUOUS
10
-0.705299
20
0.688371
11
-0.703132
21
0.689336
0
LINE
8
BLACK
6
CONTINUOUS
10
-0.703132
20
0.689336
11
-0.701745
21
0.690043
0
LINE
8
BLACK
6
CONTINUOUS
10
-0.701745
20
0.690043
11
-0.686989
21
0.698562
0
LINE
8
BLACK
6
CONTINUOUS
10
-0.686989
20
0.698562
11
-0.685921
21
0.69924
0
LINE
8
BLACK
6
CONTINUOUS
10
-0.685921
20
0.69924
11
-0.68434
21
0.700342
0
LINE
8
BLACK
6
CONTINUOUS
10
-0.68434
20
0.700342
11
-0.683334
21
0.701109
0
LINE
8
BLACK
6
CONTINUOUS
10
-0.683334
20
0.701109
11
-0.670334
21
0.711919
0
LINE
8
BLACK
6
CONTINUOUS
10
-0.670334
20
0.711919
11
-0.669964
21
0.712237
0
LINE
8
BLACK
6
CONTINUOUS
10
-0.669964
20
0.712237
11
-0.669504
21
0.712646
0
LINE
8
BLACK
6
CONTINUOUS
10
-0.669504
20
0.712646
11
-0.669146
21
0.712975
0
LINE
8
BLACK
6
CONTINUOUS
10
-0.669146
20
0.712975
11
-0.664756
21
0.71714
0
LINE
8
BLACK
6
CONTINUOUS
10
-0.664756
20
0.71714
11
-0.664719
21
0.717174
0
LINE
8
BLACK
6
CONTINUOUS
10
-0.664719
20
0.717174
11
-0.643762
21
0.736045
0
LINE
8
BLACK
6
CONTINUOUS
10
-0.643762
20
0.736045
11
-0.643725
21
0.736077
0
LINE
8
BLACK
6
CONTINUOUS
10
-0.643725
20
0.736077
11
-0.630635
21
0.747258
0
LINE
8
BLACK
6
CONTINUOUS
10
-0.630635
20
0.747258
11
-0.630602
21
0.747285
0
LINE
8
BLACK
6
CONTINUOUS
10
-0.630602
20
0.747285
11
-0.593764
21
0.777117
0
LINE
8
BLACK
6
CONTINUOUS
10
-0.593764
20
0.777117
11
-0.593685
21
0.777177
0
LINE
8
BLACK
6
CONTINUOUS
10
-0.593685
20
0.777177
11
-0.554428
21
0.8057
0
LINE
8
BLACK
6
CONTINUOUS
10
-0.554428
20
0.8057
11
-0.553866
21
0.80604
0
LINE
8
BLACK
6
CONTINUOUS
10
-0.553866
20
0.80604
11
-0.553424
21
0.806258
0
LINE
8
BLACK
6
CONTINUOUS
10
-0.553424
20
0.806258
11
-0.515845
21
0.830662
0
LINE
8
BLACK
6
CONTINUOUS
10
-0.515845
20
0.830662
11
-0.515804
21
0.830688
0
LINE
8
BLACK
6
CONTINUOUS
10
-0.515804
20
0.830688
11
-0.513003
21
0.832404
0
LINE
8
BLACK
6
CONTINUOUS
10
-0.513003
20
0.832404
11
-0.512964
21
0.832427
0
LINE
8
BLACK
6
CONTINUOUS
10
-0.512964
20
0.832427
11
-0.464427
21
0.860449
0
LINE
8
BLACK
6
CONTINUOUS
10
-0.464427
20
0.860449
11
-0.464387
21
0.860471
0
LINE
8
BLACK
6
CONTINUOUS
10
-0.464387
20
0.860471
11
-0.461491
21
0.862044
0
LINE
8
BLACK
6
CONTINUOUS
10
-0.461491
20
0.862044
11
-0.461448
21
0.862066
0
LINE
8
BLACK
6
CONTINUOUS
10
-0.461448
20
0.862066
11
-0.419219
21
0.883585
0
LINE
8
BLACK
6
CONTINUOUS
10
-0.419219
20
0.883585
11
-0.419129
21
0.883627
0
LINE
8
BLACK
6
CONTINUOUS
10
-0.419129
20
0.883627
11
-0.37621
21
0.902737
0
LINE
8
BLACK
6
CONTINUOUS
10
-0.37621
20
0.902737
11
-0.376119
21
0.902775
0
LINE
8
BLACK
6
CONTINUOUS
10
-0.376119
20
0.902775
11
-0.331873
21
0.919758
0
LINE
8
BLACK
6
CONTINUOUS
10
-0.331873
20
0.919758
11
-0.331828
21
0.919774
0
LINE
8
BLACK
6
CONTINUOUS
10
-0.331828
20
0.919774
11
-0.328725
21
0.920873
0
LINE
8
BLACK
6
CONTINUOUS
10
-0.328725
20
0.920873
11
-0.328681
21
0.920888
0
LINE
8
BLACK
6
CONTINUOUS
10
-0.328681
20
0.920888
11
-0.275381
21
0.938206
0
LINE
8
BLACK
6
CONTINUOUS
10
-0.275381
20
0.938206
11
-0.275333
21
0.938221
0
LINE
8
BLACK
6
CONTINUOUS
10
-0.275333
20
0.938221
11
-0.27218
21
0.939155
0
LINE
8
BLACK
6
CONTINUOUS
10
-0.27218
20
0.939155
11
-0.272135
21
0.939167
0
LINE
8
BLACK
6
CONTINUOUS
10
-0.272135
20
0.939167
11
-0.22635
21
0.951435
0
LINE
8
BLACK
6
CONTINUOUS
10
-0.22635
20
0.951435
11
-0.226254
21
0.951459
0
LINE
8
BLACK
6
CONTINUOUS
10
-0.226254
20
0.951459
11
-0.1803
21
0.961228
0
LINE
8
BLACK
6
CONTINUOUS
10
-0.1803
20
0.961228
11
-0.180201
21
0.961246
0
LINE
8
BLACK
6
CONTINUOUS
10
-0.180201
20
0.961246
11
-0.13993
21
0.967626
0
LINE
8
BLACK
6
CONTINUOUS
10
-0.13993
20
0.967626
11
-0.133389
21
0.968662
0
LINE
8
BLACK
6
CONTINUOUS
10
-0.133389
20
0.968662
11
-0.133339
21
0.968669
0
LINE
8
BLACK
6
CONTINUOUS
10
-0.133339
20
0.968669
11
-0.132742
21
0.968748
0
LINE
8
BLACK
6
CONTINUOUS
10
-0.132742
20
0.968748
11
-0.130082
21
0.969098
0
LINE
8
BLACK
6
CONTINUOUS
10
-0.130082
20
0.969098
11
-0.130034
21
0.969104
0
LINE
8
BLACK
6
CONTINUOUS
10
-0.130034
20
0.969104
11
-0.0742983
21
0.97496
0
LINE
8
BLACK
6
CONTINUOUS
10
-0.0742983
20
0.97496
11
-0.0742524
21
0.974965
0
LINE
8
BLACK
6
CONTINUOUS
10
-0.0742524
20
0.974965
11
-0.0709699
21
0.975223
0
LINE
8
BLACK
6
CONTINUOUS
10
-0.0709699
20
0.975223
11
-0.0709244
21
0.975226
0
LINE
8
BLACK
6
CONTINUOUS
10
-0.0709244
20
0.975226
11
-0.0235918
21
0.977706
0
LINE
8
BLACK
6
CONTINUOUS
10
-0.0235918
20
0.977706
11
-0.02349
21
0.977709
0
LINE
8
BLACK
6
CONTINUOUS
10
-0.02349
20
0.977709
11
0.0234895
21
0.977709
0
LINE
8
BLACK
6
CONTINUOUS
10
0.0234895
20
0.977709
11
0.0235913
21
0.977706
0
LINE
8
BLACK
6
CONTINUOUS
10
0.0235913
20
0.977706
11
0.0709241
21
0.975226
0
LINE
8
BLACK
6
CONTINUOUS
10
0.0709241
20
0.975226
11
0.0709711
21
0.975223
0
LINE
8
BLACK
6
CONTINUOUS
10
0.0709711
20
0.975223
11
0.0742491
21
0.974965
0
LINE
8
BLACK
6
CONTINUOUS
10
0.0742491
20
0.974965
11
0.0742985
21
0.97496
0
LINE
8
BLACK
6
CONTINUOUS
10
0.0742985
20
0.97496
11
0.130032
21
0.969104
0
LINE
8
BLACK
6
CONTINUOUS
10
0.130032
20
0.969104
11
0.130079
21
0.969098
0
LINE
8
BLACK
6
CONTINUOUS
10
0.130079
20
0.969098
11
0.132603
21
0.968766
0
LINE
8
BLACK
6
CONTINUOUS
10
0.132603
20
0.968766
11
0.133337
21
0.968669
0
LINE
8
BLACK
6
CONTINUOUS
10
0.133337
20
0.968669
11
0.133388
21
0.968662
0
LINE
8
BLACK
6
CONTINUOUS
10
0.133388
20
0.968662
11
0.1802
21
0.961246
0
LINE
8
BLACK
6
CONTINUOUS
10
0.1802
20
0.961246
11
0.1803
21
0.961228
0
LINE
8
BLACK
6
CONTINUOUS
10
0.1803
20
0.961228
11
0.185858
21
0.960046
0
LINE
8
BLACK
6
CONTINUOUS
10
0.185858
20
0.960046
11
0.226252
21
0.951459
0
LINE
8
BLACK
6
CONTINUOUS
10
0.226252
20
0.951459
11
0.226349
21
0.951436
0
LINE
8
BLACK
6
CONTINUOUS
10
0.226349
20
0.951436
11
0.272131
21
0.939168
0
LINE
8
BLACK
6
CONTINUOUS
10
0.272131
20
0.939168
11
0.272179
21
0.939155
0
LINE
8
BLACK
6
CONTINUOUS
10
0.272179
20
0.939155
11
0.275189
21
0.938263
0
LINE
8
BLACK
6
CONTINUOUS
10
0.275189
20
0.938263
11
0.275332
21
0.938221
0
LINE
8
BLACK
6
CONTINUOUS
10
0.275332
20
0.938221
11
0.275381
21
0.938206
0
LINE
8
BLACK
6
CONTINUOUS
10
0.275381
20
0.938206
11
0.328679
21
0.920889
0
LINE
8
BLACK
6
CONTINUOUS
10
0.328679
20
0.920889
11
0.328723
21
0.920874
0
LINE
8
BLACK
6
CONTINUOUS
10
0.328723
20
0.920874
11
0.331823
21
0.919776
0
LINE
8
BLACK
6
CONTINUOUS
10
0.331823
20
0.919776
11
0.331865
21
0.91976
0
LINE
8
BLACK
6
CONTINUOUS
10
0.331865
20
0.91976
11
0.376117
21
0.902775
0
LINE
8
BLACK
6
CONTINUOUS
10
0.376117
20
0.902775
11
0.37621
21
0.902737
0
LINE
8
BLACK
6
CONTINUOUS
10
0.37621
20
0.902737
11
0.419127
21
0.883628
0
LINE
8
BLACK
6
CONTINUOUS
10
0.419127
20
0.883628
11
0.419218
21
0.883585
0
LINE
8
BLACK
6
CONTINUOUS
10
0.419218
20
0.883585
11
0.444906
21
0.870495
0
LINE
8
BLACK
6
CONTINUOUS
10
0.444906
20
0.870495
11
0.461447
21
0.862067
0
LINE
8
BLACK
6
CONTINUOUS
10
0.461447
20
0.862067
11
0.461492
21
0.862043
0
LINE
8
BLACK
6
CONTINUOUS
10
0.461492
20
0.862043
11
0.464384
21
0.860473
0
LINE
8
BLACK
6
CONTINUOUS
10
0.464384
20
0.860473
11
0.464384
21
0.860472
0
LINE
8
BLACK
6
CONTINUOUS
10
0.464384
20
0.860472
11
0.464427
21
0.860449
0
LINE
8
BLACK
6
CONTINUOUS
10
0.464427
20
0.860449
11
0.512959
21
0.83243
0
LINE
8
BLACK
6
CONTINUOUS
10
0.512959
20
0.83243
11
0.513001
21
0.832405
0
LINE
8
BLACK
6
CONTINUOUS
10
0.513001
20
0.832405
11
0.515804
21
0.830687
0
LINE
8
BLACK
6
CONTINUOUS
10
0.515804
20
0.830687
11
0.515845
21
0.830661
0
LINE
8
BLACK
6
CONTINUOUS
10
0.515845
20
0.830661
11
0.553995
21
0.805888
0
LINE
8
BLACK
6
CONTINUOUS
10
0.553995
20
0.805888
11
0.554316
21
0.8057
0
LINE
8
BLACK
6
CONTINUOUS
10
0.554316
20
0.8057
11
0.554815
21
0.805407
0
LINE
8
BLACK
6
CONTINUOUS
10
0.554815
20
0.805407
11
0.554975
21
0.805302
0
LINE
8
BLACK
6
CONTINUOUS
10
0.554975
20
0.805302
11
0.593684
21
0.777178
0
LINE
8
BLACK
6
CONTINUOUS
10
0.593684
20
0.777178
11
0.593765
21
0.777116
0
LINE
8
BLACK
6
CONTINUOUS
10
0.593765
20
0.777116
11
0.630603
21
0.747284
0
LINE
8
BLACK
6
CONTINUOUS
10
0.630603
20
0.747284
11
0.630637
21
0.747255
0
LINE
8
BLACK
6
CONTINUOUS
10
0.630637
20
0.747255
11
0.643723
21
0.736079
0
LINE
8
BLACK
6
CONTINUOUS
10
0.643723
20
0.736079
11
0.643759
21
0.736047
0
LINE
8
BLACK
6
CONTINUOUS
10
0.643759
20
0.736047
11
0.664717
21
0.717176
0
LINE
8
BLACK
6
CONTINUOUS
10
0.664717
20
0.717176
11
0.664754
21
0.717142
0
LINE
8
BLACK
6
CONTINUOUS
10
0.664754
20
0.717142
11
0.668877
21
0.71323
0
LINE
8
BLACK
6
CONTINUOUS
10
0.668877
20
0.71323
11
0.669146
21
0.712975
0
LINE
8
BLACK
6
CONTINUOUS
10
0.669146
20
0.712975
11
0.669504
21
0.712646
0
LINE
8
BLACK
6
CONTINUOUS
10
0.669504
20
0.712646
11
0.669964
21
0.712237
0
LINE
8
BLACK
6
CONTINUOUS
10
0.669964
20
0.712237
11
0.669965
21
0.712236
0
LINE
8
BLACK
6
CONTINUOUS
10
0.669965
20
0.712236
11
0.669965
21
0.712236
0
LINE
8
BLACK
6
CONTINUOUS
10
0.669965
20
0.712236
11
0.670333
21
0.71192
0
LINE
8
BLACK
6
CONTINUOUS
10
0.670333
20
0.71192
11
0.670334
21
0.711919
0
LINE
8
BLACK
6
CONTINUOUS
10
0.670334
20
0.711919
11
0.670334
21
0.711919
0
LINE
8
BLACK
6
CONTINUOUS
10
0.670334
20
0.711919
11
0.683334
21
0.701109
0
LINE
8
BLACK
6
CONTINUOUS
10
0.683334
20
0.701109
11
0.684341
21
0.700341
0
LINE
8
BLACK
6
CONTINUOUS
10
0.684341
20
0.700341
11
0.685922
21
0.69924
0
LINE
8
BLACK
6
CONTINUOUS
10
0.685922
20
0.69924
11
0.686989
21
0.698562
0
LINE
8
BLACK
6
CONTINUOUS
10
0.686989
20
0.698562
11
0.699462
21
0.69136
0
LINE
8
BLACK
6
CONTINUOUS
10
0.699462
20
0.69136
11
0.701745
21
0.690043
0
LINE
8
BLACK
6
CONTINUOUS
10
0.701745
20
0.690043
11
0.701745
21
0.690042
0
LINE
8
BLACK
6
CONTINUOUS
10
0.701745
20
0.690042
11
0.703132
21
0.689336
0
LINE
8
BLACK
6
CONTINUOUS
10
0.703132
20
0.689336
11
0.703133
21
0.689335
0
LINE
8
BLACK
6
CONTINUOUS
10
0.703133
20
0.689335
11
0.705298
21
0.688371
0
LINE
8
BLACK
6
CONTINUOUS
10
0.705298
20
0.688371
11
0.705299
21
0.688371
0
LINE
8
BLACK
6
CONTINUOUS
10
0.705299
20
0.688371
11
0.706753
21
0.687812
0
LINE
8
BLACK
6
CONTINUOUS
10
0.706753
20
0.687812
11
0.723025
21
0.682525
0
LINE
8
BLACK
6
CONTINUOUS
10
0.723025
20
0.682525
11
0.723025
21
0.682525
0
LINE
8
BLACK
6
CONTINUOUS
10
0.723025
20
0.682525
11
0.723025
21
0.682525
0
LINE
8
BLACK
6
CONTINUOUS
10
0.723025
20
0.682525
11
0.723026
21
0.682525
0
LINE
8
BLACK
6
CONTINUOUS
10
0.723026
20
0.682525
11
0.724529
21
0.682122
0
LINE
8
BLACK
6
CONTINUOUS
10
0.724529
20
0.682122
11
0.724529
21
0.682122
0
LINE
8
BLACK
6
CONTINUOUS
10
0.724529
20
0.682122
11
0.72453
21
0.682122
0
LINE
8
BLACK
6
CONTINUOUS
10
0.72453
20
0.682122
11
0.726851
21
0.681628
0
LINE
8
BLACK
6
CONTINUOUS
10
0.726851
20
0.681628
11
0.728391
21
0.681385
0
LINE
8
BLACK
6
CONTINUOUS
10
0.728391
20
0.681385
11
0.728391
21
0.681384
0
LINE
8
BLACK
6
CONTINUOUS
10
0.728391
20
0.681384
11
0.728392
21
0.681384
0
LINE
8
BLACK
6
CONTINUOUS
10
0.728392
20
0.681384
11
0.732132
21
0.680991
0
LINE
8
BLACK
6
CONTINUOUS
10
0.732132
20
0.680991
11
0.745407
21
0.679597
0
LINE
8
BLACK
6
CONTINUOUS
10
0.745407
20
0.679597
11
0.746962
21
0.679515
0
LINE
8
BLACK
6
CONTINUOUS
10
0.746962
20
0.679515
11
0.746962
21
0.679515
0
LINE
8
BLACK
6
CONTINUOUS
10
0.746962
20
0.679515
11
0.749333
21
0.679515
0
LINE
8
BLACK
6
CONTINUOUS
10
0.749333
20
0.679515
11
0.749333
21
0.679515
0
LINE
8
BLACK
6
CONTINUOUS
10
0.749333
20
0.679515
11
0.750888
21
0.679597
0
LINE
8
BLACK
6
CONTINUOUS
10
0.750888
20
0.679597
11
0.765569
21
0.681139
0
LINE
8
BLACK
6
CONTINUOUS
10
0.765569
20
0.681139
11
0.767903
21
0.681384
0
LINE
8
BLACK
6
CONTINUOUS
10
0.767903
20
0.681384
11
0.767903
21
0.681384
0
LINE
8
BLACK
6
CONTINUOUS
10
0.767903
20
0.681384
11
0.767904
21
0.681384
0
LINE
8
BLACK
6
CONTINUOUS
10
0.767904
20
0.681384
11
0.769442
21
0.681628
0
LINE
8
BLACK
6
CONTINUOUS
10
0.769442
20
0.681628
11
0.769443
21
0.681628
0
LINE
8
BLACK
6
CONTINUOUS
10
0.769443
20
0.681628
11
0.769443
21
0.681628
0
LINE
8
BLACK
6
CONTINUOUS
10
0.769443
20
0.681628
11
0.769443
21
0.681628
0
LINE
8
BLACK
6
CONTINUOUS
10
0.769443
20
0.681628
11
0.770054
21
0.681758
0
LINE
8
BLACK
6
CONTINUOUS
10
0.770054
20
0.681758
11
0.771764
21
0.682121
0
LINE
8
BLACK
6
CONTINUOUS
10
0.771764
20
0.682121
11
0.772679
21
0.682367
0
LINE
8
BLACK
6
CONTINUOUS
10
0.772679
20
0.682367
11
0.773268
21
0.682524
0
LINE
8
BLACK
6
CONTINUOUS
10
0.773268
20
0.682524
11
0.773268
21
0.682525
0
LINE
8
BLACK
6
CONTINUOUS
10
0.773268
20
0.682525
11
0.773268
21
0.682525
0
LINE
8
BLACK
6
CONTINUOUS
10
0.773268
20
0.682525
11
0.789543
21
0.687812
0
LINE
8
BLACK
6
CONTINUOUS
10
0.789543
20
0.687812
11
0.790997
21
0.68837
0
LINE
8
BLACK
6
CONTINUOUS
10
0.790997
20
0.68837
11
0.793164
21
0.689335
0
LINE
8
BLACK
6
CONTINUOUS
10
0.793164
20
0.689335
11
0.794553
21
0.690043
0
LINE
8
BLACK
6
CONTINUOUS
10
0.794553
20
0.690043
11
0.809349
21
0.698585
0
LINE
8
BLACK
6
CONTINUOUS
10
0.809349
20
0.698585
11
0.810574
21
0.699375
0
LINE
8
BLACK
6
CONTINUOUS
10
0.810574
20
0.699375
11
0.81238
21
0.700669
0
LINE
8
BLACK
6
CONTINUOUS
10
0.81238
20
0.700669
11
0.813522
21
0.701575
0
LINE
8
BLACK
6
CONTINUOUS
10
0.813522
20
0.701575
11
0.826296
21
0.712771
0
LINE
8
BLACK
6
CONTINUOUS
10
0.826296
20
0.712771
11
0.826797
21
0.713231
0
LINE
8
BLACK
6
CONTINUOUS
10
0.826797
20
0.713231
11
0.827415
21
0.713825
0
LINE
8
BLACK
6
CONTINUOUS
10
0.827415
20
0.713825
11
0.827894
21
0.714306
0
LINE
8
BLACK
6
CONTINUOUS
10
0.827894
20
0.714306
11
0.850881
21
0.738504
0
LINE
8
BLACK
6
CONTINUOUS
10
0.850881
20
0.738504
11
0.850881
21
0.738504
0
LINE
8
BLACK
6
CONTINUOUS
10
0.850881
20
0.738504
11
0.851344
21
0.738991
0
LINE
8
BLACK
6
CONTINUOUS
10
0.851344
20
0.738991
11
0.861474
21
0.749654
0
LINE
8
BLACK
6
CONTINUOUS
10
0.861474
20
0.749654
11
0.924692
21
0.816199
0
LINE
8
BLACK
6
CONTINUOUS
10
0.924692
20
0.816199
11
0.954116
21
0.847172
0
LINE
8
BLACK
6
CONTINUOUS
10
0.954116
20
0.847172
11
0.954116
21
0.847172
0
LINE
8
BLACK
6
CONTINUOUS
10
0.954116
20
0.847172
11
0.955207
21
0.848321
0
LINE
8
BLACK
6
CONTINUOUS
10
0.955207
20
0.848321
11
0.955207
21
0.848321
0
LINE
8
BLACK
6
CONTINUOUS
10
0.955207
20
0.848321
11
0.980854
21
0.875317
0
LINE
8
BLACK
6
CONTINUOUS
10
0.980854
20
0.875317
11
0.981127
21
0.875605
0
LINE
8
BLACK
6
CONTINUOUS
10
0.981127
20
0.875605
11
0.981127
21
0.875604
0
LINE
8
BLACK
6
CONTINUOUS
10
0.981127
20
0.875604
11
0.982391
21
0.876934
0
LINE
8
BLACK
6
CONTINUOUS
10
0.982391
20
0.876934
11
0.988708
21
0.883584
0
LINE
8
BLACK
6
CONTINUOUS
10
0.988708
20
0.883584
11
1.00534
21
0.90109
0
LINE
8
BLACK
6
CONTINUOUS
10
1.00534
20
0.90109
11
1.00566
21
0.901426
0
LINE
8
BLACK
6
CONTINUOUS
10
1.00566
20
0.901426
11
1.00695
21
0.902787
0
LINE
8
BLACK
6
CONTINUOUS
10
1.00695
20
0.902787
11
1.02763
21
0.924556
0
LINE
8
BLACK
6
CONTINUOUS
10
1.02763
20
0.924556
11
1.02763
21
0.924556
0
LINE
8
BLACK
6
CONTINUOUS
10
1.02763
20
0.924556
11
1.02797
21
0.924919
0
LINE
8
BLACK
6
CONTINUOUS
10
1.02797
20
0.924919
11
1.04456
21
0.942379
0
LINE
8
BLACK
6
CONTINUOUS
10
1.04456
20
0.942379
11
1.0561
21
0.95485
0
LINE
8
BLACK
6
CONTINUOUS
10
1.0561
20
0.95485
11
1.05667
21
0.955511
0
LINE
8
BLACK
6
CONTINUOUS
10
1.05667
20
0.955511
11
1.05738
21
0.956368
0
LINE
8
BLACK
6
CONTINUOUS
10
1.05738
20
0.956368
11
1.05791
21
0.957063
0
LINE
8
BLACK
6
CONTINUOUS
10
1.05791
20
0.957063
11
1.06794
21
0.970869
0
LINE
8
BLACK
6
CONTINUOUS
10
1.06794
20
0.970869
11
1.06879
21
0.972176
0
LINE
8
BLACK
6
CONTINUOUS
10
1.06879
20
0.972176
11
1.06998
21
0.97423
0
LINE
8
BLACK
6
CONTINUOUS
10
1.06998
20
0.97423
11
1.07069
21
0.975617
0
LINE
8
BLACK
6
CONTINUOUS
10
1.07069
20
0.975617
11
1.07764
21
0.991246
0
LINE
8
BLACK
6
CONTINUOUS
10
1.07764
20
0.991246
11
1.0782
21
0.992701
0
LINE
8
BLACK
6
CONTINUOUS
10
1.0782
20
0.992701
11
1.0782
21
0.992701
0
LINE
8
BLACK
6
CONTINUOUS
10
1.0782
20
0.992701
11
1.0782
21
0.992701
0
LINE
8
BLACK
6
CONTINUOUS
10
1.0782
20
0.992701
11
1.07894
21
0.994957
0
LINE
8
BLACK
6
CONTINUOUS
10
1.07894
20
0.994957
11
1.07894
21
0.994958
0
LINE
8
BLACK
6
CONTINUOUS
10
1.07894
20
0.994958
11
1.07894
21
0.994959
0
LINE
8
BLACK
6
CONTINUOUS
10
1.07894
20
0.994959
11
1.07934
21
0.996462
0
LINE
8
BLACK
6
CONTINUOUS
10
1.07934
20
0.996462
11
1.0829
21
1.0132
0
LINE
8
BLACK
6
CONTINUOUS
10
1.0829
20
1.0132
11
1.08314
21
1.01473
0
LINE
8
BLACK
6
CONTINUOUS
10
1.08314
20
1.01473
11
1.08339
21
1.01709
0
LINE
8
BLACK
6
CONTINUOUS
10
1.08339
20
1.01709
11
1.08347
21
1.01865
0
LINE
8
BLACK
6
CONTINUOUS
10
1.08347
20
1.01865
11
1.08347
21
1.03576
0
LINE
8
BLACK
6
CONTINUOUS
10
1.08347
20
1.03576
11
1.08345
21
1.03608
0
LINE
8
BLACK
6
CONTINUOUS
10
1.08345
20
1.03608
11
1.08339
21
1.03732
0
LINE
8
BLACK
6
CONTINUOUS
10
1.08339
20
1.03732
11
1.08339
21
1.03732
0
LINE
8
BLACK
6
CONTINUOUS
10
1.08339
20
1.03732
11
1.08314
21
1.03968
0
LINE
8
BLACK
6
CONTINUOUS
10
1.08314
20
1.03968
11
1.08314
21
1.03968
0
LINE
8
BLACK
6
CONTINUOUS
10
1.08314
20
1.03968
11
1.0829
21
1.04122
0
LINE
8
BLACK
6
CONTINUOUS
10
1.0829
20
1.04122
11
1.0829
21
1.04122
0
LINE
8
BLACK
6
CONTINUOUS
10
1.0829
20
1.04122
11
1.07934
21
1.05795
0
LINE
8
BLACK
6
CONTINUOUS
10
1.07934
20
1.05795
11
1.07934
21
1.05795
0
LINE
8
BLACK
6
CONTINUOUS
10
1.07934
20
1.05795
11
1.07934
21
1.05795
0
LINE
8
BLACK
6
CONTINUOUS
10
1.07934
20
1.05795
11
1.07894
21
1.05946
0
LINE
8
BLACK
6
CONTINUOUS
10
1.07894
20
1.05946
11
1.0782
21
1.06171
0
LINE
8
BLACK
6
CONTINUOUS
10
1.0782
20
1.06171
11
1.07764
21
1.06317
0
LINE
8
BLACK
6
CONTINUOUS
10
1.07764
20
1.06317
11
1.07069
21
1.0788
0
LINE
8
BLACK
6
CONTINUOUS
10
1.07069
20
1.0788
11
1.06998
21
1.08019
0
LINE
8
BLACK
6
CONTINUOUS
10
1.06998
20
1.08019
11
1.06879
21
1.08224
0
LINE
8
BLACK
6
CONTINUOUS
10
1.06879
20
1.08224
11
1.06794
21
1.08355
0
LINE
8
BLACK
6
CONTINUOUS
10
1.06794
20
1.08355
11
1.06794
21
1.08355
0
LINE
8
BLACK
6
CONTINUOUS
10
1.06794
20
1.08355
11
1.05793
21
1.09732
0
LINE
8
BLACK
6
CONTINUOUS
10
1.05793
20
1.09732
11
1.05746
21
1.09794
0
LINE
8
BLACK
6
CONTINUOUS
10
1.05746
20
1.09794
11
1.05684
21
1.0987
0
LINE
8
BLACK
6
CONTINUOUS
10
1.05684
20
1.0987
11
1.05684
21
1.0987
0
LINE
8
BLACK
6
CONTINUOUS
10
1.05684
20
1.0987
11
1.05634
21
1.09929
0
LINE
8
BLACK
6
CONTINUOUS
10
1.05634
20
1.09929
11
1.05633
21
1.09929
0
LINE
8
BLACK
6
CONTINUOUS
10
1.05633
20
1.09929
11
1.05431
21
1.10154
0
LINE
8
BLACK
6
CONTINUOUS
10
1.05431
20
1.10154
11
1.05349
21
1.10245
0
LINE
8
BLACK
6
CONTINUOUS
10
1.05349
20
1.10245
11
1.05304
21
1.10293
0
LINE
8
BLACK
6
CONTINUOUS
10
1.05304
20
1.10293
11
1.05304
21
1.10293
0
LINE
8
BLACK
6
CONTINUOUS
10
1.05304
20
1.10293
11
1.04638
21
1.10977
0
LINE
8
BLACK
6
CONTINUOUS
10
1.04638
20
1.10977
11
1.04591
21
1.11023
0
LINE
8
BLACK
6
CONTINUOUS
10
1.04591
20
1.11023
11
1.03917
21
1.11663
0
LINE
8
BLACK
6
CONTINUOUS
10
1.03917
20
1.11663
11
1.02737
21
1.12783
0
LINE
8
BLACK
6
CONTINUOUS
10
1.02737
20
1.12783
11
1.02737
21
1.12783
0
LINE
8
BLACK
6
CONTINUOUS
10
1.02737
20
1.12783
11
1.02585
21
1.12927
0
LINE
8
BLACK
6
CONTINUOUS
10
1.02585
20
1.12927
11
1.02336
21
1.13163
0
LINE
8
BLACK
6
CONTINUOUS
10
1.02336
20
1.13163
11
1.02304
21
1.13193
0
LINE
8
BLACK
6
CONTINUOUS
10
1.02304
20
1.13193
11
1.0188
21
1.13575
0
LINE
8
BLACK
6
CONTINUOUS
10
1.0188
20
1.13575
11
1.0188
21
1.13575
0
LINE
8
BLACK
6
CONTINUOUS
10
1.0188
20
1.13575
11
1.01847
21
1.13604
0
LINE
8
BLACK
6
CONTINUOUS
10
1.01847
20
1.13604
11
1.01847
21
1.13604
0
LINE
8
BLACK
6
CONTINUOUS
10
1.01847
20
1.13604
11
1.01476
21
1.13921
0
LINE
8
BLACK
6
CONTINUOUS
10
1.01476
20
1.13921
11
1.01476
21
1.13921
0
LINE
8
BLACK
6
CONTINUOUS
10
1.01476
20
1.13921
11
1.00353
21
1.1488
0
LINE
8
BLACK
6
CONTINUOUS
10
1.00353
20
1.1488
11
1.00136
21
1.15066
0
LINE
8
BLACK
6
CONTINUOUS
10
1.00136
20
1.15066
11
1.00136
21
1.15066
0
LINE
8
BLACK
6
CONTINUOUS
10
1.00136
20
1.15066
11
0.992659
21
1.15808
0
LINE
8
BLACK
6
CONTINUOUS
10
0.992659
20
1.15808
11
0.992656
21
1.15809
0
LINE
8
BLACK
6
CONTINUOUS
10
0.992656
20
1.15809
11
0.990927
21
1.15956
0
LINE
8
BLACK
6
CONTINUOUS
10
0.990927
20
1.15956
11
0.990927
21
1.15956
0
LINE
8
BLACK
6
CONTINUOUS
10
0.990927
20
1.15956
11
0.985701
21
1.16403
0
LINE
8
BLACK
6
CONTINUOUS
10
0.985701
20
1.16403
11
0.985667
21
1.16406
0
LINE
8
BLACK
6
CONTINUOUS
10
0.985667
20
1.16406
11
0.983963
21
1.16551
0
LINE
8
BLACK
6
CONTINUOUS
10
0.983963
20
1.16551
11
0.983963
21
1.16551
0
LINE
8
BLACK
6
CONTINUOUS
10
0.983963
20
1.16551
11
0.982214
21
1.16701
0
LINE
8
BLACK
6
CONTINUOUS
10
0.982214
20
1.16701
11
0.982214
21
1.16701
0
LINE
8
BLACK
6
CONTINUOUS
10
0.982214
20
1.16701
11
0.982208
21
1.16701
0
LINE
8
BLACK
6
CONTINUOUS
10
0.982208
20
1.16701
11
0.982207
21
1.16701
0
LINE
8
BLACK
6
CONTINUOUS
10
0.982207
20
1.16701
11
0.980467
21
1.1685
0
LINE
8
BLACK
6
CONTINUOUS
10
0.980467
20
1.1685
11
0.980466
21
1.1685
0
LINE
8
BLACK
6
CONTINUOUS
10
0.980466
20
1.1685
11
0.980466
21
1.1685
0
LINE
8
BLACK
6
CONTINUOUS
10
0.980466
20
1.1685
11
0.972523
21
1.17528
0
LINE
8
BLACK
6
CONTINUOUS
10
0.972523
20
1.17528
11
0.972185
21
1.17556
0
LINE
8
BLACK
6
CONTINUOUS
10
0.972185
20
1.17556
11
0.954155
21
1.19016
0
LINE
8
BLACK
6
CONTINUOUS
10
0.954155
20
1.19016
11
0.954155
21
1.19016
0
LINE
8
BLACK
6
CONTINUOUS
10
0.954155
20
1.19016
11
0.95381
21
1.19043
0
LINE
8
BLACK
6
CONTINUOUS
10
0.95381
20
1.19043
11
0.910249
21
1.22386
0
LINE
8
BLACK
6
CONTINUOUS
10
0.910249
20
1.22386
11
0.910243
21
1.22386
0
LINE
8
BLACK
6
CONTINUOUS
10
0.910243
20
1.22386
11
0.89677
21
1.23393
0
LINE
8
BLACK
6
CONTINUOUS
10
0.89677
20
1.23393
11
0.896417
21
1.23418
0
LINE
8
BLACK
6
CONTINUOUS
10
0.896417
20
1.23418
11
0.896416
21
1.23418
0
LINE
8
BLACK
6
CONTINUOUS
10
0.896416
20
1.23418
11
0.896415
21
1.23418
0
LINE
8
BLACK
6
CONTINUOUS
10
0.896415
20
1.23418
11
0.882677
21
1.2439
0
LINE
8
BLACK
6
CONTINUOUS
10
0.882677
20
1.2439
11
0.858577
21
1.26046
0
LINE
8
BLACK
6
CONTINUOUS
10
0.858577
20
1.26046
11
0.858213
21
1.2607
0
LINE
8
BLACK
6
CONTINUOUS
10
0.858213
20
1.2607
11
0.795744
21
1.30127
0
LINE
8
BLACK
6
CONTINUOUS
10
0.795744
20
1.30127
11
0.795743
21
1.30127
0
LINE
8
BLACK
6
CONTINUOUS
10
0.795743
20
1.30127
11
0.795743
21
1.30127
0
LINE
8
BLACK
6
CONTINUOUS
10
0.795743
20
1.30127
11
0.795418
21
1.30147
0
LINE
8
BLACK
6
CONTINUOUS
10
0.795418
20
1.30147
11
0.795417
21
1.30147
0
LINE
8
BLACK
6
CONTINUOUS
10
0.795417
20
1.30147
11
0.795416
21
1.30147
0
LINE
8
BLACK
6
CONTINUOUS
10
0.795416
20
1.30147
11
0.794998
21
1.30173
0
LINE
8
BLACK
6
CONTINUOUS
10
0.794998
20
1.30173
11
0.794997
21
1.30173
0
LINE
8
BLACK
6
CONTINUOUS
10
0.794997
20
1.30173
11
0.794997
21
1.30173
0
LINE
8
BLACK
6
CONTINUOUS
10
0.794997
20
1.30173
11
0.794662
21
1.30193
0
LINE
8
BLACK
6
CONTINUOUS
10
0.794662
20
1.30193
11
0.762113
21
1.32072
0
LINE
8
BLACK
6
CONTINUOUS
10
0.762113
20
1.32072
11
0.730176
21
1.33916
0
LINE
8
BLACK
6
CONTINUOUS
10
0.730176
20
1.33916
11
0.729836
21
1.33935
0
LINE
8
BLACK
6
CONTINUOUS
10
0.729836
20
1.33935
11
0.729405
21
1.33959
0
LINE
8
BLACK
6
CONTINUOUS
10
0.729405
20
1.33959
11
0.729367
21
1.33961
0
LINE
8
BLACK
6
CONTINUOUS
10
0.729367
20
1.33961
11
0.729058
21
1.33977
0
LINE
8
BLACK
6
CONTINUOUS
10
0.729058
20
1.33977
11
0.662693
21
1.37358
0
LINE
8
BLACK
6
CONTINUOUS
10
0.662693
20
1.37358
11
0.6623
21
1.37378
0
LINE
8
BLACK
6
CONTINUOUS
10
0.6623
20
1.37378
11
0.662299
21
1.37378
0
LINE
8
BLACK
6
CONTINUOUS
10
0.662299
20
1.37378
11
0.662298
21
1.37378
0
LINE
8
BLACK
6
CONTINUOUS
10
0.662298
20
1.37378
11
0.635902
21
1.38637
0
LINE
8
BLACK
6
CONTINUOUS
10
0.635902
20
1.38637
11
0.635902
21
1.38637
0
LINE
8
BLACK
6
CONTINUOUS
10
0.635902
20
1.38637
11
0.635901
21
1.38637
0
LINE
8
BLACK
6
CONTINUOUS
10
0.635901
20
1.38637
11
0.620626
21
1.39341
0
LINE
8
BLACK
6
CONTINUOUS
10
0.620626
20
1.39341
11
0.620228
21
1.39359
0
LINE
8
BLACK
6
CONTINUOUS
10
0.620228
20
1.39359
11
0.620228
21
1.39359
0
LINE
8
BLACK
6
CONTINUOUS
10
0.620228
20
1.39359
11
0.620226
21
1.39359
0
LINE
8
BLACK
6
CONTINUOUS
10
0.620226
20
1.39359
11
0.604769
21
1.40023
0
LINE
8
BLACK
6
CONTINUOUS
10
0.604769
20
1.40023
11
0.604767
21
1.40023
0
LINE
8
BLACK
6
CONTINUOUS
10
0.604767
20
1.40023
11
0.604766
21
1.40023
0
LINE
8
BLACK
6
CONTINUOUS
10
0.604766
20
1.40023
11
0.577748
21
1.41142
0
LINE
8
BLACK
6
CONTINUOUS
10
0.577748
20
1.41142
11
0.577342
21
1.41158
0
LINE
8
BLACK
6
CONTINUOUS
10
0.577342
20
1.41158
11
0.507803
21
1.43828
0
LINE
8
BLACK
6
CONTINUOUS
10
0.507803
20
1.43828
11
0.507594
21
1.43835
0
LINE
8
BLACK
6
CONTINUOUS
10
0.507594
20
1.43835
11
0.507436
21
1.43841
0
LINE
8
BLACK
6
CONTINUOUS
10
0.507436
20
1.43841
11
0.507194
21
1.4385
0
LINE
8
BLACK
6
CONTINUOUS
10
0.507194
20
1.4385
11
0.506972
21
1.43858
0
LINE
8
BLACK
6
CONTINUOUS
10
0.506972
20
1.43858
11
0.506607
21
1.4387
0
LINE
8
BLACK
6
CONTINUOUS
10
0.506607
20
1.4387
11
0.506606
21
1.4387
0
LINE
8
BLACK
6
CONTINUOUS
10
0.506606
20
1.4387
11
0.43579
21
1.46171
0
LINE
8
BLACK
6
CONTINUOUS
10
0.43579
20
1.46171
11
0.435679
21
1.46174
0
LINE
8
BLACK
6
CONTINUOUS
10
0.435679
20
1.46174
11
0.435419
21
1.46182
0
LINE
8
BLACK
6
CONTINUOUS
10
0.435419
20
1.46182
11
0.434949
21
1.46196
0
LINE
8
BLACK
6
CONTINUOUS
10
0.434949
20
1.46196
11
0.434572
21
1.46207
0
LINE
8
BLACK
6
CONTINUOUS
10
0.434572
20
1.46207
11
0.362622
21
1.48135
0
LINE
8
BLACK
6
CONTINUOUS
10
0.362622
20
1.48135
11
0.362199
21
1.48146
0
LINE
8
BLACK
6
CONTINUOUS
10
0.362199
20
1.48146
11
0.33377
21
1.48828
0
LINE
8
BLACK
6
CONTINUOUS
10
0.33377
20
1.48828
11
0.321436
21
1.49107
0
LINE
8
BLACK
6
CONTINUOUS
10
0.321436
20
1.49107
11
0.317365
21
1.492
0
LINE
8
BLACK
6
CONTINUOUS
10
0.317365
20
1.492
11
0.317024
21
1.49207
0
LINE
8
BLACK
6
CONTINUOUS
10
0.317024
20
1.49207
11
0.316936
21
1.49209
0
LINE
8
BLACK
6
CONTINUOUS
10
0.316936
20
1.49209
11
0.300429
21
1.49537
0
LINE
8
BLACK
6
CONTINUOUS
10
0.300429
20
1.49537
11
0.27168
21
1.5007
0
LINE
8
BLACK
6
CONTINUOUS
10
0.27168
20
1.5007
11
0.271252
21
1.50077
0
LINE
8
BLACK
6
CONTINUOUS
10
0.271252
20
1.50077
11
0.197673
21
1.51242
0
LINE
8
BLACK
6
CONTINUOUS
10
0.197673
20
1.51242
11
0.197283
21
1.51248
0
LINE
8
BLACK
6
CONTINUOUS
10
0.197283
20
1.51248
11
0.196797
21
1.51254
0
LINE
8
BLACK
6
CONTINUOUS
10
0.196797
20
1.51254
11
0.196416
21
1.51259
0
LINE
8
BLACK
6
CONTINUOUS
10
0.196416
20
1.51259
11
0.122361
21
1.52037
0
LINE
8
BLACK
6
CONTINUOUS
10
0.122361
20
1.52037
11
0.121977
21
1.52041
0
LINE
8
BLACK
6
CONTINUOUS
10
0.121977
20
1.52041
11
0.121492
21
1.52045
0
LINE
8
BLACK
6
CONTINUOUS
10
0.121492
20
1.52045
11
0.121096
21
1.52047
0
LINE
8
BLACK
6
CONTINUOUS
10
0.121096
20
1.52047
11
0.0467068
21
1.52437
0
LINE
8
BLACK
6
CONTINUOUS
10
0.0467068
20
1.52437
11
0.0467067
21
1.52437
0
LINE
8
BLACK
6
CONTINUOUS
10
0.0467067
20
1.52437
11
0.0467053
21
1.52437
0
LINE
8
BLACK
6
CONTINUOUS
10
0.0467053
20
1.52437
11
0.0463417
21
1.52439
0
LINE
8
BLACK
6
CONTINUOUS
10
0.0463417
20
1.52439
11
0.0462659
21
1.52439
0
LINE
8
BLACK
6
CONTINUOUS
10
0.0462659
20
1.52439
11
0.0170446
21
1.52515
0
LINE
8
BLACK
6
CONTINUOUS
10
0.0170446
20
1.52515
11
0.0170441
21
1.52515
0
LINE
8
BLACK
6
CONTINUOUS
10
0.0170441
20
1.52515
11
0.0170429
21
1.52515
0
LINE
8
BLACK
6
CONTINUOUS
10
0.0170429
20
1.52515
11
0.00911476
21
1.52526
0
LINE
8
BLACK
6
CONTINUOUS
10
0.00911476
20
1.52526
11
0.000218307
21
1.52537
0
LINE
8
BLACK
6
CONTINUOUS
10
0.000218307
20
1.52537
11
-0.000218937
21
1.52537
0
LINE
8
BLACK
6
CONTINUOUS
10
-0.000218937
20
1.52537
11
-0.0170435
21
1.52515
0
LINE
8
BLACK
6
CONTINUOUS
10
-0.0170435
20
1.52515
11
-0.0170447
21
1.52515
0
LINE
8
BLACK
6
CONTINUOUS
10
-0.0170447
20
1.52515
11
-0.0170452
21
1.52515
0
LINE
8
BLACK
6
CONTINUOUS
10
-0.0170452
20
1.52515
11
-0.0462695
21
1.52439
0
LINE
8
BLACK
6
CONTINUOUS
10
-0.0462695
20
1.52439
11
-0.0467083
21
1.52437
0
LINE
8
BLACK
6
CONTINUOUS
10
-0.0467083
20
1.52437
11
-0.121097
21
1.52047
0
LINE
8
BLACK
6
CONTINUOUS
10
-0.121097
20
1.52047
11
-0.121483
21
1.52045
0
LINE
8
BLACK
6
CONTINUOUS
10
-0.121483
20
1.52045
11
-0.121975
21
1.52041
0
LINE
8
BLACK
6
CONTINUOUS
10
-0.121975
20
1.52041
11
-0.122358
21
1.52037
0
LINE
8
BLACK
6
CONTINUOUS
10
-0.122358
20
1.52037
11
-0.196415
21
1.51259
0
LINE
8
BLACK
6
CONTINUOUS
10
-0.196415
20
1.51259
11
-0.196796
21
1.51255
0
LINE
8
BLACK
6
CONTINUOUS
10
-0.196796
20
1.51255
11
-0.19728
21
1.51248
0
LINE
8
BLACK
6
CONTINUOUS
10
-0.19728
20
1.51248
11
-0.197673
21
1.51242
0
LINE
8
BLACK
6
CONTINUOUS
10
-0.197673
20
1.51242
11
-0.271242
21
1.50077
0
LINE
8
BLACK
6
CONTINUOUS
10
-0.271242
20
1.50077
11
-0.271563
21
1.50072
0
LINE
8
BLACK
6
CONTINUOUS
10
-0.271563
20
1.50072
11
-0.271673
21
1.5007
0
LINE
8
BLACK
6
CONTINUOUS
10
-0.271673
20
1.5007
11
-0.271674
21
1.5007
0
LINE
8
BLACK
6
CONTINUOUS
10
-0.271674
20
1.5007
11
-0.271674
21
1.5007
0
LINE
8
BLACK
6
CONTINUOUS
10
-0.271674
20
1.5007
11
-0.30043
21
1.49537
0
LINE
8
BLACK
6
CONTINUOUS
10
-0.30043
20
1.49537
11
-0.316942
21
1.49209
0
LINE
8
BLACK
6
CONTINUOUS
10
-0.316942
20
1.49209
11
-0.317366
21
1.492
0
LINE
8
BLACK
6
CONTINUOUS
10
-0.317366
20
1.492
11
-0.333771
21
1.48828
0
LINE
8
BLACK
6
CONTINUOUS
10
-0.333771
20
1.48828
11
-0.362189
21
1.48146
0
LINE
8
BLACK
6
CONTINUOUS
10
-0.362189
20
1.48146
11
-0.362612
21
1.48135
0
LINE
8
BLACK
6
CONTINUOUS
10
-0.362612
20
1.48135
11
-0.434572
21
1.46207
0
LINE
8
BLACK
6
CONTINUOUS
10
-0.434572
20
1.46207
11
-0.434944
21
1.46196
0
LINE
8
BLACK
6
CONTINUOUS
10
-0.434944
20
1.46196
11
-0.435411
21
1.46183
0
LINE
8
BLACK
6
CONTINUOUS
10
-0.435411
20
1.46183
11
-0.435789
21
1.46171
0
LINE
8
BLACK
6
CONTINUOUS
10
-0.435789
20
1.46171
11
-0.506608
21
1.4387
0
LINE
8
BLACK
6
CONTINUOUS
10
-0.506608
20
1.4387
11
-0.506975
21
1.43857
0
LINE
8
BLACK
6
CONTINUOUS
10
-0.506975
20
1.43857
11
-0.507434
21
1.43841
0
LINE
8
BLACK
6
CONTINUOUS
10
-0.507434
20
1.43841
11
-0.507803
21
1.43828
0
LINE
8
BLACK
6
CONTINUOUS
10
-0.507803
20
1.43828
11
-0.577341
21
1.41158
0
LINE
8
BLACK
6
CONTINUOUS
10
-0.577341
20
1.41158
11
-0.577749
21
1.41142
0
LINE
8
BLACK
6
CONTINUOUS
10
-0.577749
20
1.41142
11
-0.604768
21
1.40023
0
LINE
8
BLACK
6
CONTINUOUS
10
-0.604768
20
1.40023
11
-0.620229
21
1.39359
0
LINE
8
BLACK
6
CONTINUOUS
10
-0.620229
20
1.39359
11
-0.62062
21
1.39341
0
LINE
8
BLACK
6
CONTINUOUS
10
-0.62062
20
1.39341
11
-0.635903
21
1.38637
0
LINE
8
BLACK
6
CONTINUOUS
10
-0.635903
20
1.38637
11
-0.662304
21
1.37378
0
LINE
8
BLACK
6
CONTINUOUS
10
-0.662304
20
1.37378
11
-0.662693
21
1.37358
0
LINE
8
BLACK
6
CONTINUOUS
10
-0.662693
20
1.37358
11
-0.729057
21
1.33977
0
LINE
8
BLACK
6
CONTINUOUS
10
-0.729057
20
1.33977
11
-0.729399
21
1.33959
0
LINE
8
BLACK
6
CONTINUOUS
10
-0.729399
20
1.33959
11
-0.729829
21
1.33936
0
LINE
8
BLACK
6
CONTINUOUS
10
-0.729829
20
1.33936
11
-0.730174
21
1.33916
0
LINE
8
BLACK
6
CONTINUOUS
10
-0.730174
20
1.33916
11
-0.794664
21
1.30193
0
LINE
8
BLACK
6
CONTINUOUS
10
-0.794664
20
1.30193
11
-0.795001
21
1.30173
0
LINE
8
BLACK
6
CONTINUOUS
10
-0.795001
20
1.30173
11
-0.795418
21
1.30147
0
LINE
8
BLACK
6
CONTINUOUS
10
-0.795418
20
1.30147
11
-0.795744
21
1.30127
0
LINE
8
BLACK
6
CONTINUOUS
10
-0.795744
20
1.30127
11
-0.858205
21
1.26071
0
LINE
8
BLACK
6
CONTINUOUS
10
-0.858205
20
1.26071
11
-0.858565
21
1.26047
0
LINE
8
BLACK
6
CONTINUOUS
10
-0.858565
20
1.26047
11
-0.882677
21
1.2439
0
LINE
8
BLACK
6
CONTINUOUS
10
-0.882677
20
1.2439
11
-0.896412
21
1.23419
0
LINE
8
BLACK
6
CONTINUOUS
10
-0.896412
20
1.23419
11
-0.896765
21
1.23393
0
LINE
8
BLACK
6
CONTINUOUS
10
-0.896765
20
1.23393
11
-0.91025
21
1.22386
0
LINE
8
BLACK
6
CONTINUOUS
10
-0.91025
20
1.22386
11
-0.953814
21
1.19043
0
LINE
8
BLACK
6
CONTINUOUS
10
-0.953814
20
1.19043
11
-0.954156
21
1.19016
0
LINE
8
BLACK
6
CONTINUOUS
10
-0.954156
20
1.19016
11
-0.972188
21
1.17556
0
LINE
8
BLACK
6
CONTINUOUS
10
-0.972188
20
1.17556
11
-0.97252
21
1.17528
0
LINE
8
BLACK
6
CONTINUOUS
10
-0.97252
20
1.17528
11
-0.980468
21
1.1685
0
LINE
8
BLACK
6
CONTINUOUS
10
-0.980468
20
1.1685
11
-0.982276
21
1.16695
0
LINE
8
BLACK
6
CONTINUOUS
10
-0.982276
20
1.16695
11
-0.982276
21
1.16695
0
LINE
8
BLACK
6
CONTINUOUS
10
-0.982276
20
1.16695
11
-0.983964
21
1.16551
0
LINE
8
BLACK
6
CONTINUOUS
10
-0.983964
20
1.16551
11
-0.985703
21
1.16403
0
LINE
8
BLACK
6
CONTINUOUS
10
-0.985703
20
1.16403
11
-0.990923
21
1.15957
0
LINE
8
BLACK
6
CONTINUOUS
10
-0.990923
20
1.15957
11
-0.992659
21
1.15809
0
LINE
8
BLACK
6
CONTINUOUS
10
-0.992659
20
1.15809
11
-0.992659
21
1.15808
0
LINE
8
BLACK
6
CONTINUOUS
10
-0.992659
20
1.15808
11
-1.00136
21
1.15066
0
LINE
8
BLACK
6
CONTINUOUS
10
-1.00136
20
1.15066
11
-1.00136
21
1.15066
0
LINE
8
BLACK
6
CONTINUOUS
10
-1.00136
20
1.15066
11
-1.00353
21
1.1488
0
LINE
8
BLACK
6
CONTINUOUS
10
-1.00353
20
1.1488
11
-1.00353
21
1.1488
0
LINE
8
BLACK
6
CONTINUOUS
10
-1.00353
20
1.1488
11
-1.01477
21
1.13921
0
LINE
8
BLACK
6
CONTINUOUS
10
-1.01477
20
1.13921
11
-1.01477
21
1.13921
0
LINE
8
BLACK
6
CONTINUOUS
10
-1.01477
20
1.13921
11
-1.01477
21
1.13921
0
LINE
8
BLACK
6
CONTINUOUS
10
-1.01477
20
1.13921
11
-1.01847
21
1.13604
0
LINE
8
BLACK
6
CONTINUOUS
10
-1.01847
20
1.13604
11
-1.0188
21
1.13575
0
LINE
8
BLACK
6
CONTINUOUS
10
-1.0188
20
1.13575
11
-1.02304
21
1.13193
0
LINE
8
BLACK
6
CONTINUOUS
10
-1.02304
20
1.13193
11
-1.02336
21
1.13164
0
LINE
8
BLACK
6
CONTINUOUS
10
-1.02336
20
1.13164
11
-1.02703
21
1.12815
0
LINE
8
BLACK
6
CONTINUOUS
10
-1.02703
20
1.12815
11
-1.02703
21
1.12815
0
LINE
8
BLACK
6
CONTINUOUS
10
-1.02703
20
1.12815
11
-1.03917
21
1.11663
0
LINE
8
BLACK
6
CONTINUOUS
10
-1.03917
20
1.11663
11
-1.03976
21
1.11608
0
LINE
8
BLACK
6
CONTINUOUS
10
-1.03976
20
1.11608
11
-1.04592
21
1.11023
0
LINE
8
BLACK
6
CONTINUOUS
10
-1.04592
20
1.11023
11
-1.04638
21
1.10977
0
LINE
8
BLACK
6
CONTINUOUS
10
-1.04638
20
1.10977
11
-1.05304
21
1.10293
0
LINE
8
BLACK
6
CONTINUOUS
10
-1.05304
20
1.10293
11
-1.05349
21
1.10245
0
LINE
8
BLACK
6
CONTINUOUS
10
-1.05349
20
1.10245
11
-1.05634
21
1.09929
0
LINE
8
BLACK
6
CONTINUOUS
10
-1.05634
20
1.09929
11
-1.05634
21
1.09929
0
LINE
8
BLACK
6
CONTINUOUS
10
-1.05634
20
1.09929
11
-1.05684
21
1.0987
0
LINE
8
BLACK
6
CONTINUOUS
10
-1.05684
20
1.0987
11
-1.05684
21
1.0987
0
LINE
8
BLACK
6
CONTINUOUS
10
-1.05684
20
1.0987
11
-1.05746
21
1.09794
0
LINE
8
BLACK
6
CONTINUOUS
10
-1.05746
20
1.09794
11
-1.05793
21
1.09732
0
LINE
8
BLACK
6
CONTINUOUS
10
-1.05793
20
1.09732
11
-1.06794
21
1.08355
0
LINE
8
BLACK
6
CONTINUOUS
10
-1.06794
20
1.08355
11
-1.06794
21
1.08355
0
LINE
8
BLACK
6
CONTINUOUS
10
-1.06794
20
1.08355
11
-1.06879
21
1.08224
0
LINE
8
BLACK
6
CONTINUOUS
10
-1.06879
20
1.08224
11
-1.06998
21
1.08019
0
LINE
8
BLACK
6
CONTINUOUS
10
-1.06998
20
1.08019
11
-1.06998
21
1.08019
0
LINE
8
BLACK
6
CONTINUOUS
10
-1.06998
20
1.08019
11
-1.07069
21
1.0788
0
LINE
8
BLACK
6
CONTINUOUS
10
-1.07069
20
1.0788
11
-1.07069
21
1.0788
0
LINE
8
BLACK
6
CONTINUOUS
10
-1.07069
20
1.0788
11
-1.07069
21
1.0788
0
LINE
8
BLACK
6
CONTINUOUS
10
-1.07069
20
1.0788
11
-1.07069
21
1.0788
0
LINE
8
BLACK
6
CONTINUOUS
10
-1.07069
20
1.0788
11
-1.07271
21
1.07425
0
LINE
8
BLACK
6
CONTINUOUS
10
-1.07271
20
1.07425
11
-1.07765
21
1.06317
0
LINE
8
BLACK
6
CONTINUOUS
10
-1.07765
20
1.06317
11
-1.07808
21
1.06203
0
LINE
8
BLACK
6
CONTINUOUS
10
-1.07808
20
1.06203
11
-1.0782
21
1.06171
0
LINE
8
BLACK
6
CONTINUOUS
10
-1.0782
20
1.06171
11
-1.07894
21
1.05946
0
LINE
8
BLACK
6
CONTINUOUS
10
-1.07894
20
1.05946
11
-1.07894
21
1.05946
0
LINE
8
BLACK
6
CONTINUOUS
10
-1.07894
20
1.05946
11
-1.07894
21
1.05946
0
LINE
8
BLACK
6
CONTINUOUS
10
-1.07894
20
1.05946
11
-1.07894
21
1.05945
0
LINE
8
BLACK
6
CONTINUOUS
10
-1.07894
20
1.05945
11
-1.07934
21
1.05795
0
LINE
8
BLACK
6
CONTINUOUS
10
-1.07934
20
1.05795
11
-1.07934
21
1.05795
0
LINE
8
BLACK
6
CONTINUOUS
10
-1.07934
20
1.05795
11
-1.0829
21
1.04121
0
LINE
8
BLACK
6
CONTINUOUS
10
-1.0829
20
1.04121
11
-1.08314
21
1.03968
0
LINE
8
BLACK
6
CONTINUOUS
10
-1.08314
20
1.03968
11
-1.08339
21
1.03732
0
LINE
8
BLACK
6
CONTINUOUS
10
-1.08339
20
1.03732
11
-1.08347
21
1.03576
0
LINE
8
BLACK
6
CONTINUOUS
10
-1.08347
20
1.03576
11
-1.08347
21
1.03576
0
LINE
8
BLACK
6
CONTINUOUS
10
-1.08347
20
1.03576
11
-1.08347
21
1.01865
0
CIRCLE
8
BLACK
10
-0.216535
20
0.37505
40
0.00688976
0
CIRCLE
8
BLACK
10
-0.216535
20
-0.37505
40
0.00688976
0
CIRCLE
8
BLACK
10
0.433071
20
0
40
0.00688976
0
CIRCLE
8
BLACK
10
0.744094
20
0.751969
40
0.00787402
0
CIRCLE
8
BLACK
10
0.744094
20
-0.759843
40
0.00787402
0
CIRCLE
8
BLACK
10
1.45873
20
-0.0161207
40
0.00787402
0
CIRCLE
8
BLACK
10
-1.37627
20
-0.483765
40
0.00787402
0
CIRCLE
8
BLACK
10
-1.27135
20
-0.715402
40
0.00787402
0
CIRCLE
8
BLACK
10
-1.45873
20
0.0161207
40
0.00787402
0
CIRCLE
8
BLACK
10
-1.36524
20
0.514062
40
0.00787402
0
CIRCLE
8
BLACK
10
-1.12781
20
-0.925302
40
0.00787402
0
CIRCLE
8
BLACK
10
-1.43936
20
-0.237429
40
0.00787402
0
CIRCLE
8
BLACK
10
-1.43377
20
0.269181
40
0.00787402
0
CIRCLE
8
BLACK
10
1.12781
20
0.925302
40
0.00787402
0
CIRCLE
8
BLACK
10
1.25523
20
-0.743324
40
0.00787402
0
CIRCLE
8
BLACK
10
1.37627
20
0.483765
40
0.00787402
0
CIRCLE
8
BLACK
10
-1.25523
20
0.743324
40
0.00787402
0
CIRCLE
8
BLACK
10
1.10709
20
-0.95
40
0.00787402
0
CIRCLE
8
BLACK
10
1.43377
20
-0.269181
40
0.00787402
0
CIRCLE
8
BLACK
10
-1.10709
20
0.95
40
0.00787402
0
CIRCLE
8
BLACK
10
1.43936
20
0.237429
40
0.00787402
0
CIRCLE
8
BLACK
10
1.36524
20
-0.514062
40
0.00787402
0
CIRCLE
8
BLACK
10
1.27135
20
0.715402
40
0.00787402
  0
ENDSEC
  0
EOF
