  0
SECTION
  2
HEADER
  9
$ANGBASE
  50
0.0
  9
$ANGDIR
  70
1
  9
$MEASUREMENT
  70
0
  0
ENDSEC
  0
SECTION
  2
TABLES
  0
TABLE
  2
LTYPE
  70
4
  0
LTYPE
  5
40F
  2
CONTINUOUS
  70
0
  3
Solid line
  72
65
  73
0
  40
0.0
  0
LTYPE
  5
410
  2
DASHDOT
 70
0
  3
Dash Dot ____ _ ____ _
 72
65
 73
4
 40
2.0
 49
1.25
 49
-0.25
 49
0.25
 49
-0.25
  0
LTYPE
  5
411
  2
DASHED
 70
0
  3
Dashed __ __ __ __ __
 72
65
 73
2
 40
0.75
 49
0.5
 49
-0.25
  0
LTYPE
  5
43B
  2
DOTTED
 70
0
  3
Dotted .  .  .  .
 72
65
 73
2
 40
0.2
 49
0.0
 49
-0.2
  0
ENDTAB
  0
TABLE
  2
STYLE
  70
4
  0
STYLE
  2
KICAD
  70
0
  40
0
  41
1
  42
1
  50
0
  71
0
  3
isocp.shx
  0
STYLE
  2
KICADB
  70
0
  40
0
  41
1
  42
1
  50
0
  71
0
  3
isocp.shx
  0
STYLE
  2
KICADI
  70
0
  40
0
  41
1
  42
1
  50
15
  71
0
  3
isocp.shx
  0
STYLE
  2
KICADBI
  70
0
  40
0
  41
1
  42
1
  50
15
  71
0
  3
isocp.shx
  0
ENDTAB
  0
TABLE
  2
LAYER
  70
1
  0
LAYER
  2
BLACK
  70
0
  62
7
  6
CONTINUOUS
  0
ENDTAB
  0
ENDSEC
  0
SECTION
  2
ENTITIES
0
LINE
8
BLACK
6
CONTINUOUS
10
-0.737759
20
-0.688695
11
-0.737654
21
-0.688675
0
LINE
8
BLACK
6
CONTINUOUS
10
-0.737654
20
-0.688675
11
-0.717528
21
-0.692955
0
LINE
8
BLACK
6
CONTINUOUS
10
-0.717528
20
-0.692955
11
-0.717439
21
-0.693015
0
LINE
8
BLACK
6
CONTINUOUS
10
-0.717439
20
-0.693015
11
-0.717332
21
-0.693018
0
LINE
8
BLACK
6
CONTINUOUS
10
-0.717332
20
-0.693018
11
-0.698537
21
-0.701388
0
LINE
8
BLACK
6
CONTINUOUS
10
-0.698537
20
-0.701388
11
-0.698463
21
-0.701466
0
LINE
8
BLACK
6
CONTINUOUS
10
-0.698463
20
-0.701466
11
-0.698359
21
-0.701491
0
LINE
8
BLACK
6
CONTINUOUS
10
-0.698359
20
-0.701491
11
-0.681709
21
-0.713586
0
LINE
8
BLACK
6
CONTINUOUS
10
-0.681709
20
-0.713586
11
-0.681673
21
-0.713644
0
LINE
8
BLACK
6
CONTINUOUS
10
-0.681673
20
-0.713644
11
-0.68161
21
-0.713668
0
LINE
8
BLACK
6
CONTINUOUS
10
-0.68161
20
-0.713668
11
-0.66057
21
-0.733634
0
LINE
8
BLACK
6
CONTINUOUS
10
-0.66057
20
-0.733634
11
-0.617349
21
-0.77055
0
LINE
8
BLACK
6
CONTINUOUS
10
-0.617349
20
-0.77055
11
-0.580421
21
-0.798884
0
LINE
8
BLACK
6
CONTINUOUS
10
-0.580421
20
-0.798884
11
-0.542062
21
-0.825245
0
LINE
8
BLACK
6
CONTINUOUS
10
-0.542062
20
-0.825245
11
-0.493602
21
-0.854943
0
LINE
8
BLACK
6
CONTINUOUS
10
-0.493602
20
-0.854943
11
-0.443651
21
-0.882064
0
LINE
8
BLACK
6
CONTINUOUS
10
-0.443651
20
-0.882064
11
-0.401643
21
-0.902101
0
LINE
8
BLACK
6
CONTINUOUS
10
-0.401643
20
-0.902101
11
-0.35864
21
-0.919915
0
LINE
8
BLACK
6
CONTINUOUS
10
-0.35864
20
-0.919915
11
-0.305062
21
-0.938886
0
LINE
8
BLACK
6
CONTINUOUS
10
-0.305062
20
-0.938886
11
-0.250566
21
-0.955029
0
LINE
8
BLACK
6
CONTINUOUS
10
-0.250566
20
-0.955029
11
-0.205307
21
-0.965895
0
LINE
8
BLACK
6
CONTINUOUS
10
-0.205307
20
-0.965895
11
-0.159541
21
-0.974378
0
LINE
8
BLACK
6
CONTINUOUS
10
-0.159541
20
-0.974378
11
-0.103191
21
-0.981796
0
LINE
8
BLACK
6
CONTINUOUS
10
-0.103191
20
-0.981796
11
-0.0465289
21
-0.986257
0
LINE
8
BLACK
6
CONTINUOUS
10
-0.0465289
20
-0.986257
11
-3.93701e-08
21
-0.987472
0
LINE
8
BLACK
6
CONTINUOUS
10
-3.93701e-08
20
-0.987472
11
0.0465285
21
-0.986257
0
LINE
8
BLACK
6
CONTINUOUS
10
0.0465285
20
-0.986257
11
0.103191
21
-0.981796
0
LINE
8
BLACK
6
CONTINUOUS
10
0.103191
20
-0.981796
11
0.159541
21
-0.974378
0
LINE
8
BLACK
6
CONTINUOUS
10
0.159541
20
-0.974378
11
0.205306
21
-0.965895
0
LINE
8
BLACK
6
CONTINUOUS
10
0.205306
20
-0.965895
11
0.250566
21
-0.955029
0
LINE
8
BLACK
6
CONTINUOUS
10
0.250566
20
-0.955029
11
0.305062
21
-0.938886
0
LINE
8
BLACK
6
CONTINUOUS
10
0.305062
20
-0.938886
11
0.358639
21
-0.919916
0
LINE
8
BLACK
6
CONTINUOUS
10
0.358639
20
-0.919916
11
0.401642
21
-0.902101
0
LINE
8
BLACK
6
CONTINUOUS
10
0.401642
20
-0.902101
11
0.443652
21
-0.882063
0
LINE
8
BLACK
6
CONTINUOUS
10
0.443652
20
-0.882063
11
0.493602
21
-0.854942
0
LINE
8
BLACK
6
CONTINUOUS
10
0.493602
20
-0.854942
11
0.542062
21
-0.825245
0
LINE
8
BLACK
6
CONTINUOUS
10
0.542062
20
-0.825245
11
0.580421
21
-0.798885
0
LINE
8
BLACK
6
CONTINUOUS
10
0.580421
20
-0.798885
11
0.617348
21
-0.77055
0
LINE
8
BLACK
6
CONTINUOUS
10
0.617348
20
-0.77055
11
0.660569
21
-0.733634
0
LINE
8
BLACK
6
CONTINUOUS
10
0.660569
20
-0.733634
11
0.68161
21
-0.713668
0
LINE
8
BLACK
6
CONTINUOUS
10
0.68161
20
-0.713668
11
0.681673
21
-0.713644
0
LINE
8
BLACK
6
CONTINUOUS
10
0.681673
20
-0.713644
11
0.681709
21
-0.713586
0
LINE
8
BLACK
6
CONTINUOUS
10
0.681709
20
-0.713586
11
0.698358
21
-0.701491
0
LINE
8
BLACK
6
CONTINUOUS
10
0.698358
20
-0.701491
11
0.698462
21
-0.701466
0
LINE
8
BLACK
6
CONTINUOUS
10
0.698462
20
-0.701466
11
0.698536
21
-0.701388
0
LINE
8
BLACK
6
CONTINUOUS
10
0.698536
20
-0.701388
11
0.717332
21
-0.693018
0
LINE
8
BLACK
6
CONTINUOUS
10
0.717332
20
-0.693018
11
0.717439
21
-0.693015
0
LINE
8
BLACK
6
CONTINUOUS
10
0.717439
20
-0.693015
11
0.717527
21
-0.692955
0
LINE
8
BLACK
6
CONTINUOUS
10
0.717527
20
-0.692955
11
0.737653
21
-0.688675
0
LINE
8
BLACK
6
CONTINUOUS
10
0.737653
20
-0.688675
11
0.737759
21
-0.688695
0
LINE
8
BLACK
6
CONTINUOUS
10
0.737759
20
-0.688695
11
0.737858
21
-0.688654
0
LINE
8
BLACK
6
CONTINUOUS
10
0.737858
20
-0.688654
11
0.758437
21
-0.688654
0
LINE
8
BLACK
6
CONTINUOUS
10
0.758437
20
-0.688654
11
0.758536
21
-0.688695
0
LINE
8
BLACK
6
CONTINUOUS
10
0.758536
20
-0.688695
11
0.758641
21
-0.688675
0
LINE
8
BLACK
6
CONTINUOUS
10
0.758641
20
-0.688675
11
0.778767
21
-0.692955
0
LINE
8
BLACK
6
CONTINUOUS
10
0.778767
20
-0.692955
11
0.778856
21
-0.693015
0
LINE
8
BLACK
6
CONTINUOUS
10
0.778856
20
-0.693015
11
0.778963
21
-0.693018
0
LINE
8
BLACK
6
CONTINUOUS
10
0.778963
20
-0.693018
11
0.797762
21
-0.701388
0
LINE
8
BLACK
6
CONTINUOUS
10
0.797762
20
-0.701388
11
0.797836
21
-0.701466
0
LINE
8
BLACK
6
CONTINUOUS
10
0.797836
20
-0.701466
11
0.797941
21
-0.701491
0
LINE
8
BLACK
6
CONTINUOUS
10
0.797941
20
-0.701491
11
0.814586
21
-0.713586
0
LINE
8
BLACK
6
CONTINUOUS
10
0.814586
20
-0.713586
11
0.814635
21
-0.713666
0
LINE
8
BLACK
6
CONTINUOUS
10
0.814635
20
-0.713666
11
0.814721
21
-0.713704
0
LINE
8
BLACK
6
CONTINUOUS
10
0.814721
20
-0.713704
11
1.04242
21
-0.953385
0
LINE
8
BLACK
6
CONTINUOUS
10
1.04242
20
-0.953385
11
1.04242
21
-0.953398
0
LINE
8
BLACK
6
CONTINUOUS
10
1.04242
20
-0.953398
11
1.04244
21
-0.953404
0
LINE
8
BLACK
6
CONTINUOUS
10
1.04244
20
-0.953404
11
1.0562
21
-0.968696
0
LINE
8
BLACK
6
CONTINUOUS
10
1.0562
20
-0.968696
11
1.05624
21
-0.968797
0
LINE
8
BLACK
6
CONTINUOUS
10
1.05624
20
-0.968797
11
1.05632
21
-0.968862
0
LINE
8
BLACK
6
CONTINUOUS
10
1.05632
20
-0.968862
11
1.06661
21
-0.986681
0
LINE
8
BLACK
6
CONTINUOUS
10
1.06661
20
-0.986681
11
1.06663
21
-0.986788
0
LINE
8
BLACK
6
CONTINUOUS
10
1.06663
20
-0.986788
11
1.0667
21
-0.986869
0
LINE
8
BLACK
6
CONTINUOUS
10
1.0667
20
-0.986869
11
1.07306
21
-1.00644
0
LINE
8
BLACK
6
CONTINUOUS
10
1.07306
20
-1.00644
11
1.07305
21
-1.00655
0
LINE
8
BLACK
6
CONTINUOUS
10
1.07305
20
-1.00655
11
1.0731
21
-1.00664
0
LINE
8
BLACK
6
CONTINUOUS
10
1.0731
20
-1.00664
11
1.07525
21
-1.0271
0
LINE
8
BLACK
6
CONTINUOUS
10
1.07525
20
-1.0271
11
1.07522
21
-1.0272
0
LINE
8
BLACK
6
CONTINUOUS
10
1.07522
20
-1.0272
11
1.07525
21
-1.02731
0
LINE
8
BLACK
6
CONTINUOUS
10
1.07525
20
-1.02731
11
1.0731
21
-1.04777
0
LINE
8
BLACK
6
CONTINUOUS
10
1.0731
20
-1.04777
11
1.07305
21
-1.04787
0
LINE
8
BLACK
6
CONTINUOUS
10
1.07305
20
-1.04787
11
1.07306
21
-1.04797
0
LINE
8
BLACK
6
CONTINUOUS
10
1.07306
20
-1.04797
11
1.0667
21
-1.06754
0
LINE
8
BLACK
6
CONTINUOUS
10
1.0667
20
-1.06754
11
1.06663
21
-1.06763
0
LINE
8
BLACK
6
CONTINUOUS
10
1.06663
20
-1.06763
11
1.06661
21
-1.06773
0
LINE
8
BLACK
6
CONTINUOUS
10
1.06661
20
-1.06773
11
1.05632
21
-1.08555
0
LINE
8
BLACK
6
CONTINUOUS
10
1.05632
20
-1.08555
11
1.05624
21
-1.08562
0
LINE
8
BLACK
6
CONTINUOUS
10
1.05624
20
-1.08562
11
1.0562
21
-1.08572
0
LINE
8
BLACK
6
CONTINUOUS
10
1.0562
20
-1.08572
11
1.04244
21
-1.10101
0
LINE
8
BLACK
6
CONTINUOUS
10
1.04244
20
-1.10101
11
1.0424
21
-1.10103
0
LINE
8
BLACK
6
CONTINUOUS
10
1.0424
20
-1.10103
11
1.04238
21
-1.10106
0
LINE
8
BLACK
6
CONTINUOUS
10
1.04238
20
-1.10106
11
1.01491
21
-1.12714
0
LINE
8
BLACK
6
CONTINUOUS
10
1.01491
20
-1.12714
11
1.01488
21
-1.12715
0
LINE
8
BLACK
6
CONTINUOUS
10
1.01488
20
-1.12715
11
1.01487
21
-1.12717
0
LINE
8
BLACK
6
CONTINUOUS
10
1.01487
20
-1.12717
11
0.95845
21
-1.17536
0
LINE
8
BLACK
6
CONTINUOUS
10
0.95845
20
-1.17536
11
0.958424
21
-1.17537
0
LINE
8
BLACK
6
CONTINUOUS
10
0.958424
20
-1.17537
11
0.95841
21
-1.17539
0
LINE
8
BLACK
6
CONTINUOUS
10
0.95841
20
-1.17539
11
0.89954
21
-1.22056
0
LINE
8
BLACK
6
CONTINUOUS
10
0.89954
20
-1.22056
11
0.899526
21
-1.22057
0
LINE
8
BLACK
6
CONTINUOUS
10
0.899526
20
-1.22057
11
0.899519
21
-1.22058
0
LINE
8
BLACK
6
CONTINUOUS
10
0.899519
20
-1.22058
11
0.882874
21
-1.23267
0
LINE
8
BLACK
6
CONTINUOUS
10
0.882874
20
-1.23267
11
0.88286
21
-1.23268
0
LINE
8
BLACK
6
CONTINUOUS
10
0.88286
20
-1.23268
11
0.882852
21
-1.23269
0
LINE
8
BLACK
6
CONTINUOUS
10
0.882852
20
-1.23269
11
0.821699
21
-1.27472
0
LINE
8
BLACK
6
CONTINUOUS
10
0.821699
20
-1.27472
11
0.821672
21
-1.27472
0
LINE
8
BLACK
6
CONTINUOUS
10
0.821672
20
-1.27472
11
0.821656
21
-1.27475
0
LINE
8
BLACK
6
CONTINUOUS
10
0.821656
20
-1.27475
11
0.758388
21
-1.31352
0
LINE
8
BLACK
6
CONTINUOUS
10
0.758388
20
-1.31352
11
0.758361
21
-1.31352
0
LINE
8
BLACK
6
CONTINUOUS
10
0.758361
20
-1.31352
11
0.758344
21
-1.31354
0
LINE
8
BLACK
6
CONTINUOUS
10
0.758344
20
-1.31354
11
0.693135
21
-1.34895
0
LINE
8
BLACK
6
CONTINUOUS
10
0.693135
20
-1.34895
11
0.693107
21
-1.34895
0
LINE
8
BLACK
6
CONTINUOUS
10
0.693107
20
-1.34895
11
0.693089
21
-1.34897
0
LINE
8
BLACK
6
CONTINUOUS
10
0.693089
20
-1.34897
11
0.626113
21
-1.38092
0
LINE
8
BLACK
6
CONTINUOUS
10
0.626113
20
-1.38092
11
0.626099
21
-1.38092
0
LINE
8
BLACK
6
CONTINUOUS
10
0.626099
20
-1.38092
11
0.626089
21
-1.38093
0
LINE
8
BLACK
6
CONTINUOUS
10
0.626089
20
-1.38093
11
0.607294
21
-1.3893
0
LINE
8
BLACK
6
CONTINUOUS
10
0.607294
20
-1.3893
11
0.60728
21
-1.3893
0
LINE
8
BLACK
6
CONTINUOUS
10
0.60728
20
-1.3893
11
0.60727
21
-1.38931
0
LINE
8
BLACK
6
CONTINUOUS
10
0.60727
20
-1.38931
11
0.538715
21
-1.4177
0
LINE
8
BLACK
6
CONTINUOUS
10
0.538715
20
-1.4177
11
0.538688
21
-1.4177
0
LINE
8
BLACK
6
CONTINUOUS
10
0.538688
20
-1.4177
11
0.538667
21
-1.41772
0
LINE
8
BLACK
6
CONTINUOUS
10
0.538667
20
-1.41772
11
0.468718
21
-1.44249
0
LINE
8
BLACK
6
CONTINUOUS
10
0.468718
20
-1.44249
11
0.468691
21
-1.44249
0
LINE
8
BLACK
6
CONTINUOUS
10
0.468691
20
-1.44249
11
0.468669
21
-1.44251
0
LINE
8
BLACK
6
CONTINUOUS
10
0.468669
20
-1.44251
11
0.397523
21
-1.46358
0
LINE
8
BLACK
6
CONTINUOUS
10
0.397523
20
-1.46358
11
0.397496
21
-1.46358
0
LINE
8
BLACK
6
CONTINUOUS
10
0.397496
20
-1.46358
11
0.397474
21
-1.46359
0
LINE
8
BLACK
6
CONTINUOUS
10
0.397474
20
-1.46359
11
0.325322
21
-1.48091
0
LINE
8
BLACK
6
CONTINUOUS
10
0.325322
20
-1.48091
11
0.325308
21
-1.48091
0
LINE
8
BLACK
6
CONTINUOUS
10
0.325308
20
-1.48091
11
0.325297
21
-1.48092
0
LINE
8
BLACK
6
CONTINUOUS
10
0.325297
20
-1.48092
11
0.305171
21
-1.4852
0
LINE
8
BLACK
6
CONTINUOUS
10
0.305171
20
-1.4852
11
0.305157
21
-1.4852
0
LINE
8
BLACK
6
CONTINUOUS
10
0.305157
20
-1.4852
11
0.305145
21
-1.4852
0
LINE
8
BLACK
6
CONTINUOUS
10
0.305145
20
-1.4852
11
0.232186
21
-1.49873
0
LINE
8
BLACK
6
CONTINUOUS
10
0.232186
20
-1.49873
11
0.232159
21
-1.49872
0
LINE
8
BLACK
6
CONTINUOUS
10
0.232159
20
-1.49872
11
0.232135
21
-1.49874
0
LINE
8
BLACK
6
CONTINUOUS
10
0.232135
20
-1.49874
11
0.158567
21
-1.50842
0
LINE
8
BLACK
6
CONTINUOUS
10
0.158567
20
-1.50842
11
0.15854
21
-1.50841
0
LINE
8
BLACK
6
CONTINUOUS
10
0.15854
20
-1.50841
11
0.158516
21
-1.50843
0
LINE
8
BLACK
6
CONTINUOUS
10
0.158516
20
-1.50843
11
0.0845419
21
-1.51425
0
LINE
8
BLACK
6
CONTINUOUS
10
0.0845419
20
-1.51425
11
0.0845156
21
-1.51424
0
LINE
8
BLACK
6
CONTINUOUS
10
0.0845156
20
-1.51424
11
0.0844904
21
-1.51425
0
LINE
8
BLACK
6
CONTINUOUS
10
0.0844904
20
-1.51425
11
0.0103134
21
-1.51619
0
LINE
8
BLACK
6
CONTINUOUS
10
0.0103134
20
-1.51619
11
0.0103005
21
-1.51619
0
LINE
8
BLACK
6
CONTINUOUS
10
0.0103005
20
-1.51619
11
0.0102876
21
-1.51619
0
LINE
8
BLACK
6
CONTINUOUS
10
0.0102876
20
-1.51619
11
-0.0102877
21
-1.51619
0
LINE
8
BLACK
6
CONTINUOUS
10
-0.0102877
20
-1.51619
11
-0.0103005
21
-1.51619
0
LINE
8
BLACK
6
CONTINUOUS
10
-0.0103005
20
-1.51619
11
-0.0103134
21
-1.51619
0
LINE
8
BLACK
6
CONTINUOUS
10
-0.0103134
20
-1.51619
11
-0.0844904
21
-1.51425
0
LINE
8
BLACK
6
CONTINUOUS
10
-0.0844904
20
-1.51425
11
-0.0845156
21
-1.51424
0
LINE
8
BLACK
6
CONTINUOUS
10
-0.0845156
20
-1.51424
11
-0.0845419
21
-1.51425
0
LINE
8
BLACK
6
CONTINUOUS
10
-0.0845419
20
-1.51425
11
-0.158516
21
-1.50843
0
LINE
8
BLACK
6
CONTINUOUS
10
-0.158516
20
-1.50843
11
-0.15854
21
-1.50841
0
LINE
8
BLACK
6
CONTINUOUS
10
-0.15854
20
-1.50841
11
-0.158567
21
-1.50842
0
LINE
8
BLACK
6
CONTINUOUS
10
-0.158567
20
-1.50842
11
-0.232135
21
-1.49874
0
LINE
8
BLACK
6
CONTINUOUS
10
-0.232135
20
-1.49874
11
-0.232159
21
-1.49872
0
LINE
8
BLACK
6
CONTINUOUS
10
-0.232159
20
-1.49872
11
-0.232186
21
-1.49873
0
LINE
8
BLACK
6
CONTINUOUS
10
-0.232186
20
-1.49873
11
-0.305146
21
-1.4852
0
LINE
8
BLACK
6
CONTINUOUS
10
-0.305146
20
-1.4852
11
-0.305157
21
-1.4852
0
LINE
8
BLACK
6
CONTINUOUS
10
-0.305157
20
-1.4852
11
-0.305171
21
-1.4852
0
LINE
8
BLACK
6
CONTINUOUS
10
-0.305171
20
-1.4852
11
-0.325297
21
-1.48092
0
LINE
8
BLACK
6
CONTINUOUS
10
-0.325297
20
-1.48092
11
-0.325309
21
-1.48091
0
LINE
8
BLACK
6
CONTINUOUS
10
-0.325309
20
-1.48091
11
-0.325322
21
-1.48091
0
LINE
8
BLACK
6
CONTINUOUS
10
-0.325322
20
-1.48091
11
-0.397474
21
-1.46359
0
LINE
8
BLACK
6
CONTINUOUS
10
-0.397474
20
-1.46359
11
-0.397496
21
-1.46358
0
LINE
8
BLACK
6
CONTINUOUS
10
-0.397496
20
-1.46358
11
-0.397524
21
-1.46358
0
LINE
8
BLACK
6
CONTINUOUS
10
-0.397524
20
-1.46358
11
-0.468669
21
-1.44251
0
LINE
8
BLACK
6
CONTINUOUS
10
-0.468669
20
-1.44251
11
-0.468691
21
-1.44249
0
LINE
8
BLACK
6
CONTINUOUS
10
-0.468691
20
-1.44249
11
-0.468718
21
-1.44249
0
LINE
8
BLACK
6
CONTINUOUS
10
-0.468718
20
-1.44249
11
-0.538667
21
-1.41772
0
LINE
8
BLACK
6
CONTINUOUS
10
-0.538667
20
-1.41772
11
-0.538688
21
-1.4177
0
LINE
8
BLACK
6
CONTINUOUS
10
-0.538688
20
-1.4177
11
-0.538715
21
-1.4177
0
LINE
8
BLACK
6
CONTINUOUS
10
-0.538715
20
-1.4177
11
-0.60727
21
-1.38931
0
LINE
8
BLACK
6
CONTINUOUS
10
-0.60727
20
-1.38931
11
-0.60728
21
-1.3893
0
LINE
8
BLACK
6
CONTINUOUS
10
-0.60728
20
-1.3893
11
-0.607294
21
-1.3893
0
LINE
8
BLACK
6
CONTINUOUS
10
-0.607294
20
-1.3893
11
-0.626089
21
-1.38093
0
LINE
8
BLACK
6
CONTINUOUS
10
-0.626089
20
-1.38093
11
-0.626099
21
-1.38092
0
LINE
8
BLACK
6
CONTINUOUS
10
-0.626099
20
-1.38092
11
-0.626113
21
-1.38092
0
LINE
8
BLACK
6
CONTINUOUS
10
-0.626113
20
-1.38092
11
-0.693089
21
-1.34897
0
LINE
8
BLACK
6
CONTINUOUS
10
-0.693089
20
-1.34897
11
-0.693108
21
-1.34895
0
LINE
8
BLACK
6
CONTINUOUS
10
-0.693108
20
-1.34895
11
-0.693135
21
-1.34895
0
LINE
8
BLACK
6
CONTINUOUS
10
-0.693135
20
-1.34895
11
-0.758344
21
-1.31354
0
LINE
8
BLACK
6
CONTINUOUS
10
-0.758344
20
-1.31354
11
-0.758361
21
-1.31352
0
LINE
8
BLACK
6
CONTINUOUS
10
-0.758361
20
-1.31352
11
-0.758388
21
-1.31352
0
LINE
8
BLACK
6
CONTINUOUS
10
-0.758388
20
-1.31352
11
-0.821656
21
-1.27474
0
LINE
8
BLACK
6
CONTINUOUS
10
-0.821656
20
-1.27474
11
-0.821672
21
-1.27472
0
LINE
8
BLACK
6
CONTINUOUS
10
-0.821672
20
-1.27472
11
-0.821699
21
-1.27472
0
LINE
8
BLACK
6
CONTINUOUS
10
-0.821699
20
-1.27472
11
-0.882853
21
-1.23269
0
LINE
8
BLACK
6
CONTINUOUS
10
-0.882853
20
-1.23269
11
-0.88286
21
-1.23268
0
LINE
8
BLACK
6
CONTINUOUS
10
-0.88286
20
-1.23268
11
-0.882874
21
-1.23267
0
LINE
8
BLACK
6
CONTINUOUS
10
-0.882874
20
-1.23267
11
-0.899519
21
-1.22058
0
LINE
8
BLACK
6
CONTINUOUS
10
-0.899519
20
-1.22058
11
-0.899527
21
-1.22057
0
LINE
8
BLACK
6
CONTINUOUS
10
-0.899527
20
-1.22057
11
-0.89954
21
-1.22056
0
LINE
8
BLACK
6
CONTINUOUS
10
-0.89954
20
-1.22056
11
-0.95841
21
-1.17539
0
LINE
8
BLACK
6
CONTINUOUS
10
-0.95841
20
-1.17539
11
-0.958424
21
-1.17537
0
LINE
8
BLACK
6
CONTINUOUS
10
-0.958424
20
-1.17537
11
-0.95845
21
-1.17536
0
LINE
8
BLACK
6
CONTINUOUS
10
-0.95845
20
-1.17536
11
-1.01487
21
-1.12717
0
LINE
8
BLACK
6
CONTINUOUS
10
-1.01487
20
-1.12717
11
-1.01488
21
-1.12715
0
LINE
8
BLACK
6
CONTINUOUS
10
-1.01488
20
-1.12715
11
-1.01491
21
-1.12714
0
LINE
8
BLACK
6
CONTINUOUS
10
-1.01491
20
-1.12714
11
-1.04238
21
-1.10106
0
LINE
8
BLACK
6
CONTINUOUS
10
-1.04238
20
-1.10106
11
-1.0424
21
-1.10103
0
LINE
8
BLACK
6
CONTINUOUS
10
-1.0424
20
-1.10103
11
-1.04244
21
-1.10101
0
LINE
8
BLACK
6
CONTINUOUS
10
-1.04244
20
-1.10101
11
-1.0562
21
-1.08572
0
LINE
8
BLACK
6
CONTINUOUS
10
-1.0562
20
-1.08572
11
-1.05624
21
-1.08562
0
LINE
8
BLACK
6
CONTINUOUS
10
-1.05624
20
-1.08562
11
-1.05632
21
-1.08555
0
LINE
8
BLACK
6
CONTINUOUS
10
-1.05632
20
-1.08555
11
-1.06661
21
-1.06773
0
LINE
8
BLACK
6
CONTINUOUS
10
-1.06661
20
-1.06773
11
-1.06663
21
-1.06763
0
LINE
8
BLACK
6
CONTINUOUS
10
-1.06663
20
-1.06763
11
-1.0667
21
-1.06754
0
LINE
8
BLACK
6
CONTINUOUS
10
-1.0667
20
-1.06754
11
-1.07306
21
-1.04797
0
LINE
8
BLACK
6
CONTINUOUS
10
-1.07306
20
-1.04797
11
-1.07305
21
-1.04787
0
LINE
8
BLACK
6
CONTINUOUS
10
-1.07305
20
-1.04787
11
-1.0731
21
-1.04777
0
LINE
8
BLACK
6
CONTINUOUS
10
-1.0731
20
-1.04777
11
-1.07525
21
-1.02731
0
LINE
8
BLACK
6
CONTINUOUS
10
-1.07525
20
-1.02731
11
-1.07522
21
-1.0272
0
LINE
8
BLACK
6
CONTINUOUS
10
-1.07522
20
-1.0272
11
-1.07525
21
-1.0271
0
LINE
8
BLACK
6
CONTINUOUS
10
-1.07525
20
-1.0271
11
-1.0731
21
-1.00664
0
LINE
8
BLACK
6
CONTINUOUS
10
-1.0731
20
-1.00664
11
-1.07305
21
-1.00655
0
LINE
8
BLACK
6
CONTINUOUS
10
-1.07305
20
-1.00655
11
-1.07306
21
-1.00644
0
LINE
8
BLACK
6
CONTINUOUS
10
-1.07306
20
-1.00644
11
-1.0667
21
-0.986869
0
LINE
8
BLACK
6
CONTINUOUS
10
-1.0667
20
-0.986869
11
-1.06663
21
-0.986788
0
LINE
8
BLACK
6
CONTINUOUS
10
-1.06663
20
-0.986788
11
-1.06661
21
-0.986681
0
LINE
8
BLACK
6
CONTINUOUS
10
-1.06661
20
-0.986681
11
-1.05632
21
-0.968862
0
LINE
8
BLACK
6
CONTINUOUS
10
-1.05632
20
-0.968862
11
-1.05624
21
-0.968797
0
LINE
8
BLACK
6
CONTINUOUS
10
-1.05624
20
-0.968797
11
-1.0562
21
-0.968696
0
LINE
8
BLACK
6
CONTINUOUS
10
-1.0562
20
-0.968696
11
-1.04244
21
-0.953404
0
LINE
8
BLACK
6
CONTINUOUS
10
-1.04244
20
-0.953404
11
-1.04242
21
-0.953398
0
LINE
8
BLACK
6
CONTINUOUS
10
-1.04242
20
-0.953398
11
-1.04242
21
-0.953385
0
LINE
8
BLACK
6
CONTINUOUS
10
-1.04242
20
-0.953385
11
-0.814721
21
-0.713704
0
LINE
8
BLACK
6
CONTINUOUS
10
-0.814721
20
-0.713704
11
-0.814636
21
-0.713666
0
LINE
8
BLACK
6
CONTINUOUS
10
-0.814636
20
-0.713666
11
-0.814586
21
-0.713586
0
LINE
8
BLACK
6
CONTINUOUS
10
-0.814586
20
-0.713586
11
-0.797941
21
-0.701491
0
LINE
8
BLACK
6
CONTINUOUS
10
-0.797941
20
-0.701491
11
-0.797836
21
-0.701466
0
LINE
8
BLACK
6
CONTINUOUS
10
-0.797836
20
-0.701466
11
-0.797763
21
-0.701388
0
LINE
8
BLACK
6
CONTINUOUS
10
-0.797763
20
-0.701388
11
-0.778963
21
-0.693018
0
LINE
8
BLACK
6
CONTINUOUS
10
-0.778963
20
-0.693018
11
-0.778856
21
-0.693015
0
LINE
8
BLACK
6
CONTINUOUS
10
-0.778856
20
-0.693015
11
-0.778768
21
-0.692955
0
LINE
8
BLACK
6
CONTINUOUS
10
-0.778768
20
-0.692955
11
-0.758642
21
-0.688675
0
LINE
8
BLACK
6
CONTINUOUS
10
-0.758642
20
-0.688675
11
-0.758536
21
-0.688695
0
LINE
8
BLACK
6
CONTINUOUS
10
-0.758536
20
-0.688695
11
-0.758437
21
-0.688654
0
LINE
8
BLACK
6
CONTINUOUS
10
-0.758437
20
-0.688654
11
-0.737858
21
-0.688654
0
LINE
8
BLACK
6
CONTINUOUS
10
-0.737858
20
-0.688654
11
-0.737759
21
-0.688695
0
LINE
8
BLACK
6
CONTINUOUS
10
0.598462
20
-0.557048
11
0.601017
21
-0.558755
0
LINE
8
BLACK
6
CONTINUOUS
10
0.601017
20
-0.558755
11
0.602723
21
-0.56131
0
LINE
8
BLACK
6
CONTINUOUS
10
0.602723
20
-0.56131
11
0.603323
21
-0.564323
0
LINE
8
BLACK
6
CONTINUOUS
10
0.603323
20
-0.564323
11
0.603323
21
-0.624323
0
LINE
8
BLACK
6
CONTINUOUS
10
0.603323
20
-0.624323
11
0.602723
21
-0.627336
0
LINE
8
BLACK
6
CONTINUOUS
10
0.602723
20
-0.627336
11
0.601017
21
-0.629891
0
LINE
8
BLACK
6
CONTINUOUS
10
0.601017
20
-0.629891
11
0.598462
21
-0.631597
0
LINE
8
BLACK
6
CONTINUOUS
10
0.598462
20
-0.631597
11
0.595449
21
-0.632197
0
LINE
8
BLACK
6
CONTINUOUS
10
0.595449
20
-0.632197
11
0.535449
21
-0.632197
0
LINE
8
BLACK
6
CONTINUOUS
10
0.535449
20
-0.632197
11
0.532436
21
-0.631597
0
LINE
8
BLACK
6
CONTINUOUS
10
0.532436
20
-0.631597
11
0.529881
21
-0.629891
0
LINE
8
BLACK
6
CONTINUOUS
10
0.529881
20
-0.629891
11
0.528174
21
-0.627336
0
LINE
8
BLACK
6
CONTINUOUS
10
0.528174
20
-0.627336
11
0.527575
21
-0.624323
0
LINE
8
BLACK
6
CONTINUOUS
10
0.527575
20
-0.624323
11
0.527575
21
-0.564323
0
LINE
8
BLACK
6
CONTINUOUS
10
0.527575
20
-0.564323
11
0.528174
21
-0.56131
0
LINE
8
BLACK
6
CONTINUOUS
10
0.528174
20
-0.56131
11
0.529881
21
-0.558755
0
LINE
8
BLACK
6
CONTINUOUS
10
0.529881
20
-0.558755
11
0.532436
21
-0.557048
0
LINE
8
BLACK
6
CONTINUOUS
10
0.532436
20
-0.557048
11
0.535449
21
-0.556449
0
LINE
8
BLACK
6
CONTINUOUS
10
0.535449
20
-0.556449
11
0.595449
21
-0.556449
0
LINE
8
BLACK
6
CONTINUOUS
10
0.595449
20
-0.556449
11
0.598462
21
-0.557048
0
LINE
8
BLACK
6
CONTINUOUS
10
0.398462
20
-0.557048
11
0.401017
21
-0.558755
0
LINE
8
BLACK
6
CONTINUOUS
10
0.401017
20
-0.558755
11
0.402723
21
-0.56131
0
LINE
8
BLACK
6
CONTINUOUS
10
0.402723
20
-0.56131
11
0.403323
21
-0.564323
0
LINE
8
BLACK
6
CONTINUOUS
10
0.403323
20
-0.564323
11
0.403323
21
-0.624323
0
LINE
8
BLACK
6
CONTINUOUS
10
0.403323
20
-0.624323
11
0.402723
21
-0.627336
0
LINE
8
BLACK
6
CONTINUOUS
10
0.402723
20
-0.627336
11
0.401017
21
-0.629891
0
LINE
8
BLACK
6
CONTINUOUS
10
0.401017
20
-0.629891
11
0.398462
21
-0.631597
0
LINE
8
BLACK
6
CONTINUOUS
10
0.398462
20
-0.631597
11
0.395449
21
-0.632197
0
LINE
8
BLACK
6
CONTINUOUS
10
0.395449
20
-0.632197
11
0.335449
21
-0.632197
0
LINE
8
BLACK
6
CONTINUOUS
10
0.335449
20
-0.632197
11
0.332436
21
-0.631597
0
LINE
8
BLACK
6
CONTINUOUS
10
0.332436
20
-0.631597
11
0.329881
21
-0.629891
0
LINE
8
BLACK
6
CONTINUOUS
10
0.329881
20
-0.629891
11
0.328174
21
-0.627336
0
LINE
8
BLACK
6
CONTINUOUS
10
0.328174
20
-0.627336
11
0.327575
21
-0.624323
0
LINE
8
BLACK
6
CONTINUOUS
10
0.327575
20
-0.624323
11
0.327575
21
-0.564323
0
LINE
8
BLACK
6
CONTINUOUS
10
0.327575
20
-0.564323
11
0.328174
21
-0.56131
0
LINE
8
BLACK
6
CONTINUOUS
10
0.328174
20
-0.56131
11
0.329881
21
-0.558755
0
LINE
8
BLACK
6
CONTINUOUS
10
0.329881
20
-0.558755
11
0.332436
21
-0.557048
0
LINE
8
BLACK
6
CONTINUOUS
10
0.332436
20
-0.557048
11
0.335449
21
-0.556449
0
LINE
8
BLACK
6
CONTINUOUS
10
0.335449
20
-0.556449
11
0.395449
21
-0.556449
0
LINE
8
BLACK
6
CONTINUOUS
10
0.395449
20
-0.556449
11
0.398462
21
-0.557048
0
LINE
8
BLACK
6
CONTINUOUS
10
0.498462
20
-0.557048
11
0.501017
21
-0.558755
0
LINE
8
BLACK
6
CONTINUOUS
10
0.501017
20
-0.558755
11
0.502723
21
-0.56131
0
LINE
8
BLACK
6
CONTINUOUS
10
0.502723
20
-0.56131
11
0.503323
21
-0.564323
0
LINE
8
BLACK
6
CONTINUOUS
10
0.503323
20
-0.564323
11
0.503323
21
-0.624323
0
LINE
8
BLACK
6
CONTINUOUS
10
0.503323
20
-0.624323
11
0.502723
21
-0.627336
0
LINE
8
BLACK
6
CONTINUOUS
10
0.502723
20
-0.627336
11
0.501017
21
-0.629891
0
LINE
8
BLACK
6
CONTINUOUS
10
0.501017
20
-0.629891
11
0.498462
21
-0.631597
0
LINE
8
BLACK
6
CONTINUOUS
10
0.498462
20
-0.631597
11
0.495449
21
-0.632197
0
LINE
8
BLACK
6
CONTINUOUS
10
0.495449
20
-0.632197
11
0.435449
21
-0.632197
0
LINE
8
BLACK
6
CONTINUOUS
10
0.435449
20
-0.632197
11
0.432436
21
-0.631597
0
LINE
8
BLACK
6
CONTINUOUS
10
0.432436
20
-0.631597
11
0.429881
21
-0.629891
0
LINE
8
BLACK
6
CONTINUOUS
10
0.429881
20
-0.629891
11
0.428174
21
-0.627336
0
LINE
8
BLACK
6
CONTINUOUS
10
0.428174
20
-0.627336
11
0.427575
21
-0.624323
0
LINE
8
BLACK
6
CONTINUOUS
10
0.427575
20
-0.624323
11
0.427575
21
-0.564323
0
LINE
8
BLACK
6
CONTINUOUS
10
0.427575
20
-0.564323
11
0.428174
21
-0.56131
0
LINE
8
BLACK
6
CONTINUOUS
10
0.428174
20
-0.56131
11
0.429881
21
-0.558755
0
LINE
8
BLACK
6
CONTINUOUS
10
0.429881
20
-0.558755
11
0.432436
21
-0.557048
0
LINE
8
BLACK
6
CONTINUOUS
10
0.432436
20
-0.557048
11
0.435449
21
-0.556449
0
LINE
8
BLACK
6
CONTINUOUS
10
0.435449
20
-0.556449
11
0.495449
21
-0.556449
0
LINE
8
BLACK
6
CONTINUOUS
10
0.495449
20
-0.556449
11
0.498462
21
-0.557048
0
LINE
8
BLACK
6
CONTINUOUS
10
0.598462
20
-0.457048
11
0.601017
21
-0.458755
0
LINE
8
BLACK
6
CONTINUOUS
10
0.601017
20
-0.458755
11
0.602723
21
-0.46131
0
LINE
8
BLACK
6
CONTINUOUS
10
0.602723
20
-0.46131
11
0.603323
21
-0.464323
0
LINE
8
BLACK
6
CONTINUOUS
10
0.603323
20
-0.464323
11
0.603323
21
-0.524323
0
LINE
8
BLACK
6
CONTINUOUS
10
0.603323
20
-0.524323
11
0.602723
21
-0.527336
0
LINE
8
BLACK
6
CONTINUOUS
10
0.602723
20
-0.527336
11
0.601017
21
-0.529891
0
LINE
8
BLACK
6
CONTINUOUS
10
0.601017
20
-0.529891
11
0.598462
21
-0.531597
0
LINE
8
BLACK
6
CONTINUOUS
10
0.598462
20
-0.531597
11
0.595449
21
-0.532197
0
LINE
8
BLACK
6
CONTINUOUS
10
0.595449
20
-0.532197
11
0.535449
21
-0.532197
0
LINE
8
BLACK
6
CONTINUOUS
10
0.535449
20
-0.532197
11
0.532436
21
-0.531597
0
LINE
8
BLACK
6
CONTINUOUS
10
0.532436
20
-0.531597
11
0.529881
21
-0.529891
0
LINE
8
BLACK
6
CONTINUOUS
10
0.529881
20
-0.529891
11
0.528174
21
-0.527336
0
LINE
8
BLACK
6
CONTINUOUS
10
0.528174
20
-0.527336
11
0.527575
21
-0.524323
0
LINE
8
BLACK
6
CONTINUOUS
10
0.527575
20
-0.524323
11
0.527575
21
-0.464323
0
LINE
8
BLACK
6
CONTINUOUS
10
0.527575
20
-0.464323
11
0.528174
21
-0.46131
0
LINE
8
BLACK
6
CONTINUOUS
10
0.528174
20
-0.46131
11
0.529881
21
-0.458755
0
LINE
8
BLACK
6
CONTINUOUS
10
0.529881
20
-0.458755
11
0.532436
21
-0.457048
0
LINE
8
BLACK
6
CONTINUOUS
10
0.532436
20
-0.457048
11
0.535449
21
-0.456449
0
LINE
8
BLACK
6
CONTINUOUS
10
0.535449
20
-0.456449
11
0.595449
21
-0.456449
0
LINE
8
BLACK
6
CONTINUOUS
10
0.595449
20
-0.456449
11
0.598462
21
-0.457048
0
LINE
8
BLACK
6
CONTINUOUS
10
0.498462
20
-0.457048
11
0.501017
21
-0.458755
0
LINE
8
BLACK
6
CONTINUOUS
10
0.501017
20
-0.458755
11
0.502723
21
-0.46131
0
LINE
8
BLACK
6
CONTINUOUS
10
0.502723
20
-0.46131
11
0.503323
21
-0.464323
0
LINE
8
BLACK
6
CONTINUOUS
10
0.503323
20
-0.464323
11
0.503323
21
-0.524323
0
LINE
8
BLACK
6
CONTINUOUS
10
0.503323
20
-0.524323
11
0.502723
21
-0.527336
0
LINE
8
BLACK
6
CONTINUOUS
10
0.502723
20
-0.527336
11
0.501017
21
-0.529891
0
LINE
8
BLACK
6
CONTINUOUS
10
0.501017
20
-0.529891
11
0.498462
21
-0.531597
0
LINE
8
BLACK
6
CONTINUOUS
10
0.498462
20
-0.531597
11
0.495449
21
-0.532197
0
LINE
8
BLACK
6
CONTINUOUS
10
0.495449
20
-0.532197
11
0.435449
21
-0.532197
0
LINE
8
BLACK
6
CONTINUOUS
10
0.435449
20
-0.532197
11
0.432436
21
-0.531597
0
LINE
8
BLACK
6
CONTINUOUS
10
0.432436
20
-0.531597
11
0.429881
21
-0.529891
0
LINE
8
BLACK
6
CONTINUOUS
10
0.429881
20
-0.529891
11
0.428174
21
-0.527336
0
LINE
8
BLACK
6
CONTINUOUS
10
0.428174
20
-0.527336
11
0.427575
21
-0.524323
0
LINE
8
BLACK
6
CONTINUOUS
10
0.427575
20
-0.524323
11
0.427575
21
-0.464323
0
LINE
8
BLACK
6
CONTINUOUS
10
0.427575
20
-0.464323
11
0.428174
21
-0.46131
0
LINE
8
BLACK
6
CONTINUOUS
10
0.428174
20
-0.46131
11
0.429881
21
-0.458755
0
LINE
8
BLACK
6
CONTINUOUS
10
0.429881
20
-0.458755
11
0.432436
21
-0.457048
0
LINE
8
BLACK
6
CONTINUOUS
10
0.432436
20
-0.457048
11
0.435449
21
-0.456449
0
LINE
8
BLACK
6
CONTINUOUS
10
0.435449
20
-0.456449
11
0.495449
21
-0.456449
0
LINE
8
BLACK
6
CONTINUOUS
10
0.495449
20
-0.456449
11
0.498462
21
-0.457048
0
LINE
8
BLACK
6
CONTINUOUS
10
0.398462
20
-0.457048
11
0.401017
21
-0.458755
0
LINE
8
BLACK
6
CONTINUOUS
10
0.401017
20
-0.458755
11
0.402723
21
-0.46131
0
LINE
8
BLACK
6
CONTINUOUS
10
0.402723
20
-0.46131
11
0.403323
21
-0.464323
0
LINE
8
BLACK
6
CONTINUOUS
10
0.403323
20
-0.464323
11
0.403323
21
-0.524323
0
LINE
8
BLACK
6
CONTINUOUS
10
0.403323
20
-0.524323
11
0.402723
21
-0.527336
0
LINE
8
BLACK
6
CONTINUOUS
10
0.402723
20
-0.527336
11
0.401017
21
-0.529891
0
LINE
8
BLACK
6
CONTINUOUS
10
0.401017
20
-0.529891
11
0.398462
21
-0.531597
0
LINE
8
BLACK
6
CONTINUOUS
10
0.398462
20
-0.531597
11
0.395449
21
-0.532197
0
LINE
8
BLACK
6
CONTINUOUS
10
0.395449
20
-0.532197
11
0.335449
21
-0.532197
0
LINE
8
BLACK
6
CONTINUOUS
10
0.335449
20
-0.532197
11
0.332436
21
-0.531597
0
LINE
8
BLACK
6
CONTINUOUS
10
0.332436
20
-0.531597
11
0.329881
21
-0.529891
0
LINE
8
BLACK
6
CONTINUOUS
10
0.329881
20
-0.529891
11
0.328174
21
-0.527336
0
LINE
8
BLACK
6
CONTINUOUS
10
0.328174
20
-0.527336
11
0.327575
21
-0.524323
0
LINE
8
BLACK
6
CONTINUOUS
10
0.327575
20
-0.524323
11
0.327575
21
-0.464323
0
LINE
8
BLACK
6
CONTINUOUS
10
0.327575
20
-0.464323
11
0.328174
21
-0.46131
0
LINE
8
BLACK
6
CONTINUOUS
10
0.328174
20
-0.46131
11
0.329881
21
-0.458755
0
LINE
8
BLACK
6
CONTINUOUS
10
0.329881
20
-0.458755
11
0.332436
21
-0.457048
0
LINE
8
BLACK
6
CONTINUOUS
10
0.332436
20
-0.457048
11
0.335449
21
-0.456449
0
LINE
8
BLACK
6
CONTINUOUS
10
0.335449
20
-0.456449
11
0.395449
21
-0.456449
0
LINE
8
BLACK
6
CONTINUOUS
10
0.395449
20
-0.456449
11
0.398462
21
-0.457048
0
LINE
8
BLACK
6
CONTINUOUS
10
-0.440294
20
0.0932001
11
-0.440164
21
0.0932229
0
LINE
8
BLACK
6
CONTINUOUS
10
-0.440164
20
0.0932229
11
-0.440051
21
0.0931573
0
LINE
8
BLACK
6
CONTINUOUS
10
-0.440051
20
0.0931573
11
-0.439667
21
0.0930896
0
LINE
8
BLACK
6
CONTINUOUS
10
-0.439667
20
0.0930896
11
-0.43908
21
0.0925965
0
LINE
8
BLACK
6
CONTINUOUS
10
-0.43908
20
0.0925965
11
-0.438415
21
0.092213
0
LINE
8
BLACK
6
CONTINUOUS
10
-0.438415
20
0.092213
11
-0.438324
21
0.0919626
0
LINE
8
BLACK
6
CONTINUOUS
10
-0.438324
20
0.0919626
11
-0.43812
21
0.0917913
0
LINE
8
BLACK
6
CONTINUOUS
10
-0.43812
20
0.0917913
11
-0.437987
21
0.0910358
0
LINE
8
BLACK
6
CONTINUOUS
10
-0.437987
20
0.0910358
11
-0.437724
21
0.090315
0
LINE
8
BLACK
6
CONTINUOUS
10
-0.437724
20
0.090315
11
-0.437724
21
0.0637402
0
LINE
8
BLACK
6
CONTINUOUS
10
-0.437724
20
0.0637402
11
-0.295008
21
0.0637402
0
LINE
8
BLACK
6
CONTINUOUS
10
-0.295008
20
0.0637402
11
-0.294624
21
0.0636725
0
LINE
8
BLACK
6
CONTINUOUS
10
-0.294624
20
0.0636725
11
-0.294495
21
0.0636953
0
LINE
8
BLACK
6
CONTINUOUS
10
-0.294495
20
0.0636953
11
-0.294381
21
0.0636297
0
LINE
8
BLACK
6
CONTINUOUS
10
-0.294381
20
0.0636297
11
-0.293998
21
0.0635621
0
LINE
8
BLACK
6
CONTINUOUS
10
-0.293998
20
0.0635621
11
-0.29341
21
0.0630689
0
LINE
8
BLACK
6
CONTINUOUS
10
-0.29341
20
0.0630689
11
-0.292746
21
0.0626854
0
LINE
8
BLACK
6
CONTINUOUS
10
-0.292746
20
0.0626854
11
-0.292655
21
0.062435
0
LINE
8
BLACK
6
CONTINUOUS
10
-0.292655
20
0.062435
11
-0.292451
21
0.0622638
0
LINE
8
BLACK
6
CONTINUOUS
10
-0.292451
20
0.0622638
11
-0.292317
21
0.0615082
0
LINE
8
BLACK
6
CONTINUOUS
10
-0.292317
20
0.0615082
11
-0.292055
21
0.0607874
0
LINE
8
BLACK
6
CONTINUOUS
10
-0.292055
20
0.0607874
11
-0.292055
21
-0.0612598
0
LINE
8
BLACK
6
CONTINUOUS
10
-0.292055
20
-0.0612598
11
-0.292123
21
-0.0616434
0
LINE
8
BLACK
6
CONTINUOUS
10
-0.292123
20
-0.0616434
11
-0.2921
21
-0.0617726
0
LINE
8
BLACK
6
CONTINUOUS
10
-0.2921
20
-0.0617726
11
-0.292166
21
-0.0618862
0
LINE
8
BLACK
6
CONTINUOUS
10
-0.292166
20
-0.0618862
11
-0.292233
21
-0.0622698
0
LINE
8
BLACK
6
CONTINUOUS
10
-0.292233
20
-0.0622698
11
-0.292726
21
-0.0628574
0
LINE
8
BLACK
6
CONTINUOUS
10
-0.292726
20
-0.0628574
11
-0.29311
21
-0.0635218
0
LINE
8
BLACK
6
CONTINUOUS
10
-0.29311
20
-0.0635218
11
-0.29336
21
-0.0636129
0
LINE
8
BLACK
6
CONTINUOUS
10
-0.29336
20
-0.0636129
11
-0.293531
21
-0.063817
0
LINE
8
BLACK
6
CONTINUOUS
10
-0.293531
20
-0.063817
11
-0.294287
21
-0.0639502
0
LINE
8
BLACK
6
CONTINUOUS
10
-0.294287
20
-0.0639502
11
-0.295008
21
-0.0642126
0
LINE
8
BLACK
6
CONTINUOUS
10
-0.295008
20
-0.0642126
11
-0.437724
21
-0.0642126
0
LINE
8
BLACK
6
CONTINUOUS
10
-0.437724
20
-0.0642126
11
-0.437724
21
-0.0888189
0
LINE
8
BLACK
6
CONTINUOUS
10
-0.437724
20
-0.0888189
11
-0.437792
21
-0.0892024
0
LINE
8
BLACK
6
CONTINUOUS
10
-0.437792
20
-0.0892024
11
-0.437769
21
-0.0893317
0
LINE
8
BLACK
6
CONTINUOUS
10
-0.437769
20
-0.0893317
11
-0.437835
21
-0.0894453
0
LINE
8
BLACK
6
CONTINUOUS
10
-0.437835
20
-0.0894453
11
-0.437902
21
-0.0898288
0
LINE
8
BLACK
6
CONTINUOUS
10
-0.437902
20
-0.0898288
11
-0.438396
21
-0.0904165
0
LINE
8
BLACK
6
CONTINUOUS
10
-0.438396
20
-0.0904165
11
-0.438779
21
-0.0910808
0
LINE
8
BLACK
6
CONTINUOUS
10
-0.438779
20
-0.0910808
11
-0.43903
21
-0.0911719
0
LINE
8
BLACK
6
CONTINUOUS
10
-0.43903
20
-0.0911719
11
-0.439201
21
-0.0913761
0
LINE
8
BLACK
6
CONTINUOUS
10
-0.439201
20
-0.0913761
11
-0.439956
21
-0.0915093
0
LINE
8
BLACK
6
CONTINUOUS
10
-0.439956
20
-0.0915093
11
-0.440677
21
-0.0917717
0
LINE
8
BLACK
6
CONTINUOUS
10
-0.440677
20
-0.0917717
11
-0.545008
21
-0.0917717
0
LINE
8
BLACK
6
CONTINUOUS
10
-0.545008
20
-0.0917717
11
-0.545391
21
-0.091704
0
LINE
8
BLACK
6
CONTINUOUS
10
-0.545391
20
-0.091704
11
-0.545521
21
-0.0917268
0
LINE
8
BLACK
6
CONTINUOUS
10
-0.545521
20
-0.0917268
11
-0.545634
21
-0.0916612
0
LINE
8
BLACK
6
CONTINUOUS
10
-0.545634
20
-0.0916612
11
-0.546018
21
-0.0915936
0
LINE
8
BLACK
6
CONTINUOUS
10
-0.546018
20
-0.0915936
11
-0.546605
21
-0.0911004
0
LINE
8
BLACK
6
CONTINUOUS
10
-0.546605
20
-0.0911004
11
-0.54727
21
-0.0907169
0
LINE
8
BLACK
6
CONTINUOUS
10
-0.54727
20
-0.0907169
11
-0.547361
21
-0.0904665
0
LINE
8
BLACK
6
CONTINUOUS
10
-0.547361
20
-0.0904665
11
-0.547565
21
-0.0902953
0
LINE
8
BLACK
6
CONTINUOUS
10
-0.547565
20
-0.0902953
11
-0.547698
21
-0.0895397
0
LINE
8
BLACK
6
CONTINUOUS
10
-0.547698
20
-0.0895397
11
-0.547961
21
-0.0888189
0
LINE
8
BLACK
6
CONTINUOUS
10
-0.547961
20
-0.0888189
11
-0.547961
21
0.090315
0
LINE
8
BLACK
6
CONTINUOUS
10
-0.547961
20
0.090315
11
-0.547893
21
0.0906985
0
LINE
8
BLACK
6
CONTINUOUS
10
-0.547893
20
0.0906985
11
-0.547916
21
0.0908277
0
LINE
8
BLACK
6
CONTINUOUS
10
-0.547916
20
0.0908277
11
-0.54785
21
0.0909413
0
LINE
8
BLACK
6
CONTINUOUS
10
-0.54785
20
0.0909413
11
-0.547783
21
0.0913249
0
LINE
8
BLACK
6
CONTINUOUS
10
-0.547783
20
0.0913249
11
-0.547289
21
0.0919126
0
LINE
8
BLACK
6
CONTINUOUS
10
-0.547289
20
0.0919126
11
-0.546906
21
0.0925769
0
LINE
8
BLACK
6
CONTINUOUS
10
-0.546906
20
0.0925769
11
-0.546656
21
0.092668
0
LINE
8
BLACK
6
CONTINUOUS
10
-0.546656
20
0.092668
11
-0.546484
21
0.0928721
0
LINE
8
BLACK
6
CONTINUOUS
10
-0.546484
20
0.0928721
11
-0.545729
21
0.0930054
0
LINE
8
BLACK
6
CONTINUOUS
10
-0.545729
20
0.0930054
11
-0.545008
21
0.0932677
0
LINE
8
BLACK
6
CONTINUOUS
10
-0.545008
20
0.0932677
11
-0.440677
21
0.0932677
0
LINE
8
BLACK
6
CONTINUOUS
10
-0.440677
20
0.0932677
11
-0.440294
21
0.0932001
0
LINE
8
BLACK
6
CONTINUOUS
10
0.20496
20
0.683593
11
0.236407
21
0.672148
0
LINE
8
BLACK
6
CONTINUOUS
10
0.236407
20
0.672148
11
0.239033
21
0.670554
0
LINE
8
BLACK
6
CONTINUOUS
10
0.239033
20
0.670554
11
0.24085
21
0.668076
0
LINE
8
BLACK
6
CONTINUOUS
10
0.24085
20
0.668076
11
0.24091
21
0.66783
0
LINE
8
BLACK
6
CONTINUOUS
10
0.24091
20
0.66783
11
0.241115
21
0.66798
0
LINE
8
BLACK
6
CONTINUOUS
10
0.241115
20
0.66798
11
0.244099
21
0.66871
0
LINE
8
BLACK
6
CONTINUOUS
10
0.244099
20
0.66871
11
0.247135
21
0.668243
0
LINE
8
BLACK
6
CONTINUOUS
10
0.247135
20
0.668243
11
0.283021
21
0.655181
0
LINE
8
BLACK
6
CONTINUOUS
10
0.283021
20
0.655181
11
0.285648
21
0.653588
0
LINE
8
BLACK
6
CONTINUOUS
10
0.285648
20
0.653588
11
0.287464
21
0.65111
0
LINE
8
BLACK
6
CONTINUOUS
10
0.287464
20
0.65111
11
0.288195
21
0.648126
0
LINE
8
BLACK
6
CONTINUOUS
10
0.288195
20
0.648126
11
0.287727
21
0.645089
0
LINE
8
BLACK
6
CONTINUOUS
10
0.287727
20
0.645089
11
0.274935
21
0.609943
0
LINE
8
BLACK
6
CONTINUOUS
10
0.274935
20
0.609943
11
0.273341
21
0.607317
0
LINE
8
BLACK
6
CONTINUOUS
10
0.273341
20
0.607317
11
0.270864
21
0.6055
0
LINE
8
BLACK
6
CONTINUOUS
10
0.270864
20
0.6055
11
0.270273
21
0.605355
0
LINE
8
BLACK
6
CONTINUOUS
10
0.270273
20
0.605355
11
0.270633
21
0.604865
0
LINE
8
BLACK
6
CONTINUOUS
10
0.270633
20
0.604865
11
0.271363
21
0.601881
0
LINE
8
BLACK
6
CONTINUOUS
10
0.271363
20
0.601881
11
0.270896
21
0.598844
0
LINE
8
BLACK
6
CONTINUOUS
10
0.270896
20
0.598844
11
0.25541
21
0.556299
0
LINE
8
BLACK
6
CONTINUOUS
10
0.25541
20
0.556299
11
0.253817
21
0.553673
0
LINE
8
BLACK
6
CONTINUOUS
10
0.253817
20
0.553673
11
0.251339
21
0.551856
0
LINE
8
BLACK
6
CONTINUOUS
10
0.251339
20
0.551856
11
0.248355
21
0.551126
0
LINE
8
BLACK
6
CONTINUOUS
10
0.248355
20
0.551126
11
0.245318
21
0.551593
0
LINE
8
BLACK
6
CONTINUOUS
10
0.245318
20
0.551593
11
0.209432
21
0.564655
0
LINE
8
BLACK
6
CONTINUOUS
10
0.209432
20
0.564655
11
0.206806
21
0.566248
0
LINE
8
BLACK
6
CONTINUOUS
10
0.206806
20
0.566248
11
0.204989
21
0.568726
0
LINE
8
BLACK
6
CONTINUOUS
10
0.204989
20
0.568726
11
0.204929
21
0.568972
0
LINE
8
BLACK
6
CONTINUOUS
10
0.204929
20
0.568972
11
0.204724
21
0.568822
0
LINE
8
BLACK
6
CONTINUOUS
10
0.204724
20
0.568822
11
0.20174
21
0.568092
0
LINE
8
BLACK
6
CONTINUOUS
10
0.20174
20
0.568092
11
0.198704
21
0.56856
0
LINE
8
BLACK
6
CONTINUOUS
10
0.198704
20
0.56856
11
0.167257
21
0.580005
0
LINE
8
BLACK
6
CONTINUOUS
10
0.167257
20
0.580005
11
0.164631
21
0.581599
0
LINE
8
BLACK
6
CONTINUOUS
10
0.164631
20
0.581599
11
0.162814
21
0.584077
0
LINE
8
BLACK
6
CONTINUOUS
10
0.162814
20
0.584077
11
0.162084
21
0.587061
0
LINE
8
BLACK
6
CONTINUOUS
10
0.162084
20
0.587061
11
0.162551
21
0.590097
0
LINE
8
BLACK
6
CONTINUOUS
10
0.162551
20
0.590097
11
0.178036
21
0.632642
0
LINE
8
BLACK
6
CONTINUOUS
10
0.178036
20
0.632642
11
0.17963
21
0.635269
0
LINE
8
BLACK
6
CONTINUOUS
10
0.17963
20
0.635269
11
0.182108
21
0.637086
0
LINE
8
BLACK
6
CONTINUOUS
10
0.182108
20
0.637086
11
0.182698
21
0.63723
0
LINE
8
BLACK
6
CONTINUOUS
10
0.182698
20
0.63723
11
0.182339
21
0.63772
0
LINE
8
BLACK
6
CONTINUOUS
10
0.182339
20
0.63772
11
0.181608
21
0.640705
0
LINE
8
BLACK
6
CONTINUOUS
10
0.181608
20
0.640705
11
0.182076
21
0.643741
0
LINE
8
BLACK
6
CONTINUOUS
10
0.182076
20
0.643741
11
0.194868
21
0.678887
0
LINE
8
BLACK
6
CONTINUOUS
10
0.194868
20
0.678887
11
0.196462
21
0.681514
0
LINE
8
BLACK
6
CONTINUOUS
10
0.196462
20
0.681514
11
0.198939
21
0.68333
0
LINE
8
BLACK
6
CONTINUOUS
10
0.198939
20
0.68333
11
0.201924
21
0.684061
0
LINE
8
BLACK
6
CONTINUOUS
10
0.201924
20
0.684061
11
0.20496
21
0.683593
0
LINE
8
BLACK
6
CONTINUOUS
10
0.224249
20
0.622466
11
0.223659
21
0.622322
0
LINE
8
BLACK
6
CONTINUOUS
10
0.223659
20
0.622322
11
0.224018
21
0.621831
0
LINE
8
BLACK
6
CONTINUOUS
10
0.224018
20
0.621831
11
0.224078
21
0.621585
0
LINE
8
BLACK
6
CONTINUOUS
10
0.224078
20
0.621585
11
0.224283
21
0.621735
0
LINE
8
BLACK
6
CONTINUOUS
10
0.224283
20
0.621735
11
0.224873
21
0.62188
0
LINE
8
BLACK
6
CONTINUOUS
10
0.224873
20
0.62188
11
0.224514
21
0.62237
0
LINE
8
BLACK
6
CONTINUOUS
10
0.224514
20
0.62237
11
0.224454
21
0.622616
0
LINE
8
BLACK
6
CONTINUOUS
10
0.224454
20
0.622616
11
0.224249
21
0.622466
0
LINE
8
BLACK
6
CONTINUOUS
10
-0.412511
20
0.808924
11
-0.409756
21
0.807565
0
LINE
8
BLACK
6
CONTINUOUS
10
-0.409756
20
0.807565
11
-0.40773
21
0.805255
0
LINE
8
BLACK
6
CONTINUOUS
10
-0.40773
20
0.805255
11
-0.389029
21
0.772864
0
LINE
8
BLACK
6
CONTINUOUS
10
-0.389029
20
0.772864
11
-0.388041
21
0.769955
0
LINE
8
BLACK
6
CONTINUOUS
10
-0.388041
20
0.769955
11
-0.388242
21
0.766889
0
LINE
8
BLACK
6
CONTINUOUS
10
-0.388242
20
0.766889
11
-0.388511
21
0.766344
0
LINE
8
BLACK
6
CONTINUOUS
10
-0.388511
20
0.766344
11
-0.387905
21
0.766304
0
LINE
8
BLACK
6
CONTINUOUS
10
-0.387905
20
0.766304
11
-0.385149
21
0.764946
0
LINE
8
BLACK
6
CONTINUOUS
10
-0.385149
20
0.764946
11
-0.383124
21
0.762636
0
LINE
8
BLACK
6
CONTINUOUS
10
-0.383124
20
0.762636
11
-0.360486
21
0.723426
0
LINE
8
BLACK
6
CONTINUOUS
10
-0.360486
20
0.723426
11
-0.359498
21
0.720517
0
LINE
8
BLACK
6
CONTINUOUS
10
-0.359498
20
0.720517
11
-0.359699
21
0.717451
0
LINE
8
BLACK
6
CONTINUOUS
10
-0.359699
20
0.717451
11
-0.361058
21
0.714696
0
LINE
8
BLACK
6
CONTINUOUS
10
-0.361058
20
0.714696
11
-0.363368
21
0.71267
0
LINE
8
BLACK
6
CONTINUOUS
10
-0.363368
20
0.71267
11
-0.39644
21
0.693575
0
LINE
8
BLACK
6
CONTINUOUS
10
-0.39644
20
0.693575
11
-0.39935
21
0.692588
0
LINE
8
BLACK
6
CONTINUOUS
10
-0.39935
20
0.692588
11
-0.402415
21
0.692789
0
LINE
8
BLACK
6
CONTINUOUS
10
-0.402415
20
0.692789
11
-0.402643
21
0.692901
0
LINE
8
BLACK
6
CONTINUOUS
10
-0.402643
20
0.692901
11
-0.402659
21
0.692648
0
LINE
8
BLACK
6
CONTINUOUS
10
-0.402659
20
0.692648
11
-0.404018
21
0.689892
0
LINE
8
BLACK
6
CONTINUOUS
10
-0.404018
20
0.689892
11
-0.406328
21
0.687867
0
LINE
8
BLACK
6
CONTINUOUS
10
-0.406328
20
0.687867
11
-0.435309
21
0.671134
0
LINE
8
BLACK
6
CONTINUOUS
10
-0.435309
20
0.671134
11
-0.438219
21
0.670147
0
LINE
8
BLACK
6
CONTINUOUS
10
-0.438219
20
0.670147
11
-0.441284
21
0.670348
0
LINE
8
BLACK
6
CONTINUOUS
10
-0.441284
20
0.670348
11
-0.44404
21
0.671707
0
LINE
8
BLACK
6
CONTINUOUS
10
-0.44404
20
0.671707
11
-0.446065
21
0.674017
0
LINE
8
BLACK
6
CONTINUOUS
10
-0.446065
20
0.674017
11
-0.468703
21
0.713226
0
LINE
8
BLACK
6
CONTINUOUS
10
-0.468703
20
0.713226
11
-0.469691
21
0.716136
0
LINE
8
BLACK
6
CONTINUOUS
10
-0.469691
20
0.716136
11
-0.46949
21
0.719201
0
LINE
8
BLACK
6
CONTINUOUS
10
-0.46949
20
0.719201
11
-0.469221
21
0.719747
0
LINE
8
BLACK
6
CONTINUOUS
10
-0.469221
20
0.719747
11
-0.469828
21
0.719786
0
LINE
8
BLACK
6
CONTINUOUS
10
-0.469828
20
0.719786
11
-0.472583
21
0.721145
0
LINE
8
BLACK
6
CONTINUOUS
10
-0.472583
20
0.721145
11
-0.474609
21
0.723455
0
LINE
8
BLACK
6
CONTINUOUS
10
-0.474609
20
0.723455
11
-0.49331
21
0.755846
0
LINE
8
BLACK
6
CONTINUOUS
10
-0.49331
20
0.755846
11
-0.494297
21
0.758755
0
LINE
8
BLACK
6
CONTINUOUS
10
-0.494297
20
0.758755
11
-0.494096
21
0.761821
0
LINE
8
BLACK
6
CONTINUOUS
10
-0.494096
20
0.761821
11
-0.492737
21
0.764576
0
LINE
8
BLACK
6
CONTINUOUS
10
-0.492737
20
0.764576
11
-0.490427
21
0.766602
0
LINE
8
BLACK
6
CONTINUOUS
10
-0.490427
20
0.766602
11
-0.461446
21
0.783334
0
LINE
8
BLACK
6
CONTINUOUS
10
-0.461446
20
0.783334
11
-0.458537
21
0.784322
0
LINE
8
BLACK
6
CONTINUOUS
10
-0.458537
20
0.784322
11
-0.455471
21
0.784121
0
LINE
8
BLACK
6
CONTINUOUS
10
-0.455471
20
0.784121
11
-0.455244
21
0.784009
0
LINE
8
BLACK
6
CONTINUOUS
10
-0.455244
20
0.784009
11
-0.455227
21
0.784262
0
LINE
8
BLACK
6
CONTINUOUS
10
-0.455227
20
0.784262
11
-0.453868
21
0.787017
0
LINE
8
BLACK
6
CONTINUOUS
10
-0.453868
20
0.787017
11
-0.451559
21
0.789043
0
LINE
8
BLACK
6
CONTINUOUS
10
-0.451559
20
0.789043
11
-0.418486
21
0.808137
0
LINE
8
BLACK
6
CONTINUOUS
10
-0.418486
20
0.808137
11
-0.415577
21
0.809125
0
LINE
8
BLACK
6
CONTINUOUS
10
-0.415577
20
0.809125
11
-0.412511
21
0.808924
0
LINE
8
BLACK
6
CONTINUOUS
10
-0.431203
20
0.742086
11
-0.431472
21
0.741541
0
LINE
8
BLACK
6
CONTINUOUS
10
-0.431472
20
0.741541
11
-0.430865
21
0.741501
0
LINE
8
BLACK
6
CONTINUOUS
10
-0.430865
20
0.741501
11
-0.430638
21
0.741389
0
LINE
8
BLACK
6
CONTINUOUS
10
-0.430638
20
0.741389
11
-0.430621
21
0.741642
0
LINE
8
BLACK
6
CONTINUOUS
10
-0.430621
20
0.741642
11
-0.430352
21
0.742187
0
LINE
8
BLACK
6
CONTINUOUS
10
-0.430352
20
0.742187
11
-0.430959
21
0.742227
0
LINE
8
BLACK
6
CONTINUOUS
10
-0.430959
20
0.742227
11
-0.431186
21
0.742339
0
LINE
8
BLACK
6
CONTINUOUS
10
-0.431186
20
0.742339
11
-0.431203
21
0.742086
0
LINE
8
BLACK
6
CONTINUOUS
10
0.0103008
20
1.51619
11
0.0103137
21
1.51619
0
LINE
8
BLACK
6
CONTINUOUS
10
0.0103137
20
1.51619
11
0.0844906
21
1.51425
0
LINE
8
BLACK
6
CONTINUOUS
10
0.0844906
20
1.51425
11
0.0845158
21
1.51424
0
LINE
8
BLACK
6
CONTINUOUS
10
0.0845158
20
1.51424
11
0.0845421
21
1.51425
0
LINE
8
BLACK
6
CONTINUOUS
10
0.0845421
20
1.51425
11
0.158516
21
1.50843
0
LINE
8
BLACK
6
CONTINUOUS
10
0.158516
20
1.50843
11
0.158541
21
1.50841
0
LINE
8
BLACK
6
CONTINUOUS
10
0.158541
20
1.50841
11
0.158567
21
1.50842
0
LINE
8
BLACK
6
CONTINUOUS
10
0.158567
20
1.50842
11
0.232135
21
1.49874
0
LINE
8
BLACK
6
CONTINUOUS
10
0.232135
20
1.49874
11
0.232159
21
1.49872
0
LINE
8
BLACK
6
CONTINUOUS
10
0.232159
20
1.49872
11
0.232186
21
1.49873
0
LINE
8
BLACK
6
CONTINUOUS
10
0.232186
20
1.49873
11
0.305146
21
1.4852
0
LINE
8
BLACK
6
CONTINUOUS
10
0.305146
20
1.4852
11
0.305157
21
1.4852
0
LINE
8
BLACK
6
CONTINUOUS
10
0.305157
20
1.4852
11
0.305171
21
1.4852
0
LINE
8
BLACK
6
CONTINUOUS
10
0.305171
20
1.4852
11
0.325297
21
1.48092
0
LINE
8
BLACK
6
CONTINUOUS
10
0.325297
20
1.48092
11
0.325309
21
1.48091
0
LINE
8
BLACK
6
CONTINUOUS
10
0.325309
20
1.48091
11
0.325322
21
1.48091
0
LINE
8
BLACK
6
CONTINUOUS
10
0.325322
20
1.48091
11
0.397474
21
1.46359
0
LINE
8
BLACK
6
CONTINUOUS
10
0.397474
20
1.46359
11
0.397496
21
1.46358
0
LINE
8
BLACK
6
CONTINUOUS
10
0.397496
20
1.46358
11
0.397524
21
1.46358
0
LINE
8
BLACK
6
CONTINUOUS
10
0.397524
20
1.46358
11
0.46867
21
1.44251
0
LINE
8
BLACK
6
CONTINUOUS
10
0.46867
20
1.44251
11
0.468691
21
1.44249
0
LINE
8
BLACK
6
CONTINUOUS
10
0.468691
20
1.44249
11
0.468719
21
1.44249
0
LINE
8
BLACK
6
CONTINUOUS
10
0.468719
20
1.44249
11
0.538667
21
1.41772
0
LINE
8
BLACK
6
CONTINUOUS
10
0.538667
20
1.41772
11
0.538688
21
1.4177
0
LINE
8
BLACK
6
CONTINUOUS
10
0.538688
20
1.4177
11
0.538715
21
1.4177
0
LINE
8
BLACK
6
CONTINUOUS
10
0.538715
20
1.4177
11
0.607271
21
1.38931
0
LINE
8
BLACK
6
CONTINUOUS
10
0.607271
20
1.38931
11
0.60728
21
1.3893
0
LINE
8
BLACK
6
CONTINUOUS
10
0.60728
20
1.3893
11
0.607294
21
1.3893
0
LINE
8
BLACK
6
CONTINUOUS
10
0.607294
20
1.3893
11
0.62609
21
1.38093
0
LINE
8
BLACK
6
CONTINUOUS
10
0.62609
20
1.38093
11
0.626099
21
1.38092
0
LINE
8
BLACK
6
CONTINUOUS
10
0.626099
20
1.38092
11
0.626113
21
1.38092
0
LINE
8
BLACK
6
CONTINUOUS
10
0.626113
20
1.38092
11
0.693089
21
1.34897
0
LINE
8
BLACK
6
CONTINUOUS
10
0.693089
20
1.34897
11
0.693108
21
1.34895
0
LINE
8
BLACK
6
CONTINUOUS
10
0.693108
20
1.34895
11
0.693135
21
1.34895
0
LINE
8
BLACK
6
CONTINUOUS
10
0.693135
20
1.34895
11
0.758344
21
1.31354
0
LINE
8
BLACK
6
CONTINUOUS
10
0.758344
20
1.31354
11
0.758361
21
1.31352
0
LINE
8
BLACK
6
CONTINUOUS
10
0.758361
20
1.31352
11
0.758389
21
1.31352
0
LINE
8
BLACK
6
CONTINUOUS
10
0.758389
20
1.31352
11
0.821656
21
1.27474
0
LINE
8
BLACK
6
CONTINUOUS
10
0.821656
20
1.27474
11
0.821672
21
1.27472
0
LINE
8
BLACK
6
CONTINUOUS
10
0.821672
20
1.27472
11
0.821699
21
1.27472
0
LINE
8
BLACK
6
CONTINUOUS
10
0.821699
20
1.27472
11
0.882853
21
1.23269
0
LINE
8
BLACK
6
CONTINUOUS
10
0.882853
20
1.23269
11
0.882861
21
1.23268
0
LINE
8
BLACK
6
CONTINUOUS
10
0.882861
20
1.23268
11
0.882874
21
1.23267
0
LINE
8
BLACK
6
CONTINUOUS
10
0.882874
20
1.23267
11
0.899519
21
1.22058
0
LINE
8
BLACK
6
CONTINUOUS
10
0.899519
20
1.22058
11
0.899527
21
1.22057
0
LINE
8
BLACK
6
CONTINUOUS
10
0.899527
20
1.22057
11
0.89954
21
1.22056
0
LINE
8
BLACK
6
CONTINUOUS
10
0.89954
20
1.22056
11
0.95841
21
1.17539
0
LINE
8
BLACK
6
CONTINUOUS
10
0.95841
20
1.17539
11
0.958424
21
1.17537
0
LINE
8
BLACK
6
CONTINUOUS
10
0.958424
20
1.17537
11
0.95845
21
1.17536
0
LINE
8
BLACK
6
CONTINUOUS
10
0.95845
20
1.17536
11
1.01487
21
1.12717
0
LINE
8
BLACK
6
CONTINUOUS
10
1.01487
20
1.12717
11
1.01488
21
1.12715
0
LINE
8
BLACK
6
CONTINUOUS
10
1.01488
20
1.12715
11
1.01491
21
1.12714
0
LINE
8
BLACK
6
CONTINUOUS
10
1.01491
20
1.12714
11
1.04238
21
1.10106
0
LINE
8
BLACK
6
CONTINUOUS
10
1.04238
20
1.10106
11
1.0424
21
1.10103
0
LINE
8
BLACK
6
CONTINUOUS
10
1.0424
20
1.10103
11
1.04244
21
1.10101
0
LINE
8
BLACK
6
CONTINUOUS
10
1.04244
20
1.10101
11
1.0562
21
1.08572
0
LINE
8
BLACK
6
CONTINUOUS
10
1.0562
20
1.08572
11
1.05624
21
1.08562
0
LINE
8
BLACK
6
CONTINUOUS
10
1.05624
20
1.08562
11
1.05633
21
1.08555
0
LINE
8
BLACK
6
CONTINUOUS
10
1.05633
20
1.08555
11
1.06661
21
1.06773
0
LINE
8
BLACK
6
CONTINUOUS
10
1.06661
20
1.06773
11
1.06663
21
1.06763
0
LINE
8
BLACK
6
CONTINUOUS
10
1.06663
20
1.06763
11
1.0667
21
1.06754
0
LINE
8
BLACK
6
CONTINUOUS
10
1.0667
20
1.06754
11
1.07306
21
1.04797
0
LINE
8
BLACK
6
CONTINUOUS
10
1.07306
20
1.04797
11
1.07305
21
1.04787
0
LINE
8
BLACK
6
CONTINUOUS
10
1.07305
20
1.04787
11
1.0731
21
1.04777
0
LINE
8
BLACK
6
CONTINUOUS
10
1.0731
20
1.04777
11
1.07525
21
1.02731
0
LINE
8
BLACK
6
CONTINUOUS
10
1.07525
20
1.02731
11
1.07522
21
1.0272
0
LINE
8
BLACK
6
CONTINUOUS
10
1.07522
20
1.0272
11
1.07525
21
1.0271
0
LINE
8
BLACK
6
CONTINUOUS
10
1.07525
20
1.0271
11
1.0731
21
1.00664
0
LINE
8
BLACK
6
CONTINUOUS
10
1.0731
20
1.00664
11
1.07305
21
1.00655
0
LINE
8
BLACK
6
CONTINUOUS
10
1.07305
20
1.00655
11
1.07306
21
1.00644
0
LINE
8
BLACK
6
CONTINUOUS
10
1.07306
20
1.00644
11
1.0667
21
0.986869
0
LINE
8
BLACK
6
CONTINUOUS
10
1.0667
20
0.986869
11
1.06663
21
0.986787
0
LINE
8
BLACK
6
CONTINUOUS
10
1.06663
20
0.986787
11
1.06661
21
0.986681
0
LINE
8
BLACK
6
CONTINUOUS
10
1.06661
20
0.986681
11
1.05633
21
0.968862
0
LINE
8
BLACK
6
CONTINUOUS
10
1.05633
20
0.968862
11
1.05624
21
0.968797
0
LINE
8
BLACK
6
CONTINUOUS
10
1.05624
20
0.968797
11
1.0562
21
0.968696
0
LINE
8
BLACK
6
CONTINUOUS
10
1.0562
20
0.968696
11
1.04244
21
0.953404
0
LINE
8
BLACK
6
CONTINUOUS
10
1.04244
20
0.953404
11
1.04242
21
0.953398
0
LINE
8
BLACK
6
CONTINUOUS
10
1.04242
20
0.953398
11
1.04242
21
0.953385
0
LINE
8
BLACK
6
CONTINUOUS
10
1.04242
20
0.953385
11
0.814722
21
0.713704
0
LINE
8
BLACK
6
CONTINUOUS
10
0.814722
20
0.713704
11
0.814636
21
0.713666
0
LINE
8
BLACK
6
CONTINUOUS
10
0.814636
20
0.713666
11
0.814587
21
0.713586
0
LINE
8
BLACK
6
CONTINUOUS
10
0.814587
20
0.713586
11
0.797941
21
0.701491
0
LINE
8
BLACK
6
CONTINUOUS
10
0.797941
20
0.701491
11
0.797837
21
0.701466
0
LINE
8
BLACK
6
CONTINUOUS
10
0.797837
20
0.701466
11
0.797763
21
0.701388
0
LINE
8
BLACK
6
CONTINUOUS
10
0.797763
20
0.701388
11
0.778964
21
0.693018
0
LINE
8
BLACK
6
CONTINUOUS
10
0.778964
20
0.693018
11
0.778856
21
0.693015
0
LINE
8
BLACK
6
CONTINUOUS
10
0.778856
20
0.693015
11
0.778768
21
0.692955
0
LINE
8
BLACK
6
CONTINUOUS
10
0.778768
20
0.692955
11
0.758642
21
0.688675
0
LINE
8
BLACK
6
CONTINUOUS
10
0.758642
20
0.688675
11
0.758536
21
0.688695
0
LINE
8
BLACK
6
CONTINUOUS
10
0.758536
20
0.688695
11
0.758437
21
0.688654
0
LINE
8
BLACK
6
CONTINUOUS
10
0.758437
20
0.688654
11
0.737858
21
0.688654
0
LINE
8
BLACK
6
CONTINUOUS
10
0.737858
20
0.688654
11
0.737759
21
0.688695
0
LINE
8
BLACK
6
CONTINUOUS
10
0.737759
20
0.688695
11
0.737654
21
0.688675
0
LINE
8
BLACK
6
CONTINUOUS
10
0.737654
20
0.688675
11
0.717528
21
0.692955
0
LINE
8
BLACK
6
CONTINUOUS
10
0.717528
20
0.692955
11
0.717439
21
0.693015
0
LINE
8
BLACK
6
CONTINUOUS
10
0.717439
20
0.693015
11
0.717332
21
0.693018
0
LINE
8
BLACK
6
CONTINUOUS
10
0.717332
20
0.693018
11
0.698537
21
0.701388
0
LINE
8
BLACK
6
CONTINUOUS
10
0.698537
20
0.701388
11
0.698463
21
0.701466
0
LINE
8
BLACK
6
CONTINUOUS
10
0.698463
20
0.701466
11
0.698359
21
0.701491
0
LINE
8
BLACK
6
CONTINUOUS
10
0.698359
20
0.701491
11
0.681709
21
0.713586
0
LINE
8
BLACK
6
CONTINUOUS
10
0.681709
20
0.713586
11
0.681673
21
0.713644
0
LINE
8
BLACK
6
CONTINUOUS
10
0.681673
20
0.713644
11
0.68161
21
0.713668
0
LINE
8
BLACK
6
CONTINUOUS
10
0.68161
20
0.713668
11
0.660569
21
0.733635
0
LINE
8
BLACK
6
CONTINUOUS
10
0.660569
20
0.733635
11
0.617349
21
0.77055
0
LINE
8
BLACK
6
CONTINUOUS
10
0.617349
20
0.77055
11
0.580421
21
0.798885
0
LINE
8
BLACK
6
CONTINUOUS
10
0.580421
20
0.798885
11
0.542062
21
0.825245
0
LINE
8
BLACK
6
CONTINUOUS
10
0.542062
20
0.825245
11
0.493602
21
0.854943
0
LINE
8
BLACK
6
CONTINUOUS
10
0.493602
20
0.854943
11
0.443652
21
0.882064
0
LINE
8
BLACK
6
CONTINUOUS
10
0.443652
20
0.882064
11
0.401642
21
0.902101
0
LINE
8
BLACK
6
CONTINUOUS
10
0.401642
20
0.902101
11
0.358639
21
0.919916
0
LINE
8
BLACK
6
CONTINUOUS
10
0.358639
20
0.919916
11
0.305063
21
0.938886
0
LINE
8
BLACK
6
CONTINUOUS
10
0.305063
20
0.938886
11
0.250566
21
0.955029
0
LINE
8
BLACK
6
CONTINUOUS
10
0.250566
20
0.955029
11
0.205307
21
0.965895
0
LINE
8
BLACK
6
CONTINUOUS
10
0.205307
20
0.965895
11
0.159541
21
0.974378
0
LINE
8
BLACK
6
CONTINUOUS
10
0.159541
20
0.974378
11
0.103191
21
0.981796
0
LINE
8
BLACK
6
CONTINUOUS
10
0.103191
20
0.981796
11
0.0465288
21
0.986257
0
LINE
8
BLACK
6
CONTINUOUS
10
0.0465288
20
0.986257
11
-3.93701e-08
21
0.987472
0
LINE
8
BLACK
6
CONTINUOUS
10
-3.93701e-08
20
0.987472
11
-0.0465289
21
0.986257
0
LINE
8
BLACK
6
CONTINUOUS
10
-0.0465289
20
0.986257
11
-0.103191
21
0.981796
0
LINE
8
BLACK
6
CONTINUOUS
10
-0.103191
20
0.981796
11
-0.159541
21
0.974378
0
LINE
8
BLACK
6
CONTINUOUS
10
-0.159541
20
0.974378
11
-0.205306
21
0.965895
0
LINE
8
BLACK
6
CONTINUOUS
10
-0.205306
20
0.965895
11
-0.250566
21
0.955029
0
LINE
8
BLACK
6
CONTINUOUS
10
-0.250566
20
0.955029
11
-0.305062
21
0.938887
0
LINE
8
BLACK
6
CONTINUOUS
10
-0.305062
20
0.938887
11
-0.358639
21
0.919916
0
LINE
8
BLACK
6
CONTINUOUS
10
-0.358639
20
0.919916
11
-0.401643
21
0.902101
0
LINE
8
BLACK
6
CONTINUOUS
10
-0.401643
20
0.902101
11
-0.443651
21
0.882064
0
LINE
8
BLACK
6
CONTINUOUS
10
-0.443651
20
0.882064
11
-0.493602
21
0.854943
0
LINE
8
BLACK
6
CONTINUOUS
10
-0.493602
20
0.854943
11
-0.542062
21
0.825245
0
LINE
8
BLACK
6
CONTINUOUS
10
-0.542062
20
0.825245
11
-0.580421
21
0.798885
0
LINE
8
BLACK
6
CONTINUOUS
10
-0.580421
20
0.798885
11
-0.617349
21
0.77055
0
LINE
8
BLACK
6
CONTINUOUS
10
-0.617349
20
0.77055
11
-0.66057
21
0.733634
0
LINE
8
BLACK
6
CONTINUOUS
10
-0.66057
20
0.733634
11
-0.68161
21
0.713668
0
LINE
8
BLACK
6
CONTINUOUS
10
-0.68161
20
0.713668
11
-0.681673
21
0.713644
0
LINE
8
BLACK
6
CONTINUOUS
10
-0.681673
20
0.713644
11
-0.681709
21
0.713586
0
LINE
8
BLACK
6
CONTINUOUS
10
-0.681709
20
0.713586
11
-0.698359
21
0.701491
0
LINE
8
BLACK
6
CONTINUOUS
10
-0.698359
20
0.701491
11
-0.698463
21
0.701466
0
LINE
8
BLACK
6
CONTINUOUS
10
-0.698463
20
0.701466
11
-0.698537
21
0.701388
0
LINE
8
BLACK
6
CONTINUOUS
10
-0.698537
20
0.701388
11
-0.717332
21
0.693018
0
LINE
8
BLACK
6
CONTINUOUS
10
-0.717332
20
0.693018
11
-0.717439
21
0.693015
0
LINE
8
BLACK
6
CONTINUOUS
10
-0.717439
20
0.693015
11
-0.717528
21
0.692955
0
LINE
8
BLACK
6
CONTINUOUS
10
-0.717528
20
0.692955
11
-0.737654
21
0.688675
0
LINE
8
BLACK
6
CONTINUOUS
10
-0.737654
20
0.688675
11
-0.737759
21
0.688695
0
LINE
8
BLACK
6
CONTINUOUS
10
-0.737759
20
0.688695
11
-0.737858
21
0.688654
0
LINE
8
BLACK
6
CONTINUOUS
10
-0.737858
20
0.688654
11
-0.758437
21
0.688654
0
LINE
8
BLACK
6
CONTINUOUS
10
-0.758437
20
0.688654
11
-0.758536
21
0.688695
0
LINE
8
BLACK
6
CONTINUOUS
10
-0.758536
20
0.688695
11
-0.758641
21
0.688675
0
LINE
8
BLACK
6
CONTINUOUS
10
-0.758641
20
0.688675
11
-0.778767
21
0.692955
0
LINE
8
BLACK
6
CONTINUOUS
10
-0.778767
20
0.692955
11
-0.778856
21
0.693015
0
LINE
8
BLACK
6
CONTINUOUS
10
-0.778856
20
0.693015
11
-0.778963
21
0.693018
0
LINE
8
BLACK
6
CONTINUOUS
10
-0.778963
20
0.693018
11
-0.797762
21
0.701388
0
LINE
8
BLACK
6
CONTINUOUS
10
-0.797762
20
0.701388
11
-0.797836
21
0.701466
0
LINE
8
BLACK
6
CONTINUOUS
10
-0.797836
20
0.701466
11
-0.79794
21
0.701491
0
LINE
8
BLACK
6
CONTINUOUS
10
-0.79794
20
0.701491
11
-0.814586
21
0.713586
0
LINE
8
BLACK
6
CONTINUOUS
10
-0.814586
20
0.713586
11
-0.814635
21
0.713666
0
LINE
8
BLACK
6
CONTINUOUS
10
-0.814635
20
0.713666
11
-0.814721
21
0.713704
0
LINE
8
BLACK
6
CONTINUOUS
10
-0.814721
20
0.713704
11
-1.04242
21
0.953385
0
LINE
8
BLACK
6
CONTINUOUS
10
-1.04242
20
0.953385
11
-1.04242
21
0.953398
0
LINE
8
BLACK
6
CONTINUOUS
10
-1.04242
20
0.953398
11
-1.04244
21
0.953404
0
LINE
8
BLACK
6
CONTINUOUS
10
-1.04244
20
0.953404
11
-1.0562
21
0.968696
0
LINE
8
BLACK
6
CONTINUOUS
10
-1.0562
20
0.968696
11
-1.05624
21
0.968797
0
LINE
8
BLACK
6
CONTINUOUS
10
-1.05624
20
0.968797
11
-1.05632
21
0.968862
0
LINE
8
BLACK
6
CONTINUOUS
10
-1.05632
20
0.968862
11
-1.06661
21
0.986681
0
LINE
8
BLACK
6
CONTINUOUS
10
-1.06661
20
0.986681
11
-1.06663
21
0.986787
0
LINE
8
BLACK
6
CONTINUOUS
10
-1.06663
20
0.986787
11
-1.0667
21
0.986869
0
LINE
8
BLACK
6
CONTINUOUS
10
-1.0667
20
0.986869
11
-1.07306
21
1.00644
0
LINE
8
BLACK
6
CONTINUOUS
10
-1.07306
20
1.00644
11
-1.07305
21
1.00655
0
LINE
8
BLACK
6
CONTINUOUS
10
-1.07305
20
1.00655
11
-1.0731
21
1.00664
0
LINE
8
BLACK
6
CONTINUOUS
10
-1.0731
20
1.00664
11
-1.07525
21
1.0271
0
LINE
8
BLACK
6
CONTINUOUS
10
-1.07525
20
1.0271
11
-1.07522
21
1.0272
0
LINE
8
BLACK
6
CONTINUOUS
10
-1.07522
20
1.0272
11
-1.07525
21
1.02731
0
LINE
8
BLACK
6
CONTINUOUS
10
-1.07525
20
1.02731
11
-1.0731
21
1.04777
0
LINE
8
BLACK
6
CONTINUOUS
10
-1.0731
20
1.04777
11
-1.07305
21
1.04787
0
LINE
8
BLACK
6
CONTINUOUS
10
-1.07305
20
1.04787
11
-1.07306
21
1.04797
0
LINE
8
BLACK
6
CONTINUOUS
10
-1.07306
20
1.04797
11
-1.0667
21
1.06754
0
LINE
8
BLACK
6
CONTINUOUS
10
-1.0667
20
1.06754
11
-1.06663
21
1.06763
0
LINE
8
BLACK
6
CONTINUOUS
10
-1.06663
20
1.06763
11
-1.06661
21
1.06773
0
LINE
8
BLACK
6
CONTINUOUS
10
-1.06661
20
1.06773
11
-1.05632
21
1.08555
0
LINE
8
BLACK
6
CONTINUOUS
10
-1.05632
20
1.08555
11
-1.05624
21
1.08562
0
LINE
8
BLACK
6
CONTINUOUS
10
-1.05624
20
1.08562
11
-1.0562
21
1.08572
0
LINE
8
BLACK
6
CONTINUOUS
10
-1.0562
20
1.08572
11
-1.04244
21
1.10101
0
LINE
8
BLACK
6
CONTINUOUS
10
-1.04244
20
1.10101
11
-1.0424
21
1.10103
0
LINE
8
BLACK
6
CONTINUOUS
10
-1.0424
20
1.10103
11
-1.04238
21
1.10106
0
LINE
8
BLACK
6
CONTINUOUS
10
-1.04238
20
1.10106
11
-1.01491
21
1.12714
0
LINE
8
BLACK
6
CONTINUOUS
10
-1.01491
20
1.12714
11
-1.01488
21
1.12715
0
LINE
8
BLACK
6
CONTINUOUS
10
-1.01488
20
1.12715
11
-1.01487
21
1.12717
0
LINE
8
BLACK
6
CONTINUOUS
10
-1.01487
20
1.12717
11
-0.95845
21
1.17536
0
LINE
8
BLACK
6
CONTINUOUS
10
-0.95845
20
1.17536
11
-0.958424
21
1.17537
0
LINE
8
BLACK
6
CONTINUOUS
10
-0.958424
20
1.17537
11
-0.95841
21
1.17539
0
LINE
8
BLACK
6
CONTINUOUS
10
-0.95841
20
1.17539
11
-0.89954
21
1.22056
0
LINE
8
BLACK
6
CONTINUOUS
10
-0.89954
20
1.22056
11
-0.899526
21
1.22057
0
LINE
8
BLACK
6
CONTINUOUS
10
-0.899526
20
1.22057
11
-0.899519
21
1.22058
0
LINE
8
BLACK
6
CONTINUOUS
10
-0.899519
20
1.22058
11
-0.882874
21
1.23267
0
LINE
8
BLACK
6
CONTINUOUS
10
-0.882874
20
1.23267
11
-0.88286
21
1.23268
0
LINE
8
BLACK
6
CONTINUOUS
10
-0.88286
20
1.23268
11
-0.882853
21
1.23269
0
LINE
8
BLACK
6
CONTINUOUS
10
-0.882853
20
1.23269
11
-0.821699
21
1.27472
0
LINE
8
BLACK
6
CONTINUOUS
10
-0.821699
20
1.27472
11
-0.821672
21
1.27472
0
LINE
8
BLACK
6
CONTINUOUS
10
-0.821672
20
1.27472
11
-0.821656
21
1.27474
0
LINE
8
BLACK
6
CONTINUOUS
10
-0.821656
20
1.27474
11
-0.758388
21
1.31352
0
LINE
8
BLACK
6
CONTINUOUS
10
-0.758388
20
1.31352
11
-0.758361
21
1.31352
0
LINE
8
BLACK
6
CONTINUOUS
10
-0.758361
20
1.31352
11
-0.758343
21
1.31354
0
LINE
8
BLACK
6
CONTINUOUS
10
-0.758343
20
1.31354
11
-0.693135
21
1.34895
0
LINE
8
BLACK
6
CONTINUOUS
10
-0.693135
20
1.34895
11
-0.693107
21
1.34895
0
LINE
8
BLACK
6
CONTINUOUS
10
-0.693107
20
1.34895
11
-0.693089
21
1.34897
0
LINE
8
BLACK
6
CONTINUOUS
10
-0.693089
20
1.34897
11
-0.626112
21
1.38092
0
LINE
8
BLACK
6
CONTINUOUS
10
-0.626112
20
1.38092
11
-0.626099
21
1.38092
0
LINE
8
BLACK
6
CONTINUOUS
10
-0.626099
20
1.38092
11
-0.626089
21
1.38093
0
LINE
8
BLACK
6
CONTINUOUS
10
-0.626089
20
1.38093
11
-0.607294
21
1.3893
0
LINE
8
BLACK
6
CONTINUOUS
10
-0.607294
20
1.3893
11
-0.60728
21
1.3893
0
LINE
8
BLACK
6
CONTINUOUS
10
-0.60728
20
1.3893
11
-0.60727
21
1.38931
0
LINE
8
BLACK
6
CONTINUOUS
10
-0.60727
20
1.38931
11
-0.538715
21
1.4177
0
LINE
8
BLACK
6
CONTINUOUS
10
-0.538715
20
1.4177
11
-0.538687
21
1.4177
0
LINE
8
BLACK
6
CONTINUOUS
10
-0.538687
20
1.4177
11
-0.538667
21
1.41772
0
LINE
8
BLACK
6
CONTINUOUS
10
-0.538667
20
1.41772
11
-0.468718
21
1.44249
0
LINE
8
BLACK
6
CONTINUOUS
10
-0.468718
20
1.44249
11
-0.46869
21
1.44249
0
LINE
8
BLACK
6
CONTINUOUS
10
-0.46869
20
1.44249
11
-0.468669
21
1.44251
0
LINE
8
BLACK
6
CONTINUOUS
10
-0.468669
20
1.44251
11
-0.397523
21
1.46358
0
LINE
8
BLACK
6
CONTINUOUS
10
-0.397523
20
1.46358
11
-0.397496
21
1.46358
0
LINE
8
BLACK
6
CONTINUOUS
10
-0.397496
20
1.46358
11
-0.397474
21
1.46359
0
LINE
8
BLACK
6
CONTINUOUS
10
-0.397474
20
1.46359
11
-0.325322
21
1.48091
0
LINE
8
BLACK
6
CONTINUOUS
10
-0.325322
20
1.48091
11
-0.325308
21
1.48091
0
LINE
8
BLACK
6
CONTINUOUS
10
-0.325308
20
1.48091
11
-0.325297
21
1.48092
0
LINE
8
BLACK
6
CONTINUOUS
10
-0.325297
20
1.48092
11
-0.305171
21
1.4852
0
LINE
8
BLACK
6
CONTINUOUS
10
-0.305171
20
1.4852
11
-0.305157
21
1.4852
0
LINE
8
BLACK
6
CONTINUOUS
10
-0.305157
20
1.4852
11
-0.305145
21
1.4852
0
LINE
8
BLACK
6
CONTINUOUS
10
-0.305145
20
1.4852
11
-0.232185
21
1.49873
0
LINE
8
BLACK
6
CONTINUOUS
10
-0.232185
20
1.49873
11
-0.232158
21
1.49872
0
LINE
8
BLACK
6
CONTINUOUS
10
-0.232158
20
1.49872
11
-0.232134
21
1.49874
0
LINE
8
BLACK
6
CONTINUOUS
10
-0.232134
20
1.49874
11
-0.158567
21
1.50842
0
LINE
8
BLACK
6
CONTINUOUS
10
-0.158567
20
1.50842
11
-0.15854
21
1.50841
0
LINE
8
BLACK
6
CONTINUOUS
10
-0.15854
20
1.50841
11
-0.158516
21
1.50843
0
LINE
8
BLACK
6
CONTINUOUS
10
-0.158516
20
1.50843
11
-0.0845416
21
1.51425
0
LINE
8
BLACK
6
CONTINUOUS
10
-0.0845416
20
1.51425
11
-0.0845153
21
1.51424
0
LINE
8
BLACK
6
CONTINUOUS
10
-0.0845153
20
1.51424
11
-0.0844901
21
1.51425
0
LINE
8
BLACK
6
CONTINUOUS
10
-0.0844901
20
1.51425
11
-0.0103131
21
1.51619
0
LINE
8
BLACK
6
CONTINUOUS
10
-0.0103131
20
1.51619
11
-0.0103002
21
1.51619
0
LINE
8
BLACK
6
CONTINUOUS
10
-0.0103002
20
1.51619
11
-0.0102874
21
1.51619
0
LINE
8
BLACK
6
CONTINUOUS
10
-0.0102874
20
1.51619
11
0.010288
21
1.51619
0
LINE
8
BLACK
6
CONTINUOUS
10
0.010288
20
1.51619
11
0.0103008
21
1.51619
  0
ENDSEC
  0
EOF
