  0
SECTION
  2
HEADER
  9
$ANGBASE
  50
0.0
  9
$ANGDIR
  70
1
  9
$MEASUREMENT
  70
0
  0
ENDSEC
  0
SECTION
  2
TABLES
  0
TABLE
  2
LTYPE
  70
4
  0
LTYPE
  5
40F
  2
CONTINUOUS
  70
0
  3
Solid line
  72
65
  73
0
  40
0.0
  0
LTYPE
  5
410
  2
DASHDOT
 70
0
  3
Dash Dot ____ _ ____ _
 72
65
 73
4
 40
2.0
 49
1.25
 49
-0.25
 49
0.25
 49
-0.25
  0
LTYPE
  5
411
  2
DASHED
 70
0
  3
Dashed __ __ __ __ __
 72
65
 73
2
 40
0.75
 49
0.5
 49
-0.25
  0
LTYPE
  5
43B
  2
DOTTED
 70
0
  3
Dotted .  .  .  .
 72
65
 73
2
 40
0.2
 49
0.0
 49
-0.2
  0
ENDTAB
  0
TABLE
  2
STYLE
  70
4
  0
STYLE
  2
KICAD
  70
0
  40
0
  41
1
  42
1
  50
0
  71
0
  3
isocp.shx
  0
STYLE
  2
KICADB
  70
0
  40
0
  41
1
  42
1
  50
0
  71
0
  3
isocp.shx
  0
STYLE
  2
KICADI
  70
0
  40
0
  41
1
  42
1
  50
15
  71
0
  3
isocp.shx
  0
STYLE
  2
KICADBI
  70
0
  40
0
  41
1
  42
1
  50
15
  71
0
  3
isocp.shx
  0
ENDTAB
  0
TABLE
  2
LAYER
  70
1
  0
LAYER
  2
BLACK
  70
0
  62
7
  6
CONTINUOUS
  0
ENDTAB
  0
ENDSEC
  0
SECTION
  2
ENTITIES
0
LINE
8
BLACK
6
CONTINUOUS
10
0.149784
20
0.583222
11
0.149229
21
0.583731
0
LINE
8
BLACK
6
CONTINUOUS
10
0.149229
20
0.583731
11
0.149196
21
0.584484
0
LINE
8
BLACK
6
CONTINUOUS
10
0.149196
20
0.584484
11
0.149196
21
0.584484
0
LINE
8
BLACK
6
CONTINUOUS
10
0.149196
20
0.584484
11
0.188245
21
0.691772
0
LINE
8
BLACK
6
CONTINUOUS
10
0.188245
20
0.691772
11
0.188245
21
0.691772
0
LINE
8
BLACK
6
CONTINUOUS
10
0.188245
20
0.691772
11
0.188754
21
0.692327
0
LINE
8
BLACK
6
CONTINUOUS
10
0.188754
20
0.692327
11
0.189507
21
0.69236
0
LINE
8
BLACK
6
CONTINUOUS
10
0.189507
20
0.69236
11
0.189507
21
0.69236
0
LINE
8
BLACK
6
CONTINUOUS
10
0.189507
20
0.69236
11
0.300494
21
0.651964
0
LINE
8
BLACK
6
CONTINUOUS
10
0.300494
20
0.651964
11
0.30105
21
0.651455
0
LINE
8
BLACK
6
CONTINUOUS
10
0.30105
20
0.651455
11
0.30105
21
0.651455
0
LINE
8
BLACK
6
CONTINUOUS
10
0.30105
20
0.651455
11
0.301083
21
0.650702
0
LINE
8
BLACK
6
CONTINUOUS
10
0.301083
20
0.650702
11
0.262033
21
0.543415
0
LINE
8
BLACK
6
CONTINUOUS
10
0.262033
20
0.543415
11
0.261524
21
0.542859
0
LINE
8
BLACK
6
CONTINUOUS
10
0.261524
20
0.542859
11
0.260771
21
0.542826
0
LINE
8
BLACK
6
CONTINUOUS
10
0.260771
20
0.542826
11
0.260771
21
0.542826
0
LINE
8
BLACK
6
CONTINUOUS
10
0.260771
20
0.542826
11
0.149784
21
0.583222
0
LINE
8
BLACK
6
CONTINUOUS
10
0.151382
20
0.584736
11
0.26052
21
0.545013
0
LINE
8
BLACK
6
CONTINUOUS
10
0.26052
20
0.545013
11
0.298896
21
0.650451
0
LINE
8
BLACK
6
CONTINUOUS
10
0.298896
20
0.650451
11
0.189759
21
0.690174
0
LINE
8
BLACK
6
CONTINUOUS
10
0.189759
20
0.690174
11
0.151382
21
0.584736
0
LINE
8
BLACK
6
CONTINUOUS
10
-0.403445
20
0.819094
11
-0.346359
21
0.720217
0
LINE
8
BLACK
6
CONTINUOUS
10
-0.346359
20
0.720217
11
-0.346359
21
0.720217
0
LINE
8
BLACK
6
CONTINUOUS
10
-0.346359
20
0.720217
11
-0.34626
21
0.71947
0
LINE
8
BLACK
6
CONTINUOUS
10
-0.34626
20
0.71947
11
-0.346719
21
0.718873
0
LINE
8
BLACK
6
CONTINUOUS
10
-0.346719
20
0.718873
11
-0.449005
21
0.659817
0
LINE
8
BLACK
6
CONTINUOUS
10
-0.449005
20
0.659817
11
-0.449752
21
0.659719
0
LINE
8
BLACK
6
CONTINUOUS
10
-0.449752
20
0.659719
11
-0.45035
21
0.660178
0
LINE
8
BLACK
6
CONTINUOUS
10
-0.45035
20
0.660178
11
-0.507437
21
0.759055
0
LINE
8
BLACK
6
CONTINUOUS
10
-0.507437
20
0.759055
11
-0.507535
21
0.759802
0
LINE
8
BLACK
6
CONTINUOUS
10
-0.507535
20
0.759802
11
-0.507076
21
0.760399
0
LINE
8
BLACK
6
CONTINUOUS
10
-0.507076
20
0.760399
11
-0.40479
21
0.819454
0
LINE
8
BLACK
6
CONTINUOUS
10
-0.40479
20
0.819454
11
-0.404043
21
0.819553
0
LINE
8
BLACK
6
CONTINUOUS
10
-0.404043
20
0.819553
11
-0.403445
21
0.819094
0
LINE
8
BLACK
6
CONTINUOUS
10
-0.50524
20
0.759186
11
-0.449137
21
0.662014
0
LINE
8
BLACK
6
CONTINUOUS
10
-0.449137
20
0.662014
11
-0.348556
21
0.720085
0
LINE
8
BLACK
6
CONTINUOUS
10
-0.348556
20
0.720085
11
-0.404658
21
0.817257
0
LINE
8
BLACK
6
CONTINUOUS
10
-0.404658
20
0.817257
11
-0.50524
21
0.759186
  0
ENDSEC
  0
EOF
