  0
SECTION
  2
HEADER
  9
$ANGBASE
  50
0.0
  9
$ANGDIR
  70
1
  9
$MEASUREMENT
  70
0
  0
ENDSEC
  0
SECTION
  2
TABLES
  0
TABLE
  2
LTYPE
  70
4
  0
LTYPE
  5
40F
  2
CONTINUOUS
  70
0
  3
Solid line
  72
65
  73
0
  40
0.0
  0
LTYPE
  5
410
  2
DASHDOT
 70
0
  3
Dash Dot ____ _ ____ _
 72
65
 73
4
 40
2.0
 49
1.25
 49
-0.25
 49
0.25
 49
-0.25
  0
LTYPE
  5
411
  2
DASHED
 70
0
  3
Dashed __ __ __ __ __
 72
65
 73
2
 40
0.75
 49
0.5
 49
-0.25
  0
LTYPE
  5
43B
  2
DOTTED
 70
0
  3
Dotted .  .  .  .
 72
65
 73
2
 40
0.2
 49
0.0
 49
-0.2
  0
ENDTAB
  0
TABLE
  2
STYLE
  70
4
  0
STYLE
  2
KICAD
  70
0
  40
0
  41
1
  42
1
  50
0
  71
0
  3
isocp.shx
  0
STYLE
  2
KICADB
  70
0
  40
0
  41
1
  42
1
  50
0
  71
0
  3
isocp.shx
  0
STYLE
  2
KICADI
  70
0
  40
0
  41
1
  42
1
  50
15
  71
0
  3
isocp.shx
  0
STYLE
  2
KICADBI
  70
0
  40
0
  41
1
  42
1
  50
15
  71
0
  3
isocp.shx
  0
ENDTAB
  0
TABLE
  2
LAYER
  70
1
  0
LAYER
  2
BLACK
  70
0
  62
7
  6
CONTINUOUS
  0
ENDTAB
  0
ENDSEC
  0
SECTION
  2
ENTITIES
0
LINE
8
BLACK
6
CONTINUOUS
10
-0.685413
20
0.492131
11
-0.685365
21
0.492138
0
LINE
8
BLACK
6
CONTINUOUS
10
-0.685365
20
0.492138
11
-0.682804
21
0.491451
0
LINE
8
BLACK
6
CONTINUOUS
10
-0.682804
20
0.491451
11
-0.682765
21
0.491422
0
LINE
8
BLACK
6
CONTINUOUS
10
-0.682765
20
0.491422
11
-0.682718
21
0.491413
0
LINE
8
BLACK
6
CONTINUOUS
10
-0.682718
20
0.491413
11
-0.679219
21
0.489103
0
LINE
8
BLACK
6
CONTINUOUS
10
-0.679219
20
0.489103
11
-0.679201
21
0.489075
0
LINE
8
BLACK
6
CONTINUOUS
10
-0.679201
20
0.489075
11
-0.67917
21
0.489062
0
LINE
8
BLACK
6
CONTINUOUS
10
-0.67917
20
0.489062
11
-0.673797
21
0.483505
0
LINE
8
BLACK
6
CONTINUOUS
10
-0.673797
20
0.483505
11
-0.673783
21
0.48347
0
LINE
8
BLACK
6
CONTINUOUS
10
-0.673783
20
0.48347
11
-0.673753
21
0.483447
0
LINE
8
BLACK
6
CONTINUOUS
10
-0.673753
20
0.483447
11
-0.669066
21
0.475329
0
LINE
8
BLACK
6
CONTINUOUS
10
-0.669066
20
0.475329
11
-0.669061
21
0.475292
0
LINE
8
BLACK
6
CONTINUOUS
10
-0.669061
20
0.475292
11
-0.669038
21
0.475263
0
LINE
8
BLACK
6
CONTINUOUS
10
-0.669038
20
0.475263
11
-0.666912
21
0.467831
0
LINE
8
BLACK
6
CONTINUOUS
10
-0.666912
20
0.467831
11
-0.666916
21
0.467798
0
LINE
8
BLACK
6
CONTINUOUS
10
-0.666916
20
0.467798
11
-0.666901
21
0.467767
0
LINE
8
BLACK
6
CONTINUOUS
10
-0.666901
20
0.467767
11
-0.66665
21
0.463583
0
LINE
8
BLACK
6
CONTINUOUS
10
-0.66665
20
0.463583
11
-0.666666
21
0.463537
0
LINE
8
BLACK
6
CONTINUOUS
10
-0.666666
20
0.463537
11
-0.66666
21
0.463489
0
LINE
8
BLACK
6
CONTINUOUS
10
-0.66666
20
0.463489
11
-0.667346
21
0.460928
0
LINE
8
BLACK
6
CONTINUOUS
10
-0.667346
20
0.460928
11
-0.667375
21
0.460889
0
LINE
8
BLACK
6
CONTINUOUS
10
-0.667375
20
0.460889
11
-0.667385
21
0.460841
0
LINE
8
BLACK
6
CONTINUOUS
10
-0.667385
20
0.460841
11
-0.669694
21
0.457343
0
LINE
8
BLACK
6
CONTINUOUS
10
-0.669694
20
0.457343
11
-0.669751
21
0.457305
0
LINE
8
BLACK
6
CONTINUOUS
10
-0.669751
20
0.457305
11
-0.669793
21
0.45725
0
LINE
8
BLACK
6
CONTINUOUS
10
-0.669793
20
0.45725
11
-0.67304
21
0.455375
0
LINE
8
BLACK
6
CONTINUOUS
10
-0.67304
20
0.455375
11
-0.673109
21
0.455366
0
LINE
8
BLACK
6
CONTINUOUS
10
-0.673109
20
0.455366
11
-0.67317
21
0.455336
0
LINE
8
BLACK
6
CONTINUOUS
10
-0.67317
20
0.455336
11
-0.677355
21
0.455085
0
LINE
8
BLACK
6
CONTINUOUS
10
-0.677355
20
0.455085
11
-0.677401
21
0.455101
0
LINE
8
BLACK
6
CONTINUOUS
10
-0.677401
20
0.455101
11
-0.677449
21
0.455095
0
LINE
8
BLACK
6
CONTINUOUS
10
-0.677449
20
0.455095
11
-0.68001
21
0.455781
0
LINE
8
BLACK
6
CONTINUOUS
10
-0.68001
20
0.455781
11
-0.680049
21
0.45581
0
LINE
8
BLACK
6
CONTINUOUS
10
-0.680049
20
0.45581
11
-0.680096
21
0.45582
0
LINE
8
BLACK
6
CONTINUOUS
10
-0.680096
20
0.45582
11
-0.683595
21
0.458129
0
LINE
8
BLACK
6
CONTINUOUS
10
-0.683595
20
0.458129
11
-0.683613
21
0.458157
0
LINE
8
BLACK
6
CONTINUOUS
10
-0.683613
20
0.458157
11
-0.683644
21
0.458171
0
LINE
8
BLACK
6
CONTINUOUS
10
-0.683644
20
0.458171
11
-0.689017
21
0.463728
0
LINE
8
BLACK
6
CONTINUOUS
10
-0.689017
20
0.463728
11
-0.689031
21
0.463762
0
LINE
8
BLACK
6
CONTINUOUS
10
-0.689031
20
0.463762
11
-0.689061
21
0.463785
0
LINE
8
BLACK
6
CONTINUOUS
10
-0.689061
20
0.463785
11
-0.693748
21
0.471903
0
LINE
8
BLACK
6
CONTINUOUS
10
-0.693748
20
0.471903
11
-0.693753
21
0.47194
0
LINE
8
BLACK
6
CONTINUOUS
10
-0.693753
20
0.47194
11
-0.693776
21
0.47197
0
LINE
8
BLACK
6
CONTINUOUS
10
-0.693776
20
0.47197
11
-0.695902
21
0.479401
0
LINE
8
BLACK
6
CONTINUOUS
10
-0.695902
20
0.479401
11
-0.695898
21
0.479435
0
LINE
8
BLACK
6
CONTINUOUS
10
-0.695898
20
0.479435
11
-0.695913
21
0.479465
0
LINE
8
BLACK
6
CONTINUOUS
10
-0.695913
20
0.479465
11
-0.696164
21
0.483649
0
LINE
8
BLACK
6
CONTINUOUS
10
-0.696164
20
0.483649
11
-0.696148
21
0.483695
0
LINE
8
BLACK
6
CONTINUOUS
10
-0.696148
20
0.483695
11
-0.696154
21
0.483744
0
LINE
8
BLACK
6
CONTINUOUS
10
-0.696154
20
0.483744
11
-0.695468
21
0.486304
0
LINE
8
BLACK
6
CONTINUOUS
10
-0.695468
20
0.486304
11
-0.695439
21
0.486343
0
LINE
8
BLACK
6
CONTINUOUS
10
-0.695439
20
0.486343
11
-0.695429
21
0.486391
0
LINE
8
BLACK
6
CONTINUOUS
10
-0.695429
20
0.486391
11
-0.69312
21
0.489889
0
LINE
8
BLACK
6
CONTINUOUS
10
-0.69312
20
0.489889
11
-0.693063
21
0.489928
0
LINE
8
BLACK
6
CONTINUOUS
10
-0.693063
20
0.489928
11
-0.693021
21
0.489982
0
LINE
8
BLACK
6
CONTINUOUS
10
-0.693021
20
0.489982
11
-0.689774
21
0.491857
0
LINE
8
BLACK
6
CONTINUOUS
10
-0.689774
20
0.491857
11
-0.689705
21
0.491866
0
LINE
8
BLACK
6
CONTINUOUS
10
-0.689705
20
0.491866
11
-0.689644
21
0.491896
0
LINE
8
BLACK
6
CONTINUOUS
10
-0.689644
20
0.491896
11
-0.685459
21
0.492147
0
LINE
8
BLACK
6
CONTINUOUS
10
-0.685459
20
0.492147
11
-0.685413
21
0.492131
0
LINE
8
BLACK
6
CONTINUOUS
10
-0.689539
20
0.491311
11
-0.692665
21
0.489506
0
LINE
8
BLACK
6
CONTINUOUS
10
-0.692665
20
0.489506
11
-0.69491
21
0.486105
0
LINE
8
BLACK
6
CONTINUOUS
10
-0.69491
20
0.486105
11
-0.695571
21
0.483637
0
LINE
8
BLACK
6
CONTINUOUS
10
-0.695571
20
0.483637
11
-0.695325
21
0.479533
0
LINE
8
BLACK
6
CONTINUOUS
10
-0.695325
20
0.479533
11
-0.693218
21
0.472167
0
LINE
8
BLACK
6
CONTINUOUS
10
-0.693218
20
0.472167
11
-0.688568
21
0.464112
0
LINE
8
BLACK
6
CONTINUOUS
10
-0.688568
20
0.464112
11
-0.683242
21
0.458604
0
LINE
8
BLACK
6
CONTINUOUS
10
-0.683242
20
0.458604
11
-0.679811
21
0.456339
0
LINE
8
BLACK
6
CONTINUOUS
10
-0.679811
20
0.456339
11
-0.677343
21
0.455677
0
LINE
8
BLACK
6
CONTINUOUS
10
-0.677343
20
0.455677
11
-0.673275
21
0.455922
0
LINE
8
BLACK
6
CONTINUOUS
10
-0.673275
20
0.455922
11
-0.670149
21
0.457727
0
LINE
8
BLACK
6
CONTINUOUS
10
-0.670149
20
0.457727
11
-0.667904
21
0.461127
0
LINE
8
BLACK
6
CONTINUOUS
10
-0.667904
20
0.461127
11
-0.667242
21
0.463595
0
LINE
8
BLACK
6
CONTINUOUS
10
-0.667242
20
0.463595
11
-0.667489
21
0.4677
0
LINE
8
BLACK
6
CONTINUOUS
10
-0.667489
20
0.4677
11
-0.669596
21
0.475065
0
LINE
8
BLACK
6
CONTINUOUS
10
-0.669596
20
0.475065
11
-0.674246
21
0.48312
0
LINE
8
BLACK
6
CONTINUOUS
10
-0.674246
20
0.48312
11
-0.679572
21
0.488628
0
LINE
8
BLACK
6
CONTINUOUS
10
-0.679572
20
0.488628
11
-0.683003
21
0.490893
0
LINE
8
BLACK
6
CONTINUOUS
10
-0.683003
20
0.490893
11
-0.685471
21
0.491555
0
LINE
8
BLACK
6
CONTINUOUS
10
-0.685471
20
0.491555
11
-0.689539
21
0.491311
0
LINE
8
BLACK
6
CONTINUOUS
10
-0.649694
20
0.512754
11
-0.649646
21
0.51276
0
LINE
8
BLACK
6
CONTINUOUS
10
-0.649646
20
0.51276
11
-0.647085
21
0.512074
0
LINE
8
BLACK
6
CONTINUOUS
10
-0.647085
20
0.512074
11
-0.646906
21
0.511936
0
LINE
8
BLACK
6
CONTINUOUS
10
-0.646906
20
0.511936
11
-0.646876
21
0.511712
0
LINE
8
BLACK
6
CONTINUOUS
10
-0.646876
20
0.511712
11
-0.647014
21
0.511533
0
LINE
8
BLACK
6
CONTINUOUS
10
-0.647014
20
0.511533
11
-0.647238
21
0.511503
0
LINE
8
BLACK
6
CONTINUOUS
10
-0.647238
20
0.511503
11
-0.649752
21
0.512177
0
LINE
8
BLACK
6
CONTINUOUS
10
-0.649752
20
0.512177
11
-0.65382
21
0.511933
0
LINE
8
BLACK
6
CONTINUOUS
10
-0.65382
20
0.511933
11
-0.661817
21
0.507316
0
LINE
8
BLACK
6
CONTINUOUS
10
-0.661817
20
0.507316
11
-0.664062
21
0.503916
0
LINE
8
BLACK
6
CONTINUOUS
10
-0.664062
20
0.503916
11
-0.664723
21
0.501447
0
LINE
8
BLACK
6
CONTINUOUS
10
-0.664723
20
0.501447
11
-0.664479
21
0.49738
0
LINE
8
BLACK
6
CONTINUOUS
10
-0.664479
20
0.49738
11
-0.662663
21
0.494235
0
LINE
8
BLACK
6
CONTINUOUS
10
-0.662663
20
0.494235
11
-0.658315
21
0.490379
0
LINE
8
BLACK
6
CONTINUOUS
10
-0.658315
20
0.490379
11
-0.627651
21
0.482163
0
LINE
8
BLACK
6
CONTINUOUS
10
-0.627651
20
0.482163
11
-0.627472
21
0.482025
0
LINE
8
BLACK
6
CONTINUOUS
10
-0.627472
20
0.482025
11
-0.627442
21
0.481801
0
LINE
8
BLACK
6
CONTINUOUS
10
-0.627442
20
0.481801
11
-0.62758
21
0.481622
0
LINE
8
BLACK
6
CONTINUOUS
10
-0.62758
20
0.481622
11
-0.648686
21
0.469436
0
LINE
8
BLACK
6
CONTINUOUS
10
-0.648686
20
0.469436
11
-0.648911
21
0.469406
0
LINE
8
BLACK
6
CONTINUOUS
10
-0.648911
20
0.469406
11
-0.64909
21
0.469544
0
LINE
8
BLACK
6
CONTINUOUS
10
-0.64909
20
0.469544
11
-0.649119
21
0.469768
0
LINE
8
BLACK
6
CONTINUOUS
10
-0.649119
20
0.469768
11
-0.648982
21
0.469947
0
LINE
8
BLACK
6
CONTINUOUS
10
-0.648982
20
0.469947
11
-0.628492
21
0.481777
0
LINE
8
BLACK
6
CONTINUOUS
10
-0.628492
20
0.481777
11
-0.658536
21
0.489827
0
LINE
8
BLACK
6
CONTINUOUS
10
-0.658536
20
0.489827
11
-0.65859
21
0.489869
0
LINE
8
BLACK
6
CONTINUOUS
10
-0.65859
20
0.489869
11
-0.658655
21
0.489891
0
LINE
8
BLACK
6
CONTINUOUS
10
-0.658655
20
0.489891
11
-0.663091
21
0.493825
0
LINE
8
BLACK
6
CONTINUOUS
10
-0.663091
20
0.493825
11
-0.663112
21
0.493868
0
LINE
8
BLACK
6
CONTINUOUS
10
-0.663112
20
0.493868
11
-0.663151
21
0.493898
0
LINE
8
BLACK
6
CONTINUOUS
10
-0.663151
20
0.493898
11
-0.665025
21
0.497145
0
LINE
8
BLACK
6
CONTINUOUS
10
-0.665025
20
0.497145
11
-0.665034
21
0.497213
0
LINE
8
BLACK
6
CONTINUOUS
10
-0.665034
20
0.497213
11
-0.665064
21
0.497275
0
LINE
8
BLACK
6
CONTINUOUS
10
-0.665064
20
0.497275
11
-0.665316
21
0.50146
0
LINE
8
BLACK
6
CONTINUOUS
10
-0.665316
20
0.50146
11
-0.6653
21
0.501506
0
LINE
8
BLACK
6
CONTINUOUS
10
-0.6653
20
0.501506
11
-0.665306
21
0.501554
0
LINE
8
BLACK
6
CONTINUOUS
10
-0.665306
20
0.501554
11
-0.66462
21
0.504115
0
LINE
8
BLACK
6
CONTINUOUS
10
-0.66462
20
0.504115
11
-0.66459
21
0.504153
0
LINE
8
BLACK
6
CONTINUOUS
10
-0.66459
20
0.504153
11
-0.664581
21
0.504201
0
LINE
8
BLACK
6
CONTINUOUS
10
-0.664581
20
0.504201
11
-0.662271
21
0.507699
0
LINE
8
BLACK
6
CONTINUOUS
10
-0.662271
20
0.507699
11
-0.662214
21
0.507738
0
LINE
8
BLACK
6
CONTINUOUS
10
-0.662214
20
0.507738
11
-0.662172
21
0.507792
0
LINE
8
BLACK
6
CONTINUOUS
10
-0.662172
20
0.507792
11
-0.654054
21
0.512479
0
LINE
8
BLACK
6
CONTINUOUS
10
-0.654054
20
0.512479
11
-0.653986
21
0.512488
0
LINE
8
BLACK
6
CONTINUOUS
10
-0.653986
20
0.512488
11
-0.653924
21
0.512518
0
LINE
8
BLACK
6
CONTINUOUS
10
-0.653924
20
0.512518
11
-0.64974
21
0.51277
0
LINE
8
BLACK
6
CONTINUOUS
10
-0.64974
20
0.51277
11
-0.649694
21
0.512754
0
LINE
8
BLACK
6
CONTINUOUS
10
-0.620469
20
0.529627
11
-0.620421
21
0.529633
0
LINE
8
BLACK
6
CONTINUOUS
10
-0.620421
20
0.529633
11
-0.61786
21
0.528947
0
LINE
8
BLACK
6
CONTINUOUS
10
-0.61786
20
0.528947
11
-0.617822
21
0.528917
0
LINE
8
BLACK
6
CONTINUOUS
10
-0.617822
20
0.528917
11
-0.617774
21
0.528908
0
LINE
8
BLACK
6
CONTINUOUS
10
-0.617774
20
0.528908
11
-0.614276
21
0.526598
0
LINE
8
BLACK
6
CONTINUOUS
10
-0.614276
20
0.526598
11
-0.614257
21
0.52657
0
LINE
8
BLACK
6
CONTINUOUS
10
-0.614257
20
0.52657
11
-0.614226
21
0.526557
0
LINE
8
BLACK
6
CONTINUOUS
10
-0.614226
20
0.526557
11
-0.608853
21
0.521
0
LINE
8
BLACK
6
CONTINUOUS
10
-0.608853
20
0.521
11
-0.608839
21
0.520965
0
LINE
8
BLACK
6
CONTINUOUS
10
-0.608839
20
0.520965
11
-0.608809
21
0.520942
0
LINE
8
BLACK
6
CONTINUOUS
10
-0.608809
20
0.520942
11
-0.604122
21
0.512824
0
LINE
8
BLACK
6
CONTINUOUS
10
-0.604122
20
0.512824
11
-0.604118
21
0.512787
0
LINE
8
BLACK
6
CONTINUOUS
10
-0.604118
20
0.512787
11
-0.604094
21
0.512758
0
LINE
8
BLACK
6
CONTINUOUS
10
-0.604094
20
0.512758
11
-0.601968
21
0.505326
0
LINE
8
BLACK
6
CONTINUOUS
10
-0.601968
20
0.505326
11
-0.601972
21
0.505293
0
LINE
8
BLACK
6
CONTINUOUS
10
-0.601972
20
0.505293
11
-0.601957
21
0.505263
0
LINE
8
BLACK
6
CONTINUOUS
10
-0.601957
20
0.505263
11
-0.601706
21
0.501078
0
LINE
8
BLACK
6
CONTINUOUS
10
-0.601706
20
0.501078
11
-0.601722
21
0.501032
0
LINE
8
BLACK
6
CONTINUOUS
10
-0.601722
20
0.501032
11
-0.601716
21
0.500984
0
LINE
8
BLACK
6
CONTINUOUS
10
-0.601716
20
0.500984
11
-0.602402
21
0.498423
0
LINE
8
BLACK
6
CONTINUOUS
10
-0.602402
20
0.498423
11
-0.602432
21
0.498384
0
LINE
8
BLACK
6
CONTINUOUS
10
-0.602432
20
0.498384
11
-0.602441
21
0.498337
0
LINE
8
BLACK
6
CONTINUOUS
10
-0.602441
20
0.498337
11
-0.604751
21
0.494838
0
LINE
8
BLACK
6
CONTINUOUS
10
-0.604751
20
0.494838
11
-0.604808
21
0.4948
0
LINE
8
BLACK
6
CONTINUOUS
10
-0.604808
20
0.4948
11
-0.604849
21
0.494745
0
LINE
8
BLACK
6
CONTINUOUS
10
-0.604849
20
0.494745
11
-0.608097
21
0.492871
0
LINE
8
BLACK
6
CONTINUOUS
10
-0.608097
20
0.492871
11
-0.608165
21
0.492862
0
LINE
8
BLACK
6
CONTINUOUS
10
-0.608165
20
0.492862
11
-0.608227
21
0.492831
0
LINE
8
BLACK
6
CONTINUOUS
10
-0.608227
20
0.492831
11
-0.612411
21
0.49258
0
LINE
8
BLACK
6
CONTINUOUS
10
-0.612411
20
0.49258
11
-0.612457
21
0.492596
0
LINE
8
BLACK
6
CONTINUOUS
10
-0.612457
20
0.492596
11
-0.612505
21
0.49259
0
LINE
8
BLACK
6
CONTINUOUS
10
-0.612505
20
0.49259
11
-0.615066
21
0.493276
0
LINE
8
BLACK
6
CONTINUOUS
10
-0.615066
20
0.493276
11
-0.615105
21
0.493306
0
LINE
8
BLACK
6
CONTINUOUS
10
-0.615105
20
0.493306
11
-0.615152
21
0.493315
0
LINE
8
BLACK
6
CONTINUOUS
10
-0.615152
20
0.493315
11
-0.618651
21
0.495625
0
LINE
8
BLACK
6
CONTINUOUS
10
-0.618651
20
0.495625
11
-0.61867
21
0.495653
0
LINE
8
BLACK
6
CONTINUOUS
10
-0.61867
20
0.495653
11
-0.6187
21
0.495666
0
LINE
8
BLACK
6
CONTINUOUS
10
-0.6187
20
0.495666
11
-0.624074
21
0.501223
0
LINE
8
BLACK
6
CONTINUOUS
10
-0.624074
20
0.501223
11
-0.624087
21
0.501258
0
LINE
8
BLACK
6
CONTINUOUS
10
-0.624087
20
0.501258
11
-0.624117
21
0.50128
0
LINE
8
BLACK
6
CONTINUOUS
10
-0.624117
20
0.50128
11
-0.628804
21
0.509398
0
LINE
8
BLACK
6
CONTINUOUS
10
-0.628804
20
0.509398
11
-0.628809
21
0.509436
0
LINE
8
BLACK
6
CONTINUOUS
10
-0.628809
20
0.509436
11
-0.628832
21
0.509465
0
LINE
8
BLACK
6
CONTINUOUS
10
-0.628832
20
0.509465
11
-0.630958
21
0.516897
0
LINE
8
BLACK
6
CONTINUOUS
10
-0.630958
20
0.516897
11
-0.630954
21
0.51693
0
LINE
8
BLACK
6
CONTINUOUS
10
-0.630954
20
0.51693
11
-0.630969
21
0.51696
0
LINE
8
BLACK
6
CONTINUOUS
10
-0.630969
20
0.51696
11
-0.63122
21
0.521145
0
LINE
8
BLACK
6
CONTINUOUS
10
-0.63122
20
0.521145
11
-0.631204
21
0.521191
0
LINE
8
BLACK
6
CONTINUOUS
10
-0.631204
20
0.521191
11
-0.631211
21
0.521239
0
LINE
8
BLACK
6
CONTINUOUS
10
-0.631211
20
0.521239
11
-0.630524
21
0.5238
0
LINE
8
BLACK
6
CONTINUOUS
10
-0.630524
20
0.5238
11
-0.630495
21
0.523838
0
LINE
8
BLACK
6
CONTINUOUS
10
-0.630495
20
0.523838
11
-0.630486
21
0.523886
0
LINE
8
BLACK
6
CONTINUOUS
10
-0.630486
20
0.523886
11
-0.628176
21
0.527384
0
LINE
8
BLACK
6
CONTINUOUS
10
-0.628176
20
0.527384
11
-0.628119
21
0.527423
0
LINE
8
BLACK
6
CONTINUOUS
10
-0.628119
20
0.527423
11
-0.628077
21
0.527477
0
LINE
8
BLACK
6
CONTINUOUS
10
-0.628077
20
0.527477
11
-0.62483
21
0.529352
0
LINE
8
BLACK
6
CONTINUOUS
10
-0.62483
20
0.529352
11
-0.624762
21
0.529361
0
LINE
8
BLACK
6
CONTINUOUS
10
-0.624762
20
0.529361
11
-0.6247
21
0.529391
0
LINE
8
BLACK
6
CONTINUOUS
10
-0.6247
20
0.529391
11
-0.620515
21
0.529642
0
LINE
8
BLACK
6
CONTINUOUS
10
-0.620515
20
0.529642
11
-0.620469
21
0.529627
0
LINE
8
BLACK
6
CONTINUOUS
10
-0.624595
20
0.528806
11
-0.627721
21
0.527001
0
LINE
8
BLACK
6
CONTINUOUS
10
-0.627721
20
0.527001
11
-0.629966
21
0.523601
0
LINE
8
BLACK
6
CONTINUOUS
10
-0.629966
20
0.523601
11
-0.630628
21
0.521132
0
LINE
8
BLACK
6
CONTINUOUS
10
-0.630628
20
0.521132
11
-0.630381
21
0.517028
0
LINE
8
BLACK
6
CONTINUOUS
10
-0.630381
20
0.517028
11
-0.628274
21
0.509662
0
LINE
8
BLACK
6
CONTINUOUS
10
-0.628274
20
0.509662
11
-0.623624
21
0.501607
0
LINE
8
BLACK
6
CONTINUOUS
10
-0.623624
20
0.501607
11
-0.618298
21
0.4961
0
LINE
8
BLACK
6
CONTINUOUS
10
-0.618298
20
0.4961
11
-0.614867
21
0.493834
0
LINE
8
BLACK
6
CONTINUOUS
10
-0.614867
20
0.493834
11
-0.612399
21
0.493173
0
LINE
8
BLACK
6
CONTINUOUS
10
-0.612399
20
0.493173
11
-0.608331
21
0.493417
0
LINE
8
BLACK
6
CONTINUOUS
10
-0.608331
20
0.493417
11
-0.605205
21
0.495222
0
LINE
8
BLACK
6
CONTINUOUS
10
-0.605205
20
0.495222
11
-0.60296
21
0.498622
0
LINE
8
BLACK
6
CONTINUOUS
10
-0.60296
20
0.498622
11
-0.602299
21
0.50109
0
LINE
8
BLACK
6
CONTINUOUS
10
-0.602299
20
0.50109
11
-0.602545
21
0.505195
0
LINE
8
BLACK
6
CONTINUOUS
10
-0.602545
20
0.505195
11
-0.604652
21
0.512561
0
LINE
8
BLACK
6
CONTINUOUS
10
-0.604652
20
0.512561
11
-0.609303
21
0.520616
0
LINE
8
BLACK
6
CONTINUOUS
10
-0.609303
20
0.520616
11
-0.614628
21
0.526123
0
LINE
8
BLACK
6
CONTINUOUS
10
-0.614628
20
0.526123
11
-0.618059
21
0.528389
0
LINE
8
BLACK
6
CONTINUOUS
10
-0.618059
20
0.528389
11
-0.620528
21
0.52905
0
LINE
8
BLACK
6
CONTINUOUS
10
-0.620528
20
0.52905
11
-0.624595
21
0.528806
0
LINE
8
BLACK
6
CONTINUOUS
10
-0.58475
20
0.550249
11
-0.584702
21
0.550255
0
LINE
8
BLACK
6
CONTINUOUS
10
-0.584702
20
0.550255
11
-0.582141
21
0.549569
0
LINE
8
BLACK
6
CONTINUOUS
10
-0.582141
20
0.549569
11
-0.581962
21
0.549432
0
LINE
8
BLACK
6
CONTINUOUS
10
-0.581962
20
0.549432
11
-0.581932
21
0.549207
0
LINE
8
BLACK
6
CONTINUOUS
10
-0.581932
20
0.549207
11
-0.58207
21
0.549028
0
LINE
8
BLACK
6
CONTINUOUS
10
-0.58207
20
0.549028
11
-0.582294
21
0.548999
0
LINE
8
BLACK
6
CONTINUOUS
10
-0.582294
20
0.548999
11
-0.584809
21
0.549672
0
LINE
8
BLACK
6
CONTINUOUS
10
-0.584809
20
0.549672
11
-0.588876
21
0.549428
0
LINE
8
BLACK
6
CONTINUOUS
10
-0.588876
20
0.549428
11
-0.596873
21
0.544811
0
LINE
8
BLACK
6
CONTINUOUS
10
-0.596873
20
0.544811
11
-0.599118
21
0.541411
0
LINE
8
BLACK
6
CONTINUOUS
10
-0.599118
20
0.541411
11
-0.599779
21
0.538943
0
LINE
8
BLACK
6
CONTINUOUS
10
-0.599779
20
0.538943
11
-0.599535
21
0.534875
0
LINE
8
BLACK
6
CONTINUOUS
10
-0.599535
20
0.534875
11
-0.597719
21
0.53173
0
LINE
8
BLACK
6
CONTINUOUS
10
-0.597719
20
0.53173
11
-0.593372
21
0.527875
0
LINE
8
BLACK
6
CONTINUOUS
10
-0.593372
20
0.527875
11
-0.562707
21
0.519658
0
LINE
8
BLACK
6
CONTINUOUS
10
-0.562707
20
0.519658
11
-0.562528
21
0.519521
0
LINE
8
BLACK
6
CONTINUOUS
10
-0.562528
20
0.519521
11
-0.562498
21
0.519297
0
LINE
8
BLACK
6
CONTINUOUS
10
-0.562498
20
0.519297
11
-0.562636
21
0.519117
0
LINE
8
BLACK
6
CONTINUOUS
10
-0.562636
20
0.519117
11
-0.583743
21
0.506931
0
LINE
8
BLACK
6
CONTINUOUS
10
-0.583743
20
0.506931
11
-0.583967
21
0.506902
0
LINE
8
BLACK
6
CONTINUOUS
10
-0.583967
20
0.506902
11
-0.584146
21
0.507039
0
LINE
8
BLACK
6
CONTINUOUS
10
-0.584146
20
0.507039
11
-0.584176
21
0.507263
0
LINE
8
BLACK
6
CONTINUOUS
10
-0.584176
20
0.507263
11
-0.584038
21
0.507443
0
LINE
8
BLACK
6
CONTINUOUS
10
-0.584038
20
0.507443
11
-0.563549
21
0.519272
0
LINE
8
BLACK
6
CONTINUOUS
10
-0.563549
20
0.519272
11
-0.593592
21
0.527322
0
LINE
8
BLACK
6
CONTINUOUS
10
-0.593592
20
0.527322
11
-0.593646
21
0.527364
0
LINE
8
BLACK
6
CONTINUOUS
10
-0.593646
20
0.527364
11
-0.593711
21
0.527387
0
LINE
8
BLACK
6
CONTINUOUS
10
-0.593711
20
0.527387
11
-0.598147
21
0.53132
0
LINE
8
BLACK
6
CONTINUOUS
10
-0.598147
20
0.53132
11
-0.598168
21
0.531364
0
LINE
8
BLACK
6
CONTINUOUS
10
-0.598168
20
0.531364
11
-0.598207
21
0.531393
0
LINE
8
BLACK
6
CONTINUOUS
10
-0.598207
20
0.531393
11
-0.600082
21
0.53464
0
LINE
8
BLACK
6
CONTINUOUS
10
-0.600082
20
0.53464
11
-0.600091
21
0.534709
0
LINE
8
BLACK
6
CONTINUOUS
10
-0.600091
20
0.534709
11
-0.600121
21
0.53477
0
LINE
8
BLACK
6
CONTINUOUS
10
-0.600121
20
0.53477
11
-0.600372
21
0.538955
0
LINE
8
BLACK
6
CONTINUOUS
10
-0.600372
20
0.538955
11
-0.600356
21
0.539001
0
LINE
8
BLACK
6
CONTINUOUS
10
-0.600356
20
0.539001
11
-0.600362
21
0.539049
0
LINE
8
BLACK
6
CONTINUOUS
10
-0.600362
20
0.539049
11
-0.599676
21
0.54161
0
LINE
8
BLACK
6
CONTINUOUS
10
-0.599676
20
0.54161
11
-0.599646
21
0.541649
0
LINE
8
BLACK
6
CONTINUOUS
10
-0.599646
20
0.541649
11
-0.599637
21
0.541696
0
LINE
8
BLACK
6
CONTINUOUS
10
-0.599637
20
0.541696
11
-0.597327
21
0.545195
0
LINE
8
BLACK
6
CONTINUOUS
10
-0.597327
20
0.545195
11
-0.597271
21
0.545233
0
LINE
8
BLACK
6
CONTINUOUS
10
-0.597271
20
0.545233
11
-0.597229
21
0.545288
0
LINE
8
BLACK
6
CONTINUOUS
10
-0.597229
20
0.545288
11
-0.589111
21
0.549975
0
LINE
8
BLACK
6
CONTINUOUS
10
-0.589111
20
0.549975
11
-0.589043
21
0.549984
0
LINE
8
BLACK
6
CONTINUOUS
10
-0.589043
20
0.549984
11
-0.588981
21
0.550014
0
LINE
8
BLACK
6
CONTINUOUS
10
-0.588981
20
0.550014
11
-0.584796
21
0.550265
0
LINE
8
BLACK
6
CONTINUOUS
10
-0.584796
20
0.550265
11
-0.58475
21
0.550249
0
LINE
8
BLACK
6
CONTINUOUS
10
-0.554612
20
0.569552
11
-0.554582
21
0.569328
0
LINE
8
BLACK
6
CONTINUOUS
10
-0.554582
20
0.569328
11
-0.55472
21
0.569148
0
LINE
8
BLACK
6
CONTINUOUS
10
-0.55472
20
0.569148
11
-0.564206
21
0.563672
0
LINE
8
BLACK
6
CONTINUOUS
10
-0.564206
20
0.563672
11
-0.544668
21
0.529832
0
LINE
8
BLACK
6
CONTINUOUS
10
-0.544668
20
0.529832
11
-0.544639
21
0.529608
0
LINE
8
BLACK
6
CONTINUOUS
10
-0.544639
20
0.529608
11
-0.544776
21
0.529429
0
LINE
8
BLACK
6
CONTINUOUS
10
-0.544776
20
0.529429
11
-0.545001
21
0.529399
0
LINE
8
BLACK
6
CONTINUOUS
10
-0.545001
20
0.529399
11
-0.54518
21
0.529537
0
LINE
8
BLACK
6
CONTINUOUS
10
-0.54518
20
0.529537
11
-0.564717
21
0.563376
0
LINE
8
BLACK
6
CONTINUOUS
10
-0.564717
20
0.563376
11
-0.574203
21
0.5579
0
LINE
8
BLACK
6
CONTINUOUS
10
-0.574203
20
0.5579
11
-0.574427
21
0.55787
0
LINE
8
BLACK
6
CONTINUOUS
10
-0.574427
20
0.55787
11
-0.574606
21
0.558008
0
LINE
8
BLACK
6
CONTINUOUS
10
-0.574606
20
0.558008
11
-0.574636
21
0.558232
0
LINE
8
BLACK
6
CONTINUOUS
10
-0.574636
20
0.558232
11
-0.574498
21
0.558411
0
LINE
8
BLACK
6
CONTINUOUS
10
-0.574498
20
0.558411
11
-0.564757
21
0.564035
0
LINE
8
BLACK
6
CONTINUOUS
10
-0.564757
20
0.564035
11
-0.564757
21
0.564035
0
LINE
8
BLACK
6
CONTINUOUS
10
-0.564757
20
0.564035
11
-0.564757
21
0.564035
0
LINE
8
BLACK
6
CONTINUOUS
10
-0.564757
20
0.564035
11
-0.555015
21
0.56966
0
LINE
8
BLACK
6
CONTINUOUS
10
-0.555015
20
0.56966
11
-0.554791
21
0.569689
0
LINE
8
BLACK
6
CONTINUOUS
10
-0.554791
20
0.569689
11
-0.554612
21
0.569552
0
LINE
8
BLACK
6
CONTINUOUS
10
-0.523983
20
0.587494
11
-0.523943
21
0.587499
0
LINE
8
BLACK
6
CONTINUOUS
10
-0.523943
20
0.587499
11
-0.523882
21
0.587453
0
LINE
8
BLACK
6
CONTINUOUS
10
-0.523882
20
0.587453
11
-0.523811
21
0.587424
0
LINE
8
BLACK
6
CONTINUOUS
10
-0.523811
20
0.587424
11
-0.523796
21
0.587387
0
LINE
8
BLACK
6
CONTINUOUS
10
-0.523796
20
0.587387
11
-0.523764
21
0.587362
0
LINE
8
BLACK
6
CONTINUOUS
10
-0.523764
20
0.587362
11
-0.504079
21
0.553266
0
LINE
8
BLACK
6
CONTINUOUS
10
-0.504079
20
0.553266
11
-0.504049
21
0.553042
0
LINE
8
BLACK
6
CONTINUOUS
10
-0.504049
20
0.553042
11
-0.504187
21
0.552863
0
LINE
8
BLACK
6
CONTINUOUS
10
-0.504187
20
0.552863
11
-0.504411
21
0.552834
0
LINE
8
BLACK
6
CONTINUOUS
10
-0.504411
20
0.552834
11
-0.50459
21
0.552971
0
LINE
8
BLACK
6
CONTINUOUS
10
-0.50459
20
0.552971
11
-0.523719
21
0.586104
0
LINE
8
BLACK
6
CONTINUOUS
10
-0.523719
20
0.586104
11
-0.523522
21
0.541871
0
LINE
8
BLACK
6
CONTINUOUS
10
-0.523522
20
0.541871
11
-0.523537
21
0.541834
0
LINE
8
BLACK
6
CONTINUOUS
10
-0.523537
20
0.541834
11
-0.523532
21
0.541794
0
LINE
8
BLACK
6
CONTINUOUS
10
-0.523532
20
0.541794
11
-0.523579
21
0.541733
0
LINE
8
BLACK
6
CONTINUOUS
10
-0.523579
20
0.541733
11
-0.523608
21
0.541662
0
LINE
8
BLACK
6
CONTINUOUS
10
-0.523608
20
0.541662
11
-0.523645
21
0.541647
0
LINE
8
BLACK
6
CONTINUOUS
10
-0.523645
20
0.541647
11
-0.52367
21
0.541614
0
LINE
8
BLACK
6
CONTINUOUS
10
-0.52367
20
0.541614
11
-0.523746
21
0.541604
0
LINE
8
BLACK
6
CONTINUOUS
10
-0.523746
20
0.541604
11
-0.523816
21
0.541575
0
LINE
8
BLACK
6
CONTINUOUS
10
-0.523816
20
0.541575
11
-0.523854
21
0.54159
0
LINE
8
BLACK
6
CONTINUOUS
10
-0.523854
20
0.54159
11
-0.523894
21
0.541585
0
LINE
8
BLACK
6
CONTINUOUS
10
-0.523894
20
0.541585
11
-0.523954
21
0.541632
0
LINE
8
BLACK
6
CONTINUOUS
10
-0.523954
20
0.541632
11
-0.524025
21
0.54166
0
LINE
8
BLACK
6
CONTINUOUS
10
-0.524025
20
0.54166
11
-0.524041
21
0.541698
0
LINE
8
BLACK
6
CONTINUOUS
10
-0.524041
20
0.541698
11
-0.524073
21
0.541723
0
LINE
8
BLACK
6
CONTINUOUS
10
-0.524073
20
0.541723
11
-0.543758
21
0.575818
0
LINE
8
BLACK
6
CONTINUOUS
10
-0.543758
20
0.575818
11
-0.543788
21
0.576042
0
LINE
8
BLACK
6
CONTINUOUS
10
-0.543788
20
0.576042
11
-0.54365
21
0.576221
0
LINE
8
BLACK
6
CONTINUOUS
10
-0.54365
20
0.576221
11
-0.543426
21
0.576251
0
LINE
8
BLACK
6
CONTINUOUS
10
-0.543426
20
0.576251
11
-0.543247
21
0.576113
0
LINE
8
BLACK
6
CONTINUOUS
10
-0.543247
20
0.576113
11
-0.524118
21
0.542981
0
LINE
8
BLACK
6
CONTINUOUS
10
-0.524118
20
0.542981
11
-0.524315
21
0.587213
0
LINE
8
BLACK
6
CONTINUOUS
10
-0.524315
20
0.587213
11
-0.524299
21
0.587251
0
LINE
8
BLACK
6
CONTINUOUS
10
-0.524299
20
0.587251
11
-0.524304
21
0.587291
0
LINE
8
BLACK
6
CONTINUOUS
10
-0.524304
20
0.587291
11
-0.524258
21
0.587351
0
LINE
8
BLACK
6
CONTINUOUS
10
-0.524258
20
0.587351
11
-0.524229
21
0.587422
0
LINE
8
BLACK
6
CONTINUOUS
10
-0.524229
20
0.587422
11
-0.524192
21
0.587438
0
LINE
8
BLACK
6
CONTINUOUS
10
-0.524192
20
0.587438
11
-0.524167
21
0.58747
0
LINE
8
BLACK
6
CONTINUOUS
10
-0.524167
20
0.58747
11
-0.524091
21
0.58748
0
LINE
8
BLACK
6
CONTINUOUS
10
-0.524091
20
0.58748
11
-0.524021
21
0.58751
0
LINE
8
BLACK
6
CONTINUOUS
10
-0.524021
20
0.58751
11
-0.523983
21
0.587494
0
LINE
8
BLACK
6
CONTINUOUS
10
0.193215
20
0.67377
11
0.285704
21
0.640106
0
LINE
8
BLACK
6
CONTINUOUS
10
0.285704
20
0.640106
11
0.285704
21
0.640106
0
LINE
8
BLACK
6
CONTINUOUS
10
0.285704
20
0.640106
11
0.285704
21
0.640106
0
LINE
8
BLACK
6
CONTINUOUS
10
0.285704
20
0.640106
11
0.287115
21
0.638814
0
LINE
8
BLACK
6
CONTINUOUS
10
0.287115
20
0.638814
11
0.287186
21
0.637186
0
LINE
8
BLACK
6
CONTINUOUS
10
0.287186
20
0.637186
11
0.287199
21
0.636902
0
LINE
8
BLACK
6
CONTINUOUS
10
0.287199
20
0.636902
11
0.260268
21
0.562911
0
LINE
8
BLACK
6
CONTINUOUS
10
0.260268
20
0.562911
11
0.260268
21
0.562911
0
LINE
8
BLACK
6
CONTINUOUS
10
0.260268
20
0.562911
11
0.258975
21
0.5615
0
LINE
8
BLACK
6
CONTINUOUS
10
0.258975
20
0.5615
11
0.257064
21
0.561416
0
LINE
8
BLACK
6
CONTINUOUS
10
0.257064
20
0.561416
11
0.164574
21
0.59508
0
LINE
8
BLACK
6
CONTINUOUS
10
0.164574
20
0.59508
11
0.163163
21
0.596373
0
LINE
8
BLACK
6
CONTINUOUS
10
0.163163
20
0.596373
11
0.16308
21
0.598284
0
LINE
8
BLACK
6
CONTINUOUS
10
0.16308
20
0.598284
11
0.190011
21
0.672276
0
LINE
8
BLACK
6
CONTINUOUS
10
0.190011
20
0.672276
11
0.191303
21
0.673686
0
LINE
8
BLACK
6
CONTINUOUS
10
0.191303
20
0.673686
11
0.193215
21
0.67377
0
LINE
8
BLACK
6
CONTINUOUS
10
0.193215
20
0.67377
11
0.193215
21
0.67377
0
LINE
8
BLACK
6
CONTINUOUS
10
0.168633
20
0.598923
11
0.256424
21
0.56697
0
LINE
8
BLACK
6
CONTINUOUS
10
0.256424
20
0.56697
11
0.281645
21
0.636263
0
LINE
8
BLACK
6
CONTINUOUS
10
0.281645
20
0.636263
11
0.193854
21
0.668216
0
LINE
8
BLACK
6
CONTINUOUS
10
0.193854
20
0.668216
11
0.168633
21
0.598923
0
LINE
8
BLACK
6
CONTINUOUS
10
0.241036
20
0.637845
11
0.242335
21
0.636298
0
LINE
8
BLACK
6
CONTINUOUS
10
0.242335
20
0.636298
11
0.242335
21
0.634278
0
LINE
8
BLACK
6
CONTINUOUS
10
0.242335
20
0.634278
11
0.231672
21
0.604984
0
LINE
8
BLACK
6
CONTINUOUS
10
0.231672
20
0.604984
11
0.232017
21
0.601988
0
LINE
8
BLACK
6
CONTINUOUS
10
0.232017
20
0.601988
11
0.232733
21
0.600454
0
LINE
8
BLACK
6
CONTINUOUS
10
0.232733
20
0.600454
11
0.234806
21
0.598264
0
LINE
8
BLACK
6
CONTINUOUS
10
0.234806
20
0.598264
11
0.240543
21
0.596176
0
LINE
8
BLACK
6
CONTINUOUS
10
0.240543
20
0.596176
11
0.243539
21
0.59652
0
LINE
8
BLACK
6
CONTINUOUS
10
0.243539
20
0.59652
11
0.245073
21
0.597236
0
LINE
8
BLACK
6
CONTINUOUS
10
0.245073
20
0.597236
11
0.247264
21
0.599309
0
LINE
8
BLACK
6
CONTINUOUS
10
0.247264
20
0.599309
11
0.257926
21
0.628603
0
LINE
8
BLACK
6
CONTINUOUS
10
0.257926
20
0.628603
11
0.258438
21
0.629491
0
LINE
8
BLACK
6
CONTINUOUS
10
0.258438
20
0.629491
11
0.260188
21
0.630501
0
LINE
8
BLACK
6
CONTINUOUS
10
0.260188
20
0.630501
11
0.262177
21
0.630151
0
LINE
8
BLACK
6
CONTINUOUS
10
0.262177
20
0.630151
11
0.263475
21
0.628603
0
LINE
8
BLACK
6
CONTINUOUS
10
0.263475
20
0.628603
11
0.263475
21
0.626584
0
LINE
8
BLACK
6
CONTINUOUS
10
0.263475
20
0.626584
11
0.252574
21
0.596635
0
LINE
8
BLACK
6
CONTINUOUS
10
0.252574
20
0.596635
11
0.252062
21
0.595746
0
LINE
8
BLACK
6
CONTINUOUS
10
0.252062
20
0.595746
11
0.251909
21
0.595658
0
LINE
8
BLACK
6
CONTINUOUS
10
0.251909
20
0.595658
11
0.25183
21
0.5955
0
LINE
8
BLACK
6
CONTINUOUS
10
0.25183
20
0.5955
11
0.248786
21
0.592618
0
LINE
8
BLACK
6
CONTINUOUS
10
0.248786
20
0.592618
11
0.248049
21
0.592132
0
LINE
8
BLACK
6
CONTINUOUS
10
0.248049
20
0.592132
11
0.248004
21
0.592086
0
LINE
8
BLACK
6
CONTINUOUS
10
0.248004
20
0.592086
11
0.245601
21
0.590966
0
LINE
8
BLACK
6
CONTINUOUS
10
0.245601
20
0.590966
11
0.244748
21
0.590737
0
LINE
8
BLACK
6
CONTINUOUS
10
0.244748
20
0.590737
11
0.24469
21
0.590708
0
LINE
8
BLACK
6
CONTINUOUS
10
0.24469
20
0.590708
11
0.240526
21
0.590229
0
LINE
8
BLACK
6
CONTINUOUS
10
0.240526
20
0.590229
11
0.239502
21
0.590291
0
LINE
8
BLACK
6
CONTINUOUS
10
0.239502
20
0.590291
11
0.239355
21
0.590388
0
LINE
8
BLACK
6
CONTINUOUS
10
0.239355
20
0.590388
11
0.239178
21
0.590388
0
LINE
8
BLACK
6
CONTINUOUS
10
0.239178
20
0.590388
11
0.232131
21
0.592953
0
LINE
8
BLACK
6
CONTINUOUS
10
0.232131
20
0.592953
11
0.231243
21
0.593465
0
LINE
8
BLACK
6
CONTINUOUS
10
0.231243
20
0.593465
11
0.231155
21
0.593618
0
LINE
8
BLACK
6
CONTINUOUS
10
0.231155
20
0.593618
11
0.230997
21
0.593697
0
LINE
8
BLACK
6
CONTINUOUS
10
0.230997
20
0.593697
11
0.228115
21
0.596741
0
LINE
8
BLACK
6
CONTINUOUS
10
0.228115
20
0.596741
11
0.227629
21
0.597478
0
LINE
8
BLACK
6
CONTINUOUS
10
0.227629
20
0.597478
11
0.227583
21
0.597524
0
LINE
8
BLACK
6
CONTINUOUS
10
0.227583
20
0.597524
11
0.226463
21
0.599927
0
LINE
8
BLACK
6
CONTINUOUS
10
0.226463
20
0.599927
11
0.226234
21
0.600779
0
LINE
8
BLACK
6
CONTINUOUS
10
0.226234
20
0.600779
11
0.226205
21
0.600837
0
LINE
8
BLACK
6
CONTINUOUS
10
0.226205
20
0.600837
11
0.225726
21
0.605001
0
LINE
8
BLACK
6
CONTINUOUS
10
0.225726
20
0.605001
11
0.225787
21
0.606025
0
LINE
8
BLACK
6
CONTINUOUS
10
0.225787
20
0.606025
11
0.225885
21
0.606172
0
LINE
8
BLACK
6
CONTINUOUS
10
0.225885
20
0.606172
11
0.225885
21
0.606349
0
LINE
8
BLACK
6
CONTINUOUS
10
0.225885
20
0.606349
11
0.236785
21
0.636298
0
LINE
8
BLACK
6
CONTINUOUS
10
0.236785
20
0.636298
11
0.237298
21
0.637186
0
LINE
8
BLACK
6
CONTINUOUS
10
0.237298
20
0.637186
11
0.239047
21
0.638196
0
LINE
8
BLACK
6
CONTINUOUS
10
0.239047
20
0.638196
11
0.241036
21
0.637845
0
LINE
8
BLACK
6
CONTINUOUS
10
0.214144
20
0.647681
11
0.215032
21
0.647168
0
LINE
8
BLACK
6
CONTINUOUS
10
0.215032
20
0.647168
11
0.215121
21
0.647015
0
LINE
8
BLACK
6
CONTINUOUS
10
0.215121
20
0.647015
11
0.215278
21
0.646936
0
LINE
8
BLACK
6
CONTINUOUS
10
0.215278
20
0.646936
11
0.218161
21
0.643892
0
LINE
8
BLACK
6
CONTINUOUS
10
0.218161
20
0.643892
11
0.218647
21
0.643155
0
LINE
8
BLACK
6
CONTINUOUS
10
0.218647
20
0.643155
11
0.218693
21
0.64311
0
LINE
8
BLACK
6
CONTINUOUS
10
0.218693
20
0.64311
11
0.219813
21
0.640707
0
LINE
8
BLACK
6
CONTINUOUS
10
0.219813
20
0.640707
11
0.21993
21
0.640272
0
LINE
8
BLACK
6
CONTINUOUS
10
0.21993
20
0.640272
11
0.220006
21
0.640158
0
LINE
8
BLACK
6
CONTINUOUS
10
0.220006
20
0.640158
11
0.221606
21
0.63359
0
LINE
8
BLACK
6
CONTINUOUS
10
0.221606
20
0.63359
11
0.221669
21
0.632601
0
LINE
8
BLACK
6
CONTINUOUS
10
0.221669
20
0.632601
11
0.221674
21
0.632585
0
LINE
8
BLACK
6
CONTINUOUS
10
0.221674
20
0.632585
11
0.22087
21
0.624897
0
LINE
8
BLACK
6
CONTINUOUS
10
0.22087
20
0.624897
11
0.220708
21
0.62433
0
LINE
8
BLACK
6
CONTINUOUS
10
0.220708
20
0.62433
11
0.220708
21
0.624194
0
LINE
8
BLACK
6
CONTINUOUS
10
0.220708
20
0.624194
11
0.215579
21
0.6101
0
LINE
8
BLACK
6
CONTINUOUS
10
0.215579
20
0.6101
11
0.215066
21
0.609212
0
LINE
8
BLACK
6
CONTINUOUS
10
0.215066
20
0.609212
11
0.214913
21
0.609124
0
LINE
8
BLACK
6
CONTINUOUS
10
0.214913
20
0.609124
11
0.214834
21
0.608966
0
LINE
8
BLACK
6
CONTINUOUS
10
0.214834
20
0.608966
11
0.21179
21
0.606084
0
LINE
8
BLACK
6
CONTINUOUS
10
0.21179
20
0.606084
11
0.211053
21
0.605597
0
LINE
8
BLACK
6
CONTINUOUS
10
0.211053
20
0.605597
11
0.211008
21
0.605552
0
LINE
8
BLACK
6
CONTINUOUS
10
0.211008
20
0.605552
11
0.208605
21
0.604431
0
LINE
8
BLACK
6
CONTINUOUS
10
0.208605
20
0.604431
11
0.207752
21
0.604203
0
LINE
8
BLACK
6
CONTINUOUS
10
0.207752
20
0.604203
11
0.207695
21
0.604174
0
LINE
8
BLACK
6
CONTINUOUS
10
0.207695
20
0.604174
11
0.20353
21
0.603695
0
LINE
8
BLACK
6
CONTINUOUS
10
0.20353
20
0.603695
11
0.202506
21
0.603756
0
LINE
8
BLACK
6
CONTINUOUS
10
0.202506
20
0.603756
11
0.202359
21
0.603853
0
LINE
8
BLACK
6
CONTINUOUS
10
0.202359
20
0.603853
11
0.202183
21
0.603853
0
LINE
8
BLACK
6
CONTINUOUS
10
0.202183
20
0.603853
11
0.195136
21
0.606418
0
LINE
8
BLACK
6
CONTINUOUS
10
0.195136
20
0.606418
11
0.194248
21
0.606931
0
LINE
8
BLACK
6
CONTINUOUS
10
0.194248
20
0.606931
11
0.194159
21
0.607084
0
LINE
8
BLACK
6
CONTINUOUS
10
0.194159
20
0.607084
11
0.194001
21
0.607163
0
LINE
8
BLACK
6
CONTINUOUS
10
0.194001
20
0.607163
11
0.191119
21
0.610207
0
LINE
8
BLACK
6
CONTINUOUS
10
0.191119
20
0.610207
11
0.190633
21
0.610943
0
LINE
8
BLACK
6
CONTINUOUS
10
0.190633
20
0.610943
11
0.190587
21
0.610989
0
LINE
8
BLACK
6
CONTINUOUS
10
0.190587
20
0.610989
11
0.189467
21
0.613392
0
LINE
8
BLACK
6
CONTINUOUS
10
0.189467
20
0.613392
11
0.189238
21
0.614245
0
LINE
8
BLACK
6
CONTINUOUS
10
0.189238
20
0.614245
11
0.189209
21
0.614302
0
LINE
8
BLACK
6
CONTINUOUS
10
0.189209
20
0.614302
11
0.18873
21
0.618467
0
LINE
8
BLACK
6
CONTINUOUS
10
0.18873
20
0.618467
11
0.188792
21
0.61949
0
LINE
8
BLACK
6
CONTINUOUS
10
0.188792
20
0.61949
11
0.188889
21
0.619638
0
LINE
8
BLACK
6
CONTINUOUS
10
0.188889
20
0.619638
11
0.188889
21
0.619814
0
LINE
8
BLACK
6
CONTINUOUS
10
0.188889
20
0.619814
11
0.192095
21
0.628623
0
LINE
8
BLACK
6
CONTINUOUS
10
0.192095
20
0.628623
11
0.192608
21
0.629511
0
LINE
8
BLACK
6
CONTINUOUS
10
0.192608
20
0.629511
11
0.192761
21
0.629599
0
LINE
8
BLACK
6
CONTINUOUS
10
0.192761
20
0.629599
11
0.19284
21
0.629757
0
LINE
8
BLACK
6
CONTINUOUS
10
0.19284
20
0.629757
11
0.195884
21
0.632639
0
LINE
8
BLACK
6
CONTINUOUS
10
0.195884
20
0.632639
11
0.19662
21
0.633126
0
LINE
8
BLACK
6
CONTINUOUS
10
0.19662
20
0.633126
11
0.196666
21
0.633171
0
LINE
8
BLACK
6
CONTINUOUS
10
0.196666
20
0.633171
11
0.199069
21
0.634292
0
LINE
8
BLACK
6
CONTINUOUS
10
0.199069
20
0.634292
11
0.199921
21
0.63452
0
LINE
8
BLACK
6
CONTINUOUS
10
0.199921
20
0.63452
11
0.199979
21
0.634549
0
LINE
8
BLACK
6
CONTINUOUS
10
0.199979
20
0.634549
11
0.204144
21
0.635028
0
LINE
8
BLACK
6
CONTINUOUS
10
0.204144
20
0.635028
11
0.205167
21
0.634967
0
LINE
8
BLACK
6
CONTINUOUS
10
0.205167
20
0.634967
11
0.205315
21
0.63487
0
LINE
8
BLACK
6
CONTINUOUS
10
0.205315
20
0.63487
11
0.205491
21
0.63487
0
LINE
8
BLACK
6
CONTINUOUS
10
0.205491
20
0.63487
11
0.212538
21
0.632305
0
LINE
8
BLACK
6
CONTINUOUS
10
0.212538
20
0.632305
11
0.213426
21
0.631792
0
LINE
8
BLACK
6
CONTINUOUS
10
0.213426
20
0.631792
11
0.213514
21
0.631639
0
LINE
8
BLACK
6
CONTINUOUS
10
0.213514
20
0.631639
11
0.213672
21
0.63156
0
LINE
8
BLACK
6
CONTINUOUS
10
0.213672
20
0.63156
11
0.215434
21
0.629699
0
LINE
8
BLACK
6
CONTINUOUS
10
0.215434
20
0.629699
11
0.215747
21
0.63269
0
LINE
8
BLACK
6
CONTINUOUS
10
0.215747
20
0.63269
11
0.214337
21
0.638476
0
LINE
8
BLACK
6
CONTINUOUS
10
0.214337
20
0.638476
11
0.213543
21
0.64018
0
LINE
8
BLACK
6
CONTINUOUS
10
0.213543
20
0.64018
11
0.211469
21
0.64237
0
LINE
8
BLACK
6
CONTINUOUS
10
0.211469
20
0.64237
11
0.205078
21
0.644696
0
LINE
8
BLACK
6
CONTINUOUS
10
0.205078
20
0.644696
11
0.204189
21
0.645209
0
LINE
8
BLACK
6
CONTINUOUS
10
0.204189
20
0.645209
11
0.20318
21
0.646958
0
LINE
8
BLACK
6
CONTINUOUS
10
0.20318
20
0.646958
11
0.20353
21
0.648947
0
LINE
8
BLACK
6
CONTINUOUS
10
0.20353
20
0.648947
11
0.205078
21
0.650246
0
LINE
8
BLACK
6
CONTINUOUS
10
0.205078
20
0.650246
11
0.207097
21
0.650246
0
LINE
8
BLACK
6
CONTINUOUS
10
0.207097
20
0.650246
11
0.214144
21
0.647681
0
LINE
8
BLACK
6
CONTINUOUS
10
0.20113
20
0.628737
11
0.199596
21
0.628021
0
LINE
8
BLACK
6
CONTINUOUS
10
0.199596
20
0.628021
11
0.197406
21
0.625948
0
LINE
8
BLACK
6
CONTINUOUS
10
0.197406
20
0.625948
11
0.194677
21
0.618449
0
LINE
8
BLACK
6
CONTINUOUS
10
0.194677
20
0.618449
11
0.195021
21
0.615453
0
LINE
8
BLACK
6
CONTINUOUS
10
0.195021
20
0.615453
11
0.195737
21
0.613919
0
LINE
8
BLACK
6
CONTINUOUS
10
0.195737
20
0.613919
11
0.197811
21
0.611729
0
LINE
8
BLACK
6
CONTINUOUS
10
0.197811
20
0.611729
11
0.203547
21
0.609641
0
LINE
8
BLACK
6
CONTINUOUS
10
0.203547
20
0.609641
11
0.206543
21
0.609986
0
LINE
8
BLACK
6
CONTINUOUS
10
0.206543
20
0.609986
11
0.208078
21
0.610701
0
LINE
8
BLACK
6
CONTINUOUS
10
0.208078
20
0.610701
11
0.210268
21
0.612775
0
LINE
8
BLACK
6
CONTINUOUS
10
0.210268
20
0.612775
11
0.212997
21
0.620273
0
LINE
8
BLACK
6
CONTINUOUS
10
0.212997
20
0.620273
11
0.212652
21
0.623269
0
LINE
8
BLACK
6
CONTINUOUS
10
0.212652
20
0.623269
11
0.211937
21
0.624804
0
LINE
8
BLACK
6
CONTINUOUS
10
0.211937
20
0.624804
11
0.209863
21
0.626994
0
LINE
8
BLACK
6
CONTINUOUS
10
0.209863
20
0.626994
11
0.204126
21
0.629082
0
LINE
8
BLACK
6
CONTINUOUS
10
0.204126
20
0.629082
11
0.20113
21
0.628737
0
LINE
8
BLACK
6
CONTINUOUS
10
-0.493849
20
0.60274
11
-0.493781
21
0.602749
0
LINE
8
BLACK
6
CONTINUOUS
10
-0.493781
20
0.602749
11
-0.488659
21
0.601376
0
LINE
8
BLACK
6
CONTINUOUS
10
-0.488659
20
0.601376
11
-0.48862
21
0.601347
0
LINE
8
BLACK
6
CONTINUOUS
10
-0.48862
20
0.601347
11
-0.488573
21
0.601338
0
LINE
8
BLACK
6
CONTINUOUS
10
-0.488573
20
0.601338
11
-0.485074
21
0.599028
0
LINE
8
BLACK
6
CONTINUOUS
10
-0.485074
20
0.599028
11
-0.485055
21
0.599
0
LINE
8
BLACK
6
CONTINUOUS
10
-0.485055
20
0.599
11
-0.485025
21
0.598987
0
LINE
8
BLACK
6
CONTINUOUS
10
-0.485025
20
0.598987
11
-0.479651
21
0.59343
0
LINE
8
BLACK
6
CONTINUOUS
10
-0.479651
20
0.59343
11
-0.479638
21
0.593395
0
LINE
8
BLACK
6
CONTINUOUS
10
-0.479638
20
0.593395
11
-0.479608
21
0.593372
0
LINE
8
BLACK
6
CONTINUOUS
10
-0.479608
20
0.593372
11
-0.476796
21
0.588501
0
LINE
8
BLACK
6
CONTINUOUS
10
-0.476796
20
0.588501
11
-0.476791
21
0.588464
0
LINE
8
BLACK
6
CONTINUOUS
10
-0.476791
20
0.588464
11
-0.476768
21
0.588435
0
LINE
8
BLACK
6
CONTINUOUS
10
-0.476768
20
0.588435
11
-0.474642
21
0.581003
0
LINE
8
BLACK
6
CONTINUOUS
10
-0.474642
20
0.581003
11
-0.474646
21
0.58097
0
LINE
8
BLACK
6
CONTINUOUS
10
-0.474646
20
0.58097
11
-0.474631
21
0.580939
0
LINE
8
BLACK
6
CONTINUOUS
10
-0.474631
20
0.580939
11
-0.47438
21
0.576755
0
LINE
8
BLACK
6
CONTINUOUS
10
-0.47438
20
0.576755
11
-0.474396
21
0.576709
0
LINE
8
BLACK
6
CONTINUOUS
10
-0.474396
20
0.576709
11
-0.474389
21
0.576661
0
LINE
8
BLACK
6
CONTINUOUS
10
-0.474389
20
0.576661
11
-0.475762
21
0.571539
0
LINE
8
BLACK
6
CONTINUOUS
10
-0.475762
20
0.571539
11
-0.475804
21
0.571484
0
LINE
8
BLACK
6
CONTINUOUS
10
-0.475804
20
0.571484
11
-0.475826
21
0.571419
0
LINE
8
BLACK
6
CONTINUOUS
10
-0.475826
20
0.571419
11
-0.479759
21
0.566984
0
LINE
8
BLACK
6
CONTINUOUS
10
-0.479759
20
0.566984
11
-0.479803
21
0.566962
0
LINE
8
BLACK
6
CONTINUOUS
10
-0.479803
20
0.566962
11
-0.479833
21
0.566924
0
LINE
8
BLACK
6
CONTINUOUS
10
-0.479833
20
0.566924
11
-0.48308
21
0.565049
0
LINE
8
BLACK
6
CONTINUOUS
10
-0.48308
20
0.565049
11
-0.483128
21
0.565043
0
LINE
8
BLACK
6
CONTINUOUS
10
-0.483128
20
0.565043
11
-0.483168
21
0.565015
0
LINE
8
BLACK
6
CONTINUOUS
10
-0.483168
20
0.565015
11
-0.488976
21
0.563827
0
LINE
8
BLACK
6
CONTINUOUS
10
-0.488976
20
0.563827
11
-0.489044
21
0.56384
0
LINE
8
BLACK
6
CONTINUOUS
10
-0.489044
20
0.56384
11
-0.489112
21
0.563831
0
LINE
8
BLACK
6
CONTINUOUS
10
-0.489112
20
0.563831
11
-0.491673
21
0.564517
0
LINE
8
BLACK
6
CONTINUOUS
10
-0.491673
20
0.564517
11
-0.491852
21
0.564655
0
LINE
8
BLACK
6
CONTINUOUS
10
-0.491852
20
0.564655
11
-0.491882
21
0.564879
0
LINE
8
BLACK
6
CONTINUOUS
10
-0.491882
20
0.564879
11
-0.491744
21
0.565058
0
LINE
8
BLACK
6
CONTINUOUS
10
-0.491744
20
0.565058
11
-0.49152
21
0.565088
0
LINE
8
BLACK
6
CONTINUOUS
10
-0.49152
20
0.565088
11
-0.489027
21
0.564419
0
LINE
8
BLACK
6
CONTINUOUS
10
-0.489027
20
0.564419
11
-0.483334
21
0.565584
0
LINE
8
BLACK
6
CONTINUOUS
10
-0.483334
20
0.565584
11
-0.480169
21
0.567411
0
LINE
8
BLACK
6
CONTINUOUS
10
-0.480169
20
0.567411
11
-0.476314
21
0.571759
0
LINE
8
BLACK
6
CONTINUOUS
10
-0.476314
20
0.571759
11
-0.474972
21
0.576767
0
LINE
8
BLACK
6
CONTINUOUS
10
-0.474972
20
0.576767
11
-0.475218
21
0.580872
0
LINE
8
BLACK
6
CONTINUOUS
10
-0.475218
20
0.580872
11
-0.477326
21
0.588237
0
LINE
8
BLACK
6
CONTINUOUS
10
-0.477326
20
0.588237
11
-0.480101
21
0.593045
0
LINE
8
BLACK
6
CONTINUOUS
10
-0.480101
20
0.593045
11
-0.485427
21
0.598553
0
LINE
8
BLACK
6
CONTINUOUS
10
-0.485427
20
0.598553
11
-0.488858
21
0.600818
0
LINE
8
BLACK
6
CONTINUOUS
10
-0.488858
20
0.600818
11
-0.493866
21
0.60216
0
LINE
8
BLACK
6
CONTINUOUS
10
-0.493866
20
0.60216
11
-0.499559
21
0.600995
0
LINE
8
BLACK
6
CONTINUOUS
10
-0.499559
20
0.600995
11
-0.502723
21
0.599168
0
LINE
8
BLACK
6
CONTINUOUS
10
-0.502723
20
0.599168
11
-0.506579
21
0.594821
0
LINE
8
BLACK
6
CONTINUOUS
10
-0.506579
20
0.594821
11
-0.507247
21
0.592327
0
LINE
8
BLACK
6
CONTINUOUS
10
-0.507247
20
0.592327
11
-0.507384
21
0.592148
0
LINE
8
BLACK
6
CONTINUOUS
10
-0.507384
20
0.592148
11
-0.507609
21
0.592118
0
LINE
8
BLACK
6
CONTINUOUS
10
-0.507609
20
0.592118
11
-0.507788
21
0.592256
0
LINE
8
BLACK
6
CONTINUOUS
10
-0.507788
20
0.592256
11
-0.507817
21
0.59248
0
LINE
8
BLACK
6
CONTINUOUS
10
-0.507817
20
0.59248
11
-0.507131
21
0.595041
0
LINE
8
BLACK
6
CONTINUOUS
10
-0.507131
20
0.595041
11
-0.507089
21
0.595095
0
LINE
8
BLACK
6
CONTINUOUS
10
-0.507089
20
0.595095
11
-0.507067
21
0.59516
0
LINE
8
BLACK
6
CONTINUOUS
10
-0.507067
20
0.59516
11
-0.503133
21
0.599596
0
LINE
8
BLACK
6
CONTINUOUS
10
-0.503133
20
0.599596
11
-0.50309
21
0.599617
0
LINE
8
BLACK
6
CONTINUOUS
10
-0.50309
20
0.599617
11
-0.50306
21
0.599656
0
LINE
8
BLACK
6
CONTINUOUS
10
-0.50306
20
0.599656
11
-0.499813
21
0.601531
0
LINE
8
BLACK
6
CONTINUOUS
10
-0.499813
20
0.601531
11
-0.499765
21
0.601537
0
LINE
8
BLACK
6
CONTINUOUS
10
-0.499765
20
0.601537
11
-0.499725
21
0.601564
0
LINE
8
BLACK
6
CONTINUOUS
10
-0.499725
20
0.601564
11
-0.493916
21
0.602753
0
LINE
8
BLACK
6
CONTINUOUS
10
-0.493916
20
0.602753
11
-0.493849
21
0.60274
0
LINE
8
BLACK
6
CONTINUOUS
10
-0.455666
20
0.626831
11
-0.455539
21
0.626644
0
LINE
8
BLACK
6
CONTINUOUS
10
-0.455539
20
0.626644
11
-0.447219
21
0.585986
0
LINE
8
BLACK
6
CONTINUOUS
10
-0.447219
20
0.585986
11
-0.447223
21
0.585965
0
LINE
8
BLACK
6
CONTINUOUS
10
-0.447223
20
0.585965
11
-0.447214
21
0.585945
0
LINE
8
BLACK
6
CONTINUOUS
10
-0.447214
20
0.585945
11
-0.447244
21
0.585856
0
LINE
8
BLACK
6
CONTINUOUS
10
-0.447244
20
0.585856
11
-0.447262
21
0.585764
0
LINE
8
BLACK
6
CONTINUOUS
10
-0.447262
20
0.585764
11
-0.44728
21
0.585752
0
LINE
8
BLACK
6
CONTINUOUS
10
-0.44728
20
0.585752
11
-0.447287
21
0.585731
0
LINE
8
BLACK
6
CONTINUOUS
10
-0.447287
20
0.585731
11
-0.447372
21
0.58569
0
LINE
8
BLACK
6
CONTINUOUS
10
-0.447372
20
0.58569
11
-0.447449
21
0.585638
0
LINE
8
BLACK
6
CONTINUOUS
10
-0.447449
20
0.585638
11
-0.447471
21
0.585642
0
LINE
8
BLACK
6
CONTINUOUS
10
-0.447471
20
0.585642
11
-0.447491
21
0.585632
0
LINE
8
BLACK
6
CONTINUOUS
10
-0.447491
20
0.585632
11
-0.447579
21
0.585663
0
LINE
8
BLACK
6
CONTINUOUS
10
-0.447579
20
0.585663
11
-0.447671
21
0.585681
0
LINE
8
BLACK
6
CONTINUOUS
10
-0.447671
20
0.585681
11
-0.447683
21
0.585699
0
LINE
8
BLACK
6
CONTINUOUS
10
-0.447683
20
0.585699
11
-0.447704
21
0.585706
0
LINE
8
BLACK
6
CONTINUOUS
10
-0.447704
20
0.585706
11
-0.478754
21
0.61324
0
LINE
8
BLACK
6
CONTINUOUS
10
-0.478754
20
0.61324
11
-0.478853
21
0.613443
0
LINE
8
BLACK
6
CONTINUOUS
10
-0.478853
20
0.613443
11
-0.47878
21
0.613657
0
LINE
8
BLACK
6
CONTINUOUS
10
-0.47878
20
0.613657
11
-0.478576
21
0.613756
0
LINE
8
BLACK
6
CONTINUOUS
10
-0.478576
20
0.613756
11
-0.478363
21
0.613682
0
LINE
8
BLACK
6
CONTINUOUS
10
-0.478363
20
0.613682
11
-0.447975
21
0.586736
0
LINE
8
BLACK
6
CONTINUOUS
10
-0.447975
20
0.586736
11
-0.456118
21
0.626525
0
LINE
8
BLACK
6
CONTINUOUS
10
-0.456118
20
0.626525
11
-0.456075
21
0.626747
0
LINE
8
BLACK
6
CONTINUOUS
10
-0.456075
20
0.626747
11
-0.455887
21
0.626874
0
LINE
8
BLACK
6
CONTINUOUS
10
-0.455887
20
0.626874
11
-0.455666
21
0.626831
0
LINE
8
BLACK
6
CONTINUOUS
10
0.308054
20
0.62798
11
0.311209
21
0.626459
0
LINE
8
BLACK
6
CONTINUOUS
10
0.311209
20
0.626459
11
0.313392
21
0.62372
0
LINE
8
BLACK
6
CONTINUOUS
10
0.313392
20
0.62372
11
0.314171
21
0.620305
0
LINE
8
BLACK
6
CONTINUOUS
10
0.314171
20
0.620305
11
0.31417
21
0.620277
0
LINE
8
BLACK
6
CONTINUOUS
10
0.31417
20
0.620277
11
0.31338
21
0.616866
0
LINE
8
BLACK
6
CONTINUOUS
10
0.31338
20
0.616866
11
0.311187
21
0.614134
0
LINE
8
BLACK
6
CONTINUOUS
10
0.311187
20
0.614134
11
0.308028
21
0.612624
0
LINE
8
BLACK
6
CONTINUOUS
10
0.308028
20
0.612624
11
0.304525
21
0.612633
0
LINE
8
BLACK
6
CONTINUOUS
10
0.304525
20
0.612633
11
0.301373
21
0.61416
0
LINE
8
BLACK
6
CONTINUOUS
10
0.301373
20
0.61416
11
0.299195
21
0.616903
0
LINE
8
BLACK
6
CONTINUOUS
10
0.299195
20
0.616903
11
0.298422
21
0.620319
0
LINE
8
BLACK
6
CONTINUOUS
10
0.298422
20
0.620319
11
0.299207
21
0.623732
0
LINE
8
BLACK
6
CONTINUOUS
10
0.299207
20
0.623732
11
0.301395
21
0.626467
0
LINE
8
BLACK
6
CONTINUOUS
10
0.301395
20
0.626467
11
0.304552
21
0.627983
0
LINE
8
BLACK
6
CONTINUOUS
10
0.304552
20
0.627983
11
0.308054
21
0.62798
0
LINE
8
BLACK
6
CONTINUOUS
10
-0.401798
20
0.799588
11
-0.362428
21
0.731397
0
LINE
8
BLACK
6
CONTINUOUS
10
-0.362428
20
0.731397
11
-0.362178
21
0.7295
0
LINE
8
BLACK
6
CONTINUOUS
10
-0.362178
20
0.7295
11
-0.363343
21
0.727982
0
LINE
8
BLACK
6
CONTINUOUS
10
-0.363343
20
0.727982
11
-0.448582
21
0.678769
0
LINE
8
BLACK
6
CONTINUOUS
10
-0.448582
20
0.678769
11
-0.450479
21
0.678519
0
LINE
8
BLACK
6
CONTINUOUS
10
-0.450479
20
0.678519
11
-0.451997
21
0.679684
0
LINE
8
BLACK
6
CONTINUOUS
10
-0.451997
20
0.679684
11
-0.491367
21
0.747875
0
LINE
8
BLACK
6
CONTINUOUS
10
-0.491367
20
0.747875
11
-0.491617
21
0.749772
0
LINE
8
BLACK
6
CONTINUOUS
10
-0.491617
20
0.749772
11
-0.490452
21
0.75129
0
LINE
8
BLACK
6
CONTINUOUS
10
-0.490452
20
0.75129
11
-0.405213
21
0.800503
0
LINE
8
BLACK
6
CONTINUOUS
10
-0.405213
20
0.800503
11
-0.405213
21
0.800503
0
LINE
8
BLACK
6
CONTINUOUS
10
-0.405213
20
0.800503
11
-0.403316
21
0.800752
0
LINE
8
BLACK
6
CONTINUOUS
10
-0.403316
20
0.800752
11
-0.401798
21
0.799588
0
LINE
8
BLACK
6
CONTINUOUS
10
-0.485787
20
0.74821
11
-0.448917
21
0.684349
0
LINE
8
BLACK
6
CONTINUOUS
10
-0.448917
20
0.684349
11
-0.368008
21
0.731062
0
LINE
8
BLACK
6
CONTINUOUS
10
-0.368008
20
0.731062
11
-0.404878
21
0.794923
0
LINE
8
BLACK
6
CONTINUOUS
10
-0.404878
20
0.794923
11
-0.485787
21
0.74821
0
LINE
8
BLACK
6
CONTINUOUS
10
-0.447314
20
0.755482
11
-0.44669
21
0.755544
0
LINE
8
BLACK
6
CONTINUOUS
10
-0.44669
20
0.755544
11
-0.446349
21
0.755312
0
LINE
8
BLACK
6
CONTINUOUS
10
-0.446349
20
0.755312
11
-0.445943
21
0.75524
0
LINE
8
BLACK
6
CONTINUOUS
10
-0.445943
20
0.75524
11
-0.44554
21
0.75476
0
LINE
8
BLACK
6
CONTINUOUS
10
-0.44554
20
0.75476
11
-0.445022
21
0.754406
0
LINE
8
BLACK
6
CONTINUOUS
10
-0.445022
20
0.754406
11
-0.434024
21
0.739108
0
LINE
8
BLACK
6
CONTINUOUS
10
-0.434024
20
0.739108
11
-0.433579
21
0.738184
0
LINE
8
BLACK
6
CONTINUOUS
10
-0.433579
20
0.738184
11
-0.433581
21
0.738165
0
LINE
8
BLACK
6
CONTINUOUS
10
-0.433581
20
0.738165
11
-0.43357
21
0.738149
0
LINE
8
BLACK
6
CONTINUOUS
10
-0.43357
20
0.738149
11
-0.433656
21
0.737157
0
LINE
8
BLACK
6
CONTINUOUS
10
-0.433656
20
0.737157
11
-0.43373
21
0.73617
0
LINE
8
BLACK
6
CONTINUOUS
10
-0.43373
20
0.73617
11
-0.433744
21
0.736156
0
LINE
8
BLACK
6
CONTINUOUS
10
-0.433744
20
0.736156
11
-0.433746
21
0.736136
0
LINE
8
BLACK
6
CONTINUOUS
10
-0.433746
20
0.736136
11
-0.434448
21
0.735434
0
LINE
8
BLACK
6
CONTINUOUS
10
-0.434448
20
0.735434
11
-0.435141
21
0.734724
0
LINE
8
BLACK
6
CONTINUOUS
10
-0.435141
20
0.734724
11
-0.43516
21
0.734722
0
LINE
8
BLACK
6
CONTINUOUS
10
-0.43516
20
0.734722
11
-0.435174
21
0.734708
0
LINE
8
BLACK
6
CONTINUOUS
10
-0.435174
20
0.734708
11
-0.436162
21
0.734622
0
LINE
8
BLACK
6
CONTINUOUS
10
-0.436162
20
0.734622
11
-0.43715
21
0.734523
0
LINE
8
BLACK
6
CONTINUOUS
10
-0.43715
20
0.734523
11
-0.437167
21
0.734534
0
LINE
8
BLACK
6
CONTINUOUS
10
-0.437167
20
0.734534
11
-0.437186
21
0.734532
0
LINE
8
BLACK
6
CONTINUOUS
10
-0.437186
20
0.734532
11
-0.439284
21
0.735094
0
LINE
8
BLACK
6
CONTINUOUS
10
-0.439284
20
0.735094
11
-0.442294
21
0.734914
0
LINE
8
BLACK
6
CONTINUOUS
10
-0.442294
20
0.734914
11
-0.449205
21
0.730924
0
LINE
8
BLACK
6
CONTINUOUS
10
-0.449205
20
0.730924
11
-0.450867
21
0.728407
0
LINE
8
BLACK
6
CONTINUOUS
10
-0.450867
20
0.728407
11
-0.451305
21
0.726772
0
LINE
8
BLACK
6
CONTINUOUS
10
-0.451305
20
0.726772
11
-0.451124
21
0.723761
0
LINE
8
BLACK
6
CONTINUOUS
10
-0.451124
20
0.723761
11
-0.447134
21
0.716851
0
LINE
8
BLACK
6
CONTINUOUS
10
-0.447134
20
0.716851
11
-0.444618
21
0.715189
0
LINE
8
BLACK
6
CONTINUOUS
10
-0.444618
20
0.715189
11
-0.442982
21
0.714751
0
LINE
8
BLACK
6
CONTINUOUS
10
-0.442982
20
0.714751
11
-0.439972
21
0.714931
0
LINE
8
BLACK
6
CONTINUOUS
10
-0.439972
20
0.714931
11
-0.433061
21
0.718921
0
LINE
8
BLACK
6
CONTINUOUS
10
-0.433061
20
0.718921
11
-0.4314
21
0.721438
0
LINE
8
BLACK
6
CONTINUOUS
10
-0.4314
20
0.721438
11
-0.430837
21
0.723536
0
LINE
8
BLACK
6
CONTINUOUS
10
-0.430837
20
0.723536
11
-0.430404
21
0.724466
0
LINE
8
BLACK
6
CONTINUOUS
10
-0.430404
20
0.724466
11
-0.42875
21
0.725624
0
LINE
8
BLACK
6
CONTINUOUS
10
-0.42875
20
0.725624
11
-0.426737
21
0.725448
0
LINE
8
BLACK
6
CONTINUOUS
10
-0.426737
20
0.725448
11
-0.425309
21
0.72402
0
LINE
8
BLACK
6
CONTINUOUS
10
-0.425309
20
0.72402
11
-0.425133
21
0.722008
0
LINE
8
BLACK
6
CONTINUOUS
10
-0.425133
20
0.722008
11
-0.425819
21
0.719447
0
LINE
8
BLACK
6
CONTINUOUS
10
-0.425819
20
0.719447
11
-0.426192
21
0.718647
0
LINE
8
BLACK
6
CONTINUOUS
10
-0.426192
20
0.718647
11
-0.426207
21
0.718584
0
LINE
8
BLACK
6
CONTINUOUS
10
-0.426207
20
0.718584
11
-0.428517
21
0.715086
0
LINE
8
BLACK
6
CONTINUOUS
10
-0.428517
20
0.715086
11
-0.429222
21
0.714341
0
LINE
8
BLACK
6
CONTINUOUS
10
-0.429222
20
0.714341
11
-0.429391
21
0.714291
0
LINE
8
BLACK
6
CONTINUOUS
10
-0.429391
20
0.714291
11
-0.429505
21
0.714156
0
LINE
8
BLACK
6
CONTINUOUS
10
-0.429505
20
0.714156
11
-0.437623
21
0.709469
0
LINE
8
BLACK
6
CONTINUOUS
10
-0.437623
20
0.709469
11
-0.438587
21
0.709118
0
LINE
8
BLACK
6
CONTINUOUS
10
-0.438587
20
0.709118
11
-0.43876
21
0.709149
0
LINE
8
BLACK
6
CONTINUOUS
10
-0.43876
20
0.709149
11
-0.438922
21
0.709078
0
LINE
8
BLACK
6
CONTINUOUS
10
-0.438922
20
0.709078
11
-0.443107
21
0.708827
0
LINE
8
BLACK
6
CONTINUOUS
10
-0.443107
20
0.708827
11
-0.443984
21
0.708928
0
LINE
8
BLACK
6
CONTINUOUS
10
-0.443984
20
0.708928
11
-0.444048
21
0.708922
0
LINE
8
BLACK
6
CONTINUOUS
10
-0.444048
20
0.708922
11
-0.446609
21
0.709609
0
LINE
8
BLACK
6
CONTINUOUS
10
-0.446609
20
0.709609
11
-0.447409
21
0.709982
0
LINE
8
BLACK
6
CONTINUOUS
10
-0.447409
20
0.709982
11
-0.447472
21
0.709997
0
LINE
8
BLACK
6
CONTINUOUS
10
-0.447472
20
0.709997
11
-0.45097
21
0.712306
0
LINE
8
BLACK
6
CONTINUOUS
10
-0.45097
20
0.712306
11
-0.451715
21
0.713012
0
LINE
8
BLACK
6
CONTINUOUS
10
-0.451715
20
0.713012
11
-0.451765
21
0.713181
0
LINE
8
BLACK
6
CONTINUOUS
10
-0.451765
20
0.713181
11
-0.4519
21
0.713294
0
LINE
8
BLACK
6
CONTINUOUS
10
-0.4519
20
0.713294
11
-0.456587
21
0.721412
0
LINE
8
BLACK
6
CONTINUOUS
10
-0.456587
20
0.721412
11
-0.456938
21
0.722376
0
LINE
8
BLACK
6
CONTINUOUS
10
-0.456938
20
0.722376
11
-0.456907
21
0.72255
0
LINE
8
BLACK
6
CONTINUOUS
10
-0.456907
20
0.72255
11
-0.456978
21
0.722712
0
LINE
8
BLACK
6
CONTINUOUS
10
-0.456978
20
0.722712
11
-0.457229
21
0.726896
0
LINE
8
BLACK
6
CONTINUOUS
10
-0.457229
20
0.726896
11
-0.457128
21
0.727773
0
LINE
8
BLACK
6
CONTINUOUS
10
-0.457128
20
0.727773
11
-0.457133
21
0.727837
0
LINE
8
BLACK
6
CONTINUOUS
10
-0.457133
20
0.727837
11
-0.456447
21
0.730398
0
LINE
8
BLACK
6
CONTINUOUS
10
-0.456447
20
0.730398
11
-0.456074
21
0.731198
0
LINE
8
BLACK
6
CONTINUOUS
10
-0.456074
20
0.731198
11
-0.456059
21
0.731261
0
LINE
8
BLACK
6
CONTINUOUS
10
-0.456059
20
0.731261
11
-0.453749
21
0.734759
0
LINE
8
BLACK
6
CONTINUOUS
10
-0.453749
20
0.734759
11
-0.453044
21
0.735504
0
LINE
8
BLACK
6
CONTINUOUS
10
-0.453044
20
0.735504
11
-0.452875
21
0.735554
0
LINE
8
BLACK
6
CONTINUOUS
10
-0.452875
20
0.735554
11
-0.452762
21
0.73569
0
LINE
8
BLACK
6
CONTINUOUS
10
-0.452762
20
0.73569
11
-0.444644
21
0.740377
0
LINE
8
BLACK
6
CONTINUOUS
10
-0.444644
20
0.740377
11
-0.44368
21
0.740727
0
LINE
8
BLACK
6
CONTINUOUS
10
-0.44368
20
0.740727
11
-0.443506
21
0.740697
0
LINE
8
BLACK
6
CONTINUOUS
10
-0.443506
20
0.740697
11
-0.443344
21
0.740767
0
LINE
8
BLACK
6
CONTINUOUS
10
-0.443344
20
0.740767
11
-0.442525
21
0.740816
0
LINE
8
BLACK
6
CONTINUOUS
10
-0.442525
20
0.740816
11
-0.448257
21
0.74879
0
LINE
8
BLACK
6
CONTINUOUS
10
-0.448257
20
0.74879
11
-0.462179
21
0.740752
0
LINE
8
BLACK
6
CONTINUOUS
10
-0.462179
20
0.740752
11
-0.463142
21
0.740401
0
LINE
8
BLACK
6
CONTINUOUS
10
-0.463142
20
0.740401
11
-0.465131
21
0.740752
0
LINE
8
BLACK
6
CONTINUOUS
10
-0.465131
20
0.740752
11
-0.46643
21
0.742299
0
LINE
8
BLACK
6
CONTINUOUS
10
-0.46643
20
0.742299
11
-0.46643
21
0.744319
0
LINE
8
BLACK
6
CONTINUOUS
10
-0.46643
20
0.744319
11
-0.465131
21
0.745866
0
LINE
8
BLACK
6
CONTINUOUS
10
-0.465131
20
0.745866
11
-0.448896
21
0.75524
0
LINE
8
BLACK
6
CONTINUOUS
10
-0.448896
20
0.75524
11
-0.448749
21
0.755294
0
LINE
8
BLACK
6
CONTINUOUS
10
-0.448749
20
0.755294
11
-0.4487
21
0.755343
0
LINE
8
BLACK
6
CONTINUOUS
10
-0.4487
20
0.755343
11
-0.448578
21
0.755356
0
LINE
8
BLACK
6
CONTINUOUS
10
-0.448578
20
0.755356
11
-0.447932
21
0.755591
0
LINE
8
BLACK
6
CONTINUOUS
10
-0.447932
20
0.755591
11
-0.447314
21
0.755482
0
LINE
8
BLACK
6
CONTINUOUS
10
-0.409143
20
0.774782
11
-0.393207
21
0.747181
0
LINE
8
BLACK
6
CONTINUOUS
10
-0.393207
20
0.747181
11
-0.392857
21
0.746217
0
LINE
8
BLACK
6
CONTINUOUS
10
-0.392857
20
0.746217
11
-0.392887
21
0.746043
0
LINE
8
BLACK
6
CONTINUOUS
10
-0.392887
20
0.746043
11
-0.392817
21
0.745881
0
LINE
8
BLACK
6
CONTINUOUS
10
-0.392817
20
0.745881
11
-0.392566
21
0.741697
0
LINE
8
BLACK
6
CONTINUOUS
10
-0.392566
20
0.741697
11
-0.392667
21
0.74082
0
LINE
8
BLACK
6
CONTINUOUS
10
-0.392667
20
0.74082
11
-0.392661
21
0.740755
0
LINE
8
BLACK
6
CONTINUOUS
10
-0.392661
20
0.740755
11
-0.393347
21
0.738194
0
LINE
8
BLACK
6
CONTINUOUS
10
-0.393347
20
0.738194
11
-0.39372
21
0.737395
0
LINE
8
BLACK
6
CONTINUOUS
10
-0.39372
20
0.737395
11
-0.393735
21
0.737332
0
LINE
8
BLACK
6
CONTINUOUS
10
-0.393735
20
0.737332
11
-0.396045
21
0.733833
0
LINE
8
BLACK
6
CONTINUOUS
10
-0.396045
20
0.733833
11
-0.39675
21
0.733089
0
LINE
8
BLACK
6
CONTINUOUS
10
-0.39675
20
0.733089
11
-0.39692
21
0.733038
0
LINE
8
BLACK
6
CONTINUOUS
10
-0.39692
20
0.733038
11
-0.397033
21
0.732903
0
LINE
8
BLACK
6
CONTINUOUS
10
-0.397033
20
0.732903
11
-0.403527
21
0.729154
0
LINE
8
BLACK
6
CONTINUOUS
10
-0.403527
20
0.729154
11
-0.404491
21
0.728803
0
LINE
8
BLACK
6
CONTINUOUS
10
-0.404491
20
0.728803
11
-0.404665
21
0.728834
0
LINE
8
BLACK
6
CONTINUOUS
10
-0.404665
20
0.728834
11
-0.404827
21
0.728763
0
LINE
8
BLACK
6
CONTINUOUS
10
-0.404827
20
0.728763
11
-0.409011
21
0.728512
0
LINE
8
BLACK
6
CONTINUOUS
10
-0.409011
20
0.728512
11
-0.409888
21
0.728613
0
LINE
8
BLACK
6
CONTINUOUS
10
-0.409888
20
0.728613
11
-0.409953
21
0.728607
0
LINE
8
BLACK
6
CONTINUOUS
10
-0.409953
20
0.728607
11
-0.412514
21
0.729294
0
LINE
8
BLACK
6
CONTINUOUS
10
-0.412514
20
0.729294
11
-0.413314
21
0.729667
0
LINE
8
BLACK
6
CONTINUOUS
10
-0.413314
20
0.729667
11
-0.413376
21
0.729682
0
LINE
8
BLACK
6
CONTINUOUS
10
-0.413376
20
0.729682
11
-0.416875
21
0.731992
0
LINE
8
BLACK
6
CONTINUOUS
10
-0.416875
20
0.731992
11
-0.417619
21
0.732697
0
LINE
8
BLACK
6
CONTINUOUS
10
-0.417619
20
0.732697
11
-0.41767
21
0.732866
0
LINE
8
BLACK
6
CONTINUOUS
10
-0.41767
20
0.732866
11
-0.417805
21
0.732979
0
LINE
8
BLACK
6
CONTINUOUS
10
-0.417805
20
0.732979
11
-0.43374
21
0.76058
0
LINE
8
BLACK
6
CONTINUOUS
10
-0.43374
20
0.76058
11
-0.434091
21
0.761544
0
LINE
8
BLACK
6
CONTINUOUS
10
-0.434091
20
0.761544
11
-0.43374
21
0.763533
0
LINE
8
BLACK
6
CONTINUOUS
10
-0.43374
20
0.763533
11
-0.432193
21
0.764831
0
LINE
8
BLACK
6
CONTINUOUS
10
-0.432193
20
0.764831
11
-0.430173
21
0.764831
0
LINE
8
BLACK
6
CONTINUOUS
10
-0.430173
20
0.764831
11
-0.428626
21
0.763533
0
LINE
8
BLACK
6
CONTINUOUS
10
-0.428626
20
0.763533
11
-0.413039
21
0.736536
0
LINE
8
BLACK
6
CONTINUOUS
10
-0.413039
20
0.736536
11
-0.410522
21
0.734874
0
LINE
8
BLACK
6
CONTINUOUS
10
-0.410522
20
0.734874
11
-0.408887
21
0.734436
0
LINE
8
BLACK
6
CONTINUOUS
10
-0.408887
20
0.734436
11
-0.405876
21
0.734616
0
LINE
8
BLACK
6
CONTINUOUS
10
-0.405876
20
0.734616
11
-0.400589
21
0.737669
0
LINE
8
BLACK
6
CONTINUOUS
10
-0.400589
20
0.737669
11
-0.398928
21
0.740186
0
LINE
8
BLACK
6
CONTINUOUS
10
-0.398928
20
0.740186
11
-0.398489
21
0.741821
0
LINE
8
BLACK
6
CONTINUOUS
10
-0.398489
20
0.741821
11
-0.39867
21
0.744831
0
LINE
8
BLACK
6
CONTINUOUS
10
-0.39867
20
0.744831
11
-0.414257
21
0.771829
0
LINE
8
BLACK
6
CONTINUOUS
10
-0.414257
20
0.771829
11
-0.414608
21
0.772793
0
LINE
8
BLACK
6
CONTINUOUS
10
-0.414608
20
0.772793
11
-0.414257
21
0.774782
0
LINE
8
BLACK
6
CONTINUOUS
10
-0.414257
20
0.774782
11
-0.41271
21
0.77608
0
LINE
8
BLACK
6
CONTINUOUS
10
-0.41271
20
0.77608
11
-0.41069
21
0.77608
0
LINE
8
BLACK
6
CONTINUOUS
10
-0.41069
20
0.77608
11
-0.409143
21
0.774782
0
LINE
8
BLACK
6
CONTINUOUS
10
-0.37505
20
0.811224
11
-0.371896
21
0.809703
0
LINE
8
BLACK
6
CONTINUOUS
10
-0.371896
20
0.809703
11
-0.369713
21
0.806964
0
LINE
8
BLACK
6
CONTINUOUS
10
-0.369713
20
0.806964
11
-0.368934
21
0.803549
0
LINE
8
BLACK
6
CONTINUOUS
10
-0.368934
20
0.803549
11
-0.368934
21
0.803522
0
LINE
8
BLACK
6
CONTINUOUS
10
-0.368934
20
0.803522
11
-0.369725
21
0.80011
0
LINE
8
BLACK
6
CONTINUOUS
10
-0.369725
20
0.80011
11
-0.371917
21
0.797378
0
LINE
8
BLACK
6
CONTINUOUS
10
-0.371917
20
0.797378
11
-0.375077
21
0.795868
0
LINE
8
BLACK
6
CONTINUOUS
10
-0.375077
20
0.795868
11
-0.378579
21
0.795877
0
LINE
8
BLACK
6
CONTINUOUS
10
-0.378579
20
0.795877
11
-0.381731
21
0.797404
0
LINE
8
BLACK
6
CONTINUOUS
10
-0.381731
20
0.797404
11
-0.383909
21
0.800147
0
LINE
8
BLACK
6
CONTINUOUS
10
-0.383909
20
0.800147
11
-0.384682
21
0.803563
0
LINE
8
BLACK
6
CONTINUOUS
10
-0.384682
20
0.803563
11
-0.383897
21
0.806976
0
LINE
8
BLACK
6
CONTINUOUS
10
-0.383897
20
0.806976
11
-0.38171
21
0.809711
0
LINE
8
BLACK
6
CONTINUOUS
10
-0.38171
20
0.809711
11
-0.378553
21
0.811227
0
LINE
8
BLACK
6
CONTINUOUS
10
-0.378553
20
0.811227
11
-0.37505
21
0.811224
  0
ENDSEC
  0
EOF
