  0
SECTION
  2
HEADER
  9
$ANGBASE
  50
0.0
  9
$ANGDIR
  70
1
  9
$MEASUREMENT
  70
0
  0
ENDSEC
  0
SECTION
  2
TABLES
  0
TABLE
  2
LTYPE
  70
4
  0
LTYPE
  5
40F
  2
CONTINUOUS
  70
0
  3
Solid line
  72
65
  73
0
  40
0.0
  0
LTYPE
  5
410
  2
DASHDOT
 70
0
  3
Dash Dot ____ _ ____ _
 72
65
 73
4
 40
2.0
 49
1.25
 49
-0.25
 49
0.25
 49
-0.25
  0
LTYPE
  5
411
  2
DASHED
 70
0
  3
Dashed __ __ __ __ __
 72
65
 73
2
 40
0.75
 49
0.5
 49
-0.25
  0
LTYPE
  5
43B
  2
DOTTED
 70
0
  3
Dotted .  .  .  .
 72
65
 73
2
 40
0.2
 49
0.0
 49
-0.2
  0
ENDTAB
  0
TABLE
  2
STYLE
  70
4
  0
STYLE
  2
KICAD
  70
0
  40
0
  41
1
  42
1
  50
0
  71
0
  3
isocp.shx
  0
STYLE
  2
KICADB
  70
0
  40
0
  41
1
  42
1
  50
0
  71
0
  3
isocp.shx
  0
STYLE
  2
KICADI
  70
0
  40
0
  41
1
  42
1
  50
15
  71
0
  3
isocp.shx
  0
STYLE
  2
KICADBI
  70
0
  40
0
  41
1
  42
1
  50
15
  71
0
  3
isocp.shx
  0
ENDTAB
  0
TABLE
  2
LAYER
  70
1
  0
LAYER
  2
BLACK
  70
0
  62
7
  6
CONTINUOUS
  0
ENDTAB
  0
ENDSEC
  0
SECTION
  2
ENTITIES
0
LINE
8
BLACK
6
CONTINUOUS
10
-0.737759
20
-0.688695
11
-0.737653
21
-0.688675
0
LINE
8
BLACK
6
CONTINUOUS
10
-0.737653
20
-0.688675
11
-0.717527
21
-0.692955
0
LINE
8
BLACK
6
CONTINUOUS
10
-0.717527
20
-0.692955
11
-0.717439
21
-0.693015
0
LINE
8
BLACK
6
CONTINUOUS
10
-0.717439
20
-0.693015
11
-0.717332
21
-0.693018
0
LINE
8
BLACK
6
CONTINUOUS
10
-0.717332
20
-0.693018
11
-0.698536
21
-0.701388
0
LINE
8
BLACK
6
CONTINUOUS
10
-0.698536
20
-0.701388
11
-0.698463
21
-0.701466
0
LINE
8
BLACK
6
CONTINUOUS
10
-0.698463
20
-0.701466
11
-0.698358
21
-0.701491
0
LINE
8
BLACK
6
CONTINUOUS
10
-0.698358
20
-0.701491
11
-0.681709
21
-0.713586
0
LINE
8
BLACK
6
CONTINUOUS
10
-0.681709
20
-0.713586
11
-0.681673
21
-0.713644
0
LINE
8
BLACK
6
CONTINUOUS
10
-0.681673
20
-0.713644
11
-0.68161
21
-0.713668
0
LINE
8
BLACK
6
CONTINUOUS
10
-0.68161
20
-0.713668
11
-0.660569
21
-0.733634
0
LINE
8
BLACK
6
CONTINUOUS
10
-0.660569
20
-0.733634
11
-0.617348
21
-0.77055
0
LINE
8
BLACK
6
CONTINUOUS
10
-0.617348
20
-0.77055
11
-0.580421
21
-0.798885
0
LINE
8
BLACK
6
CONTINUOUS
10
-0.580421
20
-0.798885
11
-0.542062
21
-0.825245
0
LINE
8
BLACK
6
CONTINUOUS
10
-0.542062
20
-0.825245
11
-0.493601
21
-0.854943
0
LINE
8
BLACK
6
CONTINUOUS
10
-0.493601
20
-0.854943
11
-0.443652
21
-0.882063
0
LINE
8
BLACK
6
CONTINUOUS
10
-0.443652
20
-0.882063
11
-0.401643
21
-0.902101
0
LINE
8
BLACK
6
CONTINUOUS
10
-0.401643
20
-0.902101
11
-0.35864
21
-0.919915
0
LINE
8
BLACK
6
CONTINUOUS
10
-0.35864
20
-0.919915
11
-0.305062
21
-0.938886
0
LINE
8
BLACK
6
CONTINUOUS
10
-0.305062
20
-0.938886
11
-0.250566
21
-0.955029
0
LINE
8
BLACK
6
CONTINUOUS
10
-0.250566
20
-0.955029
11
-0.205306
21
-0.965895
0
LINE
8
BLACK
6
CONTINUOUS
10
-0.205306
20
-0.965895
11
-0.159541
21
-0.974378
0
LINE
8
BLACK
6
CONTINUOUS
10
-0.159541
20
-0.974378
11
-0.103191
21
-0.981796
0
LINE
8
BLACK
6
CONTINUOUS
10
-0.103191
20
-0.981796
11
-0.0465286
21
-0.986257
0
LINE
8
BLACK
6
CONTINUOUS
10
-0.0465286
20
-0.986257
11
-1.1811e-07
21
-0.987472
0
LINE
8
BLACK
6
CONTINUOUS
10
-1.1811e-07
20
-0.987472
11
0.0465287
21
-0.986257
0
LINE
8
BLACK
6
CONTINUOUS
10
0.0465287
20
-0.986257
11
0.103191
21
-0.981796
0
LINE
8
BLACK
6
CONTINUOUS
10
0.103191
20
-0.981796
11
0.159541
21
-0.974378
0
LINE
8
BLACK
6
CONTINUOUS
10
0.159541
20
-0.974378
11
0.205307
21
-0.965895
0
LINE
8
BLACK
6
CONTINUOUS
10
0.205307
20
-0.965895
11
0.250566
21
-0.955029
0
LINE
8
BLACK
6
CONTINUOUS
10
0.250566
20
-0.955029
11
0.305063
21
-0.938886
0
LINE
8
BLACK
6
CONTINUOUS
10
0.305063
20
-0.938886
11
0.358639
21
-0.919916
0
LINE
8
BLACK
6
CONTINUOUS
10
0.358639
20
-0.919916
11
0.401643
21
-0.902101
0
LINE
8
BLACK
6
CONTINUOUS
10
0.401643
20
-0.902101
11
0.443652
21
-0.882063
0
LINE
8
BLACK
6
CONTINUOUS
10
0.443652
20
-0.882063
11
0.493602
21
-0.854943
0
LINE
8
BLACK
6
CONTINUOUS
10
0.493602
20
-0.854943
11
0.542062
21
-0.825245
0
LINE
8
BLACK
6
CONTINUOUS
10
0.542062
20
-0.825245
11
0.580421
21
-0.798884
0
LINE
8
BLACK
6
CONTINUOUS
10
0.580421
20
-0.798884
11
0.617349
21
-0.77055
0
LINE
8
BLACK
6
CONTINUOUS
10
0.617349
20
-0.77055
11
0.660569
21
-0.733634
0
LINE
8
BLACK
6
CONTINUOUS
10
0.660569
20
-0.733634
11
0.68161
21
-0.713668
0
LINE
8
BLACK
6
CONTINUOUS
10
0.68161
20
-0.713668
11
0.681673
21
-0.713644
0
LINE
8
BLACK
6
CONTINUOUS
10
0.681673
20
-0.713644
11
0.681709
21
-0.713586
0
LINE
8
BLACK
6
CONTINUOUS
10
0.681709
20
-0.713586
11
0.698359
21
-0.701491
0
LINE
8
BLACK
6
CONTINUOUS
10
0.698359
20
-0.701491
11
0.698463
21
-0.701466
0
LINE
8
BLACK
6
CONTINUOUS
10
0.698463
20
-0.701466
11
0.698537
21
-0.701388
0
LINE
8
BLACK
6
CONTINUOUS
10
0.698537
20
-0.701388
11
0.717332
21
-0.693018
0
LINE
8
BLACK
6
CONTINUOUS
10
0.717332
20
-0.693018
11
0.717439
21
-0.693015
0
LINE
8
BLACK
6
CONTINUOUS
10
0.717439
20
-0.693015
11
0.717528
21
-0.692955
0
LINE
8
BLACK
6
CONTINUOUS
10
0.717528
20
-0.692955
11
0.737654
21
-0.688675
0
LINE
8
BLACK
6
CONTINUOUS
10
0.737654
20
-0.688675
11
0.737759
21
-0.688695
0
LINE
8
BLACK
6
CONTINUOUS
10
0.737759
20
-0.688695
11
0.737858
21
-0.688654
0
LINE
8
BLACK
6
CONTINUOUS
10
0.737858
20
-0.688654
11
0.758437
21
-0.688654
0
LINE
8
BLACK
6
CONTINUOUS
10
0.758437
20
-0.688654
11
0.758536
21
-0.688695
0
LINE
8
BLACK
6
CONTINUOUS
10
0.758536
20
-0.688695
11
0.758642
21
-0.688675
0
LINE
8
BLACK
6
CONTINUOUS
10
0.758642
20
-0.688675
11
0.778768
21
-0.692955
0
LINE
8
BLACK
6
CONTINUOUS
10
0.778768
20
-0.692955
11
0.778856
21
-0.693015
0
LINE
8
BLACK
6
CONTINUOUS
10
0.778856
20
-0.693015
11
0.778963
21
-0.693018
0
LINE
8
BLACK
6
CONTINUOUS
10
0.778963
20
-0.693018
11
0.797762
21
-0.701388
0
LINE
8
BLACK
6
CONTINUOUS
10
0.797762
20
-0.701388
11
0.797836
21
-0.701466
0
LINE
8
BLACK
6
CONTINUOUS
10
0.797836
20
-0.701466
11
0.797941
21
-0.701491
0
LINE
8
BLACK
6
CONTINUOUS
10
0.797941
20
-0.701491
11
0.814586
21
-0.713586
0
LINE
8
BLACK
6
CONTINUOUS
10
0.814586
20
-0.713586
11
0.814636
21
-0.713666
0
LINE
8
BLACK
6
CONTINUOUS
10
0.814636
20
-0.713666
11
0.814721
21
-0.713704
0
LINE
8
BLACK
6
CONTINUOUS
10
0.814721
20
-0.713704
11
1.04242
21
-0.953385
0
LINE
8
BLACK
6
CONTINUOUS
10
1.04242
20
-0.953385
11
1.04242
21
-0.953398
0
LINE
8
BLACK
6
CONTINUOUS
10
1.04242
20
-0.953398
11
1.04244
21
-0.953404
0
LINE
8
BLACK
6
CONTINUOUS
10
1.04244
20
-0.953404
11
1.0562
21
-0.968696
0
LINE
8
BLACK
6
CONTINUOUS
10
1.0562
20
-0.968696
11
1.05624
21
-0.968797
0
LINE
8
BLACK
6
CONTINUOUS
10
1.05624
20
-0.968797
11
1.05632
21
-0.968862
0
LINE
8
BLACK
6
CONTINUOUS
10
1.05632
20
-0.968862
11
1.06661
21
-0.986681
0
LINE
8
BLACK
6
CONTINUOUS
10
1.06661
20
-0.986681
11
1.06663
21
-0.986788
0
LINE
8
BLACK
6
CONTINUOUS
10
1.06663
20
-0.986788
11
1.0667
21
-0.986869
0
LINE
8
BLACK
6
CONTINUOUS
10
1.0667
20
-0.986869
11
1.07306
21
-1.00644
0
LINE
8
BLACK
6
CONTINUOUS
10
1.07306
20
-1.00644
11
1.07305
21
-1.00655
0
LINE
8
BLACK
6
CONTINUOUS
10
1.07305
20
-1.00655
11
1.0731
21
-1.00664
0
LINE
8
BLACK
6
CONTINUOUS
10
1.0731
20
-1.00664
11
1.07525
21
-1.0271
0
LINE
8
BLACK
6
CONTINUOUS
10
1.07525
20
-1.0271
11
1.07522
21
-1.0272
0
LINE
8
BLACK
6
CONTINUOUS
10
1.07522
20
-1.0272
11
1.07525
21
-1.02731
0
LINE
8
BLACK
6
CONTINUOUS
10
1.07525
20
-1.02731
11
1.0731
21
-1.04777
0
LINE
8
BLACK
6
CONTINUOUS
10
1.0731
20
-1.04777
11
1.07305
21
-1.04787
0
LINE
8
BLACK
6
CONTINUOUS
10
1.07305
20
-1.04787
11
1.07306
21
-1.04797
0
LINE
8
BLACK
6
CONTINUOUS
10
1.07306
20
-1.04797
11
1.0667
21
-1.06754
0
LINE
8
BLACK
6
CONTINUOUS
10
1.0667
20
-1.06754
11
1.06663
21
-1.06763
0
LINE
8
BLACK
6
CONTINUOUS
10
1.06663
20
-1.06763
11
1.06661
21
-1.06773
0
LINE
8
BLACK
6
CONTINUOUS
10
1.06661
20
-1.06773
11
1.05632
21
-1.08555
0
LINE
8
BLACK
6
CONTINUOUS
10
1.05632
20
-1.08555
11
1.05624
21
-1.08562
0
LINE
8
BLACK
6
CONTINUOUS
10
1.05624
20
-1.08562
11
1.0562
21
-1.08572
0
LINE
8
BLACK
6
CONTINUOUS
10
1.0562
20
-1.08572
11
1.04244
21
-1.10101
0
LINE
8
BLACK
6
CONTINUOUS
10
1.04244
20
-1.10101
11
1.0424
21
-1.10103
0
LINE
8
BLACK
6
CONTINUOUS
10
1.0424
20
-1.10103
11
1.04238
21
-1.10106
0
LINE
8
BLACK
6
CONTINUOUS
10
1.04238
20
-1.10106
11
1.01491
21
-1.12714
0
LINE
8
BLACK
6
CONTINUOUS
10
1.01491
20
-1.12714
11
1.01488
21
-1.12715
0
LINE
8
BLACK
6
CONTINUOUS
10
1.01488
20
-1.12715
11
1.01487
21
-1.12717
0
LINE
8
BLACK
6
CONTINUOUS
10
1.01487
20
-1.12717
11
0.95845
21
-1.17536
0
LINE
8
BLACK
6
CONTINUOUS
10
0.95845
20
-1.17536
11
0.958424
21
-1.17537
0
LINE
8
BLACK
6
CONTINUOUS
10
0.958424
20
-1.17537
11
0.95841
21
-1.17539
0
LINE
8
BLACK
6
CONTINUOUS
10
0.95841
20
-1.17539
11
0.89954
21
-1.22056
0
LINE
8
BLACK
6
CONTINUOUS
10
0.89954
20
-1.22056
11
0.899527
21
-1.22057
0
LINE
8
BLACK
6
CONTINUOUS
10
0.899527
20
-1.22057
11
0.899519
21
-1.22058
0
LINE
8
BLACK
6
CONTINUOUS
10
0.899519
20
-1.22058
11
0.882874
21
-1.23267
0
LINE
8
BLACK
6
CONTINUOUS
10
0.882874
20
-1.23267
11
0.88286
21
-1.23268
0
LINE
8
BLACK
6
CONTINUOUS
10
0.88286
20
-1.23268
11
0.882853
21
-1.23269
0
LINE
8
BLACK
6
CONTINUOUS
10
0.882853
20
-1.23269
11
0.821699
21
-1.27472
0
LINE
8
BLACK
6
CONTINUOUS
10
0.821699
20
-1.27472
11
0.821672
21
-1.27472
0
LINE
8
BLACK
6
CONTINUOUS
10
0.821672
20
-1.27472
11
0.821656
21
-1.27474
0
LINE
8
BLACK
6
CONTINUOUS
10
0.821656
20
-1.27474
11
0.758388
21
-1.31352
0
LINE
8
BLACK
6
CONTINUOUS
10
0.758388
20
-1.31352
11
0.758361
21
-1.31352
0
LINE
8
BLACK
6
CONTINUOUS
10
0.758361
20
-1.31352
11
0.758344
21
-1.31354
0
LINE
8
BLACK
6
CONTINUOUS
10
0.758344
20
-1.31354
11
0.693135
21
-1.34895
0
LINE
8
BLACK
6
CONTINUOUS
10
0.693135
20
-1.34895
11
0.693107
21
-1.34895
0
LINE
8
BLACK
6
CONTINUOUS
10
0.693107
20
-1.34895
11
0.693089
21
-1.34897
0
LINE
8
BLACK
6
CONTINUOUS
10
0.693089
20
-1.34897
11
0.626113
21
-1.38092
0
LINE
8
BLACK
6
CONTINUOUS
10
0.626113
20
-1.38092
11
0.626099
21
-1.38092
0
LINE
8
BLACK
6
CONTINUOUS
10
0.626099
20
-1.38092
11
0.626089
21
-1.38093
0
LINE
8
BLACK
6
CONTINUOUS
10
0.626089
20
-1.38093
11
0.607294
21
-1.3893
0
LINE
8
BLACK
6
CONTINUOUS
10
0.607294
20
-1.3893
11
0.60728
21
-1.3893
0
LINE
8
BLACK
6
CONTINUOUS
10
0.60728
20
-1.3893
11
0.60727
21
-1.38931
0
LINE
8
BLACK
6
CONTINUOUS
10
0.60727
20
-1.38931
11
0.538715
21
-1.4177
0
LINE
8
BLACK
6
CONTINUOUS
10
0.538715
20
-1.4177
11
0.538688
21
-1.4177
0
LINE
8
BLACK
6
CONTINUOUS
10
0.538688
20
-1.4177
11
0.538667
21
-1.41772
0
LINE
8
BLACK
6
CONTINUOUS
10
0.538667
20
-1.41772
11
0.468718
21
-1.44249
0
LINE
8
BLACK
6
CONTINUOUS
10
0.468718
20
-1.44249
11
0.468691
21
-1.44249
0
LINE
8
BLACK
6
CONTINUOUS
10
0.468691
20
-1.44249
11
0.468669
21
-1.44251
0
LINE
8
BLACK
6
CONTINUOUS
10
0.468669
20
-1.44251
11
0.397524
21
-1.46358
0
LINE
8
BLACK
6
CONTINUOUS
10
0.397524
20
-1.46358
11
0.397496
21
-1.46358
0
LINE
8
BLACK
6
CONTINUOUS
10
0.397496
20
-1.46358
11
0.397474
21
-1.46359
0
LINE
8
BLACK
6
CONTINUOUS
10
0.397474
20
-1.46359
11
0.325322
21
-1.48091
0
LINE
8
BLACK
6
CONTINUOUS
10
0.325322
20
-1.48091
11
0.325309
21
-1.48091
0
LINE
8
BLACK
6
CONTINUOUS
10
0.325309
20
-1.48091
11
0.325297
21
-1.48092
0
LINE
8
BLACK
6
CONTINUOUS
10
0.325297
20
-1.48092
11
0.305171
21
-1.4852
0
LINE
8
BLACK
6
CONTINUOUS
10
0.305171
20
-1.4852
11
0.305157
21
-1.4852
0
LINE
8
BLACK
6
CONTINUOUS
10
0.305157
20
-1.4852
11
0.305145
21
-1.4852
0
LINE
8
BLACK
6
CONTINUOUS
10
0.305145
20
-1.4852
11
0.232186
21
-1.49873
0
LINE
8
BLACK
6
CONTINUOUS
10
0.232186
20
-1.49873
11
0.232159
21
-1.49872
0
LINE
8
BLACK
6
CONTINUOUS
10
0.232159
20
-1.49872
11
0.232135
21
-1.49874
0
LINE
8
BLACK
6
CONTINUOUS
10
0.232135
20
-1.49874
11
0.158567
21
-1.50842
0
LINE
8
BLACK
6
CONTINUOUS
10
0.158567
20
-1.50842
11
0.15854
21
-1.50841
0
LINE
8
BLACK
6
CONTINUOUS
10
0.15854
20
-1.50841
11
0.158516
21
-1.50843
0
LINE
8
BLACK
6
CONTINUOUS
10
0.158516
20
-1.50843
11
0.0845418
21
-1.51425
0
LINE
8
BLACK
6
CONTINUOUS
10
0.0845418
20
-1.51425
11
0.0845155
21
-1.51424
0
LINE
8
BLACK
6
CONTINUOUS
10
0.0845155
20
-1.51424
11
0.0844903
21
-1.51425
0
LINE
8
BLACK
6
CONTINUOUS
10
0.0844903
20
-1.51425
11
0.0103133
21
-1.51619
0
LINE
8
BLACK
6
CONTINUOUS
10
0.0103133
20
-1.51619
11
0.0103004
21
-1.51619
0
LINE
8
BLACK
6
CONTINUOUS
10
0.0103004
20
-1.51619
11
0.0102876
21
-1.51619
0
LINE
8
BLACK
6
CONTINUOUS
10
0.0102876
20
-1.51619
11
-0.0102877
21
-1.51619
0
LINE
8
BLACK
6
CONTINUOUS
10
-0.0102877
20
-1.51619
11
-0.0103006
21
-1.51619
0
LINE
8
BLACK
6
CONTINUOUS
10
-0.0103006
20
-1.51619
11
-0.0103135
21
-1.51619
0
LINE
8
BLACK
6
CONTINUOUS
10
-0.0103135
20
-1.51619
11
-0.0844904
21
-1.51425
0
LINE
8
BLACK
6
CONTINUOUS
10
-0.0844904
20
-1.51425
11
-0.0845156
21
-1.51424
0
LINE
8
BLACK
6
CONTINUOUS
10
-0.0845156
20
-1.51424
11
-0.0845419
21
-1.51425
0
LINE
8
BLACK
6
CONTINUOUS
10
-0.0845419
20
-1.51425
11
-0.158516
21
-1.50843
0
LINE
8
BLACK
6
CONTINUOUS
10
-0.158516
20
-1.50843
11
-0.15854
21
-1.50841
0
LINE
8
BLACK
6
CONTINUOUS
10
-0.15854
20
-1.50841
11
-0.158567
21
-1.50842
0
LINE
8
BLACK
6
CONTINUOUS
10
-0.158567
20
-1.50842
11
-0.232135
21
-1.49874
0
LINE
8
BLACK
6
CONTINUOUS
10
-0.232135
20
-1.49874
11
-0.232159
21
-1.49872
0
LINE
8
BLACK
6
CONTINUOUS
10
-0.232159
20
-1.49872
11
-0.232186
21
-1.49873
0
LINE
8
BLACK
6
CONTINUOUS
10
-0.232186
20
-1.49873
11
-0.305146
21
-1.4852
0
LINE
8
BLACK
6
CONTINUOUS
10
-0.305146
20
-1.4852
11
-0.305157
21
-1.4852
0
LINE
8
BLACK
6
CONTINUOUS
10
-0.305157
20
-1.4852
11
-0.305171
21
-1.4852
0
LINE
8
BLACK
6
CONTINUOUS
10
-0.305171
20
-1.4852
11
-0.325297
21
-1.48092
0
LINE
8
BLACK
6
CONTINUOUS
10
-0.325297
20
-1.48092
11
-0.325309
21
-1.48091
0
LINE
8
BLACK
6
CONTINUOUS
10
-0.325309
20
-1.48091
11
-0.325322
21
-1.48091
0
LINE
8
BLACK
6
CONTINUOUS
10
-0.325322
20
-1.48091
11
-0.397474
21
-1.46359
0
LINE
8
BLACK
6
CONTINUOUS
10
-0.397474
20
-1.46359
11
-0.397496
21
-1.46358
0
LINE
8
BLACK
6
CONTINUOUS
10
-0.397496
20
-1.46358
11
-0.397524
21
-1.46358
0
LINE
8
BLACK
6
CONTINUOUS
10
-0.397524
20
-1.46358
11
-0.468669
21
-1.44251
0
LINE
8
BLACK
6
CONTINUOUS
10
-0.468669
20
-1.44251
11
-0.468691
21
-1.44249
0
LINE
8
BLACK
6
CONTINUOUS
10
-0.468691
20
-1.44249
11
-0.468718
21
-1.44249
0
LINE
8
BLACK
6
CONTINUOUS
10
-0.468718
20
-1.44249
11
-0.538667
21
-1.41772
0
LINE
8
BLACK
6
CONTINUOUS
10
-0.538667
20
-1.41772
11
-0.538688
21
-1.4177
0
LINE
8
BLACK
6
CONTINUOUS
10
-0.538688
20
-1.4177
11
-0.538715
21
-1.4177
0
LINE
8
BLACK
6
CONTINUOUS
10
-0.538715
20
-1.4177
11
-0.60727
21
-1.38931
0
LINE
8
BLACK
6
CONTINUOUS
10
-0.60727
20
-1.38931
11
-0.60728
21
-1.3893
0
LINE
8
BLACK
6
CONTINUOUS
10
-0.60728
20
-1.3893
11
-0.607294
21
-1.3893
0
LINE
8
BLACK
6
CONTINUOUS
10
-0.607294
20
-1.3893
11
-0.626089
21
-1.38093
0
LINE
8
BLACK
6
CONTINUOUS
10
-0.626089
20
-1.38093
11
-0.626099
21
-1.38092
0
LINE
8
BLACK
6
CONTINUOUS
10
-0.626099
20
-1.38092
11
-0.626113
21
-1.38092
0
LINE
8
BLACK
6
CONTINUOUS
10
-0.626113
20
-1.38092
11
-0.693089
21
-1.34897
0
LINE
8
BLACK
6
CONTINUOUS
10
-0.693089
20
-1.34897
11
-0.693107
21
-1.34895
0
LINE
8
BLACK
6
CONTINUOUS
10
-0.693107
20
-1.34895
11
-0.693135
21
-1.34895
0
LINE
8
BLACK
6
CONTINUOUS
10
-0.693135
20
-1.34895
11
-0.758344
21
-1.31354
0
LINE
8
BLACK
6
CONTINUOUS
10
-0.758344
20
-1.31354
11
-0.758361
21
-1.31352
0
LINE
8
BLACK
6
CONTINUOUS
10
-0.758361
20
-1.31352
11
-0.758388
21
-1.31352
0
LINE
8
BLACK
6
CONTINUOUS
10
-0.758388
20
-1.31352
11
-0.821656
21
-1.27475
0
LINE
8
BLACK
6
CONTINUOUS
10
-0.821656
20
-1.27475
11
-0.821672
21
-1.27472
0
LINE
8
BLACK
6
CONTINUOUS
10
-0.821672
20
-1.27472
11
-0.821699
21
-1.27472
0
LINE
8
BLACK
6
CONTINUOUS
10
-0.821699
20
-1.27472
11
-0.882853
21
-1.23269
0
LINE
8
BLACK
6
CONTINUOUS
10
-0.882853
20
-1.23269
11
-0.88286
21
-1.23268
0
LINE
8
BLACK
6
CONTINUOUS
10
-0.88286
20
-1.23268
11
-0.882874
21
-1.23267
0
LINE
8
BLACK
6
CONTINUOUS
10
-0.882874
20
-1.23267
11
-0.899519
21
-1.22058
0
LINE
8
BLACK
6
CONTINUOUS
10
-0.899519
20
-1.22058
11
-0.899526
21
-1.22057
0
LINE
8
BLACK
6
CONTINUOUS
10
-0.899526
20
-1.22057
11
-0.89954
21
-1.22056
0
LINE
8
BLACK
6
CONTINUOUS
10
-0.89954
20
-1.22056
11
-0.95841
21
-1.17539
0
LINE
8
BLACK
6
CONTINUOUS
10
-0.95841
20
-1.17539
11
-0.958424
21
-1.17537
0
LINE
8
BLACK
6
CONTINUOUS
10
-0.958424
20
-1.17537
11
-0.95845
21
-1.17536
0
LINE
8
BLACK
6
CONTINUOUS
10
-0.95845
20
-1.17536
11
-1.01487
21
-1.12717
0
LINE
8
BLACK
6
CONTINUOUS
10
-1.01487
20
-1.12717
11
-1.01488
21
-1.12715
0
LINE
8
BLACK
6
CONTINUOUS
10
-1.01488
20
-1.12715
11
-1.01491
21
-1.12714
0
LINE
8
BLACK
6
CONTINUOUS
10
-1.01491
20
-1.12714
11
-1.04238
21
-1.10106
0
LINE
8
BLACK
6
CONTINUOUS
10
-1.04238
20
-1.10106
11
-1.0424
21
-1.10103
0
LINE
8
BLACK
6
CONTINUOUS
10
-1.0424
20
-1.10103
11
-1.04244
21
-1.10101
0
LINE
8
BLACK
6
CONTINUOUS
10
-1.04244
20
-1.10101
11
-1.0562
21
-1.08572
0
LINE
8
BLACK
6
CONTINUOUS
10
-1.0562
20
-1.08572
11
-1.05624
21
-1.08562
0
LINE
8
BLACK
6
CONTINUOUS
10
-1.05624
20
-1.08562
11
-1.05632
21
-1.08555
0
LINE
8
BLACK
6
CONTINUOUS
10
-1.05632
20
-1.08555
11
-1.06661
21
-1.06773
0
LINE
8
BLACK
6
CONTINUOUS
10
-1.06661
20
-1.06773
11
-1.06663
21
-1.06763
0
LINE
8
BLACK
6
CONTINUOUS
10
-1.06663
20
-1.06763
11
-1.0667
21
-1.06754
0
LINE
8
BLACK
6
CONTINUOUS
10
-1.0667
20
-1.06754
11
-1.07306
21
-1.04797
0
LINE
8
BLACK
6
CONTINUOUS
10
-1.07306
20
-1.04797
11
-1.07305
21
-1.04787
0
LINE
8
BLACK
6
CONTINUOUS
10
-1.07305
20
-1.04787
11
-1.0731
21
-1.04777
0
LINE
8
BLACK
6
CONTINUOUS
10
-1.0731
20
-1.04777
11
-1.07525
21
-1.02731
0
LINE
8
BLACK
6
CONTINUOUS
10
-1.07525
20
-1.02731
11
-1.07522
21
-1.0272
0
LINE
8
BLACK
6
CONTINUOUS
10
-1.07522
20
-1.0272
11
-1.07525
21
-1.0271
0
LINE
8
BLACK
6
CONTINUOUS
10
-1.07525
20
-1.0271
11
-1.0731
21
-1.00664
0
LINE
8
BLACK
6
CONTINUOUS
10
-1.0731
20
-1.00664
11
-1.07305
21
-1.00655
0
LINE
8
BLACK
6
CONTINUOUS
10
-1.07305
20
-1.00655
11
-1.07306
21
-1.00644
0
LINE
8
BLACK
6
CONTINUOUS
10
-1.07306
20
-1.00644
11
-1.0667
21
-0.986869
0
LINE
8
BLACK
6
CONTINUOUS
10
-1.0667
20
-0.986869
11
-1.06663
21
-0.986788
0
LINE
8
BLACK
6
CONTINUOUS
10
-1.06663
20
-0.986788
11
-1.06661
21
-0.986681
0
LINE
8
BLACK
6
CONTINUOUS
10
-1.06661
20
-0.986681
11
-1.05632
21
-0.968862
0
LINE
8
BLACK
6
CONTINUOUS
10
-1.05632
20
-0.968862
11
-1.05624
21
-0.968797
0
LINE
8
BLACK
6
CONTINUOUS
10
-1.05624
20
-0.968797
11
-1.0562
21
-0.968696
0
LINE
8
BLACK
6
CONTINUOUS
10
-1.0562
20
-0.968696
11
-1.04244
21
-0.953404
0
LINE
8
BLACK
6
CONTINUOUS
10
-1.04244
20
-0.953404
11
-1.04242
21
-0.953398
0
LINE
8
BLACK
6
CONTINUOUS
10
-1.04242
20
-0.953398
11
-1.04242
21
-0.953385
0
LINE
8
BLACK
6
CONTINUOUS
10
-1.04242
20
-0.953385
11
-0.814721
21
-0.713704
0
LINE
8
BLACK
6
CONTINUOUS
10
-0.814721
20
-0.713704
11
-0.814635
21
-0.713666
0
LINE
8
BLACK
6
CONTINUOUS
10
-0.814635
20
-0.713666
11
-0.814586
21
-0.713586
0
LINE
8
BLACK
6
CONTINUOUS
10
-0.814586
20
-0.713586
11
-0.797941
21
-0.701491
0
LINE
8
BLACK
6
CONTINUOUS
10
-0.797941
20
-0.701491
11
-0.797836
21
-0.701466
0
LINE
8
BLACK
6
CONTINUOUS
10
-0.797836
20
-0.701466
11
-0.797762
21
-0.701388
0
LINE
8
BLACK
6
CONTINUOUS
10
-0.797762
20
-0.701388
11
-0.778963
21
-0.693018
0
LINE
8
BLACK
6
CONTINUOUS
10
-0.778963
20
-0.693018
11
-0.778856
21
-0.693015
0
LINE
8
BLACK
6
CONTINUOUS
10
-0.778856
20
-0.693015
11
-0.778768
21
-0.692955
0
LINE
8
BLACK
6
CONTINUOUS
10
-0.778768
20
-0.692955
11
-0.758642
21
-0.688675
0
LINE
8
BLACK
6
CONTINUOUS
10
-0.758642
20
-0.688675
11
-0.758536
21
-0.688695
0
LINE
8
BLACK
6
CONTINUOUS
10
-0.758536
20
-0.688695
11
-0.758437
21
-0.688654
0
LINE
8
BLACK
6
CONTINUOUS
10
-0.758437
20
-0.688654
11
-0.737858
21
-0.688654
0
LINE
8
BLACK
6
CONTINUOUS
10
-0.737858
20
-0.688654
11
-0.737759
21
-0.688695
0
LINE
8
BLACK
6
CONTINUOUS
10
-0.206681
20
-0.312834
11
-0.19707
21
-0.315141
0
LINE
8
BLACK
6
CONTINUOUS
10
-0.19707
20
-0.315141
11
-0.187938
21
-0.318924
0
LINE
8
BLACK
6
CONTINUOUS
10
-0.187938
20
-0.318924
11
-0.17951
21
-0.324089
0
LINE
8
BLACK
6
CONTINUOUS
10
-0.17951
20
-0.324089
11
-0.171993
21
-0.330508
0
LINE
8
BLACK
6
CONTINUOUS
10
-0.171993
20
-0.330508
11
-0.165574
21
-0.338025
0
LINE
8
BLACK
6
CONTINUOUS
10
-0.165574
20
-0.338025
11
-0.160409
21
-0.346453
0
LINE
8
BLACK
6
CONTINUOUS
10
-0.160409
20
-0.346453
11
-0.156626
21
-0.355585
0
LINE
8
BLACK
6
CONTINUOUS
10
-0.156626
20
-0.355585
11
-0.154319
21
-0.365196
0
LINE
8
BLACK
6
CONTINUOUS
10
-0.154319
20
-0.365196
11
-0.153543
21
-0.37505
0
LINE
8
BLACK
6
CONTINUOUS
10
-0.153543
20
-0.37505
11
-0.154319
21
-0.384904
0
LINE
8
BLACK
6
CONTINUOUS
10
-0.154319
20
-0.384904
11
-0.156626
21
-0.394516
0
LINE
8
BLACK
6
CONTINUOUS
10
-0.156626
20
-0.394516
11
-0.160409
21
-0.403648
0
LINE
8
BLACK
6
CONTINUOUS
10
-0.160409
20
-0.403648
11
-0.165574
21
-0.412076
0
LINE
8
BLACK
6
CONTINUOUS
10
-0.165574
20
-0.412076
11
-0.171993
21
-0.419593
0
LINE
8
BLACK
6
CONTINUOUS
10
-0.171993
20
-0.419593
11
-0.17951
21
-0.426012
0
LINE
8
BLACK
6
CONTINUOUS
10
-0.17951
20
-0.426012
11
-0.187938
21
-0.431177
0
LINE
8
BLACK
6
CONTINUOUS
10
-0.187938
20
-0.431177
11
-0.19707
21
-0.434959
0
LINE
8
BLACK
6
CONTINUOUS
10
-0.19707
20
-0.434959
11
-0.206681
21
-0.437267
0
LINE
8
BLACK
6
CONTINUOUS
10
-0.206681
20
-0.437267
11
-0.216535
21
-0.438042
0
LINE
8
BLACK
6
CONTINUOUS
10
-0.216535
20
-0.438042
11
-0.22639
21
-0.437267
0
LINE
8
BLACK
6
CONTINUOUS
10
-0.22639
20
-0.437267
11
-0.236001
21
-0.434959
0
LINE
8
BLACK
6
CONTINUOUS
10
-0.236001
20
-0.434959
11
-0.245133
21
-0.431177
0
LINE
8
BLACK
6
CONTINUOUS
10
-0.245133
20
-0.431177
11
-0.253561
21
-0.426012
0
LINE
8
BLACK
6
CONTINUOUS
10
-0.253561
20
-0.426012
11
-0.261078
21
-0.419593
0
LINE
8
BLACK
6
CONTINUOUS
10
-0.261078
20
-0.419593
11
-0.267497
21
-0.412076
0
LINE
8
BLACK
6
CONTINUOUS
10
-0.267497
20
-0.412076
11
-0.272662
21
-0.403648
0
LINE
8
BLACK
6
CONTINUOUS
10
-0.272662
20
-0.403648
11
-0.276444
21
-0.394516
0
LINE
8
BLACK
6
CONTINUOUS
10
-0.276444
20
-0.394516
11
-0.278752
21
-0.384904
0
LINE
8
BLACK
6
CONTINUOUS
10
-0.278752
20
-0.384904
11
-0.279528
21
-0.37505
0
LINE
8
BLACK
6
CONTINUOUS
10
-0.279528
20
-0.37505
11
-0.278752
21
-0.365196
0
LINE
8
BLACK
6
CONTINUOUS
10
-0.278752
20
-0.365196
11
-0.276444
21
-0.355585
0
LINE
8
BLACK
6
CONTINUOUS
10
-0.276444
20
-0.355585
11
-0.272662
21
-0.346453
0
LINE
8
BLACK
6
CONTINUOUS
10
-0.272662
20
-0.346453
11
-0.267497
21
-0.338025
0
LINE
8
BLACK
6
CONTINUOUS
10
-0.267497
20
-0.338025
11
-0.261078
21
-0.330508
0
LINE
8
BLACK
6
CONTINUOUS
10
-0.261078
20
-0.330508
11
-0.253561
21
-0.324089
0
LINE
8
BLACK
6
CONTINUOUS
10
-0.253561
20
-0.324089
11
-0.245133
21
-0.318924
0
LINE
8
BLACK
6
CONTINUOUS
10
-0.245133
20
-0.318924
11
-0.236001
21
-0.315141
0
LINE
8
BLACK
6
CONTINUOUS
10
-0.236001
20
-0.315141
11
-0.22639
21
-0.312834
0
LINE
8
BLACK
6
CONTINUOUS
10
-0.22639
20
-0.312834
11
-0.216535
21
-0.312058
0
LINE
8
BLACK
6
CONTINUOUS
10
-0.216535
20
-0.312058
11
-0.206681
21
-0.312834
0
LINE
8
BLACK
6
CONTINUOUS
10
0.442925
20
0.0622166
11
0.452536
21
0.0599091
0
LINE
8
BLACK
6
CONTINUOUS
10
0.452536
20
0.0599091
11
0.461669
21
0.0561264
0
LINE
8
BLACK
6
CONTINUOUS
10
0.461669
20
0.0561264
11
0.470097
21
0.0509617
0
LINE
8
BLACK
6
CONTINUOUS
10
0.470097
20
0.0509617
11
0.477613
21
0.0445422
0
LINE
8
BLACK
6
CONTINUOUS
10
0.477613
20
0.0445422
11
0.484033
21
0.0370258
0
LINE
8
BLACK
6
CONTINUOUS
10
0.484033
20
0.0370258
11
0.489197
21
0.0285978
0
LINE
8
BLACK
6
CONTINUOUS
10
0.489197
20
0.0285978
11
0.49298
21
0.0194656
0
LINE
8
BLACK
6
CONTINUOUS
10
0.49298
20
0.0194656
11
0.495287
21
0.00985413
0
LINE
8
BLACK
6
CONTINUOUS
10
0.495287
20
0.00985413
11
0.496063
21
0
0
LINE
8
BLACK
6
CONTINUOUS
10
0.496063
20
0
11
0.495287
21
-0.00985413
0
LINE
8
BLACK
6
CONTINUOUS
10
0.495287
20
-0.00985413
11
0.49298
21
-0.0194656
0
LINE
8
BLACK
6
CONTINUOUS
10
0.49298
20
-0.0194656
11
0.489197
21
-0.0285978
0
LINE
8
BLACK
6
CONTINUOUS
10
0.489197
20
-0.0285978
11
0.484033
21
-0.0370258
0
LINE
8
BLACK
6
CONTINUOUS
10
0.484033
20
-0.0370258
11
0.477613
21
-0.0445422
0
LINE
8
BLACK
6
CONTINUOUS
10
0.477613
20
-0.0445422
11
0.470097
21
-0.0509617
0
LINE
8
BLACK
6
CONTINUOUS
10
0.470097
20
-0.0509617
11
0.461669
21
-0.0561264
0
LINE
8
BLACK
6
CONTINUOUS
10
0.461669
20
-0.0561264
11
0.452536
21
-0.0599091
0
LINE
8
BLACK
6
CONTINUOUS
10
0.452536
20
-0.0599091
11
0.442925
21
-0.0622166
0
LINE
8
BLACK
6
CONTINUOUS
10
0.442925
20
-0.0622166
11
0.433071
21
-0.0629921
0
LINE
8
BLACK
6
CONTINUOUS
10
0.433071
20
-0.0629921
11
0.423217
21
-0.0622166
0
LINE
8
BLACK
6
CONTINUOUS
10
0.423217
20
-0.0622166
11
0.413605
21
-0.0599091
0
LINE
8
BLACK
6
CONTINUOUS
10
0.413605
20
-0.0599091
11
0.404473
21
-0.0561264
0
LINE
8
BLACK
6
CONTINUOUS
10
0.404473
20
-0.0561264
11
0.396045
21
-0.0509617
0
LINE
8
BLACK
6
CONTINUOUS
10
0.396045
20
-0.0509617
11
0.388529
21
-0.0445422
0
LINE
8
BLACK
6
CONTINUOUS
10
0.388529
20
-0.0445422
11
0.382109
21
-0.0370258
0
LINE
8
BLACK
6
CONTINUOUS
10
0.382109
20
-0.0370258
11
0.376944
21
-0.0285978
0
LINE
8
BLACK
6
CONTINUOUS
10
0.376944
20
-0.0285978
11
0.373162
21
-0.0194656
0
LINE
8
BLACK
6
CONTINUOUS
10
0.373162
20
-0.0194656
11
0.370854
21
-0.00985413
0
LINE
8
BLACK
6
CONTINUOUS
10
0.370854
20
-0.00985413
11
0.370079
21
0
0
LINE
8
BLACK
6
CONTINUOUS
10
0.370079
20
0
11
0.370854
21
0.00985413
0
LINE
8
BLACK
6
CONTINUOUS
10
0.370854
20
0.00985413
11
0.373162
21
0.0194656
0
LINE
8
BLACK
6
CONTINUOUS
10
0.373162
20
0.0194656
11
0.376944
21
0.0285978
0
LINE
8
BLACK
6
CONTINUOUS
10
0.376944
20
0.0285978
11
0.382109
21
0.0370258
0
LINE
8
BLACK
6
CONTINUOUS
10
0.382109
20
0.0370258
11
0.388529
21
0.0445422
0
LINE
8
BLACK
6
CONTINUOUS
10
0.388529
20
0.0445422
11
0.396045
21
0.0509617
0
LINE
8
BLACK
6
CONTINUOUS
10
0.396045
20
0.0509617
11
0.404473
21
0.0561264
0
LINE
8
BLACK
6
CONTINUOUS
10
0.404473
20
0.0561264
11
0.413605
21
0.0599091
0
LINE
8
BLACK
6
CONTINUOUS
10
0.413605
20
0.0599091
11
0.423217
21
0.0622166
0
LINE
8
BLACK
6
CONTINUOUS
10
0.423217
20
0.0622166
11
0.433071
21
0.0629921
0
LINE
8
BLACK
6
CONTINUOUS
10
0.433071
20
0.0629921
11
0.442925
21
0.0622166
0
LINE
8
BLACK
6
CONTINUOUS
10
-0.206681
20
0.437267
11
-0.19707
21
0.434959
0
LINE
8
BLACK
6
CONTINUOUS
10
-0.19707
20
0.434959
11
-0.187938
21
0.431177
0
LINE
8
BLACK
6
CONTINUOUS
10
-0.187938
20
0.431177
11
-0.17951
21
0.426012
0
LINE
8
BLACK
6
CONTINUOUS
10
-0.17951
20
0.426012
11
-0.171993
21
0.419593
0
LINE
8
BLACK
6
CONTINUOUS
10
-0.171993
20
0.419593
11
-0.165574
21
0.412076
0
LINE
8
BLACK
6
CONTINUOUS
10
-0.165574
20
0.412076
11
-0.160409
21
0.403648
0
LINE
8
BLACK
6
CONTINUOUS
10
-0.160409
20
0.403648
11
-0.156626
21
0.394516
0
LINE
8
BLACK
6
CONTINUOUS
10
-0.156626
20
0.394516
11
-0.154319
21
0.384904
0
LINE
8
BLACK
6
CONTINUOUS
10
-0.154319
20
0.384904
11
-0.153543
21
0.37505
0
LINE
8
BLACK
6
CONTINUOUS
10
-0.153543
20
0.37505
11
-0.154319
21
0.365196
0
LINE
8
BLACK
6
CONTINUOUS
10
-0.154319
20
0.365196
11
-0.156626
21
0.355585
0
LINE
8
BLACK
6
CONTINUOUS
10
-0.156626
20
0.355585
11
-0.160409
21
0.346453
0
LINE
8
BLACK
6
CONTINUOUS
10
-0.160409
20
0.346453
11
-0.165574
21
0.338025
0
LINE
8
BLACK
6
CONTINUOUS
10
-0.165574
20
0.338025
11
-0.171993
21
0.330508
0
LINE
8
BLACK
6
CONTINUOUS
10
-0.171993
20
0.330508
11
-0.17951
21
0.324089
0
LINE
8
BLACK
6
CONTINUOUS
10
-0.17951
20
0.324089
11
-0.187938
21
0.318924
0
LINE
8
BLACK
6
CONTINUOUS
10
-0.187938
20
0.318924
11
-0.19707
21
0.315141
0
LINE
8
BLACK
6
CONTINUOUS
10
-0.19707
20
0.315141
11
-0.206681
21
0.312834
0
LINE
8
BLACK
6
CONTINUOUS
10
-0.206681
20
0.312834
11
-0.216535
21
0.312058
0
LINE
8
BLACK
6
CONTINUOUS
10
-0.216535
20
0.312058
11
-0.22639
21
0.312834
0
LINE
8
BLACK
6
CONTINUOUS
10
-0.22639
20
0.312834
11
-0.236001
21
0.315141
0
LINE
8
BLACK
6
CONTINUOUS
10
-0.236001
20
0.315141
11
-0.245133
21
0.318924
0
LINE
8
BLACK
6
CONTINUOUS
10
-0.245133
20
0.318924
11
-0.253561
21
0.324089
0
LINE
8
BLACK
6
CONTINUOUS
10
-0.253561
20
0.324089
11
-0.261078
21
0.330508
0
LINE
8
BLACK
6
CONTINUOUS
10
-0.261078
20
0.330508
11
-0.267497
21
0.338025
0
LINE
8
BLACK
6
CONTINUOUS
10
-0.267497
20
0.338025
11
-0.272662
21
0.346453
0
LINE
8
BLACK
6
CONTINUOUS
10
-0.272662
20
0.346453
11
-0.276444
21
0.355585
0
LINE
8
BLACK
6
CONTINUOUS
10
-0.276444
20
0.355585
11
-0.278752
21
0.365196
0
LINE
8
BLACK
6
CONTINUOUS
10
-0.278752
20
0.365196
11
-0.279528
21
0.37505
0
LINE
8
BLACK
6
CONTINUOUS
10
-0.279528
20
0.37505
11
-0.278752
21
0.384904
0
LINE
8
BLACK
6
CONTINUOUS
10
-0.278752
20
0.384904
11
-0.276444
21
0.394516
0
LINE
8
BLACK
6
CONTINUOUS
10
-0.276444
20
0.394516
11
-0.272662
21
0.403648
0
LINE
8
BLACK
6
CONTINUOUS
10
-0.272662
20
0.403648
11
-0.267497
21
0.412076
0
LINE
8
BLACK
6
CONTINUOUS
10
-0.267497
20
0.412076
11
-0.261078
21
0.419593
0
LINE
8
BLACK
6
CONTINUOUS
10
-0.261078
20
0.419593
11
-0.253561
21
0.426012
0
LINE
8
BLACK
6
CONTINUOUS
10
-0.253561
20
0.426012
11
-0.245133
21
0.431177
0
LINE
8
BLACK
6
CONTINUOUS
10
-0.245133
20
0.431177
11
-0.236001
21
0.434959
0
LINE
8
BLACK
6
CONTINUOUS
10
-0.236001
20
0.434959
11
-0.22639
21
0.437267
0
LINE
8
BLACK
6
CONTINUOUS
10
-0.22639
20
0.437267
11
-0.216535
21
0.438042
0
LINE
8
BLACK
6
CONTINUOUS
10
-0.216535
20
0.438042
11
-0.206681
21
0.437267
0
LINE
8
BLACK
6
CONTINUOUS
10
0.0103001
20
1.51619
11
0.0103131
21
1.51619
0
LINE
8
BLACK
6
CONTINUOUS
10
0.0103131
20
1.51619
11
0.08449
21
1.51425
0
LINE
8
BLACK
6
CONTINUOUS
10
0.08449
20
1.51425
11
0.0845152
21
1.51424
0
LINE
8
BLACK
6
CONTINUOUS
10
0.0845152
20
1.51424
11
0.0845415
21
1.51425
0
LINE
8
BLACK
6
CONTINUOUS
10
0.0845415
20
1.51425
11
0.158516
21
1.50843
0
LINE
8
BLACK
6
CONTINUOUS
10
0.158516
20
1.50843
11
0.15854
21
1.50841
0
LINE
8
BLACK
6
CONTINUOUS
10
0.15854
20
1.50841
11
0.158567
21
1.50842
0
LINE
8
BLACK
6
CONTINUOUS
10
0.158567
20
1.50842
11
0.232134
21
1.49874
0
LINE
8
BLACK
6
CONTINUOUS
10
0.232134
20
1.49874
11
0.232158
21
1.49872
0
LINE
8
BLACK
6
CONTINUOUS
10
0.232158
20
1.49872
11
0.232185
21
1.49873
0
LINE
8
BLACK
6
CONTINUOUS
10
0.232185
20
1.49873
11
0.305145
21
1.4852
0
LINE
8
BLACK
6
CONTINUOUS
10
0.305145
20
1.4852
11
0.305157
21
1.4852
0
LINE
8
BLACK
6
CONTINUOUS
10
0.305157
20
1.4852
11
0.30517
21
1.4852
0
LINE
8
BLACK
6
CONTINUOUS
10
0.30517
20
1.4852
11
0.325297
21
1.48092
0
LINE
8
BLACK
6
CONTINUOUS
10
0.325297
20
1.48092
11
0.325308
21
1.48091
0
LINE
8
BLACK
6
CONTINUOUS
10
0.325308
20
1.48091
11
0.325322
21
1.48091
0
LINE
8
BLACK
6
CONTINUOUS
10
0.325322
20
1.48091
11
0.397473
21
1.46359
0
LINE
8
BLACK
6
CONTINUOUS
10
0.397473
20
1.46359
11
0.397496
21
1.46358
0
LINE
8
BLACK
6
CONTINUOUS
10
0.397496
20
1.46358
11
0.397523
21
1.46358
0
LINE
8
BLACK
6
CONTINUOUS
10
0.397523
20
1.46358
11
0.468669
21
1.44251
0
LINE
8
BLACK
6
CONTINUOUS
10
0.468669
20
1.44251
11
0.46869
21
1.44249
0
LINE
8
BLACK
6
CONTINUOUS
10
0.46869
20
1.44249
11
0.468718
21
1.44249
0
LINE
8
BLACK
6
CONTINUOUS
10
0.468718
20
1.44249
11
0.538667
21
1.41772
0
LINE
8
BLACK
6
CONTINUOUS
10
0.538667
20
1.41772
11
0.538687
21
1.4177
0
LINE
8
BLACK
6
CONTINUOUS
10
0.538687
20
1.4177
11
0.538715
21
1.4177
0
LINE
8
BLACK
6
CONTINUOUS
10
0.538715
20
1.4177
11
0.60727
21
1.38931
0
LINE
8
BLACK
6
CONTINUOUS
10
0.60727
20
1.38931
11
0.60728
21
1.3893
0
LINE
8
BLACK
6
CONTINUOUS
10
0.60728
20
1.3893
11
0.607294
21
1.3893
0
LINE
8
BLACK
6
CONTINUOUS
10
0.607294
20
1.3893
11
0.626089
21
1.38093
0
LINE
8
BLACK
6
CONTINUOUS
10
0.626089
20
1.38093
11
0.626099
21
1.38092
0
LINE
8
BLACK
6
CONTINUOUS
10
0.626099
20
1.38092
11
0.626112
21
1.38092
0
LINE
8
BLACK
6
CONTINUOUS
10
0.626112
20
1.38092
11
0.693089
21
1.34897
0
LINE
8
BLACK
6
CONTINUOUS
10
0.693089
20
1.34897
11
0.693107
21
1.34895
0
LINE
8
BLACK
6
CONTINUOUS
10
0.693107
20
1.34895
11
0.693135
21
1.34895
0
LINE
8
BLACK
6
CONTINUOUS
10
0.693135
20
1.34895
11
0.758343
21
1.31354
0
LINE
8
BLACK
6
CONTINUOUS
10
0.758343
20
1.31354
11
0.758361
21
1.31352
0
LINE
8
BLACK
6
CONTINUOUS
10
0.758361
20
1.31352
11
0.758388
21
1.31352
0
LINE
8
BLACK
6
CONTINUOUS
10
0.758388
20
1.31352
11
0.821656
21
1.27474
0
LINE
8
BLACK
6
CONTINUOUS
10
0.821656
20
1.27474
11
0.821672
21
1.27472
0
LINE
8
BLACK
6
CONTINUOUS
10
0.821672
20
1.27472
11
0.821699
21
1.27472
0
LINE
8
BLACK
6
CONTINUOUS
10
0.821699
20
1.27472
11
0.882852
21
1.23269
0
LINE
8
BLACK
6
CONTINUOUS
10
0.882852
20
1.23269
11
0.88286
21
1.23268
0
LINE
8
BLACK
6
CONTINUOUS
10
0.88286
20
1.23268
11
0.882874
21
1.23267
0
LINE
8
BLACK
6
CONTINUOUS
10
0.882874
20
1.23267
11
0.899519
21
1.22058
0
LINE
8
BLACK
6
CONTINUOUS
10
0.899519
20
1.22058
11
0.899526
21
1.22057
0
LINE
8
BLACK
6
CONTINUOUS
10
0.899526
20
1.22057
11
0.89954
21
1.22056
0
LINE
8
BLACK
6
CONTINUOUS
10
0.89954
20
1.22056
11
0.95841
21
1.17539
0
LINE
8
BLACK
6
CONTINUOUS
10
0.95841
20
1.17539
11
0.958424
21
1.17537
0
LINE
8
BLACK
6
CONTINUOUS
10
0.958424
20
1.17537
11
0.95845
21
1.17536
0
LINE
8
BLACK
6
CONTINUOUS
10
0.95845
20
1.17536
11
1.01487
21
1.12717
0
LINE
8
BLACK
6
CONTINUOUS
10
1.01487
20
1.12717
11
1.01488
21
1.12715
0
LINE
8
BLACK
6
CONTINUOUS
10
1.01488
20
1.12715
11
1.01491
21
1.12714
0
LINE
8
BLACK
6
CONTINUOUS
10
1.01491
20
1.12714
11
1.04238
21
1.10106
0
LINE
8
BLACK
6
CONTINUOUS
10
1.04238
20
1.10106
11
1.0424
21
1.10103
0
LINE
8
BLACK
6
CONTINUOUS
10
1.0424
20
1.10103
11
1.04244
21
1.10101
0
LINE
8
BLACK
6
CONTINUOUS
10
1.04244
20
1.10101
11
1.0562
21
1.08572
0
LINE
8
BLACK
6
CONTINUOUS
10
1.0562
20
1.08572
11
1.05624
21
1.08562
0
LINE
8
BLACK
6
CONTINUOUS
10
1.05624
20
1.08562
11
1.05632
21
1.08555
0
LINE
8
BLACK
6
CONTINUOUS
10
1.05632
20
1.08555
11
1.06661
21
1.06773
0
LINE
8
BLACK
6
CONTINUOUS
10
1.06661
20
1.06773
11
1.06663
21
1.06763
0
LINE
8
BLACK
6
CONTINUOUS
10
1.06663
20
1.06763
11
1.0667
21
1.06754
0
LINE
8
BLACK
6
CONTINUOUS
10
1.0667
20
1.06754
11
1.07306
21
1.04797
0
LINE
8
BLACK
6
CONTINUOUS
10
1.07306
20
1.04797
11
1.07305
21
1.04787
0
LINE
8
BLACK
6
CONTINUOUS
10
1.07305
20
1.04787
11
1.0731
21
1.04777
0
LINE
8
BLACK
6
CONTINUOUS
10
1.0731
20
1.04777
11
1.07525
21
1.02731
0
LINE
8
BLACK
6
CONTINUOUS
10
1.07525
20
1.02731
11
1.07522
21
1.0272
0
LINE
8
BLACK
6
CONTINUOUS
10
1.07522
20
1.0272
11
1.07525
21
1.0271
0
LINE
8
BLACK
6
CONTINUOUS
10
1.07525
20
1.0271
11
1.0731
21
1.00664
0
LINE
8
BLACK
6
CONTINUOUS
10
1.0731
20
1.00664
11
1.07305
21
1.00655
0
LINE
8
BLACK
6
CONTINUOUS
10
1.07305
20
1.00655
11
1.07306
21
1.00644
0
LINE
8
BLACK
6
CONTINUOUS
10
1.07306
20
1.00644
11
1.0667
21
0.986869
0
LINE
8
BLACK
6
CONTINUOUS
10
1.0667
20
0.986869
11
1.06663
21
0.986787
0
LINE
8
BLACK
6
CONTINUOUS
10
1.06663
20
0.986787
11
1.06661
21
0.986681
0
LINE
8
BLACK
6
CONTINUOUS
10
1.06661
20
0.986681
11
1.05632
21
0.968862
0
LINE
8
BLACK
6
CONTINUOUS
10
1.05632
20
0.968862
11
1.05624
21
0.968797
0
LINE
8
BLACK
6
CONTINUOUS
10
1.05624
20
0.968797
11
1.0562
21
0.968696
0
LINE
8
BLACK
6
CONTINUOUS
10
1.0562
20
0.968696
11
1.04244
21
0.953404
0
LINE
8
BLACK
6
CONTINUOUS
10
1.04244
20
0.953404
11
1.04242
21
0.953398
0
LINE
8
BLACK
6
CONTINUOUS
10
1.04242
20
0.953398
11
1.04242
21
0.953385
0
LINE
8
BLACK
6
CONTINUOUS
10
1.04242
20
0.953385
11
0.814721
21
0.713704
0
LINE
8
BLACK
6
CONTINUOUS
10
0.814721
20
0.713704
11
0.814635
21
0.713666
0
LINE
8
BLACK
6
CONTINUOUS
10
0.814635
20
0.713666
11
0.814586
21
0.713586
0
LINE
8
BLACK
6
CONTINUOUS
10
0.814586
20
0.713586
11
0.79794
21
0.701491
0
LINE
8
BLACK
6
CONTINUOUS
10
0.79794
20
0.701491
11
0.797836
21
0.701466
0
LINE
8
BLACK
6
CONTINUOUS
10
0.797836
20
0.701466
11
0.797762
21
0.701388
0
LINE
8
BLACK
6
CONTINUOUS
10
0.797762
20
0.701388
11
0.778963
21
0.693018
0
LINE
8
BLACK
6
CONTINUOUS
10
0.778963
20
0.693018
11
0.778856
21
0.693015
0
LINE
8
BLACK
6
CONTINUOUS
10
0.778856
20
0.693015
11
0.778767
21
0.692955
0
LINE
8
BLACK
6
CONTINUOUS
10
0.778767
20
0.692955
11
0.758641
21
0.688675
0
LINE
8
BLACK
6
CONTINUOUS
10
0.758641
20
0.688675
11
0.758536
21
0.688695
0
LINE
8
BLACK
6
CONTINUOUS
10
0.758536
20
0.688695
11
0.758437
21
0.688654
0
LINE
8
BLACK
6
CONTINUOUS
10
0.758437
20
0.688654
11
0.737858
21
0.688654
0
LINE
8
BLACK
6
CONTINUOUS
10
0.737858
20
0.688654
11
0.737759
21
0.688695
0
LINE
8
BLACK
6
CONTINUOUS
10
0.737759
20
0.688695
11
0.737654
21
0.688675
0
LINE
8
BLACK
6
CONTINUOUS
10
0.737654
20
0.688675
11
0.717528
21
0.692955
0
LINE
8
BLACK
6
CONTINUOUS
10
0.717528
20
0.692955
11
0.717439
21
0.693015
0
LINE
8
BLACK
6
CONTINUOUS
10
0.717439
20
0.693015
11
0.717332
21
0.693018
0
LINE
8
BLACK
6
CONTINUOUS
10
0.717332
20
0.693018
11
0.698537
21
0.701388
0
LINE
8
BLACK
6
CONTINUOUS
10
0.698537
20
0.701388
11
0.698463
21
0.701466
0
LINE
8
BLACK
6
CONTINUOUS
10
0.698463
20
0.701466
11
0.698359
21
0.701491
0
LINE
8
BLACK
6
CONTINUOUS
10
0.698359
20
0.701491
11
0.681709
21
0.713586
0
LINE
8
BLACK
6
CONTINUOUS
10
0.681709
20
0.713586
11
0.681673
21
0.713644
0
LINE
8
BLACK
6
CONTINUOUS
10
0.681673
20
0.713644
11
0.68161
21
0.713668
0
LINE
8
BLACK
6
CONTINUOUS
10
0.68161
20
0.713668
11
0.660569
21
0.733635
0
LINE
8
BLACK
6
CONTINUOUS
10
0.660569
20
0.733635
11
0.617349
21
0.77055
0
LINE
8
BLACK
6
CONTINUOUS
10
0.617349
20
0.77055
11
0.580421
21
0.798885
0
LINE
8
BLACK
6
CONTINUOUS
10
0.580421
20
0.798885
11
0.542062
21
0.825245
0
LINE
8
BLACK
6
CONTINUOUS
10
0.542062
20
0.825245
11
0.493602
21
0.854943
0
LINE
8
BLACK
6
CONTINUOUS
10
0.493602
20
0.854943
11
0.443652
21
0.882063
0
LINE
8
BLACK
6
CONTINUOUS
10
0.443652
20
0.882063
11
0.401642
21
0.902101
0
LINE
8
BLACK
6
CONTINUOUS
10
0.401642
20
0.902101
11
0.358639
21
0.919916
0
LINE
8
BLACK
6
CONTINUOUS
10
0.358639
20
0.919916
11
0.305063
21
0.938886
0
LINE
8
BLACK
6
CONTINUOUS
10
0.305063
20
0.938886
11
0.250566
21
0.955029
0
LINE
8
BLACK
6
CONTINUOUS
10
0.250566
20
0.955029
11
0.205307
21
0.965895
0
LINE
8
BLACK
6
CONTINUOUS
10
0.205307
20
0.965895
11
0.159541
21
0.974378
0
LINE
8
BLACK
6
CONTINUOUS
10
0.159541
20
0.974378
11
0.103191
21
0.981796
0
LINE
8
BLACK
6
CONTINUOUS
10
0.103191
20
0.981796
11
0.0465287
21
0.986257
0
LINE
8
BLACK
6
CONTINUOUS
10
0.0465287
20
0.986257
11
-1.1811e-07
21
0.987472
0
LINE
8
BLACK
6
CONTINUOUS
10
-1.1811e-07
20
0.987472
11
-0.0465289
21
0.986257
0
LINE
8
BLACK
6
CONTINUOUS
10
-0.0465289
20
0.986257
11
-0.103191
21
0.981796
0
LINE
8
BLACK
6
CONTINUOUS
10
-0.103191
20
0.981796
11
-0.159541
21
0.974378
0
LINE
8
BLACK
6
CONTINUOUS
10
-0.159541
20
0.974378
11
-0.205307
21
0.965895
0
LINE
8
BLACK
6
CONTINUOUS
10
-0.205307
20
0.965895
11
-0.250566
21
0.955029
0
LINE
8
BLACK
6
CONTINUOUS
10
-0.250566
20
0.955029
11
-0.305062
21
0.938887
0
LINE
8
BLACK
6
CONTINUOUS
10
-0.305062
20
0.938887
11
-0.358639
21
0.919916
0
LINE
8
BLACK
6
CONTINUOUS
10
-0.358639
20
0.919916
11
-0.401643
21
0.9021
0
LINE
8
BLACK
6
CONTINUOUS
10
-0.401643
20
0.9021
11
-0.443652
21
0.882063
0
LINE
8
BLACK
6
CONTINUOUS
10
-0.443652
20
0.882063
11
-0.493602
21
0.854943
0
LINE
8
BLACK
6
CONTINUOUS
10
-0.493602
20
0.854943
11
-0.542062
21
0.825245
0
LINE
8
BLACK
6
CONTINUOUS
10
-0.542062
20
0.825245
11
-0.580421
21
0.798885
0
LINE
8
BLACK
6
CONTINUOUS
10
-0.580421
20
0.798885
11
-0.617349
21
0.77055
0
LINE
8
BLACK
6
CONTINUOUS
10
-0.617349
20
0.77055
11
-0.66057
21
0.733634
0
LINE
8
BLACK
6
CONTINUOUS
10
-0.66057
20
0.733634
11
-0.68161
21
0.713668
0
LINE
8
BLACK
6
CONTINUOUS
10
-0.68161
20
0.713668
11
-0.681674
21
0.713644
0
LINE
8
BLACK
6
CONTINUOUS
10
-0.681674
20
0.713644
11
-0.681709
21
0.713586
0
LINE
8
BLACK
6
CONTINUOUS
10
-0.681709
20
0.713586
11
-0.698359
21
0.701491
0
LINE
8
BLACK
6
CONTINUOUS
10
-0.698359
20
0.701491
11
-0.698463
21
0.701466
0
LINE
8
BLACK
6
CONTINUOUS
10
-0.698463
20
0.701466
11
-0.698537
21
0.701388
0
LINE
8
BLACK
6
CONTINUOUS
10
-0.698537
20
0.701388
11
-0.717332
21
0.693018
0
LINE
8
BLACK
6
CONTINUOUS
10
-0.717332
20
0.693018
11
-0.717439
21
0.693015
0
LINE
8
BLACK
6
CONTINUOUS
10
-0.717439
20
0.693015
11
-0.717528
21
0.692955
0
LINE
8
BLACK
6
CONTINUOUS
10
-0.717528
20
0.692955
11
-0.737654
21
0.688675
0
LINE
8
BLACK
6
CONTINUOUS
10
-0.737654
20
0.688675
11
-0.737759
21
0.688695
0
LINE
8
BLACK
6
CONTINUOUS
10
-0.737759
20
0.688695
11
-0.737858
21
0.688654
0
LINE
8
BLACK
6
CONTINUOUS
10
-0.737858
20
0.688654
11
-0.758437
21
0.688654
0
LINE
8
BLACK
6
CONTINUOUS
10
-0.758437
20
0.688654
11
-0.758536
21
0.688695
0
LINE
8
BLACK
6
CONTINUOUS
10
-0.758536
20
0.688695
11
-0.758642
21
0.688675
0
LINE
8
BLACK
6
CONTINUOUS
10
-0.758642
20
0.688675
11
-0.778768
21
0.692955
0
LINE
8
BLACK
6
CONTINUOUS
10
-0.778768
20
0.692955
11
-0.778856
21
0.693015
0
LINE
8
BLACK
6
CONTINUOUS
10
-0.778856
20
0.693015
11
-0.778964
21
0.693018
0
LINE
8
BLACK
6
CONTINUOUS
10
-0.778964
20
0.693018
11
-0.797763
21
0.701388
0
LINE
8
BLACK
6
CONTINUOUS
10
-0.797763
20
0.701388
11
-0.797837
21
0.701466
0
LINE
8
BLACK
6
CONTINUOUS
10
-0.797837
20
0.701466
11
-0.797941
21
0.701491
0
LINE
8
BLACK
6
CONTINUOUS
10
-0.797941
20
0.701491
11
-0.814587
21
0.713586
0
LINE
8
BLACK
6
CONTINUOUS
10
-0.814587
20
0.713586
11
-0.814636
21
0.713666
0
LINE
8
BLACK
6
CONTINUOUS
10
-0.814636
20
0.713666
11
-0.814722
21
0.713704
0
LINE
8
BLACK
6
CONTINUOUS
10
-0.814722
20
0.713704
11
-1.04242
21
0.953385
0
LINE
8
BLACK
6
CONTINUOUS
10
-1.04242
20
0.953385
11
-1.04242
21
0.953398
0
LINE
8
BLACK
6
CONTINUOUS
10
-1.04242
20
0.953398
11
-1.04244
21
0.953404
0
LINE
8
BLACK
6
CONTINUOUS
10
-1.04244
20
0.953404
11
-1.0562
21
0.968696
0
LINE
8
BLACK
6
CONTINUOUS
10
-1.0562
20
0.968696
11
-1.05624
21
0.968797
0
LINE
8
BLACK
6
CONTINUOUS
10
-1.05624
20
0.968797
11
-1.05633
21
0.968862
0
LINE
8
BLACK
6
CONTINUOUS
10
-1.05633
20
0.968862
11
-1.06661
21
0.986681
0
LINE
8
BLACK
6
CONTINUOUS
10
-1.06661
20
0.986681
11
-1.06663
21
0.986787
0
LINE
8
BLACK
6
CONTINUOUS
10
-1.06663
20
0.986787
11
-1.0667
21
0.986869
0
LINE
8
BLACK
6
CONTINUOUS
10
-1.0667
20
0.986869
11
-1.07306
21
1.00644
0
LINE
8
BLACK
6
CONTINUOUS
10
-1.07306
20
1.00644
11
-1.07305
21
1.00655
0
LINE
8
BLACK
6
CONTINUOUS
10
-1.07305
20
1.00655
11
-1.0731
21
1.00664
0
LINE
8
BLACK
6
CONTINUOUS
10
-1.0731
20
1.00664
11
-1.07525
21
1.0271
0
LINE
8
BLACK
6
CONTINUOUS
10
-1.07525
20
1.0271
11
-1.07522
21
1.0272
0
LINE
8
BLACK
6
CONTINUOUS
10
-1.07522
20
1.0272
11
-1.07525
21
1.02731
0
LINE
8
BLACK
6
CONTINUOUS
10
-1.07525
20
1.02731
11
-1.0731
21
1.04777
0
LINE
8
BLACK
6
CONTINUOUS
10
-1.0731
20
1.04777
11
-1.07305
21
1.04787
0
LINE
8
BLACK
6
CONTINUOUS
10
-1.07305
20
1.04787
11
-1.07306
21
1.04797
0
LINE
8
BLACK
6
CONTINUOUS
10
-1.07306
20
1.04797
11
-1.0667
21
1.06754
0
LINE
8
BLACK
6
CONTINUOUS
10
-1.0667
20
1.06754
11
-1.06663
21
1.06763
0
LINE
8
BLACK
6
CONTINUOUS
10
-1.06663
20
1.06763
11
-1.06661
21
1.06773
0
LINE
8
BLACK
6
CONTINUOUS
10
-1.06661
20
1.06773
11
-1.05633
21
1.08555
0
LINE
8
BLACK
6
CONTINUOUS
10
-1.05633
20
1.08555
11
-1.05624
21
1.08562
0
LINE
8
BLACK
6
CONTINUOUS
10
-1.05624
20
1.08562
11
-1.0562
21
1.08572
0
LINE
8
BLACK
6
CONTINUOUS
10
-1.0562
20
1.08572
11
-1.04244
21
1.10101
0
LINE
8
BLACK
6
CONTINUOUS
10
-1.04244
20
1.10101
11
-1.0424
21
1.10103
0
LINE
8
BLACK
6
CONTINUOUS
10
-1.0424
20
1.10103
11
-1.04238
21
1.10106
0
LINE
8
BLACK
6
CONTINUOUS
10
-1.04238
20
1.10106
11
-1.01491
21
1.12714
0
LINE
8
BLACK
6
CONTINUOUS
10
-1.01491
20
1.12714
11
-1.01488
21
1.12715
0
LINE
8
BLACK
6
CONTINUOUS
10
-1.01488
20
1.12715
11
-1.01487
21
1.12717
0
LINE
8
BLACK
6
CONTINUOUS
10
-1.01487
20
1.12717
11
-0.95845
21
1.17536
0
LINE
8
BLACK
6
CONTINUOUS
10
-0.95845
20
1.17536
11
-0.958424
21
1.17537
0
LINE
8
BLACK
6
CONTINUOUS
10
-0.958424
20
1.17537
11
-0.95841
21
1.17539
0
LINE
8
BLACK
6
CONTINUOUS
10
-0.95841
20
1.17539
11
-0.89954
21
1.22056
0
LINE
8
BLACK
6
CONTINUOUS
10
-0.89954
20
1.22056
11
-0.899527
21
1.22057
0
LINE
8
BLACK
6
CONTINUOUS
10
-0.899527
20
1.22057
11
-0.89952
21
1.22058
0
LINE
8
BLACK
6
CONTINUOUS
10
-0.89952
20
1.22058
11
-0.882874
21
1.23267
0
LINE
8
BLACK
6
CONTINUOUS
10
-0.882874
20
1.23267
11
-0.882861
21
1.23268
0
LINE
8
BLACK
6
CONTINUOUS
10
-0.882861
20
1.23268
11
-0.882853
21
1.23269
0
LINE
8
BLACK
6
CONTINUOUS
10
-0.882853
20
1.23269
11
-0.8217
21
1.27472
0
LINE
8
BLACK
6
CONTINUOUS
10
-0.8217
20
1.27472
11
-0.821673
21
1.27472
0
LINE
8
BLACK
6
CONTINUOUS
10
-0.821673
20
1.27472
11
-0.821656
21
1.27474
0
LINE
8
BLACK
6
CONTINUOUS
10
-0.821656
20
1.27474
11
-0.758389
21
1.31352
0
LINE
8
BLACK
6
CONTINUOUS
10
-0.758389
20
1.31352
11
-0.758361
21
1.31352
0
LINE
8
BLACK
6
CONTINUOUS
10
-0.758361
20
1.31352
11
-0.758344
21
1.31354
0
LINE
8
BLACK
6
CONTINUOUS
10
-0.758344
20
1.31354
11
-0.693135
21
1.34895
0
LINE
8
BLACK
6
CONTINUOUS
10
-0.693135
20
1.34895
11
-0.693108
21
1.34895
0
LINE
8
BLACK
6
CONTINUOUS
10
-0.693108
20
1.34895
11
-0.693089
21
1.34897
0
LINE
8
BLACK
6
CONTINUOUS
10
-0.693089
20
1.34897
11
-0.626113
21
1.38092
0
LINE
8
BLACK
6
CONTINUOUS
10
-0.626113
20
1.38092
11
-0.626099
21
1.38092
0
LINE
8
BLACK
6
CONTINUOUS
10
-0.626099
20
1.38092
11
-0.62609
21
1.38093
0
LINE
8
BLACK
6
CONTINUOUS
10
-0.62609
20
1.38093
11
-0.607294
21
1.3893
0
LINE
8
BLACK
6
CONTINUOUS
10
-0.607294
20
1.3893
11
-0.607281
21
1.3893
0
LINE
8
BLACK
6
CONTINUOUS
10
-0.607281
20
1.3893
11
-0.607271
21
1.38931
0
LINE
8
BLACK
6
CONTINUOUS
10
-0.607271
20
1.38931
11
-0.538715
21
1.4177
0
LINE
8
BLACK
6
CONTINUOUS
10
-0.538715
20
1.4177
11
-0.538688
21
1.4177
0
LINE
8
BLACK
6
CONTINUOUS
10
-0.538688
20
1.4177
11
-0.538667
21
1.41772
0
LINE
8
BLACK
6
CONTINUOUS
10
-0.538667
20
1.41772
11
-0.468719
21
1.44249
0
LINE
8
BLACK
6
CONTINUOUS
10
-0.468719
20
1.44249
11
-0.468691
21
1.44249
0
LINE
8
BLACK
6
CONTINUOUS
10
-0.468691
20
1.44249
11
-0.46867
21
1.44251
0
LINE
8
BLACK
6
CONTINUOUS
10
-0.46867
20
1.44251
11
-0.397524
21
1.46358
0
LINE
8
BLACK
6
CONTINUOUS
10
-0.397524
20
1.46358
11
-0.397496
21
1.46358
0
LINE
8
BLACK
6
CONTINUOUS
10
-0.397496
20
1.46358
11
-0.397474
21
1.46359
0
LINE
8
BLACK
6
CONTINUOUS
10
-0.397474
20
1.46359
11
-0.325322
21
1.48091
0
LINE
8
BLACK
6
CONTINUOUS
10
-0.325322
20
1.48091
11
-0.325309
21
1.48091
0
LINE
8
BLACK
6
CONTINUOUS
10
-0.325309
20
1.48091
11
-0.325297
21
1.48092
0
LINE
8
BLACK
6
CONTINUOUS
10
-0.325297
20
1.48092
11
-0.305171
21
1.4852
0
LINE
8
BLACK
6
CONTINUOUS
10
-0.305171
20
1.4852
11
-0.305158
21
1.4852
0
LINE
8
BLACK
6
CONTINUOUS
10
-0.305158
20
1.4852
11
-0.305146
21
1.4852
0
LINE
8
BLACK
6
CONTINUOUS
10
-0.305146
20
1.4852
11
-0.232186
21
1.49873
0
LINE
8
BLACK
6
CONTINUOUS
10
-0.232186
20
1.49873
11
-0.232159
21
1.49872
0
LINE
8
BLACK
6
CONTINUOUS
10
-0.232159
20
1.49872
11
-0.232135
21
1.49874
0
LINE
8
BLACK
6
CONTINUOUS
10
-0.232135
20
1.49874
11
-0.158567
21
1.50842
0
LINE
8
BLACK
6
CONTINUOUS
10
-0.158567
20
1.50842
11
-0.158541
21
1.50841
0
LINE
8
BLACK
6
CONTINUOUS
10
-0.158541
20
1.50841
11
-0.158516
21
1.50843
0
LINE
8
BLACK
6
CONTINUOUS
10
-0.158516
20
1.50843
11
-0.0845422
21
1.51425
0
LINE
8
BLACK
6
CONTINUOUS
10
-0.0845422
20
1.51425
11
-0.0845159
21
1.51424
0
LINE
8
BLACK
6
CONTINUOUS
10
-0.0845159
20
1.51424
11
-0.0844907
21
1.51425
0
LINE
8
BLACK
6
CONTINUOUS
10
-0.0844907
20
1.51425
11
-0.0103138
21
1.51619
0
LINE
8
BLACK
6
CONTINUOUS
10
-0.0103138
20
1.51619
11
-0.0103009
21
1.51619
0
LINE
8
BLACK
6
CONTINUOUS
10
-0.0103009
20
1.51619
11
-0.010288
21
1.51619
0
LINE
8
BLACK
6
CONTINUOUS
10
-0.010288
20
1.51619
11
0.0102873
21
1.51619
0
LINE
8
BLACK
6
CONTINUOUS
10
0.0102873
20
1.51619
11
0.0103001
21
1.51619
  0
ENDSEC
  0
EOF
