  0
SECTION
  2
HEADER
  9
$ANGBASE
  50
0.0
  9
$ANGDIR
  70
1
  9
$MEASUREMENT
  70
0
  0
ENDSEC
  0
SECTION
  2
TABLES
  0
TABLE
  2
LTYPE
  70
4
  0
LTYPE
  5
40F
  2
CONTINUOUS
  70
0
  3
Solid line
  72
65
  73
0
  40
0.0
  0
LTYPE
  5
410
  2
DASHDOT
 70
0
  3
Dash Dot ____ _ ____ _
 72
65
 73
4
 40
2.0
 49
1.25
 49
-0.25
 49
0.25
 49
-0.25
  0
LTYPE
  5
411
  2
DASHED
 70
0
  3
Dashed __ __ __ __ __
 72
65
 73
2
 40
0.75
 49
0.5
 49
-0.25
  0
LTYPE
  5
43B
  2
DOTTED
 70
0
  3
Dotted .  .  .  .
 72
65
 73
2
 40
0.2
 49
0.0
 49
-0.2
  0
ENDTAB
  0
TABLE
  2
STYLE
  70
4
  0
STYLE
  2
KICAD
  70
0
  40
0
  41
1
  42
1
  50
0
  71
0
  3
isocp.shx
  0
STYLE
  2
KICADB
  70
0
  40
0
  41
1
  42
1
  50
0
  71
0
  3
isocp.shx
  0
STYLE
  2
KICADI
  70
0
  40
0
  41
1
  42
1
  50
15
  71
0
  3
isocp.shx
  0
STYLE
  2
KICADBI
  70
0
  40
0
  41
1
  42
1
  50
15
  71
0
  3
isocp.shx
  0
ENDTAB
  0
TABLE
  2
LAYER
  70
1
  0
LAYER
  2
BLACK
  70
0
  62
7
  6
CONTINUOUS
  0
ENDTAB
  0
ENDSEC
  0
SECTION
  2
ENTITIES
0
LINE
8
BLACK
6
CONTINUOUS
10
-0.998151
20
-0.674402
11
-0.998103
21
-0.674396
0
LINE
8
BLACK
6
CONTINUOUS
10
-0.998103
20
-0.674396
11
-0.995542
21
-0.675082
0
LINE
8
BLACK
6
CONTINUOUS
10
-0.995542
20
-0.675082
11
-0.995504
21
-0.675112
0
LINE
8
BLACK
6
CONTINUOUS
10
-0.995504
20
-0.675112
11
-0.995456
21
-0.675121
0
LINE
8
BLACK
6
CONTINUOUS
10
-0.995456
20
-0.675121
11
-0.991958
21
-0.677431
0
LINE
8
BLACK
6
CONTINUOUS
10
-0.991958
20
-0.677431
11
-0.991939
21
-0.677459
0
LINE
8
BLACK
6
CONTINUOUS
10
-0.991939
20
-0.677459
11
-0.991908
21
-0.677472
0
LINE
8
BLACK
6
CONTINUOUS
10
-0.991908
20
-0.677472
11
-0.986535
21
-0.683029
0
LINE
8
BLACK
6
CONTINUOUS
10
-0.986535
20
-0.683029
11
-0.986521
21
-0.683064
0
LINE
8
BLACK
6
CONTINUOUS
10
-0.986521
20
-0.683064
11
-0.986491
21
-0.683086
0
LINE
8
BLACK
6
CONTINUOUS
10
-0.986491
20
-0.683086
11
-0.981804
21
-0.691204
0
LINE
8
BLACK
6
CONTINUOUS
10
-0.981804
20
-0.691204
11
-0.9818
21
-0.691242
0
LINE
8
BLACK
6
CONTINUOUS
10
-0.9818
20
-0.691242
11
-0.981776
21
-0.691271
0
LINE
8
BLACK
6
CONTINUOUS
10
-0.981776
20
-0.691271
11
-0.97965
21
-0.698703
0
LINE
8
BLACK
6
CONTINUOUS
10
-0.97965
20
-0.698703
11
-0.979654
21
-0.698736
0
LINE
8
BLACK
6
CONTINUOUS
10
-0.979654
20
-0.698736
11
-0.979639
21
-0.698766
0
LINE
8
BLACK
6
CONTINUOUS
10
-0.979639
20
-0.698766
11
-0.979388
21
-0.702951
0
LINE
8
BLACK
6
CONTINUOUS
10
-0.979388
20
-0.702951
11
-0.979404
21
-0.702997
0
LINE
8
BLACK
6
CONTINUOUS
10
-0.979404
20
-0.702997
11
-0.979398
21
-0.703045
0
LINE
8
BLACK
6
CONTINUOUS
10
-0.979398
20
-0.703045
11
-0.980084
21
-0.705606
0
LINE
8
BLACK
6
CONTINUOUS
10
-0.980084
20
-0.705606
11
-0.980114
21
-0.705644
0
LINE
8
BLACK
6
CONTINUOUS
10
-0.980114
20
-0.705644
11
-0.980123
21
-0.705692
0
LINE
8
BLACK
6
CONTINUOUS
10
-0.980123
20
-0.705692
11
-0.982433
21
-0.70919
0
LINE
8
BLACK
6
CONTINUOUS
10
-0.982433
20
-0.70919
11
-0.98249
21
-0.709229
0
LINE
8
BLACK
6
CONTINUOUS
10
-0.98249
20
-0.709229
11
-0.982531
21
-0.709284
0
LINE
8
BLACK
6
CONTINUOUS
10
-0.982531
20
-0.709284
11
-0.985779
21
-0.711158
0
LINE
8
BLACK
6
CONTINUOUS
10
-0.985779
20
-0.711158
11
-0.985847
21
-0.711167
0
LINE
8
BLACK
6
CONTINUOUS
10
-0.985847
20
-0.711167
11
-0.985909
21
-0.711197
0
LINE
8
BLACK
6
CONTINUOUS
10
-0.985909
20
-0.711197
11
-0.990093
21
-0.711449
0
LINE
8
BLACK
6
CONTINUOUS
10
-0.990093
20
-0.711449
11
-0.990139
21
-0.711433
0
LINE
8
BLACK
6
CONTINUOUS
10
-0.990139
20
-0.711433
11
-0.990187
21
-0.711439
0
LINE
8
BLACK
6
CONTINUOUS
10
-0.990187
20
-0.711439
11
-0.992748
21
-0.710753
0
LINE
8
BLACK
6
CONTINUOUS
10
-0.992748
20
-0.710753
11
-0.992787
21
-0.710723
0
LINE
8
BLACK
6
CONTINUOUS
10
-0.992787
20
-0.710723
11
-0.992835
21
-0.710714
0
LINE
8
BLACK
6
CONTINUOUS
10
-0.992835
20
-0.710714
11
-0.996333
21
-0.708404
0
LINE
8
BLACK
6
CONTINUOUS
10
-0.996333
20
-0.708404
11
-0.996352
21
-0.708376
0
LINE
8
BLACK
6
CONTINUOUS
10
-0.996352
20
-0.708376
11
-0.996382
21
-0.708363
0
LINE
8
BLACK
6
CONTINUOUS
10
-0.996382
20
-0.708363
11
-1.00176
21
-0.702806
0
LINE
8
BLACK
6
CONTINUOUS
10
-1.00176
20
-0.702806
11
-1.00177
21
-0.702771
0
LINE
8
BLACK
6
CONTINUOUS
10
-1.00177
20
-0.702771
11
-1.0018
21
-0.702748
0
LINE
8
BLACK
6
CONTINUOUS
10
-1.0018
20
-0.702748
11
-1.00649
21
-0.69463
0
LINE
8
BLACK
6
CONTINUOUS
10
-1.00649
20
-0.69463
11
-1.00649
21
-0.694593
0
LINE
8
BLACK
6
CONTINUOUS
10
-1.00649
20
-0.694593
11
-1.00651
21
-0.694564
0
LINE
8
BLACK
6
CONTINUOUS
10
-1.00651
20
-0.694564
11
-1.00864
21
-0.687132
0
LINE
8
BLACK
6
CONTINUOUS
10
-1.00864
20
-0.687132
11
-1.00864
21
-0.687099
0
LINE
8
BLACK
6
CONTINUOUS
10
-1.00864
20
-0.687099
11
-1.00865
21
-0.687069
0
LINE
8
BLACK
6
CONTINUOUS
10
-1.00865
20
-0.687069
11
-1.0089
21
-0.682884
0
LINE
8
BLACK
6
CONTINUOUS
10
-1.0089
20
-0.682884
11
-1.00889
21
-0.682838
0
LINE
8
BLACK
6
CONTINUOUS
10
-1.00889
20
-0.682838
11
-1.00889
21
-0.68279
0
LINE
8
BLACK
6
CONTINUOUS
10
-1.00889
20
-0.68279
11
-1.00821
21
-0.680229
0
LINE
8
BLACK
6
CONTINUOUS
10
-1.00821
20
-0.680229
11
-1.00818
21
-0.68019
0
LINE
8
BLACK
6
CONTINUOUS
10
-1.00818
20
-0.68019
11
-1.00817
21
-0.680143
0
LINE
8
BLACK
6
CONTINUOUS
10
-1.00817
20
-0.680143
11
-1.00586
21
-0.676644
0
LINE
8
BLACK
6
CONTINUOUS
10
-1.00586
20
-0.676644
11
-1.0058
21
-0.676606
0
LINE
8
BLACK
6
CONTINUOUS
10
-1.0058
20
-0.676606
11
-1.00576
21
-0.676551
0
LINE
8
BLACK
6
CONTINUOUS
10
-1.00576
20
-0.676551
11
-1.00251
21
-0.674677
0
LINE
8
BLACK
6
CONTINUOUS
10
-1.00251
20
-0.674677
11
-1.00244
21
-0.674668
0
LINE
8
BLACK
6
CONTINUOUS
10
-1.00244
20
-0.674668
11
-1.00238
21
-0.674638
0
LINE
8
BLACK
6
CONTINUOUS
10
-1.00238
20
-0.674638
11
-0.998197
21
-0.674386
0
LINE
8
BLACK
6
CONTINUOUS
10
-0.998197
20
-0.674386
11
-0.998151
21
-0.674402
0
LINE
8
BLACK
6
CONTINUOUS
10
-1.00228
20
-0.675223
11
-1.0054
21
-0.677028
0
LINE
8
BLACK
6
CONTINUOUS
10
-1.0054
20
-0.677028
11
-1.00765
21
-0.680428
0
LINE
8
BLACK
6
CONTINUOUS
10
-1.00765
20
-0.680428
11
-1.00831
21
-0.682896
0
LINE
8
BLACK
6
CONTINUOUS
10
-1.00831
20
-0.682896
11
-1.00806
21
-0.687001
0
LINE
8
BLACK
6
CONTINUOUS
10
-1.00806
20
-0.687001
11
-1.00596
21
-0.694367
0
LINE
8
BLACK
6
CONTINUOUS
10
-1.00596
20
-0.694367
11
-1.00131
21
-0.702422
0
LINE
8
BLACK
6
CONTINUOUS
10
-1.00131
20
-0.702422
11
-0.99598
21
-0.707929
0
LINE
8
BLACK
6
CONTINUOUS
10
-0.99598
20
-0.707929
11
-0.992549
21
-0.710195
0
LINE
8
BLACK
6
CONTINUOUS
10
-0.992549
20
-0.710195
11
-0.990081
21
-0.710856
0
LINE
8
BLACK
6
CONTINUOUS
10
-0.990081
20
-0.710856
11
-0.986014
21
-0.710612
0
LINE
8
BLACK
6
CONTINUOUS
10
-0.986014
20
-0.710612
11
-0.982887
21
-0.708807
0
LINE
8
BLACK
6
CONTINUOUS
10
-0.982887
20
-0.708807
11
-0.980642
21
-0.705407
0
LINE
8
BLACK
6
CONTINUOUS
10
-0.980642
20
-0.705407
11
-0.979981
21
-0.702938
0
LINE
8
BLACK
6
CONTINUOUS
10
-0.979981
20
-0.702938
11
-0.980227
21
-0.698834
0
LINE
8
BLACK
6
CONTINUOUS
10
-0.980227
20
-0.698834
11
-0.982334
21
-0.691468
0
LINE
8
BLACK
6
CONTINUOUS
10
-0.982334
20
-0.691468
11
-0.986985
21
-0.683413
0
LINE
8
BLACK
6
CONTINUOUS
10
-0.986985
20
-0.683413
11
-0.99231
21
-0.677906
0
LINE
8
BLACK
6
CONTINUOUS
10
-0.99231
20
-0.677906
11
-0.995741
21
-0.67564
0
LINE
8
BLACK
6
CONTINUOUS
10
-0.995741
20
-0.67564
11
-0.99821
21
-0.674979
0
LINE
8
BLACK
6
CONTINUOUS
10
-0.99821
20
-0.674979
11
-1.00228
21
-0.675223
0
LINE
8
BLACK
6
CONTINUOUS
10
-0.962432
20
-0.65378
11
-0.962384
21
-0.653774
0
LINE
8
BLACK
6
CONTINUOUS
10
-0.962384
20
-0.653774
11
-0.959823
21
-0.65446
0
LINE
8
BLACK
6
CONTINUOUS
10
-0.959823
20
-0.65446
11
-0.959644
21
-0.654597
0
LINE
8
BLACK
6
CONTINUOUS
10
-0.959644
20
-0.654597
11
-0.959614
21
-0.654821
0
LINE
8
BLACK
6
CONTINUOUS
10
-0.959614
20
-0.654821
11
-0.959752
21
-0.655001
0
LINE
8
BLACK
6
CONTINUOUS
10
-0.959752
20
-0.655001
11
-0.959976
21
-0.65503
0
LINE
8
BLACK
6
CONTINUOUS
10
-0.959976
20
-0.65503
11
-0.962491
21
-0.654356
0
LINE
8
BLACK
6
CONTINUOUS
10
-0.962491
20
-0.654356
11
-0.966558
21
-0.6546
0
LINE
8
BLACK
6
CONTINUOUS
10
-0.966558
20
-0.6546
11
-0.974555
21
-0.659218
0
LINE
8
BLACK
6
CONTINUOUS
10
-0.974555
20
-0.659218
11
-0.9768
21
-0.662618
0
LINE
8
BLACK
6
CONTINUOUS
10
-0.9768
20
-0.662618
11
-0.977461
21
-0.665086
0
LINE
8
BLACK
6
CONTINUOUS
10
-0.977461
20
-0.665086
11
-0.977217
21
-0.669154
0
LINE
8
BLACK
6
CONTINUOUS
10
-0.977217
20
-0.669154
11
-0.975401
21
-0.672299
0
LINE
8
BLACK
6
CONTINUOUS
10
-0.975401
20
-0.672299
11
-0.971054
21
-0.676154
0
LINE
8
BLACK
6
CONTINUOUS
10
-0.971054
20
-0.676154
11
-0.940389
21
-0.684371
0
LINE
8
BLACK
6
CONTINUOUS
10
-0.940389
20
-0.684371
11
-0.94021
21
-0.684508
0
LINE
8
BLACK
6
CONTINUOUS
10
-0.94021
20
-0.684508
11
-0.94018
21
-0.684732
0
LINE
8
BLACK
6
CONTINUOUS
10
-0.94018
20
-0.684732
11
-0.940318
21
-0.684912
0
LINE
8
BLACK
6
CONTINUOUS
10
-0.940318
20
-0.684912
11
-0.961425
21
-0.697098
0
LINE
8
BLACK
6
CONTINUOUS
10
-0.961425
20
-0.697098
11
-0.961649
21
-0.697127
0
LINE
8
BLACK
6
CONTINUOUS
10
-0.961649
20
-0.697127
11
-0.961828
21
-0.696989
0
LINE
8
BLACK
6
CONTINUOUS
10
-0.961828
20
-0.696989
11
-0.961858
21
-0.696765
0
LINE
8
BLACK
6
CONTINUOUS
10
-0.961858
20
-0.696765
11
-0.96172
21
-0.696586
0
LINE
8
BLACK
6
CONTINUOUS
10
-0.96172
20
-0.696586
11
-0.941231
21
-0.684757
0
LINE
8
BLACK
6
CONTINUOUS
10
-0.941231
20
-0.684757
11
-0.971274
21
-0.676706
0
LINE
8
BLACK
6
CONTINUOUS
10
-0.971274
20
-0.676706
11
-0.971328
21
-0.676665
0
LINE
8
BLACK
6
CONTINUOUS
10
-0.971328
20
-0.676665
11
-0.971393
21
-0.676642
0
LINE
8
BLACK
6
CONTINUOUS
10
-0.971393
20
-0.676642
11
-0.975829
21
-0.672709
0
LINE
8
BLACK
6
CONTINUOUS
10
-0.975829
20
-0.672709
11
-0.97585
21
-0.672665
0
LINE
8
BLACK
6
CONTINUOUS
10
-0.97585
20
-0.672665
11
-0.975889
21
-0.672636
0
LINE
8
BLACK
6
CONTINUOUS
10
-0.975889
20
-0.672636
11
-0.977764
21
-0.669388
0
LINE
8
BLACK
6
CONTINUOUS
10
-0.977764
20
-0.669388
11
-0.977773
21
-0.66932
0
LINE
8
BLACK
6
CONTINUOUS
10
-0.977773
20
-0.66932
11
-0.977803
21
-0.669258
0
LINE
8
BLACK
6
CONTINUOUS
10
-0.977803
20
-0.669258
11
-0.978054
21
-0.665074
0
LINE
8
BLACK
6
CONTINUOUS
10
-0.978054
20
-0.665074
11
-0.978038
21
-0.665028
0
LINE
8
BLACK
6
CONTINUOUS
10
-0.978038
20
-0.665028
11
-0.978044
21
-0.66498
0
LINE
8
BLACK
6
CONTINUOUS
10
-0.978044
20
-0.66498
11
-0.977358
21
-0.662419
0
LINE
8
BLACK
6
CONTINUOUS
10
-0.977358
20
-0.662419
11
-0.977328
21
-0.66238
0
LINE
8
BLACK
6
CONTINUOUS
10
-0.977328
20
-0.66238
11
-0.977319
21
-0.662332
0
LINE
8
BLACK
6
CONTINUOUS
10
-0.977319
20
-0.662332
11
-0.975009
21
-0.658834
0
LINE
8
BLACK
6
CONTINUOUS
10
-0.975009
20
-0.658834
11
-0.974953
21
-0.658796
0
LINE
8
BLACK
6
CONTINUOUS
10
-0.974953
20
-0.658796
11
-0.974911
21
-0.658741
0
LINE
8
BLACK
6
CONTINUOUS
10
-0.974911
20
-0.658741
11
-0.966793
21
-0.654054
0
LINE
8
BLACK
6
CONTINUOUS
10
-0.966793
20
-0.654054
11
-0.966725
21
-0.654045
0
LINE
8
BLACK
6
CONTINUOUS
10
-0.966725
20
-0.654045
11
-0.966663
21
-0.654015
0
LINE
8
BLACK
6
CONTINUOUS
10
-0.966663
20
-0.654015
11
-0.962478
21
-0.653764
0
LINE
8
BLACK
6
CONTINUOUS
10
-0.962478
20
-0.653764
11
-0.962432
21
-0.65378
0
LINE
8
BLACK
6
CONTINUOUS
10
-0.933208
20
-0.636907
11
-0.933159
21
-0.636901
0
LINE
8
BLACK
6
CONTINUOUS
10
-0.933159
20
-0.636901
11
-0.930598
21
-0.637587
0
LINE
8
BLACK
6
CONTINUOUS
10
-0.930598
20
-0.637587
11
-0.93056
21
-0.637616
0
LINE
8
BLACK
6
CONTINUOUS
10
-0.93056
20
-0.637616
11
-0.930512
21
-0.637626
0
LINE
8
BLACK
6
CONTINUOUS
10
-0.930512
20
-0.637626
11
-0.927014
21
-0.639935
0
LINE
8
BLACK
6
CONTINUOUS
10
-0.927014
20
-0.639935
11
-0.926995
21
-0.639963
0
LINE
8
BLACK
6
CONTINUOUS
10
-0.926995
20
-0.639963
11
-0.926964
21
-0.639977
0
LINE
8
BLACK
6
CONTINUOUS
10
-0.926964
20
-0.639977
11
-0.921591
21
-0.645534
0
LINE
8
BLACK
6
CONTINUOUS
10
-0.921591
20
-0.645534
11
-0.921577
21
-0.645568
0
LINE
8
BLACK
6
CONTINUOUS
10
-0.921577
20
-0.645568
11
-0.921548
21
-0.645591
0
LINE
8
BLACK
6
CONTINUOUS
10
-0.921548
20
-0.645591
11
-0.916861
21
-0.653709
0
LINE
8
BLACK
6
CONTINUOUS
10
-0.916861
20
-0.653709
11
-0.916856
21
-0.653746
0
LINE
8
BLACK
6
CONTINUOUS
10
-0.916856
20
-0.653746
11
-0.916833
21
-0.653776
0
LINE
8
BLACK
6
CONTINUOUS
10
-0.916833
20
-0.653776
11
-0.914707
21
-0.661207
0
LINE
8
BLACK
6
CONTINUOUS
10
-0.914707
20
-0.661207
11
-0.91471
21
-0.661241
0
LINE
8
BLACK
6
CONTINUOUS
10
-0.91471
20
-0.661241
11
-0.914696
21
-0.661271
0
LINE
8
BLACK
6
CONTINUOUS
10
-0.914696
20
-0.661271
11
-0.914445
21
-0.665455
0
LINE
8
BLACK
6
CONTINUOUS
10
-0.914445
20
-0.665455
11
-0.91446
21
-0.665501
0
LINE
8
BLACK
6
CONTINUOUS
10
-0.91446
20
-0.665501
11
-0.914454
21
-0.66555
0
LINE
8
BLACK
6
CONTINUOUS
10
-0.914454
20
-0.66555
11
-0.91514
21
-0.668111
0
LINE
8
BLACK
6
CONTINUOUS
10
-0.91514
20
-0.668111
11
-0.91517
21
-0.668149
0
LINE
8
BLACK
6
CONTINUOUS
10
-0.91517
20
-0.668149
11
-0.915179
21
-0.668197
0
LINE
8
BLACK
6
CONTINUOUS
10
-0.915179
20
-0.668197
11
-0.917489
21
-0.671695
0
LINE
8
BLACK
6
CONTINUOUS
10
-0.917489
20
-0.671695
11
-0.917546
21
-0.671734
0
LINE
8
BLACK
6
CONTINUOUS
10
-0.917546
20
-0.671734
11
-0.917588
21
-0.671788
0
LINE
8
BLACK
6
CONTINUOUS
10
-0.917588
20
-0.671788
11
-0.920835
21
-0.673663
0
LINE
8
BLACK
6
CONTINUOUS
10
-0.920835
20
-0.673663
11
-0.920903
21
-0.673672
0
LINE
8
BLACK
6
CONTINUOUS
10
-0.920903
20
-0.673672
11
-0.920965
21
-0.673702
0
LINE
8
BLACK
6
CONTINUOUS
10
-0.920965
20
-0.673702
11
-0.925149
21
-0.673953
0
LINE
8
BLACK
6
CONTINUOUS
10
-0.925149
20
-0.673953
11
-0.925195
21
-0.673937
0
LINE
8
BLACK
6
CONTINUOUS
10
-0.925195
20
-0.673937
11
-0.925244
21
-0.673944
0
LINE
8
BLACK
6
CONTINUOUS
10
-0.925244
20
-0.673944
11
-0.927804
21
-0.673257
0
LINE
8
BLACK
6
CONTINUOUS
10
-0.927804
20
-0.673257
11
-0.927843
21
-0.673228
0
LINE
8
BLACK
6
CONTINUOUS
10
-0.927843
20
-0.673228
11
-0.927891
21
-0.673219
0
LINE
8
BLACK
6
CONTINUOUS
10
-0.927891
20
-0.673219
11
-0.931389
21
-0.670909
0
LINE
8
BLACK
6
CONTINUOUS
10
-0.931389
20
-0.670909
11
-0.931408
21
-0.670881
0
LINE
8
BLACK
6
CONTINUOUS
10
-0.931408
20
-0.670881
11
-0.931439
21
-0.670868
0
LINE
8
BLACK
6
CONTINUOUS
10
-0.931439
20
-0.670868
11
-0.936812
21
-0.665311
0
LINE
8
BLACK
6
CONTINUOUS
10
-0.936812
20
-0.665311
11
-0.936826
21
-0.665276
0
LINE
8
BLACK
6
CONTINUOUS
10
-0.936826
20
-0.665276
11
-0.936855
21
-0.665253
0
LINE
8
BLACK
6
CONTINUOUS
10
-0.936855
20
-0.665253
11
-0.941542
21
-0.657135
0
LINE
8
BLACK
6
CONTINUOUS
10
-0.941542
20
-0.657135
11
-0.941547
21
-0.657098
0
LINE
8
BLACK
6
CONTINUOUS
10
-0.941547
20
-0.657098
11
-0.94157
21
-0.657069
0
LINE
8
BLACK
6
CONTINUOUS
10
-0.94157
20
-0.657069
11
-0.943696
21
-0.649637
0
LINE
8
BLACK
6
CONTINUOUS
10
-0.943696
20
-0.649637
11
-0.943692
21
-0.649604
0
LINE
8
BLACK
6
CONTINUOUS
10
-0.943692
20
-0.649604
11
-0.943707
21
-0.649573
0
LINE
8
BLACK
6
CONTINUOUS
10
-0.943707
20
-0.649573
11
-0.943958
21
-0.645389
0
LINE
8
BLACK
6
CONTINUOUS
10
-0.943958
20
-0.645389
11
-0.943942
21
-0.645343
0
LINE
8
BLACK
6
CONTINUOUS
10
-0.943942
20
-0.645343
11
-0.943949
21
-0.645295
0
LINE
8
BLACK
6
CONTINUOUS
10
-0.943949
20
-0.645295
11
-0.943263
21
-0.642734
0
LINE
8
BLACK
6
CONTINUOUS
10
-0.943263
20
-0.642734
11
-0.943233
21
-0.642695
0
LINE
8
BLACK
6
CONTINUOUS
10
-0.943233
20
-0.642695
11
-0.943224
21
-0.642647
0
LINE
8
BLACK
6
CONTINUOUS
10
-0.943224
20
-0.642647
11
-0.940914
21
-0.639149
0
LINE
8
BLACK
6
CONTINUOUS
10
-0.940914
20
-0.639149
11
-0.940857
21
-0.639111
0
LINE
8
BLACK
6
CONTINUOUS
10
-0.940857
20
-0.639111
11
-0.940815
21
-0.639056
0
LINE
8
BLACK
6
CONTINUOUS
10
-0.940815
20
-0.639056
11
-0.937568
21
-0.637181
0
LINE
8
BLACK
6
CONTINUOUS
10
-0.937568
20
-0.637181
11
-0.9375
21
-0.637172
0
LINE
8
BLACK
6
CONTINUOUS
10
-0.9375
20
-0.637172
11
-0.937438
21
-0.637142
0
LINE
8
BLACK
6
CONTINUOUS
10
-0.937438
20
-0.637142
11
-0.933254
21
-0.636891
0
LINE
8
BLACK
6
CONTINUOUS
10
-0.933254
20
-0.636891
11
-0.933208
21
-0.636907
0
LINE
8
BLACK
6
CONTINUOUS
10
-0.937333
20
-0.637728
11
-0.94046
21
-0.639533
0
LINE
8
BLACK
6
CONTINUOUS
10
-0.94046
20
-0.639533
11
-0.942705
21
-0.642933
0
LINE
8
BLACK
6
CONTINUOUS
10
-0.942705
20
-0.642933
11
-0.943366
21
-0.645401
0
LINE
8
BLACK
6
CONTINUOUS
10
-0.943366
20
-0.645401
11
-0.94312
21
-0.649506
0
LINE
8
BLACK
6
CONTINUOUS
10
-0.94312
20
-0.649506
11
-0.941013
21
-0.656871
0
LINE
8
BLACK
6
CONTINUOUS
10
-0.941013
20
-0.656871
11
-0.936362
21
-0.664926
0
LINE
8
BLACK
6
CONTINUOUS
10
-0.936362
20
-0.664926
11
-0.931037
21
-0.670434
0
LINE
8
BLACK
6
CONTINUOUS
10
-0.931037
20
-0.670434
11
-0.927605
21
-0.672699
0
LINE
8
BLACK
6
CONTINUOUS
10
-0.927605
20
-0.672699
11
-0.925137
21
-0.673361
0
LINE
8
BLACK
6
CONTINUOUS
10
-0.925137
20
-0.673361
11
-0.92107
21
-0.673117
0
LINE
8
BLACK
6
CONTINUOUS
10
-0.92107
20
-0.673117
11
-0.917943
21
-0.671312
0
LINE
8
BLACK
6
CONTINUOUS
10
-0.917943
20
-0.671312
11
-0.915698
21
-0.667911
0
LINE
8
BLACK
6
CONTINUOUS
10
-0.915698
20
-0.667911
11
-0.915037
21
-0.665443
0
LINE
8
BLACK
6
CONTINUOUS
10
-0.915037
20
-0.665443
11
-0.915283
21
-0.661339
0
LINE
8
BLACK
6
CONTINUOUS
10
-0.915283
20
-0.661339
11
-0.91739
21
-0.653973
0
LINE
8
BLACK
6
CONTINUOUS
10
-0.91739
20
-0.653973
11
-0.922041
21
-0.645918
0
LINE
8
BLACK
6
CONTINUOUS
10
-0.922041
20
-0.645918
11
-0.927366
21
-0.64041
0
LINE
8
BLACK
6
CONTINUOUS
10
-0.927366
20
-0.64041
11
-0.930798
21
-0.638145
0
LINE
8
BLACK
6
CONTINUOUS
10
-0.930798
20
-0.638145
11
-0.933266
21
-0.637483
0
LINE
8
BLACK
6
CONTINUOUS
10
-0.933266
20
-0.637483
11
-0.937333
21
-0.637728
0
LINE
8
BLACK
6
CONTINUOUS
10
-0.897488
20
-0.616285
11
-0.89744
21
-0.616278
0
LINE
8
BLACK
6
CONTINUOUS
10
-0.89744
20
-0.616278
11
-0.894879
21
-0.616964
0
LINE
8
BLACK
6
CONTINUOUS
10
-0.894879
20
-0.616964
11
-0.8947
21
-0.617102
0
LINE
8
BLACK
6
CONTINUOUS
10
-0.8947
20
-0.617102
11
-0.89467
21
-0.617326
0
LINE
8
BLACK
6
CONTINUOUS
10
-0.89467
20
-0.617326
11
-0.894808
21
-0.617505
0
LINE
8
BLACK
6
CONTINUOUS
10
-0.894808
20
-0.617505
11
-0.895032
21
-0.617535
0
LINE
8
BLACK
6
CONTINUOUS
10
-0.895032
20
-0.617535
11
-0.897547
21
-0.616861
0
LINE
8
BLACK
6
CONTINUOUS
10
-0.897547
20
-0.616861
11
-0.901614
21
-0.617105
0
LINE
8
BLACK
6
CONTINUOUS
10
-0.901614
20
-0.617105
11
-0.909611
21
-0.621722
0
LINE
8
BLACK
6
CONTINUOUS
10
-0.909611
20
-0.621722
11
-0.911856
21
-0.625122
0
LINE
8
BLACK
6
CONTINUOUS
10
-0.911856
20
-0.625122
11
-0.912518
21
-0.627591
0
LINE
8
BLACK
6
CONTINUOUS
10
-0.912518
20
-0.627591
11
-0.912274
21
-0.631658
0
LINE
8
BLACK
6
CONTINUOUS
10
-0.912274
20
-0.631658
11
-0.910458
21
-0.634803
0
LINE
8
BLACK
6
CONTINUOUS
10
-0.910458
20
-0.634803
11
-0.90611
21
-0.638659
0
LINE
8
BLACK
6
CONTINUOUS
10
-0.90611
20
-0.638659
11
-0.875445
21
-0.646875
0
LINE
8
BLACK
6
CONTINUOUS
10
-0.875445
20
-0.646875
11
-0.875266
21
-0.647013
0
LINE
8
BLACK
6
CONTINUOUS
10
-0.875266
20
-0.647013
11
-0.875237
21
-0.647237
0
LINE
8
BLACK
6
CONTINUOUS
10
-0.875237
20
-0.647237
11
-0.875374
21
-0.647416
0
LINE
8
BLACK
6
CONTINUOUS
10
-0.875374
20
-0.647416
11
-0.896481
21
-0.659602
0
LINE
8
BLACK
6
CONTINUOUS
10
-0.896481
20
-0.659602
11
-0.896705
21
-0.659632
0
LINE
8
BLACK
6
CONTINUOUS
10
-0.896705
20
-0.659632
11
-0.896884
21
-0.659494
0
LINE
8
BLACK
6
CONTINUOUS
10
-0.896884
20
-0.659494
11
-0.896914
21
-0.65927
0
LINE
8
BLACK
6
CONTINUOUS
10
-0.896914
20
-0.65927
11
-0.896776
21
-0.659091
0
LINE
8
BLACK
6
CONTINUOUS
10
-0.896776
20
-0.659091
11
-0.876287
21
-0.647261
0
LINE
8
BLACK
6
CONTINUOUS
10
-0.876287
20
-0.647261
11
-0.90633
21
-0.639211
0
LINE
8
BLACK
6
CONTINUOUS
10
-0.90633
20
-0.639211
11
-0.906385
21
-0.639169
0
LINE
8
BLACK
6
CONTINUOUS
10
-0.906385
20
-0.639169
11
-0.906449
21
-0.639147
0
LINE
8
BLACK
6
CONTINUOUS
10
-0.906449
20
-0.639147
11
-0.910885
21
-0.635214
0
LINE
8
BLACK
6
CONTINUOUS
10
-0.910885
20
-0.635214
11
-0.910906
21
-0.63517
0
LINE
8
BLACK
6
CONTINUOUS
10
-0.910906
20
-0.63517
11
-0.910945
21
-0.63514
0
LINE
8
BLACK
6
CONTINUOUS
10
-0.910945
20
-0.63514
11
-0.91282
21
-0.631893
0
LINE
8
BLACK
6
CONTINUOUS
10
-0.91282
20
-0.631893
11
-0.912829
21
-0.631825
0
LINE
8
BLACK
6
CONTINUOUS
10
-0.912829
20
-0.631825
11
-0.912859
21
-0.631763
0
LINE
8
BLACK
6
CONTINUOUS
10
-0.912859
20
-0.631763
11
-0.91311
21
-0.627579
0
LINE
8
BLACK
6
CONTINUOUS
10
-0.91311
20
-0.627579
11
-0.913094
21
-0.627533
0
LINE
8
BLACK
6
CONTINUOUS
10
-0.913094
20
-0.627533
11
-0.9131
21
-0.627484
0
LINE
8
BLACK
6
CONTINUOUS
10
-0.9131
20
-0.627484
11
-0.912414
21
-0.624923
0
LINE
8
BLACK
6
CONTINUOUS
10
-0.912414
20
-0.624923
11
-0.912385
21
-0.624885
0
LINE
8
BLACK
6
CONTINUOUS
10
-0.912385
20
-0.624885
11
-0.912375
21
-0.624837
0
LINE
8
BLACK
6
CONTINUOUS
10
-0.912375
20
-0.624837
11
-0.910066
21
-0.621339
0
LINE
8
BLACK
6
CONTINUOUS
10
-0.910066
20
-0.621339
11
-0.910009
21
-0.6213
0
LINE
8
BLACK
6
CONTINUOUS
10
-0.910009
20
-0.6213
11
-0.909967
21
-0.621246
0
LINE
8
BLACK
6
CONTINUOUS
10
-0.909967
20
-0.621246
11
-0.901849
21
-0.616559
0
LINE
8
BLACK
6
CONTINUOUS
10
-0.901849
20
-0.616559
11
-0.901781
21
-0.61655
0
LINE
8
BLACK
6
CONTINUOUS
10
-0.901781
20
-0.61655
11
-0.901719
21
-0.61652
0
LINE
8
BLACK
6
CONTINUOUS
10
-0.901719
20
-0.61652
11
-0.897534
21
-0.616269
0
LINE
8
BLACK
6
CONTINUOUS
10
-0.897534
20
-0.616269
11
-0.897488
21
-0.616285
0
LINE
8
BLACK
6
CONTINUOUS
10
-0.86735
20
-0.596982
11
-0.867321
21
-0.597206
0
LINE
8
BLACK
6
CONTINUOUS
10
-0.867321
20
-0.597206
11
-0.867458
21
-0.597385
0
LINE
8
BLACK
6
CONTINUOUS
10
-0.867458
20
-0.597385
11
-0.876944
21
-0.602862
0
LINE
8
BLACK
6
CONTINUOUS
10
-0.876944
20
-0.602862
11
-0.857407
21
-0.636702
0
LINE
8
BLACK
6
CONTINUOUS
10
-0.857407
20
-0.636702
11
-0.857377
21
-0.636926
0
LINE
8
BLACK
6
CONTINUOUS
10
-0.857377
20
-0.636926
11
-0.857515
21
-0.637105
0
LINE
8
BLACK
6
CONTINUOUS
10
-0.857515
20
-0.637105
11
-0.857739
21
-0.637134
0
LINE
8
BLACK
6
CONTINUOUS
10
-0.857739
20
-0.637134
11
-0.857918
21
-0.636997
0
LINE
8
BLACK
6
CONTINUOUS
10
-0.857918
20
-0.636997
11
-0.877455
21
-0.603157
0
LINE
8
BLACK
6
CONTINUOUS
10
-0.877455
20
-0.603157
11
-0.886941
21
-0.608634
0
LINE
8
BLACK
6
CONTINUOUS
10
-0.886941
20
-0.608634
11
-0.887165
21
-0.608663
0
LINE
8
BLACK
6
CONTINUOUS
10
-0.887165
20
-0.608663
11
-0.887345
21
-0.608526
0
LINE
8
BLACK
6
CONTINUOUS
10
-0.887345
20
-0.608526
11
-0.887374
21
-0.608302
0
LINE
8
BLACK
6
CONTINUOUS
10
-0.887374
20
-0.608302
11
-0.887237
21
-0.608122
0
LINE
8
BLACK
6
CONTINUOUS
10
-0.887237
20
-0.608122
11
-0.877495
21
-0.602498
0
LINE
8
BLACK
6
CONTINUOUS
10
-0.877495
20
-0.602498
11
-0.877495
21
-0.602498
0
LINE
8
BLACK
6
CONTINUOUS
10
-0.877495
20
-0.602498
11
-0.877495
21
-0.602498
0
LINE
8
BLACK
6
CONTINUOUS
10
-0.877495
20
-0.602498
11
-0.867753
21
-0.596874
0
LINE
8
BLACK
6
CONTINUOUS
10
-0.867753
20
-0.596874
11
-0.867529
21
-0.596844
0
LINE
8
BLACK
6
CONTINUOUS
10
-0.867529
20
-0.596844
11
-0.86735
21
-0.596982
0
LINE
8
BLACK
6
CONTINUOUS
10
-0.836721
20
-0.579039
11
-0.836681
21
-0.579034
0
LINE
8
BLACK
6
CONTINUOUS
10
-0.836681
20
-0.579034
11
-0.83662
21
-0.579081
0
LINE
8
BLACK
6
CONTINUOUS
10
-0.83662
20
-0.579081
11
-0.83655
21
-0.57911
0
LINE
8
BLACK
6
CONTINUOUS
10
-0.83655
20
-0.57911
11
-0.836534
21
-0.579147
0
LINE
8
BLACK
6
CONTINUOUS
10
-0.836534
20
-0.579147
11
-0.836502
21
-0.579172
0
LINE
8
BLACK
6
CONTINUOUS
10
-0.836502
20
-0.579172
11
-0.816817
21
-0.613267
0
LINE
8
BLACK
6
CONTINUOUS
10
-0.816817
20
-0.613267
11
-0.816787
21
-0.613491
0
LINE
8
BLACK
6
CONTINUOUS
10
-0.816787
20
-0.613491
11
-0.816925
21
-0.61367
0
LINE
8
BLACK
6
CONTINUOUS
10
-0.816925
20
-0.61367
11
-0.817149
21
-0.6137
0
LINE
8
BLACK
6
CONTINUOUS
10
-0.817149
20
-0.6137
11
-0.817328
21
-0.613562
0
LINE
8
BLACK
6
CONTINUOUS
10
-0.817328
20
-0.613562
11
-0.836457
21
-0.58043
0
LINE
8
BLACK
6
CONTINUOUS
10
-0.836457
20
-0.58043
11
-0.83626
21
-0.624662
0
LINE
8
BLACK
6
CONTINUOUS
10
-0.83626
20
-0.624662
11
-0.836276
21
-0.6247
0
LINE
8
BLACK
6
CONTINUOUS
10
-0.836276
20
-0.6247
11
-0.83627
21
-0.62474
0
LINE
8
BLACK
6
CONTINUOUS
10
-0.83627
20
-0.62474
11
-0.836317
21
-0.6248
0
LINE
8
BLACK
6
CONTINUOUS
10
-0.836317
20
-0.6248
11
-0.836346
21
-0.624871
0
LINE
8
BLACK
6
CONTINUOUS
10
-0.836346
20
-0.624871
11
-0.836383
21
-0.624887
0
LINE
8
BLACK
6
CONTINUOUS
10
-0.836383
20
-0.624887
11
-0.836408
21
-0.624919
0
LINE
8
BLACK
6
CONTINUOUS
10
-0.836408
20
-0.624919
11
-0.836484
21
-0.624929
0
LINE
8
BLACK
6
CONTINUOUS
10
-0.836484
20
-0.624929
11
-0.836554
21
-0.624959
0
LINE
8
BLACK
6
CONTINUOUS
10
-0.836554
20
-0.624959
11
-0.836592
21
-0.624943
0
LINE
8
BLACK
6
CONTINUOUS
10
-0.836592
20
-0.624943
11
-0.836632
21
-0.624949
0
LINE
8
BLACK
6
CONTINUOUS
10
-0.836632
20
-0.624949
11
-0.836693
21
-0.624902
0
LINE
8
BLACK
6
CONTINUOUS
10
-0.836693
20
-0.624902
11
-0.836763
21
-0.624873
0
LINE
8
BLACK
6
CONTINUOUS
10
-0.836763
20
-0.624873
11
-0.836779
21
-0.624836
0
LINE
8
BLACK
6
CONTINUOUS
10
-0.836779
20
-0.624836
11
-0.836811
21
-0.624811
0
LINE
8
BLACK
6
CONTINUOUS
10
-0.836811
20
-0.624811
11
-0.856496
21
-0.590715
0
LINE
8
BLACK
6
CONTINUOUS
10
-0.856496
20
-0.590715
11
-0.856526
21
-0.590491
0
LINE
8
BLACK
6
CONTINUOUS
10
-0.856526
20
-0.590491
11
-0.856388
21
-0.590312
0
LINE
8
BLACK
6
CONTINUOUS
10
-0.856388
20
-0.590312
11
-0.856164
21
-0.590283
0
LINE
8
BLACK
6
CONTINUOUS
10
-0.856164
20
-0.590283
11
-0.855985
21
-0.59042
0
LINE
8
BLACK
6
CONTINUOUS
10
-0.855985
20
-0.59042
11
-0.836856
21
-0.623553
0
LINE
8
BLACK
6
CONTINUOUS
10
-0.836856
20
-0.623553
11
-0.837053
21
-0.579321
0
LINE
8
BLACK
6
CONTINUOUS
10
-0.837053
20
-0.579321
11
-0.837037
21
-0.579283
0
LINE
8
BLACK
6
CONTINUOUS
10
-0.837037
20
-0.579283
11
-0.837043
21
-0.579243
0
LINE
8
BLACK
6
CONTINUOUS
10
-0.837043
20
-0.579243
11
-0.836996
21
-0.579182
0
LINE
8
BLACK
6
CONTINUOUS
10
-0.836996
20
-0.579182
11
-0.836967
21
-0.579111
0
LINE
8
BLACK
6
CONTINUOUS
10
-0.836967
20
-0.579111
11
-0.83693
21
-0.579096
0
LINE
8
BLACK
6
CONTINUOUS
10
-0.83693
20
-0.579096
11
-0.836905
21
-0.579064
0
LINE
8
BLACK
6
CONTINUOUS
10
-0.836905
20
-0.579064
11
-0.836829
21
-0.579054
0
LINE
8
BLACK
6
CONTINUOUS
10
-0.836829
20
-0.579054
11
-0.836759
21
-0.579024
0
LINE
8
BLACK
6
CONTINUOUS
10
-0.836759
20
-0.579024
11
-0.836721
21
-0.579039
0
LINE
8
BLACK
6
CONTINUOUS
10
-0.806587
20
-0.563794
11
-0.806519
21
-0.563785
0
LINE
8
BLACK
6
CONTINUOUS
10
-0.806519
20
-0.563785
11
-0.801397
21
-0.565157
0
LINE
8
BLACK
6
CONTINUOUS
10
-0.801397
20
-0.565157
11
-0.801358
21
-0.565187
0
LINE
8
BLACK
6
CONTINUOUS
10
-0.801358
20
-0.565187
11
-0.801311
21
-0.565196
0
LINE
8
BLACK
6
CONTINUOUS
10
-0.801311
20
-0.565196
11
-0.797812
21
-0.567506
0
LINE
8
BLACK
6
CONTINUOUS
10
-0.797812
20
-0.567506
11
-0.797794
21
-0.567534
0
LINE
8
BLACK
6
CONTINUOUS
10
-0.797794
20
-0.567534
11
-0.797763
21
-0.567547
0
LINE
8
BLACK
6
CONTINUOUS
10
-0.797763
20
-0.567547
11
-0.79239
21
-0.573104
0
LINE
8
BLACK
6
CONTINUOUS
10
-0.79239
20
-0.573104
11
-0.792376
21
-0.573139
0
LINE
8
BLACK
6
CONTINUOUS
10
-0.792376
20
-0.573139
11
-0.792346
21
-0.573162
0
LINE
8
BLACK
6
CONTINUOUS
10
-0.792346
20
-0.573162
11
-0.789534
21
-0.578032
0
LINE
8
BLACK
6
CONTINUOUS
10
-0.789534
20
-0.578032
11
-0.789529
21
-0.578069
0
LINE
8
BLACK
6
CONTINUOUS
10
-0.789529
20
-0.578069
11
-0.789506
21
-0.578099
0
LINE
8
BLACK
6
CONTINUOUS
10
-0.789506
20
-0.578099
11
-0.78738
21
-0.585531
0
LINE
8
BLACK
6
CONTINUOUS
10
-0.78738
20
-0.585531
11
-0.787384
21
-0.585564
0
LINE
8
BLACK
6
CONTINUOUS
10
-0.787384
20
-0.585564
11
-0.787369
21
-0.585594
0
LINE
8
BLACK
6
CONTINUOUS
10
-0.787369
20
-0.585594
11
-0.787118
21
-0.589779
0
LINE
8
BLACK
6
CONTINUOUS
10
-0.787118
20
-0.589779
11
-0.787134
21
-0.589825
0
LINE
8
BLACK
6
CONTINUOUS
10
-0.787134
20
-0.589825
11
-0.787127
21
-0.589873
0
LINE
8
BLACK
6
CONTINUOUS
10
-0.787127
20
-0.589873
11
-0.7885
21
-0.594995
0
LINE
8
BLACK
6
CONTINUOUS
10
-0.7885
20
-0.594995
11
-0.788542
21
-0.595049
0
LINE
8
BLACK
6
CONTINUOUS
10
-0.788542
20
-0.595049
11
-0.788564
21
-0.595114
0
LINE
8
BLACK
6
CONTINUOUS
10
-0.788564
20
-0.595114
11
-0.792498
21
-0.59955
0
LINE
8
BLACK
6
CONTINUOUS
10
-0.792498
20
-0.59955
11
-0.792541
21
-0.599571
0
LINE
8
BLACK
6
CONTINUOUS
10
-0.792541
20
-0.599571
11
-0.792571
21
-0.59961
0
LINE
8
BLACK
6
CONTINUOUS
10
-0.792571
20
-0.59961
11
-0.795818
21
-0.601484
0
LINE
8
BLACK
6
CONTINUOUS
10
-0.795818
20
-0.601484
11
-0.795866
21
-0.601491
0
LINE
8
BLACK
6
CONTINUOUS
10
-0.795866
20
-0.601491
11
-0.795907
21
-0.601518
0
LINE
8
BLACK
6
CONTINUOUS
10
-0.795907
20
-0.601518
11
-0.801715
21
-0.602707
0
LINE
8
BLACK
6
CONTINUOUS
10
-0.801715
20
-0.602707
11
-0.801782
21
-0.602694
0
LINE
8
BLACK
6
CONTINUOUS
10
-0.801782
20
-0.602694
11
-0.80185
21
-0.602703
0
LINE
8
BLACK
6
CONTINUOUS
10
-0.80185
20
-0.602703
11
-0.804411
21
-0.602016
0
LINE
8
BLACK
6
CONTINUOUS
10
-0.804411
20
-0.602016
11
-0.804591
21
-0.601879
0
LINE
8
BLACK
6
CONTINUOUS
10
-0.804591
20
-0.601879
11
-0.80462
21
-0.601655
0
LINE
8
BLACK
6
CONTINUOUS
10
-0.80462
20
-0.601655
11
-0.804482
21
-0.601475
0
LINE
8
BLACK
6
CONTINUOUS
10
-0.804482
20
-0.601475
11
-0.804258
21
-0.601446
0
LINE
8
BLACK
6
CONTINUOUS
10
-0.804258
20
-0.601446
11
-0.801765
21
-0.602114
0
LINE
8
BLACK
6
CONTINUOUS
10
-0.801765
20
-0.602114
11
-0.796072
21
-0.600949
0
LINE
8
BLACK
6
CONTINUOUS
10
-0.796072
20
-0.600949
11
-0.792908
21
-0.599122
0
LINE
8
BLACK
6
CONTINUOUS
10
-0.792908
20
-0.599122
11
-0.789052
21
-0.594775
0
LINE
8
BLACK
6
CONTINUOUS
10
-0.789052
20
-0.594775
11
-0.78771
21
-0.589766
0
LINE
8
BLACK
6
CONTINUOUS
10
-0.78771
20
-0.589766
11
-0.787957
21
-0.585662
0
LINE
8
BLACK
6
CONTINUOUS
10
-0.787957
20
-0.585662
11
-0.790064
21
-0.578296
0
LINE
8
BLACK
6
CONTINUOUS
10
-0.790064
20
-0.578296
11
-0.792839
21
-0.573488
0
LINE
8
BLACK
6
CONTINUOUS
10
-0.792839
20
-0.573488
11
-0.798165
21
-0.567981
0
LINE
8
BLACK
6
CONTINUOUS
10
-0.798165
20
-0.567981
11
-0.801596
21
-0.565715
0
LINE
8
BLACK
6
CONTINUOUS
10
-0.801596
20
-0.565715
11
-0.806604
21
-0.564373
0
LINE
8
BLACK
6
CONTINUOUS
10
-0.806604
20
-0.564373
11
-0.812297
21
-0.565538
0
LINE
8
BLACK
6
CONTINUOUS
10
-0.812297
20
-0.565538
11
-0.815462
21
-0.567365
0
LINE
8
BLACK
6
CONTINUOUS
10
-0.815462
20
-0.567365
11
-0.819317
21
-0.571713
0
LINE
8
BLACK
6
CONTINUOUS
10
-0.819317
20
-0.571713
11
-0.819985
21
-0.574206
0
LINE
8
BLACK
6
CONTINUOUS
10
-0.819985
20
-0.574206
11
-0.820123
21
-0.574386
0
LINE
8
BLACK
6
CONTINUOUS
10
-0.820123
20
-0.574386
11
-0.820347
21
-0.574415
0
LINE
8
BLACK
6
CONTINUOUS
10
-0.820347
20
-0.574415
11
-0.820526
21
-0.574278
0
LINE
8
BLACK
6
CONTINUOUS
10
-0.820526
20
-0.574278
11
-0.820556
21
-0.574054
0
LINE
8
BLACK
6
CONTINUOUS
10
-0.820556
20
-0.574054
11
-0.819869
21
-0.571493
0
LINE
8
BLACK
6
CONTINUOUS
10
-0.819869
20
-0.571493
11
-0.819828
21
-0.571438
0
LINE
8
BLACK
6
CONTINUOUS
10
-0.819828
20
-0.571438
11
-0.819805
21
-0.571373
0
LINE
8
BLACK
6
CONTINUOUS
10
-0.819805
20
-0.571373
11
-0.815872
21
-0.566937
0
LINE
8
BLACK
6
CONTINUOUS
10
-0.815872
20
-0.566937
11
-0.815828
21
-0.566916
0
LINE
8
BLACK
6
CONTINUOUS
10
-0.815828
20
-0.566916
11
-0.815798
21
-0.566878
0
LINE
8
BLACK
6
CONTINUOUS
10
-0.815798
20
-0.566878
11
-0.812551
21
-0.565003
0
LINE
8
BLACK
6
CONTINUOUS
10
-0.812551
20
-0.565003
11
-0.812503
21
-0.564996
0
LINE
8
BLACK
6
CONTINUOUS
10
-0.812503
20
-0.564996
11
-0.812463
21
-0.564969
0
LINE
8
BLACK
6
CONTINUOUS
10
-0.812463
20
-0.564969
11
-0.806655
21
-0.563781
0
LINE
8
BLACK
6
CONTINUOUS
10
-0.806655
20
-0.563781
11
-0.806587
21
-0.563794
0
LINE
8
BLACK
6
CONTINUOUS
10
-0.768404
20
-0.539703
11
-0.768277
21
-0.53989
0
LINE
8
BLACK
6
CONTINUOUS
10
-0.768277
20
-0.53989
11
-0.759957
21
-0.580547
0
LINE
8
BLACK
6
CONTINUOUS
10
-0.759957
20
-0.580547
11
-0.759961
21
-0.580569
0
LINE
8
BLACK
6
CONTINUOUS
10
-0.759961
20
-0.580569
11
-0.759952
21
-0.580589
0
LINE
8
BLACK
6
CONTINUOUS
10
-0.759952
20
-0.580589
11
-0.759982
21
-0.580677
0
LINE
8
BLACK
6
CONTINUOUS
10
-0.759982
20
-0.580677
11
-0.76
21
-0.580769
0
LINE
8
BLACK
6
CONTINUOUS
10
-0.76
20
-0.580769
11
-0.760018
21
-0.580781
0
LINE
8
BLACK
6
CONTINUOUS
10
-0.760018
20
-0.580781
11
-0.760026
21
-0.580802
0
LINE
8
BLACK
6
CONTINUOUS
10
-0.760026
20
-0.580802
11
-0.76011
21
-0.580843
0
LINE
8
BLACK
6
CONTINUOUS
10
-0.76011
20
-0.580843
11
-0.760187
21
-0.580896
0
LINE
8
BLACK
6
CONTINUOUS
10
-0.760187
20
-0.580896
11
-0.760209
21
-0.580891
0
LINE
8
BLACK
6
CONTINUOUS
10
-0.760209
20
-0.580891
11
-0.760229
21
-0.580901
0
LINE
8
BLACK
6
CONTINUOUS
10
-0.760229
20
-0.580901
11
-0.760317
21
-0.580871
0
LINE
8
BLACK
6
CONTINUOUS
10
-0.760317
20
-0.580871
11
-0.760409
21
-0.580853
0
LINE
8
BLACK
6
CONTINUOUS
10
-0.760409
20
-0.580853
11
-0.760422
21
-0.580834
0
LINE
8
BLACK
6
CONTINUOUS
10
-0.760422
20
-0.580834
11
-0.760443
21
-0.580827
0
LINE
8
BLACK
6
CONTINUOUS
10
-0.760443
20
-0.580827
11
-0.791493
21
-0.553293
0
LINE
8
BLACK
6
CONTINUOUS
10
-0.791493
20
-0.553293
11
-0.791592
21
-0.55309
0
LINE
8
BLACK
6
CONTINUOUS
10
-0.791592
20
-0.55309
11
-0.791518
21
-0.552877
0
LINE
8
BLACK
6
CONTINUOUS
10
-0.791518
20
-0.552877
11
-0.791314
21
-0.552778
0
LINE
8
BLACK
6
CONTINUOUS
10
-0.791314
20
-0.552778
11
-0.791101
21
-0.552852
0
LINE
8
BLACK
6
CONTINUOUS
10
-0.791101
20
-0.552852
11
-0.760714
21
-0.579798
0
LINE
8
BLACK
6
CONTINUOUS
10
-0.760714
20
-0.579798
11
-0.768856
21
-0.540008
0
LINE
8
BLACK
6
CONTINUOUS
10
-0.768856
20
-0.540008
11
-0.768813
21
-0.539786
0
LINE
8
BLACK
6
CONTINUOUS
10
-0.768813
20
-0.539786
11
-0.768626
21
-0.53966
0
LINE
8
BLACK
6
CONTINUOUS
10
-0.768626
20
-0.53966
11
-0.768404
21
-0.539703
0
LINE
8
BLACK
6
CONTINUOUS
10
-0.714536
20
-0.366946
11
-0.675166
21
-0.435137
0
LINE
8
BLACK
6
CONTINUOUS
10
-0.675166
20
-0.435137
11
-0.674917
21
-0.437034
0
LINE
8
BLACK
6
CONTINUOUS
10
-0.674917
20
-0.437034
11
-0.676081
21
-0.438552
0
LINE
8
BLACK
6
CONTINUOUS
10
-0.676081
20
-0.438552
11
-0.76132
21
-0.487764
0
LINE
8
BLACK
6
CONTINUOUS
10
-0.76132
20
-0.487764
11
-0.763217
21
-0.488014
0
LINE
8
BLACK
6
CONTINUOUS
10
-0.763217
20
-0.488014
11
-0.764735
21
-0.486849
0
LINE
8
BLACK
6
CONTINUOUS
10
-0.764735
20
-0.486849
11
-0.804105
21
-0.418658
0
LINE
8
BLACK
6
CONTINUOUS
10
-0.804105
20
-0.418658
11
-0.804355
21
-0.416761
0
LINE
8
BLACK
6
CONTINUOUS
10
-0.804355
20
-0.416761
11
-0.80319
21
-0.415243
0
LINE
8
BLACK
6
CONTINUOUS
10
-0.80319
20
-0.415243
11
-0.717952
21
-0.366031
0
LINE
8
BLACK
6
CONTINUOUS
10
-0.717952
20
-0.366031
11
-0.717952
21
-0.366031
0
LINE
8
BLACK
6
CONTINUOUS
10
-0.717952
20
-0.366031
11
-0.716054
21
-0.365781
0
LINE
8
BLACK
6
CONTINUOUS
10
-0.716054
20
-0.365781
11
-0.714536
21
-0.366946
0
LINE
8
BLACK
6
CONTINUOUS
10
-0.798525
20
-0.418324
11
-0.761655
21
-0.482184
0
LINE
8
BLACK
6
CONTINUOUS
10
-0.761655
20
-0.482184
11
-0.680747
21
-0.435472
0
LINE
8
BLACK
6
CONTINUOUS
10
-0.680747
20
-0.435472
11
-0.717617
21
-0.371611
0
LINE
8
BLACK
6
CONTINUOUS
10
-0.717617
20
-0.371611
11
-0.798525
21
-0.418324
0
LINE
8
BLACK
6
CONTINUOUS
10
-0.760052
20
-0.411052
11
-0.759429
21
-0.410989
0
LINE
8
BLACK
6
CONTINUOUS
10
-0.759429
20
-0.410989
11
-0.759088
21
-0.411222
0
LINE
8
BLACK
6
CONTINUOUS
10
-0.759088
20
-0.411222
11
-0.758681
21
-0.411293
0
LINE
8
BLACK
6
CONTINUOUS
10
-0.758681
20
-0.411293
11
-0.758278
21
-0.411774
0
LINE
8
BLACK
6
CONTINUOUS
10
-0.758278
20
-0.411774
11
-0.75776
21
-0.412127
0
LINE
8
BLACK
6
CONTINUOUS
10
-0.75776
20
-0.412127
11
-0.746762
21
-0.427426
0
LINE
8
BLACK
6
CONTINUOUS
10
-0.746762
20
-0.427426
11
-0.746317
21
-0.42835
0
LINE
8
BLACK
6
CONTINUOUS
10
-0.746317
20
-0.42835
11
-0.746319
21
-0.428369
0
LINE
8
BLACK
6
CONTINUOUS
10
-0.746319
20
-0.428369
11
-0.746308
21
-0.428385
0
LINE
8
BLACK
6
CONTINUOUS
10
-0.746308
20
-0.428385
11
-0.746394
21
-0.429376
0
LINE
8
BLACK
6
CONTINUOUS
10
-0.746394
20
-0.429376
11
-0.746469
21
-0.430364
0
LINE
8
BLACK
6
CONTINUOUS
10
-0.746469
20
-0.430364
11
-0.746482
21
-0.430378
0
LINE
8
BLACK
6
CONTINUOUS
10
-0.746482
20
-0.430378
11
-0.746484
21
-0.430397
0
LINE
8
BLACK
6
CONTINUOUS
10
-0.746484
20
-0.430397
11
-0.747186
21
-0.4311
0
LINE
8
BLACK
6
CONTINUOUS
10
-0.747186
20
-0.4311
11
-0.747879
21
-0.43181
0
LINE
8
BLACK
6
CONTINUOUS
10
-0.747879
20
-0.43181
11
-0.747898
21
-0.431811
0
LINE
8
BLACK
6
CONTINUOUS
10
-0.747898
20
-0.431811
11
-0.747912
21
-0.431825
0
LINE
8
BLACK
6
CONTINUOUS
10
-0.747912
20
-0.431825
11
-0.748901
21
-0.431912
0
LINE
8
BLACK
6
CONTINUOUS
10
-0.748901
20
-0.431912
11
-0.749889
21
-0.432011
0
LINE
8
BLACK
6
CONTINUOUS
10
-0.749889
20
-0.432011
11
-0.749905
21
-0.432
0
LINE
8
BLACK
6
CONTINUOUS
10
-0.749905
20
-0.432
11
-0.749924
21
-0.432001
0
LINE
8
BLACK
6
CONTINUOUS
10
-0.749924
20
-0.432001
11
-0.752022
21
-0.431439
0
LINE
8
BLACK
6
CONTINUOUS
10
-0.752022
20
-0.431439
11
-0.755033
21
-0.43162
0
LINE
8
BLACK
6
CONTINUOUS
10
-0.755033
20
-0.43162
11
-0.761943
21
-0.43561
0
LINE
8
BLACK
6
CONTINUOUS
10
-0.761943
20
-0.43561
11
-0.763605
21
-0.438126
0
LINE
8
BLACK
6
CONTINUOUS
10
-0.763605
20
-0.438126
11
-0.764043
21
-0.439762
0
LINE
8
BLACK
6
CONTINUOUS
10
-0.764043
20
-0.439762
11
-0.763863
21
-0.442772
0
LINE
8
BLACK
6
CONTINUOUS
10
-0.763863
20
-0.442772
11
-0.759873
21
-0.449683
0
LINE
8
BLACK
6
CONTINUOUS
10
-0.759873
20
-0.449683
11
-0.757356
21
-0.451345
0
LINE
8
BLACK
6
CONTINUOUS
10
-0.757356
20
-0.451345
11
-0.755721
21
-0.451783
0
LINE
8
BLACK
6
CONTINUOUS
10
-0.755721
20
-0.451783
11
-0.75271
21
-0.451602
0
LINE
8
BLACK
6
CONTINUOUS
10
-0.75271
20
-0.451602
11
-0.745799
21
-0.447612
0
LINE
8
BLACK
6
CONTINUOUS
10
-0.745799
20
-0.447612
11
-0.744138
21
-0.445096
0
LINE
8
BLACK
6
CONTINUOUS
10
-0.744138
20
-0.445096
11
-0.743576
21
-0.442997
0
LINE
8
BLACK
6
CONTINUOUS
10
-0.743576
20
-0.442997
11
-0.743142
21
-0.442068
0
LINE
8
BLACK
6
CONTINUOUS
10
-0.743142
20
-0.442068
11
-0.741488
21
-0.440909
0
LINE
8
BLACK
6
CONTINUOUS
10
-0.741488
20
-0.440909
11
-0.739476
21
-0.441085
0
LINE
8
BLACK
6
CONTINUOUS
10
-0.739476
20
-0.441085
11
-0.738047
21
-0.442514
0
LINE
8
BLACK
6
CONTINUOUS
10
-0.738047
20
-0.442514
11
-0.737871
21
-0.444526
0
LINE
8
BLACK
6
CONTINUOUS
10
-0.737871
20
-0.444526
11
-0.738558
21
-0.447087
0
LINE
8
BLACK
6
CONTINUOUS
10
-0.738558
20
-0.447087
11
-0.738931
21
-0.447887
0
LINE
8
BLACK
6
CONTINUOUS
10
-0.738931
20
-0.447887
11
-0.738946
21
-0.447949
0
LINE
8
BLACK
6
CONTINUOUS
10
-0.738946
20
-0.447949
11
-0.741255
21
-0.451448
0
LINE
8
BLACK
6
CONTINUOUS
10
-0.741255
20
-0.451448
11
-0.74196
21
-0.452192
0
LINE
8
BLACK
6
CONTINUOUS
10
-0.74196
20
-0.452192
11
-0.74213
21
-0.452243
0
LINE
8
BLACK
6
CONTINUOUS
10
-0.74213
20
-0.452243
11
-0.742243
21
-0.452378
0
LINE
8
BLACK
6
CONTINUOUS
10
-0.742243
20
-0.452378
11
-0.750361
21
-0.457065
0
LINE
8
BLACK
6
CONTINUOUS
10
-0.750361
20
-0.457065
11
-0.751325
21
-0.457416
0
LINE
8
BLACK
6
CONTINUOUS
10
-0.751325
20
-0.457416
11
-0.751499
21
-0.457385
0
LINE
8
BLACK
6
CONTINUOUS
10
-0.751499
20
-0.457385
11
-0.751661
21
-0.457455
0
LINE
8
BLACK
6
CONTINUOUS
10
-0.751661
20
-0.457455
11
-0.755845
21
-0.457706
0
LINE
8
BLACK
6
CONTINUOUS
10
-0.755845
20
-0.457706
11
-0.756722
21
-0.457605
0
LINE
8
BLACK
6
CONTINUOUS
10
-0.756722
20
-0.457605
11
-0.756786
21
-0.457611
0
LINE
8
BLACK
6
CONTINUOUS
10
-0.756786
20
-0.457611
11
-0.759347
21
-0.456925
0
LINE
8
BLACK
6
CONTINUOUS
10
-0.759347
20
-0.456925
11
-0.760147
21
-0.456552
0
LINE
8
BLACK
6
CONTINUOUS
10
-0.760147
20
-0.456552
11
-0.76021
21
-0.456537
0
LINE
8
BLACK
6
CONTINUOUS
10
-0.76021
20
-0.456537
11
-0.763708
21
-0.454227
0
LINE
8
BLACK
6
CONTINUOUS
10
-0.763708
20
-0.454227
11
-0.764453
21
-0.453522
0
LINE
8
BLACK
6
CONTINUOUS
10
-0.764453
20
-0.453522
11
-0.764503
21
-0.453353
0
LINE
8
BLACK
6
CONTINUOUS
10
-0.764503
20
-0.453353
11
-0.764639
21
-0.453239
0
LINE
8
BLACK
6
CONTINUOUS
10
-0.764639
20
-0.453239
11
-0.769325
21
-0.445121
0
LINE
8
BLACK
6
CONTINUOUS
10
-0.769325
20
-0.445121
11
-0.769676
21
-0.444158
0
LINE
8
BLACK
6
CONTINUOUS
10
-0.769676
20
-0.444158
11
-0.769646
21
-0.443984
0
LINE
8
BLACK
6
CONTINUOUS
10
-0.769646
20
-0.443984
11
-0.769716
21
-0.443822
0
LINE
8
BLACK
6
CONTINUOUS
10
-0.769716
20
-0.443822
11
-0.769967
21
-0.439637
0
LINE
8
BLACK
6
CONTINUOUS
10
-0.769967
20
-0.439637
11
-0.769866
21
-0.43876
0
LINE
8
BLACK
6
CONTINUOUS
10
-0.769866
20
-0.43876
11
-0.769872
21
-0.438696
0
LINE
8
BLACK
6
CONTINUOUS
10
-0.769872
20
-0.438696
11
-0.769185
21
-0.436135
0
LINE
8
BLACK
6
CONTINUOUS
10
-0.769185
20
-0.436135
11
-0.768812
21
-0.435335
0
LINE
8
BLACK
6
CONTINUOUS
10
-0.768812
20
-0.435335
11
-0.768797
21
-0.435272
0
LINE
8
BLACK
6
CONTINUOUS
10
-0.768797
20
-0.435272
11
-0.766488
21
-0.431774
0
LINE
8
BLACK
6
CONTINUOUS
10
-0.766488
20
-0.431774
11
-0.765783
21
-0.431029
0
LINE
8
BLACK
6
CONTINUOUS
10
-0.765783
20
-0.431029
11
-0.765613
21
-0.430979
0
LINE
8
BLACK
6
CONTINUOUS
10
-0.765613
20
-0.430979
11
-0.7655
21
-0.430844
0
LINE
8
BLACK
6
CONTINUOUS
10
-0.7655
20
-0.430844
11
-0.757382
21
-0.426157
0
LINE
8
BLACK
6
CONTINUOUS
10
-0.757382
20
-0.426157
11
-0.756418
21
-0.425806
0
LINE
8
BLACK
6
CONTINUOUS
10
-0.756418
20
-0.425806
11
-0.756244
21
-0.425837
0
LINE
8
BLACK
6
CONTINUOUS
10
-0.756244
20
-0.425837
11
-0.756082
21
-0.425767
0
LINE
8
BLACK
6
CONTINUOUS
10
-0.756082
20
-0.425767
11
-0.755263
21
-0.425717
0
LINE
8
BLACK
6
CONTINUOUS
10
-0.755263
20
-0.425717
11
-0.760995
21
-0.417744
0
LINE
8
BLACK
6
CONTINUOUS
10
-0.760995
20
-0.417744
11
-0.774917
21
-0.425782
0
LINE
8
BLACK
6
CONTINUOUS
10
-0.774917
20
-0.425782
11
-0.775881
21
-0.426132
0
LINE
8
BLACK
6
CONTINUOUS
10
-0.775881
20
-0.426132
11
-0.77787
21
-0.425782
0
LINE
8
BLACK
6
CONTINUOUS
10
-0.77787
20
-0.425782
11
-0.779168
21
-0.424234
0
LINE
8
BLACK
6
CONTINUOUS
10
-0.779168
20
-0.424234
11
-0.779168
21
-0.422215
0
LINE
8
BLACK
6
CONTINUOUS
10
-0.779168
20
-0.422215
11
-0.77787
21
-0.420667
0
LINE
8
BLACK
6
CONTINUOUS
10
-0.77787
20
-0.420667
11
-0.761634
21
-0.411293
0
LINE
8
BLACK
6
CONTINUOUS
10
-0.761634
20
-0.411293
11
-0.761487
21
-0.41124
0
LINE
8
BLACK
6
CONTINUOUS
10
-0.761487
20
-0.41124
11
-0.761438
21
-0.41119
0
LINE
8
BLACK
6
CONTINUOUS
10
-0.761438
20
-0.41119
11
-0.761317
21
-0.411178
0
LINE
8
BLACK
6
CONTINUOUS
10
-0.761317
20
-0.411178
11
-0.76067
21
-0.410943
0
LINE
8
BLACK
6
CONTINUOUS
10
-0.76067
20
-0.410943
11
-0.760052
21
-0.411052
0
LINE
8
BLACK
6
CONTINUOUS
10
-0.721881
20
-0.391752
11
-0.705946
21
-0.419353
0
LINE
8
BLACK
6
CONTINUOUS
10
-0.705946
20
-0.419353
11
-0.705595
21
-0.420317
0
LINE
8
BLACK
6
CONTINUOUS
10
-0.705595
20
-0.420317
11
-0.705626
21
-0.42049
0
LINE
8
BLACK
6
CONTINUOUS
10
-0.705626
20
-0.42049
11
-0.705555
21
-0.420652
0
LINE
8
BLACK
6
CONTINUOUS
10
-0.705555
20
-0.420652
11
-0.705304
21
-0.424837
0
LINE
8
BLACK
6
CONTINUOUS
10
-0.705304
20
-0.424837
11
-0.705405
21
-0.425714
0
LINE
8
BLACK
6
CONTINUOUS
10
-0.705405
20
-0.425714
11
-0.705399
21
-0.425778
0
LINE
8
BLACK
6
CONTINUOUS
10
-0.705399
20
-0.425778
11
-0.706086
21
-0.428339
0
LINE
8
BLACK
6
CONTINUOUS
10
-0.706086
20
-0.428339
11
-0.706459
21
-0.429139
0
LINE
8
BLACK
6
CONTINUOUS
10
-0.706459
20
-0.429139
11
-0.706474
21
-0.429202
0
LINE
8
BLACK
6
CONTINUOUS
10
-0.706474
20
-0.429202
11
-0.708783
21
-0.4327
0
LINE
8
BLACK
6
CONTINUOUS
10
-0.708783
20
-0.4327
11
-0.709489
21
-0.433445
0
LINE
8
BLACK
6
CONTINUOUS
10
-0.709489
20
-0.433445
11
-0.709658
21
-0.433495
0
LINE
8
BLACK
6
CONTINUOUS
10
-0.709658
20
-0.433495
11
-0.709771
21
-0.43363
0
LINE
8
BLACK
6
CONTINUOUS
10
-0.709771
20
-0.43363
11
-0.716266
21
-0.43738
0
LINE
8
BLACK
6
CONTINUOUS
10
-0.716266
20
-0.43738
11
-0.717229
21
-0.437731
0
LINE
8
BLACK
6
CONTINUOUS
10
-0.717229
20
-0.437731
11
-0.717403
21
-0.4377
0
LINE
8
BLACK
6
CONTINUOUS
10
-0.717403
20
-0.4377
11
-0.717565
21
-0.43777
0
LINE
8
BLACK
6
CONTINUOUS
10
-0.717565
20
-0.43777
11
-0.72175
21
-0.438021
0
LINE
8
BLACK
6
CONTINUOUS
10
-0.72175
20
-0.438021
11
-0.722626
21
-0.43792
0
LINE
8
BLACK
6
CONTINUOUS
10
-0.722626
20
-0.43792
11
-0.722691
21
-0.437926
0
LINE
8
BLACK
6
CONTINUOUS
10
-0.722691
20
-0.437926
11
-0.725252
21
-0.43724
0
LINE
8
BLACK
6
CONTINUOUS
10
-0.725252
20
-0.43724
11
-0.726052
21
-0.436867
0
LINE
8
BLACK
6
CONTINUOUS
10
-0.726052
20
-0.436867
11
-0.726114
21
-0.436852
0
LINE
8
BLACK
6
CONTINUOUS
10
-0.726114
20
-0.436852
11
-0.729613
21
-0.434542
0
LINE
8
BLACK
6
CONTINUOUS
10
-0.729613
20
-0.434542
11
-0.730358
21
-0.433837
0
LINE
8
BLACK
6
CONTINUOUS
10
-0.730358
20
-0.433837
11
-0.730408
21
-0.433668
0
LINE
8
BLACK
6
CONTINUOUS
10
-0.730408
20
-0.433668
11
-0.730543
21
-0.433554
0
LINE
8
BLACK
6
CONTINUOUS
10
-0.730543
20
-0.433554
11
-0.746479
21
-0.405953
0
LINE
8
BLACK
6
CONTINUOUS
10
-0.746479
20
-0.405953
11
-0.746829
21
-0.404989
0
LINE
8
BLACK
6
CONTINUOUS
10
-0.746829
20
-0.404989
11
-0.746479
21
-0.403
0
LINE
8
BLACK
6
CONTINUOUS
10
-0.746479
20
-0.403
11
-0.744931
21
-0.401702
0
LINE
8
BLACK
6
CONTINUOUS
10
-0.744931
20
-0.401702
11
-0.742912
21
-0.401702
0
LINE
8
BLACK
6
CONTINUOUS
10
-0.742912
20
-0.401702
11
-0.741364
21
-0.403
0
LINE
8
BLACK
6
CONTINUOUS
10
-0.741364
20
-0.403
11
-0.725777
21
-0.429998
0
LINE
8
BLACK
6
CONTINUOUS
10
-0.725777
20
-0.429998
11
-0.723261
21
-0.431659
0
LINE
8
BLACK
6
CONTINUOUS
10
-0.723261
20
-0.431659
11
-0.721625
21
-0.432098
0
LINE
8
BLACK
6
CONTINUOUS
10
-0.721625
20
-0.432098
11
-0.718615
21
-0.431917
0
LINE
8
BLACK
6
CONTINUOUS
10
-0.718615
20
-0.431917
11
-0.713328
21
-0.428865
0
LINE
8
BLACK
6
CONTINUOUS
10
-0.713328
20
-0.428865
11
-0.711666
21
-0.426348
0
LINE
8
BLACK
6
CONTINUOUS
10
-0.711666
20
-0.426348
11
-0.711228
21
-0.424712
0
LINE
8
BLACK
6
CONTINUOUS
10
-0.711228
20
-0.424712
11
-0.711408
21
-0.421702
0
LINE
8
BLACK
6
CONTINUOUS
10
-0.711408
20
-0.421702
11
-0.726995
21
-0.394705
0
LINE
8
BLACK
6
CONTINUOUS
10
-0.726995
20
-0.394705
11
-0.727346
21
-0.393741
0
LINE
8
BLACK
6
CONTINUOUS
10
-0.727346
20
-0.393741
11
-0.726995
21
-0.391752
0
LINE
8
BLACK
6
CONTINUOUS
10
-0.726995
20
-0.391752
11
-0.725448
21
-0.390453
0
LINE
8
BLACK
6
CONTINUOUS
10
-0.725448
20
-0.390453
11
-0.723428
21
-0.390453
0
LINE
8
BLACK
6
CONTINUOUS
10
-0.723428
20
-0.390453
11
-0.721881
21
-0.391752
0
LINE
8
BLACK
6
CONTINUOUS
10
-0.687788
20
-0.355309
11
-0.684634
21
-0.356831
0
LINE
8
BLACK
6
CONTINUOUS
10
-0.684634
20
-0.356831
11
-0.682451
21
-0.35957
0
LINE
8
BLACK
6
CONTINUOUS
10
-0.682451
20
-0.35957
11
-0.681672
21
-0.362984
0
LINE
8
BLACK
6
CONTINUOUS
10
-0.681672
20
-0.362984
11
-0.681672
21
-0.363012
0
LINE
8
BLACK
6
CONTINUOUS
10
-0.681672
20
-0.363012
11
-0.682463
21
-0.366424
0
LINE
8
BLACK
6
CONTINUOUS
10
-0.682463
20
-0.366424
11
-0.684655
21
-0.369155
0
LINE
8
BLACK
6
CONTINUOUS
10
-0.684655
20
-0.369155
11
-0.687815
21
-0.370666
0
LINE
8
BLACK
6
CONTINUOUS
10
-0.687815
20
-0.370666
11
-0.691318
21
-0.370657
0
LINE
8
BLACK
6
CONTINUOUS
10
-0.691318
20
-0.370657
11
-0.694469
21
-0.36913
0
LINE
8
BLACK
6
CONTINUOUS
10
-0.694469
20
-0.36913
11
-0.696647
21
-0.366387
0
LINE
8
BLACK
6
CONTINUOUS
10
-0.696647
20
-0.366387
11
-0.69742
21
-0.362971
0
LINE
8
BLACK
6
CONTINUOUS
10
-0.69742
20
-0.362971
11
-0.696635
21
-0.359557
0
LINE
8
BLACK
6
CONTINUOUS
10
-0.696635
20
-0.359557
11
-0.694448
21
-0.356822
0
LINE
8
BLACK
6
CONTINUOUS
10
-0.694448
20
-0.356822
11
-0.691291
21
-0.355306
0
LINE
8
BLACK
6
CONTINUOUS
10
-0.691291
20
-0.355306
11
-0.687788
21
-0.355309
0
LINE
8
BLACK
6
CONTINUOUS
10
-0.649517
20
0.281316
11
-0.557028
21
0.247653
0
LINE
8
BLACK
6
CONTINUOUS
10
-0.557028
20
0.247653
11
-0.557028
21
0.247653
0
LINE
8
BLACK
6
CONTINUOUS
10
-0.557028
20
0.247653
11
-0.557028
21
0.247652
0
LINE
8
BLACK
6
CONTINUOUS
10
-0.557028
20
0.247652
11
-0.555617
21
0.24636
0
LINE
8
BLACK
6
CONTINUOUS
10
-0.555617
20
0.24636
11
-0.555546
21
0.244732
0
LINE
8
BLACK
6
CONTINUOUS
10
-0.555546
20
0.244732
11
-0.555534
21
0.244448
0
LINE
8
BLACK
6
CONTINUOUS
10
-0.555534
20
0.244448
11
-0.582465
21
0.170457
0
LINE
8
BLACK
6
CONTINUOUS
10
-0.582465
20
0.170457
11
-0.582465
21
0.170457
0
LINE
8
BLACK
6
CONTINUOUS
10
-0.582465
20
0.170457
11
-0.583757
21
0.169046
0
LINE
8
BLACK
6
CONTINUOUS
10
-0.583757
20
0.169046
11
-0.585669
21
0.168962
0
LINE
8
BLACK
6
CONTINUOUS
10
-0.585669
20
0.168962
11
-0.678158
21
0.202626
0
LINE
8
BLACK
6
CONTINUOUS
10
-0.678158
20
0.202626
11
-0.679569
21
0.203919
0
LINE
8
BLACK
6
CONTINUOUS
10
-0.679569
20
0.203919
11
-0.679652
21
0.20583
0
LINE
8
BLACK
6
CONTINUOUS
10
-0.679652
20
0.20583
11
-0.652722
21
0.279822
0
LINE
8
BLACK
6
CONTINUOUS
10
-0.652722
20
0.279822
11
-0.651429
21
0.281232
0
LINE
8
BLACK
6
CONTINUOUS
10
-0.651429
20
0.281232
11
-0.649518
21
0.281316
0
LINE
8
BLACK
6
CONTINUOUS
10
-0.649518
20
0.281316
11
-0.649517
21
0.281316
0
LINE
8
BLACK
6
CONTINUOUS
10
-0.674099
20
0.206469
11
-0.586308
21
0.174516
0
LINE
8
BLACK
6
CONTINUOUS
10
-0.586308
20
0.174516
11
-0.561087
21
0.243809
0
LINE
8
BLACK
6
CONTINUOUS
10
-0.561087
20
0.243809
11
-0.648878
21
0.275762
0
LINE
8
BLACK
6
CONTINUOUS
10
-0.648878
20
0.275762
11
-0.674099
21
0.206469
0
LINE
8
BLACK
6
CONTINUOUS
10
-0.601696
20
0.245391
11
-0.600398
21
0.243844
0
LINE
8
BLACK
6
CONTINUOUS
10
-0.600398
20
0.243844
11
-0.600398
21
0.241824
0
LINE
8
BLACK
6
CONTINUOUS
10
-0.600398
20
0.241824
11
-0.61106
21
0.21253
0
LINE
8
BLACK
6
CONTINUOUS
10
-0.61106
20
0.21253
11
-0.610715
21
0.209534
0
LINE
8
BLACK
6
CONTINUOUS
10
-0.610715
20
0.209534
11
-0.61
21
0.208
0
LINE
8
BLACK
6
CONTINUOUS
10
-0.61
20
0.208
11
-0.607926
21
0.20581
0
LINE
8
BLACK
6
CONTINUOUS
10
-0.607926
20
0.20581
11
-0.602189
21
0.203722
0
LINE
8
BLACK
6
CONTINUOUS
10
-0.602189
20
0.203722
11
-0.599193
21
0.204066
0
LINE
8
BLACK
6
CONTINUOUS
10
-0.599193
20
0.204066
11
-0.597659
21
0.204782
0
LINE
8
BLACK
6
CONTINUOUS
10
-0.597659
20
0.204782
11
-0.595469
21
0.206855
0
LINE
8
BLACK
6
CONTINUOUS
10
-0.595469
20
0.206855
11
-0.584807
21
0.236149
0
LINE
8
BLACK
6
CONTINUOUS
10
-0.584807
20
0.236149
11
-0.584294
21
0.237037
0
LINE
8
BLACK
6
CONTINUOUS
10
-0.584294
20
0.237037
11
-0.582545
21
0.238047
0
LINE
8
BLACK
6
CONTINUOUS
10
-0.582545
20
0.238047
11
-0.580556
21
0.237697
0
LINE
8
BLACK
6
CONTINUOUS
10
-0.580556
20
0.237697
11
-0.579257
21
0.236149
0
LINE
8
BLACK
6
CONTINUOUS
10
-0.579257
20
0.236149
11
-0.579257
21
0.23413
0
LINE
8
BLACK
6
CONTINUOUS
10
-0.579257
20
0.23413
11
-0.590158
21
0.204181
0
LINE
8
BLACK
6
CONTINUOUS
10
-0.590158
20
0.204181
11
-0.590671
21
0.203293
0
LINE
8
BLACK
6
CONTINUOUS
10
-0.590671
20
0.203293
11
-0.590824
21
0.203204
0
LINE
8
BLACK
6
CONTINUOUS
10
-0.590824
20
0.203204
11
-0.590902
21
0.203046
0
LINE
8
BLACK
6
CONTINUOUS
10
-0.590902
20
0.203046
11
-0.593947
21
0.200164
0
LINE
8
BLACK
6
CONTINUOUS
10
-0.593947
20
0.200164
11
-0.594683
21
0.199678
0
LINE
8
BLACK
6
CONTINUOUS
10
-0.594683
20
0.199678
11
-0.594729
21
0.199632
0
LINE
8
BLACK
6
CONTINUOUS
10
-0.594729
20
0.199632
11
-0.597132
21
0.198512
0
LINE
8
BLACK
6
CONTINUOUS
10
-0.597132
20
0.198512
11
-0.597984
21
0.198283
0
LINE
8
BLACK
6
CONTINUOUS
10
-0.597984
20
0.198283
11
-0.598042
21
0.198254
0
LINE
8
BLACK
6
CONTINUOUS
10
-0.598042
20
0.198254
11
-0.602207
21
0.197775
0
LINE
8
BLACK
6
CONTINUOUS
10
-0.602207
20
0.197775
11
-0.60323
21
0.197837
0
LINE
8
BLACK
6
CONTINUOUS
10
-0.60323
20
0.197837
11
-0.603378
21
0.197934
0
LINE
8
BLACK
6
CONTINUOUS
10
-0.603378
20
0.197934
11
-0.603554
21
0.197934
0
LINE
8
BLACK
6
CONTINUOUS
10
-0.603554
20
0.197934
11
-0.610601
21
0.200499
0
LINE
8
BLACK
6
CONTINUOUS
10
-0.610601
20
0.200499
11
-0.611489
21
0.201011
0
LINE
8
BLACK
6
CONTINUOUS
10
-0.611489
20
0.201011
11
-0.611577
21
0.201164
0
LINE
8
BLACK
6
CONTINUOUS
10
-0.611577
20
0.201164
11
-0.611735
21
0.201243
0
LINE
8
BLACK
6
CONTINUOUS
10
-0.611735
20
0.201243
11
-0.614617
21
0.204287
0
LINE
8
BLACK
6
CONTINUOUS
10
-0.614617
20
0.204287
11
-0.615104
21
0.205024
0
LINE
8
BLACK
6
CONTINUOUS
10
-0.615104
20
0.205024
11
-0.615149
21
0.20507
0
LINE
8
BLACK
6
CONTINUOUS
10
-0.615149
20
0.20507
11
-0.61627
21
0.207473
0
LINE
8
BLACK
6
CONTINUOUS
10
-0.61627
20
0.207473
11
-0.616498
21
0.208325
0
LINE
8
BLACK
6
CONTINUOUS
10
-0.616498
20
0.208325
11
-0.616527
21
0.208383
0
LINE
8
BLACK
6
CONTINUOUS
10
-0.616527
20
0.208383
11
-0.617006
21
0.212547
0
LINE
8
BLACK
6
CONTINUOUS
10
-0.617006
20
0.212547
11
-0.616945
21
0.213571
0
LINE
8
BLACK
6
CONTINUOUS
10
-0.616945
20
0.213571
11
-0.616848
21
0.213718
0
LINE
8
BLACK
6
CONTINUOUS
10
-0.616848
20
0.213718
11
-0.616848
21
0.213895
0
LINE
8
BLACK
6
CONTINUOUS
10
-0.616848
20
0.213895
11
-0.605947
21
0.243844
0
LINE
8
BLACK
6
CONTINUOUS
10
-0.605947
20
0.243844
11
-0.605434
21
0.244732
0
LINE
8
BLACK
6
CONTINUOUS
10
-0.605434
20
0.244732
11
-0.603685
21
0.245742
0
LINE
8
BLACK
6
CONTINUOUS
10
-0.603685
20
0.245742
11
-0.601696
21
0.245391
0
LINE
8
BLACK
6
CONTINUOUS
10
-0.628588
20
0.255227
11
-0.6277
21
0.254714
0
LINE
8
BLACK
6
CONTINUOUS
10
-0.6277
20
0.254714
11
-0.627612
21
0.254561
0
LINE
8
BLACK
6
CONTINUOUS
10
-0.627612
20
0.254561
11
-0.627454
21
0.254482
0
LINE
8
BLACK
6
CONTINUOUS
10
-0.627454
20
0.254482
11
-0.624572
21
0.251438
0
LINE
8
BLACK
6
CONTINUOUS
10
-0.624572
20
0.251438
11
-0.624085
21
0.250701
0
LINE
8
BLACK
6
CONTINUOUS
10
-0.624085
20
0.250701
11
-0.62404
21
0.250656
0
LINE
8
BLACK
6
CONTINUOUS
10
-0.62404
20
0.250656
11
-0.622919
21
0.248253
0
LINE
8
BLACK
6
CONTINUOUS
10
-0.622919
20
0.248253
11
-0.622803
21
0.247818
0
LINE
8
BLACK
6
CONTINUOUS
10
-0.622803
20
0.247818
11
-0.622726
21
0.247704
0
LINE
8
BLACK
6
CONTINUOUS
10
-0.622726
20
0.247704
11
-0.621127
21
0.241136
0
LINE
8
BLACK
6
CONTINUOUS
10
-0.621127
20
0.241136
11
-0.621063
21
0.240147
0
LINE
8
BLACK
6
CONTINUOUS
10
-0.621063
20
0.240147
11
-0.621059
21
0.240131
0
LINE
8
BLACK
6
CONTINUOUS
10
-0.621059
20
0.240131
11
-0.621862
21
0.232443
0
LINE
8
BLACK
6
CONTINUOUS
10
-0.621862
20
0.232443
11
-0.622024
21
0.231876
0
LINE
8
BLACK
6
CONTINUOUS
10
-0.622024
20
0.231876
11
-0.622024
21
0.23174
0
LINE
8
BLACK
6
CONTINUOUS
10
-0.622024
20
0.23174
11
-0.627154
21
0.217646
0
LINE
8
BLACK
6
CONTINUOUS
10
-0.627154
20
0.217646
11
-0.627666
21
0.216758
0
LINE
8
BLACK
6
CONTINUOUS
10
-0.627666
20
0.216758
11
-0.627819
21
0.21667
0
LINE
8
BLACK
6
CONTINUOUS
10
-0.627819
20
0.21667
11
-0.627898
21
0.216512
0
LINE
8
BLACK
6
CONTINUOUS
10
-0.627898
20
0.216512
11
-0.630942
21
0.21363
0
LINE
8
BLACK
6
CONTINUOUS
10
-0.630942
20
0.21363
11
-0.631679
21
0.213143
0
LINE
8
BLACK
6
CONTINUOUS
10
-0.631679
20
0.213143
11
-0.631725
21
0.213098
0
LINE
8
BLACK
6
CONTINUOUS
10
-0.631725
20
0.213098
11
-0.634127
21
0.211977
0
LINE
8
BLACK
6
CONTINUOUS
10
-0.634127
20
0.211977
11
-0.63498
21
0.211749
0
LINE
8
BLACK
6
CONTINUOUS
10
-0.63498
20
0.211749
11
-0.635038
21
0.21172
0
LINE
8
BLACK
6
CONTINUOUS
10
-0.635038
20
0.21172
11
-0.639202
21
0.211241
0
LINE
8
BLACK
6
CONTINUOUS
10
-0.639202
20
0.211241
11
-0.640226
21
0.211302
0
LINE
8
BLACK
6
CONTINUOUS
10
-0.640226
20
0.211302
11
-0.640373
21
0.211399
0
LINE
8
BLACK
6
CONTINUOUS
10
-0.640373
20
0.211399
11
-0.64055
21
0.211399
0
LINE
8
BLACK
6
CONTINUOUS
10
-0.64055
20
0.211399
11
-0.647597
21
0.213964
0
LINE
8
BLACK
6
CONTINUOUS
10
-0.647597
20
0.213964
11
-0.648485
21
0.214477
0
LINE
8
BLACK
6
CONTINUOUS
10
-0.648485
20
0.214477
11
-0.648573
21
0.21463
0
LINE
8
BLACK
6
CONTINUOUS
10
-0.648573
20
0.21463
11
-0.648731
21
0.214709
0
LINE
8
BLACK
6
CONTINUOUS
10
-0.648731
20
0.214709
11
-0.651613
21
0.217753
0
LINE
8
BLACK
6
CONTINUOUS
10
-0.651613
20
0.217753
11
-0.6521
21
0.218489
0
LINE
8
BLACK
6
CONTINUOUS
10
-0.6521
20
0.218489
11
-0.652145
21
0.218535
0
LINE
8
BLACK
6
CONTINUOUS
10
-0.652145
20
0.218535
11
-0.653266
21
0.220938
0
LINE
8
BLACK
6
CONTINUOUS
10
-0.653266
20
0.220938
11
-0.653494
21
0.221791
0
LINE
8
BLACK
6
CONTINUOUS
10
-0.653494
20
0.221791
11
-0.653523
21
0.221848
0
LINE
8
BLACK
6
CONTINUOUS
10
-0.653523
20
0.221848
11
-0.654002
21
0.226013
0
LINE
8
BLACK
6
CONTINUOUS
10
-0.654002
20
0.226013
11
-0.653941
21
0.227036
0
LINE
8
BLACK
6
CONTINUOUS
10
-0.653941
20
0.227036
11
-0.653844
21
0.227184
0
LINE
8
BLACK
6
CONTINUOUS
10
-0.653844
20
0.227184
11
-0.653844
21
0.22736
0
LINE
8
BLACK
6
CONTINUOUS
10
-0.653844
20
0.22736
11
-0.650637
21
0.236169
0
LINE
8
BLACK
6
CONTINUOUS
10
-0.650637
20
0.236169
11
-0.650125
21
0.237057
0
LINE
8
BLACK
6
CONTINUOUS
10
-0.650125
20
0.237057
11
-0.649972
21
0.237145
0
LINE
8
BLACK
6
CONTINUOUS
10
-0.649972
20
0.237145
11
-0.649893
21
0.237303
0
LINE
8
BLACK
6
CONTINUOUS
10
-0.649893
20
0.237303
11
-0.646849
21
0.240185
0
LINE
8
BLACK
6
CONTINUOUS
10
-0.646849
20
0.240185
11
-0.646112
21
0.240672
0
LINE
8
BLACK
6
CONTINUOUS
10
-0.646112
20
0.240672
11
-0.646067
21
0.240717
0
LINE
8
BLACK
6
CONTINUOUS
10
-0.646067
20
0.240717
11
-0.643664
21
0.241838
0
LINE
8
BLACK
6
CONTINUOUS
10
-0.643664
20
0.241838
11
-0.642811
21
0.242066
0
LINE
8
BLACK
6
CONTINUOUS
10
-0.642811
20
0.242066
11
-0.642753
21
0.242095
0
LINE
8
BLACK
6
CONTINUOUS
10
-0.642753
20
0.242095
11
-0.638589
21
0.242574
0
LINE
8
BLACK
6
CONTINUOUS
10
-0.638589
20
0.242574
11
-0.637565
21
0.242513
0
LINE
8
BLACK
6
CONTINUOUS
10
-0.637565
20
0.242513
11
-0.637418
21
0.242416
0
LINE
8
BLACK
6
CONTINUOUS
10
-0.637418
20
0.242416
11
-0.637241
21
0.242416
0
LINE
8
BLACK
6
CONTINUOUS
10
-0.637241
20
0.242416
11
-0.630194
21
0.239851
0
LINE
8
BLACK
6
CONTINUOUS
10
-0.630194
20
0.239851
11
-0.629306
21
0.239338
0
LINE
8
BLACK
6
CONTINUOUS
10
-0.629306
20
0.239338
11
-0.629218
21
0.239185
0
LINE
8
BLACK
6
CONTINUOUS
10
-0.629218
20
0.239185
11
-0.62906
21
0.239106
0
LINE
8
BLACK
6
CONTINUOUS
10
-0.62906
20
0.239106
11
-0.627298
21
0.237245
0
LINE
8
BLACK
6
CONTINUOUS
10
-0.627298
20
0.237245
11
-0.626986
21
0.240236
0
LINE
8
BLACK
6
CONTINUOUS
10
-0.626986
20
0.240236
11
-0.628395
21
0.246022
0
LINE
8
BLACK
6
CONTINUOUS
10
-0.628395
20
0.246022
11
-0.629189
21
0.247726
0
LINE
8
BLACK
6
CONTINUOUS
10
-0.629189
20
0.247726
11
-0.631263
21
0.249916
0
LINE
8
BLACK
6
CONTINUOUS
10
-0.631263
20
0.249916
11
-0.637655
21
0.252242
0
LINE
8
BLACK
6
CONTINUOUS
10
-0.637655
20
0.252242
11
-0.638543
21
0.252755
0
LINE
8
BLACK
6
CONTINUOUS
10
-0.638543
20
0.252755
11
-0.639553
21
0.254504
0
LINE
8
BLACK
6
CONTINUOUS
10
-0.639553
20
0.254504
11
-0.639202
21
0.256493
0
LINE
8
BLACK
6
CONTINUOUS
10
-0.639202
20
0.256493
11
-0.637655
21
0.257792
0
LINE
8
BLACK
6
CONTINUOUS
10
-0.637655
20
0.257792
11
-0.635635
21
0.257792
0
LINE
8
BLACK
6
CONTINUOUS
10
-0.635635
20
0.257792
11
-0.628588
21
0.255227
0
LINE
8
BLACK
6
CONTINUOUS
10
-0.641602
20
0.236283
11
-0.643137
21
0.235567
0
LINE
8
BLACK
6
CONTINUOUS
10
-0.643137
20
0.235567
11
-0.645326
21
0.233494
0
LINE
8
BLACK
6
CONTINUOUS
10
-0.645326
20
0.233494
11
-0.648056
21
0.225995
0
LINE
8
BLACK
6
CONTINUOUS
10
-0.648056
20
0.225995
11
-0.647711
21
0.222999
0
LINE
8
BLACK
6
CONTINUOUS
10
-0.647711
20
0.222999
11
-0.646995
21
0.221465
0
LINE
8
BLACK
6
CONTINUOUS
10
-0.646995
20
0.221465
11
-0.644922
21
0.219275
0
LINE
8
BLACK
6
CONTINUOUS
10
-0.644922
20
0.219275
11
-0.639185
21
0.217187
0
LINE
8
BLACK
6
CONTINUOUS
10
-0.639185
20
0.217187
11
-0.636189
21
0.217532
0
LINE
8
BLACK
6
CONTINUOUS
10
-0.636189
20
0.217532
11
-0.634655
21
0.218247
0
LINE
8
BLACK
6
CONTINUOUS
10
-0.634655
20
0.218247
11
-0.632465
21
0.220321
0
LINE
8
BLACK
6
CONTINUOUS
10
-0.632465
20
0.220321
11
-0.629735
21
0.227819
0
LINE
8
BLACK
6
CONTINUOUS
10
-0.629735
20
0.227819
11
-0.63008
21
0.230815
0
LINE
8
BLACK
6
CONTINUOUS
10
-0.63008
20
0.230815
11
-0.630796
21
0.23235
0
LINE
8
BLACK
6
CONTINUOUS
10
-0.630796
20
0.23235
11
-0.632869
21
0.23454
0
LINE
8
BLACK
6
CONTINUOUS
10
-0.632869
20
0.23454
11
-0.638606
21
0.236628
0
LINE
8
BLACK
6
CONTINUOUS
10
-0.638606
20
0.236628
11
-0.641602
21
0.236283
0
LINE
8
BLACK
6
CONTINUOUS
10
-0.534678
20
0.235526
11
-0.531523
21
0.234005
0
LINE
8
BLACK
6
CONTINUOUS
10
-0.531523
20
0.234005
11
-0.529341
21
0.231266
0
LINE
8
BLACK
6
CONTINUOUS
10
-0.529341
20
0.231266
11
-0.528562
21
0.227851
0
LINE
8
BLACK
6
CONTINUOUS
10
-0.528562
20
0.227851
11
-0.528562
21
0.227823
0
LINE
8
BLACK
6
CONTINUOUS
10
-0.528562
20
0.227823
11
-0.529353
21
0.224412
0
LINE
8
BLACK
6
CONTINUOUS
10
-0.529353
20
0.224412
11
-0.531545
21
0.22168
0
LINE
8
BLACK
6
CONTINUOUS
10
-0.531545
20
0.22168
11
-0.534705
21
0.22017
0
LINE
8
BLACK
6
CONTINUOUS
10
-0.534705
20
0.22017
11
-0.538207
21
0.220179
0
LINE
8
BLACK
6
CONTINUOUS
10
-0.538207
20
0.220179
11
-0.541359
21
0.221706
0
LINE
8
BLACK
6
CONTINUOUS
10
-0.541359
20
0.221706
11
-0.543537
21
0.224449
0
LINE
8
BLACK
6
CONTINUOUS
10
-0.543537
20
0.224449
11
-0.54431
21
0.227865
0
LINE
8
BLACK
6
CONTINUOUS
10
-0.54431
20
0.227865
11
-0.543525
21
0.231278
0
LINE
8
BLACK
6
CONTINUOUS
10
-0.543525
20
0.231278
11
-0.541338
21
0.234013
0
LINE
8
BLACK
6
CONTINUOUS
10
-0.541338
20
0.234013
11
-0.53818
21
0.235529
0
LINE
8
BLACK
6
CONTINUOUS
10
-0.53818
20
0.235529
11
-0.534678
21
0.235526
  0
ENDSEC
  0
EOF
