  0
SECTION
  2
HEADER
  9
$ANGBASE
  50
0.0
  9
$ANGDIR
  70
1
  9
$MEASUREMENT
  70
0
  0
ENDSEC
  0
SECTION
  2
TABLES
  0
TABLE
  2
LTYPE
  70
4
  0
LTYPE
  5
40F
  2
CONTINUOUS
  70
0
  3
Solid line
  72
65
  73
0
  40
0.0
  0
LTYPE
  5
410
  2
DASHDOT
 70
0
  3
Dash Dot ____ _ ____ _
 72
65
 73
4
 40
2.0
 49
1.25
 49
-0.25
 49
0.25
 49
-0.25
  0
LTYPE
  5
411
  2
DASHED
 70
0
  3
Dashed __ __ __ __ __
 72
65
 73
2
 40
0.75
 49
0.5
 49
-0.25
  0
LTYPE
  5
43B
  2
DOTTED
 70
0
  3
Dotted .  .  .  .
 72
65
 73
2
 40
0.2
 49
0.0
 49
-0.2
  0
ENDTAB
  0
TABLE
  2
STYLE
  70
4
  0
STYLE
  2
KICAD
  70
0
  40
0
  41
1
  42
1
  50
0
  71
0
  3
isocp.shx
  0
STYLE
  2
KICADB
  70
0
  40
0
  41
1
  42
1
  50
0
  71
0
  3
isocp.shx
  0
STYLE
  2
KICADI
  70
0
  40
0
  41
1
  42
1
  50
15
  71
0
  3
isocp.shx
  0
STYLE
  2
KICADBI
  70
0
  40
0
  41
1
  42
1
  50
15
  71
0
  3
isocp.shx
  0
ENDTAB
  0
TABLE
  2
LAYER
  70
1
  0
LAYER
  2
BLACK
  70
0
  62
7
  6
CONTINUOUS
  0
ENDTAB
  0
ENDSEC
  0
SECTION
  2
ENTITIES
0
LINE
8
BLACK
6
CONTINUOUS
10
0.178514
20
-1.35509
11
0.178919
21
-1.35572
0
LINE
8
BLACK
6
CONTINUOUS
10
0.178919
20
-1.35572
11
0.199155
21
-1.47049
0
LINE
8
BLACK
6
CONTINUOUS
10
0.199155
20
-1.47049
11
0.198992
21
-1.47122
0
LINE
8
BLACK
6
CONTINUOUS
10
0.198992
20
-1.47122
11
0.198356
21
-1.47163
0
LINE
8
BLACK
6
CONTINUOUS
10
0.198356
20
-1.47163
11
0.141749
21
-1.48161
0
LINE
8
BLACK
6
CONTINUOUS
10
0.141749
20
-1.48161
11
0.141014
21
-1.48145
0
LINE
8
BLACK
6
CONTINUOUS
10
0.141014
20
-1.48145
11
0.140609
21
-1.48081
0
LINE
8
BLACK
6
CONTINUOUS
10
0.140609
20
-1.48081
11
0.120373
21
-1.36605
0
LINE
8
BLACK
6
CONTINUOUS
10
0.120373
20
-1.36605
11
0.120536
21
-1.36531
0
LINE
8
BLACK
6
CONTINUOUS
10
0.120536
20
-1.36531
11
0.121171
21
-1.36491
0
LINE
8
BLACK
6
CONTINUOUS
10
0.121171
20
-1.36491
11
0.177778
21
-1.35493
0
LINE
8
BLACK
6
CONTINUOUS
10
0.177778
20
-1.35493
11
0.178514
21
-1.35509
0
LINE
8
BLACK
6
CONTINUOUS
10
0.122482
20
-1.36667
11
0.142377
21
-1.4795
0
LINE
8
BLACK
6
CONTINUOUS
10
0.142377
20
-1.4795
11
0.197045
21
-1.46986
0
LINE
8
BLACK
6
CONTINUOUS
10
0.197045
20
-1.46986
11
0.177151
21
-1.35703
0
LINE
8
BLACK
6
CONTINUOUS
10
0.177151
20
-1.35703
11
0.122482
21
-1.36667
0
LINE
8
BLACK
6
CONTINUOUS
10
0.322936
20
-1.32869
11
0.323395
21
-1.32929
0
LINE
8
BLACK
6
CONTINUOUS
10
0.323395
20
-1.32929
11
0.353556
21
-1.44186
0
LINE
8
BLACK
6
CONTINUOUS
10
0.353556
20
-1.44186
11
0.353458
21
-1.4426
0
LINE
8
BLACK
6
CONTINUOUS
10
0.353458
20
-1.4426
11
0.35286
21
-1.44306
0
LINE
8
BLACK
6
CONTINUOUS
10
0.35286
20
-1.44306
11
0.297338
21
-1.45794
0
LINE
8
BLACK
6
CONTINUOUS
10
0.297338
20
-1.45794
11
0.296592
21
-1.45784
0
LINE
8
BLACK
6
CONTINUOUS
10
0.296592
20
-1.45784
11
0.296133
21
-1.45724
0
LINE
8
BLACK
6
CONTINUOUS
10
0.296133
20
-1.45724
11
0.265971
21
-1.34468
0
LINE
8
BLACK
6
CONTINUOUS
10
0.265971
20
-1.34468
11
0.26607
21
-1.34393
0
LINE
8
BLACK
6
CONTINUOUS
10
0.26607
20
-1.34393
11
0.266667
21
-1.34347
0
LINE
8
BLACK
6
CONTINUOUS
10
0.266667
20
-1.34347
11
0.322189
21
-1.3286
0
LINE
8
BLACK
6
CONTINUOUS
10
0.322189
20
-1.3286
11
0.322189
21
-1.3286
0
LINE
8
BLACK
6
CONTINUOUS
10
0.322189
20
-1.3286
11
0.322936
21
-1.32869
0
LINE
8
BLACK
6
CONTINUOUS
10
0.268128
20
-1.34512
11
0.29778
21
-1.45578
0
LINE
8
BLACK
6
CONTINUOUS
10
0.29778
20
-1.45578
11
0.3514
21
-1.44142
0
LINE
8
BLACK
6
CONTINUOUS
10
0.3514
20
-1.44142
11
0.321748
21
-1.33075
0
LINE
8
BLACK
6
CONTINUOUS
10
0.321748
20
-1.33075
11
0.268128
21
-1.34512
0
LINE
8
BLACK
6
CONTINUOUS
10
0.462258
20
-1.28779
11
0.462767
21
-1.28835
0
LINE
8
BLACK
6
CONTINUOUS
10
0.462767
20
-1.28835
11
0.462767
21
-1.28835
0
LINE
8
BLACK
6
CONTINUOUS
10
0.462767
20
-1.28835
11
0.502624
21
-1.39786
0
LINE
8
BLACK
6
CONTINUOUS
10
0.502624
20
-1.39786
11
0.502591
21
-1.39861
0
LINE
8
BLACK
6
CONTINUOUS
10
0.502591
20
-1.39861
11
0.502036
21
-1.39912
0
LINE
8
BLACK
6
CONTINUOUS
10
0.502036
20
-1.39912
11
0.502036
21
-1.39912
0
LINE
8
BLACK
6
CONTINUOUS
10
0.502036
20
-1.39912
11
0.448022
21
-1.41878
0
LINE
8
BLACK
6
CONTINUOUS
10
0.448022
20
-1.41878
11
0.448022
21
-1.41878
0
LINE
8
BLACK
6
CONTINUOUS
10
0.448022
20
-1.41878
11
0.44727
21
-1.41874
0
LINE
8
BLACK
6
CONTINUOUS
10
0.44727
20
-1.41874
11
0.446761
21
-1.41819
0
LINE
8
BLACK
6
CONTINUOUS
10
0.446761
20
-1.41819
11
0.406903
21
-1.30868
0
LINE
8
BLACK
6
CONTINUOUS
10
0.406903
20
-1.30868
11
0.406936
21
-1.30793
0
LINE
8
BLACK
6
CONTINUOUS
10
0.406936
20
-1.30793
11
0.407491
21
-1.30742
0
LINE
8
BLACK
6
CONTINUOUS
10
0.407491
20
-1.30742
11
0.461505
21
-1.28776
0
LINE
8
BLACK
6
CONTINUOUS
10
0.461505
20
-1.28776
11
0.461505
21
-1.28776
0
LINE
8
BLACK
6
CONTINUOUS
10
0.461505
20
-1.28776
11
0.462258
21
-1.28779
0
LINE
8
BLACK
6
CONTINUOUS
10
0.40909
20
-1.30893
11
0.448274
21
-1.41659
0
LINE
8
BLACK
6
CONTINUOUS
10
0.448274
20
-1.41659
11
0.500438
21
-1.3976
0
LINE
8
BLACK
6
CONTINUOUS
10
0.500438
20
-1.3976
11
0.461254
21
-1.28995
0
LINE
8
BLACK
6
CONTINUOUS
10
0.461254
20
-1.28995
11
0.40909
21
-1.30893
0
LINE
8
BLACK
6
CONTINUOUS
10
0.543199
20
-1.25802
11
0.543166
21
-1.25727
0
LINE
8
BLACK
6
CONTINUOUS
10
0.543166
20
-1.25727
11
0.543675
21
-1.25671
0
LINE
8
BLACK
6
CONTINUOUS
10
0.543675
20
-1.25671
11
0.59577
21
-1.23242
0
LINE
8
BLACK
6
CONTINUOUS
10
0.59577
20
-1.23242
11
0.596523
21
-1.23239
0
LINE
8
BLACK
6
CONTINUOUS
10
0.596523
20
-1.23239
11
0.597078
21
-1.2329
0
LINE
8
BLACK
6
CONTINUOUS
10
0.597078
20
-1.2329
11
0.597078
21
-1.2329
0
LINE
8
BLACK
6
CONTINUOUS
10
0.597078
20
-1.2329
11
0.646328
21
-1.33851
0
LINE
8
BLACK
6
CONTINUOUS
10
0.646328
20
-1.33851
11
0.646328
21
-1.33851
0
LINE
8
BLACK
6
CONTINUOUS
10
0.646328
20
-1.33851
11
0.646361
21
-1.33927
0
LINE
8
BLACK
6
CONTINUOUS
10
0.646361
20
-1.33927
11
0.645852
21
-1.33982
0
LINE
8
BLACK
6
CONTINUOUS
10
0.645852
20
-1.33982
11
0.593757
21
-1.36411
0
LINE
8
BLACK
6
CONTINUOUS
10
0.593757
20
-1.36411
11
0.593005
21
-1.36415
0
LINE
8
BLACK
6
CONTINUOUS
10
0.593005
20
-1.36415
11
0.592449
21
-1.36364
0
LINE
8
BLACK
6
CONTINUOUS
10
0.592449
20
-1.36364
11
0.543199
21
-1.25802
0
LINE
8
BLACK
6
CONTINUOUS
10
0.545399
20
-1.25808
11
0.593817
21
-1.36191
0
LINE
8
BLACK
6
CONTINUOUS
10
0.593817
20
-1.36191
11
0.644128
21
-1.33845
0
LINE
8
BLACK
6
CONTINUOUS
10
0.644128
20
-1.33845
11
0.59571
21
-1.23462
0
LINE
8
BLACK
6
CONTINUOUS
10
0.59571
20
-1.23462
11
0.545399
21
-1.25808
0
LINE
8
BLACK
6
CONTINUOUS
10
-0.394397
20
-1.32944
11
-0.394685
21
-1.32874
0
LINE
8
BLACK
6
CONTINUOUS
10
-0.394685
20
-1.32874
11
-0.394685
21
-1.22244
0
LINE
8
BLACK
6
CONTINUOUS
10
-0.394685
20
-1.22244
11
-0.394397
21
-1.22174
0
LINE
8
BLACK
6
CONTINUOUS
10
-0.394397
20
-1.22174
11
-0.393701
21
-1.22146
0
LINE
8
BLACK
6
CONTINUOUS
10
-0.393701
20
-1.22146
11
-0.283465
21
-1.22146
0
LINE
8
BLACK
6
CONTINUOUS
10
-0.283465
20
-1.22146
11
-0.282769
21
-1.22174
0
LINE
8
BLACK
6
CONTINUOUS
10
-0.282769
20
-1.22174
11
-0.28248
21
-1.22244
0
LINE
8
BLACK
6
CONTINUOUS
10
-0.28248
20
-1.22244
11
-0.28248
21
-1.32874
0
LINE
8
BLACK
6
CONTINUOUS
10
-0.28248
20
-1.32874
11
-0.282769
21
-1.32944
0
LINE
8
BLACK
6
CONTINUOUS
10
-0.282769
20
-1.32944
11
-0.283465
21
-1.32972
0
LINE
8
BLACK
6
CONTINUOUS
10
-0.283465
20
-1.32972
11
-0.393701
21
-1.32972
0
LINE
8
BLACK
6
CONTINUOUS
10
-0.393701
20
-1.32972
11
-0.394397
21
-1.32944
0
LINE
8
BLACK
6
CONTINUOUS
10
-0.392717
20
-1.22343
11
-0.392717
21
-1.32776
0
LINE
8
BLACK
6
CONTINUOUS
10
-0.392717
20
-1.32776
11
-0.284449
21
-1.32776
0
LINE
8
BLACK
6
CONTINUOUS
10
-0.284449
20
-1.32776
11
-0.284449
21
-1.22343
0
LINE
8
BLACK
6
CONTINUOUS
10
-0.284449
20
-1.22343
11
-0.392717
21
-1.22343
0
LINE
8
BLACK
6
CONTINUOUS
10
0.250328
20
-1.27471
11
0.250039
21
-1.27402
0
LINE
8
BLACK
6
CONTINUOUS
10
0.250039
20
-1.27402
11
0.250039
21
-1.15748
0
LINE
8
BLACK
6
CONTINUOUS
10
0.250039
20
-1.15748
11
0.250328
21
-1.15678
0
LINE
8
BLACK
6
CONTINUOUS
10
0.250328
20
-1.15678
11
0.251024
21
-1.1565
0
LINE
8
BLACK
6
CONTINUOUS
10
0.251024
20
-1.1565
11
0.308504
21
-1.1565
0
LINE
8
BLACK
6
CONTINUOUS
10
0.308504
20
-1.1565
11
0.3092
21
-1.15678
0
LINE
8
BLACK
6
CONTINUOUS
10
0.3092
20
-1.15678
11
0.309488
21
-1.15748
0
LINE
8
BLACK
6
CONTINUOUS
10
0.309488
20
-1.15748
11
0.309488
21
-1.27402
0
LINE
8
BLACK
6
CONTINUOUS
10
0.309488
20
-1.27402
11
0.3092
21
-1.27471
0
LINE
8
BLACK
6
CONTINUOUS
10
0.3092
20
-1.27471
11
0.308504
21
-1.275
0
LINE
8
BLACK
6
CONTINUOUS
10
0.308504
20
-1.275
11
0.251024
21
-1.275
0
LINE
8
BLACK
6
CONTINUOUS
10
0.251024
20
-1.275
11
0.250328
21
-1.27471
0
LINE
8
BLACK
6
CONTINUOUS
10
0.252008
20
-1.15846
11
0.252008
21
-1.27303
0
LINE
8
BLACK
6
CONTINUOUS
10
0.252008
20
-1.27303
11
0.30752
21
-1.27303
0
LINE
8
BLACK
6
CONTINUOUS
10
0.30752
20
-1.27303
11
0.30752
21
-1.15846
0
LINE
8
BLACK
6
CONTINUOUS
10
0.30752
20
-1.15846
11
0.252008
21
-1.15846
0
LINE
8
BLACK
6
CONTINUOUS
10
0.320328
20
-1.27433
11
0.320039
21
-1.27364
0
LINE
8
BLACK
6
CONTINUOUS
10
0.320039
20
-1.27364
11
0.320039
21
-1.1571
0
LINE
8
BLACK
6
CONTINUOUS
10
0.320039
20
-1.1571
11
0.320328
21
-1.15641
0
LINE
8
BLACK
6
CONTINUOUS
10
0.320328
20
-1.15641
11
0.321024
21
-1.15612
0
LINE
8
BLACK
6
CONTINUOUS
10
0.321024
20
-1.15612
11
0.378504
21
-1.15612
0
LINE
8
BLACK
6
CONTINUOUS
10
0.378504
20
-1.15612
11
0.3792
21
-1.15641
0
LINE
8
BLACK
6
CONTINUOUS
10
0.3792
20
-1.15641
11
0.379488
21
-1.1571
0
LINE
8
BLACK
6
CONTINUOUS
10
0.379488
20
-1.1571
11
0.379488
21
-1.27364
0
LINE
8
BLACK
6
CONTINUOUS
10
0.379488
20
-1.27364
11
0.3792
21
-1.27433
0
LINE
8
BLACK
6
CONTINUOUS
10
0.3792
20
-1.27433
11
0.378504
21
-1.27462
0
LINE
8
BLACK
6
CONTINUOUS
10
0.378504
20
-1.27462
11
0.321024
21
-1.27462
0
LINE
8
BLACK
6
CONTINUOUS
10
0.321024
20
-1.27462
11
0.320328
21
-1.27433
0
LINE
8
BLACK
6
CONTINUOUS
10
0.322008
20
-1.15809
11
0.322008
21
-1.27265
0
LINE
8
BLACK
6
CONTINUOUS
10
0.322008
20
-1.27265
11
0.37752
21
-1.27265
0
LINE
8
BLACK
6
CONTINUOUS
10
0.37752
20
-1.27265
11
0.37752
21
-1.15809
0
LINE
8
BLACK
6
CONTINUOUS
10
0.37752
20
-1.15809
11
0.322008
21
-1.15809
0
LINE
8
BLACK
6
CONTINUOUS
10
0.390328
20
-1.27223
11
0.390039
21
-1.27154
0
LINE
8
BLACK
6
CONTINUOUS
10
0.390039
20
-1.27154
11
0.390039
21
-1.155
0
LINE
8
BLACK
6
CONTINUOUS
10
0.390039
20
-1.155
11
0.390328
21
-1.1543
0
LINE
8
BLACK
6
CONTINUOUS
10
0.390328
20
-1.1543
11
0.391024
21
-1.15402
0
LINE
8
BLACK
6
CONTINUOUS
10
0.391024
20
-1.15402
11
0.448504
21
-1.15402
0
LINE
8
BLACK
6
CONTINUOUS
10
0.448504
20
-1.15402
11
0.4492
21
-1.1543
0
LINE
8
BLACK
6
CONTINUOUS
10
0.4492
20
-1.1543
11
0.449488
21
-1.155
0
LINE
8
BLACK
6
CONTINUOUS
10
0.449488
20
-1.155
11
0.449488
21
-1.27154
0
LINE
8
BLACK
6
CONTINUOUS
10
0.449488
20
-1.27154
11
0.4492
21
-1.27223
0
LINE
8
BLACK
6
CONTINUOUS
10
0.4492
20
-1.27223
11
0.448504
21
-1.27252
0
LINE
8
BLACK
6
CONTINUOUS
10
0.448504
20
-1.27252
11
0.391024
21
-1.27252
0
LINE
8
BLACK
6
CONTINUOUS
10
0.391024
20
-1.27252
11
0.390328
21
-1.27223
0
LINE
8
BLACK
6
CONTINUOUS
10
0.392008
20
-1.15598
11
0.392008
21
-1.27055
0
LINE
8
BLACK
6
CONTINUOUS
10
0.392008
20
-1.27055
11
0.44752
21
-1.27055
0
LINE
8
BLACK
6
CONTINUOUS
10
0.44752
20
-1.27055
11
0.44752
21
-1.15598
0
LINE
8
BLACK
6
CONTINUOUS
10
0.44752
20
-1.15598
11
0.392008
21
-1.15598
0
LINE
8
BLACK
6
CONTINUOUS
10
0.505328
20
-1.22971
11
0.505039
21
-1.22902
0
LINE
8
BLACK
6
CONTINUOUS
10
0.505039
20
-1.22902
11
0.505039
21
-1.11248
0
LINE
8
BLACK
6
CONTINUOUS
10
0.505039
20
-1.11248
11
0.505328
21
-1.11178
0
LINE
8
BLACK
6
CONTINUOUS
10
0.505328
20
-1.11178
11
0.506024
21
-1.1115
0
LINE
8
BLACK
6
CONTINUOUS
10
0.506024
20
-1.1115
11
0.563504
21
-1.1115
0
LINE
8
BLACK
6
CONTINUOUS
10
0.563504
20
-1.1115
11
0.5642
21
-1.11178
0
LINE
8
BLACK
6
CONTINUOUS
10
0.5642
20
-1.11178
11
0.564488
21
-1.11248
0
LINE
8
BLACK
6
CONTINUOUS
10
0.564488
20
-1.11248
11
0.564488
21
-1.22902
0
LINE
8
BLACK
6
CONTINUOUS
10
0.564488
20
-1.22902
11
0.5642
21
-1.22971
0
LINE
8
BLACK
6
CONTINUOUS
10
0.5642
20
-1.22971
11
0.563504
21
-1.23
0
LINE
8
BLACK
6
CONTINUOUS
10
0.563504
20
-1.23
11
0.506024
21
-1.23
0
LINE
8
BLACK
6
CONTINUOUS
10
0.506024
20
-1.23
11
0.505328
21
-1.22971
0
LINE
8
BLACK
6
CONTINUOUS
10
0.507008
20
-1.11346
11
0.507008
21
-1.22803
0
LINE
8
BLACK
6
CONTINUOUS
10
0.507008
20
-1.22803
11
0.56252
21
-1.22803
0
LINE
8
BLACK
6
CONTINUOUS
10
0.56252
20
-1.22803
11
0.56252
21
-1.11346
0
LINE
8
BLACK
6
CONTINUOUS
10
0.56252
20
-1.11346
11
0.507008
21
-1.11346
0
LINE
8
BLACK
6
CONTINUOUS
10
-0.360145
20
-1.20955
11
-0.360433
21
-1.20886
0
LINE
8
BLACK
6
CONTINUOUS
10
-0.360433
20
-1.20886
11
-0.360433
21
-1.09232
0
LINE
8
BLACK
6
CONTINUOUS
10
-0.360433
20
-1.09232
11
-0.360145
21
-1.09163
0
LINE
8
BLACK
6
CONTINUOUS
10
-0.360145
20
-1.09163
11
-0.359449
21
-1.09134
0
LINE
8
BLACK
6
CONTINUOUS
10
-0.359449
20
-1.09134
11
-0.301969
21
-1.09134
0
LINE
8
BLACK
6
CONTINUOUS
10
-0.301969
20
-1.09134
11
-0.301273
21
-1.09163
0
LINE
8
BLACK
6
CONTINUOUS
10
-0.301273
20
-1.09163
11
-0.300984
21
-1.09232
0
LINE
8
BLACK
6
CONTINUOUS
10
-0.300984
20
-1.09232
11
-0.300984
21
-1.20886
0
LINE
8
BLACK
6
CONTINUOUS
10
-0.300984
20
-1.20886
11
-0.301273
21
-1.20955
0
LINE
8
BLACK
6
CONTINUOUS
10
-0.301273
20
-1.20955
11
-0.301969
21
-1.20984
0
LINE
8
BLACK
6
CONTINUOUS
10
-0.301969
20
-1.20984
11
-0.359449
21
-1.20984
0
LINE
8
BLACK
6
CONTINUOUS
10
-0.359449
20
-1.20984
11
-0.360145
21
-1.20955
0
LINE
8
BLACK
6
CONTINUOUS
10
-0.358465
20
-1.09331
11
-0.358465
21
-1.20787
0
LINE
8
BLACK
6
CONTINUOUS
10
-0.358465
20
-1.20787
11
-0.302953
21
-1.20787
0
LINE
8
BLACK
6
CONTINUOUS
10
-0.302953
20
-1.20787
11
-0.302953
21
-1.09331
0
LINE
8
BLACK
6
CONTINUOUS
10
-0.302953
20
-1.09331
11
-0.358465
21
-1.09331
0
LINE
8
BLACK
6
CONTINUOUS
10
-0.606701
20
-0.724403
11
-0.456372
21
-0.874733
0
LINE
8
BLACK
6
CONTINUOUS
10
-0.456372
20
-0.874733
11
-0.456083
21
-0.875429
0
LINE
8
BLACK
6
CONTINUOUS
10
-0.456083
20
-0.875429
11
-0.456287
21
-0.875921
0
LINE
8
BLACK
6
CONTINUOUS
10
-0.456287
20
-0.875921
11
-0.456372
21
-0.876125
0
LINE
8
BLACK
6
CONTINUOUS
10
-0.456372
20
-0.876125
11
-0.456372
21
-0.876125
0
LINE
8
BLACK
6
CONTINUOUS
10
-0.456372
20
-0.876125
11
-0.662379
21
-1.08213
0
LINE
8
BLACK
6
CONTINUOUS
10
-0.662379
20
-1.08213
11
-0.663075
21
-1.08242
0
LINE
8
BLACK
6
CONTINUOUS
10
-0.663075
20
-1.08242
11
-0.663771
21
-1.08213
0
LINE
8
BLACK
6
CONTINUOUS
10
-0.663771
20
-1.08213
11
-0.814101
21
-0.931803
0
LINE
8
BLACK
6
CONTINUOUS
10
-0.814101
20
-0.931803
11
-0.814389
21
-0.931107
0
LINE
8
BLACK
6
CONTINUOUS
10
-0.814389
20
-0.931107
11
-0.814101
21
-0.930411
0
LINE
8
BLACK
6
CONTINUOUS
10
-0.814101
20
-0.930411
11
-0.608093
21
-0.724403
0
LINE
8
BLACK
6
CONTINUOUS
10
-0.608093
20
-0.724403
11
-0.608093
21
-0.724403
0
LINE
8
BLACK
6
CONTINUOUS
10
-0.608093
20
-0.724403
11
-0.607889
21
-0.724319
0
LINE
8
BLACK
6
CONTINUOUS
10
-0.607889
20
-0.724319
11
-0.607397
21
-0.724115
0
LINE
8
BLACK
6
CONTINUOUS
10
-0.607397
20
-0.724115
11
-0.606701
21
-0.724403
0
LINE
8
BLACK
6
CONTINUOUS
10
-0.812013
20
-0.931107
11
-0.663075
21
-1.08004
0
LINE
8
BLACK
6
CONTINUOUS
10
-0.663075
20
-1.08004
11
-0.45846
21
-0.875429
0
LINE
8
BLACK
6
CONTINUOUS
10
-0.45846
20
-0.875429
11
-0.607397
21
-0.726491
0
LINE
8
BLACK
6
CONTINUOUS
10
-0.607397
20
-0.726491
11
-0.812013
21
-0.931107
0
LINE
8
BLACK
6
CONTINUOUS
10
0.395328
20
-1.02223
11
0.395039
21
-1.02154
0
LINE
8
BLACK
6
CONTINUOUS
10
0.395039
20
-1.02154
11
0.395039
21
-0.905
0
LINE
8
BLACK
6
CONTINUOUS
10
0.395039
20
-0.905
11
0.395328
21
-0.904304
0
LINE
8
BLACK
6
CONTINUOUS
10
0.395328
20
-0.904304
11
0.396024
21
-0.904016
0
LINE
8
BLACK
6
CONTINUOUS
10
0.396024
20
-0.904016
11
0.453504
21
-0.904016
0
LINE
8
BLACK
6
CONTINUOUS
10
0.453504
20
-0.904016
11
0.4542
21
-0.904304
0
LINE
8
BLACK
6
CONTINUOUS
10
0.4542
20
-0.904304
11
0.454488
21
-0.905
0
LINE
8
BLACK
6
CONTINUOUS
10
0.454488
20
-0.905
11
0.454488
21
-1.02154
0
LINE
8
BLACK
6
CONTINUOUS
10
0.454488
20
-1.02154
11
0.4542
21
-1.02223
0
LINE
8
BLACK
6
CONTINUOUS
10
0.4542
20
-1.02223
11
0.453504
21
-1.02252
0
LINE
8
BLACK
6
CONTINUOUS
10
0.453504
20
-1.02252
11
0.396024
21
-1.02252
0
LINE
8
BLACK
6
CONTINUOUS
10
0.396024
20
-1.02252
11
0.395328
21
-1.02223
0
LINE
8
BLACK
6
CONTINUOUS
10
0.397008
20
-0.905984
11
0.397008
21
-1.02055
0
LINE
8
BLACK
6
CONTINUOUS
10
0.397008
20
-1.02055
11
0.45252
21
-1.02055
0
LINE
8
BLACK
6
CONTINUOUS
10
0.45252
20
-1.02055
11
0.45252
21
-0.905984
0
LINE
8
BLACK
6
CONTINUOUS
10
0.45252
20
-0.905984
11
0.397008
21
-0.905984
0
LINE
8
BLACK
6
CONTINUOUS
10
-0.0609322
20
-0.912113
11
-0.0612205
21
-0.911417
0
LINE
8
BLACK
6
CONTINUOUS
10
-0.0612205
20
-0.911417
11
-0.0612205
21
-0.853937
0
LINE
8
BLACK
6
CONTINUOUS
10
-0.0612205
20
-0.853937
11
-0.0609322
21
-0.853241
0
LINE
8
BLACK
6
CONTINUOUS
10
-0.0609322
20
-0.853241
11
-0.0602362
21
-0.852953
0
LINE
8
BLACK
6
CONTINUOUS
10
-0.0602362
20
-0.852953
11
0.0562992
21
-0.852953
0
LINE
8
BLACK
6
CONTINUOUS
10
0.0562992
20
-0.852953
11
0.0569952
21
-0.853241
0
LINE
8
BLACK
6
CONTINUOUS
10
0.0569952
20
-0.853241
11
0.0572835
21
-0.853937
0
LINE
8
BLACK
6
CONTINUOUS
10
0.0572835
20
-0.853937
11
0.0572835
21
-0.911417
0
LINE
8
BLACK
6
CONTINUOUS
10
0.0572835
20
-0.911417
11
0.0569952
21
-0.912113
0
LINE
8
BLACK
6
CONTINUOUS
10
0.0569952
20
-0.912113
11
0.0562992
21
-0.912402
0
LINE
8
BLACK
6
CONTINUOUS
10
0.0562992
20
-0.912402
11
-0.0602362
21
-0.912402
0
LINE
8
BLACK
6
CONTINUOUS
10
-0.0602362
20
-0.912402
11
-0.0609322
21
-0.912113
0
LINE
8
BLACK
6
CONTINUOUS
10
-0.059252
20
-0.854921
11
-0.059252
21
-0.910433
0
LINE
8
BLACK
6
CONTINUOUS
10
-0.059252
20
-0.910433
11
0.055315
21
-0.910433
0
LINE
8
BLACK
6
CONTINUOUS
10
0.055315
20
-0.910433
11
0.055315
21
-0.854921
0
LINE
8
BLACK
6
CONTINUOUS
10
0.055315
20
-0.854921
11
-0.059252
21
-0.854921
0
LINE
8
BLACK
6
CONTINUOUS
10
-1.28148
20
-0.910683
11
-1.49525
21
-0.491138
0
LINE
8
BLACK
6
CONTINUOUS
10
-1.49525
20
-0.491138
11
-1.49531
21
-0.490387
0
LINE
8
BLACK
6
CONTINUOUS
10
-1.49531
20
-0.490387
11
-1.49482
21
-0.489814
0
LINE
8
BLACK
6
CONTINUOUS
10
-1.49482
20
-0.489814
11
-1.27031
21
-0.375423
0
LINE
8
BLACK
6
CONTINUOUS
10
-1.27031
20
-0.375423
11
-1.27031
21
-0.375423
0
LINE
8
BLACK
6
CONTINUOUS
10
-1.27031
20
-0.375423
11
-1.26956
21
-0.375364
0
LINE
8
BLACK
6
CONTINUOUS
10
-1.26956
20
-0.375364
11
-1.26899
21
-0.375853
0
LINE
8
BLACK
6
CONTINUOUS
10
-1.26899
20
-0.375853
11
-1.26899
21
-0.375853
0
LINE
8
BLACK
6
CONTINUOUS
10
-1.26899
20
-0.375853
11
-1.05522
21
-0.795398
0
LINE
8
BLACK
6
CONTINUOUS
10
-1.05522
20
-0.795398
11
-1.05522
21
-0.795398
0
LINE
8
BLACK
6
CONTINUOUS
10
-1.05522
20
-0.795398
11
-1.05516
21
-0.796149
0
LINE
8
BLACK
6
CONTINUOUS
10
-1.05516
20
-0.796149
11
-1.05516
21
-0.796149
0
LINE
8
BLACK
6
CONTINUOUS
10
-1.05516
20
-0.796149
11
-1.05565
21
-0.796721
0
LINE
8
BLACK
6
CONTINUOUS
10
-1.05565
20
-0.796721
11
-1.28016
21
-0.911113
0
LINE
8
BLACK
6
CONTINUOUS
10
-1.28016
20
-0.911113
11
-1.28091
21
-0.911172
0
LINE
8
BLACK
6
CONTINUOUS
10
-1.28091
20
-0.911172
11
-1.28091
21
-0.911172
0
LINE
8
BLACK
6
CONTINUOUS
10
-1.28091
20
-0.911172
11
-1.28148
21
-0.910683
0
LINE
8
BLACK
6
CONTINUOUS
10
-1.49305
20
-0.491121
11
-1.28017
21
-0.908912
0
LINE
8
BLACK
6
CONTINUOUS
10
-1.28017
20
-0.908912
11
-1.05742
21
-0.795414
0
LINE
8
BLACK
6
CONTINUOUS
10
-1.05742
20
-0.795414
11
-1.2703
21
-0.377623
0
LINE
8
BLACK
6
CONTINUOUS
10
-1.2703
20
-0.377623
11
-1.49305
21
-0.491121
0
LINE
8
BLACK
6
CONTINUOUS
10
0.146973
20
-0.87983
11
0.146685
21
-0.879134
0
LINE
8
BLACK
6
CONTINUOUS
10
0.146685
20
-0.879134
11
0.146685
21
-0.351575
0
LINE
8
BLACK
6
CONTINUOUS
10
0.146685
20
-0.351575
11
0.146973
21
-0.350879
0
LINE
8
BLACK
6
CONTINUOUS
10
0.146973
20
-0.350879
11
0.147669
21
-0.350591
0
LINE
8
BLACK
6
CONTINUOUS
10
0.147669
20
-0.350591
11
0.675228
21
-0.350591
0
LINE
8
BLACK
6
CONTINUOUS
10
0.675228
20
-0.350591
11
0.675924
21
-0.350879
0
LINE
8
BLACK
6
CONTINUOUS
10
0.675924
20
-0.350879
11
0.676213
21
-0.351575
0
LINE
8
BLACK
6
CONTINUOUS
10
0.676213
20
-0.351575
11
0.676213
21
-0.879134
0
LINE
8
BLACK
6
CONTINUOUS
10
0.676213
20
-0.879134
11
0.675924
21
-0.87983
0
LINE
8
BLACK
6
CONTINUOUS
10
0.675924
20
-0.87983
11
0.675228
21
-0.880118
0
LINE
8
BLACK
6
CONTINUOUS
10
0.675228
20
-0.880118
11
0.147669
21
-0.880118
0
LINE
8
BLACK
6
CONTINUOUS
10
0.147669
20
-0.880118
11
0.146973
21
-0.87983
0
LINE
8
BLACK
6
CONTINUOUS
10
0.148654
20
-0.352559
11
0.148654
21
-0.87815
0
LINE
8
BLACK
6
CONTINUOUS
10
0.148654
20
-0.87815
11
0.674244
21
-0.87815
0
LINE
8
BLACK
6
CONTINUOUS
10
0.674244
20
-0.87815
11
0.674244
21
-0.352559
0
LINE
8
BLACK
6
CONTINUOUS
10
0.674244
20
-0.352559
11
0.148654
21
-0.352559
0
LINE
8
BLACK
6
CONTINUOUS
10
-0.333661
20
-0.711048
11
-0.293016
21
-0.751693
0
LINE
8
BLACK
6
CONTINUOUS
10
-0.293016
20
-0.751693
11
-0.292728
21
-0.752389
0
LINE
8
BLACK
6
CONTINUOUS
10
-0.292728
20
-0.752389
11
-0.293016
21
-0.753085
0
LINE
8
BLACK
6
CONTINUOUS
10
-0.293016
20
-0.753085
11
-0.375419
21
-0.835488
0
LINE
8
BLACK
6
CONTINUOUS
10
-0.375419
20
-0.835488
11
-0.376115
21
-0.835776
0
LINE
8
BLACK
6
CONTINUOUS
10
-0.376115
20
-0.835776
11
-0.376811
21
-0.835488
0
LINE
8
BLACK
6
CONTINUOUS
10
-0.376811
20
-0.835488
11
-0.417456
21
-0.794843
0
LINE
8
BLACK
6
CONTINUOUS
10
-0.417456
20
-0.794843
11
-0.417744
21
-0.794147
0
LINE
8
BLACK
6
CONTINUOUS
10
-0.417744
20
-0.794147
11
-0.417456
21
-0.793451
0
LINE
8
BLACK
6
CONTINUOUS
10
-0.417456
20
-0.793451
11
-0.335053
21
-0.711048
0
LINE
8
BLACK
6
CONTINUOUS
10
-0.335053
20
-0.711048
11
-0.334357
21
-0.71076
0
LINE
8
BLACK
6
CONTINUOUS
10
-0.334357
20
-0.71076
11
-0.333661
21
-0.711048
0
LINE
8
BLACK
6
CONTINUOUS
10
-0.415368
20
-0.794147
11
-0.376115
21
-0.8334
0
LINE
8
BLACK
6
CONTINUOUS
10
-0.376115
20
-0.8334
11
-0.295104
21
-0.752389
0
LINE
8
BLACK
6
CONTINUOUS
10
-0.295104
20
-0.752389
11
-0.334357
21
-0.713136
0
LINE
8
BLACK
6
CONTINUOUS
10
-0.334357
20
-0.713136
11
-0.415368
21
-0.794147
0
LINE
8
BLACK
6
CONTINUOUS
10
-0.0522078
20
-0.821224
11
-0.0524961
21
-0.820528
0
LINE
8
BLACK
6
CONTINUOUS
10
-0.0524961
20
-0.820528
11
-0.0524961
21
-0.655173
0
LINE
8
BLACK
6
CONTINUOUS
10
-0.0524961
20
-0.655173
11
-0.0522078
21
-0.654477
0
LINE
8
BLACK
6
CONTINUOUS
10
-0.0522078
20
-0.654477
11
-0.0515118
21
-0.654189
0
LINE
8
BLACK
6
CONTINUOUS
10
-0.0515118
20
-0.654189
11
0.0823465
21
-0.654189
0
LINE
8
BLACK
6
CONTINUOUS
10
0.0823465
20
-0.654189
11
0.0830424
21
-0.654477
0
LINE
8
BLACK
6
CONTINUOUS
10
0.0830424
20
-0.654477
11
0.0833307
21
-0.655173
0
LINE
8
BLACK
6
CONTINUOUS
10
0.0833307
20
-0.655173
11
0.0833307
21
-0.820528
0
LINE
8
BLACK
6
CONTINUOUS
10
0.0833307
20
-0.820528
11
0.0830424
21
-0.821224
0
LINE
8
BLACK
6
CONTINUOUS
10
0.0830424
20
-0.821224
11
0.0823465
21
-0.821512
0
LINE
8
BLACK
6
CONTINUOUS
10
0.0823465
20
-0.821512
11
-0.0515118
21
-0.821512
0
LINE
8
BLACK
6
CONTINUOUS
10
-0.0515118
20
-0.821512
11
-0.0522078
21
-0.821224
0
LINE
8
BLACK
6
CONTINUOUS
10
-0.0505276
20
-0.656157
11
-0.0505276
21
-0.819543
0
LINE
8
BLACK
6
CONTINUOUS
10
-0.0505276
20
-0.819543
11
0.0813622
21
-0.819543
0
LINE
8
BLACK
6
CONTINUOUS
10
0.0813622
20
-0.819543
11
0.0813622
21
-0.656157
0
LINE
8
BLACK
6
CONTINUOUS
10
0.0813622
20
-0.656157
11
-0.0505276
21
-0.656157
0
LINE
8
BLACK
6
CONTINUOUS
10
0.748123
20
-0.781405
11
0.747835
21
-0.780709
0
LINE
8
BLACK
6
CONTINUOUS
10
0.747835
20
-0.780709
11
0.747835
21
-0.664173
0
LINE
8
BLACK
6
CONTINUOUS
10
0.747835
20
-0.664173
11
0.748123
21
-0.663477
0
LINE
8
BLACK
6
CONTINUOUS
10
0.748123
20
-0.663477
11
0.748819
21
-0.663189
0
LINE
8
BLACK
6
CONTINUOUS
10
0.748819
20
-0.663189
11
0.806299
21
-0.663189
0
LINE
8
BLACK
6
CONTINUOUS
10
0.806299
20
-0.663189
11
0.806995
21
-0.663477
0
LINE
8
BLACK
6
CONTINUOUS
10
0.806995
20
-0.663477
11
0.807283
21
-0.664173
0
LINE
8
BLACK
6
CONTINUOUS
10
0.807283
20
-0.664173
11
0.807283
21
-0.780709
0
LINE
8
BLACK
6
CONTINUOUS
10
0.807283
20
-0.780709
11
0.806995
21
-0.781405
0
LINE
8
BLACK
6
CONTINUOUS
10
0.806995
20
-0.781405
11
0.806299
21
-0.781693
0
LINE
8
BLACK
6
CONTINUOUS
10
0.806299
20
-0.781693
11
0.748819
21
-0.781693
0
LINE
8
BLACK
6
CONTINUOUS
10
0.748819
20
-0.781693
11
0.748123
21
-0.781405
0
LINE
8
BLACK
6
CONTINUOUS
10
0.749803
20
-0.665157
11
0.749803
21
-0.779724
0
LINE
8
BLACK
6
CONTINUOUS
10
0.749803
20
-0.779724
11
0.805315
21
-0.779724
0
LINE
8
BLACK
6
CONTINUOUS
10
0.805315
20
-0.779724
11
0.805315
21
-0.665157
0
LINE
8
BLACK
6
CONTINUOUS
10
0.805315
20
-0.665157
11
0.749803
21
-0.665157
0
LINE
8
BLACK
6
CONTINUOUS
10
-0.127861
20
-0.775499
11
-0.12815
21
-0.774803
0
LINE
8
BLACK
6
CONTINUOUS
10
-0.12815
20
-0.774803
11
-0.12815
21
-0.658268
0
LINE
8
BLACK
6
CONTINUOUS
10
-0.12815
20
-0.658268
11
-0.127861
21
-0.657572
0
LINE
8
BLACK
6
CONTINUOUS
10
-0.127861
20
-0.657572
11
-0.127165
21
-0.657283
0
LINE
8
BLACK
6
CONTINUOUS
10
-0.127165
20
-0.657283
11
-0.069685
21
-0.657283
0
LINE
8
BLACK
6
CONTINUOUS
10
-0.069685
20
-0.657283
11
-0.0689891
21
-0.657572
0
LINE
8
BLACK
6
CONTINUOUS
10
-0.0689891
20
-0.657572
11
-0.0687008
21
-0.658268
0
LINE
8
BLACK
6
CONTINUOUS
10
-0.0687008
20
-0.658268
11
-0.0687008
21
-0.774803
0
LINE
8
BLACK
6
CONTINUOUS
10
-0.0687008
20
-0.774803
11
-0.0689891
21
-0.775499
0
LINE
8
BLACK
6
CONTINUOUS
10
-0.0689891
20
-0.775499
11
-0.069685
21
-0.775787
0
LINE
8
BLACK
6
CONTINUOUS
10
-0.069685
20
-0.775787
11
-0.127165
21
-0.775787
0
LINE
8
BLACK
6
CONTINUOUS
10
-0.127165
20
-0.775787
11
-0.127861
21
-0.775499
0
LINE
8
BLACK
6
CONTINUOUS
10
-0.126181
20
-0.659252
11
-0.126181
21
-0.773819
0
LINE
8
BLACK
6
CONTINUOUS
10
-0.126181
20
-0.773819
11
-0.0706693
21
-0.773819
0
LINE
8
BLACK
6
CONTINUOUS
10
-0.0706693
20
-0.773819
11
-0.0706693
21
-0.659252
0
LINE
8
BLACK
6
CONTINUOUS
10
-0.0706693
20
-0.659252
11
-0.126181
21
-0.659252
0
LINE
8
BLACK
6
CONTINUOUS
10
-0.408661
20
-0.636048
11
-0.368016
21
-0.676693
0
LINE
8
BLACK
6
CONTINUOUS
10
-0.368016
20
-0.676693
11
-0.367728
21
-0.677389
0
LINE
8
BLACK
6
CONTINUOUS
10
-0.367728
20
-0.677389
11
-0.368016
21
-0.678085
0
LINE
8
BLACK
6
CONTINUOUS
10
-0.368016
20
-0.678085
11
-0.450419
21
-0.760488
0
LINE
8
BLACK
6
CONTINUOUS
10
-0.450419
20
-0.760488
11
-0.451115
21
-0.760776
0
LINE
8
BLACK
6
CONTINUOUS
10
-0.451115
20
-0.760776
11
-0.451811
21
-0.760488
0
LINE
8
BLACK
6
CONTINUOUS
10
-0.451811
20
-0.760488
11
-0.492456
21
-0.719843
0
LINE
8
BLACK
6
CONTINUOUS
10
-0.492456
20
-0.719843
11
-0.492744
21
-0.719147
0
LINE
8
BLACK
6
CONTINUOUS
10
-0.492744
20
-0.719147
11
-0.492456
21
-0.718451
0
LINE
8
BLACK
6
CONTINUOUS
10
-0.492456
20
-0.718451
11
-0.410053
21
-0.636048
0
LINE
8
BLACK
6
CONTINUOUS
10
-0.410053
20
-0.636048
11
-0.409357
21
-0.63576
0
LINE
8
BLACK
6
CONTINUOUS
10
-0.409357
20
-0.63576
11
-0.408661
21
-0.636048
0
LINE
8
BLACK
6
CONTINUOUS
10
-0.490368
20
-0.719147
11
-0.451115
21
-0.7584
0
LINE
8
BLACK
6
CONTINUOUS
10
-0.451115
20
-0.7584
11
-0.370104
21
-0.677389
0
LINE
8
BLACK
6
CONTINUOUS
10
-0.370104
20
-0.677389
11
-0.409357
21
-0.638136
0
LINE
8
BLACK
6
CONTINUOUS
10
-0.409357
20
-0.638136
11
-0.490368
21
-0.719147
0
LINE
8
BLACK
6
CONTINUOUS
10
-0.591049
20
-0.611009
11
-0.508646
21
-0.693411
0
LINE
8
BLACK
6
CONTINUOUS
10
-0.508646
20
-0.693411
11
-0.508358
21
-0.694107
0
LINE
8
BLACK
6
CONTINUOUS
10
-0.508358
20
-0.694107
11
-0.508646
21
-0.694803
0
LINE
8
BLACK
6
CONTINUOUS
10
-0.508646
20
-0.694803
11
-0.549291
21
-0.735448
0
LINE
8
BLACK
6
CONTINUOUS
10
-0.549291
20
-0.735448
11
-0.549987
21
-0.735736
0
LINE
8
BLACK
6
CONTINUOUS
10
-0.549987
20
-0.735736
11
-0.550683
21
-0.735448
0
LINE
8
BLACK
6
CONTINUOUS
10
-0.550683
20
-0.735448
11
-0.633086
21
-0.653045
0
LINE
8
BLACK
6
CONTINUOUS
10
-0.633086
20
-0.653045
11
-0.633374
21
-0.652349
0
LINE
8
BLACK
6
CONTINUOUS
10
-0.633374
20
-0.652349
11
-0.633086
21
-0.651653
0
LINE
8
BLACK
6
CONTINUOUS
10
-0.633086
20
-0.651653
11
-0.592441
21
-0.611009
0
LINE
8
BLACK
6
CONTINUOUS
10
-0.592441
20
-0.611009
11
-0.591745
21
-0.61072
0
LINE
8
BLACK
6
CONTINUOUS
10
-0.591745
20
-0.61072
11
-0.591049
21
-0.611009
0
LINE
8
BLACK
6
CONTINUOUS
10
-0.630998
20
-0.652349
11
-0.549987
21
-0.73336
0
LINE
8
BLACK
6
CONTINUOUS
10
-0.549987
20
-0.73336
11
-0.510734
21
-0.694107
0
LINE
8
BLACK
6
CONTINUOUS
10
-0.510734
20
-0.694107
11
-0.591745
21
-0.613096
0
LINE
8
BLACK
6
CONTINUOUS
10
-0.591745
20
-0.613096
11
-0.630998
21
-0.652349
0
LINE
8
BLACK
6
CONTINUOUS
10
0.897729
20
-0.684948
11
0.897441
21
-0.684252
0
LINE
8
BLACK
6
CONTINUOUS
10
0.897441
20
-0.684252
11
0.897441
21
-0.504724
0
LINE
8
BLACK
6
CONTINUOUS
10
0.897441
20
-0.504724
11
0.897729
21
-0.504028
0
LINE
8
BLACK
6
CONTINUOUS
10
0.897729
20
-0.504028
11
0.898425
21
-0.50374
0
LINE
8
BLACK
6
CONTINUOUS
10
0.898425
20
-0.50374
11
1.02283
21
-0.50374
0
LINE
8
BLACK
6
CONTINUOUS
10
1.02283
20
-0.50374
11
1.02353
21
-0.504028
0
LINE
8
BLACK
6
CONTINUOUS
10
1.02353
20
-0.504028
11
1.02382
21
-0.504724
0
LINE
8
BLACK
6
CONTINUOUS
10
1.02382
20
-0.504724
11
1.02382
21
-0.684252
0
LINE
8
BLACK
6
CONTINUOUS
10
1.02382
20
-0.684252
11
1.02353
21
-0.684948
0
LINE
8
BLACK
6
CONTINUOUS
10
1.02353
20
-0.684948
11
1.02283
21
-0.685236
0
LINE
8
BLACK
6
CONTINUOUS
10
1.02283
20
-0.685236
11
0.898425
21
-0.685236
0
LINE
8
BLACK
6
CONTINUOUS
10
0.898425
20
-0.685236
11
0.897729
21
-0.684948
0
LINE
8
BLACK
6
CONTINUOUS
10
0.899409
20
-0.505709
11
0.899409
21
-0.683268
0
LINE
8
BLACK
6
CONTINUOUS
10
0.899409
20
-0.683268
11
1.02185
21
-0.683268
0
LINE
8
BLACK
6
CONTINUOUS
10
1.02185
20
-0.683268
11
1.02185
21
-0.505709
0
LINE
8
BLACK
6
CONTINUOUS
10
1.02185
20
-0.505709
11
0.899409
21
-0.505709
0
LINE
8
BLACK
6
CONTINUOUS
10
-1.07245
20
-0.549015
11
-0.990049
21
-0.631418
0
LINE
8
BLACK
6
CONTINUOUS
10
-0.990049
20
-0.631418
11
-0.989761
21
-0.632114
0
LINE
8
BLACK
6
CONTINUOUS
10
-0.989761
20
-0.632114
11
-0.990049
21
-0.63281
0
LINE
8
BLACK
6
CONTINUOUS
10
-0.990049
20
-0.63281
11
-1.03069
21
-0.673455
0
LINE
8
BLACK
6
CONTINUOUS
10
-1.03069
20
-0.673455
11
-1.03139
21
-0.673743
0
LINE
8
BLACK
6
CONTINUOUS
10
-1.03139
20
-0.673743
11
-1.03209
21
-0.673455
0
LINE
8
BLACK
6
CONTINUOUS
10
-1.03209
20
-0.673455
11
-1.11449
21
-0.591052
0
LINE
8
BLACK
6
CONTINUOUS
10
-1.11449
20
-0.591052
11
-1.11478
21
-0.590356
0
LINE
8
BLACK
6
CONTINUOUS
10
-1.11478
20
-0.590356
11
-1.11449
21
-0.58966
0
LINE
8
BLACK
6
CONTINUOUS
10
-1.11449
20
-0.58966
11
-1.07384
21
-0.549015
0
LINE
8
BLACK
6
CONTINUOUS
10
-1.07384
20
-0.549015
11
-1.07315
21
-0.548727
0
LINE
8
BLACK
6
CONTINUOUS
10
-1.07315
20
-0.548727
11
-1.07245
21
-0.549015
0
LINE
8
BLACK
6
CONTINUOUS
10
-1.1124
20
-0.590356
11
-1.03139
21
-0.671367
0
LINE
8
BLACK
6
CONTINUOUS
10
-1.03139
20
-0.671367
11
-0.992137
21
-0.632114
0
LINE
8
BLACK
6
CONTINUOUS
10
-0.992137
20
-0.632114
11
-1.07315
21
-0.551103
0
LINE
8
BLACK
6
CONTINUOUS
10
-1.07315
20
-0.551103
11
-1.1124
21
-0.590356
0
LINE
8
BLACK
6
CONTINUOUS
10
0.783587
20
-0.657783
11
0.783299
21
-0.657087
0
LINE
8
BLACK
6
CONTINUOUS
10
0.783299
20
-0.657087
11
0.783299
21
-0.523228
0
LINE
8
BLACK
6
CONTINUOUS
10
0.783299
20
-0.523228
11
0.783587
21
-0.522532
0
LINE
8
BLACK
6
CONTINUOUS
10
0.783587
20
-0.522532
11
0.784283
21
-0.522244
0
LINE
8
BLACK
6
CONTINUOUS
10
0.784283
20
-0.522244
11
0.861449
21
-0.522244
0
LINE
8
BLACK
6
CONTINUOUS
10
0.861449
20
-0.522244
11
0.862145
21
-0.522532
0
LINE
8
BLACK
6
CONTINUOUS
10
0.862145
20
-0.522532
11
0.862433
21
-0.523228
0
LINE
8
BLACK
6
CONTINUOUS
10
0.862433
20
-0.523228
11
0.862433
21
-0.657087
0
LINE
8
BLACK
6
CONTINUOUS
10
0.862433
20
-0.657087
11
0.862145
21
-0.657783
0
LINE
8
BLACK
6
CONTINUOUS
10
0.862145
20
-0.657783
11
0.861449
21
-0.658071
0
LINE
8
BLACK
6
CONTINUOUS
10
0.861449
20
-0.658071
11
0.784283
21
-0.658071
0
LINE
8
BLACK
6
CONTINUOUS
10
0.784283
20
-0.658071
11
0.783587
21
-0.657783
0
LINE
8
BLACK
6
CONTINUOUS
10
0.785268
20
-0.524213
11
0.785268
21
-0.656102
0
LINE
8
BLACK
6
CONTINUOUS
10
0.785268
20
-0.656102
11
0.860465
21
-0.656102
0
LINE
8
BLACK
6
CONTINUOUS
10
0.860465
20
-0.656102
11
0.860465
21
-0.524213
0
LINE
8
BLACK
6
CONTINUOUS
10
0.860465
20
-0.524213
11
0.785268
21
-0.524213
0
LINE
8
BLACK
6
CONTINUOUS
10
0.708784
20
-0.642231
11
0.708496
21
-0.641535
0
LINE
8
BLACK
6
CONTINUOUS
10
0.708496
20
-0.641535
11
0.708496
21
-0.525
0
LINE
8
BLACK
6
CONTINUOUS
10
0.708496
20
-0.525
11
0.708784
21
-0.524304
0
LINE
8
BLACK
6
CONTINUOUS
10
0.708784
20
-0.524304
11
0.70948
21
-0.524016
0
LINE
8
BLACK
6
CONTINUOUS
10
0.70948
20
-0.524016
11
0.766961
21
-0.524016
0
LINE
8
BLACK
6
CONTINUOUS
10
0.766961
20
-0.524016
11
0.767657
21
-0.524304
0
LINE
8
BLACK
6
CONTINUOUS
10
0.767657
20
-0.524304
11
0.767945
21
-0.525
0
LINE
8
BLACK
6
CONTINUOUS
10
0.767945
20
-0.525
11
0.767945
21
-0.641535
0
LINE
8
BLACK
6
CONTINUOUS
10
0.767945
20
-0.641535
11
0.767657
21
-0.642231
0
LINE
8
BLACK
6
CONTINUOUS
10
0.767657
20
-0.642231
11
0.766961
21
-0.64252
0
LINE
8
BLACK
6
CONTINUOUS
10
0.766961
20
-0.64252
11
0.70948
21
-0.64252
0
LINE
8
BLACK
6
CONTINUOUS
10
0.70948
20
-0.64252
11
0.708784
21
-0.642231
0
LINE
8
BLACK
6
CONTINUOUS
10
0.710465
20
-0.525984
11
0.710465
21
-0.640551
0
LINE
8
BLACK
6
CONTINUOUS
10
0.710465
20
-0.640551
11
0.765976
21
-0.640551
0
LINE
8
BLACK
6
CONTINUOUS
10
0.765976
20
-0.640551
11
0.765976
21
-0.525984
0
LINE
8
BLACK
6
CONTINUOUS
10
0.765976
20
-0.525984
11
0.710465
21
-0.525984
0
LINE
8
BLACK
6
CONTINUOUS
10
-1.01839
20
-0.498081
11
-0.935983
21
-0.580484
0
LINE
8
BLACK
6
CONTINUOUS
10
-0.935983
20
-0.580484
11
-0.935695
21
-0.58118
0
LINE
8
BLACK
6
CONTINUOUS
10
-0.935695
20
-0.58118
11
-0.935983
21
-0.581876
0
LINE
8
BLACK
6
CONTINUOUS
10
-0.935983
20
-0.581876
11
-0.976628
21
-0.622521
0
LINE
8
BLACK
6
CONTINUOUS
10
-0.976628
20
-0.622521
11
-0.977324
21
-0.622809
0
LINE
8
BLACK
6
CONTINUOUS
10
-0.977324
20
-0.622809
11
-0.97802
21
-0.622521
0
LINE
8
BLACK
6
CONTINUOUS
10
-0.97802
20
-0.622521
11
-1.06042
21
-0.540118
0
LINE
8
BLACK
6
CONTINUOUS
10
-1.06042
20
-0.540118
11
-1.06071
21
-0.539422
0
LINE
8
BLACK
6
CONTINUOUS
10
-1.06071
20
-0.539422
11
-1.06042
21
-0.538726
0
LINE
8
BLACK
6
CONTINUOUS
10
-1.06042
20
-0.538726
11
-1.01978
21
-0.498081
0
LINE
8
BLACK
6
CONTINUOUS
10
-1.01978
20
-0.498081
11
-1.01908
21
-0.497793
0
LINE
8
BLACK
6
CONTINUOUS
10
-1.01908
20
-0.497793
11
-1.01839
21
-0.498081
0
LINE
8
BLACK
6
CONTINUOUS
10
-1.05834
20
-0.539422
11
-0.977324
21
-0.620433
0
LINE
8
BLACK
6
CONTINUOUS
10
-0.977324
20
-0.620433
11
-0.938071
21
-0.58118
0
LINE
8
BLACK
6
CONTINUOUS
10
-0.938071
20
-0.58118
11
-1.01908
21
-0.500169
0
LINE
8
BLACK
6
CONTINUOUS
10
-1.01908
20
-0.500169
11
-1.05834
21
-0.539422
0
LINE
8
BLACK
6
CONTINUOUS
10
-0.0353417
20
-0.614869
11
-0.0356299
21
-0.614173
0
LINE
8
BLACK
6
CONTINUOUS
10
-0.0356299
20
-0.614173
11
-0.0356299
21
-0.556693
0
LINE
8
BLACK
6
CONTINUOUS
10
-0.0356299
20
-0.556693
11
-0.0353417
21
-0.555997
0
LINE
8
BLACK
6
CONTINUOUS
10
-0.0353417
20
-0.555997
11
-0.0346457
21
-0.555709
0
LINE
8
BLACK
6
CONTINUOUS
10
-0.0346457
20
-0.555709
11
0.0818898
21
-0.555709
0
LINE
8
BLACK
6
CONTINUOUS
10
0.0818898
20
-0.555709
11
0.0825857
21
-0.555997
0
LINE
8
BLACK
6
CONTINUOUS
10
0.0825857
20
-0.555997
11
0.082874
21
-0.556693
0
LINE
8
BLACK
6
CONTINUOUS
10
0.082874
20
-0.556693
11
0.082874
21
-0.614173
0
LINE
8
BLACK
6
CONTINUOUS
10
0.082874
20
-0.614173
11
0.0825857
21
-0.614869
0
LINE
8
BLACK
6
CONTINUOUS
10
0.0825857
20
-0.614869
11
0.0818898
21
-0.615157
0
LINE
8
BLACK
6
CONTINUOUS
10
0.0818898
20
-0.615157
11
-0.0346457
21
-0.615157
0
LINE
8
BLACK
6
CONTINUOUS
10
-0.0346457
20
-0.615157
11
-0.0353417
21
-0.614869
0
LINE
8
BLACK
6
CONTINUOUS
10
-0.0336614
20
-0.557677
11
-0.0336614
21
-0.613189
0
LINE
8
BLACK
6
CONTINUOUS
10
-0.0336614
20
-0.613189
11
0.0809055
21
-0.613189
0
LINE
8
BLACK
6
CONTINUOUS
10
0.0809055
20
-0.613189
11
0.0809055
21
-0.557677
0
LINE
8
BLACK
6
CONTINUOUS
10
0.0809055
20
-0.557677
11
-0.0336614
21
-0.557677
0
LINE
8
BLACK
6
CONTINUOUS
10
-0.0377039
20
-0.54794
11
-0.0379921
21
-0.547244
0
LINE
8
BLACK
6
CONTINUOUS
10
-0.0379921
20
-0.547244
11
-0.0379921
21
-0.489764
0
LINE
8
BLACK
6
CONTINUOUS
10
-0.0379921
20
-0.489764
11
-0.0377039
21
-0.489068
0
LINE
8
BLACK
6
CONTINUOUS
10
-0.0377039
20
-0.489068
11
-0.0370079
21
-0.48878
0
LINE
8
BLACK
6
CONTINUOUS
10
-0.0370079
20
-0.48878
11
0.0795276
21
-0.48878
0
LINE
8
BLACK
6
CONTINUOUS
10
0.0795276
20
-0.48878
11
0.0802235
21
-0.489068
0
LINE
8
BLACK
6
CONTINUOUS
10
0.0802235
20
-0.489068
11
0.0805118
21
-0.489764
0
LINE
8
BLACK
6
CONTINUOUS
10
0.0805118
20
-0.489764
11
0.0805118
21
-0.547244
0
LINE
8
BLACK
6
CONTINUOUS
10
0.0805118
20
-0.547244
11
0.0802235
21
-0.54794
0
LINE
8
BLACK
6
CONTINUOUS
10
0.0802235
20
-0.54794
11
0.0795276
21
-0.548228
0
LINE
8
BLACK
6
CONTINUOUS
10
0.0795276
20
-0.548228
11
-0.0370079
21
-0.548228
0
LINE
8
BLACK
6
CONTINUOUS
10
-0.0370079
20
-0.548228
11
-0.0377039
21
-0.54794
0
LINE
8
BLACK
6
CONTINUOUS
10
-0.0360236
20
-0.490748
11
-0.0360236
21
-0.54626
0
LINE
8
BLACK
6
CONTINUOUS
10
-0.0360236
20
-0.54626
11
0.0785433
21
-0.54626
0
LINE
8
BLACK
6
CONTINUOUS
10
0.0785433
20
-0.54626
11
0.0785433
21
-0.490748
0
LINE
8
BLACK
6
CONTINUOUS
10
0.0785433
20
-0.490748
11
-0.0360236
21
-0.490748
0
LINE
8
BLACK
6
CONTINUOUS
10
-0.471168
20
-0.538098
11
-0.471457
21
-0.537402
0
LINE
8
BLACK
6
CONTINUOUS
10
-0.471457
20
-0.537402
11
-0.471457
21
-0.438976
0
LINE
8
BLACK
6
CONTINUOUS
10
-0.471457
20
-0.438976
11
-0.471168
21
-0.43828
0
LINE
8
BLACK
6
CONTINUOUS
10
-0.471168
20
-0.43828
11
-0.470472
21
-0.437992
0
LINE
8
BLACK
6
CONTINUOUS
10
-0.470472
20
-0.437992
11
-0.340551
21
-0.437992
0
LINE
8
BLACK
6
CONTINUOUS
10
-0.340551
20
-0.437992
11
-0.339855
21
-0.43828
0
LINE
8
BLACK
6
CONTINUOUS
10
-0.339855
20
-0.43828
11
-0.339567
21
-0.438976
0
LINE
8
BLACK
6
CONTINUOUS
10
-0.339567
20
-0.438976
11
-0.339567
21
-0.537402
0
LINE
8
BLACK
6
CONTINUOUS
10
-0.339567
20
-0.537402
11
-0.339855
21
-0.538098
0
LINE
8
BLACK
6
CONTINUOUS
10
-0.339855
20
-0.538098
11
-0.340551
21
-0.538386
0
LINE
8
BLACK
6
CONTINUOUS
10
-0.340551
20
-0.538386
11
-0.470472
21
-0.538386
0
LINE
8
BLACK
6
CONTINUOUS
10
-0.470472
20
-0.538386
11
-0.471168
21
-0.538098
0
LINE
8
BLACK
6
CONTINUOUS
10
-0.469488
20
-0.439961
11
-0.469488
21
-0.536417
0
LINE
8
BLACK
6
CONTINUOUS
10
-0.469488
20
-0.536417
11
-0.341535
21
-0.536417
0
LINE
8
BLACK
6
CONTINUOUS
10
-0.341535
20
-0.536417
11
-0.341535
21
-0.439961
0
LINE
8
BLACK
6
CONTINUOUS
10
-0.341535
20
-0.439961
11
-0.469488
21
-0.439961
0
LINE
8
BLACK
6
CONTINUOUS
10
1.03867
20
-0.52235
11
1.03839
21
-0.521654
0
LINE
8
BLACK
6
CONTINUOUS
10
1.03839
20
-0.521654
11
1.03839
21
-0.340551
0
LINE
8
BLACK
6
CONTINUOUS
10
1.03839
20
-0.340551
11
1.03867
21
-0.339855
0
LINE
8
BLACK
6
CONTINUOUS
10
1.03867
20
-0.339855
11
1.03937
21
-0.339567
0
LINE
8
BLACK
6
CONTINUOUS
10
1.03937
20
-0.339567
11
1.30315
21
-0.339567
0
LINE
8
BLACK
6
CONTINUOUS
10
1.30315
20
-0.339567
11
1.30385
21
-0.339855
0
LINE
8
BLACK
6
CONTINUOUS
10
1.30385
20
-0.339855
11
1.30413
21
-0.340551
0
LINE
8
BLACK
6
CONTINUOUS
10
1.30413
20
-0.340551
11
1.30413
21
-0.521654
0
LINE
8
BLACK
6
CONTINUOUS
10
1.30413
20
-0.521654
11
1.30385
21
-0.52235
0
LINE
8
BLACK
6
CONTINUOUS
10
1.30385
20
-0.52235
11
1.30315
21
-0.522638
0
LINE
8
BLACK
6
CONTINUOUS
10
1.30315
20
-0.522638
11
1.03937
21
-0.522638
0
LINE
8
BLACK
6
CONTINUOUS
10
1.03937
20
-0.522638
11
1.03867
21
-0.52235
0
LINE
8
BLACK
6
CONTINUOUS
10
1.04035
20
-0.341535
11
1.04035
21
-0.520669
0
LINE
8
BLACK
6
CONTINUOUS
10
1.04035
20
-0.520669
11
1.30217
21
-0.520669
0
LINE
8
BLACK
6
CONTINUOUS
10
1.30217
20
-0.520669
11
1.30217
21
-0.341535
0
LINE
8
BLACK
6
CONTINUOUS
10
1.30217
20
-0.341535
11
1.04035
21
-0.341535
0
LINE
8
BLACK
6
CONTINUOUS
10
-0.181995
20
-0.501877
11
-0.182283
21
-0.501181
0
LINE
8
BLACK
6
CONTINUOUS
10
-0.182283
20
-0.501181
11
-0.182283
21
-0.443701
0
LINE
8
BLACK
6
CONTINUOUS
10
-0.182283
20
-0.443701
11
-0.181995
21
-0.443005
0
LINE
8
BLACK
6
CONTINUOUS
10
-0.181995
20
-0.443005
11
-0.181299
21
-0.442717
0
LINE
8
BLACK
6
CONTINUOUS
10
-0.181299
20
-0.442717
11
-0.0647638
21
-0.442717
0
LINE
8
BLACK
6
CONTINUOUS
10
-0.0647638
20
-0.442717
11
-0.0640678
21
-0.443005
0
LINE
8
BLACK
6
CONTINUOUS
10
-0.0640678
20
-0.443005
11
-0.0637795
21
-0.443701
0
LINE
8
BLACK
6
CONTINUOUS
10
-0.0637795
20
-0.443701
11
-0.0637795
21
-0.501181
0
LINE
8
BLACK
6
CONTINUOUS
10
-0.0637795
20
-0.501181
11
-0.0640678
21
-0.501877
0
LINE
8
BLACK
6
CONTINUOUS
10
-0.0640678
20
-0.501877
11
-0.0647638
21
-0.502165
0
LINE
8
BLACK
6
CONTINUOUS
10
-0.0647638
20
-0.502165
11
-0.181299
21
-0.502165
0
LINE
8
BLACK
6
CONTINUOUS
10
-0.181299
20
-0.502165
11
-0.181995
21
-0.501877
0
LINE
8
BLACK
6
CONTINUOUS
10
-0.180315
20
-0.444685
11
-0.180315
21
-0.500197
0
LINE
8
BLACK
6
CONTINUOUS
10
-0.180315
20
-0.500197
11
-0.065748
21
-0.500197
0
LINE
8
BLACK
6
CONTINUOUS
10
-0.065748
20
-0.500197
11
-0.065748
21
-0.444685
0
LINE
8
BLACK
6
CONTINUOUS
10
-0.065748
20
-0.444685
11
-0.180315
21
-0.444685
0
LINE
8
BLACK
6
CONTINUOUS
10
0.939068
20
-0.501877
11
0.93878
21
-0.501181
0
LINE
8
BLACK
6
CONTINUOUS
10
0.93878
20
-0.501181
11
0.93878
21
-0.384646
0
LINE
8
BLACK
6
CONTINUOUS
10
0.93878
20
-0.384646
11
0.939068
21
-0.38395
0
LINE
8
BLACK
6
CONTINUOUS
10
0.939068
20
-0.38395
11
0.939764
21
-0.383661
0
LINE
8
BLACK
6
CONTINUOUS
10
0.939764
20
-0.383661
11
0.997244
21
-0.383661
0
LINE
8
BLACK
6
CONTINUOUS
10
0.997244
20
-0.383661
11
0.99794
21
-0.38395
0
LINE
8
BLACK
6
CONTINUOUS
10
0.99794
20
-0.38395
11
0.998228
21
-0.384646
0
LINE
8
BLACK
6
CONTINUOUS
10
0.998228
20
-0.384646
11
0.998228
21
-0.501181
0
LINE
8
BLACK
6
CONTINUOUS
10
0.998228
20
-0.501181
11
0.99794
21
-0.501877
0
LINE
8
BLACK
6
CONTINUOUS
10
0.99794
20
-0.501877
11
0.997244
21
-0.502165
0
LINE
8
BLACK
6
CONTINUOUS
10
0.997244
20
-0.502165
11
0.939764
21
-0.502165
0
LINE
8
BLACK
6
CONTINUOUS
10
0.939764
20
-0.502165
11
0.939068
21
-0.501877
0
LINE
8
BLACK
6
CONTINUOUS
10
0.940748
20
-0.38563
11
0.940748
21
-0.500197
0
LINE
8
BLACK
6
CONTINUOUS
10
0.940748
20
-0.500197
11
0.99626
21
-0.500197
0
LINE
8
BLACK
6
CONTINUOUS
10
0.99626
20
-0.500197
11
0.99626
21
-0.38563
0
LINE
8
BLACK
6
CONTINUOUS
10
0.99626
20
-0.38563
11
0.940748
21
-0.38563
0
LINE
8
BLACK
6
CONTINUOUS
10
0.794154
20
-0.501483
11
0.793866
21
-0.500787
0
LINE
8
BLACK
6
CONTINUOUS
10
0.793866
20
-0.500787
11
0.793866
21
-0.384252
0
LINE
8
BLACK
6
CONTINUOUS
10
0.793866
20
-0.384252
11
0.794154
21
-0.383556
0
LINE
8
BLACK
6
CONTINUOUS
10
0.794154
20
-0.383556
11
0.79485
21
-0.383268
0
LINE
8
BLACK
6
CONTINUOUS
10
0.79485
20
-0.383268
11
0.852331
21
-0.383268
0
LINE
8
BLACK
6
CONTINUOUS
10
0.852331
20
-0.383268
11
0.853027
21
-0.383556
0
LINE
8
BLACK
6
CONTINUOUS
10
0.853027
20
-0.383556
11
0.853315
21
-0.384252
0
LINE
8
BLACK
6
CONTINUOUS
10
0.853315
20
-0.384252
11
0.853315
21
-0.500787
0
LINE
8
BLACK
6
CONTINUOUS
10
0.853315
20
-0.500787
11
0.853027
21
-0.501483
0
LINE
8
BLACK
6
CONTINUOUS
10
0.853027
20
-0.501483
11
0.852331
21
-0.501772
0
LINE
8
BLACK
6
CONTINUOUS
10
0.852331
20
-0.501772
11
0.79485
21
-0.501772
0
LINE
8
BLACK
6
CONTINUOUS
10
0.79485
20
-0.501772
11
0.794154
21
-0.501483
0
LINE
8
BLACK
6
CONTINUOUS
10
0.795835
20
-0.385236
11
0.795835
21
-0.499803
0
LINE
8
BLACK
6
CONTINUOUS
10
0.795835
20
-0.499803
11
0.851346
21
-0.499803
0
LINE
8
BLACK
6
CONTINUOUS
10
0.851346
20
-0.499803
11
0.851346
21
-0.385236
0
LINE
8
BLACK
6
CONTINUOUS
10
0.851346
20
-0.385236
11
0.795835
21
-0.385236
0
LINE
8
BLACK
6
CONTINUOUS
10
0.86817
20
-0.500302
11
0.867882
21
-0.499606
0
LINE
8
BLACK
6
CONTINUOUS
10
0.867882
20
-0.499606
11
0.867882
21
-0.383071
0
LINE
8
BLACK
6
CONTINUOUS
10
0.867882
20
-0.383071
11
0.86817
21
-0.382375
0
LINE
8
BLACK
6
CONTINUOUS
10
0.86817
20
-0.382375
11
0.868866
21
-0.382087
0
LINE
8
BLACK
6
CONTINUOUS
10
0.868866
20
-0.382087
11
0.926346
21
-0.382087
0
LINE
8
BLACK
6
CONTINUOUS
10
0.926346
20
-0.382087
11
0.927042
21
-0.382375
0
LINE
8
BLACK
6
CONTINUOUS
10
0.927042
20
-0.382375
11
0.927331
21
-0.383071
0
LINE
8
BLACK
6
CONTINUOUS
10
0.927331
20
-0.383071
11
0.927331
21
-0.499606
0
LINE
8
BLACK
6
CONTINUOUS
10
0.927331
20
-0.499606
11
0.927042
21
-0.500302
0
LINE
8
BLACK
6
CONTINUOUS
10
0.927042
20
-0.500302
11
0.926346
21
-0.500591
0
LINE
8
BLACK
6
CONTINUOUS
10
0.926346
20
-0.500591
11
0.868866
21
-0.500591
0
LINE
8
BLACK
6
CONTINUOUS
10
0.868866
20
-0.500591
11
0.86817
21
-0.500302
0
LINE
8
BLACK
6
CONTINUOUS
10
0.86985
20
-0.384055
11
0.86985
21
-0.498622
0
LINE
8
BLACK
6
CONTINUOUS
10
0.86985
20
-0.498622
11
0.925362
21
-0.498622
0
LINE
8
BLACK
6
CONTINUOUS
10
0.925362
20
-0.498622
11
0.925362
21
-0.384055
0
LINE
8
BLACK
6
CONTINUOUS
10
0.925362
20
-0.384055
11
0.86985
21
-0.384055
0
LINE
8
BLACK
6
CONTINUOUS
10
0.336706
20
-0.336523
11
0.336417
21
-0.335827
0
LINE
8
BLACK
6
CONTINUOUS
10
0.336417
20
-0.335827
11
0.336417
21
-0.219291
0
LINE
8
BLACK
6
CONTINUOUS
10
0.336417
20
-0.219291
11
0.336706
21
-0.218595
0
LINE
8
BLACK
6
CONTINUOUS
10
0.336706
20
-0.218595
11
0.337402
21
-0.218307
0
LINE
8
BLACK
6
CONTINUOUS
10
0.337402
20
-0.218307
11
0.394882
21
-0.218307
0
LINE
8
BLACK
6
CONTINUOUS
10
0.394882
20
-0.218307
11
0.395578
21
-0.218595
0
LINE
8
BLACK
6
CONTINUOUS
10
0.395578
20
-0.218595
11
0.395866
21
-0.219291
0
LINE
8
BLACK
6
CONTINUOUS
10
0.395866
20
-0.219291
11
0.395866
21
-0.335827
0
LINE
8
BLACK
6
CONTINUOUS
10
0.395866
20
-0.335827
11
0.395578
21
-0.336523
0
LINE
8
BLACK
6
CONTINUOUS
10
0.395578
20
-0.336523
11
0.394882
21
-0.336811
0
LINE
8
BLACK
6
CONTINUOUS
10
0.394882
20
-0.336811
11
0.337402
21
-0.336811
0
LINE
8
BLACK
6
CONTINUOUS
10
0.337402
20
-0.336811
11
0.336706
21
-0.336523
0
LINE
8
BLACK
6
CONTINUOUS
10
0.338386
20
-0.220276
11
0.338386
21
-0.334843
0
LINE
8
BLACK
6
CONTINUOUS
10
0.338386
20
-0.334843
11
0.393898
21
-0.334843
0
LINE
8
BLACK
6
CONTINUOUS
10
0.393898
20
-0.334843
11
0.393898
21
-0.220276
0
LINE
8
BLACK
6
CONTINUOUS
10
0.393898
20
-0.220276
11
0.338386
21
-0.220276
0
LINE
8
BLACK
6
CONTINUOUS
10
0.412296
20
-0.334554
11
0.412008
21
-0.333858
0
LINE
8
BLACK
6
CONTINUOUS
10
0.412008
20
-0.333858
11
0.412008
21
-0.217323
0
LINE
8
BLACK
6
CONTINUOUS
10
0.412008
20
-0.217323
11
0.412296
21
-0.216627
0
LINE
8
BLACK
6
CONTINUOUS
10
0.412296
20
-0.216627
11
0.412992
21
-0.216339
0
LINE
8
BLACK
6
CONTINUOUS
10
0.412992
20
-0.216339
11
0.470472
21
-0.216339
0
LINE
8
BLACK
6
CONTINUOUS
10
0.470472
20
-0.216339
11
0.471168
21
-0.216627
0
LINE
8
BLACK
6
CONTINUOUS
10
0.471168
20
-0.216627
11
0.471457
21
-0.217323
0
LINE
8
BLACK
6
CONTINUOUS
10
0.471457
20
-0.217323
11
0.471457
21
-0.333858
0
LINE
8
BLACK
6
CONTINUOUS
10
0.471457
20
-0.333858
11
0.471168
21
-0.334554
0
LINE
8
BLACK
6
CONTINUOUS
10
0.471168
20
-0.334554
11
0.470472
21
-0.334843
0
LINE
8
BLACK
6
CONTINUOUS
10
0.470472
20
-0.334843
11
0.412992
21
-0.334843
0
LINE
8
BLACK
6
CONTINUOUS
10
0.412992
20
-0.334843
11
0.412296
21
-0.334554
0
LINE
8
BLACK
6
CONTINUOUS
10
0.413976
20
-0.218307
11
0.413976
21
-0.332874
0
LINE
8
BLACK
6
CONTINUOUS
10
0.413976
20
-0.332874
11
0.469488
21
-0.332874
0
LINE
8
BLACK
6
CONTINUOUS
10
0.469488
20
-0.332874
11
0.469488
21
-0.218307
0
LINE
8
BLACK
6
CONTINUOUS
10
0.469488
20
-0.218307
11
0.413976
21
-0.218307
0
LINE
8
BLACK
6
CONTINUOUS
10
-0.720381
20
-0.277468
11
-0.720669
21
-0.276772
0
LINE
8
BLACK
6
CONTINUOUS
10
-0.720669
20
-0.276772
11
-0.720669
21
-0.219291
0
LINE
8
BLACK
6
CONTINUOUS
10
-0.720669
20
-0.219291
11
-0.720381
21
-0.218595
0
LINE
8
BLACK
6
CONTINUOUS
10
-0.720381
20
-0.218595
11
-0.719685
21
-0.218307
0
LINE
8
BLACK
6
CONTINUOUS
10
-0.719685
20
-0.218307
11
-0.60315
21
-0.218307
0
LINE
8
BLACK
6
CONTINUOUS
10
-0.60315
20
-0.218307
11
-0.602454
21
-0.218595
0
LINE
8
BLACK
6
CONTINUOUS
10
-0.602454
20
-0.218595
11
-0.602165
21
-0.219291
0
LINE
8
BLACK
6
CONTINUOUS
10
-0.602165
20
-0.219291
11
-0.602165
21
-0.276772
0
LINE
8
BLACK
6
CONTINUOUS
10
-0.602165
20
-0.276772
11
-0.602454
21
-0.277468
0
LINE
8
BLACK
6
CONTINUOUS
10
-0.602454
20
-0.277468
11
-0.60315
21
-0.277756
0
LINE
8
BLACK
6
CONTINUOUS
10
-0.60315
20
-0.277756
11
-0.719685
21
-0.277756
0
LINE
8
BLACK
6
CONTINUOUS
10
-0.719685
20
-0.277756
11
-0.720381
21
-0.277468
0
LINE
8
BLACK
6
CONTINUOUS
10
-0.718701
20
-0.220276
11
-0.718701
21
-0.275787
0
LINE
8
BLACK
6
CONTINUOUS
10
-0.718701
20
-0.275787
11
-0.604134
21
-0.275787
0
LINE
8
BLACK
6
CONTINUOUS
10
-0.604134
20
-0.275787
11
-0.604134
21
-0.220276
0
LINE
8
BLACK
6
CONTINUOUS
10
-0.604134
20
-0.220276
11
-0.718701
21
-0.220276
0
LINE
8
BLACK
6
CONTINUOUS
10
-1.54328
20
-0.274048
11
-1.54356
21
-0.273352
0
LINE
8
BLACK
6
CONTINUOUS
10
-1.54356
20
-0.273352
11
-1.54356
21
0.295152
0
LINE
8
BLACK
6
CONTINUOUS
10
-1.54356
20
0.295152
11
-1.54328
21
0.295848
0
LINE
8
BLACK
6
CONTINUOUS
10
-1.54328
20
0.295848
11
-1.54258
21
0.296137
0
LINE
8
BLACK
6
CONTINUOUS
10
-1.54258
20
0.296137
11
-1.29061
21
0.296137
0
LINE
8
BLACK
6
CONTINUOUS
10
-1.29061
20
0.296137
11
-1.28991
21
0.295848
0
LINE
8
BLACK
6
CONTINUOUS
10
-1.28991
20
0.295848
11
-1.28963
21
0.295152
0
LINE
8
BLACK
6
CONTINUOUS
10
-1.28963
20
0.295152
11
-1.28963
21
-0.273352
0
LINE
8
BLACK
6
CONTINUOUS
10
-1.28963
20
-0.273352
11
-1.28991
21
-0.274048
0
LINE
8
BLACK
6
CONTINUOUS
10
-1.28991
20
-0.274048
11
-1.29061
21
-0.274336
0
LINE
8
BLACK
6
CONTINUOUS
10
-1.29061
20
-0.274336
11
-1.54258
21
-0.274336
0
LINE
8
BLACK
6
CONTINUOUS
10
-1.54258
20
-0.274336
11
-1.54328
21
-0.274048
0
LINE
8
BLACK
6
CONTINUOUS
10
-1.5416
20
0.294168
11
-1.5416
21
-0.272367
0
LINE
8
BLACK
6
CONTINUOUS
10
-1.5416
20
-0.272367
11
-1.2916
21
-0.272367
0
LINE
8
BLACK
6
CONTINUOUS
10
-1.2916
20
-0.272367
11
-1.2916
21
0.294168
0
LINE
8
BLACK
6
CONTINUOUS
10
-1.2916
20
0.294168
11
-1.5416
21
0.294168
0
LINE
8
BLACK
6
CONTINUOUS
10
-1.18888
20
-0.234161
11
-1.18917
21
-0.233465
0
LINE
8
BLACK
6
CONTINUOUS
10
-1.18917
20
-0.233465
11
-1.18917
21
-0.116929
0
LINE
8
BLACK
6
CONTINUOUS
10
-1.18917
20
-0.116929
11
-1.18888
21
-0.116233
0
LINE
8
BLACK
6
CONTINUOUS
10
-1.18888
20
-0.116233
11
-1.18819
21
-0.115945
0
LINE
8
BLACK
6
CONTINUOUS
10
-1.18819
20
-0.115945
11
-1.13071
21
-0.115945
0
LINE
8
BLACK
6
CONTINUOUS
10
-1.13071
20
-0.115945
11
-1.13001
21
-0.116233
0
LINE
8
BLACK
6
CONTINUOUS
10
-1.13001
20
-0.116233
11
-1.12972
21
-0.116929
0
LINE
8
BLACK
6
CONTINUOUS
10
-1.12972
20
-0.116929
11
-1.12972
21
-0.233465
0
LINE
8
BLACK
6
CONTINUOUS
10
-1.12972
20
-0.233465
11
-1.13001
21
-0.234161
0
LINE
8
BLACK
6
CONTINUOUS
10
-1.13001
20
-0.234161
11
-1.13071
21
-0.234449
0
LINE
8
BLACK
6
CONTINUOUS
10
-1.13071
20
-0.234449
11
-1.18819
21
-0.234449
0
LINE
8
BLACK
6
CONTINUOUS
10
-1.18819
20
-0.234449
11
-1.18888
21
-0.234161
0
LINE
8
BLACK
6
CONTINUOUS
10
-1.1872
20
-0.117913
11
-1.1872
21
-0.23248
0
LINE
8
BLACK
6
CONTINUOUS
10
-1.1872
20
-0.23248
11
-1.13169
21
-0.23248
0
LINE
8
BLACK
6
CONTINUOUS
10
-1.13169
20
-0.23248
11
-1.13169
21
-0.117913
0
LINE
8
BLACK
6
CONTINUOUS
10
-1.13169
20
-0.117913
11
-1.1872
21
-0.117913
0
LINE
8
BLACK
6
CONTINUOUS
10
-1.26172
20
-0.234161
11
-1.26201
21
-0.233465
0
LINE
8
BLACK
6
CONTINUOUS
10
-1.26201
20
-0.233465
11
-1.26201
21
-0.116929
0
LINE
8
BLACK
6
CONTINUOUS
10
-1.26201
20
-0.116929
11
-1.26172
21
-0.116233
0
LINE
8
BLACK
6
CONTINUOUS
10
-1.26172
20
-0.116233
11
-1.26102
21
-0.115945
0
LINE
8
BLACK
6
CONTINUOUS
10
-1.26102
20
-0.115945
11
-1.20354
21
-0.115945
0
LINE
8
BLACK
6
CONTINUOUS
10
-1.20354
20
-0.115945
11
-1.20285
21
-0.116233
0
LINE
8
BLACK
6
CONTINUOUS
10
-1.20285
20
-0.116233
11
-1.20256
21
-0.116929
0
LINE
8
BLACK
6
CONTINUOUS
10
-1.20256
20
-0.116929
11
-1.20256
21
-0.233465
0
LINE
8
BLACK
6
CONTINUOUS
10
-1.20256
20
-0.233465
11
-1.20285
21
-0.234161
0
LINE
8
BLACK
6
CONTINUOUS
10
-1.20285
20
-0.234161
11
-1.20354
21
-0.234449
0
LINE
8
BLACK
6
CONTINUOUS
10
-1.20354
20
-0.234449
11
-1.26102
21
-0.234449
0
LINE
8
BLACK
6
CONTINUOUS
10
-1.26102
20
-0.234449
11
-1.26172
21
-0.234161
0
LINE
8
BLACK
6
CONTINUOUS
10
-1.26004
20
-0.117913
11
-1.26004
21
-0.23248
0
LINE
8
BLACK
6
CONTINUOUS
10
-1.26004
20
-0.23248
11
-1.20453
21
-0.23248
0
LINE
8
BLACK
6
CONTINUOUS
10
-1.20453
20
-0.23248
11
-1.20453
21
-0.117913
0
LINE
8
BLACK
6
CONTINUOUS
10
-1.20453
20
-0.117913
11
-1.26004
21
-0.117913
0
LINE
8
BLACK
6
CONTINUOUS
10
1.00308
20
-0.226381
11
1.0028
21
-0.225685
0
LINE
8
BLACK
6
CONTINUOUS
10
1.0028
20
-0.225685
11
1.0028
21
0.0971496
0
LINE
8
BLACK
6
CONTINUOUS
10
1.0028
20
0.0971496
11
1.00308
21
0.0978456
0
LINE
8
BLACK
6
CONTINUOUS
10
1.00308
20
0.0978456
11
1.00378
21
0.0981339
0
LINE
8
BLACK
6
CONTINUOUS
10
1.00378
20
0.0981339
11
1.25575
21
0.0981339
0
LINE
8
BLACK
6
CONTINUOUS
10
1.25575
20
0.0981339
11
1.25644
21
0.0978456
0
LINE
8
BLACK
6
CONTINUOUS
10
1.25644
20
0.0978456
11
1.25673
21
0.0971496
0
LINE
8
BLACK
6
CONTINUOUS
10
1.25673
20
0.0971496
11
1.25673
21
-0.225685
0
LINE
8
BLACK
6
CONTINUOUS
10
1.25673
20
-0.225685
11
1.25644
21
-0.226381
0
LINE
8
BLACK
6
CONTINUOUS
10
1.25644
20
-0.226381
11
1.25575
21
-0.226669
0
LINE
8
BLACK
6
CONTINUOUS
10
1.25575
20
-0.226669
11
1.00378
21
-0.226669
0
LINE
8
BLACK
6
CONTINUOUS
10
1.00378
20
-0.226669
11
1.00308
21
-0.226381
0
LINE
8
BLACK
6
CONTINUOUS
10
1.00476
20
0.0961654
11
1.00476
21
-0.224701
0
LINE
8
BLACK
6
CONTINUOUS
10
1.00476
20
-0.224701
11
1.25476
21
-0.224701
0
LINE
8
BLACK
6
CONTINUOUS
10
1.25476
20
-0.224701
11
1.25476
21
0.0961654
0
LINE
8
BLACK
6
CONTINUOUS
10
1.25476
20
0.0961654
11
1.00476
21
0.0961654
0
LINE
8
BLACK
6
CONTINUOUS
10
-0.720381
20
-0.214476
11
-0.720669
21
-0.21378
0
LINE
8
BLACK
6
CONTINUOUS
10
-0.720669
20
-0.21378
11
-0.720669
21
-0.156299
0
LINE
8
BLACK
6
CONTINUOUS
10
-0.720669
20
-0.156299
11
-0.720381
21
-0.155603
0
LINE
8
BLACK
6
CONTINUOUS
10
-0.720381
20
-0.155603
11
-0.719685
21
-0.155315
0
LINE
8
BLACK
6
CONTINUOUS
10
-0.719685
20
-0.155315
11
-0.60315
21
-0.155315
0
LINE
8
BLACK
6
CONTINUOUS
10
-0.60315
20
-0.155315
11
-0.602454
21
-0.155603
0
LINE
8
BLACK
6
CONTINUOUS
10
-0.602454
20
-0.155603
11
-0.602165
21
-0.156299
0
LINE
8
BLACK
6
CONTINUOUS
10
-0.602165
20
-0.156299
11
-0.602165
21
-0.21378
0
LINE
8
BLACK
6
CONTINUOUS
10
-0.602165
20
-0.21378
11
-0.602454
21
-0.214476
0
LINE
8
BLACK
6
CONTINUOUS
10
-0.602454
20
-0.214476
11
-0.60315
21
-0.214764
0
LINE
8
BLACK
6
CONTINUOUS
10
-0.60315
20
-0.214764
11
-0.719685
21
-0.214764
0
LINE
8
BLACK
6
CONTINUOUS
10
-0.719685
20
-0.214764
11
-0.720381
21
-0.214476
0
LINE
8
BLACK
6
CONTINUOUS
10
-0.718701
20
-0.157283
11
-0.718701
21
-0.212795
0
LINE
8
BLACK
6
CONTINUOUS
10
-0.718701
20
-0.212795
11
-0.604134
21
-0.212795
0
LINE
8
BLACK
6
CONTINUOUS
10
-0.604134
20
-0.212795
11
-0.604134
21
-0.157283
0
LINE
8
BLACK
6
CONTINUOUS
10
-0.604134
20
-0.157283
11
-0.718701
21
-0.157283
0
LINE
8
BLACK
6
CONTINUOUS
10
-0.768413
20
-0.146365
11
-0.768701
21
-0.145669
0
LINE
8
BLACK
6
CONTINUOUS
10
-0.768701
20
-0.145669
11
-0.768701
21
-0.0354331
0
LINE
8
BLACK
6
CONTINUOUS
10
-0.768701
20
-0.0354331
11
-0.768413
21
-0.0347371
0
LINE
8
BLACK
6
CONTINUOUS
10
-0.768413
20
-0.0347371
11
-0.767717
21
-0.0344488
0
LINE
8
BLACK
6
CONTINUOUS
10
-0.767717
20
-0.0344488
11
-0.641732
21
-0.0344488
0
LINE
8
BLACK
6
CONTINUOUS
10
-0.641732
20
-0.0344488
11
-0.641036
21
-0.0347371
0
LINE
8
BLACK
6
CONTINUOUS
10
-0.641036
20
-0.0347371
11
-0.640748
21
-0.0354331
0
LINE
8
BLACK
6
CONTINUOUS
10
-0.640748
20
-0.0354331
11
-0.640748
21
-0.145669
0
LINE
8
BLACK
6
CONTINUOUS
10
-0.640748
20
-0.145669
11
-0.641036
21
-0.146365
0
LINE
8
BLACK
6
CONTINUOUS
10
-0.641036
20
-0.146365
11
-0.641732
21
-0.146654
0
LINE
8
BLACK
6
CONTINUOUS
10
-0.641732
20
-0.146654
11
-0.767717
21
-0.146654
0
LINE
8
BLACK
6
CONTINUOUS
10
-0.767717
20
-0.146654
11
-0.768413
21
-0.146365
0
LINE
8
BLACK
6
CONTINUOUS
10
-0.766732
20
-0.0364173
11
-0.766732
21
-0.144685
0
LINE
8
BLACK
6
CONTINUOUS
10
-0.766732
20
-0.144685
11
-0.642717
21
-0.144685
0
LINE
8
BLACK
6
CONTINUOUS
10
-0.642717
20
-0.144685
11
-0.642717
21
-0.0364173
0
LINE
8
BLACK
6
CONTINUOUS
10
-0.642717
20
-0.0364173
11
-0.766732
21
-0.0364173
0
LINE
8
BLACK
6
CONTINUOUS
10
-1.27747
20
-0.0806172
11
-1.27776
21
-0.0799213
0
LINE
8
BLACK
6
CONTINUOUS
10
-1.27776
20
-0.0799213
11
-1.27776
21
-0.0224409
0
LINE
8
BLACK
6
CONTINUOUS
10
-1.27776
20
-0.0224409
11
-1.27747
21
-0.021745
0
LINE
8
BLACK
6
CONTINUOUS
10
-1.27747
20
-0.021745
11
-1.27677
21
-0.0214567
0
LINE
8
BLACK
6
CONTINUOUS
10
-1.27677
20
-0.0214567
11
-1.16024
21
-0.0214567
0
LINE
8
BLACK
6
CONTINUOUS
10
-1.16024
20
-0.0214567
11
-1.15954
21
-0.021745
0
LINE
8
BLACK
6
CONTINUOUS
10
-1.15954
20
-0.021745
11
-1.15925
21
-0.0224409
0
LINE
8
BLACK
6
CONTINUOUS
10
-1.15925
20
-0.0224409
11
-1.15925
21
-0.0799213
0
LINE
8
BLACK
6
CONTINUOUS
10
-1.15925
20
-0.0799213
11
-1.15954
21
-0.0806172
0
LINE
8
BLACK
6
CONTINUOUS
10
-1.15954
20
-0.0806172
11
-1.16024
21
-0.0809055
0
LINE
8
BLACK
6
CONTINUOUS
10
-1.16024
20
-0.0809055
11
-1.27677
21
-0.0809055
0
LINE
8
BLACK
6
CONTINUOUS
10
-1.27677
20
-0.0809055
11
-1.27747
21
-0.0806172
0
LINE
8
BLACK
6
CONTINUOUS
10
-1.27579
20
-0.0234252
11
-1.27579
21
-0.078937
0
LINE
8
BLACK
6
CONTINUOUS
10
-1.27579
20
-0.078937
11
-1.16122
21
-0.078937
0
LINE
8
BLACK
6
CONTINUOUS
10
-1.16122
20
-0.078937
11
-1.16122
21
-0.0234252
0
LINE
8
BLACK
6
CONTINUOUS
10
-1.16122
20
-0.0234252
11
-1.27579
21
-0.0234252
0
LINE
8
BLACK
6
CONTINUOUS
10
-0.768413
20
-0.028255
11
-0.768701
21
-0.0275591
0
LINE
8
BLACK
6
CONTINUOUS
10
-0.768701
20
-0.0275591
11
-0.768701
21
0.0826772
0
LINE
8
BLACK
6
CONTINUOUS
10
-0.768701
20
0.0826772
11
-0.768413
21
0.0833731
0
LINE
8
BLACK
6
CONTINUOUS
10
-0.768413
20
0.0833731
11
-0.767717
21
0.0836614
0
LINE
8
BLACK
6
CONTINUOUS
10
-0.767717
20
0.0836614
11
-0.641732
21
0.0836614
0
LINE
8
BLACK
6
CONTINUOUS
10
-0.641732
20
0.0836614
11
-0.641036
21
0.0833731
0
LINE
8
BLACK
6
CONTINUOUS
10
-0.641036
20
0.0833731
11
-0.640748
21
0.0826772
0
LINE
8
BLACK
6
CONTINUOUS
10
-0.640748
20
0.0826772
11
-0.640748
21
-0.0275591
0
LINE
8
BLACK
6
CONTINUOUS
10
-0.640748
20
-0.0275591
11
-0.641036
21
-0.028255
0
LINE
8
BLACK
6
CONTINUOUS
10
-0.641036
20
-0.028255
11
-0.641732
21
-0.0285433
0
LINE
8
BLACK
6
CONTINUOUS
10
-0.641732
20
-0.0285433
11
-0.767717
21
-0.0285433
0
LINE
8
BLACK
6
CONTINUOUS
10
-0.767717
20
-0.0285433
11
-0.768413
21
-0.028255
0
LINE
8
BLACK
6
CONTINUOUS
10
-0.766732
20
0.0816929
11
-0.766732
21
-0.0265748
0
LINE
8
BLACK
6
CONTINUOUS
10
-0.766732
20
-0.0265748
11
-0.642717
21
-0.0265748
0
LINE
8
BLACK
6
CONTINUOUS
10
-0.642717
20
-0.0265748
11
-0.642717
21
0.0816929
0
LINE
8
BLACK
6
CONTINUOUS
10
-0.642717
20
0.0816929
11
-0.766732
21
0.0816929
0
LINE
8
BLACK
6
CONTINUOUS
10
-1.27747
20
-0.0097511
11
-1.27776
21
-0.00905512
0
LINE
8
BLACK
6
CONTINUOUS
10
-1.27776
20
-0.00905512
11
-1.27776
21
0.0484252
0
LINE
8
BLACK
6
CONTINUOUS
10
-1.27776
20
0.0484252
11
-1.27747
21
0.0491212
0
LINE
8
BLACK
6
CONTINUOUS
10
-1.27747
20
0.0491212
11
-1.27677
21
0.0494094
0
LINE
8
BLACK
6
CONTINUOUS
10
-1.27677
20
0.0494094
11
-1.16024
21
0.0494094
0
LINE
8
BLACK
6
CONTINUOUS
10
-1.16024
20
0.0494094
11
-1.15954
21
0.0491212
0
LINE
8
BLACK
6
CONTINUOUS
10
-1.15954
20
0.0491212
11
-1.15925
21
0.0484252
0
LINE
8
BLACK
6
CONTINUOUS
10
-1.15925
20
0.0484252
11
-1.15925
21
-0.00905512
0
LINE
8
BLACK
6
CONTINUOUS
10
-1.15925
20
-0.00905512
11
-1.15954
21
-0.0097511
0
LINE
8
BLACK
6
CONTINUOUS
10
-1.15954
20
-0.0097511
11
-1.16024
21
-0.0100394
0
LINE
8
BLACK
6
CONTINUOUS
10
-1.16024
20
-0.0100394
11
-1.27677
21
-0.0100394
0
LINE
8
BLACK
6
CONTINUOUS
10
-1.27677
20
-0.0100394
11
-1.27747
21
-0.0097511
0
LINE
8
BLACK
6
CONTINUOUS
10
-1.27579
20
0.0474409
11
-1.27579
21
-0.00807087
0
LINE
8
BLACK
6
CONTINUOUS
10
-1.27579
20
-0.00807087
11
-1.16122
21
-0.00807087
0
LINE
8
BLACK
6
CONTINUOUS
10
-1.16122
20
-0.00807087
11
-1.16122
21
0.0474409
0
LINE
8
BLACK
6
CONTINUOUS
10
-1.16122
20
0.0474409
11
-1.27579
21
0.0474409
0
LINE
8
BLACK
6
CONTINUOUS
10
0.586536
20
0.320094
11
0.62718
21
0.279449
0
LINE
8
BLACK
6
CONTINUOUS
10
0.62718
20
0.279449
11
0.627469
21
0.278753
0
LINE
8
BLACK
6
CONTINUOUS
10
0.627469
20
0.278753
11
0.62718
21
0.278057
0
LINE
8
BLACK
6
CONTINUOUS
10
0.62718
20
0.278057
11
0.544777
21
0.195654
0
LINE
8
BLACK
6
CONTINUOUS
10
0.544777
20
0.195654
11
0.544081
21
0.195366
0
LINE
8
BLACK
6
CONTINUOUS
10
0.544081
20
0.195366
11
0.543386
21
0.195654
0
LINE
8
BLACK
6
CONTINUOUS
10
0.543386
20
0.195654
11
0.502741
21
0.236299
0
LINE
8
BLACK
6
CONTINUOUS
10
0.502741
20
0.236299
11
0.502453
21
0.236995
0
LINE
8
BLACK
6
CONTINUOUS
10
0.502453
20
0.236995
11
0.502741
21
0.237691
0
LINE
8
BLACK
6
CONTINUOUS
10
0.502741
20
0.237691
11
0.585144
21
0.320094
0
LINE
8
BLACK
6
CONTINUOUS
10
0.585144
20
0.320094
11
0.58584
21
0.320382
0
LINE
8
BLACK
6
CONTINUOUS
10
0.58584
20
0.320382
11
0.586536
21
0.320094
0
LINE
8
BLACK
6
CONTINUOUS
10
0.504829
20
0.236995
11
0.544081
21
0.197742
0
LINE
8
BLACK
6
CONTINUOUS
10
0.544081
20
0.197742
11
0.625093
21
0.278753
0
LINE
8
BLACK
6
CONTINUOUS
10
0.625093
20
0.278753
11
0.58584
21
0.318006
0
LINE
8
BLACK
6
CONTINUOUS
10
0.58584
20
0.318006
11
0.504829
21
0.236995
0
LINE
8
BLACK
6
CONTINUOUS
10
-1.11684
20
0.217808
11
-1.11713
21
0.218504
0
LINE
8
BLACK
6
CONTINUOUS
10
-1.11713
20
0.218504
11
-1.11713
21
0.316929
0
LINE
8
BLACK
6
CONTINUOUS
10
-1.11713
20
0.316929
11
-1.11684
21
0.317625
0
LINE
8
BLACK
6
CONTINUOUS
10
-1.11684
20
0.317625
11
-1.11614
21
0.317913
0
LINE
8
BLACK
6
CONTINUOUS
10
-1.11614
20
0.317913
11
-0.98622
21
0.317913
0
LINE
8
BLACK
6
CONTINUOUS
10
-0.98622
20
0.317913
11
-0.985524
21
0.317625
0
LINE
8
BLACK
6
CONTINUOUS
10
-0.985524
20
0.317625
11
-0.985236
21
0.316929
0
LINE
8
BLACK
6
CONTINUOUS
10
-0.985236
20
0.316929
11
-0.985236
21
0.218504
0
LINE
8
BLACK
6
CONTINUOUS
10
-0.985236
20
0.218504
11
-0.985524
21
0.217808
0
LINE
8
BLACK
6
CONTINUOUS
10
-0.985524
20
0.217808
11
-0.98622
21
0.21752
0
LINE
8
BLACK
6
CONTINUOUS
10
-0.98622
20
0.21752
11
-1.11614
21
0.21752
0
LINE
8
BLACK
6
CONTINUOUS
10
-1.11614
20
0.21752
11
-1.11684
21
0.217808
0
LINE
8
BLACK
6
CONTINUOUS
10
-1.11516
20
0.315945
11
-1.11516
21
0.219488
0
LINE
8
BLACK
6
CONTINUOUS
10
-1.11516
20
0.219488
11
-0.987205
21
0.219488
0
LINE
8
BLACK
6
CONTINUOUS
10
-0.987205
20
0.219488
11
-0.987205
21
0.315945
0
LINE
8
BLACK
6
CONTINUOUS
10
-0.987205
20
0.315945
11
-1.11516
21
0.315945
0
LINE
8
BLACK
6
CONTINUOUS
10
0.694973
20
0.235328
11
0.694685
21
0.236024
0
LINE
8
BLACK
6
CONTINUOUS
10
0.694685
20
0.236024
11
0.694685
21
0.352559
0
LINE
8
BLACK
6
CONTINUOUS
10
0.694685
20
0.352559
11
0.694973
21
0.353255
0
LINE
8
BLACK
6
CONTINUOUS
10
0.694973
20
0.353255
11
0.695669
21
0.353543
0
LINE
8
BLACK
6
CONTINUOUS
10
0.695669
20
0.353543
11
0.75315
21
0.353543
0
LINE
8
BLACK
6
CONTINUOUS
10
0.75315
20
0.353543
11
0.753846
21
0.353255
0
LINE
8
BLACK
6
CONTINUOUS
10
0.753846
20
0.353255
11
0.754134
21
0.352559
0
LINE
8
BLACK
6
CONTINUOUS
10
0.754134
20
0.352559
11
0.754134
21
0.236024
0
LINE
8
BLACK
6
CONTINUOUS
10
0.754134
20
0.236024
11
0.753846
21
0.235328
0
LINE
8
BLACK
6
CONTINUOUS
10
0.753846
20
0.235328
11
0.75315
21
0.235039
0
LINE
8
BLACK
6
CONTINUOUS
10
0.75315
20
0.235039
11
0.695669
21
0.235039
0
LINE
8
BLACK
6
CONTINUOUS
10
0.695669
20
0.235039
11
0.694973
21
0.235328
0
LINE
8
BLACK
6
CONTINUOUS
10
0.696654
20
0.351575
11
0.696654
21
0.237008
0
LINE
8
BLACK
6
CONTINUOUS
10
0.696654
20
0.237008
11
0.752165
21
0.237008
0
LINE
8
BLACK
6
CONTINUOUS
10
0.752165
20
0.237008
11
0.752165
21
0.351575
0
LINE
8
BLACK
6
CONTINUOUS
10
0.752165
20
0.351575
11
0.696654
21
0.351575
0
LINE
8
BLACK
6
CONTINUOUS
10
-0.608176
20
0.236312
11
-0.608465
21
0.237008
0
LINE
8
BLACK
6
CONTINUOUS
10
-0.608465
20
0.237008
11
-0.608465
21
0.353543
0
LINE
8
BLACK
6
CONTINUOUS
10
-0.608465
20
0.353543
11
-0.608176
21
0.354239
0
LINE
8
BLACK
6
CONTINUOUS
10
-0.608176
20
0.354239
11
-0.60748
21
0.354528
0
LINE
8
BLACK
6
CONTINUOUS
10
-0.60748
20
0.354528
11
-0.55
21
0.354528
0
LINE
8
BLACK
6
CONTINUOUS
10
-0.55
20
0.354528
11
-0.549304
21
0.354239
0
LINE
8
BLACK
6
CONTINUOUS
10
-0.549304
20
0.354239
11
-0.549016
21
0.353543
0
LINE
8
BLACK
6
CONTINUOUS
10
-0.549016
20
0.353543
11
-0.549016
21
0.237008
0
LINE
8
BLACK
6
CONTINUOUS
10
-0.549016
20
0.237008
11
-0.549304
21
0.236312
0
LINE
8
BLACK
6
CONTINUOUS
10
-0.549304
20
0.236312
11
-0.55
21
0.236024
0
LINE
8
BLACK
6
CONTINUOUS
10
-0.55
20
0.236024
11
-0.60748
21
0.236024
0
LINE
8
BLACK
6
CONTINUOUS
10
-0.60748
20
0.236024
11
-0.608176
21
0.236312
0
LINE
8
BLACK
6
CONTINUOUS
10
-0.606496
20
0.352559
11
-0.606496
21
0.237992
0
LINE
8
BLACK
6
CONTINUOUS
10
-0.606496
20
0.237992
11
-0.550984
21
0.237992
0
LINE
8
BLACK
6
CONTINUOUS
10
-0.550984
20
0.237992
11
-0.550984
21
0.352559
0
LINE
8
BLACK
6
CONTINUOUS
10
-0.550984
20
0.352559
11
-0.606496
21
0.352559
0
LINE
8
BLACK
6
CONTINUOUS
10
0.8258
20
0.282296
11
0.825512
21
0.282992
0
LINE
8
BLACK
6
CONTINUOUS
10
0.825512
20
0.282992
11
0.825512
21
0.340472
0
LINE
8
BLACK
6
CONTINUOUS
10
0.825512
20
0.340472
11
0.8258
21
0.341168
0
LINE
8
BLACK
6
CONTINUOUS
10
0.8258
20
0.341168
11
0.826496
21
0.341457
0
LINE
8
BLACK
6
CONTINUOUS
10
0.826496
20
0.341457
11
0.943031
21
0.341457
0
LINE
8
BLACK
6
CONTINUOUS
10
0.943031
20
0.341457
11
0.943727
21
0.341168
0
LINE
8
BLACK
6
CONTINUOUS
10
0.943727
20
0.341168
11
0.944016
21
0.340472
0
LINE
8
BLACK
6
CONTINUOUS
10
0.944016
20
0.340472
11
0.944016
21
0.282992
0
LINE
8
BLACK
6
CONTINUOUS
10
0.944016
20
0.282992
11
0.943727
21
0.282296
0
LINE
8
BLACK
6
CONTINUOUS
10
0.943727
20
0.282296
11
0.943031
21
0.282008
0
LINE
8
BLACK
6
CONTINUOUS
10
0.943031
20
0.282008
11
0.826496
21
0.282008
0
LINE
8
BLACK
6
CONTINUOUS
10
0.826496
20
0.282008
11
0.8258
21
0.282296
0
LINE
8
BLACK
6
CONTINUOUS
10
0.82748
20
0.339488
11
0.82748
21
0.283976
0
LINE
8
BLACK
6
CONTINUOUS
10
0.82748
20
0.283976
11
0.942047
21
0.283976
0
LINE
8
BLACK
6
CONTINUOUS
10
0.942047
20
0.283976
11
0.942047
21
0.339488
0
LINE
8
BLACK
6
CONTINUOUS
10
0.942047
20
0.339488
11
0.82748
21
0.339488
0
LINE
8
BLACK
6
CONTINUOUS
10
1.02904
20
0.284721
11
1.02875
21
0.285417
0
LINE
8
BLACK
6
CONTINUOUS
10
1.02875
20
0.285417
11
1.02875
21
0.342898
0
LINE
8
BLACK
6
CONTINUOUS
10
1.02875
20
0.342898
11
1.02904
21
0.343594
0
LINE
8
BLACK
6
CONTINUOUS
10
1.02904
20
0.343594
11
1.02973
21
0.343882
0
LINE
8
BLACK
6
CONTINUOUS
10
1.02973
20
0.343882
11
1.14627
21
0.343882
0
LINE
8
BLACK
6
CONTINUOUS
10
1.14627
20
0.343882
11
1.14696
21
0.343594
0
LINE
8
BLACK
6
CONTINUOUS
10
1.14696
20
0.343594
11
1.14725
21
0.342898
0
LINE
8
BLACK
6
CONTINUOUS
10
1.14725
20
0.342898
11
1.14725
21
0.285417
0
LINE
8
BLACK
6
CONTINUOUS
10
1.14725
20
0.285417
11
1.14696
21
0.284721
0
LINE
8
BLACK
6
CONTINUOUS
10
1.14696
20
0.284721
11
1.14627
21
0.284433
0
LINE
8
BLACK
6
CONTINUOUS
10
1.14627
20
0.284433
11
1.02973
21
0.284433
0
LINE
8
BLACK
6
CONTINUOUS
10
1.02973
20
0.284433
11
1.02904
21
0.284721
0
LINE
8
BLACK
6
CONTINUOUS
10
1.03072
20
0.341913
11
1.03072
21
0.286402
0
LINE
8
BLACK
6
CONTINUOUS
10
1.03072
20
0.286402
11
1.14528
21
0.286402
0
LINE
8
BLACK
6
CONTINUOUS
10
1.14528
20
0.286402
11
1.14528
21
0.341913
0
LINE
8
BLACK
6
CONTINUOUS
10
1.14528
20
0.341913
11
1.03072
21
0.341913
0
LINE
8
BLACK
6
CONTINUOUS
10
0.610328
20
0.298517
11
0.610039
21
0.299213
0
LINE
8
BLACK
6
CONTINUOUS
10
0.610039
20
0.299213
11
0.610039
21
0.433071
0
LINE
8
BLACK
6
CONTINUOUS
10
0.610039
20
0.433071
11
0.610328
21
0.433767
0
LINE
8
BLACK
6
CONTINUOUS
10
0.610328
20
0.433767
11
0.611024
21
0.434055
0
LINE
8
BLACK
6
CONTINUOUS
10
0.611024
20
0.434055
11
0.688189
21
0.434055
0
LINE
8
BLACK
6
CONTINUOUS
10
0.688189
20
0.434055
11
0.688885
21
0.433767
0
LINE
8
BLACK
6
CONTINUOUS
10
0.688885
20
0.433767
11
0.689173
21
0.433071
0
LINE
8
BLACK
6
CONTINUOUS
10
0.689173
20
0.433071
11
0.689173
21
0.299213
0
LINE
8
BLACK
6
CONTINUOUS
10
0.689173
20
0.299213
11
0.688885
21
0.298517
0
LINE
8
BLACK
6
CONTINUOUS
10
0.688885
20
0.298517
11
0.688189
21
0.298228
0
LINE
8
BLACK
6
CONTINUOUS
10
0.688189
20
0.298228
11
0.611024
21
0.298228
0
LINE
8
BLACK
6
CONTINUOUS
10
0.611024
20
0.298228
11
0.610328
21
0.298517
0
LINE
8
BLACK
6
CONTINUOUS
10
0.612008
20
0.432087
11
0.612008
21
0.300197
0
LINE
8
BLACK
6
CONTINUOUS
10
0.612008
20
0.300197
11
0.687205
21
0.300197
0
LINE
8
BLACK
6
CONTINUOUS
10
0.687205
20
0.300197
11
0.687205
21
0.432087
0
LINE
8
BLACK
6
CONTINUOUS
10
0.687205
20
0.432087
11
0.612008
21
0.432087
0
LINE
8
BLACK
6
CONTINUOUS
10
-1.11684
20
0.324107
11
-1.11713
21
0.324803
0
LINE
8
BLACK
6
CONTINUOUS
10
-1.11713
20
0.324803
11
-1.11713
21
0.423228
0
LINE
8
BLACK
6
CONTINUOUS
10
-1.11713
20
0.423228
11
-1.11684
21
0.423924
0
LINE
8
BLACK
6
CONTINUOUS
10
-1.11684
20
0.423924
11
-1.11614
21
0.424213
0
LINE
8
BLACK
6
CONTINUOUS
10
-1.11614
20
0.424213
11
-0.98622
21
0.424213
0
LINE
8
BLACK
6
CONTINUOUS
10
-0.98622
20
0.424213
11
-0.985524
21
0.423924
0
LINE
8
BLACK
6
CONTINUOUS
10
-0.985524
20
0.423924
11
-0.985236
21
0.423228
0
LINE
8
BLACK
6
CONTINUOUS
10
-0.985236
20
0.423228
11
-0.985236
21
0.324803
0
LINE
8
BLACK
6
CONTINUOUS
10
-0.985236
20
0.324803
11
-0.985524
21
0.324107
0
LINE
8
BLACK
6
CONTINUOUS
10
-0.985524
20
0.324107
11
-0.98622
21
0.323819
0
LINE
8
BLACK
6
CONTINUOUS
10
-0.98622
20
0.323819
11
-1.11614
21
0.323819
0
LINE
8
BLACK
6
CONTINUOUS
10
-1.11614
20
0.323819
11
-1.11684
21
0.324107
0
LINE
8
BLACK
6
CONTINUOUS
10
-1.11516
20
0.422244
11
-1.11516
21
0.325787
0
LINE
8
BLACK
6
CONTINUOUS
10
-1.11516
20
0.325787
11
-0.987205
21
0.325787
0
LINE
8
BLACK
6
CONTINUOUS
10
-0.987205
20
0.325787
11
-0.987205
21
0.422244
0
LINE
8
BLACK
6
CONTINUOUS
10
-0.987205
20
0.422244
11
-1.11516
21
0.422244
0
LINE
8
BLACK
6
CONTINUOUS
10
0.281653
20
0.44936
11
0.364056
21
0.366957
0
LINE
8
BLACK
6
CONTINUOUS
10
0.364056
20
0.366957
11
0.364344
21
0.366261
0
LINE
8
BLACK
6
CONTINUOUS
10
0.364344
20
0.366261
11
0.364056
21
0.365565
0
LINE
8
BLACK
6
CONTINUOUS
10
0.364056
20
0.365565
11
0.323411
21
0.32492
0
LINE
8
BLACK
6
CONTINUOUS
10
0.323411
20
0.32492
11
0.322715
21
0.324632
0
LINE
8
BLACK
6
CONTINUOUS
10
0.322715
20
0.324632
11
0.322019
21
0.32492
0
LINE
8
BLACK
6
CONTINUOUS
10
0.322019
20
0.32492
11
0.239616
21
0.407323
0
LINE
8
BLACK
6
CONTINUOUS
10
0.239616
20
0.407323
11
0.239328
21
0.408019
0
LINE
8
BLACK
6
CONTINUOUS
10
0.239328
20
0.408019
11
0.239616
21
0.408715
0
LINE
8
BLACK
6
CONTINUOUS
10
0.239616
20
0.408715
11
0.280261
21
0.44936
0
LINE
8
BLACK
6
CONTINUOUS
10
0.280261
20
0.44936
11
0.280957
21
0.449648
0
LINE
8
BLACK
6
CONTINUOUS
10
0.280957
20
0.449648
11
0.281653
21
0.44936
0
LINE
8
BLACK
6
CONTINUOUS
10
0.241704
20
0.408019
11
0.322715
21
0.327008
0
LINE
8
BLACK
6
CONTINUOUS
10
0.322715
20
0.327008
11
0.361968
21
0.366261
0
LINE
8
BLACK
6
CONTINUOUS
10
0.361968
20
0.366261
11
0.280957
21
0.447272
0
LINE
8
BLACK
6
CONTINUOUS
10
0.280957
20
0.447272
11
0.241704
21
0.408019
0
LINE
8
BLACK
6
CONTINUOUS
10
0.484174
20
0.451984
11
0.524818
21
0.411339
0
LINE
8
BLACK
6
CONTINUOUS
10
0.524818
20
0.411339
11
0.525107
21
0.410643
0
LINE
8
BLACK
6
CONTINUOUS
10
0.525107
20
0.410643
11
0.524818
21
0.409947
0
LINE
8
BLACK
6
CONTINUOUS
10
0.524818
20
0.409947
11
0.442415
21
0.327544
0
LINE
8
BLACK
6
CONTINUOUS
10
0.442415
20
0.327544
11
0.441719
21
0.327256
0
LINE
8
BLACK
6
CONTINUOUS
10
0.441719
20
0.327256
11
0.441023
21
0.327544
0
LINE
8
BLACK
6
CONTINUOUS
10
0.441023
20
0.327544
11
0.400379
21
0.368189
0
LINE
8
BLACK
6
CONTINUOUS
10
0.400379
20
0.368189
11
0.40009
21
0.368885
0
LINE
8
BLACK
6
CONTINUOUS
10
0.40009
20
0.368885
11
0.400379
21
0.369581
0
LINE
8
BLACK
6
CONTINUOUS
10
0.400379
20
0.369581
11
0.482782
21
0.451984
0
LINE
8
BLACK
6
CONTINUOUS
10
0.482782
20
0.451984
11
0.483478
21
0.452272
0
LINE
8
BLACK
6
CONTINUOUS
10
0.483478
20
0.452272
11
0.484174
21
0.451984
0
LINE
8
BLACK
6
CONTINUOUS
10
0.402467
20
0.368885
11
0.441719
21
0.329632
0
LINE
8
BLACK
6
CONTINUOUS
10
0.441719
20
0.329632
11
0.52273
21
0.410643
0
LINE
8
BLACK
6
CONTINUOUS
10
0.52273
20
0.410643
11
0.483478
21
0.449896
0
LINE
8
BLACK
6
CONTINUOUS
10
0.483478
20
0.449896
11
0.402467
21
0.368885
0
LINE
8
BLACK
6
CONTINUOUS
10
-1.31348
20
0.873809
11
-1.31348
21
0.873809
0
LINE
8
BLACK
6
CONTINUOUS
10
-1.31348
20
0.873809
11
-1.08512
21
0.767323
0
LINE
8
BLACK
6
CONTINUOUS
10
-1.08512
20
0.767323
11
-1.08512
21
0.767323
0
LINE
8
BLACK
6
CONTINUOUS
10
-1.08512
20
0.767323
11
-1.08461
21
0.766767
0
LINE
8
BLACK
6
CONTINUOUS
10
-1.08461
20
0.766767
11
-1.08464
21
0.766015
0
LINE
8
BLACK
6
CONTINUOUS
10
-1.08464
20
0.766015
11
-1.28364
21
0.339265
0
LINE
8
BLACK
6
CONTINUOUS
10
-1.28364
20
0.339265
11
-1.28419
21
0.338756
0
LINE
8
BLACK
6
CONTINUOUS
10
-1.28419
20
0.338756
11
-1.28419
21
0.338756
0
LINE
8
BLACK
6
CONTINUOUS
10
-1.28419
20
0.338756
11
-1.28495
21
0.338789
0
LINE
8
BLACK
6
CONTINUOUS
10
-1.28495
20
0.338789
11
-1.51331
21
0.445276
0
LINE
8
BLACK
6
CONTINUOUS
10
-1.51331
20
0.445276
11
-1.51382
21
0.445831
0
LINE
8
BLACK
6
CONTINUOUS
10
-1.51382
20
0.445831
11
-1.51378
21
0.446584
0
LINE
8
BLACK
6
CONTINUOUS
10
-1.51378
20
0.446584
11
-1.31479
21
0.873333
0
LINE
8
BLACK
6
CONTINUOUS
10
-1.31479
20
0.873333
11
-1.31423
21
0.873842
0
LINE
8
BLACK
6
CONTINUOUS
10
-1.31423
20
0.873842
11
-1.31348
21
0.873809
0
LINE
8
BLACK
6
CONTINUOUS
10
-1.51158
20
0.446644
11
-1.28501
21
0.340989
0
LINE
8
BLACK
6
CONTINUOUS
10
-1.28501
20
0.340989
11
-1.08684
21
0.765955
0
LINE
8
BLACK
6
CONTINUOUS
10
-1.08684
20
0.765955
11
-1.31342
21
0.871609
0
LINE
8
BLACK
6
CONTINUOUS
10
-1.31342
20
0.871609
11
-1.51158
21
0.446644
0
LINE
8
BLACK
6
CONTINUOUS
10
0.889036
20
0.359721
11
0.888748
21
0.360417
0
LINE
8
BLACK
6
CONTINUOUS
10
0.888748
20
0.360417
11
0.888748
21
0.417898
0
LINE
8
BLACK
6
CONTINUOUS
10
0.888748
20
0.417898
11
0.889036
21
0.418594
0
LINE
8
BLACK
6
CONTINUOUS
10
0.889036
20
0.418594
11
0.889732
21
0.418882
0
LINE
8
BLACK
6
CONTINUOUS
10
0.889732
20
0.418882
11
1.00627
21
0.418882
0
LINE
8
BLACK
6
CONTINUOUS
10
1.00627
20
0.418882
11
1.00696
21
0.418594
0
LINE
8
BLACK
6
CONTINUOUS
10
1.00696
20
0.418594
11
1.00725
21
0.417898
0
LINE
8
BLACK
6
CONTINUOUS
10
1.00725
20
0.417898
11
1.00725
21
0.360417
0
LINE
8
BLACK
6
CONTINUOUS
10
1.00725
20
0.360417
11
1.00696
21
0.359721
0
LINE
8
BLACK
6
CONTINUOUS
10
1.00696
20
0.359721
11
1.00627
21
0.359433
0
LINE
8
BLACK
6
CONTINUOUS
10
1.00627
20
0.359433
11
0.889732
21
0.359433
0
LINE
8
BLACK
6
CONTINUOUS
10
0.889732
20
0.359433
11
0.889036
21
0.359721
0
LINE
8
BLACK
6
CONTINUOUS
10
0.890717
20
0.416913
11
0.890717
21
0.361402
0
LINE
8
BLACK
6
CONTINUOUS
10
0.890717
20
0.361402
11
1.00528
21
0.361402
0
LINE
8
BLACK
6
CONTINUOUS
10
1.00528
20
0.361402
11
1.00528
21
0.416913
0
LINE
8
BLACK
6
CONTINUOUS
10
1.00528
20
0.416913
11
0.890717
21
0.416913
0
LINE
8
BLACK
6
CONTINUOUS
10
-0.612113
20
0.36328
11
-0.612402
21
0.363976
0
LINE
8
BLACK
6
CONTINUOUS
10
-0.612402
20
0.363976
11
-0.612402
21
0.480512
0
LINE
8
BLACK
6
CONTINUOUS
10
-0.612402
20
0.480512
11
-0.612113
21
0.481208
0
LINE
8
BLACK
6
CONTINUOUS
10
-0.612113
20
0.481208
11
-0.611417
21
0.481496
0
LINE
8
BLACK
6
CONTINUOUS
10
-0.611417
20
0.481496
11
-0.553937
21
0.481496
0
LINE
8
BLACK
6
CONTINUOUS
10
-0.553937
20
0.481496
11
-0.553241
21
0.481208
0
LINE
8
BLACK
6
CONTINUOUS
10
-0.553241
20
0.481208
11
-0.552953
21
0.480512
0
LINE
8
BLACK
6
CONTINUOUS
10
-0.552953
20
0.480512
11
-0.552953
21
0.363976
0
LINE
8
BLACK
6
CONTINUOUS
10
-0.552953
20
0.363976
11
-0.553241
21
0.36328
0
LINE
8
BLACK
6
CONTINUOUS
10
-0.553241
20
0.36328
11
-0.553937
21
0.362992
0
LINE
8
BLACK
6
CONTINUOUS
10
-0.553937
20
0.362992
11
-0.611417
21
0.362992
0
LINE
8
BLACK
6
CONTINUOUS
10
-0.611417
20
0.362992
11
-0.612113
21
0.36328
0
LINE
8
BLACK
6
CONTINUOUS
10
-0.610433
20
0.479528
11
-0.610433
21
0.364961
0
LINE
8
BLACK
6
CONTINUOUS
10
-0.610433
20
0.364961
11
-0.554921
21
0.364961
0
LINE
8
BLACK
6
CONTINUOUS
10
-0.554921
20
0.364961
11
-0.554921
21
0.479528
0
LINE
8
BLACK
6
CONTINUOUS
10
-0.554921
20
0.479528
11
-0.610433
21
0.479528
0
LINE
8
BLACK
6
CONTINUOUS
10
1.02904
20
0.364721
11
1.02875
21
0.365417
0
LINE
8
BLACK
6
CONTINUOUS
10
1.02875
20
0.365417
11
1.02875
21
0.422898
0
LINE
8
BLACK
6
CONTINUOUS
10
1.02875
20
0.422898
11
1.02904
21
0.423594
0
LINE
8
BLACK
6
CONTINUOUS
10
1.02904
20
0.423594
11
1.02973
21
0.423882
0
LINE
8
BLACK
6
CONTINUOUS
10
1.02973
20
0.423882
11
1.14627
21
0.423882
0
LINE
8
BLACK
6
CONTINUOUS
10
1.14627
20
0.423882
11
1.14696
21
0.423594
0
LINE
8
BLACK
6
CONTINUOUS
10
1.14696
20
0.423594
11
1.14725
21
0.422898
0
LINE
8
BLACK
6
CONTINUOUS
10
1.14725
20
0.422898
11
1.14725
21
0.365417
0
LINE
8
BLACK
6
CONTINUOUS
10
1.14725
20
0.365417
11
1.14696
21
0.364721
0
LINE
8
BLACK
6
CONTINUOUS
10
1.14696
20
0.364721
11
1.14627
21
0.364433
0
LINE
8
BLACK
6
CONTINUOUS
10
1.14627
20
0.364433
11
1.02973
21
0.364433
0
LINE
8
BLACK
6
CONTINUOUS
10
1.02973
20
0.364433
11
1.02904
21
0.364721
0
LINE
8
BLACK
6
CONTINUOUS
10
1.03072
20
0.421913
11
1.03072
21
0.366402
0
LINE
8
BLACK
6
CONTINUOUS
10
1.03072
20
0.366402
11
1.14528
21
0.366402
0
LINE
8
BLACK
6
CONTINUOUS
10
1.14528
20
0.366402
11
1.14528
21
0.421913
0
LINE
8
BLACK
6
CONTINUOUS
10
1.14528
20
0.421913
11
1.03072
21
0.421913
0
LINE
8
BLACK
6
CONTINUOUS
10
0.403902
20
0.540905
11
0.48185
21
0.462957
0
LINE
8
BLACK
6
CONTINUOUS
10
0.48185
20
0.462957
11
0.482139
21
0.462261
0
LINE
8
BLACK
6
CONTINUOUS
10
0.482139
20
0.462261
11
0.48185
21
0.461565
0
LINE
8
BLACK
6
CONTINUOUS
10
0.48185
20
0.461565
11
0.392766
21
0.37248
0
LINE
8
BLACK
6
CONTINUOUS
10
0.392766
20
0.37248
11
0.39207
21
0.372192
0
LINE
8
BLACK
6
CONTINUOUS
10
0.39207
20
0.372192
11
0.391374
21
0.37248
0
LINE
8
BLACK
6
CONTINUOUS
10
0.391374
20
0.37248
11
0.313425
21
0.450429
0
LINE
8
BLACK
6
CONTINUOUS
10
0.313425
20
0.450429
11
0.313137
21
0.451125
0
LINE
8
BLACK
6
CONTINUOUS
10
0.313137
20
0.451125
11
0.313425
21
0.451821
0
LINE
8
BLACK
6
CONTINUOUS
10
0.313425
20
0.451821
11
0.40251
21
0.540905
0
LINE
8
BLACK
6
CONTINUOUS
10
0.40251
20
0.540905
11
0.403206
21
0.541194
0
LINE
8
BLACK
6
CONTINUOUS
10
0.403206
20
0.541194
11
0.403902
21
0.540905
0
LINE
8
BLACK
6
CONTINUOUS
10
0.315513
20
0.451125
11
0.39207
21
0.374568
0
LINE
8
BLACK
6
CONTINUOUS
10
0.39207
20
0.374568
11
0.479762
21
0.462261
0
LINE
8
BLACK
6
CONTINUOUS
10
0.479762
20
0.462261
11
0.403206
21
0.538817
0
LINE
8
BLACK
6
CONTINUOUS
10
0.403206
20
0.538817
11
0.315513
21
0.451125
0
LINE
8
BLACK
6
CONTINUOUS
10
0.0631383
20
0.583827
11
0.166895
21
0.460174
0
LINE
8
BLACK
6
CONTINUOUS
10
0.166895
20
0.460174
11
0.166895
21
0.460174
0
LINE
8
BLACK
6
CONTINUOUS
10
0.166895
20
0.460174
11
0.166895
21
0.460174
0
LINE
8
BLACK
6
CONTINUOUS
10
0.166895
20
0.460174
11
0.167122
21
0.459455
0
LINE
8
BLACK
6
CONTINUOUS
10
0.167122
20
0.459455
11
0.166837
21
0.458909
0
LINE
8
BLACK
6
CONTINUOUS
10
0.166837
20
0.458909
11
0.166774
21
0.458787
0
LINE
8
BLACK
6
CONTINUOUS
10
0.166774
20
0.458787
11
0.0642326
21
0.372745
0
LINE
8
BLACK
6
CONTINUOUS
10
0.0642326
20
0.372745
11
0.0635142
21
0.372518
0
LINE
8
BLACK
6
CONTINUOUS
10
0.0635142
20
0.372518
11
0.062846
21
0.372866
0
LINE
8
BLACK
6
CONTINUOUS
10
0.062846
20
0.372866
11
-0.0409111
21
0.496519
0
LINE
8
BLACK
6
CONTINUOUS
10
-0.0409111
20
0.496519
11
-0.0411376
21
0.497237
0
LINE
8
BLACK
6
CONTINUOUS
10
-0.0411376
20
0.497237
11
-0.0407898
21
0.497906
0
LINE
8
BLACK
6
CONTINUOUS
10
-0.0407898
20
0.497906
11
0.0617516
21
0.583948
0
LINE
8
BLACK
6
CONTINUOUS
10
0.0617516
20
0.583948
11
0.0624701
21
0.584175
0
LINE
8
BLACK
6
CONTINUOUS
10
0.0624701
20
0.584175
11
0.0631383
21
0.583827
0
LINE
8
BLACK
6
CONTINUOUS
10
-0.0387704
20
0.49703
11
0.0637213
21
0.374885
0
LINE
8
BLACK
6
CONTINUOUS
10
0.0637213
20
0.374885
11
0.164755
21
0.459663
0
LINE
8
BLACK
6
CONTINUOUS
10
0.164755
20
0.459663
11
0.062263
21
0.581807
0
LINE
8
BLACK
6
CONTINUOUS
10
0.062263
20
0.581807
11
-0.0387704
21
0.49703
0
LINE
8
BLACK
6
CONTINUOUS
10
0.722139
20
0.412139
11
0.72185
21
0.412835
0
LINE
8
BLACK
6
CONTINUOUS
10
0.72185
20
0.412835
11
0.72185
21
0.55063
0
LINE
8
BLACK
6
CONTINUOUS
10
0.72185
20
0.55063
11
0.722139
21
0.551326
0
LINE
8
BLACK
6
CONTINUOUS
10
0.722139
20
0.551326
11
0.722835
21
0.551614
0
LINE
8
BLACK
6
CONTINUOUS
10
0.722835
20
0.551614
11
0.856693
21
0.551614
0
LINE
8
BLACK
6
CONTINUOUS
10
0.856693
20
0.551614
11
0.857389
21
0.551326
0
LINE
8
BLACK
6
CONTINUOUS
10
0.857389
20
0.551326
11
0.857677
21
0.55063
0
LINE
8
BLACK
6
CONTINUOUS
10
0.857677
20
0.55063
11
0.857677
21
0.412835
0
LINE
8
BLACK
6
CONTINUOUS
10
0.857677
20
0.412835
11
0.857389
21
0.412139
0
LINE
8
BLACK
6
CONTINUOUS
10
0.857389
20
0.412139
11
0.856693
21
0.41185
0
LINE
8
BLACK
6
CONTINUOUS
10
0.856693
20
0.41185
11
0.722835
21
0.41185
0
LINE
8
BLACK
6
CONTINUOUS
10
0.722835
20
0.41185
11
0.722139
21
0.412139
0
LINE
8
BLACK
6
CONTINUOUS
10
0.723819
20
0.549646
11
0.723819
21
0.413819
0
LINE
8
BLACK
6
CONTINUOUS
10
0.723819
20
0.413819
11
0.855709
21
0.413819
0
LINE
8
BLACK
6
CONTINUOUS
10
0.855709
20
0.413819
11
0.855709
21
0.549646
0
LINE
8
BLACK
6
CONTINUOUS
10
0.855709
20
0.549646
11
0.723819
21
0.549646
0
LINE
8
BLACK
6
CONTINUOUS
10
0.961595
20
0.441532
11
0.961307
21
0.442228
0
LINE
8
BLACK
6
CONTINUOUS
10
0.961307
20
0.442228
11
0.961307
21
0.576087
0
LINE
8
BLACK
6
CONTINUOUS
10
0.961307
20
0.576087
11
0.961595
21
0.576783
0
LINE
8
BLACK
6
CONTINUOUS
10
0.961595
20
0.576783
11
0.962291
21
0.577071
0
LINE
8
BLACK
6
CONTINUOUS
10
0.962291
20
0.577071
11
1.12371
21
0.577071
0
LINE
8
BLACK
6
CONTINUOUS
10
1.12371
20
0.577071
11
1.1244
21
0.576783
0
LINE
8
BLACK
6
CONTINUOUS
10
1.1244
20
0.576783
11
1.12469
21
0.576087
0
LINE
8
BLACK
6
CONTINUOUS
10
1.12469
20
0.576087
11
1.12469
21
0.442228
0
LINE
8
BLACK
6
CONTINUOUS
10
1.12469
20
0.442228
11
1.1244
21
0.441532
0
LINE
8
BLACK
6
CONTINUOUS
10
1.1244
20
0.441532
11
1.12371
21
0.441244
0
LINE
8
BLACK
6
CONTINUOUS
10
1.12371
20
0.441244
11
0.962291
21
0.441244
0
LINE
8
BLACK
6
CONTINUOUS
10
0.962291
20
0.441244
11
0.961595
21
0.441532
0
LINE
8
BLACK
6
CONTINUOUS
10
0.963276
20
0.575102
11
0.963276
21
0.443213
0
LINE
8
BLACK
6
CONTINUOUS
10
0.963276
20
0.443213
11
1.12272
21
0.443213
0
LINE
8
BLACK
6
CONTINUOUS
10
1.12272
20
0.443213
11
1.12272
21
0.575102
0
LINE
8
BLACK
6
CONTINUOUS
10
1.12272
20
0.575102
11
0.963276
21
0.575102
0
LINE
8
BLACK
6
CONTINUOUS
10
0.878564
20
0.454682
11
0.878276
21
0.455378
0
LINE
8
BLACK
6
CONTINUOUS
10
0.878276
20
0.455378
11
0.878276
21
0.571913
0
LINE
8
BLACK
6
CONTINUOUS
10
0.878276
20
0.571913
11
0.878564
21
0.572609
0
LINE
8
BLACK
6
CONTINUOUS
10
0.878564
20
0.572609
11
0.87926
21
0.572898
0
LINE
8
BLACK
6
CONTINUOUS
10
0.87926
20
0.572898
11
0.93674
21
0.572898
0
LINE
8
BLACK
6
CONTINUOUS
10
0.93674
20
0.572898
11
0.937436
21
0.572609
0
LINE
8
BLACK
6
CONTINUOUS
10
0.937436
20
0.572609
11
0.937724
21
0.571913
0
LINE
8
BLACK
6
CONTINUOUS
10
0.937724
20
0.571913
11
0.937724
21
0.455378
0
LINE
8
BLACK
6
CONTINUOUS
10
0.937724
20
0.455378
11
0.937436
21
0.454682
0
LINE
8
BLACK
6
CONTINUOUS
10
0.937436
20
0.454682
11
0.93674
21
0.454394
0
LINE
8
BLACK
6
CONTINUOUS
10
0.93674
20
0.454394
11
0.87926
21
0.454394
0
LINE
8
BLACK
6
CONTINUOUS
10
0.87926
20
0.454394
11
0.878564
21
0.454682
0
LINE
8
BLACK
6
CONTINUOUS
10
0.880244
20
0.570929
11
0.880244
21
0.456362
0
LINE
8
BLACK
6
CONTINUOUS
10
0.880244
20
0.456362
11
0.935756
21
0.456362
0
LINE
8
BLACK
6
CONTINUOUS
10
0.935756
20
0.456362
11
0.935756
21
0.570929
0
LINE
8
BLACK
6
CONTINUOUS
10
0.935756
20
0.570929
11
0.880244
21
0.570929
0
LINE
8
BLACK
6
CONTINUOUS
10
-1.12874
20
0.56726
11
-1.12874
21
0.56726
0
LINE
8
BLACK
6
CONTINUOUS
10
-1.12874
20
0.56726
11
-1.02312
21
0.51801
0
LINE
8
BLACK
6
CONTINUOUS
10
-1.02312
20
0.51801
11
-1.02261
21
0.517454
0
LINE
8
BLACK
6
CONTINUOUS
10
-1.02261
20
0.517454
11
-1.02265
21
0.516702
0
LINE
8
BLACK
6
CONTINUOUS
10
-1.02265
20
0.516702
11
-1.04694
21
0.464607
0
LINE
8
BLACK
6
CONTINUOUS
10
-1.04694
20
0.464607
11
-1.04749
21
0.464098
0
LINE
8
BLACK
6
CONTINUOUS
10
-1.04749
20
0.464098
11
-1.04825
21
0.464131
0
LINE
8
BLACK
6
CONTINUOUS
10
-1.04825
20
0.464131
11
-1.15386
21
0.513381
0
LINE
8
BLACK
6
CONTINUOUS
10
-1.15386
20
0.513381
11
-1.15437
21
0.513936
0
LINE
8
BLACK
6
CONTINUOUS
10
-1.15437
20
0.513936
11
-1.15434
21
0.514689
0
LINE
8
BLACK
6
CONTINUOUS
10
-1.15434
20
0.514689
11
-1.13005
21
0.566784
0
LINE
8
BLACK
6
CONTINUOUS
10
-1.13005
20
0.566784
11
-1.12949
21
0.567293
0
LINE
8
BLACK
6
CONTINUOUS
10
-1.12949
20
0.567293
11
-1.12874
21
0.56726
0
LINE
8
BLACK
6
CONTINUOUS
10
-1.15214
20
0.514749
11
-1.04831
21
0.466331
0
LINE
8
BLACK
6
CONTINUOUS
10
-1.04831
20
0.466331
11
-1.02485
21
0.516642
0
LINE
8
BLACK
6
CONTINUOUS
10
-1.02485
20
0.516642
11
-1.12868
21
0.56506
0
LINE
8
BLACK
6
CONTINUOUS
10
-1.12868
20
0.56506
11
-1.15214
21
0.514749
0
LINE
8
BLACK
6
CONTINUOUS
10
0.134923
20
0.599175
11
0.20983
21
0.509904
0
LINE
8
BLACK
6
CONTINUOUS
10
0.20983
20
0.509904
11
0.210057
21
0.509185
0
LINE
8
BLACK
6
CONTINUOUS
10
0.210057
20
0.509185
11
0.209709
21
0.508517
0
LINE
8
BLACK
6
CONTINUOUS
10
0.209709
20
0.508517
11
0.165676
21
0.47157
0
LINE
8
BLACK
6
CONTINUOUS
10
0.165676
20
0.47157
11
0.164958
21
0.471343
0
LINE
8
BLACK
6
CONTINUOUS
10
0.164958
20
0.471343
11
0.16429
21
0.471691
0
LINE
8
BLACK
6
CONTINUOUS
10
0.16429
20
0.471691
11
0.0893823
21
0.560962
0
LINE
8
BLACK
6
CONTINUOUS
10
0.0893823
20
0.560962
11
0.0891558
21
0.561681
0
LINE
8
BLACK
6
CONTINUOUS
10
0.0891558
20
0.561681
11
0.0895036
21
0.562349
0
LINE
8
BLACK
6
CONTINUOUS
10
0.0895036
20
0.562349
11
0.133536
21
0.599297
0
LINE
8
BLACK
6
CONTINUOUS
10
0.133536
20
0.599297
11
0.134255
21
0.599523
0
LINE
8
BLACK
6
CONTINUOUS
10
0.134255
20
0.599523
11
0.134923
21
0.599175
0
LINE
8
BLACK
6
CONTINUOUS
10
0.091523
20
0.561474
11
0.165165
21
0.47371
0
LINE
8
BLACK
6
CONTINUOUS
10
0.165165
20
0.47371
11
0.20769
21
0.509393
0
LINE
8
BLACK
6
CONTINUOUS
10
0.20769
20
0.509393
11
0.134047
21
0.597156
0
LINE
8
BLACK
6
CONTINUOUS
10
0.134047
20
0.597156
11
0.091523
21
0.561474
0
LINE
8
BLACK
6
CONTINUOUS
10
-0.0809973
20
0.472928
11
-0.130598
21
0.53204
0
LINE
8
BLACK
6
CONTINUOUS
10
-0.130598
20
0.53204
11
-0.130825
21
0.532759
0
LINE
8
BLACK
6
CONTINUOUS
10
-0.130825
20
0.532759
11
-0.130477
21
0.533427
0
LINE
8
BLACK
6
CONTINUOUS
10
-0.130477
20
0.533427
11
-0.0279355
21
0.619469
0
LINE
8
BLACK
6
CONTINUOUS
10
-0.0279355
20
0.619469
11
-0.027217
21
0.619696
0
LINE
8
BLACK
6
CONTINUOUS
10
-0.027217
20
0.619696
11
-0.0265489
21
0.619348
0
LINE
8
BLACK
6
CONTINUOUS
10
-0.0265489
20
0.619348
11
0.023052
21
0.560236
0
LINE
8
BLACK
6
CONTINUOUS
10
0.023052
20
0.560236
11
0.023052
21
0.560236
0
LINE
8
BLACK
6
CONTINUOUS
10
0.023052
20
0.560236
11
0.0232786
21
0.559517
0
LINE
8
BLACK
6
CONTINUOUS
10
0.0232786
20
0.559517
11
0.0229307
21
0.558849
0
LINE
8
BLACK
6
CONTINUOUS
10
0.0229307
20
0.558849
11
-0.0796106
21
0.472807
0
LINE
8
BLACK
6
CONTINUOUS
10
-0.0796106
20
0.472807
11
-0.0803291
21
0.47258
0
LINE
8
BLACK
6
CONTINUOUS
10
-0.0803291
20
0.47258
11
-0.0809973
21
0.472928
0
LINE
8
BLACK
6
CONTINUOUS
10
-0.0809973
20
0.472928
11
-0.0809973
21
0.472928
0
LINE
8
BLACK
6
CONTINUOUS
10
-0.128458
20
0.532551
11
-0.080122
21
0.474947
0
LINE
8
BLACK
6
CONTINUOUS
10
-0.080122
20
0.474947
11
0.0209115
21
0.559724
0
LINE
8
BLACK
6
CONTINUOUS
10
0.0209115
20
0.559724
11
-0.0274242
21
0.617329
0
LINE
8
BLACK
6
CONTINUOUS
10
-0.0274242
20
0.617329
11
-0.128458
21
0.532551
0
LINE
8
BLACK
6
CONTINUOUS
10
1.19515
20
0.606714
11
1.26475
21
0.537117
0
LINE
8
BLACK
6
CONTINUOUS
10
1.26475
20
0.537117
11
1.26503
21
0.536421
0
LINE
8
BLACK
6
CONTINUOUS
10
1.26503
20
0.536421
11
1.26475
21
0.535725
0
LINE
8
BLACK
6
CONTINUOUS
10
1.26475
20
0.535725
11
1.26475
21
0.535725
0
LINE
8
BLACK
6
CONTINUOUS
10
1.26475
20
0.535725
11
1.22577
21
0.496751
0
LINE
8
BLACK
6
CONTINUOUS
10
1.22577
20
0.496751
11
1.22508
21
0.496462
0
LINE
8
BLACK
6
CONTINUOUS
10
1.22508
20
0.496462
11
1.22438
21
0.496751
0
LINE
8
BLACK
6
CONTINUOUS
10
1.22438
20
0.496751
11
1.15478
21
0.566348
0
LINE
8
BLACK
6
CONTINUOUS
10
1.15478
20
0.566348
11
1.15449
21
0.567044
0
LINE
8
BLACK
6
CONTINUOUS
10
1.15449
20
0.567044
11
1.15478
21
0.56774
0
LINE
8
BLACK
6
CONTINUOUS
10
1.15478
20
0.56774
11
1.19376
21
0.606714
0
LINE
8
BLACK
6
CONTINUOUS
10
1.19376
20
0.606714
11
1.19376
21
0.606714
0
LINE
8
BLACK
6
CONTINUOUS
10
1.19376
20
0.606714
11
1.19445
21
0.607002
0
LINE
8
BLACK
6
CONTINUOUS
10
1.19445
20
0.607002
11
1.19515
21
0.606714
0
LINE
8
BLACK
6
CONTINUOUS
10
1.15687
20
0.567044
11
1.22508
21
0.498839
0
LINE
8
BLACK
6
CONTINUOUS
10
1.22508
20
0.498839
11
1.26266
21
0.536421
0
LINE
8
BLACK
6
CONTINUOUS
10
1.26266
20
0.536421
11
1.19445
21
0.604626
0
LINE
8
BLACK
6
CONTINUOUS
10
1.19445
20
0.604626
11
1.15687
21
0.567044
0
LINE
8
BLACK
6
CONTINUOUS
10
-1.09939
20
0.630357
11
-1.09939
21
0.630357
0
LINE
8
BLACK
6
CONTINUOUS
10
-1.09939
20
0.630357
11
-0.993775
21
0.581107
0
LINE
8
BLACK
6
CONTINUOUS
10
-0.993775
20
0.581107
11
-0.993266
21
0.580552
0
LINE
8
BLACK
6
CONTINUOUS
10
-0.993266
20
0.580552
11
-0.993299
21
0.579799
0
LINE
8
BLACK
6
CONTINUOUS
10
-0.993299
20
0.579799
11
-1.01759
21
0.527705
0
LINE
8
BLACK
6
CONTINUOUS
10
-1.01759
20
0.527705
11
-1.01815
21
0.527196
0
LINE
8
BLACK
6
CONTINUOUS
10
-1.01815
20
0.527196
11
-1.0189
21
0.527228
0
LINE
8
BLACK
6
CONTINUOUS
10
-1.0189
20
0.527228
11
-1.12452
21
0.576478
0
LINE
8
BLACK
6
CONTINUOUS
10
-1.12452
20
0.576478
11
-1.12503
21
0.577034
0
LINE
8
BLACK
6
CONTINUOUS
10
-1.12503
20
0.577034
11
-1.12499
21
0.577786
0
LINE
8
BLACK
6
CONTINUOUS
10
-1.12499
20
0.577786
11
-1.1007
21
0.629881
0
LINE
8
BLACK
6
CONTINUOUS
10
-1.1007
20
0.629881
11
-1.10014
21
0.63039
0
LINE
8
BLACK
6
CONTINUOUS
10
-1.10014
20
0.63039
11
-1.09939
21
0.630357
0
LINE
8
BLACK
6
CONTINUOUS
10
-1.12279
20
0.577847
11
-1.01896
21
0.529429
0
LINE
8
BLACK
6
CONTINUOUS
10
-1.01896
20
0.529429
11
-0.995499
21
0.579739
0
LINE
8
BLACK
6
CONTINUOUS
10
-0.995499
20
0.579739
11
-1.09933
21
0.628157
0
LINE
8
BLACK
6
CONTINUOUS
10
-1.09933
20
0.628157
11
-1.12279
21
0.577847
0
LINE
8
BLACK
6
CONTINUOUS
10
0.7358
20
0.567296
11
0.735512
21
0.567992
0
LINE
8
BLACK
6
CONTINUOUS
10
0.735512
20
0.567992
11
0.735512
21
0.625472
0
LINE
8
BLACK
6
CONTINUOUS
10
0.735512
20
0.625472
11
0.7358
21
0.626168
0
LINE
8
BLACK
6
CONTINUOUS
10
0.7358
20
0.626168
11
0.736496
21
0.626457
0
LINE
8
BLACK
6
CONTINUOUS
10
0.736496
20
0.626457
11
0.853031
21
0.626457
0
LINE
8
BLACK
6
CONTINUOUS
10
0.853031
20
0.626457
11
0.853727
21
0.626168
0
LINE
8
BLACK
6
CONTINUOUS
10
0.853727
20
0.626168
11
0.854016
21
0.625472
0
LINE
8
BLACK
6
CONTINUOUS
10
0.854016
20
0.625472
11
0.854016
21
0.567992
0
LINE
8
BLACK
6
CONTINUOUS
10
0.854016
20
0.567992
11
0.853727
21
0.567296
0
LINE
8
BLACK
6
CONTINUOUS
10
0.853727
20
0.567296
11
0.853031
21
0.567008
0
LINE
8
BLACK
6
CONTINUOUS
10
0.853031
20
0.567008
11
0.736496
21
0.567008
0
LINE
8
BLACK
6
CONTINUOUS
10
0.736496
20
0.567008
11
0.7358
21
0.567296
0
LINE
8
BLACK
6
CONTINUOUS
10
0.73748
20
0.624488
11
0.73748
21
0.568976
0
LINE
8
BLACK
6
CONTINUOUS
10
0.73748
20
0.568976
11
0.852047
21
0.568976
0
LINE
8
BLACK
6
CONTINUOUS
10
0.852047
20
0.568976
11
0.852047
21
0.624488
0
LINE
8
BLACK
6
CONTINUOUS
10
0.852047
20
0.624488
11
0.73748
21
0.624488
0
LINE
8
BLACK
6
CONTINUOUS
10
1.18634
20
0.703952
11
1.22698
21
0.663307
0
LINE
8
BLACK
6
CONTINUOUS
10
1.22698
20
0.663307
11
1.22727
21
0.662611
0
LINE
8
BLACK
6
CONTINUOUS
10
1.22727
20
0.662611
11
1.22698
21
0.661915
0
LINE
8
BLACK
6
CONTINUOUS
10
1.22698
20
0.661915
11
1.14458
21
0.579512
0
LINE
8
BLACK
6
CONTINUOUS
10
1.14458
20
0.579512
11
1.14388
21
0.579224
0
LINE
8
BLACK
6
CONTINUOUS
10
1.14388
20
0.579224
11
1.14319
21
0.579512
0
LINE
8
BLACK
6
CONTINUOUS
10
1.14319
20
0.579512
11
1.10254
21
0.620157
0
LINE
8
BLACK
6
CONTINUOUS
10
1.10254
20
0.620157
11
1.10226
21
0.620853
0
LINE
8
BLACK
6
CONTINUOUS
10
1.10226
20
0.620853
11
1.10254
21
0.621549
0
LINE
8
BLACK
6
CONTINUOUS
10
1.10254
20
0.621549
11
1.18495
21
0.703952
0
LINE
8
BLACK
6
CONTINUOUS
10
1.18495
20
0.703952
11
1.18564
21
0.70424
0
LINE
8
BLACK
6
CONTINUOUS
10
1.18564
20
0.70424
11
1.18634
21
0.703952
0
LINE
8
BLACK
6
CONTINUOUS
10
1.10463
20
0.620853
11
1.14388
21
0.5816
0
LINE
8
BLACK
6
CONTINUOUS
10
1.14388
20
0.5816
11
1.2249
21
0.662611
0
LINE
8
BLACK
6
CONTINUOUS
10
1.2249
20
0.662611
11
1.18564
21
0.701864
0
LINE
8
BLACK
6
CONTINUOUS
10
1.18564
20
0.701864
11
1.10463
21
0.620853
0
LINE
8
BLACK
6
CONTINUOUS
10
-0.812035
20
0.581784
11
-0.812323
21
0.58248
0
LINE
8
BLACK
6
CONTINUOUS
10
-0.812323
20
0.58248
11
-0.812323
21
0.699016
0
LINE
8
BLACK
6
CONTINUOUS
10
-0.812323
20
0.699016
11
-0.812035
21
0.699712
0
LINE
8
BLACK
6
CONTINUOUS
10
-0.812035
20
0.699712
11
-0.811339
21
0.7
0
LINE
8
BLACK
6
CONTINUOUS
10
-0.811339
20
0.7
11
-0.753858
21
0.7
0
LINE
8
BLACK
6
CONTINUOUS
10
-0.753858
20
0.7
11
-0.753162
21
0.699712
0
LINE
8
BLACK
6
CONTINUOUS
10
-0.753162
20
0.699712
11
-0.752874
21
0.699016
0
LINE
8
BLACK
6
CONTINUOUS
10
-0.752874
20
0.699016
11
-0.752874
21
0.58248
0
LINE
8
BLACK
6
CONTINUOUS
10
-0.752874
20
0.58248
11
-0.753162
21
0.581784
0
LINE
8
BLACK
6
CONTINUOUS
10
-0.753162
20
0.581784
11
-0.753858
21
0.581496
0
LINE
8
BLACK
6
CONTINUOUS
10
-0.753858
20
0.581496
11
-0.811339
21
0.581496
0
LINE
8
BLACK
6
CONTINUOUS
10
-0.811339
20
0.581496
11
-0.812035
21
0.581784
0
LINE
8
BLACK
6
CONTINUOUS
10
-0.810354
20
0.698031
11
-0.810354
21
0.583465
0
LINE
8
BLACK
6
CONTINUOUS
10
-0.810354
20
0.583465
11
-0.754843
21
0.583465
0
LINE
8
BLACK
6
CONTINUOUS
10
-0.754843
20
0.583465
11
-0.754843
21
0.698031
0
LINE
8
BLACK
6
CONTINUOUS
10
-0.754843
20
0.698031
11
-0.810354
21
0.698031
0
LINE
8
BLACK
6
CONTINUOUS
10
-0.742035
20
0.581784
11
-0.742323
21
0.58248
0
LINE
8
BLACK
6
CONTINUOUS
10
-0.742323
20
0.58248
11
-0.742323
21
0.699016
0
LINE
8
BLACK
6
CONTINUOUS
10
-0.742323
20
0.699016
11
-0.742035
21
0.699712
0
LINE
8
BLACK
6
CONTINUOUS
10
-0.742035
20
0.699712
11
-0.741339
21
0.7
0
LINE
8
BLACK
6
CONTINUOUS
10
-0.741339
20
0.7
11
-0.683858
21
0.7
0
LINE
8
BLACK
6
CONTINUOUS
10
-0.683858
20
0.7
11
-0.683162
21
0.699712
0
LINE
8
BLACK
6
CONTINUOUS
10
-0.683162
20
0.699712
11
-0.682874
21
0.699016
0
LINE
8
BLACK
6
CONTINUOUS
10
-0.682874
20
0.699016
11
-0.682874
21
0.58248
0
LINE
8
BLACK
6
CONTINUOUS
10
-0.682874
20
0.58248
11
-0.683162
21
0.581784
0
LINE
8
BLACK
6
CONTINUOUS
10
-0.683162
20
0.581784
11
-0.683858
21
0.581496
0
LINE
8
BLACK
6
CONTINUOUS
10
-0.683858
20
0.581496
11
-0.741339
21
0.581496
0
LINE
8
BLACK
6
CONTINUOUS
10
-0.741339
20
0.581496
11
-0.742035
21
0.581784
0
LINE
8
BLACK
6
CONTINUOUS
10
-0.740354
20
0.698031
11
-0.740354
21
0.583465
0
LINE
8
BLACK
6
CONTINUOUS
10
-0.740354
20
0.583465
11
-0.684843
21
0.583465
0
LINE
8
BLACK
6
CONTINUOUS
10
-0.684843
20
0.583465
11
-0.684843
21
0.698031
0
LINE
8
BLACK
6
CONTINUOUS
10
-0.684843
20
0.698031
11
-0.740354
21
0.698031
0
LINE
8
BLACK
6
CONTINUOUS
10
-0.0232484
20
0.702397
11
0.0136992
21
0.658364
0
LINE
8
BLACK
6
CONTINUOUS
10
0.0136992
20
0.658364
11
0.0139257
21
0.657646
0
LINE
8
BLACK
6
CONTINUOUS
10
0.0139257
20
0.657646
11
0.0135779
21
0.656978
0
LINE
8
BLACK
6
CONTINUOUS
10
0.0135779
20
0.656978
11
-0.0756934
21
0.58207
0
LINE
8
BLACK
6
CONTINUOUS
10
-0.0756934
20
0.58207
11
-0.0764119
21
0.581844
0
LINE
8
BLACK
6
CONTINUOUS
10
-0.0764119
20
0.581844
11
-0.0770801
21
0.582192
0
LINE
8
BLACK
6
CONTINUOUS
10
-0.0770801
20
0.582192
11
-0.114028
21
0.626224
0
LINE
8
BLACK
6
CONTINUOUS
10
-0.114028
20
0.626224
11
-0.114254
21
0.626943
0
LINE
8
BLACK
6
CONTINUOUS
10
-0.114254
20
0.626943
11
-0.113906
21
0.627611
0
LINE
8
BLACK
6
CONTINUOUS
10
-0.113906
20
0.627611
11
-0.0246351
21
0.702518
0
LINE
8
BLACK
6
CONTINUOUS
10
-0.0246351
20
0.702518
11
-0.0239166
21
0.702745
0
LINE
8
BLACK
6
CONTINUOUS
10
-0.0239166
20
0.702745
11
-0.0232484
21
0.702397
0
LINE
8
BLACK
6
CONTINUOUS
10
-0.111887
20
0.626735
11
-0.0762048
21
0.584211
0
LINE
8
BLACK
6
CONTINUOUS
10
-0.0762048
20
0.584211
11
0.0115586
21
0.657853
0
LINE
8
BLACK
6
CONTINUOUS
10
0.0115586
20
0.657853
11
-0.0241237
21
0.700378
0
LINE
8
BLACK
6
CONTINUOUS
10
-0.0241237
20
0.700378
11
-0.111887
21
0.626735
0
LINE
8
BLACK
6
CONTINUOUS
10
0.896556
20
0.604721
11
0.896268
21
0.605417
0
LINE
8
BLACK
6
CONTINUOUS
10
0.896268
20
0.605417
11
0.896268
21
0.662898
0
LINE
8
BLACK
6
CONTINUOUS
10
0.896268
20
0.662898
11
0.896556
21
0.663594
0
LINE
8
BLACK
6
CONTINUOUS
10
0.896556
20
0.663594
11
0.897252
21
0.663882
0
LINE
8
BLACK
6
CONTINUOUS
10
0.897252
20
0.663882
11
1.01379
21
0.663882
0
LINE
8
BLACK
6
CONTINUOUS
10
1.01379
20
0.663882
11
1.01448
21
0.663594
0
LINE
8
BLACK
6
CONTINUOUS
10
1.01448
20
0.663594
11
1.01477
21
0.662898
0
LINE
8
BLACK
6
CONTINUOUS
10
1.01477
20
0.662898
11
1.01477
21
0.605417
0
LINE
8
BLACK
6
CONTINUOUS
10
1.01477
20
0.605417
11
1.01448
21
0.604721
0
LINE
8
BLACK
6
CONTINUOUS
10
1.01448
20
0.604721
11
1.01379
21
0.604433
0
LINE
8
BLACK
6
CONTINUOUS
10
1.01379
20
0.604433
11
0.897252
21
0.604433
0
LINE
8
BLACK
6
CONTINUOUS
10
0.897252
20
0.604433
11
0.896556
21
0.604721
0
LINE
8
BLACK
6
CONTINUOUS
10
0.898236
20
0.661913
11
0.898236
21
0.606402
0
LINE
8
BLACK
6
CONTINUOUS
10
0.898236
20
0.606402
11
1.0128
21
0.606402
0
LINE
8
BLACK
6
CONTINUOUS
10
1.0128
20
0.606402
11
1.0128
21
0.661913
0
LINE
8
BLACK
6
CONTINUOUS
10
1.0128
20
0.661913
11
0.898236
21
0.661913
0
LINE
8
BLACK
6
CONTINUOUS
10
-0.96546
20
0.616233
11
-0.965748
21
0.616929
0
LINE
8
BLACK
6
CONTINUOUS
10
-0.965748
20
0.616929
11
-0.965748
21
0.674409
0
LINE
8
BLACK
6
CONTINUOUS
10
-0.965748
20
0.674409
11
-0.96546
21
0.675105
0
LINE
8
BLACK
6
CONTINUOUS
10
-0.96546
20
0.675105
11
-0.964764
21
0.675394
0
LINE
8
BLACK
6
CONTINUOUS
10
-0.964764
20
0.675394
11
-0.848228
21
0.675394
0
LINE
8
BLACK
6
CONTINUOUS
10
-0.848228
20
0.675394
11
-0.847532
21
0.675105
0
LINE
8
BLACK
6
CONTINUOUS
10
-0.847532
20
0.675105
11
-0.847244
21
0.674409
0
LINE
8
BLACK
6
CONTINUOUS
10
-0.847244
20
0.674409
11
-0.847244
21
0.616929
0
LINE
8
BLACK
6
CONTINUOUS
10
-0.847244
20
0.616929
11
-0.847532
21
0.616233
0
LINE
8
BLACK
6
CONTINUOUS
10
-0.847532
20
0.616233
11
-0.848228
21
0.615945
0
LINE
8
BLACK
6
CONTINUOUS
10
-0.848228
20
0.615945
11
-0.964764
21
0.615945
0
LINE
8
BLACK
6
CONTINUOUS
10
-0.964764
20
0.615945
11
-0.96546
21
0.616233
0
LINE
8
BLACK
6
CONTINUOUS
10
-0.96378
20
0.673425
11
-0.96378
21
0.617913
0
LINE
8
BLACK
6
CONTINUOUS
10
-0.96378
20
0.617913
11
-0.849213
21
0.617913
0
LINE
8
BLACK
6
CONTINUOUS
10
-0.849213
20
0.617913
11
-0.849213
21
0.673425
0
LINE
8
BLACK
6
CONTINUOUS
10
-0.849213
20
0.673425
11
-0.96378
21
0.673425
0
LINE
8
BLACK
6
CONTINUOUS
10
-0.880464
20
0.995824
11
-0.771892
21
0.887253
0
LINE
8
BLACK
6
CONTINUOUS
10
-0.771892
20
0.887253
11
-0.771892
21
0.887253
0
LINE
8
BLACK
6
CONTINUOUS
10
-0.771892
20
0.887253
11
-0.771604
21
0.886557
0
LINE
8
BLACK
6
CONTINUOUS
10
-0.771604
20
0.886557
11
-0.771892
21
0.885861
0
LINE
8
BLACK
6
CONTINUOUS
10
-0.771892
20
0.885861
11
-0.936141
21
0.721612
0
LINE
8
BLACK
6
CONTINUOUS
10
-0.936141
20
0.721612
11
-0.936837
21
0.721324
0
LINE
8
BLACK
6
CONTINUOUS
10
-0.936837
20
0.721324
11
-0.937533
21
0.721612
0
LINE
8
BLACK
6
CONTINUOUS
10
-0.937533
20
0.721612
11
-0.937533
21
0.721612
0
LINE
8
BLACK
6
CONTINUOUS
10
-0.937533
20
0.721612
11
-1.0461
21
0.830183
0
LINE
8
BLACK
6
CONTINUOUS
10
-1.0461
20
0.830183
11
-1.04639
21
0.830879
0
LINE
8
BLACK
6
CONTINUOUS
10
-1.04639
20
0.830879
11
-1.0461
21
0.831575
0
LINE
8
BLACK
6
CONTINUOUS
10
-1.0461
20
0.831575
11
-0.881856
21
0.995824
0
LINE
8
BLACK
6
CONTINUOUS
10
-0.881856
20
0.995824
11
-0.88116
21
0.996113
0
LINE
8
BLACK
6
CONTINUOUS
10
-0.88116
20
0.996113
11
-0.880464
21
0.995824
0
LINE
8
BLACK
6
CONTINUOUS
10
-1.04402
20
0.830879
11
-0.936837
21
0.7237
0
LINE
8
BLACK
6
CONTINUOUS
10
-0.936837
20
0.7237
11
-0.77398
21
0.886557
0
LINE
8
BLACK
6
CONTINUOUS
10
-0.77398
20
0.886557
11
-0.88116
21
0.993737
0
LINE
8
BLACK
6
CONTINUOUS
10
-0.88116
20
0.993737
11
-1.04402
21
0.830879
0
LINE
8
BLACK
6
CONTINUOUS
10
-0.967965
20
1.06769
11
-0.906719
21
1.00644
0
LINE
8
BLACK
6
CONTINUOUS
10
-0.906719
20
1.00644
11
-0.906719
21
1.00644
0
LINE
8
BLACK
6
CONTINUOUS
10
-0.906719
20
1.00644
11
-0.906719
21
1.00644
0
LINE
8
BLACK
6
CONTINUOUS
10
-0.906719
20
1.00644
11
-0.906431
21
1.00575
0
LINE
8
BLACK
6
CONTINUOUS
10
-0.906431
20
1.00575
11
-0.906719
21
1.00505
0
LINE
8
BLACK
6
CONTINUOUS
10
-0.906719
20
1.00505
11
-1.05427
21
0.857507
0
LINE
8
BLACK
6
CONTINUOUS
10
-1.05427
20
0.857507
11
-1.05496
21
0.857218
0
LINE
8
BLACK
6
CONTINUOUS
10
-1.05496
20
0.857218
11
-1.05545
21
0.857422
0
LINE
8
BLACK
6
CONTINUOUS
10
-1.05545
20
0.857422
11
-1.05566
21
0.857507
0
LINE
8
BLACK
6
CONTINUOUS
10
-1.05566
20
0.857507
11
-1.05566
21
0.857507
0
LINE
8
BLACK
6
CONTINUOUS
10
-1.05566
20
0.857507
11
-1.1169
21
0.918752
0
LINE
8
BLACK
6
CONTINUOUS
10
-1.1169
20
0.918752
11
-1.11719
21
0.919448
0
LINE
8
BLACK
6
CONTINUOUS
10
-1.11719
20
0.919448
11
-1.1169
21
0.920144
0
LINE
8
BLACK
6
CONTINUOUS
10
-1.1169
20
0.920144
11
-0.969357
21
1.06769
0
LINE
8
BLACK
6
CONTINUOUS
10
-0.969357
20
1.06769
11
-0.968661
21
1.06798
0
LINE
8
BLACK
6
CONTINUOUS
10
-0.968661
20
1.06798
11
-0.967965
21
1.06769
0
LINE
8
BLACK
6
CONTINUOUS
10
-1.11481
20
0.919448
11
-1.05496
21
0.859595
0
LINE
8
BLACK
6
CONTINUOUS
10
-1.05496
20
0.859595
11
-0.908807
21
1.00575
0
LINE
8
BLACK
6
CONTINUOUS
10
-0.908807
20
1.00575
11
-0.968661
21
1.0656
0
LINE
8
BLACK
6
CONTINUOUS
10
-0.968661
20
1.0656
11
-1.11481
21
0.919448
  0
ENDSEC
  0
EOF
