  0
SECTION
  2
HEADER
  9
$ANGBASE
  50
0.0
  9
$ANGDIR
  70
1
  9
$MEASUREMENT
  70
0
  0
ENDSEC
  0
SECTION
  2
TABLES
  0
TABLE
  2
LTYPE
  70
4
  0
LTYPE
  5
40F
  2
CONTINUOUS
  70
0
  3
Solid line
  72
65
  73
0
  40
0.0
  0
LTYPE
  5
410
  2
DASHDOT
 70
0
  3
Dash Dot ____ _ ____ _
 72
65
 73
4
 40
2.0
 49
1.25
 49
-0.25
 49
0.25
 49
-0.25
  0
LTYPE
  5
411
  2
DASHED
 70
0
  3
Dashed __ __ __ __ __
 72
65
 73
2
 40
0.75
 49
0.5
 49
-0.25
  0
LTYPE
  5
43B
  2
DOTTED
 70
0
  3
Dotted .  .  .  .
 72
65
 73
2
 40
0.2
 49
0.0
 49
-0.2
  0
ENDTAB
  0
TABLE
  2
STYLE
  70
4
  0
STYLE
  2
KICAD
  70
0
  40
0
  41
1
  42
1
  50
0
  71
0
  3
isocp.shx
  0
STYLE
  2
KICADB
  70
0
  40
0
  41
1
  42
1
  50
0
  71
0
  3
isocp.shx
  0
STYLE
  2
KICADI
  70
0
  40
0
  41
1
  42
1
  50
15
  71
0
  3
isocp.shx
  0
STYLE
  2
KICADBI
  70
0
  40
0
  41
1
  42
1
  50
15
  71
0
  3
isocp.shx
  0
ENDTAB
  0
TABLE
  2
LAYER
  70
1
  0
LAYER
  2
BLACK
  70
0
  62
7
  6
CONTINUOUS
  0
ENDTAB
  0
ENDSEC
  0
SECTION
  2
ENTITIES
0
LINE
8
BLACK
6
CONTINUOUS
10
1.2372
20
-0.430235
11
1.23853
21
-0.430507
0
LINE
8
BLACK
6
CONTINUOUS
10
1.23853
20
-0.430507
11
1.24341
21
-0.432944
0
LINE
8
BLACK
6
CONTINUOUS
10
1.24341
20
-0.432944
11
1.24412
21
-0.433575
0
LINE
8
BLACK
6
CONTINUOUS
10
1.24412
20
-0.433575
11
1.24494
21
-0.434051
0
LINE
8
BLACK
6
CONTINUOUS
10
1.24494
20
-0.434051
11
1.24738
21
-0.436488
0
LINE
8
BLACK
6
CONTINUOUS
10
1.24738
20
-0.436488
11
1.24786
21
-0.437311
0
LINE
8
BLACK
6
CONTINUOUS
10
1.24786
20
-0.437311
11
1.24849
21
-0.438023
0
LINE
8
BLACK
6
CONTINUOUS
10
1.24849
20
-0.438023
11
1.25092
21
-0.442897
0
LINE
8
BLACK
6
CONTINUOUS
10
1.25092
20
-0.442897
11
1.2512
21
-0.444226
0
LINE
8
BLACK
6
CONTINUOUS
10
1.2512
20
-0.444226
11
1.25155
21
-0.445538
0
LINE
8
BLACK
6
CONTINUOUS
10
1.25155
20
-0.445538
11
1.25155
21
-0.455287
0
LINE
8
BLACK
6
CONTINUOUS
10
1.25155
20
-0.455287
11
1.2512
21
-0.456598
0
LINE
8
BLACK
6
CONTINUOUS
10
1.2512
20
-0.456598
11
1.25092
21
-0.457928
0
LINE
8
BLACK
6
CONTINUOUS
10
1.25092
20
-0.457928
11
1.24849
21
-0.462802
0
LINE
8
BLACK
6
CONTINUOUS
10
1.24849
20
-0.462802
11
1.24786
21
-0.463514
0
LINE
8
BLACK
6
CONTINUOUS
10
1.24786
20
-0.463514
11
1.24738
21
-0.464337
0
LINE
8
BLACK
6
CONTINUOUS
10
1.24738
20
-0.464337
11
1.24494
21
-0.466774
0
LINE
8
BLACK
6
CONTINUOUS
10
1.24494
20
-0.466774
11
1.24412
21
-0.46725
0
LINE
8
BLACK
6
CONTINUOUS
10
1.24412
20
-0.46725
11
1.24341
21
-0.46788
0
LINE
8
BLACK
6
CONTINUOUS
10
1.24341
20
-0.46788
11
1.23853
21
-0.470318
0
LINE
8
BLACK
6
CONTINUOUS
10
1.23853
20
-0.470318
11
1.2372
21
-0.47059
0
LINE
8
BLACK
6
CONTINUOUS
10
1.2372
20
-0.47059
11
1.23589
21
-0.470941
0
LINE
8
BLACK
6
CONTINUOUS
10
1.23589
20
-0.470941
11
1.19446
21
-0.470941
0
LINE
8
BLACK
6
CONTINUOUS
10
1.19446
20
-0.470941
11
1.19151
21
-0.47015
0
LINE
8
BLACK
6
CONTINUOUS
10
1.19151
20
-0.47015
11
1.18935
21
-0.467988
0
LINE
8
BLACK
6
CONTINUOUS
10
1.18935
20
-0.467988
11
1.18856
21
-0.465036
0
LINE
8
BLACK
6
CONTINUOUS
10
1.18856
20
-0.465036
11
1.18935
21
-0.462083
0
LINE
8
BLACK
6
CONTINUOUS
10
1.18935
20
-0.462083
11
1.19151
21
-0.459921
0
LINE
8
BLACK
6
CONTINUOUS
10
1.19151
20
-0.459921
11
1.19446
21
-0.45913
0
LINE
8
BLACK
6
CONTINUOUS
10
1.19446
20
-0.45913
11
1.2345
21
-0.45913
0
LINE
8
BLACK
6
CONTINUOUS
10
1.2345
20
-0.45913
11
1.23727
21
-0.457745
0
LINE
8
BLACK
6
CONTINUOUS
10
1.23727
20
-0.457745
11
1.23835
21
-0.456663
0
LINE
8
BLACK
6
CONTINUOUS
10
1.23835
20
-0.456663
11
1.23974
21
-0.453893
0
LINE
8
BLACK
6
CONTINUOUS
10
1.23974
20
-0.453893
11
1.23974
21
-0.446932
0
LINE
8
BLACK
6
CONTINUOUS
10
1.23974
20
-0.446932
11
1.23835
21
-0.444162
0
LINE
8
BLACK
6
CONTINUOUS
10
1.23835
20
-0.444162
11
1.23727
21
-0.44308
0
LINE
8
BLACK
6
CONTINUOUS
10
1.23727
20
-0.44308
11
1.2345
21
-0.441695
0
LINE
8
BLACK
6
CONTINUOUS
10
1.2345
20
-0.441695
11
1.19446
21
-0.441695
0
LINE
8
BLACK
6
CONTINUOUS
10
1.19446
20
-0.441695
11
1.19151
21
-0.440904
0
LINE
8
BLACK
6
CONTINUOUS
10
1.19151
20
-0.440904
11
1.18935
21
-0.438742
0
LINE
8
BLACK
6
CONTINUOUS
10
1.18935
20
-0.438742
11
1.18856
21
-0.435789
0
LINE
8
BLACK
6
CONTINUOUS
10
1.18856
20
-0.435789
11
1.18935
21
-0.432836
0
LINE
8
BLACK
6
CONTINUOUS
10
1.18935
20
-0.432836
11
1.19151
21
-0.430675
0
LINE
8
BLACK
6
CONTINUOUS
10
1.19151
20
-0.430675
11
1.19446
21
-0.429884
0
LINE
8
BLACK
6
CONTINUOUS
10
1.19446
20
-0.429884
11
1.23589
21
-0.429884
0
LINE
8
BLACK
6
CONTINUOUS
10
1.23589
20
-0.429884
11
1.2372
21
-0.430235
0
LINE
8
BLACK
6
CONTINUOUS
10
1.2372
20
-0.379054
11
1.23853
21
-0.379326
0
LINE
8
BLACK
6
CONTINUOUS
10
1.23853
20
-0.379326
11
1.24341
21
-0.381763
0
LINE
8
BLACK
6
CONTINUOUS
10
1.24341
20
-0.381763
11
1.24412
21
-0.382394
0
LINE
8
BLACK
6
CONTINUOUS
10
1.24412
20
-0.382394
11
1.24494
21
-0.382869
0
LINE
8
BLACK
6
CONTINUOUS
10
1.24494
20
-0.382869
11
1.24738
21
-0.385307
0
LINE
8
BLACK
6
CONTINUOUS
10
1.24738
20
-0.385307
11
1.24786
21
-0.38613
0
LINE
8
BLACK
6
CONTINUOUS
10
1.24786
20
-0.38613
11
1.24849
21
-0.386841
0
LINE
8
BLACK
6
CONTINUOUS
10
1.24849
20
-0.386841
11
1.25092
21
-0.391716
0
LINE
8
BLACK
6
CONTINUOUS
10
1.25092
20
-0.391716
11
1.2512
21
-0.393046
0
LINE
8
BLACK
6
CONTINUOUS
10
1.2512
20
-0.393046
11
1.25155
21
-0.394357
0
LINE
8
BLACK
6
CONTINUOUS
10
1.25155
20
-0.394357
11
1.25155
21
-0.406543
0
LINE
8
BLACK
6
CONTINUOUS
10
1.25155
20
-0.406543
11
1.2513
21
-0.407461
0
LINE
8
BLACK
6
CONTINUOUS
10
1.2513
20
-0.407461
11
1.25124
21
-0.40841
0
LINE
8
BLACK
6
CONTINUOUS
10
1.25124
20
-0.40841
11
1.24881
21
-0.415722
0
LINE
8
BLACK
6
CONTINUOUS
10
1.24881
20
-0.415722
11
1.24712
21
-0.418273
0
LINE
8
BLACK
6
CONTINUOUS
10
1.24712
20
-0.418273
11
1.24439
21
-0.41964
0
LINE
8
BLACK
6
CONTINUOUS
10
1.24439
20
-0.41964
11
1.24134
21
-0.419457
0
LINE
8
BLACK
6
CONTINUOUS
10
1.24134
20
-0.419457
11
1.23879
21
-0.417773
0
LINE
8
BLACK
6
CONTINUOUS
10
1.23879
20
-0.417773
11
1.23742
21
-0.415038
0
LINE
8
BLACK
6
CONTINUOUS
10
1.23742
20
-0.415038
11
1.2376
21
-0.411987
0
LINE
8
BLACK
6
CONTINUOUS
10
1.2376
20
-0.411987
11
1.23974
21
-0.405584
0
LINE
8
BLACK
6
CONTINUOUS
10
1.23974
20
-0.405584
11
1.23974
21
-0.395751
0
LINE
8
BLACK
6
CONTINUOUS
10
1.23974
20
-0.395751
11
1.23835
21
-0.392981
0
LINE
8
BLACK
6
CONTINUOUS
10
1.23835
20
-0.392981
11
1.23727
21
-0.391899
0
LINE
8
BLACK
6
CONTINUOUS
10
1.23727
20
-0.391899
11
1.2345
21
-0.390514
0
LINE
8
BLACK
6
CONTINUOUS
10
1.2345
20
-0.390514
11
1.23241
21
-0.390514
0
LINE
8
BLACK
6
CONTINUOUS
10
1.23241
20
-0.390514
11
1.22964
21
-0.391899
0
LINE
8
BLACK
6
CONTINUOUS
10
1.22964
20
-0.391899
11
1.22856
21
-0.392981
0
LINE
8
BLACK
6
CONTINUOUS
10
1.22856
20
-0.392981
11
1.22684
21
-0.396418
0
LINE
8
BLACK
6
CONTINUOUS
10
1.22684
20
-0.396418
11
1.22456
21
-0.405538
0
LINE
8
BLACK
6
CONTINUOUS
10
1.22456
20
-0.405538
11
1.22425
21
-0.406108
0
LINE
8
BLACK
6
CONTINUOUS
10
1.22425
20
-0.406108
11
1.22411
21
-0.406747
0
LINE
8
BLACK
6
CONTINUOUS
10
1.22411
20
-0.406747
11
1.22168
21
-0.411621
0
LINE
8
BLACK
6
CONTINUOUS
10
1.22168
20
-0.411621
11
1.22105
21
-0.412332
0
LINE
8
BLACK
6
CONTINUOUS
10
1.22105
20
-0.412332
11
1.22057
21
-0.413156
0
LINE
8
BLACK
6
CONTINUOUS
10
1.22057
20
-0.413156
11
1.21813
21
-0.415593
0
LINE
8
BLACK
6
CONTINUOUS
10
1.21813
20
-0.415593
11
1.21731
21
-0.416069
0
LINE
8
BLACK
6
CONTINUOUS
10
1.21731
20
-0.416069
11
1.2166
21
-0.416699
0
LINE
8
BLACK
6
CONTINUOUS
10
1.2166
20
-0.416699
11
1.21172
21
-0.419136
0
LINE
8
BLACK
6
CONTINUOUS
10
1.21172
20
-0.419136
11
1.2104
21
-0.419409
0
LINE
8
BLACK
6
CONTINUOUS
10
1.2104
20
-0.419409
11
1.20908
21
-0.41976
0
LINE
8
BLACK
6
CONTINUOUS
10
1.20908
20
-0.41976
11
1.20421
21
-0.41976
0
LINE
8
BLACK
6
CONTINUOUS
10
1.20421
20
-0.41976
11
1.2029
21
-0.419409
0
LINE
8
BLACK
6
CONTINUOUS
10
1.2029
20
-0.419409
11
1.20157
21
-0.419136
0
LINE
8
BLACK
6
CONTINUOUS
10
1.20157
20
-0.419136
11
1.19669
21
-0.416699
0
LINE
8
BLACK
6
CONTINUOUS
10
1.19669
20
-0.416699
11
1.19598
21
-0.416068
0
LINE
8
BLACK
6
CONTINUOUS
10
1.19598
20
-0.416068
11
1.19516
21
-0.415593
0
LINE
8
BLACK
6
CONTINUOUS
10
1.19516
20
-0.415593
11
1.19272
21
-0.413156
0
LINE
8
BLACK
6
CONTINUOUS
10
1.19272
20
-0.413156
11
1.19225
21
-0.412332
0
LINE
8
BLACK
6
CONTINUOUS
10
1.19225
20
-0.412332
11
1.19162
21
-0.411621
0
LINE
8
BLACK
6
CONTINUOUS
10
1.19162
20
-0.411621
11
1.18918
21
-0.406747
0
LINE
8
BLACK
6
CONTINUOUS
10
1.18918
20
-0.406747
11
1.18891
21
-0.405417
0
LINE
8
BLACK
6
CONTINUOUS
10
1.18891
20
-0.405417
11
1.18856
21
-0.404106
0
LINE
8
BLACK
6
CONTINUOUS
10
1.18856
20
-0.404106
11
1.18856
21
-0.39192
0
LINE
8
BLACK
6
CONTINUOUS
10
1.18856
20
-0.39192
11
1.1888
21
-0.391001
0
LINE
8
BLACK
6
CONTINUOUS
10
1.1888
20
-0.391001
11
1.18886
21
-0.390052
0
LINE
8
BLACK
6
CONTINUOUS
10
1.18886
20
-0.390052
11
1.1913
21
-0.382741
0
LINE
8
BLACK
6
CONTINUOUS
10
1.1913
20
-0.382741
11
1.19298
21
-0.38019
0
LINE
8
BLACK
6
CONTINUOUS
10
1.19298
20
-0.38019
11
1.19571
21
-0.378822
0
LINE
8
BLACK
6
CONTINUOUS
10
1.19571
20
-0.378822
11
1.19877
21
-0.379006
0
LINE
8
BLACK
6
CONTINUOUS
10
1.19877
20
-0.379006
11
1.20132
21
-0.38069
0
LINE
8
BLACK
6
CONTINUOUS
10
1.20132
20
-0.38069
11
1.20268
21
-0.383424
0
LINE
8
BLACK
6
CONTINUOUS
10
1.20268
20
-0.383424
11
1.2025
21
-0.386476
0
LINE
8
BLACK
6
CONTINUOUS
10
1.2025
20
-0.386476
11
1.20037
21
-0.392878
0
LINE
8
BLACK
6
CONTINUOUS
10
1.20037
20
-0.392878
11
1.20037
21
-0.402712
0
LINE
8
BLACK
6
CONTINUOUS
10
1.20037
20
-0.402712
11
1.20175
21
-0.405482
0
LINE
8
BLACK
6
CONTINUOUS
10
1.20175
20
-0.405482
11
1.20283
21
-0.406564
0
LINE
8
BLACK
6
CONTINUOUS
10
1.20283
20
-0.406564
11
1.2056
21
-0.407949
0
LINE
8
BLACK
6
CONTINUOUS
10
1.2056
20
-0.407949
11
1.20769
21
-0.407949
0
LINE
8
BLACK
6
CONTINUOUS
10
1.20769
20
-0.407949
11
1.21046
21
-0.406564
0
LINE
8
BLACK
6
CONTINUOUS
10
1.21046
20
-0.406564
11
1.21154
21
-0.405482
0
LINE
8
BLACK
6
CONTINUOUS
10
1.21154
20
-0.405482
11
1.21326
21
-0.402044
0
LINE
8
BLACK
6
CONTINUOUS
10
1.21326
20
-0.402044
11
1.21554
21
-0.392925
0
LINE
8
BLACK
6
CONTINUOUS
10
1.21554
20
-0.392925
11
1.21586
21
-0.392355
0
LINE
8
BLACK
6
CONTINUOUS
10
1.21586
20
-0.392355
11
1.21599
21
-0.391716
0
LINE
8
BLACK
6
CONTINUOUS
10
1.21599
20
-0.391716
11
1.21843
21
-0.386842
0
LINE
8
BLACK
6
CONTINUOUS
10
1.21843
20
-0.386842
11
1.21906
21
-0.38613
0
LINE
8
BLACK
6
CONTINUOUS
10
1.21906
20
-0.38613
11
1.21953
21
-0.385307
0
LINE
8
BLACK
6
CONTINUOUS
10
1.21953
20
-0.385307
11
1.22197
21
-0.382869
0
LINE
8
BLACK
6
CONTINUOUS
10
1.22197
20
-0.382869
11
1.22279
21
-0.382394
0
LINE
8
BLACK
6
CONTINUOUS
10
1.22279
20
-0.382394
11
1.2235
21
-0.381763
0
LINE
8
BLACK
6
CONTINUOUS
10
1.2235
20
-0.381763
11
1.22838
21
-0.379326
0
LINE
8
BLACK
6
CONTINUOUS
10
1.22838
20
-0.379326
11
1.22971
21
-0.379054
0
LINE
8
BLACK
6
CONTINUOUS
10
1.22971
20
-0.379054
11
1.23102
21
-0.378703
0
LINE
8
BLACK
6
CONTINUOUS
10
1.23102
20
-0.378703
11
1.23589
21
-0.378703
0
LINE
8
BLACK
6
CONTINUOUS
10
1.23589
20
-0.378703
11
1.2372
21
-0.379054
0
LINE
8
BLACK
6
CONTINUOUS
10
1.19741
20
-0.296629
11
1.19958
21
-0.298791
0
LINE
8
BLACK
6
CONTINUOUS
10
1.19958
20
-0.298791
11
1.20037
21
-0.301744
0
LINE
8
BLACK
6
CONTINUOUS
10
1.20037
20
-0.301744
11
1.20037
21
-0.310461
0
LINE
8
BLACK
6
CONTINUOUS
10
1.20037
20
-0.310461
11
1.24564
21
-0.310461
0
LINE
8
BLACK
6
CONTINUOUS
10
1.24564
20
-0.310461
11
1.24859
21
-0.311252
0
LINE
8
BLACK
6
CONTINUOUS
10
1.24859
20
-0.311252
11
1.25076
21
-0.313414
0
LINE
8
BLACK
6
CONTINUOUS
10
1.25076
20
-0.313414
11
1.25155
21
-0.316367
0
LINE
8
BLACK
6
CONTINUOUS
10
1.25155
20
-0.316367
11
1.25076
21
-0.319319
0
LINE
8
BLACK
6
CONTINUOUS
10
1.25076
20
-0.319319
11
1.24859
21
-0.321481
0
LINE
8
BLACK
6
CONTINUOUS
10
1.24859
20
-0.321481
11
1.24564
21
-0.322272
0
LINE
8
BLACK
6
CONTINUOUS
10
1.24564
20
-0.322272
11
1.20037
21
-0.322272
0
LINE
8
BLACK
6
CONTINUOUS
10
1.20037
20
-0.322272
11
1.20037
21
-0.33099
0
LINE
8
BLACK
6
CONTINUOUS
10
1.20037
20
-0.33099
11
1.19958
21
-0.333943
0
LINE
8
BLACK
6
CONTINUOUS
10
1.19958
20
-0.333943
11
1.19765
21
-0.335864
0
LINE
8
BLACK
6
CONTINUOUS
10
1.19765
20
-0.335864
11
1.19958
21
-0.337786
0
LINE
8
BLACK
6
CONTINUOUS
10
1.19958
20
-0.337786
11
1.20037
21
-0.340739
0
LINE
8
BLACK
6
CONTINUOUS
10
1.20037
20
-0.340739
11
1.20037
21
-0.349456
0
LINE
8
BLACK
6
CONTINUOUS
10
1.20037
20
-0.349456
11
1.24564
21
-0.349456
0
LINE
8
BLACK
6
CONTINUOUS
10
1.24564
20
-0.349456
11
1.24859
21
-0.350247
0
LINE
8
BLACK
6
CONTINUOUS
10
1.24859
20
-0.350247
11
1.25076
21
-0.352409
0
LINE
8
BLACK
6
CONTINUOUS
10
1.25076
20
-0.352409
11
1.25155
21
-0.355362
0
LINE
8
BLACK
6
CONTINUOUS
10
1.25155
20
-0.355362
11
1.25076
21
-0.358315
0
LINE
8
BLACK
6
CONTINUOUS
10
1.25076
20
-0.358315
11
1.24859
21
-0.360476
0
LINE
8
BLACK
6
CONTINUOUS
10
1.24859
20
-0.360476
11
1.24564
21
-0.361267
0
LINE
8
BLACK
6
CONTINUOUS
10
1.24564
20
-0.361267
11
1.20037
21
-0.361267
0
LINE
8
BLACK
6
CONTINUOUS
10
1.20037
20
-0.361267
11
1.20037
21
-0.369985
0
LINE
8
BLACK
6
CONTINUOUS
10
1.20037
20
-0.369985
11
1.19958
21
-0.372938
0
LINE
8
BLACK
6
CONTINUOUS
10
1.19958
20
-0.372938
11
1.19741
21
-0.375099
0
LINE
8
BLACK
6
CONTINUOUS
10
1.19741
20
-0.375099
11
1.19446
21
-0.37589
0
LINE
8
BLACK
6
CONTINUOUS
10
1.19446
20
-0.37589
11
1.19151
21
-0.375099
0
LINE
8
BLACK
6
CONTINUOUS
10
1.19151
20
-0.375099
11
1.18935
21
-0.372938
0
LINE
8
BLACK
6
CONTINUOUS
10
1.18935
20
-0.372938
11
1.18856
21
-0.369985
0
LINE
8
BLACK
6
CONTINUOUS
10
1.18856
20
-0.369985
11
1.18856
21
-0.340739
0
LINE
8
BLACK
6
CONTINUOUS
10
1.18856
20
-0.340739
11
1.18935
21
-0.337786
0
LINE
8
BLACK
6
CONTINUOUS
10
1.18935
20
-0.337786
11
1.19127
21
-0.335864
0
LINE
8
BLACK
6
CONTINUOUS
10
1.19127
20
-0.335864
11
1.18935
21
-0.333943
0
LINE
8
BLACK
6
CONTINUOUS
10
1.18935
20
-0.333943
11
1.18856
21
-0.33099
0
LINE
8
BLACK
6
CONTINUOUS
10
1.18856
20
-0.33099
11
1.18856
21
-0.301744
0
LINE
8
BLACK
6
CONTINUOUS
10
1.18856
20
-0.301744
11
1.18935
21
-0.298791
0
LINE
8
BLACK
6
CONTINUOUS
10
1.18935
20
-0.298791
11
1.19151
21
-0.296629
0
LINE
8
BLACK
6
CONTINUOUS
10
1.19151
20
-0.296629
11
1.19446
21
-0.295838
0
LINE
8
BLACK
6
CONTINUOUS
10
1.19446
20
-0.295838
11
1.19741
21
-0.296629
0
LINE
8
BLACK
6
CONTINUOUS
10
1.24859
20
-0.250322
11
1.25076
21
-0.252484
0
LINE
8
BLACK
6
CONTINUOUS
10
1.25076
20
-0.252484
11
1.25155
21
-0.255437
0
LINE
8
BLACK
6
CONTINUOUS
10
1.25155
20
-0.255437
11
1.25076
21
-0.25839
0
LINE
8
BLACK
6
CONTINUOUS
10
1.25076
20
-0.25839
11
1.24859
21
-0.260551
0
LINE
8
BLACK
6
CONTINUOUS
10
1.24859
20
-0.260551
11
1.24564
21
-0.261342
0
LINE
8
BLACK
6
CONTINUOUS
10
1.24564
20
-0.261342
11
1.22474
21
-0.261342
0
LINE
8
BLACK
6
CONTINUOUS
10
1.22474
20
-0.261342
11
1.22474
21
-0.278778
0
LINE
8
BLACK
6
CONTINUOUS
10
1.22474
20
-0.278778
11
1.24564
21
-0.278778
0
LINE
8
BLACK
6
CONTINUOUS
10
1.24564
20
-0.278778
11
1.24859
21
-0.279569
0
LINE
8
BLACK
6
CONTINUOUS
10
1.24859
20
-0.279569
11
1.25076
21
-0.28173
0
LINE
8
BLACK
6
CONTINUOUS
10
1.25076
20
-0.28173
11
1.25155
21
-0.284683
0
LINE
8
BLACK
6
CONTINUOUS
10
1.25155
20
-0.284683
11
1.25076
21
-0.287636
0
LINE
8
BLACK
6
CONTINUOUS
10
1.25076
20
-0.287636
11
1.24859
21
-0.289797
0
LINE
8
BLACK
6
CONTINUOUS
10
1.24859
20
-0.289797
11
1.24564
21
-0.290589
0
LINE
8
BLACK
6
CONTINUOUS
10
1.24564
20
-0.290589
11
1.21883
21
-0.290589
0
LINE
8
BLACK
6
CONTINUOUS
10
1.21883
20
-0.290589
11
1.19446
21
-0.290589
0
LINE
8
BLACK
6
CONTINUOUS
10
1.19446
20
-0.290589
11
1.19151
21
-0.289797
0
LINE
8
BLACK
6
CONTINUOUS
10
1.19151
20
-0.289797
11
1.18935
21
-0.287636
0
LINE
8
BLACK
6
CONTINUOUS
10
1.18935
20
-0.287636
11
1.18856
21
-0.284683
0
LINE
8
BLACK
6
CONTINUOUS
10
1.18856
20
-0.284683
11
1.18935
21
-0.28173
0
LINE
8
BLACK
6
CONTINUOUS
10
1.18935
20
-0.28173
11
1.19151
21
-0.279569
0
LINE
8
BLACK
6
CONTINUOUS
10
1.19151
20
-0.279569
11
1.19446
21
-0.278778
0
LINE
8
BLACK
6
CONTINUOUS
10
1.19446
20
-0.278778
11
1.21293
21
-0.278778
0
LINE
8
BLACK
6
CONTINUOUS
10
1.21293
20
-0.278778
11
1.21293
21
-0.261342
0
LINE
8
BLACK
6
CONTINUOUS
10
1.21293
20
-0.261342
11
1.19446
21
-0.261342
0
LINE
8
BLACK
6
CONTINUOUS
10
1.19446
20
-0.261342
11
1.19151
21
-0.260551
0
LINE
8
BLACK
6
CONTINUOUS
10
1.19151
20
-0.260551
11
1.18935
21
-0.25839
0
LINE
8
BLACK
6
CONTINUOUS
10
1.18935
20
-0.25839
11
1.18856
21
-0.255437
0
LINE
8
BLACK
6
CONTINUOUS
10
1.18856
20
-0.255437
11
1.18935
21
-0.252484
0
LINE
8
BLACK
6
CONTINUOUS
10
1.18935
20
-0.252484
11
1.19151
21
-0.250322
0
LINE
8
BLACK
6
CONTINUOUS
10
1.19151
20
-0.250322
11
1.19446
21
-0.249531
0
LINE
8
BLACK
6
CONTINUOUS
10
1.19446
20
-0.249531
11
1.24564
21
-0.249531
0
LINE
8
BLACK
6
CONTINUOUS
10
1.24564
20
-0.249531
11
1.24859
21
-0.250322
0
LINE
8
BLACK
6
CONTINUOUS
10
1.2372
20
-0.196264
11
1.23853
21
-0.196536
0
LINE
8
BLACK
6
CONTINUOUS
10
1.23853
20
-0.196536
11
1.24341
21
-0.198974
0
LINE
8
BLACK
6
CONTINUOUS
10
1.24341
20
-0.198974
11
1.24412
21
-0.199604
0
LINE
8
BLACK
6
CONTINUOUS
10
1.24412
20
-0.199604
11
1.24494
21
-0.20008
0
LINE
8
BLACK
6
CONTINUOUS
10
1.24494
20
-0.20008
11
1.24738
21
-0.202517
0
LINE
8
BLACK
6
CONTINUOUS
10
1.24738
20
-0.202517
11
1.24786
21
-0.20334
0
LINE
8
BLACK
6
CONTINUOUS
10
1.24786
20
-0.20334
11
1.24849
21
-0.204052
0
LINE
8
BLACK
6
CONTINUOUS
10
1.24849
20
-0.204052
11
1.25092
21
-0.208926
0
LINE
8
BLACK
6
CONTINUOUS
10
1.25092
20
-0.208926
11
1.2512
21
-0.210256
0
LINE
8
BLACK
6
CONTINUOUS
10
1.2512
20
-0.210256
11
1.25155
21
-0.211567
0
LINE
8
BLACK
6
CONTINUOUS
10
1.25155
20
-0.211567
11
1.25155
21
-0.221316
0
LINE
8
BLACK
6
CONTINUOUS
10
1.25155
20
-0.221316
11
1.2512
21
-0.222627
0
LINE
8
BLACK
6
CONTINUOUS
10
1.2512
20
-0.222627
11
1.25092
21
-0.223957
0
LINE
8
BLACK
6
CONTINUOUS
10
1.25092
20
-0.223957
11
1.24849
21
-0.228831
0
LINE
8
BLACK
6
CONTINUOUS
10
1.24849
20
-0.228831
11
1.24786
21
-0.229543
0
LINE
8
BLACK
6
CONTINUOUS
10
1.24786
20
-0.229543
11
1.24738
21
-0.230366
0
LINE
8
BLACK
6
CONTINUOUS
10
1.24738
20
-0.230366
11
1.24494
21
-0.232803
0
LINE
8
BLACK
6
CONTINUOUS
10
1.24494
20
-0.232803
11
1.24412
21
-0.233279
0
LINE
8
BLACK
6
CONTINUOUS
10
1.24412
20
-0.233279
11
1.24341
21
-0.23391
0
LINE
8
BLACK
6
CONTINUOUS
10
1.24341
20
-0.23391
11
1.23853
21
-0.236347
0
LINE
8
BLACK
6
CONTINUOUS
10
1.23853
20
-0.236347
11
1.2372
21
-0.236619
0
LINE
8
BLACK
6
CONTINUOUS
10
1.2372
20
-0.236619
11
1.23589
21
-0.23697
0
LINE
8
BLACK
6
CONTINUOUS
10
1.23589
20
-0.23697
11
1.19446
21
-0.23697
0
LINE
8
BLACK
6
CONTINUOUS
10
1.19446
20
-0.23697
11
1.19151
21
-0.236179
0
LINE
8
BLACK
6
CONTINUOUS
10
1.19151
20
-0.236179
11
1.18935
21
-0.234018
0
LINE
8
BLACK
6
CONTINUOUS
10
1.18935
20
-0.234018
11
1.18856
21
-0.231065
0
LINE
8
BLACK
6
CONTINUOUS
10
1.18856
20
-0.231065
11
1.18935
21
-0.228112
0
LINE
8
BLACK
6
CONTINUOUS
10
1.18935
20
-0.228112
11
1.19151
21
-0.225951
0
LINE
8
BLACK
6
CONTINUOUS
10
1.19151
20
-0.225951
11
1.19446
21
-0.225159
0
LINE
8
BLACK
6
CONTINUOUS
10
1.19446
20
-0.225159
11
1.2345
21
-0.225159
0
LINE
8
BLACK
6
CONTINUOUS
10
1.2345
20
-0.225159
11
1.23727
21
-0.223774
0
LINE
8
BLACK
6
CONTINUOUS
10
1.23727
20
-0.223774
11
1.23835
21
-0.222692
0
LINE
8
BLACK
6
CONTINUOUS
10
1.23835
20
-0.222692
11
1.23974
21
-0.219922
0
LINE
8
BLACK
6
CONTINUOUS
10
1.23974
20
-0.219922
11
1.23974
21
-0.212961
0
LINE
8
BLACK
6
CONTINUOUS
10
1.23974
20
-0.212961
11
1.23835
21
-0.210191
0
LINE
8
BLACK
6
CONTINUOUS
10
1.23835
20
-0.210191
11
1.23727
21
-0.209109
0
LINE
8
BLACK
6
CONTINUOUS
10
1.23727
20
-0.209109
11
1.2345
21
-0.207724
0
LINE
8
BLACK
6
CONTINUOUS
10
1.2345
20
-0.207724
11
1.19446
21
-0.207724
0
LINE
8
BLACK
6
CONTINUOUS
10
1.19446
20
-0.207724
11
1.19151
21
-0.206933
0
LINE
8
BLACK
6
CONTINUOUS
10
1.19151
20
-0.206933
11
1.18935
21
-0.204771
0
LINE
8
BLACK
6
CONTINUOUS
10
1.18935
20
-0.204771
11
1.18856
21
-0.201819
0
LINE
8
BLACK
6
CONTINUOUS
10
1.18856
20
-0.201819
11
1.18935
21
-0.198866
0
LINE
8
BLACK
6
CONTINUOUS
10
1.18935
20
-0.198866
11
1.19151
21
-0.196704
0
LINE
8
BLACK
6
CONTINUOUS
10
1.19151
20
-0.196704
11
1.19446
21
-0.195913
0
LINE
8
BLACK
6
CONTINUOUS
10
1.19446
20
-0.195913
11
1.23589
21
-0.195913
0
LINE
8
BLACK
6
CONTINUOUS
10
1.23589
20
-0.195913
11
1.2372
21
-0.196264
0
LINE
8
BLACK
6
CONTINUOUS
10
1.24566
20
-0.142298
11
1.24567
21
-0.142295
0
LINE
8
BLACK
6
CONTINUOUS
10
1.24567
20
-0.142295
11
1.24712
21
-0.142692
0
LINE
8
BLACK
6
CONTINUOUS
10
1.24712
20
-0.142692
11
1.24859
21
-0.143086
0
LINE
8
BLACK
6
CONTINUOUS
10
1.24859
20
-0.143086
11
1.2486
21
-0.143096
0
LINE
8
BLACK
6
CONTINUOUS
10
1.2486
20
-0.143096
11
1.24862
21
-0.143099
0
LINE
8
BLACK
6
CONTINUOUS
10
1.24862
20
-0.143099
11
1.24968
21
-0.144174
0
LINE
8
BLACK
6
CONTINUOUS
10
1.24968
20
-0.144174
11
1.25076
21
-0.145247
0
LINE
8
BLACK
6
CONTINUOUS
10
1.25076
20
-0.145247
11
1.25076
21
-0.145261
0
LINE
8
BLACK
6
CONTINUOUS
10
1.25076
20
-0.145261
11
1.25077
21
-0.14527
0
LINE
8
BLACK
6
CONTINUOUS
10
1.25077
20
-0.14527
11
1.25115
21
-0.146731
0
LINE
8
BLACK
6
CONTINUOUS
10
1.25115
20
-0.146731
11
1.25155
21
-0.1482
0
LINE
8
BLACK
6
CONTINUOUS
10
1.25155
20
-0.1482
11
1.25154
21
-0.148213
0
LINE
8
BLACK
6
CONTINUOUS
10
1.25154
20
-0.148213
11
1.25155
21
-0.148226
0
LINE
8
BLACK
6
CONTINUOUS
10
1.25155
20
-0.148226
11
1.25115
21
-0.149684
0
LINE
8
BLACK
6
CONTINUOUS
10
1.25115
20
-0.149684
11
1.25076
21
-0.151153
0
LINE
8
BLACK
6
CONTINUOUS
10
1.25076
20
-0.151153
11
1.25075
21
-0.151163
0
LINE
8
BLACK
6
CONTINUOUS
10
1.25075
20
-0.151163
11
1.25074
21
-0.151176
0
LINE
8
BLACK
6
CONTINUOUS
10
1.25074
20
-0.151176
11
1.24967
21
-0.152243
0
LINE
8
BLACK
6
CONTINUOUS
10
1.24967
20
-0.152243
11
1.24859
21
-0.153315
0
LINE
8
BLACK
6
CONTINUOUS
10
1.24859
20
-0.153315
11
1.24858
21
-0.153318
0
LINE
8
BLACK
6
CONTINUOUS
10
1.24858
20
-0.153318
11
1.24857
21
-0.153328
0
LINE
8
BLACK
6
CONTINUOUS
10
1.24857
20
-0.153328
11
1.2167
21
-0.171541
0
LINE
8
BLACK
6
CONTINUOUS
10
1.2167
20
-0.171541
11
1.24564
21
-0.171541
0
LINE
8
BLACK
6
CONTINUOUS
10
1.24564
20
-0.171541
11
1.24859
21
-0.172332
0
LINE
8
BLACK
6
CONTINUOUS
10
1.24859
20
-0.172332
11
1.25076
21
-0.174494
0
LINE
8
BLACK
6
CONTINUOUS
10
1.25076
20
-0.174494
11
1.25155
21
-0.177447
0
LINE
8
BLACK
6
CONTINUOUS
10
1.25155
20
-0.177447
11
1.25076
21
-0.180399
0
LINE
8
BLACK
6
CONTINUOUS
10
1.25076
20
-0.180399
11
1.24859
21
-0.182561
0
LINE
8
BLACK
6
CONTINUOUS
10
1.24859
20
-0.182561
11
1.24564
21
-0.183352
0
LINE
8
BLACK
6
CONTINUOUS
10
1.24564
20
-0.183352
11
1.19446
21
-0.183352
0
LINE
8
BLACK
6
CONTINUOUS
10
1.19446
20
-0.183352
11
1.19445
21
-0.183349
0
LINE
8
BLACK
6
CONTINUOUS
10
1.19445
20
-0.183349
11
1.19443
21
-0.183352
0
LINE
8
BLACK
6
CONTINUOUS
10
1.19443
20
-0.183352
11
1.19297
21
-0.182952
0
LINE
8
BLACK
6
CONTINUOUS
10
1.19297
20
-0.182952
11
1.19151
21
-0.182561
0
LINE
8
BLACK
6
CONTINUOUS
10
1.19151
20
-0.182561
11
1.1915
21
-0.182551
0
LINE
8
BLACK
6
CONTINUOUS
10
1.1915
20
-0.182551
11
1.19149
21
-0.182548
0
LINE
8
BLACK
6
CONTINUOUS
10
1.19149
20
-0.182548
11
1.19042
21
-0.181471
0
LINE
8
BLACK
6
CONTINUOUS
10
1.19042
20
-0.181471
11
1.18935
21
-0.180399
0
LINE
8
BLACK
6
CONTINUOUS
10
1.18935
20
-0.180399
11
1.18934
21
-0.180386
0
LINE
8
BLACK
6
CONTINUOUS
10
1.18934
20
-0.180386
11
1.18933
21
-0.180376
0
LINE
8
BLACK
6
CONTINUOUS
10
1.18933
20
-0.180376
11
1.18895
21
-0.178911
0
LINE
8
BLACK
6
CONTINUOUS
10
1.18895
20
-0.178911
11
1.18856
21
-0.177447
0
LINE
8
BLACK
6
CONTINUOUS
10
1.18856
20
-0.177447
11
1.18856
21
-0.177433
0
LINE
8
BLACK
6
CONTINUOUS
10
1.18856
20
-0.177433
11
1.18856
21
-0.17742
0
LINE
8
BLACK
6
CONTINUOUS
10
1.18856
20
-0.17742
11
1.18896
21
-0.175954
0
LINE
8
BLACK
6
CONTINUOUS
10
1.18896
20
-0.175954
11
1.18935
21
-0.174494
0
LINE
8
BLACK
6
CONTINUOUS
10
1.18935
20
-0.174494
11
1.18936
21
-0.174484
0
LINE
8
BLACK
6
CONTINUOUS
10
1.18936
20
-0.174484
11
1.18936
21
-0.174471
0
LINE
8
BLACK
6
CONTINUOUS
10
1.18936
20
-0.174471
11
1.19044
21
-0.173404
0
LINE
8
BLACK
6
CONTINUOUS
10
1.19044
20
-0.173404
11
1.19151
21
-0.172332
0
LINE
8
BLACK
6
CONTINUOUS
10
1.19151
20
-0.172332
11
1.19152
21
-0.172329
0
LINE
8
BLACK
6
CONTINUOUS
10
1.19152
20
-0.172329
11
1.19153
21
-0.172319
0
LINE
8
BLACK
6
CONTINUOUS
10
1.19153
20
-0.172319
11
1.2234
21
-0.154106
0
LINE
8
BLACK
6
CONTINUOUS
10
1.2234
20
-0.154106
11
1.19446
21
-0.154106
0
LINE
8
BLACK
6
CONTINUOUS
10
1.19446
20
-0.154106
11
1.19151
21
-0.153315
0
LINE
8
BLACK
6
CONTINUOUS
10
1.19151
20
-0.153315
11
1.18935
21
-0.151153
0
LINE
8
BLACK
6
CONTINUOUS
10
1.18935
20
-0.151153
11
1.18856
21
-0.1482
0
LINE
8
BLACK
6
CONTINUOUS
10
1.18856
20
-0.1482
11
1.18935
21
-0.145247
0
LINE
8
BLACK
6
CONTINUOUS
10
1.18935
20
-0.145247
11
1.19151
21
-0.143086
0
LINE
8
BLACK
6
CONTINUOUS
10
1.19151
20
-0.143086
11
1.19446
21
-0.142295
0
LINE
8
BLACK
6
CONTINUOUS
10
1.19446
20
-0.142295
11
1.24564
21
-0.142295
0
LINE
8
BLACK
6
CONTINUOUS
10
1.24564
20
-0.142295
11
1.24566
21
-0.142298
0
LINE
8
BLACK
6
CONTINUOUS
10
1.22441
20
-0.088865
11
1.22514
21
-0.0888527
0
LINE
8
BLACK
6
CONTINUOUS
10
1.22514
20
-0.0888527
11
1.23489
21
-0.0912899
0
LINE
8
BLACK
6
CONTINUOUS
10
1.23489
20
-0.0912899
11
1.23546
21
-0.0916063
0
LINE
8
BLACK
6
CONTINUOUS
10
1.23546
20
-0.0916063
11
1.2361
21
-0.091737
0
LINE
8
BLACK
6
CONTINUOUS
10
1.2361
20
-0.091737
11
1.24097
21
-0.0941742
0
LINE
8
BLACK
6
CONTINUOUS
10
1.24097
20
-0.0941742
11
1.24168
21
-0.094805
0
LINE
8
BLACK
6
CONTINUOUS
10
1.24168
20
-0.094805
11
1.24251
21
-0.0952804
0
LINE
8
BLACK
6
CONTINUOUS
10
1.24251
20
-0.0952804
11
1.24738
21
-0.100155
0
LINE
8
BLACK
6
CONTINUOUS
10
1.24738
20
-0.100155
11
1.24806
21
-0.10133
0
LINE
8
BLACK
6
CONTINUOUS
10
1.24806
20
-0.10133
11
1.24881
21
-0.102463
0
LINE
8
BLACK
6
CONTINUOUS
10
1.24881
20
-0.102463
11
1.25124
21
-0.109775
0
LINE
8
BLACK
6
CONTINUOUS
10
1.25124
20
-0.109775
11
1.2513
21
-0.110724
0
LINE
8
BLACK
6
CONTINUOUS
10
1.2513
20
-0.110724
11
1.25155
21
-0.111642
0
LINE
8
BLACK
6
CONTINUOUS
10
1.25155
20
-0.111642
11
1.25155
21
-0.123828
0
LINE
8
BLACK
6
CONTINUOUS
10
1.25155
20
-0.123828
11
1.25076
21
-0.126781
0
LINE
8
BLACK
6
CONTINUOUS
10
1.25076
20
-0.126781
11
1.24859
21
-0.128943
0
LINE
8
BLACK
6
CONTINUOUS
10
1.24859
20
-0.128943
11
1.24564
21
-0.129734
0
LINE
8
BLACK
6
CONTINUOUS
10
1.24564
20
-0.129734
11
1.19446
21
-0.129734
0
LINE
8
BLACK
6
CONTINUOUS
10
1.19446
20
-0.129734
11
1.19151
21
-0.128943
0
LINE
8
BLACK
6
CONTINUOUS
10
1.19151
20
-0.128943
11
1.18935
21
-0.126781
0
LINE
8
BLACK
6
CONTINUOUS
10
1.18935
20
-0.126781
11
1.18856
21
-0.123828
0
LINE
8
BLACK
6
CONTINUOUS
10
1.18856
20
-0.123828
11
1.18856
21
-0.111642
0
LINE
8
BLACK
6
CONTINUOUS
10
1.18856
20
-0.111642
11
1.1888
21
-0.110724
0
LINE
8
BLACK
6
CONTINUOUS
10
1.1888
20
-0.110724
11
1.18886
21
-0.109775
0
LINE
8
BLACK
6
CONTINUOUS
10
1.18886
20
-0.109775
11
1.1913
21
-0.102463
0
LINE
8
BLACK
6
CONTINUOUS
10
1.1913
20
-0.102463
11
1.19204
21
-0.10133
0
LINE
8
BLACK
6
CONTINUOUS
10
1.19204
20
-0.10133
11
1.19272
21
-0.100155
0
LINE
8
BLACK
6
CONTINUOUS
10
1.19272
20
-0.100155
11
1.1976
21
-0.0952804
0
LINE
8
BLACK
6
CONTINUOUS
10
1.1976
20
-0.0952804
11
1.19842
21
-0.094805
0
LINE
8
BLACK
6
CONTINUOUS
10
1.19842
20
-0.094805
11
1.19913
21
-0.0941742
0
LINE
8
BLACK
6
CONTINUOUS
10
1.19913
20
-0.0941742
11
1.20401
21
-0.091737
0
LINE
8
BLACK
6
CONTINUOUS
10
1.20401
20
-0.091737
11
1.20464
21
-0.0916063
0
LINE
8
BLACK
6
CONTINUOUS
10
1.20464
20
-0.0916063
11
1.20521
21
-0.0912899
0
LINE
8
BLACK
6
CONTINUOUS
10
1.20521
20
-0.0912899
11
1.21496
21
-0.0888527
0
LINE
8
BLACK
6
CONTINUOUS
10
1.21496
20
-0.0888527
11
1.21569
21
-0.0888649
0
LINE
8
BLACK
6
CONTINUOUS
10
1.21569
20
-0.0888649
11
1.2164
21
-0.0886764
0
LINE
8
BLACK
6
CONTINUOUS
10
1.2164
20
-0.0886764
11
1.22371
21
-0.0886764
0
LINE
8
BLACK
6
CONTINUOUS
10
1.22371
20
-0.0886764
11
1.22441
21
-0.088865
0
LINE
8
BLACK
6
CONTINUOUS
10
1.20871
20
-0.102591
11
1.20527
21
-0.10431
0
LINE
8
BLACK
6
CONTINUOUS
10
1.20527
20
-0.10431
11
1.20206
21
-0.107521
0
LINE
8
BLACK
6
CONTINUOUS
10
1.20206
20
-0.107521
11
1.20037
21
-0.112601
0
LINE
8
BLACK
6
CONTINUOUS
10
1.20037
20
-0.112601
11
1.20037
21
-0.117923
0
LINE
8
BLACK
6
CONTINUOUS
10
1.20037
20
-0.117923
11
1.23974
21
-0.117923
0
LINE
8
BLACK
6
CONTINUOUS
10
1.23974
20
-0.117923
11
1.23974
21
-0.112601
0
LINE
8
BLACK
6
CONTINUOUS
10
1.23974
20
-0.112601
11
1.23804
21
-0.107521
0
LINE
8
BLACK
6
CONTINUOUS
10
1.23804
20
-0.107521
11
1.23483
21
-0.10431
0
LINE
8
BLACK
6
CONTINUOUS
10
1.23483
20
-0.10431
11
1.23139
21
-0.102591
0
LINE
8
BLACK
6
CONTINUOUS
10
1.23139
20
-0.102591
11
1.22298
21
-0.100487
0
LINE
8
BLACK
6
CONTINUOUS
10
1.22298
20
-0.100487
11
1.21712
21
-0.100487
0
LINE
8
BLACK
6
CONTINUOUS
10
1.21712
20
-0.100487
11
1.20871
21
-0.102591
0
LINE
8
BLACK
6
CONTINUOUS
10
1.2924
20
-0.0548017
11
1.29335
21
-0.0548587
0
LINE
8
BLACK
6
CONTINUOUS
10
1.29335
20
-0.0548587
11
1.30066
21
-0.0572959
0
LINE
8
BLACK
6
CONTINUOUS
10
1.30066
20
-0.0572959
11
1.3018
21
-0.0580437
0
LINE
8
BLACK
6
CONTINUOUS
10
1.3018
20
-0.0580437
11
1.30297
21
-0.0587225
0
LINE
8
BLACK
6
CONTINUOUS
10
1.30297
20
-0.0587225
11
1.32214
21
-0.0778875
0
LINE
8
BLACK
6
CONTINUOUS
10
1.32214
20
-0.0778875
11
1.32214
21
-0.0604611
0
LINE
8
BLACK
6
CONTINUOUS
10
1.32214
20
-0.0604611
11
1.32293
21
-0.0575084
0
LINE
8
BLACK
6
CONTINUOUS
10
1.32293
20
-0.0575084
11
1.32509
21
-0.0553468
0
LINE
8
BLACK
6
CONTINUOUS
10
1.32509
20
-0.0553468
11
1.32804
21
-0.0545556
0
LINE
8
BLACK
6
CONTINUOUS
10
1.32804
20
-0.0545556
11
1.331
21
-0.0553468
0
LINE
8
BLACK
6
CONTINUOUS
10
1.331
20
-0.0553468
11
1.33316
21
-0.0575084
0
LINE
8
BLACK
6
CONTINUOUS
10
1.33316
20
-0.0575084
11
1.33395
21
-0.0604611
0
LINE
8
BLACK
6
CONTINUOUS
10
1.33395
20
-0.0604611
11
1.33395
21
-0.0921447
0
LINE
8
BLACK
6
CONTINUOUS
10
1.33395
20
-0.0921447
11
1.33375
21
-0.0928956
0
LINE
8
BLACK
6
CONTINUOUS
10
1.33375
20
-0.0928956
11
1.33375
21
-0.0936731
0
LINE
8
BLACK
6
CONTINUOUS
10
1.33375
20
-0.0936731
11
1.33336
21
-0.0943465
0
LINE
8
BLACK
6
CONTINUOUS
10
1.33336
20
-0.0943465
11
1.33316
21
-0.0950974
0
LINE
8
BLACK
6
CONTINUOUS
10
1.33316
20
-0.0950974
11
1.33261
21
-0.0956472
0
LINE
8
BLACK
6
CONTINUOUS
10
1.33261
20
-0.0956472
11
1.33222
21
-0.0963205
0
LINE
8
BLACK
6
CONTINUOUS
10
1.33222
20
-0.0963205
11
1.33155
21
-0.0967092
0
LINE
8
BLACK
6
CONTINUOUS
10
1.33155
20
-0.0967092
11
1.331
21
-0.097259
0
LINE
8
BLACK
6
CONTINUOUS
10
1.331
20
-0.097259
11
1.33025
21
-0.0974602
0
LINE
8
BLACK
6
CONTINUOUS
10
1.33025
20
-0.0974602
11
1.32957
21
-0.097849
0
LINE
8
BLACK
6
CONTINUOUS
10
1.32957
20
-0.097849
11
1.32879
21
-0.097849
0
LINE
8
BLACK
6
CONTINUOUS
10
1.32879
20
-0.097849
11
1.32804
21
-0.0980502
0
LINE
8
BLACK
6
CONTINUOUS
10
1.32804
20
-0.0980502
11
1.32729
21
-0.097849
0
LINE
8
BLACK
6
CONTINUOUS
10
1.32729
20
-0.097849
11
1.32651
21
-0.097849
0
LINE
8
BLACK
6
CONTINUOUS
10
1.32651
20
-0.097849
11
1.32584
21
-0.0974602
0
LINE
8
BLACK
6
CONTINUOUS
10
1.32584
20
-0.0974602
11
1.32509
21
-0.097259
0
LINE
8
BLACK
6
CONTINUOUS
10
1.32509
20
-0.097259
11
1.32454
21
-0.0967092
0
LINE
8
BLACK
6
CONTINUOUS
10
1.32454
20
-0.0967092
11
1.32387
21
-0.0963205
0
LINE
8
BLACK
6
CONTINUOUS
10
1.32387
20
-0.0963205
11
1.29561
21
-0.0680599
0
LINE
8
BLACK
6
CONTINUOUS
10
1.29561
20
-0.0680599
11
1.29053
21
-0.0663667
0
LINE
8
BLACK
6
CONTINUOUS
10
1.29053
20
-0.0663667
11
1.28801
21
-0.0663667
0
LINE
8
BLACK
6
CONTINUOUS
10
1.28801
20
-0.0663667
11
1.28523
21
-0.0677518
0
LINE
8
BLACK
6
CONTINUOUS
10
1.28523
20
-0.0677518
11
1.28415
21
-0.0688337
0
LINE
8
BLACK
6
CONTINUOUS
10
1.28415
20
-0.0688337
11
1.28277
21
-0.071604
0
LINE
8
BLACK
6
CONTINUOUS
10
1.28277
20
-0.071604
11
1.28277
21
-0.0810018
0
LINE
8
BLACK
6
CONTINUOUS
10
1.28277
20
-0.0810018
11
1.28415
21
-0.0837721
0
LINE
8
BLACK
6
CONTINUOUS
10
1.28415
20
-0.0837721
11
1.28591
21
-0.0855316
0
LINE
8
BLACK
6
CONTINUOUS
10
1.28591
20
-0.0855316
11
1.28744
21
-0.088179
0
LINE
8
BLACK
6
CONTINUOUS
10
1.28744
20
-0.088179
11
1.28744
21
-0.0912359
0
LINE
8
BLACK
6
CONTINUOUS
10
1.28744
20
-0.0912359
11
1.28591
21
-0.0938833
0
LINE
8
BLACK
6
CONTINUOUS
10
1.28591
20
-0.0938833
11
1.28327
21
-0.0954118
0
LINE
8
BLACK
6
CONTINUOUS
10
1.28327
20
-0.0954118
11
1.28021
21
-0.0954118
0
LINE
8
BLACK
6
CONTINUOUS
10
1.28021
20
-0.0954118
11
1.27756
21
-0.0938833
0
LINE
8
BLACK
6
CONTINUOUS
10
1.27756
20
-0.0938833
11
1.27512
21
-0.0914462
0
LINE
8
BLACK
6
CONTINUOUS
10
1.27512
20
-0.0914462
11
1.27465
21
-0.0906227
0
LINE
8
BLACK
6
CONTINUOUS
10
1.27465
20
-0.0906227
11
1.27402
21
-0.0899113
0
LINE
8
BLACK
6
CONTINUOUS
10
1.27402
20
-0.0899113
11
1.27158
21
-0.0850369
0
LINE
8
BLACK
6
CONTINUOUS
10
1.27158
20
-0.0850369
11
1.27131
21
-0.083707
0
LINE
8
BLACK
6
CONTINUOUS
10
1.27131
20
-0.083707
11
1.27096
21
-0.0823959
0
LINE
8
BLACK
6
CONTINUOUS
10
1.27096
20
-0.0823959
11
1.27096
21
-0.0702099
0
LINE
8
BLACK
6
CONTINUOUS
10
1.27096
20
-0.0702099
11
1.27131
21
-0.0688988
0
LINE
8
BLACK
6
CONTINUOUS
10
1.27131
20
-0.0688988
11
1.27158
21
-0.0675689
0
LINE
8
BLACK
6
CONTINUOUS
10
1.27158
20
-0.0675689
11
1.27402
21
-0.0626945
0
LINE
8
BLACK
6
CONTINUOUS
10
1.27402
20
-0.0626945
11
1.27465
21
-0.0619831
0
LINE
8
BLACK
6
CONTINUOUS
10
1.27465
20
-0.0619831
11
1.27512
21
-0.0611597
0
LINE
8
BLACK
6
CONTINUOUS
10
1.27512
20
-0.0611597
11
1.27756
21
-0.0587225
0
LINE
8
BLACK
6
CONTINUOUS
10
1.27756
20
-0.0587225
11
1.27838
21
-0.0582471
0
LINE
8
BLACK
6
CONTINUOUS
10
1.27838
20
-0.0582471
11
1.2791
21
-0.0576163
0
LINE
8
BLACK
6
CONTINUOUS
10
1.2791
20
-0.0576163
11
1.28397
21
-0.0551791
0
LINE
8
BLACK
6
CONTINUOUS
10
1.28397
20
-0.0551791
11
1.2853
21
-0.0549069
0
LINE
8
BLACK
6
CONTINUOUS
10
1.2853
20
-0.0549069
11
1.28661
21
-0.0545556
0
LINE
8
BLACK
6
CONTINUOUS
10
1.28661
20
-0.0545556
11
1.29149
21
-0.0545556
0
LINE
8
BLACK
6
CONTINUOUS
10
1.29149
20
-0.0545556
11
1.2924
21
-0.0548017
0
LINE
8
BLACK
6
CONTINUOUS
10
1.24859
20
-0.0431608
11
1.25076
21
-0.0453224
0
LINE
8
BLACK
6
CONTINUOUS
10
1.25076
20
-0.0453224
11
1.25155
21
-0.0482752
0
LINE
8
BLACK
6
CONTINUOUS
10
1.25155
20
-0.0482752
11
1.25155
21
-0.0726471
0
LINE
8
BLACK
6
CONTINUOUS
10
1.25155
20
-0.0726471
11
1.25076
21
-0.0755999
0
LINE
8
BLACK
6
CONTINUOUS
10
1.25076
20
-0.0755999
11
1.24859
21
-0.0777615
0
LINE
8
BLACK
6
CONTINUOUS
10
1.24859
20
-0.0777615
11
1.24564
21
-0.0785526
0
LINE
8
BLACK
6
CONTINUOUS
10
1.24564
20
-0.0785526
11
1.21883
21
-0.0785526
0
LINE
8
BLACK
6
CONTINUOUS
10
1.21883
20
-0.0785526
11
1.19446
21
-0.0785526
0
LINE
8
BLACK
6
CONTINUOUS
10
1.19446
20
-0.0785526
11
1.19151
21
-0.0777615
0
LINE
8
BLACK
6
CONTINUOUS
10
1.19151
20
-0.0777615
11
1.18935
21
-0.0755999
0
LINE
8
BLACK
6
CONTINUOUS
10
1.18935
20
-0.0755999
11
1.18856
21
-0.0726471
0
LINE
8
BLACK
6
CONTINUOUS
10
1.18856
20
-0.0726471
11
1.18856
21
-0.0482752
0
LINE
8
BLACK
6
CONTINUOUS
10
1.18856
20
-0.0482752
11
1.18935
21
-0.0453224
0
LINE
8
BLACK
6
CONTINUOUS
10
1.18935
20
-0.0453224
11
1.19151
21
-0.0431608
0
LINE
8
BLACK
6
CONTINUOUS
10
1.19151
20
-0.0431608
11
1.19446
21
-0.0423696
0
LINE
8
BLACK
6
CONTINUOUS
10
1.19446
20
-0.0423696
11
1.19741
21
-0.0431608
0
LINE
8
BLACK
6
CONTINUOUS
10
1.19741
20
-0.0431608
11
1.19958
21
-0.0453224
0
LINE
8
BLACK
6
CONTINUOUS
10
1.19958
20
-0.0453224
11
1.20037
21
-0.0482752
0
LINE
8
BLACK
6
CONTINUOUS
10
1.20037
20
-0.0482752
11
1.20037
21
-0.0667416
0
LINE
8
BLACK
6
CONTINUOUS
10
1.20037
20
-0.0667416
11
1.21293
21
-0.0667416
0
LINE
8
BLACK
6
CONTINUOUS
10
1.21293
20
-0.0667416
11
1.21293
21
-0.0555867
0
LINE
8
BLACK
6
CONTINUOUS
10
1.21293
20
-0.0555867
11
1.21372
21
-0.052634
0
LINE
8
BLACK
6
CONTINUOUS
10
1.21372
20
-0.052634
11
1.21588
21
-0.0504724
0
LINE
8
BLACK
6
CONTINUOUS
10
1.21588
20
-0.0504724
11
1.21883
21
-0.0496812
0
LINE
8
BLACK
6
CONTINUOUS
10
1.21883
20
-0.0496812
11
1.22179
21
-0.0504724
0
LINE
8
BLACK
6
CONTINUOUS
10
1.22179
20
-0.0504724
11
1.22395
21
-0.052634
0
LINE
8
BLACK
6
CONTINUOUS
10
1.22395
20
-0.052634
11
1.22474
21
-0.0555867
0
LINE
8
BLACK
6
CONTINUOUS
10
1.22474
20
-0.0555867
11
1.22474
21
-0.0667416
0
LINE
8
BLACK
6
CONTINUOUS
10
1.22474
20
-0.0667416
11
1.23974
21
-0.0667416
0
LINE
8
BLACK
6
CONTINUOUS
10
1.23974
20
-0.0667416
11
1.23974
21
-0.0482752
0
LINE
8
BLACK
6
CONTINUOUS
10
1.23974
20
-0.0482752
11
1.24053
21
-0.0453224
0
LINE
8
BLACK
6
CONTINUOUS
10
1.24053
20
-0.0453224
11
1.24269
21
-0.0431608
0
LINE
8
BLACK
6
CONTINUOUS
10
1.24269
20
-0.0431608
11
1.24564
21
-0.0423696
0
LINE
8
BLACK
6
CONTINUOUS
10
1.24564
20
-0.0423696
11
1.24859
21
-0.0431608
0
LINE
8
BLACK
6
CONTINUOUS
10
1.30925
20
-0.00600031
11
1.30998
21
-0.00598807
0
LINE
8
BLACK
6
CONTINUOUS
10
1.30998
20
-0.00598807
11
1.31973
21
-0.00842528
0
LINE
8
BLACK
6
CONTINUOUS
10
1.31973
20
-0.00842528
11
1.3203
21
-0.00874165
0
LINE
8
BLACK
6
CONTINUOUS
10
1.3203
20
-0.00874165
11
1.32094
21
-0.0088724
0
LINE
8
BLACK
6
CONTINUOUS
10
1.32094
20
-0.0088724
11
1.32581
21
-0.0113096
0
LINE
8
BLACK
6
CONTINUOUS
10
1.32581
20
-0.0113096
11
1.32652
21
-0.0119404
0
LINE
8
BLACK
6
CONTINUOUS
10
1.32652
20
-0.0119404
11
1.32734
21
-0.0124158
0
LINE
8
BLACK
6
CONTINUOUS
10
1.32734
20
-0.0124158
11
1.32978
21
-0.014853
0
LINE
8
BLACK
6
CONTINUOUS
10
1.32978
20
-0.014853
11
1.33026
21
-0.0156764
0
LINE
8
BLACK
6
CONTINUOUS
10
1.33026
20
-0.0156764
11
1.33089
21
-0.0163878
0
LINE
8
BLACK
6
CONTINUOUS
10
1.33089
20
-0.0163878
11
1.33333
21
-0.0212622
0
LINE
8
BLACK
6
CONTINUOUS
10
1.33333
20
-0.0212622
11
1.3336
21
-0.0225919
0
LINE
8
BLACK
6
CONTINUOUS
10
1.3336
20
-0.0225919
11
1.33395
21
-0.0239032
0
LINE
8
BLACK
6
CONTINUOUS
10
1.33395
20
-0.0239032
11
1.33395
21
-0.0287776
0
LINE
8
BLACK
6
CONTINUOUS
10
1.33395
20
-0.0287776
11
1.3336
21
-0.030089
0
LINE
8
BLACK
6
CONTINUOUS
10
1.3336
20
-0.030089
11
1.33333
21
-0.0314187
0
LINE
8
BLACK
6
CONTINUOUS
10
1.33333
20
-0.0314187
11
1.33089
21
-0.036293
0
LINE
8
BLACK
6
CONTINUOUS
10
1.33089
20
-0.036293
11
1.33026
21
-0.0370044
0
LINE
8
BLACK
6
CONTINUOUS
10
1.33026
20
-0.0370044
11
1.32978
21
-0.0378278
0
LINE
8
BLACK
6
CONTINUOUS
10
1.32978
20
-0.0378278
11
1.32734
21
-0.040265
0
LINE
8
BLACK
6
CONTINUOUS
10
1.32734
20
-0.040265
11
1.32652
21
-0.0407404
0
LINE
8
BLACK
6
CONTINUOUS
10
1.32652
20
-0.0407404
11
1.32581
21
-0.0413713
0
LINE
8
BLACK
6
CONTINUOUS
10
1.32581
20
-0.0413713
11
1.32094
21
-0.0438085
0
LINE
8
BLACK
6
CONTINUOUS
10
1.32094
20
-0.0438085
11
1.3203
21
-0.0439392
0
LINE
8
BLACK
6
CONTINUOUS
10
1.3203
20
-0.0439392
11
1.31973
21
-0.0442556
0
LINE
8
BLACK
6
CONTINUOUS
10
1.31973
20
-0.0442556
11
1.30998
21
-0.0466928
0
LINE
8
BLACK
6
CONTINUOUS
10
1.30998
20
-0.0466928
11
1.30925
21
-0.0466805
0
LINE
8
BLACK
6
CONTINUOUS
10
1.30925
20
-0.0466805
11
1.30855
21
-0.0468691
0
LINE
8
BLACK
6
CONTINUOUS
10
1.30855
20
-0.0468691
11
1.29636
21
-0.0468691
0
LINE
8
BLACK
6
CONTINUOUS
10
1.29636
20
-0.0468691
11
1.29566
21
-0.0466805
0
LINE
8
BLACK
6
CONTINUOUS
10
1.29566
20
-0.0466805
11
1.29493
21
-0.0466928
0
LINE
8
BLACK
6
CONTINUOUS
10
1.29493
20
-0.0466928
11
1.28518
21
-0.0442556
0
LINE
8
BLACK
6
CONTINUOUS
10
1.28518
20
-0.0442556
11
1.28461
21
-0.0439392
0
LINE
8
BLACK
6
CONTINUOUS
10
1.28461
20
-0.0439392
11
1.28397
21
-0.0438085
0
LINE
8
BLACK
6
CONTINUOUS
10
1.28397
20
-0.0438085
11
1.2791
21
-0.0413713
0
LINE
8
BLACK
6
CONTINUOUS
10
1.2791
20
-0.0413713
11
1.27838
21
-0.0407404
0
LINE
8
BLACK
6
CONTINUOUS
10
1.27838
20
-0.0407404
11
1.27756
21
-0.040265
0
LINE
8
BLACK
6
CONTINUOUS
10
1.27756
20
-0.040265
11
1.27512
21
-0.0378278
0
LINE
8
BLACK
6
CONTINUOUS
10
1.27512
20
-0.0378278
11
1.27465
21
-0.0370044
0
LINE
8
BLACK
6
CONTINUOUS
10
1.27465
20
-0.0370044
11
1.27402
21
-0.0362931
0
LINE
8
BLACK
6
CONTINUOUS
10
1.27402
20
-0.0362931
11
1.27158
21
-0.0314187
0
LINE
8
BLACK
6
CONTINUOUS
10
1.27158
20
-0.0314187
11
1.27131
21
-0.0300887
0
LINE
8
BLACK
6
CONTINUOUS
10
1.27131
20
-0.0300887
11
1.27096
21
-0.0287776
0
LINE
8
BLACK
6
CONTINUOUS
10
1.27096
20
-0.0287776
11
1.27096
21
-0.0239032
0
LINE
8
BLACK
6
CONTINUOUS
10
1.27096
20
-0.0239032
11
1.27131
21
-0.0225921
0
LINE
8
BLACK
6
CONTINUOUS
10
1.27131
20
-0.0225921
11
1.27158
21
-0.0212622
0
LINE
8
BLACK
6
CONTINUOUS
10
1.27158
20
-0.0212622
11
1.27402
21
-0.0163878
0
LINE
8
BLACK
6
CONTINUOUS
10
1.27402
20
-0.0163878
11
1.27465
21
-0.0156764
0
LINE
8
BLACK
6
CONTINUOUS
10
1.27465
20
-0.0156764
11
1.27512
21
-0.014853
0
LINE
8
BLACK
6
CONTINUOUS
10
1.27512
20
-0.014853
11
1.27756
21
-0.0124158
0
LINE
8
BLACK
6
CONTINUOUS
10
1.27756
20
-0.0124158
11
1.27838
21
-0.0119404
0
LINE
8
BLACK
6
CONTINUOUS
10
1.27838
20
-0.0119404
11
1.2791
21
-0.0113096
0
LINE
8
BLACK
6
CONTINUOUS
10
1.2791
20
-0.0113096
11
1.28397
21
-0.0088724
0
LINE
8
BLACK
6
CONTINUOUS
10
1.28397
20
-0.0088724
11
1.28461
21
-0.00874165
0
LINE
8
BLACK
6
CONTINUOUS
10
1.28461
20
-0.00874165
11
1.28518
21
-0.00842528
0
LINE
8
BLACK
6
CONTINUOUS
10
1.28518
20
-0.00842528
11
1.29493
21
-0.00598807
0
LINE
8
BLACK
6
CONTINUOUS
10
1.29493
20
-0.00598807
11
1.29566
21
-0.00600031
0
LINE
8
BLACK
6
CONTINUOUS
10
1.29566
20
-0.00600031
11
1.29636
21
-0.00581173
0
LINE
8
BLACK
6
CONTINUOUS
10
1.29636
20
-0.00581173
11
1.30855
21
-0.00581173
0
LINE
8
BLACK
6
CONTINUOUS
10
1.30855
20
-0.00581173
11
1.30925
21
-0.00600031
0
LINE
8
BLACK
6
CONTINUOUS
10
1.28867
20
-0.0197263
11
1.28523
21
-0.0214451
0
LINE
8
BLACK
6
CONTINUOUS
10
1.28523
20
-0.0214451
11
1.28415
21
-0.022527
0
LINE
8
BLACK
6
CONTINUOUS
10
1.28415
20
-0.022527
11
1.28277
21
-0.0252973
0
LINE
8
BLACK
6
CONTINUOUS
10
1.28277
20
-0.0252973
11
1.28277
21
-0.0273835
0
LINE
8
BLACK
6
CONTINUOUS
10
1.28277
20
-0.0273835
11
1.28415
21
-0.0301538
0
LINE
8
BLACK
6
CONTINUOUS
10
1.28415
20
-0.0301538
11
1.28523
21
-0.0312357
0
LINE
8
BLACK
6
CONTINUOUS
10
1.28523
20
-0.0312357
11
1.28867
21
-0.0329545
0
LINE
8
BLACK
6
CONTINUOUS
10
1.28867
20
-0.0329545
11
1.29709
21
-0.0350581
0
LINE
8
BLACK
6
CONTINUOUS
10
1.29709
20
-0.0350581
11
1.30782
21
-0.0350581
0
LINE
8
BLACK
6
CONTINUOUS
10
1.30782
20
-0.0350581
11
1.31623
21
-0.0329544
0
LINE
8
BLACK
6
CONTINUOUS
10
1.31623
20
-0.0329544
11
1.31967
21
-0.0312357
0
LINE
8
BLACK
6
CONTINUOUS
10
1.31967
20
-0.0312357
11
1.32075
21
-0.0301538
0
LINE
8
BLACK
6
CONTINUOUS
10
1.32075
20
-0.0301538
11
1.32214
21
-0.0273836
0
LINE
8
BLACK
6
CONTINUOUS
10
1.32214
20
-0.0273836
11
1.32214
21
-0.0252972
0
LINE
8
BLACK
6
CONTINUOUS
10
1.32214
20
-0.0252972
11
1.32075
21
-0.022527
0
LINE
8
BLACK
6
CONTINUOUS
10
1.32075
20
-0.022527
11
1.31967
21
-0.0214451
0
LINE
8
BLACK
6
CONTINUOUS
10
1.31967
20
-0.0214451
11
1.31623
21
-0.0197263
0
LINE
8
BLACK
6
CONTINUOUS
10
1.31623
20
-0.0197263
11
1.30782
21
-0.0176228
0
LINE
8
BLACK
6
CONTINUOUS
10
1.30782
20
-0.0176228
11
1.29709
21
-0.0176228
0
LINE
8
BLACK
6
CONTINUOUS
10
1.29709
20
-0.0176228
11
1.28867
21
-0.0197263
0
LINE
8
BLACK
6
CONTINUOUS
10
1.21283
20
0.00846012
11
1.21416
21
0.00818795
0
LINE
8
BLACK
6
CONTINUOUS
10
1.21416
20
0.00818795
11
1.21904
21
0.00575079
0
LINE
8
BLACK
6
CONTINUOUS
10
1.21904
20
0.00575079
11
1.21975
21
0.00512004
0
LINE
8
BLACK
6
CONTINUOUS
10
1.21975
20
0.00512004
11
1.22057
21
0.00464457
0
LINE
8
BLACK
6
CONTINUOUS
10
1.22057
20
0.00464457
11
1.22301
21
0.00220736
0
LINE
8
BLACK
6
CONTINUOUS
10
1.22301
20
0.00220736
11
1.22348
21
0.00138398
0
LINE
8
BLACK
6
CONTINUOUS
10
1.22348
20
0.00138398
11
1.22411
21
0.000672559
0
LINE
8
BLACK
6
CONTINUOUS
10
1.22411
20
0.000672559
11
1.2262
21
-0.00349559
0
LINE
8
BLACK
6
CONTINUOUS
10
1.2262
20
-0.00349559
11
1.24226
21
0.0077439
0
LINE
8
BLACK
6
CONTINUOUS
10
1.24226
20
0.0077439
11
1.24513
21
0.00878902
0
LINE
8
BLACK
6
CONTINUOUS
10
1.24513
20
0.00878902
11
1.24814
21
0.00825776
0
LINE
8
BLACK
6
CONTINUOUS
10
1.24814
20
0.00825776
11
1.25048
21
0.00629248
0
LINE
8
BLACK
6
CONTINUOUS
10
1.25048
20
0.00629248
11
1.25152
21
0.0034198
0
LINE
8
BLACK
6
CONTINUOUS
10
1.25152
20
0.0034198
11
1.25099
21
0.00040937
0
LINE
8
BLACK
6
CONTINUOUS
10
1.25099
20
0.00040937
11
1.24903
21
-0.00193209
0
LINE
8
BLACK
6
CONTINUOUS
10
1.24903
20
-0.00193209
11
1.22718
21
-0.0172292
0
LINE
8
BLACK
6
CONTINUOUS
10
1.22718
20
-0.0172292
11
1.22718
21
-0.0204349
0
LINE
8
BLACK
6
CONTINUOUS
10
1.22718
20
-0.0204349
11
1.24564
21
-0.0204349
0
LINE
8
BLACK
6
CONTINUOUS
10
1.24564
20
-0.0204349
11
1.24859
21
-0.0212261
0
LINE
8
BLACK
6
CONTINUOUS
10
1.24859
20
-0.0212261
11
1.25076
21
-0.0233877
0
LINE
8
BLACK
6
CONTINUOUS
10
1.25076
20
-0.0233877
11
1.25155
21
-0.0263404
0
LINE
8
BLACK
6
CONTINUOUS
10
1.25155
20
-0.0263404
11
1.25076
21
-0.0292932
0
LINE
8
BLACK
6
CONTINUOUS
10
1.25076
20
-0.0292932
11
1.24859
21
-0.0314548
0
LINE
8
BLACK
6
CONTINUOUS
10
1.24859
20
-0.0314548
11
1.24564
21
-0.0322459
0
LINE
8
BLACK
6
CONTINUOUS
10
1.24564
20
-0.0322459
11
1.22127
21
-0.0322459
0
LINE
8
BLACK
6
CONTINUOUS
10
1.22127
20
-0.0322459
11
1.19446
21
-0.0322459
0
LINE
8
BLACK
6
CONTINUOUS
10
1.19446
20
-0.0322459
11
1.19151
21
-0.0314548
0
LINE
8
BLACK
6
CONTINUOUS
10
1.19151
20
-0.0314548
11
1.18935
21
-0.0292932
0
LINE
8
BLACK
6
CONTINUOUS
10
1.18935
20
-0.0292932
11
1.18856
21
-0.0263404
0
LINE
8
BLACK
6
CONTINUOUS
10
1.18856
20
-0.0263404
11
1.18856
21
-0.0263404
0
LINE
8
BLACK
6
CONTINUOUS
10
1.18856
20
-0.0263404
11
1.18856
21
-0.00684287
0
LINE
8
BLACK
6
CONTINUOUS
10
1.18856
20
-0.00684287
11
1.18891
21
-0.00553177
0
LINE
8
BLACK
6
CONTINUOUS
10
1.18891
20
-0.00553177
11
1.18918
21
-0.00420185
0
LINE
8
BLACK
6
CONTINUOUS
10
1.18918
20
-0.00420185
11
1.19162
21
0.000672559
0
LINE
8
BLACK
6
CONTINUOUS
10
1.19162
20
0.000672559
11
1.19225
21
0.00138398
0
LINE
8
BLACK
6
CONTINUOUS
10
1.19225
20
0.00138398
11
1.19272
21
0.00220736
0
LINE
8
BLACK
6
CONTINUOUS
10
1.19272
20
0.00220736
11
1.19516
21
0.00464457
0
LINE
8
BLACK
6
CONTINUOUS
10
1.19516
20
0.00464457
11
1.19598
21
0.00511996
0
LINE
8
BLACK
6
CONTINUOUS
10
1.19598
20
0.00511996
11
1.19669
21
0.00575079
0
LINE
8
BLACK
6
CONTINUOUS
10
1.19669
20
0.00575079
11
1.20157
21
0.00818795
0
LINE
8
BLACK
6
CONTINUOUS
10
1.20157
20
0.00818795
11
1.2029
21
0.00846004
0
LINE
8
BLACK
6
CONTINUOUS
10
1.2029
20
0.00846004
11
1.20421
21
0.00881142
0
LINE
8
BLACK
6
CONTINUOUS
10
1.20421
20
0.00881142
11
1.21152
21
0.00881142
0
LINE
8
BLACK
6
CONTINUOUS
10
1.21152
20
0.00881142
11
1.21283
21
0.00846012
0
LINE
8
BLACK
6
CONTINUOUS
10
1.20283
20
-0.00438472
11
1.20175
21
-0.00546665
0
LINE
8
BLACK
6
CONTINUOUS
10
1.20175
20
-0.00546665
11
1.20037
21
-0.00823697
0
LINE
8
BLACK
6
CONTINUOUS
10
1.20037
20
-0.00823697
11
1.20037
21
-0.0204349
0
LINE
8
BLACK
6
CONTINUOUS
10
1.20037
20
-0.0204349
11
1.21536
21
-0.0204349
0
LINE
8
BLACK
6
CONTINUOUS
10
1.21536
20
-0.0204349
11
1.21536
21
-0.00823697
0
LINE
8
BLACK
6
CONTINUOUS
10
1.21536
20
-0.00823697
11
1.21398
21
-0.00546661
0
LINE
8
BLACK
6
CONTINUOUS
10
1.21398
20
-0.00546661
11
1.2129
21
-0.00438472
0
LINE
8
BLACK
6
CONTINUOUS
10
1.2129
20
-0.00438472
11
1.21013
21
-0.00299961
0
LINE
8
BLACK
6
CONTINUOUS
10
1.21013
20
-0.00299961
11
1.2056
21
-0.00299961
0
LINE
8
BLACK
6
CONTINUOUS
10
1.2056
20
-0.00299961
11
1.20283
21
-0.00438472
0
LINE
8
BLACK
6
CONTINUOUS
10
1.2924
20
0.0426861
11
1.29335
21
0.0426291
0
LINE
8
BLACK
6
CONTINUOUS
10
1.29335
20
0.0426291
11
1.30066
21
0.0401919
0
LINE
8
BLACK
6
CONTINUOUS
10
1.30066
20
0.0401919
11
1.3018
21
0.0394441
0
LINE
8
BLACK
6
CONTINUOUS
10
1.3018
20
0.0394441
11
1.30297
21
0.0387653
0
LINE
8
BLACK
6
CONTINUOUS
10
1.30297
20
0.0387653
11
1.32214
21
0.0196003
0
LINE
8
BLACK
6
CONTINUOUS
10
1.32214
20
0.0196003
11
1.32214
21
0.0370267
0
LINE
8
BLACK
6
CONTINUOUS
10
1.32214
20
0.0370267
11
1.32293
21
0.0399794
0
LINE
8
BLACK
6
CONTINUOUS
10
1.32293
20
0.0399794
11
1.32509
21
0.042141
0
LINE
8
BLACK
6
CONTINUOUS
10
1.32509
20
0.042141
11
1.32804
21
0.0429322
0
LINE
8
BLACK
6
CONTINUOUS
10
1.32804
20
0.0429322
11
1.331
21
0.042141
0
LINE
8
BLACK
6
CONTINUOUS
10
1.331
20
0.042141
11
1.33316
21
0.0399794
0
LINE
8
BLACK
6
CONTINUOUS
10
1.33316
20
0.0399794
11
1.33395
21
0.0370267
0
LINE
8
BLACK
6
CONTINUOUS
10
1.33395
20
0.0370267
11
1.33395
21
0.00534311
0
LINE
8
BLACK
6
CONTINUOUS
10
1.33395
20
0.00534311
11
1.33375
21
0.00459217
0
LINE
8
BLACK
6
CONTINUOUS
10
1.33375
20
0.00459217
11
1.33375
21
0.00381465
0
LINE
8
BLACK
6
CONTINUOUS
10
1.33375
20
0.00381465
11
1.33336
21
0.00314134
0
LINE
8
BLACK
6
CONTINUOUS
10
1.33336
20
0.00314134
11
1.33316
21
0.00239035
0
LINE
8
BLACK
6
CONTINUOUS
10
1.33316
20
0.00239035
11
1.33261
21
0.00184059
0
LINE
8
BLACK
6
CONTINUOUS
10
1.33261
20
0.00184059
11
1.33222
21
0.00116728
0
LINE
8
BLACK
6
CONTINUOUS
10
1.33222
20
0.00116728
11
1.33155
21
0.000778583
0
LINE
8
BLACK
6
CONTINUOUS
10
1.33155
20
0.000778583
11
1.331
21
0.00022878
0
LINE
8
BLACK
6
CONTINUOUS
10
1.331
20
0.00022878
11
1.33025
21
2.75591e-05
0
LINE
8
BLACK
6
CONTINUOUS
10
1.33025
20
2.75591e-05
11
1.32957
21
-0.000361181
0
LINE
8
BLACK
6
CONTINUOUS
10
1.32957
20
-0.000361181
11
1.32879
21
-0.000361181
0
LINE
8
BLACK
6
CONTINUOUS
10
1.32879
20
-0.000361181
11
1.32804
21
-0.000562402
0
LINE
8
BLACK
6
CONTINUOUS
10
1.32804
20
-0.000562402
11
1.32729
21
-0.000361181
0
LINE
8
BLACK
6
CONTINUOUS
10
1.32729
20
-0.000361181
11
1.32651
21
-0.000361181
0
LINE
8
BLACK
6
CONTINUOUS
10
1.32651
20
-0.000361181
11
1.32584
21
2.75591e-05
0
LINE
8
BLACK
6
CONTINUOUS
10
1.32584
20
2.75591e-05
11
1.32509
21
0.00022878
0
LINE
8
BLACK
6
CONTINUOUS
10
1.32509
20
0.00022878
11
1.32454
21
0.000778583
0
LINE
8
BLACK
6
CONTINUOUS
10
1.32454
20
0.000778583
11
1.32387
21
0.00116728
0
LINE
8
BLACK
6
CONTINUOUS
10
1.32387
20
0.00116728
11
1.29561
21
0.0294279
0
LINE
8
BLACK
6
CONTINUOUS
10
1.29561
20
0.0294279
11
1.29053
21
0.0311211
0
LINE
8
BLACK
6
CONTINUOUS
10
1.29053
20
0.0311211
11
1.28801
21
0.0311211
0
LINE
8
BLACK
6
CONTINUOUS
10
1.28801
20
0.0311211
11
1.28523
21
0.029736
0
LINE
8
BLACK
6
CONTINUOUS
10
1.28523
20
0.029736
11
1.28415
21
0.0286541
0
LINE
8
BLACK
6
CONTINUOUS
10
1.28415
20
0.0286541
11
1.28277
21
0.0258838
0
LINE
8
BLACK
6
CONTINUOUS
10
1.28277
20
0.0258838
11
1.28277
21
0.016486
0
LINE
8
BLACK
6
CONTINUOUS
10
1.28277
20
0.016486
11
1.28415
21
0.0137157
0
LINE
8
BLACK
6
CONTINUOUS
10
1.28415
20
0.0137157
11
1.28591
21
0.0119562
0
LINE
8
BLACK
6
CONTINUOUS
10
1.28591
20
0.0119562
11
1.28744
21
0.00930882
0
LINE
8
BLACK
6
CONTINUOUS
10
1.28744
20
0.00930882
11
1.28744
21
0.00625189
0
LINE
8
BLACK
6
CONTINUOUS
10
1.28744
20
0.00625189
11
1.28591
21
0.00360453
0
LINE
8
BLACK
6
CONTINUOUS
10
1.28591
20
0.00360453
11
1.28327
21
0.00207602
0
LINE
8
BLACK
6
CONTINUOUS
10
1.28327
20
0.00207602
11
1.28021
21
0.00207602
0
LINE
8
BLACK
6
CONTINUOUS
10
1.28021
20
0.00207602
11
1.27756
21
0.00360445
0
LINE
8
BLACK
6
CONTINUOUS
10
1.27756
20
0.00360445
11
1.27512
21
0.00604161
0
LINE
8
BLACK
6
CONTINUOUS
10
1.27512
20
0.00604161
11
1.27465
21
0.00686508
0
LINE
8
BLACK
6
CONTINUOUS
10
1.27465
20
0.00686508
11
1.27402
21
0.00757646
0
LINE
8
BLACK
6
CONTINUOUS
10
1.27402
20
0.00757646
11
1.27158
21
0.0124509
0
LINE
8
BLACK
6
CONTINUOUS
10
1.27158
20
0.0124509
11
1.27131
21
0.0137808
0
LINE
8
BLACK
6
CONTINUOUS
10
1.27131
20
0.0137808
11
1.27096
21
0.0150919
0
LINE
8
BLACK
6
CONTINUOUS
10
1.27096
20
0.0150919
11
1.27096
21
0.0272779
0
LINE
8
BLACK
6
CONTINUOUS
10
1.27096
20
0.0272779
11
1.27131
21
0.028589
0
LINE
8
BLACK
6
CONTINUOUS
10
1.27131
20
0.028589
11
1.27158
21
0.0299189
0
LINE
8
BLACK
6
CONTINUOUS
10
1.27158
20
0.0299189
11
1.27402
21
0.0347933
0
LINE
8
BLACK
6
CONTINUOUS
10
1.27402
20
0.0347933
11
1.27465
21
0.0355047
0
LINE
8
BLACK
6
CONTINUOUS
10
1.27465
20
0.0355047
11
1.27512
21
0.0363281
0
LINE
8
BLACK
6
CONTINUOUS
10
1.27512
20
0.0363281
11
1.27756
21
0.0387653
0
LINE
8
BLACK
6
CONTINUOUS
10
1.27756
20
0.0387653
11
1.27838
21
0.0392407
0
LINE
8
BLACK
6
CONTINUOUS
10
1.27838
20
0.0392407
11
1.2791
21
0.0398715
0
LINE
8
BLACK
6
CONTINUOUS
10
1.2791
20
0.0398715
11
1.28397
21
0.0423087
0
LINE
8
BLACK
6
CONTINUOUS
10
1.28397
20
0.0423087
11
1.2853
21
0.0425809
0
LINE
8
BLACK
6
CONTINUOUS
10
1.2853
20
0.0425809
11
1.28661
21
0.0429322
0
LINE
8
BLACK
6
CONTINUOUS
10
1.28661
20
0.0429322
11
1.29149
21
0.0429322
0
LINE
8
BLACK
6
CONTINUOUS
10
1.29149
20
0.0429322
11
1.2924
21
0.0426861
0
LINE
8
BLACK
6
CONTINUOUS
10
1.24859
20
0.0640757
11
1.25076
21
0.0619142
0
LINE
8
BLACK
6
CONTINUOUS
10
1.25076
20
0.0619142
11
1.25155
21
0.0589614
0
LINE
8
BLACK
6
CONTINUOUS
10
1.25155
20
0.0589614
11
1.25076
21
0.0560087
0
LINE
8
BLACK
6
CONTINUOUS
10
1.25076
20
0.0560087
11
1.24859
21
0.0538471
0
LINE
8
BLACK
6
CONTINUOUS
10
1.24859
20
0.0538471
11
1.24564
21
0.0530559
0
LINE
8
BLACK
6
CONTINUOUS
10
1.24564
20
0.0530559
11
1.22108
21
0.0530559
0
LINE
8
BLACK
6
CONTINUOUS
10
1.22108
20
0.0530559
11
1.23352
21
0.0472525
0
LINE
8
BLACK
6
CONTINUOUS
10
1.23352
20
0.0472525
11
1.23391
21
0.0469176
0
LINE
8
BLACK
6
CONTINUOUS
10
1.23391
20
0.0469176
11
1.2344
21
0.0467396
0
LINE
8
BLACK
6
CONTINUOUS
10
1.2344
20
0.0467396
11
1.23507
21
0.04595
0
LINE
8
BLACK
6
CONTINUOUS
10
1.23507
20
0.04595
11
1.23586
21
0.0452869
0
LINE
8
BLACK
6
CONTINUOUS
10
1.23586
20
0.0452869
11
1.23604
21
0.0447974
0
LINE
8
BLACK
6
CONTINUOUS
10
1.23604
20
0.0447974
11
1.23637
21
0.0443984
0
LINE
8
BLACK
6
CONTINUOUS
10
1.23637
20
0.0443984
11
1.23655
21
0.0433831
0
LINE
8
BLACK
6
CONTINUOUS
10
1.23655
20
0.0433831
11
1.2369
21
0.042414
0
LINE
8
BLACK
6
CONTINUOUS
10
1.2369
20
0.042414
11
1.23681
21
0.041901
0
LINE
8
BLACK
6
CONTINUOUS
10
1.23681
20
0.041901
11
1.2369
21
0.0413881
0
LINE
8
BLACK
6
CONTINUOUS
10
1.2369
20
0.0413881
11
1.23655
21
0.0404193
0
LINE
8
BLACK
6
CONTINUOUS
10
1.23655
20
0.0404193
11
1.23637
21
0.0394037
0
LINE
8
BLACK
6
CONTINUOUS
10
1.23637
20
0.0394037
11
1.23604
21
0.0390047
0
LINE
8
BLACK
6
CONTINUOUS
10
1.23604
20
0.0390047
11
1.23586
21
0.0385152
0
LINE
8
BLACK
6
CONTINUOUS
10
1.23586
20
0.0385152
11
1.23507
21
0.0378524
0
LINE
8
BLACK
6
CONTINUOUS
10
1.23507
20
0.0378524
11
1.2344
21
0.0370626
0
LINE
8
BLACK
6
CONTINUOUS
10
1.2344
20
0.0370626
11
1.23391
21
0.0368845
0
LINE
8
BLACK
6
CONTINUOUS
10
1.23391
20
0.0368845
11
1.23352
21
0.0365496
0
LINE
8
BLACK
6
CONTINUOUS
10
1.23352
20
0.0365496
11
1.22108
21
0.0307462
0
LINE
8
BLACK
6
CONTINUOUS
10
1.22108
20
0.0307462
11
1.24564
21
0.0307462
0
LINE
8
BLACK
6
CONTINUOUS
10
1.24564
20
0.0307462
11
1.24859
21
0.029955
0
LINE
8
BLACK
6
CONTINUOUS
10
1.24859
20
0.029955
11
1.25076
21
0.0277934
0
LINE
8
BLACK
6
CONTINUOUS
10
1.25076
20
0.0277934
11
1.25155
21
0.0248407
0
LINE
8
BLACK
6
CONTINUOUS
10
1.25155
20
0.0248407
11
1.25076
21
0.0218879
0
LINE
8
BLACK
6
CONTINUOUS
10
1.25076
20
0.0218879
11
1.24859
21
0.0197263
0
LINE
8
BLACK
6
CONTINUOUS
10
1.24859
20
0.0197263
11
1.24564
21
0.0189352
0
LINE
8
BLACK
6
CONTINUOUS
10
1.24564
20
0.0189352
11
1.19446
21
0.0189352
0
LINE
8
BLACK
6
CONTINUOUS
10
1.19446
20
0.0189352
11
1.19421
21
0.0190032
0
LINE
8
BLACK
6
CONTINUOUS
10
1.19421
20
0.0190032
11
1.19395
21
0.0189575
0
LINE
8
BLACK
6
CONTINUOUS
10
1.19395
20
0.0189575
11
1.19274
21
0.019395
0
LINE
8
BLACK
6
CONTINUOUS
10
1.19274
20
0.019395
11
1.19151
21
0.0197263
0
LINE
8
BLACK
6
CONTINUOUS
10
1.19151
20
0.0197263
11
1.19132
21
0.0199123
0
LINE
8
BLACK
6
CONTINUOUS
10
1.19132
20
0.0199123
11
1.19107
21
0.0200022
0
LINE
8
BLACK
6
CONTINUOUS
10
1.19107
20
0.0200022
11
1.19025
21
0.0209825
0
LINE
8
BLACK
6
CONTINUOUS
10
1.19025
20
0.0209825
11
1.18935
21
0.0218879
0
LINE
8
BLACK
6
CONTINUOUS
10
1.18935
20
0.0218879
11
1.18928
21
0.022142
0
LINE
8
BLACK
6
CONTINUOUS
10
1.18928
20
0.022142
11
1.18911
21
0.0223433
0
LINE
8
BLACK
6
CONTINUOUS
10
1.18911
20
0.0223433
11
1.18889
21
0.0236039
0
LINE
8
BLACK
6
CONTINUOUS
10
1.18889
20
0.0236039
11
1.18856
21
0.0248407
0
LINE
8
BLACK
6
CONTINUOUS
10
1.18856
20
0.0248407
11
1.18862
21
0.0250947
0
LINE
8
BLACK
6
CONTINUOUS
10
1.18862
20
0.0250947
11
1.18858
21
0.0253536
0
LINE
8
BLACK
6
CONTINUOUS
10
1.18858
20
0.0253536
11
1.18902
21
0.0265567
0
LINE
8
BLACK
6
CONTINUOUS
10
1.18902
20
0.0265567
11
1.18935
21
0.0277934
0
LINE
8
BLACK
6
CONTINUOUS
10
1.18935
20
0.0277934
11
1.18953
21
0.0279794
0
LINE
8
BLACK
6
CONTINUOUS
10
1.18953
20
0.0279794
11
1.18962
21
0.0282265
0
LINE
8
BLACK
6
CONTINUOUS
10
1.18962
20
0.0282265
11
1.1906
21
0.0290496
0
LINE
8
BLACK
6
CONTINUOUS
10
1.1906
20
0.0290496
11
1.19151
21
0.029955
0
LINE
8
BLACK
6
CONTINUOUS
10
1.19151
20
0.029955
11
1.19176
21
0.0300231
0
LINE
8
BLACK
6
CONTINUOUS
10
1.19176
20
0.0300231
11
1.19196
21
0.0301921
0
LINE
8
BLACK
6
CONTINUOUS
10
1.19196
20
0.0301921
11
1.21705
21
0.0419011
0
LINE
8
BLACK
6
CONTINUOUS
10
1.21705
20
0.0419011
11
1.19196
21
0.0536099
0
LINE
8
BLACK
6
CONTINUOUS
10
1.19196
20
0.0536099
11
1.19176
21
0.0537791
0
LINE
8
BLACK
6
CONTINUOUS
10
1.19176
20
0.0537791
11
1.19151
21
0.0538471
0
LINE
8
BLACK
6
CONTINUOUS
10
1.19151
20
0.0538471
11
1.1906
21
0.0547524
0
LINE
8
BLACK
6
CONTINUOUS
10
1.1906
20
0.0547524
11
1.18962
21
0.0555756
0
LINE
8
BLACK
6
CONTINUOUS
10
1.18962
20
0.0555756
11
1.18953
21
0.0558227
0
LINE
8
BLACK
6
CONTINUOUS
10
1.18953
20
0.0558227
11
1.18935
21
0.0560087
0
LINE
8
BLACK
6
CONTINUOUS
10
1.18935
20
0.0560087
11
1.18902
21
0.0572454
0
LINE
8
BLACK
6
CONTINUOUS
10
1.18902
20
0.0572454
11
1.18858
21
0.0584485
0
LINE
8
BLACK
6
CONTINUOUS
10
1.18858
20
0.0584485
11
1.18862
21
0.0587074
0
LINE
8
BLACK
6
CONTINUOUS
10
1.18862
20
0.0587074
11
1.18856
21
0.0589614
0
LINE
8
BLACK
6
CONTINUOUS
10
1.18856
20
0.0589614
11
1.18889
21
0.060198
0
LINE
8
BLACK
6
CONTINUOUS
10
1.18889
20
0.060198
11
1.18911
21
0.0614588
0
LINE
8
BLACK
6
CONTINUOUS
10
1.18911
20
0.0614588
11
1.18928
21
0.0616602
0
LINE
8
BLACK
6
CONTINUOUS
10
1.18928
20
0.0616602
11
1.18935
21
0.0619142
0
LINE
8
BLACK
6
CONTINUOUS
10
1.18935
20
0.0619142
11
1.19025
21
0.0628195
0
LINE
8
BLACK
6
CONTINUOUS
10
1.19025
20
0.0628195
11
1.19107
21
0.0637999
0
LINE
8
BLACK
6
CONTINUOUS
10
1.19107
20
0.0637999
11
1.19132
21
0.0638898
0
LINE
8
BLACK
6
CONTINUOUS
10
1.19132
20
0.0638898
11
1.19151
21
0.0640757
0
LINE
8
BLACK
6
CONTINUOUS
10
1.19151
20
0.0640757
11
1.19274
21
0.0644072
0
LINE
8
BLACK
6
CONTINUOUS
10
1.19274
20
0.0644072
11
1.19395
21
0.0648446
0
LINE
8
BLACK
6
CONTINUOUS
10
1.19395
20
0.0648446
11
1.19421
21
0.0647989
0
LINE
8
BLACK
6
CONTINUOUS
10
1.19421
20
0.0647989
11
1.19446
21
0.0648669
0
LINE
8
BLACK
6
CONTINUOUS
10
1.19446
20
0.0648669
11
1.24564
21
0.0648669
0
LINE
8
BLACK
6
CONTINUOUS
10
1.24564
20
0.0648669
11
1.24859
21
0.0640757
0
LINE
8
BLACK
6
CONTINUOUS
10
1.31961
20
0.0913248
11
1.32094
21
0.0910526
0
LINE
8
BLACK
6
CONTINUOUS
10
1.32094
20
0.0910526
11
1.32581
21
0.0886154
0
LINE
8
BLACK
6
CONTINUOUS
10
1.32581
20
0.0886154
11
1.32652
21
0.0879846
0
LINE
8
BLACK
6
CONTINUOUS
10
1.32652
20
0.0879846
11
1.32734
21
0.0875092
0
LINE
8
BLACK
6
CONTINUOUS
10
1.32734
20
0.0875092
11
1.32978
21
0.085072
0
LINE
8
BLACK
6
CONTINUOUS
10
1.32978
20
0.085072
11
1.33026
21
0.0842486
0
LINE
8
BLACK
6
CONTINUOUS
10
1.33026
20
0.0842486
11
1.33089
21
0.0835372
0
LINE
8
BLACK
6
CONTINUOUS
10
1.33089
20
0.0835372
11
1.33333
21
0.0786628
0
LINE
8
BLACK
6
CONTINUOUS
10
1.33333
20
0.0786628
11
1.3336
21
0.0773331
0
LINE
8
BLACK
6
CONTINUOUS
10
1.3336
20
0.0773331
11
1.33395
21
0.0760218
0
LINE
8
BLACK
6
CONTINUOUS
10
1.33395
20
0.0760218
11
1.33395
21
0.0613986
0
LINE
8
BLACK
6
CONTINUOUS
10
1.33395
20
0.0613986
11
1.3336
21
0.0600872
0
LINE
8
BLACK
6
CONTINUOUS
10
1.3336
20
0.0600872
11
1.33333
21
0.0587576
0
LINE
8
BLACK
6
CONTINUOUS
10
1.33333
20
0.0587576
11
1.33089
21
0.0538832
0
LINE
8
BLACK
6
CONTINUOUS
10
1.33089
20
0.0538832
11
1.33026
21
0.0531718
0
LINE
8
BLACK
6
CONTINUOUS
10
1.33026
20
0.0531718
11
1.32978
21
0.0523484
0
LINE
8
BLACK
6
CONTINUOUS
10
1.32978
20
0.0523484
11
1.32734
21
0.0499112
0
LINE
8
BLACK
6
CONTINUOUS
10
1.32734
20
0.0499112
11
1.3247
21
0.0483827
0
LINE
8
BLACK
6
CONTINUOUS
10
1.3247
20
0.0483827
11
1.32164
21
0.0483827
0
LINE
8
BLACK
6
CONTINUOUS
10
1.32164
20
0.0483827
11
1.31899
21
0.0499112
0
LINE
8
BLACK
6
CONTINUOUS
10
1.31899
20
0.0499112
11
1.31746
21
0.0525585
0
LINE
8
BLACK
6
CONTINUOUS
10
1.31746
20
0.0525585
11
1.31746
21
0.0556155
0
LINE
8
BLACK
6
CONTINUOUS
10
1.31746
20
0.0556155
11
1.31899
21
0.0582628
0
LINE
8
BLACK
6
CONTINUOUS
10
1.31899
20
0.0582628
11
1.32075
21
0.0600224
0
LINE
8
BLACK
6
CONTINUOUS
10
1.32075
20
0.0600224
11
1.32214
21
0.0627927
0
LINE
8
BLACK
6
CONTINUOUS
10
1.32214
20
0.0627927
11
1.32214
21
0.0746277
0
LINE
8
BLACK
6
CONTINUOUS
10
1.32214
20
0.0746277
11
1.32075
21
0.077398
0
LINE
8
BLACK
6
CONTINUOUS
10
1.32075
20
0.077398
11
1.31967
21
0.0784799
0
LINE
8
BLACK
6
CONTINUOUS
10
1.31967
20
0.0784799
11
1.3169
21
0.079865
0
LINE
8
BLACK
6
CONTINUOUS
10
1.3169
20
0.079865
11
1.3075
21
0.079865
0
LINE
8
BLACK
6
CONTINUOUS
10
1.3075
20
0.079865
11
1.30473
21
0.0784799
0
LINE
8
BLACK
6
CONTINUOUS
10
1.30473
20
0.0784799
11
1.30365
21
0.077398
0
LINE
8
BLACK
6
CONTINUOUS
10
1.30365
20
0.077398
11
1.30227
21
0.0746277
0
LINE
8
BLACK
6
CONTINUOUS
10
1.30227
20
0.0746277
11
1.30227
21
0.0687102
0
LINE
8
BLACK
6
CONTINUOUS
10
1.30227
20
0.0687102
11
1.30211
21
0.0681467
0
LINE
8
BLACK
6
CONTINUOUS
10
1.30211
20
0.0681467
11
1.30215
21
0.0675645
0
LINE
8
BLACK
6
CONTINUOUS
10
1.30215
20
0.0675645
11
1.30173
21
0.0666942
0
LINE
8
BLACK
6
CONTINUOUS
10
1.30173
20
0.0666942
11
1.30147
21
0.0657574
0
LINE
8
BLACK
6
CONTINUOUS
10
1.30147
20
0.0657574
11
1.30106
21
0.0653449
0
LINE
8
BLACK
6
CONTINUOUS
10
1.30106
20
0.0653449
11
1.3008
21
0.0648213
0
LINE
8
BLACK
6
CONTINUOUS
10
1.3008
20
0.0648213
11
1.3
21
0.0642817
0
LINE
8
BLACK
6
CONTINUOUS
10
1.3
20
0.0642817
11
1.29931
21
0.0635958
0
LINE
8
BLACK
6
CONTINUOUS
10
1.29931
20
0.0635958
11
1.29875
21
0.0634449
0
LINE
8
BLACK
6
CONTINUOUS
10
1.29875
20
0.0634449
11
1.29826
21
0.0631202
0
LINE
8
BLACK
6
CONTINUOUS
10
1.29826
20
0.0631202
11
1.2973
21
0.0630557
0
LINE
8
BLACK
6
CONTINUOUS
10
1.2973
20
0.0630557
11
1.29636
21
0.0628046
0
LINE
8
BLACK
6
CONTINUOUS
10
1.29636
20
0.0628046
11
1.2958
21
0.0629556
0
LINE
8
BLACK
6
CONTINUOUS
10
1.2958
20
0.0629556
11
1.29521
21
0.0629168
0
LINE
8
BLACK
6
CONTINUOUS
10
1.29521
20
0.0629168
11
1.29434
21
0.0633448
0
LINE
8
BLACK
6
CONTINUOUS
10
1.29434
20
0.0633448
11
1.29341
21
0.0635958
0
LINE
8
BLACK
6
CONTINUOUS
10
1.29341
20
0.0635958
11
1.29299
21
0.0640084
0
LINE
8
BLACK
6
CONTINUOUS
10
1.29299
20
0.0640084
11
1.29247
21
0.0642658
0
LINE
8
BLACK
6
CONTINUOUS
10
1.29247
20
0.0642658
11
1.28277
21
0.0727562
0
LINE
8
BLACK
6
CONTINUOUS
10
1.28277
20
0.0727562
11
1.28277
21
0.054087
0
LINE
8
BLACK
6
CONTINUOUS
10
1.28277
20
0.054087
11
1.28198
21
0.0511343
0
LINE
8
BLACK
6
CONTINUOUS
10
1.28198
20
0.0511343
11
1.27982
21
0.0489727
0
LINE
8
BLACK
6
CONTINUOUS
10
1.27982
20
0.0489727
11
1.27686
21
0.0481815
0
LINE
8
BLACK
6
CONTINUOUS
10
1.27686
20
0.0481815
11
1.27391
21
0.0489727
0
LINE
8
BLACK
6
CONTINUOUS
10
1.27391
20
0.0489727
11
1.27175
21
0.0511343
0
LINE
8
BLACK
6
CONTINUOUS
10
1.27175
20
0.0511343
11
1.27096
21
0.054087
0
LINE
8
BLACK
6
CONTINUOUS
10
1.27096
20
0.054087
11
1.27096
21
0.0857706
0
LINE
8
BLACK
6
CONTINUOUS
10
1.27096
20
0.0857706
11
1.27111
21
0.086334
0
LINE
8
BLACK
6
CONTINUOUS
10
1.27111
20
0.086334
11
1.27107
21
0.0869162
0
LINE
8
BLACK
6
CONTINUOUS
10
1.27107
20
0.0869162
11
1.2715
21
0.0877865
0
LINE
8
BLACK
6
CONTINUOUS
10
1.2715
20
0.0877865
11
1.27175
21
0.0887233
0
LINE
8
BLACK
6
CONTINUOUS
10
1.27175
20
0.0887233
11
1.27216
21
0.0891359
0
LINE
8
BLACK
6
CONTINUOUS
10
1.27216
20
0.0891359
11
1.27242
21
0.0896594
0
LINE
8
BLACK
6
CONTINUOUS
10
1.27242
20
0.0896594
11
1.27322
21
0.0901991
0
LINE
8
BLACK
6
CONTINUOUS
10
1.27322
20
0.0901991
11
1.27391
21
0.0908849
0
LINE
8
BLACK
6
CONTINUOUS
10
1.27391
20
0.0908849
11
1.27447
21
0.0910359
0
LINE
8
BLACK
6
CONTINUOUS
10
1.27447
20
0.0910359
11
1.27496
21
0.0913606
0
LINE
8
BLACK
6
CONTINUOUS
10
1.27496
20
0.0913606
11
1.27593
21
0.0914251
0
LINE
8
BLACK
6
CONTINUOUS
10
1.27593
20
0.0914251
11
1.27686
21
0.0916761
0
LINE
8
BLACK
6
CONTINUOUS
10
1.27686
20
0.0916761
11
1.27743
21
0.0915251
0
LINE
8
BLACK
6
CONTINUOUS
10
1.27743
20
0.0915251
11
1.27801
21
0.0915639
0
LINE
8
BLACK
6
CONTINUOUS
10
1.27801
20
0.0915639
11
1.27888
21
0.0911359
0
LINE
8
BLACK
6
CONTINUOUS
10
1.27888
20
0.0911359
11
1.27982
21
0.0908849
0
LINE
8
BLACK
6
CONTINUOUS
10
1.27982
20
0.0908849
11
1.28023
21
0.0904724
0
LINE
8
BLACK
6
CONTINUOUS
10
1.28023
20
0.0904724
11
1.28075
21
0.0902149
0
LINE
8
BLACK
6
CONTINUOUS
10
1.28075
20
0.0902149
11
1.29195
21
0.0804132
0
LINE
8
BLACK
6
CONTINUOUS
10
1.29195
20
0.0804132
11
1.29352
21
0.0835372
0
LINE
8
BLACK
6
CONTINUOUS
10
1.29352
20
0.0835372
11
1.29415
21
0.0842486
0
LINE
8
BLACK
6
CONTINUOUS
10
1.29415
20
0.0842486
11
1.29462
21
0.085072
0
LINE
8
BLACK
6
CONTINUOUS
10
1.29462
20
0.085072
11
1.29706
21
0.0875092
0
LINE
8
BLACK
6
CONTINUOUS
10
1.29706
20
0.0875092
11
1.29788
21
0.0879846
0
LINE
8
BLACK
6
CONTINUOUS
10
1.29788
20
0.0879846
11
1.29859
21
0.0886154
0
LINE
8
BLACK
6
CONTINUOUS
10
1.29859
20
0.0886154
11
1.30347
21
0.0910526
0
LINE
8
BLACK
6
CONTINUOUS
10
1.30347
20
0.0910526
11
1.3048
21
0.0913248
0
LINE
8
BLACK
6
CONTINUOUS
10
1.3048
20
0.0913248
11
1.30611
21
0.0916761
0
LINE
8
BLACK
6
CONTINUOUS
10
1.30611
20
0.0916761
11
1.31829
21
0.0916761
0
LINE
8
BLACK
6
CONTINUOUS
10
1.31829
20
0.0916761
11
1.31961
21
0.0913248
0
LINE
8
BLACK
6
CONTINUOUS
10
1.24859
20
0.0884477
11
1.25076
21
0.0862861
0
LINE
8
BLACK
6
CONTINUOUS
10
1.25076
20
0.0862861
11
1.25155
21
0.0833333
0
LINE
8
BLACK
6
CONTINUOUS
10
1.25155
20
0.0833333
11
1.25076
21
0.0803806
0
LINE
8
BLACK
6
CONTINUOUS
10
1.25076
20
0.0803806
11
1.24859
21
0.078219
0
LINE
8
BLACK
6
CONTINUOUS
10
1.24859
20
0.078219
11
1.24564
21
0.0774278
0
LINE
8
BLACK
6
CONTINUOUS
10
1.24564
20
0.0774278
11
1.19446
21
0.0774278
0
LINE
8
BLACK
6
CONTINUOUS
10
1.19446
20
0.0774278
11
1.19151
21
0.078219
0
LINE
8
BLACK
6
CONTINUOUS
10
1.19151
20
0.078219
11
1.18935
21
0.0803806
0
LINE
8
BLACK
6
CONTINUOUS
10
1.18935
20
0.0803806
11
1.18856
21
0.0833333
0
LINE
8
BLACK
6
CONTINUOUS
10
1.18856
20
0.0833333
11
1.18935
21
0.0862861
0
LINE
8
BLACK
6
CONTINUOUS
10
1.18935
20
0.0862861
11
1.19151
21
0.0884477
0
LINE
8
BLACK
6
CONTINUOUS
10
1.19151
20
0.0884477
11
1.19446
21
0.0892389
0
LINE
8
BLACK
6
CONTINUOUS
10
1.19446
20
0.0892389
11
1.24564
21
0.0892389
0
LINE
8
BLACK
6
CONTINUOUS
10
1.24564
20
0.0892389
11
1.24859
21
0.0884477
0
LINE
8
BLACK
6
CONTINUOUS
10
1.24859
20
0.137192
11
1.25076
21
0.13503
0
LINE
8
BLACK
6
CONTINUOUS
10
1.25076
20
0.13503
11
1.25155
21
0.132077
0
LINE
8
BLACK
6
CONTINUOUS
10
1.25155
20
0.132077
11
1.25155
21
0.107705
0
LINE
8
BLACK
6
CONTINUOUS
10
1.25155
20
0.107705
11
1.25076
21
0.104753
0
LINE
8
BLACK
6
CONTINUOUS
10
1.25076
20
0.104753
11
1.24859
21
0.102591
0
LINE
8
BLACK
6
CONTINUOUS
10
1.24859
20
0.102591
11
1.24564
21
0.1018
0
LINE
8
BLACK
6
CONTINUOUS
10
1.24564
20
0.1018
11
1.19446
21
0.1018
0
LINE
8
BLACK
6
CONTINUOUS
10
1.19446
20
0.1018
11
1.19151
21
0.102591
0
LINE
8
BLACK
6
CONTINUOUS
10
1.19151
20
0.102591
11
1.18935
21
0.104753
0
LINE
8
BLACK
6
CONTINUOUS
10
1.18935
20
0.104753
11
1.18856
21
0.107705
0
LINE
8
BLACK
6
CONTINUOUS
10
1.18856
20
0.107705
11
1.18935
21
0.110658
0
LINE
8
BLACK
6
CONTINUOUS
10
1.18935
20
0.110658
11
1.19151
21
0.11282
0
LINE
8
BLACK
6
CONTINUOUS
10
1.19151
20
0.11282
11
1.19446
21
0.113611
0
LINE
8
BLACK
6
CONTINUOUS
10
1.19446
20
0.113611
11
1.23974
21
0.113611
0
LINE
8
BLACK
6
CONTINUOUS
10
1.23974
20
0.113611
11
1.23974
21
0.132077
0
LINE
8
BLACK
6
CONTINUOUS
10
1.23974
20
0.132077
11
1.24053
21
0.13503
0
LINE
8
BLACK
6
CONTINUOUS
10
1.24053
20
0.13503
11
1.24269
21
0.137192
0
LINE
8
BLACK
6
CONTINUOUS
10
1.24269
20
0.137192
11
1.24564
21
0.137983
0
LINE
8
BLACK
6
CONTINUOUS
10
1.24564
20
0.137983
11
1.24859
21
0.137192
0
LINE
8
BLACK
6
CONTINUOUS
10
1.24859
20
0.178624
11
1.25076
21
0.176462
0
LINE
8
BLACK
6
CONTINUOUS
10
1.25076
20
0.176462
11
1.25155
21
0.17351
0
LINE
8
BLACK
6
CONTINUOUS
10
1.25155
20
0.17351
11
1.25155
21
0.149138
0
LINE
8
BLACK
6
CONTINUOUS
10
1.25155
20
0.149138
11
1.25076
21
0.146185
0
LINE
8
BLACK
6
CONTINUOUS
10
1.25076
20
0.146185
11
1.24859
21
0.144023
0
LINE
8
BLACK
6
CONTINUOUS
10
1.24859
20
0.144023
11
1.24564
21
0.143232
0
LINE
8
BLACK
6
CONTINUOUS
10
1.24564
20
0.143232
11
1.19446
21
0.143232
0
LINE
8
BLACK
6
CONTINUOUS
10
1.19446
20
0.143232
11
1.19151
21
0.144023
0
LINE
8
BLACK
6
CONTINUOUS
10
1.19151
20
0.144023
11
1.18935
21
0.146185
0
LINE
8
BLACK
6
CONTINUOUS
10
1.18935
20
0.146185
11
1.18856
21
0.149138
0
LINE
8
BLACK
6
CONTINUOUS
10
1.18856
20
0.149138
11
1.18935
21
0.15209
0
LINE
8
BLACK
6
CONTINUOUS
10
1.18935
20
0.15209
11
1.19151
21
0.154252
0
LINE
8
BLACK
6
CONTINUOUS
10
1.19151
20
0.154252
11
1.19446
21
0.155043
0
LINE
8
BLACK
6
CONTINUOUS
10
1.19446
20
0.155043
11
1.23974
21
0.155043
0
LINE
8
BLACK
6
CONTINUOUS
10
1.23974
20
0.155043
11
1.23974
21
0.17351
0
LINE
8
BLACK
6
CONTINUOUS
10
1.23974
20
0.17351
11
1.24053
21
0.176462
0
LINE
8
BLACK
6
CONTINUOUS
10
1.24053
20
0.176462
11
1.24269
21
0.178624
0
LINE
8
BLACK
6
CONTINUOUS
10
1.24269
20
0.178624
11
1.24564
21
0.179415
0
LINE
8
BLACK
6
CONTINUOUS
10
1.24564
20
0.179415
11
1.24859
21
0.178624
0
LINE
8
BLACK
6
CONTINUOUS
10
1.21283
20
0.225371
11
1.21416
21
0.225098
0
LINE
8
BLACK
6
CONTINUOUS
10
1.21416
20
0.225098
11
1.21904
21
0.222661
0
LINE
8
BLACK
6
CONTINUOUS
10
1.21904
20
0.222661
11
1.21975
21
0.22203
0
LINE
8
BLACK
6
CONTINUOUS
10
1.21975
20
0.22203
11
1.22057
21
0.221555
0
LINE
8
BLACK
6
CONTINUOUS
10
1.22057
20
0.221555
11
1.22301
21
0.219118
0
LINE
8
BLACK
6
CONTINUOUS
10
1.22301
20
0.219118
11
1.22348
21
0.218294
0
LINE
8
BLACK
6
CONTINUOUS
10
1.22348
20
0.218294
11
1.22411
21
0.217583
0
LINE
8
BLACK
6
CONTINUOUS
10
1.22411
20
0.217583
11
1.22655
21
0.212709
0
LINE
8
BLACK
6
CONTINUOUS
10
1.22655
20
0.212709
11
1.22682
21
0.211379
0
LINE
8
BLACK
6
CONTINUOUS
10
1.22682
20
0.211379
11
1.22718
21
0.210068
0
LINE
8
BLACK
6
CONTINUOUS
10
1.22718
20
0.210068
11
1.22718
21
0.196475
0
LINE
8
BLACK
6
CONTINUOUS
10
1.22718
20
0.196475
11
1.24564
21
0.196475
0
LINE
8
BLACK
6
CONTINUOUS
10
1.24564
20
0.196475
11
1.24859
21
0.195684
0
LINE
8
BLACK
6
CONTINUOUS
10
1.24859
20
0.195684
11
1.25076
21
0.193523
0
LINE
8
BLACK
6
CONTINUOUS
10
1.25076
20
0.193523
11
1.25155
21
0.19057
0
LINE
8
BLACK
6
CONTINUOUS
10
1.25155
20
0.19057
11
1.25076
21
0.187617
0
LINE
8
BLACK
6
CONTINUOUS
10
1.25076
20
0.187617
11
1.24859
21
0.185456
0
LINE
8
BLACK
6
CONTINUOUS
10
1.24859
20
0.185456
11
1.24564
21
0.184664
0
LINE
8
BLACK
6
CONTINUOUS
10
1.24564
20
0.184664
11
1.22127
21
0.184664
0
LINE
8
BLACK
6
CONTINUOUS
10
1.22127
20
0.184664
11
1.19446
21
0.184664
0
LINE
8
BLACK
6
CONTINUOUS
10
1.19446
20
0.184664
11
1.19151
21
0.185456
0
LINE
8
BLACK
6
CONTINUOUS
10
1.19151
20
0.185456
11
1.18935
21
0.187617
0
LINE
8
BLACK
6
CONTINUOUS
10
1.18935
20
0.187617
11
1.18856
21
0.19057
0
LINE
8
BLACK
6
CONTINUOUS
10
1.18856
20
0.19057
11
1.18856
21
0.19057
0
LINE
8
BLACK
6
CONTINUOUS
10
1.18856
20
0.19057
11
1.18856
21
0.210068
0
LINE
8
BLACK
6
CONTINUOUS
10
1.18856
20
0.210068
11
1.18891
21
0.211379
0
LINE
8
BLACK
6
CONTINUOUS
10
1.18891
20
0.211379
11
1.18918
21
0.212709
0
LINE
8
BLACK
6
CONTINUOUS
10
1.18918
20
0.212709
11
1.19162
21
0.217583
0
LINE
8
BLACK
6
CONTINUOUS
10
1.19162
20
0.217583
11
1.19225
21
0.218294
0
LINE
8
BLACK
6
CONTINUOUS
10
1.19225
20
0.218294
11
1.19272
21
0.219118
0
LINE
8
BLACK
6
CONTINUOUS
10
1.19272
20
0.219118
11
1.19516
21
0.221555
0
LINE
8
BLACK
6
CONTINUOUS
10
1.19516
20
0.221555
11
1.19598
21
0.22203
0
LINE
8
BLACK
6
CONTINUOUS
10
1.19598
20
0.22203
11
1.19669
21
0.222661
0
LINE
8
BLACK
6
CONTINUOUS
10
1.19669
20
0.222661
11
1.20157
21
0.225098
0
LINE
8
BLACK
6
CONTINUOUS
10
1.20157
20
0.225098
11
1.2029
21
0.22537
0
LINE
8
BLACK
6
CONTINUOUS
10
1.2029
20
0.22537
11
1.20421
21
0.225722
0
LINE
8
BLACK
6
CONTINUOUS
10
1.20421
20
0.225722
11
1.21152
21
0.225722
0
LINE
8
BLACK
6
CONTINUOUS
10
1.21152
20
0.225722
11
1.21283
21
0.225371
0
LINE
8
BLACK
6
CONTINUOUS
10
1.20283
20
0.212526
11
1.20175
21
0.211444
0
LINE
8
BLACK
6
CONTINUOUS
10
1.20175
20
0.211444
11
1.20037
21
0.208673
0
LINE
8
BLACK
6
CONTINUOUS
10
1.20037
20
0.208673
11
1.20037
21
0.196475
0
LINE
8
BLACK
6
CONTINUOUS
10
1.20037
20
0.196475
11
1.21536
21
0.196475
0
LINE
8
BLACK
6
CONTINUOUS
10
1.21536
20
0.196475
11
1.21536
21
0.208673
0
LINE
8
BLACK
6
CONTINUOUS
10
1.21536
20
0.208673
11
1.21398
21
0.211444
0
LINE
8
BLACK
6
CONTINUOUS
10
1.21398
20
0.211444
11
1.2129
21
0.212526
0
LINE
8
BLACK
6
CONTINUOUS
10
1.2129
20
0.212526
11
1.21013
21
0.213911
0
LINE
8
BLACK
6
CONTINUOUS
10
1.21013
20
0.213911
11
1.2056
21
0.213911
0
LINE
8
BLACK
6
CONTINUOUS
10
1.2056
20
0.213911
11
1.20283
21
0.212526
0
LINE
8
BLACK
6
CONTINUOUS
10
1.20351
20
0.275173
11
1.20504
21
0.272526
0
LINE
8
BLACK
6
CONTINUOUS
10
1.20504
20
0.272526
11
1.20504
21
0.269469
0
LINE
8
BLACK
6
CONTINUOUS
10
1.20504
20
0.269469
11
1.20351
21
0.266822
0
LINE
8
BLACK
6
CONTINUOUS
10
1.20351
20
0.266822
11
1.20206
21
0.26537
0
LINE
8
BLACK
6
CONTINUOUS
10
1.20206
20
0.26537
11
1.20037
21
0.26029
0
LINE
8
BLACK
6
CONTINUOUS
10
1.20037
20
0.26029
11
1.20037
21
0.257333
0
LINE
8
BLACK
6
CONTINUOUS
10
1.20037
20
0.257333
11
1.20206
21
0.252253
0
LINE
8
BLACK
6
CONTINUOUS
10
1.20206
20
0.252253
11
1.20527
21
0.249042
0
LINE
8
BLACK
6
CONTINUOUS
10
1.20527
20
0.249042
11
1.20871
21
0.247323
0
LINE
8
BLACK
6
CONTINUOUS
10
1.20871
20
0.247323
11
1.21712
21
0.245219
0
LINE
8
BLACK
6
CONTINUOUS
10
1.21712
20
0.245219
11
1.22298
21
0.245219
0
LINE
8
BLACK
6
CONTINUOUS
10
1.22298
20
0.245219
11
1.23139
21
0.247323
0
LINE
8
BLACK
6
CONTINUOUS
10
1.23139
20
0.247323
11
1.23483
21
0.249042
0
LINE
8
BLACK
6
CONTINUOUS
10
1.23483
20
0.249042
11
1.23804
21
0.252253
0
LINE
8
BLACK
6
CONTINUOUS
10
1.23804
20
0.252253
11
1.23974
21
0.257333
0
LINE
8
BLACK
6
CONTINUOUS
10
1.23974
20
0.257333
11
1.23974
21
0.26029
0
LINE
8
BLACK
6
CONTINUOUS
10
1.23974
20
0.26029
11
1.23804
21
0.26537
0
LINE
8
BLACK
6
CONTINUOUS
10
1.23804
20
0.26537
11
1.23659
21
0.266822
0
LINE
8
BLACK
6
CONTINUOUS
10
1.23659
20
0.266822
11
1.23506
21
0.269469
0
LINE
8
BLACK
6
CONTINUOUS
10
1.23506
20
0.269469
11
1.23506
21
0.272526
0
LINE
8
BLACK
6
CONTINUOUS
10
1.23506
20
0.272526
11
1.23659
21
0.275173
0
LINE
8
BLACK
6
CONTINUOUS
10
1.23659
20
0.275173
11
1.23924
21
0.276702
0
LINE
8
BLACK
6
CONTINUOUS
10
1.23924
20
0.276702
11
1.2423
21
0.276702
0
LINE
8
BLACK
6
CONTINUOUS
10
1.2423
20
0.276702
11
1.24494
21
0.275173
0
LINE
8
BLACK
6
CONTINUOUS
10
1.24494
20
0.275173
11
1.24738
21
0.272736
0
LINE
8
BLACK
6
CONTINUOUS
10
1.24738
20
0.272736
11
1.24806
21
0.27156
0
LINE
8
BLACK
6
CONTINUOUS
10
1.24806
20
0.27156
11
1.24881
21
0.270428
0
LINE
8
BLACK
6
CONTINUOUS
10
1.24881
20
0.270428
11
1.25124
21
0.263116
0
LINE
8
BLACK
6
CONTINUOUS
10
1.25124
20
0.263116
11
1.2513
21
0.262167
0
LINE
8
BLACK
6
CONTINUOUS
10
1.2513
20
0.262167
11
1.25155
21
0.261249
0
LINE
8
BLACK
6
CONTINUOUS
10
1.25155
20
0.261249
11
1.25155
21
0.256374
0
LINE
8
BLACK
6
CONTINUOUS
10
1.25155
20
0.256374
11
1.2513
21
0.255456
0
LINE
8
BLACK
6
CONTINUOUS
10
1.2513
20
0.255456
11
1.25124
21
0.254507
0
LINE
8
BLACK
6
CONTINUOUS
10
1.25124
20
0.254507
11
1.24881
21
0.247195
0
LINE
8
BLACK
6
CONTINUOUS
10
1.24881
20
0.247195
11
1.24806
21
0.246062
0
LINE
8
BLACK
6
CONTINUOUS
10
1.24806
20
0.246062
11
1.24738
21
0.244887
0
LINE
8
BLACK
6
CONTINUOUS
10
1.24738
20
0.244887
11
1.24251
21
0.240012
0
LINE
8
BLACK
6
CONTINUOUS
10
1.24251
20
0.240012
11
1.24168
21
0.239537
0
LINE
8
BLACK
6
CONTINUOUS
10
1.24168
20
0.239537
11
1.24097
21
0.238906
0
LINE
8
BLACK
6
CONTINUOUS
10
1.24097
20
0.238906
11
1.2361
21
0.236469
0
LINE
8
BLACK
6
CONTINUOUS
10
1.2361
20
0.236469
11
1.23546
21
0.236338
0
LINE
8
BLACK
6
CONTINUOUS
10
1.23546
20
0.236338
11
1.23489
21
0.236022
0
LINE
8
BLACK
6
CONTINUOUS
10
1.23489
20
0.236022
11
1.22514
21
0.233585
0
LINE
8
BLACK
6
CONTINUOUS
10
1.22514
20
0.233585
11
1.22441
21
0.233597
0
LINE
8
BLACK
6
CONTINUOUS
10
1.22441
20
0.233597
11
1.22371
21
0.233408
0
LINE
8
BLACK
6
CONTINUOUS
10
1.22371
20
0.233408
11
1.2164
21
0.233408
0
LINE
8
BLACK
6
CONTINUOUS
10
1.2164
20
0.233408
11
1.21569
21
0.233597
0
LINE
8
BLACK
6
CONTINUOUS
10
1.21569
20
0.233597
11
1.21496
21
0.233585
0
LINE
8
BLACK
6
CONTINUOUS
10
1.21496
20
0.233585
11
1.20521
21
0.236022
0
LINE
8
BLACK
6
CONTINUOUS
10
1.20521
20
0.236022
11
1.20464
21
0.236338
0
LINE
8
BLACK
6
CONTINUOUS
10
1.20464
20
0.236338
11
1.20401
21
0.236469
0
LINE
8
BLACK
6
CONTINUOUS
10
1.20401
20
0.236469
11
1.19913
21
0.238906
0
LINE
8
BLACK
6
CONTINUOUS
10
1.19913
20
0.238906
11
1.19842
21
0.239537
0
LINE
8
BLACK
6
CONTINUOUS
10
1.19842
20
0.239537
11
1.1976
21
0.240012
0
LINE
8
BLACK
6
CONTINUOUS
10
1.1976
20
0.240012
11
1.19272
21
0.244887
0
LINE
8
BLACK
6
CONTINUOUS
10
1.19272
20
0.244887
11
1.19204
21
0.246062
0
LINE
8
BLACK
6
CONTINUOUS
10
1.19204
20
0.246062
11
1.1913
21
0.247195
0
LINE
8
BLACK
6
CONTINUOUS
10
1.1913
20
0.247195
11
1.18886
21
0.254507
0
LINE
8
BLACK
6
CONTINUOUS
10
1.18886
20
0.254507
11
1.1888
21
0.255456
0
LINE
8
BLACK
6
CONTINUOUS
10
1.1888
20
0.255456
11
1.18856
21
0.256374
0
LINE
8
BLACK
6
CONTINUOUS
10
1.18856
20
0.256374
11
1.18856
21
0.261249
0
LINE
8
BLACK
6
CONTINUOUS
10
1.18856
20
0.261249
11
1.1888
21
0.262167
0
LINE
8
BLACK
6
CONTINUOUS
10
1.1888
20
0.262167
11
1.18886
21
0.263116
0
LINE
8
BLACK
6
CONTINUOUS
10
1.18886
20
0.263116
11
1.1913
21
0.270428
0
LINE
8
BLACK
6
CONTINUOUS
10
1.1913
20
0.270428
11
1.19204
21
0.271561
0
LINE
8
BLACK
6
CONTINUOUS
10
1.19204
20
0.271561
11
1.19272
21
0.272736
0
LINE
8
BLACK
6
CONTINUOUS
10
1.19272
20
0.272736
11
1.19516
21
0.275173
0
LINE
8
BLACK
6
CONTINUOUS
10
1.19516
20
0.275173
11
1.19781
21
0.276702
0
LINE
8
BLACK
6
CONTINUOUS
10
1.19781
20
0.276702
11
1.20086
21
0.276702
0
LINE
8
BLACK
6
CONTINUOUS
10
1.20086
20
0.276702
11
1.20351
21
0.275173
0
LINE
8
BLACK
6
CONTINUOUS
10
1.2372
20
0.327733
11
1.23853
21
0.327461
0
LINE
8
BLACK
6
CONTINUOUS
10
1.23853
20
0.327461
11
1.24341
21
0.325023
0
LINE
8
BLACK
6
CONTINUOUS
10
1.24341
20
0.325023
11
1.24412
21
0.324393
0
LINE
8
BLACK
6
CONTINUOUS
10
1.24412
20
0.324393
11
1.24494
21
0.323917
0
LINE
8
BLACK
6
CONTINUOUS
10
1.24494
20
0.323917
11
1.24738
21
0.32148
0
LINE
8
BLACK
6
CONTINUOUS
10
1.24738
20
0.32148
11
1.24786
21
0.320657
0
LINE
8
BLACK
6
CONTINUOUS
10
1.24786
20
0.320657
11
1.24849
21
0.319945
0
LINE
8
BLACK
6
CONTINUOUS
10
1.24849
20
0.319945
11
1.25092
21
0.315071
0
LINE
8
BLACK
6
CONTINUOUS
10
1.25092
20
0.315071
11
1.2512
21
0.313741
0
LINE
8
BLACK
6
CONTINUOUS
10
1.2512
20
0.313741
11
1.25155
21
0.31243
0
LINE
8
BLACK
6
CONTINUOUS
10
1.25155
20
0.31243
11
1.25155
21
0.292932
0
LINE
8
BLACK
6
CONTINUOUS
10
1.25155
20
0.292932
11
1.25076
21
0.289979
0
LINE
8
BLACK
6
CONTINUOUS
10
1.25076
20
0.289979
11
1.24859
21
0.287818
0
LINE
8
BLACK
6
CONTINUOUS
10
1.24859
20
0.287818
11
1.24564
21
0.287027
0
LINE
8
BLACK
6
CONTINUOUS
10
1.24564
20
0.287027
11
1.21883
21
0.287027
0
LINE
8
BLACK
6
CONTINUOUS
10
1.21883
20
0.287027
11
1.19446
21
0.287027
0
LINE
8
BLACK
6
CONTINUOUS
10
1.19446
20
0.287027
11
1.19151
21
0.287818
0
LINE
8
BLACK
6
CONTINUOUS
10
1.19151
20
0.287818
11
1.18935
21
0.289979
0
LINE
8
BLACK
6
CONTINUOUS
10
1.18935
20
0.289979
11
1.18856
21
0.292932
0
LINE
8
BLACK
6
CONTINUOUS
10
1.18856
20
0.292932
11
1.18856
21
0.292932
0
LINE
8
BLACK
6
CONTINUOUS
10
1.18856
20
0.292932
11
1.18856
21
0.309993
0
LINE
8
BLACK
6
CONTINUOUS
10
1.18856
20
0.309993
11
1.18891
21
0.311304
0
LINE
8
BLACK
6
CONTINUOUS
10
1.18891
20
0.311304
11
1.18918
21
0.312634
0
LINE
8
BLACK
6
CONTINUOUS
10
1.18918
20
0.312634
11
1.19162
21
0.317508
0
LINE
8
BLACK
6
CONTINUOUS
10
1.19162
20
0.317508
11
1.19225
21
0.318219
0
LINE
8
BLACK
6
CONTINUOUS
10
1.19225
20
0.318219
11
1.19272
21
0.319043
0
LINE
8
BLACK
6
CONTINUOUS
10
1.19272
20
0.319043
11
1.19516
21
0.32148
0
LINE
8
BLACK
6
CONTINUOUS
10
1.19516
20
0.32148
11
1.19598
21
0.321955
0
LINE
8
BLACK
6
CONTINUOUS
10
1.19598
20
0.321955
11
1.19669
21
0.322586
0
LINE
8
BLACK
6
CONTINUOUS
10
1.19669
20
0.322586
11
1.20157
21
0.325023
0
LINE
8
BLACK
6
CONTINUOUS
10
1.20157
20
0.325023
11
1.2029
21
0.325296
0
LINE
8
BLACK
6
CONTINUOUS
10
1.2029
20
0.325296
11
1.20421
21
0.325647
0
LINE
8
BLACK
6
CONTINUOUS
10
1.20421
20
0.325647
11
1.20908
21
0.325647
0
LINE
8
BLACK
6
CONTINUOUS
10
1.20908
20
0.325647
11
1.2104
21
0.325296
0
LINE
8
BLACK
6
CONTINUOUS
10
1.2104
20
0.325296
11
1.21172
21
0.325023
0
LINE
8
BLACK
6
CONTINUOUS
10
1.21172
20
0.325023
11
1.2166
21
0.322586
0
LINE
8
BLACK
6
CONTINUOUS
10
1.2166
20
0.322586
11
1.21731
21
0.321955
0
LINE
8
BLACK
6
CONTINUOUS
10
1.21731
20
0.321955
11
1.21747
21
0.321861
0
LINE
8
BLACK
6
CONTINUOUS
10
1.21747
20
0.321861
11
1.21953
21
0.323917
0
LINE
8
BLACK
6
CONTINUOUS
10
1.21953
20
0.323917
11
1.22035
21
0.324393
0
LINE
8
BLACK
6
CONTINUOUS
10
1.22035
20
0.324393
11
1.22107
21
0.325023
0
LINE
8
BLACK
6
CONTINUOUS
10
1.22107
20
0.325023
11
1.22594
21
0.327461
0
LINE
8
BLACK
6
CONTINUOUS
10
1.22594
20
0.327461
11
1.22727
21
0.327733
0
LINE
8
BLACK
6
CONTINUOUS
10
1.22727
20
0.327733
11
1.22858
21
0.328084
0
LINE
8
BLACK
6
CONTINUOUS
10
1.22858
20
0.328084
11
1.23589
21
0.328084
0
LINE
8
BLACK
6
CONTINUOUS
10
1.23589
20
0.328084
11
1.2372
21
0.327733
0
LINE
8
BLACK
6
CONTINUOUS
10
1.20283
20
0.312451
11
1.20175
21
0.311369
0
LINE
8
BLACK
6
CONTINUOUS
10
1.20175
20
0.311369
11
1.20037
21
0.308598
0
LINE
8
BLACK
6
CONTINUOUS
10
1.20037
20
0.308598
11
1.20037
21
0.298838
0
LINE
8
BLACK
6
CONTINUOUS
10
1.20037
20
0.298838
11
1.21293
21
0.298838
0
LINE
8
BLACK
6
CONTINUOUS
10
1.21293
20
0.298838
11
1.21293
21
0.308598
0
LINE
8
BLACK
6
CONTINUOUS
10
1.21293
20
0.308598
11
1.21154
21
0.311369
0
LINE
8
BLACK
6
CONTINUOUS
10
1.21154
20
0.311369
11
1.21046
21
0.312451
0
LINE
8
BLACK
6
CONTINUOUS
10
1.21046
20
0.312451
11
1.20769
21
0.313836
0
LINE
8
BLACK
6
CONTINUOUS
10
1.20769
20
0.313836
11
1.2056
21
0.313836
0
LINE
8
BLACK
6
CONTINUOUS
10
1.2056
20
0.313836
11
1.20283
21
0.312451
0
LINE
8
BLACK
6
CONTINUOUS
10
1.22721
20
0.314888
11
1.22643
21
0.314114
0
LINE
8
BLACK
6
CONTINUOUS
10
1.22643
20
0.314114
11
1.22474
21
0.309034
0
LINE
8
BLACK
6
CONTINUOUS
10
1.22474
20
0.309034
11
1.22474
21
0.298838
0
LINE
8
BLACK
6
CONTINUOUS
10
1.22474
20
0.298838
11
1.23974
21
0.298838
0
LINE
8
BLACK
6
CONTINUOUS
10
1.23974
20
0.298838
11
1.23974
21
0.311036
0
LINE
8
BLACK
6
CONTINUOUS
10
1.23974
20
0.311036
11
1.23835
21
0.313806
0
LINE
8
BLACK
6
CONTINUOUS
10
1.23835
20
0.313806
11
1.23727
21
0.314888
0
LINE
8
BLACK
6
CONTINUOUS
10
1.23727
20
0.314888
11
1.2345
21
0.316273
0
LINE
8
BLACK
6
CONTINUOUS
10
1.2345
20
0.316273
11
1.22998
21
0.316273
0
LINE
8
BLACK
6
CONTINUOUS
10
1.22998
20
0.316273
11
1.22721
21
0.314888
0
LINE
8
BLACK
6
CONTINUOUS
10
1.22685
20
0.376639
11
1.22758
21
0.376652
0
LINE
8
BLACK
6
CONTINUOUS
10
1.22758
20
0.376652
11
1.23733
21
0.374214
0
LINE
8
BLACK
6
CONTINUOUS
10
1.23733
20
0.374214
11
1.2379
21
0.373898
0
LINE
8
BLACK
6
CONTINUOUS
10
1.2379
20
0.373898
11
1.23853
21
0.373767
0
LINE
8
BLACK
6
CONTINUOUS
10
1.23853
20
0.373767
11
1.24341
21
0.37133
0
LINE
8
BLACK
6
CONTINUOUS
10
1.24341
20
0.37133
11
1.24412
21
0.370699
0
LINE
8
BLACK
6
CONTINUOUS
10
1.24412
20
0.370699
11
1.24494
21
0.370224
0
LINE
8
BLACK
6
CONTINUOUS
10
1.24494
20
0.370224
11
1.24738
21
0.367787
0
LINE
8
BLACK
6
CONTINUOUS
10
1.24738
20
0.367787
11
1.24786
21
0.366963
0
LINE
8
BLACK
6
CONTINUOUS
10
1.24786
20
0.366963
11
1.24849
21
0.366252
0
LINE
8
BLACK
6
CONTINUOUS
10
1.24849
20
0.366252
11
1.25092
21
0.361377
0
LINE
8
BLACK
6
CONTINUOUS
10
1.25092
20
0.361377
11
1.2512
21
0.360048
0
LINE
8
BLACK
6
CONTINUOUS
10
1.2512
20
0.360048
11
1.25155
21
0.358736
0
LINE
8
BLACK
6
CONTINUOUS
10
1.25155
20
0.358736
11
1.25155
21
0.353862
0
LINE
8
BLACK
6
CONTINUOUS
10
1.25155
20
0.353862
11
1.2512
21
0.352551
0
LINE
8
BLACK
6
CONTINUOUS
10
1.2512
20
0.352551
11
1.25092
21
0.351221
0
LINE
8
BLACK
6
CONTINUOUS
10
1.25092
20
0.351221
11
1.24849
21
0.346347
0
LINE
8
BLACK
6
CONTINUOUS
10
1.24849
20
0.346347
11
1.24786
21
0.345635
0
LINE
8
BLACK
6
CONTINUOUS
10
1.24786
20
0.345635
11
1.24738
21
0.344812
0
LINE
8
BLACK
6
CONTINUOUS
10
1.24738
20
0.344812
11
1.24494
21
0.342375
0
LINE
8
BLACK
6
CONTINUOUS
10
1.24494
20
0.342375
11
1.24412
21
0.341899
0
LINE
8
BLACK
6
CONTINUOUS
10
1.24412
20
0.341899
11
1.24341
21
0.341268
0
LINE
8
BLACK
6
CONTINUOUS
10
1.24341
20
0.341268
11
1.23853
21
0.338831
0
LINE
8
BLACK
6
CONTINUOUS
10
1.23853
20
0.338831
11
1.2379
21
0.338701
0
LINE
8
BLACK
6
CONTINUOUS
10
1.2379
20
0.338701
11
1.23733
21
0.338384
0
LINE
8
BLACK
6
CONTINUOUS
10
1.23733
20
0.338384
11
1.22758
21
0.335947
0
LINE
8
BLACK
6
CONTINUOUS
10
1.22758
20
0.335947
11
1.22685
21
0.335959
0
LINE
8
BLACK
6
CONTINUOUS
10
1.22685
20
0.335959
11
1.22614
21
0.335771
0
LINE
8
BLACK
6
CONTINUOUS
10
1.22614
20
0.335771
11
1.21396
21
0.335771
0
LINE
8
BLACK
6
CONTINUOUS
10
1.21396
20
0.335771
11
1.21325
21
0.335959
0
LINE
8
BLACK
6
CONTINUOUS
10
1.21325
20
0.335959
11
1.21253
21
0.335947
0
LINE
8
BLACK
6
CONTINUOUS
10
1.21253
20
0.335947
11
1.20278
21
0.338384
0
LINE
8
BLACK
6
CONTINUOUS
10
1.20278
20
0.338384
11
1.20221
21
0.338701
0
LINE
8
BLACK
6
CONTINUOUS
10
1.20221
20
0.338701
11
1.20157
21
0.338831
0
LINE
8
BLACK
6
CONTINUOUS
10
1.20157
20
0.338831
11
1.19669
21
0.341268
0
LINE
8
BLACK
6
CONTINUOUS
10
1.19669
20
0.341268
11
1.19598
21
0.341899
0
LINE
8
BLACK
6
CONTINUOUS
10
1.19598
20
0.341899
11
1.19516
21
0.342375
0
LINE
8
BLACK
6
CONTINUOUS
10
1.19516
20
0.342375
11
1.19272
21
0.344812
0
LINE
8
BLACK
6
CONTINUOUS
10
1.19272
20
0.344812
11
1.19225
21
0.345635
0
LINE
8
BLACK
6
CONTINUOUS
10
1.19225
20
0.345635
11
1.19162
21
0.346347
0
LINE
8
BLACK
6
CONTINUOUS
10
1.19162
20
0.346347
11
1.18918
21
0.351221
0
LINE
8
BLACK
6
CONTINUOUS
10
1.18918
20
0.351221
11
1.18891
21
0.352551
0
LINE
8
BLACK
6
CONTINUOUS
10
1.18891
20
0.352551
11
1.18856
21
0.353862
0
LINE
8
BLACK
6
CONTINUOUS
10
1.18856
20
0.353862
11
1.18856
21
0.358736
0
LINE
8
BLACK
6
CONTINUOUS
10
1.18856
20
0.358736
11
1.18891
21
0.360048
0
LINE
8
BLACK
6
CONTINUOUS
10
1.18891
20
0.360048
11
1.18918
21
0.361377
0
LINE
8
BLACK
6
CONTINUOUS
10
1.18918
20
0.361377
11
1.19162
21
0.366252
0
LINE
8
BLACK
6
CONTINUOUS
10
1.19162
20
0.366252
11
1.19225
21
0.366963
0
LINE
8
BLACK
6
CONTINUOUS
10
1.19225
20
0.366963
11
1.19272
21
0.367787
0
LINE
8
BLACK
6
CONTINUOUS
10
1.19272
20
0.367787
11
1.19516
21
0.370224
0
LINE
8
BLACK
6
CONTINUOUS
10
1.19516
20
0.370224
11
1.19598
21
0.370699
0
LINE
8
BLACK
6
CONTINUOUS
10
1.19598
20
0.370699
11
1.19669
21
0.37133
0
LINE
8
BLACK
6
CONTINUOUS
10
1.19669
20
0.37133
11
1.20157
21
0.373767
0
LINE
8
BLACK
6
CONTINUOUS
10
1.20157
20
0.373767
11
1.20221
21
0.373898
0
LINE
8
BLACK
6
CONTINUOUS
10
1.20221
20
0.373898
11
1.20278
21
0.374214
0
LINE
8
BLACK
6
CONTINUOUS
10
1.20278
20
0.374214
11
1.21253
21
0.376652
0
LINE
8
BLACK
6
CONTINUOUS
10
1.21253
20
0.376652
11
1.21325
21
0.376639
0
LINE
8
BLACK
6
CONTINUOUS
10
1.21325
20
0.376639
11
1.21396
21
0.376828
0
LINE
8
BLACK
6
CONTINUOUS
10
1.21396
20
0.376828
11
1.22614
21
0.376828
0
LINE
8
BLACK
6
CONTINUOUS
10
1.22614
20
0.376828
11
1.22685
21
0.376639
0
LINE
8
BLACK
6
CONTINUOUS
10
1.20627
20
0.362913
11
1.20283
21
0.361195
0
LINE
8
BLACK
6
CONTINUOUS
10
1.20283
20
0.361195
11
1.20175
21
0.360113
0
LINE
8
BLACK
6
CONTINUOUS
10
1.20175
20
0.360113
11
1.20037
21
0.357342
0
LINE
8
BLACK
6
CONTINUOUS
10
1.20037
20
0.357342
11
1.20037
21
0.355256
0
LINE
8
BLACK
6
CONTINUOUS
10
1.20037
20
0.355256
11
1.20175
21
0.352486
0
LINE
8
BLACK
6
CONTINUOUS
10
1.20175
20
0.352486
11
1.20283
21
0.351404
0
LINE
8
BLACK
6
CONTINUOUS
10
1.20283
20
0.351404
11
1.20627
21
0.349685
0
LINE
8
BLACK
6
CONTINUOUS
10
1.20627
20
0.349685
11
1.21469
21
0.347582
0
LINE
8
BLACK
6
CONTINUOUS
10
1.21469
20
0.347582
11
1.22542
21
0.347582
0
LINE
8
BLACK
6
CONTINUOUS
10
1.22542
20
0.347582
11
1.23383
21
0.349685
0
LINE
8
BLACK
6
CONTINUOUS
10
1.23383
20
0.349685
11
1.23727
21
0.351404
0
LINE
8
BLACK
6
CONTINUOUS
10
1.23727
20
0.351404
11
1.23835
21
0.352486
0
LINE
8
BLACK
6
CONTINUOUS
10
1.23835
20
0.352486
11
1.23974
21
0.355256
0
LINE
8
BLACK
6
CONTINUOUS
10
1.23974
20
0.355256
11
1.23974
21
0.357342
0
LINE
8
BLACK
6
CONTINUOUS
10
1.23974
20
0.357342
11
1.23835
21
0.360113
0
LINE
8
BLACK
6
CONTINUOUS
10
1.23835
20
0.360113
11
1.23727
21
0.361195
0
LINE
8
BLACK
6
CONTINUOUS
10
1.23727
20
0.361195
11
1.23383
21
0.362913
0
LINE
8
BLACK
6
CONTINUOUS
10
1.23383
20
0.362913
11
1.22542
21
0.365017
0
LINE
8
BLACK
6
CONTINUOUS
10
1.22542
20
0.365017
11
1.21469
21
0.365017
0
LINE
8
BLACK
6
CONTINUOUS
10
1.21469
20
0.365017
11
1.20627
21
0.362913
0
LINE
8
BLACK
6
CONTINUOUS
10
1.2372
20
0.425221
11
1.23853
21
0.424948
0
LINE
8
BLACK
6
CONTINUOUS
10
1.23853
20
0.424948
11
1.24341
21
0.422511
0
LINE
8
BLACK
6
CONTINUOUS
10
1.24341
20
0.422511
11
1.24412
21
0.42188
0
LINE
8
BLACK
6
CONTINUOUS
10
1.24412
20
0.42188
11
1.24494
21
0.421405
0
LINE
8
BLACK
6
CONTINUOUS
10
1.24494
20
0.421405
11
1.24738
21
0.418968
0
LINE
8
BLACK
6
CONTINUOUS
10
1.24738
20
0.418968
11
1.24786
21
0.418144
0
LINE
8
BLACK
6
CONTINUOUS
10
1.24786
20
0.418144
11
1.24849
21
0.417433
0
LINE
8
BLACK
6
CONTINUOUS
10
1.24849
20
0.417433
11
1.25092
21
0.412559
0
LINE
8
BLACK
6
CONTINUOUS
10
1.25092
20
0.412559
11
1.2512
21
0.411229
0
LINE
8
BLACK
6
CONTINUOUS
10
1.2512
20
0.411229
11
1.25155
21
0.409918
0
LINE
8
BLACK
6
CONTINUOUS
10
1.25155
20
0.409918
11
1.25155
21
0.395294
0
LINE
8
BLACK
6
CONTINUOUS
10
1.25155
20
0.395294
11
1.2512
21
0.393983
0
LINE
8
BLACK
6
CONTINUOUS
10
1.2512
20
0.393983
11
1.25092
21
0.392653
0
LINE
8
BLACK
6
CONTINUOUS
10
1.25092
20
0.392653
11
1.24849
21
0.387779
0
LINE
8
BLACK
6
CONTINUOUS
10
1.24849
20
0.387779
11
1.24786
21
0.387068
0
LINE
8
BLACK
6
CONTINUOUS
10
1.24786
20
0.387068
11
1.24738
21
0.386244
0
LINE
8
BLACK
6
CONTINUOUS
10
1.24738
20
0.386244
11
1.24494
21
0.383807
0
LINE
8
BLACK
6
CONTINUOUS
10
1.24494
20
0.383807
11
1.2423
21
0.382279
0
LINE
8
BLACK
6
CONTINUOUS
10
1.2423
20
0.382279
11
1.23924
21
0.382279
0
LINE
8
BLACK
6
CONTINUOUS
10
1.23924
20
0.382279
11
1.23659
21
0.383807
0
LINE
8
BLACK
6
CONTINUOUS
10
1.23659
20
0.383807
11
1.23506
21
0.386454
0
LINE
8
BLACK
6
CONTINUOUS
10
1.23506
20
0.386454
11
1.23506
21
0.389511
0
LINE
8
BLACK
6
CONTINUOUS
10
1.23506
20
0.389511
11
1.23659
21
0.392159
0
LINE
8
BLACK
6
CONTINUOUS
10
1.23659
20
0.392159
11
1.23835
21
0.393918
0
LINE
8
BLACK
6
CONTINUOUS
10
1.23835
20
0.393918
11
1.23974
21
0.396688
0
LINE
8
BLACK
6
CONTINUOUS
10
1.23974
20
0.396688
11
1.23974
21
0.408524
0
LINE
8
BLACK
6
CONTINUOUS
10
1.23974
20
0.408524
11
1.23835
21
0.411294
0
LINE
8
BLACK
6
CONTINUOUS
10
1.23835
20
0.411294
11
1.23727
21
0.412376
0
LINE
8
BLACK
6
CONTINUOUS
10
1.23727
20
0.412376
11
1.2345
21
0.413761
0
LINE
8
BLACK
6
CONTINUOUS
10
1.2345
20
0.413761
11
1.2251
21
0.413761
0
LINE
8
BLACK
6
CONTINUOUS
10
1.2251
20
0.413761
11
1.22233
21
0.412376
0
LINE
8
BLACK
6
CONTINUOUS
10
1.22233
20
0.412376
11
1.22125
21
0.411294
0
LINE
8
BLACK
6
CONTINUOUS
10
1.22125
20
0.411294
11
1.21986
21
0.408523
0
LINE
8
BLACK
6
CONTINUOUS
10
1.21986
20
0.408523
11
1.21986
21
0.402606
0
LINE
8
BLACK
6
CONTINUOUS
10
1.21986
20
0.402606
11
1.21971
21
0.402043
0
LINE
8
BLACK
6
CONTINUOUS
10
1.21971
20
0.402043
11
1.21975
21
0.40146
0
LINE
8
BLACK
6
CONTINUOUS
10
1.21975
20
0.40146
11
1.21932
21
0.40059
0
LINE
8
BLACK
6
CONTINUOUS
10
1.21932
20
0.40059
11
1.21907
21
0.399653
0
LINE
8
BLACK
6
CONTINUOUS
10
1.21907
20
0.399653
11
1.21866
21
0.399241
0
LINE
8
BLACK
6
CONTINUOUS
10
1.21866
20
0.399241
11
1.2184
21
0.398717
0
LINE
8
BLACK
6
CONTINUOUS
10
1.2184
20
0.398717
11
1.2176
21
0.398177
0
LINE
8
BLACK
6
CONTINUOUS
10
1.2176
20
0.398177
11
1.21691
21
0.397492
0
LINE
8
BLACK
6
CONTINUOUS
10
1.21691
20
0.397492
11
1.21635
21
0.397341
0
LINE
8
BLACK
6
CONTINUOUS
10
1.21635
20
0.397341
11
1.21586
21
0.397016
0
LINE
8
BLACK
6
CONTINUOUS
10
1.21586
20
0.397016
11
1.2149
21
0.396951
0
LINE
8
BLACK
6
CONTINUOUS
10
1.2149
20
0.396951
11
1.21396
21
0.3967
0
LINE
8
BLACK
6
CONTINUOUS
10
1.21396
20
0.3967
11
1.21339
21
0.396851
0
LINE
8
BLACK
6
CONTINUOUS
10
1.21339
20
0.396851
11
1.21281
21
0.396813
0
LINE
8
BLACK
6
CONTINUOUS
10
1.21281
20
0.396813
11
1.21194
21
0.397241
0
LINE
8
BLACK
6
CONTINUOUS
10
1.21194
20
0.397241
11
1.21101
21
0.397492
0
LINE
8
BLACK
6
CONTINUOUS
10
1.21101
20
0.397492
11
1.21059
21
0.397904
0
LINE
8
BLACK
6
CONTINUOUS
10
1.21059
20
0.397904
11
1.21007
21
0.398162
0
LINE
8
BLACK
6
CONTINUOUS
10
1.21007
20
0.398162
11
1.20037
21
0.406652
0
LINE
8
BLACK
6
CONTINUOUS
10
1.20037
20
0.406652
11
1.20037
21
0.387983
0
LINE
8
BLACK
6
CONTINUOUS
10
1.20037
20
0.387983
11
1.19958
21
0.38503
0
LINE
8
BLACK
6
CONTINUOUS
10
1.19958
20
0.38503
11
1.19741
21
0.382868
0
LINE
8
BLACK
6
CONTINUOUS
10
1.19741
20
0.382868
11
1.19446
21
0.382077
0
LINE
8
BLACK
6
CONTINUOUS
10
1.19446
20
0.382077
11
1.19151
21
0.382868
0
LINE
8
BLACK
6
CONTINUOUS
10
1.19151
20
0.382868
11
1.18935
21
0.38503
0
LINE
8
BLACK
6
CONTINUOUS
10
1.18935
20
0.38503
11
1.18856
21
0.387983
0
LINE
8
BLACK
6
CONTINUOUS
10
1.18856
20
0.387983
11
1.18856
21
0.419666
0
LINE
8
BLACK
6
CONTINUOUS
10
1.18856
20
0.419666
11
1.18871
21
0.42023
0
LINE
8
BLACK
6
CONTINUOUS
10
1.18871
20
0.42023
11
1.18867
21
0.420812
0
LINE
8
BLACK
6
CONTINUOUS
10
1.18867
20
0.420812
11
1.1891
21
0.421682
0
LINE
8
BLACK
6
CONTINUOUS
10
1.1891
20
0.421682
11
1.18935
21
0.422619
0
LINE
8
BLACK
6
CONTINUOUS
10
1.18935
20
0.422619
11
1.18976
21
0.423032
0
LINE
8
BLACK
6
CONTINUOUS
10
1.18976
20
0.423032
11
1.19002
21
0.423555
0
LINE
8
BLACK
6
CONTINUOUS
10
1.19002
20
0.423555
11
1.19082
21
0.424095
0
LINE
8
BLACK
6
CONTINUOUS
10
1.19082
20
0.424095
11
1.19151
21
0.424781
0
LINE
8
BLACK
6
CONTINUOUS
10
1.19151
20
0.424781
11
1.19207
21
0.424932
0
LINE
8
BLACK
6
CONTINUOUS
10
1.19207
20
0.424932
11
1.19256
21
0.425256
0
LINE
8
BLACK
6
CONTINUOUS
10
1.19256
20
0.425256
11
1.19352
21
0.425321
0
LINE
8
BLACK
6
CONTINUOUS
10
1.19352
20
0.425321
11
1.19446
21
0.425572
0
LINE
8
BLACK
6
CONTINUOUS
10
1.19446
20
0.425572
11
1.19502
21
0.425421
0
LINE
8
BLACK
6
CONTINUOUS
10
1.19502
20
0.425421
11
1.19561
21
0.42546
0
LINE
8
BLACK
6
CONTINUOUS
10
1.19561
20
0.42546
11
1.19648
21
0.425032
0
LINE
8
BLACK
6
CONTINUOUS
10
1.19648
20
0.425032
11
1.19741
21
0.424781
0
LINE
8
BLACK
6
CONTINUOUS
10
1.19741
20
0.424781
11
1.19783
21
0.424368
0
LINE
8
BLACK
6
CONTINUOUS
10
1.19783
20
0.424368
11
1.19835
21
0.424111
0
LINE
8
BLACK
6
CONTINUOUS
10
1.19835
20
0.424111
11
1.20955
21
0.414309
0
LINE
8
BLACK
6
CONTINUOUS
10
1.20955
20
0.414309
11
1.21111
21
0.417433
0
LINE
8
BLACK
6
CONTINUOUS
10
1.21111
20
0.417433
11
1.21174
21
0.418144
0
LINE
8
BLACK
6
CONTINUOUS
10
1.21174
20
0.418144
11
1.21222
21
0.418968
0
LINE
8
BLACK
6
CONTINUOUS
10
1.21222
20
0.418968
11
1.21466
21
0.421405
0
LINE
8
BLACK
6
CONTINUOUS
10
1.21466
20
0.421405
11
1.21548
21
0.42188
0
LINE
8
BLACK
6
CONTINUOUS
10
1.21548
20
0.42188
11
1.21619
21
0.422511
0
LINE
8
BLACK
6
CONTINUOUS
10
1.21619
20
0.422511
11
1.22107
21
0.424948
0
LINE
8
BLACK
6
CONTINUOUS
10
1.22107
20
0.424948
11
1.2224
21
0.425221
0
LINE
8
BLACK
6
CONTINUOUS
10
1.2224
20
0.425221
11
1.22371
21
0.425572
0
LINE
8
BLACK
6
CONTINUOUS
10
1.22371
20
0.425572
11
1.23589
21
0.425572
0
LINE
8
BLACK
6
CONTINUOUS
10
1.23589
20
0.425572
11
1.2372
21
0.425221
0
LINE
8
BLACK
6
CONTINUOUS
10
1.24956
20
0.472829
11
1.25124
21
0.470278
0
LINE
8
BLACK
6
CONTINUOUS
10
1.25124
20
0.470278
11
1.25143
21
0.467226
0
LINE
8
BLACK
6
CONTINUOUS
10
1.25143
20
0.467226
11
1.25006
21
0.464492
0
LINE
8
BLACK
6
CONTINUOUS
10
1.25006
20
0.464492
11
1.24751
21
0.462808
0
LINE
8
BLACK
6
CONTINUOUS
10
1.24751
20
0.462808
11
1.23692
21
0.459279
0
LINE
8
BLACK
6
CONTINUOUS
10
1.23692
20
0.459279
11
1.23692
21
0.44342
0
LINE
8
BLACK
6
CONTINUOUS
10
1.23692
20
0.44342
11
1.24751
21
0.439892
0
LINE
8
BLACK
6
CONTINUOUS
10
1.24751
20
0.439892
11
1.25006
21
0.438208
0
LINE
8
BLACK
6
CONTINUOUS
10
1.25006
20
0.438208
11
1.25143
21
0.435473
0
LINE
8
BLACK
6
CONTINUOUS
10
1.25143
20
0.435473
11
1.25124
21
0.432422
0
LINE
8
BLACK
6
CONTINUOUS
10
1.25124
20
0.432422
11
1.24956
21
0.429871
0
LINE
8
BLACK
6
CONTINUOUS
10
1.24956
20
0.429871
11
1.24683
21
0.428504
0
LINE
8
BLACK
6
CONTINUOUS
10
1.24683
20
0.428504
11
1.24377
21
0.428687
0
LINE
8
BLACK
6
CONTINUOUS
10
1.24377
20
0.428687
11
1.19259
21
0.445747
0
LINE
8
BLACK
6
CONTINUOUS
10
1.19259
20
0.445747
11
1.1916
21
0.446401
0
LINE
8
BLACK
6
CONTINUOUS
10
1.1916
20
0.446401
11
1.19054
21
0.446931
0
LINE
8
BLACK
6
CONTINUOUS
10
1.19054
20
0.446931
11
1.19034
21
0.447233
0
LINE
8
BLACK
6
CONTINUOUS
10
1.19034
20
0.447233
11
1.19004
21
0.447432
0
LINE
8
BLACK
6
CONTINUOUS
10
1.19004
20
0.447432
11
1.18951
21
0.448493
0
LINE
8
BLACK
6
CONTINUOUS
10
1.18951
20
0.448493
11
1.18886
21
0.449482
0
LINE
8
BLACK
6
CONTINUOUS
10
1.18886
20
0.449482
11
1.18884
21
0.449843
0
LINE
8
BLACK
6
CONTINUOUS
10
1.18884
20
0.449843
11
1.18868
21
0.450166
0
LINE
8
BLACK
6
CONTINUOUS
10
1.18868
20
0.450166
11
1.18875
21
0.45135
0
LINE
8
BLACK
6
CONTINUOUS
10
1.18875
20
0.45135
11
1.18868
21
0.452534
0
LINE
8
BLACK
6
CONTINUOUS
10
1.18868
20
0.452534
11
1.18884
21
0.452857
0
LINE
8
BLACK
6
CONTINUOUS
10
1.18884
20
0.452857
11
1.18886
21
0.453217
0
LINE
8
BLACK
6
CONTINUOUS
10
1.18886
20
0.453217
11
1.18951
21
0.454207
0
LINE
8
BLACK
6
CONTINUOUS
10
1.18951
20
0.454207
11
1.19004
21
0.455268
0
LINE
8
BLACK
6
CONTINUOUS
10
1.19004
20
0.455268
11
1.19034
21
0.455467
0
LINE
8
BLACK
6
CONTINUOUS
10
1.19034
20
0.455467
11
1.19054
21
0.455768
0
LINE
8
BLACK
6
CONTINUOUS
10
1.19054
20
0.455768
11
1.1916
21
0.456299
0
LINE
8
BLACK
6
CONTINUOUS
10
1.1916
20
0.456299
11
1.19259
21
0.456952
0
LINE
8
BLACK
6
CONTINUOUS
10
1.19259
20
0.456952
11
1.24377
21
0.474013
0
LINE
8
BLACK
6
CONTINUOUS
10
1.24377
20
0.474013
11
1.24683
21
0.474196
0
LINE
8
BLACK
6
CONTINUOUS
10
1.24683
20
0.474196
11
1.24956
21
0.472829
0
LINE
8
BLACK
6
CONTINUOUS
10
1.21314
20
0.45135
11
1.22511
21
0.447357
0
LINE
8
BLACK
6
CONTINUOUS
10
1.22511
20
0.447357
11
1.22511
21
0.455342
0
LINE
8
BLACK
6
CONTINUOUS
10
1.22511
20
0.455342
11
1.21314
21
0.45135
0
CIRCLE
8
BLACK
10
-0.216535
20
0.37505
40
0.00688976
0
CIRCLE
8
BLACK
10
-0.216535
20
-0.37505
40
0.00688976
0
CIRCLE
8
BLACK
10
0.433071
20
0
40
0.00688976
  0
ENDSEC
  0
EOF
