  0
SECTION
  2
HEADER
  9
$ANGBASE
  50
0.0
  9
$ANGDIR
  70
1
  9
$MEASUREMENT
  70
0
  0
ENDSEC
  0
SECTION
  2
TABLES
  0
TABLE
  2
LTYPE
  70
4
  0
LTYPE
  5
40F
  2
CONTINUOUS
  70
0
  3
Solid line
  72
65
  73
0
  40
0.0
  0
LTYPE
  5
410
  2
DASHDOT
 70
0
  3
Dash Dot ____ _ ____ _
 72
65
 73
4
 40
2.0
 49
1.25
 49
-0.25
 49
0.25
 49
-0.25
  0
LTYPE
  5
411
  2
DASHED
 70
0
  3
Dashed __ __ __ __ __
 72
65
 73
2
 40
0.75
 49
0.5
 49
-0.25
  0
LTYPE
  5
43B
  2
DOTTED
 70
0
  3
Dotted .  .  .  .
 72
65
 73
2
 40
0.2
 49
0.0
 49
-0.2
  0
ENDTAB
  0
TABLE
  2
STYLE
  70
4
  0
STYLE
  2
KICAD
  70
0
  40
0
  41
1
  42
1
  50
0
  71
0
  3
isocp.shx
  0
STYLE
  2
KICADB
  70
0
  40
0
  41
1
  42
1
  50
0
  71
0
  3
isocp.shx
  0
STYLE
  2
KICADI
  70
0
  40
0
  41
1
  42
1
  50
15
  71
0
  3
isocp.shx
  0
STYLE
  2
KICADBI
  70
0
  40
0
  41
1
  42
1
  50
15
  71
0
  3
isocp.shx
  0
ENDTAB
  0
TABLE
  2
LAYER
  70
1
  0
LAYER
  2
BLACK
  70
0
  62
7
  6
CONTINUOUS
  0
ENDTAB
  0
ENDSEC
  0
SECTION
  2
ENTITIES
0
LINE
8
BLACK
6
CONTINUOUS
10
0.753324
20
-0.742933
11
0.762273
21
-0.745331
0
LINE
8
BLACK
6
CONTINUOUS
10
0.762273
20
-0.745331
11
0.770669
21
-0.749247
0
LINE
8
BLACK
6
CONTINUOUS
10
0.770669
20
-0.749247
11
0.778258
21
-0.754561
0
LINE
8
BLACK
6
CONTINUOUS
10
0.778258
20
-0.754561
11
0.784809
21
-0.761112
0
LINE
8
BLACK
6
CONTINUOUS
10
0.784809
20
-0.761112
11
0.790123
21
-0.768701
0
LINE
8
BLACK
6
CONTINUOUS
10
0.790123
20
-0.768701
11
0.794039
21
-0.777097
0
LINE
8
BLACK
6
CONTINUOUS
10
0.794039
20
-0.777097
11
0.796437
21
-0.786046
0
LINE
8
BLACK
6
CONTINUOUS
10
0.796437
20
-0.786046
11
0.797244
21
-0.795276
0
LINE
8
BLACK
6
CONTINUOUS
10
0.797244
20
-0.795276
11
0.796437
21
-0.804505
0
LINE
8
BLACK
6
CONTINUOUS
10
0.796437
20
-0.804505
11
0.794039
21
-0.813454
0
LINE
8
BLACK
6
CONTINUOUS
10
0.794039
20
-0.813454
11
0.790123
21
-0.82185
0
LINE
8
BLACK
6
CONTINUOUS
10
0.790123
20
-0.82185
11
0.784809
21
-0.829439
0
LINE
8
BLACK
6
CONTINUOUS
10
0.784809
20
-0.829439
11
0.778258
21
-0.835991
0
LINE
8
BLACK
6
CONTINUOUS
10
0.778258
20
-0.835991
11
0.770669
21
-0.841304
0
LINE
8
BLACK
6
CONTINUOUS
10
0.770669
20
-0.841304
11
0.762273
21
-0.84522
0
LINE
8
BLACK
6
CONTINUOUS
10
0.762273
20
-0.84522
11
0.753324
21
-0.847618
0
LINE
8
BLACK
6
CONTINUOUS
10
0.753324
20
-0.847618
11
0.744094
21
-0.848425
0
LINE
8
BLACK
6
CONTINUOUS
10
0.744094
20
-0.848425
11
0.734865
21
-0.847618
0
LINE
8
BLACK
6
CONTINUOUS
10
0.734865
20
-0.847618
11
0.725916
21
-0.84522
0
LINE
8
BLACK
6
CONTINUOUS
10
0.725916
20
-0.84522
11
0.71752
21
-0.841304
0
LINE
8
BLACK
6
CONTINUOUS
10
0.71752
20
-0.841304
11
0.709931
21
-0.835991
0
LINE
8
BLACK
6
CONTINUOUS
10
0.709931
20
-0.835991
11
0.70338
21
-0.829439
0
LINE
8
BLACK
6
CONTINUOUS
10
0.70338
20
-0.829439
11
0.698066
21
-0.82185
0
LINE
8
BLACK
6
CONTINUOUS
10
0.698066
20
-0.82185
11
0.69415
21
-0.813454
0
LINE
8
BLACK
6
CONTINUOUS
10
0.69415
20
-0.813454
11
0.691752
21
-0.804505
0
LINE
8
BLACK
6
CONTINUOUS
10
0.691752
20
-0.804505
11
0.690945
21
-0.795276
0
LINE
8
BLACK
6
CONTINUOUS
10
0.690945
20
-0.795276
11
0.691752
21
-0.786046
0
LINE
8
BLACK
6
CONTINUOUS
10
0.691752
20
-0.786046
11
0.69415
21
-0.777097
0
LINE
8
BLACK
6
CONTINUOUS
10
0.69415
20
-0.777097
11
0.698066
21
-0.768701
0
LINE
8
BLACK
6
CONTINUOUS
10
0.698066
20
-0.768701
11
0.70338
21
-0.761112
0
LINE
8
BLACK
6
CONTINUOUS
10
0.70338
20
-0.761112
11
0.709931
21
-0.754561
0
LINE
8
BLACK
6
CONTINUOUS
10
0.709931
20
-0.754561
11
0.71752
21
-0.749247
0
LINE
8
BLACK
6
CONTINUOUS
10
0.71752
20
-0.749247
11
0.725916
21
-0.745331
0
LINE
8
BLACK
6
CONTINUOUS
10
0.725916
20
-0.745331
11
0.734865
21
-0.742933
0
LINE
8
BLACK
6
CONTINUOUS
10
0.734865
20
-0.742933
11
0.744094
21
-0.742126
0
LINE
8
BLACK
6
CONTINUOUS
10
0.744094
20
-0.742126
11
0.753324
21
-0.742933
0
LINE
8
BLACK
6
CONTINUOUS
10
0.779066
20
-0.665654
11
0.780343
21
-0.666507
0
LINE
8
BLACK
6
CONTINUOUS
10
0.780343
20
-0.666507
11
0.781196
21
-0.667785
0
LINE
8
BLACK
6
CONTINUOUS
10
0.781196
20
-0.667785
11
0.781496
21
-0.669291
0
LINE
8
BLACK
6
CONTINUOUS
10
0.781496
20
-0.669291
11
0.781496
21
-0.688976
0
LINE
8
BLACK
6
CONTINUOUS
10
0.781496
20
-0.688976
11
0.781296
21
-0.689984
0
LINE
8
BLACK
6
CONTINUOUS
10
0.781296
20
-0.689984
11
0.781296
21
-0.691778
0
LINE
8
BLACK
6
CONTINUOUS
10
0.781296
20
-0.691778
11
0.781136
21
-0.692887
0
LINE
8
BLACK
6
CONTINUOUS
10
0.781136
20
-0.692887
11
0.779558
21
-0.698263
0
LINE
8
BLACK
6
CONTINUOUS
10
0.779558
20
-0.698263
11
0.779092
21
-0.699282
0
LINE
8
BLACK
6
CONTINUOUS
10
0.779092
20
-0.699282
11
0.776063
21
-0.703996
0
LINE
8
BLACK
6
CONTINUOUS
10
0.776063
20
-0.703996
11
0.775329
21
-0.704843
0
LINE
8
BLACK
6
CONTINUOUS
10
0.775329
20
-0.704843
11
0.771095
21
-0.708512
0
LINE
8
BLACK
6
CONTINUOUS
10
0.771095
20
-0.708512
11
0.770152
21
-0.709118
0
LINE
8
BLACK
6
CONTINUOUS
10
0.770152
20
-0.709118
11
0.765055
21
-0.711445
0
LINE
8
BLACK
6
CONTINUOUS
10
0.765055
20
-0.711445
11
0.76398
21
-0.711761
0
LINE
8
BLACK
6
CONTINUOUS
10
0.76398
20
-0.711761
11
0.758434
21
-0.712558
0
LINE
8
BLACK
6
CONTINUOUS
10
0.758434
20
-0.712558
11
0.757874
21
-0.712598
0
LINE
8
BLACK
6
CONTINUOUS
10
0.757874
20
-0.712598
11
0.738189
21
-0.712598
0
LINE
8
BLACK
6
CONTINUOUS
10
0.738189
20
-0.712598
11
0.737629
21
-0.712558
0
LINE
8
BLACK
6
CONTINUOUS
10
0.737629
20
-0.712558
11
0.732083
21
-0.711761
0
LINE
8
BLACK
6
CONTINUOUS
10
0.732083
20
-0.711761
11
0.731008
21
-0.711445
0
LINE
8
BLACK
6
CONTINUOUS
10
0.731008
20
-0.711445
11
0.725911
21
-0.709118
0
LINE
8
BLACK
6
CONTINUOUS
10
0.725911
20
-0.709118
11
0.724968
21
-0.708512
0
LINE
8
BLACK
6
CONTINUOUS
10
0.724968
20
-0.708512
11
0.720734
21
-0.704843
0
LINE
8
BLACK
6
CONTINUOUS
10
0.720734
20
-0.704843
11
0.72
21
-0.703996
0
LINE
8
BLACK
6
CONTINUOUS
10
0.72
20
-0.703996
11
0.716971
21
-0.699282
0
LINE
8
BLACK
6
CONTINUOUS
10
0.716971
20
-0.699282
11
0.716505
21
-0.698263
0
LINE
8
BLACK
6
CONTINUOUS
10
0.716505
20
-0.698263
11
0.714927
21
-0.692887
0
LINE
8
BLACK
6
CONTINUOUS
10
0.714927
20
-0.692887
11
0.714767
21
-0.691778
0
LINE
8
BLACK
6
CONTINUOUS
10
0.714767
20
-0.691778
11
0.714767
21
-0.689984
0
LINE
8
BLACK
6
CONTINUOUS
10
0.714767
20
-0.689984
11
0.714567
21
-0.688976
0
LINE
8
BLACK
6
CONTINUOUS
10
0.714567
20
-0.688976
11
0.714567
21
-0.669291
0
LINE
8
BLACK
6
CONTINUOUS
10
0.714567
20
-0.669291
11
0.714867
21
-0.667785
0
LINE
8
BLACK
6
CONTINUOUS
10
0.714867
20
-0.667785
11
0.71572
21
-0.666507
0
LINE
8
BLACK
6
CONTINUOUS
10
0.71572
20
-0.666507
11
0.716997
21
-0.665654
0
LINE
8
BLACK
6
CONTINUOUS
10
0.716997
20
-0.665654
11
0.718504
21
-0.665354
0
LINE
8
BLACK
6
CONTINUOUS
10
0.718504
20
-0.665354
11
0.777559
21
-0.665354
0
LINE
8
BLACK
6
CONTINUOUS
10
0.777559
20
-0.665354
11
0.779066
21
-0.665654
0
LINE
8
BLACK
6
CONTINUOUS
10
0.758434
20
-0.614213
11
0.76398
21
-0.615011
0
LINE
8
BLACK
6
CONTINUOUS
10
0.76398
20
-0.615011
11
0.765055
21
-0.615326
0
LINE
8
BLACK
6
CONTINUOUS
10
0.765055
20
-0.615326
11
0.770152
21
-0.617654
0
LINE
8
BLACK
6
CONTINUOUS
10
0.770152
20
-0.617654
11
0.771095
21
-0.61826
0
LINE
8
BLACK
6
CONTINUOUS
10
0.771095
20
-0.61826
11
0.775329
21
-0.621929
0
LINE
8
BLACK
6
CONTINUOUS
10
0.775329
20
-0.621929
11
0.776063
21
-0.622776
0
LINE
8
BLACK
6
CONTINUOUS
10
0.776063
20
-0.622776
11
0.779092
21
-0.627489
0
LINE
8
BLACK
6
CONTINUOUS
10
0.779092
20
-0.627489
11
0.779558
21
-0.628509
0
LINE
8
BLACK
6
CONTINUOUS
10
0.779558
20
-0.628509
11
0.781136
21
-0.633885
0
LINE
8
BLACK
6
CONTINUOUS
10
0.781136
20
-0.633885
11
0.781296
21
-0.634994
0
LINE
8
BLACK
6
CONTINUOUS
10
0.781296
20
-0.634994
11
0.781296
21
-0.636788
0
LINE
8
BLACK
6
CONTINUOUS
10
0.781296
20
-0.636788
11
0.781496
21
-0.637795
0
LINE
8
BLACK
6
CONTINUOUS
10
0.781496
20
-0.637795
11
0.781496
21
-0.65748
0
LINE
8
BLACK
6
CONTINUOUS
10
0.781496
20
-0.65748
11
0.781196
21
-0.658987
0
LINE
8
BLACK
6
CONTINUOUS
10
0.781196
20
-0.658987
11
0.780343
21
-0.660264
0
LINE
8
BLACK
6
CONTINUOUS
10
0.780343
20
-0.660264
11
0.779066
21
-0.661118
0
LINE
8
BLACK
6
CONTINUOUS
10
0.779066
20
-0.661118
11
0.777559
21
-0.661417
0
LINE
8
BLACK
6
CONTINUOUS
10
0.777559
20
-0.661417
11
0.718504
21
-0.661417
0
LINE
8
BLACK
6
CONTINUOUS
10
0.718504
20
-0.661417
11
0.716997
21
-0.661118
0
LINE
8
BLACK
6
CONTINUOUS
10
0.716997
20
-0.661118
11
0.71572
21
-0.660264
0
LINE
8
BLACK
6
CONTINUOUS
10
0.71572
20
-0.660264
11
0.714867
21
-0.658987
0
LINE
8
BLACK
6
CONTINUOUS
10
0.714867
20
-0.658987
11
0.714567
21
-0.65748
0
LINE
8
BLACK
6
CONTINUOUS
10
0.714567
20
-0.65748
11
0.714567
21
-0.637795
0
LINE
8
BLACK
6
CONTINUOUS
10
0.714567
20
-0.637795
11
0.714767
21
-0.636788
0
LINE
8
BLACK
6
CONTINUOUS
10
0.714767
20
-0.636788
11
0.714767
21
-0.634994
0
LINE
8
BLACK
6
CONTINUOUS
10
0.714767
20
-0.634994
11
0.714927
21
-0.633885
0
LINE
8
BLACK
6
CONTINUOUS
10
0.714927
20
-0.633885
11
0.716505
21
-0.628509
0
LINE
8
BLACK
6
CONTINUOUS
10
0.716505
20
-0.628509
11
0.716971
21
-0.627489
0
LINE
8
BLACK
6
CONTINUOUS
10
0.716971
20
-0.627489
11
0.72
21
-0.622776
0
LINE
8
BLACK
6
CONTINUOUS
10
0.72
20
-0.622776
11
0.720734
21
-0.621929
0
LINE
8
BLACK
6
CONTINUOUS
10
0.720734
20
-0.621929
11
0.724968
21
-0.61826
0
LINE
8
BLACK
6
CONTINUOUS
10
0.724968
20
-0.61826
11
0.725911
21
-0.617654
0
LINE
8
BLACK
6
CONTINUOUS
10
0.725911
20
-0.617654
11
0.731008
21
-0.615326
0
LINE
8
BLACK
6
CONTINUOUS
10
0.731008
20
-0.615326
11
0.732083
21
-0.615011
0
LINE
8
BLACK
6
CONTINUOUS
10
0.732083
20
-0.615011
11
0.737629
21
-0.614213
0
LINE
8
BLACK
6
CONTINUOUS
10
0.737629
20
-0.614213
11
0.738189
21
-0.614173
0
LINE
8
BLACK
6
CONTINUOUS
10
0.738189
20
-0.614173
11
0.757874
21
-0.614173
0
LINE
8
BLACK
6
CONTINUOUS
10
0.757874
20
-0.614173
11
0.758434
21
-0.614213
0
LINE
8
BLACK
6
CONTINUOUS
10
-0.206681
20
-0.312834
11
-0.19707
21
-0.315141
0
LINE
8
BLACK
6
CONTINUOUS
10
-0.19707
20
-0.315141
11
-0.187938
21
-0.318924
0
LINE
8
BLACK
6
CONTINUOUS
10
-0.187938
20
-0.318924
11
-0.17951
21
-0.324089
0
LINE
8
BLACK
6
CONTINUOUS
10
-0.17951
20
-0.324089
11
-0.171993
21
-0.330508
0
LINE
8
BLACK
6
CONTINUOUS
10
-0.171993
20
-0.330508
11
-0.165574
21
-0.338025
0
LINE
8
BLACK
6
CONTINUOUS
10
-0.165574
20
-0.338025
11
-0.160409
21
-0.346453
0
LINE
8
BLACK
6
CONTINUOUS
10
-0.160409
20
-0.346453
11
-0.156626
21
-0.355585
0
LINE
8
BLACK
6
CONTINUOUS
10
-0.156626
20
-0.355585
11
-0.154319
21
-0.365196
0
LINE
8
BLACK
6
CONTINUOUS
10
-0.154319
20
-0.365196
11
-0.153543
21
-0.37505
0
LINE
8
BLACK
6
CONTINUOUS
10
-0.153543
20
-0.37505
11
-0.154319
21
-0.384904
0
LINE
8
BLACK
6
CONTINUOUS
10
-0.154319
20
-0.384904
11
-0.156626
21
-0.394516
0
LINE
8
BLACK
6
CONTINUOUS
10
-0.156626
20
-0.394516
11
-0.160409
21
-0.403648
0
LINE
8
BLACK
6
CONTINUOUS
10
-0.160409
20
-0.403648
11
-0.165574
21
-0.412076
0
LINE
8
BLACK
6
CONTINUOUS
10
-0.165574
20
-0.412076
11
-0.171993
21
-0.419593
0
LINE
8
BLACK
6
CONTINUOUS
10
-0.171993
20
-0.419593
11
-0.17951
21
-0.426012
0
LINE
8
BLACK
6
CONTINUOUS
10
-0.17951
20
-0.426012
11
-0.187938
21
-0.431177
0
LINE
8
BLACK
6
CONTINUOUS
10
-0.187938
20
-0.431177
11
-0.19707
21
-0.434959
0
LINE
8
BLACK
6
CONTINUOUS
10
-0.19707
20
-0.434959
11
-0.206681
21
-0.437267
0
LINE
8
BLACK
6
CONTINUOUS
10
-0.206681
20
-0.437267
11
-0.216535
21
-0.438042
0
LINE
8
BLACK
6
CONTINUOUS
10
-0.216535
20
-0.438042
11
-0.22639
21
-0.437267
0
LINE
8
BLACK
6
CONTINUOUS
10
-0.22639
20
-0.437267
11
-0.236001
21
-0.434959
0
LINE
8
BLACK
6
CONTINUOUS
10
-0.236001
20
-0.434959
11
-0.245133
21
-0.431177
0
LINE
8
BLACK
6
CONTINUOUS
10
-0.245133
20
-0.431177
11
-0.253561
21
-0.426012
0
LINE
8
BLACK
6
CONTINUOUS
10
-0.253561
20
-0.426012
11
-0.261078
21
-0.419593
0
LINE
8
BLACK
6
CONTINUOUS
10
-0.261078
20
-0.419593
11
-0.267497
21
-0.412076
0
LINE
8
BLACK
6
CONTINUOUS
10
-0.267497
20
-0.412076
11
-0.272662
21
-0.403648
0
LINE
8
BLACK
6
CONTINUOUS
10
-0.272662
20
-0.403648
11
-0.276444
21
-0.394516
0
LINE
8
BLACK
6
CONTINUOUS
10
-0.276444
20
-0.394516
11
-0.278752
21
-0.384904
0
LINE
8
BLACK
6
CONTINUOUS
10
-0.278752
20
-0.384904
11
-0.279528
21
-0.37505
0
LINE
8
BLACK
6
CONTINUOUS
10
-0.279528
20
-0.37505
11
-0.278752
21
-0.365196
0
LINE
8
BLACK
6
CONTINUOUS
10
-0.278752
20
-0.365196
11
-0.276444
21
-0.355585
0
LINE
8
BLACK
6
CONTINUOUS
10
-0.276444
20
-0.355585
11
-0.272662
21
-0.346453
0
LINE
8
BLACK
6
CONTINUOUS
10
-0.272662
20
-0.346453
11
-0.267497
21
-0.338025
0
LINE
8
BLACK
6
CONTINUOUS
10
-0.267497
20
-0.338025
11
-0.261078
21
-0.330508
0
LINE
8
BLACK
6
CONTINUOUS
10
-0.261078
20
-0.330508
11
-0.253561
21
-0.324089
0
LINE
8
BLACK
6
CONTINUOUS
10
-0.253561
20
-0.324089
11
-0.245133
21
-0.318924
0
LINE
8
BLACK
6
CONTINUOUS
10
-0.245133
20
-0.318924
11
-0.236001
21
-0.315141
0
LINE
8
BLACK
6
CONTINUOUS
10
-0.236001
20
-0.315141
11
-0.22639
21
-0.312834
0
LINE
8
BLACK
6
CONTINUOUS
10
-0.22639
20
-0.312834
11
-0.216535
21
-0.312058
0
LINE
8
BLACK
6
CONTINUOUS
10
-0.216535
20
-0.312058
11
-0.206681
21
-0.312834
0
LINE
8
BLACK
6
CONTINUOUS
10
0.442925
20
0.0622166
11
0.452536
21
0.0599091
0
LINE
8
BLACK
6
CONTINUOUS
10
0.452536
20
0.0599091
11
0.461669
21
0.0561264
0
LINE
8
BLACK
6
CONTINUOUS
10
0.461669
20
0.0561264
11
0.470097
21
0.0509617
0
LINE
8
BLACK
6
CONTINUOUS
10
0.470097
20
0.0509617
11
0.477613
21
0.0445422
0
LINE
8
BLACK
6
CONTINUOUS
10
0.477613
20
0.0445422
11
0.484033
21
0.0370258
0
LINE
8
BLACK
6
CONTINUOUS
10
0.484033
20
0.0370258
11
0.489197
21
0.0285978
0
LINE
8
BLACK
6
CONTINUOUS
10
0.489197
20
0.0285978
11
0.49298
21
0.0194656
0
LINE
8
BLACK
6
CONTINUOUS
10
0.49298
20
0.0194656
11
0.495287
21
0.00985413
0
LINE
8
BLACK
6
CONTINUOUS
10
0.495287
20
0.00985413
11
0.496063
21
0
0
LINE
8
BLACK
6
CONTINUOUS
10
0.496063
20
0
11
0.495287
21
-0.00985413
0
LINE
8
BLACK
6
CONTINUOUS
10
0.495287
20
-0.00985413
11
0.49298
21
-0.0194656
0
LINE
8
BLACK
6
CONTINUOUS
10
0.49298
20
-0.0194656
11
0.489197
21
-0.0285978
0
LINE
8
BLACK
6
CONTINUOUS
10
0.489197
20
-0.0285978
11
0.484033
21
-0.0370258
0
LINE
8
BLACK
6
CONTINUOUS
10
0.484033
20
-0.0370258
11
0.477613
21
-0.0445422
0
LINE
8
BLACK
6
CONTINUOUS
10
0.477613
20
-0.0445422
11
0.470097
21
-0.0509617
0
LINE
8
BLACK
6
CONTINUOUS
10
0.470097
20
-0.0509617
11
0.461669
21
-0.0561264
0
LINE
8
BLACK
6
CONTINUOUS
10
0.461669
20
-0.0561264
11
0.452536
21
-0.0599091
0
LINE
8
BLACK
6
CONTINUOUS
10
0.452536
20
-0.0599091
11
0.442925
21
-0.0622166
0
LINE
8
BLACK
6
CONTINUOUS
10
0.442925
20
-0.0622166
11
0.433071
21
-0.0629921
0
LINE
8
BLACK
6
CONTINUOUS
10
0.433071
20
-0.0629921
11
0.423217
21
-0.0622166
0
LINE
8
BLACK
6
CONTINUOUS
10
0.423217
20
-0.0622166
11
0.413605
21
-0.0599091
0
LINE
8
BLACK
6
CONTINUOUS
10
0.413605
20
-0.0599091
11
0.404473
21
-0.0561264
0
LINE
8
BLACK
6
CONTINUOUS
10
0.404473
20
-0.0561264
11
0.396045
21
-0.0509617
0
LINE
8
BLACK
6
CONTINUOUS
10
0.396045
20
-0.0509617
11
0.388529
21
-0.0445422
0
LINE
8
BLACK
6
CONTINUOUS
10
0.388529
20
-0.0445422
11
0.382109
21
-0.0370258
0
LINE
8
BLACK
6
CONTINUOUS
10
0.382109
20
-0.0370258
11
0.376944
21
-0.0285978
0
LINE
8
BLACK
6
CONTINUOUS
10
0.376944
20
-0.0285978
11
0.373162
21
-0.0194656
0
LINE
8
BLACK
6
CONTINUOUS
10
0.373162
20
-0.0194656
11
0.370854
21
-0.00985413
0
LINE
8
BLACK
6
CONTINUOUS
10
0.370854
20
-0.00985413
11
0.370079
21
0
0
LINE
8
BLACK
6
CONTINUOUS
10
0.370079
20
0
11
0.370854
21
0.00985413
0
LINE
8
BLACK
6
CONTINUOUS
10
0.370854
20
0.00985413
11
0.373162
21
0.0194656
0
LINE
8
BLACK
6
CONTINUOUS
10
0.373162
20
0.0194656
11
0.376944
21
0.0285978
0
LINE
8
BLACK
6
CONTINUOUS
10
0.376944
20
0.0285978
11
0.382109
21
0.0370258
0
LINE
8
BLACK
6
CONTINUOUS
10
0.382109
20
0.0370258
11
0.388529
21
0.0445422
0
LINE
8
BLACK
6
CONTINUOUS
10
0.388529
20
0.0445422
11
0.396045
21
0.0509617
0
LINE
8
BLACK
6
CONTINUOUS
10
0.396045
20
0.0509617
11
0.404473
21
0.0561264
0
LINE
8
BLACK
6
CONTINUOUS
10
0.404473
20
0.0561264
11
0.413605
21
0.0599091
0
LINE
8
BLACK
6
CONTINUOUS
10
0.413605
20
0.0599091
11
0.423217
21
0.0622166
0
LINE
8
BLACK
6
CONTINUOUS
10
0.423217
20
0.0622166
11
0.433071
21
0.0629921
0
LINE
8
BLACK
6
CONTINUOUS
10
0.433071
20
0.0629921
11
0.442925
21
0.0622166
0
LINE
8
BLACK
6
CONTINUOUS
10
-0.206681
20
0.437267
11
-0.19707
21
0.434959
0
LINE
8
BLACK
6
CONTINUOUS
10
-0.19707
20
0.434959
11
-0.187938
21
0.431177
0
LINE
8
BLACK
6
CONTINUOUS
10
-0.187938
20
0.431177
11
-0.17951
21
0.426012
0
LINE
8
BLACK
6
CONTINUOUS
10
-0.17951
20
0.426012
11
-0.171993
21
0.419593
0
LINE
8
BLACK
6
CONTINUOUS
10
-0.171993
20
0.419593
11
-0.165574
21
0.412076
0
LINE
8
BLACK
6
CONTINUOUS
10
-0.165574
20
0.412076
11
-0.160409
21
0.403648
0
LINE
8
BLACK
6
CONTINUOUS
10
-0.160409
20
0.403648
11
-0.156626
21
0.394516
0
LINE
8
BLACK
6
CONTINUOUS
10
-0.156626
20
0.394516
11
-0.154319
21
0.384904
0
LINE
8
BLACK
6
CONTINUOUS
10
-0.154319
20
0.384904
11
-0.153543
21
0.37505
0
LINE
8
BLACK
6
CONTINUOUS
10
-0.153543
20
0.37505
11
-0.154319
21
0.365196
0
LINE
8
BLACK
6
CONTINUOUS
10
-0.154319
20
0.365196
11
-0.156626
21
0.355585
0
LINE
8
BLACK
6
CONTINUOUS
10
-0.156626
20
0.355585
11
-0.160409
21
0.346453
0
LINE
8
BLACK
6
CONTINUOUS
10
-0.160409
20
0.346453
11
-0.165574
21
0.338025
0
LINE
8
BLACK
6
CONTINUOUS
10
-0.165574
20
0.338025
11
-0.171993
21
0.330508
0
LINE
8
BLACK
6
CONTINUOUS
10
-0.171993
20
0.330508
11
-0.17951
21
0.324089
0
LINE
8
BLACK
6
CONTINUOUS
10
-0.17951
20
0.324089
11
-0.187938
21
0.318924
0
LINE
8
BLACK
6
CONTINUOUS
10
-0.187938
20
0.318924
11
-0.19707
21
0.315141
0
LINE
8
BLACK
6
CONTINUOUS
10
-0.19707
20
0.315141
11
-0.206681
21
0.312834
0
LINE
8
BLACK
6
CONTINUOUS
10
-0.206681
20
0.312834
11
-0.216535
21
0.312058
0
LINE
8
BLACK
6
CONTINUOUS
10
-0.216535
20
0.312058
11
-0.22639
21
0.312834
0
LINE
8
BLACK
6
CONTINUOUS
10
-0.22639
20
0.312834
11
-0.236001
21
0.315141
0
LINE
8
BLACK
6
CONTINUOUS
10
-0.236001
20
0.315141
11
-0.245133
21
0.318924
0
LINE
8
BLACK
6
CONTINUOUS
10
-0.245133
20
0.318924
11
-0.253561
21
0.324089
0
LINE
8
BLACK
6
CONTINUOUS
10
-0.253561
20
0.324089
11
-0.261078
21
0.330508
0
LINE
8
BLACK
6
CONTINUOUS
10
-0.261078
20
0.330508
11
-0.267497
21
0.338025
0
LINE
8
BLACK
6
CONTINUOUS
10
-0.267497
20
0.338025
11
-0.272662
21
0.346453
0
LINE
8
BLACK
6
CONTINUOUS
10
-0.272662
20
0.346453
11
-0.276444
21
0.355585
0
LINE
8
BLACK
6
CONTINUOUS
10
-0.276444
20
0.355585
11
-0.278752
21
0.365196
0
LINE
8
BLACK
6
CONTINUOUS
10
-0.278752
20
0.365196
11
-0.279528
21
0.37505
0
LINE
8
BLACK
6
CONTINUOUS
10
-0.279528
20
0.37505
11
-0.278752
21
0.384904
0
LINE
8
BLACK
6
CONTINUOUS
10
-0.278752
20
0.384904
11
-0.276444
21
0.394516
0
LINE
8
BLACK
6
CONTINUOUS
10
-0.276444
20
0.394516
11
-0.272662
21
0.403648
0
LINE
8
BLACK
6
CONTINUOUS
10
-0.272662
20
0.403648
11
-0.267497
21
0.412076
0
LINE
8
BLACK
6
CONTINUOUS
10
-0.267497
20
0.412076
11
-0.261078
21
0.419593
0
LINE
8
BLACK
6
CONTINUOUS
10
-0.261078
20
0.419593
11
-0.253561
21
0.426012
0
LINE
8
BLACK
6
CONTINUOUS
10
-0.253561
20
0.426012
11
-0.245133
21
0.431177
0
LINE
8
BLACK
6
CONTINUOUS
10
-0.245133
20
0.431177
11
-0.236001
21
0.434959
0
LINE
8
BLACK
6
CONTINUOUS
10
-0.236001
20
0.434959
11
-0.22639
21
0.437267
0
LINE
8
BLACK
6
CONTINUOUS
10
-0.22639
20
0.437267
11
-0.216535
21
0.438042
0
LINE
8
BLACK
6
CONTINUOUS
10
-0.216535
20
0.438042
11
-0.206681
21
0.437267
0
LINE
8
BLACK
6
CONTINUOUS
10
0.775129
20
0.649307
11
0.776406
21
0.648453
0
LINE
8
BLACK
6
CONTINUOUS
10
0.776406
20
0.648453
11
0.777259
21
0.647176
0
LINE
8
BLACK
6
CONTINUOUS
10
0.777259
20
0.647176
11
0.777559
21
0.645669
0
LINE
8
BLACK
6
CONTINUOUS
10
0.777559
20
0.645669
11
0.777559
21
0.625984
0
LINE
8
BLACK
6
CONTINUOUS
10
0.777559
20
0.625984
11
0.777359
21
0.624977
0
LINE
8
BLACK
6
CONTINUOUS
10
0.777359
20
0.624977
11
0.777359
21
0.623183
0
LINE
8
BLACK
6
CONTINUOUS
10
0.777359
20
0.623183
11
0.777199
21
0.622074
0
LINE
8
BLACK
6
CONTINUOUS
10
0.777199
20
0.622074
11
0.775621
21
0.616698
0
LINE
8
BLACK
6
CONTINUOUS
10
0.775621
20
0.616698
11
0.775155
21
0.615678
0
LINE
8
BLACK
6
CONTINUOUS
10
0.775155
20
0.615678
11
0.772126
21
0.610965
0
LINE
8
BLACK
6
CONTINUOUS
10
0.772126
20
0.610965
11
0.771392
21
0.610118
0
LINE
8
BLACK
6
CONTINUOUS
10
0.771392
20
0.610118
11
0.767158
21
0.606449
0
LINE
8
BLACK
6
CONTINUOUS
10
0.767158
20
0.606449
11
0.766215
21
0.605843
0
LINE
8
BLACK
6
CONTINUOUS
10
0.766215
20
0.605843
11
0.761118
21
0.603515
0
LINE
8
BLACK
6
CONTINUOUS
10
0.761118
20
0.603515
11
0.760043
21
0.6032
0
LINE
8
BLACK
6
CONTINUOUS
10
0.760043
20
0.6032
11
0.754497
21
0.602402
0
LINE
8
BLACK
6
CONTINUOUS
10
0.754497
20
0.602402
11
0.753937
21
0.602362
0
LINE
8
BLACK
6
CONTINUOUS
10
0.753937
20
0.602362
11
0.734252
21
0.602362
0
LINE
8
BLACK
6
CONTINUOUS
10
0.734252
20
0.602362
11
0.733692
21
0.602402
0
LINE
8
BLACK
6
CONTINUOUS
10
0.733692
20
0.602402
11
0.728146
21
0.6032
0
LINE
8
BLACK
6
CONTINUOUS
10
0.728146
20
0.6032
11
0.727071
21
0.603515
0
LINE
8
BLACK
6
CONTINUOUS
10
0.727071
20
0.603515
11
0.721974
21
0.605843
0
LINE
8
BLACK
6
CONTINUOUS
10
0.721974
20
0.605843
11
0.721031
21
0.606449
0
LINE
8
BLACK
6
CONTINUOUS
10
0.721031
20
0.606449
11
0.716797
21
0.610118
0
LINE
8
BLACK
6
CONTINUOUS
10
0.716797
20
0.610118
11
0.716063
21
0.610965
0
LINE
8
BLACK
6
CONTINUOUS
10
0.716063
20
0.610965
11
0.713034
21
0.615678
0
LINE
8
BLACK
6
CONTINUOUS
10
0.713034
20
0.615678
11
0.712568
21
0.616698
0
LINE
8
BLACK
6
CONTINUOUS
10
0.712568
20
0.616698
11
0.71099
21
0.622074
0
LINE
8
BLACK
6
CONTINUOUS
10
0.71099
20
0.622074
11
0.71083
21
0.623183
0
LINE
8
BLACK
6
CONTINUOUS
10
0.71083
20
0.623183
11
0.71083
21
0.624977
0
LINE
8
BLACK
6
CONTINUOUS
10
0.71083
20
0.624977
11
0.71063
21
0.625984
0
LINE
8
BLACK
6
CONTINUOUS
10
0.71063
20
0.625984
11
0.71063
21
0.645669
0
LINE
8
BLACK
6
CONTINUOUS
10
0.71063
20
0.645669
11
0.71093
21
0.647176
0
LINE
8
BLACK
6
CONTINUOUS
10
0.71093
20
0.647176
11
0.711783
21
0.648453
0
LINE
8
BLACK
6
CONTINUOUS
10
0.711783
20
0.648453
11
0.71306
21
0.649307
0
LINE
8
BLACK
6
CONTINUOUS
10
0.71306
20
0.649307
11
0.714567
21
0.649606
0
LINE
8
BLACK
6
CONTINUOUS
10
0.714567
20
0.649606
11
0.773622
21
0.649606
0
LINE
8
BLACK
6
CONTINUOUS
10
0.773622
20
0.649606
11
0.775129
21
0.649307
0
LINE
8
BLACK
6
CONTINUOUS
10
0.754497
20
0.700747
11
0.760043
21
0.69995
0
LINE
8
BLACK
6
CONTINUOUS
10
0.760043
20
0.69995
11
0.761118
21
0.699634
0
LINE
8
BLACK
6
CONTINUOUS
10
0.761118
20
0.699634
11
0.766215
21
0.697307
0
LINE
8
BLACK
6
CONTINUOUS
10
0.766215
20
0.697307
11
0.767158
21
0.696701
0
LINE
8
BLACK
6
CONTINUOUS
10
0.767158
20
0.696701
11
0.771392
21
0.693032
0
LINE
8
BLACK
6
CONTINUOUS
10
0.771392
20
0.693032
11
0.772126
21
0.692185
0
LINE
8
BLACK
6
CONTINUOUS
10
0.772126
20
0.692185
11
0.775155
21
0.687471
0
LINE
8
BLACK
6
CONTINUOUS
10
0.775155
20
0.687471
11
0.775621
21
0.686452
0
LINE
8
BLACK
6
CONTINUOUS
10
0.775621
20
0.686452
11
0.777199
21
0.681076
0
LINE
8
BLACK
6
CONTINUOUS
10
0.777199
20
0.681076
11
0.777359
21
0.679967
0
LINE
8
BLACK
6
CONTINUOUS
10
0.777359
20
0.679967
11
0.777359
21
0.678173
0
LINE
8
BLACK
6
CONTINUOUS
10
0.777359
20
0.678173
11
0.777559
21
0.677165
0
LINE
8
BLACK
6
CONTINUOUS
10
0.777559
20
0.677165
11
0.777559
21
0.65748
0
LINE
8
BLACK
6
CONTINUOUS
10
0.777559
20
0.65748
11
0.777259
21
0.655974
0
LINE
8
BLACK
6
CONTINUOUS
10
0.777259
20
0.655974
11
0.776406
21
0.654696
0
LINE
8
BLACK
6
CONTINUOUS
10
0.776406
20
0.654696
11
0.775129
21
0.653843
0
LINE
8
BLACK
6
CONTINUOUS
10
0.775129
20
0.653843
11
0.773622
21
0.653543
0
LINE
8
BLACK
6
CONTINUOUS
10
0.773622
20
0.653543
11
0.714567
21
0.653543
0
LINE
8
BLACK
6
CONTINUOUS
10
0.714567
20
0.653543
11
0.71306
21
0.653843
0
LINE
8
BLACK
6
CONTINUOUS
10
0.71306
20
0.653843
11
0.711783
21
0.654696
0
LINE
8
BLACK
6
CONTINUOUS
10
0.711783
20
0.654696
11
0.71093
21
0.655974
0
LINE
8
BLACK
6
CONTINUOUS
10
0.71093
20
0.655974
11
0.71063
21
0.65748
0
LINE
8
BLACK
6
CONTINUOUS
10
0.71063
20
0.65748
11
0.71063
21
0.677165
0
LINE
8
BLACK
6
CONTINUOUS
10
0.71063
20
0.677165
11
0.71083
21
0.678173
0
LINE
8
BLACK
6
CONTINUOUS
10
0.71083
20
0.678173
11
0.71083
21
0.679967
0
LINE
8
BLACK
6
CONTINUOUS
10
0.71083
20
0.679967
11
0.71099
21
0.681076
0
LINE
8
BLACK
6
CONTINUOUS
10
0.71099
20
0.681076
11
0.712568
21
0.686452
0
LINE
8
BLACK
6
CONTINUOUS
10
0.712568
20
0.686452
11
0.713034
21
0.687471
0
LINE
8
BLACK
6
CONTINUOUS
10
0.713034
20
0.687471
11
0.716063
21
0.692185
0
LINE
8
BLACK
6
CONTINUOUS
10
0.716063
20
0.692185
11
0.716797
21
0.693032
0
LINE
8
BLACK
6
CONTINUOUS
10
0.716797
20
0.693032
11
0.721031
21
0.696701
0
LINE
8
BLACK
6
CONTINUOUS
10
0.721031
20
0.696701
11
0.721974
21
0.697307
0
LINE
8
BLACK
6
CONTINUOUS
10
0.721974
20
0.697307
11
0.727071
21
0.699634
0
LINE
8
BLACK
6
CONTINUOUS
10
0.727071
20
0.699634
11
0.728146
21
0.69995
0
LINE
8
BLACK
6
CONTINUOUS
10
0.728146
20
0.69995
11
0.733692
21
0.700747
0
LINE
8
BLACK
6
CONTINUOUS
10
0.733692
20
0.700747
11
0.734252
21
0.700787
0
LINE
8
BLACK
6
CONTINUOUS
10
0.734252
20
0.700787
11
0.753937
21
0.700787
0
LINE
8
BLACK
6
CONTINUOUS
10
0.753937
20
0.700787
11
0.754497
21
0.700747
0
LINE
8
BLACK
6
CONTINUOUS
10
0.753324
20
0.835807
11
0.762273
21
0.833409
0
LINE
8
BLACK
6
CONTINUOUS
10
0.762273
20
0.833409
11
0.770669
21
0.829493
0
LINE
8
BLACK
6
CONTINUOUS
10
0.770669
20
0.829493
11
0.778258
21
0.82418
0
LINE
8
BLACK
6
CONTINUOUS
10
0.778258
20
0.82418
11
0.784809
21
0.817628
0
LINE
8
BLACK
6
CONTINUOUS
10
0.784809
20
0.817628
11
0.790123
21
0.810039
0
LINE
8
BLACK
6
CONTINUOUS
10
0.790123
20
0.810039
11
0.794039
21
0.801643
0
LINE
8
BLACK
6
CONTINUOUS
10
0.794039
20
0.801643
11
0.796437
21
0.792694
0
LINE
8
BLACK
6
CONTINUOUS
10
0.796437
20
0.792694
11
0.797244
21
0.783465
0
LINE
8
BLACK
6
CONTINUOUS
10
0.797244
20
0.783465
11
0.796437
21
0.774235
0
LINE
8
BLACK
6
CONTINUOUS
10
0.796437
20
0.774235
11
0.794039
21
0.765286
0
LINE
8
BLACK
6
CONTINUOUS
10
0.794039
20
0.765286
11
0.790123
21
0.75689
0
LINE
8
BLACK
6
CONTINUOUS
10
0.790123
20
0.75689
11
0.784809
21
0.749301
0
LINE
8
BLACK
6
CONTINUOUS
10
0.784809
20
0.749301
11
0.778258
21
0.74275
0
LINE
8
BLACK
6
CONTINUOUS
10
0.778258
20
0.74275
11
0.770669
21
0.737436
0
LINE
8
BLACK
6
CONTINUOUS
10
0.770669
20
0.737436
11
0.762273
21
0.73352
0
LINE
8
BLACK
6
CONTINUOUS
10
0.762273
20
0.73352
11
0.753324
21
0.731122
0
LINE
8
BLACK
6
CONTINUOUS
10
0.753324
20
0.731122
11
0.744094
21
0.730315
0
LINE
8
BLACK
6
CONTINUOUS
10
0.744094
20
0.730315
11
0.734865
21
0.731122
0
LINE
8
BLACK
6
CONTINUOUS
10
0.734865
20
0.731122
11
0.725916
21
0.73352
0
LINE
8
BLACK
6
CONTINUOUS
10
0.725916
20
0.73352
11
0.71752
21
0.737436
0
LINE
8
BLACK
6
CONTINUOUS
10
0.71752
20
0.737436
11
0.709931
21
0.74275
0
LINE
8
BLACK
6
CONTINUOUS
10
0.709931
20
0.74275
11
0.70338
21
0.749301
0
LINE
8
BLACK
6
CONTINUOUS
10
0.70338
20
0.749301
11
0.698066
21
0.75689
0
LINE
8
BLACK
6
CONTINUOUS
10
0.698066
20
0.75689
11
0.69415
21
0.765286
0
LINE
8
BLACK
6
CONTINUOUS
10
0.69415
20
0.765286
11
0.691752
21
0.774235
0
LINE
8
BLACK
6
CONTINUOUS
10
0.691752
20
0.774235
11
0.690945
21
0.783465
0
LINE
8
BLACK
6
CONTINUOUS
10
0.690945
20
0.783465
11
0.691752
21
0.792694
0
LINE
8
BLACK
6
CONTINUOUS
10
0.691752
20
0.792694
11
0.69415
21
0.801643
0
LINE
8
BLACK
6
CONTINUOUS
10
0.69415
20
0.801643
11
0.698066
21
0.810039
0
LINE
8
BLACK
6
CONTINUOUS
10
0.698066
20
0.810039
11
0.70338
21
0.817628
0
LINE
8
BLACK
6
CONTINUOUS
10
0.70338
20
0.817628
11
0.709931
21
0.82418
0
LINE
8
BLACK
6
CONTINUOUS
10
0.709931
20
0.82418
11
0.71752
21
0.829493
0
LINE
8
BLACK
6
CONTINUOUS
10
0.71752
20
0.829493
11
0.725916
21
0.833409
0
LINE
8
BLACK
6
CONTINUOUS
10
0.725916
20
0.833409
11
0.734865
21
0.835807
0
LINE
8
BLACK
6
CONTINUOUS
10
0.734865
20
0.835807
11
0.744094
21
0.836614
0
LINE
8
BLACK
6
CONTINUOUS
10
0.744094
20
0.836614
11
0.753324
21
0.835807
  0
ENDSEC
  0
EOF
