  0
SECTION
  2
HEADER
  9
$ANGBASE
  50
0.0
  9
$ANGDIR
  70
1
  9
$MEASUREMENT
  70
0
  0
ENDSEC
  0
SECTION
  2
TABLES
  0
TABLE
  2
LTYPE
  70
4
  0
LTYPE
  5
40F
  2
CONTINUOUS
  70
0
  3
Solid line
  72
65
  73
0
  40
0.0
  0
LTYPE
  5
410
  2
DASHDOT
 70
0
  3
Dash Dot ____ _ ____ _
 72
65
 73
4
 40
2.0
 49
1.25
 49
-0.25
 49
0.25
 49
-0.25
  0
LTYPE
  5
411
  2
DASHED
 70
0
  3
Dashed __ __ __ __ __
 72
65
 73
2
 40
0.75
 49
0.5
 49
-0.25
  0
LTYPE
  5
43B
  2
DOTTED
 70
0
  3
Dotted .  .  .  .
 72
65
 73
2
 40
0.2
 49
0.0
 49
-0.2
  0
ENDTAB
  0
TABLE
  2
STYLE
  70
4
  0
STYLE
  2
KICAD
  70
0
  40
0
  41
1
  42
1
  50
0
  71
0
  3
isocp.shx
  0
STYLE
  2
KICADB
  70
0
  40
0
  41
1
  42
1
  50
0
  71
0
  3
isocp.shx
  0
STYLE
  2
KICADI
  70
0
  40
0
  41
1
  42
1
  50
15
  71
0
  3
isocp.shx
  0
STYLE
  2
KICADBI
  70
0
  40
0
  41
1
  42
1
  50
15
  71
0
  3
isocp.shx
  0
ENDTAB
  0
TABLE
  2
LAYER
  70
1
  0
LAYER
  2
BLACK
  70
0
  62
7
  6
CONTINUOUS
  0
ENDTAB
  0
ENDSEC
  0
SECTION
  2
ENTITIES
0
LINE
8
BLACK
6
CONTINUOUS
10
0.395449
20
-0.624323
11
0.335449
21
-0.624323
0
LINE
8
BLACK
6
CONTINUOUS
10
0.335449
20
-0.624323
11
0.335449
21
-0.564323
0
LINE
8
BLACK
6
CONTINUOUS
10
0.335449
20
-0.564323
11
0.395449
21
-0.564323
0
LINE
8
BLACK
6
CONTINUOUS
10
0.395449
20
-0.564323
11
0.395449
21
-0.624323
0
LINE
8
BLACK
6
CONTINUOUS
10
0.495449
20
-0.624323
11
0.435449
21
-0.624323
0
LINE
8
BLACK
6
CONTINUOUS
10
0.435449
20
-0.624323
11
0.435449
21
-0.564323
0
LINE
8
BLACK
6
CONTINUOUS
10
0.435449
20
-0.564323
11
0.495449
21
-0.564323
0
LINE
8
BLACK
6
CONTINUOUS
10
0.495449
20
-0.564323
11
0.495449
21
-0.624323
0
LINE
8
BLACK
6
CONTINUOUS
10
0.595449
20
-0.624323
11
0.535449
21
-0.624323
0
LINE
8
BLACK
6
CONTINUOUS
10
0.535449
20
-0.624323
11
0.535449
21
-0.564323
0
LINE
8
BLACK
6
CONTINUOUS
10
0.535449
20
-0.564323
11
0.595449
21
-0.564323
0
LINE
8
BLACK
6
CONTINUOUS
10
0.595449
20
-0.564323
11
0.595449
21
-0.624323
0
LINE
8
BLACK
6
CONTINUOUS
10
0.395449
20
-0.524323
11
0.335449
21
-0.524323
0
LINE
8
BLACK
6
CONTINUOUS
10
0.335449
20
-0.524323
11
0.335449
21
-0.464323
0
LINE
8
BLACK
6
CONTINUOUS
10
0.335449
20
-0.464323
11
0.395449
21
-0.464323
0
LINE
8
BLACK
6
CONTINUOUS
10
0.395449
20
-0.464323
11
0.395449
21
-0.524323
0
LINE
8
BLACK
6
CONTINUOUS
10
0.495449
20
-0.524323
11
0.435449
21
-0.524323
0
LINE
8
BLACK
6
CONTINUOUS
10
0.435449
20
-0.524323
11
0.435449
21
-0.464323
0
LINE
8
BLACK
6
CONTINUOUS
10
0.435449
20
-0.464323
11
0.495449
21
-0.464323
0
LINE
8
BLACK
6
CONTINUOUS
10
0.495449
20
-0.464323
11
0.495449
21
-0.524323
0
LINE
8
BLACK
6
CONTINUOUS
10
0.595449
20
-0.524323
11
0.535449
21
-0.524323
0
LINE
8
BLACK
6
CONTINUOUS
10
0.535449
20
-0.524323
11
0.535449
21
-0.464323
0
LINE
8
BLACK
6
CONTINUOUS
10
0.535449
20
-0.464323
11
0.595449
21
-0.464323
0
LINE
8
BLACK
6
CONTINUOUS
10
0.595449
20
-0.464323
11
0.595449
21
-0.524323
0
LINE
8
BLACK
6
CONTINUOUS
10
-0.723003
20
-0.471848
11
-0.751985
21
-0.48858
0
LINE
8
BLACK
6
CONTINUOUS
10
-0.751985
20
-0.48858
11
-0.774622
21
-0.44937
0
LINE
8
BLACK
6
CONTINUOUS
10
-0.774622
20
-0.44937
11
-0.745641
21
-0.432638
0
LINE
8
BLACK
6
CONTINUOUS
10
-0.745641
20
-0.432638
11
-0.723003
21
-0.471848
0
LINE
8
BLACK
6
CONTINUOUS
10
-0.680043
20
-0.447045
11
-0.713116
21
-0.466139
0
LINE
8
BLACK
6
CONTINUOUS
10
-0.713116
20
-0.466139
11
-0.735754
21
-0.426929
0
LINE
8
BLACK
6
CONTINUOUS
10
-0.735754
20
-0.426929
11
-0.702681
21
-0.407835
0
LINE
8
BLACK
6
CONTINUOUS
10
-0.702681
20
-0.407835
11
-0.680043
21
-0.447045
0
LINE
8
BLACK
6
CONTINUOUS
10
-0.751547
20
-0.422409
11
-0.780528
21
-0.439141
0
LINE
8
BLACK
6
CONTINUOUS
10
-0.780528
20
-0.439141
11
-0.799229
21
-0.406751
0
LINE
8
BLACK
6
CONTINUOUS
10
-0.799229
20
-0.406751
11
-0.770247
21
-0.390019
0
LINE
8
BLACK
6
CONTINUOUS
10
-0.770247
20
-0.390019
11
-0.751547
21
-0.422409
0
LINE
8
BLACK
6
CONTINUOUS
10
-0.708586
20
-0.397606
11
-0.741659
21
-0.416701
0
LINE
8
BLACK
6
CONTINUOUS
10
-0.741659
20
-0.416701
11
-0.76036
21
-0.38431
0
LINE
8
BLACK
6
CONTINUOUS
10
-0.76036
20
-0.38431
11
-0.727287
21
-0.365215
0
LINE
8
BLACK
6
CONTINUOUS
10
-0.727287
20
-0.365215
11
-0.708586
21
-0.397606
0
LINE
8
BLACK
6
CONTINUOUS
10
-0.579236
20
0.209083
11
-0.594721
21
0.166538
0
LINE
8
BLACK
6
CONTINUOUS
10
-0.594721
20
0.166538
11
-0.630607
21
0.1796
0
LINE
8
BLACK
6
CONTINUOUS
10
-0.630607
20
0.1796
11
-0.615122
21
0.222145
0
LINE
8
BLACK
6
CONTINUOUS
10
-0.615122
20
0.222145
11
-0.579236
21
0.209083
0
LINE
8
BLACK
6
CONTINUOUS
10
-0.625851
20
0.22605
11
-0.641336
21
0.183505
0
LINE
8
BLACK
6
CONTINUOUS
10
-0.641336
20
0.183505
11
-0.672782
21
0.19495
0
LINE
8
BLACK
6
CONTINUOUS
10
-0.672782
20
0.19495
11
-0.657297
21
0.237495
0
LINE
8
BLACK
6
CONTINUOUS
10
-0.657297
20
0.237495
11
-0.625851
21
0.22605
0
LINE
8
BLACK
6
CONTINUOUS
10
-0.562404
20
0.255328
11
-0.575196
21
0.220182
0
LINE
8
BLACK
6
CONTINUOUS
10
-0.575196
20
0.220182
11
-0.611082
21
0.233244
0
LINE
8
BLACK
6
CONTINUOUS
10
-0.611082
20
0.233244
11
-0.59829
21
0.26839
0
LINE
8
BLACK
6
CONTINUOUS
10
-0.59829
20
0.26839
11
-0.562404
21
0.255328
0
LINE
8
BLACK
6
CONTINUOUS
10
-0.609019
20
0.272295
11
-0.621811
21
0.237149
0
LINE
8
BLACK
6
CONTINUOUS
10
-0.621811
20
0.237149
11
-0.653257
21
0.248594
0
LINE
8
BLACK
6
CONTINUOUS
10
-0.653257
20
0.248594
11
-0.640465
21
0.28374
0
LINE
8
BLACK
6
CONTINUOUS
10
-0.640465
20
0.28374
11
-0.609019
21
0.272295
  0
ENDSEC
  0
EOF
