  0
SECTION
  2
HEADER
  9
$ANGBASE
  50
0.0
  9
$ANGDIR
  70
1
  9
$MEASUREMENT
  70
0
  0
ENDSEC
  0
SECTION
  2
TABLES
  0
TABLE
  2
LTYPE
  70
4
  0
LTYPE
  5
40F
  2
CONTINUOUS
  70
0
  3
Solid line
  72
65
  73
0
  40
0.0
  0
LTYPE
  5
410
  2
DASHDOT
 70
0
  3
Dash Dot ____ _ ____ _
 72
65
 73
4
 40
2.0
 49
1.25
 49
-0.25
 49
0.25
 49
-0.25
  0
LTYPE
  5
411
  2
DASHED
 70
0
  3
Dashed __ __ __ __ __
 72
65
 73
2
 40
0.75
 49
0.5
 49
-0.25
  0
LTYPE
  5
43B
  2
DOTTED
 70
0
  3
Dotted .  .  .  .
 72
65
 73
2
 40
0.2
 49
0.0
 49
-0.2
  0
ENDTAB
  0
TABLE
  2
STYLE
  70
4
  0
STYLE
  2
KICAD
  70
0
  40
0
  41
1
  42
1
  50
0
  71
0
  3
isocp.shx
  0
STYLE
  2
KICADB
  70
0
  40
0
  41
1
  42
1
  50
0
  71
0
  3
isocp.shx
  0
STYLE
  2
KICADI
  70
0
  40
0
  41
1
  42
1
  50
15
  71
0
  3
isocp.shx
  0
STYLE
  2
KICADBI
  70
0
  40
0
  41
1
  42
1
  50
15
  71
0
  3
isocp.shx
  0
ENDTAB
  0
TABLE
  2
LAYER
  70
1
  0
LAYER
  2
BLACK
  70
0
  62
7
  6
CONTINUOUS
  0
ENDTAB
  0
ENDSEC
  0
SECTION
  2
ENTITIES
0
LINE
8
BLACK
6
CONTINUOUS
10
-0.997965
20
-0.674725
11
-0.997917
21
-0.674718
0
LINE
8
BLACK
6
CONTINUOUS
10
-0.997917
20
-0.674718
11
-0.995356
21
-0.675405
0
LINE
8
BLACK
6
CONTINUOUS
10
-0.995356
20
-0.675405
11
-0.995318
21
-0.675434
0
LINE
8
BLACK
6
CONTINUOUS
10
-0.995318
20
-0.675434
11
-0.99527
21
-0.675443
0
LINE
8
BLACK
6
CONTINUOUS
10
-0.99527
20
-0.675443
11
-0.991771
21
-0.677753
0
LINE
8
BLACK
6
CONTINUOUS
10
-0.991771
20
-0.677753
11
-0.991753
21
-0.677781
0
LINE
8
BLACK
6
CONTINUOUS
10
-0.991753
20
-0.677781
11
-0.991722
21
-0.677794
0
LINE
8
BLACK
6
CONTINUOUS
10
-0.991722
20
-0.677794
11
-0.986349
21
-0.683351
0
LINE
8
BLACK
6
CONTINUOUS
10
-0.986349
20
-0.683351
11
-0.986335
21
-0.683386
0
LINE
8
BLACK
6
CONTINUOUS
10
-0.986335
20
-0.683386
11
-0.986305
21
-0.683409
0
LINE
8
BLACK
6
CONTINUOUS
10
-0.986305
20
-0.683409
11
-0.981618
21
-0.691527
0
LINE
8
BLACK
6
CONTINUOUS
10
-0.981618
20
-0.691527
11
-0.981613
21
-0.691564
0
LINE
8
BLACK
6
CONTINUOUS
10
-0.981613
20
-0.691564
11
-0.98159
21
-0.691593
0
LINE
8
BLACK
6
CONTINUOUS
10
-0.98159
20
-0.691593
11
-0.979464
21
-0.699025
0
LINE
8
BLACK
6
CONTINUOUS
10
-0.979464
20
-0.699025
11
-0.979468
21
-0.699058
0
LINE
8
BLACK
6
CONTINUOUS
10
-0.979468
20
-0.699058
11
-0.979453
21
-0.699089
0
LINE
8
BLACK
6
CONTINUOUS
10
-0.979453
20
-0.699089
11
-0.979202
21
-0.703273
0
LINE
8
BLACK
6
CONTINUOUS
10
-0.979202
20
-0.703273
11
-0.979218
21
-0.703319
0
LINE
8
BLACK
6
CONTINUOUS
10
-0.979218
20
-0.703319
11
-0.979212
21
-0.703367
0
LINE
8
BLACK
6
CONTINUOUS
10
-0.979212
20
-0.703367
11
-0.979898
21
-0.705928
0
LINE
8
BLACK
6
CONTINUOUS
10
-0.979898
20
-0.705928
11
-0.979928
21
-0.705967
0
LINE
8
BLACK
6
CONTINUOUS
10
-0.979928
20
-0.705967
11
-0.979937
21
-0.706015
0
LINE
8
BLACK
6
CONTINUOUS
10
-0.979937
20
-0.706015
11
-0.982247
21
-0.709513
0
LINE
8
BLACK
6
CONTINUOUS
10
-0.982247
20
-0.709513
11
-0.982304
21
-0.709551
0
LINE
8
BLACK
6
CONTINUOUS
10
-0.982304
20
-0.709551
11
-0.982345
21
-0.709606
0
LINE
8
BLACK
6
CONTINUOUS
10
-0.982345
20
-0.709606
11
-0.985592
21
-0.711481
0
LINE
8
BLACK
6
CONTINUOUS
10
-0.985592
20
-0.711481
11
-0.985661
21
-0.71149
0
LINE
8
BLACK
6
CONTINUOUS
10
-0.985661
20
-0.71149
11
-0.985722
21
-0.71152
0
LINE
8
BLACK
6
CONTINUOUS
10
-0.985722
20
-0.71152
11
-0.989907
21
-0.711771
0
LINE
8
BLACK
6
CONTINUOUS
10
-0.989907
20
-0.711771
11
-0.989953
21
-0.711755
0
LINE
8
BLACK
6
CONTINUOUS
10
-0.989953
20
-0.711755
11
-0.990001
21
-0.711761
0
LINE
8
BLACK
6
CONTINUOUS
10
-0.990001
20
-0.711761
11
-0.992562
21
-0.711075
0
LINE
8
BLACK
6
CONTINUOUS
10
-0.992562
20
-0.711075
11
-0.992601
21
-0.711046
0
LINE
8
BLACK
6
CONTINUOUS
10
-0.992601
20
-0.711046
11
-0.992648
21
-0.711036
0
LINE
8
BLACK
6
CONTINUOUS
10
-0.992648
20
-0.711036
11
-0.996147
21
-0.708727
0
LINE
8
BLACK
6
CONTINUOUS
10
-0.996147
20
-0.708727
11
-0.996166
21
-0.708699
0
LINE
8
BLACK
6
CONTINUOUS
10
-0.996166
20
-0.708699
11
-0.996196
21
-0.708685
0
LINE
8
BLACK
6
CONTINUOUS
10
-0.996196
20
-0.708685
11
-1.00157
21
-0.703128
0
LINE
8
BLACK
6
CONTINUOUS
10
-1.00157
20
-0.703128
11
-1.00158
21
-0.703094
0
LINE
8
BLACK
6
CONTINUOUS
10
-1.00158
20
-0.703094
11
-1.00161
21
-0.703071
0
LINE
8
BLACK
6
CONTINUOUS
10
-1.00161
20
-0.703071
11
-1.0063
21
-0.694953
0
LINE
8
BLACK
6
CONTINUOUS
10
-1.0063
20
-0.694953
11
-1.0063
21
-0.694916
0
LINE
8
BLACK
6
CONTINUOUS
10
-1.0063
20
-0.694916
11
-1.00633
21
-0.694886
0
LINE
8
BLACK
6
CONTINUOUS
10
-1.00633
20
-0.694886
11
-1.00845
21
-0.687455
0
LINE
8
BLACK
6
CONTINUOUS
10
-1.00845
20
-0.687455
11
-1.00845
21
-0.687421
0
LINE
8
BLACK
6
CONTINUOUS
10
-1.00845
20
-0.687421
11
-1.00846
21
-0.687391
0
LINE
8
BLACK
6
CONTINUOUS
10
-1.00846
20
-0.687391
11
-1.00872
21
-0.683207
0
LINE
8
BLACK
6
CONTINUOUS
10
-1.00872
20
-0.683207
11
-1.0087
21
-0.683161
0
LINE
8
BLACK
6
CONTINUOUS
10
-1.0087
20
-0.683161
11
-1.00871
21
-0.683112
0
LINE
8
BLACK
6
CONTINUOUS
10
-1.00871
20
-0.683112
11
-1.00802
21
-0.680551
0
LINE
8
BLACK
6
CONTINUOUS
10
-1.00802
20
-0.680551
11
-1.00799
21
-0.680513
0
LINE
8
BLACK
6
CONTINUOUS
10
-1.00799
20
-0.680513
11
-1.00798
21
-0.680465
0
LINE
8
BLACK
6
CONTINUOUS
10
-1.00798
20
-0.680465
11
-1.00567
21
-0.676967
0
LINE
8
BLACK
6
CONTINUOUS
10
-1.00567
20
-0.676967
11
-1.00561
21
-0.676928
0
LINE
8
BLACK
6
CONTINUOUS
10
-1.00561
20
-0.676928
11
-1.00557
21
-0.676874
0
LINE
8
BLACK
6
CONTINUOUS
10
-1.00557
20
-0.676874
11
-1.00233
21
-0.674999
0
LINE
8
BLACK
6
CONTINUOUS
10
-1.00233
20
-0.674999
11
-1.00226
21
-0.67499
0
LINE
8
BLACK
6
CONTINUOUS
10
-1.00226
20
-0.67499
11
-1.0022
21
-0.67496
0
LINE
8
BLACK
6
CONTINUOUS
10
-1.0022
20
-0.67496
11
-0.998011
21
-0.674709
0
LINE
8
BLACK
6
CONTINUOUS
10
-0.998011
20
-0.674709
11
-0.997965
21
-0.674725
0
LINE
8
BLACK
6
CONTINUOUS
10
-1.00209
20
-0.675545
11
-1.00522
21
-0.67735
0
LINE
8
BLACK
6
CONTINUOUS
10
-1.00522
20
-0.67735
11
-1.00746
21
-0.680751
0
LINE
8
BLACK
6
CONTINUOUS
10
-1.00746
20
-0.680751
11
-1.00812
21
-0.683219
0
LINE
8
BLACK
6
CONTINUOUS
10
-1.00812
20
-0.683219
11
-1.00788
21
-0.687323
0
LINE
8
BLACK
6
CONTINUOUS
10
-1.00788
20
-0.687323
11
-1.00577
21
-0.694689
0
LINE
8
BLACK
6
CONTINUOUS
10
-1.00577
20
-0.694689
11
-1.00112
21
-0.702744
0
LINE
8
BLACK
6
CONTINUOUS
10
-1.00112
20
-0.702744
11
-0.995794
21
-0.708252
0
LINE
8
BLACK
6
CONTINUOUS
10
-0.995794
20
-0.708252
11
-0.992363
21
-0.710517
0
LINE
8
BLACK
6
CONTINUOUS
10
-0.992363
20
-0.710517
11
-0.989895
21
-0.711179
0
LINE
8
BLACK
6
CONTINUOUS
10
-0.989895
20
-0.711179
11
-0.985827
21
-0.710934
0
LINE
8
BLACK
6
CONTINUOUS
10
-0.985827
20
-0.710934
11
-0.982701
21
-0.709129
0
LINE
8
BLACK
6
CONTINUOUS
10
-0.982701
20
-0.709129
11
-0.980456
21
-0.705729
0
LINE
8
BLACK
6
CONTINUOUS
10
-0.980456
20
-0.705729
11
-0.979795
21
-0.703261
0
LINE
8
BLACK
6
CONTINUOUS
10
-0.979795
20
-0.703261
11
-0.980041
21
-0.699156
0
LINE
8
BLACK
6
CONTINUOUS
10
-0.980041
20
-0.699156
11
-0.982148
21
-0.691791
0
LINE
8
BLACK
6
CONTINUOUS
10
-0.982148
20
-0.691791
11
-0.986799
21
-0.683736
0
LINE
8
BLACK
6
CONTINUOUS
10
-0.986799
20
-0.683736
11
-0.992124
21
-0.678228
0
LINE
8
BLACK
6
CONTINUOUS
10
-0.992124
20
-0.678228
11
-0.995555
21
-0.675963
0
LINE
8
BLACK
6
CONTINUOUS
10
-0.995555
20
-0.675963
11
-0.998023
21
-0.675301
0
LINE
8
BLACK
6
CONTINUOUS
10
-0.998023
20
-0.675301
11
-1.00209
21
-0.675545
0
LINE
8
BLACK
6
CONTINUOUS
10
-0.962246
20
-0.654102
11
-0.962198
21
-0.654096
0
LINE
8
BLACK
6
CONTINUOUS
10
-0.962198
20
-0.654096
11
-0.959637
21
-0.654782
0
LINE
8
BLACK
6
CONTINUOUS
10
-0.959637
20
-0.654782
11
-0.959458
21
-0.65492
0
LINE
8
BLACK
6
CONTINUOUS
10
-0.959458
20
-0.65492
11
-0.959428
21
-0.655144
0
LINE
8
BLACK
6
CONTINUOUS
10
-0.959428
20
-0.655144
11
-0.959566
21
-0.655323
0
LINE
8
BLACK
6
CONTINUOUS
10
-0.959566
20
-0.655323
11
-0.95979
21
-0.655353
0
LINE
8
BLACK
6
CONTINUOUS
10
-0.95979
20
-0.655353
11
-0.962304
21
-0.654679
0
LINE
8
BLACK
6
CONTINUOUS
10
-0.962304
20
-0.654679
11
-0.966372
21
-0.654923
0
LINE
8
BLACK
6
CONTINUOUS
10
-0.966372
20
-0.654923
11
-0.974369
21
-0.65954
0
LINE
8
BLACK
6
CONTINUOUS
10
-0.974369
20
-0.65954
11
-0.976614
21
-0.66294
0
LINE
8
BLACK
6
CONTINUOUS
10
-0.976614
20
-0.66294
11
-0.977275
21
-0.665409
0
LINE
8
BLACK
6
CONTINUOUS
10
-0.977275
20
-0.665409
11
-0.977031
21
-0.669476
0
LINE
8
BLACK
6
CONTINUOUS
10
-0.977031
20
-0.669476
11
-0.975215
21
-0.672621
0
LINE
8
BLACK
6
CONTINUOUS
10
-0.975215
20
-0.672621
11
-0.970867
21
-0.676477
0
LINE
8
BLACK
6
CONTINUOUS
10
-0.970867
20
-0.676477
11
-0.940203
21
-0.684693
0
LINE
8
BLACK
6
CONTINUOUS
10
-0.940203
20
-0.684693
11
-0.940024
21
-0.684831
0
LINE
8
BLACK
6
CONTINUOUS
10
-0.940024
20
-0.684831
11
-0.939994
21
-0.685055
0
LINE
8
BLACK
6
CONTINUOUS
10
-0.939994
20
-0.685055
11
-0.940132
21
-0.685234
0
LINE
8
BLACK
6
CONTINUOUS
10
-0.940132
20
-0.685234
11
-0.961239
21
-0.69742
0
LINE
8
BLACK
6
CONTINUOUS
10
-0.961239
20
-0.69742
11
-0.961463
21
-0.697449
0
LINE
8
BLACK
6
CONTINUOUS
10
-0.961463
20
-0.697449
11
-0.961642
21
-0.697312
0
LINE
8
BLACK
6
CONTINUOUS
10
-0.961642
20
-0.697312
11
-0.961671
21
-0.697088
0
LINE
8
BLACK
6
CONTINUOUS
10
-0.961671
20
-0.697088
11
-0.961534
21
-0.696909
0
LINE
8
BLACK
6
CONTINUOUS
10
-0.961534
20
-0.696909
11
-0.941044
21
-0.685079
0
LINE
8
BLACK
6
CONTINUOUS
10
-0.941044
20
-0.685079
11
-0.971088
21
-0.677029
0
LINE
8
BLACK
6
CONTINUOUS
10
-0.971088
20
-0.677029
11
-0.971142
21
-0.676987
0
LINE
8
BLACK
6
CONTINUOUS
10
-0.971142
20
-0.676987
11
-0.971207
21
-0.676965
0
LINE
8
BLACK
6
CONTINUOUS
10
-0.971207
20
-0.676965
11
-0.975643
21
-0.673031
0
LINE
8
BLACK
6
CONTINUOUS
10
-0.975643
20
-0.673031
11
-0.975664
21
-0.672988
0
LINE
8
BLACK
6
CONTINUOUS
10
-0.975664
20
-0.672988
11
-0.975703
21
-0.672958
0
LINE
8
BLACK
6
CONTINUOUS
10
-0.975703
20
-0.672958
11
-0.977577
21
-0.669711
0
LINE
8
BLACK
6
CONTINUOUS
10
-0.977577
20
-0.669711
11
-0.977586
21
-0.669643
0
LINE
8
BLACK
6
CONTINUOUS
10
-0.977586
20
-0.669643
11
-0.977616
21
-0.669581
0
LINE
8
BLACK
6
CONTINUOUS
10
-0.977616
20
-0.669581
11
-0.977868
21
-0.665396
0
LINE
8
BLACK
6
CONTINUOUS
10
-0.977868
20
-0.665396
11
-0.977852
21
-0.66535
0
LINE
8
BLACK
6
CONTINUOUS
10
-0.977852
20
-0.66535
11
-0.977858
21
-0.665302
0
LINE
8
BLACK
6
CONTINUOUS
10
-0.977858
20
-0.665302
11
-0.977172
21
-0.662741
0
LINE
8
BLACK
6
CONTINUOUS
10
-0.977172
20
-0.662741
11
-0.977142
21
-0.662703
0
LINE
8
BLACK
6
CONTINUOUS
10
-0.977142
20
-0.662703
11
-0.977133
21
-0.662655
0
LINE
8
BLACK
6
CONTINUOUS
10
-0.977133
20
-0.662655
11
-0.974823
21
-0.659157
0
LINE
8
BLACK
6
CONTINUOUS
10
-0.974823
20
-0.659157
11
-0.974766
21
-0.659118
0
LINE
8
BLACK
6
CONTINUOUS
10
-0.974766
20
-0.659118
11
-0.974724
21
-0.659064
0
LINE
8
BLACK
6
CONTINUOUS
10
-0.974724
20
-0.659064
11
-0.966607
21
-0.654377
0
LINE
8
BLACK
6
CONTINUOUS
10
-0.966607
20
-0.654377
11
-0.966538
21
-0.654368
0
LINE
8
BLACK
6
CONTINUOUS
10
-0.966538
20
-0.654368
11
-0.966477
21
-0.654338
0
LINE
8
BLACK
6
CONTINUOUS
10
-0.966477
20
-0.654338
11
-0.962292
21
-0.654086
0
LINE
8
BLACK
6
CONTINUOUS
10
-0.962292
20
-0.654086
11
-0.962246
21
-0.654102
0
LINE
8
BLACK
6
CONTINUOUS
10
-0.933021
20
-0.637229
11
-0.932973
21
-0.637223
0
LINE
8
BLACK
6
CONTINUOUS
10
-0.932973
20
-0.637223
11
-0.930412
21
-0.637909
0
LINE
8
BLACK
6
CONTINUOUS
10
-0.930412
20
-0.637909
11
-0.930374
21
-0.637939
0
LINE
8
BLACK
6
CONTINUOUS
10
-0.930374
20
-0.637939
11
-0.930326
21
-0.637948
0
LINE
8
BLACK
6
CONTINUOUS
10
-0.930326
20
-0.637948
11
-0.926828
21
-0.640258
0
LINE
8
BLACK
6
CONTINUOUS
10
-0.926828
20
-0.640258
11
-0.926809
21
-0.640286
0
LINE
8
BLACK
6
CONTINUOUS
10
-0.926809
20
-0.640286
11
-0.926778
21
-0.640299
0
LINE
8
BLACK
6
CONTINUOUS
10
-0.926778
20
-0.640299
11
-0.921405
21
-0.645856
0
LINE
8
BLACK
6
CONTINUOUS
10
-0.921405
20
-0.645856
11
-0.921391
21
-0.645891
0
LINE
8
BLACK
6
CONTINUOUS
10
-0.921391
20
-0.645891
11
-0.921361
21
-0.645914
0
LINE
8
BLACK
6
CONTINUOUS
10
-0.921361
20
-0.645914
11
-0.916675
21
-0.654032
0
LINE
8
BLACK
6
CONTINUOUS
10
-0.916675
20
-0.654032
11
-0.91667
21
-0.654069
0
LINE
8
BLACK
6
CONTINUOUS
10
-0.91667
20
-0.654069
11
-0.916646
21
-0.654098
0
LINE
8
BLACK
6
CONTINUOUS
10
-0.916646
20
-0.654098
11
-0.91452
21
-0.66153
0
LINE
8
BLACK
6
CONTINUOUS
10
-0.91452
20
-0.66153
11
-0.914524
21
-0.661563
0
LINE
8
BLACK
6
CONTINUOUS
10
-0.914524
20
-0.661563
11
-0.91451
21
-0.661593
0
LINE
8
BLACK
6
CONTINUOUS
10
-0.91451
20
-0.661593
11
-0.914258
21
-0.665778
0
LINE
8
BLACK
6
CONTINUOUS
10
-0.914258
20
-0.665778
11
-0.914274
21
-0.665824
0
LINE
8
BLACK
6
CONTINUOUS
10
-0.914274
20
-0.665824
11
-0.914268
21
-0.665872
0
LINE
8
BLACK
6
CONTINUOUS
10
-0.914268
20
-0.665872
11
-0.914954
21
-0.668433
0
LINE
8
BLACK
6
CONTINUOUS
10
-0.914954
20
-0.668433
11
-0.914984
21
-0.668472
0
LINE
8
BLACK
6
CONTINUOUS
10
-0.914984
20
-0.668472
11
-0.914993
21
-0.668519
0
LINE
8
BLACK
6
CONTINUOUS
10
-0.914993
20
-0.668519
11
-0.917303
21
-0.672018
0
LINE
8
BLACK
6
CONTINUOUS
10
-0.917303
20
-0.672018
11
-0.91736
21
-0.672056
0
LINE
8
BLACK
6
CONTINUOUS
10
-0.91736
20
-0.672056
11
-0.917401
21
-0.672111
0
LINE
8
BLACK
6
CONTINUOUS
10
-0.917401
20
-0.672111
11
-0.920649
21
-0.673985
0
LINE
8
BLACK
6
CONTINUOUS
10
-0.920649
20
-0.673985
11
-0.920717
21
-0.673994
0
LINE
8
BLACK
6
CONTINUOUS
10
-0.920717
20
-0.673994
11
-0.920779
21
-0.674024
0
LINE
8
BLACK
6
CONTINUOUS
10
-0.920779
20
-0.674024
11
-0.924963
21
-0.674276
0
LINE
8
BLACK
6
CONTINUOUS
10
-0.924963
20
-0.674276
11
-0.925009
21
-0.67426
0
LINE
8
BLACK
6
CONTINUOUS
10
-0.925009
20
-0.67426
11
-0.925057
21
-0.674266
0
LINE
8
BLACK
6
CONTINUOUS
10
-0.925057
20
-0.674266
11
-0.927618
21
-0.67358
0
LINE
8
BLACK
6
CONTINUOUS
10
-0.927618
20
-0.67358
11
-0.927657
21
-0.67355
0
LINE
8
BLACK
6
CONTINUOUS
10
-0.927657
20
-0.67355
11
-0.927705
21
-0.673541
0
LINE
8
BLACK
6
CONTINUOUS
10
-0.927705
20
-0.673541
11
-0.931203
21
-0.671231
0
LINE
8
BLACK
6
CONTINUOUS
10
-0.931203
20
-0.671231
11
-0.931222
21
-0.671203
0
LINE
8
BLACK
6
CONTINUOUS
10
-0.931222
20
-0.671203
11
-0.931253
21
-0.67119
0
LINE
8
BLACK
6
CONTINUOUS
10
-0.931253
20
-0.67119
11
-0.936626
21
-0.665633
0
LINE
8
BLACK
6
CONTINUOUS
10
-0.936626
20
-0.665633
11
-0.936639
21
-0.665598
0
LINE
8
BLACK
6
CONTINUOUS
10
-0.936639
20
-0.665598
11
-0.936669
21
-0.665576
0
LINE
8
BLACK
6
CONTINUOUS
10
-0.936669
20
-0.665576
11
-0.941356
21
-0.657458
0
LINE
8
BLACK
6
CONTINUOUS
10
-0.941356
20
-0.657458
11
-0.941361
21
-0.65742
0
LINE
8
BLACK
6
CONTINUOUS
10
-0.941361
20
-0.65742
11
-0.941384
21
-0.657391
0
LINE
8
BLACK
6
CONTINUOUS
10
-0.941384
20
-0.657391
11
-0.94351
21
-0.649959
0
LINE
8
BLACK
6
CONTINUOUS
10
-0.94351
20
-0.649959
11
-0.943506
21
-0.649926
0
LINE
8
BLACK
6
CONTINUOUS
10
-0.943506
20
-0.649926
11
-0.943521
21
-0.649896
0
LINE
8
BLACK
6
CONTINUOUS
10
-0.943521
20
-0.649896
11
-0.943772
21
-0.645711
0
LINE
8
BLACK
6
CONTINUOUS
10
-0.943772
20
-0.645711
11
-0.943756
21
-0.645665
0
LINE
8
BLACK
6
CONTINUOUS
10
-0.943756
20
-0.645665
11
-0.943763
21
-0.645617
0
LINE
8
BLACK
6
CONTINUOUS
10
-0.943763
20
-0.645617
11
-0.943076
21
-0.643056
0
LINE
8
BLACK
6
CONTINUOUS
10
-0.943076
20
-0.643056
11
-0.943047
21
-0.643018
0
LINE
8
BLACK
6
CONTINUOUS
10
-0.943047
20
-0.643018
11
-0.943038
21
-0.64297
0
LINE
8
BLACK
6
CONTINUOUS
10
-0.943038
20
-0.64297
11
-0.940728
21
-0.639472
0
LINE
8
BLACK
6
CONTINUOUS
10
-0.940728
20
-0.639472
11
-0.940671
21
-0.639433
0
LINE
8
BLACK
6
CONTINUOUS
10
-0.940671
20
-0.639433
11
-0.940629
21
-0.639379
0
LINE
8
BLACK
6
CONTINUOUS
10
-0.940629
20
-0.639379
11
-0.937382
21
-0.637504
0
LINE
8
BLACK
6
CONTINUOUS
10
-0.937382
20
-0.637504
11
-0.937314
21
-0.637495
0
LINE
8
BLACK
6
CONTINUOUS
10
-0.937314
20
-0.637495
11
-0.937252
21
-0.637465
0
LINE
8
BLACK
6
CONTINUOUS
10
-0.937252
20
-0.637465
11
-0.933067
21
-0.637214
0
LINE
8
BLACK
6
CONTINUOUS
10
-0.933067
20
-0.637214
11
-0.933021
21
-0.637229
0
LINE
8
BLACK
6
CONTINUOUS
10
-0.937147
20
-0.63805
11
-0.940273
21
-0.639855
0
LINE
8
BLACK
6
CONTINUOUS
10
-0.940273
20
-0.639855
11
-0.942518
21
-0.643255
0
LINE
8
BLACK
6
CONTINUOUS
10
-0.942518
20
-0.643255
11
-0.94318
21
-0.645724
0
LINE
8
BLACK
6
CONTINUOUS
10
-0.94318
20
-0.645724
11
-0.942933
21
-0.649828
0
LINE
8
BLACK
6
CONTINUOUS
10
-0.942933
20
-0.649828
11
-0.940826
21
-0.657194
0
LINE
8
BLACK
6
CONTINUOUS
10
-0.940826
20
-0.657194
11
-0.936176
21
-0.665249
0
LINE
8
BLACK
6
CONTINUOUS
10
-0.936176
20
-0.665249
11
-0.930851
21
-0.670756
0
LINE
8
BLACK
6
CONTINUOUS
10
-0.930851
20
-0.670756
11
-0.927419
21
-0.673022
0
LINE
8
BLACK
6
CONTINUOUS
10
-0.927419
20
-0.673022
11
-0.924951
21
-0.673683
0
LINE
8
BLACK
6
CONTINUOUS
10
-0.924951
20
-0.673683
11
-0.920884
21
-0.673439
0
LINE
8
BLACK
6
CONTINUOUS
10
-0.920884
20
-0.673439
11
-0.917757
21
-0.671634
0
LINE
8
BLACK
6
CONTINUOUS
10
-0.917757
20
-0.671634
11
-0.915512
21
-0.668234
0
LINE
8
BLACK
6
CONTINUOUS
10
-0.915512
20
-0.668234
11
-0.914851
21
-0.665765
0
LINE
8
BLACK
6
CONTINUOUS
10
-0.914851
20
-0.665765
11
-0.915097
21
-0.661661
0
LINE
8
BLACK
6
CONTINUOUS
10
-0.915097
20
-0.661661
11
-0.917204
21
-0.654295
0
LINE
8
BLACK
6
CONTINUOUS
10
-0.917204
20
-0.654295
11
-0.921855
21
-0.64624
0
LINE
8
BLACK
6
CONTINUOUS
10
-0.921855
20
-0.64624
11
-0.92718
21
-0.640733
0
LINE
8
BLACK
6
CONTINUOUS
10
-0.92718
20
-0.640733
11
-0.930611
21
-0.638467
0
LINE
8
BLACK
6
CONTINUOUS
10
-0.930611
20
-0.638467
11
-0.93308
21
-0.637806
0
LINE
8
BLACK
6
CONTINUOUS
10
-0.93308
20
-0.637806
11
-0.937147
21
-0.63805
0
LINE
8
BLACK
6
CONTINUOUS
10
-0.897302
20
-0.616607
11
-0.897254
21
-0.616601
0
LINE
8
BLACK
6
CONTINUOUS
10
-0.897254
20
-0.616601
11
-0.894693
21
-0.617287
0
LINE
8
BLACK
6
CONTINUOUS
10
-0.894693
20
-0.617287
11
-0.894514
21
-0.617424
0
LINE
8
BLACK
6
CONTINUOUS
10
-0.894514
20
-0.617424
11
-0.894484
21
-0.617649
0
LINE
8
BLACK
6
CONTINUOUS
10
-0.894484
20
-0.617649
11
-0.894622
21
-0.617828
0
LINE
8
BLACK
6
CONTINUOUS
10
-0.894622
20
-0.617828
11
-0.894846
21
-0.617857
0
LINE
8
BLACK
6
CONTINUOUS
10
-0.894846
20
-0.617857
11
-0.897361
21
-0.617183
0
LINE
8
BLACK
6
CONTINUOUS
10
-0.897361
20
-0.617183
11
-0.901428
21
-0.617428
0
LINE
8
BLACK
6
CONTINUOUS
10
-0.901428
20
-0.617428
11
-0.909425
21
-0.622045
0
LINE
8
BLACK
6
CONTINUOUS
10
-0.909425
20
-0.622045
11
-0.91167
21
-0.625445
0
LINE
8
BLACK
6
CONTINUOUS
10
-0.91167
20
-0.625445
11
-0.912331
21
-0.627913
0
LINE
8
BLACK
6
CONTINUOUS
10
-0.912331
20
-0.627913
11
-0.912087
21
-0.631981
0
LINE
8
BLACK
6
CONTINUOUS
10
-0.912087
20
-0.631981
11
-0.910271
21
-0.635126
0
LINE
8
BLACK
6
CONTINUOUS
10
-0.910271
20
-0.635126
11
-0.905924
21
-0.638981
0
LINE
8
BLACK
6
CONTINUOUS
10
-0.905924
20
-0.638981
11
-0.875259
21
-0.647198
0
LINE
8
BLACK
6
CONTINUOUS
10
-0.875259
20
-0.647198
11
-0.87508
21
-0.647335
0
LINE
8
BLACK
6
CONTINUOUS
10
-0.87508
20
-0.647335
11
-0.87505
21
-0.647559
0
LINE
8
BLACK
6
CONTINUOUS
10
-0.87505
20
-0.647559
11
-0.875188
21
-0.647739
0
LINE
8
BLACK
6
CONTINUOUS
10
-0.875188
20
-0.647739
11
-0.896295
21
-0.659925
0
LINE
8
BLACK
6
CONTINUOUS
10
-0.896295
20
-0.659925
11
-0.896519
21
-0.659954
0
LINE
8
BLACK
6
CONTINUOUS
10
-0.896519
20
-0.659954
11
-0.896698
21
-0.659817
0
LINE
8
BLACK
6
CONTINUOUS
10
-0.896698
20
-0.659817
11
-0.896728
21
-0.659593
0
LINE
8
BLACK
6
CONTINUOUS
10
-0.896728
20
-0.659593
11
-0.89659
21
-0.659413
0
LINE
8
BLACK
6
CONTINUOUS
10
-0.89659
20
-0.659413
11
-0.876101
21
-0.647584
0
LINE
8
BLACK
6
CONTINUOUS
10
-0.876101
20
-0.647584
11
-0.906144
21
-0.639534
0
LINE
8
BLACK
6
CONTINUOUS
10
-0.906144
20
-0.639534
11
-0.906198
21
-0.639492
0
LINE
8
BLACK
6
CONTINUOUS
10
-0.906198
20
-0.639492
11
-0.906263
21
-0.639469
0
LINE
8
BLACK
6
CONTINUOUS
10
-0.906263
20
-0.639469
11
-0.910699
21
-0.635536
0
LINE
8
BLACK
6
CONTINUOUS
10
-0.910699
20
-0.635536
11
-0.91072
21
-0.635492
0
LINE
8
BLACK
6
CONTINUOUS
10
-0.91072
20
-0.635492
11
-0.910759
21
-0.635463
0
LINE
8
BLACK
6
CONTINUOUS
10
-0.910759
20
-0.635463
11
-0.912634
21
-0.632216
0
LINE
8
BLACK
6
CONTINUOUS
10
-0.912634
20
-0.632216
11
-0.912643
21
-0.632147
0
LINE
8
BLACK
6
CONTINUOUS
10
-0.912643
20
-0.632147
11
-0.912673
21
-0.632086
0
LINE
8
BLACK
6
CONTINUOUS
10
-0.912673
20
-0.632086
11
-0.912924
21
-0.627901
0
LINE
8
BLACK
6
CONTINUOUS
10
-0.912924
20
-0.627901
11
-0.912908
21
-0.627855
0
LINE
8
BLACK
6
CONTINUOUS
10
-0.912908
20
-0.627855
11
-0.912914
21
-0.627807
0
LINE
8
BLACK
6
CONTINUOUS
10
-0.912914
20
-0.627807
11
-0.912228
21
-0.625246
0
LINE
8
BLACK
6
CONTINUOUS
10
-0.912228
20
-0.625246
11
-0.912199
21
-0.625207
0
LINE
8
BLACK
6
CONTINUOUS
10
-0.912199
20
-0.625207
11
-0.912189
21
-0.62516
0
LINE
8
BLACK
6
CONTINUOUS
10
-0.912189
20
-0.62516
11
-0.909879
21
-0.621661
0
LINE
8
BLACK
6
CONTINUOUS
10
-0.909879
20
-0.621661
11
-0.909823
21
-0.621623
0
LINE
8
BLACK
6
CONTINUOUS
10
-0.909823
20
-0.621623
11
-0.909781
21
-0.621568
0
LINE
8
BLACK
6
CONTINUOUS
10
-0.909781
20
-0.621568
11
-0.901663
21
-0.616881
0
LINE
8
BLACK
6
CONTINUOUS
10
-0.901663
20
-0.616881
11
-0.901595
21
-0.616872
0
LINE
8
BLACK
6
CONTINUOUS
10
-0.901595
20
-0.616872
11
-0.901533
21
-0.616842
0
LINE
8
BLACK
6
CONTINUOUS
10
-0.901533
20
-0.616842
11
-0.897348
21
-0.616591
0
LINE
8
BLACK
6
CONTINUOUS
10
-0.897348
20
-0.616591
11
-0.897302
21
-0.616607
0
LINE
8
BLACK
6
CONTINUOUS
10
-0.867164
20
-0.597304
11
-0.867134
21
-0.597528
0
LINE
8
BLACK
6
CONTINUOUS
10
-0.867134
20
-0.597528
11
-0.867272
21
-0.597708
0
LINE
8
BLACK
6
CONTINUOUS
10
-0.867272
20
-0.597708
11
-0.876758
21
-0.603184
0
LINE
8
BLACK
6
CONTINUOUS
10
-0.876758
20
-0.603184
11
-0.85722
21
-0.637024
0
LINE
8
BLACK
6
CONTINUOUS
10
-0.85722
20
-0.637024
11
-0.857191
21
-0.637248
0
LINE
8
BLACK
6
CONTINUOUS
10
-0.857191
20
-0.637248
11
-0.857329
21
-0.637428
0
LINE
8
BLACK
6
CONTINUOUS
10
-0.857329
20
-0.637428
11
-0.857553
21
-0.637457
0
LINE
8
BLACK
6
CONTINUOUS
10
-0.857553
20
-0.637457
11
-0.857732
21
-0.637319
0
LINE
8
BLACK
6
CONTINUOUS
10
-0.857732
20
-0.637319
11
-0.877269
21
-0.60348
0
LINE
8
BLACK
6
CONTINUOUS
10
-0.877269
20
-0.60348
11
-0.886755
21
-0.608956
0
LINE
8
BLACK
6
CONTINUOUS
10
-0.886755
20
-0.608956
11
-0.886979
21
-0.608986
0
LINE
8
BLACK
6
CONTINUOUS
10
-0.886979
20
-0.608986
11
-0.887158
21
-0.608848
0
LINE
8
BLACK
6
CONTINUOUS
10
-0.887158
20
-0.608848
11
-0.887188
21
-0.608624
0
LINE
8
BLACK
6
CONTINUOUS
10
-0.887188
20
-0.608624
11
-0.88705
21
-0.608445
0
LINE
8
BLACK
6
CONTINUOUS
10
-0.88705
20
-0.608445
11
-0.867567
21
-0.597196
0
LINE
8
BLACK
6
CONTINUOUS
10
-0.867567
20
-0.597196
11
-0.867343
21
-0.597167
0
LINE
8
BLACK
6
CONTINUOUS
10
-0.867343
20
-0.597167
11
-0.867164
21
-0.597304
0
LINE
8
BLACK
6
CONTINUOUS
10
-0.836535
20
-0.579362
11
-0.836495
21
-0.579357
0
LINE
8
BLACK
6
CONTINUOUS
10
-0.836495
20
-0.579357
11
-0.836434
21
-0.579403
0
LINE
8
BLACK
6
CONTINUOUS
10
-0.836434
20
-0.579403
11
-0.836363
21
-0.579432
0
LINE
8
BLACK
6
CONTINUOUS
10
-0.836363
20
-0.579432
11
-0.836348
21
-0.579469
0
LINE
8
BLACK
6
CONTINUOUS
10
-0.836348
20
-0.579469
11
-0.836316
21
-0.579494
0
LINE
8
BLACK
6
CONTINUOUS
10
-0.836316
20
-0.579494
11
-0.816631
21
-0.61359
0
LINE
8
BLACK
6
CONTINUOUS
10
-0.816631
20
-0.61359
11
-0.816601
21
-0.613814
0
LINE
8
BLACK
6
CONTINUOUS
10
-0.816601
20
-0.613814
11
-0.816739
21
-0.613993
0
LINE
8
BLACK
6
CONTINUOUS
10
-0.816739
20
-0.613993
11
-0.816963
21
-0.614022
0
LINE
8
BLACK
6
CONTINUOUS
10
-0.816963
20
-0.614022
11
-0.817142
21
-0.613885
0
LINE
8
BLACK
6
CONTINUOUS
10
-0.817142
20
-0.613885
11
-0.836271
21
-0.580752
0
LINE
8
BLACK
6
CONTINUOUS
10
-0.836271
20
-0.580752
11
-0.836074
21
-0.624984
0
LINE
8
BLACK
6
CONTINUOUS
10
-0.836074
20
-0.624984
11
-0.83609
21
-0.625022
0
LINE
8
BLACK
6
CONTINUOUS
10
-0.83609
20
-0.625022
11
-0.836084
21
-0.625062
0
LINE
8
BLACK
6
CONTINUOUS
10
-0.836084
20
-0.625062
11
-0.836131
21
-0.625123
0
LINE
8
BLACK
6
CONTINUOUS
10
-0.836131
20
-0.625123
11
-0.83616
21
-0.625194
0
LINE
8
BLACK
6
CONTINUOUS
10
-0.83616
20
-0.625194
11
-0.836197
21
-0.625209
0
LINE
8
BLACK
6
CONTINUOUS
10
-0.836197
20
-0.625209
11
-0.836222
21
-0.625242
0
LINE
8
BLACK
6
CONTINUOUS
10
-0.836222
20
-0.625242
11
-0.836298
21
-0.625252
0
LINE
8
BLACK
6
CONTINUOUS
10
-0.836298
20
-0.625252
11
-0.836368
21
-0.625281
0
LINE
8
BLACK
6
CONTINUOUS
10
-0.836368
20
-0.625281
11
-0.836406
21
-0.625266
0
LINE
8
BLACK
6
CONTINUOUS
10
-0.836406
20
-0.625266
11
-0.836446
21
-0.625271
0
LINE
8
BLACK
6
CONTINUOUS
10
-0.836446
20
-0.625271
11
-0.836507
21
-0.625224
0
LINE
8
BLACK
6
CONTINUOUS
10
-0.836507
20
-0.625224
11
-0.836577
21
-0.625196
0
LINE
8
BLACK
6
CONTINUOUS
10
-0.836577
20
-0.625196
11
-0.836593
21
-0.625158
0
LINE
8
BLACK
6
CONTINUOUS
10
-0.836593
20
-0.625158
11
-0.836625
21
-0.625133
0
LINE
8
BLACK
6
CONTINUOUS
10
-0.836625
20
-0.625133
11
-0.85631
21
-0.591038
0
LINE
8
BLACK
6
CONTINUOUS
10
-0.85631
20
-0.591038
11
-0.85634
21
-0.590814
0
LINE
8
BLACK
6
CONTINUOUS
10
-0.85634
20
-0.590814
11
-0.856202
21
-0.590635
0
LINE
8
BLACK
6
CONTINUOUS
10
-0.856202
20
-0.590635
11
-0.855978
21
-0.590605
0
LINE
8
BLACK
6
CONTINUOUS
10
-0.855978
20
-0.590605
11
-0.855799
21
-0.590743
0
LINE
8
BLACK
6
CONTINUOUS
10
-0.855799
20
-0.590743
11
-0.83667
21
-0.623875
0
LINE
8
BLACK
6
CONTINUOUS
10
-0.83667
20
-0.623875
11
-0.836867
21
-0.579643
0
LINE
8
BLACK
6
CONTINUOUS
10
-0.836867
20
-0.579643
11
-0.836851
21
-0.579605
0
LINE
8
BLACK
6
CONTINUOUS
10
-0.836851
20
-0.579605
11
-0.836856
21
-0.579565
0
LINE
8
BLACK
6
CONTINUOUS
10
-0.836856
20
-0.579565
11
-0.83681
21
-0.579505
0
LINE
8
BLACK
6
CONTINUOUS
10
-0.83681
20
-0.579505
11
-0.836781
21
-0.579434
0
LINE
8
BLACK
6
CONTINUOUS
10
-0.836781
20
-0.579434
11
-0.836744
21
-0.579418
0
LINE
8
BLACK
6
CONTINUOUS
10
-0.836744
20
-0.579418
11
-0.836719
21
-0.579386
0
LINE
8
BLACK
6
CONTINUOUS
10
-0.836719
20
-0.579386
11
-0.836643
21
-0.579376
0
LINE
8
BLACK
6
CONTINUOUS
10
-0.836643
20
-0.579376
11
-0.836573
21
-0.579346
0
LINE
8
BLACK
6
CONTINUOUS
10
-0.836573
20
-0.579346
11
-0.836535
21
-0.579362
0
LINE
8
BLACK
6
CONTINUOUS
10
-0.806401
20
-0.564116
11
-0.806333
21
-0.564107
0
LINE
8
BLACK
6
CONTINUOUS
10
-0.806333
20
-0.564107
11
-0.801211
21
-0.56548
0
LINE
8
BLACK
6
CONTINUOUS
10
-0.801211
20
-0.56548
11
-0.801172
21
-0.565509
0
LINE
8
BLACK
6
CONTINUOUS
10
-0.801172
20
-0.565509
11
-0.801125
21
-0.565518
0
LINE
8
BLACK
6
CONTINUOUS
10
-0.801125
20
-0.565518
11
-0.797626
21
-0.567828
0
LINE
8
BLACK
6
CONTINUOUS
10
-0.797626
20
-0.567828
11
-0.797607
21
-0.567856
0
LINE
8
BLACK
6
CONTINUOUS
10
-0.797607
20
-0.567856
11
-0.797577
21
-0.567869
0
LINE
8
BLACK
6
CONTINUOUS
10
-0.797577
20
-0.567869
11
-0.792204
21
-0.573426
0
LINE
8
BLACK
6
CONTINUOUS
10
-0.792204
20
-0.573426
11
-0.79219
21
-0.573461
0
LINE
8
BLACK
6
CONTINUOUS
10
-0.79219
20
-0.573461
11
-0.79216
21
-0.573484
0
LINE
8
BLACK
6
CONTINUOUS
10
-0.79216
20
-0.573484
11
-0.789348
21
-0.578355
0
LINE
8
BLACK
6
CONTINUOUS
10
-0.789348
20
-0.578355
11
-0.789343
21
-0.578392
0
LINE
8
BLACK
6
CONTINUOUS
10
-0.789343
20
-0.578392
11
-0.78932
21
-0.578421
0
LINE
8
BLACK
6
CONTINUOUS
10
-0.78932
20
-0.578421
11
-0.787194
21
-0.585853
0
LINE
8
BLACK
6
CONTINUOUS
10
-0.787194
20
-0.585853
11
-0.787198
21
-0.585886
0
LINE
8
BLACK
6
CONTINUOUS
10
-0.787198
20
-0.585886
11
-0.787183
21
-0.585917
0
LINE
8
BLACK
6
CONTINUOUS
10
-0.787183
20
-0.585917
11
-0.786932
21
-0.590101
0
LINE
8
BLACK
6
CONTINUOUS
10
-0.786932
20
-0.590101
11
-0.786948
21
-0.590147
0
LINE
8
BLACK
6
CONTINUOUS
10
-0.786948
20
-0.590147
11
-0.786941
21
-0.590195
0
LINE
8
BLACK
6
CONTINUOUS
10
-0.786941
20
-0.590195
11
-0.788314
21
-0.595317
0
LINE
8
BLACK
6
CONTINUOUS
10
-0.788314
20
-0.595317
11
-0.788356
21
-0.595372
0
LINE
8
BLACK
6
CONTINUOUS
10
-0.788356
20
-0.595372
11
-0.788378
21
-0.595437
0
LINE
8
BLACK
6
CONTINUOUS
10
-0.788378
20
-0.595437
11
-0.792311
21
-0.599872
0
LINE
8
BLACK
6
CONTINUOUS
10
-0.792311
20
-0.599872
11
-0.792355
21
-0.599894
0
LINE
8
BLACK
6
CONTINUOUS
10
-0.792355
20
-0.599894
11
-0.792385
21
-0.599932
0
LINE
8
BLACK
6
CONTINUOUS
10
-0.792385
20
-0.599932
11
-0.795632
21
-0.601807
0
LINE
8
BLACK
6
CONTINUOUS
10
-0.795632
20
-0.601807
11
-0.79568
21
-0.601813
0
LINE
8
BLACK
6
CONTINUOUS
10
-0.79568
20
-0.601813
11
-0.79572
21
-0.601841
0
LINE
8
BLACK
6
CONTINUOUS
10
-0.79572
20
-0.601841
11
-0.801529
21
-0.603029
0
LINE
8
BLACK
6
CONTINUOUS
10
-0.801529
20
-0.603029
11
-0.801596
21
-0.603016
0
LINE
8
BLACK
6
CONTINUOUS
10
-0.801596
20
-0.603016
11
-0.801664
21
-0.603025
0
LINE
8
BLACK
6
CONTINUOUS
10
-0.801664
20
-0.603025
11
-0.804225
21
-0.602339
0
LINE
8
BLACK
6
CONTINUOUS
10
-0.804225
20
-0.602339
11
-0.804404
21
-0.602201
0
LINE
8
BLACK
6
CONTINUOUS
10
-0.804404
20
-0.602201
11
-0.804434
21
-0.601977
0
LINE
8
BLACK
6
CONTINUOUS
10
-0.804434
20
-0.601977
11
-0.804296
21
-0.601798
0
LINE
8
BLACK
6
CONTINUOUS
10
-0.804296
20
-0.601798
11
-0.804072
21
-0.601768
0
LINE
8
BLACK
6
CONTINUOUS
10
-0.804072
20
-0.601768
11
-0.801579
21
-0.602437
0
LINE
8
BLACK
6
CONTINUOUS
10
-0.801579
20
-0.602437
11
-0.795886
21
-0.601272
0
LINE
8
BLACK
6
CONTINUOUS
10
-0.795886
20
-0.601272
11
-0.792722
21
-0.599445
0
LINE
8
BLACK
6
CONTINUOUS
10
-0.792722
20
-0.599445
11
-0.788866
21
-0.595097
0
LINE
8
BLACK
6
CONTINUOUS
10
-0.788866
20
-0.595097
11
-0.787524
21
-0.590089
0
LINE
8
BLACK
6
CONTINUOUS
10
-0.787524
20
-0.590089
11
-0.787771
21
-0.585984
0
LINE
8
BLACK
6
CONTINUOUS
10
-0.787771
20
-0.585984
11
-0.789878
21
-0.578619
0
LINE
8
BLACK
6
CONTINUOUS
10
-0.789878
20
-0.578619
11
-0.792653
21
-0.573811
0
LINE
8
BLACK
6
CONTINUOUS
10
-0.792653
20
-0.573811
11
-0.797979
21
-0.568303
0
LINE
8
BLACK
6
CONTINUOUS
10
-0.797979
20
-0.568303
11
-0.80141
21
-0.566038
0
LINE
8
BLACK
6
CONTINUOUS
10
-0.80141
20
-0.566038
11
-0.806418
21
-0.564696
0
LINE
8
BLACK
6
CONTINUOUS
10
-0.806418
20
-0.564696
11
-0.812111
21
-0.565861
0
LINE
8
BLACK
6
CONTINUOUS
10
-0.812111
20
-0.565861
11
-0.815275
21
-0.567687
0
LINE
8
BLACK
6
CONTINUOUS
10
-0.815275
20
-0.567687
11
-0.819131
21
-0.572035
0
LINE
8
BLACK
6
CONTINUOUS
10
-0.819131
20
-0.572035
11
-0.819799
21
-0.574529
0
LINE
8
BLACK
6
CONTINUOUS
10
-0.819799
20
-0.574529
11
-0.819937
21
-0.574708
0
LINE
8
BLACK
6
CONTINUOUS
10
-0.819937
20
-0.574708
11
-0.820161
21
-0.574738
0
LINE
8
BLACK
6
CONTINUOUS
10
-0.820161
20
-0.574738
11
-0.82034
21
-0.5746
0
LINE
8
BLACK
6
CONTINUOUS
10
-0.82034
20
-0.5746
11
-0.820369
21
-0.574376
0
LINE
8
BLACK
6
CONTINUOUS
10
-0.820369
20
-0.574376
11
-0.819683
21
-0.571815
0
LINE
8
BLACK
6
CONTINUOUS
10
-0.819683
20
-0.571815
11
-0.819641
21
-0.571761
0
LINE
8
BLACK
6
CONTINUOUS
10
-0.819641
20
-0.571761
11
-0.819619
21
-0.571696
0
LINE
8
BLACK
6
CONTINUOUS
10
-0.819619
20
-0.571696
11
-0.815686
21
-0.56726
0
LINE
8
BLACK
6
CONTINUOUS
10
-0.815686
20
-0.56726
11
-0.815642
21
-0.567239
0
LINE
8
BLACK
6
CONTINUOUS
10
-0.815642
20
-0.567239
11
-0.815612
21
-0.5672
0
LINE
8
BLACK
6
CONTINUOUS
10
-0.815612
20
-0.5672
11
-0.812365
21
-0.565325
0
LINE
8
BLACK
6
CONTINUOUS
10
-0.812365
20
-0.565325
11
-0.812317
21
-0.565319
0
LINE
8
BLACK
6
CONTINUOUS
10
-0.812317
20
-0.565319
11
-0.812277
21
-0.565292
0
LINE
8
BLACK
6
CONTINUOUS
10
-0.812277
20
-0.565292
11
-0.806468
21
-0.564103
0
LINE
8
BLACK
6
CONTINUOUS
10
-0.806468
20
-0.564103
11
-0.806401
21
-0.564116
0
LINE
8
BLACK
6
CONTINUOUS
10
-0.768218
20
-0.540025
11
-0.768091
21
-0.540212
0
LINE
8
BLACK
6
CONTINUOUS
10
-0.768091
20
-0.540212
11
-0.759771
21
-0.58087
0
LINE
8
BLACK
6
CONTINUOUS
10
-0.759771
20
-0.58087
11
-0.759775
21
-0.580891
0
LINE
8
BLACK
6
CONTINUOUS
10
-0.759775
20
-0.580891
11
-0.759766
21
-0.580911
0
LINE
8
BLACK
6
CONTINUOUS
10
-0.759766
20
-0.580911
11
-0.759796
21
-0.580999
0
LINE
8
BLACK
6
CONTINUOUS
10
-0.759796
20
-0.580999
11
-0.759814
21
-0.581092
0
LINE
8
BLACK
6
CONTINUOUS
10
-0.759814
20
-0.581092
11
-0.759832
21
-0.581104
0
LINE
8
BLACK
6
CONTINUOUS
10
-0.759832
20
-0.581104
11
-0.75984
21
-0.581125
0
LINE
8
BLACK
6
CONTINUOUS
10
-0.75984
20
-0.581125
11
-0.759924
21
-0.581166
0
LINE
8
BLACK
6
CONTINUOUS
10
-0.759924
20
-0.581166
11
-0.760001
21
-0.581218
0
LINE
8
BLACK
6
CONTINUOUS
10
-0.760001
20
-0.581218
11
-0.760023
21
-0.581214
0
LINE
8
BLACK
6
CONTINUOUS
10
-0.760023
20
-0.581214
11
-0.760043
21
-0.581224
0
LINE
8
BLACK
6
CONTINUOUS
10
-0.760043
20
-0.581224
11
-0.760131
21
-0.581193
0
LINE
8
BLACK
6
CONTINUOUS
10
-0.760131
20
-0.581193
11
-0.760223
21
-0.581175
0
LINE
8
BLACK
6
CONTINUOUS
10
-0.760223
20
-0.581175
11
-0.760236
21
-0.581157
0
LINE
8
BLACK
6
CONTINUOUS
10
-0.760236
20
-0.581157
11
-0.760256
21
-0.58115
0
LINE
8
BLACK
6
CONTINUOUS
10
-0.760256
20
-0.58115
11
-0.791307
21
-0.553616
0
LINE
8
BLACK
6
CONTINUOUS
10
-0.791307
20
-0.553616
11
-0.791405
21
-0.553413
0
LINE
8
BLACK
6
CONTINUOUS
10
-0.791405
20
-0.553413
11
-0.791332
21
-0.553199
0
LINE
8
BLACK
6
CONTINUOUS
10
-0.791332
20
-0.553199
11
-0.791128
21
-0.5531
0
LINE
8
BLACK
6
CONTINUOUS
10
-0.791128
20
-0.5531
11
-0.790915
21
-0.553174
0
LINE
8
BLACK
6
CONTINUOUS
10
-0.790915
20
-0.553174
11
-0.760527
21
-0.58012
0
LINE
8
BLACK
6
CONTINUOUS
10
-0.760527
20
-0.58012
11
-0.76867
21
-0.540331
0
LINE
8
BLACK
6
CONTINUOUS
10
-0.76867
20
-0.540331
11
-0.768627
21
-0.540109
0
LINE
8
BLACK
6
CONTINUOUS
10
-0.768627
20
-0.540109
11
-0.76844
21
-0.539982
0
LINE
8
BLACK
6
CONTINUOUS
10
-0.76844
20
-0.539982
11
-0.768218
21
-0.540025
0
LINE
8
BLACK
6
CONTINUOUS
10
-0.760004
20
-0.411135
11
-0.759381
21
-0.411072
0
LINE
8
BLACK
6
CONTINUOUS
10
-0.759381
20
-0.411072
11
-0.75904
21
-0.411305
0
LINE
8
BLACK
6
CONTINUOUS
10
-0.75904
20
-0.411305
11
-0.758633
21
-0.411377
0
LINE
8
BLACK
6
CONTINUOUS
10
-0.758633
20
-0.411377
11
-0.75823
21
-0.411857
0
LINE
8
BLACK
6
CONTINUOUS
10
-0.75823
20
-0.411857
11
-0.757712
21
-0.41221
0
LINE
8
BLACK
6
CONTINUOUS
10
-0.757712
20
-0.41221
11
-0.746714
21
-0.427509
0
LINE
8
BLACK
6
CONTINUOUS
10
-0.746714
20
-0.427509
11
-0.746269
21
-0.428433
0
LINE
8
BLACK
6
CONTINUOUS
10
-0.746269
20
-0.428433
11
-0.746271
21
-0.428452
0
LINE
8
BLACK
6
CONTINUOUS
10
-0.746271
20
-0.428452
11
-0.74626
21
-0.428468
0
LINE
8
BLACK
6
CONTINUOUS
10
-0.74626
20
-0.428468
11
-0.746347
21
-0.429459
0
LINE
8
BLACK
6
CONTINUOUS
10
-0.746347
20
-0.429459
11
-0.746421
21
-0.430447
0
LINE
8
BLACK
6
CONTINUOUS
10
-0.746421
20
-0.430447
11
-0.746434
21
-0.430461
0
LINE
8
BLACK
6
CONTINUOUS
10
-0.746434
20
-0.430461
11
-0.746436
21
-0.43048
0
LINE
8
BLACK
6
CONTINUOUS
10
-0.746436
20
-0.43048
11
-0.747138
21
-0.431183
0
LINE
8
BLACK
6
CONTINUOUS
10
-0.747138
20
-0.431183
11
-0.747831
21
-0.431893
0
LINE
8
BLACK
6
CONTINUOUS
10
-0.747831
20
-0.431893
11
-0.74785
21
-0.431895
0
LINE
8
BLACK
6
CONTINUOUS
10
-0.74785
20
-0.431895
11
-0.747864
21
-0.431908
0
LINE
8
BLACK
6
CONTINUOUS
10
-0.747864
20
-0.431908
11
-0.748853
21
-0.431995
0
LINE
8
BLACK
6
CONTINUOUS
10
-0.748853
20
-0.431995
11
-0.749841
21
-0.432094
0
LINE
8
BLACK
6
CONTINUOUS
10
-0.749841
20
-0.432094
11
-0.749857
21
-0.432083
0
LINE
8
BLACK
6
CONTINUOUS
10
-0.749857
20
-0.432083
11
-0.749876
21
-0.432084
0
LINE
8
BLACK
6
CONTINUOUS
10
-0.749876
20
-0.432084
11
-0.751974
21
-0.431522
0
LINE
8
BLACK
6
CONTINUOUS
10
-0.751974
20
-0.431522
11
-0.754985
21
-0.431703
0
LINE
8
BLACK
6
CONTINUOUS
10
-0.754985
20
-0.431703
11
-0.761895
21
-0.435693
0
LINE
8
BLACK
6
CONTINUOUS
10
-0.761895
20
-0.435693
11
-0.763557
21
-0.43821
0
LINE
8
BLACK
6
CONTINUOUS
10
-0.763557
20
-0.43821
11
-0.763995
21
-0.439845
0
LINE
8
BLACK
6
CONTINUOUS
10
-0.763995
20
-0.439845
11
-0.763815
21
-0.442855
0
LINE
8
BLACK
6
CONTINUOUS
10
-0.763815
20
-0.442855
11
-0.759825
21
-0.449766
0
LINE
8
BLACK
6
CONTINUOUS
10
-0.759825
20
-0.449766
11
-0.757308
21
-0.451428
0
LINE
8
BLACK
6
CONTINUOUS
10
-0.757308
20
-0.451428
11
-0.755673
21
-0.451866
0
LINE
8
BLACK
6
CONTINUOUS
10
-0.755673
20
-0.451866
11
-0.752662
21
-0.451685
0
LINE
8
BLACK
6
CONTINUOUS
10
-0.752662
20
-0.451685
11
-0.745752
21
-0.447695
0
LINE
8
BLACK
6
CONTINUOUS
10
-0.745752
20
-0.447695
11
-0.74409
21
-0.445179
0
LINE
8
BLACK
6
CONTINUOUS
10
-0.74409
20
-0.445179
11
-0.743528
21
-0.44308
0
LINE
8
BLACK
6
CONTINUOUS
10
-0.743528
20
-0.44308
11
-0.743094
21
-0.442151
0
LINE
8
BLACK
6
CONTINUOUS
10
-0.743094
20
-0.442151
11
-0.74144
21
-0.440992
0
LINE
8
BLACK
6
CONTINUOUS
10
-0.74144
20
-0.440992
11
-0.739428
21
-0.441169
0
LINE
8
BLACK
6
CONTINUOUS
10
-0.739428
20
-0.441169
11
-0.737999
21
-0.442597
0
LINE
8
BLACK
6
CONTINUOUS
10
-0.737999
20
-0.442597
11
-0.737823
21
-0.444609
0
LINE
8
BLACK
6
CONTINUOUS
10
-0.737823
20
-0.444609
11
-0.73851
21
-0.44717
0
LINE
8
BLACK
6
CONTINUOUS
10
-0.73851
20
-0.44717
11
-0.738883
21
-0.44797
0
LINE
8
BLACK
6
CONTINUOUS
10
-0.738883
20
-0.44797
11
-0.738898
21
-0.448033
0
LINE
8
BLACK
6
CONTINUOUS
10
-0.738898
20
-0.448033
11
-0.741207
21
-0.451531
0
LINE
8
BLACK
6
CONTINUOUS
10
-0.741207
20
-0.451531
11
-0.741912
21
-0.452276
0
LINE
8
BLACK
6
CONTINUOUS
10
-0.741912
20
-0.452276
11
-0.742082
21
-0.452326
0
LINE
8
BLACK
6
CONTINUOUS
10
-0.742082
20
-0.452326
11
-0.742195
21
-0.452461
0
LINE
8
BLACK
6
CONTINUOUS
10
-0.742195
20
-0.452461
11
-0.750313
21
-0.457148
0
LINE
8
BLACK
6
CONTINUOUS
10
-0.750313
20
-0.457148
11
-0.751277
21
-0.457499
0
LINE
8
BLACK
6
CONTINUOUS
10
-0.751277
20
-0.457499
11
-0.751451
21
-0.457468
0
LINE
8
BLACK
6
CONTINUOUS
10
-0.751451
20
-0.457468
11
-0.751613
21
-0.457538
0
LINE
8
BLACK
6
CONTINUOUS
10
-0.751613
20
-0.457538
11
-0.755797
21
-0.457789
0
LINE
8
BLACK
6
CONTINUOUS
10
-0.755797
20
-0.457789
11
-0.756674
21
-0.457689
0
LINE
8
BLACK
6
CONTINUOUS
10
-0.756674
20
-0.457689
11
-0.756738
21
-0.457694
0
LINE
8
BLACK
6
CONTINUOUS
10
-0.756738
20
-0.457694
11
-0.759299
21
-0.457008
0
LINE
8
BLACK
6
CONTINUOUS
10
-0.759299
20
-0.457008
11
-0.760099
21
-0.456635
0
LINE
8
BLACK
6
CONTINUOUS
10
-0.760099
20
-0.456635
11
-0.760162
21
-0.45662
0
LINE
8
BLACK
6
CONTINUOUS
10
-0.760162
20
-0.45662
11
-0.76366
21
-0.45431
0
LINE
8
BLACK
6
CONTINUOUS
10
-0.76366
20
-0.45431
11
-0.764405
21
-0.453605
0
LINE
8
BLACK
6
CONTINUOUS
10
-0.764405
20
-0.453605
11
-0.764455
21
-0.453436
0
LINE
8
BLACK
6
CONTINUOUS
10
-0.764455
20
-0.453436
11
-0.764591
21
-0.453322
0
LINE
8
BLACK
6
CONTINUOUS
10
-0.764591
20
-0.453322
11
-0.769277
21
-0.445204
0
LINE
8
BLACK
6
CONTINUOUS
10
-0.769277
20
-0.445204
11
-0.769628
21
-0.444241
0
LINE
8
BLACK
6
CONTINUOUS
10
-0.769628
20
-0.444241
11
-0.769598
21
-0.444067
0
LINE
8
BLACK
6
CONTINUOUS
10
-0.769598
20
-0.444067
11
-0.769668
21
-0.443905
0
LINE
8
BLACK
6
CONTINUOUS
10
-0.769668
20
-0.443905
11
-0.769919
21
-0.43972
0
LINE
8
BLACK
6
CONTINUOUS
10
-0.769919
20
-0.43972
11
-0.769818
21
-0.438843
0
LINE
8
BLACK
6
CONTINUOUS
10
-0.769818
20
-0.438843
11
-0.769824
21
-0.438779
0
LINE
8
BLACK
6
CONTINUOUS
10
-0.769824
20
-0.438779
11
-0.769137
21
-0.436218
0
LINE
8
BLACK
6
CONTINUOUS
10
-0.769137
20
-0.436218
11
-0.768764
21
-0.435418
0
LINE
8
BLACK
6
CONTINUOUS
10
-0.768764
20
-0.435418
11
-0.768749
21
-0.435356
0
LINE
8
BLACK
6
CONTINUOUS
10
-0.768749
20
-0.435356
11
-0.76644
21
-0.431857
0
LINE
8
BLACK
6
CONTINUOUS
10
-0.76644
20
-0.431857
11
-0.765735
21
-0.431113
0
LINE
8
BLACK
6
CONTINUOUS
10
-0.765735
20
-0.431113
11
-0.765565
21
-0.431062
0
LINE
8
BLACK
6
CONTINUOUS
10
-0.765565
20
-0.431062
11
-0.765452
21
-0.430927
0
LINE
8
BLACK
6
CONTINUOUS
10
-0.765452
20
-0.430927
11
-0.757334
21
-0.42624
0
LINE
8
BLACK
6
CONTINUOUS
10
-0.757334
20
-0.42624
11
-0.75637
21
-0.425889
0
LINE
8
BLACK
6
CONTINUOUS
10
-0.75637
20
-0.425889
11
-0.756196
21
-0.42592
0
LINE
8
BLACK
6
CONTINUOUS
10
-0.756196
20
-0.42592
11
-0.756034
21
-0.42585
0
LINE
8
BLACK
6
CONTINUOUS
10
-0.756034
20
-0.42585
11
-0.755215
21
-0.425801
0
LINE
8
BLACK
6
CONTINUOUS
10
-0.755215
20
-0.425801
11
-0.760947
21
-0.417827
0
LINE
8
BLACK
6
CONTINUOUS
10
-0.760947
20
-0.417827
11
-0.774869
21
-0.425865
0
LINE
8
BLACK
6
CONTINUOUS
10
-0.774869
20
-0.425865
11
-0.775833
21
-0.426215
0
LINE
8
BLACK
6
CONTINUOUS
10
-0.775833
20
-0.426215
11
-0.777822
21
-0.425865
0
LINE
8
BLACK
6
CONTINUOUS
10
-0.777822
20
-0.425865
11
-0.77912
21
-0.424317
0
LINE
8
BLACK
6
CONTINUOUS
10
-0.77912
20
-0.424317
11
-0.77912
21
-0.422298
0
LINE
8
BLACK
6
CONTINUOUS
10
-0.77912
20
-0.422298
11
-0.777822
21
-0.42075
0
LINE
8
BLACK
6
CONTINUOUS
10
-0.777822
20
-0.42075
11
-0.761586
21
-0.411377
0
LINE
8
BLACK
6
CONTINUOUS
10
-0.761586
20
-0.411377
11
-0.761439
21
-0.411323
0
LINE
8
BLACK
6
CONTINUOUS
10
-0.761439
20
-0.411323
11
-0.76139
21
-0.411273
0
LINE
8
BLACK
6
CONTINUOUS
10
-0.76139
20
-0.411273
11
-0.761269
21
-0.411261
0
LINE
8
BLACK
6
CONTINUOUS
10
-0.761269
20
-0.411261
11
-0.760622
21
-0.411026
0
LINE
8
BLACK
6
CONTINUOUS
10
-0.760622
20
-0.411026
11
-0.760004
21
-0.411135
0
LINE
8
BLACK
6
CONTINUOUS
10
-0.721833
20
-0.391835
11
-0.705898
21
-0.419436
0
LINE
8
BLACK
6
CONTINUOUS
10
-0.705898
20
-0.419436
11
-0.705547
21
-0.4204
0
LINE
8
BLACK
6
CONTINUOUS
10
-0.705547
20
-0.4204
11
-0.705578
21
-0.420574
0
LINE
8
BLACK
6
CONTINUOUS
10
-0.705578
20
-0.420574
11
-0.705507
21
-0.420735
0
LINE
8
BLACK
6
CONTINUOUS
10
-0.705507
20
-0.420735
11
-0.705256
21
-0.42492
0
LINE
8
BLACK
6
CONTINUOUS
10
-0.705256
20
-0.42492
11
-0.705357
21
-0.425797
0
LINE
8
BLACK
6
CONTINUOUS
10
-0.705357
20
-0.425797
11
-0.705351
21
-0.425861
0
LINE
8
BLACK
6
CONTINUOUS
10
-0.705351
20
-0.425861
11
-0.706038
21
-0.428422
0
LINE
8
BLACK
6
CONTINUOUS
10
-0.706038
20
-0.428422
11
-0.706411
21
-0.429222
0
LINE
8
BLACK
6
CONTINUOUS
10
-0.706411
20
-0.429222
11
-0.706426
21
-0.429285
0
LINE
8
BLACK
6
CONTINUOUS
10
-0.706426
20
-0.429285
11
-0.708736
21
-0.432783
0
LINE
8
BLACK
6
CONTINUOUS
10
-0.708736
20
-0.432783
11
-0.709441
21
-0.433528
0
LINE
8
BLACK
6
CONTINUOUS
10
-0.709441
20
-0.433528
11
-0.70961
21
-0.433578
0
LINE
8
BLACK
6
CONTINUOUS
10
-0.70961
20
-0.433578
11
-0.709723
21
-0.433713
0
LINE
8
BLACK
6
CONTINUOUS
10
-0.709723
20
-0.433713
11
-0.716218
21
-0.437463
0
LINE
8
BLACK
6
CONTINUOUS
10
-0.716218
20
-0.437463
11
-0.717181
21
-0.437814
0
LINE
8
BLACK
6
CONTINUOUS
10
-0.717181
20
-0.437814
11
-0.717355
21
-0.437783
0
LINE
8
BLACK
6
CONTINUOUS
10
-0.717355
20
-0.437783
11
-0.717517
21
-0.437853
0
LINE
8
BLACK
6
CONTINUOUS
10
-0.717517
20
-0.437853
11
-0.721702
21
-0.438104
0
LINE
8
BLACK
6
CONTINUOUS
10
-0.721702
20
-0.438104
11
-0.722579
21
-0.438004
0
LINE
8
BLACK
6
CONTINUOUS
10
-0.722579
20
-0.438004
11
-0.722643
21
-0.438009
0
LINE
8
BLACK
6
CONTINUOUS
10
-0.722643
20
-0.438009
11
-0.725204
21
-0.437323
0
LINE
8
BLACK
6
CONTINUOUS
10
-0.725204
20
-0.437323
11
-0.726004
21
-0.43695
0
LINE
8
BLACK
6
CONTINUOUS
10
-0.726004
20
-0.43695
11
-0.726066
21
-0.436935
0
LINE
8
BLACK
6
CONTINUOUS
10
-0.726066
20
-0.436935
11
-0.729565
21
-0.434625
0
LINE
8
BLACK
6
CONTINUOUS
10
-0.729565
20
-0.434625
11
-0.73031
21
-0.43392
0
LINE
8
BLACK
6
CONTINUOUS
10
-0.73031
20
-0.43392
11
-0.73036
21
-0.433751
0
LINE
8
BLACK
6
CONTINUOUS
10
-0.73036
20
-0.433751
11
-0.730495
21
-0.433637
0
LINE
8
BLACK
6
CONTINUOUS
10
-0.730495
20
-0.433637
11
-0.746431
21
-0.406036
0
LINE
8
BLACK
6
CONTINUOUS
10
-0.746431
20
-0.406036
11
-0.746781
21
-0.405073
0
LINE
8
BLACK
6
CONTINUOUS
10
-0.746781
20
-0.405073
11
-0.746431
21
-0.403084
0
LINE
8
BLACK
6
CONTINUOUS
10
-0.746431
20
-0.403084
11
-0.744883
21
-0.401785
0
LINE
8
BLACK
6
CONTINUOUS
10
-0.744883
20
-0.401785
11
-0.742864
21
-0.401785
0
LINE
8
BLACK
6
CONTINUOUS
10
-0.742864
20
-0.401785
11
-0.741316
21
-0.403084
0
LINE
8
BLACK
6
CONTINUOUS
10
-0.741316
20
-0.403084
11
-0.725729
21
-0.430081
0
LINE
8
BLACK
6
CONTINUOUS
10
-0.725729
20
-0.430081
11
-0.723212
21
-0.431743
0
LINE
8
BLACK
6
CONTINUOUS
10
-0.723212
20
-0.431743
11
-0.721577
21
-0.432181
0
LINE
8
BLACK
6
CONTINUOUS
10
-0.721577
20
-0.432181
11
-0.718567
21
-0.432
0
LINE
8
BLACK
6
CONTINUOUS
10
-0.718567
20
-0.432
11
-0.71328
21
-0.428948
0
LINE
8
BLACK
6
CONTINUOUS
10
-0.71328
20
-0.428948
11
-0.711618
21
-0.426431
0
LINE
8
BLACK
6
CONTINUOUS
10
-0.711618
20
-0.426431
11
-0.71118
21
-0.424796
0
LINE
8
BLACK
6
CONTINUOUS
10
-0.71118
20
-0.424796
11
-0.71136
21
-0.421785
0
LINE
8
BLACK
6
CONTINUOUS
10
-0.71136
20
-0.421785
11
-0.726947
21
-0.394788
0
LINE
8
BLACK
6
CONTINUOUS
10
-0.726947
20
-0.394788
11
-0.727298
21
-0.393824
0
LINE
8
BLACK
6
CONTINUOUS
10
-0.727298
20
-0.393824
11
-0.726947
21
-0.391835
0
LINE
8
BLACK
6
CONTINUOUS
10
-0.726947
20
-0.391835
11
-0.7254
21
-0.390537
0
LINE
8
BLACK
6
CONTINUOUS
10
-0.7254
20
-0.390537
11
-0.72338
21
-0.390537
0
LINE
8
BLACK
6
CONTINUOUS
10
-0.72338
20
-0.390537
11
-0.721833
21
-0.391835
0
LINE
8
BLACK
6
CONTINUOUS
10
-0.716054
20
-0.365781
11
-0.714536
21
-0.366946
0
LINE
8
BLACK
6
CONTINUOUS
10
-0.714536
20
-0.366946
11
-0.675166
21
-0.435137
0
LINE
8
BLACK
6
CONTINUOUS
10
-0.675166
20
-0.435137
11
-0.674917
21
-0.437034
0
LINE
8
BLACK
6
CONTINUOUS
10
-0.674917
20
-0.437034
11
-0.676081
21
-0.438552
0
LINE
8
BLACK
6
CONTINUOUS
10
-0.676081
20
-0.438552
11
-0.76132
21
-0.487764
0
LINE
8
BLACK
6
CONTINUOUS
10
-0.76132
20
-0.487764
11
-0.763217
21
-0.488014
0
LINE
8
BLACK
6
CONTINUOUS
10
-0.763217
20
-0.488014
11
-0.764735
21
-0.486849
0
LINE
8
BLACK
6
CONTINUOUS
10
-0.764735
20
-0.486849
11
-0.764735
21
-0.486849
0
LINE
8
BLACK
6
CONTINUOUS
10
-0.764735
20
-0.486849
11
-0.804105
21
-0.418658
0
LINE
8
BLACK
6
CONTINUOUS
10
-0.804105
20
-0.418658
11
-0.804355
21
-0.416761
0
LINE
8
BLACK
6
CONTINUOUS
10
-0.804355
20
-0.416761
11
-0.80319
21
-0.415243
0
LINE
8
BLACK
6
CONTINUOUS
10
-0.80319
20
-0.415243
11
-0.717952
21
-0.366031
0
LINE
8
BLACK
6
CONTINUOUS
10
-0.717952
20
-0.366031
11
-0.717952
21
-0.366031
0
LINE
8
BLACK
6
CONTINUOUS
10
-0.717952
20
-0.366031
11
-0.716054
21
-0.365781
0
LINE
8
BLACK
6
CONTINUOUS
10
-0.798525
20
-0.418324
11
-0.761655
21
-0.482184
0
LINE
8
BLACK
6
CONTINUOUS
10
-0.761655
20
-0.482184
11
-0.680747
21
-0.435472
0
LINE
8
BLACK
6
CONTINUOUS
10
-0.680747
20
-0.435472
11
-0.717617
21
-0.371611
0
LINE
8
BLACK
6
CONTINUOUS
10
-0.717617
20
-0.371611
11
-0.798525
21
-0.418324
0
LINE
8
BLACK
6
CONTINUOUS
10
-0.684637
20
-0.356828
11
-0.682452
21
-0.359568
0
LINE
8
BLACK
6
CONTINUOUS
10
-0.682452
20
-0.359568
11
-0.681672
21
-0.362984
0
LINE
8
BLACK
6
CONTINUOUS
10
-0.681672
20
-0.362984
11
-0.682452
21
-0.366401
0
LINE
8
BLACK
6
CONTINUOUS
10
-0.682452
20
-0.366401
11
-0.684637
21
-0.369141
0
LINE
8
BLACK
6
CONTINUOUS
10
-0.684637
20
-0.369141
11
-0.687794
21
-0.370661
0
LINE
8
BLACK
6
CONTINUOUS
10
-0.687794
20
-0.370661
11
-0.691298
21
-0.370661
0
LINE
8
BLACK
6
CONTINUOUS
10
-0.691298
20
-0.370661
11
-0.694456
21
-0.369141
0
LINE
8
BLACK
6
CONTINUOUS
10
-0.694456
20
-0.369141
11
-0.696641
21
-0.366401
0
LINE
8
BLACK
6
CONTINUOUS
10
-0.696641
20
-0.366401
11
-0.69742
21
-0.362984
0
LINE
8
BLACK
6
CONTINUOUS
10
-0.69742
20
-0.362984
11
-0.696641
21
-0.359568
0
LINE
8
BLACK
6
CONTINUOUS
10
-0.696641
20
-0.359568
11
-0.694456
21
-0.356828
0
LINE
8
BLACK
6
CONTINUOUS
10
-0.694456
20
-0.356828
11
-0.691298
21
-0.355308
0
LINE
8
BLACK
6
CONTINUOUS
10
-0.691298
20
-0.355308
11
-0.687794
21
-0.355308
0
LINE
8
BLACK
6
CONTINUOUS
10
-0.687794
20
-0.355308
11
-0.684637
21
-0.356828
0
LINE
8
BLACK
6
CONTINUOUS
10
-0.601729
20
0.245301
11
-0.600431
21
0.243754
0
LINE
8
BLACK
6
CONTINUOUS
10
-0.600431
20
0.243754
11
-0.600431
21
0.241734
0
LINE
8
BLACK
6
CONTINUOUS
10
-0.600431
20
0.241734
11
-0.611093
21
0.21244
0
LINE
8
BLACK
6
CONTINUOUS
10
-0.611093
20
0.21244
11
-0.610748
21
0.209444
0
LINE
8
BLACK
6
CONTINUOUS
10
-0.610748
20
0.209444
11
-0.610032
21
0.207909
0
LINE
8
BLACK
6
CONTINUOUS
10
-0.610032
20
0.207909
11
-0.607959
21
0.205719
0
LINE
8
BLACK
6
CONTINUOUS
10
-0.607959
20
0.205719
11
-0.602222
21
0.203631
0
LINE
8
BLACK
6
CONTINUOUS
10
-0.602222
20
0.203631
11
-0.599226
21
0.203976
0
LINE
8
BLACK
6
CONTINUOUS
10
-0.599226
20
0.203976
11
-0.597692
21
0.204692
0
LINE
8
BLACK
6
CONTINUOUS
10
-0.597692
20
0.204692
11
-0.595502
21
0.206765
0
LINE
8
BLACK
6
CONTINUOUS
10
-0.595502
20
0.206765
11
-0.58484
21
0.236059
0
LINE
8
BLACK
6
CONTINUOUS
10
-0.58484
20
0.236059
11
-0.584327
21
0.236947
0
LINE
8
BLACK
6
CONTINUOUS
10
-0.584327
20
0.236947
11
-0.582578
21
0.237957
0
LINE
8
BLACK
6
CONTINUOUS
10
-0.582578
20
0.237957
11
-0.580589
21
0.237606
0
LINE
8
BLACK
6
CONTINUOUS
10
-0.580589
20
0.237606
11
-0.57929
21
0.236059
0
LINE
8
BLACK
6
CONTINUOUS
10
-0.57929
20
0.236059
11
-0.57929
21
0.234039
0
LINE
8
BLACK
6
CONTINUOUS
10
-0.57929
20
0.234039
11
-0.590191
21
0.20409
0
LINE
8
BLACK
6
CONTINUOUS
10
-0.590191
20
0.20409
11
-0.590704
21
0.203202
0
LINE
8
BLACK
6
CONTINUOUS
10
-0.590704
20
0.203202
11
-0.590856
21
0.203114
0
LINE
8
BLACK
6
CONTINUOUS
10
-0.590856
20
0.203114
11
-0.590935
21
0.202956
0
LINE
8
BLACK
6
CONTINUOUS
10
-0.590935
20
0.202956
11
-0.593979
21
0.200074
0
LINE
8
BLACK
6
CONTINUOUS
10
-0.593979
20
0.200074
11
-0.594716
21
0.199588
0
LINE
8
BLACK
6
CONTINUOUS
10
-0.594716
20
0.199588
11
-0.594762
21
0.199542
0
LINE
8
BLACK
6
CONTINUOUS
10
-0.594762
20
0.199542
11
-0.597165
21
0.198422
0
LINE
8
BLACK
6
CONTINUOUS
10
-0.597165
20
0.198422
11
-0.598017
21
0.198193
0
LINE
8
BLACK
6
CONTINUOUS
10
-0.598017
20
0.198193
11
-0.598075
21
0.198164
0
LINE
8
BLACK
6
CONTINUOUS
10
-0.598075
20
0.198164
11
-0.602239
21
0.197685
0
LINE
8
BLACK
6
CONTINUOUS
10
-0.602239
20
0.197685
11
-0.603263
21
0.197746
0
LINE
8
BLACK
6
CONTINUOUS
10
-0.603263
20
0.197746
11
-0.60341
21
0.197844
0
LINE
8
BLACK
6
CONTINUOUS
10
-0.60341
20
0.197844
11
-0.603587
21
0.197844
0
LINE
8
BLACK
6
CONTINUOUS
10
-0.603587
20
0.197844
11
-0.610634
21
0.200409
0
LINE
8
BLACK
6
CONTINUOUS
10
-0.610634
20
0.200409
11
-0.611522
21
0.200921
0
LINE
8
BLACK
6
CONTINUOUS
10
-0.611522
20
0.200921
11
-0.61161
21
0.201074
0
LINE
8
BLACK
6
CONTINUOUS
10
-0.61161
20
0.201074
11
-0.611768
21
0.201153
0
LINE
8
BLACK
6
CONTINUOUS
10
-0.611768
20
0.201153
11
-0.61465
21
0.204197
0
LINE
8
BLACK
6
CONTINUOUS
10
-0.61465
20
0.204197
11
-0.615137
21
0.204934
0
LINE
8
BLACK
6
CONTINUOUS
10
-0.615137
20
0.204934
11
-0.615182
21
0.204979
0
LINE
8
BLACK
6
CONTINUOUS
10
-0.615182
20
0.204979
11
-0.616303
21
0.207382
0
LINE
8
BLACK
6
CONTINUOUS
10
-0.616303
20
0.207382
11
-0.616531
21
0.208235
0
LINE
8
BLACK
6
CONTINUOUS
10
-0.616531
20
0.208235
11
-0.61656
21
0.208293
0
LINE
8
BLACK
6
CONTINUOUS
10
-0.61656
20
0.208293
11
-0.617039
21
0.212457
0
LINE
8
BLACK
6
CONTINUOUS
10
-0.617039
20
0.212457
11
-0.616978
21
0.213481
0
LINE
8
BLACK
6
CONTINUOUS
10
-0.616978
20
0.213481
11
-0.616881
21
0.213628
0
LINE
8
BLACK
6
CONTINUOUS
10
-0.616881
20
0.213628
11
-0.616881
21
0.213805
0
LINE
8
BLACK
6
CONTINUOUS
10
-0.616881
20
0.213805
11
-0.60598
21
0.243754
0
LINE
8
BLACK
6
CONTINUOUS
10
-0.60598
20
0.243754
11
-0.605467
21
0.244642
0
LINE
8
BLACK
6
CONTINUOUS
10
-0.605467
20
0.244642
11
-0.603718
21
0.245652
0
LINE
8
BLACK
6
CONTINUOUS
10
-0.603718
20
0.245652
11
-0.601729
21
0.245301
0
LINE
8
BLACK
6
CONTINUOUS
10
-0.628621
20
0.255137
11
-0.627733
21
0.254624
0
LINE
8
BLACK
6
CONTINUOUS
10
-0.627733
20
0.254624
11
-0.627645
21
0.254471
0
LINE
8
BLACK
6
CONTINUOUS
10
-0.627645
20
0.254471
11
-0.627487
21
0.254392
0
LINE
8
BLACK
6
CONTINUOUS
10
-0.627487
20
0.254392
11
-0.624605
21
0.251348
0
LINE
8
BLACK
6
CONTINUOUS
10
-0.624605
20
0.251348
11
-0.624118
21
0.250611
0
LINE
8
BLACK
6
CONTINUOUS
10
-0.624118
20
0.250611
11
-0.624073
21
0.250566
0
LINE
8
BLACK
6
CONTINUOUS
10
-0.624073
20
0.250566
11
-0.622952
21
0.248163
0
LINE
8
BLACK
6
CONTINUOUS
10
-0.622952
20
0.248163
11
-0.622836
21
0.247728
0
LINE
8
BLACK
6
CONTINUOUS
10
-0.622836
20
0.247728
11
-0.622759
21
0.247614
0
LINE
8
BLACK
6
CONTINUOUS
10
-0.622759
20
0.247614
11
-0.62116
21
0.241046
0
LINE
8
BLACK
6
CONTINUOUS
10
-0.62116
20
0.241046
11
-0.621096
21
0.240057
0
LINE
8
BLACK
6
CONTINUOUS
10
-0.621096
20
0.240057
11
-0.621092
21
0.240041
0
LINE
8
BLACK
6
CONTINUOUS
10
-0.621092
20
0.240041
11
-0.621895
21
0.232353
0
LINE
8
BLACK
6
CONTINUOUS
10
-0.621895
20
0.232353
11
-0.622057
21
0.231786
0
LINE
8
BLACK
6
CONTINUOUS
10
-0.622057
20
0.231786
11
-0.622057
21
0.231649
0
LINE
8
BLACK
6
CONTINUOUS
10
-0.622057
20
0.231649
11
-0.627186
21
0.217556
0
LINE
8
BLACK
6
CONTINUOUS
10
-0.627186
20
0.217556
11
-0.627699
21
0.216668
0
LINE
8
BLACK
6
CONTINUOUS
10
-0.627699
20
0.216668
11
-0.627852
21
0.216579
0
LINE
8
BLACK
6
CONTINUOUS
10
-0.627852
20
0.216579
11
-0.627931
21
0.216422
0
LINE
8
BLACK
6
CONTINUOUS
10
-0.627931
20
0.216422
11
-0.630975
21
0.213539
0
LINE
8
BLACK
6
CONTINUOUS
10
-0.630975
20
0.213539
11
-0.631712
21
0.213053
0
LINE
8
BLACK
6
CONTINUOUS
10
-0.631712
20
0.213053
11
-0.631757
21
0.213007
0
LINE
8
BLACK
6
CONTINUOUS
10
-0.631757
20
0.213007
11
-0.63416
21
0.211887
0
LINE
8
BLACK
6
CONTINUOUS
10
-0.63416
20
0.211887
11
-0.635013
21
0.211658
0
LINE
8
BLACK
6
CONTINUOUS
10
-0.635013
20
0.211658
11
-0.635071
21
0.21163
0
LINE
8
BLACK
6
CONTINUOUS
10
-0.635071
20
0.21163
11
-0.639235
21
0.21115
0
LINE
8
BLACK
6
CONTINUOUS
10
-0.639235
20
0.21115
11
-0.640259
21
0.211212
0
LINE
8
BLACK
6
CONTINUOUS
10
-0.640259
20
0.211212
11
-0.640406
21
0.211309
0
LINE
8
BLACK
6
CONTINUOUS
10
-0.640406
20
0.211309
11
-0.640583
21
0.211309
0
LINE
8
BLACK
6
CONTINUOUS
10
-0.640583
20
0.211309
11
-0.64763
21
0.213874
0
LINE
8
BLACK
6
CONTINUOUS
10
-0.64763
20
0.213874
11
-0.648518
21
0.214387
0
LINE
8
BLACK
6
CONTINUOUS
10
-0.648518
20
0.214387
11
-0.648606
21
0.214539
0
LINE
8
BLACK
6
CONTINUOUS
10
-0.648606
20
0.214539
11
-0.648764
21
0.214618
0
LINE
8
BLACK
6
CONTINUOUS
10
-0.648764
20
0.214618
11
-0.651646
21
0.217663
0
LINE
8
BLACK
6
CONTINUOUS
10
-0.651646
20
0.217663
11
-0.652132
21
0.218399
0
LINE
8
BLACK
6
CONTINUOUS
10
-0.652132
20
0.218399
11
-0.652178
21
0.218445
0
LINE
8
BLACK
6
CONTINUOUS
10
-0.652178
20
0.218445
11
-0.653298
21
0.220848
0
LINE
8
BLACK
6
CONTINUOUS
10
-0.653298
20
0.220848
11
-0.653527
21
0.2217
0
LINE
8
BLACK
6
CONTINUOUS
10
-0.653527
20
0.2217
11
-0.653556
21
0.221758
0
LINE
8
BLACK
6
CONTINUOUS
10
-0.653556
20
0.221758
11
-0.654035
21
0.225923
0
LINE
8
BLACK
6
CONTINUOUS
10
-0.654035
20
0.225923
11
-0.653974
21
0.226946
0
LINE
8
BLACK
6
CONTINUOUS
10
-0.653974
20
0.226946
11
-0.653876
21
0.227094
0
LINE
8
BLACK
6
CONTINUOUS
10
-0.653876
20
0.227094
11
-0.653876
21
0.22727
0
LINE
8
BLACK
6
CONTINUOUS
10
-0.653876
20
0.22727
11
-0.65067
21
0.236079
0
LINE
8
BLACK
6
CONTINUOUS
10
-0.65067
20
0.236079
11
-0.650158
21
0.236967
0
LINE
8
BLACK
6
CONTINUOUS
10
-0.650158
20
0.236967
11
-0.650005
21
0.237055
0
LINE
8
BLACK
6
CONTINUOUS
10
-0.650005
20
0.237055
11
-0.649926
21
0.237213
0
LINE
8
BLACK
6
CONTINUOUS
10
-0.649926
20
0.237213
11
-0.646882
21
0.240095
0
LINE
8
BLACK
6
CONTINUOUS
10
-0.646882
20
0.240095
11
-0.646145
21
0.240581
0
LINE
8
BLACK
6
CONTINUOUS
10
-0.646145
20
0.240581
11
-0.646099
21
0.240627
0
LINE
8
BLACK
6
CONTINUOUS
10
-0.646099
20
0.240627
11
-0.643696
21
0.241748
0
LINE
8
BLACK
6
CONTINUOUS
10
-0.643696
20
0.241748
11
-0.642844
21
0.241976
0
LINE
8
BLACK
6
CONTINUOUS
10
-0.642844
20
0.241976
11
-0.642786
21
0.242005
0
LINE
8
BLACK
6
CONTINUOUS
10
-0.642786
20
0.242005
11
-0.638622
21
0.242484
0
LINE
8
BLACK
6
CONTINUOUS
10
-0.638622
20
0.242484
11
-0.637598
21
0.242423
0
LINE
8
BLACK
6
CONTINUOUS
10
-0.637598
20
0.242423
11
-0.637451
21
0.242325
0
LINE
8
BLACK
6
CONTINUOUS
10
-0.637451
20
0.242325
11
-0.637274
21
0.242325
0
LINE
8
BLACK
6
CONTINUOUS
10
-0.637274
20
0.242325
11
-0.630227
21
0.239761
0
LINE
8
BLACK
6
CONTINUOUS
10
-0.630227
20
0.239761
11
-0.629339
21
0.239248
0
LINE
8
BLACK
6
CONTINUOUS
10
-0.629339
20
0.239248
11
-0.629251
21
0.239095
0
LINE
8
BLACK
6
CONTINUOUS
10
-0.629251
20
0.239095
11
-0.629093
21
0.239016
0
LINE
8
BLACK
6
CONTINUOUS
10
-0.629093
20
0.239016
11
-0.627331
21
0.237155
0
LINE
8
BLACK
6
CONTINUOUS
10
-0.627331
20
0.237155
11
-0.627018
21
0.240146
0
LINE
8
BLACK
6
CONTINUOUS
10
-0.627018
20
0.240146
11
-0.628428
21
0.245932
0
LINE
8
BLACK
6
CONTINUOUS
10
-0.628428
20
0.245932
11
-0.629222
21
0.247636
0
LINE
8
BLACK
6
CONTINUOUS
10
-0.629222
20
0.247636
11
-0.631296
21
0.249826
0
LINE
8
BLACK
6
CONTINUOUS
10
-0.631296
20
0.249826
11
-0.637688
21
0.252152
0
LINE
8
BLACK
6
CONTINUOUS
10
-0.637688
20
0.252152
11
-0.638576
21
0.252665
0
LINE
8
BLACK
6
CONTINUOUS
10
-0.638576
20
0.252665
11
-0.639586
21
0.254414
0
LINE
8
BLACK
6
CONTINUOUS
10
-0.639586
20
0.254414
11
-0.639235
21
0.256403
0
LINE
8
BLACK
6
CONTINUOUS
10
-0.639235
20
0.256403
11
-0.637688
21
0.257701
0
LINE
8
BLACK
6
CONTINUOUS
10
-0.637688
20
0.257701
11
-0.635668
21
0.257701
0
LINE
8
BLACK
6
CONTINUOUS
10
-0.635668
20
0.257701
11
-0.628621
21
0.255137
0
LINE
8
BLACK
6
CONTINUOUS
10
-0.641635
20
0.236193
11
-0.643169
21
0.235477
0
LINE
8
BLACK
6
CONTINUOUS
10
-0.643169
20
0.235477
11
-0.645359
21
0.233404
0
LINE
8
BLACK
6
CONTINUOUS
10
-0.645359
20
0.233404
11
-0.648089
21
0.225905
0
LINE
8
BLACK
6
CONTINUOUS
10
-0.648089
20
0.225905
11
-0.647744
21
0.222909
0
LINE
8
BLACK
6
CONTINUOUS
10
-0.647744
20
0.222909
11
-0.647028
21
0.221375
0
LINE
8
BLACK
6
CONTINUOUS
10
-0.647028
20
0.221375
11
-0.644955
21
0.219185
0
LINE
8
BLACK
6
CONTINUOUS
10
-0.644955
20
0.219185
11
-0.639218
21
0.217097
0
LINE
8
BLACK
6
CONTINUOUS
10
-0.639218
20
0.217097
11
-0.636222
21
0.217442
0
LINE
8
BLACK
6
CONTINUOUS
10
-0.636222
20
0.217442
11
-0.634688
21
0.218157
0
LINE
8
BLACK
6
CONTINUOUS
10
-0.634688
20
0.218157
11
-0.632497
21
0.220231
0
LINE
8
BLACK
6
CONTINUOUS
10
-0.632497
20
0.220231
11
-0.629768
21
0.227729
0
LINE
8
BLACK
6
CONTINUOUS
10
-0.629768
20
0.227729
11
-0.630113
21
0.230725
0
LINE
8
BLACK
6
CONTINUOUS
10
-0.630113
20
0.230725
11
-0.630829
21
0.23226
0
LINE
8
BLACK
6
CONTINUOUS
10
-0.630829
20
0.23226
11
-0.632902
21
0.23445
0
LINE
8
BLACK
6
CONTINUOUS
10
-0.632902
20
0.23445
11
-0.638639
21
0.236538
0
LINE
8
BLACK
6
CONTINUOUS
10
-0.638639
20
0.236538
11
-0.641635
21
0.236193
0
LINE
8
BLACK
6
CONTINUOUS
10
-0.649517
20
0.281316
11
-0.557028
21
0.247653
0
LINE
8
BLACK
6
CONTINUOUS
10
-0.557028
20
0.247653
11
-0.557028
21
0.247653
0
LINE
8
BLACK
6
CONTINUOUS
10
-0.557028
20
0.247653
11
-0.557028
21
0.247652
0
LINE
8
BLACK
6
CONTINUOUS
10
-0.557028
20
0.247652
11
-0.555617
21
0.24636
0
LINE
8
BLACK
6
CONTINUOUS
10
-0.555617
20
0.24636
11
-0.555586
21
0.245652
0
LINE
8
BLACK
6
CONTINUOUS
10
-0.555586
20
0.245652
11
-0.555534
21
0.244448
0
LINE
8
BLACK
6
CONTINUOUS
10
-0.555534
20
0.244448
11
-0.582465
21
0.170457
0
LINE
8
BLACK
6
CONTINUOUS
10
-0.582465
20
0.170457
11
-0.582465
21
0.170457
0
LINE
8
BLACK
6
CONTINUOUS
10
-0.582465
20
0.170457
11
-0.583757
21
0.169046
0
LINE
8
BLACK
6
CONTINUOUS
10
-0.583757
20
0.169046
11
-0.585669
21
0.168962
0
LINE
8
BLACK
6
CONTINUOUS
10
-0.585669
20
0.168962
11
-0.678158
21
0.202626
0
LINE
8
BLACK
6
CONTINUOUS
10
-0.678158
20
0.202626
11
-0.679569
21
0.203919
0
LINE
8
BLACK
6
CONTINUOUS
10
-0.679569
20
0.203919
11
-0.679652
21
0.20583
0
LINE
8
BLACK
6
CONTINUOUS
10
-0.679652
20
0.20583
11
-0.652722
21
0.279822
0
LINE
8
BLACK
6
CONTINUOUS
10
-0.652722
20
0.279822
11
-0.651429
21
0.281232
0
LINE
8
BLACK
6
CONTINUOUS
10
-0.651429
20
0.281232
11
-0.649518
21
0.281316
0
LINE
8
BLACK
6
CONTINUOUS
10
-0.649518
20
0.281316
11
-0.649517
21
0.281316
0
LINE
8
BLACK
6
CONTINUOUS
10
-0.674099
20
0.206469
11
-0.586308
21
0.174516
0
LINE
8
BLACK
6
CONTINUOUS
10
-0.586308
20
0.174516
11
-0.561087
21
0.243809
0
LINE
8
BLACK
6
CONTINUOUS
10
-0.561087
20
0.243809
11
-0.648878
21
0.275762
0
LINE
8
BLACK
6
CONTINUOUS
10
-0.648878
20
0.275762
11
-0.674099
21
0.206469
0
LINE
8
BLACK
6
CONTINUOUS
10
-0.531527
20
0.234007
11
-0.529342
21
0.231267
0
LINE
8
BLACK
6
CONTINUOUS
10
-0.529342
20
0.231267
11
-0.528562
21
0.227851
0
LINE
8
BLACK
6
CONTINUOUS
10
-0.528562
20
0.227851
11
-0.529342
21
0.224435
0
LINE
8
BLACK
6
CONTINUOUS
10
-0.529342
20
0.224435
11
-0.531527
21
0.221695
0
LINE
8
BLACK
6
CONTINUOUS
10
-0.531527
20
0.221695
11
-0.534684
21
0.220174
0
LINE
8
BLACK
6
CONTINUOUS
10
-0.534684
20
0.220174
11
-0.538188
21
0.220174
0
LINE
8
BLACK
6
CONTINUOUS
10
-0.538188
20
0.220174
11
-0.541345
21
0.221695
0
LINE
8
BLACK
6
CONTINUOUS
10
-0.541345
20
0.221695
11
-0.54353
21
0.224435
0
LINE
8
BLACK
6
CONTINUOUS
10
-0.54353
20
0.224435
11
-0.54431
21
0.227851
0
LINE
8
BLACK
6
CONTINUOUS
10
-0.54431
20
0.227851
11
-0.54353
21
0.231267
0
LINE
8
BLACK
6
CONTINUOUS
10
-0.54353
20
0.231267
11
-0.541345
21
0.234007
0
LINE
8
BLACK
6
CONTINUOUS
10
-0.541345
20
0.234007
11
-0.538188
21
0.235528
0
LINE
8
BLACK
6
CONTINUOUS
10
-0.538188
20
0.235528
11
-0.534684
21
0.235528
0
LINE
8
BLACK
6
CONTINUOUS
10
-0.534684
20
0.235528
11
-0.531527
21
0.234007
0
LINE
8
BLACK
6
CONTINUOUS
10
0.23276
20
0.542592
11
0.234945
21
0.539852
0
LINE
8
BLACK
6
CONTINUOUS
10
0.234945
20
0.539852
11
0.235725
21
0.536436
0
LINE
8
BLACK
6
CONTINUOUS
10
0.235725
20
0.536436
11
0.234945
21
0.533019
0
LINE
8
BLACK
6
CONTINUOUS
10
0.234945
20
0.533019
11
0.23276
21
0.53028
0
LINE
8
BLACK
6
CONTINUOUS
10
0.23276
20
0.53028
11
0.229603
21
0.528759
0
LINE
8
BLACK
6
CONTINUOUS
10
0.229603
20
0.528759
11
0.226099
21
0.528759
0
LINE
8
BLACK
6
CONTINUOUS
10
0.226099
20
0.528759
11
0.222942
21
0.53028
0
LINE
8
BLACK
6
CONTINUOUS
10
0.222942
20
0.53028
11
0.220757
21
0.533019
0
LINE
8
BLACK
6
CONTINUOUS
10
0.220757
20
0.533019
11
0.219977
21
0.536436
0
LINE
8
BLACK
6
CONTINUOUS
10
0.219977
20
0.536436
11
0.220757
21
0.539852
0
LINE
8
BLACK
6
CONTINUOUS
10
0.220757
20
0.539852
11
0.222942
21
0.542592
0
LINE
8
BLACK
6
CONTINUOUS
10
0.222942
20
0.542592
11
0.226099
21
0.544113
0
LINE
8
BLACK
6
CONTINUOUS
10
0.226099
20
0.544113
11
0.229603
21
0.544113
0
LINE
8
BLACK
6
CONTINUOUS
10
0.229603
20
0.544113
11
0.23276
21
0.542592
0
LINE
8
BLACK
6
CONTINUOUS
10
0.214278
20
0.638607
11
0.215576
21
0.637059
0
LINE
8
BLACK
6
CONTINUOUS
10
0.215576
20
0.637059
11
0.215576
21
0.63504
0
LINE
8
BLACK
6
CONTINUOUS
10
0.215576
20
0.63504
11
0.212739
21
0.627244
0
LINE
8
BLACK
6
CONTINUOUS
10
0.212739
20
0.627244
11
0.24696
21
0.614789
0
LINE
8
BLACK
6
CONTINUOUS
10
0.24696
20
0.614789
11
0.247848
21
0.614276
0
LINE
8
BLACK
6
CONTINUOUS
10
0.247848
20
0.614276
11
0.247933
21
0.614129
0
LINE
8
BLACK
6
CONTINUOUS
10
0.247933
20
0.614129
11
0.248085
21
0.614054
0
LINE
8
BLACK
6
CONTINUOUS
10
0.248085
20
0.614054
11
0.248429
21
0.613269
0
LINE
8
BLACK
6
CONTINUOUS
10
0.248429
20
0.613269
11
0.248858
21
0.612527
0
LINE
8
BLACK
6
CONTINUOUS
10
0.248858
20
0.612527
11
0.248828
21
0.612359
0
LINE
8
BLACK
6
CONTINUOUS
10
0.248828
20
0.612359
11
0.248896
21
0.612204
0
LINE
8
BLACK
6
CONTINUOUS
10
0.248896
20
0.612204
11
0.248656
21
0.611381
0
LINE
8
BLACK
6
CONTINUOUS
10
0.248656
20
0.611381
11
0.248507
21
0.610537
0
LINE
8
BLACK
6
CONTINUOUS
10
0.248507
20
0.610537
11
0.248377
21
0.610428
0
LINE
8
BLACK
6
CONTINUOUS
10
0.248377
20
0.610428
11
0.248329
21
0.610265
0
LINE
8
BLACK
6
CONTINUOUS
10
0.248329
20
0.610265
11
0.247616
21
0.60979
0
LINE
8
BLACK
6
CONTINUOUS
10
0.247616
20
0.60979
11
0.24696
21
0.609239
0
LINE
8
BLACK
6
CONTINUOUS
10
0.24696
20
0.609239
11
0.24679
21
0.609239
0
LINE
8
BLACK
6
CONTINUOUS
10
0.24679
20
0.609239
11
0.246649
21
0.609145
0
LINE
8
BLACK
6
CONTINUOUS
10
0.246649
20
0.609145
11
0.240365
21
0.607614
0
LINE
8
BLACK
6
CONTINUOUS
10
0.240365
20
0.607614
11
0.236259
21
0.6057
0
LINE
8
BLACK
6
CONTINUOUS
10
0.236259
20
0.6057
11
0.233562
21
0.603147
0
LINE
8
BLACK
6
CONTINUOUS
10
0.233562
20
0.603147
11
0.232707
21
0.602582
0
LINE
8
BLACK
6
CONTINUOUS
10
0.232707
20
0.602582
11
0.23069
21
0.602461
0
LINE
8
BLACK
6
CONTINUOUS
10
0.23069
20
0.602461
11
0.229068
21
0.603664
0
LINE
8
BLACK
6
CONTINUOUS
10
0.229068
20
0.603664
11
0.228599
21
0.605629
0
LINE
8
BLACK
6
CONTINUOUS
10
0.228599
20
0.605629
11
0.229502
21
0.607435
0
LINE
8
BLACK
6
CONTINUOUS
10
0.229502
20
0.607435
11
0.232546
21
0.610317
0
LINE
8
BLACK
6
CONTINUOUS
10
0.232546
20
0.610317
11
0.233283
21
0.610804
0
LINE
8
BLACK
6
CONTINUOUS
10
0.233283
20
0.610804
11
0.233329
21
0.610849
0
LINE
8
BLACK
6
CONTINUOUS
10
0.233329
20
0.610849
11
0.236479
21
0.612319
0
LINE
8
BLACK
6
CONTINUOUS
10
0.236479
20
0.612319
11
0.210719
21
0.621695
0
LINE
8
BLACK
6
CONTINUOUS
10
0.210719
20
0.621695
11
0.207881
21
0.613899
0
LINE
8
BLACK
6
CONTINUOUS
10
0.207881
20
0.613899
11
0.207369
21
0.613011
0
LINE
8
BLACK
6
CONTINUOUS
10
0.207369
20
0.613011
11
0.20562
21
0.612001
0
LINE
8
BLACK
6
CONTINUOUS
10
0.20562
20
0.612001
11
0.20363
21
0.612352
0
LINE
8
BLACK
6
CONTINUOUS
10
0.20363
20
0.612352
11
0.202332
21
0.613899
0
LINE
8
BLACK
6
CONTINUOUS
10
0.202332
20
0.613899
11
0.202332
21
0.615919
0
LINE
8
BLACK
6
CONTINUOUS
10
0.202332
20
0.615919
11
0.210027
21
0.637059
0
LINE
8
BLACK
6
CONTINUOUS
10
0.210027
20
0.637059
11
0.210539
21
0.637947
0
LINE
8
BLACK
6
CONTINUOUS
10
0.210539
20
0.637947
11
0.212289
21
0.638957
0
LINE
8
BLACK
6
CONTINUOUS
10
0.212289
20
0.638957
11
0.214278
21
0.638607
0
LINE
8
BLACK
6
CONTINUOUS
10
0.20583
20
0.679652
11
0.228898
21
0.671257
0
LINE
8
BLACK
6
CONTINUOUS
10
0.228898
20
0.671257
11
0.232335
21
0.671652
0
LINE
8
BLACK
6
CONTINUOUS
10
0.232335
20
0.671652
11
0.233358
21
0.671591
0
LINE
8
BLACK
6
CONTINUOUS
10
0.233358
20
0.671591
11
0.233506
21
0.671493
0
LINE
8
BLACK
6
CONTINUOUS
10
0.233506
20
0.671493
11
0.233682
21
0.671493
0
LINE
8
BLACK
6
CONTINUOUS
10
0.233682
20
0.671493
11
0.242491
21
0.668287
0
LINE
8
BLACK
6
CONTINUOUS
10
0.242491
20
0.668287
11
0.243379
21
0.667775
0
LINE
8
BLACK
6
CONTINUOUS
10
0.243379
20
0.667775
11
0.243467
21
0.667622
0
LINE
8
BLACK
6
CONTINUOUS
10
0.243467
20
0.667622
11
0.243625
21
0.667543
0
LINE
8
BLACK
6
CONTINUOUS
10
0.243625
20
0.667543
11
0.246003
21
0.665031
0
LINE
8
BLACK
6
CONTINUOUS
10
0.246003
20
0.665031
11
0.259956
21
0.659952
0
LINE
8
BLACK
6
CONTINUOUS
10
0.259956
20
0.659952
11
0.261554
21
0.660571
0
LINE
8
BLACK
6
CONTINUOUS
10
0.261554
20
0.660571
11
0.26199
21
0.660657
0
LINE
8
BLACK
6
CONTINUOUS
10
0.26199
20
0.660657
11
0.262108
21
0.660726
0
LINE
8
BLACK
6
CONTINUOUS
10
0.262108
20
0.660726
11
0.262229
21
0.660705
0
LINE
8
BLACK
6
CONTINUOUS
10
0.262229
20
0.660705
11
0.26256
21
0.66077
0
LINE
8
BLACK
6
CONTINUOUS
10
0.26256
20
0.66077
11
0.263314
21
0.660514
0
LINE
8
BLACK
6
CONTINUOUS
10
0.263314
20
0.660514
11
0.264098
21
0.660375
0
LINE
8
BLACK
6
CONTINUOUS
10
0.264098
20
0.660375
11
0.264249
21
0.660195
0
LINE
8
BLACK
6
CONTINUOUS
10
0.264249
20
0.660195
11
0.264472
21
0.660119
0
LINE
8
BLACK
6
CONTINUOUS
10
0.264472
20
0.660119
11
0.264884
21
0.659438
0
LINE
8
BLACK
6
CONTINUOUS
10
0.264884
20
0.659438
11
0.265396
21
0.658828
0
LINE
8
BLACK
6
CONTINUOUS
10
0.265396
20
0.658828
11
0.265396
21
0.658592
0
LINE
8
BLACK
6
CONTINUOUS
10
0.265396
20
0.658592
11
0.265518
21
0.658391
0
LINE
8
BLACK
6
CONTINUOUS
10
0.265518
20
0.658391
11
0.26545
21
0.657953
0
LINE
8
BLACK
6
CONTINUOUS
10
0.26545
20
0.657953
11
0.279822
21
0.652722
0
LINE
8
BLACK
6
CONTINUOUS
10
0.279822
20
0.652722
11
0.279822
21
0.652722
0
LINE
8
BLACK
6
CONTINUOUS
10
0.279822
20
0.652722
11
0.281232
21
0.651429
0
LINE
8
BLACK
6
CONTINUOUS
10
0.281232
20
0.651429
11
0.281316
21
0.649518
0
LINE
8
BLACK
6
CONTINUOUS
10
0.281316
20
0.649518
11
0.247652
21
0.557028
0
LINE
8
BLACK
6
CONTINUOUS
10
0.247652
20
0.557028
11
0.247653
21
0.557028
0
LINE
8
BLACK
6
CONTINUOUS
10
0.247653
20
0.557028
11
0.24636
21
0.555617
0
LINE
8
BLACK
6
CONTINUOUS
10
0.24636
20
0.555617
11
0.244448
21
0.555534
0
LINE
8
BLACK
6
CONTINUOUS
10
0.244448
20
0.555534
11
0.170457
21
0.582465
0
LINE
8
BLACK
6
CONTINUOUS
10
0.170457
20
0.582465
11
0.169046
21
0.583757
0
LINE
8
BLACK
6
CONTINUOUS
10
0.169046
20
0.583757
11
0.168963
21
0.585669
0
LINE
8
BLACK
6
CONTINUOUS
10
0.168963
20
0.585669
11
0.168962
21
0.585669
0
LINE
8
BLACK
6
CONTINUOUS
10
0.168962
20
0.585669
11
0.202626
21
0.678158
0
LINE
8
BLACK
6
CONTINUOUS
10
0.202626
20
0.678158
11
0.203919
21
0.679569
0
LINE
8
BLACK
6
CONTINUOUS
10
0.203919
20
0.679569
11
0.20583
21
0.679653
0
LINE
8
BLACK
6
CONTINUOUS
10
0.20583
20
0.679653
11
0.20583
21
0.679652
0
LINE
8
BLACK
6
CONTINUOUS
10
0.174516
20
0.586308
11
0.191893
21
0.579983
0
LINE
8
BLACK
6
CONTINUOUS
10
0.191893
20
0.579983
11
0.191781
21
0.5804
0
LINE
8
BLACK
6
CONTINUOUS
10
0.191781
20
0.5804
11
0.191752
21
0.580458
0
LINE
8
BLACK
6
CONTINUOUS
10
0.191752
20
0.580458
11
0.191273
21
0.584622
0
LINE
8
BLACK
6
CONTINUOUS
10
0.191273
20
0.584622
11
0.191334
21
0.585646
0
LINE
8
BLACK
6
CONTINUOUS
10
0.191334
20
0.585646
11
0.191432
21
0.585793
0
LINE
8
BLACK
6
CONTINUOUS
10
0.191432
20
0.585793
11
0.191432
21
0.58597
0
LINE
8
BLACK
6
CONTINUOUS
10
0.191432
20
0.58597
11
0.193996
21
0.593017
0
LINE
8
BLACK
6
CONTINUOUS
10
0.193996
20
0.593017
11
0.194509
21
0.593905
0
LINE
8
BLACK
6
CONTINUOUS
10
0.194509
20
0.593905
11
0.194662
21
0.593993
0
LINE
8
BLACK
6
CONTINUOUS
10
0.194662
20
0.593993
11
0.194741
21
0.594151
0
LINE
8
BLACK
6
CONTINUOUS
10
0.194741
20
0.594151
11
0.197785
21
0.597033
0
LINE
8
BLACK
6
CONTINUOUS
10
0.197785
20
0.597033
11
0.198522
21
0.59752
0
LINE
8
BLACK
6
CONTINUOUS
10
0.198522
20
0.59752
11
0.198567
21
0.597565
0
LINE
8
BLACK
6
CONTINUOUS
10
0.198567
20
0.597565
11
0.20097
21
0.598686
0
LINE
8
BLACK
6
CONTINUOUS
10
0.20097
20
0.598686
11
0.201823
21
0.598914
0
LINE
8
BLACK
6
CONTINUOUS
10
0.201823
20
0.598914
11
0.201881
21
0.598943
0
LINE
8
BLACK
6
CONTINUOUS
10
0.201881
20
0.598943
11
0.206045
21
0.599422
0
LINE
8
BLACK
6
CONTINUOUS
10
0.206045
20
0.599422
11
0.207069
21
0.599361
0
LINE
8
BLACK
6
CONTINUOUS
10
0.207069
20
0.599361
11
0.207216
21
0.599264
0
LINE
8
BLACK
6
CONTINUOUS
10
0.207216
20
0.599264
11
0.207393
21
0.599264
0
LINE
8
BLACK
6
CONTINUOUS
10
0.207393
20
0.599264
11
0.237342
21
0.588363
0
LINE
8
BLACK
6
CONTINUOUS
10
0.237342
20
0.588363
11
0.23823
21
0.58785
0
LINE
8
BLACK
6
CONTINUOUS
10
0.23823
20
0.58785
11
0.23924
21
0.586101
0
LINE
8
BLACK
6
CONTINUOUS
10
0.23924
20
0.586101
11
0.238889
21
0.584112
0
LINE
8
BLACK
6
CONTINUOUS
10
0.238889
20
0.584112
11
0.237342
21
0.582814
0
LINE
8
BLACK
6
CONTINUOUS
10
0.237342
20
0.582814
11
0.235322
21
0.582814
0
LINE
8
BLACK
6
CONTINUOUS
10
0.235322
20
0.582814
11
0.206028
21
0.593476
0
LINE
8
BLACK
6
CONTINUOUS
10
0.206028
20
0.593476
11
0.203032
21
0.593131
0
LINE
8
BLACK
6
CONTINUOUS
10
0.203032
20
0.593131
11
0.201497
21
0.592415
0
LINE
8
BLACK
6
CONTINUOUS
10
0.201497
20
0.592415
11
0.199307
21
0.590342
0
LINE
8
BLACK
6
CONTINUOUS
10
0.199307
20
0.590342
11
0.197219
21
0.584605
0
LINE
8
BLACK
6
CONTINUOUS
10
0.197219
20
0.584605
11
0.197564
21
0.581609
0
LINE
8
BLACK
6
CONTINUOUS
10
0.197564
20
0.581609
11
0.19828
21
0.580075
0
LINE
8
BLACK
6
CONTINUOUS
10
0.19828
20
0.580075
11
0.200353
21
0.577885
0
LINE
8
BLACK
6
CONTINUOUS
10
0.200353
20
0.577885
11
0.229647
21
0.567223
0
LINE
8
BLACK
6
CONTINUOUS
10
0.229647
20
0.567223
11
0.230535
21
0.56671
0
LINE
8
BLACK
6
CONTINUOUS
10
0.230535
20
0.56671
11
0.231113
21
0.565708
0
LINE
8
BLACK
6
CONTINUOUS
10
0.231113
20
0.565708
11
0.243809
21
0.561087
0
LINE
8
BLACK
6
CONTINUOUS
10
0.243809
20
0.561087
11
0.275762
21
0.648878
0
LINE
8
BLACK
6
CONTINUOUS
10
0.275762
20
0.648878
11
0.26406
21
0.653138
0
LINE
8
BLACK
6
CONTINUOUS
10
0.26406
20
0.653138
11
0.25706
21
0.633906
0
LINE
8
BLACK
6
CONTINUOUS
10
0.25706
20
0.633906
11
0.256547
21
0.633018
0
LINE
8
BLACK
6
CONTINUOUS
10
0.256547
20
0.633018
11
0.254798
21
0.632008
0
LINE
8
BLACK
6
CONTINUOUS
10
0.254798
20
0.632008
11
0.252809
21
0.632359
0
LINE
8
BLACK
6
CONTINUOUS
10
0.252809
20
0.632359
11
0.251511
21
0.633906
0
LINE
8
BLACK
6
CONTINUOUS
10
0.251511
20
0.633906
11
0.251511
21
0.635926
0
LINE
8
BLACK
6
CONTINUOUS
10
0.251511
20
0.635926
11
0.257621
21
0.652713
0
LINE
8
BLACK
6
CONTINUOUS
10
0.257621
20
0.652713
11
0.245106
21
0.647863
0
LINE
8
BLACK
6
CONTINUOUS
10
0.245106
20
0.647863
11
0.244671
21
0.647777
0
LINE
8
BLACK
6
CONTINUOUS
10
0.244671
20
0.647777
11
0.244552
21
0.647708
0
LINE
8
BLACK
6
CONTINUOUS
10
0.244552
20
0.647708
11
0.244431
21
0.647729
0
LINE
8
BLACK
6
CONTINUOUS
10
0.244431
20
0.647729
11
0.2441
21
0.647664
0
LINE
8
BLACK
6
CONTINUOUS
10
0.2441
20
0.647664
11
0.243347
21
0.647921
0
LINE
8
BLACK
6
CONTINUOUS
10
0.243347
20
0.647921
11
0.242563
21
0.648059
0
LINE
8
BLACK
6
CONTINUOUS
10
0.242563
20
0.648059
11
0.242411
21
0.648239
0
LINE
8
BLACK
6
CONTINUOUS
10
0.242411
20
0.648239
11
0.242188
21
0.648315
0
LINE
8
BLACK
6
CONTINUOUS
10
0.242188
20
0.648315
11
0.241776
21
0.648996
0
LINE
8
BLACK
6
CONTINUOUS
10
0.241776
20
0.648996
11
0.241264
21
0.649606
0
LINE
8
BLACK
6
CONTINUOUS
10
0.241264
20
0.649606
11
0.241264
21
0.649842
0
LINE
8
BLACK
6
CONTINUOUS
10
0.241264
20
0.649842
11
0.241142
21
0.650043
0
LINE
8
BLACK
6
CONTINUOUS
10
0.241142
20
0.650043
11
0.241264
21
0.65083
0
LINE
8
BLACK
6
CONTINUOUS
10
0.241264
20
0.65083
11
0.241264
21
0.651626
0
LINE
8
BLACK
6
CONTINUOUS
10
0.241264
20
0.651626
11
0.24295
21
0.656256
0
LINE
8
BLACK
6
CONTINUOUS
10
0.24295
20
0.656256
11
0.242605
21
0.659252
0
LINE
8
BLACK
6
CONTINUOUS
10
0.242605
20
0.659252
11
0.241889
21
0.660786
0
LINE
8
BLACK
6
CONTINUOUS
10
0.241889
20
0.660786
11
0.241281
21
0.661428
0
LINE
8
BLACK
6
CONTINUOUS
10
0.241281
20
0.661428
11
0.2302
21
0.665462
0
LINE
8
BLACK
6
CONTINUOUS
10
0.2302
20
0.665462
11
0.229321
21
0.665361
0
LINE
8
BLACK
6
CONTINUOUS
10
0.229321
20
0.665361
11
0.227787
21
0.664645
0
LINE
8
BLACK
6
CONTINUOUS
10
0.227787
20
0.664645
11
0.225597
21
0.662572
0
LINE
8
BLACK
6
CONTINUOUS
10
0.225597
20
0.662572
11
0.222226
21
0.653312
0
LINE
8
BLACK
6
CONTINUOUS
10
0.222226
20
0.653312
11
0.222571
21
0.650316
0
LINE
8
BLACK
6
CONTINUOUS
10
0.222571
20
0.650316
11
0.223489
21
0.648347
0
LINE
8
BLACK
6
CONTINUOUS
10
0.223489
20
0.648347
11
0.223755
21
0.647356
0
LINE
8
BLACK
6
CONTINUOUS
10
0.223755
20
0.647356
11
0.223232
21
0.645405
0
LINE
8
BLACK
6
CONTINUOUS
10
0.223232
20
0.645405
11
0.221577
21
0.644247
0
LINE
8
BLACK
6
CONTINUOUS
10
0.221577
20
0.644247
11
0.219565
21
0.644423
0
LINE
8
BLACK
6
CONTINUOUS
10
0.219565
20
0.644423
11
0.218137
21
0.645851
0
LINE
8
BLACK
6
CONTINUOUS
10
0.218137
20
0.645851
11
0.217017
21
0.648254
0
LINE
8
BLACK
6
CONTINUOUS
10
0.217017
20
0.648254
11
0.216788
21
0.649107
0
LINE
8
BLACK
6
CONTINUOUS
10
0.216788
20
0.649107
11
0.216759
21
0.649164
0
LINE
8
BLACK
6
CONTINUOUS
10
0.216759
20
0.649164
11
0.21628
21
0.653329
0
LINE
8
BLACK
6
CONTINUOUS
10
0.21628
20
0.653329
11
0.216341
21
0.654353
0
LINE
8
BLACK
6
CONTINUOUS
10
0.216341
20
0.654353
11
0.216439
21
0.6545
0
LINE
8
BLACK
6
CONTINUOUS
10
0.216439
20
0.6545
11
0.216439
21
0.654676
0
LINE
8
BLACK
6
CONTINUOUS
10
0.216439
20
0.654676
11
0.220286
21
0.665247
0
LINE
8
BLACK
6
CONTINUOUS
10
0.220286
20
0.665247
11
0.220799
21
0.666135
0
LINE
8
BLACK
6
CONTINUOUS
10
0.220799
20
0.666135
11
0.220951
21
0.666223
0
LINE
8
BLACK
6
CONTINUOUS
10
0.220951
20
0.666223
11
0.22103
21
0.666381
0
LINE
8
BLACK
6
CONTINUOUS
10
0.22103
20
0.666381
11
0.222875
21
0.668128
0
LINE
8
BLACK
6
CONTINUOUS
10
0.222875
20
0.668128
11
0.206469
21
0.674099
0
LINE
8
BLACK
6
CONTINUOUS
10
0.206469
20
0.674099
11
0.174516
21
0.586308
0
LINE
8
BLACK
6
CONTINUOUS
10
0.248896
20
0.656239
11
0.248861
21
0.655652
0
LINE
8
BLACK
6
CONTINUOUS
10
0.248861
20
0.655652
11
0.252877
21
0.657208
0
LINE
8
BLACK
6
CONTINUOUS
10
0.252877
20
0.657208
11
0.248606
21
0.658763
0
LINE
8
BLACK
6
CONTINUOUS
10
0.248606
20
0.658763
11
0.248896
21
0.656239
  0
ENDSEC
  0
EOF
