  0
SECTION
  2
HEADER
  9
$ANGBASE
  50
0.0
  9
$ANGDIR
  70
1
  9
$MEASUREMENT
  70
0
  0
ENDSEC
  0
SECTION
  2
TABLES
  0
TABLE
  2
LTYPE
  70
4
  0
LTYPE
  5
40F
  2
CONTINUOUS
  70
0
  3
Solid line
  72
65
  73
0
  40
0.0
  0
LTYPE
  5
410
  2
DASHDOT
 70
0
  3
Dash Dot ____ _ ____ _
 72
65
 73
4
 40
2.0
 49
1.25
 49
-0.25
 49
0.25
 49
-0.25
  0
LTYPE
  5
411
  2
DASHED
 70
0
  3
Dashed __ __ __ __ __
 72
65
 73
2
 40
0.75
 49
0.5
 49
-0.25
  0
LTYPE
  5
43B
  2
DOTTED
 70
0
  3
Dotted .  .  .  .
 72
65
 73
2
 40
0.2
 49
0.0
 49
-0.2
  0
ENDTAB
  0
TABLE
  2
STYLE
  70
4
  0
STYLE
  2
KICAD
  70
0
  40
0
  41
1
  42
1
  50
0
  71
0
  3
isocp.shx
  0
STYLE
  2
KICADB
  70
0
  40
0
  41
1
  42
1
  50
0
  71
0
  3
isocp.shx
  0
STYLE
  2
KICADI
  70
0
  40
0
  41
1
  42
1
  50
15
  71
0
  3
isocp.shx
  0
STYLE
  2
KICADBI
  70
0
  40
0
  41
1
  42
1
  50
15
  71
0
  3
isocp.shx
  0
ENDTAB
  0
TABLE
  2
LAYER
  70
1
  0
LAYER
  2
BLACK
  70
0
  62
7
  6
CONTINUOUS
  0
ENDTAB
  0
ENDSEC
  0
SECTION
  2
ENTITIES
0
LINE
8
BLACK
6
CONTINUOUS
10
-0.716184
20
-0.347439
11
-0.659097
21
-0.446316
0
LINE
8
BLACK
6
CONTINUOUS
10
-0.659097
20
-0.446316
11
-0.659097
21
-0.446316
0
LINE
8
BLACK
6
CONTINUOUS
10
-0.659097
20
-0.446316
11
-0.658999
21
-0.447063
0
LINE
8
BLACK
6
CONTINUOUS
10
-0.658999
20
-0.447063
11
-0.659457
21
-0.447661
0
LINE
8
BLACK
6
CONTINUOUS
10
-0.659457
20
-0.447661
11
-0.761744
21
-0.506716
0
LINE
8
BLACK
6
CONTINUOUS
10
-0.761744
20
-0.506716
11
-0.762491
21
-0.506814
0
LINE
8
BLACK
6
CONTINUOUS
10
-0.762491
20
-0.506814
11
-0.763088
21
-0.506356
0
LINE
8
BLACK
6
CONTINUOUS
10
-0.763088
20
-0.506356
11
-0.820175
21
-0.407479
0
LINE
8
BLACK
6
CONTINUOUS
10
-0.820175
20
-0.407479
11
-0.820273
21
-0.406732
0
LINE
8
BLACK
6
CONTINUOUS
10
-0.820273
20
-0.406732
11
-0.819815
21
-0.406134
0
LINE
8
BLACK
6
CONTINUOUS
10
-0.819815
20
-0.406134
11
-0.717528
21
-0.347079
0
LINE
8
BLACK
6
CONTINUOUS
10
-0.717528
20
-0.347079
11
-0.716781
21
-0.346981
0
LINE
8
BLACK
6
CONTINUOUS
10
-0.716781
20
-0.346981
11
-0.716184
21
-0.347439
0
LINE
8
BLACK
6
CONTINUOUS
10
-0.817978
20
-0.407347
11
-0.761876
21
-0.504519
0
LINE
8
BLACK
6
CONTINUOUS
10
-0.761876
20
-0.504519
11
-0.661294
21
-0.446448
0
LINE
8
BLACK
6
CONTINUOUS
10
-0.661294
20
-0.446448
11
-0.717396
21
-0.349276
0
LINE
8
BLACK
6
CONTINUOUS
10
-0.717396
20
-0.349276
11
-0.817978
21
-0.407347
0
LINE
8
BLACK
6
CONTINUOUS
10
-0.692948
20
0.190769
11
-0.693504
21
0.191277
0
LINE
8
BLACK
6
CONTINUOUS
10
-0.693504
20
0.191277
11
-0.693536
21
0.19203
0
LINE
8
BLACK
6
CONTINUOUS
10
-0.693536
20
0.19203
11
-0.693536
21
0.19203
0
LINE
8
BLACK
6
CONTINUOUS
10
-0.693536
20
0.19203
11
-0.654487
21
0.299318
0
LINE
8
BLACK
6
CONTINUOUS
10
-0.654487
20
0.299318
11
-0.654487
21
0.299318
0
LINE
8
BLACK
6
CONTINUOUS
10
-0.654487
20
0.299318
11
-0.653978
21
0.299873
0
LINE
8
BLACK
6
CONTINUOUS
10
-0.653978
20
0.299873
11
-0.653225
21
0.299906
0
LINE
8
BLACK
6
CONTINUOUS
10
-0.653225
20
0.299906
11
-0.653225
21
0.299906
0
LINE
8
BLACK
6
CONTINUOUS
10
-0.653225
20
0.299906
11
-0.542238
21
0.25951
0
LINE
8
BLACK
6
CONTINUOUS
10
-0.542238
20
0.25951
11
-0.541683
21
0.259001
0
LINE
8
BLACK
6
CONTINUOUS
10
-0.541683
20
0.259001
11
-0.541683
21
0.259001
0
LINE
8
BLACK
6
CONTINUOUS
10
-0.541683
20
0.259001
11
-0.54165
21
0.258248
0
LINE
8
BLACK
6
CONTINUOUS
10
-0.54165
20
0.258248
11
-0.580699
21
0.150961
0
LINE
8
BLACK
6
CONTINUOUS
10
-0.580699
20
0.150961
11
-0.581208
21
0.150405
0
LINE
8
BLACK
6
CONTINUOUS
10
-0.581208
20
0.150405
11
-0.581961
21
0.150372
0
LINE
8
BLACK
6
CONTINUOUS
10
-0.581961
20
0.150372
11
-0.581961
21
0.150372
0
LINE
8
BLACK
6
CONTINUOUS
10
-0.581961
20
0.150372
11
-0.692948
21
0.190769
0
LINE
8
BLACK
6
CONTINUOUS
10
-0.69135
20
0.192282
11
-0.582213
21
0.152559
0
LINE
8
BLACK
6
CONTINUOUS
10
-0.582213
20
0.152559
11
-0.543836
21
0.257997
0
LINE
8
BLACK
6
CONTINUOUS
10
-0.543836
20
0.257997
11
-0.652974
21
0.29772
0
LINE
8
BLACK
6
CONTINUOUS
10
-0.652974
20
0.29772
11
-0.69135
21
0.192282
0
LINE
8
BLACK
6
CONTINUOUS
10
0.150961
20
0.580699
11
0.150405
21
0.581208
0
LINE
8
BLACK
6
CONTINUOUS
10
0.150405
20
0.581208
11
0.150372
21
0.581961
0
LINE
8
BLACK
6
CONTINUOUS
10
0.150372
20
0.581961
11
0.190769
21
0.692948
0
LINE
8
BLACK
6
CONTINUOUS
10
0.190769
20
0.692948
11
0.191277
21
0.693504
0
LINE
8
BLACK
6
CONTINUOUS
10
0.191277
20
0.693504
11
0.19203
21
0.693536
0
LINE
8
BLACK
6
CONTINUOUS
10
0.19203
20
0.693536
11
0.299318
21
0.654487
0
LINE
8
BLACK
6
CONTINUOUS
10
0.299318
20
0.654487
11
0.299873
21
0.653978
0
LINE
8
BLACK
6
CONTINUOUS
10
0.299873
20
0.653978
11
0.299873
21
0.653978
0
LINE
8
BLACK
6
CONTINUOUS
10
0.299873
20
0.653978
11
0.299906
21
0.653225
0
LINE
8
BLACK
6
CONTINUOUS
10
0.299906
20
0.653225
11
0.25951
21
0.542238
0
LINE
8
BLACK
6
CONTINUOUS
10
0.25951
20
0.542238
11
0.259001
21
0.541683
0
LINE
8
BLACK
6
CONTINUOUS
10
0.259001
20
0.541683
11
0.258248
21
0.54165
0
LINE
8
BLACK
6
CONTINUOUS
10
0.258248
20
0.54165
11
0.150961
21
0.580699
0
LINE
8
BLACK
6
CONTINUOUS
10
0.150961
20
0.580699
11
0.150961
21
0.580699
0
LINE
8
BLACK
6
CONTINUOUS
10
0.152559
20
0.582213
11
0.257997
21
0.543836
0
LINE
8
BLACK
6
CONTINUOUS
10
0.257997
20
0.543836
11
0.29772
21
0.652974
0
LINE
8
BLACK
6
CONTINUOUS
10
0.29772
20
0.652974
11
0.192282
21
0.69135
0
LINE
8
BLACK
6
CONTINUOUS
10
0.192282
20
0.69135
11
0.152559
21
0.582213
  0
ENDSEC
  0
EOF
