  0
SECTION
  2
HEADER
  9
$ANGBASE
  50
0.0
  9
$ANGDIR
  70
1
  9
$MEASUREMENT
  70
0
  0
ENDSEC
  0
SECTION
  2
TABLES
  0
TABLE
  2
LTYPE
  70
4
  0
LTYPE
  5
40F
  2
CONTINUOUS
  70
0
  3
Solid line
  72
65
  73
0
  40
0.0
  0
LTYPE
  5
410
  2
DASHDOT
 70
0
  3
Dash Dot ____ _ ____ _
 72
65
 73
4
 40
2.0
 49
1.25
 49
-0.25
 49
0.25
 49
-0.25
  0
LTYPE
  5
411
  2
DASHED
 70
0
  3
Dashed __ __ __ __ __
 72
65
 73
2
 40
0.75
 49
0.5
 49
-0.25
  0
LTYPE
  5
43B
  2
DOTTED
 70
0
  3
Dotted .  .  .  .
 72
65
 73
2
 40
0.2
 49
0.0
 49
-0.2
  0
ENDTAB
  0
TABLE
  2
STYLE
  70
4
  0
STYLE
  2
KICAD
  70
0
  40
0
  41
1
  42
1
  50
0
  71
0
  3
isocp.shx
  0
STYLE
  2
KICADB
  70
0
  40
0
  41
1
  42
1
  50
0
  71
0
  3
isocp.shx
  0
STYLE
  2
KICADI
  70
0
  40
0
  41
1
  42
1
  50
15
  71
0
  3
isocp.shx
  0
STYLE
  2
KICADBI
  70
0
  40
0
  41
1
  42
1
  50
15
  71
0
  3
isocp.shx
  0
ENDTAB
  0
TABLE
  2
LAYER
  70
1
  0
LAYER
  2
BLACK
  70
0
  62
7
  6
CONTINUOUS
  0
ENDTAB
  0
ENDSEC
  0
SECTION
  2
ENTITIES
0
LINE
8
BLACK
6
CONTINUOUS
10
-0.260229
20
-0.499469
11
-0.260094
21
-0.499551
0
LINE
8
BLACK
6
CONTINUOUS
10
-0.260094
20
-0.499551
11
-0.259936
21
-0.499564
0
LINE
8
BLACK
6
CONTINUOUS
10
-0.259936
20
-0.499564
11
-0.246217
21
-0.506552
0
LINE
8
BLACK
6
CONTINUOUS
10
-0.246217
20
-0.506552
11
-0.246115
21
-0.506672
0
LINE
8
BLACK
6
CONTINUOUS
10
-0.246115
20
-0.506672
11
-0.245968
21
-0.506733
0
LINE
8
BLACK
6
CONTINUOUS
10
-0.245968
20
-0.506733
11
-0.235081
21
-0.517623
0
LINE
8
BLACK
6
CONTINUOUS
10
-0.235081
20
-0.517623
11
-0.23502
21
-0.517769
0
LINE
8
BLACK
6
CONTINUOUS
10
-0.23502
20
-0.517769
11
-0.2349
21
-0.517872
0
LINE
8
BLACK
6
CONTINUOUS
10
-0.2349
20
-0.517872
11
-0.22791
21
-0.531588
0
LINE
8
BLACK
6
CONTINUOUS
10
-0.22791
20
-0.531588
11
-0.227897
21
-0.531746
0
LINE
8
BLACK
6
CONTINUOUS
10
-0.227897
20
-0.531746
11
-0.227815
21
-0.531881
0
LINE
8
BLACK
6
CONTINUOUS
10
-0.227815
20
-0.531881
11
-0.225406
21
-0.54709
0
LINE
8
BLACK
6
CONTINUOUS
10
-0.225406
20
-0.54709
11
-0.225443
21
-0.547244
0
LINE
8
BLACK
6
CONTINUOUS
10
-0.225443
20
-0.547244
11
-0.225406
21
-0.547398
0
LINE
8
BLACK
6
CONTINUOUS
10
-0.225406
20
-0.547398
11
-0.227815
21
-0.562607
0
LINE
8
BLACK
6
CONTINUOUS
10
-0.227815
20
-0.562607
11
-0.227897
21
-0.562742
0
LINE
8
BLACK
6
CONTINUOUS
10
-0.227897
20
-0.562742
11
-0.22791
21
-0.5629
0
LINE
8
BLACK
6
CONTINUOUS
10
-0.22791
20
-0.5629
11
-0.2349
21
-0.576616
0
LINE
8
BLACK
6
CONTINUOUS
10
-0.2349
20
-0.576616
11
-0.23502
21
-0.576719
0
LINE
8
BLACK
6
CONTINUOUS
10
-0.23502
20
-0.576719
11
-0.235081
21
-0.576865
0
LINE
8
BLACK
6
CONTINUOUS
10
-0.235081
20
-0.576865
11
-0.245968
21
-0.587755
0
LINE
8
BLACK
6
CONTINUOUS
10
-0.245968
20
-0.587755
11
-0.246115
21
-0.587816
0
LINE
8
BLACK
6
CONTINUOUS
10
-0.246115
20
-0.587816
11
-0.246217
21
-0.587936
0
LINE
8
BLACK
6
CONTINUOUS
10
-0.246217
20
-0.587936
11
-0.259936
21
-0.594924
0
LINE
8
BLACK
6
CONTINUOUS
10
-0.259936
20
-0.594924
11
-0.260094
21
-0.594937
0
LINE
8
BLACK
6
CONTINUOUS
10
-0.260094
20
-0.594937
11
-0.260229
21
-0.595019
0
LINE
8
BLACK
6
CONTINUOUS
10
-0.260229
20
-0.595019
11
-0.275437
21
-0.597429
0
LINE
8
BLACK
6
CONTINUOUS
10
-0.275437
20
-0.597429
11
-0.275591
21
-0.597392
0
LINE
8
BLACK
6
CONTINUOUS
10
-0.275591
20
-0.597392
11
-0.275745
21
-0.597429
0
LINE
8
BLACK
6
CONTINUOUS
10
-0.275745
20
-0.597429
11
-0.290952
21
-0.595019
0
LINE
8
BLACK
6
CONTINUOUS
10
-0.290952
20
-0.595019
11
-0.291087
21
-0.594937
0
LINE
8
BLACK
6
CONTINUOUS
10
-0.291087
20
-0.594937
11
-0.291245
21
-0.594924
0
LINE
8
BLACK
6
CONTINUOUS
10
-0.291245
20
-0.594924
11
-0.304964
21
-0.587936
0
LINE
8
BLACK
6
CONTINUOUS
10
-0.304964
20
-0.587936
11
-0.305067
21
-0.587816
0
LINE
8
BLACK
6
CONTINUOUS
10
-0.305067
20
-0.587816
11
-0.305213
21
-0.587755
0
LINE
8
BLACK
6
CONTINUOUS
10
-0.305213
20
-0.587755
11
-0.3161
21
-0.576865
0
LINE
8
BLACK
6
CONTINUOUS
10
-0.3161
20
-0.576865
11
-0.316161
21
-0.576719
0
LINE
8
BLACK
6
CONTINUOUS
10
-0.316161
20
-0.576719
11
-0.316281
21
-0.576616
0
LINE
8
BLACK
6
CONTINUOUS
10
-0.316281
20
-0.576616
11
-0.323271
21
-0.5629
0
LINE
8
BLACK
6
CONTINUOUS
10
-0.323271
20
-0.5629
11
-0.323284
21
-0.562742
0
LINE
8
BLACK
6
CONTINUOUS
10
-0.323284
20
-0.562742
11
-0.323367
21
-0.562607
0
LINE
8
BLACK
6
CONTINUOUS
10
-0.323367
20
-0.562607
11
-0.325775
21
-0.547398
0
LINE
8
BLACK
6
CONTINUOUS
10
-0.325775
20
-0.547398
11
-0.325738
21
-0.547244
0
LINE
8
BLACK
6
CONTINUOUS
10
-0.325738
20
-0.547244
11
-0.325775
21
-0.54709
0
LINE
8
BLACK
6
CONTINUOUS
10
-0.325775
20
-0.54709
11
-0.323367
21
-0.531882
0
LINE
8
BLACK
6
CONTINUOUS
10
-0.323367
20
-0.531882
11
-0.323284
21
-0.531746
0
LINE
8
BLACK
6
CONTINUOUS
10
-0.323284
20
-0.531746
11
-0.323271
21
-0.531589
0
LINE
8
BLACK
6
CONTINUOUS
10
-0.323271
20
-0.531589
11
-0.316281
21
-0.517872
0
LINE
8
BLACK
6
CONTINUOUS
10
-0.316281
20
-0.517872
11
-0.316161
21
-0.517769
0
LINE
8
BLACK
6
CONTINUOUS
10
-0.316161
20
-0.517769
11
-0.3161
21
-0.517623
0
LINE
8
BLACK
6
CONTINUOUS
10
-0.3161
20
-0.517623
11
-0.305213
21
-0.506733
0
LINE
8
BLACK
6
CONTINUOUS
10
-0.305213
20
-0.506733
11
-0.305067
21
-0.506673
0
LINE
8
BLACK
6
CONTINUOUS
10
-0.305067
20
-0.506673
11
-0.304964
21
-0.506552
0
LINE
8
BLACK
6
CONTINUOUS
10
-0.304964
20
-0.506552
11
-0.291245
21
-0.499564
0
LINE
8
BLACK
6
CONTINUOUS
10
-0.291245
20
-0.499564
11
-0.291087
21
-0.499551
0
LINE
8
BLACK
6
CONTINUOUS
10
-0.291087
20
-0.499551
11
-0.290952
21
-0.499469
0
LINE
8
BLACK
6
CONTINUOUS
10
-0.290952
20
-0.499469
11
-0.275745
21
-0.497059
0
LINE
8
BLACK
6
CONTINUOUS
10
-0.275745
20
-0.497059
11
-0.275591
21
-0.497096
0
LINE
8
BLACK
6
CONTINUOUS
10
-0.275591
20
-0.497096
11
-0.275437
21
-0.497059
0
LINE
8
BLACK
6
CONTINUOUS
10
-0.275437
20
-0.497059
11
-0.260229
21
-0.499469
0
LINE
8
BLACK
6
CONTINUOUS
10
-0.29049
20
-0.501389
11
-0.303931
21
-0.508235
0
LINE
8
BLACK
6
CONTINUOUS
10
-0.303931
20
-0.508235
11
-0.314598
21
-0.518905
0
LINE
8
BLACK
6
CONTINUOUS
10
-0.314598
20
-0.518905
11
-0.321447
21
-0.532343
0
LINE
8
BLACK
6
CONTINUOUS
10
-0.321447
20
-0.532343
11
-0.323807
21
-0.547244
0
LINE
8
BLACK
6
CONTINUOUS
10
-0.323807
20
-0.547244
11
-0.321447
21
-0.562145
0
LINE
8
BLACK
6
CONTINUOUS
10
-0.321447
20
-0.562145
11
-0.314598
21
-0.575584
0
LINE
8
BLACK
6
CONTINUOUS
10
-0.314598
20
-0.575584
11
-0.303931
21
-0.586253
0
LINE
8
BLACK
6
CONTINUOUS
10
-0.303931
20
-0.586253
11
-0.29049
21
-0.593099
0
LINE
8
BLACK
6
CONTINUOUS
10
-0.29049
20
-0.593099
11
-0.275591
21
-0.59546
0
LINE
8
BLACK
6
CONTINUOUS
10
-0.275591
20
-0.59546
11
-0.260691
21
-0.593099
0
LINE
8
BLACK
6
CONTINUOUS
10
-0.260691
20
-0.593099
11
-0.24725
21
-0.586253
0
LINE
8
BLACK
6
CONTINUOUS
10
-0.24725
20
-0.586253
11
-0.236583
21
-0.575584
0
LINE
8
BLACK
6
CONTINUOUS
10
-0.236583
20
-0.575584
11
-0.229734
21
-0.562145
0
LINE
8
BLACK
6
CONTINUOUS
10
-0.229734
20
-0.562145
11
-0.227374
21
-0.547244
0
LINE
8
BLACK
6
CONTINUOUS
10
-0.227374
20
-0.547244
11
-0.229734
21
-0.532343
0
LINE
8
BLACK
6
CONTINUOUS
10
-0.229734
20
-0.532343
11
-0.236583
21
-0.518905
0
LINE
8
BLACK
6
CONTINUOUS
10
-0.236583
20
-0.518905
11
-0.24725
21
-0.508235
0
LINE
8
BLACK
6
CONTINUOUS
10
-0.24725
20
-0.508235
11
-0.260691
21
-0.501389
0
LINE
8
BLACK
6
CONTINUOUS
10
-0.260691
20
-0.501389
11
-0.275591
21
-0.499028
0
LINE
8
BLACK
6
CONTINUOUS
10
-0.275591
20
-0.499028
11
-0.29049
21
-0.501389
0
LINE
8
BLACK
6
CONTINUOUS
10
0.0166124
20
0.317479
11
0.0166376
21
0.317468
0
LINE
8
BLACK
6
CONTINUOUS
10
0.0166376
20
0.317468
11
0.0166639
21
0.317476
0
LINE
8
BLACK
6
CONTINUOUS
10
0.0166639
20
0.317476
11
0.0332053
21
0.316174
0
LINE
8
BLACK
6
CONTINUOUS
10
0.0332053
20
0.316174
11
0.0332298
21
0.316162
0
LINE
8
BLACK
6
CONTINUOUS
10
0.0332298
20
0.316162
11
0.0332565
21
0.316169
0
LINE
8
BLACK
6
CONTINUOUS
10
0.0332565
20
0.316169
11
0.0497072
21
0.314003
0
LINE
8
BLACK
6
CONTINUOUS
10
0.0497072
20
0.314003
11
0.0497311
21
0.313989
0
LINE
8
BLACK
6
CONTINUOUS
10
0.0497311
20
0.313989
11
0.0497581
21
0.313995
0
LINE
8
BLACK
6
CONTINUOUS
10
0.0497581
20
0.313995
11
0.0660726
21
0.310971
0
LINE
8
BLACK
6
CONTINUOUS
10
0.0660726
20
0.310971
11
0.0660958
21
0.310956
0
LINE
8
BLACK
6
CONTINUOUS
10
0.0660958
20
0.310956
11
0.0661231
21
0.310961
0
LINE
8
BLACK
6
CONTINUOUS
10
0.0661231
20
0.310961
11
0.0822569
21
0.307087
0
LINE
8
BLACK
6
CONTINUOUS
10
0.0822569
20
0.307087
11
0.0822792
21
0.307071
0
LINE
8
BLACK
6
CONTINUOUS
10
0.0822792
20
0.307071
11
0.0823066
21
0.307074
0
LINE
8
BLACK
6
CONTINUOUS
10
0.0823066
20
0.307074
11
0.0982162
21
0.302361
0
LINE
8
BLACK
6
CONTINUOUS
10
0.0982162
20
0.302361
11
0.0982376
21
0.302344
0
LINE
8
BLACK
6
CONTINUOUS
10
0.0982376
20
0.302344
11
0.0982652
21
0.302345
0
LINE
8
BLACK
6
CONTINUOUS
10
0.0982652
20
0.302345
11
0.113906
21
0.296807
0
LINE
8
BLACK
6
CONTINUOUS
10
0.113906
20
0.296807
11
0.113926
21
0.296788
0
LINE
8
BLACK
6
CONTINUOUS
10
0.113926
20
0.296788
11
0.113954
21
0.296788
0
LINE
8
BLACK
6
CONTINUOUS
10
0.113954
20
0.296788
11
0.129283
21
0.290439
0
LINE
8
BLACK
6
CONTINUOUS
10
0.129283
20
0.290439
11
0.129303
21
0.290419
0
LINE
8
BLACK
6
CONTINUOUS
10
0.129303
20
0.290419
11
0.12933
21
0.290418
0
LINE
8
BLACK
6
CONTINUOUS
10
0.12933
20
0.290418
11
0.144306
21
0.283274
0
LINE
8
BLACK
6
CONTINUOUS
10
0.144306
20
0.283274
11
0.144325
21
0.283254
0
LINE
8
BLACK
6
CONTINUOUS
10
0.144325
20
0.283254
11
0.144352
21
0.283251
0
LINE
8
BLACK
6
CONTINUOUS
10
0.144352
20
0.283251
11
0.158934
21
0.275334
0
LINE
8
BLACK
6
CONTINUOUS
10
0.158934
20
0.275334
11
0.158952
21
0.275312
0
LINE
8
BLACK
6
CONTINUOUS
10
0.158952
20
0.275312
11
0.158979
21
0.275308
0
LINE
8
BLACK
6
CONTINUOUS
10
0.158979
20
0.275308
11
0.173126
21
0.266638
0
LINE
8
BLACK
6
CONTINUOUS
10
0.173126
20
0.266638
11
0.173142
21
0.266616
0
LINE
8
BLACK
6
CONTINUOUS
10
0.173142
20
0.266616
11
0.173169
21
0.26661
0
LINE
8
BLACK
6
CONTINUOUS
10
0.173169
20
0.26661
11
0.186844
21
0.257212
0
LINE
8
BLACK
6
CONTINUOUS
10
0.186844
20
0.257212
11
0.186859
21
0.257189
0
LINE
8
BLACK
6
CONTINUOUS
10
0.186859
20
0.257189
11
0.186885
21
0.257182
0
LINE
8
BLACK
6
CONTINUOUS
10
0.186885
20
0.257182
11
0.200049
21
0.247081
0
LINE
8
BLACK
6
CONTINUOUS
10
0.200049
20
0.247081
11
0.200063
21
0.247057
0
LINE
8
BLACK
6
CONTINUOUS
10
0.200063
20
0.247057
11
0.200089
21
0.247048
0
LINE
8
BLACK
6
CONTINUOUS
10
0.200089
20
0.247048
11
0.212706
21
0.236273
0
LINE
8
BLACK
6
CONTINUOUS
10
0.212706
20
0.236273
11
0.212719
21
0.236248
0
LINE
8
BLACK
6
CONTINUOUS
10
0.212719
20
0.236248
11
0.212744
21
0.236238
0
LINE
8
BLACK
6
CONTINUOUS
10
0.212744
20
0.236238
11
0.22478
21
0.224817
0
LINE
8
BLACK
6
CONTINUOUS
10
0.22478
20
0.224817
11
0.224791
21
0.224792
0
LINE
8
BLACK
6
CONTINUOUS
10
0.224791
20
0.224792
11
0.224817
21
0.22478
0
LINE
8
BLACK
6
CONTINUOUS
10
0.224817
20
0.22478
11
0.236238
21
0.212745
0
LINE
8
BLACK
6
CONTINUOUS
10
0.236238
20
0.212745
11
0.236248
21
0.212719
0
LINE
8
BLACK
6
CONTINUOUS
10
0.236248
20
0.212719
11
0.236273
21
0.212706
0
LINE
8
BLACK
6
CONTINUOUS
10
0.236273
20
0.212706
11
0.247048
21
0.200089
0
LINE
8
BLACK
6
CONTINUOUS
10
0.247048
20
0.200089
11
0.247057
21
0.200063
0
LINE
8
BLACK
6
CONTINUOUS
10
0.247057
20
0.200063
11
0.247081
21
0.200049
0
LINE
8
BLACK
6
CONTINUOUS
10
0.247081
20
0.200049
11
0.257182
21
0.186885
0
LINE
8
BLACK
6
CONTINUOUS
10
0.257182
20
0.186885
11
0.257189
21
0.186859
0
LINE
8
BLACK
6
CONTINUOUS
10
0.257189
20
0.186859
11
0.257212
21
0.186844
0
LINE
8
BLACK
6
CONTINUOUS
10
0.257212
20
0.186844
11
0.26661
21
0.173169
0
LINE
8
BLACK
6
CONTINUOUS
10
0.26661
20
0.173169
11
0.266616
21
0.173142
0
LINE
8
BLACK
6
CONTINUOUS
10
0.266616
20
0.173142
11
0.266638
21
0.173126
0
LINE
8
BLACK
6
CONTINUOUS
10
0.266638
20
0.173126
11
0.275308
21
0.158979
0
LINE
8
BLACK
6
CONTINUOUS
10
0.275308
20
0.158979
11
0.275312
21
0.158952
0
LINE
8
BLACK
6
CONTINUOUS
10
0.275312
20
0.158952
11
0.275333
21
0.158934
0
LINE
8
BLACK
6
CONTINUOUS
10
0.275333
20
0.158934
11
0.283251
21
0.144352
0
LINE
8
BLACK
6
CONTINUOUS
10
0.283251
20
0.144352
11
0.283254
21
0.144325
0
LINE
8
BLACK
6
CONTINUOUS
10
0.283254
20
0.144325
11
0.283274
21
0.144306
0
LINE
8
BLACK
6
CONTINUOUS
10
0.283274
20
0.144306
11
0.290418
21
0.12933
0
LINE
8
BLACK
6
CONTINUOUS
10
0.290418
20
0.12933
11
0.290419
21
0.129303
0
LINE
8
BLACK
6
CONTINUOUS
10
0.290419
20
0.129303
11
0.290439
21
0.129283
0
LINE
8
BLACK
6
CONTINUOUS
10
0.290439
20
0.129283
11
0.296788
21
0.113954
0
LINE
8
BLACK
6
CONTINUOUS
10
0.296788
20
0.113954
11
0.296788
21
0.113926
0
LINE
8
BLACK
6
CONTINUOUS
10
0.296788
20
0.113926
11
0.296806
21
0.113906
0
LINE
8
BLACK
6
CONTINUOUS
10
0.296806
20
0.113906
11
0.302345
21
0.0982652
0
LINE
8
BLACK
6
CONTINUOUS
10
0.302345
20
0.0982652
11
0.302344
21
0.0982376
0
LINE
8
BLACK
6
CONTINUOUS
10
0.302344
20
0.0982376
11
0.302361
21
0.0982162
0
LINE
8
BLACK
6
CONTINUOUS
10
0.302361
20
0.0982162
11
0.307074
21
0.0823067
0
LINE
8
BLACK
6
CONTINUOUS
10
0.307074
20
0.0823067
11
0.307071
21
0.0822793
0
LINE
8
BLACK
6
CONTINUOUS
10
0.307071
20
0.0822793
11
0.307087
21
0.0822569
0
LINE
8
BLACK
6
CONTINUOUS
10
0.307087
20
0.0822569
11
0.310961
21
0.0661231
0
LINE
8
BLACK
6
CONTINUOUS
10
0.310961
20
0.0661231
11
0.310956
21
0.0660959
0
LINE
8
BLACK
6
CONTINUOUS
10
0.310956
20
0.0660959
11
0.310971
21
0.0660727
0
LINE
8
BLACK
6
CONTINUOUS
10
0.310971
20
0.0660727
11
0.313995
21
0.0497581
0
LINE
8
BLACK
6
CONTINUOUS
10
0.313995
20
0.0497581
11
0.313989
21
0.0497312
0
LINE
8
BLACK
6
CONTINUOUS
10
0.313989
20
0.0497312
11
0.314003
21
0.0497072
0
LINE
8
BLACK
6
CONTINUOUS
10
0.314003
20
0.0497072
11
0.316169
21
0.0332566
0
LINE
8
BLACK
6
CONTINUOUS
10
0.316169
20
0.0332566
11
0.316162
21
0.03323
0
LINE
8
BLACK
6
CONTINUOUS
10
0.316162
20
0.03323
11
0.316174
21
0.0332054
0
LINE
8
BLACK
6
CONTINUOUS
10
0.316174
20
0.0332054
11
0.317476
21
0.016664
0
LINE
8
BLACK
6
CONTINUOUS
10
0.317476
20
0.016664
11
0.317468
21
0.0166377
0
LINE
8
BLACK
6
CONTINUOUS
10
0.317468
20
0.0166377
11
0.317479
21
0.0166125
0
LINE
8
BLACK
6
CONTINUOUS
10
0.317479
20
0.0166125
11
0.317913
21
2.57874e-05
0
LINE
8
BLACK
6
CONTINUOUS
10
0.317913
20
2.57874e-05
11
0.317903
21
0
0
LINE
8
BLACK
6
CONTINUOUS
10
0.317903
20
0
11
0.317913
21
-2.57874e-05
0
LINE
8
BLACK
6
CONTINUOUS
10
0.317913
20
-2.57874e-05
11
0.317479
21
-0.0166124
0
LINE
8
BLACK
6
CONTINUOUS
10
0.317479
20
-0.0166124
11
0.317468
21
-0.0166376
0
LINE
8
BLACK
6
CONTINUOUS
10
0.317468
20
-0.0166376
11
0.317476
21
-0.0166639
0
LINE
8
BLACK
6
CONTINUOUS
10
0.317476
20
-0.0166639
11
0.316174
21
-0.0332053
0
LINE
8
BLACK
6
CONTINUOUS
10
0.316174
20
-0.0332053
11
0.316162
21
-0.0332299
0
LINE
8
BLACK
6
CONTINUOUS
10
0.316162
20
-0.0332299
11
0.316169
21
-0.0332565
0
LINE
8
BLACK
6
CONTINUOUS
10
0.316169
20
-0.0332565
11
0.314003
21
-0.0497072
0
LINE
8
BLACK
6
CONTINUOUS
10
0.314003
20
-0.0497072
11
0.313989
21
-0.0497311
0
LINE
8
BLACK
6
CONTINUOUS
10
0.313989
20
-0.0497311
11
0.313995
21
-0.0497581
0
LINE
8
BLACK
6
CONTINUOUS
10
0.313995
20
-0.0497581
11
0.310971
21
-0.0660727
0
LINE
8
BLACK
6
CONTINUOUS
10
0.310971
20
-0.0660727
11
0.310956
21
-0.0660958
0
LINE
8
BLACK
6
CONTINUOUS
10
0.310956
20
-0.0660958
11
0.310961
21
-0.0661231
0
LINE
8
BLACK
6
CONTINUOUS
10
0.310961
20
-0.0661231
11
0.307087
21
-0.0822569
0
LINE
8
BLACK
6
CONTINUOUS
10
0.307087
20
-0.0822569
11
0.307071
21
-0.0822792
0
LINE
8
BLACK
6
CONTINUOUS
10
0.307071
20
-0.0822792
11
0.307074
21
-0.0823066
0
LINE
8
BLACK
6
CONTINUOUS
10
0.307074
20
-0.0823066
11
0.302361
21
-0.0982161
0
LINE
8
BLACK
6
CONTINUOUS
10
0.302361
20
-0.0982161
11
0.302344
21
-0.0982376
0
LINE
8
BLACK
6
CONTINUOUS
10
0.302344
20
-0.0982376
11
0.302345
21
-0.0982652
0
LINE
8
BLACK
6
CONTINUOUS
10
0.302345
20
-0.0982652
11
0.296806
21
-0.113906
0
LINE
8
BLACK
6
CONTINUOUS
10
0.296806
20
-0.113906
11
0.296788
21
-0.113926
0
LINE
8
BLACK
6
CONTINUOUS
10
0.296788
20
-0.113926
11
0.296788
21
-0.113954
0
LINE
8
BLACK
6
CONTINUOUS
10
0.296788
20
-0.113954
11
0.290439
21
-0.129283
0
LINE
8
BLACK
6
CONTINUOUS
10
0.290439
20
-0.129283
11
0.290419
21
-0.129303
0
LINE
8
BLACK
6
CONTINUOUS
10
0.290419
20
-0.129303
11
0.290418
21
-0.12933
0
LINE
8
BLACK
6
CONTINUOUS
10
0.290418
20
-0.12933
11
0.283274
21
-0.144306
0
LINE
8
BLACK
6
CONTINUOUS
10
0.283274
20
-0.144306
11
0.283254
21
-0.144325
0
LINE
8
BLACK
6
CONTINUOUS
10
0.283254
20
-0.144325
11
0.283251
21
-0.144352
0
LINE
8
BLACK
6
CONTINUOUS
10
0.283251
20
-0.144352
11
0.275333
21
-0.158934
0
LINE
8
BLACK
6
CONTINUOUS
10
0.275333
20
-0.158934
11
0.275312
21
-0.158952
0
LINE
8
BLACK
6
CONTINUOUS
10
0.275312
20
-0.158952
11
0.275308
21
-0.158979
0
LINE
8
BLACK
6
CONTINUOUS
10
0.275308
20
-0.158979
11
0.266638
21
-0.173126
0
LINE
8
BLACK
6
CONTINUOUS
10
0.266638
20
-0.173126
11
0.266616
21
-0.173142
0
LINE
8
BLACK
6
CONTINUOUS
10
0.266616
20
-0.173142
11
0.26661
21
-0.173169
0
LINE
8
BLACK
6
CONTINUOUS
10
0.26661
20
-0.173169
11
0.257212
21
-0.186844
0
LINE
8
BLACK
6
CONTINUOUS
10
0.257212
20
-0.186844
11
0.257189
21
-0.186859
0
LINE
8
BLACK
6
CONTINUOUS
10
0.257189
20
-0.186859
11
0.257182
21
-0.186885
0
LINE
8
BLACK
6
CONTINUOUS
10
0.257182
20
-0.186885
11
0.247081
21
-0.200049
0
LINE
8
BLACK
6
CONTINUOUS
10
0.247081
20
-0.200049
11
0.247057
21
-0.200063
0
LINE
8
BLACK
6
CONTINUOUS
10
0.247057
20
-0.200063
11
0.247048
21
-0.200089
0
LINE
8
BLACK
6
CONTINUOUS
10
0.247048
20
-0.200089
11
0.236273
21
-0.212706
0
LINE
8
BLACK
6
CONTINUOUS
10
0.236273
20
-0.212706
11
0.236248
21
-0.212719
0
LINE
8
BLACK
6
CONTINUOUS
10
0.236248
20
-0.212719
11
0.236238
21
-0.212744
0
LINE
8
BLACK
6
CONTINUOUS
10
0.236238
20
-0.212744
11
0.224817
21
-0.22478
0
LINE
8
BLACK
6
CONTINUOUS
10
0.224817
20
-0.22478
11
0.224791
21
-0.224791
0
LINE
8
BLACK
6
CONTINUOUS
10
0.224791
20
-0.224791
11
0.22478
21
-0.224817
0
LINE
8
BLACK
6
CONTINUOUS
10
0.22478
20
-0.224817
11
0.212744
21
-0.236238
0
LINE
8
BLACK
6
CONTINUOUS
10
0.212744
20
-0.236238
11
0.212719
21
-0.236248
0
LINE
8
BLACK
6
CONTINUOUS
10
0.212719
20
-0.236248
11
0.212706
21
-0.236273
0
LINE
8
BLACK
6
CONTINUOUS
10
0.212706
20
-0.236273
11
0.200089
21
-0.247048
0
LINE
8
BLACK
6
CONTINUOUS
10
0.200089
20
-0.247048
11
0.200063
21
-0.247057
0
LINE
8
BLACK
6
CONTINUOUS
10
0.200063
20
-0.247057
11
0.200049
21
-0.247081
0
LINE
8
BLACK
6
CONTINUOUS
10
0.200049
20
-0.247081
11
0.186885
21
-0.257182
0
LINE
8
BLACK
6
CONTINUOUS
10
0.186885
20
-0.257182
11
0.186859
21
-0.257189
0
LINE
8
BLACK
6
CONTINUOUS
10
0.186859
20
-0.257189
11
0.186844
21
-0.257212
0
LINE
8
BLACK
6
CONTINUOUS
10
0.186844
20
-0.257212
11
0.173169
21
-0.26661
0
LINE
8
BLACK
6
CONTINUOUS
10
0.173169
20
-0.26661
11
0.173142
21
-0.266616
0
LINE
8
BLACK
6
CONTINUOUS
10
0.173142
20
-0.266616
11
0.173126
21
-0.266638
0
LINE
8
BLACK
6
CONTINUOUS
10
0.173126
20
-0.266638
11
0.158979
21
-0.275308
0
LINE
8
BLACK
6
CONTINUOUS
10
0.158979
20
-0.275308
11
0.158952
21
-0.275312
0
LINE
8
BLACK
6
CONTINUOUS
10
0.158952
20
-0.275312
11
0.158934
21
-0.275334
0
LINE
8
BLACK
6
CONTINUOUS
10
0.158934
20
-0.275334
11
0.144352
21
-0.283251
0
LINE
8
BLACK
6
CONTINUOUS
10
0.144352
20
-0.283251
11
0.144325
21
-0.283254
0
LINE
8
BLACK
6
CONTINUOUS
10
0.144325
20
-0.283254
11
0.144306
21
-0.283274
0
LINE
8
BLACK
6
CONTINUOUS
10
0.144306
20
-0.283274
11
0.12933
21
-0.290418
0
LINE
8
BLACK
6
CONTINUOUS
10
0.12933
20
-0.290418
11
0.129303
21
-0.290419
0
LINE
8
BLACK
6
CONTINUOUS
10
0.129303
20
-0.290419
11
0.129283
21
-0.290439
0
LINE
8
BLACK
6
CONTINUOUS
10
0.129283
20
-0.290439
11
0.113954
21
-0.296788
0
LINE
8
BLACK
6
CONTINUOUS
10
0.113954
20
-0.296788
11
0.113926
21
-0.296788
0
LINE
8
BLACK
6
CONTINUOUS
10
0.113926
20
-0.296788
11
0.113906
21
-0.296806
0
LINE
8
BLACK
6
CONTINUOUS
10
0.113906
20
-0.296806
11
0.0982652
21
-0.302345
0
LINE
8
BLACK
6
CONTINUOUS
10
0.0982652
20
-0.302345
11
0.0982376
21
-0.302344
0
LINE
8
BLACK
6
CONTINUOUS
10
0.0982376
20
-0.302344
11
0.0982162
21
-0.302361
0
LINE
8
BLACK
6
CONTINUOUS
10
0.0982162
20
-0.302361
11
0.0823066
21
-0.307074
0
LINE
8
BLACK
6
CONTINUOUS
10
0.0823066
20
-0.307074
11
0.0822792
21
-0.307071
0
LINE
8
BLACK
6
CONTINUOUS
10
0.0822792
20
-0.307071
11
0.0822569
21
-0.307087
0
LINE
8
BLACK
6
CONTINUOUS
10
0.0822569
20
-0.307087
11
0.0661231
21
-0.310961
0
LINE
8
BLACK
6
CONTINUOUS
10
0.0661231
20
-0.310961
11
0.0660958
21
-0.310956
0
LINE
8
BLACK
6
CONTINUOUS
10
0.0660958
20
-0.310956
11
0.0660726
21
-0.310971
0
LINE
8
BLACK
6
CONTINUOUS
10
0.0660726
20
-0.310971
11
0.0497581
21
-0.313995
0
LINE
8
BLACK
6
CONTINUOUS
10
0.0497581
20
-0.313995
11
0.0497311
21
-0.313989
0
LINE
8
BLACK
6
CONTINUOUS
10
0.0497311
20
-0.313989
11
0.0497072
21
-0.314003
0
LINE
8
BLACK
6
CONTINUOUS
10
0.0497072
20
-0.314003
11
0.0332565
21
-0.316169
0
LINE
8
BLACK
6
CONTINUOUS
10
0.0332565
20
-0.316169
11
0.0332298
21
-0.316162
0
LINE
8
BLACK
6
CONTINUOUS
10
0.0332298
20
-0.316162
11
0.0332053
21
-0.316174
0
LINE
8
BLACK
6
CONTINUOUS
10
0.0332053
20
-0.316174
11
0.0166639
21
-0.317476
0
LINE
8
BLACK
6
CONTINUOUS
10
0.0166639
20
-0.317476
11
0.0166376
21
-0.317468
0
LINE
8
BLACK
6
CONTINUOUS
10
0.0166376
20
-0.317468
11
0.0166124
21
-0.317479
0
LINE
8
BLACK
6
CONTINUOUS
10
0.0166124
20
-0.317479
11
2.5748e-05
21
-0.317913
0
LINE
8
BLACK
6
CONTINUOUS
10
2.5748e-05
20
-0.317913
11
-3.93701e-08
21
-0.317903
0
LINE
8
BLACK
6
CONTINUOUS
10
-3.93701e-08
20
-0.317903
11
-2.57874e-05
21
-0.317913
0
LINE
8
BLACK
6
CONTINUOUS
10
-2.57874e-05
20
-0.317913
11
-0.0166125
21
-0.317479
0
LINE
8
BLACK
6
CONTINUOUS
10
-0.0166125
20
-0.317479
11
-0.0166377
21
-0.317468
0
LINE
8
BLACK
6
CONTINUOUS
10
-0.0166377
20
-0.317468
11
-0.016664
21
-0.317476
0
LINE
8
BLACK
6
CONTINUOUS
10
-0.016664
20
-0.317476
11
-0.0332054
21
-0.316174
0
LINE
8
BLACK
6
CONTINUOUS
10
-0.0332054
20
-0.316174
11
-0.03323
21
-0.316162
0
LINE
8
BLACK
6
CONTINUOUS
10
-0.03323
20
-0.316162
11
-0.0332566
21
-0.316169
0
LINE
8
BLACK
6
CONTINUOUS
10
-0.0332566
20
-0.316169
11
-0.0497072
21
-0.314003
0
LINE
8
BLACK
6
CONTINUOUS
10
-0.0497072
20
-0.314003
11
-0.0497312
21
-0.313989
0
LINE
8
BLACK
6
CONTINUOUS
10
-0.0497312
20
-0.313989
11
-0.0497581
21
-0.313995
0
LINE
8
BLACK
6
CONTINUOUS
10
-0.0497581
20
-0.313995
11
-0.0660727
21
-0.310971
0
LINE
8
BLACK
6
CONTINUOUS
10
-0.0660727
20
-0.310971
11
-0.0660959
21
-0.310956
0
LINE
8
BLACK
6
CONTINUOUS
10
-0.0660959
20
-0.310956
11
-0.0661231
21
-0.310961
0
LINE
8
BLACK
6
CONTINUOUS
10
-0.0661231
20
-0.310961
11
-0.0822569
21
-0.307087
0
LINE
8
BLACK
6
CONTINUOUS
10
-0.0822569
20
-0.307087
11
-0.0822793
21
-0.307071
0
LINE
8
BLACK
6
CONTINUOUS
10
-0.0822793
20
-0.307071
11
-0.0823067
21
-0.307074
0
LINE
8
BLACK
6
CONTINUOUS
10
-0.0823067
20
-0.307074
11
-0.0982162
21
-0.302361
0
LINE
8
BLACK
6
CONTINUOUS
10
-0.0982162
20
-0.302361
11
-0.0982376
21
-0.302344
0
LINE
8
BLACK
6
CONTINUOUS
10
-0.0982376
20
-0.302344
11
-0.0982652
21
-0.302345
0
LINE
8
BLACK
6
CONTINUOUS
10
-0.0982652
20
-0.302345
11
-0.113906
21
-0.296806
0
LINE
8
BLACK
6
CONTINUOUS
10
-0.113906
20
-0.296806
11
-0.113926
21
-0.296788
0
LINE
8
BLACK
6
CONTINUOUS
10
-0.113926
20
-0.296788
11
-0.113954
21
-0.296788
0
LINE
8
BLACK
6
CONTINUOUS
10
-0.113954
20
-0.296788
11
-0.129283
21
-0.290439
0
LINE
8
BLACK
6
CONTINUOUS
10
-0.129283
20
-0.290439
11
-0.129303
21
-0.290419
0
LINE
8
BLACK
6
CONTINUOUS
10
-0.129303
20
-0.290419
11
-0.12933
21
-0.290418
0
LINE
8
BLACK
6
CONTINUOUS
10
-0.12933
20
-0.290418
11
-0.144306
21
-0.283274
0
LINE
8
BLACK
6
CONTINUOUS
10
-0.144306
20
-0.283274
11
-0.144325
21
-0.283254
0
LINE
8
BLACK
6
CONTINUOUS
10
-0.144325
20
-0.283254
11
-0.144352
21
-0.283251
0
LINE
8
BLACK
6
CONTINUOUS
10
-0.144352
20
-0.283251
11
-0.158934
21
-0.275333
0
LINE
8
BLACK
6
CONTINUOUS
10
-0.158934
20
-0.275333
11
-0.158952
21
-0.275312
0
LINE
8
BLACK
6
CONTINUOUS
10
-0.158952
20
-0.275312
11
-0.158979
21
-0.275308
0
LINE
8
BLACK
6
CONTINUOUS
10
-0.158979
20
-0.275308
11
-0.173126
21
-0.266638
0
LINE
8
BLACK
6
CONTINUOUS
10
-0.173126
20
-0.266638
11
-0.173142
21
-0.266616
0
LINE
8
BLACK
6
CONTINUOUS
10
-0.173142
20
-0.266616
11
-0.173169
21
-0.26661
0
LINE
8
BLACK
6
CONTINUOUS
10
-0.173169
20
-0.26661
11
-0.186844
21
-0.257212
0
LINE
8
BLACK
6
CONTINUOUS
10
-0.186844
20
-0.257212
11
-0.186859
21
-0.257189
0
LINE
8
BLACK
6
CONTINUOUS
10
-0.186859
20
-0.257189
11
-0.186885
21
-0.257182
0
LINE
8
BLACK
6
CONTINUOUS
10
-0.186885
20
-0.257182
11
-0.200049
21
-0.247081
0
LINE
8
BLACK
6
CONTINUOUS
10
-0.200049
20
-0.247081
11
-0.200063
21
-0.247057
0
LINE
8
BLACK
6
CONTINUOUS
10
-0.200063
20
-0.247057
11
-0.200089
21
-0.247048
0
LINE
8
BLACK
6
CONTINUOUS
10
-0.200089
20
-0.247048
11
-0.212706
21
-0.236273
0
LINE
8
BLACK
6
CONTINUOUS
10
-0.212706
20
-0.236273
11
-0.212719
21
-0.236248
0
LINE
8
BLACK
6
CONTINUOUS
10
-0.212719
20
-0.236248
11
-0.212745
21
-0.236238
0
LINE
8
BLACK
6
CONTINUOUS
10
-0.212745
20
-0.236238
11
-0.22478
21
-0.224817
0
LINE
8
BLACK
6
CONTINUOUS
10
-0.22478
20
-0.224817
11
-0.224792
21
-0.224791
0
LINE
8
BLACK
6
CONTINUOUS
10
-0.224792
20
-0.224791
11
-0.224817
21
-0.22478
0
LINE
8
BLACK
6
CONTINUOUS
10
-0.224817
20
-0.22478
11
-0.236238
21
-0.212744
0
LINE
8
BLACK
6
CONTINUOUS
10
-0.236238
20
-0.212744
11
-0.236248
21
-0.212719
0
LINE
8
BLACK
6
CONTINUOUS
10
-0.236248
20
-0.212719
11
-0.236273
21
-0.212706
0
LINE
8
BLACK
6
CONTINUOUS
10
-0.236273
20
-0.212706
11
-0.247048
21
-0.200089
0
LINE
8
BLACK
6
CONTINUOUS
10
-0.247048
20
-0.200089
11
-0.247057
21
-0.200063
0
LINE
8
BLACK
6
CONTINUOUS
10
-0.247057
20
-0.200063
11
-0.247081
21
-0.200049
0
LINE
8
BLACK
6
CONTINUOUS
10
-0.247081
20
-0.200049
11
-0.257182
21
-0.186885
0
LINE
8
BLACK
6
CONTINUOUS
10
-0.257182
20
-0.186885
11
-0.257189
21
-0.186859
0
LINE
8
BLACK
6
CONTINUOUS
10
-0.257189
20
-0.186859
11
-0.257212
21
-0.186844
0
LINE
8
BLACK
6
CONTINUOUS
10
-0.257212
20
-0.186844
11
-0.26661
21
-0.173169
0
LINE
8
BLACK
6
CONTINUOUS
10
-0.26661
20
-0.173169
11
-0.266616
21
-0.173142
0
LINE
8
BLACK
6
CONTINUOUS
10
-0.266616
20
-0.173142
11
-0.266638
21
-0.173126
0
LINE
8
BLACK
6
CONTINUOUS
10
-0.266638
20
-0.173126
11
-0.275308
21
-0.158979
0
LINE
8
BLACK
6
CONTINUOUS
10
-0.275308
20
-0.158979
11
-0.275312
21
-0.158952
0
LINE
8
BLACK
6
CONTINUOUS
10
-0.275312
20
-0.158952
11
-0.275334
21
-0.158934
0
LINE
8
BLACK
6
CONTINUOUS
10
-0.275334
20
-0.158934
11
-0.283251
21
-0.144352
0
LINE
8
BLACK
6
CONTINUOUS
10
-0.283251
20
-0.144352
11
-0.283254
21
-0.144325
0
LINE
8
BLACK
6
CONTINUOUS
10
-0.283254
20
-0.144325
11
-0.283274
21
-0.144306
0
LINE
8
BLACK
6
CONTINUOUS
10
-0.283274
20
-0.144306
11
-0.290418
21
-0.12933
0
LINE
8
BLACK
6
CONTINUOUS
10
-0.290418
20
-0.12933
11
-0.290419
21
-0.129303
0
LINE
8
BLACK
6
CONTINUOUS
10
-0.290419
20
-0.129303
11
-0.290439
21
-0.129283
0
LINE
8
BLACK
6
CONTINUOUS
10
-0.290439
20
-0.129283
11
-0.296788
21
-0.113954
0
LINE
8
BLACK
6
CONTINUOUS
10
-0.296788
20
-0.113954
11
-0.296788
21
-0.113926
0
LINE
8
BLACK
6
CONTINUOUS
10
-0.296788
20
-0.113926
11
-0.296807
21
-0.113906
0
LINE
8
BLACK
6
CONTINUOUS
10
-0.296807
20
-0.113906
11
-0.302345
21
-0.0982652
0
LINE
8
BLACK
6
CONTINUOUS
10
-0.302345
20
-0.0982652
11
-0.302344
21
-0.0982376
0
LINE
8
BLACK
6
CONTINUOUS
10
-0.302344
20
-0.0982376
11
-0.302361
21
-0.0982162
0
LINE
8
BLACK
6
CONTINUOUS
10
-0.302361
20
-0.0982162
11
-0.307074
21
-0.0823066
0
LINE
8
BLACK
6
CONTINUOUS
10
-0.307074
20
-0.0823066
11
-0.307071
21
-0.0822792
0
LINE
8
BLACK
6
CONTINUOUS
10
-0.307071
20
-0.0822792
11
-0.307087
21
-0.0822569
0
LINE
8
BLACK
6
CONTINUOUS
10
-0.307087
20
-0.0822569
11
-0.310961
21
-0.0661231
0
LINE
8
BLACK
6
CONTINUOUS
10
-0.310961
20
-0.0661231
11
-0.310956
21
-0.0660958
0
LINE
8
BLACK
6
CONTINUOUS
10
-0.310956
20
-0.0660958
11
-0.310971
21
-0.0660726
0
LINE
8
BLACK
6
CONTINUOUS
10
-0.310971
20
-0.0660726
11
-0.313995
21
-0.0497581
0
LINE
8
BLACK
6
CONTINUOUS
10
-0.313995
20
-0.0497581
11
-0.313989
21
-0.0497311
0
LINE
8
BLACK
6
CONTINUOUS
10
-0.313989
20
-0.0497311
11
-0.314003
21
-0.0497072
0
LINE
8
BLACK
6
CONTINUOUS
10
-0.314003
20
-0.0497072
11
-0.316169
21
-0.0332565
0
LINE
8
BLACK
6
CONTINUOUS
10
-0.316169
20
-0.0332565
11
-0.316162
21
-0.0332298
0
LINE
8
BLACK
6
CONTINUOUS
10
-0.316162
20
-0.0332298
11
-0.316174
21
-0.0332053
0
LINE
8
BLACK
6
CONTINUOUS
10
-0.316174
20
-0.0332053
11
-0.316309
21
-0.0314961
0
LINE
8
BLACK
6
CONTINUOUS
10
-0.316309
20
-0.0314961
11
-0.447835
21
-0.0314961
0
LINE
8
BLACK
6
CONTINUOUS
10
-0.447835
20
-0.0314961
11
-0.447835
21
-0.0393701
0
LINE
8
BLACK
6
CONTINUOUS
10
-0.447835
20
-0.0393701
11
-0.447866
21
-0.0394451
0
LINE
8
BLACK
6
CONTINUOUS
10
-0.447866
20
-0.0394451
11
-0.447847
21
-0.0395241
0
LINE
8
BLACK
6
CONTINUOUS
10
-0.447847
20
-0.0395241
11
-0.44987
21
-0.0522985
0
LINE
8
BLACK
6
CONTINUOUS
10
-0.44987
20
-0.0522985
11
-0.449953
21
-0.0524335
0
LINE
8
BLACK
6
CONTINUOUS
10
-0.449953
20
-0.0524335
11
-0.449966
21
-0.0525912
0
LINE
8
BLACK
6
CONTINUOUS
10
-0.449966
20
-0.0525912
11
-0.455836
21
-0.0641148
0
LINE
8
BLACK
6
CONTINUOUS
10
-0.455836
20
-0.0641148
11
-0.455956
21
-0.0642176
0
LINE
8
BLACK
6
CONTINUOUS
10
-0.455956
20
-0.0642176
11
-0.456017
21
-0.064364
0
LINE
8
BLACK
6
CONTINUOUS
10
-0.456017
20
-0.064364
11
-0.465162
21
-0.0735098
0
LINE
8
BLACK
6
CONTINUOUS
10
-0.465162
20
-0.0735098
11
-0.465309
21
-0.0735704
0
LINE
8
BLACK
6
CONTINUOUS
10
-0.465309
20
-0.0735704
11
-0.465411
21
-0.0736908
0
LINE
8
BLACK
6
CONTINUOUS
10
-0.465411
20
-0.0736908
11
-0.476935
21
-0.0795624
0
LINE
8
BLACK
6
CONTINUOUS
10
-0.476935
20
-0.0795624
11
-0.477093
21
-0.0795748
0
LINE
8
BLACK
6
CONTINUOUS
10
-0.477093
20
-0.0795748
11
-0.477228
21
-0.0796576
0
LINE
8
BLACK
6
CONTINUOUS
10
-0.477228
20
-0.0796576
11
-0.490004
21
-0.0816807
0
LINE
8
BLACK
6
CONTINUOUS
10
-0.490004
20
-0.0816807
11
-0.490158
21
-0.0816438
0
LINE
8
BLACK
6
CONTINUOUS
10
-0.490158
20
-0.0816438
11
-0.490311
21
-0.0816807
0
LINE
8
BLACK
6
CONTINUOUS
10
-0.490311
20
-0.0816807
11
-0.503087
21
-0.0796576
0
LINE
8
BLACK
6
CONTINUOUS
10
-0.503087
20
-0.0796576
11
-0.503222
21
-0.0795748
0
LINE
8
BLACK
6
CONTINUOUS
10
-0.503222
20
-0.0795748
11
-0.50338
21
-0.0795624
0
LINE
8
BLACK
6
CONTINUOUS
10
-0.50338
20
-0.0795624
11
-0.514904
21
-0.0736908
0
LINE
8
BLACK
6
CONTINUOUS
10
-0.514904
20
-0.0736908
11
-0.515006
21
-0.0735704
0
LINE
8
BLACK
6
CONTINUOUS
10
-0.515006
20
-0.0735704
11
-0.515153
21
-0.0735098
0
LINE
8
BLACK
6
CONTINUOUS
10
-0.515153
20
-0.0735098
11
-0.524298
21
-0.064364
0
LINE
8
BLACK
6
CONTINUOUS
10
-0.524298
20
-0.064364
11
-0.524359
21
-0.0642176
0
LINE
8
BLACK
6
CONTINUOUS
10
-0.524359
20
-0.0642176
11
-0.524479
21
-0.0641148
0
LINE
8
BLACK
6
CONTINUOUS
10
-0.524479
20
-0.0641148
11
-0.530349
21
-0.0525913
0
LINE
8
BLACK
6
CONTINUOUS
10
-0.530349
20
-0.0525913
11
-0.530362
21
-0.0524334
0
LINE
8
BLACK
6
CONTINUOUS
10
-0.530362
20
-0.0524334
11
-0.530445
21
-0.0522985
0
LINE
8
BLACK
6
CONTINUOUS
10
-0.530445
20
-0.0522985
11
-0.532468
21
-0.0395241
0
LINE
8
BLACK
6
CONTINUOUS
10
-0.532468
20
-0.0395241
11
-0.532449
21
-0.0394451
0
LINE
8
BLACK
6
CONTINUOUS
10
-0.532449
20
-0.0394451
11
-0.53248
21
-0.0393701
0
LINE
8
BLACK
6
CONTINUOUS
10
-0.53248
20
-0.0393701
11
-0.53248
21
0.0393701
0
LINE
8
BLACK
6
CONTINUOUS
10
-0.53248
20
0.0393701
11
-0.532449
21
0.0394451
0
LINE
8
BLACK
6
CONTINUOUS
10
-0.532449
20
0.0394451
11
-0.532468
21
0.0395241
0
LINE
8
BLACK
6
CONTINUOUS
10
-0.532468
20
0.0395241
11
-0.530445
21
0.0522985
0
LINE
8
BLACK
6
CONTINUOUS
10
-0.530445
20
0.0522985
11
-0.530362
21
0.0524335
0
LINE
8
BLACK
6
CONTINUOUS
10
-0.530362
20
0.0524335
11
-0.530349
21
0.0525913
0
LINE
8
BLACK
6
CONTINUOUS
10
-0.530349
20
0.0525913
11
-0.524479
21
0.0641148
0
LINE
8
BLACK
6
CONTINUOUS
10
-0.524479
20
0.0641148
11
-0.524359
21
0.0642177
0
LINE
8
BLACK
6
CONTINUOUS
10
-0.524359
20
0.0642177
11
-0.524298
21
0.0643641
0
LINE
8
BLACK
6
CONTINUOUS
10
-0.524298
20
0.0643641
11
-0.515153
21
0.0735097
0
LINE
8
BLACK
6
CONTINUOUS
10
-0.515153
20
0.0735097
11
-0.515006
21
0.0735704
0
LINE
8
BLACK
6
CONTINUOUS
10
-0.515006
20
0.0735704
11
-0.514904
21
0.0736907
0
LINE
8
BLACK
6
CONTINUOUS
10
-0.514904
20
0.0736907
11
-0.50338
21
0.0795625
0
LINE
8
BLACK
6
CONTINUOUS
10
-0.50338
20
0.0795625
11
-0.503222
21
0.0795749
0
LINE
8
BLACK
6
CONTINUOUS
10
-0.503222
20
0.0795749
11
-0.503087
21
0.0796576
0
LINE
8
BLACK
6
CONTINUOUS
10
-0.503087
20
0.0796576
11
-0.490311
21
0.0816808
0
LINE
8
BLACK
6
CONTINUOUS
10
-0.490311
20
0.0816808
11
-0.490158
21
0.0816439
0
LINE
8
BLACK
6
CONTINUOUS
10
-0.490158
20
0.0816439
11
-0.490004
21
0.0816808
0
LINE
8
BLACK
6
CONTINUOUS
10
-0.490004
20
0.0816808
11
-0.477228
21
0.0796576
0
LINE
8
BLACK
6
CONTINUOUS
10
-0.477228
20
0.0796576
11
-0.477093
21
0.0795749
0
LINE
8
BLACK
6
CONTINUOUS
10
-0.477093
20
0.0795749
11
-0.476935
21
0.0795625
0
LINE
8
BLACK
6
CONTINUOUS
10
-0.476935
20
0.0795625
11
-0.465411
21
0.0736907
0
LINE
8
BLACK
6
CONTINUOUS
10
-0.465411
20
0.0736907
11
-0.465309
21
0.0735704
0
LINE
8
BLACK
6
CONTINUOUS
10
-0.465309
20
0.0735704
11
-0.465162
21
0.0735097
0
LINE
8
BLACK
6
CONTINUOUS
10
-0.465162
20
0.0735097
11
-0.456017
21
0.0643641
0
LINE
8
BLACK
6
CONTINUOUS
10
-0.456017
20
0.0643641
11
-0.455956
21
0.0642177
0
LINE
8
BLACK
6
CONTINUOUS
10
-0.455956
20
0.0642177
11
-0.455836
21
0.0641148
0
LINE
8
BLACK
6
CONTINUOUS
10
-0.455836
20
0.0641148
11
-0.449966
21
0.0525913
0
LINE
8
BLACK
6
CONTINUOUS
10
-0.449966
20
0.0525913
11
-0.449953
21
0.0524335
0
LINE
8
BLACK
6
CONTINUOUS
10
-0.449953
20
0.0524335
11
-0.44987
21
0.0522985
0
LINE
8
BLACK
6
CONTINUOUS
10
-0.44987
20
0.0522985
11
-0.447847
21
0.0395241
0
LINE
8
BLACK
6
CONTINUOUS
10
-0.447847
20
0.0395241
11
-0.447866
21
0.0394452
0
LINE
8
BLACK
6
CONTINUOUS
10
-0.447866
20
0.0394452
11
-0.447835
21
0.0393701
0
LINE
8
BLACK
6
CONTINUOUS
10
-0.447835
20
0.0393701
11
-0.447835
21
0.0314961
0
LINE
8
BLACK
6
CONTINUOUS
10
-0.447835
20
0.0314961
11
-0.316309
21
0.0314961
0
LINE
8
BLACK
6
CONTINUOUS
10
-0.316309
20
0.0314961
11
-0.316174
21
0.0332053
0
LINE
8
BLACK
6
CONTINUOUS
10
-0.316174
20
0.0332053
11
-0.316162
21
0.0332299
0
LINE
8
BLACK
6
CONTINUOUS
10
-0.316162
20
0.0332299
11
-0.316169
21
0.0332566
0
LINE
8
BLACK
6
CONTINUOUS
10
-0.316169
20
0.0332566
11
-0.314003
21
0.0497072
0
LINE
8
BLACK
6
CONTINUOUS
10
-0.314003
20
0.0497072
11
-0.313989
21
0.0497312
0
LINE
8
BLACK
6
CONTINUOUS
10
-0.313989
20
0.0497312
11
-0.313995
21
0.0497581
0
LINE
8
BLACK
6
CONTINUOUS
10
-0.313995
20
0.0497581
11
-0.310971
21
0.0660727
0
LINE
8
BLACK
6
CONTINUOUS
10
-0.310971
20
0.0660727
11
-0.310956
21
0.0660959
0
LINE
8
BLACK
6
CONTINUOUS
10
-0.310956
20
0.0660959
11
-0.310961
21
0.0661231
0
LINE
8
BLACK
6
CONTINUOUS
10
-0.310961
20
0.0661231
11
-0.307087
21
0.0822569
0
LINE
8
BLACK
6
CONTINUOUS
10
-0.307087
20
0.0822569
11
-0.307071
21
0.0822793
0
LINE
8
BLACK
6
CONTINUOUS
10
-0.307071
20
0.0822793
11
-0.307074
21
0.0823067
0
LINE
8
BLACK
6
CONTINUOUS
10
-0.307074
20
0.0823067
11
-0.302361
21
0.0982162
0
LINE
8
BLACK
6
CONTINUOUS
10
-0.302361
20
0.0982162
11
-0.302344
21
0.0982377
0
LINE
8
BLACK
6
CONTINUOUS
10
-0.302344
20
0.0982377
11
-0.302345
21
0.0982652
0
LINE
8
BLACK
6
CONTINUOUS
10
-0.302345
20
0.0982652
11
-0.296807
21
0.113906
0
LINE
8
BLACK
6
CONTINUOUS
10
-0.296807
20
0.113906
11
-0.296788
21
0.113926
0
LINE
8
BLACK
6
CONTINUOUS
10
-0.296788
20
0.113926
11
-0.296788
21
0.113954
0
LINE
8
BLACK
6
CONTINUOUS
10
-0.296788
20
0.113954
11
-0.290439
21
0.129283
0
LINE
8
BLACK
6
CONTINUOUS
10
-0.290439
20
0.129283
11
-0.290419
21
0.129303
0
LINE
8
BLACK
6
CONTINUOUS
10
-0.290419
20
0.129303
11
-0.290418
21
0.12933
0
LINE
8
BLACK
6
CONTINUOUS
10
-0.290418
20
0.12933
11
-0.283274
21
0.144306
0
LINE
8
BLACK
6
CONTINUOUS
10
-0.283274
20
0.144306
11
-0.283254
21
0.144325
0
LINE
8
BLACK
6
CONTINUOUS
10
-0.283254
20
0.144325
11
-0.283251
21
0.144352
0
LINE
8
BLACK
6
CONTINUOUS
10
-0.283251
20
0.144352
11
-0.275334
21
0.158934
0
LINE
8
BLACK
6
CONTINUOUS
10
-0.275334
20
0.158934
11
-0.275312
21
0.158952
0
LINE
8
BLACK
6
CONTINUOUS
10
-0.275312
20
0.158952
11
-0.275308
21
0.158979
0
LINE
8
BLACK
6
CONTINUOUS
10
-0.275308
20
0.158979
11
-0.266638
21
0.173126
0
LINE
8
BLACK
6
CONTINUOUS
10
-0.266638
20
0.173126
11
-0.266616
21
0.173142
0
LINE
8
BLACK
6
CONTINUOUS
10
-0.266616
20
0.173142
11
-0.26661
21
0.173169
0
LINE
8
BLACK
6
CONTINUOUS
10
-0.26661
20
0.173169
11
-0.257212
21
0.186844
0
LINE
8
BLACK
6
CONTINUOUS
10
-0.257212
20
0.186844
11
-0.257189
21
0.186859
0
LINE
8
BLACK
6
CONTINUOUS
10
-0.257189
20
0.186859
11
-0.257182
21
0.186885
0
LINE
8
BLACK
6
CONTINUOUS
10
-0.257182
20
0.186885
11
-0.247081
21
0.200049
0
LINE
8
BLACK
6
CONTINUOUS
10
-0.247081
20
0.200049
11
-0.247057
21
0.200063
0
LINE
8
BLACK
6
CONTINUOUS
10
-0.247057
20
0.200063
11
-0.247048
21
0.200089
0
LINE
8
BLACK
6
CONTINUOUS
10
-0.247048
20
0.200089
11
-0.236273
21
0.212706
0
LINE
8
BLACK
6
CONTINUOUS
10
-0.236273
20
0.212706
11
-0.236248
21
0.212719
0
LINE
8
BLACK
6
CONTINUOUS
10
-0.236248
20
0.212719
11
-0.236238
21
0.212745
0
LINE
8
BLACK
6
CONTINUOUS
10
-0.236238
20
0.212745
11
-0.224817
21
0.22478
0
LINE
8
BLACK
6
CONTINUOUS
10
-0.224817
20
0.22478
11
-0.224792
21
0.224792
0
LINE
8
BLACK
6
CONTINUOUS
10
-0.224792
20
0.224792
11
-0.22478
21
0.224817
0
LINE
8
BLACK
6
CONTINUOUS
10
-0.22478
20
0.224817
11
-0.212745
21
0.236238
0
LINE
8
BLACK
6
CONTINUOUS
10
-0.212745
20
0.236238
11
-0.212719
21
0.236248
0
LINE
8
BLACK
6
CONTINUOUS
10
-0.212719
20
0.236248
11
-0.212706
21
0.236273
0
LINE
8
BLACK
6
CONTINUOUS
10
-0.212706
20
0.236273
11
-0.200089
21
0.247048
0
LINE
8
BLACK
6
CONTINUOUS
10
-0.200089
20
0.247048
11
-0.200063
21
0.247057
0
LINE
8
BLACK
6
CONTINUOUS
10
-0.200063
20
0.247057
11
-0.200049
21
0.247081
0
LINE
8
BLACK
6
CONTINUOUS
10
-0.200049
20
0.247081
11
-0.186885
21
0.257182
0
LINE
8
BLACK
6
CONTINUOUS
10
-0.186885
20
0.257182
11
-0.186859
21
0.257189
0
LINE
8
BLACK
6
CONTINUOUS
10
-0.186859
20
0.257189
11
-0.186844
21
0.257212
0
LINE
8
BLACK
6
CONTINUOUS
10
-0.186844
20
0.257212
11
-0.173169
21
0.26661
0
LINE
8
BLACK
6
CONTINUOUS
10
-0.173169
20
0.26661
11
-0.173142
21
0.266616
0
LINE
8
BLACK
6
CONTINUOUS
10
-0.173142
20
0.266616
11
-0.173126
21
0.266638
0
LINE
8
BLACK
6
CONTINUOUS
10
-0.173126
20
0.266638
11
-0.158979
21
0.275308
0
LINE
8
BLACK
6
CONTINUOUS
10
-0.158979
20
0.275308
11
-0.158952
21
0.275312
0
LINE
8
BLACK
6
CONTINUOUS
10
-0.158952
20
0.275312
11
-0.158934
21
0.275334
0
LINE
8
BLACK
6
CONTINUOUS
10
-0.158934
20
0.275334
11
-0.144352
21
0.283251
0
LINE
8
BLACK
6
CONTINUOUS
10
-0.144352
20
0.283251
11
-0.144325
21
0.283254
0
LINE
8
BLACK
6
CONTINUOUS
10
-0.144325
20
0.283254
11
-0.144306
21
0.283274
0
LINE
8
BLACK
6
CONTINUOUS
10
-0.144306
20
0.283274
11
-0.12933
21
0.290418
0
LINE
8
BLACK
6
CONTINUOUS
10
-0.12933
20
0.290418
11
-0.129303
21
0.290419
0
LINE
8
BLACK
6
CONTINUOUS
10
-0.129303
20
0.290419
11
-0.129283
21
0.290439
0
LINE
8
BLACK
6
CONTINUOUS
10
-0.129283
20
0.290439
11
-0.113954
21
0.296788
0
LINE
8
BLACK
6
CONTINUOUS
10
-0.113954
20
0.296788
11
-0.113926
21
0.296788
0
LINE
8
BLACK
6
CONTINUOUS
10
-0.113926
20
0.296788
11
-0.113906
21
0.296807
0
LINE
8
BLACK
6
CONTINUOUS
10
-0.113906
20
0.296807
11
-0.0982652
21
0.302345
0
LINE
8
BLACK
6
CONTINUOUS
10
-0.0982652
20
0.302345
11
-0.0982376
21
0.302344
0
LINE
8
BLACK
6
CONTINUOUS
10
-0.0982376
20
0.302344
11
-0.0982162
21
0.302361
0
LINE
8
BLACK
6
CONTINUOUS
10
-0.0982162
20
0.302361
11
-0.0823067
21
0.307074
0
LINE
8
BLACK
6
CONTINUOUS
10
-0.0823067
20
0.307074
11
-0.0822793
21
0.307071
0
LINE
8
BLACK
6
CONTINUOUS
10
-0.0822793
20
0.307071
11
-0.0822569
21
0.307087
0
LINE
8
BLACK
6
CONTINUOUS
10
-0.0822569
20
0.307087
11
-0.0661231
21
0.310961
0
LINE
8
BLACK
6
CONTINUOUS
10
-0.0661231
20
0.310961
11
-0.0660959
21
0.310956
0
LINE
8
BLACK
6
CONTINUOUS
10
-0.0660959
20
0.310956
11
-0.0660727
21
0.310971
0
LINE
8
BLACK
6
CONTINUOUS
10
-0.0660727
20
0.310971
11
-0.0497581
21
0.313995
0
LINE
8
BLACK
6
CONTINUOUS
10
-0.0497581
20
0.313995
11
-0.0497312
21
0.313989
0
LINE
8
BLACK
6
CONTINUOUS
10
-0.0497312
20
0.313989
11
-0.0497072
21
0.314003
0
LINE
8
BLACK
6
CONTINUOUS
10
-0.0497072
20
0.314003
11
-0.0332566
21
0.316169
0
LINE
8
BLACK
6
CONTINUOUS
10
-0.0332566
20
0.316169
11
-0.03323
21
0.316162
0
LINE
8
BLACK
6
CONTINUOUS
10
-0.03323
20
0.316162
11
-0.0332054
21
0.316174
0
LINE
8
BLACK
6
CONTINUOUS
10
-0.0332054
20
0.316174
11
-0.016664
21
0.317476
0
LINE
8
BLACK
6
CONTINUOUS
10
-0.016664
20
0.317476
11
-0.0166377
21
0.317468
0
LINE
8
BLACK
6
CONTINUOUS
10
-0.0166377
20
0.317468
11
-0.0166125
21
0.317479
0
LINE
8
BLACK
6
CONTINUOUS
10
-0.0166125
20
0.317479
11
-2.57874e-05
21
0.317913
0
LINE
8
BLACK
6
CONTINUOUS
10
-2.57874e-05
20
0.317913
11
-3.93701e-08
21
0.317903
0
LINE
8
BLACK
6
CONTINUOUS
10
-3.93701e-08
20
0.317903
11
2.5748e-05
21
0.317913
0
LINE
8
BLACK
6
CONTINUOUS
10
2.5748e-05
20
0.317913
11
0.0166124
21
0.317479
0
LINE
8
BLACK
6
CONTINUOUS
10
-0.0165349
20
0.315512
11
-0.0330254
21
0.314214
0
LINE
8
BLACK
6
CONTINUOUS
10
-0.0330254
20
0.314214
11
-0.0494251
21
0.312055
0
LINE
8
BLACK
6
CONTINUOUS
10
-0.0494251
20
0.312055
11
-0.0656884
21
0.309041
0
LINE
8
BLACK
6
CONTINUOUS
10
-0.0656884
20
0.309041
11
-0.0817725
21
0.305179
0
LINE
8
BLACK
6
CONTINUOUS
10
-0.0817725
20
0.305179
11
-0.0976321
21
0.300481
0
LINE
8
BLACK
6
CONTINUOUS
10
-0.0976321
20
0.300481
11
-0.113224
21
0.29496
0
LINE
8
BLACK
6
CONTINUOUS
10
-0.113224
20
0.29496
11
-0.128507
21
0.28863
0
LINE
8
BLACK
6
CONTINUOUS
10
-0.128507
20
0.28863
11
-0.143435
21
0.281509
0
LINE
8
BLACK
6
CONTINUOUS
10
-0.143435
20
0.281509
11
-0.157972
21
0.273616
0
LINE
8
BLACK
6
CONTINUOUS
10
-0.157972
20
0.273616
11
-0.172076
21
0.264974
0
LINE
8
BLACK
6
CONTINUOUS
10
-0.172076
20
0.264974
11
-0.185707
21
0.255605
0
LINE
8
BLACK
6
CONTINUOUS
10
-0.185707
20
0.255605
11
-0.19883
21
0.245535
0
LINE
8
BLACK
6
CONTINUOUS
10
-0.19883
20
0.245535
11
-0.211408
21
0.234793
0
LINE
8
BLACK
6
CONTINUOUS
10
-0.211408
20
0.234793
11
-0.223406
21
0.223407
0
LINE
8
BLACK
6
CONTINUOUS
10
-0.223406
20
0.223407
11
-0.234793
21
0.211408
0
LINE
8
BLACK
6
CONTINUOUS
10
-0.234793
20
0.211408
11
-0.245535
21
0.19883
0
LINE
8
BLACK
6
CONTINUOUS
10
-0.245535
20
0.19883
11
-0.255605
21
0.185707
0
LINE
8
BLACK
6
CONTINUOUS
10
-0.255605
20
0.185707
11
-0.264973
21
0.172076
0
LINE
8
BLACK
6
CONTINUOUS
10
-0.264973
20
0.172076
11
-0.273616
21
0.157972
0
LINE
8
BLACK
6
CONTINUOUS
10
-0.273616
20
0.157972
11
-0.281508
21
0.143436
0
LINE
8
BLACK
6
CONTINUOUS
10
-0.281508
20
0.143436
11
-0.28863
21
0.128507
0
LINE
8
BLACK
6
CONTINUOUS
10
-0.28863
20
0.128507
11
-0.29496
21
0.113224
0
LINE
8
BLACK
6
CONTINUOUS
10
-0.29496
20
0.113224
11
-0.300481
21
0.0976328
0
LINE
8
BLACK
6
CONTINUOUS
10
-0.300481
20
0.0976328
11
-0.305179
21
0.0817725
0
LINE
8
BLACK
6
CONTINUOUS
10
-0.305179
20
0.0817725
11
-0.309041
21
0.0656884
0
LINE
8
BLACK
6
CONTINUOUS
10
-0.309041
20
0.0656884
11
-0.312055
21
0.0494249
0
LINE
8
BLACK
6
CONTINUOUS
10
-0.312055
20
0.0494249
11
-0.314214
21
0.0330254
0
LINE
8
BLACK
6
CONTINUOUS
10
-0.314214
20
0.0330254
11
-0.314418
21
0.0304346
0
LINE
8
BLACK
6
CONTINUOUS
10
-0.314418
20
0.0304346
11
-0.314572
21
0.0301309
0
LINE
8
BLACK
6
CONTINUOUS
10
-0.314572
20
0.0301309
11
-0.314703
21
0.0298159
0
LINE
8
BLACK
6
CONTINUOUS
10
-0.314703
20
0.0298159
11
-0.314741
21
0.0298002
0
LINE
8
BLACK
6
CONTINUOUS
10
-0.314741
20
0.0298002
11
-0.31476
21
0.0297634
0
LINE
8
BLACK
6
CONTINUOUS
10
-0.31476
20
0.0297634
11
-0.315084
21
0.0296581
0
LINE
8
BLACK
6
CONTINUOUS
10
-0.315084
20
0.0296581
11
-0.315399
21
0.0295276
0
LINE
8
BLACK
6
CONTINUOUS
10
-0.315399
20
0.0295276
11
-0.448819
21
0.0295276
0
LINE
8
BLACK
6
CONTINUOUS
10
-0.448819
20
0.0295276
11
-0.449515
21
0.0298159
0
LINE
8
BLACK
6
CONTINUOUS
10
-0.449515
20
0.0298159
11
-0.449803
21
0.0305119
0
LINE
8
BLACK
6
CONTINUOUS
10
-0.449803
20
0.0305119
11
-0.449803
21
0.0305119
0
LINE
8
BLACK
6
CONTINUOUS
10
-0.449803
20
0.0305119
11
-0.449803
21
0.0392927
0
LINE
8
BLACK
6
CONTINUOUS
10
-0.449803
20
0.0392927
11
-0.45179
21
0.0518367
0
LINE
8
BLACK
6
CONTINUOUS
10
-0.45179
20
0.0518367
11
-0.457519
21
0.0630823
0
LINE
8
BLACK
6
CONTINUOUS
10
-0.457519
20
0.0630823
11
-0.466444
21
0.0720076
0
LINE
8
BLACK
6
CONTINUOUS
10
-0.466444
20
0.0720076
11
-0.47769
21
0.0777378
0
LINE
8
BLACK
6
CONTINUOUS
10
-0.47769
20
0.0777378
11
-0.490158
21
0.0797122
0
LINE
8
BLACK
6
CONTINUOUS
10
-0.490158
20
0.0797122
11
-0.502625
21
0.0777378
0
LINE
8
BLACK
6
CONTINUOUS
10
-0.502625
20
0.0777378
11
-0.513871
21
0.0720076
0
LINE
8
BLACK
6
CONTINUOUS
10
-0.513871
20
0.0720076
11
-0.522796
21
0.0630823
0
LINE
8
BLACK
6
CONTINUOUS
10
-0.522796
20
0.0630823
11
-0.528525
21
0.0518366
0
LINE
8
BLACK
6
CONTINUOUS
10
-0.528525
20
0.0518366
11
-0.530512
21
0.0392927
0
LINE
8
BLACK
6
CONTINUOUS
10
-0.530512
20
0.0392927
11
-0.530512
21
-0.0392926
0
LINE
8
BLACK
6
CONTINUOUS
10
-0.530512
20
-0.0392926
11
-0.528525
21
-0.0518365
0
LINE
8
BLACK
6
CONTINUOUS
10
-0.528525
20
-0.0518365
11
-0.522796
21
-0.0630822
0
LINE
8
BLACK
6
CONTINUOUS
10
-0.522796
20
-0.0630822
11
-0.513871
21
-0.0720076
0
LINE
8
BLACK
6
CONTINUOUS
10
-0.513871
20
-0.0720076
11
-0.502625
21
-0.0777377
0
LINE
8
BLACK
6
CONTINUOUS
10
-0.502625
20
-0.0777377
11
-0.490158
21
-0.0797121
0
LINE
8
BLACK
6
CONTINUOUS
10
-0.490158
20
-0.0797121
11
-0.47769
21
-0.0777377
0
LINE
8
BLACK
6
CONTINUOUS
10
-0.47769
20
-0.0777377
11
-0.466444
21
-0.0720076
0
LINE
8
BLACK
6
CONTINUOUS
10
-0.466444
20
-0.0720076
11
-0.457519
21
-0.0630822
0
LINE
8
BLACK
6
CONTINUOUS
10
-0.457519
20
-0.0630822
11
-0.45179
21
-0.0518366
0
LINE
8
BLACK
6
CONTINUOUS
10
-0.45179
20
-0.0518366
11
-0.449803
21
-0.0392926
0
LINE
8
BLACK
6
CONTINUOUS
10
-0.449803
20
-0.0392926
11
-0.449803
21
-0.0305119
0
LINE
8
BLACK
6
CONTINUOUS
10
-0.449803
20
-0.0305119
11
-0.449515
21
-0.0298159
0
LINE
8
BLACK
6
CONTINUOUS
10
-0.449515
20
-0.0298159
11
-0.448819
21
-0.0295276
0
LINE
8
BLACK
6
CONTINUOUS
10
-0.448819
20
-0.0295276
11
-0.315399
21
-0.0295276
0
LINE
8
BLACK
6
CONTINUOUS
10
-0.315399
20
-0.0295276
11
-0.315084
21
-0.029658
0
LINE
8
BLACK
6
CONTINUOUS
10
-0.315084
20
-0.029658
11
-0.31476
21
-0.0297634
0
LINE
8
BLACK
6
CONTINUOUS
10
-0.31476
20
-0.0297634
11
-0.314741
21
-0.0298001
0
LINE
8
BLACK
6
CONTINUOUS
10
-0.314741
20
-0.0298001
11
-0.314703
21
-0.0298159
0
LINE
8
BLACK
6
CONTINUOUS
10
-0.314703
20
-0.0298159
11
-0.314572
21
-0.0301308
0
LINE
8
BLACK
6
CONTINUOUS
10
-0.314572
20
-0.0301308
11
-0.314418
21
-0.0304346
0
LINE
8
BLACK
6
CONTINUOUS
10
-0.314418
20
-0.0304346
11
-0.314214
21
-0.0330253
0
LINE
8
BLACK
6
CONTINUOUS
10
-0.314214
20
-0.0330253
11
-0.312055
21
-0.0494248
0
LINE
8
BLACK
6
CONTINUOUS
10
-0.312055
20
-0.0494248
11
-0.309041
21
-0.0656883
0
LINE
8
BLACK
6
CONTINUOUS
10
-0.309041
20
-0.0656883
11
-0.305179
21
-0.0817724
0
LINE
8
BLACK
6
CONTINUOUS
10
-0.305179
20
-0.0817724
11
-0.300481
21
-0.0976327
0
LINE
8
BLACK
6
CONTINUOUS
10
-0.300481
20
-0.0976327
11
-0.29496
21
-0.113224
0
LINE
8
BLACK
6
CONTINUOUS
10
-0.29496
20
-0.113224
11
-0.28863
21
-0.128507
0
LINE
8
BLACK
6
CONTINUOUS
10
-0.28863
20
-0.128507
11
-0.281508
21
-0.143436
0
LINE
8
BLACK
6
CONTINUOUS
10
-0.281508
20
-0.143436
11
-0.273616
21
-0.157972
0
LINE
8
BLACK
6
CONTINUOUS
10
-0.273616
20
-0.157972
11
-0.264973
21
-0.172076
0
LINE
8
BLACK
6
CONTINUOUS
10
-0.264973
20
-0.172076
11
-0.255605
21
-0.185707
0
LINE
8
BLACK
6
CONTINUOUS
10
-0.255605
20
-0.185707
11
-0.245535
21
-0.19883
0
LINE
8
BLACK
6
CONTINUOUS
10
-0.245535
20
-0.19883
11
-0.234793
21
-0.211408
0
LINE
8
BLACK
6
CONTINUOUS
10
-0.234793
20
-0.211408
11
-0.223406
21
-0.223407
0
LINE
8
BLACK
6
CONTINUOUS
10
-0.223406
20
-0.223407
11
-0.211408
21
-0.234793
0
LINE
8
BLACK
6
CONTINUOUS
10
-0.211408
20
-0.234793
11
-0.19883
21
-0.245535
0
LINE
8
BLACK
6
CONTINUOUS
10
-0.19883
20
-0.245535
11
-0.185707
21
-0.255605
0
LINE
8
BLACK
6
CONTINUOUS
10
-0.185707
20
-0.255605
11
-0.172076
21
-0.264973
0
LINE
8
BLACK
6
CONTINUOUS
10
-0.172076
20
-0.264973
11
-0.157972
21
-0.273616
0
LINE
8
BLACK
6
CONTINUOUS
10
-0.157972
20
-0.273616
11
-0.143435
21
-0.281509
0
LINE
8
BLACK
6
CONTINUOUS
10
-0.143435
20
-0.281509
11
-0.128507
21
-0.28863
0
LINE
8
BLACK
6
CONTINUOUS
10
-0.128507
20
-0.28863
11
-0.113224
21
-0.294959
0
LINE
8
BLACK
6
CONTINUOUS
10
-0.113224
20
-0.294959
11
-0.0976321
21
-0.300481
0
LINE
8
BLACK
6
CONTINUOUS
10
-0.0976321
20
-0.300481
11
-0.0817725
21
-0.305179
0
LINE
8
BLACK
6
CONTINUOUS
10
-0.0817725
20
-0.305179
11
-0.0656884
21
-0.309041
0
LINE
8
BLACK
6
CONTINUOUS
10
-0.0656884
20
-0.309041
11
-0.0494251
21
-0.312055
0
LINE
8
BLACK
6
CONTINUOUS
10
-0.0494251
20
-0.312055
11
-0.0330254
21
-0.314214
0
LINE
8
BLACK
6
CONTINUOUS
10
-0.0330254
20
-0.314214
11
-0.0165349
21
-0.315512
0
LINE
8
BLACK
6
CONTINUOUS
10
-0.0165349
20
-0.315512
11
-3.93701e-08
21
-0.315944
0
LINE
8
BLACK
6
CONTINUOUS
10
-3.93701e-08
20
-0.315944
11
0.0165348
21
-0.315512
0
LINE
8
BLACK
6
CONTINUOUS
10
0.0165348
20
-0.315512
11
0.0330253
21
-0.314214
0
LINE
8
BLACK
6
CONTINUOUS
10
0.0330253
20
-0.314214
11
0.0494248
21
-0.312055
0
LINE
8
BLACK
6
CONTINUOUS
10
0.0494248
20
-0.312055
11
0.0656883
21
-0.309041
0
LINE
8
BLACK
6
CONTINUOUS
10
0.0656883
20
-0.309041
11
0.0817724
21
-0.305179
0
LINE
8
BLACK
6
CONTINUOUS
10
0.0817724
20
-0.305179
11
0.0976327
21
-0.300481
0
LINE
8
BLACK
6
CONTINUOUS
10
0.0976327
20
-0.300481
11
0.113224
21
-0.294959
0
LINE
8
BLACK
6
CONTINUOUS
10
0.113224
20
-0.294959
11
0.128507
21
-0.28863
0
LINE
8
BLACK
6
CONTINUOUS
10
0.128507
20
-0.28863
11
0.143436
21
-0.281508
0
LINE
8
BLACK
6
CONTINUOUS
10
0.143436
20
-0.281508
11
0.157972
21
-0.273616
0
LINE
8
BLACK
6
CONTINUOUS
10
0.157972
20
-0.273616
11
0.172076
21
-0.264973
0
LINE
8
BLACK
6
CONTINUOUS
10
0.172076
20
-0.264973
11
0.185707
21
-0.255605
0
LINE
8
BLACK
6
CONTINUOUS
10
0.185707
20
-0.255605
11
0.19883
21
-0.245535
0
LINE
8
BLACK
6
CONTINUOUS
10
0.19883
20
-0.245535
11
0.211408
21
-0.234793
0
LINE
8
BLACK
6
CONTINUOUS
10
0.211408
20
-0.234793
11
0.223407
21
-0.223406
0
LINE
8
BLACK
6
CONTINUOUS
10
0.223407
20
-0.223406
11
0.234793
21
-0.211408
0
LINE
8
BLACK
6
CONTINUOUS
10
0.234793
20
-0.211408
11
0.245535
21
-0.19883
0
LINE
8
BLACK
6
CONTINUOUS
10
0.245535
20
-0.19883
11
0.255605
21
-0.185707
0
LINE
8
BLACK
6
CONTINUOUS
10
0.255605
20
-0.185707
11
0.264973
21
-0.172075
0
LINE
8
BLACK
6
CONTINUOUS
10
0.264973
20
-0.172075
11
0.273616
21
-0.157972
0
LINE
8
BLACK
6
CONTINUOUS
10
0.273616
20
-0.157972
11
0.281509
21
-0.143435
0
LINE
8
BLACK
6
CONTINUOUS
10
0.281509
20
-0.143435
11
0.28863
21
-0.128507
0
LINE
8
BLACK
6
CONTINUOUS
10
0.28863
20
-0.128507
11
0.294959
21
-0.113224
0
LINE
8
BLACK
6
CONTINUOUS
10
0.294959
20
-0.113224
11
0.300481
21
-0.097632
0
LINE
8
BLACK
6
CONTINUOUS
10
0.300481
20
-0.097632
11
0.305179
21
-0.0817724
0
LINE
8
BLACK
6
CONTINUOUS
10
0.305179
20
-0.0817724
11
0.309041
21
-0.0656883
0
LINE
8
BLACK
6
CONTINUOUS
10
0.309041
20
-0.0656883
11
0.312055
21
-0.049425
0
LINE
8
BLACK
6
CONTINUOUS
10
0.312055
20
-0.049425
11
0.314214
21
-0.0330253
0
LINE
8
BLACK
6
CONTINUOUS
10
0.314214
20
-0.0330253
11
0.315512
21
-0.0165348
0
LINE
8
BLACK
6
CONTINUOUS
10
0.315512
20
-0.0165348
11
0.315944
21
3.93701e-08
0
LINE
8
BLACK
6
CONTINUOUS
10
0.315944
20
3.93701e-08
11
0.315512
21
0.0165349
0
LINE
8
BLACK
6
CONTINUOUS
10
0.315512
20
0.0165349
11
0.314214
21
0.0330254
0
LINE
8
BLACK
6
CONTINUOUS
10
0.314214
20
0.0330254
11
0.312055
21
0.0494251
0
LINE
8
BLACK
6
CONTINUOUS
10
0.312055
20
0.0494251
11
0.309041
21
0.0656884
0
LINE
8
BLACK
6
CONTINUOUS
10
0.309041
20
0.0656884
11
0.305179
21
0.0817725
0
LINE
8
BLACK
6
CONTINUOUS
10
0.305179
20
0.0817725
11
0.300481
21
0.0976321
0
LINE
8
BLACK
6
CONTINUOUS
10
0.300481
20
0.0976321
11
0.294959
21
0.113224
0
LINE
8
BLACK
6
CONTINUOUS
10
0.294959
20
0.113224
11
0.28863
21
0.128507
0
LINE
8
BLACK
6
CONTINUOUS
10
0.28863
20
0.128507
11
0.281509
21
0.143435
0
LINE
8
BLACK
6
CONTINUOUS
10
0.281509
20
0.143435
11
0.273616
21
0.157972
0
LINE
8
BLACK
6
CONTINUOUS
10
0.273616
20
0.157972
11
0.264973
21
0.172076
0
LINE
8
BLACK
6
CONTINUOUS
10
0.264973
20
0.172076
11
0.255605
21
0.185707
0
LINE
8
BLACK
6
CONTINUOUS
10
0.255605
20
0.185707
11
0.245535
21
0.19883
0
LINE
8
BLACK
6
CONTINUOUS
10
0.245535
20
0.19883
11
0.234793
21
0.211408
0
LINE
8
BLACK
6
CONTINUOUS
10
0.234793
20
0.211408
11
0.223407
21
0.223406
0
LINE
8
BLACK
6
CONTINUOUS
10
0.223407
20
0.223406
11
0.211408
21
0.234793
0
LINE
8
BLACK
6
CONTINUOUS
10
0.211408
20
0.234793
11
0.198831
21
0.245535
0
LINE
8
BLACK
6
CONTINUOUS
10
0.198831
20
0.245535
11
0.185707
21
0.255605
0
LINE
8
BLACK
6
CONTINUOUS
10
0.185707
20
0.255605
11
0.172076
21
0.264973
0
LINE
8
BLACK
6
CONTINUOUS
10
0.172076
20
0.264973
11
0.157972
21
0.273616
0
LINE
8
BLACK
6
CONTINUOUS
10
0.157972
20
0.273616
11
0.143436
21
0.281508
0
LINE
8
BLACK
6
CONTINUOUS
10
0.143436
20
0.281508
11
0.128507
21
0.28863
0
LINE
8
BLACK
6
CONTINUOUS
10
0.128507
20
0.28863
11
0.113224
21
0.29496
0
LINE
8
BLACK
6
CONTINUOUS
10
0.113224
20
0.29496
11
0.0976327
21
0.300481
0
LINE
8
BLACK
6
CONTINUOUS
10
0.0976327
20
0.300481
11
0.0817724
21
0.305179
0
LINE
8
BLACK
6
CONTINUOUS
10
0.0817724
20
0.305179
11
0.0656883
21
0.309041
0
LINE
8
BLACK
6
CONTINUOUS
10
0.0656883
20
0.309041
11
0.0494248
21
0.312055
0
LINE
8
BLACK
6
CONTINUOUS
10
0.0494248
20
0.312055
11
0.0330253
21
0.314214
0
LINE
8
BLACK
6
CONTINUOUS
10
0.0330253
20
0.314214
11
0.0165348
21
0.315512
0
LINE
8
BLACK
6
CONTINUOUS
10
0.0165348
20
0.315512
11
-3.93701e-08
21
0.315945
0
LINE
8
BLACK
6
CONTINUOUS
10
-3.93701e-08
20
0.315945
11
-0.0165349
21
0.315512
0
LINE
8
BLACK
6
CONTINUOUS
10
-0.874401
20
0.0477761
11
-0.874266
21
0.0476933
0
LINE
8
BLACK
6
CONTINUOUS
10
-0.874266
20
0.0476933
11
-0.874108
21
0.0476809
0
LINE
8
BLACK
6
CONTINUOUS
10
-0.874108
20
0.0476809
11
-0.860392
21
0.0406907
0
LINE
8
BLACK
6
CONTINUOUS
10
-0.860392
20
0.0406907
11
-0.860289
21
0.0405704
0
LINE
8
BLACK
6
CONTINUOUS
10
-0.860289
20
0.0405704
11
-0.860143
21
0.0405098
0
LINE
8
BLACK
6
CONTINUOUS
10
-0.860143
20
0.0405098
11
-0.849253
21
0.0296224
0
LINE
8
BLACK
6
CONTINUOUS
10
-0.849253
20
0.0296224
11
-0.849192
21
0.0294761
0
LINE
8
BLACK
6
CONTINUOUS
10
-0.849192
20
0.0294761
11
-0.849072
21
0.0293731
0
LINE
8
BLACK
6
CONTINUOUS
10
-0.849072
20
0.0293731
11
-0.842084
21
0.0156543
0
LINE
8
BLACK
6
CONTINUOUS
10
-0.842084
20
0.0156543
11
-0.842071
21
0.0154966
0
LINE
8
BLACK
6
CONTINUOUS
10
-0.842071
20
0.0154966
11
-0.841989
21
0.0153616
0
LINE
8
BLACK
6
CONTINUOUS
10
-0.841989
20
0.0153616
11
-0.839579
21
0.000154016
0
LINE
8
BLACK
6
CONTINUOUS
10
-0.839579
20
0.000154016
11
-0.839616
21
0
0
LINE
8
BLACK
6
CONTINUOUS
10
-0.839616
20
0
11
-0.839579
21
-0.000154016
0
LINE
8
BLACK
6
CONTINUOUS
10
-0.839579
20
-0.000154016
11
-0.841989
21
-0.0153616
0
LINE
8
BLACK
6
CONTINUOUS
10
-0.841989
20
-0.0153616
11
-0.842071
21
-0.0154965
0
LINE
8
BLACK
6
CONTINUOUS
10
-0.842071
20
-0.0154965
11
-0.842084
21
-0.0156543
0
LINE
8
BLACK
6
CONTINUOUS
10
-0.842084
20
-0.0156543
11
-0.849072
21
-0.0293731
0
LINE
8
BLACK
6
CONTINUOUS
10
-0.849072
20
-0.0293731
11
-0.849192
21
-0.029476
0
LINE
8
BLACK
6
CONTINUOUS
10
-0.849192
20
-0.029476
11
-0.849253
21
-0.0296224
0
LINE
8
BLACK
6
CONTINUOUS
10
-0.849253
20
-0.0296224
11
-0.860143
21
-0.0405098
0
LINE
8
BLACK
6
CONTINUOUS
10
-0.860143
20
-0.0405098
11
-0.860289
21
-0.0405703
0
LINE
8
BLACK
6
CONTINUOUS
10
-0.860289
20
-0.0405703
11
-0.860392
21
-0.0406906
0
LINE
8
BLACK
6
CONTINUOUS
10
-0.860392
20
-0.0406906
11
-0.874108
21
-0.0476808
0
LINE
8
BLACK
6
CONTINUOUS
10
-0.874108
20
-0.0476808
11
-0.874266
21
-0.0476932
0
LINE
8
BLACK
6
CONTINUOUS
10
-0.874266
20
-0.0476932
11
-0.874401
21
-0.047776
0
LINE
8
BLACK
6
CONTINUOUS
10
-0.874401
20
-0.047776
11
-0.88961
21
-0.0501847
0
LINE
8
BLACK
6
CONTINUOUS
10
-0.88961
20
-0.0501847
11
-0.889764
21
-0.0501478
0
LINE
8
BLACK
6
CONTINUOUS
10
-0.889764
20
-0.0501478
11
-0.889918
21
-0.0501847
0
LINE
8
BLACK
6
CONTINUOUS
10
-0.889918
20
-0.0501847
11
-0.905126
21
-0.047776
0
LINE
8
BLACK
6
CONTINUOUS
10
-0.905126
20
-0.047776
11
-0.905261
21
-0.0476932
0
LINE
8
BLACK
6
CONTINUOUS
10
-0.905261
20
-0.0476932
11
-0.905419
21
-0.0476808
0
LINE
8
BLACK
6
CONTINUOUS
10
-0.905419
20
-0.0476808
11
-0.919136
21
-0.0406906
0
LINE
8
BLACK
6
CONTINUOUS
10
-0.919136
20
-0.0406906
11
-0.919239
21
-0.0405703
0
LINE
8
BLACK
6
CONTINUOUS
10
-0.919239
20
-0.0405703
11
-0.919385
21
-0.0405097
0
LINE
8
BLACK
6
CONTINUOUS
10
-0.919385
20
-0.0405097
11
-0.930275
21
-0.0296224
0
LINE
8
BLACK
6
CONTINUOUS
10
-0.930275
20
-0.0296224
11
-0.930335
21
-0.029476
0
LINE
8
BLACK
6
CONTINUOUS
10
-0.930335
20
-0.029476
11
-0.930456
21
-0.0293731
0
LINE
8
BLACK
6
CONTINUOUS
10
-0.930456
20
-0.0293731
11
-0.937444
21
-0.0156543
0
LINE
8
BLACK
6
CONTINUOUS
10
-0.937444
20
-0.0156543
11
-0.937456
21
-0.0154965
0
LINE
8
BLACK
6
CONTINUOUS
10
-0.937456
20
-0.0154965
11
-0.937539
21
-0.0153616
0
LINE
8
BLACK
6
CONTINUOUS
10
-0.937539
20
-0.0153616
11
-0.939949
21
-0.000154016
0
LINE
8
BLACK
6
CONTINUOUS
10
-0.939949
20
-0.000154016
11
-0.939912
21
0
0
LINE
8
BLACK
6
CONTINUOUS
10
-0.939912
20
0
11
-0.939949
21
0.000154016
0
LINE
8
BLACK
6
CONTINUOUS
10
-0.939949
20
0.000154016
11
-0.937539
21
0.0153616
0
LINE
8
BLACK
6
CONTINUOUS
10
-0.937539
20
0.0153616
11
-0.937456
21
0.0154966
0
LINE
8
BLACK
6
CONTINUOUS
10
-0.937456
20
0.0154966
11
-0.937444
21
0.0156543
0
LINE
8
BLACK
6
CONTINUOUS
10
-0.937444
20
0.0156543
11
-0.930456
21
0.0293731
0
LINE
8
BLACK
6
CONTINUOUS
10
-0.930456
20
0.0293731
11
-0.930335
21
0.0294761
0
LINE
8
BLACK
6
CONTINUOUS
10
-0.930335
20
0.0294761
11
-0.930275
21
0.0296224
0
LINE
8
BLACK
6
CONTINUOUS
10
-0.930275
20
0.0296224
11
-0.919385
21
0.0405098
0
LINE
8
BLACK
6
CONTINUOUS
10
-0.919385
20
0.0405098
11
-0.919239
21
0.0405704
0
LINE
8
BLACK
6
CONTINUOUS
10
-0.919239
20
0.0405704
11
-0.919136
21
0.0406907
0
LINE
8
BLACK
6
CONTINUOUS
10
-0.919136
20
0.0406907
11
-0.905419
21
0.0476809
0
LINE
8
BLACK
6
CONTINUOUS
10
-0.905419
20
0.0476809
11
-0.905261
21
0.0476933
0
LINE
8
BLACK
6
CONTINUOUS
10
-0.905261
20
0.0476933
11
-0.905126
21
0.0477761
0
LINE
8
BLACK
6
CONTINUOUS
10
-0.905126
20
0.0477761
11
-0.889918
21
0.0501847
0
LINE
8
BLACK
6
CONTINUOUS
10
-0.889918
20
0.0501847
11
-0.889764
21
0.0501478
0
LINE
8
BLACK
6
CONTINUOUS
10
-0.889764
20
0.0501478
11
-0.88961
21
0.0501847
0
LINE
8
BLACK
6
CONTINUOUS
10
-0.88961
20
0.0501847
11
-0.874401
21
0.0477761
0
LINE
8
BLACK
6
CONTINUOUS
10
-0.904665
20
0.0458562
11
-0.918103
21
0.0390076
0
LINE
8
BLACK
6
CONTINUOUS
10
-0.918103
20
0.0390076
11
-0.928773
21
0.0283406
0
LINE
8
BLACK
6
CONTINUOUS
10
-0.928773
20
0.0283406
11
-0.935619
21
0.0148998
0
LINE
8
BLACK
6
CONTINUOUS
10
-0.935619
20
0.0148998
11
-0.93798
21
3.93701e-08
0
LINE
8
BLACK
6
CONTINUOUS
10
-0.93798
20
3.93701e-08
11
-0.935619
21
-0.0148997
0
LINE
8
BLACK
6
CONTINUOUS
10
-0.935619
20
-0.0148997
11
-0.928773
21
-0.0283405
0
LINE
8
BLACK
6
CONTINUOUS
10
-0.928773
20
-0.0283405
11
-0.918103
21
-0.0390075
0
LINE
8
BLACK
6
CONTINUOUS
10
-0.918103
20
-0.0390075
11
-0.904665
21
-0.0458561
0
LINE
8
BLACK
6
CONTINUOUS
10
-0.904665
20
-0.0458561
11
-0.889764
21
-0.0482161
0
LINE
8
BLACK
6
CONTINUOUS
10
-0.889764
20
-0.0482161
11
-0.874863
21
-0.0458561
0
LINE
8
BLACK
6
CONTINUOUS
10
-0.874863
20
-0.0458561
11
-0.861424
21
-0.0390075
0
LINE
8
BLACK
6
CONTINUOUS
10
-0.861424
20
-0.0390075
11
-0.850755
21
-0.0283406
0
LINE
8
BLACK
6
CONTINUOUS
10
-0.850755
20
-0.0283406
11
-0.843908
21
-0.0148996
0
LINE
8
BLACK
6
CONTINUOUS
10
-0.843908
20
-0.0148996
11
-0.841548
21
0
0
LINE
8
BLACK
6
CONTINUOUS
10
-0.841548
20
0
11
-0.843908
21
0.0148997
0
LINE
8
BLACK
6
CONTINUOUS
10
-0.843908
20
0.0148997
11
-0.850755
21
0.0283406
0
LINE
8
BLACK
6
CONTINUOUS
10
-0.850755
20
0.0283406
11
-0.861424
21
0.0390076
0
LINE
8
BLACK
6
CONTINUOUS
10
-0.861424
20
0.0390076
11
-0.874863
21
0.0458562
0
LINE
8
BLACK
6
CONTINUOUS
10
-0.874863
20
0.0458562
11
-0.889764
21
0.0482161
0
LINE
8
BLACK
6
CONTINUOUS
10
-0.889764
20
0.0482161
11
-0.904665
21
0.0458562
0
LINE
8
BLACK
6
CONTINUOUS
10
-0.260229
20
0.595019
11
-0.260094
21
0.594937
0
LINE
8
BLACK
6
CONTINUOUS
10
-0.260094
20
0.594937
11
-0.259936
21
0.594924
0
LINE
8
BLACK
6
CONTINUOUS
10
-0.259936
20
0.594924
11
-0.246217
21
0.587936
0
LINE
8
BLACK
6
CONTINUOUS
10
-0.246217
20
0.587936
11
-0.246115
21
0.587816
0
LINE
8
BLACK
6
CONTINUOUS
10
-0.246115
20
0.587816
11
-0.245968
21
0.587755
0
LINE
8
BLACK
6
CONTINUOUS
10
-0.245968
20
0.587755
11
-0.235081
21
0.576865
0
LINE
8
BLACK
6
CONTINUOUS
10
-0.235081
20
0.576865
11
-0.23502
21
0.576719
0
LINE
8
BLACK
6
CONTINUOUS
10
-0.23502
20
0.576719
11
-0.2349
21
0.576616
0
LINE
8
BLACK
6
CONTINUOUS
10
-0.2349
20
0.576616
11
-0.22791
21
0.5629
0
LINE
8
BLACK
6
CONTINUOUS
10
-0.22791
20
0.5629
11
-0.227897
21
0.562742
0
LINE
8
BLACK
6
CONTINUOUS
10
-0.227897
20
0.562742
11
-0.227815
21
0.562607
0
LINE
8
BLACK
6
CONTINUOUS
10
-0.227815
20
0.562607
11
-0.225406
21
0.547398
0
LINE
8
BLACK
6
CONTINUOUS
10
-0.225406
20
0.547398
11
-0.225443
21
0.547244
0
LINE
8
BLACK
6
CONTINUOUS
10
-0.225443
20
0.547244
11
-0.225406
21
0.54709
0
LINE
8
BLACK
6
CONTINUOUS
10
-0.225406
20
0.54709
11
-0.227815
21
0.531881
0
LINE
8
BLACK
6
CONTINUOUS
10
-0.227815
20
0.531881
11
-0.227897
21
0.531746
0
LINE
8
BLACK
6
CONTINUOUS
10
-0.227897
20
0.531746
11
-0.22791
21
0.531588
0
LINE
8
BLACK
6
CONTINUOUS
10
-0.22791
20
0.531588
11
-0.2349
21
0.517872
0
LINE
8
BLACK
6
CONTINUOUS
10
-0.2349
20
0.517872
11
-0.23502
21
0.517769
0
LINE
8
BLACK
6
CONTINUOUS
10
-0.23502
20
0.517769
11
-0.235081
21
0.517623
0
LINE
8
BLACK
6
CONTINUOUS
10
-0.235081
20
0.517623
11
-0.245968
21
0.506733
0
LINE
8
BLACK
6
CONTINUOUS
10
-0.245968
20
0.506733
11
-0.246115
21
0.506673
0
LINE
8
BLACK
6
CONTINUOUS
10
-0.246115
20
0.506673
11
-0.246217
21
0.506552
0
LINE
8
BLACK
6
CONTINUOUS
10
-0.246217
20
0.506552
11
-0.259936
21
0.499564
0
LINE
8
BLACK
6
CONTINUOUS
10
-0.259936
20
0.499564
11
-0.260094
21
0.499552
0
LINE
8
BLACK
6
CONTINUOUS
10
-0.260094
20
0.499552
11
-0.260229
21
0.499469
0
LINE
8
BLACK
6
CONTINUOUS
10
-0.260229
20
0.499469
11
-0.275437
21
0.497059
0
LINE
8
BLACK
6
CONTINUOUS
10
-0.275437
20
0.497059
11
-0.275591
21
0.497096
0
LINE
8
BLACK
6
CONTINUOUS
10
-0.275591
20
0.497096
11
-0.275745
21
0.497059
0
LINE
8
BLACK
6
CONTINUOUS
10
-0.275745
20
0.497059
11
-0.290952
21
0.499469
0
LINE
8
BLACK
6
CONTINUOUS
10
-0.290952
20
0.499469
11
-0.291087
21
0.499551
0
LINE
8
BLACK
6
CONTINUOUS
10
-0.291087
20
0.499551
11
-0.291245
21
0.499564
0
LINE
8
BLACK
6
CONTINUOUS
10
-0.291245
20
0.499564
11
-0.304964
21
0.506552
0
LINE
8
BLACK
6
CONTINUOUS
10
-0.304964
20
0.506552
11
-0.305067
21
0.506673
0
LINE
8
BLACK
6
CONTINUOUS
10
-0.305067
20
0.506673
11
-0.305213
21
0.506733
0
LINE
8
BLACK
6
CONTINUOUS
10
-0.305213
20
0.506733
11
-0.3161
21
0.517623
0
LINE
8
BLACK
6
CONTINUOUS
10
-0.3161
20
0.517623
11
-0.316161
21
0.517769
0
LINE
8
BLACK
6
CONTINUOUS
10
-0.316161
20
0.517769
11
-0.316281
21
0.517872
0
LINE
8
BLACK
6
CONTINUOUS
10
-0.316281
20
0.517872
11
-0.323271
21
0.531588
0
LINE
8
BLACK
6
CONTINUOUS
10
-0.323271
20
0.531588
11
-0.323284
21
0.531746
0
LINE
8
BLACK
6
CONTINUOUS
10
-0.323284
20
0.531746
11
-0.323367
21
0.531881
0
LINE
8
BLACK
6
CONTINUOUS
10
-0.323367
20
0.531881
11
-0.325775
21
0.54709
0
LINE
8
BLACK
6
CONTINUOUS
10
-0.325775
20
0.54709
11
-0.325738
21
0.547244
0
LINE
8
BLACK
6
CONTINUOUS
10
-0.325738
20
0.547244
11
-0.325775
21
0.547398
0
LINE
8
BLACK
6
CONTINUOUS
10
-0.325775
20
0.547398
11
-0.323367
21
0.562607
0
LINE
8
BLACK
6
CONTINUOUS
10
-0.323367
20
0.562607
11
-0.323284
21
0.562742
0
LINE
8
BLACK
6
CONTINUOUS
10
-0.323284
20
0.562742
11
-0.323271
21
0.5629
0
LINE
8
BLACK
6
CONTINUOUS
10
-0.323271
20
0.5629
11
-0.316281
21
0.576616
0
LINE
8
BLACK
6
CONTINUOUS
10
-0.316281
20
0.576616
11
-0.316161
21
0.576719
0
LINE
8
BLACK
6
CONTINUOUS
10
-0.316161
20
0.576719
11
-0.3161
21
0.576865
0
LINE
8
BLACK
6
CONTINUOUS
10
-0.3161
20
0.576865
11
-0.305213
21
0.587755
0
LINE
8
BLACK
6
CONTINUOUS
10
-0.305213
20
0.587755
11
-0.305067
21
0.587816
0
LINE
8
BLACK
6
CONTINUOUS
10
-0.305067
20
0.587816
11
-0.304964
21
0.587936
0
LINE
8
BLACK
6
CONTINUOUS
10
-0.304964
20
0.587936
11
-0.291245
21
0.594924
0
LINE
8
BLACK
6
CONTINUOUS
10
-0.291245
20
0.594924
11
-0.291087
21
0.594937
0
LINE
8
BLACK
6
CONTINUOUS
10
-0.291087
20
0.594937
11
-0.290952
21
0.595019
0
LINE
8
BLACK
6
CONTINUOUS
10
-0.290952
20
0.595019
11
-0.275745
21
0.597429
0
LINE
8
BLACK
6
CONTINUOUS
10
-0.275745
20
0.597429
11
-0.275591
21
0.597392
0
LINE
8
BLACK
6
CONTINUOUS
10
-0.275591
20
0.597392
11
-0.275437
21
0.597429
0
LINE
8
BLACK
6
CONTINUOUS
10
-0.275437
20
0.597429
11
-0.260229
21
0.595019
0
LINE
8
BLACK
6
CONTINUOUS
10
-0.29049
20
0.593099
11
-0.303931
21
0.586253
0
LINE
8
BLACK
6
CONTINUOUS
10
-0.303931
20
0.586253
11
-0.314598
21
0.575584
0
LINE
8
BLACK
6
CONTINUOUS
10
-0.314598
20
0.575584
11
-0.321447
21
0.562145
0
LINE
8
BLACK
6
CONTINUOUS
10
-0.321447
20
0.562145
11
-0.323807
21
0.547244
0
LINE
8
BLACK
6
CONTINUOUS
10
-0.323807
20
0.547244
11
-0.321447
21
0.532343
0
LINE
8
BLACK
6
CONTINUOUS
10
-0.321447
20
0.532343
11
-0.314598
21
0.518905
0
LINE
8
BLACK
6
CONTINUOUS
10
-0.314598
20
0.518905
11
-0.303931
21
0.508235
0
LINE
8
BLACK
6
CONTINUOUS
10
-0.303931
20
0.508235
11
-0.29049
21
0.501389
0
LINE
8
BLACK
6
CONTINUOUS
10
-0.29049
20
0.501389
11
-0.275591
21
0.499028
0
LINE
8
BLACK
6
CONTINUOUS
10
-0.275591
20
0.499028
11
-0.260691
21
0.501389
0
LINE
8
BLACK
6
CONTINUOUS
10
-0.260691
20
0.501389
11
-0.24725
21
0.508235
0
LINE
8
BLACK
6
CONTINUOUS
10
-0.24725
20
0.508235
11
-0.236583
21
0.518905
0
LINE
8
BLACK
6
CONTINUOUS
10
-0.236583
20
0.518905
11
-0.229734
21
0.532343
0
LINE
8
BLACK
6
CONTINUOUS
10
-0.229734
20
0.532343
11
-0.227374
21
0.547244
0
LINE
8
BLACK
6
CONTINUOUS
10
-0.227374
20
0.547244
11
-0.229734
21
0.562145
0
LINE
8
BLACK
6
CONTINUOUS
10
-0.229734
20
0.562145
11
-0.236583
21
0.575584
0
LINE
8
BLACK
6
CONTINUOUS
10
-0.236583
20
0.575584
11
-0.24725
21
0.586253
0
LINE
8
BLACK
6
CONTINUOUS
10
-0.24725
20
0.586253
11
-0.260691
21
0.593099
0
LINE
8
BLACK
6
CONTINUOUS
10
-0.260691
20
0.593099
11
-0.275591
21
0.59546
0
LINE
8
BLACK
6
CONTINUOUS
10
-0.275591
20
0.59546
11
-0.29049
21
0.593099
  0
ENDSEC
  0
EOF
