  0
SECTION
  2
HEADER
  9
$ANGBASE
  50
0.0
  9
$ANGDIR
  70
1
  9
$MEASUREMENT
  70
0
  0
ENDSEC
  0
SECTION
  2
TABLES
  0
TABLE
  2
LTYPE
  70
4
  0
LTYPE
  5
40F
  2
CONTINUOUS
  70
0
  3
Solid line
  72
65
  73
0
  40
0.0
  0
LTYPE
  5
410
  2
DASHDOT
 70
0
  3
Dash Dot ____ _ ____ _
 72
65
 73
4
 40
2.0
 49
1.25
 49
-0.25
 49
0.25
 49
-0.25
  0
LTYPE
  5
411
  2
DASHED
 70
0
  3
Dashed __ __ __ __ __
 72
65
 73
2
 40
0.75
 49
0.5
 49
-0.25
  0
LTYPE
  5
43B
  2
DOTTED
 70
0
  3
Dotted .  .  .  .
 72
65
 73
2
 40
0.2
 49
0.0
 49
-0.2
  0
ENDTAB
  0
TABLE
  2
STYLE
  70
4
  0
STYLE
  2
KICAD
  70
0
  40
0
  41
1
  42
1
  50
0
  71
0
  3
isocp.shx
  0
STYLE
  2
KICADB
  70
0
  40
0
  41
1
  42
1
  50
0
  71
0
  3
isocp.shx
  0
STYLE
  2
KICADI
  70
0
  40
0
  41
1
  42
1
  50
15
  71
0
  3
isocp.shx
  0
STYLE
  2
KICADBI
  70
0
  40
0
  41
1
  42
1
  50
15
  71
0
  3
isocp.shx
  0
ENDTAB
  0
TABLE
  2
LAYER
  70
1
  0
LAYER
  2
BLACK
  70
0
  62
7
  6
CONTINUOUS
  0
ENDTAB
  0
ENDSEC
  0
SECTION
  2
ENTITIES
0
LINE
8
BLACK
6
CONTINUOUS
10
-0.737759
20
-0.688695
11
-0.737654
21
-0.688675
0
LINE
8
BLACK
6
CONTINUOUS
10
-0.737654
20
-0.688675
11
-0.717528
21
-0.692955
0
LINE
8
BLACK
6
CONTINUOUS
10
-0.717528
20
-0.692955
11
-0.717439
21
-0.693015
0
LINE
8
BLACK
6
CONTINUOUS
10
-0.717439
20
-0.693015
11
-0.717332
21
-0.693018
0
LINE
8
BLACK
6
CONTINUOUS
10
-0.717332
20
-0.693018
11
-0.698537
21
-0.701388
0
LINE
8
BLACK
6
CONTINUOUS
10
-0.698537
20
-0.701388
11
-0.698463
21
-0.701466
0
LINE
8
BLACK
6
CONTINUOUS
10
-0.698463
20
-0.701466
11
-0.698359
21
-0.701491
0
LINE
8
BLACK
6
CONTINUOUS
10
-0.698359
20
-0.701491
11
-0.681709
21
-0.713586
0
LINE
8
BLACK
6
CONTINUOUS
10
-0.681709
20
-0.713586
11
-0.681674
21
-0.713644
0
LINE
8
BLACK
6
CONTINUOUS
10
-0.681674
20
-0.713644
11
-0.68161
21
-0.713668
0
LINE
8
BLACK
6
CONTINUOUS
10
-0.68161
20
-0.713668
11
-0.66057
21
-0.733634
0
LINE
8
BLACK
6
CONTINUOUS
10
-0.66057
20
-0.733634
11
-0.617349
21
-0.77055
0
LINE
8
BLACK
6
CONTINUOUS
10
-0.617349
20
-0.77055
11
-0.580421
21
-0.798884
0
LINE
8
BLACK
6
CONTINUOUS
10
-0.580421
20
-0.798884
11
-0.542062
21
-0.825245
0
LINE
8
BLACK
6
CONTINUOUS
10
-0.542062
20
-0.825245
11
-0.493602
21
-0.854943
0
LINE
8
BLACK
6
CONTINUOUS
10
-0.493602
20
-0.854943
11
-0.443651
21
-0.882064
0
LINE
8
BLACK
6
CONTINUOUS
10
-0.443651
20
-0.882064
11
-0.401643
21
-0.902101
0
LINE
8
BLACK
6
CONTINUOUS
10
-0.401643
20
-0.902101
11
-0.35864
21
-0.919915
0
LINE
8
BLACK
6
CONTINUOUS
10
-0.35864
20
-0.919915
11
-0.305062
21
-0.938886
0
LINE
8
BLACK
6
CONTINUOUS
10
-0.305062
20
-0.938886
11
-0.250566
21
-0.955029
0
LINE
8
BLACK
6
CONTINUOUS
10
-0.250566
20
-0.955029
11
-0.205307
21
-0.965895
0
LINE
8
BLACK
6
CONTINUOUS
10
-0.205307
20
-0.965895
11
-0.159541
21
-0.974378
0
LINE
8
BLACK
6
CONTINUOUS
10
-0.159541
20
-0.974378
11
-0.103191
21
-0.981796
0
LINE
8
BLACK
6
CONTINUOUS
10
-0.103191
20
-0.981796
11
-0.0465289
21
-0.986257
0
LINE
8
BLACK
6
CONTINUOUS
10
-0.0465289
20
-0.986257
11
-3.93701e-08
21
-0.987472
0
LINE
8
BLACK
6
CONTINUOUS
10
-3.93701e-08
20
-0.987472
11
0.0465285
21
-0.986257
0
LINE
8
BLACK
6
CONTINUOUS
10
0.0465285
20
-0.986257
11
0.103191
21
-0.981796
0
LINE
8
BLACK
6
CONTINUOUS
10
0.103191
20
-0.981796
11
0.159541
21
-0.974378
0
LINE
8
BLACK
6
CONTINUOUS
10
0.159541
20
-0.974378
11
0.205306
21
-0.965895
0
LINE
8
BLACK
6
CONTINUOUS
10
0.205306
20
-0.965895
11
0.250566
21
-0.955029
0
LINE
8
BLACK
6
CONTINUOUS
10
0.250566
20
-0.955029
11
0.305062
21
-0.938886
0
LINE
8
BLACK
6
CONTINUOUS
10
0.305062
20
-0.938886
11
0.358639
21
-0.919916
0
LINE
8
BLACK
6
CONTINUOUS
10
0.358639
20
-0.919916
11
0.401642
21
-0.902101
0
LINE
8
BLACK
6
CONTINUOUS
10
0.401642
20
-0.902101
11
0.443652
21
-0.882063
0
LINE
8
BLACK
6
CONTINUOUS
10
0.443652
20
-0.882063
11
0.493602
21
-0.854942
0
LINE
8
BLACK
6
CONTINUOUS
10
0.493602
20
-0.854942
11
0.542062
21
-0.825245
0
LINE
8
BLACK
6
CONTINUOUS
10
0.542062
20
-0.825245
11
0.580421
21
-0.798885
0
LINE
8
BLACK
6
CONTINUOUS
10
0.580421
20
-0.798885
11
0.617348
21
-0.77055
0
LINE
8
BLACK
6
CONTINUOUS
10
0.617348
20
-0.77055
11
0.660569
21
-0.733634
0
LINE
8
BLACK
6
CONTINUOUS
10
0.660569
20
-0.733634
11
0.68161
21
-0.713668
0
LINE
8
BLACK
6
CONTINUOUS
10
0.68161
20
-0.713668
11
0.681673
21
-0.713644
0
LINE
8
BLACK
6
CONTINUOUS
10
0.681673
20
-0.713644
11
0.681709
21
-0.713586
0
LINE
8
BLACK
6
CONTINUOUS
10
0.681709
20
-0.713586
11
0.698358
21
-0.701491
0
LINE
8
BLACK
6
CONTINUOUS
10
0.698358
20
-0.701491
11
0.698462
21
-0.701466
0
LINE
8
BLACK
6
CONTINUOUS
10
0.698462
20
-0.701466
11
0.698536
21
-0.701388
0
LINE
8
BLACK
6
CONTINUOUS
10
0.698536
20
-0.701388
11
0.717332
21
-0.693018
0
LINE
8
BLACK
6
CONTINUOUS
10
0.717332
20
-0.693018
11
0.717439
21
-0.693015
0
LINE
8
BLACK
6
CONTINUOUS
10
0.717439
20
-0.693015
11
0.717527
21
-0.692955
0
LINE
8
BLACK
6
CONTINUOUS
10
0.717527
20
-0.692955
11
0.737653
21
-0.688675
0
LINE
8
BLACK
6
CONTINUOUS
10
0.737653
20
-0.688675
11
0.737759
21
-0.688695
0
LINE
8
BLACK
6
CONTINUOUS
10
0.737759
20
-0.688695
11
0.737858
21
-0.688654
0
LINE
8
BLACK
6
CONTINUOUS
10
0.737858
20
-0.688654
11
0.758437
21
-0.688654
0
LINE
8
BLACK
6
CONTINUOUS
10
0.758437
20
-0.688654
11
0.758536
21
-0.688695
0
LINE
8
BLACK
6
CONTINUOUS
10
0.758536
20
-0.688695
11
0.758641
21
-0.688675
0
LINE
8
BLACK
6
CONTINUOUS
10
0.758641
20
-0.688675
11
0.778767
21
-0.692955
0
LINE
8
BLACK
6
CONTINUOUS
10
0.778767
20
-0.692955
11
0.778856
21
-0.693015
0
LINE
8
BLACK
6
CONTINUOUS
10
0.778856
20
-0.693015
11
0.778963
21
-0.693018
0
LINE
8
BLACK
6
CONTINUOUS
10
0.778963
20
-0.693018
11
0.797762
21
-0.701388
0
LINE
8
BLACK
6
CONTINUOUS
10
0.797762
20
-0.701388
11
0.797836
21
-0.701466
0
LINE
8
BLACK
6
CONTINUOUS
10
0.797836
20
-0.701466
11
0.797941
21
-0.701491
0
LINE
8
BLACK
6
CONTINUOUS
10
0.797941
20
-0.701491
11
0.814586
21
-0.713586
0
LINE
8
BLACK
6
CONTINUOUS
10
0.814586
20
-0.713586
11
0.814635
21
-0.713666
0
LINE
8
BLACK
6
CONTINUOUS
10
0.814635
20
-0.713666
11
0.814721
21
-0.713704
0
LINE
8
BLACK
6
CONTINUOUS
10
0.814721
20
-0.713704
11
1.04242
21
-0.953385
0
LINE
8
BLACK
6
CONTINUOUS
10
1.04242
20
-0.953385
11
1.04242
21
-0.953398
0
LINE
8
BLACK
6
CONTINUOUS
10
1.04242
20
-0.953398
11
1.04244
21
-0.953404
0
LINE
8
BLACK
6
CONTINUOUS
10
1.04244
20
-0.953404
11
1.0562
21
-0.968696
0
LINE
8
BLACK
6
CONTINUOUS
10
1.0562
20
-0.968696
11
1.05624
21
-0.968797
0
LINE
8
BLACK
6
CONTINUOUS
10
1.05624
20
-0.968797
11
1.05632
21
-0.968862
0
LINE
8
BLACK
6
CONTINUOUS
10
1.05632
20
-0.968862
11
1.06661
21
-0.986681
0
LINE
8
BLACK
6
CONTINUOUS
10
1.06661
20
-0.986681
11
1.06663
21
-0.986788
0
LINE
8
BLACK
6
CONTINUOUS
10
1.06663
20
-0.986788
11
1.0667
21
-0.986869
0
LINE
8
BLACK
6
CONTINUOUS
10
1.0667
20
-0.986869
11
1.07306
21
-1.00644
0
LINE
8
BLACK
6
CONTINUOUS
10
1.07306
20
-1.00644
11
1.07305
21
-1.00655
0
LINE
8
BLACK
6
CONTINUOUS
10
1.07305
20
-1.00655
11
1.0731
21
-1.00664
0
LINE
8
BLACK
6
CONTINUOUS
10
1.0731
20
-1.00664
11
1.07525
21
-1.0271
0
LINE
8
BLACK
6
CONTINUOUS
10
1.07525
20
-1.0271
11
1.07522
21
-1.0272
0
LINE
8
BLACK
6
CONTINUOUS
10
1.07522
20
-1.0272
11
1.07525
21
-1.02731
0
LINE
8
BLACK
6
CONTINUOUS
10
1.07525
20
-1.02731
11
1.0731
21
-1.04777
0
LINE
8
BLACK
6
CONTINUOUS
10
1.0731
20
-1.04777
11
1.07305
21
-1.04787
0
LINE
8
BLACK
6
CONTINUOUS
10
1.07305
20
-1.04787
11
1.07306
21
-1.04797
0
LINE
8
BLACK
6
CONTINUOUS
10
1.07306
20
-1.04797
11
1.0667
21
-1.06754
0
LINE
8
BLACK
6
CONTINUOUS
10
1.0667
20
-1.06754
11
1.06663
21
-1.06763
0
LINE
8
BLACK
6
CONTINUOUS
10
1.06663
20
-1.06763
11
1.06661
21
-1.06773
0
LINE
8
BLACK
6
CONTINUOUS
10
1.06661
20
-1.06773
11
1.05632
21
-1.08555
0
LINE
8
BLACK
6
CONTINUOUS
10
1.05632
20
-1.08555
11
1.05624
21
-1.08562
0
LINE
8
BLACK
6
CONTINUOUS
10
1.05624
20
-1.08562
11
1.0562
21
-1.08572
0
LINE
8
BLACK
6
CONTINUOUS
10
1.0562
20
-1.08572
11
1.04244
21
-1.10101
0
LINE
8
BLACK
6
CONTINUOUS
10
1.04244
20
-1.10101
11
1.0424
21
-1.10103
0
LINE
8
BLACK
6
CONTINUOUS
10
1.0424
20
-1.10103
11
1.04238
21
-1.10106
0
LINE
8
BLACK
6
CONTINUOUS
10
1.04238
20
-1.10106
11
1.01491
21
-1.12714
0
LINE
8
BLACK
6
CONTINUOUS
10
1.01491
20
-1.12714
11
1.01488
21
-1.12715
0
LINE
8
BLACK
6
CONTINUOUS
10
1.01488
20
-1.12715
11
1.01487
21
-1.12717
0
LINE
8
BLACK
6
CONTINUOUS
10
1.01487
20
-1.12717
11
0.95845
21
-1.17536
0
LINE
8
BLACK
6
CONTINUOUS
10
0.95845
20
-1.17536
11
0.958424
21
-1.17537
0
LINE
8
BLACK
6
CONTINUOUS
10
0.958424
20
-1.17537
11
0.95841
21
-1.17539
0
LINE
8
BLACK
6
CONTINUOUS
10
0.95841
20
-1.17539
11
0.89954
21
-1.22056
0
LINE
8
BLACK
6
CONTINUOUS
10
0.89954
20
-1.22056
11
0.899526
21
-1.22057
0
LINE
8
BLACK
6
CONTINUOUS
10
0.899526
20
-1.22057
11
0.899519
21
-1.22058
0
LINE
8
BLACK
6
CONTINUOUS
10
0.899519
20
-1.22058
11
0.882874
21
-1.23267
0
LINE
8
BLACK
6
CONTINUOUS
10
0.882874
20
-1.23267
11
0.88286
21
-1.23268
0
LINE
8
BLACK
6
CONTINUOUS
10
0.88286
20
-1.23268
11
0.882852
21
-1.23269
0
LINE
8
BLACK
6
CONTINUOUS
10
0.882852
20
-1.23269
11
0.821699
21
-1.27472
0
LINE
8
BLACK
6
CONTINUOUS
10
0.821699
20
-1.27472
11
0.821672
21
-1.27472
0
LINE
8
BLACK
6
CONTINUOUS
10
0.821672
20
-1.27472
11
0.821656
21
-1.27475
0
LINE
8
BLACK
6
CONTINUOUS
10
0.821656
20
-1.27475
11
0.758388
21
-1.31352
0
LINE
8
BLACK
6
CONTINUOUS
10
0.758388
20
-1.31352
11
0.758361
21
-1.31352
0
LINE
8
BLACK
6
CONTINUOUS
10
0.758361
20
-1.31352
11
0.758344
21
-1.31354
0
LINE
8
BLACK
6
CONTINUOUS
10
0.758344
20
-1.31354
11
0.693135
21
-1.34895
0
LINE
8
BLACK
6
CONTINUOUS
10
0.693135
20
-1.34895
11
0.693107
21
-1.34895
0
LINE
8
BLACK
6
CONTINUOUS
10
0.693107
20
-1.34895
11
0.693089
21
-1.34897
0
LINE
8
BLACK
6
CONTINUOUS
10
0.693089
20
-1.34897
11
0.626113
21
-1.38092
0
LINE
8
BLACK
6
CONTINUOUS
10
0.626113
20
-1.38092
11
0.626099
21
-1.38092
0
LINE
8
BLACK
6
CONTINUOUS
10
0.626099
20
-1.38092
11
0.626089
21
-1.38093
0
LINE
8
BLACK
6
CONTINUOUS
10
0.626089
20
-1.38093
11
0.607294
21
-1.3893
0
LINE
8
BLACK
6
CONTINUOUS
10
0.607294
20
-1.3893
11
0.60728
21
-1.3893
0
LINE
8
BLACK
6
CONTINUOUS
10
0.60728
20
-1.3893
11
0.60727
21
-1.38931
0
LINE
8
BLACK
6
CONTINUOUS
10
0.60727
20
-1.38931
11
0.538715
21
-1.4177
0
LINE
8
BLACK
6
CONTINUOUS
10
0.538715
20
-1.4177
11
0.538688
21
-1.4177
0
LINE
8
BLACK
6
CONTINUOUS
10
0.538688
20
-1.4177
11
0.538667
21
-1.41772
0
LINE
8
BLACK
6
CONTINUOUS
10
0.538667
20
-1.41772
11
0.468718
21
-1.44249
0
LINE
8
BLACK
6
CONTINUOUS
10
0.468718
20
-1.44249
11
0.468691
21
-1.44249
0
LINE
8
BLACK
6
CONTINUOUS
10
0.468691
20
-1.44249
11
0.468669
21
-1.44251
0
LINE
8
BLACK
6
CONTINUOUS
10
0.468669
20
-1.44251
11
0.397523
21
-1.46358
0
LINE
8
BLACK
6
CONTINUOUS
10
0.397523
20
-1.46358
11
0.397496
21
-1.46358
0
LINE
8
BLACK
6
CONTINUOUS
10
0.397496
20
-1.46358
11
0.397474
21
-1.46359
0
LINE
8
BLACK
6
CONTINUOUS
10
0.397474
20
-1.46359
11
0.325322
21
-1.48091
0
LINE
8
BLACK
6
CONTINUOUS
10
0.325322
20
-1.48091
11
0.325308
21
-1.48091
0
LINE
8
BLACK
6
CONTINUOUS
10
0.325308
20
-1.48091
11
0.325297
21
-1.48092
0
LINE
8
BLACK
6
CONTINUOUS
10
0.325297
20
-1.48092
11
0.305171
21
-1.4852
0
LINE
8
BLACK
6
CONTINUOUS
10
0.305171
20
-1.4852
11
0.305157
21
-1.4852
0
LINE
8
BLACK
6
CONTINUOUS
10
0.305157
20
-1.4852
11
0.305145
21
-1.4852
0
LINE
8
BLACK
6
CONTINUOUS
10
0.305145
20
-1.4852
11
0.232186
21
-1.49873
0
LINE
8
BLACK
6
CONTINUOUS
10
0.232186
20
-1.49873
11
0.232159
21
-1.49872
0
LINE
8
BLACK
6
CONTINUOUS
10
0.232159
20
-1.49872
11
0.232135
21
-1.49874
0
LINE
8
BLACK
6
CONTINUOUS
10
0.232135
20
-1.49874
11
0.158567
21
-1.50842
0
LINE
8
BLACK
6
CONTINUOUS
10
0.158567
20
-1.50842
11
0.15854
21
-1.50841
0
LINE
8
BLACK
6
CONTINUOUS
10
0.15854
20
-1.50841
11
0.158516
21
-1.50843
0
LINE
8
BLACK
6
CONTINUOUS
10
0.158516
20
-1.50843
11
0.0845419
21
-1.51425
0
LINE
8
BLACK
6
CONTINUOUS
10
0.0845419
20
-1.51425
11
0.0845156
21
-1.51424
0
LINE
8
BLACK
6
CONTINUOUS
10
0.0845156
20
-1.51424
11
0.0844904
21
-1.51425
0
LINE
8
BLACK
6
CONTINUOUS
10
0.0844904
20
-1.51425
11
0.0103134
21
-1.51619
0
LINE
8
BLACK
6
CONTINUOUS
10
0.0103134
20
-1.51619
11
0.0103004
21
-1.51619
0
LINE
8
BLACK
6
CONTINUOUS
10
0.0103004
20
-1.51619
11
0.0102876
21
-1.51619
0
LINE
8
BLACK
6
CONTINUOUS
10
0.0102876
20
-1.51619
11
-0.0102877
21
-1.51619
0
LINE
8
BLACK
6
CONTINUOUS
10
-0.0102877
20
-1.51619
11
-0.0103005
21
-1.51619
0
LINE
8
BLACK
6
CONTINUOUS
10
-0.0103005
20
-1.51619
11
-0.0103134
21
-1.51619
0
LINE
8
BLACK
6
CONTINUOUS
10
-0.0103134
20
-1.51619
11
-0.0844904
21
-1.51425
0
LINE
8
BLACK
6
CONTINUOUS
10
-0.0844904
20
-1.51425
11
-0.0845156
21
-1.51424
0
LINE
8
BLACK
6
CONTINUOUS
10
-0.0845156
20
-1.51424
11
-0.0845419
21
-1.51425
0
LINE
8
BLACK
6
CONTINUOUS
10
-0.0845419
20
-1.51425
11
-0.158516
21
-1.50843
0
LINE
8
BLACK
6
CONTINUOUS
10
-0.158516
20
-1.50843
11
-0.15854
21
-1.50841
0
LINE
8
BLACK
6
CONTINUOUS
10
-0.15854
20
-1.50841
11
-0.158567
21
-1.50842
0
LINE
8
BLACK
6
CONTINUOUS
10
-0.158567
20
-1.50842
11
-0.232135
21
-1.49874
0
LINE
8
BLACK
6
CONTINUOUS
10
-0.232135
20
-1.49874
11
-0.232159
21
-1.49872
0
LINE
8
BLACK
6
CONTINUOUS
10
-0.232159
20
-1.49872
11
-0.232186
21
-1.49873
0
LINE
8
BLACK
6
CONTINUOUS
10
-0.232186
20
-1.49873
11
-0.305146
21
-1.4852
0
LINE
8
BLACK
6
CONTINUOUS
10
-0.305146
20
-1.4852
11
-0.305157
21
-1.4852
0
LINE
8
BLACK
6
CONTINUOUS
10
-0.305157
20
-1.4852
11
-0.305171
21
-1.4852
0
LINE
8
BLACK
6
CONTINUOUS
10
-0.305171
20
-1.4852
11
-0.325297
21
-1.48092
0
LINE
8
BLACK
6
CONTINUOUS
10
-0.325297
20
-1.48092
11
-0.325309
21
-1.48091
0
LINE
8
BLACK
6
CONTINUOUS
10
-0.325309
20
-1.48091
11
-0.325322
21
-1.48091
0
LINE
8
BLACK
6
CONTINUOUS
10
-0.325322
20
-1.48091
11
-0.397474
21
-1.46359
0
LINE
8
BLACK
6
CONTINUOUS
10
-0.397474
20
-1.46359
11
-0.397496
21
-1.46358
0
LINE
8
BLACK
6
CONTINUOUS
10
-0.397496
20
-1.46358
11
-0.397524
21
-1.46358
0
LINE
8
BLACK
6
CONTINUOUS
10
-0.397524
20
-1.46358
11
-0.468669
21
-1.44251
0
LINE
8
BLACK
6
CONTINUOUS
10
-0.468669
20
-1.44251
11
-0.468691
21
-1.44249
0
LINE
8
BLACK
6
CONTINUOUS
10
-0.468691
20
-1.44249
11
-0.468718
21
-1.44249
0
LINE
8
BLACK
6
CONTINUOUS
10
-0.468718
20
-1.44249
11
-0.538667
21
-1.41772
0
LINE
8
BLACK
6
CONTINUOUS
10
-0.538667
20
-1.41772
11
-0.538688
21
-1.4177
0
LINE
8
BLACK
6
CONTINUOUS
10
-0.538688
20
-1.4177
11
-0.538715
21
-1.4177
0
LINE
8
BLACK
6
CONTINUOUS
10
-0.538715
20
-1.4177
11
-0.60727
21
-1.38931
0
LINE
8
BLACK
6
CONTINUOUS
10
-0.60727
20
-1.38931
11
-0.60728
21
-1.3893
0
LINE
8
BLACK
6
CONTINUOUS
10
-0.60728
20
-1.3893
11
-0.607294
21
-1.3893
0
LINE
8
BLACK
6
CONTINUOUS
10
-0.607294
20
-1.3893
11
-0.626089
21
-1.38093
0
LINE
8
BLACK
6
CONTINUOUS
10
-0.626089
20
-1.38093
11
-0.626099
21
-1.38092
0
LINE
8
BLACK
6
CONTINUOUS
10
-0.626099
20
-1.38092
11
-0.626113
21
-1.38092
0
LINE
8
BLACK
6
CONTINUOUS
10
-0.626113
20
-1.38092
11
-0.693089
21
-1.34897
0
LINE
8
BLACK
6
CONTINUOUS
10
-0.693089
20
-1.34897
11
-0.693108
21
-1.34895
0
LINE
8
BLACK
6
CONTINUOUS
10
-0.693108
20
-1.34895
11
-0.693135
21
-1.34895
0
LINE
8
BLACK
6
CONTINUOUS
10
-0.693135
20
-1.34895
11
-0.758344
21
-1.31354
0
LINE
8
BLACK
6
CONTINUOUS
10
-0.758344
20
-1.31354
11
-0.758361
21
-1.31352
0
LINE
8
BLACK
6
CONTINUOUS
10
-0.758361
20
-1.31352
11
-0.758388
21
-1.31352
0
LINE
8
BLACK
6
CONTINUOUS
10
-0.758388
20
-1.31352
11
-0.821656
21
-1.27474
0
LINE
8
BLACK
6
CONTINUOUS
10
-0.821656
20
-1.27474
11
-0.821672
21
-1.27472
0
LINE
8
BLACK
6
CONTINUOUS
10
-0.821672
20
-1.27472
11
-0.821699
21
-1.27472
0
LINE
8
BLACK
6
CONTINUOUS
10
-0.821699
20
-1.27472
11
-0.882853
21
-1.23269
0
LINE
8
BLACK
6
CONTINUOUS
10
-0.882853
20
-1.23269
11
-0.88286
21
-1.23268
0
LINE
8
BLACK
6
CONTINUOUS
10
-0.88286
20
-1.23268
11
-0.882874
21
-1.23267
0
LINE
8
BLACK
6
CONTINUOUS
10
-0.882874
20
-1.23267
11
-0.899519
21
-1.22058
0
LINE
8
BLACK
6
CONTINUOUS
10
-0.899519
20
-1.22058
11
-0.899527
21
-1.22057
0
LINE
8
BLACK
6
CONTINUOUS
10
-0.899527
20
-1.22057
11
-0.89954
21
-1.22056
0
LINE
8
BLACK
6
CONTINUOUS
10
-0.89954
20
-1.22056
11
-0.95841
21
-1.17539
0
LINE
8
BLACK
6
CONTINUOUS
10
-0.95841
20
-1.17539
11
-0.958424
21
-1.17537
0
LINE
8
BLACK
6
CONTINUOUS
10
-0.958424
20
-1.17537
11
-0.95845
21
-1.17536
0
LINE
8
BLACK
6
CONTINUOUS
10
-0.95845
20
-1.17536
11
-1.01487
21
-1.12717
0
LINE
8
BLACK
6
CONTINUOUS
10
-1.01487
20
-1.12717
11
-1.01488
21
-1.12715
0
LINE
8
BLACK
6
CONTINUOUS
10
-1.01488
20
-1.12715
11
-1.01491
21
-1.12714
0
LINE
8
BLACK
6
CONTINUOUS
10
-1.01491
20
-1.12714
11
-1.04238
21
-1.10106
0
LINE
8
BLACK
6
CONTINUOUS
10
-1.04238
20
-1.10106
11
-1.0424
21
-1.10103
0
LINE
8
BLACK
6
CONTINUOUS
10
-1.0424
20
-1.10103
11
-1.04244
21
-1.10101
0
LINE
8
BLACK
6
CONTINUOUS
10
-1.04244
20
-1.10101
11
-1.0562
21
-1.08572
0
LINE
8
BLACK
6
CONTINUOUS
10
-1.0562
20
-1.08572
11
-1.05624
21
-1.08562
0
LINE
8
BLACK
6
CONTINUOUS
10
-1.05624
20
-1.08562
11
-1.05632
21
-1.08555
0
LINE
8
BLACK
6
CONTINUOUS
10
-1.05632
20
-1.08555
11
-1.06661
21
-1.06773
0
LINE
8
BLACK
6
CONTINUOUS
10
-1.06661
20
-1.06773
11
-1.06663
21
-1.06763
0
LINE
8
BLACK
6
CONTINUOUS
10
-1.06663
20
-1.06763
11
-1.0667
21
-1.06754
0
LINE
8
BLACK
6
CONTINUOUS
10
-1.0667
20
-1.06754
11
-1.07306
21
-1.04797
0
LINE
8
BLACK
6
CONTINUOUS
10
-1.07306
20
-1.04797
11
-1.07305
21
-1.04787
0
LINE
8
BLACK
6
CONTINUOUS
10
-1.07305
20
-1.04787
11
-1.0731
21
-1.04777
0
LINE
8
BLACK
6
CONTINUOUS
10
-1.0731
20
-1.04777
11
-1.07525
21
-1.02731
0
LINE
8
BLACK
6
CONTINUOUS
10
-1.07525
20
-1.02731
11
-1.07522
21
-1.0272
0
LINE
8
BLACK
6
CONTINUOUS
10
-1.07522
20
-1.0272
11
-1.07525
21
-1.0271
0
LINE
8
BLACK
6
CONTINUOUS
10
-1.07525
20
-1.0271
11
-1.0731
21
-1.00664
0
LINE
8
BLACK
6
CONTINUOUS
10
-1.0731
20
-1.00664
11
-1.07305
21
-1.00655
0
LINE
8
BLACK
6
CONTINUOUS
10
-1.07305
20
-1.00655
11
-1.07306
21
-1.00644
0
LINE
8
BLACK
6
CONTINUOUS
10
-1.07306
20
-1.00644
11
-1.0667
21
-0.986869
0
LINE
8
BLACK
6
CONTINUOUS
10
-1.0667
20
-0.986869
11
-1.06663
21
-0.986788
0
LINE
8
BLACK
6
CONTINUOUS
10
-1.06663
20
-0.986788
11
-1.06661
21
-0.986681
0
LINE
8
BLACK
6
CONTINUOUS
10
-1.06661
20
-0.986681
11
-1.05632
21
-0.968862
0
LINE
8
BLACK
6
CONTINUOUS
10
-1.05632
20
-0.968862
11
-1.05624
21
-0.968797
0
LINE
8
BLACK
6
CONTINUOUS
10
-1.05624
20
-0.968797
11
-1.0562
21
-0.968696
0
LINE
8
BLACK
6
CONTINUOUS
10
-1.0562
20
-0.968696
11
-1.04244
21
-0.953404
0
LINE
8
BLACK
6
CONTINUOUS
10
-1.04244
20
-0.953404
11
-1.04242
21
-0.953398
0
LINE
8
BLACK
6
CONTINUOUS
10
-1.04242
20
-0.953398
11
-1.04242
21
-0.953385
0
LINE
8
BLACK
6
CONTINUOUS
10
-1.04242
20
-0.953385
11
-0.814721
21
-0.713704
0
LINE
8
BLACK
6
CONTINUOUS
10
-0.814721
20
-0.713704
11
-0.814636
21
-0.713666
0
LINE
8
BLACK
6
CONTINUOUS
10
-0.814636
20
-0.713666
11
-0.814586
21
-0.713586
0
LINE
8
BLACK
6
CONTINUOUS
10
-0.814586
20
-0.713586
11
-0.797941
21
-0.701491
0
LINE
8
BLACK
6
CONTINUOUS
10
-0.797941
20
-0.701491
11
-0.797836
21
-0.701466
0
LINE
8
BLACK
6
CONTINUOUS
10
-0.797836
20
-0.701466
11
-0.797763
21
-0.701388
0
LINE
8
BLACK
6
CONTINUOUS
10
-0.797763
20
-0.701388
11
-0.778963
21
-0.693018
0
LINE
8
BLACK
6
CONTINUOUS
10
-0.778963
20
-0.693018
11
-0.778856
21
-0.693015
0
LINE
8
BLACK
6
CONTINUOUS
10
-0.778856
20
-0.693015
11
-0.778768
21
-0.692955
0
LINE
8
BLACK
6
CONTINUOUS
10
-0.778768
20
-0.692955
11
-0.758642
21
-0.688675
0
LINE
8
BLACK
6
CONTINUOUS
10
-0.758642
20
-0.688675
11
-0.758536
21
-0.688695
0
LINE
8
BLACK
6
CONTINUOUS
10
-0.758536
20
-0.688695
11
-0.758437
21
-0.688654
0
LINE
8
BLACK
6
CONTINUOUS
10
-0.758437
20
-0.688654
11
-0.737858
21
-0.688654
0
LINE
8
BLACK
6
CONTINUOUS
10
-0.737858
20
-0.688654
11
-0.737759
21
-0.688695
0
LINE
8
BLACK
6
CONTINUOUS
10
0.398462
20
-0.557048
11
0.401017
21
-0.558755
0
LINE
8
BLACK
6
CONTINUOUS
10
0.401017
20
-0.558755
11
0.402723
21
-0.56131
0
LINE
8
BLACK
6
CONTINUOUS
10
0.402723
20
-0.56131
11
0.403323
21
-0.564323
0
LINE
8
BLACK
6
CONTINUOUS
10
0.403323
20
-0.564323
11
0.403323
21
-0.624323
0
LINE
8
BLACK
6
CONTINUOUS
10
0.403323
20
-0.624323
11
0.402723
21
-0.627336
0
LINE
8
BLACK
6
CONTINUOUS
10
0.402723
20
-0.627336
11
0.401017
21
-0.629891
0
LINE
8
BLACK
6
CONTINUOUS
10
0.401017
20
-0.629891
11
0.398462
21
-0.631597
0
LINE
8
BLACK
6
CONTINUOUS
10
0.398462
20
-0.631597
11
0.395449
21
-0.632197
0
LINE
8
BLACK
6
CONTINUOUS
10
0.395449
20
-0.632197
11
0.335449
21
-0.632197
0
LINE
8
BLACK
6
CONTINUOUS
10
0.335449
20
-0.632197
11
0.332436
21
-0.631597
0
LINE
8
BLACK
6
CONTINUOUS
10
0.332436
20
-0.631597
11
0.329881
21
-0.629891
0
LINE
8
BLACK
6
CONTINUOUS
10
0.329881
20
-0.629891
11
0.328174
21
-0.627336
0
LINE
8
BLACK
6
CONTINUOUS
10
0.328174
20
-0.627336
11
0.327575
21
-0.624323
0
LINE
8
BLACK
6
CONTINUOUS
10
0.327575
20
-0.624323
11
0.327575
21
-0.564323
0
LINE
8
BLACK
6
CONTINUOUS
10
0.327575
20
-0.564323
11
0.328174
21
-0.56131
0
LINE
8
BLACK
6
CONTINUOUS
10
0.328174
20
-0.56131
11
0.329881
21
-0.558755
0
LINE
8
BLACK
6
CONTINUOUS
10
0.329881
20
-0.558755
11
0.332436
21
-0.557048
0
LINE
8
BLACK
6
CONTINUOUS
10
0.332436
20
-0.557048
11
0.335449
21
-0.556449
0
LINE
8
BLACK
6
CONTINUOUS
10
0.335449
20
-0.556449
11
0.395449
21
-0.556449
0
LINE
8
BLACK
6
CONTINUOUS
10
0.395449
20
-0.556449
11
0.398462
21
-0.557048
0
LINE
8
BLACK
6
CONTINUOUS
10
0.498462
20
-0.557048
11
0.501017
21
-0.558755
0
LINE
8
BLACK
6
CONTINUOUS
10
0.501017
20
-0.558755
11
0.502723
21
-0.56131
0
LINE
8
BLACK
6
CONTINUOUS
10
0.502723
20
-0.56131
11
0.503323
21
-0.564323
0
LINE
8
BLACK
6
CONTINUOUS
10
0.503323
20
-0.564323
11
0.503323
21
-0.624323
0
LINE
8
BLACK
6
CONTINUOUS
10
0.503323
20
-0.624323
11
0.502723
21
-0.627336
0
LINE
8
BLACK
6
CONTINUOUS
10
0.502723
20
-0.627336
11
0.501017
21
-0.629891
0
LINE
8
BLACK
6
CONTINUOUS
10
0.501017
20
-0.629891
11
0.498462
21
-0.631597
0
LINE
8
BLACK
6
CONTINUOUS
10
0.498462
20
-0.631597
11
0.495449
21
-0.632197
0
LINE
8
BLACK
6
CONTINUOUS
10
0.495449
20
-0.632197
11
0.435449
21
-0.632197
0
LINE
8
BLACK
6
CONTINUOUS
10
0.435449
20
-0.632197
11
0.432436
21
-0.631597
0
LINE
8
BLACK
6
CONTINUOUS
10
0.432436
20
-0.631597
11
0.429881
21
-0.629891
0
LINE
8
BLACK
6
CONTINUOUS
10
0.429881
20
-0.629891
11
0.428174
21
-0.627336
0
LINE
8
BLACK
6
CONTINUOUS
10
0.428174
20
-0.627336
11
0.427575
21
-0.624323
0
LINE
8
BLACK
6
CONTINUOUS
10
0.427575
20
-0.624323
11
0.427575
21
-0.564323
0
LINE
8
BLACK
6
CONTINUOUS
10
0.427575
20
-0.564323
11
0.428174
21
-0.56131
0
LINE
8
BLACK
6
CONTINUOUS
10
0.428174
20
-0.56131
11
0.429881
21
-0.558755
0
LINE
8
BLACK
6
CONTINUOUS
10
0.429881
20
-0.558755
11
0.432436
21
-0.557048
0
LINE
8
BLACK
6
CONTINUOUS
10
0.432436
20
-0.557048
11
0.435449
21
-0.556449
0
LINE
8
BLACK
6
CONTINUOUS
10
0.435449
20
-0.556449
11
0.495449
21
-0.556449
0
LINE
8
BLACK
6
CONTINUOUS
10
0.495449
20
-0.556449
11
0.498462
21
-0.557048
0
LINE
8
BLACK
6
CONTINUOUS
10
0.598462
20
-0.557048
11
0.601017
21
-0.558755
0
LINE
8
BLACK
6
CONTINUOUS
10
0.601017
20
-0.558755
11
0.602723
21
-0.56131
0
LINE
8
BLACK
6
CONTINUOUS
10
0.602723
20
-0.56131
11
0.603323
21
-0.564323
0
LINE
8
BLACK
6
CONTINUOUS
10
0.603323
20
-0.564323
11
0.603323
21
-0.624323
0
LINE
8
BLACK
6
CONTINUOUS
10
0.603323
20
-0.624323
11
0.602723
21
-0.627336
0
LINE
8
BLACK
6
CONTINUOUS
10
0.602723
20
-0.627336
11
0.601017
21
-0.629891
0
LINE
8
BLACK
6
CONTINUOUS
10
0.601017
20
-0.629891
11
0.598462
21
-0.631597
0
LINE
8
BLACK
6
CONTINUOUS
10
0.598462
20
-0.631597
11
0.595449
21
-0.632197
0
LINE
8
BLACK
6
CONTINUOUS
10
0.595449
20
-0.632197
11
0.535449
21
-0.632197
0
LINE
8
BLACK
6
CONTINUOUS
10
0.535449
20
-0.632197
11
0.532436
21
-0.631597
0
LINE
8
BLACK
6
CONTINUOUS
10
0.532436
20
-0.631597
11
0.529881
21
-0.629891
0
LINE
8
BLACK
6
CONTINUOUS
10
0.529881
20
-0.629891
11
0.528174
21
-0.627336
0
LINE
8
BLACK
6
CONTINUOUS
10
0.528174
20
-0.627336
11
0.527575
21
-0.624323
0
LINE
8
BLACK
6
CONTINUOUS
10
0.527575
20
-0.624323
11
0.527575
21
-0.564323
0
LINE
8
BLACK
6
CONTINUOUS
10
0.527575
20
-0.564323
11
0.528174
21
-0.56131
0
LINE
8
BLACK
6
CONTINUOUS
10
0.528174
20
-0.56131
11
0.529881
21
-0.558755
0
LINE
8
BLACK
6
CONTINUOUS
10
0.529881
20
-0.558755
11
0.532436
21
-0.557048
0
LINE
8
BLACK
6
CONTINUOUS
10
0.532436
20
-0.557048
11
0.535449
21
-0.556449
0
LINE
8
BLACK
6
CONTINUOUS
10
0.535449
20
-0.556449
11
0.595449
21
-0.556449
0
LINE
8
BLACK
6
CONTINUOUS
10
0.595449
20
-0.556449
11
0.598462
21
-0.557048
0
LINE
8
BLACK
6
CONTINUOUS
10
0.398462
20
-0.457048
11
0.401017
21
-0.458755
0
LINE
8
BLACK
6
CONTINUOUS
10
0.401017
20
-0.458755
11
0.402723
21
-0.46131
0
LINE
8
BLACK
6
CONTINUOUS
10
0.402723
20
-0.46131
11
0.403323
21
-0.464323
0
LINE
8
BLACK
6
CONTINUOUS
10
0.403323
20
-0.464323
11
0.403323
21
-0.524323
0
LINE
8
BLACK
6
CONTINUOUS
10
0.403323
20
-0.524323
11
0.402723
21
-0.527336
0
LINE
8
BLACK
6
CONTINUOUS
10
0.402723
20
-0.527336
11
0.401017
21
-0.529891
0
LINE
8
BLACK
6
CONTINUOUS
10
0.401017
20
-0.529891
11
0.398462
21
-0.531597
0
LINE
8
BLACK
6
CONTINUOUS
10
0.398462
20
-0.531597
11
0.395449
21
-0.532197
0
LINE
8
BLACK
6
CONTINUOUS
10
0.395449
20
-0.532197
11
0.335449
21
-0.532197
0
LINE
8
BLACK
6
CONTINUOUS
10
0.335449
20
-0.532197
11
0.332436
21
-0.531597
0
LINE
8
BLACK
6
CONTINUOUS
10
0.332436
20
-0.531597
11
0.329881
21
-0.529891
0
LINE
8
BLACK
6
CONTINUOUS
10
0.329881
20
-0.529891
11
0.328174
21
-0.527336
0
LINE
8
BLACK
6
CONTINUOUS
10
0.328174
20
-0.527336
11
0.327575
21
-0.524323
0
LINE
8
BLACK
6
CONTINUOUS
10
0.327575
20
-0.524323
11
0.327575
21
-0.464323
0
LINE
8
BLACK
6
CONTINUOUS
10
0.327575
20
-0.464323
11
0.328174
21
-0.46131
0
LINE
8
BLACK
6
CONTINUOUS
10
0.328174
20
-0.46131
11
0.329881
21
-0.458755
0
LINE
8
BLACK
6
CONTINUOUS
10
0.329881
20
-0.458755
11
0.332436
21
-0.457048
0
LINE
8
BLACK
6
CONTINUOUS
10
0.332436
20
-0.457048
11
0.335449
21
-0.456449
0
LINE
8
BLACK
6
CONTINUOUS
10
0.335449
20
-0.456449
11
0.395449
21
-0.456449
0
LINE
8
BLACK
6
CONTINUOUS
10
0.395449
20
-0.456449
11
0.398462
21
-0.457048
0
LINE
8
BLACK
6
CONTINUOUS
10
0.498462
20
-0.457048
11
0.501017
21
-0.458755
0
LINE
8
BLACK
6
CONTINUOUS
10
0.501017
20
-0.458755
11
0.502723
21
-0.46131
0
LINE
8
BLACK
6
CONTINUOUS
10
0.502723
20
-0.46131
11
0.503323
21
-0.464323
0
LINE
8
BLACK
6
CONTINUOUS
10
0.503323
20
-0.464323
11
0.503323
21
-0.524323
0
LINE
8
BLACK
6
CONTINUOUS
10
0.503323
20
-0.524323
11
0.502723
21
-0.527336
0
LINE
8
BLACK
6
CONTINUOUS
10
0.502723
20
-0.527336
11
0.501017
21
-0.529891
0
LINE
8
BLACK
6
CONTINUOUS
10
0.501017
20
-0.529891
11
0.498462
21
-0.531597
0
LINE
8
BLACK
6
CONTINUOUS
10
0.498462
20
-0.531597
11
0.495449
21
-0.532197
0
LINE
8
BLACK
6
CONTINUOUS
10
0.495449
20
-0.532197
11
0.435449
21
-0.532197
0
LINE
8
BLACK
6
CONTINUOUS
10
0.435449
20
-0.532197
11
0.432436
21
-0.531597
0
LINE
8
BLACK
6
CONTINUOUS
10
0.432436
20
-0.531597
11
0.429881
21
-0.529891
0
LINE
8
BLACK
6
CONTINUOUS
10
0.429881
20
-0.529891
11
0.428174
21
-0.527336
0
LINE
8
BLACK
6
CONTINUOUS
10
0.428174
20
-0.527336
11
0.427575
21
-0.524323
0
LINE
8
BLACK
6
CONTINUOUS
10
0.427575
20
-0.524323
11
0.427575
21
-0.464323
0
LINE
8
BLACK
6
CONTINUOUS
10
0.427575
20
-0.464323
11
0.428174
21
-0.46131
0
LINE
8
BLACK
6
CONTINUOUS
10
0.428174
20
-0.46131
11
0.429881
21
-0.458755
0
LINE
8
BLACK
6
CONTINUOUS
10
0.429881
20
-0.458755
11
0.432436
21
-0.457048
0
LINE
8
BLACK
6
CONTINUOUS
10
0.432436
20
-0.457048
11
0.435449
21
-0.456449
0
LINE
8
BLACK
6
CONTINUOUS
10
0.435449
20
-0.456449
11
0.495449
21
-0.456449
0
LINE
8
BLACK
6
CONTINUOUS
10
0.495449
20
-0.456449
11
0.498462
21
-0.457048
0
LINE
8
BLACK
6
CONTINUOUS
10
0.598462
20
-0.457048
11
0.601017
21
-0.458755
0
LINE
8
BLACK
6
CONTINUOUS
10
0.601017
20
-0.458755
11
0.602723
21
-0.46131
0
LINE
8
BLACK
6
CONTINUOUS
10
0.602723
20
-0.46131
11
0.603323
21
-0.464323
0
LINE
8
BLACK
6
CONTINUOUS
10
0.603323
20
-0.464323
11
0.603323
21
-0.524323
0
LINE
8
BLACK
6
CONTINUOUS
10
0.603323
20
-0.524323
11
0.602723
21
-0.527336
0
LINE
8
BLACK
6
CONTINUOUS
10
0.602723
20
-0.527336
11
0.601017
21
-0.529891
0
LINE
8
BLACK
6
CONTINUOUS
10
0.601017
20
-0.529891
11
0.598462
21
-0.531597
0
LINE
8
BLACK
6
CONTINUOUS
10
0.598462
20
-0.531597
11
0.595449
21
-0.532197
0
LINE
8
BLACK
6
CONTINUOUS
10
0.595449
20
-0.532197
11
0.535449
21
-0.532197
0
LINE
8
BLACK
6
CONTINUOUS
10
0.535449
20
-0.532197
11
0.532436
21
-0.531597
0
LINE
8
BLACK
6
CONTINUOUS
10
0.532436
20
-0.531597
11
0.529881
21
-0.529891
0
LINE
8
BLACK
6
CONTINUOUS
10
0.529881
20
-0.529891
11
0.528174
21
-0.527336
0
LINE
8
BLACK
6
CONTINUOUS
10
0.528174
20
-0.527336
11
0.527575
21
-0.524323
0
LINE
8
BLACK
6
CONTINUOUS
10
0.527575
20
-0.524323
11
0.527575
21
-0.464323
0
LINE
8
BLACK
6
CONTINUOUS
10
0.527575
20
-0.464323
11
0.528174
21
-0.46131
0
LINE
8
BLACK
6
CONTINUOUS
10
0.528174
20
-0.46131
11
0.529881
21
-0.458755
0
LINE
8
BLACK
6
CONTINUOUS
10
0.529881
20
-0.458755
11
0.532436
21
-0.457048
0
LINE
8
BLACK
6
CONTINUOUS
10
0.532436
20
-0.457048
11
0.535449
21
-0.456449
0
LINE
8
BLACK
6
CONTINUOUS
10
0.535449
20
-0.456449
11
0.595449
21
-0.456449
0
LINE
8
BLACK
6
CONTINUOUS
10
0.595449
20
-0.456449
11
0.598462
21
-0.457048
0
LINE
8
BLACK
6
CONTINUOUS
10
-0.725249
20
-0.35761
11
-0.722494
21
-0.358968
0
LINE
8
BLACK
6
CONTINUOUS
10
-0.722494
20
-0.358968
11
-0.720468
21
-0.361278
0
LINE
8
BLACK
6
CONTINUOUS
10
-0.720468
20
-0.361278
11
-0.701767
21
-0.393669
0
LINE
8
BLACK
6
CONTINUOUS
10
-0.701767
20
-0.393669
11
-0.70078
21
-0.396578
0
LINE
8
BLACK
6
CONTINUOUS
10
-0.70078
20
-0.396578
11
-0.700981
21
-0.399644
0
LINE
8
BLACK
6
CONTINUOUS
10
-0.700981
20
-0.399644
11
-0.70125
21
-0.400189
0
LINE
8
BLACK
6
CONTINUOUS
10
-0.70125
20
-0.400189
11
-0.700643
21
-0.400229
0
LINE
8
BLACK
6
CONTINUOUS
10
-0.700643
20
-0.400229
11
-0.697887
21
-0.401588
0
LINE
8
BLACK
6
CONTINUOUS
10
-0.697887
20
-0.401588
11
-0.695862
21
-0.403898
0
LINE
8
BLACK
6
CONTINUOUS
10
-0.695862
20
-0.403898
11
-0.673224
21
-0.443108
0
LINE
8
BLACK
6
CONTINUOUS
10
-0.673224
20
-0.443108
11
-0.672236
21
-0.446017
0
LINE
8
BLACK
6
CONTINUOUS
10
-0.672236
20
-0.446017
11
-0.672437
21
-0.449082
0
LINE
8
BLACK
6
CONTINUOUS
10
-0.672437
20
-0.449082
11
-0.673796
21
-0.451838
0
LINE
8
BLACK
6
CONTINUOUS
10
-0.673796
20
-0.451838
11
-0.676106
21
-0.453864
0
LINE
8
BLACK
6
CONTINUOUS
10
-0.676106
20
-0.453864
11
-0.709179
21
-0.472958
0
LINE
8
BLACK
6
CONTINUOUS
10
-0.709179
20
-0.472958
11
-0.712088
21
-0.473946
0
LINE
8
BLACK
6
CONTINUOUS
10
-0.712088
20
-0.473946
11
-0.715154
21
-0.473745
0
LINE
8
BLACK
6
CONTINUOUS
10
-0.715154
20
-0.473745
11
-0.715381
21
-0.473632
0
LINE
8
BLACK
6
CONTINUOUS
10
-0.715381
20
-0.473632
11
-0.715398
21
-0.473886
0
LINE
8
BLACK
6
CONTINUOUS
10
-0.715398
20
-0.473886
11
-0.716756
21
-0.476641
0
LINE
8
BLACK
6
CONTINUOUS
10
-0.716756
20
-0.476641
11
-0.719066
21
-0.478667
0
LINE
8
BLACK
6
CONTINUOUS
10
-0.719066
20
-0.478667
11
-0.748048
21
-0.495399
0
LINE
8
BLACK
6
CONTINUOUS
10
-0.748048
20
-0.495399
11
-0.750957
21
-0.496387
0
LINE
8
BLACK
6
CONTINUOUS
10
-0.750957
20
-0.496387
11
-0.754022
21
-0.496186
0
LINE
8
BLACK
6
CONTINUOUS
10
-0.754022
20
-0.496186
11
-0.756778
21
-0.494827
0
LINE
8
BLACK
6
CONTINUOUS
10
-0.756778
20
-0.494827
11
-0.758804
21
-0.492517
0
LINE
8
BLACK
6
CONTINUOUS
10
-0.758804
20
-0.492517
11
-0.781441
21
-0.453307
0
LINE
8
BLACK
6
CONTINUOUS
10
-0.781441
20
-0.453307
11
-0.782429
21
-0.450398
0
LINE
8
BLACK
6
CONTINUOUS
10
-0.782429
20
-0.450398
11
-0.782228
21
-0.447332
0
LINE
8
BLACK
6
CONTINUOUS
10
-0.782228
20
-0.447332
11
-0.781959
21
-0.446787
0
LINE
8
BLACK
6
CONTINUOUS
10
-0.781959
20
-0.446787
11
-0.782566
21
-0.446747
0
LINE
8
BLACK
6
CONTINUOUS
10
-0.782566
20
-0.446747
11
-0.785321
21
-0.445388
0
LINE
8
BLACK
6
CONTINUOUS
10
-0.785321
20
-0.445388
11
-0.787347
21
-0.443079
0
LINE
8
BLACK
6
CONTINUOUS
10
-0.787347
20
-0.443079
11
-0.806048
21
-0.410688
0
LINE
8
BLACK
6
CONTINUOUS
10
-0.806048
20
-0.410688
11
-0.807035
21
-0.407779
0
LINE
8
BLACK
6
CONTINUOUS
10
-0.807035
20
-0.407779
11
-0.806834
21
-0.404713
0
LINE
8
BLACK
6
CONTINUOUS
10
-0.806834
20
-0.404713
11
-0.805476
21
-0.401957
0
LINE
8
BLACK
6
CONTINUOUS
10
-0.805476
20
-0.401957
11
-0.803166
21
-0.399932
0
LINE
8
BLACK
6
CONTINUOUS
10
-0.803166
20
-0.399932
11
-0.774184
21
-0.383199
0
LINE
8
BLACK
6
CONTINUOUS
10
-0.774184
20
-0.383199
11
-0.771275
21
-0.382212
0
LINE
8
BLACK
6
CONTINUOUS
10
-0.771275
20
-0.382212
11
-0.76821
21
-0.382413
0
LINE
8
BLACK
6
CONTINUOUS
10
-0.76821
20
-0.382413
11
-0.767982
21
-0.382525
0
LINE
8
BLACK
6
CONTINUOUS
10
-0.767982
20
-0.382525
11
-0.767966
21
-0.382272
0
LINE
8
BLACK
6
CONTINUOUS
10
-0.767966
20
-0.382272
11
-0.766607
21
-0.379516
0
LINE
8
BLACK
6
CONTINUOUS
10
-0.766607
20
-0.379516
11
-0.764297
21
-0.377491
0
LINE
8
BLACK
6
CONTINUOUS
10
-0.764297
20
-0.377491
11
-0.731224
21
-0.358396
0
LINE
8
BLACK
6
CONTINUOUS
10
-0.731224
20
-0.358396
11
-0.728315
21
-0.357409
0
LINE
8
BLACK
6
CONTINUOUS
10
-0.728315
20
-0.357409
11
-0.725249
21
-0.35761
0
LINE
8
BLACK
6
CONTINUOUS
10
-0.743941
20
-0.424447
11
-0.74421
21
-0.424992
0
LINE
8
BLACK
6
CONTINUOUS
10
-0.74421
20
-0.424992
11
-0.743603
21
-0.425032
0
LINE
8
BLACK
6
CONTINUOUS
10
-0.743603
20
-0.425032
11
-0.743376
21
-0.425144
0
LINE
8
BLACK
6
CONTINUOUS
10
-0.743376
20
-0.425144
11
-0.743359
21
-0.424891
0
LINE
8
BLACK
6
CONTINUOUS
10
-0.743359
20
-0.424891
11
-0.74309
21
-0.424346
0
LINE
8
BLACK
6
CONTINUOUS
10
-0.74309
20
-0.424346
11
-0.743697
21
-0.424306
0
LINE
8
BLACK
6
CONTINUOUS
10
-0.743697
20
-0.424306
11
-0.743924
21
-0.424194
0
LINE
8
BLACK
6
CONTINUOUS
10
-0.743924
20
-0.424194
11
-0.743941
21
-0.424447
0
LINE
8
BLACK
6
CONTINUOUS
10
-0.440294
20
0.0932001
11
-0.440164
21
0.0932229
0
LINE
8
BLACK
6
CONTINUOUS
10
-0.440164
20
0.0932229
11
-0.440051
21
0.0931573
0
LINE
8
BLACK
6
CONTINUOUS
10
-0.440051
20
0.0931573
11
-0.439667
21
0.0930896
0
LINE
8
BLACK
6
CONTINUOUS
10
-0.439667
20
0.0930896
11
-0.43908
21
0.0925965
0
LINE
8
BLACK
6
CONTINUOUS
10
-0.43908
20
0.0925965
11
-0.438415
21
0.092213
0
LINE
8
BLACK
6
CONTINUOUS
10
-0.438415
20
0.092213
11
-0.438324
21
0.0919626
0
LINE
8
BLACK
6
CONTINUOUS
10
-0.438324
20
0.0919626
11
-0.43812
21
0.0917913
0
LINE
8
BLACK
6
CONTINUOUS
10
-0.43812
20
0.0917913
11
-0.437987
21
0.0910358
0
LINE
8
BLACK
6
CONTINUOUS
10
-0.437987
20
0.0910358
11
-0.437724
21
0.090315
0
LINE
8
BLACK
6
CONTINUOUS
10
-0.437724
20
0.090315
11
-0.437724
21
0.0637402
0
LINE
8
BLACK
6
CONTINUOUS
10
-0.437724
20
0.0637402
11
-0.295008
21
0.0637402
0
LINE
8
BLACK
6
CONTINUOUS
10
-0.295008
20
0.0637402
11
-0.294624
21
0.0636726
0
LINE
8
BLACK
6
CONTINUOUS
10
-0.294624
20
0.0636726
11
-0.294495
21
0.0636953
0
LINE
8
BLACK
6
CONTINUOUS
10
-0.294495
20
0.0636953
11
-0.294382
21
0.0636297
0
LINE
8
BLACK
6
CONTINUOUS
10
-0.294382
20
0.0636297
11
-0.293998
21
0.0635621
0
LINE
8
BLACK
6
CONTINUOUS
10
-0.293998
20
0.0635621
11
-0.29341
21
0.063069
0
LINE
8
BLACK
6
CONTINUOUS
10
-0.29341
20
0.063069
11
-0.292746
21
0.0626854
0
LINE
8
BLACK
6
CONTINUOUS
10
-0.292746
20
0.0626854
11
-0.292655
21
0.0624351
0
LINE
8
BLACK
6
CONTINUOUS
10
-0.292655
20
0.0624351
11
-0.292451
21
0.0622638
0
LINE
8
BLACK
6
CONTINUOUS
10
-0.292451
20
0.0622638
11
-0.292317
21
0.0615082
0
LINE
8
BLACK
6
CONTINUOUS
10
-0.292317
20
0.0615082
11
-0.292055
21
0.0607874
0
LINE
8
BLACK
6
CONTINUOUS
10
-0.292055
20
0.0607874
11
-0.292055
21
-0.0612598
0
LINE
8
BLACK
6
CONTINUOUS
10
-0.292055
20
-0.0612598
11
-0.292123
21
-0.0616433
0
LINE
8
BLACK
6
CONTINUOUS
10
-0.292123
20
-0.0616433
11
-0.2921
21
-0.0617726
0
LINE
8
BLACK
6
CONTINUOUS
10
-0.2921
20
-0.0617726
11
-0.292166
21
-0.0618862
0
LINE
8
BLACK
6
CONTINUOUS
10
-0.292166
20
-0.0618862
11
-0.292233
21
-0.0622698
0
LINE
8
BLACK
6
CONTINUOUS
10
-0.292233
20
-0.0622698
11
-0.292726
21
-0.0628574
0
LINE
8
BLACK
6
CONTINUOUS
10
-0.292726
20
-0.0628574
11
-0.29311
21
-0.0635218
0
LINE
8
BLACK
6
CONTINUOUS
10
-0.29311
20
-0.0635218
11
-0.29336
21
-0.0636129
0
LINE
8
BLACK
6
CONTINUOUS
10
-0.29336
20
-0.0636129
11
-0.293531
21
-0.063817
0
LINE
8
BLACK
6
CONTINUOUS
10
-0.293531
20
-0.063817
11
-0.294287
21
-0.0639502
0
LINE
8
BLACK
6
CONTINUOUS
10
-0.294287
20
-0.0639502
11
-0.295008
21
-0.0642126
0
LINE
8
BLACK
6
CONTINUOUS
10
-0.295008
20
-0.0642126
11
-0.437724
21
-0.0642126
0
LINE
8
BLACK
6
CONTINUOUS
10
-0.437724
20
-0.0642126
11
-0.437724
21
-0.0888189
0
LINE
8
BLACK
6
CONTINUOUS
10
-0.437724
20
-0.0888189
11
-0.437792
21
-0.0892024
0
LINE
8
BLACK
6
CONTINUOUS
10
-0.437792
20
-0.0892024
11
-0.437769
21
-0.0893317
0
LINE
8
BLACK
6
CONTINUOUS
10
-0.437769
20
-0.0893317
11
-0.437835
21
-0.0894452
0
LINE
8
BLACK
6
CONTINUOUS
10
-0.437835
20
-0.0894452
11
-0.437902
21
-0.0898288
0
LINE
8
BLACK
6
CONTINUOUS
10
-0.437902
20
-0.0898288
11
-0.438396
21
-0.0904165
0
LINE
8
BLACK
6
CONTINUOUS
10
-0.438396
20
-0.0904165
11
-0.438779
21
-0.0910808
0
LINE
8
BLACK
6
CONTINUOUS
10
-0.438779
20
-0.0910808
11
-0.43903
21
-0.0911719
0
LINE
8
BLACK
6
CONTINUOUS
10
-0.43903
20
-0.0911719
11
-0.439201
21
-0.0913761
0
LINE
8
BLACK
6
CONTINUOUS
10
-0.439201
20
-0.0913761
11
-0.439956
21
-0.0915093
0
LINE
8
BLACK
6
CONTINUOUS
10
-0.439956
20
-0.0915093
11
-0.440677
21
-0.0917717
0
LINE
8
BLACK
6
CONTINUOUS
10
-0.440677
20
-0.0917717
11
-0.545008
21
-0.0917717
0
LINE
8
BLACK
6
CONTINUOUS
10
-0.545008
20
-0.0917717
11
-0.545391
21
-0.091704
0
LINE
8
BLACK
6
CONTINUOUS
10
-0.545391
20
-0.091704
11
-0.545521
21
-0.0917268
0
LINE
8
BLACK
6
CONTINUOUS
10
-0.545521
20
-0.0917268
11
-0.545634
21
-0.0916612
0
LINE
8
BLACK
6
CONTINUOUS
10
-0.545634
20
-0.0916612
11
-0.546018
21
-0.0915936
0
LINE
8
BLACK
6
CONTINUOUS
10
-0.546018
20
-0.0915936
11
-0.546606
21
-0.0911004
0
LINE
8
BLACK
6
CONTINUOUS
10
-0.546606
20
-0.0911004
11
-0.54727
21
-0.0907169
0
LINE
8
BLACK
6
CONTINUOUS
10
-0.54727
20
-0.0907169
11
-0.547361
21
-0.0904665
0
LINE
8
BLACK
6
CONTINUOUS
10
-0.547361
20
-0.0904665
11
-0.547565
21
-0.0902953
0
LINE
8
BLACK
6
CONTINUOUS
10
-0.547565
20
-0.0902953
11
-0.547698
21
-0.0895397
0
LINE
8
BLACK
6
CONTINUOUS
10
-0.547698
20
-0.0895397
11
-0.547961
21
-0.0888189
0
LINE
8
BLACK
6
CONTINUOUS
10
-0.547961
20
-0.0888189
11
-0.547961
21
0.090315
0
LINE
8
BLACK
6
CONTINUOUS
10
-0.547961
20
0.090315
11
-0.547893
21
0.0906985
0
LINE
8
BLACK
6
CONTINUOUS
10
-0.547893
20
0.0906985
11
-0.547916
21
0.0908277
0
LINE
8
BLACK
6
CONTINUOUS
10
-0.547916
20
0.0908277
11
-0.54785
21
0.0909413
0
LINE
8
BLACK
6
CONTINUOUS
10
-0.54785
20
0.0909413
11
-0.547783
21
0.0913249
0
LINE
8
BLACK
6
CONTINUOUS
10
-0.547783
20
0.0913249
11
-0.547289
21
0.0919126
0
LINE
8
BLACK
6
CONTINUOUS
10
-0.547289
20
0.0919126
11
-0.546906
21
0.0925769
0
LINE
8
BLACK
6
CONTINUOUS
10
-0.546906
20
0.0925769
11
-0.546656
21
0.092668
0
LINE
8
BLACK
6
CONTINUOUS
10
-0.546656
20
0.092668
11
-0.546484
21
0.0928721
0
LINE
8
BLACK
6
CONTINUOUS
10
-0.546484
20
0.0928721
11
-0.545729
21
0.0930054
0
LINE
8
BLACK
6
CONTINUOUS
10
-0.545729
20
0.0930054
11
-0.545008
21
0.0932677
0
LINE
8
BLACK
6
CONTINUOUS
10
-0.545008
20
0.0932677
11
-0.440677
21
0.0932677
0
LINE
8
BLACK
6
CONTINUOUS
10
-0.440677
20
0.0932677
11
-0.440294
21
0.0932001
0
LINE
8
BLACK
6
CONTINUOUS
10
-0.637772
20
0.291139
11
-0.606326
21
0.279694
0
LINE
8
BLACK
6
CONTINUOUS
10
-0.606326
20
0.279694
11
-0.603699
21
0.2781
0
LINE
8
BLACK
6
CONTINUOUS
10
-0.603699
20
0.2781
11
-0.601883
21
0.275622
0
LINE
8
BLACK
6
CONTINUOUS
10
-0.601883
20
0.275622
11
-0.601822
21
0.275376
0
LINE
8
BLACK
6
CONTINUOUS
10
-0.601822
20
0.275376
11
-0.601618
21
0.275526
0
LINE
8
BLACK
6
CONTINUOUS
10
-0.601618
20
0.275526
11
-0.598634
21
0.276256
0
LINE
8
BLACK
6
CONTINUOUS
10
-0.598634
20
0.276256
11
-0.595597
21
0.275789
0
LINE
8
BLACK
6
CONTINUOUS
10
-0.595597
20
0.275789
11
-0.559711
21
0.262727
0
LINE
8
BLACK
6
CONTINUOUS
10
-0.559711
20
0.262727
11
-0.557085
21
0.261134
0
LINE
8
BLACK
6
CONTINUOUS
10
-0.557085
20
0.261134
11
-0.555268
21
0.258656
0
LINE
8
BLACK
6
CONTINUOUS
10
-0.555268
20
0.258656
11
-0.554538
21
0.255672
0
LINE
8
BLACK
6
CONTINUOUS
10
-0.554538
20
0.255672
11
-0.555005
21
0.252635
0
LINE
8
BLACK
6
CONTINUOUS
10
-0.555005
20
0.252635
11
-0.567797
21
0.217489
0
LINE
8
BLACK
6
CONTINUOUS
10
-0.567797
20
0.217489
11
-0.569391
21
0.214863
0
LINE
8
BLACK
6
CONTINUOUS
10
-0.569391
20
0.214863
11
-0.571869
21
0.213046
0
LINE
8
BLACK
6
CONTINUOUS
10
-0.571869
20
0.213046
11
-0.572459
21
0.212901
0
LINE
8
BLACK
6
CONTINUOUS
10
-0.572459
20
0.212901
11
-0.5721
21
0.212411
0
LINE
8
BLACK
6
CONTINUOUS
10
-0.5721
20
0.212411
11
-0.571369
21
0.209427
0
LINE
8
BLACK
6
CONTINUOUS
10
-0.571369
20
0.209427
11
-0.571837
21
0.20639
0
LINE
8
BLACK
6
CONTINUOUS
10
-0.571837
20
0.20639
11
-0.587322
21
0.163845
0
LINE
8
BLACK
6
CONTINUOUS
10
-0.587322
20
0.163845
11
-0.588916
21
0.161219
0
LINE
8
BLACK
6
CONTINUOUS
10
-0.588916
20
0.161219
11
-0.591393
21
0.159402
0
LINE
8
BLACK
6
CONTINUOUS
10
-0.591393
20
0.159402
11
-0.594378
21
0.158672
0
LINE
8
BLACK
6
CONTINUOUS
10
-0.594378
20
0.158672
11
-0.597414
21
0.159139
0
LINE
8
BLACK
6
CONTINUOUS
10
-0.597414
20
0.159139
11
-0.6333
21
0.172201
0
LINE
8
BLACK
6
CONTINUOUS
10
-0.6333
20
0.172201
11
-0.635927
21
0.173794
0
LINE
8
BLACK
6
CONTINUOUS
10
-0.635927
20
0.173794
11
-0.637743
21
0.176272
0
LINE
8
BLACK
6
CONTINUOUS
10
-0.637743
20
0.176272
11
-0.637804
21
0.176518
0
LINE
8
BLACK
6
CONTINUOUS
10
-0.637804
20
0.176518
11
-0.638008
21
0.176368
0
LINE
8
BLACK
6
CONTINUOUS
10
-0.638008
20
0.176368
11
-0.640992
21
0.175638
0
LINE
8
BLACK
6
CONTINUOUS
10
-0.640992
20
0.175638
11
-0.644029
21
0.176106
0
LINE
8
BLACK
6
CONTINUOUS
10
-0.644029
20
0.176106
11
-0.675475
21
0.187551
0
LINE
8
BLACK
6
CONTINUOUS
10
-0.675475
20
0.187551
11
-0.678102
21
0.189145
0
LINE
8
BLACK
6
CONTINUOUS
10
-0.678102
20
0.189145
11
-0.679918
21
0.191623
0
LINE
8
BLACK
6
CONTINUOUS
10
-0.679918
20
0.191623
11
-0.680649
21
0.194607
0
LINE
8
BLACK
6
CONTINUOUS
10
-0.680649
20
0.194607
11
-0.680181
21
0.197643
0
LINE
8
BLACK
6
CONTINUOUS
10
-0.680181
20
0.197643
11
-0.664696
21
0.240188
0
LINE
8
BLACK
6
CONTINUOUS
10
-0.664696
20
0.240188
11
-0.663102
21
0.242815
0
LINE
8
BLACK
6
CONTINUOUS
10
-0.663102
20
0.242815
11
-0.660625
21
0.244632
0
LINE
8
BLACK
6
CONTINUOUS
10
-0.660625
20
0.244632
11
-0.660034
21
0.244776
0
LINE
8
BLACK
6
CONTINUOUS
10
-0.660034
20
0.244776
11
-0.660394
21
0.245266
0
LINE
8
BLACK
6
CONTINUOUS
10
-0.660394
20
0.245266
11
-0.661124
21
0.248251
0
LINE
8
BLACK
6
CONTINUOUS
10
-0.661124
20
0.248251
11
-0.660657
21
0.251287
0
LINE
8
BLACK
6
CONTINUOUS
10
-0.660657
20
0.251287
11
-0.647864
21
0.286433
0
LINE
8
BLACK
6
CONTINUOUS
10
-0.647864
20
0.286433
11
-0.646271
21
0.28906
0
LINE
8
BLACK
6
CONTINUOUS
10
-0.646271
20
0.28906
11
-0.643793
21
0.290876
0
LINE
8
BLACK
6
CONTINUOUS
10
-0.643793
20
0.290876
11
-0.640809
21
0.291607
0
LINE
8
BLACK
6
CONTINUOUS
10
-0.640809
20
0.291607
11
-0.637772
21
0.291139
0
LINE
8
BLACK
6
CONTINUOUS
10
-0.618483
20
0.230012
11
-0.619074
21
0.229868
0
LINE
8
BLACK
6
CONTINUOUS
10
-0.619074
20
0.229868
11
-0.618714
21
0.229378
0
LINE
8
BLACK
6
CONTINUOUS
10
-0.618714
20
0.229378
11
-0.618654
21
0.229131
0
LINE
8
BLACK
6
CONTINUOUS
10
-0.618654
20
0.229131
11
-0.61845
21
0.229281
0
LINE
8
BLACK
6
CONTINUOUS
10
-0.61845
20
0.229281
11
-0.617859
21
0.229426
0
LINE
8
BLACK
6
CONTINUOUS
10
-0.617859
20
0.229426
11
-0.618219
21
0.229916
0
LINE
8
BLACK
6
CONTINUOUS
10
-0.618219
20
0.229916
11
-0.618279
21
0.230162
0
LINE
8
BLACK
6
CONTINUOUS
10
-0.618279
20
0.230162
11
-0.618483
21
0.230012
0
LINE
8
BLACK
6
CONTINUOUS
10
0.197643
20
0.680181
11
0.240188
21
0.664696
0
LINE
8
BLACK
6
CONTINUOUS
10
0.240188
20
0.664696
11
0.242815
21
0.663102
0
LINE
8
BLACK
6
CONTINUOUS
10
0.242815
20
0.663102
11
0.244632
21
0.660625
0
LINE
8
BLACK
6
CONTINUOUS
10
0.244632
20
0.660625
11
0.244776
21
0.660034
0
LINE
8
BLACK
6
CONTINUOUS
10
0.244776
20
0.660034
11
0.245266
21
0.660394
0
LINE
8
BLACK
6
CONTINUOUS
10
0.245266
20
0.660394
11
0.248251
21
0.661124
0
LINE
8
BLACK
6
CONTINUOUS
10
0.248251
20
0.661124
11
0.251287
21
0.660657
0
LINE
8
BLACK
6
CONTINUOUS
10
0.251287
20
0.660657
11
0.286433
21
0.647864
0
LINE
8
BLACK
6
CONTINUOUS
10
0.286433
20
0.647864
11
0.28906
21
0.646271
0
LINE
8
BLACK
6
CONTINUOUS
10
0.28906
20
0.646271
11
0.290876
21
0.643793
0
LINE
8
BLACK
6
CONTINUOUS
10
0.290876
20
0.643793
11
0.291607
21
0.640809
0
LINE
8
BLACK
6
CONTINUOUS
10
0.291607
20
0.640809
11
0.291139
21
0.637772
0
LINE
8
BLACK
6
CONTINUOUS
10
0.291139
20
0.637772
11
0.279694
21
0.606326
0
LINE
8
BLACK
6
CONTINUOUS
10
0.279694
20
0.606326
11
0.2781
21
0.603699
0
LINE
8
BLACK
6
CONTINUOUS
10
0.2781
20
0.603699
11
0.275622
21
0.601883
0
LINE
8
BLACK
6
CONTINUOUS
10
0.275622
20
0.601883
11
0.275376
21
0.601822
0
LINE
8
BLACK
6
CONTINUOUS
10
0.275376
20
0.601822
11
0.275526
21
0.601618
0
LINE
8
BLACK
6
CONTINUOUS
10
0.275526
20
0.601618
11
0.276256
21
0.598634
0
LINE
8
BLACK
6
CONTINUOUS
10
0.276256
20
0.598634
11
0.275789
21
0.595597
0
LINE
8
BLACK
6
CONTINUOUS
10
0.275789
20
0.595597
11
0.262727
21
0.559711
0
LINE
8
BLACK
6
CONTINUOUS
10
0.262727
20
0.559711
11
0.261134
21
0.557085
0
LINE
8
BLACK
6
CONTINUOUS
10
0.261134
20
0.557085
11
0.258656
21
0.555268
0
LINE
8
BLACK
6
CONTINUOUS
10
0.258656
20
0.555268
11
0.255672
21
0.554538
0
LINE
8
BLACK
6
CONTINUOUS
10
0.255672
20
0.554538
11
0.252635
21
0.555005
0
LINE
8
BLACK
6
CONTINUOUS
10
0.252635
20
0.555005
11
0.217489
21
0.567797
0
LINE
8
BLACK
6
CONTINUOUS
10
0.217489
20
0.567797
11
0.214863
21
0.569391
0
LINE
8
BLACK
6
CONTINUOUS
10
0.214863
20
0.569391
11
0.213046
21
0.571869
0
LINE
8
BLACK
6
CONTINUOUS
10
0.213046
20
0.571869
11
0.212901
21
0.572459
0
LINE
8
BLACK
6
CONTINUOUS
10
0.212901
20
0.572459
11
0.212411
21
0.5721
0
LINE
8
BLACK
6
CONTINUOUS
10
0.212411
20
0.5721
11
0.209427
21
0.571369
0
LINE
8
BLACK
6
CONTINUOUS
10
0.209427
20
0.571369
11
0.20639
21
0.571837
0
LINE
8
BLACK
6
CONTINUOUS
10
0.20639
20
0.571837
11
0.163845
21
0.587322
0
LINE
8
BLACK
6
CONTINUOUS
10
0.163845
20
0.587322
11
0.161219
21
0.588916
0
LINE
8
BLACK
6
CONTINUOUS
10
0.161219
20
0.588916
11
0.159402
21
0.591393
0
LINE
8
BLACK
6
CONTINUOUS
10
0.159402
20
0.591393
11
0.158672
21
0.594378
0
LINE
8
BLACK
6
CONTINUOUS
10
0.158672
20
0.594378
11
0.159139
21
0.597414
0
LINE
8
BLACK
6
CONTINUOUS
10
0.159139
20
0.597414
11
0.172201
21
0.6333
0
LINE
8
BLACK
6
CONTINUOUS
10
0.172201
20
0.6333
11
0.173794
21
0.635927
0
LINE
8
BLACK
6
CONTINUOUS
10
0.173794
20
0.635927
11
0.176272
21
0.637743
0
LINE
8
BLACK
6
CONTINUOUS
10
0.176272
20
0.637743
11
0.176518
21
0.637804
0
LINE
8
BLACK
6
CONTINUOUS
10
0.176518
20
0.637804
11
0.176368
21
0.638008
0
LINE
8
BLACK
6
CONTINUOUS
10
0.176368
20
0.638008
11
0.175638
21
0.640992
0
LINE
8
BLACK
6
CONTINUOUS
10
0.175638
20
0.640992
11
0.176106
21
0.644029
0
LINE
8
BLACK
6
CONTINUOUS
10
0.176106
20
0.644029
11
0.187551
21
0.675475
0
LINE
8
BLACK
6
CONTINUOUS
10
0.187551
20
0.675475
11
0.189145
21
0.678102
0
LINE
8
BLACK
6
CONTINUOUS
10
0.189145
20
0.678102
11
0.191623
21
0.679918
0
LINE
8
BLACK
6
CONTINUOUS
10
0.191623
20
0.679918
11
0.194607
21
0.680649
0
LINE
8
BLACK
6
CONTINUOUS
10
0.194607
20
0.680649
11
0.197643
21
0.680181
0
LINE
8
BLACK
6
CONTINUOUS
10
0.229378
20
0.618714
11
0.229131
21
0.618654
0
LINE
8
BLACK
6
CONTINUOUS
10
0.229131
20
0.618654
11
0.229281
21
0.61845
0
LINE
8
BLACK
6
CONTINUOUS
10
0.229281
20
0.61845
11
0.229426
21
0.617859
0
LINE
8
BLACK
6
CONTINUOUS
10
0.229426
20
0.617859
11
0.229916
21
0.618219
0
LINE
8
BLACK
6
CONTINUOUS
10
0.229916
20
0.618219
11
0.230162
21
0.618279
0
LINE
8
BLACK
6
CONTINUOUS
10
0.230162
20
0.618279
11
0.230012
21
0.618483
0
LINE
8
BLACK
6
CONTINUOUS
10
0.230012
20
0.618483
11
0.229868
21
0.619074
0
LINE
8
BLACK
6
CONTINUOUS
10
0.229868
20
0.619074
11
0.229378
21
0.618714
0
LINE
8
BLACK
6
CONTINUOUS
10
0.0103007
20
1.51619
11
0.0103137
21
1.51619
0
LINE
8
BLACK
6
CONTINUOUS
10
0.0103137
20
1.51619
11
0.0844906
21
1.51425
0
LINE
8
BLACK
6
CONTINUOUS
10
0.0844906
20
1.51425
11
0.0845158
21
1.51424
0
LINE
8
BLACK
6
CONTINUOUS
10
0.0845158
20
1.51424
11
0.0845421
21
1.51425
0
LINE
8
BLACK
6
CONTINUOUS
10
0.0845421
20
1.51425
11
0.158516
21
1.50843
0
LINE
8
BLACK
6
CONTINUOUS
10
0.158516
20
1.50843
11
0.158541
21
1.50841
0
LINE
8
BLACK
6
CONTINUOUS
10
0.158541
20
1.50841
11
0.158567
21
1.50842
0
LINE
8
BLACK
6
CONTINUOUS
10
0.158567
20
1.50842
11
0.232135
21
1.49874
0
LINE
8
BLACK
6
CONTINUOUS
10
0.232135
20
1.49874
11
0.232159
21
1.49872
0
LINE
8
BLACK
6
CONTINUOUS
10
0.232159
20
1.49872
11
0.232186
21
1.49873
0
LINE
8
BLACK
6
CONTINUOUS
10
0.232186
20
1.49873
11
0.305146
21
1.4852
0
LINE
8
BLACK
6
CONTINUOUS
10
0.305146
20
1.4852
11
0.305157
21
1.4852
0
LINE
8
BLACK
6
CONTINUOUS
10
0.305157
20
1.4852
11
0.305171
21
1.4852
0
LINE
8
BLACK
6
CONTINUOUS
10
0.305171
20
1.4852
11
0.325297
21
1.48092
0
LINE
8
BLACK
6
CONTINUOUS
10
0.325297
20
1.48092
11
0.325309
21
1.48091
0
LINE
8
BLACK
6
CONTINUOUS
10
0.325309
20
1.48091
11
0.325322
21
1.48091
0
LINE
8
BLACK
6
CONTINUOUS
10
0.325322
20
1.48091
11
0.397474
21
1.46359
0
LINE
8
BLACK
6
CONTINUOUS
10
0.397474
20
1.46359
11
0.397496
21
1.46358
0
LINE
8
BLACK
6
CONTINUOUS
10
0.397496
20
1.46358
11
0.397524
21
1.46358
0
LINE
8
BLACK
6
CONTINUOUS
10
0.397524
20
1.46358
11
0.46867
21
1.44251
0
LINE
8
BLACK
6
CONTINUOUS
10
0.46867
20
1.44251
11
0.468691
21
1.44249
0
LINE
8
BLACK
6
CONTINUOUS
10
0.468691
20
1.44249
11
0.468719
21
1.44249
0
LINE
8
BLACK
6
CONTINUOUS
10
0.468719
20
1.44249
11
0.538667
21
1.41772
0
LINE
8
BLACK
6
CONTINUOUS
10
0.538667
20
1.41772
11
0.538688
21
1.4177
0
LINE
8
BLACK
6
CONTINUOUS
10
0.538688
20
1.4177
11
0.538715
21
1.4177
0
LINE
8
BLACK
6
CONTINUOUS
10
0.538715
20
1.4177
11
0.607271
21
1.38931
0
LINE
8
BLACK
6
CONTINUOUS
10
0.607271
20
1.38931
11
0.60728
21
1.3893
0
LINE
8
BLACK
6
CONTINUOUS
10
0.60728
20
1.3893
11
0.607294
21
1.3893
0
LINE
8
BLACK
6
CONTINUOUS
10
0.607294
20
1.3893
11
0.62609
21
1.38093
0
LINE
8
BLACK
6
CONTINUOUS
10
0.62609
20
1.38093
11
0.626099
21
1.38092
0
LINE
8
BLACK
6
CONTINUOUS
10
0.626099
20
1.38092
11
0.626113
21
1.38092
0
LINE
8
BLACK
6
CONTINUOUS
10
0.626113
20
1.38092
11
0.693089
21
1.34897
0
LINE
8
BLACK
6
CONTINUOUS
10
0.693089
20
1.34897
11
0.693108
21
1.34895
0
LINE
8
BLACK
6
CONTINUOUS
10
0.693108
20
1.34895
11
0.693135
21
1.34895
0
LINE
8
BLACK
6
CONTINUOUS
10
0.693135
20
1.34895
11
0.758344
21
1.31354
0
LINE
8
BLACK
6
CONTINUOUS
10
0.758344
20
1.31354
11
0.758361
21
1.31352
0
LINE
8
BLACK
6
CONTINUOUS
10
0.758361
20
1.31352
11
0.758389
21
1.31352
0
LINE
8
BLACK
6
CONTINUOUS
10
0.758389
20
1.31352
11
0.821656
21
1.27474
0
LINE
8
BLACK
6
CONTINUOUS
10
0.821656
20
1.27474
11
0.821672
21
1.27472
0
LINE
8
BLACK
6
CONTINUOUS
10
0.821672
20
1.27472
11
0.821699
21
1.27472
0
LINE
8
BLACK
6
CONTINUOUS
10
0.821699
20
1.27472
11
0.882853
21
1.23269
0
LINE
8
BLACK
6
CONTINUOUS
10
0.882853
20
1.23269
11
0.882861
21
1.23268
0
LINE
8
BLACK
6
CONTINUOUS
10
0.882861
20
1.23268
11
0.882874
21
1.23267
0
LINE
8
BLACK
6
CONTINUOUS
10
0.882874
20
1.23267
11
0.899519
21
1.22058
0
LINE
8
BLACK
6
CONTINUOUS
10
0.899519
20
1.22058
11
0.899527
21
1.22057
0
LINE
8
BLACK
6
CONTINUOUS
10
0.899527
20
1.22057
11
0.89954
21
1.22056
0
LINE
8
BLACK
6
CONTINUOUS
10
0.89954
20
1.22056
11
0.95841
21
1.17539
0
LINE
8
BLACK
6
CONTINUOUS
10
0.95841
20
1.17539
11
0.958424
21
1.17537
0
LINE
8
BLACK
6
CONTINUOUS
10
0.958424
20
1.17537
11
0.95845
21
1.17536
0
LINE
8
BLACK
6
CONTINUOUS
10
0.95845
20
1.17536
11
1.01487
21
1.12717
0
LINE
8
BLACK
6
CONTINUOUS
10
1.01487
20
1.12717
11
1.01488
21
1.12715
0
LINE
8
BLACK
6
CONTINUOUS
10
1.01488
20
1.12715
11
1.01491
21
1.12714
0
LINE
8
BLACK
6
CONTINUOUS
10
1.01491
20
1.12714
11
1.04238
21
1.10106
0
LINE
8
BLACK
6
CONTINUOUS
10
1.04238
20
1.10106
11
1.0424
21
1.10103
0
LINE
8
BLACK
6
CONTINUOUS
10
1.0424
20
1.10103
11
1.04244
21
1.10101
0
LINE
8
BLACK
6
CONTINUOUS
10
1.04244
20
1.10101
11
1.0562
21
1.08572
0
LINE
8
BLACK
6
CONTINUOUS
10
1.0562
20
1.08572
11
1.05624
21
1.08562
0
LINE
8
BLACK
6
CONTINUOUS
10
1.05624
20
1.08562
11
1.05633
21
1.08555
0
LINE
8
BLACK
6
CONTINUOUS
10
1.05633
20
1.08555
11
1.06661
21
1.06773
0
LINE
8
BLACK
6
CONTINUOUS
10
1.06661
20
1.06773
11
1.06663
21
1.06763
0
LINE
8
BLACK
6
CONTINUOUS
10
1.06663
20
1.06763
11
1.0667
21
1.06754
0
LINE
8
BLACK
6
CONTINUOUS
10
1.0667
20
1.06754
11
1.07306
21
1.04797
0
LINE
8
BLACK
6
CONTINUOUS
10
1.07306
20
1.04797
11
1.07305
21
1.04787
0
LINE
8
BLACK
6
CONTINUOUS
10
1.07305
20
1.04787
11
1.0731
21
1.04777
0
LINE
8
BLACK
6
CONTINUOUS
10
1.0731
20
1.04777
11
1.07525
21
1.02731
0
LINE
8
BLACK
6
CONTINUOUS
10
1.07525
20
1.02731
11
1.07522
21
1.0272
0
LINE
8
BLACK
6
CONTINUOUS
10
1.07522
20
1.0272
11
1.07525
21
1.0271
0
LINE
8
BLACK
6
CONTINUOUS
10
1.07525
20
1.0271
11
1.0731
21
1.00664
0
LINE
8
BLACK
6
CONTINUOUS
10
1.0731
20
1.00664
11
1.07305
21
1.00655
0
LINE
8
BLACK
6
CONTINUOUS
10
1.07305
20
1.00655
11
1.07306
21
1.00644
0
LINE
8
BLACK
6
CONTINUOUS
10
1.07306
20
1.00644
11
1.0667
21
0.986869
0
LINE
8
BLACK
6
CONTINUOUS
10
1.0667
20
0.986869
11
1.06663
21
0.986787
0
LINE
8
BLACK
6
CONTINUOUS
10
1.06663
20
0.986787
11
1.06661
21
0.986681
0
LINE
8
BLACK
6
CONTINUOUS
10
1.06661
20
0.986681
11
1.05633
21
0.968862
0
LINE
8
BLACK
6
CONTINUOUS
10
1.05633
20
0.968862
11
1.05624
21
0.968797
0
LINE
8
BLACK
6
CONTINUOUS
10
1.05624
20
0.968797
11
1.0562
21
0.968696
0
LINE
8
BLACK
6
CONTINUOUS
10
1.0562
20
0.968696
11
1.04244
21
0.953404
0
LINE
8
BLACK
6
CONTINUOUS
10
1.04244
20
0.953404
11
1.04242
21
0.953398
0
LINE
8
BLACK
6
CONTINUOUS
10
1.04242
20
0.953398
11
1.04242
21
0.953385
0
LINE
8
BLACK
6
CONTINUOUS
10
1.04242
20
0.953385
11
0.814722
21
0.713704
0
LINE
8
BLACK
6
CONTINUOUS
10
0.814722
20
0.713704
11
0.814636
21
0.713666
0
LINE
8
BLACK
6
CONTINUOUS
10
0.814636
20
0.713666
11
0.814587
21
0.713586
0
LINE
8
BLACK
6
CONTINUOUS
10
0.814587
20
0.713586
11
0.797941
21
0.701491
0
LINE
8
BLACK
6
CONTINUOUS
10
0.797941
20
0.701491
11
0.797837
21
0.701466
0
LINE
8
BLACK
6
CONTINUOUS
10
0.797837
20
0.701466
11
0.797763
21
0.701388
0
LINE
8
BLACK
6
CONTINUOUS
10
0.797763
20
0.701388
11
0.778964
21
0.693018
0
LINE
8
BLACK
6
CONTINUOUS
10
0.778964
20
0.693018
11
0.778856
21
0.693015
0
LINE
8
BLACK
6
CONTINUOUS
10
0.778856
20
0.693015
11
0.778768
21
0.692955
0
LINE
8
BLACK
6
CONTINUOUS
10
0.778768
20
0.692955
11
0.758642
21
0.688675
0
LINE
8
BLACK
6
CONTINUOUS
10
0.758642
20
0.688675
11
0.758536
21
0.688695
0
LINE
8
BLACK
6
CONTINUOUS
10
0.758536
20
0.688695
11
0.758437
21
0.688654
0
LINE
8
BLACK
6
CONTINUOUS
10
0.758437
20
0.688654
11
0.737858
21
0.688654
0
LINE
8
BLACK
6
CONTINUOUS
10
0.737858
20
0.688654
11
0.737759
21
0.688695
0
LINE
8
BLACK
6
CONTINUOUS
10
0.737759
20
0.688695
11
0.737654
21
0.688675
0
LINE
8
BLACK
6
CONTINUOUS
10
0.737654
20
0.688675
11
0.717528
21
0.692955
0
LINE
8
BLACK
6
CONTINUOUS
10
0.717528
20
0.692955
11
0.717439
21
0.693015
0
LINE
8
BLACK
6
CONTINUOUS
10
0.717439
20
0.693015
11
0.717332
21
0.693018
0
LINE
8
BLACK
6
CONTINUOUS
10
0.717332
20
0.693018
11
0.698537
21
0.701388
0
LINE
8
BLACK
6
CONTINUOUS
10
0.698537
20
0.701388
11
0.698463
21
0.701466
0
LINE
8
BLACK
6
CONTINUOUS
10
0.698463
20
0.701466
11
0.698359
21
0.701491
0
LINE
8
BLACK
6
CONTINUOUS
10
0.698359
20
0.701491
11
0.681709
21
0.713586
0
LINE
8
BLACK
6
CONTINUOUS
10
0.681709
20
0.713586
11
0.681673
21
0.713644
0
LINE
8
BLACK
6
CONTINUOUS
10
0.681673
20
0.713644
11
0.68161
21
0.713668
0
LINE
8
BLACK
6
CONTINUOUS
10
0.68161
20
0.713668
11
0.660569
21
0.733635
0
LINE
8
BLACK
6
CONTINUOUS
10
0.660569
20
0.733635
11
0.617349
21
0.77055
0
LINE
8
BLACK
6
CONTINUOUS
10
0.617349
20
0.77055
11
0.580421
21
0.798885
0
LINE
8
BLACK
6
CONTINUOUS
10
0.580421
20
0.798885
11
0.542062
21
0.825245
0
LINE
8
BLACK
6
CONTINUOUS
10
0.542062
20
0.825245
11
0.493602
21
0.854943
0
LINE
8
BLACK
6
CONTINUOUS
10
0.493602
20
0.854943
11
0.443652
21
0.882064
0
LINE
8
BLACK
6
CONTINUOUS
10
0.443652
20
0.882064
11
0.401642
21
0.902101
0
LINE
8
BLACK
6
CONTINUOUS
10
0.401642
20
0.902101
11
0.358639
21
0.919916
0
LINE
8
BLACK
6
CONTINUOUS
10
0.358639
20
0.919916
11
0.305063
21
0.938886
0
LINE
8
BLACK
6
CONTINUOUS
10
0.305063
20
0.938886
11
0.250566
21
0.955029
0
LINE
8
BLACK
6
CONTINUOUS
10
0.250566
20
0.955029
11
0.205307
21
0.965895
0
LINE
8
BLACK
6
CONTINUOUS
10
0.205307
20
0.965895
11
0.159541
21
0.974378
0
LINE
8
BLACK
6
CONTINUOUS
10
0.159541
20
0.974378
11
0.103191
21
0.981796
0
LINE
8
BLACK
6
CONTINUOUS
10
0.103191
20
0.981796
11
0.0465288
21
0.986257
0
LINE
8
BLACK
6
CONTINUOUS
10
0.0465288
20
0.986257
11
-3.93701e-08
21
0.987472
0
LINE
8
BLACK
6
CONTINUOUS
10
-3.93701e-08
20
0.987472
11
-0.0465289
21
0.986257
0
LINE
8
BLACK
6
CONTINUOUS
10
-0.0465289
20
0.986257
11
-0.103191
21
0.981796
0
LINE
8
BLACK
6
CONTINUOUS
10
-0.103191
20
0.981796
11
-0.159541
21
0.974378
0
LINE
8
BLACK
6
CONTINUOUS
10
-0.159541
20
0.974378
11
-0.205306
21
0.965895
0
LINE
8
BLACK
6
CONTINUOUS
10
-0.205306
20
0.965895
11
-0.250566
21
0.955029
0
LINE
8
BLACK
6
CONTINUOUS
10
-0.250566
20
0.955029
11
-0.305062
21
0.938887
0
LINE
8
BLACK
6
CONTINUOUS
10
-0.305062
20
0.938887
11
-0.358639
21
0.919916
0
LINE
8
BLACK
6
CONTINUOUS
10
-0.358639
20
0.919916
11
-0.401643
21
0.902101
0
LINE
8
BLACK
6
CONTINUOUS
10
-0.401643
20
0.902101
11
-0.443651
21
0.882064
0
LINE
8
BLACK
6
CONTINUOUS
10
-0.443651
20
0.882064
11
-0.493602
21
0.854943
0
LINE
8
BLACK
6
CONTINUOUS
10
-0.493602
20
0.854943
11
-0.542062
21
0.825245
0
LINE
8
BLACK
6
CONTINUOUS
10
-0.542062
20
0.825245
11
-0.580421
21
0.798885
0
LINE
8
BLACK
6
CONTINUOUS
10
-0.580421
20
0.798885
11
-0.617349
21
0.77055
0
LINE
8
BLACK
6
CONTINUOUS
10
-0.617349
20
0.77055
11
-0.66057
21
0.733634
0
LINE
8
BLACK
6
CONTINUOUS
10
-0.66057
20
0.733634
11
-0.68161
21
0.713668
0
LINE
8
BLACK
6
CONTINUOUS
10
-0.68161
20
0.713668
11
-0.681674
21
0.713644
0
LINE
8
BLACK
6
CONTINUOUS
10
-0.681674
20
0.713644
11
-0.681709
21
0.713586
0
LINE
8
BLACK
6
CONTINUOUS
10
-0.681709
20
0.713586
11
-0.698359
21
0.701491
0
LINE
8
BLACK
6
CONTINUOUS
10
-0.698359
20
0.701491
11
-0.698463
21
0.701466
0
LINE
8
BLACK
6
CONTINUOUS
10
-0.698463
20
0.701466
11
-0.698537
21
0.701388
0
LINE
8
BLACK
6
CONTINUOUS
10
-0.698537
20
0.701388
11
-0.717332
21
0.693018
0
LINE
8
BLACK
6
CONTINUOUS
10
-0.717332
20
0.693018
11
-0.717439
21
0.693015
0
LINE
8
BLACK
6
CONTINUOUS
10
-0.717439
20
0.693015
11
-0.717528
21
0.692955
0
LINE
8
BLACK
6
CONTINUOUS
10
-0.717528
20
0.692955
11
-0.737654
21
0.688675
0
LINE
8
BLACK
6
CONTINUOUS
10
-0.737654
20
0.688675
11
-0.737759
21
0.688695
0
LINE
8
BLACK
6
CONTINUOUS
10
-0.737759
20
0.688695
11
-0.737858
21
0.688654
0
LINE
8
BLACK
6
CONTINUOUS
10
-0.737858
20
0.688654
11
-0.758437
21
0.688654
0
LINE
8
BLACK
6
CONTINUOUS
10
-0.758437
20
0.688654
11
-0.758536
21
0.688695
0
LINE
8
BLACK
6
CONTINUOUS
10
-0.758536
20
0.688695
11
-0.758641
21
0.688675
0
LINE
8
BLACK
6
CONTINUOUS
10
-0.758641
20
0.688675
11
-0.778767
21
0.692955
0
LINE
8
BLACK
6
CONTINUOUS
10
-0.778767
20
0.692955
11
-0.778856
21
0.693015
0
LINE
8
BLACK
6
CONTINUOUS
10
-0.778856
20
0.693015
11
-0.778963
21
0.693018
0
LINE
8
BLACK
6
CONTINUOUS
10
-0.778963
20
0.693018
11
-0.797762
21
0.701388
0
LINE
8
BLACK
6
CONTINUOUS
10
-0.797762
20
0.701388
11
-0.797836
21
0.701466
0
LINE
8
BLACK
6
CONTINUOUS
10
-0.797836
20
0.701466
11
-0.79794
21
0.701491
0
LINE
8
BLACK
6
CONTINUOUS
10
-0.79794
20
0.701491
11
-0.814586
21
0.713586
0
LINE
8
BLACK
6
CONTINUOUS
10
-0.814586
20
0.713586
11
-0.814635
21
0.713666
0
LINE
8
BLACK
6
CONTINUOUS
10
-0.814635
20
0.713666
11
-0.814721
21
0.713704
0
LINE
8
BLACK
6
CONTINUOUS
10
-0.814721
20
0.713704
11
-1.04242
21
0.953385
0
LINE
8
BLACK
6
CONTINUOUS
10
-1.04242
20
0.953385
11
-1.04242
21
0.953398
0
LINE
8
BLACK
6
CONTINUOUS
10
-1.04242
20
0.953398
11
-1.04244
21
0.953404
0
LINE
8
BLACK
6
CONTINUOUS
10
-1.04244
20
0.953404
11
-1.0562
21
0.968696
0
LINE
8
BLACK
6
CONTINUOUS
10
-1.0562
20
0.968696
11
-1.05624
21
0.968797
0
LINE
8
BLACK
6
CONTINUOUS
10
-1.05624
20
0.968797
11
-1.05632
21
0.968862
0
LINE
8
BLACK
6
CONTINUOUS
10
-1.05632
20
0.968862
11
-1.06661
21
0.986681
0
LINE
8
BLACK
6
CONTINUOUS
10
-1.06661
20
0.986681
11
-1.06663
21
0.986787
0
LINE
8
BLACK
6
CONTINUOUS
10
-1.06663
20
0.986787
11
-1.0667
21
0.986869
0
LINE
8
BLACK
6
CONTINUOUS
10
-1.0667
20
0.986869
11
-1.07306
21
1.00644
0
LINE
8
BLACK
6
CONTINUOUS
10
-1.07306
20
1.00644
11
-1.07305
21
1.00655
0
LINE
8
BLACK
6
CONTINUOUS
10
-1.07305
20
1.00655
11
-1.0731
21
1.00664
0
LINE
8
BLACK
6
CONTINUOUS
10
-1.0731
20
1.00664
11
-1.07525
21
1.0271
0
LINE
8
BLACK
6
CONTINUOUS
10
-1.07525
20
1.0271
11
-1.07522
21
1.0272
0
LINE
8
BLACK
6
CONTINUOUS
10
-1.07522
20
1.0272
11
-1.07525
21
1.02731
0
LINE
8
BLACK
6
CONTINUOUS
10
-1.07525
20
1.02731
11
-1.0731
21
1.04777
0
LINE
8
BLACK
6
CONTINUOUS
10
-1.0731
20
1.04777
11
-1.07305
21
1.04787
0
LINE
8
BLACK
6
CONTINUOUS
10
-1.07305
20
1.04787
11
-1.07306
21
1.04797
0
LINE
8
BLACK
6
CONTINUOUS
10
-1.07306
20
1.04797
11
-1.0667
21
1.06754
0
LINE
8
BLACK
6
CONTINUOUS
10
-1.0667
20
1.06754
11
-1.06663
21
1.06763
0
LINE
8
BLACK
6
CONTINUOUS
10
-1.06663
20
1.06763
11
-1.06661
21
1.06773
0
LINE
8
BLACK
6
CONTINUOUS
10
-1.06661
20
1.06773
11
-1.05632
21
1.08555
0
LINE
8
BLACK
6
CONTINUOUS
10
-1.05632
20
1.08555
11
-1.05624
21
1.08562
0
LINE
8
BLACK
6
CONTINUOUS
10
-1.05624
20
1.08562
11
-1.0562
21
1.08572
0
LINE
8
BLACK
6
CONTINUOUS
10
-1.0562
20
1.08572
11
-1.04244
21
1.10101
0
LINE
8
BLACK
6
CONTINUOUS
10
-1.04244
20
1.10101
11
-1.0424
21
1.10103
0
LINE
8
BLACK
6
CONTINUOUS
10
-1.0424
20
1.10103
11
-1.04238
21
1.10106
0
LINE
8
BLACK
6
CONTINUOUS
10
-1.04238
20
1.10106
11
-1.01491
21
1.12714
0
LINE
8
BLACK
6
CONTINUOUS
10
-1.01491
20
1.12714
11
-1.01488
21
1.12715
0
LINE
8
BLACK
6
CONTINUOUS
10
-1.01488
20
1.12715
11
-1.01487
21
1.12717
0
LINE
8
BLACK
6
CONTINUOUS
10
-1.01487
20
1.12717
11
-0.95845
21
1.17536
0
LINE
8
BLACK
6
CONTINUOUS
10
-0.95845
20
1.17536
11
-0.958424
21
1.17537
0
LINE
8
BLACK
6
CONTINUOUS
10
-0.958424
20
1.17537
11
-0.95841
21
1.17539
0
LINE
8
BLACK
6
CONTINUOUS
10
-0.95841
20
1.17539
11
-0.89954
21
1.22056
0
LINE
8
BLACK
6
CONTINUOUS
10
-0.89954
20
1.22056
11
-0.899526
21
1.22057
0
LINE
8
BLACK
6
CONTINUOUS
10
-0.899526
20
1.22057
11
-0.899519
21
1.22058
0
LINE
8
BLACK
6
CONTINUOUS
10
-0.899519
20
1.22058
11
-0.882874
21
1.23267
0
LINE
8
BLACK
6
CONTINUOUS
10
-0.882874
20
1.23267
11
-0.88286
21
1.23268
0
LINE
8
BLACK
6
CONTINUOUS
10
-0.88286
20
1.23268
11
-0.882853
21
1.23269
0
LINE
8
BLACK
6
CONTINUOUS
10
-0.882853
20
1.23269
11
-0.821699
21
1.27472
0
LINE
8
BLACK
6
CONTINUOUS
10
-0.821699
20
1.27472
11
-0.821672
21
1.27472
0
LINE
8
BLACK
6
CONTINUOUS
10
-0.821672
20
1.27472
11
-0.821656
21
1.27474
0
LINE
8
BLACK
6
CONTINUOUS
10
-0.821656
20
1.27474
11
-0.758388
21
1.31352
0
LINE
8
BLACK
6
CONTINUOUS
10
-0.758388
20
1.31352
11
-0.758361
21
1.31352
0
LINE
8
BLACK
6
CONTINUOUS
10
-0.758361
20
1.31352
11
-0.758343
21
1.31354
0
LINE
8
BLACK
6
CONTINUOUS
10
-0.758343
20
1.31354
11
-0.693135
21
1.34895
0
LINE
8
BLACK
6
CONTINUOUS
10
-0.693135
20
1.34895
11
-0.693107
21
1.34895
0
LINE
8
BLACK
6
CONTINUOUS
10
-0.693107
20
1.34895
11
-0.693089
21
1.34897
0
LINE
8
BLACK
6
CONTINUOUS
10
-0.693089
20
1.34897
11
-0.626112
21
1.38092
0
LINE
8
BLACK
6
CONTINUOUS
10
-0.626112
20
1.38092
11
-0.626099
21
1.38092
0
LINE
8
BLACK
6
CONTINUOUS
10
-0.626099
20
1.38092
11
-0.626089
21
1.38093
0
LINE
8
BLACK
6
CONTINUOUS
10
-0.626089
20
1.38093
11
-0.607294
21
1.3893
0
LINE
8
BLACK
6
CONTINUOUS
10
-0.607294
20
1.3893
11
-0.60728
21
1.3893
0
LINE
8
BLACK
6
CONTINUOUS
10
-0.60728
20
1.3893
11
-0.60727
21
1.38931
0
LINE
8
BLACK
6
CONTINUOUS
10
-0.60727
20
1.38931
11
-0.538715
21
1.4177
0
LINE
8
BLACK
6
CONTINUOUS
10
-0.538715
20
1.4177
11
-0.538687
21
1.4177
0
LINE
8
BLACK
6
CONTINUOUS
10
-0.538687
20
1.4177
11
-0.538667
21
1.41772
0
LINE
8
BLACK
6
CONTINUOUS
10
-0.538667
20
1.41772
11
-0.468718
21
1.44249
0
LINE
8
BLACK
6
CONTINUOUS
10
-0.468718
20
1.44249
11
-0.468691
21
1.44249
0
LINE
8
BLACK
6
CONTINUOUS
10
-0.468691
20
1.44249
11
-0.468669
21
1.44251
0
LINE
8
BLACK
6
CONTINUOUS
10
-0.468669
20
1.44251
11
-0.397523
21
1.46358
0
LINE
8
BLACK
6
CONTINUOUS
10
-0.397523
20
1.46358
11
-0.397496
21
1.46358
0
LINE
8
BLACK
6
CONTINUOUS
10
-0.397496
20
1.46358
11
-0.397474
21
1.46359
0
LINE
8
BLACK
6
CONTINUOUS
10
-0.397474
20
1.46359
11
-0.325322
21
1.48091
0
LINE
8
BLACK
6
CONTINUOUS
10
-0.325322
20
1.48091
11
-0.325308
21
1.48091
0
LINE
8
BLACK
6
CONTINUOUS
10
-0.325308
20
1.48091
11
-0.325297
21
1.48092
0
LINE
8
BLACK
6
CONTINUOUS
10
-0.325297
20
1.48092
11
-0.305171
21
1.4852
0
LINE
8
BLACK
6
CONTINUOUS
10
-0.305171
20
1.4852
11
-0.305157
21
1.4852
0
LINE
8
BLACK
6
CONTINUOUS
10
-0.305157
20
1.4852
11
-0.305145
21
1.4852
0
LINE
8
BLACK
6
CONTINUOUS
10
-0.305145
20
1.4852
11
-0.232185
21
1.49873
0
LINE
8
BLACK
6
CONTINUOUS
10
-0.232185
20
1.49873
11
-0.232158
21
1.49872
0
LINE
8
BLACK
6
CONTINUOUS
10
-0.232158
20
1.49872
11
-0.232134
21
1.49874
0
LINE
8
BLACK
6
CONTINUOUS
10
-0.232134
20
1.49874
11
-0.158567
21
1.50842
0
LINE
8
BLACK
6
CONTINUOUS
10
-0.158567
20
1.50842
11
-0.15854
21
1.50841
0
LINE
8
BLACK
6
CONTINUOUS
10
-0.15854
20
1.50841
11
-0.158516
21
1.50843
0
LINE
8
BLACK
6
CONTINUOUS
10
-0.158516
20
1.50843
11
-0.0845416
21
1.51425
0
LINE
8
BLACK
6
CONTINUOUS
10
-0.0845416
20
1.51425
11
-0.0845153
21
1.51424
0
LINE
8
BLACK
6
CONTINUOUS
10
-0.0845153
20
1.51424
11
-0.0844901
21
1.51425
0
LINE
8
BLACK
6
CONTINUOUS
10
-0.0844901
20
1.51425
11
-0.0103131
21
1.51619
0
LINE
8
BLACK
6
CONTINUOUS
10
-0.0103131
20
1.51619
11
-0.0103002
21
1.51619
0
LINE
8
BLACK
6
CONTINUOUS
10
-0.0103002
20
1.51619
11
-0.0102874
21
1.51619
0
LINE
8
BLACK
6
CONTINUOUS
10
-0.0102874
20
1.51619
11
0.010288
21
1.51619
0
LINE
8
BLACK
6
CONTINUOUS
10
0.010288
20
1.51619
11
0.0103007
21
1.51619
  0
ENDSEC
  0
EOF
