  0
SECTION
  2
HEADER
  9
$ANGBASE
  50
0.0
  9
$ANGDIR
  70
1
  9
$MEASUREMENT
  70
0
  0
ENDSEC
  0
SECTION
  2
TABLES
  0
TABLE
  2
LTYPE
  70
4
  0
LTYPE
  5
40F
  2
CONTINUOUS
  70
0
  3
Solid line
  72
65
  73
0
  40
0.0
  0
LTYPE
  5
410
  2
DASHDOT
 70
0
  3
Dash Dot ____ _ ____ _
 72
65
 73
4
 40
2.0
 49
1.25
 49
-0.25
 49
0.25
 49
-0.25
  0
LTYPE
  5
411
  2
DASHED
 70
0
  3
Dashed __ __ __ __ __
 72
65
 73
2
 40
0.75
 49
0.5
 49
-0.25
  0
LTYPE
  5
43B
  2
DOTTED
 70
0
  3
Dotted .  .  .  .
 72
65
 73
2
 40
0.2
 49
0.0
 49
-0.2
  0
ENDTAB
  0
TABLE
  2
STYLE
  70
4
  0
STYLE
  2
KICAD
  70
0
  40
0
  41
1
  42
1
  50
0
  71
0
  3
isocp.shx
  0
STYLE
  2
KICADB
  70
0
  40
0
  41
1
  42
1
  50
0
  71
0
  3
isocp.shx
  0
STYLE
  2
KICADI
  70
0
  40
0
  41
1
  42
1
  50
15
  71
0
  3
isocp.shx
  0
STYLE
  2
KICADBI
  70
0
  40
0
  41
1
  42
1
  50
15
  71
0
  3
isocp.shx
  0
ENDTAB
  0
TABLE
  2
LAYER
  70
1
  0
LAYER
  2
BLACK
  70
0
  62
7
  6
CONTINUOUS
  0
ENDTAB
  0
ENDSEC
  0
SECTION
  2
ENTITIES
0
LINE
8
BLACK
6
CONTINUOUS
10
0.0339512
20
0.323024
11
0.0564015
21
0.319869
0
LINE
8
BLACK
6
CONTINUOUS
10
0.0564015
20
0.319869
11
0.078577
21
0.315155
0
LINE
8
BLACK
6
CONTINUOUS
10
0.078577
20
0.315155
11
0.10037
21
0.308906
0
LINE
8
BLACK
6
CONTINUOUS
10
0.10037
20
0.308906
11
0.121673
21
0.301152
0
LINE
8
BLACK
6
CONTINUOUS
10
0.121673
20
0.301152
11
0.142384
21
0.291931
0
LINE
8
BLACK
6
CONTINUOUS
10
0.142384
20
0.291931
11
0.162402
21
0.281288
0
LINE
8
BLACK
6
CONTINUOUS
10
0.162402
20
0.281288
11
0.181628
21
0.269274
0
LINE
8
BLACK
6
CONTINUOUS
10
0.181628
20
0.269274
11
0.199969
21
0.255948
0
LINE
8
BLACK
6
CONTINUOUS
10
0.199969
20
0.255948
11
0.217336
21
0.241376
0
LINE
8
BLACK
6
CONTINUOUS
10
0.217336
20
0.241376
11
0.233644
21
0.225627
0
LINE
8
BLACK
6
CONTINUOUS
10
0.233644
20
0.225627
11
0.248814
21
0.208779
0
LINE
8
BLACK
6
CONTINUOUS
10
0.248814
20
0.208779
11
0.262771
21
0.190914
0
LINE
8
BLACK
6
CONTINUOUS
10
0.262771
20
0.190914
11
0.275449
21
0.172119
0
LINE
8
BLACK
6
CONTINUOUS
10
0.275449
20
0.172119
11
0.286784
21
0.152486
0
LINE
8
BLACK
6
CONTINUOUS
10
0.286784
20
0.152486
11
0.296722
21
0.132109
0
LINE
8
BLACK
6
CONTINUOUS
10
0.296722
20
0.132109
11
0.305215
21
0.111089
0
LINE
8
BLACK
6
CONTINUOUS
10
0.305215
20
0.111089
11
0.312221
21
0.0895279
0
LINE
8
BLACK
6
CONTINUOUS
10
0.312221
20
0.0895279
11
0.317705
21
0.0675304
0
LINE
8
BLACK
6
CONTINUOUS
10
0.317705
20
0.0675304
11
0.321642
21
0.0452039
0
LINE
8
BLACK
6
CONTINUOUS
10
0.321642
20
0.0452039
11
0.324012
21
0.0226571
0
LINE
8
BLACK
6
CONTINUOUS
10
0.324012
20
0.0226571
11
0.324803
21
0
0
LINE
8
BLACK
6
CONTINUOUS
10
0.324803
20
0
11
0.324012
21
-0.0226571
0
LINE
8
BLACK
6
CONTINUOUS
10
0.324012
20
-0.0226571
11
0.321642
21
-0.0452039
0
LINE
8
BLACK
6
CONTINUOUS
10
0.321642
20
-0.0452039
11
0.317705
21
-0.0675304
0
LINE
8
BLACK
6
CONTINUOUS
10
0.317705
20
-0.0675304
11
0.312221
21
-0.0895279
0
LINE
8
BLACK
6
CONTINUOUS
10
0.312221
20
-0.0895279
11
0.305215
21
-0.111089
0
LINE
8
BLACK
6
CONTINUOUS
10
0.305215
20
-0.111089
11
0.296722
21
-0.132109
0
LINE
8
BLACK
6
CONTINUOUS
10
0.296722
20
-0.132109
11
0.286784
21
-0.152486
0
LINE
8
BLACK
6
CONTINUOUS
10
0.286784
20
-0.152486
11
0.275449
21
-0.172119
0
LINE
8
BLACK
6
CONTINUOUS
10
0.275449
20
-0.172119
11
0.262771
21
-0.190914
0
LINE
8
BLACK
6
CONTINUOUS
10
0.262771
20
-0.190914
11
0.248814
21
-0.208779
0
LINE
8
BLACK
6
CONTINUOUS
10
0.248814
20
-0.208779
11
0.233644
21
-0.225627
0
LINE
8
BLACK
6
CONTINUOUS
10
0.233644
20
-0.225627
11
0.217336
21
-0.241376
0
LINE
8
BLACK
6
CONTINUOUS
10
0.217336
20
-0.241376
11
0.199969
21
-0.255948
0
LINE
8
BLACK
6
CONTINUOUS
10
0.199969
20
-0.255948
11
0.181628
21
-0.269274
0
LINE
8
BLACK
6
CONTINUOUS
10
0.181628
20
-0.269274
11
0.162402
21
-0.281288
0
LINE
8
BLACK
6
CONTINUOUS
10
0.162402
20
-0.281288
11
0.142384
21
-0.291931
0
LINE
8
BLACK
6
CONTINUOUS
10
0.142384
20
-0.291931
11
0.121673
21
-0.301152
0
LINE
8
BLACK
6
CONTINUOUS
10
0.121673
20
-0.301152
11
0.10037
21
-0.308906
0
LINE
8
BLACK
6
CONTINUOUS
10
0.10037
20
-0.308906
11
0.078577
21
-0.315155
0
LINE
8
BLACK
6
CONTINUOUS
10
0.078577
20
-0.315155
11
0.0564015
21
-0.319869
0
LINE
8
BLACK
6
CONTINUOUS
10
0.0564015
20
-0.319869
11
0.0339512
21
-0.323024
0
LINE
8
BLACK
6
CONTINUOUS
10
0.0339512
20
-0.323024
11
0.0113355
21
-0.324605
0
LINE
8
BLACK
6
CONTINUOUS
10
0.0113355
20
-0.324605
11
-0.0113355
21
-0.324605
0
LINE
8
BLACK
6
CONTINUOUS
10
-0.0113355
20
-0.324605
11
-0.0339512
21
-0.323024
0
LINE
8
BLACK
6
CONTINUOUS
10
-0.0339512
20
-0.323024
11
-0.0564015
21
-0.319869
0
LINE
8
BLACK
6
CONTINUOUS
10
-0.0564015
20
-0.319869
11
-0.078577
21
-0.315155
0
LINE
8
BLACK
6
CONTINUOUS
10
-0.078577
20
-0.315155
11
-0.10037
21
-0.308906
0
LINE
8
BLACK
6
CONTINUOUS
10
-0.10037
20
-0.308906
11
-0.121673
21
-0.301152
0
LINE
8
BLACK
6
CONTINUOUS
10
-0.121673
20
-0.301152
11
-0.142384
21
-0.291931
0
LINE
8
BLACK
6
CONTINUOUS
10
-0.142384
20
-0.291931
11
-0.162402
21
-0.281288
0
LINE
8
BLACK
6
CONTINUOUS
10
-0.162402
20
-0.281288
11
-0.181628
21
-0.269274
0
LINE
8
BLACK
6
CONTINUOUS
10
-0.181628
20
-0.269274
11
-0.199969
21
-0.255948
0
LINE
8
BLACK
6
CONTINUOUS
10
-0.199969
20
-0.255948
11
-0.217336
21
-0.241376
0
LINE
8
BLACK
6
CONTINUOUS
10
-0.217336
20
-0.241376
11
-0.233644
21
-0.225627
0
LINE
8
BLACK
6
CONTINUOUS
10
-0.233644
20
-0.225627
11
-0.248814
21
-0.208779
0
LINE
8
BLACK
6
CONTINUOUS
10
-0.248814
20
-0.208779
11
-0.262771
21
-0.190914
0
LINE
8
BLACK
6
CONTINUOUS
10
-0.262771
20
-0.190914
11
-0.275449
21
-0.172119
0
LINE
8
BLACK
6
CONTINUOUS
10
-0.275449
20
-0.172119
11
-0.286784
21
-0.152486
0
LINE
8
BLACK
6
CONTINUOUS
10
-0.286784
20
-0.152486
11
-0.296722
21
-0.132109
0
LINE
8
BLACK
6
CONTINUOUS
10
-0.296722
20
-0.132109
11
-0.305215
21
-0.111089
0
LINE
8
BLACK
6
CONTINUOUS
10
-0.305215
20
-0.111089
11
-0.312221
21
-0.0895279
0
LINE
8
BLACK
6
CONTINUOUS
10
-0.312221
20
-0.0895279
11
-0.317705
21
-0.0675304
0
LINE
8
BLACK
6
CONTINUOUS
10
-0.317705
20
-0.0675304
11
-0.321642
21
-0.0452039
0
LINE
8
BLACK
6
CONTINUOUS
10
-0.321642
20
-0.0452039
11
-0.324012
21
-0.0226571
0
LINE
8
BLACK
6
CONTINUOUS
10
-0.324012
20
-0.0226571
11
-0.324803
21
0
0
LINE
8
BLACK
6
CONTINUOUS
10
-0.324803
20
0
11
-0.324012
21
0.0226571
0
LINE
8
BLACK
6
CONTINUOUS
10
-0.324012
20
0.0226571
11
-0.321642
21
0.0452039
0
LINE
8
BLACK
6
CONTINUOUS
10
-0.321642
20
0.0452039
11
-0.317705
21
0.0675304
0
LINE
8
BLACK
6
CONTINUOUS
10
-0.317705
20
0.0675304
11
-0.312221
21
0.0895279
0
LINE
8
BLACK
6
CONTINUOUS
10
-0.312221
20
0.0895279
11
-0.305215
21
0.111089
0
LINE
8
BLACK
6
CONTINUOUS
10
-0.305215
20
0.111089
11
-0.296722
21
0.132109
0
LINE
8
BLACK
6
CONTINUOUS
10
-0.296722
20
0.132109
11
-0.286784
21
0.152486
0
LINE
8
BLACK
6
CONTINUOUS
10
-0.286784
20
0.152486
11
-0.275449
21
0.172119
0
LINE
8
BLACK
6
CONTINUOUS
10
-0.275449
20
0.172119
11
-0.262771
21
0.190914
0
LINE
8
BLACK
6
CONTINUOUS
10
-0.262771
20
0.190914
11
-0.248814
21
0.208779
0
LINE
8
BLACK
6
CONTINUOUS
10
-0.248814
20
0.208779
11
-0.233644
21
0.225627
0
LINE
8
BLACK
6
CONTINUOUS
10
-0.233644
20
0.225627
11
-0.217336
21
0.241376
0
LINE
8
BLACK
6
CONTINUOUS
10
-0.217336
20
0.241376
11
-0.199969
21
0.255948
0
LINE
8
BLACK
6
CONTINUOUS
10
-0.199969
20
0.255948
11
-0.181628
21
0.269274
0
LINE
8
BLACK
6
CONTINUOUS
10
-0.181628
20
0.269274
11
-0.162402
21
0.281288
0
LINE
8
BLACK
6
CONTINUOUS
10
-0.162402
20
0.281288
11
-0.142384
21
0.291931
0
LINE
8
BLACK
6
CONTINUOUS
10
-0.142384
20
0.291931
11
-0.121673
21
0.301152
0
LINE
8
BLACK
6
CONTINUOUS
10
-0.121673
20
0.301152
11
-0.10037
21
0.308906
0
LINE
8
BLACK
6
CONTINUOUS
10
-0.10037
20
0.308906
11
-0.078577
21
0.315155
0
LINE
8
BLACK
6
CONTINUOUS
10
-0.078577
20
0.315155
11
-0.0564015
21
0.319869
0
LINE
8
BLACK
6
CONTINUOUS
10
-0.0564015
20
0.319869
11
-0.0339512
21
0.323024
0
LINE
8
BLACK
6
CONTINUOUS
10
-0.0339512
20
0.323024
11
-0.0113355
21
0.324605
0
LINE
8
BLACK
6
CONTINUOUS
10
-0.0113355
20
0.324605
11
0.0113355
21
0.324605
0
LINE
8
BLACK
6
CONTINUOUS
10
0.0113355
20
0.324605
11
0.0339512
21
0.323024
0
LINE
8
BLACK
6
CONTINUOUS
10
-0.31635
20
-0.0221213
11
-0.314036
21
-0.0441349
0
LINE
8
BLACK
6
CONTINUOUS
10
-0.314036
20
-0.0441349
11
-0.310192
21
-0.0659334
0
LINE
8
BLACK
6
CONTINUOUS
10
-0.310192
20
-0.0659334
11
-0.304838
21
-0.0874107
0
LINE
8
BLACK
6
CONTINUOUS
10
-0.304838
20
-0.0874107
11
-0.297998
21
-0.108462
0
LINE
8
BLACK
6
CONTINUOUS
10
-0.297998
20
-0.108462
11
-0.289706
21
-0.128985
0
LINE
8
BLACK
6
CONTINUOUS
10
-0.289706
20
-0.128985
11
-0.280002
21
-0.14888
0
LINE
8
BLACK
6
CONTINUOUS
10
-0.280002
20
-0.14888
11
-0.268935
21
-0.168049
0
LINE
8
BLACK
6
CONTINUOUS
10
-0.268935
20
-0.168049
11
-0.256557
21
-0.1864
0
LINE
8
BLACK
6
CONTINUOUS
10
-0.256557
20
-0.1864
11
-0.24293
21
-0.203842
0
LINE
8
BLACK
6
CONTINUOUS
10
-0.24293
20
-0.203842
11
-0.228119
21
-0.220292
0
LINE
8
BLACK
6
CONTINUOUS
10
-0.228119
20
-0.220292
11
-0.212196
21
-0.235668
0
LINE
8
BLACK
6
CONTINUOUS
10
-0.212196
20
-0.235668
11
-0.19524
21
-0.249896
0
LINE
8
BLACK
6
CONTINUOUS
10
-0.19524
20
-0.249896
11
-0.177333
21
-0.262906
0
LINE
8
BLACK
6
CONTINUOUS
10
-0.177333
20
-0.262906
11
-0.158561
21
-0.274636
0
LINE
8
BLACK
6
CONTINUOUS
10
-0.158561
20
-0.274636
11
-0.139017
21
-0.285028
0
LINE
8
BLACK
6
CONTINUOUS
10
-0.139017
20
-0.285028
11
-0.118796
21
-0.294031
0
LINE
8
BLACK
6
CONTINUOUS
10
-0.118796
20
-0.294031
11
-0.0979962
21
-0.301601
0
LINE
8
BLACK
6
CONTINUOUS
10
-0.0979962
20
-0.301601
11
-0.0767188
21
-0.307702
0
LINE
8
BLACK
6
CONTINUOUS
10
-0.0767188
20
-0.307702
11
-0.0550677
21
-0.312305
0
LINE
8
BLACK
6
CONTINUOUS
10
-0.0550677
20
-0.312305
11
-0.0331483
21
-0.315385
0
LINE
8
BLACK
6
CONTINUOUS
10
-0.0331483
20
-0.315385
11
-0.0110674
21
-0.316929
0
LINE
8
BLACK
6
CONTINUOUS
10
-0.0110674
20
-0.316929
11
0.0110674
21
-0.316929
0
LINE
8
BLACK
6
CONTINUOUS
10
0.0110674
20
-0.316929
11
0.0331483
21
-0.315385
0
LINE
8
BLACK
6
CONTINUOUS
10
0.0331483
20
-0.315385
11
0.0550677
21
-0.312305
0
LINE
8
BLACK
6
CONTINUOUS
10
0.0550677
20
-0.312305
11
0.0767188
21
-0.307702
0
LINE
8
BLACK
6
CONTINUOUS
10
0.0767188
20
-0.307702
11
0.0979962
21
-0.301601
0
LINE
8
BLACK
6
CONTINUOUS
10
0.0979962
20
-0.301601
11
0.118796
21
-0.294031
0
LINE
8
BLACK
6
CONTINUOUS
10
0.118796
20
-0.294031
11
0.139017
21
-0.285028
0
LINE
8
BLACK
6
CONTINUOUS
10
0.139017
20
-0.285028
11
0.158561
21
-0.274636
0
LINE
8
BLACK
6
CONTINUOUS
10
0.158561
20
-0.274636
11
0.177333
21
-0.262906
0
LINE
8
BLACK
6
CONTINUOUS
10
0.177333
20
-0.262906
11
0.19524
21
-0.249896
0
LINE
8
BLACK
6
CONTINUOUS
10
0.19524
20
-0.249896
11
0.212196
21
-0.235668
0
LINE
8
BLACK
6
CONTINUOUS
10
0.212196
20
-0.235668
11
0.228119
21
-0.220292
0
LINE
8
BLACK
6
CONTINUOUS
10
0.228119
20
-0.220292
11
0.24293
21
-0.203842
0
LINE
8
BLACK
6
CONTINUOUS
10
0.24293
20
-0.203842
11
0.256557
21
-0.1864
0
LINE
8
BLACK
6
CONTINUOUS
10
0.256557
20
-0.1864
11
0.268935
21
-0.168049
0
LINE
8
BLACK
6
CONTINUOUS
10
0.268935
20
-0.168049
11
0.280002
21
-0.14888
0
LINE
8
BLACK
6
CONTINUOUS
10
0.280002
20
-0.14888
11
0.289706
21
-0.128985
0
LINE
8
BLACK
6
CONTINUOUS
10
0.289706
20
-0.128985
11
0.297998
21
-0.108462
0
LINE
8
BLACK
6
CONTINUOUS
10
0.297998
20
-0.108462
11
0.304838
21
-0.0874107
0
LINE
8
BLACK
6
CONTINUOUS
10
0.304838
20
-0.0874107
11
0.310192
21
-0.0659334
0
LINE
8
BLACK
6
CONTINUOUS
10
0.310192
20
-0.0659334
11
0.314036
21
-0.0441349
0
LINE
8
BLACK
6
CONTINUOUS
10
0.314036
20
-0.0441349
11
0.31635
21
-0.0221213
0
LINE
8
BLACK
6
CONTINUOUS
10
0.31635
20
-0.0221213
11
0.317122
21
0
0
LINE
8
BLACK
6
CONTINUOUS
10
0.317122
20
0
11
0.31635
21
0.0221213
0
LINE
8
BLACK
6
CONTINUOUS
10
0.31635
20
0.0221213
11
0.314036
21
0.0441349
0
LINE
8
BLACK
6
CONTINUOUS
10
0.314036
20
0.0441349
11
0.310192
21
0.0659334
0
LINE
8
BLACK
6
CONTINUOUS
10
0.310192
20
0.0659334
11
0.304838
21
0.0874107
0
LINE
8
BLACK
6
CONTINUOUS
10
0.304838
20
0.0874107
11
0.297998
21
0.108462
0
LINE
8
BLACK
6
CONTINUOUS
10
0.297998
20
0.108462
11
0.289706
21
0.128985
0
LINE
8
BLACK
6
CONTINUOUS
10
0.289706
20
0.128985
11
0.280002
21
0.14888
0
LINE
8
BLACK
6
CONTINUOUS
10
0.280002
20
0.14888
11
0.268935
21
0.168049
0
LINE
8
BLACK
6
CONTINUOUS
10
0.268935
20
0.168049
11
0.256557
21
0.1864
0
LINE
8
BLACK
6
CONTINUOUS
10
0.256557
20
0.1864
11
0.24293
21
0.203842
0
LINE
8
BLACK
6
CONTINUOUS
10
0.24293
20
0.203842
11
0.228119
21
0.220292
0
LINE
8
BLACK
6
CONTINUOUS
10
0.228119
20
0.220292
11
0.212196
21
0.235668
0
LINE
8
BLACK
6
CONTINUOUS
10
0.212196
20
0.235668
11
0.19524
21
0.249896
0
LINE
8
BLACK
6
CONTINUOUS
10
0.19524
20
0.249896
11
0.177333
21
0.262906
0
LINE
8
BLACK
6
CONTINUOUS
10
0.177333
20
0.262906
11
0.158561
21
0.274636
0
LINE
8
BLACK
6
CONTINUOUS
10
0.158561
20
0.274636
11
0.139017
21
0.285028
0
LINE
8
BLACK
6
CONTINUOUS
10
0.139017
20
0.285028
11
0.118796
21
0.294031
0
LINE
8
BLACK
6
CONTINUOUS
10
0.118796
20
0.294031
11
0.0979962
21
0.301601
0
LINE
8
BLACK
6
CONTINUOUS
10
0.0979962
20
0.301601
11
0.0767188
21
0.307702
0
LINE
8
BLACK
6
CONTINUOUS
10
0.0767188
20
0.307702
11
0.0550677
21
0.312305
0
LINE
8
BLACK
6
CONTINUOUS
10
0.0550677
20
0.312305
11
0.0331483
21
0.315385
0
LINE
8
BLACK
6
CONTINUOUS
10
0.0331483
20
0.315385
11
0.0110674
21
0.316929
0
LINE
8
BLACK
6
CONTINUOUS
10
0.0110674
20
0.316929
11
-0.0110674
21
0.316929
0
LINE
8
BLACK
6
CONTINUOUS
10
-0.0110674
20
0.316929
11
-0.0331483
21
0.315385
0
LINE
8
BLACK
6
CONTINUOUS
10
-0.0331483
20
0.315385
11
-0.0550677
21
0.312305
0
LINE
8
BLACK
6
CONTINUOUS
10
-0.0550677
20
0.312305
11
-0.0767188
21
0.307702
0
LINE
8
BLACK
6
CONTINUOUS
10
-0.0767188
20
0.307702
11
-0.0979962
21
0.301601
0
LINE
8
BLACK
6
CONTINUOUS
10
-0.0979962
20
0.301601
11
-0.118796
21
0.294031
0
LINE
8
BLACK
6
CONTINUOUS
10
-0.118796
20
0.294031
11
-0.139017
21
0.285028
0
LINE
8
BLACK
6
CONTINUOUS
10
-0.139017
20
0.285028
11
-0.158561
21
0.274636
0
LINE
8
BLACK
6
CONTINUOUS
10
-0.158561
20
0.274636
11
-0.177333
21
0.262906
0
LINE
8
BLACK
6
CONTINUOUS
10
-0.177333
20
0.262906
11
-0.19524
21
0.249896
0
LINE
8
BLACK
6
CONTINUOUS
10
-0.19524
20
0.249896
11
-0.212196
21
0.235668
0
LINE
8
BLACK
6
CONTINUOUS
10
-0.212196
20
0.235668
11
-0.228119
21
0.220292
0
LINE
8
BLACK
6
CONTINUOUS
10
-0.228119
20
0.220292
11
-0.24293
21
0.203842
0
LINE
8
BLACK
6
CONTINUOUS
10
-0.24293
20
0.203842
11
-0.256557
21
0.1864
0
LINE
8
BLACK
6
CONTINUOUS
10
-0.256557
20
0.1864
11
-0.268935
21
0.168049
0
LINE
8
BLACK
6
CONTINUOUS
10
-0.268935
20
0.168049
11
-0.280002
21
0.14888
0
LINE
8
BLACK
6
CONTINUOUS
10
-0.280002
20
0.14888
11
-0.289706
21
0.128985
0
LINE
8
BLACK
6
CONTINUOUS
10
-0.289706
20
0.128985
11
-0.297998
21
0.108462
0
LINE
8
BLACK
6
CONTINUOUS
10
-0.297998
20
0.108462
11
-0.304838
21
0.0874107
0
LINE
8
BLACK
6
CONTINUOUS
10
-0.304838
20
0.0874107
11
-0.310192
21
0.0659334
0
LINE
8
BLACK
6
CONTINUOUS
10
-0.310192
20
0.0659334
11
-0.314036
21
0.0441349
0
LINE
8
BLACK
6
CONTINUOUS
10
-0.314036
20
0.0441349
11
-0.31635
21
0.0221213
0
LINE
8
BLACK
6
CONTINUOUS
10
-0.31635
20
0.0221213
11
-0.317122
21
0
0
LINE
8
BLACK
6
CONTINUOUS
10
-0.317122
20
0
11
-0.31635
21
-0.0221213
0
LINE
8
BLACK
6
CONTINUOUS
10
0.0824447
20
1.57363
11
0.0824698
21
1.57362
0
LINE
8
BLACK
6
CONTINUOUS
10
0.0824698
20
1.57362
11
0.0824961
21
1.57363
0
LINE
8
BLACK
6
CONTINUOUS
10
0.0824961
20
1.57363
11
0.164689
21
1.56716
0
LINE
8
BLACK
6
CONTINUOUS
10
0.164689
20
1.56716
11
0.164714
21
1.56715
0
LINE
8
BLACK
6
CONTINUOUS
10
0.164714
20
1.56715
11
0.16474
21
1.56715
0
LINE
8
BLACK
6
CONTINUOUS
10
0.16474
20
1.56715
11
0.246482
21
1.55639
0
LINE
8
BLACK
6
CONTINUOUS
10
0.246482
20
1.55639
11
0.246506
21
1.55638
0
LINE
8
BLACK
6
CONTINUOUS
10
0.246506
20
1.55638
11
0.246533
21
1.55638
0
LINE
8
BLACK
6
CONTINUOUS
10
0.246533
20
1.55638
11
0.327599
21
1.54136
0
LINE
8
BLACK
6
CONTINUOUS
10
0.327599
20
1.54136
11
0.327622
21
1.54134
0
LINE
8
BLACK
6
CONTINUOUS
10
0.327622
20
1.54134
11
0.32765
21
1.54135
0
LINE
8
BLACK
6
CONTINUOUS
10
0.32765
20
1.54135
11
0.40782
21
1.5221
0
LINE
8
BLACK
6
CONTINUOUS
10
0.40782
20
1.5221
11
0.407843
21
1.52208
0
LINE
8
BLACK
6
CONTINUOUS
10
0.407843
20
1.52208
11
0.40787
21
1.52209
0
LINE
8
BLACK
6
CONTINUOUS
10
0.40787
20
1.52209
11
0.486921
21
1.49867
0
LINE
8
BLACK
6
CONTINUOUS
10
0.486921
20
1.49867
11
0.486943
21
1.49865
0
LINE
8
BLACK
6
CONTINUOUS
10
0.486943
20
1.49865
11
0.48697
21
1.49866
0
LINE
8
BLACK
6
CONTINUOUS
10
0.48697
20
1.49866
11
0.564687
21
1.47113
0
LINE
8
BLACK
6
CONTINUOUS
10
0.564687
20
1.47113
11
0.564707
21
1.47111
0
LINE
8
BLACK
6
CONTINUOUS
10
0.564707
20
1.47111
11
0.564735
21
1.47111
0
LINE
8
BLACK
6
CONTINUOUS
10
0.564735
20
1.47111
11
0.640908
21
1.43956
0
LINE
8
BLACK
6
CONTINUOUS
10
0.640908
20
1.43956
11
0.640928
21
1.43954
0
LINE
8
BLACK
6
CONTINUOUS
10
0.640928
20
1.43954
11
0.640955
21
1.43954
0
LINE
8
BLACK
6
CONTINUOUS
10
0.640955
20
1.43954
11
0.715369
21
1.40405
0
LINE
8
BLACK
6
CONTINUOUS
10
0.715369
20
1.40405
11
0.715387
21
1.40403
0
LINE
8
BLACK
6
CONTINUOUS
10
0.715387
20
1.40403
11
0.715414
21
1.40403
0
LINE
8
BLACK
6
CONTINUOUS
10
0.715414
20
1.40403
11
0.787871
21
1.36468
0
LINE
8
BLACK
6
CONTINUOUS
10
0.787871
20
1.36468
11
0.787889
21
1.36466
0
LINE
8
BLACK
6
CONTINUOUS
10
0.787889
20
1.36466
11
0.787916
21
1.36466
0
LINE
8
BLACK
6
CONTINUOUS
10
0.787916
20
1.36466
11
0.858215
21
1.32158
0
LINE
8
BLACK
6
CONTINUOUS
10
0.858215
20
1.32158
11
0.858231
21
1.32156
0
LINE
8
BLACK
6
CONTINUOUS
10
0.858231
20
1.32156
11
0.858258
21
1.32155
0
LINE
8
BLACK
6
CONTINUOUS
10
0.858258
20
1.32155
11
0.926203
21
1.27485
0
LINE
8
BLACK
6
CONTINUOUS
10
0.926203
20
1.27485
11
0.926218
21
1.27483
0
LINE
8
BLACK
6
CONTINUOUS
10
0.926218
20
1.27483
11
0.926245
21
1.27482
0
LINE
8
BLACK
6
CONTINUOUS
10
0.926245
20
1.27482
11
0.991654
21
1.22463
0
LINE
8
BLACK
6
CONTINUOUS
10
0.991654
20
1.22463
11
0.991668
21
1.22461
0
LINE
8
BLACK
6
CONTINUOUS
10
0.991668
20
1.22461
11
0.991694
21
1.2246
0
LINE
8
BLACK
6
CONTINUOUS
10
0.991694
20
1.2246
11
1.05439
21
1.17106
0
LINE
8
BLACK
6
CONTINUOUS
10
1.05439
20
1.17106
11
1.0544
21
1.17103
0
LINE
8
BLACK
6
CONTINUOUS
10
1.0544
20
1.17103
11
1.05443
21
1.17102
0
LINE
8
BLACK
6
CONTINUOUS
10
1.05443
20
1.17102
11
1.11423
21
1.11427
0
LINE
8
BLACK
6
CONTINUOUS
10
1.11423
20
1.11427
11
1.11424
21
1.11424
0
LINE
8
BLACK
6
CONTINUOUS
10
1.11424
20
1.11424
11
1.11427
21
1.11423
0
LINE
8
BLACK
6
CONTINUOUS
10
1.11427
20
1.11423
11
1.17102
21
1.05443
0
LINE
8
BLACK
6
CONTINUOUS
10
1.17102
20
1.05443
11
1.17103
21
1.0544
0
LINE
8
BLACK
6
CONTINUOUS
10
1.17103
20
1.0544
11
1.17106
21
1.05439
0
LINE
8
BLACK
6
CONTINUOUS
10
1.17106
20
1.05439
11
1.2246
21
0.991694
0
LINE
8
BLACK
6
CONTINUOUS
10
1.2246
20
0.991694
11
1.22461
21
0.991668
0
LINE
8
BLACK
6
CONTINUOUS
10
1.22461
20
0.991668
11
1.22463
21
0.991654
0
LINE
8
BLACK
6
CONTINUOUS
10
1.22463
20
0.991654
11
1.27482
21
0.926245
0
LINE
8
BLACK
6
CONTINUOUS
10
1.27482
20
0.926245
11
1.27483
21
0.926218
0
LINE
8
BLACK
6
CONTINUOUS
10
1.27483
20
0.926218
11
1.27485
21
0.926203
0
LINE
8
BLACK
6
CONTINUOUS
10
1.27485
20
0.926203
11
1.32155
21
0.858258
0
LINE
8
BLACK
6
CONTINUOUS
10
1.32155
20
0.858258
11
1.32156
21
0.858231
0
LINE
8
BLACK
6
CONTINUOUS
10
1.32156
20
0.858231
11
1.32158
21
0.858215
0
LINE
8
BLACK
6
CONTINUOUS
10
1.32158
20
0.858215
11
1.36466
21
0.787916
0
LINE
8
BLACK
6
CONTINUOUS
10
1.36466
20
0.787916
11
1.36466
21
0.787889
0
LINE
8
BLACK
6
CONTINUOUS
10
1.36466
20
0.787889
11
1.36468
21
0.787871
0
LINE
8
BLACK
6
CONTINUOUS
10
1.36468
20
0.787871
11
1.40403
21
0.715415
0
LINE
8
BLACK
6
CONTINUOUS
10
1.40403
20
0.715415
11
1.40403
21
0.715387
0
LINE
8
BLACK
6
CONTINUOUS
10
1.40403
20
0.715387
11
1.40405
21
0.715369
0
LINE
8
BLACK
6
CONTINUOUS
10
1.40405
20
0.715369
11
1.43954
21
0.640955
0
LINE
8
BLACK
6
CONTINUOUS
10
1.43954
20
0.640955
11
1.43954
21
0.640928
0
LINE
8
BLACK
6
CONTINUOUS
10
1.43954
20
0.640928
11
1.43956
21
0.640908
0
LINE
8
BLACK
6
CONTINUOUS
10
1.43956
20
0.640908
11
1.47111
21
0.564735
0
LINE
8
BLACK
6
CONTINUOUS
10
1.47111
20
0.564735
11
1.47111
21
0.564707
0
LINE
8
BLACK
6
CONTINUOUS
10
1.47111
20
0.564707
11
1.47113
21
0.564687
0
LINE
8
BLACK
6
CONTINUOUS
10
1.47113
20
0.564687
11
1.49866
21
0.48697
0
LINE
8
BLACK
6
CONTINUOUS
10
1.49866
20
0.48697
11
1.49865
21
0.486943
0
LINE
8
BLACK
6
CONTINUOUS
10
1.49865
20
0.486943
11
1.49867
21
0.486921
0
LINE
8
BLACK
6
CONTINUOUS
10
1.49867
20
0.486921
11
1.52209
21
0.40787
0
LINE
8
BLACK
6
CONTINUOUS
10
1.52209
20
0.40787
11
1.52208
21
0.407843
0
LINE
8
BLACK
6
CONTINUOUS
10
1.52208
20
0.407843
11
1.5221
21
0.40782
0
LINE
8
BLACK
6
CONTINUOUS
10
1.5221
20
0.40782
11
1.54135
21
0.32765
0
LINE
8
BLACK
6
CONTINUOUS
10
1.54135
20
0.32765
11
1.54134
21
0.327623
0
LINE
8
BLACK
6
CONTINUOUS
10
1.54134
20
0.327623
11
1.54136
21
0.3276
0
LINE
8
BLACK
6
CONTINUOUS
10
1.54136
20
0.3276
11
1.55638
21
0.246533
0
LINE
8
BLACK
6
CONTINUOUS
10
1.55638
20
0.246533
11
1.55638
21
0.246506
0
LINE
8
BLACK
6
CONTINUOUS
10
1.55638
20
0.246506
11
1.55639
21
0.246482
0
LINE
8
BLACK
6
CONTINUOUS
10
1.55639
20
0.246482
11
1.56715
21
0.16474
0
LINE
8
BLACK
6
CONTINUOUS
10
1.56715
20
0.16474
11
1.56715
21
0.164714
0
LINE
8
BLACK
6
CONTINUOUS
10
1.56715
20
0.164714
11
1.56716
21
0.164689
0
LINE
8
BLACK
6
CONTINUOUS
10
1.56716
20
0.164689
11
1.57363
21
0.0824962
0
LINE
8
BLACK
6
CONTINUOUS
10
1.57363
20
0.0824962
11
1.57362
21
0.0824699
0
LINE
8
BLACK
6
CONTINUOUS
10
1.57362
20
0.0824699
11
1.57363
21
0.0824447
0
LINE
8
BLACK
6
CONTINUOUS
10
1.57363
20
0.0824447
11
1.57579
21
2.5748e-05
0
LINE
8
BLACK
6
CONTINUOUS
10
1.57579
20
2.5748e-05
11
1.57578
21
0
0
LINE
8
BLACK
6
CONTINUOUS
10
1.57578
20
0
11
1.57579
21
-2.57874e-05
0
LINE
8
BLACK
6
CONTINUOUS
10
1.57579
20
-2.57874e-05
11
1.57363
21
-0.082445
0
LINE
8
BLACK
6
CONTINUOUS
10
1.57363
20
-0.082445
11
1.57362
21
-0.0824702
0
LINE
8
BLACK
6
CONTINUOUS
10
1.57362
20
-0.0824702
11
1.57363
21
-0.0824965
0
LINE
8
BLACK
6
CONTINUOUS
10
1.57363
20
-0.0824965
11
1.56716
21
-0.164689
0
LINE
8
BLACK
6
CONTINUOUS
10
1.56716
20
-0.164689
11
1.56715
21
-0.164714
0
LINE
8
BLACK
6
CONTINUOUS
10
1.56715
20
-0.164714
11
1.56715
21
-0.164741
0
LINE
8
BLACK
6
CONTINUOUS
10
1.56715
20
-0.164741
11
1.55639
21
-0.246482
0
LINE
8
BLACK
6
CONTINUOUS
10
1.55639
20
-0.246482
11
1.55638
21
-0.246506
0
LINE
8
BLACK
6
CONTINUOUS
10
1.55638
20
-0.246506
11
1.55638
21
-0.246533
0
LINE
8
BLACK
6
CONTINUOUS
10
1.55638
20
-0.246533
11
1.54136
21
-0.3276
0
LINE
8
BLACK
6
CONTINUOUS
10
1.54136
20
-0.3276
11
1.54134
21
-0.327623
0
LINE
8
BLACK
6
CONTINUOUS
10
1.54134
20
-0.327623
11
1.54135
21
-0.32765
0
LINE
8
BLACK
6
CONTINUOUS
10
1.54135
20
-0.32765
11
1.5221
21
-0.407821
0
LINE
8
BLACK
6
CONTINUOUS
10
1.5221
20
-0.407821
11
1.52208
21
-0.407843
0
LINE
8
BLACK
6
CONTINUOUS
10
1.52208
20
-0.407843
11
1.52209
21
-0.40787
0
LINE
8
BLACK
6
CONTINUOUS
10
1.52209
20
-0.40787
11
1.49867
21
-0.486921
0
LINE
8
BLACK
6
CONTINUOUS
10
1.49867
20
-0.486921
11
1.49865
21
-0.486943
0
LINE
8
BLACK
6
CONTINUOUS
10
1.49865
20
-0.486943
11
1.49866
21
-0.486971
0
LINE
8
BLACK
6
CONTINUOUS
10
1.49866
20
-0.486971
11
1.47113
21
-0.564687
0
LINE
8
BLACK
6
CONTINUOUS
10
1.47113
20
-0.564687
11
1.47111
21
-0.564708
0
LINE
8
BLACK
6
CONTINUOUS
10
1.47111
20
-0.564708
11
1.47111
21
-0.564735
0
LINE
8
BLACK
6
CONTINUOUS
10
1.47111
20
-0.564735
11
1.43956
21
-0.640908
0
LINE
8
BLACK
6
CONTINUOUS
10
1.43956
20
-0.640908
11
1.43954
21
-0.640928
0
LINE
8
BLACK
6
CONTINUOUS
10
1.43954
20
-0.640928
11
1.43954
21
-0.640956
0
LINE
8
BLACK
6
CONTINUOUS
10
1.43954
20
-0.640956
11
1.40405
21
-0.715369
0
LINE
8
BLACK
6
CONTINUOUS
10
1.40405
20
-0.715369
11
1.40403
21
-0.715387
0
LINE
8
BLACK
6
CONTINUOUS
10
1.40403
20
-0.715387
11
1.40403
21
-0.715415
0
LINE
8
BLACK
6
CONTINUOUS
10
1.40403
20
-0.715415
11
1.36468
21
-0.787871
0
LINE
8
BLACK
6
CONTINUOUS
10
1.36468
20
-0.787871
11
1.36466
21
-0.787889
0
LINE
8
BLACK
6
CONTINUOUS
10
1.36466
20
-0.787889
11
1.36466
21
-0.787916
0
LINE
8
BLACK
6
CONTINUOUS
10
1.36466
20
-0.787916
11
1.32158
21
-0.858215
0
LINE
8
BLACK
6
CONTINUOUS
10
1.32158
20
-0.858215
11
1.32156
21
-0.858231
0
LINE
8
BLACK
6
CONTINUOUS
10
1.32156
20
-0.858231
11
1.32155
21
-0.858259
0
LINE
8
BLACK
6
CONTINUOUS
10
1.32155
20
-0.858259
11
1.27485
21
-0.926203
0
LINE
8
BLACK
6
CONTINUOUS
10
1.27485
20
-0.926203
11
1.27483
21
-0.926218
0
LINE
8
BLACK
6
CONTINUOUS
10
1.27483
20
-0.926218
11
1.27482
21
-0.926245
0
LINE
8
BLACK
6
CONTINUOUS
10
1.27482
20
-0.926245
11
1.22463
21
-0.991655
0
LINE
8
BLACK
6
CONTINUOUS
10
1.22463
20
-0.991655
11
1.22461
21
-0.991668
0
LINE
8
BLACK
6
CONTINUOUS
10
1.22461
20
-0.991668
11
1.2246
21
-0.991695
0
LINE
8
BLACK
6
CONTINUOUS
10
1.2246
20
-0.991695
11
1.17106
21
-1.05439
0
LINE
8
BLACK
6
CONTINUOUS
10
1.17106
20
-1.05439
11
1.17103
21
-1.0544
0
LINE
8
BLACK
6
CONTINUOUS
10
1.17103
20
-1.0544
11
1.17102
21
-1.05443
0
LINE
8
BLACK
6
CONTINUOUS
10
1.17102
20
-1.05443
11
1.11427
21
-1.11423
0
LINE
8
BLACK
6
CONTINUOUS
10
1.11427
20
-1.11423
11
1.11424
21
-1.11424
0
LINE
8
BLACK
6
CONTINUOUS
10
1.11424
20
-1.11424
11
1.11423
21
-1.11427
0
LINE
8
BLACK
6
CONTINUOUS
10
1.11423
20
-1.11427
11
1.05443
21
-1.17102
0
LINE
8
BLACK
6
CONTINUOUS
10
1.05443
20
-1.17102
11
1.0544
21
-1.17103
0
LINE
8
BLACK
6
CONTINUOUS
10
1.0544
20
-1.17103
11
1.05439
21
-1.17106
0
LINE
8
BLACK
6
CONTINUOUS
10
1.05439
20
-1.17106
11
0.991694
21
-1.2246
0
LINE
8
BLACK
6
CONTINUOUS
10
0.991694
20
-1.2246
11
0.991668
21
-1.22461
0
LINE
8
BLACK
6
CONTINUOUS
10
0.991668
20
-1.22461
11
0.991654
21
-1.22463
0
LINE
8
BLACK
6
CONTINUOUS
10
0.991654
20
-1.22463
11
0.926245
21
-1.27482
0
LINE
8
BLACK
6
CONTINUOUS
10
0.926245
20
-1.27482
11
0.926218
21
-1.27483
0
LINE
8
BLACK
6
CONTINUOUS
10
0.926218
20
-1.27483
11
0.926203
21
-1.27485
0
LINE
8
BLACK
6
CONTINUOUS
10
0.926203
20
-1.27485
11
0.858258
21
-1.32155
0
LINE
8
BLACK
6
CONTINUOUS
10
0.858258
20
-1.32155
11
0.858231
21
-1.32156
0
LINE
8
BLACK
6
CONTINUOUS
10
0.858231
20
-1.32156
11
0.858215
21
-1.32158
0
LINE
8
BLACK
6
CONTINUOUS
10
0.858215
20
-1.32158
11
0.787916
21
-1.36466
0
LINE
8
BLACK
6
CONTINUOUS
10
0.787916
20
-1.36466
11
0.787889
21
-1.36466
0
LINE
8
BLACK
6
CONTINUOUS
10
0.787889
20
-1.36466
11
0.787871
21
-1.36468
0
LINE
8
BLACK
6
CONTINUOUS
10
0.787871
20
-1.36468
11
0.715414
21
-1.40403
0
LINE
8
BLACK
6
CONTINUOUS
10
0.715414
20
-1.40403
11
0.715387
21
-1.40403
0
LINE
8
BLACK
6
CONTINUOUS
10
0.715387
20
-1.40403
11
0.715369
21
-1.40405
0
LINE
8
BLACK
6
CONTINUOUS
10
0.715369
20
-1.40405
11
0.640955
21
-1.43954
0
LINE
8
BLACK
6
CONTINUOUS
10
0.640955
20
-1.43954
11
0.640928
21
-1.43954
0
LINE
8
BLACK
6
CONTINUOUS
10
0.640928
20
-1.43954
11
0.640908
21
-1.43956
0
LINE
8
BLACK
6
CONTINUOUS
10
0.640908
20
-1.43956
11
0.564735
21
-1.47111
0
LINE
8
BLACK
6
CONTINUOUS
10
0.564735
20
-1.47111
11
0.564707
21
-1.47111
0
LINE
8
BLACK
6
CONTINUOUS
10
0.564707
20
-1.47111
11
0.564687
21
-1.47113
0
LINE
8
BLACK
6
CONTINUOUS
10
0.564687
20
-1.47113
11
0.48697
21
-1.49866
0
LINE
8
BLACK
6
CONTINUOUS
10
0.48697
20
-1.49866
11
0.486943
21
-1.49865
0
LINE
8
BLACK
6
CONTINUOUS
10
0.486943
20
-1.49865
11
0.486921
21
-1.49867
0
LINE
8
BLACK
6
CONTINUOUS
10
0.486921
20
-1.49867
11
0.40787
21
-1.52209
0
LINE
8
BLACK
6
CONTINUOUS
10
0.40787
20
-1.52209
11
0.407843
21
-1.52208
0
LINE
8
BLACK
6
CONTINUOUS
10
0.407843
20
-1.52208
11
0.40782
21
-1.5221
0
LINE
8
BLACK
6
CONTINUOUS
10
0.40782
20
-1.5221
11
0.32765
21
-1.54135
0
LINE
8
BLACK
6
CONTINUOUS
10
0.32765
20
-1.54135
11
0.327622
21
-1.54134
0
LINE
8
BLACK
6
CONTINUOUS
10
0.327622
20
-1.54134
11
0.327599
21
-1.54136
0
LINE
8
BLACK
6
CONTINUOUS
10
0.327599
20
-1.54136
11
0.246533
21
-1.55638
0
LINE
8
BLACK
6
CONTINUOUS
10
0.246533
20
-1.55638
11
0.246506
21
-1.55638
0
LINE
8
BLACK
6
CONTINUOUS
10
0.246506
20
-1.55638
11
0.246482
21
-1.55639
0
LINE
8
BLACK
6
CONTINUOUS
10
0.246482
20
-1.55639
11
0.16474
21
-1.56715
0
LINE
8
BLACK
6
CONTINUOUS
10
0.16474
20
-1.56715
11
0.164714
21
-1.56715
0
LINE
8
BLACK
6
CONTINUOUS
10
0.164714
20
-1.56715
11
0.164689
21
-1.56716
0
LINE
8
BLACK
6
CONTINUOUS
10
0.164689
20
-1.56716
11
0.0824961
21
-1.57363
0
LINE
8
BLACK
6
CONTINUOUS
10
0.0824961
20
-1.57363
11
0.0824698
21
-1.57362
0
LINE
8
BLACK
6
CONTINUOUS
10
0.0824698
20
-1.57362
11
0.0824447
21
-1.57363
0
LINE
8
BLACK
6
CONTINUOUS
10
0.0824447
20
-1.57363
11
2.5748e-05
21
-1.57579
0
LINE
8
BLACK
6
CONTINUOUS
10
2.5748e-05
20
-1.57579
11
-3.93701e-08
21
-1.57578
0
LINE
8
BLACK
6
CONTINUOUS
10
-3.93701e-08
20
-1.57578
11
-2.57874e-05
21
-1.57579
0
LINE
8
BLACK
6
CONTINUOUS
10
-2.57874e-05
20
-1.57579
11
-0.0824448
21
-1.57363
0
LINE
8
BLACK
6
CONTINUOUS
10
-0.0824448
20
-1.57363
11
-0.0824701
21
-1.57362
0
LINE
8
BLACK
6
CONTINUOUS
10
-0.0824701
20
-1.57362
11
-0.0824963
21
-1.57363
0
LINE
8
BLACK
6
CONTINUOUS
10
-0.0824963
20
-1.57363
11
-0.164689
21
-1.56716
0
LINE
8
BLACK
6
CONTINUOUS
10
-0.164689
20
-1.56716
11
-0.164714
21
-1.56715
0
LINE
8
BLACK
6
CONTINUOUS
10
-0.164714
20
-1.56715
11
-0.164741
21
-1.56715
0
LINE
8
BLACK
6
CONTINUOUS
10
-0.164741
20
-1.56715
11
-0.246482
21
-1.55639
0
LINE
8
BLACK
6
CONTINUOUS
10
-0.246482
20
-1.55639
11
-0.246506
21
-1.55638
0
LINE
8
BLACK
6
CONTINUOUS
10
-0.246506
20
-1.55638
11
-0.246533
21
-1.55638
0
LINE
8
BLACK
6
CONTINUOUS
10
-0.246533
20
-1.55638
11
-0.3276
21
-1.54136
0
LINE
8
BLACK
6
CONTINUOUS
10
-0.3276
20
-1.54136
11
-0.327623
21
-1.54134
0
LINE
8
BLACK
6
CONTINUOUS
10
-0.327623
20
-1.54134
11
-0.32765
21
-1.54135
0
LINE
8
BLACK
6
CONTINUOUS
10
-0.32765
20
-1.54135
11
-0.407821
21
-1.5221
0
LINE
8
BLACK
6
CONTINUOUS
10
-0.407821
20
-1.5221
11
-0.407843
21
-1.52208
0
LINE
8
BLACK
6
CONTINUOUS
10
-0.407843
20
-1.52208
11
-0.40787
21
-1.52209
0
LINE
8
BLACK
6
CONTINUOUS
10
-0.40787
20
-1.52209
11
-0.486922
21
-1.49867
0
LINE
8
BLACK
6
CONTINUOUS
10
-0.486922
20
-1.49867
11
-0.486943
21
-1.49865
0
LINE
8
BLACK
6
CONTINUOUS
10
-0.486943
20
-1.49865
11
-0.486971
21
-1.49866
0
LINE
8
BLACK
6
CONTINUOUS
10
-0.486971
20
-1.49866
11
-0.564687
21
-1.47113
0
LINE
8
BLACK
6
CONTINUOUS
10
-0.564687
20
-1.47113
11
-0.564708
21
-1.47111
0
LINE
8
BLACK
6
CONTINUOUS
10
-0.564708
20
-1.47111
11
-0.564735
21
-1.47111
0
LINE
8
BLACK
6
CONTINUOUS
10
-0.564735
20
-1.47111
11
-0.640908
21
-1.43956
0
LINE
8
BLACK
6
CONTINUOUS
10
-0.640908
20
-1.43956
11
-0.640928
21
-1.43954
0
LINE
8
BLACK
6
CONTINUOUS
10
-0.640928
20
-1.43954
11
-0.640955
21
-1.43954
0
LINE
8
BLACK
6
CONTINUOUS
10
-0.640955
20
-1.43954
11
-0.715369
21
-1.40405
0
LINE
8
BLACK
6
CONTINUOUS
10
-0.715369
20
-1.40405
11
-0.715387
21
-1.40403
0
LINE
8
BLACK
6
CONTINUOUS
10
-0.715387
20
-1.40403
11
-0.715415
21
-1.40403
0
LINE
8
BLACK
6
CONTINUOUS
10
-0.715415
20
-1.40403
11
-0.787871
21
-1.36468
0
LINE
8
BLACK
6
CONTINUOUS
10
-0.787871
20
-1.36468
11
-0.787889
21
-1.36466
0
LINE
8
BLACK
6
CONTINUOUS
10
-0.787889
20
-1.36466
11
-0.787916
21
-1.36466
0
LINE
8
BLACK
6
CONTINUOUS
10
-0.787916
20
-1.36466
11
-0.858215
21
-1.32158
0
LINE
8
BLACK
6
CONTINUOUS
10
-0.858215
20
-1.32158
11
-0.858232
21
-1.32156
0
LINE
8
BLACK
6
CONTINUOUS
10
-0.858232
20
-1.32156
11
-0.858259
21
-1.32155
0
LINE
8
BLACK
6
CONTINUOUS
10
-0.858259
20
-1.32155
11
-0.926203
21
-1.27485
0
LINE
8
BLACK
6
CONTINUOUS
10
-0.926203
20
-1.27485
11
-0.926218
21
-1.27483
0
LINE
8
BLACK
6
CONTINUOUS
10
-0.926218
20
-1.27483
11
-0.926245
21
-1.27482
0
LINE
8
BLACK
6
CONTINUOUS
10
-0.926245
20
-1.27482
11
-0.991655
21
-1.22463
0
LINE
8
BLACK
6
CONTINUOUS
10
-0.991655
20
-1.22463
11
-0.991668
21
-1.22461
0
LINE
8
BLACK
6
CONTINUOUS
10
-0.991668
20
-1.22461
11
-0.991695
21
-1.2246
0
LINE
8
BLACK
6
CONTINUOUS
10
-0.991695
20
-1.2246
11
-1.05439
21
-1.17106
0
LINE
8
BLACK
6
CONTINUOUS
10
-1.05439
20
-1.17106
11
-1.0544
21
-1.17103
0
LINE
8
BLACK
6
CONTINUOUS
10
-1.0544
20
-1.17103
11
-1.05443
21
-1.17102
0
LINE
8
BLACK
6
CONTINUOUS
10
-1.05443
20
-1.17102
11
-1.11423
21
-1.11427
0
LINE
8
BLACK
6
CONTINUOUS
10
-1.11423
20
-1.11427
11
-1.11424
21
-1.11424
0
LINE
8
BLACK
6
CONTINUOUS
10
-1.11424
20
-1.11424
11
-1.11427
21
-1.11423
0
LINE
8
BLACK
6
CONTINUOUS
10
-1.11427
20
-1.11423
11
-1.17102
21
-1.05443
0
LINE
8
BLACK
6
CONTINUOUS
10
-1.17102
20
-1.05443
11
-1.17103
21
-1.0544
0
LINE
8
BLACK
6
CONTINUOUS
10
-1.17103
20
-1.0544
11
-1.17106
21
-1.05439
0
LINE
8
BLACK
6
CONTINUOUS
10
-1.17106
20
-1.05439
11
-1.2246
21
-0.991694
0
LINE
8
BLACK
6
CONTINUOUS
10
-1.2246
20
-0.991694
11
-1.22461
21
-0.991668
0
LINE
8
BLACK
6
CONTINUOUS
10
-1.22461
20
-0.991668
11
-1.22463
21
-0.991654
0
LINE
8
BLACK
6
CONTINUOUS
10
-1.22463
20
-0.991654
11
-1.27482
21
-0.926245
0
LINE
8
BLACK
6
CONTINUOUS
10
-1.27482
20
-0.926245
11
-1.27483
21
-0.926218
0
LINE
8
BLACK
6
CONTINUOUS
10
-1.27483
20
-0.926218
11
-1.27485
21
-0.926203
0
LINE
8
BLACK
6
CONTINUOUS
10
-1.27485
20
-0.926203
11
-1.32155
21
-0.858258
0
LINE
8
BLACK
6
CONTINUOUS
10
-1.32155
20
-0.858258
11
-1.32156
21
-0.858231
0
LINE
8
BLACK
6
CONTINUOUS
10
-1.32156
20
-0.858231
11
-1.32158
21
-0.858215
0
LINE
8
BLACK
6
CONTINUOUS
10
-1.32158
20
-0.858215
11
-1.36466
21
-0.787916
0
LINE
8
BLACK
6
CONTINUOUS
10
-1.36466
20
-0.787916
11
-1.36466
21
-0.787889
0
LINE
8
BLACK
6
CONTINUOUS
10
-1.36466
20
-0.787889
11
-1.36468
21
-0.787871
0
LINE
8
BLACK
6
CONTINUOUS
10
-1.36468
20
-0.787871
11
-1.40403
21
-0.715414
0
LINE
8
BLACK
6
CONTINUOUS
10
-1.40403
20
-0.715414
11
-1.40403
21
-0.715387
0
LINE
8
BLACK
6
CONTINUOUS
10
-1.40403
20
-0.715387
11
-1.40405
21
-0.715369
0
LINE
8
BLACK
6
CONTINUOUS
10
-1.40405
20
-0.715369
11
-1.43954
21
-0.640955
0
LINE
8
BLACK
6
CONTINUOUS
10
-1.43954
20
-0.640955
11
-1.43954
21
-0.640928
0
LINE
8
BLACK
6
CONTINUOUS
10
-1.43954
20
-0.640928
11
-1.43956
21
-0.640908
0
LINE
8
BLACK
6
CONTINUOUS
10
-1.43956
20
-0.640908
11
-1.47111
21
-0.564735
0
LINE
8
BLACK
6
CONTINUOUS
10
-1.47111
20
-0.564735
11
-1.47111
21
-0.564707
0
LINE
8
BLACK
6
CONTINUOUS
10
-1.47111
20
-0.564707
11
-1.47113
21
-0.564687
0
LINE
8
BLACK
6
CONTINUOUS
10
-1.47113
20
-0.564687
11
-1.49866
21
-0.48697
0
LINE
8
BLACK
6
CONTINUOUS
10
-1.49866
20
-0.48697
11
-1.49865
21
-0.486943
0
LINE
8
BLACK
6
CONTINUOUS
10
-1.49865
20
-0.486943
11
-1.49867
21
-0.486921
0
LINE
8
BLACK
6
CONTINUOUS
10
-1.49867
20
-0.486921
11
-1.52209
21
-0.40787
0
LINE
8
BLACK
6
CONTINUOUS
10
-1.52209
20
-0.40787
11
-1.52208
21
-0.407843
0
LINE
8
BLACK
6
CONTINUOUS
10
-1.52208
20
-0.407843
11
-1.5221
21
-0.40782
0
LINE
8
BLACK
6
CONTINUOUS
10
-1.5221
20
-0.40782
11
-1.54135
21
-0.32765
0
LINE
8
BLACK
6
CONTINUOUS
10
-1.54135
20
-0.32765
11
-1.54134
21
-0.327622
0
LINE
8
BLACK
6
CONTINUOUS
10
-1.54134
20
-0.327622
11
-1.54136
21
-0.327599
0
LINE
8
BLACK
6
CONTINUOUS
10
-1.54136
20
-0.327599
11
-1.55638
21
-0.246533
0
LINE
8
BLACK
6
CONTINUOUS
10
-1.55638
20
-0.246533
11
-1.55638
21
-0.246506
0
LINE
8
BLACK
6
CONTINUOUS
10
-1.55638
20
-0.246506
11
-1.55639
21
-0.246482
0
LINE
8
BLACK
6
CONTINUOUS
10
-1.55639
20
-0.246482
11
-1.56715
21
-0.16474
0
LINE
8
BLACK
6
CONTINUOUS
10
-1.56715
20
-0.16474
11
-1.56715
21
-0.164714
0
LINE
8
BLACK
6
CONTINUOUS
10
-1.56715
20
-0.164714
11
-1.56716
21
-0.164689
0
LINE
8
BLACK
6
CONTINUOUS
10
-1.56716
20
-0.164689
11
-1.57363
21
-0.0824961
0
LINE
8
BLACK
6
CONTINUOUS
10
-1.57363
20
-0.0824961
11
-1.57362
21
-0.0824698
0
LINE
8
BLACK
6
CONTINUOUS
10
-1.57362
20
-0.0824698
11
-1.57363
21
-0.0824447
0
LINE
8
BLACK
6
CONTINUOUS
10
-1.57363
20
-0.0824447
11
-1.57579
21
-2.5748e-05
0
LINE
8
BLACK
6
CONTINUOUS
10
-1.57579
20
-2.5748e-05
11
-1.57578
21
0
0
LINE
8
BLACK
6
CONTINUOUS
10
-1.57578
20
0
11
-1.57579
21
2.5748e-05
0
LINE
8
BLACK
6
CONTINUOUS
10
-1.57579
20
2.5748e-05
11
-1.57363
21
0.0824448
0
LINE
8
BLACK
6
CONTINUOUS
10
-1.57363
20
0.0824448
11
-1.57362
21
0.08247
0
LINE
8
BLACK
6
CONTINUOUS
10
-1.57362
20
0.08247
11
-1.57363
21
0.0824963
0
LINE
8
BLACK
6
CONTINUOUS
10
-1.57363
20
0.0824963
11
-1.56716
21
0.164689
0
LINE
8
BLACK
6
CONTINUOUS
10
-1.56716
20
0.164689
11
-1.56715
21
0.164714
0
LINE
8
BLACK
6
CONTINUOUS
10
-1.56715
20
0.164714
11
-1.56715
21
0.164741
0
LINE
8
BLACK
6
CONTINUOUS
10
-1.56715
20
0.164741
11
-1.55639
21
0.246482
0
LINE
8
BLACK
6
CONTINUOUS
10
-1.55639
20
0.246482
11
-1.55638
21
0.246506
0
LINE
8
BLACK
6
CONTINUOUS
10
-1.55638
20
0.246506
11
-1.55638
21
0.246533
0
LINE
8
BLACK
6
CONTINUOUS
10
-1.55638
20
0.246533
11
-1.54136
21
0.3276
0
LINE
8
BLACK
6
CONTINUOUS
10
-1.54136
20
0.3276
11
-1.54134
21
0.327623
0
LINE
8
BLACK
6
CONTINUOUS
10
-1.54134
20
0.327623
11
-1.54135
21
0.32765
0
LINE
8
BLACK
6
CONTINUOUS
10
-1.54135
20
0.32765
11
-1.5221
21
0.407821
0
LINE
8
BLACK
6
CONTINUOUS
10
-1.5221
20
0.407821
11
-1.52208
21
0.407843
0
LINE
8
BLACK
6
CONTINUOUS
10
-1.52208
20
0.407843
11
-1.52209
21
0.40787
0
LINE
8
BLACK
6
CONTINUOUS
10
-1.52209
20
0.40787
11
-1.49867
21
0.486922
0
LINE
8
BLACK
6
CONTINUOUS
10
-1.49867
20
0.486922
11
-1.49865
21
0.486943
0
LINE
8
BLACK
6
CONTINUOUS
10
-1.49865
20
0.486943
11
-1.49866
21
0.486971
0
LINE
8
BLACK
6
CONTINUOUS
10
-1.49866
20
0.486971
11
-1.47113
21
0.564687
0
LINE
8
BLACK
6
CONTINUOUS
10
-1.47113
20
0.564687
11
-1.47111
21
0.564708
0
LINE
8
BLACK
6
CONTINUOUS
10
-1.47111
20
0.564708
11
-1.47111
21
0.564735
0
LINE
8
BLACK
6
CONTINUOUS
10
-1.47111
20
0.564735
11
-1.43956
21
0.640908
0
LINE
8
BLACK
6
CONTINUOUS
10
-1.43956
20
0.640908
11
-1.43954
21
0.640928
0
LINE
8
BLACK
6
CONTINUOUS
10
-1.43954
20
0.640928
11
-1.43954
21
0.640955
0
LINE
8
BLACK
6
CONTINUOUS
10
-1.43954
20
0.640955
11
-1.40405
21
0.715369
0
LINE
8
BLACK
6
CONTINUOUS
10
-1.40405
20
0.715369
11
-1.40403
21
0.715387
0
LINE
8
BLACK
6
CONTINUOUS
10
-1.40403
20
0.715387
11
-1.40403
21
0.715415
0
LINE
8
BLACK
6
CONTINUOUS
10
-1.40403
20
0.715415
11
-1.36468
21
0.787871
0
LINE
8
BLACK
6
CONTINUOUS
10
-1.36468
20
0.787871
11
-1.36466
21
0.787889
0
LINE
8
BLACK
6
CONTINUOUS
10
-1.36466
20
0.787889
11
-1.36466
21
0.787916
0
LINE
8
BLACK
6
CONTINUOUS
10
-1.36466
20
0.787916
11
-1.32158
21
0.858215
0
LINE
8
BLACK
6
CONTINUOUS
10
-1.32158
20
0.858215
11
-1.32156
21
0.858232
0
LINE
8
BLACK
6
CONTINUOUS
10
-1.32156
20
0.858232
11
-1.32155
21
0.858259
0
LINE
8
BLACK
6
CONTINUOUS
10
-1.32155
20
0.858259
11
-1.27485
21
0.926203
0
LINE
8
BLACK
6
CONTINUOUS
10
-1.27485
20
0.926203
11
-1.27483
21
0.926218
0
LINE
8
BLACK
6
CONTINUOUS
10
-1.27483
20
0.926218
11
-1.27482
21
0.926245
0
LINE
8
BLACK
6
CONTINUOUS
10
-1.27482
20
0.926245
11
-1.22463
21
0.991655
0
LINE
8
BLACK
6
CONTINUOUS
10
-1.22463
20
0.991655
11
-1.22461
21
0.991668
0
LINE
8
BLACK
6
CONTINUOUS
10
-1.22461
20
0.991668
11
-1.2246
21
0.991695
0
LINE
8
BLACK
6
CONTINUOUS
10
-1.2246
20
0.991695
11
-1.17106
21
1.05439
0
LINE
8
BLACK
6
CONTINUOUS
10
-1.17106
20
1.05439
11
-1.17103
21
1.0544
0
LINE
8
BLACK
6
CONTINUOUS
10
-1.17103
20
1.0544
11
-1.17102
21
1.05443
0
LINE
8
BLACK
6
CONTINUOUS
10
-1.17102
20
1.05443
11
-1.11427
21
1.11423
0
LINE
8
BLACK
6
CONTINUOUS
10
-1.11427
20
1.11423
11
-1.11424
21
1.11424
0
LINE
8
BLACK
6
CONTINUOUS
10
-1.11424
20
1.11424
11
-1.11423
21
1.11427
0
LINE
8
BLACK
6
CONTINUOUS
10
-1.11423
20
1.11427
11
-1.05443
21
1.17102
0
LINE
8
BLACK
6
CONTINUOUS
10
-1.05443
20
1.17102
11
-1.0544
21
1.17103
0
LINE
8
BLACK
6
CONTINUOUS
10
-1.0544
20
1.17103
11
-1.05439
21
1.17106
0
LINE
8
BLACK
6
CONTINUOUS
10
-1.05439
20
1.17106
11
-0.991694
21
1.2246
0
LINE
8
BLACK
6
CONTINUOUS
10
-0.991694
20
1.2246
11
-0.991668
21
1.22461
0
LINE
8
BLACK
6
CONTINUOUS
10
-0.991668
20
1.22461
11
-0.991654
21
1.22463
0
LINE
8
BLACK
6
CONTINUOUS
10
-0.991654
20
1.22463
11
-0.926245
21
1.27482
0
LINE
8
BLACK
6
CONTINUOUS
10
-0.926245
20
1.27482
11
-0.926218
21
1.27483
0
LINE
8
BLACK
6
CONTINUOUS
10
-0.926218
20
1.27483
11
-0.926203
21
1.27485
0
LINE
8
BLACK
6
CONTINUOUS
10
-0.926203
20
1.27485
11
-0.858258
21
1.32155
0
LINE
8
BLACK
6
CONTINUOUS
10
-0.858258
20
1.32155
11
-0.858231
21
1.32156
0
LINE
8
BLACK
6
CONTINUOUS
10
-0.858231
20
1.32156
11
-0.858215
21
1.32158
0
LINE
8
BLACK
6
CONTINUOUS
10
-0.858215
20
1.32158
11
-0.787916
21
1.36466
0
LINE
8
BLACK
6
CONTINUOUS
10
-0.787916
20
1.36466
11
-0.787889
21
1.36466
0
LINE
8
BLACK
6
CONTINUOUS
10
-0.787889
20
1.36466
11
-0.787871
21
1.36468
0
LINE
8
BLACK
6
CONTINUOUS
10
-0.787871
20
1.36468
11
-0.715415
21
1.40403
0
LINE
8
BLACK
6
CONTINUOUS
10
-0.715415
20
1.40403
11
-0.715387
21
1.40403
0
LINE
8
BLACK
6
CONTINUOUS
10
-0.715387
20
1.40403
11
-0.715369
21
1.40405
0
LINE
8
BLACK
6
CONTINUOUS
10
-0.715369
20
1.40405
11
-0.640955
21
1.43954
0
LINE
8
BLACK
6
CONTINUOUS
10
-0.640955
20
1.43954
11
-0.640928
21
1.43954
0
LINE
8
BLACK
6
CONTINUOUS
10
-0.640928
20
1.43954
11
-0.640908
21
1.43956
0
LINE
8
BLACK
6
CONTINUOUS
10
-0.640908
20
1.43956
11
-0.564735
21
1.47111
0
LINE
8
BLACK
6
CONTINUOUS
10
-0.564735
20
1.47111
11
-0.564707
21
1.47111
0
LINE
8
BLACK
6
CONTINUOUS
10
-0.564707
20
1.47111
11
-0.564687
21
1.47113
0
LINE
8
BLACK
6
CONTINUOUS
10
-0.564687
20
1.47113
11
-0.48697
21
1.49866
0
LINE
8
BLACK
6
CONTINUOUS
10
-0.48697
20
1.49866
11
-0.486943
21
1.49865
0
LINE
8
BLACK
6
CONTINUOUS
10
-0.486943
20
1.49865
11
-0.486921
21
1.49867
0
LINE
8
BLACK
6
CONTINUOUS
10
-0.486921
20
1.49867
11
-0.40787
21
1.52209
0
LINE
8
BLACK
6
CONTINUOUS
10
-0.40787
20
1.52209
11
-0.407843
21
1.52208
0
LINE
8
BLACK
6
CONTINUOUS
10
-0.407843
20
1.52208
11
-0.40782
21
1.5221
0
LINE
8
BLACK
6
CONTINUOUS
10
-0.40782
20
1.5221
11
-0.32765
21
1.54135
0
LINE
8
BLACK
6
CONTINUOUS
10
-0.32765
20
1.54135
11
-0.327623
21
1.54134
0
LINE
8
BLACK
6
CONTINUOUS
10
-0.327623
20
1.54134
11
-0.3276
21
1.54136
0
LINE
8
BLACK
6
CONTINUOUS
10
-0.3276
20
1.54136
11
-0.246533
21
1.55638
0
LINE
8
BLACK
6
CONTINUOUS
10
-0.246533
20
1.55638
11
-0.246506
21
1.55638
0
LINE
8
BLACK
6
CONTINUOUS
10
-0.246506
20
1.55638
11
-0.246482
21
1.55639
0
LINE
8
BLACK
6
CONTINUOUS
10
-0.246482
20
1.55639
11
-0.16474
21
1.56715
0
LINE
8
BLACK
6
CONTINUOUS
10
-0.16474
20
1.56715
11
-0.164714
21
1.56715
0
LINE
8
BLACK
6
CONTINUOUS
10
-0.164714
20
1.56715
11
-0.164689
21
1.56716
0
LINE
8
BLACK
6
CONTINUOUS
10
-0.164689
20
1.56716
11
-0.0824962
21
1.57363
0
LINE
8
BLACK
6
CONTINUOUS
10
-0.0824962
20
1.57363
11
-0.0824699
21
1.57362
0
LINE
8
BLACK
6
CONTINUOUS
10
-0.0824699
20
1.57362
11
-0.0824447
21
1.57363
0
LINE
8
BLACK
6
CONTINUOUS
10
-0.0824447
20
1.57363
11
-2.5748e-05
21
1.57579
0
LINE
8
BLACK
6
CONTINUOUS
10
-2.5748e-05
20
1.57579
11
0
21
1.57578
0
LINE
8
BLACK
6
CONTINUOUS
10
0
20
1.57578
11
2.5748e-05
21
1.57579
0
LINE
8
BLACK
6
CONTINUOUS
10
2.5748e-05
20
1.57579
11
0.0824447
21
1.57363
0
LINE
8
BLACK
6
CONTINUOUS
10
-0.0823671
20
1.57166
11
-0.164509
21
1.5652
0
LINE
8
BLACK
6
CONTINUOUS
10
-0.164509
20
1.5652
11
-0.2462
21
1.55444
0
LINE
8
BLACK
6
CONTINUOUS
10
-0.2462
20
1.55444
11
-0.327215
21
1.53943
0
LINE
8
BLACK
6
CONTINUOUS
10
-0.327215
20
1.53943
11
-0.407335
21
1.52019
0
LINE
8
BLACK
6
CONTINUOUS
10
-0.407335
20
1.52019
11
-0.486338
21
1.49679
0
LINE
8
BLACK
6
CONTINUOUS
10
-0.486338
20
1.49679
11
-0.564006
21
1.46929
0
LINE
8
BLACK
6
CONTINUOUS
10
-0.564006
20
1.46929
11
-0.640131
21
1.43775
0
LINE
8
BLACK
6
CONTINUOUS
10
-0.640131
20
1.43775
11
-0.714498
21
1.40228
0
LINE
8
BLACK
6
CONTINUOUS
10
-0.714498
20
1.40228
11
-0.786909
21
1.36297
0
LINE
8
BLACK
6
CONTINUOUS
10
-0.786909
20
1.36297
11
-0.857165
21
1.31991
0
LINE
8
BLACK
6
CONTINUOUS
10
-0.857165
20
1.31991
11
-0.925067
21
1.27325
0
LINE
8
BLACK
6
CONTINUOUS
10
-0.925067
20
1.27325
11
-0.990436
21
1.22309
0
LINE
8
BLACK
6
CONTINUOUS
10
-0.990436
20
1.22309
11
-1.05309
21
1.16958
0
LINE
8
BLACK
6
CONTINUOUS
10
-1.05309
20
1.16958
11
-1.11286
21
1.11286
0
LINE
8
BLACK
6
CONTINUOUS
10
-1.11286
20
1.11286
11
-1.16958
21
1.05309
0
LINE
8
BLACK
6
CONTINUOUS
10
-1.16958
20
1.05309
11
-1.22309
21
0.990436
0
LINE
8
BLACK
6
CONTINUOUS
10
-1.22309
20
0.990436
11
-1.27325
21
0.925067
0
LINE
8
BLACK
6
CONTINUOUS
10
-1.27325
20
0.925067
11
-1.31991
21
0.857165
0
LINE
8
BLACK
6
CONTINUOUS
10
-1.31991
20
0.857165
11
-1.36297
21
0.786909
0
LINE
8
BLACK
6
CONTINUOUS
10
-1.36297
20
0.786909
11
-1.40228
21
0.714498
0
LINE
8
BLACK
6
CONTINUOUS
10
-1.40228
20
0.714498
11
-1.43775
21
0.640131
0
LINE
8
BLACK
6
CONTINUOUS
10
-1.43775
20
0.640131
11
-1.46929
21
0.564006
0
LINE
8
BLACK
6
CONTINUOUS
10
-1.46929
20
0.564006
11
-1.49679
21
0.486338
0
LINE
8
BLACK
6
CONTINUOUS
10
-1.49679
20
0.486338
11
-1.52019
21
0.407336
0
LINE
8
BLACK
6
CONTINUOUS
10
-1.52019
20
0.407336
11
-1.53943
21
0.327216
0
LINE
8
BLACK
6
CONTINUOUS
10
-1.53943
20
0.327216
11
-1.55444
21
0.2462
0
LINE
8
BLACK
6
CONTINUOUS
10
-1.55444
20
0.2462
11
-1.5652
21
0.164509
0
LINE
8
BLACK
6
CONTINUOUS
10
-1.5652
20
0.164509
11
-1.57166
21
0.0823672
0
LINE
8
BLACK
6
CONTINUOUS
10
-1.57166
20
0.0823672
11
-1.57382
21
3.93701e-08
0
LINE
8
BLACK
6
CONTINUOUS
10
-1.57382
20
3.93701e-08
11
-1.57166
21
-0.082367
0
LINE
8
BLACK
6
CONTINUOUS
10
-1.57166
20
-0.082367
11
-1.5652
21
-0.164509
0
LINE
8
BLACK
6
CONTINUOUS
10
-1.5652
20
-0.164509
11
-1.55444
21
-0.2462
0
LINE
8
BLACK
6
CONTINUOUS
10
-1.55444
20
-0.2462
11
-1.53943
21
-0.327215
0
LINE
8
BLACK
6
CONTINUOUS
10
-1.53943
20
-0.327215
11
-1.52019
21
-0.407335
0
LINE
8
BLACK
6
CONTINUOUS
10
-1.52019
20
-0.407335
11
-1.49679
21
-0.486337
0
LINE
8
BLACK
6
CONTINUOUS
10
-1.49679
20
-0.486337
11
-1.46929
21
-0.564005
0
LINE
8
BLACK
6
CONTINUOUS
10
-1.46929
20
-0.564005
11
-1.43775
21
-0.640131
0
LINE
8
BLACK
6
CONTINUOUS
10
-1.43775
20
-0.640131
11
-1.40228
21
-0.714498
0
LINE
8
BLACK
6
CONTINUOUS
10
-1.40228
20
-0.714498
11
-1.36297
21
-0.786909
0
LINE
8
BLACK
6
CONTINUOUS
10
-1.36297
20
-0.786909
11
-1.31991
21
-0.857164
0
LINE
8
BLACK
6
CONTINUOUS
10
-1.31991
20
-0.857164
11
-1.27325
21
-0.925067
0
LINE
8
BLACK
6
CONTINUOUS
10
-1.27325
20
-0.925067
11
-1.22309
21
-0.990436
0
LINE
8
BLACK
6
CONTINUOUS
10
-1.22309
20
-0.990436
11
-1.16958
21
-1.05309
0
LINE
8
BLACK
6
CONTINUOUS
10
-1.16958
20
-1.05309
11
-1.11286
21
-1.11286
0
LINE
8
BLACK
6
CONTINUOUS
10
-1.11286
20
-1.11286
11
-1.05309
21
-1.16958
0
LINE
8
BLACK
6
CONTINUOUS
10
-1.05309
20
-1.16958
11
-0.990435
21
-1.22309
0
LINE
8
BLACK
6
CONTINUOUS
10
-0.990435
20
-1.22309
11
-0.925067
21
-1.27325
0
LINE
8
BLACK
6
CONTINUOUS
10
-0.925067
20
-1.27325
11
-0.857165
21
-1.31991
0
LINE
8
BLACK
6
CONTINUOUS
10
-0.857165
20
-1.31991
11
-0.786909
21
-1.36297
0
LINE
8
BLACK
6
CONTINUOUS
10
-0.786909
20
-1.36297
11
-0.714498
21
-1.40228
0
LINE
8
BLACK
6
CONTINUOUS
10
-0.714498
20
-1.40228
11
-0.640131
21
-1.43775
0
LINE
8
BLACK
6
CONTINUOUS
10
-0.640131
20
-1.43775
11
-0.564006
21
-1.46929
0
LINE
8
BLACK
6
CONTINUOUS
10
-0.564006
20
-1.46929
11
-0.486338
21
-1.49679
0
LINE
8
BLACK
6
CONTINUOUS
10
-0.486338
20
-1.49679
11
-0.407336
21
-1.52019
0
LINE
8
BLACK
6
CONTINUOUS
10
-0.407336
20
-1.52019
11
-0.327215
21
-1.53943
0
LINE
8
BLACK
6
CONTINUOUS
10
-0.327215
20
-1.53943
11
-0.2462
21
-1.55444
0
LINE
8
BLACK
6
CONTINUOUS
10
-0.2462
20
-1.55444
11
-0.164509
21
-1.5652
0
LINE
8
BLACK
6
CONTINUOUS
10
-0.164509
20
-1.5652
11
-0.0823672
21
-1.57166
0
LINE
8
BLACK
6
CONTINUOUS
10
-0.0823672
20
-1.57166
11
0
21
-1.57382
0
LINE
8
BLACK
6
CONTINUOUS
10
0
20
-1.57382
11
0.082367
21
-1.57166
0
LINE
8
BLACK
6
CONTINUOUS
10
0.082367
20
-1.57166
11
0.164509
21
-1.5652
0
LINE
8
BLACK
6
CONTINUOUS
10
0.164509
20
-1.5652
11
0.2462
21
-1.55444
0
LINE
8
BLACK
6
CONTINUOUS
10
0.2462
20
-1.55444
11
0.327215
21
-1.53943
0
LINE
8
BLACK
6
CONTINUOUS
10
0.327215
20
-1.53943
11
0.407335
21
-1.52019
0
LINE
8
BLACK
6
CONTINUOUS
10
0.407335
20
-1.52019
11
0.486337
21
-1.49679
0
LINE
8
BLACK
6
CONTINUOUS
10
0.486337
20
-1.49679
11
0.564006
21
-1.46929
0
LINE
8
BLACK
6
CONTINUOUS
10
0.564006
20
-1.46929
11
0.640131
21
-1.43775
0
LINE
8
BLACK
6
CONTINUOUS
10
0.640131
20
-1.43775
11
0.714498
21
-1.40228
0
LINE
8
BLACK
6
CONTINUOUS
10
0.714498
20
-1.40228
11
0.786909
21
-1.36297
0
LINE
8
BLACK
6
CONTINUOUS
10
0.786909
20
-1.36297
11
0.857164
21
-1.31991
0
LINE
8
BLACK
6
CONTINUOUS
10
0.857164
20
-1.31991
11
0.925067
21
-1.27325
0
LINE
8
BLACK
6
CONTINUOUS
10
0.925067
20
-1.27325
11
0.990436
21
-1.22309
0
LINE
8
BLACK
6
CONTINUOUS
10
0.990436
20
-1.22309
11
1.05309
21
-1.16958
0
LINE
8
BLACK
6
CONTINUOUS
10
1.05309
20
-1.16958
11
1.11286
21
-1.11286
0
LINE
8
BLACK
6
CONTINUOUS
10
1.11286
20
-1.11286
11
1.16958
21
-1.05309
0
LINE
8
BLACK
6
CONTINUOUS
10
1.16958
20
-1.05309
11
1.22309
21
-0.990435
0
LINE
8
BLACK
6
CONTINUOUS
10
1.22309
20
-0.990435
11
1.27325
21
-0.925067
0
LINE
8
BLACK
6
CONTINUOUS
10
1.27325
20
-0.925067
11
1.31991
21
-0.857165
0
LINE
8
BLACK
6
CONTINUOUS
10
1.31991
20
-0.857165
11
1.36297
21
-0.786909
0
LINE
8
BLACK
6
CONTINUOUS
10
1.36297
20
-0.786909
11
1.40228
21
-0.714498
0
LINE
8
BLACK
6
CONTINUOUS
10
1.40228
20
-0.714498
11
1.43775
21
-0.640131
0
LINE
8
BLACK
6
CONTINUOUS
10
1.43775
20
-0.640131
11
1.46929
21
-0.564006
0
LINE
8
BLACK
6
CONTINUOUS
10
1.46929
20
-0.564006
11
1.49679
21
-0.486338
0
LINE
8
BLACK
6
CONTINUOUS
10
1.49679
20
-0.486338
11
1.52019
21
-0.407335
0
LINE
8
BLACK
6
CONTINUOUS
10
1.52019
20
-0.407335
11
1.53943
21
-0.327215
0
LINE
8
BLACK
6
CONTINUOUS
10
1.53943
20
-0.327215
11
1.55444
21
-0.2462
0
LINE
8
BLACK
6
CONTINUOUS
10
1.55444
20
-0.2462
11
1.5652
21
-0.164509
0
LINE
8
BLACK
6
CONTINUOUS
10
1.5652
20
-0.164509
11
1.57166
21
-0.0823673
0
LINE
8
BLACK
6
CONTINUOUS
10
1.57166
20
-0.0823673
11
1.57382
21
3.93701e-08
0
LINE
8
BLACK
6
CONTINUOUS
10
1.57382
20
3.93701e-08
11
1.57166
21
0.082367
0
LINE
8
BLACK
6
CONTINUOUS
10
1.57166
20
0.082367
11
1.5652
21
0.164509
0
LINE
8
BLACK
6
CONTINUOUS
10
1.5652
20
0.164509
11
1.55444
21
0.2462
0
LINE
8
BLACK
6
CONTINUOUS
10
1.55444
20
0.2462
11
1.53943
21
0.327215
0
LINE
8
BLACK
6
CONTINUOUS
10
1.53943
20
0.327215
11
1.52019
21
0.407335
0
LINE
8
BLACK
6
CONTINUOUS
10
1.52019
20
0.407335
11
1.49679
21
0.486338
0
LINE
8
BLACK
6
CONTINUOUS
10
1.49679
20
0.486338
11
1.46929
21
0.564006
0
LINE
8
BLACK
6
CONTINUOUS
10
1.46929
20
0.564006
11
1.43775
21
0.640131
0
LINE
8
BLACK
6
CONTINUOUS
10
1.43775
20
0.640131
11
1.40228
21
0.714498
0
LINE
8
BLACK
6
CONTINUOUS
10
1.40228
20
0.714498
11
1.36297
21
0.786909
0
LINE
8
BLACK
6
CONTINUOUS
10
1.36297
20
0.786909
11
1.31991
21
0.857165
0
LINE
8
BLACK
6
CONTINUOUS
10
1.31991
20
0.857165
11
1.27325
21
0.925067
0
LINE
8
BLACK
6
CONTINUOUS
10
1.27325
20
0.925067
11
1.22309
21
0.990436
0
LINE
8
BLACK
6
CONTINUOUS
10
1.22309
20
0.990436
11
1.16958
21
1.05309
0
LINE
8
BLACK
6
CONTINUOUS
10
1.16958
20
1.05309
11
1.11286
21
1.11286
0
LINE
8
BLACK
6
CONTINUOUS
10
1.11286
20
1.11286
11
1.05309
21
1.16958
0
LINE
8
BLACK
6
CONTINUOUS
10
1.05309
20
1.16958
11
0.990436
21
1.22309
0
LINE
8
BLACK
6
CONTINUOUS
10
0.990436
20
1.22309
11
0.925067
21
1.27325
0
LINE
8
BLACK
6
CONTINUOUS
10
0.925067
20
1.27325
11
0.857165
21
1.31991
0
LINE
8
BLACK
6
CONTINUOUS
10
0.857165
20
1.31991
11
0.786909
21
1.36297
0
LINE
8
BLACK
6
CONTINUOUS
10
0.786909
20
1.36297
11
0.714498
21
1.40228
0
LINE
8
BLACK
6
CONTINUOUS
10
0.714498
20
1.40228
11
0.640131
21
1.43775
0
LINE
8
BLACK
6
CONTINUOUS
10
0.640131
20
1.43775
11
0.564006
21
1.46929
0
LINE
8
BLACK
6
CONTINUOUS
10
0.564006
20
1.46929
11
0.486337
21
1.49679
0
LINE
8
BLACK
6
CONTINUOUS
10
0.486337
20
1.49679
11
0.407335
21
1.52019
0
LINE
8
BLACK
6
CONTINUOUS
10
0.407335
20
1.52019
11
0.327215
21
1.53943
0
LINE
8
BLACK
6
CONTINUOUS
10
0.327215
20
1.53943
11
0.2462
21
1.55444
0
LINE
8
BLACK
6
CONTINUOUS
10
0.2462
20
1.55444
11
0.164509
21
1.5652
0
LINE
8
BLACK
6
CONTINUOUS
10
0.164509
20
1.5652
11
0.082367
21
1.57166
0
LINE
8
BLACK
6
CONTINUOUS
10
0.082367
20
1.57166
11
-3.93701e-08
21
1.57382
0
LINE
8
BLACK
6
CONTINUOUS
10
-3.93701e-08
20
1.57382
11
-0.0823671
21
1.57166
  0
ENDSEC
  0
EOF
