  0
SECTION
  2
HEADER
  9
$ANGBASE
  50
0.0
  9
$ANGDIR
  70
1
  9
$MEASUREMENT
  70
0
  0
ENDSEC
  0
SECTION
  2
TABLES
  0
TABLE
  2
LTYPE
  70
4
  0
LTYPE
  5
40F
  2
CONTINUOUS
  70
0
  3
Solid line
  72
65
  73
0
  40
0.0
  0
LTYPE
  5
410
  2
DASHDOT
 70
0
  3
Dash Dot ____ _ ____ _
 72
65
 73
4
 40
2.0
 49
1.25
 49
-0.25
 49
0.25
 49
-0.25
  0
LTYPE
  5
411
  2
DASHED
 70
0
  3
Dashed __ __ __ __ __
 72
65
 73
2
 40
0.75
 49
0.5
 49
-0.25
  0
LTYPE
  5
43B
  2
DOTTED
 70
0
  3
Dotted .  .  .  .
 72
65
 73
2
 40
0.2
 49
0.0
 49
-0.2
  0
ENDTAB
  0
TABLE
  2
STYLE
  70
4
  0
STYLE
  2
KICAD
  70
0
  40
0
  41
1
  42
1
  50
0
  71
0
  3
isocp.shx
  0
STYLE
  2
KICADB
  70
0
  40
0
  41
1
  42
1
  50
0
  71
0
  3
isocp.shx
  0
STYLE
  2
KICADI
  70
0
  40
0
  41
1
  42
1
  50
15
  71
0
  3
isocp.shx
  0
STYLE
  2
KICADBI
  70
0
  40
0
  41
1
  42
1
  50
15
  71
0
  3
isocp.shx
  0
ENDTAB
  0
TABLE
  2
LAYER
  70
1
  0
LAYER
  2
BLACK
  70
0
  62
7
  6
CONTINUOUS
  0
ENDTAB
  0
ENDSEC
  0
SECTION
  2
ENTITIES
0
LINE
8
BLACK
6
CONTINUOUS
10
0.395449
20
-0.624323
11
0.335449
21
-0.624323
0
LINE
8
BLACK
6
CONTINUOUS
10
0.335449
20
-0.624323
11
0.335449
21
-0.564323
0
LINE
8
BLACK
6
CONTINUOUS
10
0.335449
20
-0.564323
11
0.395449
21
-0.564323
0
LINE
8
BLACK
6
CONTINUOUS
10
0.395449
20
-0.564323
11
0.395449
21
-0.624323
0
LINE
8
BLACK
6
CONTINUOUS
10
0.495449
20
-0.624323
11
0.435449
21
-0.624323
0
LINE
8
BLACK
6
CONTINUOUS
10
0.435449
20
-0.624323
11
0.435449
21
-0.564323
0
LINE
8
BLACK
6
CONTINUOUS
10
0.435449
20
-0.564323
11
0.495449
21
-0.564323
0
LINE
8
BLACK
6
CONTINUOUS
10
0.495449
20
-0.564323
11
0.495449
21
-0.624323
0
LINE
8
BLACK
6
CONTINUOUS
10
0.595449
20
-0.624323
11
0.535449
21
-0.624323
0
LINE
8
BLACK
6
CONTINUOUS
10
0.535449
20
-0.624323
11
0.535449
21
-0.564323
0
LINE
8
BLACK
6
CONTINUOUS
10
0.535449
20
-0.564323
11
0.595449
21
-0.564323
0
LINE
8
BLACK
6
CONTINUOUS
10
0.595449
20
-0.564323
11
0.595449
21
-0.624323
0
LINE
8
BLACK
6
CONTINUOUS
10
0.395449
20
-0.524323
11
0.335449
21
-0.524323
0
LINE
8
BLACK
6
CONTINUOUS
10
0.335449
20
-0.524323
11
0.335449
21
-0.464323
0
LINE
8
BLACK
6
CONTINUOUS
10
0.335449
20
-0.464323
11
0.395449
21
-0.464323
0
LINE
8
BLACK
6
CONTINUOUS
10
0.395449
20
-0.464323
11
0.395449
21
-0.524323
0
LINE
8
BLACK
6
CONTINUOUS
10
0.495449
20
-0.524323
11
0.435449
21
-0.524323
0
LINE
8
BLACK
6
CONTINUOUS
10
0.435449
20
-0.524323
11
0.435449
21
-0.464323
0
LINE
8
BLACK
6
CONTINUOUS
10
0.435449
20
-0.464323
11
0.495449
21
-0.464323
0
LINE
8
BLACK
6
CONTINUOUS
10
0.495449
20
-0.464323
11
0.495449
21
-0.524323
0
LINE
8
BLACK
6
CONTINUOUS
10
0.595449
20
-0.524323
11
0.535449
21
-0.524323
0
LINE
8
BLACK
6
CONTINUOUS
10
0.535449
20
-0.524323
11
0.535449
21
-0.464323
0
LINE
8
BLACK
6
CONTINUOUS
10
0.535449
20
-0.464323
11
0.595449
21
-0.464323
0
LINE
8
BLACK
6
CONTINUOUS
10
0.595449
20
-0.464323
11
0.595449
21
-0.524323
0
LINE
8
BLACK
6
CONTINUOUS
10
0.263496
20
0.601537
11
0.248011
21
0.558992
0
LINE
8
BLACK
6
CONTINUOUS
10
0.248011
20
0.558992
11
0.212125
21
0.572054
0
LINE
8
BLACK
6
CONTINUOUS
10
0.212125
20
0.572054
11
0.227611
21
0.614599
0
LINE
8
BLACK
6
CONTINUOUS
10
0.227611
20
0.614599
11
0.263496
21
0.601537
0
LINE
8
BLACK
6
CONTINUOUS
10
0.216882
20
0.618504
11
0.201397
21
0.575959
0
LINE
8
BLACK
6
CONTINUOUS
10
0.201397
20
0.575959
11
0.16995
21
0.587404
0
LINE
8
BLACK
6
CONTINUOUS
10
0.16995
20
0.587404
11
0.185435
21
0.629949
0
LINE
8
BLACK
6
CONTINUOUS
10
0.185435
20
0.629949
11
0.216882
21
0.618504
0
LINE
8
BLACK
6
CONTINUOUS
10
0.280328
20
0.647782
11
0.267536
21
0.612636
0
LINE
8
BLACK
6
CONTINUOUS
10
0.267536
20
0.612636
11
0.23165
21
0.625698
0
LINE
8
BLACK
6
CONTINUOUS
10
0.23165
20
0.625698
11
0.244442
21
0.660844
0
LINE
8
BLACK
6
CONTINUOUS
10
0.244442
20
0.660844
11
0.280328
21
0.647782
0
LINE
8
BLACK
6
CONTINUOUS
10
0.233714
20
0.664749
11
0.220921
21
0.629603
0
LINE
8
BLACK
6
CONTINUOUS
10
0.220921
20
0.629603
11
0.189475
21
0.641048
0
LINE
8
BLACK
6
CONTINUOUS
10
0.189475
20
0.641048
11
0.202267
21
0.676194
0
LINE
8
BLACK
6
CONTINUOUS
10
0.202267
20
0.676194
11
0.233714
21
0.664749
0
LINE
8
BLACK
6
CONTINUOUS
10
-0.410265
20
0.694686
11
-0.439246
21
0.677954
0
LINE
8
BLACK
6
CONTINUOUS
10
-0.439246
20
0.677954
11
-0.461884
21
0.717163
0
LINE
8
BLACK
6
CONTINUOUS
10
-0.461884
20
0.717163
11
-0.432903
21
0.733896
0
LINE
8
BLACK
6
CONTINUOUS
10
-0.432903
20
0.733896
11
-0.410265
21
0.694686
0
LINE
8
BLACK
6
CONTINUOUS
10
-0.367305
20
0.719489
11
-0.400377
21
0.700394
0
LINE
8
BLACK
6
CONTINUOUS
10
-0.400377
20
0.700394
11
-0.423015
21
0.739604
0
LINE
8
BLACK
6
CONTINUOUS
10
-0.423015
20
0.739604
11
-0.389943
21
0.758699
0
LINE
8
BLACK
6
CONTINUOUS
10
-0.389943
20
0.758699
11
-0.367305
21
0.719489
0
LINE
8
BLACK
6
CONTINUOUS
10
-0.438808
20
0.744124
11
-0.46779
21
0.727392
0
LINE
8
BLACK
6
CONTINUOUS
10
-0.46779
20
0.727392
11
-0.48649
21
0.759783
0
LINE
8
BLACK
6
CONTINUOUS
10
-0.48649
20
0.759783
11
-0.457509
21
0.776515
0
LINE
8
BLACK
6
CONTINUOUS
10
-0.457509
20
0.776515
11
-0.438808
21
0.744124
0
LINE
8
BLACK
6
CONTINUOUS
10
-0.395848
20
0.768927
11
-0.428921
21
0.749833
0
LINE
8
BLACK
6
CONTINUOUS
10
-0.428921
20
0.749833
11
-0.447622
21
0.782224
0
LINE
8
BLACK
6
CONTINUOUS
10
-0.447622
20
0.782224
11
-0.414549
21
0.801318
0
LINE
8
BLACK
6
CONTINUOUS
10
-0.414549
20
0.801318
11
-0.395848
21
0.768927
  0
ENDSEC
  0
EOF
