  0
SECTION
  2
HEADER
  9
$ANGBASE
  50
0.0
  9
$ANGDIR
  70
1
  9
$MEASUREMENT
  70
0
  0
ENDSEC
  0
SECTION
  2
TABLES
  0
TABLE
  2
LTYPE
  70
4
  0
LTYPE
  5
40F
  2
CONTINUOUS
  70
0
  3
Solid line
  72
65
  73
0
  40
0.0
  0
LTYPE
  5
410
  2
DASHDOT
 70
0
  3
Dash Dot ____ _ ____ _
 72
65
 73
4
 40
2.0
 49
1.25
 49
-0.25
 49
0.25
 49
-0.25
  0
LTYPE
  5
411
  2
DASHED
 70
0
  3
Dashed __ __ __ __ __
 72
65
 73
2
 40
0.75
 49
0.5
 49
-0.25
  0
LTYPE
  5
43B
  2
DOTTED
 70
0
  3
Dotted .  .  .  .
 72
65
 73
2
 40
0.2
 49
0.0
 49
-0.2
  0
ENDTAB
  0
TABLE
  2
STYLE
  70
4
  0
STYLE
  2
KICAD
  70
0
  40
0
  41
1
  42
1
  50
0
  71
0
  3
isocp.shx
  0
STYLE
  2
KICADB
  70
0
  40
0
  41
1
  42
1
  50
0
  71
0
  3
isocp.shx
  0
STYLE
  2
KICADI
  70
0
  40
0
  41
1
  42
1
  50
15
  71
0
  3
isocp.shx
  0
STYLE
  2
KICADBI
  70
0
  40
0
  41
1
  42
1
  50
15
  71
0
  3
isocp.shx
  0
ENDTAB
  0
TABLE
  2
LAYER
  70
1
  0
LAYER
  2
BLACK
  70
0
  62
7
  6
CONTINUOUS
  0
ENDTAB
  0
ENDSEC
  0
SECTION
  2
ENTITIES
0
LINE
8
BLACK
6
CONTINUOUS
10
0.797244
20
-0.597441
11
0.79794
21
-0.597729
0
LINE
8
BLACK
6
CONTINUOUS
10
0.79794
20
-0.597729
11
0.798228
21
-0.598425
0
LINE
8
BLACK
6
CONTINUOUS
10
0.798228
20
-0.598425
11
0.798228
21
-0.728346
0
LINE
8
BLACK
6
CONTINUOUS
10
0.798228
20
-0.728346
11
0.79794
21
-0.729042
0
LINE
8
BLACK
6
CONTINUOUS
10
0.79794
20
-0.729042
11
0.797244
21
-0.729331
0
LINE
8
BLACK
6
CONTINUOUS
10
0.797244
20
-0.729331
11
0.766728
21
-0.729331
0
LINE
8
BLACK
6
CONTINUOUS
10
0.766728
20
-0.729331
11
0.769625
21
-0.730224
0
LINE
8
BLACK
6
CONTINUOUS
10
0.769625
20
-0.730224
11
0.779035
21
-0.734756
0
LINE
8
BLACK
6
CONTINUOUS
10
0.779035
20
-0.734756
11
0.787665
21
-0.74064
0
LINE
8
BLACK
6
CONTINUOUS
10
0.787665
20
-0.74064
11
0.795322
21
-0.747744
0
LINE
8
BLACK
6
CONTINUOUS
10
0.795322
20
-0.747744
11
0.801834
21
-0.75591
0
LINE
8
BLACK
6
CONTINUOUS
10
0.801834
20
-0.75591
11
0.807056
21
-0.764955
0
LINE
8
BLACK
6
CONTINUOUS
10
0.807056
20
-0.764955
11
0.810872
21
-0.774678
0
LINE
8
BLACK
6
CONTINUOUS
10
0.810872
20
-0.774678
11
0.813196
21
-0.78486
0
LINE
8
BLACK
6
CONTINUOUS
10
0.813196
20
-0.78486
11
0.813976
21
-0.795276
0
LINE
8
BLACK
6
CONTINUOUS
10
0.813976
20
-0.795276
11
0.813196
21
-0.805691
0
LINE
8
BLACK
6
CONTINUOUS
10
0.813196
20
-0.805691
11
0.810872
21
-0.815874
0
LINE
8
BLACK
6
CONTINUOUS
10
0.810872
20
-0.815874
11
0.807056
21
-0.825596
0
LINE
8
BLACK
6
CONTINUOUS
10
0.807056
20
-0.825596
11
0.801834
21
-0.834641
0
LINE
8
BLACK
6
CONTINUOUS
10
0.801834
20
-0.834641
11
0.795322
21
-0.842807
0
LINE
8
BLACK
6
CONTINUOUS
10
0.795322
20
-0.842807
11
0.787665
21
-0.849911
0
LINE
8
BLACK
6
CONTINUOUS
10
0.787665
20
-0.849911
11
0.779035
21
-0.855795
0
LINE
8
BLACK
6
CONTINUOUS
10
0.779035
20
-0.855795
11
0.769625
21
-0.860327
0
LINE
8
BLACK
6
CONTINUOUS
10
0.769625
20
-0.860327
11
0.759645
21
-0.863405
0
LINE
8
BLACK
6
CONTINUOUS
10
0.759645
20
-0.863405
11
0.749317
21
-0.864962
0
LINE
8
BLACK
6
CONTINUOUS
10
0.749317
20
-0.864962
11
0.738872
21
-0.864962
0
LINE
8
BLACK
6
CONTINUOUS
10
0.738872
20
-0.864962
11
0.728544
21
-0.863405
0
LINE
8
BLACK
6
CONTINUOUS
10
0.728544
20
-0.863405
11
0.718564
21
-0.860327
0
LINE
8
BLACK
6
CONTINUOUS
10
0.718564
20
-0.860327
11
0.709154
21
-0.855795
0
LINE
8
BLACK
6
CONTINUOUS
10
0.709154
20
-0.855795
11
0.700524
21
-0.849911
0
LINE
8
BLACK
6
CONTINUOUS
10
0.700524
20
-0.849911
11
0.692867
21
-0.842807
0
LINE
8
BLACK
6
CONTINUOUS
10
0.692867
20
-0.842807
11
0.686355
21
-0.834641
0
LINE
8
BLACK
6
CONTINUOUS
10
0.686355
20
-0.834641
11
0.681133
21
-0.825596
0
LINE
8
BLACK
6
CONTINUOUS
10
0.681133
20
-0.825596
11
0.677317
21
-0.815874
0
LINE
8
BLACK
6
CONTINUOUS
10
0.677317
20
-0.815874
11
0.674993
21
-0.805691
0
LINE
8
BLACK
6
CONTINUOUS
10
0.674993
20
-0.805691
11
0.674213
21
-0.795276
0
LINE
8
BLACK
6
CONTINUOUS
10
0.674213
20
-0.795276
11
0.674993
21
-0.78486
0
LINE
8
BLACK
6
CONTINUOUS
10
0.674993
20
-0.78486
11
0.677317
21
-0.774678
0
LINE
8
BLACK
6
CONTINUOUS
10
0.677317
20
-0.774678
11
0.681133
21
-0.764955
0
LINE
8
BLACK
6
CONTINUOUS
10
0.681133
20
-0.764955
11
0.686355
21
-0.75591
0
LINE
8
BLACK
6
CONTINUOUS
10
0.686355
20
-0.75591
11
0.692867
21
-0.747744
0
LINE
8
BLACK
6
CONTINUOUS
10
0.692867
20
-0.747744
11
0.700524
21
-0.74064
0
LINE
8
BLACK
6
CONTINUOUS
10
0.700524
20
-0.74064
11
0.709154
21
-0.734756
0
LINE
8
BLACK
6
CONTINUOUS
10
0.709154
20
-0.734756
11
0.718564
21
-0.730224
0
LINE
8
BLACK
6
CONTINUOUS
10
0.718564
20
-0.730224
11
0.721461
21
-0.729331
0
LINE
8
BLACK
6
CONTINUOUS
10
0.721461
20
-0.729331
11
0.698819
21
-0.729331
0
LINE
8
BLACK
6
CONTINUOUS
10
0.698819
20
-0.729331
11
0.698123
21
-0.729042
0
LINE
8
BLACK
6
CONTINUOUS
10
0.698123
20
-0.729042
11
0.697835
21
-0.728346
0
LINE
8
BLACK
6
CONTINUOUS
10
0.697835
20
-0.728346
11
0.697835
21
-0.598425
0
LINE
8
BLACK
6
CONTINUOUS
10
0.697835
20
-0.598425
11
0.698123
21
-0.597729
0
LINE
8
BLACK
6
CONTINUOUS
10
0.698123
20
-0.597729
11
0.698819
21
-0.597441
0
LINE
8
BLACK
6
CONTINUOUS
10
0.698819
20
-0.597441
11
0.797244
21
-0.597441
0
LINE
8
BLACK
6
CONTINUOUS
10
0.699803
20
-0.599409
11
0.699803
21
-0.727362
0
LINE
8
BLACK
6
CONTINUOUS
10
0.699803
20
-0.727362
11
0.727843
21
-0.727362
0
LINE
8
BLACK
6
CONTINUOUS
10
0.727843
20
-0.727362
11
0.728544
21
-0.727146
0
LINE
8
BLACK
6
CONTINUOUS
10
0.728544
20
-0.727146
11
0.738872
21
-0.725589
0
LINE
8
BLACK
6
CONTINUOUS
10
0.738872
20
-0.725589
11
0.749317
21
-0.725589
0
LINE
8
BLACK
6
CONTINUOUS
10
0.749317
20
-0.725589
11
0.759645
21
-0.727146
0
LINE
8
BLACK
6
CONTINUOUS
10
0.759645
20
-0.727146
11
0.760346
21
-0.727362
0
LINE
8
BLACK
6
CONTINUOUS
10
0.760346
20
-0.727362
11
0.79626
21
-0.727362
0
LINE
8
BLACK
6
CONTINUOUS
10
0.79626
20
-0.727362
11
0.79626
21
-0.599409
0
LINE
8
BLACK
6
CONTINUOUS
10
0.79626
20
-0.599409
11
0.699803
21
-0.599409
0
LINE
8
BLACK
6
CONTINUOUS
10
0.676751
20
-0.805426
11
0.679016
21
-0.81535
0
LINE
8
BLACK
6
CONTINUOUS
10
0.679016
20
-0.81535
11
0.682735
21
-0.824825
0
LINE
8
BLACK
6
CONTINUOUS
10
0.682735
20
-0.824825
11
0.687824
21
-0.83364
0
LINE
8
BLACK
6
CONTINUOUS
10
0.687824
20
-0.83364
11
0.694171
21
-0.841598
0
LINE
8
BLACK
6
CONTINUOUS
10
0.694171
20
-0.841598
11
0.701632
21
-0.848521
0
LINE
8
BLACK
6
CONTINUOUS
10
0.701632
20
-0.848521
11
0.710043
21
-0.854255
0
LINE
8
BLACK
6
CONTINUOUS
10
0.710043
20
-0.854255
11
0.719213
21
-0.858672
0
LINE
8
BLACK
6
CONTINUOUS
10
0.719213
20
-0.858672
11
0.72894
21
-0.861672
0
LINE
8
BLACK
6
CONTINUOUS
10
0.72894
20
-0.861672
11
0.739005
21
-0.863189
0
LINE
8
BLACK
6
CONTINUOUS
10
0.739005
20
-0.863189
11
0.749184
21
-0.863189
0
LINE
8
BLACK
6
CONTINUOUS
10
0.749184
20
-0.863189
11
0.759249
21
-0.861672
0
LINE
8
BLACK
6
CONTINUOUS
10
0.759249
20
-0.861672
11
0.768976
21
-0.858672
0
LINE
8
BLACK
6
CONTINUOUS
10
0.768976
20
-0.858672
11
0.778146
21
-0.854255
0
LINE
8
BLACK
6
CONTINUOUS
10
0.778146
20
-0.854255
11
0.786557
21
-0.848521
0
LINE
8
BLACK
6
CONTINUOUS
10
0.786557
20
-0.848521
11
0.794018
21
-0.841598
0
LINE
8
BLACK
6
CONTINUOUS
10
0.794018
20
-0.841598
11
0.800364
21
-0.83364
0
LINE
8
BLACK
6
CONTINUOUS
10
0.800364
20
-0.83364
11
0.805454
21
-0.824825
0
LINE
8
BLACK
6
CONTINUOUS
10
0.805454
20
-0.824825
11
0.809173
21
-0.81535
0
LINE
8
BLACK
6
CONTINUOUS
10
0.809173
20
-0.81535
11
0.811438
21
-0.805426
0
LINE
8
BLACK
6
CONTINUOUS
10
0.811438
20
-0.805426
11
0.812198
21
-0.795276
0
LINE
8
BLACK
6
CONTINUOUS
10
0.812198
20
-0.795276
11
0.811438
21
-0.785125
0
LINE
8
BLACK
6
CONTINUOUS
10
0.811438
20
-0.785125
11
0.809173
21
-0.775202
0
LINE
8
BLACK
6
CONTINUOUS
10
0.809173
20
-0.775202
11
0.805454
21
-0.765726
0
LINE
8
BLACK
6
CONTINUOUS
10
0.805454
20
-0.765726
11
0.800364
21
-0.756911
0
LINE
8
BLACK
6
CONTINUOUS
10
0.800364
20
-0.756911
11
0.794018
21
-0.748953
0
LINE
8
BLACK
6
CONTINUOUS
10
0.794018
20
-0.748953
11
0.786557
21
-0.74203
0
LINE
8
BLACK
6
CONTINUOUS
10
0.786557
20
-0.74203
11
0.778146
21
-0.736296
0
LINE
8
BLACK
6
CONTINUOUS
10
0.778146
20
-0.736296
11
0.768976
21
-0.73188
0
LINE
8
BLACK
6
CONTINUOUS
10
0.768976
20
-0.73188
11
0.760712
21
-0.729331
0
LINE
8
BLACK
6
CONTINUOUS
10
0.760712
20
-0.729331
11
0.727476
21
-0.729331
0
LINE
8
BLACK
6
CONTINUOUS
10
0.727476
20
-0.729331
11
0.719213
21
-0.73188
0
LINE
8
BLACK
6
CONTINUOUS
10
0.719213
20
-0.73188
11
0.710043
21
-0.736296
0
LINE
8
BLACK
6
CONTINUOUS
10
0.710043
20
-0.736296
11
0.701632
21
-0.74203
0
LINE
8
BLACK
6
CONTINUOUS
10
0.701632
20
-0.74203
11
0.694171
21
-0.748953
0
LINE
8
BLACK
6
CONTINUOUS
10
0.694171
20
-0.748953
11
0.687824
21
-0.756911
0
LINE
8
BLACK
6
CONTINUOUS
10
0.687824
20
-0.756911
11
0.682735
21
-0.765726
0
LINE
8
BLACK
6
CONTINUOUS
10
0.682735
20
-0.765726
11
0.679016
21
-0.775202
0
LINE
8
BLACK
6
CONTINUOUS
10
0.679016
20
-0.775202
11
0.676751
21
-0.785125
0
LINE
8
BLACK
6
CONTINUOUS
10
0.676751
20
-0.785125
11
0.675991
21
-0.795276
0
LINE
8
BLACK
6
CONTINUOUS
10
0.675991
20
-0.795276
11
0.676751
21
-0.805426
0
LINE
8
BLACK
6
CONTINUOUS
10
0.759645
20
0.851594
11
0.769625
21
0.848516
0
LINE
8
BLACK
6
CONTINUOUS
10
0.769625
20
0.848516
11
0.779035
21
0.843984
0
LINE
8
BLACK
6
CONTINUOUS
10
0.779035
20
0.843984
11
0.787665
21
0.8381
0
LINE
8
BLACK
6
CONTINUOUS
10
0.787665
20
0.8381
11
0.795322
21
0.830996
0
LINE
8
BLACK
6
CONTINUOUS
10
0.795322
20
0.830996
11
0.801834
21
0.82283
0
LINE
8
BLACK
6
CONTINUOUS
10
0.801834
20
0.82283
11
0.807056
21
0.813785
0
LINE
8
BLACK
6
CONTINUOUS
10
0.807056
20
0.813785
11
0.810872
21
0.804063
0
LINE
8
BLACK
6
CONTINUOUS
10
0.810872
20
0.804063
11
0.813196
21
0.79388
0
LINE
8
BLACK
6
CONTINUOUS
10
0.813196
20
0.79388
11
0.813976
21
0.783465
0
LINE
8
BLACK
6
CONTINUOUS
10
0.813976
20
0.783465
11
0.813196
21
0.773049
0
LINE
8
BLACK
6
CONTINUOUS
10
0.813196
20
0.773049
11
0.810872
21
0.762867
0
LINE
8
BLACK
6
CONTINUOUS
10
0.810872
20
0.762867
11
0.807056
21
0.753144
0
LINE
8
BLACK
6
CONTINUOUS
10
0.807056
20
0.753144
11
0.801834
21
0.744099
0
LINE
8
BLACK
6
CONTINUOUS
10
0.801834
20
0.744099
11
0.795322
21
0.735933
0
LINE
8
BLACK
6
CONTINUOUS
10
0.795322
20
0.735933
11
0.787665
21
0.728829
0
LINE
8
BLACK
6
CONTINUOUS
10
0.787665
20
0.728829
11
0.779035
21
0.722945
0
LINE
8
BLACK
6
CONTINUOUS
10
0.779035
20
0.722945
11
0.769625
21
0.718413
0
LINE
8
BLACK
6
CONTINUOUS
10
0.769625
20
0.718413
11
0.766728
21
0.71752
0
LINE
8
BLACK
6
CONTINUOUS
10
0.766728
20
0.71752
11
0.793307
21
0.71752
0
LINE
8
BLACK
6
CONTINUOUS
10
0.793307
20
0.71752
11
0.794003
21
0.717231
0
LINE
8
BLACK
6
CONTINUOUS
10
0.794003
20
0.717231
11
0.794291
21
0.716535
0
LINE
8
BLACK
6
CONTINUOUS
10
0.794291
20
0.716535
11
0.794291
21
0.586614
0
LINE
8
BLACK
6
CONTINUOUS
10
0.794291
20
0.586614
11
0.794003
21
0.585918
0
LINE
8
BLACK
6
CONTINUOUS
10
0.794003
20
0.585918
11
0.793307
21
0.58563
0
LINE
8
BLACK
6
CONTINUOUS
10
0.793307
20
0.58563
11
0.694882
21
0.58563
0
LINE
8
BLACK
6
CONTINUOUS
10
0.694882
20
0.58563
11
0.694186
21
0.585918
0
LINE
8
BLACK
6
CONTINUOUS
10
0.694186
20
0.585918
11
0.693898
21
0.586614
0
LINE
8
BLACK
6
CONTINUOUS
10
0.693898
20
0.586614
11
0.693898
21
0.716535
0
LINE
8
BLACK
6
CONTINUOUS
10
0.693898
20
0.716535
11
0.694186
21
0.717231
0
LINE
8
BLACK
6
CONTINUOUS
10
0.694186
20
0.717231
11
0.694882
21
0.71752
0
LINE
8
BLACK
6
CONTINUOUS
10
0.694882
20
0.71752
11
0.721461
21
0.71752
0
LINE
8
BLACK
6
CONTINUOUS
10
0.721461
20
0.71752
11
0.718564
21
0.718413
0
LINE
8
BLACK
6
CONTINUOUS
10
0.718564
20
0.718413
11
0.709154
21
0.722945
0
LINE
8
BLACK
6
CONTINUOUS
10
0.709154
20
0.722945
11
0.700524
21
0.728829
0
LINE
8
BLACK
6
CONTINUOUS
10
0.700524
20
0.728829
11
0.692867
21
0.735933
0
LINE
8
BLACK
6
CONTINUOUS
10
0.692867
20
0.735933
11
0.686355
21
0.744099
0
LINE
8
BLACK
6
CONTINUOUS
10
0.686355
20
0.744099
11
0.681133
21
0.753144
0
LINE
8
BLACK
6
CONTINUOUS
10
0.681133
20
0.753144
11
0.677317
21
0.762867
0
LINE
8
BLACK
6
CONTINUOUS
10
0.677317
20
0.762867
11
0.674993
21
0.773049
0
LINE
8
BLACK
6
CONTINUOUS
10
0.674993
20
0.773049
11
0.674213
21
0.783465
0
LINE
8
BLACK
6
CONTINUOUS
10
0.674213
20
0.783465
11
0.674993
21
0.79388
0
LINE
8
BLACK
6
CONTINUOUS
10
0.674993
20
0.79388
11
0.677317
21
0.804063
0
LINE
8
BLACK
6
CONTINUOUS
10
0.677317
20
0.804063
11
0.681133
21
0.813785
0
LINE
8
BLACK
6
CONTINUOUS
10
0.681133
20
0.813785
11
0.686355
21
0.82283
0
LINE
8
BLACK
6
CONTINUOUS
10
0.686355
20
0.82283
11
0.692867
21
0.830996
0
LINE
8
BLACK
6
CONTINUOUS
10
0.692867
20
0.830996
11
0.700524
21
0.8381
0
LINE
8
BLACK
6
CONTINUOUS
10
0.700524
20
0.8381
11
0.709154
21
0.843984
0
LINE
8
BLACK
6
CONTINUOUS
10
0.709154
20
0.843984
11
0.718564
21
0.848516
0
LINE
8
BLACK
6
CONTINUOUS
10
0.718564
20
0.848516
11
0.728544
21
0.851594
0
LINE
8
BLACK
6
CONTINUOUS
10
0.728544
20
0.851594
11
0.738872
21
0.853151
0
LINE
8
BLACK
6
CONTINUOUS
10
0.738872
20
0.853151
11
0.749317
21
0.853151
0
LINE
8
BLACK
6
CONTINUOUS
10
0.749317
20
0.853151
11
0.759645
21
0.851594
0
LINE
8
BLACK
6
CONTINUOUS
10
0.760346
20
0.715551
11
0.759645
21
0.715335
0
LINE
8
BLACK
6
CONTINUOUS
10
0.759645
20
0.715335
11
0.749317
21
0.713778
0
LINE
8
BLACK
6
CONTINUOUS
10
0.749317
20
0.713778
11
0.738872
21
0.713778
0
LINE
8
BLACK
6
CONTINUOUS
10
0.738872
20
0.713778
11
0.728544
21
0.715335
0
LINE
8
BLACK
6
CONTINUOUS
10
0.728544
20
0.715335
11
0.727843
21
0.715551
0
LINE
8
BLACK
6
CONTINUOUS
10
0.727843
20
0.715551
11
0.695866
21
0.715551
0
LINE
8
BLACK
6
CONTINUOUS
10
0.695866
20
0.715551
11
0.695866
21
0.587598
0
LINE
8
BLACK
6
CONTINUOUS
10
0.695866
20
0.587598
11
0.792323
21
0.587598
0
LINE
8
BLACK
6
CONTINUOUS
10
0.792323
20
0.587598
11
0.792323
21
0.715551
0
LINE
8
BLACK
6
CONTINUOUS
10
0.792323
20
0.715551
11
0.760346
21
0.715551
0
LINE
8
BLACK
6
CONTINUOUS
10
0.676751
20
0.773314
11
0.679016
21
0.763391
0
LINE
8
BLACK
6
CONTINUOUS
10
0.679016
20
0.763391
11
0.682735
21
0.753915
0
LINE
8
BLACK
6
CONTINUOUS
10
0.682735
20
0.753915
11
0.687824
21
0.7451
0
LINE
8
BLACK
6
CONTINUOUS
10
0.687824
20
0.7451
11
0.694171
21
0.737142
0
LINE
8
BLACK
6
CONTINUOUS
10
0.694171
20
0.737142
11
0.701632
21
0.730219
0
LINE
8
BLACK
6
CONTINUOUS
10
0.701632
20
0.730219
11
0.710043
21
0.724485
0
LINE
8
BLACK
6
CONTINUOUS
10
0.710043
20
0.724485
11
0.719213
21
0.720069
0
LINE
8
BLACK
6
CONTINUOUS
10
0.719213
20
0.720069
11
0.727476
21
0.71752
0
LINE
8
BLACK
6
CONTINUOUS
10
0.727476
20
0.71752
11
0.760712
21
0.71752
0
LINE
8
BLACK
6
CONTINUOUS
10
0.760712
20
0.71752
11
0.768976
21
0.720069
0
LINE
8
BLACK
6
CONTINUOUS
10
0.768976
20
0.720069
11
0.778146
21
0.724485
0
LINE
8
BLACK
6
CONTINUOUS
10
0.778146
20
0.724485
11
0.786557
21
0.730219
0
LINE
8
BLACK
6
CONTINUOUS
10
0.786557
20
0.730219
11
0.794018
21
0.737142
0
LINE
8
BLACK
6
CONTINUOUS
10
0.794018
20
0.737142
11
0.800364
21
0.7451
0
LINE
8
BLACK
6
CONTINUOUS
10
0.800364
20
0.7451
11
0.805454
21
0.753915
0
LINE
8
BLACK
6
CONTINUOUS
10
0.805454
20
0.753915
11
0.809173
21
0.763391
0
LINE
8
BLACK
6
CONTINUOUS
10
0.809173
20
0.763391
11
0.811438
21
0.773314
0
LINE
8
BLACK
6
CONTINUOUS
10
0.811438
20
0.773314
11
0.812198
21
0.783465
0
LINE
8
BLACK
6
CONTINUOUS
10
0.812198
20
0.783465
11
0.811438
21
0.793615
0
LINE
8
BLACK
6
CONTINUOUS
10
0.811438
20
0.793615
11
0.809173
21
0.803539
0
LINE
8
BLACK
6
CONTINUOUS
10
0.809173
20
0.803539
11
0.805454
21
0.813014
0
LINE
8
BLACK
6
CONTINUOUS
10
0.805454
20
0.813014
11
0.800364
21
0.821829
0
LINE
8
BLACK
6
CONTINUOUS
10
0.800364
20
0.821829
11
0.794018
21
0.829787
0
LINE
8
BLACK
6
CONTINUOUS
10
0.794018
20
0.829787
11
0.786557
21
0.83671
0
LINE
8
BLACK
6
CONTINUOUS
10
0.786557
20
0.83671
11
0.778146
21
0.842444
0
LINE
8
BLACK
6
CONTINUOUS
10
0.778146
20
0.842444
11
0.768976
21
0.846861
0
LINE
8
BLACK
6
CONTINUOUS
10
0.768976
20
0.846861
11
0.759249
21
0.849861
0
LINE
8
BLACK
6
CONTINUOUS
10
0.759249
20
0.849861
11
0.749184
21
0.851378
0
LINE
8
BLACK
6
CONTINUOUS
10
0.749184
20
0.851378
11
0.739005
21
0.851378
0
LINE
8
BLACK
6
CONTINUOUS
10
0.739005
20
0.851378
11
0.72894
21
0.849861
0
LINE
8
BLACK
6
CONTINUOUS
10
0.72894
20
0.849861
11
0.719213
21
0.846861
0
LINE
8
BLACK
6
CONTINUOUS
10
0.719213
20
0.846861
11
0.710043
21
0.842444
0
LINE
8
BLACK
6
CONTINUOUS
10
0.710043
20
0.842444
11
0.701632
21
0.83671
0
LINE
8
BLACK
6
CONTINUOUS
10
0.701632
20
0.83671
11
0.694171
21
0.829787
0
LINE
8
BLACK
6
CONTINUOUS
10
0.694171
20
0.829787
11
0.687824
21
0.821829
0
LINE
8
BLACK
6
CONTINUOUS
10
0.687824
20
0.821829
11
0.682735
21
0.813014
0
LINE
8
BLACK
6
CONTINUOUS
10
0.682735
20
0.813014
11
0.679016
21
0.803539
0
LINE
8
BLACK
6
CONTINUOUS
10
0.679016
20
0.803539
11
0.676751
21
0.793615
0
LINE
8
BLACK
6
CONTINUOUS
10
0.676751
20
0.793615
11
0.675991
21
0.783465
0
LINE
8
BLACK
6
CONTINUOUS
10
0.675991
20
0.783465
11
0.676751
21
0.773314
  0
ENDSEC
  0
EOF
