<?xml version='1.0' encoding='ASCII' standalone='yes'?>
<svg xmlns:svg="http://www.w3.org/2000/svg" xmlns="http://www.w3.org/2000/svg" xmlns:xlink="http://www.w3.org/1999/xlink" version="1.1" width="297.0022mm" height="210.0072mm" viewBox="0.0000 0.0000 297.0022 210.0072">
<title>SVG Image created as USTTHUNDERMILLPCB01-B_Fab.svg date 2023/06/28 22:37:25 </title>
  <desc>Image generated by PCBNEW </desc>
<g style="fill:#000084; fill-opacity:1.0000;stroke:#000084; stroke-opacity:1.0000; stroke-linecap:round; stroke-linejoin:round;" transform="translate(0 0) scale(1 1)">
</g>
<g style="fill:#000084; fill-opacity:0.0;  stroke:#000084; stroke-width:0.0000; stroke-opacity:1;  stroke-linecap:round; stroke-linejoin:round;">
</g>
<g style="fill:#000084; fill-opacity:0.0;  stroke:#000084; stroke-width:0.3935; stroke-opacity:1;  stroke-linecap:round; stroke-linejoin:round;">
<g transform="rotate(-340.000000 107.3488 90.0018)">
<text x="107.3488" y="91.3135" transform="scale(-1 1) translate(-214.697589 0)" textLength="5.7058" font-size="3.4978" lengthAdjust="spacingAndGlyphs" text-anchor="middle" opacity="0.01" style="font-family:monospace">U6</text>
</g>
<g class="stroked-text"><desc>U6</desc>
<path d="M109.7162 89.3415 L108.9898 91.3371 "/>
<path d="M108.9898 91.3371 L108.7870 91.5291 "/>
<path d="M108.7870 91.5291 L108.6269 91.6038 "/>
<path d="M108.6269 91.6038 L108.3494 91.6357 "/>
<path d="M108.3494 91.6357 L107.8798 91.4648 "/>
<path d="M107.8798 91.4648 L107.6878 91.2620 "/>
<path d="M107.6878 91.2620 L107.6131 91.1019 "/>
<path d="M107.6131 91.1019 L107.5812 90.8244 "/>
<path d="M107.5812 90.8244 L108.3075 88.8288 "/>
<path d="M106.0771 88.0170 L106.5467 88.1879 "/>
<path d="M106.5467 88.1879 L106.7387 88.3907 "/>
<path d="M106.7387 88.3907 L106.8134 88.5508 "/>
<path d="M106.8134 88.5508 L106.9200 88.9884 "/>
<path d="M106.9200 88.9884 L106.8665 89.5007 "/>
<path d="M106.8665 89.5007 L106.5247 90.4398 "/>
<path d="M106.5247 90.4398 L106.3218 90.6319 "/>
<path d="M106.3218 90.6319 L106.1617 90.7065 "/>
<path d="M106.1617 90.7065 L105.8842 90.7385 "/>
<path d="M105.8842 90.7385 L105.4147 90.5676 "/>
<path d="M105.4147 90.5676 L105.2226 90.3647 "/>
<path d="M105.2226 90.3647 L105.1479 90.2046 "/>
<path d="M105.1479 90.2046 L105.1160 89.9271 "/>
<path d="M105.1160 89.9271 L105.3296 89.3402 "/>
<path d="M105.3296 89.3402 L105.5325 89.1481 "/>
<path d="M105.5325 89.1481 L105.6926 89.0735 "/>
<path d="M105.6926 89.0735 L105.9701 89.0415 "/>
<path d="M105.9701 89.0415 L106.4397 89.2124 "/>
<path d="M106.4397 89.2124 L106.6317 89.4153 "/>
<path d="M106.6317 89.4153 L106.7064 89.5754 "/>
<path d="M106.7064 89.5754 L106.7383 89.8529 "/>
</g><g transform="rotate(-250.000000 163.5029 63.8513)">
<text x="163.5029" y="65.1630" transform="scale(-1 1) translate(-327.005762 0)" textLength="8.2042" font-size="3.4978" lengthAdjust="spacingAndGlyphs" text-anchor="middle" opacity="0.01" style="font-family:monospace">U13</text>
</g>
<g class="stroked-text"><desc>U13</desc>
<path d="M163.7360 67.3925 L161.7404 66.6662 "/>
<path d="M161.7404 66.6662 L161.5483 66.4634 "/>
<path d="M161.5483 66.4634 L161.4737 66.3033 "/>
<path d="M161.4737 66.3033 L161.4417 66.0257 "/>
<path d="M161.4417 66.0257 L161.6126 65.5562 "/>
<path d="M161.6126 65.5562 L161.8155 65.3641 "/>
<path d="M161.8155 65.3641 L161.9756 65.2895 "/>
<path d="M161.9756 65.2895 L162.2531 65.2575 "/>
<path d="M162.2531 65.2575 L164.2487 65.9839 "/>
<path d="M162.6808 62.6215 L162.1681 64.0301 "/>
<path d="M162.4244 63.3258 L164.8896 64.2231 "/>
<path d="M164.8896 64.2231 L164.4519 64.3297 "/>
<path d="M164.4519 64.3297 L164.1317 64.4790 "/>
<path d="M164.1317 64.4790 L163.9289 64.6710 "/>
<path d="M165.4450 62.6970 L166.0004 61.1710 "/>
<path d="M166.0004 61.1710 L164.7622 61.6509 "/>
<path d="M164.7622 61.6509 L164.8904 61.2987 "/>
<path d="M164.8904 61.2987 L164.8585 61.0212 "/>
<path d="M164.8585 61.0212 L164.7838 60.8611 "/>
<path d="M164.7838 60.8611 L164.5918 60.6583 "/>
<path d="M164.5918 60.6583 L164.0048 60.4446 "/>
<path d="M164.0048 60.4446 L163.7273 60.4766 "/>
<path d="M163.7273 60.4766 L163.5672 60.5512 "/>
<path d="M163.5672 60.5512 L163.3644 60.7433 "/>
<path d="M163.3644 60.7433 L163.1080 61.4476 "/>
<path d="M163.1080 61.4476 L163.1400 61.7251 "/>
<path d="M163.1400 61.7251 L163.2146 61.8852 "/>
</g></g>
<g style="fill:#000084; fill-opacity:0.0;  stroke:#000084; stroke-width:0.0394; stroke-opacity:1;  stroke-linecap:round; stroke-linejoin:round;">
<g transform="rotate(-30.000000 89.7310 147.0046)">
<text x="89.7310" y="148.3163" transform="scale(-1 1) translate(-179.462086 0)" textLength="19.1864" font-size="3.4978" lengthAdjust="spacingAndGlyphs" text-anchor="middle" opacity="0.01" style="font-family:monospace">VCNT2020</text>
</g>
<g class="stroked-text"><desc>VCNT2020</desc>
<path d="M97.3013 141.0037 L97.8557 143.7128 "/>
<path d="M97.8557 143.7128 L95.7867 141.8782 "/>
<path d="M94.9180 145.1204 L95.0886 145.1662 "/>
<path d="M95.0886 145.1662 L95.4756 145.0870 "/>
<path d="M95.4756 145.0870 L95.6920 144.9621 "/>
<path d="M95.6920 144.9621 L95.9541 144.6665 "/>
<path d="M95.9541 144.6665 L96.0456 144.3252 "/>
<path d="M96.0456 144.3252 L96.0288 144.0464 "/>
<path d="M96.0288 144.0464 L95.8872 143.5512 "/>
<path d="M95.8872 143.5512 L95.6998 143.2266 "/>
<path d="M95.6998 143.2266 L95.3417 142.8563 "/>
<path d="M95.3417 142.8563 L95.1086 142.7024 "/>
<path d="M95.1086 142.7024 L94.7673 142.6110 "/>
<path d="M94.7673 142.6110 L94.3803 142.6902 "/>
<path d="M94.3803 142.6902 L94.1640 142.8151 "/>
<path d="M94.1640 142.8151 L93.9019 143.1106 "/>
<path d="M93.9019 143.1106 L93.8561 143.2813 "/>
<path d="M94.0692 145.8990 L92.7575 143.6271 "/>
<path d="M92.7575 143.6271 L92.7710 146.6485 "/>
<path d="M92.7710 146.6485 L91.4593 144.3766 "/>
<path d="M90.7020 144.8138 L89.4038 145.5634 "/>
<path d="M91.3646 147.4605 L90.0529 145.1886 "/>
<path d="M88.8796 146.1545 L88.7090 146.1088 "/>
<path d="M88.7090 146.1088 L88.4301 146.1255 "/>
<path d="M88.4301 146.1255 L87.8892 146.4378 "/>
<path d="M87.8892 146.4378 L87.7353 146.6709 "/>
<path d="M87.7353 146.6709 L87.6896 146.8416 "/>
<path d="M87.6896 146.8416 L87.7063 147.1204 "/>
<path d="M87.7063 147.1204 L87.8312 147.3368 "/>
<path d="M87.8312 147.3368 L88.1268 147.5989 "/>
<path d="M88.1268 147.5989 L90.1745 148.1476 "/>
<path d="M90.1745 148.1476 L88.7681 148.9596 "/>
<path d="M86.0500 147.4997 L85.8337 147.6246 "/>
<path d="M85.8337 147.6246 L85.6798 147.8577 "/>
<path d="M85.6798 147.8577 L85.6340 148.0283 "/>
<path d="M85.6340 148.0283 L85.6508 148.3072 "/>
<path d="M85.6508 148.3072 L85.7924 148.8024 "/>
<path d="M85.7924 148.8024 L86.1047 149.3433 "/>
<path d="M86.1047 149.3433 L86.4628 149.7136 "/>
<path d="M86.4628 149.7136 L86.6959 149.8675 "/>
<path d="M86.6959 149.8675 L86.8665 149.9132 "/>
<path d="M86.8665 149.9132 L87.1454 149.8965 "/>
<path d="M87.1454 149.8965 L87.3617 149.7715 "/>
<path d="M87.3617 149.7715 L87.5156 149.5384 "/>
<path d="M87.5156 149.5384 L87.5614 149.3678 "/>
<path d="M87.5614 149.3678 L87.5446 149.0890 "/>
<path d="M87.5446 149.0890 L87.4030 148.5938 "/>
<path d="M87.4030 148.5938 L87.0907 148.0528 "/>
<path d="M87.0907 148.0528 L86.7326 147.6826 "/>
<path d="M86.7326 147.6826 L86.4995 147.5286 "/>
<path d="M86.4995 147.5286 L86.3289 147.4829 "/>
<path d="M86.3289 147.4829 L86.0500 147.4997 "/>
<path d="M84.5522 148.6529 L84.3815 148.6072 "/>
<path d="M84.3815 148.6072 L84.1027 148.6239 "/>
<path d="M84.1027 148.6239 L83.5618 148.9363 "/>
<path d="M83.5618 148.9363 L83.4079 149.1694 "/>
<path d="M83.4079 149.1694 L83.3621 149.3400 "/>
<path d="M83.3621 149.3400 L83.3789 149.6188 "/>
<path d="M83.3789 149.6188 L83.5038 149.8352 "/>
<path d="M83.5038 149.8352 L83.7994 150.0973 "/>
<path d="M83.7994 150.0973 L85.8471 150.6460 "/>
<path d="M85.8471 150.6460 L84.4407 151.4580 "/>
<path d="M81.7226 149.9981 L81.5062 150.1230 "/>
<path d="M81.5062 150.1230 L81.3523 150.3561 "/>
<path d="M81.3523 150.3561 L81.3066 150.5268 "/>
<path d="M81.3066 150.5268 L81.3234 150.8056 "/>
<path d="M81.3234 150.8056 L81.4650 151.3008 "/>
<path d="M81.4650 151.3008 L81.7773 151.8417 "/>
<path d="M81.7773 151.8417 L82.1353 152.2120 "/>
<path d="M82.1353 152.2120 L82.3685 152.3659 "/>
<path d="M82.3685 152.3659 L82.5391 152.4116 "/>
<path d="M82.5391 152.4116 L82.8179 152.3949 "/>
<path d="M82.8179 152.3949 L83.0343 152.2700 "/>
<path d="M83.0343 152.2700 L83.1882 152.0369 "/>
<path d="M83.1882 152.0369 L83.2339 151.8662 "/>
<path d="M83.2339 151.8662 L83.2172 151.5874 "/>
<path d="M83.2172 151.5874 L83.0755 151.0922 "/>
<path d="M83.0755 151.0922 L82.7632 150.5513 "/>
<path d="M82.7632 150.5513 L82.4052 150.1810 "/>
<path d="M82.4052 150.1810 L82.1721 150.0271 "/>
<path d="M82.1721 150.0271 L82.0015 149.9814 "/>
<path d="M82.0015 149.9814 L81.7226 149.9981 "/>
</g></g>
<g style="fill:#000084; fill-opacity:0.0;  stroke:#000084; stroke-width:0.3935; stroke-opacity:1;  stroke-linecap:round; stroke-linejoin:round;">
<g transform="rotate(-30.000000 99.2167 133.4492)">
<text x="99.2167" y="134.7609" transform="scale(-1 1) translate(-198.433363 0)" textLength="5.7058" font-size="3.4978" lengthAdjust="spacingAndGlyphs" text-anchor="middle" opacity="0.01" style="font-family:monospace">U5</text>
</g>
<g class="stroked-text"><desc>U5</desc>
<path d="M100.2325 131.2113 L101.2944 133.0504 "/>
<path d="M101.2944 133.0504 L101.3111 133.3292 "/>
<path d="M101.3111 133.3292 L101.2654 133.4999 "/>
<path d="M101.2654 133.4999 L101.1115 133.7330 "/>
<path d="M101.1115 133.7330 L100.6787 133.9828 "/>
<path d="M100.6787 133.9828 L100.3999 133.9996 "/>
<path d="M100.3999 133.9996 L100.2293 133.9538 "/>
<path d="M100.2293 133.9538 L99.9962 133.7999 "/>
<path d="M99.9962 133.7999 L98.9343 131.9608 "/>
<path d="M96.7706 133.2100 L97.8525 132.5854 "/>
<path d="M97.8525 132.5854 L98.5853 133.6048 "/>
<path d="M98.5853 133.6048 L98.4146 133.5591 "/>
<path d="M98.4146 133.5591 L98.1358 133.5758 "/>
<path d="M98.1358 133.5758 L97.5949 133.8881 "/>
<path d="M97.5949 133.8881 L97.4409 134.1212 "/>
<path d="M97.4409 134.1212 L97.3952 134.2919 "/>
<path d="M97.3952 134.2919 L97.4120 134.5707 "/>
<path d="M97.4120 134.5707 L97.7243 135.1116 "/>
<path d="M97.7243 135.1116 L97.9574 135.2655 "/>
<path d="M97.9574 135.2655 L98.1280 135.3113 "/>
<path d="M98.1280 135.3113 L98.4068 135.2945 "/>
<path d="M98.4068 135.2945 L98.9478 134.9822 "/>
<path d="M98.9478 134.9822 L99.1017 134.7491 "/>
<path d="M99.1017 134.7491 L99.1474 134.5785 "/>
</g></g>
<g style="fill:#000084; fill-opacity:0.0;  stroke:#000084; stroke-width:0.3332; stroke-opacity:1;  stroke-linecap:round; stroke-linejoin:round;">
<path d="M111.3275 88.6582 L109.5330 93.5885 "/>
<path d="M103.3701 91.3454 L109.5330 93.5885 "/>
<path d="M105.1646 86.4151 L111.3275 88.6582 "/>
<path d="M105.1646 86.4151 L103.3701 91.3454 "/>
</g>
<g style="fill:#000084; fill-opacity:0.0;  stroke:#000084; stroke-width:0.5247; stroke-opacity:1;  stroke-linecap:round; stroke-linejoin:round;">
<circle cx="112.7566" cy="89.8211" r="0.2623"/> 
</g>
<g style="fill:#000084; fill-opacity:0.0;  stroke:#000084; stroke-width:0.3332; stroke-opacity:1;  stroke-linecap:round; stroke-linejoin:round;">
<path d="M164.8465 67.8300 L159.9162 66.0355 "/>
<path d="M162.1593 59.8726 L159.9162 66.0355 "/>
<path d="M167.0896 61.6671 L164.8465 67.8300 "/>
<path d="M167.0896 61.6671 L162.1593 59.8726 "/>
</g>
<g style="fill:#000084; fill-opacity:0.0;  stroke:#000084; stroke-width:0.5247; stroke-opacity:1;  stroke-linecap:round; stroke-linejoin:round;">
<circle cx="163.6836" cy="69.2591" r="0.2623"/> 
</g>
<g style="fill:#000084; fill-opacity:0.0;  stroke:#000084; stroke-width:0.3332; stroke-opacity:1;  stroke-linecap:round; stroke-linejoin:round;">
<path d="M100.7449 129.5377 L103.3682 134.0815 "/>
<path d="M97.6885 137.3607 L103.3682 134.0815 "/>
<path d="M95.0651 132.8169 L100.7449 129.5377 "/>
<path d="M95.0651 132.8169 L97.6885 137.3607 "/>
</g>
<g style="fill:#000084; fill-opacity:0.0;  stroke:#000084; stroke-width:0.5247; stroke-opacity:1;  stroke-linecap:round; stroke-linejoin:round;">
<circle cx="102.5543" cy="129.1905" r="0.2623"/> 
<g>
</g>
<g>
</g>
<g>
</g>
<g>
</g>
<g>
</g>
<g>
</g>
<g>
</g>
<g>
</g>
<g>
</g>
<g>
</g>
<g>
</g>
<g>
</g>
<g>
</g>
<g>
</g>
<g>
</g>
<g>
</g>
<g>
</g>
<g>
</g>
<g>
</g>
<g>
</g>
<g>
</g>
<g>
</g>
<g>
</g>
<g>
</g>
<g>
</g>
<g>
</g>
<g>
</g>
<g>
</g>
<g>
</g>
<g>
</g>
<g>
</g>
<g>
</g>
<g>
</g>
<g>
</g>
<g>
</g>
<g>
</g>
<g>
</g>
<g>
</g>
<g>
</g>
<g>
</g>
<g>
</g>
<g>
</g>
<g>
</g>
<g>
</g>
<g>
</g>
<g>
</g>
<g>
</g>
<g>
</g>
<g>
</g>
<g>
</g>
<g>
</g>
<g>
</g>
<g>
</g>
<g>
</g>
<g>
</g>
<g>
</g>
<g>
</g>
<g>
</g>
<g>
</g>
<g>
</g>
<g>
</g>
<g>
</g>
<g>
</g>
<g>
</g>
<g>
</g>
<g>
</g>
<g>
</g>
<g>
</g>
<g>
</g>
<g>
</g>
<g>
</g>
<g>
</g>
<g>
</g>
<g>
</g>
<g>
</g>
<g>
</g>
<g>
</g>
<g>
</g>
<g>
</g>
<g>
</g>
<g>
</g>
<g>
</g>
<g>
</g>
<g>
</g>
<g>
</g>
<g>
</g>
<g>
</g>
<g>
</g>
<g>
</g>
<g>
</g>
</g> 
<svg:g><svg:g><svg:title>SVG Image created as USTTHUNDERMILLPCB01-Edge_Cuts.svg date 2023/06/28 22:37:25 </svg:title>
  <svg:desc>Image generated by PCBNEW </svg:desc>
<svg:g style="fill:#C2C200; fill-opacity:1.0000;stroke:#C2C200; stroke-opacity:1.0000; stroke-linecap:round; stroke-linejoin:round;" transform="translate(0 0) scale(1 1)">
</svg:g>
<svg:g style="fill:#C2C200; fill-opacity:0.0;  stroke:#C2C200; stroke-width:0.0000; stroke-opacity:1;  stroke-linecap:round; stroke-linejoin:round;">
</svg:g>
<svg:g style="fill:#C2C200; fill-opacity:0.0;  stroke:#C2C200; stroke-width:0.1312; stroke-opacity:1;  stroke-linecap:round; stroke-linejoin:round;">
<svg:path style="fill:#C2C200; fill-opacity:0.0;  stroke:#C2C200; stroke-width:0.1312; stroke-opacity:1;  stroke-linecap:round; stroke-linejoin:round;fill:none" d="M 131.1509,65.4202 132.0650,65.8859 132.7905,66.6115 133.2563,67.5255 133.4168,68.5389 133.2563,69.5523 132.7905,70.4663 132.0650,71.1919 131.1509,71.6575 130.1376,71.8181 129.1243,71.6575 128.2101,71.1919 127.4847,70.4663 127.0189,69.5523 126.8584,68.5389 127.0189,67.5255 127.4847,66.6115 128.2101,65.8859 129.1243,65.4202 130.1376,65.2597 Z"/> 
<svg:path style="fill:#C2C200; fill-opacity:0.0;  stroke:#C2C200; stroke-width:0.1312; stroke-opacity:1;  stroke-linecap:round; stroke-linejoin:round;fill:none" d="M 131.1509,138.3497 132.0650,138.8153 132.7905,139.5409 133.2563,140.4549 133.4168,141.4683 133.2563,142.4817 132.7905,143.3957 132.0650,144.1213 131.1509,144.5870 130.1376,144.7475 129.1243,144.5870 128.2101,144.1213 127.4847,143.3957 127.0189,142.4817 126.8584,141.4683 127.0189,140.4549 127.4847,139.5409 128.2101,138.8153 129.1243,138.3497 130.1376,138.1891 Z"/> 
<svg:path style="fill:#C2C200; fill-opacity:0.0;  stroke:#C2C200; stroke-width:0.1312; stroke-opacity:1;  stroke-linecap:round; stroke-linejoin:round;fill:none" d="M 90.2266,101.8849 91.1405,102.3507 91.8662,103.0761 92.3318,103.9903 92.4924,105.0036 92.3318,106.0169 91.8662,106.9311 91.1405,107.6565 90.2266,108.1223 89.2132,108.2828 88.1998,108.1223 87.2858,107.6565 86.5602,106.9311 86.0945,106.0169 85.9340,105.0036 86.0945,103.9903 86.5602,103.0761 87.2858,102.3507 88.1998,101.8849 89.2132,101.7244 Z"/> 
<svg:path style="fill:#C2C200; fill-opacity:0.0;  stroke:#C2C200; stroke-width:0.1312; stroke-opacity:1;  stroke-linecap:round; stroke-linejoin:round;fill:none" d="M 153.9930,0.2130 159.4697,0.6440 164.9165,1.3612 170.3182,2.3623 175.6602,3.6448 180.9277,5.2049 186.1062,7.0389 191.1819,9.1413 196.1403,11.5063 200.9683,14.1278 205.6526,16.9982 210.1800,20.1098 214.5384,23.4543 218.7159,27.0221 222.7010,30.8037 226.4826,34.7888 230.0504,38.9663 233.3949,43.3247 236.5064,47.8521 239.3769,52.5364 241.9985,57.3644 244.3634,62.3228 246.4658,67.3985 248.2998,72.5770 249.8599,77.8445 251.1424,83.1865 252.1435,88.5882 252.8607,94.0350 253.2918,99.5117 253.4355,105.0036 253.2917,110.4955 252.8607,115.9723 252.1435,121.4190 251.1424,126.8207 249.8599,132.1627 248.2998,137.4302 246.4658,142.6087 244.3634,147.6844 241.9984,152.6428 239.3769,157.4708 236.5064,162.1551 233.3949,166.6825 230.0504,171.0409 226.4826,175.2184 222.7010,179.2035 218.7159,182.9851 214.5384,186.5529 210.1800,189.8974 205.6526,193.0090 200.9683,195.8794 196.1403,198.5010 191.1819,200.8659 186.1062,202.9683 180.9277,204.8023 175.6602,206.3624 170.3182,207.6449 164.9165,208.6460 159.4697,209.3632 153.9930,209.7943 148.5011,209.9380 143.0092,209.7942 137.5324,209.3632 132.0857,208.6460 126.6840,207.6449 121.3420,206.3624 116.0745,204.8023 110.8960,202.9683 105.8203,200.8659 100.8619,198.5009 96.0339,195.8794 91.3496,193.0089 86.8222,189.8974 82.4638,186.5529 78.2863,182.9851 74.3012,179.2035 70.5196,175.2184 66.9518,171.0409 63.6073,166.6825 60.4957,162.1551 57.6253,157.4708 55.0037,152.6428 52.6388,147.6844 50.5364,142.6087 48.7024,137.4302 47.1423,132.1627 45.8598,126.8207 44.8587,121.4190 44.1415,115.9722 43.7104,110.4954 43.5667,105.0036 43.7104,99.5117 44.1415,94.0349 44.8587,88.5882 45.8598,83.1865 47.1423,77.8445 48.7024,72.5770 50.5364,67.3985 52.6388,62.3228 55.0037,57.3644 57.6253,52.5364 60.4957,47.8521 63.6073,43.3247 66.9518,38.9663 70.5196,34.7888 74.3012,30.8037 78.2863,27.0221 82.4638,23.4543 86.8222,20.1098 91.3496,16.9982 96.0339,14.1278 100.8619,11.5062 105.8203,9.1413 110.8960,7.0389 116.0745,5.2049 121.3420,3.6448 126.6840,2.3622 132.0857,1.3612 137.5325,0.6440 143.0092,0.2129 148.5011,0.0692 Z"/> 
<svg:path style="fill:#C2C200; fill-opacity:0.0;  stroke:#C2C200; stroke-width:0.1312; stroke-opacity:1;  stroke-linecap:round; stroke-linejoin:round;fill:none" d="M 149.6063,83.9145 150.7085,84.0012 151.8047,84.1455 152.8918,84.3470 153.9668,84.6051 155.0269,84.9192 156.0691,85.2882 157.0906,85.7113 158.0885,86.1873 159.0601,86.7148 160.0028,87.2925 160.9140,87.9187 161.7911,88.5918 162.6318,89.3098 163.4338,90.0709 164.1949,90.8729 164.9129,91.7136 165.5860,92.5907 166.2122,93.5019 166.7899,94.4446 167.3174,95.4162 167.7934,96.4141 168.2165,97.4356 168.5855,98.4778 168.8996,99.5379 169.1577,100.6129 169.3591,101.7000 169.5035,102.7962 169.5902,103.8984 169.6191,105.0036 169.5902,106.1088 169.5035,107.2110 169.3591,108.3072 169.1577,109.3943 168.8996,110.4693 168.5855,111.5294 168.2165,112.5716 167.7934,113.5931 167.3174,114.5910 166.7899,115.5626 166.2122,116.5053 165.5860,117.4165 164.9129,118.2936 164.1949,119.1343 163.4338,119.9363 162.6318,120.6974 161.7911,121.4154 160.9140,122.0885 160.0028,122.7147 159.0601,123.2924 158.0885,123.8199 157.0906,124.2959 156.0691,124.7190 155.0269,125.0880 153.9668,125.4021 152.8918,125.6602 151.8047,125.8616 150.7085,126.0060 149.6063,126.0927 148.5011,126.1216 147.3959,126.0927 146.2937,126.0060 145.1975,125.8616 144.1104,125.6602 143.0354,125.4021 141.9753,125.0880 140.9331,124.7190 139.9116,124.2959 138.9137,123.8199 137.9421,123.2924 136.9994,122.7147 136.0882,122.0885 135.2111,121.4154 134.3704,120.6974 133.5684,119.9363 132.8073,119.1343 132.0893,118.2936 131.4162,117.4165 130.7900,116.5053 130.2123,115.5626 129.6848,114.5910 129.2088,113.5931 128.7857,112.5716 128.4167,111.5294 128.1026,110.4693 127.8445,109.3943 127.6430,108.3072 127.4987,107.2110 127.4850,107.0367 118.5948,107.0367 118.5948,107.6270 118.4599,108.4782 118.0688,109.2460 117.4594,109.8554 116.6915,110.2467 115.8403,110.3815 114.9890,110.2467 114.2211,109.8554 113.6117,109.2460 113.2206,108.4782 113.0857,107.6270 113.0857,102.3802 113.2206,101.5290 113.6117,100.7612 114.2211,100.1518 114.9890,99.7605 115.8403,99.6257 116.6915,99.7605 117.4594,100.1518 118.0688,100.7612 118.4599,101.5290 118.5948,102.3802 118.5948,102.9705 127.4850,102.9705 127.4987,102.7962 127.6430,101.7000 127.8445,100.6129 128.1026,99.5379 128.4167,98.4778 128.7857,97.4356 129.2088,96.4141 129.6848,95.4162 130.2123,94.4446 130.7900,93.5019 131.4162,92.5907 132.0893,91.7136 132.8073,90.8729 133.5684,90.0709 134.3704,89.3098 135.2111,88.5918 136.0882,87.9187 136.9994,87.2925 137.9421,86.7148 138.9137,86.1873 139.9116,85.7113 140.9331,85.2882 141.9753,84.9192 143.0354,84.6051 144.1104,84.3470 145.1975,84.1455 146.2937,84.0012 147.3959,83.9145 148.5011,83.8855 Z"/> 
<svg:g>
</svg:g>
<svg:g>
</svg:g>
<svg:g>
</svg:g>
<svg:g>
</svg:g>
<svg:g>
</svg:g>
<svg:g>
</svg:g>
<svg:g>
</svg:g>
<svg:g>
</svg:g>
<svg:g>
</svg:g>
<svg:g>
</svg:g>
<svg:g>
</svg:g>
<svg:g>
</svg:g>
<svg:g>
</svg:g>
<svg:g>
</svg:g>
<svg:g>
</svg:g>
<svg:g>
</svg:g>
<svg:g>
</svg:g>
<svg:g>
</svg:g>
<svg:g>
</svg:g>
<svg:g>
</svg:g>
<svg:g>
</svg:g>
<svg:g>
</svg:g>
<svg:g>
</svg:g>
<svg:g>
</svg:g>
<svg:g>
</svg:g>
<svg:g>
</svg:g>
<svg:g>
</svg:g>
<svg:g>
</svg:g>
<svg:g>
</svg:g>
<svg:g>
</svg:g>
<svg:g>
</svg:g>
<svg:g>
</svg:g>
<svg:g>
</svg:g>
<svg:g>
</svg:g>
<svg:g>
</svg:g>
<svg:g>
</svg:g>
<svg:g>
</svg:g>
<svg:g>
</svg:g>
<svg:g>
</svg:g>
<svg:g>
</svg:g>
<svg:g>
</svg:g>
<svg:g>
</svg:g>
<svg:g>
</svg:g>
<svg:g>
</svg:g>
<svg:g>
</svg:g>
<svg:g>
</svg:g>
<svg:g>
</svg:g>
<svg:g>
</svg:g>
<svg:g>
</svg:g>
<svg:g>
</svg:g>
<svg:g>
</svg:g>
<svg:g>
</svg:g>
<svg:g>
</svg:g>
<svg:g>
</svg:g>
<svg:g>
</svg:g>
<svg:g>
</svg:g>
<svg:g>
</svg:g>
<svg:g>
</svg:g>
<svg:g>
</svg:g>
<svg:g>
</svg:g>
<svg:g>
</svg:g>
<svg:g>
</svg:g>
<svg:g>
</svg:g>
<svg:g>
</svg:g>
<svg:g>
</svg:g>
<svg:g>
</svg:g>
<svg:g>
</svg:g>
<svg:g>
</svg:g>
<svg:g>
</svg:g>
<svg:g>
</svg:g>
<svg:g>
</svg:g>
<svg:g>
</svg:g>
<svg:g>
</svg:g>
<svg:g>
</svg:g>
<svg:g>
</svg:g>
<svg:g>
</svg:g>
<svg:g>
</svg:g>
<svg:g>
</svg:g>
<svg:g>
</svg:g>
<svg:g>
</svg:g>
<svg:g>
</svg:g>
<svg:g>
</svg:g>
<svg:g>
</svg:g>
<svg:g>
</svg:g>
<svg:g>
</svg:g>
<svg:g>
</svg:g>
<svg:g>
</svg:g>
<svg:g>
</svg:g>
<svg:g>
</svg:g>
<svg:g>
</svg:g>
</svg:g> 
</svg:g></svg:g></svg>
