<?xml version='1.0' encoding='ASCII' standalone='yes'?>
<svg xmlns:svg="http://www.w3.org/2000/svg" xmlns="http://www.w3.org/2000/svg" xmlns:xlink="http://www.w3.org/1999/xlink" version="1.1" width="29.700220cm" height="21.000720cm" viewBox="0 0 2970022 2100072">
<title>SVG Picture created as USTTHUNDERMILLPCB01-B_Fab.svg date 2023/06/15 06:45:33 </title>
  <desc>Picture generated by PCBNEW </desc>
<g style="fill:#000084; fill-opacity:1.000000;stroke:#000084; stroke-opacity:1.000000; stroke-linecap:round; stroke-linejoin:round;" transform="translate(0 0) scale(1 1)">
</g>
<g style="fill:#000084; fill-opacity:0.0;  stroke:#000084; stroke-width:0.000000; stroke-opacity:1;  stroke-linecap:round; stroke-linejoin:round;">
</g>
<g style="fill:#000084; fill-opacity:0.0;  stroke:#000084; stroke-width:3935.040600; stroke-opacity:1;  stroke-linecap:round; stroke-linejoin:round;">
<g transform="rotate(-340.000000 1073487.942536 900018.183635)">
<text x="1073487.942536" y="913134.985634" transform="scale(-1 1) translate(-2146975.885072 0)" textLength="47351.655215" font-size="34978.129919" lengthAdjust="spacingAndGlyphs" text-anchor="middle" opacity="0.01" style="font-family:monospace">U6</text>
</g>
<g class="stroked-text"><desc>U6</desc>
<path d="M1097183 893354 L1089920 913310 L1087891 915231 L1086290 915977 L1083515 916297 L1078820 914588 L1076899 912559 L1076152 910958 L1075833 908183 L1083096 888227 "/>
<path d="M1060793 880109 L1065488 881818 L1067409 883847 L1068155 885448 L1069221 889824 L1068686 894947 L1065268 904338 L1063240 906258 L1061639 907005 L1058864 907324 L1054168 905615 L1052248 903587 L1051501 901986 L1051182 899211 L1053318 893341 L1055346 891421 L1056947 890674 L1059722 890355 L1064418 892064 L1066338 894092 L1067085 895693 L1067404 898468 "/>
</g><g transform="rotate(-250.000000 1635028.808245 638512.935665)">
<text x="1635028.808245" y="651629.737664" transform="scale(-1 1) translate(-3270057.616490 0)" textLength="72336.041224" font-size="34978.129919" lengthAdjust="spacingAndGlyphs" text-anchor="middle" opacity="0.01" style="font-family:monospace">U13</text>
</g>
<g class="stroked-text"><desc>U13</desc>
<path d="M1637419 673947 L1617463 666683 L1615543 664655 L1614796 663054 L1614477 660279 L1616186 655583 L1618214 653663 L1619815 652916 L1622590 652597 L1642546 659860 "/>
<path d="M1626867 626236 L1621740 640323 "/>
<path d="M1624304 633280 L1648955 642252 L1644579 643318 L1641377 644811 L1639348 646732 "/>
<path d="M1654510 626992 L1660064 611731 L1647682 616530 L1648964 613009 L1648644 610234 L1647898 608632 L1645977 606604 L1640108 604468 L1637333 604787 L1635732 605534 L1633703 607454 L1631140 614497 L1631459 617273 L1632206 618874 "/>
</g></g>
<g style="fill:#000084; fill-opacity:0.0;  stroke:#000084; stroke-width:393.504060; stroke-opacity:1;  stroke-linecap:round; stroke-linejoin:round;">
<g transform="rotate(-30.000000 897310.429731 1470046.223610)">
<text x="897310.429731" y="1483163.025609" transform="scale(-1 1) translate(-1794620.859463 0)" textLength="191011.855091" font-size="34978.129919" lengthAdjust="spacingAndGlyphs" text-anchor="middle" opacity="0.01" style="font-family:monospace">VCNT2020</text>
</g>
<g class="stroked-text"><desc>VCNT2020</desc>
<path d="M972889 1409822 L978433 1436913 L957743 1418566 "/>
<path d="M949055 1450989 L950762 1451446 L954632 1450654 L956796 1449405 L959417 1446449 L960331 1443037 L960164 1440248 L958747 1435296 L956873 1432051 L953293 1428348 L950962 1426809 L947549 1425894 L943679 1426686 L941515 1427935 L938894 1430891 L938437 1432598 "/>
<path d="M940568 1458774 L927451 1436055 L927585 1466270 L914469 1443551 "/>
<path d="M906896 1447923 L893913 1455418 "/>
<path d="M913521 1474390 L900405 1451671 "/>
<path d="M888671 1461330 L886965 1460872 L884177 1461040 L878767 1464163 L877228 1466494 L876771 1468200 L876938 1470989 L878188 1473152 L881143 1475773 L901621 1481260 L887557 1489380 "/>
<path d="M860376 1474781 L858212 1476030 L856673 1478361 L856216 1480068 L856383 1482856 L857800 1487808 L860923 1493218 L864503 1496920 L866834 1498459 L868541 1498917 L871329 1498749 L873493 1497500 L875032 1495169 L875489 1493463 L875322 1490674 L873905 1485722 L870782 1480313 L867202 1476610 L864871 1475071 L863164 1474614 L860376 1474781 "/>
<path d="M845397 1486314 L843691 1485857 L840902 1486024 L835493 1489147 L833954 1491478 L833497 1493185 L833664 1495973 L834913 1498137 L837869 1500758 L858347 1506245 L844283 1514365 "/>
<path d="M817102 1499766 L814938 1501015 L813399 1503346 L812942 1505052 L813109 1507841 L814526 1512793 L817649 1518202 L821229 1521905 L823560 1523444 L825266 1523901 L828055 1523734 L830218 1522484 L831758 1520153 L832215 1518447 L832047 1515659 L830631 1510707 L827508 1505297 L823928 1501594 L821596 1500055 L819890 1499598 L817102 1499766 "/>
</g></g>
<g style="fill:#000084; fill-opacity:0.0;  stroke:#000084; stroke-width:3935.040600; stroke-opacity:1;  stroke-linecap:round; stroke-linejoin:round;">
<g transform="rotate(-30.000000 992166.813242 1334492.207370)">
<text x="992166.813242" y="1347609.009369" transform="scale(-1 1) translate(-1984333.626483 0)" textLength="51955.652717" font-size="34978.129919" lengthAdjust="spacingAndGlyphs" text-anchor="middle" opacity="0.01" style="font-family:monospace">U5</text>
</g>
<g class="stroked-text"><desc>U5</desc>
<path d="M1002293 1312057 L1012911 1330448 L1013079 1333236 L1012621 1334943 L1011082 1337274 L1006755 1339772 L1003967 1339940 L1002260 1339483 L999929 1337943 L989311 1319552 "/>
<path d="M967674 1332044 L978492 1325798 L985820 1335992 L984114 1335535 L981325 1335702 L975916 1338825 L974377 1341156 L973920 1342863 L974087 1345651 L977210 1351060 L979541 1352599 L981248 1353057 L984036 1352889 L989445 1349766 L990984 1347435 L991442 1345729 "/>
</g></g>
<g style="fill:#000084; fill-opacity:0.0;  stroke:#000084; stroke-width:3331.667708; stroke-opacity:1;  stroke-linecap:round; stroke-linejoin:round;">
<path d="M1051645 864151 L1033701 913454 "/>
<path d="M1051645 864151 L1113274 886582 "/>
<path d="M1113274 886582 L1095329 935885 "/>
<path d="M1033701 913454 L1095329 935885 "/>
</g>
<g style="fill:#000084; fill-opacity:0.0;  stroke:#000084; stroke-width:5246.720800; stroke-opacity:1;  stroke-linecap:round; stroke-linejoin:round;">
<circle cx="1127565.762648" cy="898211.265459" r="2623.360400"/> 
</g>
<g style="fill:#000084; fill-opacity:0.0;  stroke:#000084; stroke-width:3331.667708; stroke-opacity:1;  stroke-linecap:round; stroke-linejoin:round;">
<path d="M1670895 616670 L1648464 678299 "/>
<path d="M1621592 598726 L1599161 660354 "/>
<path d="M1670895 616670 L1621592 598726 "/>
<path d="M1648464 678299 L1599161 660354 "/>
</g>
<g style="fill:#000084; fill-opacity:0.0;  stroke:#000084; stroke-width:5246.720800; stroke-opacity:1;  stroke-linecap:round; stroke-linejoin:round;">
<circle cx="1636835.726421" cy="692590.755778" r="2623.360400"/> 
</g>
<g style="fill:#000084; fill-opacity:0.0;  stroke:#000084; stroke-width:3331.667708; stroke-opacity:1;  stroke-linecap:round; stroke-linejoin:round;">
<path d="M950651 1328169 L976884 1373607 "/>
<path d="M1007448 1295377 L1033682 1340815 "/>
<path d="M950651 1328169 L1007448 1295377 "/>
<path d="M976884 1373607 L1033682 1340815 "/>
</g>
<g style="fill:#000084; fill-opacity:0.0;  stroke:#000084; stroke-width:5246.720800; stroke-opacity:1;  stroke-linecap:round; stroke-linejoin:round;">
<circle cx="1025543.171768" cy="1291904.732042" r="2623.360400"/> 
<g>
</g>
<g>
</g>
<g>
</g>
<g>
</g>
<g>
</g>
<g>
</g>
<g>
</g>
<g>
</g>
<g>
</g>
<g>
</g>
<g>
</g>
<g>
</g>
<g>
</g>
<g>
</g>
<g>
</g>
<g>
</g>
<g>
</g>
<g>
</g>
<g>
</g>
<g>
</g>
<g>
</g>
<g>
</g>
<g>
</g>
<g>
</g>
<g>
</g>
<g>
</g>
<g>
</g>
<g>
</g>
<g>
</g>
<g>
</g>
<g>
</g>
<g>
</g>
<g>
</g>
<g>
</g>
<g>
</g>
<g>
</g>
<g>
</g>
<g>
</g>
<g>
</g>
<g>
</g>
<g>
</g>
<g>
</g>
<g>
</g>
<g>
</g>
<g>
</g>
<g>
</g>
<g>
</g>
<g>
</g>
<g>
</g>
<g>
</g>
<g>
</g>
<g>
</g>
<g>
</g>
<g>
</g>
<g>
</g>
<g>
</g>
<g>
</g>
<g>
</g>
<g>
</g>
<g>
</g>
<g>
</g>
<g>
</g>
<g>
</g>
<g>
</g>
<g>
</g>
<g>
</g>
<g>
</g>
<g>
</g>
<g>
</g>
<g>
</g>
<g>
</g>
<g>
</g>
<g>
</g>
<g>
</g>
<g>
</g>
<g>
</g>
<g>
</g>
<g>
</g>
<g>
</g>
<g>
</g>
<g>
</g>
<g>
</g>
<g>
</g>
<g>
</g>
<g>
</g>
<g>
</g>
<g>
</g>
<g>
</g>
<g>
</g>
</g> 
<svg:g><svg:g><svg:title>SVG Picture created as USTTHUNDERMILLPCB01-Edge_Cuts.svg date 2023/06/15 06:45:33 </svg:title>
  <svg:desc>Picture generated by PCBNEW </svg:desc>
<svg:g style="fill:#C2C200; fill-opacity:1.000000;stroke:#C2C200; stroke-opacity:1.000000; stroke-linecap:round; stroke-linejoin:round;" transform="translate(0 0) scale(1 1)">
</svg:g>
<svg:g style="fill:#C2C200; fill-opacity:0.0;  stroke:#C2C200; stroke-width:0.000000; stroke-opacity:1;  stroke-linecap:round; stroke-linejoin:round;">
</svg:g>
<svg:g style="fill:#C2C200; fill-opacity:0.0;  stroke:#C2C200; stroke-width:1311.680200; stroke-opacity:1;  stroke-linecap:round; stroke-linejoin:round;">
<svg:path style="fill:#C2C200; fill-opacity:0.0;  stroke:#C2C200; stroke-width:1311.680200; stroke-opacity:1;  stroke-linecap:round; stroke-linejoin:round;fill:none" d="M 1311508.973142,654202.414741 1320650.361024,658858.826983 1327904.975640,666115.041849 1332562.778264,675254.829482 1334167.776390,685388.896939 1332562.778264,695522.964397 1327904.975640,704662.752030 1320650.361024,711918.966896 1311508.973142,716575.379138 1301375.771393,718180.901936 1291242.543410,716575.484072 1282101.155528,711919.019363 1274846.540912,704662.804497 1270188.738289,695523.016864 1268583.766396,685388.896939 1270188.738289,675254.829482 1274846.540912,666115.041849 1282101.155528,658858.826983 1291242.543410,654202.414741 1301375.771393,652596.891943 Z"/> 
<svg:path style="fill:#C2C200; fill-opacity:0.0;  stroke:#C2C200; stroke-width:1311.680200; stroke-opacity:1;  stroke-linecap:round; stroke-linejoin:round;fill:none" d="M 1311508.973142,1383496.579638 1320650.361024,1388152.991880 1327904.975640,1395409.206746 1332562.778264,1404548.994379 1334167.776390,1414683.114304 1332562.778264,1424817.129294 1327904.975640,1433956.916927 1320650.361024,1441213.131793 1311508.973142,1445869.544035 1301375.771393,1447475.119300 1291242.543410,1445869.544035 1282101.155528,1441213.131793 1274846.540912,1433956.916927 1270188.738289,1424817.129294 1268583.766396,1414683.114304 1270188.738289,1404549.099313 1274846.540912,1395409.206746 1282101.155528,1388152.991880 1291242.543410,1383496.579638 1301375.771393,1381891.109307 Z"/> 
<svg:path style="fill:#C2C200; fill-opacity:0.0;  stroke:#C2C200; stroke-width:1311.680200; stroke-opacity:1;  stroke-linecap:round; stroke-linejoin:round;fill:none" d="M 902265.537789,1018848.959400 911405.325422,1023506.762024 918661.540287,1030761.376640 923318.004997,1039902.659588 924923.527795,1050035.992505 923318.057464,1060169.299188 918661.592755,1069310.582136 911405.377889,1076565.196752 902265.590256,1081222.999375 892131.522798,1082827.997502 881997.507808,1081222.999375 872857.720175,1076565.196752 865601.505309,1069310.582136 860945.040600,1060169.299188 859339.517801,1050035.992505 860945.040600,1039902.659588 865601.505309,1030761.376640 872857.720175,1023506.762024 881997.507808,1018848.959400 892131.522798,1017243.987508 Z"/> 
<svg:path style="fill:#C2C200; fill-opacity:0.0;  stroke:#C2C200; stroke-width:1311.680200; stroke-opacity:1;  stroke-linecap:round; stroke-linejoin:round;fill:none" d="M 1539929.501562,2129.565272 1594697.370394,6439.720175 1649164.549656,13611.987508 1703181.901312,23622.704560 1756602.202374,36448.287320 1809276.655840,52049.411618 1861061.868832,70389.350406 1911818.619613,91412.934416 1961402.728295,115062.554653 2009683.079325,141277.742661 2056525.750156,169982.499688 2101799.703935,201098.177389 2145384.213616,234543.399126 2187158.578389,270221.126796 2227010.151156,308036.866958 2264825.838851,347888.334791 2300503.566521,389662.699563 2333948.840725,433247.209244 2365064.413492,478521.163023 2393769.222986,525363.912555 2419984.620862,573644.237352 2443634.136165,623228.346034 2464657.720175,673985.149282 2482997.554029,725770.309806 2498598.783260,778444.763273 2511424.366021,831864.959400 2521435.083073,885882.311056 2528607.350406,940349.595253 2532917.688944,995117.464085 2534355.159275,1050035.992505 2532917.295440,1104954.678326 2528607.350406,1159722.573392 2521434.899438,1214189.752655 2511424.366021,1268207.078076 2498598.573392,1321627.405372 2482997.554029,1374301.858838 2464657.720175,1426087.071830 2443633.926296,1476843.822611 2419984.410993,1526427.905059 2393769.222986,1574708.256090 2365064.413492,1621550.953154 2333948.840725,1666824.880700 2300503.566521,1710409.390381 2264825.838851,1752183.781387 2227010.151156,1792035.354154 2187158.578389,1829851.041849 2145384.213616,1865528.743285 2101799.703935,1898973.833854 2056525.750156,1930089.616490 2009683.079325,1958794.425984 1961402.728295,1985009.613991 1911818.619613,2008659.339163 1861061.868832,2029682.713304 1809276.655840,2048022.730793 1756602.202374,2063623.960025 1703181.901312,2076449.359151 1649164.549656,2086460.286071 1594697.370394,2093632.343535 1539929.501562,2097942.682074 1485010.999375,2099380.152405 1430092.392255,2097942.288570 1375324.497189,2093632.343535 1320857.212992,2086459.892567 1266839.887570,2076449.359151 1213419.560275,2063623.566521 1160745.106808,2048022.547158 1108959.998751,2029682.713304 1058203.195503,2008658.919425 1008619.060587,1985009.404122 960338.762024,1958794.216115 913496.012492,1930089.406621 868222.084947,1898973.833854 824637.575265,1865528.559650 782863.184260,1829850.831980 743011.716427,1792035.144285 705195.976265,1752183.571518 669518.274828,1710409.206746 636073.026858,1666824.697064 604957.349157,1621550.743285 576252.539663,1574708.072455 550037.351655,1526427.721424 526387.731418,1476843.612742 505364.147408,1426086.861961 487024.234853,1374301.648969 471423.110556,1321627.195503 458597.501562,1268206.894441 448586.784510,1214189.542786 441414.543410,1159722.363523 437104.388507,1104954.494691 435666.839475,1050035.992505 437104.388507,995117.385384 441414.543410,940349.490319 448586.784510,885882.206121 458597.501562,831864.880700 471423.110556,778444.553404 487024.234853,725770.099938 505364.147408,673984.991880 526387.731418,623228.188632 550037.351655,573644.053716 576252.644597,525363.755153 604957.454091,478521.005621 636073.131793,433247.078076 669518.353529,389662.568395 705196.081199,347888.177389 743011.821362,308036.709557 782863.289194,270220.969394 824637.680200,234543.267958 868222.163648,201098.019988 913496.117427,169982.342286 960338.866958,141277.532792 1008619.191755,115062.344785 1058203.352904,91412.724547 1108960.103685,70389.140537 1160745.264210,52049.227983 1213419.770144,36448.103685 1266839.966271,23622.494691 1320857.317926,13611.777639 1375324.602124,6439.536540 1430092.470956,2129.381636 1485010.999375,691.832605 Z"/> 
<svg:path style="fill:#C2C200; fill-opacity:0.0;  stroke:#C2C200; stroke-width:1311.680200; stroke-opacity:1;  stroke-linecap:round; stroke-linejoin:round;fill:none" d="M 1496063.269207,839144.810743 1507085.344160,840012.329794 1518046.976889,841455.492817 1528917.920050,843470.154903 1539668.398501,846051.357901 1550269.450344,849191.546533 1560691.274204,852882.063710 1570905.852592,857112.940662 1580884.879450,861872.844472 1590601.281699,867148.396002 1600027.986259,872925.035603 1609139.756402,879187.311680 1617911.276702,885918.041224 1626318.333542,893098.204872 1634338.208620,900708.757027 1641948.760775,908728.632105 1649128.924422,917135.793879 1655859.653966,925907.209244 1662121.930044,935018.979388 1667898.569644,944445.683948 1673174.121174,954162.086196 1677934.024984,964141.113054 1682164.901936,974355.691443 1685855.419113,984777.515303 1688995.607745,995378.567146 1691576.810743,1006129.045597 1693591.472829,1016999.988757 1695034.635853,1027961.621487 1695902.154903,1038983.696440 1696191.485322,1050035.992505 1695902.154903,1061088.262336 1695034.635853,1072110.337289 1693591.472829,1083071.970019 1691576.810743,1093942.913179 1688995.607745,1104693.391630 1685855.419113,1115294.443473 1682164.901936,1125716.267333 1677934.024984,1135930.845721 1673174.121174,1145909.872580 1667898.569644,1155626.274828 1662121.930044,1165052.979388 1655859.653966,1174164.749532 1649128.924422,1182936.164897 1641948.760775,1191343.326671 1634338.208620,1199363.201749 1626318.333542,1206973.753904 1617911.171768,1214153.917552 1609139.756402,1220884.647096 1600027.986259,1227146.923173 1590601.281699,1232923.562773 1580884.879450,1238199.114304 1570905.852592,1242959.018114 1560691.274204,1247189.895066 1550269.450344,1250880.412242 1539668.398501,1254020.600874 1528917.920050,1256601.803873 1518046.976889,1258616.465959 1507085.344160,1260059.628982 1496063.269207,1260927.148032 1485010.999375,1261216.478451 1473958.703310,1260927.148032 1462936.628357,1260059.628982 1451974.995628,1258616.465959 1441104.052467,1256601.803873 1430353.574016,1254020.600874 1419752.522174,1250880.412242 1409330.698314,1247189.895066 1399116.119925,1242959.018114 1389137.093067,1238199.114304 1379420.690818,1232923.562773 1369993.986259,1227146.923173 1360882.216115,1220884.647096 1352110.800750,1214153.917552 1343703.638976,1206973.753904 1335683.763898,1199363.201749 1328073.211743,1191343.326671 1320893.048095,1182936.164897 1314162.318551,1174164.749532 1307900.042473,1165052.979388 1302123.402873,1155626.274828 1296847.851343,1145909.872580 1292087.947533,1135930.845721 1287857.070581,1125716.267333 1284166.553404,1115294.443473 1281026.364772,1104693.391630 1278445.161774,1093942.913179 1276430.499688,1083071.970019 1274987.336665,1072110.337289 1274850.134916,1070367.061836 1185947.913804,1070367.061836 1185947.913804,1076269.596502 1184599.480325,1084781.613991 1180688.049969,1092460.137414 1174594.009994,1098554.308557 1166915.434104,1102466.762024 1158402.603373,1103814.854466 1149889.825109,1102466.762024 1142211.249219,1098554.308557 1136117.183011,1092460.137414 1132205.726421,1084781.613991 1130857.345409,1076269.596502 1130857.345409,1023802.388507 1132205.726421,1015290.344785 1136117.183011,1007611.821362 1142211.249219,1001517.755153 1149889.825109,997605.196752 1158402.603373,996257.104310 1166915.434104,997605.196752 1174594.009994,1001517.755153 1180688.049969,1007611.821362 1184599.480325,1015290.344785 1185947.913804,1023802.388507 1185947.913804,1029704.896939 1274850.134916,1029704.896939 1274987.336665,1027961.621487 1276430.499688,1016999.988757 1278445.161774,1006129.045597 1281026.364772,995378.567146 1284166.553404,984777.515303 1287857.070581,974355.691443 1292087.947533,964141.113054 1296847.851343,954162.086196 1302123.402873,944445.683948 1307900.042473,935018.979388 1314162.318551,925907.209244 1320893.048095,917135.793879 1328073.211743,908728.632105 1335683.763898,900708.757027 1343703.638976,893098.204872 1352110.800750,885918.041224 1360882.216115,879187.311680 1369993.986259,872925.035603 1379420.690818,867148.396002 1389137.093067,861872.844472 1399116.119925,857112.940662 1409330.698314,852882.063710 1419752.522174,849191.546533 1430353.574016,846051.357901 1441104.052467,843470.154903 1451974.995628,841455.492817 1462936.628357,840012.329794 1473958.703310,839144.810743 1485010.999375,838855.480325 Z"/> 
<svg:g>
</svg:g>
<svg:g>
</svg:g>
<svg:g>
</svg:g>
<svg:g>
</svg:g>
<svg:g>
</svg:g>
<svg:g>
</svg:g>
<svg:g>
</svg:g>
<svg:g>
</svg:g>
<svg:g>
</svg:g>
<svg:g>
</svg:g>
<svg:g>
</svg:g>
<svg:g>
</svg:g>
<svg:g>
</svg:g>
<svg:g>
</svg:g>
<svg:g>
</svg:g>
<svg:g>
</svg:g>
<svg:g>
</svg:g>
<svg:g>
</svg:g>
<svg:g>
</svg:g>
<svg:g>
</svg:g>
<svg:g>
</svg:g>
<svg:g>
</svg:g>
<svg:g>
</svg:g>
<svg:g>
</svg:g>
<svg:g>
</svg:g>
<svg:g>
</svg:g>
<svg:g>
</svg:g>
<svg:g>
</svg:g>
<svg:g>
</svg:g>
<svg:g>
</svg:g>
<svg:g>
</svg:g>
<svg:g>
</svg:g>
<svg:g>
</svg:g>
<svg:g>
</svg:g>
<svg:g>
</svg:g>
<svg:g>
</svg:g>
<svg:g>
</svg:g>
<svg:g>
</svg:g>
<svg:g>
</svg:g>
<svg:g>
</svg:g>
<svg:g>
</svg:g>
<svg:g>
</svg:g>
<svg:g>
</svg:g>
<svg:g>
</svg:g>
<svg:g>
</svg:g>
<svg:g>
</svg:g>
<svg:g>
</svg:g>
<svg:g>
</svg:g>
<svg:g>
</svg:g>
<svg:g>
</svg:g>
<svg:g>
</svg:g>
<svg:g>
</svg:g>
<svg:g>
</svg:g>
<svg:g>
</svg:g>
<svg:g>
</svg:g>
<svg:g>
</svg:g>
<svg:g>
</svg:g>
<svg:g>
</svg:g>
<svg:g>
</svg:g>
<svg:g>
</svg:g>
<svg:g>
</svg:g>
<svg:g>
</svg:g>
<svg:g>
</svg:g>
<svg:g>
</svg:g>
<svg:g>
</svg:g>
<svg:g>
</svg:g>
<svg:g>
</svg:g>
<svg:g>
</svg:g>
<svg:g>
</svg:g>
<svg:g>
</svg:g>
<svg:g>
</svg:g>
<svg:g>
</svg:g>
<svg:g>
</svg:g>
<svg:g>
</svg:g>
<svg:g>
</svg:g>
<svg:g>
</svg:g>
<svg:g>
</svg:g>
<svg:g>
</svg:g>
<svg:g>
</svg:g>
<svg:g>
</svg:g>
<svg:g>
</svg:g>
<svg:g>
</svg:g>
<svg:g>
</svg:g>
<svg:g>
</svg:g>
<svg:g>
</svg:g>
<svg:g>
</svg:g>
<svg:g>
</svg:g>
<svg:g>
</svg:g>
<svg:g>
</svg:g>
</svg:g> 
</svg:g></svg:g></svg>
